<?xml version="1.0" ?>
<svg xmlns="http://www.w3.org/2000/svg" version="1.1" width="224" height="224">
  <defs/>
  <g>
    <path d="M 137.67745971679688 125.99711608886719 C 103.23531341552734 108.50028991699219 223.0813751220703 149.4284210205078 121.90372467041016 130.53330993652344" stroke-width="2" fill="none" stroke="rgb(0, 0, 0)" stroke-opacity="1.0" stroke-linecap="round" stroke-linejoin="round"/>
    <path d="M 163.47674560546875 134.76412963867188 C 75.77294158935547 147.98965454101562 116.03135681152344 141.1685333251953 96.39545440673828 144.98062133789062" stroke-width="2" fill="none" stroke="rgb(0, 0, 0)" stroke-opacity="1.0" stroke-linecap="round" stroke-linejoin="round"/>
    <path d="M 164.9751434326172 116.31527709960938 C 119.0326156616211 116.64085388183594 85.76786041259766 84.81985473632812 166.69418334960938 93.57027435302734" stroke-width="2" fill="none" stroke="rgb(0, 0, 0)" stroke-opacity="1.0" stroke-linecap="round" stroke-linejoin="round"/>
    <path d="M 159.63047790527344 117.62104034423828 C 137.3360595703125 131.0380401611328 182.0791778564453 118.56731414794922 153.69032287597656 123.4129638671875" stroke-width="2" fill="none" stroke="rgb(0, 0, 0)" stroke-opacity="1.0" stroke-linecap="round" stroke-linejoin="round"/>
    <path d="M 114.87518310546875 121.78730010986328 C 128.6068115234375 75.46776580810547 236.22474670410156 177.97052001953125 84.66310119628906 130.51344299316406" stroke-width="2" fill="none" stroke="rgb(0, 0, 0)" stroke-opacity="1.0" stroke-linecap="round" stroke-linejoin="round"/>
    <path d="M 154.75392150878906 116.50485229492188 C 52.9294319152832 113.67295837402344 115.16590118408203 108.8122329711914 106.17168426513672 131.50364685058594" stroke-width="2" fill="none" stroke="rgb(0, 0, 0)" stroke-opacity="1.0" stroke-linecap="round" stroke-linejoin="round"/>
    <path d="M 90.49540710449219 108.03050994873047 C 93.84869384765625 9.148681640625 116.82891845703125 151.3050537109375 167.62396240234375 67.48554229736328" stroke-width="2" fill="none" stroke="rgb(0, 0, 0)" stroke-opacity="1.0" stroke-linecap="round" stroke-linejoin="round"/>
    <path d="M 49.91432189941406 102.62422943115234 C 27.64045524597168 147.6155242919922 41.503089904785156 134.42613220214844 51.48074722290039 148.74166870117188" stroke-width="2" fill="none" stroke="rgb(0, 0, 0)" stroke-opacity="1.0" stroke-linecap="round" stroke-linejoin="round"/>
    <path d="M 55.341922760009766 133.12245178222656 C 271.87310791015625 174.58895874023438 77.78025817871094 133.60389709472656 110.13446044921875 136.72897338867188" stroke-width="2" fill="none" stroke="rgb(0, 0, 0)" stroke-opacity="1.0" stroke-linecap="round" stroke-linejoin="round"/>
    <path d="M 151.92825317382812 138.42254638671875 C 64.4760513305664 128.9615478515625 103.16310119628906 124.61956024169922 105.30532836914062 130.2957000732422" stroke-width="2" fill="none" stroke="rgb(0, 0, 0)" stroke-opacity="1.0" stroke-linecap="round" stroke-linejoin="round"/>
    <path d="M 170.86358642578125 114.90106201171875 C 172.22116088867188 27.051456451416016 176.37026977539062 124.63157653808594 156.19187927246094 93.73165893554688" stroke-width="2" fill="none" stroke="rgb(0, 0, 0)" stroke-opacity="1.0" stroke-linecap="round" stroke-linejoin="round"/>
    <path d="M 153.4510955810547 116.58633422851562 C 144.3893585205078 127.5473403930664 230.70388793945312 177.53517150878906 68.599365234375 150.98974609375" stroke-width="2" fill="none" stroke="rgb(0, 0, 0)" stroke-opacity="1.0" stroke-linecap="round" stroke-linejoin="round"/>
    <path d="M 92.45870208740234 102.05996704101562 C 43.75929641723633 84.83995056152344 14.339670181274414 163.8644561767578 68.43670654296875 149.9696807861328" stroke-width="2" fill="none" stroke="rgb(0, 0, 0)" stroke-opacity="1.0" stroke-linecap="round" stroke-linejoin="round"/>
    <path d="M 115.88821411132812 122.3502426147461 C 128.7508087158203 102.7292251586914 116.73365783691406 137.65138244628906 101.43891143798828 74.59243774414062" stroke-width="2" fill="none" stroke="rgb(0, 0, 0)" stroke-opacity="1.0" stroke-linecap="round" stroke-linejoin="round"/>
    <path d="M 160.2836151123047 109.31343841552734 C 180.34255981445312 124.14410400390625 195.49087524414062 14.421638488769531 171.30418395996094 75.81189727783203" stroke-width="2" fill="none" stroke="rgb(0, 0, 0)" stroke-opacity="1.0" stroke-linecap="round" stroke-linejoin="round"/>
    <path d="M 159.82728576660156 136.3013458251953 C 119.87583923339844 128.1218719482422 184.27691650390625 127.04633331298828 122.12191009521484 138.43734741210938" stroke-width="2" fill="none" stroke="rgb(0, 0, 0)" stroke-opacity="1.0" stroke-linecap="round" stroke-linejoin="round"/>
  </g>
</svg>
