<?xml version="1.0" ?>
<svg xmlns="http://www.w3.org/2000/svg" version="1.1" width="224" height="224">
  <defs/>
  <g>
    <path d="M 114.934326171875 121.51521301269531 C 162.07199096679688 120.80207061767578 213.91928100585938 159.79388427734375 116.64288330078125 121.95498657226562" stroke-width="2" fill="none" stroke="rgb(0, 0, 0)" stroke-opacity="1.0" stroke-linecap="round" stroke-linejoin="round"/>
    <path d="M 98.37859344482422 95.72273254394531 C 75.95431518554688 123.40713500976562 111.28409576416016 88.07560729980469 52.52119445800781 105.23432922363281" stroke-width="2" fill="none" stroke="rgb(0, 0, 0)" stroke-opacity="1.0" stroke-linecap="round" stroke-linejoin="round"/>
    <path d="M 154.5357208251953 129.74020385742188 C 69.76081085205078 138.31906127929688 139.64437866210938 54.36064529418945 164.93565368652344 105.42760467529297" stroke-width="2" fill="none" stroke="rgb(0, 0, 0)" stroke-opacity="1.0" stroke-linecap="round" stroke-linejoin="round"/>
    <path d="M 177.62432861328125 96.8756332397461 C 149.6604461669922 97.88038635253906 212.1427764892578 171.53009033203125 79.36908721923828 149.96731567382812" stroke-width="2" fill="none" stroke="rgb(0, 0, 0)" stroke-opacity="1.0" stroke-linecap="round" stroke-linejoin="round"/>
    <path d="M 86.10777282714844 123.91410064697266 C 33.279022216796875 122.041748046875 255.21531677246094 166.34884643554688 76.78521728515625 140.07447814941406" stroke-width="2" fill="none" stroke="rgb(0, 0, 0)" stroke-opacity="1.0" stroke-linecap="round" stroke-linejoin="round"/>
    <path d="M 69.82345581054688 156.14991760253906 C 29.160198211669922 151.97488403320312 29.64890480041504 114.9647216796875 61.08774948120117 101.40205383300781" stroke-width="2" fill="none" stroke="rgb(0, 0, 0)" stroke-opacity="1.0" stroke-linecap="round" stroke-linejoin="round"/>
    <path d="M 115.97461700439453 119.96748352050781 C 87.01339721679688 10.421103477478027 132.81265258789062 117.03015899658203 130.973388671875 91.64701080322266" stroke-width="2" fill="none" stroke="rgb(0, 0, 0)" stroke-opacity="1.0" stroke-linecap="round" stroke-linejoin="round"/>
    <path d="M 100.40592956542969 148.99205017089844 C 72.10295104980469 153.99264526367188 62.727508544921875 124.43273162841797 79.71084594726562 140.8293914794922" stroke-width="2" fill="none" stroke="rgb(0, 0, 0)" stroke-opacity="1.0" stroke-linecap="round" stroke-linejoin="round"/>
    <path d="M 113.21746063232422 111.25859832763672 C 173.53091430664062 124.34296417236328 98.32500457763672 134.3027801513672 134.17758178710938 115.55302429199219" stroke-width="2" fill="none" stroke="rgb(0, 0, 0)" stroke-opacity="1.0" stroke-linecap="round" stroke-linejoin="round"/>
    <path d="M 132.86061096191406 126.88619995117188 C 189.1873779296875 115.78351593017578 65.17071533203125 134.36546325683594 133.81021118164062 113.28437805175781" stroke-width="2" fill="none" stroke="rgb(0, 0, 0)" stroke-opacity="1.0" stroke-linecap="round" stroke-linejoin="round"/>
    <path d="M 154.69786071777344 93.19400787353516 C 199.72523498535156 33.0894660949707 148.37632751464844 114.70286560058594 113.37481689453125 77.1465072631836" stroke-width="2" fill="none" stroke="rgb(0, 0, 0)" stroke-opacity="1.0" stroke-linecap="round" stroke-linejoin="round"/>
    <path d="M 159.08056640625 109.04265594482422 C 140.80221557617188 139.1667022705078 237.95947265625 180.85369873046875 46.73664855957031 141.42994689941406" stroke-width="2" fill="none" stroke="rgb(0, 0, 0)" stroke-opacity="1.0" stroke-linecap="round" stroke-linejoin="round"/>
    <path d="M 46.9034423828125 132.37896728515625 C 49.376434326171875 112.85144805908203 8.718799591064453 145.50453186035156 84.25907897949219 149.54295349121094" stroke-width="2" fill="none" stroke="rgb(0, 0, 0)" stroke-opacity="1.0" stroke-linecap="round" stroke-linejoin="round"/>
    <path d="M 156.97042846679688 129.20849609375 C 157.82545471191406 157.7801055908203 166.49794006347656 156.54393005371094 172.52734375 140.7222442626953" stroke-width="2" fill="none" stroke="rgb(0, 0, 0)" stroke-opacity="1.0" stroke-linecap="round" stroke-linejoin="round"/>
    <path d="M 147.14320373535156 105.5123519897461 C 182.47457885742188 143.08631896972656 200.85946655273438 -0.776664137840271 163.20660400390625 86.65116119384766" stroke-width="2" fill="none" stroke="rgb(0, 0, 0)" stroke-opacity="1.0" stroke-linecap="round" stroke-linejoin="round"/>
    <path d="M 152.60743713378906 156.8140411376953 C 40.999935150146484 127.47901153564453 160.97793579101562 96.48440551757812 140.215576171875 129.02256774902344" stroke-width="2" fill="none" stroke="rgb(0, 0, 0)" stroke-opacity="1.0" stroke-linecap="round" stroke-linejoin="round"/>
  </g>
</svg>
