<?xml version="1.0" ?>
<svg xmlns="http://www.w3.org/2000/svg" version="1.1" width="224" height="224">
  <defs/>
  <g>
    <path d="M 92.73635864257812 105.44389343261719 C 87.24869537353516 99.86076354980469 91.31719970703125 107.98084259033203 86.83455657958984 98.25315856933594" stroke-width="2" fill="none" stroke="rgb(0, 0, 0)" stroke-opacity="1.0" stroke-linecap="round" stroke-linejoin="round"/>
    <path d="M 112.60546112060547 140.36221313476562 C 119.60264587402344 136.97238159179688 125.141845703125 136.35189819335938 110.3524169921875 135.93641662597656" stroke-width="2" fill="none" stroke="rgb(0, 0, 0)" stroke-opacity="1.0" stroke-linecap="round" stroke-linejoin="round"/>
    <path d="M 141.58602905273438 131.403076171875 C 121.8545150756836 135.51950073242188 131.33486938476562 144.30162048339844 110.0419921875 127.74104309082031" stroke-width="2" fill="none" stroke="rgb(0, 0, 0)" stroke-opacity="1.0" stroke-linecap="round" stroke-linejoin="round"/>
    <path d="M 148.87777709960938 113.39942932128906 C 132.36807250976562 118.84620666503906 151.3992462158203 120.26722717285156 156.08302307128906 114.08631134033203" stroke-width="2" fill="none" stroke="rgb(0, 0, 0)" stroke-opacity="1.0" stroke-linecap="round" stroke-linejoin="round"/>
    <path d="M 119.53956604003906 99.09312438964844 C 124.45006561279297 93.52430725097656 124.70166778564453 90.92493438720703 135.76962280273438 87.90790557861328" stroke-width="2" fill="none" stroke="rgb(0, 0, 0)" stroke-opacity="1.0" stroke-linecap="round" stroke-linejoin="round"/>
    <path d="M 126.3572006225586 87.8952865600586 C 115.63505554199219 86.32404327392578 115.76663970947266 95.23505401611328 115.76103973388672 100.82952880859375" stroke-width="2" fill="none" stroke="rgb(0, 0, 0)" stroke-opacity="1.0" stroke-linecap="round" stroke-linejoin="round"/>
    <path d="M 96.81451416015625 88.61105346679688 C 107.865478515625 86.54914093017578 123.30184173583984 86.09974670410156 134.10398864746094 85.65615844726562" stroke-width="2" fill="none" stroke="rgb(0, 0, 0)" stroke-opacity="1.0" stroke-linecap="round" stroke-linejoin="round"/>
    <path d="M 76.2332992553711 139.5276641845703 C 81.69355010986328 150.26602172851562 47.87204360961914 146.08340454101562 48.56613540649414 126.88079833984375" stroke-width="2" fill="none" stroke="rgb(0, 0, 0)" stroke-opacity="1.0" stroke-linecap="round" stroke-linejoin="round"/>
    <path d="M 150.3739471435547 119.10870361328125 C 153.17808532714844 114.286376953125 150.8042755126953 106.01319122314453 148.35400390625 120.31381225585938" stroke-width="2" fill="none" stroke="rgb(0, 0, 0)" stroke-opacity="1.0" stroke-linecap="round" stroke-linejoin="round"/>
    <path d="M 122.85263061523438 127.71440124511719 C 111.51493835449219 124.15354919433594 108.52294921875 131.53045654296875 103.45555114746094 123.32694244384766" stroke-width="2" fill="none" stroke="rgb(0, 0, 0)" stroke-opacity="1.0" stroke-linecap="round" stroke-linejoin="round"/>
    <path d="M 183.71255493164062 59.60663604736328 C 190.66856384277344 74.01152801513672 188.36590576171875 74.4817886352539 181.16793823242188 92.20716857910156" stroke-width="2" fill="none" stroke="rgb(0, 0, 0)" stroke-opacity="1.0" stroke-linecap="round" stroke-linejoin="round"/>
    <path d="M 188.61257934570312 134.59364318847656 C 175.9864501953125 151.09228515625 162.20361328125 146.10072326660156 141.1801300048828 153.1564178466797" stroke-width="2" fill="none" stroke="rgb(0, 0, 0)" stroke-opacity="1.0" stroke-linecap="round" stroke-linejoin="round"/>
    <path d="M 59.14886474609375 138.45327758789062 C 85.71361541748047 146.75750732421875 90.03389739990234 148.57647705078125 93.37687683105469 139.7582244873047" stroke-width="2" fill="none" stroke="rgb(0, 0, 0)" stroke-opacity="1.0" stroke-linecap="round" stroke-linejoin="round"/>
    <path d="M 114.47940063476562 103.1532974243164 C 94.471435546875 86.19905090332031 113.49313354492188 77.9531021118164 116.21519470214844 101.67169189453125" stroke-width="2" fill="none" stroke="rgb(0, 0, 0)" stroke-opacity="1.0" stroke-linecap="round" stroke-linejoin="round"/>
    <path d="M 179.2204132080078 102.7496109008789 C 184.0050506591797 97.53831481933594 179.72691345214844 95.96656036376953 176.68777465820312 80.12786865234375" stroke-width="2" fill="none" stroke="rgb(0, 0, 0)" stroke-opacity="1.0" stroke-linecap="round" stroke-linejoin="round"/>
    <path d="M 77.66699981689453 96.09571075439453 C 73.09443664550781 94.1984634399414 85.3657455444336 99.02864837646484 84.0740737915039 101.34075927734375" stroke-width="2" fill="none" stroke="rgb(0, 0, 0)" stroke-opacity="1.0" stroke-linecap="round" stroke-linejoin="round"/>
  </g>
</svg>
