<?xml version="1.0" ?>
<svg xmlns="http://www.w3.org/2000/svg" version="1.1" width="224" height="224">
  <defs/>
  <g>
    <path d="M 161.71920776367188 150.0421142578125 C 129.8171844482422 156.94906616210938 220.8970489501953 146.79258728027344 140.78720092773438 110.5237045288086" stroke-width="2" fill="none" stroke="rgb(0, 0, 0)" stroke-opacity="1.0" stroke-linecap="round" stroke-linejoin="round"/>
    <path d="M 128.1595916748047 124.78079986572266 C 72.04293823242188 73.639892578125 124.7807846069336 112.3165512084961 92.00984191894531 118.29871368408203" stroke-width="2" fill="none" stroke="rgb(0, 0, 0)" stroke-opacity="1.0" stroke-linecap="round" stroke-linejoin="round"/>
    <path d="M 152.7991485595703 107.09375 C 82.54979705810547 121.89131164550781 139.9747314453125 68.35961151123047 158.57095336914062 101.90152740478516" stroke-width="2" fill="none" stroke="rgb(0, 0, 0)" stroke-opacity="1.0" stroke-linecap="round" stroke-linejoin="round"/>
    <path d="M 174.27285766601562 98.3481674194336 C 146.36563110351562 101.68706512451172 197.87710571289062 117.59296417236328 147.04794311523438 103.0140151977539" stroke-width="2" fill="none" stroke="rgb(0, 0, 0)" stroke-opacity="1.0" stroke-linecap="round" stroke-linejoin="round"/>
    <path d="M 102.29832458496094 137.2207489013672 C 61.23359680175781 116.60316467285156 244.66319274902344 158.79095458984375 96.3564682006836 162.47659301757812" stroke-width="2" fill="none" stroke="rgb(0, 0, 0)" stroke-opacity="1.0" stroke-linecap="round" stroke-linejoin="round"/>
    <path d="M 67.780029296875 118.48219299316406 C 64.4299087524414 111.91898345947266 42.585235595703125 92.23414611816406 36.72460174560547 141.47817993164062" stroke-width="2" fill="none" stroke="rgb(0, 0, 0)" stroke-opacity="1.0" stroke-linecap="round" stroke-linejoin="round"/>
    <path d="M 99.0712890625 95.30028533935547 C 81.8542251586914 -0.012476980686187744 118.02069854736328 132.95652770996094 158.16207885742188 80.72383117675781" stroke-width="2" fill="none" stroke="rgb(0, 0, 0)" stroke-opacity="1.0" stroke-linecap="round" stroke-linejoin="round"/>
    <path d="M 69.88693237304688 132.95323181152344 C 47.440853118896484 120.10577392578125 50.05446243286133 134.16946411132812 85.2735366821289 147.75111389160156" stroke-width="2" fill="none" stroke="rgb(0, 0, 0)" stroke-opacity="1.0" stroke-linecap="round" stroke-linejoin="round"/>
    <path d="M 139.15097045898438 128.38693237304688 C 185.6304473876953 136.7010955810547 128.60845947265625 101.14044952392578 148.56834411621094 124.78880310058594" stroke-width="2" fill="none" stroke="rgb(0, 0, 0)" stroke-opacity="1.0" stroke-linecap="round" stroke-linejoin="round"/>
    <path d="M 36.67420196533203 140.12705993652344 C 184.88905334472656 144.43629455566406 97.15203857421875 125.8739242553711 134.2974853515625 135.53492736816406" stroke-width="2" fill="none" stroke="rgb(0, 0, 0)" stroke-opacity="1.0" stroke-linecap="round" stroke-linejoin="round"/>
    <path d="M 175.394287109375 91.7958984375 C 199.64553833007812 6.897811412811279 165.36019897460938 93.54598236083984 130.2872772216797 82.45577239990234" stroke-width="2" fill="none" stroke="rgb(0, 0, 0)" stroke-opacity="1.0" stroke-linecap="round" stroke-linejoin="round"/>
    <path d="M 168.22364807128906 101.18848419189453 C 156.22463989257812 133.1843719482422 217.07656860351562 168.58973693847656 67.72716522216797 145.1635284423828" stroke-width="2" fill="none" stroke="rgb(0, 0, 0)" stroke-opacity="1.0" stroke-linecap="round" stroke-linejoin="round"/>
    <path d="M 122.88711547851562 109.47733306884766 C 22.894710540771484 73.61975860595703 11.421491622924805 157.44729614257812 93.90264129638672 153.2881622314453" stroke-width="2" fill="none" stroke="rgb(0, 0, 0)" stroke-opacity="1.0" stroke-linecap="round" stroke-linejoin="round"/>
    <path d="M 136.9905242919922 123.60619354248047 C 198.14698791503906 128.5463409423828 147.7845001220703 99.47998809814453 161.32379150390625 125.98965454101562" stroke-width="2" fill="none" stroke="rgb(0, 0, 0)" stroke-opacity="1.0" stroke-linecap="round" stroke-linejoin="round"/>
    <path d="M 122.02445983886719 111.03939056396484 C 188.21534729003906 157.00741577148438 192.38412475585938 5.574808120727539 169.30072021484375 69.7420654296875" stroke-width="2" fill="none" stroke="rgb(0, 0, 0)" stroke-opacity="1.0" stroke-linecap="round" stroke-linejoin="round"/>
    <path d="M 162.70901489257812 122.9959716796875 C 50.049415588378906 112.77242279052734 176.9764862060547 120.66759490966797 139.893798828125 115.89789581298828" stroke-width="2" fill="none" stroke="rgb(0, 0, 0)" stroke-opacity="1.0" stroke-linecap="round" stroke-linejoin="round"/>
  </g>
</svg>
