<?xml version="1.0" ?>
<svg xmlns="http://www.w3.org/2000/svg" version="1.1" width="224" height="224">
  <defs/>
  <g>
    <path d="M 112.0947265625 121.09227752685547 C 75.15702819824219 95.18187713623047 125.84510803222656 156.15554809570312 104.26736450195312 113.15520477294922" stroke-width="2" fill="none" stroke="rgb(0, 0, 0)" stroke-opacity="1.0" stroke-linecap="round" stroke-linejoin="round"/>
    <path d="M 150.64569091796875 135.75527954101562 C 69.34391784667969 138.74755859375 201.0747833251953 146.60231018066406 127.34089660644531 133.71743774414062" stroke-width="2" fill="none" stroke="rgb(0, 0, 0)" stroke-opacity="1.0" stroke-linecap="round" stroke-linejoin="round"/>
    <path d="M 149.30572509765625 137.68455505371094 C 116.99321746826172 165.75343322753906 89.44390869140625 128.15524291992188 91.45466613769531 124.87641143798828" stroke-width="2" fill="none" stroke="rgb(0, 0, 0)" stroke-opacity="1.0" stroke-linecap="round" stroke-linejoin="round"/>
    <path d="M 160.18475341796875 115.6887435913086 C 133.14346313476562 97.6861343383789 231.36178588867188 174.60792541503906 122.26838684082031 145.14068603515625" stroke-width="2" fill="none" stroke="rgb(0, 0, 0)" stroke-opacity="1.0" stroke-linecap="round" stroke-linejoin="round"/>
    <path d="M 123.49959564208984 125.0239486694336 C 80.14116668701172 125.25103759765625 151.45330810546875 111.98661041259766 102.58518981933594 114.6331787109375" stroke-width="2" fill="none" stroke="rgb(0, 0, 0)" stroke-opacity="1.0" stroke-linecap="round" stroke-linejoin="round"/>
    <path d="M 119.3255615234375 113.18172454833984 C 100.79851531982422 130.3121795654297 93.28823852539062 101.13322448730469 110.19300842285156 101.02909088134766" stroke-width="2" fill="none" stroke="rgb(0, 0, 0)" stroke-opacity="1.0" stroke-linecap="round" stroke-linejoin="round"/>
    <path d="M 99.1248779296875 75.1108169555664 C 127.29340362548828 60.7249870300293 122.31945037841797 116.36137390136719 164.34149169921875 82.4003677368164" stroke-width="2" fill="none" stroke="rgb(0, 0, 0)" stroke-opacity="1.0" stroke-linecap="round" stroke-linejoin="round"/>
    <path d="M 115.54363250732422 156.2290802001953 C 102.69620513916016 128.1180877685547 7.305483341217041 173.18301391601562 57.08540344238281 106.24778747558594" stroke-width="2" fill="none" stroke="rgb(0, 0, 0)" stroke-opacity="1.0" stroke-linecap="round" stroke-linejoin="round"/>
    <path d="M 136.37448120117188 116.7195816040039 C 175.23793029785156 117.54395294189453 105.92727661132812 109.49588012695312 145.5070037841797 120.89289093017578" stroke-width="2" fill="none" stroke="rgb(0, 0, 0)" stroke-opacity="1.0" stroke-linecap="round" stroke-linejoin="round"/>
    <path d="M 69.63741302490234 109.1048355102539 C 88.38946533203125 115.70467376708984 75.84715270996094 91.48444366455078 116.89973449707031 142.87342834472656" stroke-width="2" fill="none" stroke="rgb(0, 0, 0)" stroke-opacity="1.0" stroke-linecap="round" stroke-linejoin="round"/>
    <path d="M 152.72998046875 96.6015396118164 C 208.51988220214844 23.985998153686523 187.29966735839844 84.53705596923828 161.84884643554688 142.20913696289062" stroke-width="2" fill="none" stroke="rgb(0, 0, 0)" stroke-opacity="1.0" stroke-linecap="round" stroke-linejoin="round"/>
    <path d="M 166.78268432617188 106.10859680175781 C 183.236083984375 168.21395874023438 174.9921112060547 149.1798095703125 118.44378662109375 151.5852508544922" stroke-width="2" fill="none" stroke="rgb(0, 0, 0)" stroke-opacity="1.0" stroke-linecap="round" stroke-linejoin="round"/>
    <path d="M 65.08562469482422 147.14634704589844 C 64.55858612060547 154.07638549804688 -10.134965896606445 108.65357971191406 111.50524139404297 150.8347930908203" stroke-width="2" fill="none" stroke="rgb(0, 0, 0)" stroke-opacity="1.0" stroke-linecap="round" stroke-linejoin="round"/>
    <path d="M 95.01713562011719 103.17112731933594 C 98.2751693725586 63.95840835571289 93.40859985351562 86.32886505126953 99.07072448730469 97.8791275024414" stroke-width="2" fill="none" stroke="rgb(0, 0, 0)" stroke-opacity="1.0" stroke-linecap="round" stroke-linejoin="round"/>
    <path d="M 161.0617218017578 92.63525390625 C 139.38192749023438 136.809814453125 193.63682556152344 70.1436996459961 175.7069549560547 77.15877532958984" stroke-width="2" fill="none" stroke="rgb(0, 0, 0)" stroke-opacity="1.0" stroke-linecap="round" stroke-linejoin="round"/>
    <path d="M 54.02714157104492 126.17082977294922 C 29.46338653564453 86.8550033569336 117.05835723876953 111.3145980834961 94.67796325683594 101.94303131103516" stroke-width="2" fill="none" stroke="rgb(0, 0, 0)" stroke-opacity="1.0" stroke-linecap="round" stroke-linejoin="round"/>
  </g>
</svg>
