<?xml version="1.0" ?>
<svg xmlns="http://www.w3.org/2000/svg" version="1.1" width="224" height="224">
  <defs/>
  <g>
    <path d="M 155.53074645996094 118.24872589111328 C 120.00670623779297 119.28775787353516 223.16969299316406 123.86634063720703 120.62252807617188 125.04706573486328" stroke-width="2" fill="none" stroke="rgb(0, 0, 0)" stroke-opacity="1.0" stroke-linecap="round" stroke-linejoin="round"/>
    <path d="M 137.06430053710938 155.69618225097656 C 54.7292594909668 143.77346801757812 89.91851043701172 132.42251586914062 64.5830078125 139.93357849121094" stroke-width="2" fill="none" stroke="rgb(0, 0, 0)" stroke-opacity="1.0" stroke-linecap="round" stroke-linejoin="round"/>
    <path d="M 130.11180114746094 107.68203735351562 C 125.8878173828125 132.93470764160156 121.96273040771484 88.4041519165039 160.49581909179688 92.1161880493164" stroke-width="2" fill="none" stroke="rgb(0, 0, 0)" stroke-opacity="1.0" stroke-linecap="round" stroke-linejoin="round"/>
    <path d="M 170.5572509765625 141.32261657714844 C 95.57994842529297 136.03553771972656 163.49929809570312 133.92771911621094 121.54576110839844 113.17312622070312" stroke-width="2" fill="none" stroke="rgb(0, 0, 0)" stroke-opacity="1.0" stroke-linecap="round" stroke-linejoin="round"/>
    <path d="M 151.2775115966797 128.29222106933594 C 127.17919921875 105.51346588134766 227.53858947753906 171.3690948486328 117.40084075927734 128.53419494628906" stroke-width="2" fill="none" stroke="rgb(0, 0, 0)" stroke-opacity="1.0" stroke-linecap="round" stroke-linejoin="round"/>
    <path d="M 109.91494750976562 93.33617401123047 C 100.69656372070312 132.21383666992188 107.43634033203125 87.27486419677734 105.07953643798828 108.66637420654297" stroke-width="2" fill="none" stroke="rgb(0, 0, 0)" stroke-opacity="1.0" stroke-linecap="round" stroke-linejoin="round"/>
    <path d="M 109.35366821289062 96.61032104492188 C 75.49037170410156 1.0116857290267944 155.87811279296875 149.522705078125 175.60768127441406 81.47111511230469" stroke-width="2" fill="none" stroke="rgb(0, 0, 0)" stroke-opacity="1.0" stroke-linecap="round" stroke-linejoin="round"/>
    <path d="M 52.59469223022461 101.53812408447266 C 31.25710678100586 142.02427673339844 42.29826736450195 149.18724060058594 80.35529327392578 152.28358459472656" stroke-width="2" fill="none" stroke="rgb(0, 0, 0)" stroke-opacity="1.0" stroke-linecap="round" stroke-linejoin="round"/>
    <path d="M 120.63761138916016 129.2992401123047 C 246.59666442871094 179.18504333496094 76.41461944580078 108.16092681884766 128.11195373535156 129.3273468017578" stroke-width="2" fill="none" stroke="rgb(0, 0, 0)" stroke-opacity="1.0" stroke-linecap="round" stroke-linejoin="round"/>
    <path d="M 108.91082763671875 128.0481719970703 C 96.43887329101562 113.77067565917969 95.30894470214844 140.04373168945312 102.21696472167969 120.03715515136719" stroke-width="2" fill="none" stroke="rgb(0, 0, 0)" stroke-opacity="1.0" stroke-linecap="round" stroke-linejoin="round"/>
    <path d="M 160.15255737304688 104.65630340576172 C 201.64285278320312 -2.9335670471191406 165.14852905273438 100.41500854492188 131.769287109375 84.68706512451172" stroke-width="2" fill="none" stroke="rgb(0, 0, 0)" stroke-opacity="1.0" stroke-linecap="round" stroke-linejoin="round"/>
    <path d="M 173.87229919433594 109.59334564208984 C 145.96360778808594 137.87844848632812 247.68093872070312 202.30270385742188 48.48006057739258 140.92739868164062" stroke-width="2" fill="none" stroke="rgb(0, 0, 0)" stroke-opacity="1.0" stroke-linecap="round" stroke-linejoin="round"/>
    <path d="M 95.30023956298828 97.0738754272461 C 27.35326385498047 84.02230072021484 35.30516052246094 155.08712768554688 115.45861053466797 160.55313110351562" stroke-width="2" fill="none" stroke="rgb(0, 0, 0)" stroke-opacity="1.0" stroke-linecap="round" stroke-linejoin="round"/>
    <path d="M 133.4690399169922 131.56784057617188 C 126.1767578125 69.77864837646484 112.64396667480469 143.35906982421875 104.02420043945312 77.96123504638672" stroke-width="2" fill="none" stroke="rgb(0, 0, 0)" stroke-opacity="1.0" stroke-linecap="round" stroke-linejoin="round"/>
    <path d="M 157.1375732421875 97.35575866699219 C 183.16848754882812 153.79934692382812 197.6465606689453 -5.813920021057129 162.9857177734375 82.96379852294922" stroke-width="2" fill="none" stroke="rgb(0, 0, 0)" stroke-opacity="1.0" stroke-linecap="round" stroke-linejoin="round"/>
    <path d="M 167.1956787109375 131.3219757080078 C 132.88345336914062 152.05169677734375 191.2145538330078 111.66079711914062 146.2032012939453 124.53105163574219" stroke-width="2" fill="none" stroke="rgb(0, 0, 0)" stroke-opacity="1.0" stroke-linecap="round" stroke-linejoin="round"/>
  </g>
</svg>
