<?xml version="1.0" ?>
<svg xmlns="http://www.w3.org/2000/svg" version="1.1" width="224" height="224">
  <defs/>
  <g>
    <path d="M 140.570556640625 150.50540161132812 C 126.42401885986328 152.36061096191406 225.66802978515625 158.85914611816406 130.86636352539062 117.35240173339844" stroke-width="2" fill="none" stroke="rgb(0, 0, 0)" stroke-opacity="1.0" stroke-linecap="round" stroke-linejoin="round"/>
    <path d="M 139.2487335205078 139.75015258789062 C 61.739166259765625 105.72453308105469 102.50796508789062 105.562255859375 93.80258178710938 122.07357025146484" stroke-width="2" fill="none" stroke="rgb(0, 0, 0)" stroke-opacity="1.0" stroke-linecap="round" stroke-linejoin="round"/>
    <path d="M 149.48077392578125 123.68299865722656 C 88.49906921386719 163.46302795410156 93.9352798461914 65.65480041503906 148.8609619140625 96.89322662353516" stroke-width="2" fill="none" stroke="rgb(0, 0, 0)" stroke-opacity="1.0" stroke-linecap="round" stroke-linejoin="round"/>
    <path d="M 163.55694580078125 110.95866394042969 C 134.34033203125 96.39141845703125 211.66571044921875 119.32591247558594 125.06982421875 119.6030044555664" stroke-width="2" fill="none" stroke="rgb(0, 0, 0)" stroke-opacity="1.0" stroke-linecap="round" stroke-linejoin="round"/>
    <path d="M 125.89656829833984 156.8932342529297 C 52.19936752319336 138.7165069580078 217.05665588378906 156.97854614257812 87.12309265136719 148.42967224121094" stroke-width="2" fill="none" stroke="rgb(0, 0, 0)" stroke-opacity="1.0" stroke-linecap="round" stroke-linejoin="round"/>
    <path d="M 66.65907287597656 98.3612289428711 C 59.41771697998047 128.29249572753906 50.44818115234375 87.56480407714844 40.9688835144043 133.58636474609375" stroke-width="2" fill="none" stroke="rgb(0, 0, 0)" stroke-opacity="1.0" stroke-linecap="round" stroke-linejoin="round"/>
    <path d="M 112.75476837158203 116.63206481933594 C 71.89501953125 2.3305134773254395 120.26985931396484 143.32545471191406 164.79827880859375 89.64297485351562" stroke-width="2" fill="none" stroke="rgb(0, 0, 0)" stroke-opacity="1.0" stroke-linecap="round" stroke-linejoin="round"/>
    <path d="M 51.29601287841797 149.7239990234375 C 35.989437103271484 134.36508178710938 31.12976837158203 157.60252380371094 105.68746948242188 155.34642028808594" stroke-width="2" fill="none" stroke="rgb(0, 0, 0)" stroke-opacity="1.0" stroke-linecap="round" stroke-linejoin="round"/>
    <path d="M 126.80974578857422 118.81987762451172 C 188.9900665283203 129.17095947265625 132.7393035888672 111.76750183105469 125.93562316894531 118.34754180908203" stroke-width="2" fill="none" stroke="rgb(0, 0, 0)" stroke-opacity="1.0" stroke-linecap="round" stroke-linejoin="round"/>
    <path d="M 51.86165237426758 142.58912658691406 C 179.3071746826172 164.65359497070312 82.25556945800781 129.33306884765625 102.51216888427734 142.6865692138672" stroke-width="2" fill="none" stroke="rgb(0, 0, 0)" stroke-opacity="1.0" stroke-linecap="round" stroke-linejoin="round"/>
    <path d="M 163.58493041992188 96.05001831054688 C 207.9847412109375 3.0304765701293945 155.7439422607422 94.8041000366211 140.12742614746094 84.44619750976562" stroke-width="2" fill="none" stroke="rgb(0, 0, 0)" stroke-opacity="1.0" stroke-linecap="round" stroke-linejoin="round"/>
    <path d="M 175.96531677246094 92.61442565917969 C 137.1431121826172 113.23082733154297 225.6519775390625 160.7404327392578 84.00804138183594 130.70729064941406" stroke-width="2" fill="none" stroke="rgb(0, 0, 0)" stroke-opacity="1.0" stroke-linecap="round" stroke-linejoin="round"/>
    <path d="M 108.93984985351562 97.5862808227539 C 33.352108001708984 86.00120544433594 13.120394706726074 149.26219177246094 125.24908447265625 150.6378936767578" stroke-width="2" fill="none" stroke="rgb(0, 0, 0)" stroke-opacity="1.0" stroke-linecap="round" stroke-linejoin="round"/>
    <path d="M 124.9884262084961 121.85186004638672 C 174.8038787841797 121.80302429199219 109.48501586914062 88.53909301757812 153.8865203857422 128.9685516357422" stroke-width="2" fill="none" stroke="rgb(0, 0, 0)" stroke-opacity="1.0" stroke-linecap="round" stroke-linejoin="round"/>
    <path d="M 129.195068359375 122.96360778808594 C 180.73455810546875 164.67271423339844 197.64418029785156 -8.475944519042969 174.7014617919922 75.92700958251953" stroke-width="2" fill="none" stroke="rgb(0, 0, 0)" stroke-opacity="1.0" stroke-linecap="round" stroke-linejoin="round"/>
    <path d="M 156.84860229492188 140.34046936035156 C 54.87745666503906 133.28836059570312 162.41329956054688 131.9209747314453 134.549560546875 140.42901611328125" stroke-width="2" fill="none" stroke="rgb(0, 0, 0)" stroke-opacity="1.0" stroke-linecap="round" stroke-linejoin="round"/>
  </g>
</svg>
