<?xml version="1.0" ?>
<svg xmlns="http://www.w3.org/2000/svg" version="1.1" width="224" height="224">
  <defs/>
  <g>
    <path d="M 145.076416015625 150.08029174804688 C 121.75653839111328 153.09205627441406 226.7342529296875 163.70542907714844 129.344970703125 112.32899475097656" stroke-width="2" fill="none" stroke="rgb(0, 0, 0)" stroke-opacity="1.0" stroke-linecap="round" stroke-linejoin="round"/>
    <path d="M 145.06204223632812 131.3124237060547 C 45.028079986572266 108.96375274658203 98.1909408569336 120.55068969726562 102.69478607177734 133.55685424804688" stroke-width="2" fill="none" stroke="rgb(0, 0, 0)" stroke-opacity="1.0" stroke-linecap="round" stroke-linejoin="round"/>
    <path d="M 134.15167236328125 110.36115264892578 C 96.96810150146484 144.0432891845703 94.11974334716797 75.44835662841797 164.22406005859375 94.71993255615234" stroke-width="2" fill="none" stroke="rgb(0, 0, 0)" stroke-opacity="1.0" stroke-linecap="round" stroke-linejoin="round"/>
    <path d="M 155.1759033203125 114.21367645263672 C 112.64301300048828 90.35682678222656 210.24436950683594 121.1785888671875 115.11507415771484 115.55027770996094" stroke-width="2" fill="none" stroke="rgb(0, 0, 0)" stroke-opacity="1.0" stroke-linecap="round" stroke-linejoin="round"/>
    <path d="M 141.95445251464844 157.8961639404297 C 55.607139587402344 143.78369140625 224.19012451171875 171.2882843017578 72.38861846923828 149.33604431152344" stroke-width="2" fill="none" stroke="rgb(0, 0, 0)" stroke-opacity="1.0" stroke-linecap="round" stroke-linejoin="round"/>
    <path d="M 59.2124137878418 102.01484680175781 C 47.844970703125 137.11199951171875 81.30643463134766 107.31785583496094 61.801918029785156 122.58621978759766" stroke-width="2" fill="none" stroke="rgb(0, 0, 0)" stroke-opacity="1.0" stroke-linecap="round" stroke-linejoin="round"/>
    <path d="M 113.13306427001953 107.6462631225586 C 75.32421875 7.265682220458984 126.16067504882812 136.43663024902344 175.33677673339844 88.39546966552734" stroke-width="2" fill="none" stroke="rgb(0, 0, 0)" stroke-opacity="1.0" stroke-linecap="round" stroke-linejoin="round"/>
    <path d="M 45.6884651184082 156.39903259277344 C 38.51622009277344 132.3374786376953 25.48996353149414 159.343994140625 85.01082611083984 160.15296936035156" stroke-width="2" fill="none" stroke="rgb(0, 0, 0)" stroke-opacity="1.0" stroke-linecap="round" stroke-linejoin="round"/>
    <path d="M 115.45074462890625 132.3235626220703 C 195.2660675048828 139.520263671875 149.83203125 109.3757553100586 111.29942321777344 127.89910888671875" stroke-width="2" fill="none" stroke="rgb(0, 0, 0)" stroke-opacity="1.0" stroke-linecap="round" stroke-linejoin="round"/>
    <path d="M 59.15755844116211 145.1444854736328 C 191.176513671875 172.52008056640625 100.5162124633789 134.84454345703125 92.6524429321289 147.93994140625" stroke-width="2" fill="none" stroke="rgb(0, 0, 0)" stroke-opacity="1.0" stroke-linecap="round" stroke-linejoin="round"/>
    <path d="M 164.04153442382812 101.38712310791016 C 209.36546325683594 4.600515365600586 158.92630004882812 97.23397064208984 143.86471557617188 87.3535385131836" stroke-width="2" fill="none" stroke="rgb(0, 0, 0)" stroke-opacity="1.0" stroke-linecap="round" stroke-linejoin="round"/>
    <path d="M 169.8742218017578 111.78521728515625 C 138.066162109375 129.02906799316406 237.03602600097656 182.21839904785156 50.96760559082031 143.7899169921875" stroke-width="2" fill="none" stroke="rgb(0, 0, 0)" stroke-opacity="1.0" stroke-linecap="round" stroke-linejoin="round"/>
    <path d="M 109.19099426269531 98.28764343261719 C 33.60289764404297 77.8936767578125 3.6533889770507812 165.99412536621094 115.55713653564453 161.7013397216797" stroke-width="2" fill="none" stroke="rgb(0, 0, 0)" stroke-opacity="1.0" stroke-linecap="round" stroke-linejoin="round"/>
    <path d="M 136.92303466796875 129.5975341796875 C 178.67459106445312 121.6302490234375 93.67996978759766 127.75537109375 135.96348571777344 111.70344543457031" stroke-width="2" fill="none" stroke="rgb(0, 0, 0)" stroke-opacity="1.0" stroke-linecap="round" stroke-linejoin="round"/>
    <path d="M 142.6861114501953 115.61602020263672 C 166.03504943847656 175.362060546875 211.89187622070312 7.35728120803833 167.9690399169922 75.05987548828125" stroke-width="2" fill="none" stroke="rgb(0, 0, 0)" stroke-opacity="1.0" stroke-linecap="round" stroke-linejoin="round"/>
    <path d="M 157.5048828125 133.8408660888672 C 63.348121643066406 128.6028289794922 160.1817626953125 102.876220703125 127.52948760986328 111.48832702636719" stroke-width="2" fill="none" stroke="rgb(0, 0, 0)" stroke-opacity="1.0" stroke-linecap="round" stroke-linejoin="round"/>
  </g>
</svg>
