<?xml version="1.0" ?>
<svg xmlns="http://www.w3.org/2000/svg" version="1.1" width="224" height="224">
  <defs/>
  <g>
    <path d="M 136.892822265625 154.1670379638672 C 130.20957946777344 153.12001037597656 221.46090698242188 156.437744140625 135.03030395507812 111.01612091064453" stroke-width="2" fill="none" stroke="rgb(0, 0, 0)" stroke-opacity="1.0" stroke-linecap="round" stroke-linejoin="round"/>
    <path d="M 135.12705993652344 138.9546356201172 C 69.58071899414062 108.91425323486328 109.49034881591797 103.21394348144531 105.97047424316406 129.794921875" stroke-width="2" fill="none" stroke="rgb(0, 0, 0)" stroke-opacity="1.0" stroke-linecap="round" stroke-linejoin="round"/>
    <path d="M 153.09519958496094 116.72364807128906 C 78.60293579101562 153.6497039794922 101.09839630126953 69.39759063720703 154.97337341308594 101.29507446289062" stroke-width="2" fill="none" stroke="rgb(0, 0, 0)" stroke-opacity="1.0" stroke-linecap="round" stroke-linejoin="round"/>
    <path d="M 170.48831176757812 117.37969970703125 C 142.99929809570312 97.29786682128906 216.60556030273438 115.97001647949219 130.6944580078125 122.22932434082031" stroke-width="2" fill="none" stroke="rgb(0, 0, 0)" stroke-opacity="1.0" stroke-linecap="round" stroke-linejoin="round"/>
    <path d="M 107.49649047851562 151.54904174804688 C 48.31572341918945 139.86227416992188 214.90150451660156 169.68789672851562 81.37613677978516 149.03060913085938" stroke-width="2" fill="none" stroke="rgb(0, 0, 0)" stroke-opacity="1.0" stroke-linecap="round" stroke-linejoin="round"/>
    <path d="M 59.108211517333984 110.90960693359375 C 56.833309173583984 127.73719787597656 42.790897369384766 95.98015594482422 38.76787567138672 144.69627380371094" stroke-width="2" fill="none" stroke="rgb(0, 0, 0)" stroke-opacity="1.0" stroke-linecap="round" stroke-linejoin="round"/>
    <path d="M 110.4892578125 111.6903305053711 C 74.6537857055664 2.6530745029449463 118.90998840332031 141.09454345703125 176.2846221923828 87.99172973632812" stroke-width="2" fill="none" stroke="rgb(0, 0, 0)" stroke-opacity="1.0" stroke-linecap="round" stroke-linejoin="round"/>
    <path d="M 47.11357879638672 144.74635314941406 C 45.3271369934082 126.66092681884766 38.5753059387207 151.7545928955078 93.66207122802734 157.7863311767578" stroke-width="2" fill="none" stroke="rgb(0, 0, 0)" stroke-opacity="1.0" stroke-linecap="round" stroke-linejoin="round"/>
    <path d="M 136.2069854736328 113.92525482177734 C 199.68716430664062 135.3769989013672 132.70286560058594 110.37776947021484 117.91012573242188 125.12528228759766" stroke-width="2" fill="none" stroke="rgb(0, 0, 0)" stroke-opacity="1.0" stroke-linecap="round" stroke-linejoin="round"/>
    <path d="M 47.14695739746094 135.95867919921875 C 191.20138549804688 157.64215087890625 90.0599136352539 141.75189208984375 120.08802032470703 152.13815307617188" stroke-width="2" fill="none" stroke="rgb(0, 0, 0)" stroke-opacity="1.0" stroke-linecap="round" stroke-linejoin="round"/>
    <path d="M 166.107666015625 103.70289611816406 C 209.1843719482422 -0.38263729214668274 155.3621368408203 98.92227172851562 151.7028045654297 93.14691162109375" stroke-width="2" fill="none" stroke="rgb(0, 0, 0)" stroke-opacity="1.0" stroke-linecap="round" stroke-linejoin="round"/>
    <path d="M 181.43768310546875 99.21412658691406 C 136.95558166503906 140.5967559814453 238.17337036132812 170.83544921875 88.8350601196289 142.88539123535156" stroke-width="2" fill="none" stroke="rgb(0, 0, 0)" stroke-opacity="1.0" stroke-linecap="round" stroke-linejoin="round"/>
    <path d="M 116.2771224975586 100.49029541015625 C 30.531635284423828 75.8504409790039 20.67213249206543 142.75340270996094 120.43460845947266 146.84317016601562" stroke-width="2" fill="none" stroke="rgb(0, 0, 0)" stroke-opacity="1.0" stroke-linecap="round" stroke-linejoin="round"/>
    <path d="M 132.01051330566406 125.33847045898438 C 196.8203125 139.7850799560547 131.18447875976562 107.30086517333984 157.0063934326172 129.0135498046875" stroke-width="2" fill="none" stroke="rgb(0, 0, 0)" stroke-opacity="1.0" stroke-linecap="round" stroke-linejoin="round"/>
    <path d="M 130.10585021972656 127.2414779663086 C 186.7464141845703 170.6817169189453 197.912109375 0.741435170173645 166.95497131347656 76.83067321777344" stroke-width="2" fill="none" stroke="rgb(0, 0, 0)" stroke-opacity="1.0" stroke-linecap="round" stroke-linejoin="round"/>
    <path d="M 164.4500274658203 141.04641723632812 C 48.02198028564453 136.188720703125 160.2102813720703 133.347412109375 130.1923065185547 137.582763671875" stroke-width="2" fill="none" stroke="rgb(0, 0, 0)" stroke-opacity="1.0" stroke-linecap="round" stroke-linejoin="round"/>
  </g>
</svg>
