<?xml version="1.0" ?>
<svg xmlns="http://www.w3.org/2000/svg" version="1.1" width="224" height="224">
  <defs/>
  <g>
    <path d="M 131.11593627929688 119.61871337890625 C 98.06706237792969 138.2821807861328 207.0675506591797 132.918701171875 138.03720092773438 134.758544921875" stroke-width="2" fill="none" stroke="rgb(0, 0, 0)" stroke-opacity="1.0" stroke-linecap="round" stroke-linejoin="round"/>
    <path d="M 124.34221649169922 140.11502075195312 C 82.1990966796875 106.7496109008789 146.8011932373047 166.76451110839844 152.58665466308594 155.28517150878906" stroke-width="2" fill="none" stroke="rgb(0, 0, 0)" stroke-opacity="1.0" stroke-linecap="round" stroke-linejoin="round"/>
    <path d="M 185.55421447753906 93.32818603515625 C 167.2254638671875 146.62391662597656 127.38499450683594 89.784423828125 167.42042541503906 91.4004135131836" stroke-width="2" fill="none" stroke="rgb(0, 0, 0)" stroke-opacity="1.0" stroke-linecap="round" stroke-linejoin="round"/>
    <path d="M 169.9348907470703 128.73533630371094 C 165.3238983154297 100.28968048095703 185.23614501953125 148.5424041748047 138.81100463867188 138.6890411376953" stroke-width="2" fill="none" stroke="rgb(0, 0, 0)" stroke-opacity="1.0" stroke-linecap="round" stroke-linejoin="round"/>
    <path d="M 172.27685546875 116.71446990966797 C 107.00318908691406 77.34156799316406 258.4656677246094 194.26779174804688 92.46765899658203 159.9513702392578" stroke-width="2" fill="none" stroke="rgb(0, 0, 0)" stroke-opacity="1.0" stroke-linecap="round" stroke-linejoin="round"/>
    <path d="M 160.60446166992188 125.68669891357422 C 125.36489868164062 105.74266815185547 144.37924194335938 136.17868041992188 162.40599060058594 113.77229309082031" stroke-width="2" fill="none" stroke="rgb(0, 0, 0)" stroke-opacity="1.0" stroke-linecap="round" stroke-linejoin="round"/>
    <path d="M 90.33869171142578 79.08075714111328 C 117.75432586669922 57.78963851928711 157.46340942382812 148.9616241455078 179.26173400878906 72.86556243896484" stroke-width="2" fill="none" stroke="rgb(0, 0, 0)" stroke-opacity="1.0" stroke-linecap="round" stroke-linejoin="round"/>
    <path d="M 80.53936767578125 125.37179565429688 C 162.3649139404297 137.44140625 16.225374221801758 99.02689361572266 61.37097930908203 121.75614929199219" stroke-width="2" fill="none" stroke="rgb(0, 0, 0)" stroke-opacity="1.0" stroke-linecap="round" stroke-linejoin="round"/>
    <path d="M 143.91786193847656 120.09394836425781 C 177.7520294189453 131.01995849609375 72.6482925415039 131.29318237304688 134.9556884765625 149.4884796142578" stroke-width="2" fill="none" stroke="rgb(0, 0, 0)" stroke-opacity="1.0" stroke-linecap="round" stroke-linejoin="round"/>
    <path d="M 135.7419891357422 98.79240417480469 C 98.6435775756836 115.79381561279297 156.5458526611328 128.17257690429688 123.41600036621094 118.4252700805664" stroke-width="2" fill="none" stroke="rgb(0, 0, 0)" stroke-opacity="1.0" stroke-linecap="round" stroke-linejoin="round"/>
    <path d="M 146.60470581054688 94.6786117553711 C 215.61517333984375 11.298057556152344 168.80319213867188 106.13328552246094 127.2591781616211 87.88785552978516" stroke-width="2" fill="none" stroke="rgb(0, 0, 0)" stroke-opacity="1.0" stroke-linecap="round" stroke-linejoin="round"/>
    <path d="M 180.900634765625 97.23523712158203 C 161.87379455566406 165.42677307128906 247.84744262695312 170.62860107421875 47.254207611083984 136.2206573486328" stroke-width="2" fill="none" stroke="rgb(0, 0, 0)" stroke-opacity="1.0" stroke-linecap="round" stroke-linejoin="round"/>
    <path d="M 82.46857452392578 91.21319580078125 C 50.54206848144531 90.23280334472656 5.181046485900879 148.60464477539062 93.2007827758789 160.66085815429688" stroke-width="2" fill="none" stroke="rgb(0, 0, 0)" stroke-opacity="1.0" stroke-linecap="round" stroke-linejoin="round"/>
    <path d="M 113.63899993896484 123.85602569580078 C 123.16328430175781 123.89800262451172 135.24632263183594 167.73545837402344 109.41175079345703 83.61113739013672" stroke-width="2" fill="none" stroke="rgb(0, 0, 0)" stroke-opacity="1.0" stroke-linecap="round" stroke-linejoin="round"/>
    <path d="M 180.5111541748047 85.85411834716797 C 170.29281616210938 121.24243927001953 208.0735626220703 18.684123992919922 155.22418212890625 90.84263610839844" stroke-width="2" fill="none" stroke="rgb(0, 0, 0)" stroke-opacity="1.0" stroke-linecap="round" stroke-linejoin="round"/>
    <path d="M 93.06427001953125 120.19548034667969 C 80.23902130126953 135.41773986816406 135.5120086669922 104.7859878540039 58.73178482055664 106.18209075927734" stroke-width="2" fill="none" stroke="rgb(0, 0, 0)" stroke-opacity="1.0" stroke-linecap="round" stroke-linejoin="round"/>
  </g>
</svg>
