<?xml version="1.0" ?>
<svg xmlns="http://www.w3.org/2000/svg" version="1.1" width="224" height="224">
  <defs/>
  <g>
    <path d="M 104.76287841796875 106.42820739746094 C 65.08616638183594 88.78925323486328 138.38172912597656 144.46942138671875 128.3269805908203 121.86723327636719" stroke-width="2" fill="none" stroke="rgb(0, 0, 0)" stroke-opacity="1.0" stroke-linecap="round" stroke-linejoin="round"/>
    <path d="M 159.22512817382812 139.902587890625 C 60.14813995361328 142.0191192626953 218.2318115234375 151.65760803222656 134.5364532470703 133.37139892578125" stroke-width="2" fill="none" stroke="rgb(0, 0, 0)" stroke-opacity="1.0" stroke-linecap="round" stroke-linejoin="round"/>
    <path d="M 147.566650390625 133.54397583007812 C 113.32508087158203 156.17645263671875 97.16460418701172 111.75299072265625 125.91790771484375 113.48171997070312" stroke-width="2" fill="none" stroke="rgb(0, 0, 0)" stroke-opacity="1.0" stroke-linecap="round" stroke-linejoin="round"/>
    <path d="M 170.17288208007812 116.54551696777344 C 143.5680694580078 97.09358978271484 227.8946533203125 165.8533935546875 125.7221450805664 148.0487823486328" stroke-width="2" fill="none" stroke="rgb(0, 0, 0)" stroke-opacity="1.0" stroke-linecap="round" stroke-linejoin="round"/>
    <path d="M 127.73907470703125 119.62919616699219 C 78.44821166992188 131.37838745117188 163.42298889160156 120.4066390991211 119.70401763916016 123.2109375" stroke-width="2" fill="none" stroke="rgb(0, 0, 0)" stroke-opacity="1.0" stroke-linecap="round" stroke-linejoin="round"/>
    <path d="M 131.79803466796875 119.25379180908203 C 102.81105041503906 129.3003387451172 109.32849884033203 116.13452911376953 119.91729736328125 126.38470458984375" stroke-width="2" fill="none" stroke="rgb(0, 0, 0)" stroke-opacity="1.0" stroke-linecap="round" stroke-linejoin="round"/>
    <path d="M 97.4290771484375 67.8707046508789 C 125.22634887695312 68.03665161132812 109.14456939697266 110.75279998779297 163.12530517578125 64.81008911132812" stroke-width="2" fill="none" stroke="rgb(0, 0, 0)" stroke-opacity="1.0" stroke-linecap="round" stroke-linejoin="round"/>
    <path d="M 105.39726257324219 165.1484832763672 C 92.99425506591797 142.72293090820312 9.18614673614502 159.435302734375 56.92399215698242 108.03547668457031" stroke-width="2" fill="none" stroke="rgb(0, 0, 0)" stroke-opacity="1.0" stroke-linecap="round" stroke-linejoin="round"/>
    <path d="M 140.56488037109375 117.18362426757812 C 181.41554260253906 117.30643463134766 116.85885620117188 107.92101287841797 148.2411346435547 123.50597381591797" stroke-width="2" fill="none" stroke="rgb(0, 0, 0)" stroke-opacity="1.0" stroke-linecap="round" stroke-linejoin="round"/>
    <path d="M 71.31808471679688 139.63868713378906 C 87.860107421875 151.35008239746094 49.02267074584961 140.8418731689453 105.70640563964844 148.9785919189453" stroke-width="2" fill="none" stroke="rgb(0, 0, 0)" stroke-opacity="1.0" stroke-linecap="round" stroke-linejoin="round"/>
    <path d="M 152.6917724609375 92.99302673339844 C 206.44801330566406 24.357158660888672 188.1451873779297 84.55713653564453 157.49755859375 143.01809692382812" stroke-width="2" fill="none" stroke="rgb(0, 0, 0)" stroke-opacity="1.0" stroke-linecap="round" stroke-linejoin="round"/>
    <path d="M 159.44427490234375 103.79027557373047 C 169.1004180908203 163.64988708496094 168.09776306152344 151.7246856689453 103.02117919921875 163.23049926757812" stroke-width="2" fill="none" stroke="rgb(0, 0, 0)" stroke-opacity="1.0" stroke-linecap="round" stroke-linejoin="round"/>
    <path d="M 47.7332649230957 150.12339782714844 C 72.79686737060547 157.02334594726562 -7.297614574432373 134.0229949951172 88.1061782836914 165.93218994140625" stroke-width="2" fill="none" stroke="rgb(0, 0, 0)" stroke-opacity="1.0" stroke-linecap="round" stroke-linejoin="round"/>
    <path d="M 92.05437469482422 107.6952896118164 C 84.48986053466797 86.5896224975586 88.5311050415039 93.40751647949219 96.25255584716797 101.2839584350586" stroke-width="2" fill="none" stroke="rgb(0, 0, 0)" stroke-opacity="1.0" stroke-linecap="round" stroke-linejoin="round"/>
    <path d="M 158.9696044921875 93.83727264404297 C 159.1502227783203 120.55439758300781 196.5778045654297 27.2264461517334 169.28436279296875 78.47557067871094" stroke-width="2" fill="none" stroke="rgb(0, 0, 0)" stroke-opacity="1.0" stroke-linecap="round" stroke-linejoin="round"/>
    <path d="M 53.87602233886719 124.49640655517578 C 40.25370788574219 90.58687591552734 113.5111083984375 109.4928207397461 101.27735137939453 115.43084716796875" stroke-width="2" fill="none" stroke="rgb(0, 0, 0)" stroke-opacity="1.0" stroke-linecap="round" stroke-linejoin="round"/>
  </g>
</svg>
