<?xml version="1.0" ?>
<svg xmlns="http://www.w3.org/2000/svg" version="1.1" width="224" height="224">
  <defs/>
  <g>
    <path d="M 111.29818725585938 118.73734283447266 C 137.13697814941406 128.31439208984375 190.7299346923828 137.1156768798828 140.2920379638672 108.32757568359375" stroke-width="2" fill="none" stroke="rgb(0, 0, 0)" stroke-opacity="1.0" stroke-linecap="round" stroke-linejoin="round"/>
    <path d="M 72.7735366821289 105.20642852783203 C 70.36713409423828 123.09973907470703 121.68165588378906 101.16514587402344 81.02362060546875 110.10519409179688" stroke-width="2" fill="none" stroke="rgb(0, 0, 0)" stroke-opacity="1.0" stroke-linecap="round" stroke-linejoin="round"/>
    <path d="M 148.57594299316406 124.95767974853516 C 65.92184448242188 149.7078399658203 126.16844177246094 60.46125030517578 149.32818603515625 100.74087524414062" stroke-width="2" fill="none" stroke="rgb(0, 0, 0)" stroke-opacity="1.0" stroke-linecap="round" stroke-linejoin="round"/>
    <path d="M 167.64077758789062 110.81999969482422 C 143.8355255126953 126.9531021118164 207.77931213378906 177.52174377441406 94.8593521118164 144.5380859375" stroke-width="2" fill="none" stroke="rgb(0, 0, 0)" stroke-opacity="1.0" stroke-linecap="round" stroke-linejoin="round"/>
    <path d="M 91.93766784667969 142.93421936035156 C 39.16132354736328 128.91647338867188 251.721435546875 156.2044219970703 86.06502532958984 131.9013671875" stroke-width="2" fill="none" stroke="rgb(0, 0, 0)" stroke-opacity="1.0" stroke-linecap="round" stroke-linejoin="round"/>
    <path d="M 50.387298583984375 132.24269104003906 C 36.954349517822266 145.87408447265625 44.74003601074219 99.37429809570312 82.69482421875 111.81232452392578" stroke-width="2" fill="none" stroke="rgb(0, 0, 0)" stroke-opacity="1.0" stroke-linecap="round" stroke-linejoin="round"/>
    <path d="M 110.96150970458984 121.64828491210938 C 75.32332611083984 -0.6500812768936157 138.13694763183594 118.590087890625 107.01941680908203 93.9993667602539" stroke-width="2" fill="none" stroke="rgb(0, 0, 0)" stroke-opacity="1.0" stroke-linecap="round" stroke-linejoin="round"/>
    <path d="M 62.12013626098633 136.9937286376953 C 78.81517028808594 146.26092529296875 50.45530700683594 134.2237548828125 78.19058990478516 147.3187713623047" stroke-width="2" fill="none" stroke="rgb(0, 0, 0)" stroke-opacity="1.0" stroke-linecap="round" stroke-linejoin="round"/>
    <path d="M 123.98501586914062 113.24776458740234 C 168.79605102539062 119.48686218261719 73.5890884399414 134.61965942382812 155.7039031982422 113.0410385131836" stroke-width="2" fill="none" stroke="rgb(0, 0, 0)" stroke-opacity="1.0" stroke-linecap="round" stroke-linejoin="round"/>
    <path d="M 120.6209716796875 118.8972396850586 C 224.959716796875 122.60791015625 102.02081298828125 110.11955261230469 154.80270385742188 125.97347259521484" stroke-width="2" fill="none" stroke="rgb(0, 0, 0)" stroke-opacity="1.0" stroke-linecap="round" stroke-linejoin="round"/>
    <path d="M 166.48265075683594 90.904052734375 C 198.97421264648438 16.48773193359375 161.01419067382812 128.6468963623047 109.07408905029297 75.28827667236328" stroke-width="2" fill="none" stroke="rgb(0, 0, 0)" stroke-opacity="1.0" stroke-linecap="round" stroke-linejoin="round"/>
    <path d="M 167.50344848632812 102.47893524169922 C 121.21326446533203 88.39640808105469 233.00991821289062 177.3922576904297 44.413055419921875 145.99252319335938" stroke-width="2" fill="none" stroke="rgb(0, 0, 0)" stroke-opacity="1.0" stroke-linecap="round" stroke-linejoin="round"/>
    <path d="M 52.06526565551758 138.7809295654297 C 51.2322998046875 129.15402221679688 26.501596450805664 144.37222290039062 59.83907699584961 158.05747985839844" stroke-width="2" fill="none" stroke="rgb(0, 0, 0)" stroke-opacity="1.0" stroke-linecap="round" stroke-linejoin="round"/>
    <path d="M 152.5685577392578 151.12298583984375 C 183.41183471679688 141.61407470703125 166.0906982421875 144.07423400878906 167.27587890625 138.3515167236328" stroke-width="2" fill="none" stroke="rgb(0, 0, 0)" stroke-opacity="1.0" stroke-linecap="round" stroke-linejoin="round"/>
    <path d="M 155.0346221923828 102.20906066894531 C 167.2460479736328 144.61996459960938 216.25344848632812 0.3299453556537628 152.67218017578125 91.62342071533203" stroke-width="2" fill="none" stroke="rgb(0, 0, 0)" stroke-opacity="1.0" stroke-linecap="round" stroke-linejoin="round"/>
    <path d="M 158.1479034423828 151.3902587890625 C 65.13197326660156 126.30846405029297 154.69601440429688 101.64491271972656 126.09317016601562 122.6294174194336" stroke-width="2" fill="none" stroke="rgb(0, 0, 0)" stroke-opacity="1.0" stroke-linecap="round" stroke-linejoin="round"/>
  </g>
</svg>
