<?xml version="1.0" ?>
<svg xmlns="http://www.w3.org/2000/svg" version="1.1" width="224" height="224">
  <defs/>
  <g>
    <path d="M 130.16708374023438 114.55220794677734 C 77.40557098388672 115.65424346923828 172.80007934570312 108.07044219970703 124.00543212890625 103.86154174804688" stroke-width="2" fill="none" stroke="rgb(0, 0, 0)" stroke-opacity="1.0" stroke-linecap="round" stroke-linejoin="round"/>
    <path d="M 86.87022399902344 146.14599609375 C 42.544124603271484 116.35763549804688 187.97593688964844 140.73300170898438 175.9278106689453 144.65756225585938" stroke-width="2" fill="none" stroke="rgb(0, 0, 0)" stroke-opacity="1.0" stroke-linecap="round" stroke-linejoin="round"/>
    <path d="M 167.53582763671875 90.32369995117188 C 196.52574157714844 111.7207260131836 111.1401596069336 97.03362274169922 170.575927734375 108.17703247070312" stroke-width="2" fill="none" stroke="rgb(0, 0, 0)" stroke-opacity="1.0" stroke-linecap="round" stroke-linejoin="round"/>
    <path d="M 145.5189971923828 124.57109069824219 C 93.72154998779297 131.8019561767578 223.76263427734375 140.0349578857422 166.85012817382812 165.03131103515625" stroke-width="2" fill="none" stroke="rgb(0, 0, 0)" stroke-opacity="1.0" stroke-linecap="round" stroke-linejoin="round"/>
    <path d="M 136.17044067382812 107.07029724121094 C 61.875606536865234 136.56961059570312 211.81561279296875 144.61412048339844 118.50370025634766 140.3678741455078" stroke-width="2" fill="none" stroke="rgb(0, 0, 0)" stroke-opacity="1.0" stroke-linecap="round" stroke-linejoin="round"/>
    <path d="M 131.53260803222656 114.65605163574219 C 116.22933959960938 106.90523529052734 108.11834716796875 133.70301818847656 149.42745971679688 128.18545532226562" stroke-width="2" fill="none" stroke="rgb(0, 0, 0)" stroke-opacity="1.0" stroke-linecap="round" stroke-linejoin="round"/>
    <path d="M 99.14885711669922 74.9686508178711 C 143.116943359375 59.29947280883789 118.84644317626953 113.15342712402344 175.95436096191406 58.60768127441406" stroke-width="2" fill="none" stroke="rgb(0, 0, 0)" stroke-opacity="1.0" stroke-linecap="round" stroke-linejoin="round"/>
    <path d="M 113.68840789794922 152.2790069580078 C 87.92179107666016 155.69003295898438 8.706036567687988 146.525390625 49.32149124145508 99.9007339477539" stroke-width="2" fill="none" stroke="rgb(0, 0, 0)" stroke-opacity="1.0" stroke-linecap="round" stroke-linejoin="round"/>
    <path d="M 155.8777618408203 141.86476135253906 C 202.87728881835938 123.02826690673828 131.6896514892578 101.15289306640625 172.70159912109375 110.34492492675781" stroke-width="2" fill="none" stroke="rgb(0, 0, 0)" stroke-opacity="1.0" stroke-linecap="round" stroke-linejoin="round"/>
    <path d="M 117.38651275634766 112.3695068359375 C 103.111083984375 149.867919921875 134.25888061523438 148.59886169433594 85.07666015625 128.2242889404297" stroke-width="2" fill="none" stroke="rgb(0, 0, 0)" stroke-opacity="1.0" stroke-linecap="round" stroke-linejoin="round"/>
    <path d="M 161.13365173339844 78.0409164428711 C 205.79513549804688 -8.213080406188965 183.3408203125 142.92868041992188 155.109130859375 112.8023681640625" stroke-width="2" fill="none" stroke="rgb(0, 0, 0)" stroke-opacity="1.0" stroke-linecap="round" stroke-linejoin="round"/>
    <path d="M 160.60455322265625 102.35697174072266 C 187.519287109375 157.2412567138672 190.68038940429688 161.96424865722656 57.671810150146484 131.685546875" stroke-width="2" fill="none" stroke="rgb(0, 0, 0)" stroke-opacity="1.0" stroke-linecap="round" stroke-linejoin="round"/>
    <path d="M 39.16031265258789 128.68910217285156 C 68.29159545898438 154.81199645996094 27.548086166381836 126.4457015991211 100.9455795288086 156.95413208007812" stroke-width="2" fill="none" stroke="rgb(0, 0, 0)" stroke-opacity="1.0" stroke-linecap="round" stroke-linejoin="round"/>
    <path d="M 117.35395812988281 120.05015563964844 C 90.10480499267578 96.59658813476562 106.3150634765625 99.765625 114.19779968261719 126.11537170410156" stroke-width="2" fill="none" stroke="rgb(0, 0, 0)" stroke-opacity="1.0" stroke-linecap="round" stroke-linejoin="round"/>
    <path d="M 156.1283416748047 121.86184692382812 C 183.40097045898438 140.46153259277344 198.9437713623047 -18.368104934692383 169.3387451171875 88.66950988769531" stroke-width="2" fill="none" stroke="rgb(0, 0, 0)" stroke-opacity="1.0" stroke-linecap="round" stroke-linejoin="round"/>
    <path d="M 91.59866333007812 95.363525390625 C 28.54170799255371 99.2481918334961 83.57051849365234 88.73597717285156 61.283599853515625 100.02758026123047" stroke-width="2" fill="none" stroke="rgb(0, 0, 0)" stroke-opacity="1.0" stroke-linecap="round" stroke-linejoin="round"/>
  </g>
</svg>
