<?xml version="1.0" ?>
<svg xmlns="http://www.w3.org/2000/svg" version="1.1" width="224" height="224">
  <defs/>
  <g>
    <path d="M 154.46640014648438 118.98272705078125 C 119.1089859008789 120.91919708251953 222.45840454101562 127.48388671875 127.85033416748047 126.63563537597656" stroke-width="2" fill="none" stroke="rgb(0, 0, 0)" stroke-opacity="1.0" stroke-linecap="round" stroke-linejoin="round"/>
    <path d="M 138.4255828857422 153.40623474121094 C 53.58318328857422 139.41302490234375 89.51072692871094 128.91770935058594 59.40855026245117 135.232666015625" stroke-width="2" fill="none" stroke="rgb(0, 0, 0)" stroke-opacity="1.0" stroke-linecap="round" stroke-linejoin="round"/>
    <path d="M 128.3561248779297 105.12722778320312 C 124.33563232421875 134.62594604492188 123.08917236328125 90.38324737548828 168.8355712890625 92.25949096679688" stroke-width="2" fill="none" stroke="rgb(0, 0, 0)" stroke-opacity="1.0" stroke-linecap="round" stroke-linejoin="round"/>
    <path d="M 171.31268310546875 147.8802947998047 C 105.59541320800781 137.6881866455078 163.27061462402344 141.53025817871094 121.19276428222656 117.0479736328125" stroke-width="2" fill="none" stroke="rgb(0, 0, 0)" stroke-opacity="1.0" stroke-linecap="round" stroke-linejoin="round"/>
    <path d="M 154.73716735839844 135.28634643554688 C 130.40887451171875 108.26399230957031 232.78591918945312 171.9235382080078 121.2125244140625 130.3179473876953" stroke-width="2" fill="none" stroke="rgb(0, 0, 0)" stroke-opacity="1.0" stroke-linecap="round" stroke-linejoin="round"/>
    <path d="M 107.70174407958984 94.72035217285156 C 97.20319366455078 131.0657196044922 107.27051544189453 85.60958099365234 101.55194091796875 107.46525573730469" stroke-width="2" fill="none" stroke="rgb(0, 0, 0)" stroke-opacity="1.0" stroke-linecap="round" stroke-linejoin="round"/>
    <path d="M 107.34998321533203 104.35006713867188 C 80.57862091064453 0.11668553203344345 155.26771545410156 151.8983612060547 170.75582885742188 80.49610137939453" stroke-width="2" fill="none" stroke="rgb(0, 0, 0)" stroke-opacity="1.0" stroke-linecap="round" stroke-linejoin="round"/>
    <path d="M 52.47964859008789 101.77275848388672 C 33.032501220703125 140.24191284179688 45.309837341308594 142.09521484375 80.79933166503906 152.35531616210938" stroke-width="2" fill="none" stroke="rgb(0, 0, 0)" stroke-opacity="1.0" stroke-linecap="round" stroke-linejoin="round"/>
    <path d="M 119.24980163574219 137.9038848876953 C 252.80577087402344 178.40895080566406 79.94169616699219 107.70702362060547 125.44779968261719 135.47763061523438" stroke-width="2" fill="none" stroke="rgb(0, 0, 0)" stroke-opacity="1.0" stroke-linecap="round" stroke-linejoin="round"/>
    <path d="M 103.74263763427734 130.39804077148438 C 89.66352081298828 111.56295776367188 96.27188110351562 130.63365173339844 99.4176025390625 120.06343841552734" stroke-width="2" fill="none" stroke="rgb(0, 0, 0)" stroke-opacity="1.0" stroke-linecap="round" stroke-linejoin="round"/>
    <path d="M 162.71922302246094 108.02626037597656 C 201.40301513671875 -10.720998764038086 163.66525268554688 97.64957427978516 135.10830688476562 85.22697448730469" stroke-width="2" fill="none" stroke="rgb(0, 0, 0)" stroke-opacity="1.0" stroke-linecap="round" stroke-linejoin="round"/>
    <path d="M 174.5254364013672 110.6783447265625 C 141.7726593017578 134.92279052734375 245.64212036132812 198.22613525390625 43.63404083251953 139.24948120117188" stroke-width="2" fill="none" stroke="rgb(0, 0, 0)" stroke-opacity="1.0" stroke-linecap="round" stroke-linejoin="round"/>
    <path d="M 95.62429809570312 98.25347137451172 C 26.377931594848633 81.1468734741211 34.63655090332031 155.90785217285156 115.14946746826172 156.72674560546875" stroke-width="2" fill="none" stroke="rgb(0, 0, 0)" stroke-opacity="1.0" stroke-linecap="round" stroke-linejoin="round"/>
    <path d="M 132.13372802734375 133.1097412109375 C 120.45240020751953 70.98136138916016 112.7022476196289 140.16419982910156 99.03309631347656 73.50421142578125" stroke-width="2" fill="none" stroke="rgb(0, 0, 0)" stroke-opacity="1.0" stroke-linecap="round" stroke-linejoin="round"/>
    <path d="M 156.30418395996094 99.41033935546875 C 183.53077697753906 156.07077026367188 192.32586669921875 -6.447750091552734 166.75999450683594 77.45588684082031" stroke-width="2" fill="none" stroke="rgb(0, 0, 0)" stroke-opacity="1.0" stroke-linecap="round" stroke-linejoin="round"/>
    <path d="M 170.9149169921875 131.95028686523438 C 135.5782928466797 152.00128173828125 197.97811889648438 113.3129653930664 151.31605529785156 131.47959899902344" stroke-width="2" fill="none" stroke="rgb(0, 0, 0)" stroke-opacity="1.0" stroke-linecap="round" stroke-linejoin="round"/>
  </g>
</svg>
