<?xml version="1.0" ?>
<svg xmlns="http://www.w3.org/2000/svg" version="1.1" width="224" height="224">
  <defs/>
  <g>
    <path d="M 115.55559539794922 116.96089935302734 C 134.81153869628906 125.12147521972656 184.81118774414062 133.66400146484375 139.0301971435547 117.07189178466797" stroke-width="2" fill="none" stroke="rgb(0, 0, 0)" stroke-opacity="1.0" stroke-linecap="round" stroke-linejoin="round"/>
    <path d="M 65.42058563232422 109.58768463134766 C 64.55487060546875 96.75152587890625 122.73172760009766 97.47956848144531 89.15512084960938 106.20884704589844" stroke-width="2" fill="none" stroke="rgb(0, 0, 0)" stroke-opacity="1.0" stroke-linecap="round" stroke-linejoin="round"/>
    <path d="M 149.82318115234375 131.07127380371094 C 67.92093658447266 151.27655029296875 122.51544952392578 53.1845588684082 152.3774871826172 94.22471618652344" stroke-width="2" fill="none" stroke="rgb(0, 0, 0)" stroke-opacity="1.0" stroke-linecap="round" stroke-linejoin="round"/>
    <path d="M 180.0491180419922 108.81237030029297 C 151.64556884765625 132.51068115234375 217.703857421875 168.70651245117188 102.68014526367188 139.264892578125" stroke-width="2" fill="none" stroke="rgb(0, 0, 0)" stroke-opacity="1.0" stroke-linecap="round" stroke-linejoin="round"/>
    <path d="M 95.0623779296875 135.65493774414062 C 47.49100112915039 121.27530670166016 259.3120422363281 154.6149139404297 83.38345336914062 122.87451171875" stroke-width="2" fill="none" stroke="rgb(0, 0, 0)" stroke-opacity="1.0" stroke-linecap="round" stroke-linejoin="round"/>
    <path d="M 57.84523010253906 139.28466796875 C 32.94125747680664 141.9623260498047 41.31482696533203 88.7746810913086 90.1329345703125 113.9895248413086" stroke-width="2" fill="none" stroke="rgb(0, 0, 0)" stroke-opacity="1.0" stroke-linecap="round" stroke-linejoin="round"/>
    <path d="M 105.1648941040039 120.17777252197266 C 72.05069732666016 5.3379435539245605 132.11180114746094 120.91891479492188 106.99200439453125 97.62852478027344" stroke-width="2" fill="none" stroke="rgb(0, 0, 0)" stroke-opacity="1.0" stroke-linecap="round" stroke-linejoin="round"/>
    <path d="M 63.887264251708984 144.3086395263672 C 83.88623809814453 137.39480590820312 46.760154724121094 141.33477783203125 80.59663391113281 152.78543090820312" stroke-width="2" fill="none" stroke="rgb(0, 0, 0)" stroke-opacity="1.0" stroke-linecap="round" stroke-linejoin="round"/>
    <path d="M 115.78630828857422 117.10987854003906 C 167.33087158203125 118.44580841064453 81.30445861816406 146.65530395507812 155.70135498046875 129.78546142578125" stroke-width="2" fill="none" stroke="rgb(0, 0, 0)" stroke-opacity="1.0" stroke-linecap="round" stroke-linejoin="round"/>
    <path d="M 119.56035614013672 121.02880859375 C 210.2696075439453 126.95144653320312 107.01933288574219 106.01211547851562 155.85433959960938 125.8806381225586" stroke-width="2" fill="none" stroke="rgb(0, 0, 0)" stroke-opacity="1.0" stroke-linecap="round" stroke-linejoin="round"/>
    <path d="M 171.375244140625 86.50212860107422 C 206.33763122558594 13.580601692199707 156.1509246826172 129.876220703125 107.78620910644531 73.69878387451172" stroke-width="2" fill="none" stroke="rgb(0, 0, 0)" stroke-opacity="1.0" stroke-linecap="round" stroke-linejoin="round"/>
    <path d="M 148.62213134765625 96.77845001220703 C 112.52339172363281 85.37387084960938 233.93341064453125 184.32717895507812 49.25853729248047 151.58587646484375" stroke-width="2" fill="none" stroke="rgb(0, 0, 0)" stroke-opacity="1.0" stroke-linecap="round" stroke-linejoin="round"/>
    <path d="M 49.74969482421875 143.49267578125 C 41.83806228637695 122.46742248535156 28.10418701171875 137.98861694335938 59.18581008911133 152.172607421875" stroke-width="2" fill="none" stroke="rgb(0, 0, 0)" stroke-opacity="1.0" stroke-linecap="round" stroke-linejoin="round"/>
    <path d="M 156.4535675048828 154.1520233154297 C 184.5242919921875 152.76661682128906 171.5622100830078 135.6259765625 171.261474609375 131.47735595703125" stroke-width="2" fill="none" stroke="rgb(0, 0, 0)" stroke-opacity="1.0" stroke-linecap="round" stroke-linejoin="round"/>
    <path d="M 159.71609497070312 107.52108001708984 C 167.99122619628906 142.1996612548828 226.13613891601562 1.9638147354125977 158.28952026367188 85.05946350097656" stroke-width="2" fill="none" stroke="rgb(0, 0, 0)" stroke-opacity="1.0" stroke-linecap="round" stroke-linejoin="round"/>
    <path d="M 147.84019470214844 155.6726531982422 C 58.074378967285156 126.54539489746094 154.91099548339844 100.69757843017578 123.2487564086914 119.26727294921875" stroke-width="2" fill="none" stroke="rgb(0, 0, 0)" stroke-opacity="1.0" stroke-linecap="round" stroke-linejoin="round"/>
  </g>
</svg>
