<?xml version="1.0" ?>
<svg xmlns="http://www.w3.org/2000/svg" version="1.1" width="224" height="224">
  <defs/>
  <g>
    <path d="M 139.8616485595703 135.3821258544922 C 102.78276062011719 113.06353759765625 240.88916015625 155.79408264160156 122.91163635253906 134.65988159179688" stroke-width="2" fill="none" stroke="rgb(0, 0, 0)" stroke-opacity="1.0" stroke-linecap="round" stroke-linejoin="round"/>
    <path d="M 162.2673797607422 135.90647888183594 C 69.84781646728516 135.64041137695312 114.22071075439453 141.23597717285156 94.27616882324219 128.4932403564453" stroke-width="2" fill="none" stroke="rgb(0, 0, 0)" stroke-opacity="1.0" stroke-linecap="round" stroke-linejoin="round"/>
    <path d="M 160.2888641357422 123.71504974365234 C 138.26260375976562 114.55412292480469 111.6538314819336 84.8560562133789 168.5389862060547 92.3499755859375" stroke-width="2" fill="none" stroke="rgb(0, 0, 0)" stroke-opacity="1.0" stroke-linecap="round" stroke-linejoin="round"/>
    <path d="M 169.5108642578125 112.35803985595703 C 144.7917022705078 130.13677978515625 189.61203002929688 107.24295043945312 142.41395568847656 117.80585479736328" stroke-width="2" fill="none" stroke="rgb(0, 0, 0)" stroke-opacity="1.0" stroke-linecap="round" stroke-linejoin="round"/>
    <path d="M 112.6622085571289 130.56736755371094 C 139.06858825683594 76.08119201660156 238.09686279296875 168.38919067382812 90.136474609375 131.25924682617188" stroke-width="2" fill="none" stroke="rgb(0, 0, 0)" stroke-opacity="1.0" stroke-linecap="round" stroke-linejoin="round"/>
    <path d="M 148.09901428222656 108.92120361328125 C 57.639190673828125 108.80876159667969 115.99880981445312 95.47007751464844 112.46349334716797 130.28746032714844" stroke-width="2" fill="none" stroke="rgb(0, 0, 0)" stroke-opacity="1.0" stroke-linecap="round" stroke-linejoin="round"/>
    <path d="M 98.7840347290039 105.31107330322266 C 102.20977783203125 7.452861785888672 114.83194732666016 150.35235595703125 169.79690551757812 66.10536193847656" stroke-width="2" fill="none" stroke="rgb(0, 0, 0)" stroke-opacity="1.0" stroke-linecap="round" stroke-linejoin="round"/>
    <path d="M 52.78318786621094 109.47703552246094 C 31.901031494140625 146.83270263671875 48.62199401855469 138.1316375732422 55.7952766418457 154.03961181640625" stroke-width="2" fill="none" stroke="rgb(0, 0, 0)" stroke-opacity="1.0" stroke-linecap="round" stroke-linejoin="round"/>
    <path d="M 54.96382522583008 138.7681121826172 C 261.1171569824219 182.5063934326172 83.20086669921875 126.70003509521484 101.96456909179688 141.55099487304688" stroke-width="2" fill="none" stroke="rgb(0, 0, 0)" stroke-opacity="1.0" stroke-linecap="round" stroke-linejoin="round"/>
    <path d="M 143.96365356445312 158.30873107910156 C 71.20838928222656 133.88050842285156 102.47803497314453 131.96905517578125 111.93247985839844 138.9497528076172" stroke-width="2" fill="none" stroke="rgb(0, 0, 0)" stroke-opacity="1.0" stroke-linecap="round" stroke-linejoin="round"/>
    <path d="M 173.9817657470703 107.07939910888672 C 179.3785400390625 28.8967342376709 172.5640106201172 113.60034942626953 156.31475830078125 93.83079528808594" stroke-width="2" fill="none" stroke="rgb(0, 0, 0)" stroke-opacity="1.0" stroke-linecap="round" stroke-linejoin="round"/>
    <path d="M 168.3197784423828 106.14885711669922 C 149.7354278564453 126.18362426757812 239.16983032226562 195.5979766845703 61.721473693847656 154.0393524169922" stroke-width="2" fill="none" stroke="rgb(0, 0, 0)" stroke-opacity="1.0" stroke-linecap="round" stroke-linejoin="round"/>
    <path d="M 93.20475769042969 99.11442565917969 C 47.422183990478516 87.6894760131836 15.727265357971191 162.13136291503906 66.6601791381836 153.80865478515625" stroke-width="2" fill="none" stroke="rgb(0, 0, 0)" stroke-opacity="1.0" stroke-linecap="round" stroke-linejoin="round"/>
    <path d="M 117.92625427246094 123.1087875366211 C 120.8563232421875 86.03094482421875 112.3896484375 133.17124938964844 104.75679779052734 66.63782501220703" stroke-width="2" fill="none" stroke="rgb(0, 0, 0)" stroke-opacity="1.0" stroke-linecap="round" stroke-linejoin="round"/>
    <path d="M 163.22471618652344 101.21829986572266 C 183.7557830810547 118.05975341796875 196.38626098632812 18.163671493530273 169.49642944335938 73.23587036132812" stroke-width="2" fill="none" stroke="rgb(0, 0, 0)" stroke-opacity="1.0" stroke-linecap="round" stroke-linejoin="round"/>
    <path d="M 169.66307067871094 143.4683380126953 C 144.4639892578125 138.26583862304688 197.2277374267578 131.77474975585938 122.85762023925781 141.10008239746094" stroke-width="2" fill="none" stroke="rgb(0, 0, 0)" stroke-opacity="1.0" stroke-linecap="round" stroke-linejoin="round"/>
  </g>
</svg>
