<?xml version="1.0" ?>
<svg xmlns="http://www.w3.org/2000/svg" version="1.1" width="224" height="224">
  <defs/>
  <g>
    <path d="M 166.06414794921875 111.73433685302734 C 132.4857940673828 103.98902130126953 191.19979858398438 123.01841735839844 132.25904846191406 124.87987518310547" stroke-width="2" fill="none" stroke="rgb(0, 0, 0)" stroke-opacity="1.0" stroke-linecap="round" stroke-linejoin="round"/>
    <path d="M 153.13050842285156 166.14036560058594 C 33.496726989746094 137.21385192871094 67.25981140136719 147.1619415283203 57.400787353515625 130.99041748046875" stroke-width="2" fill="none" stroke="rgb(0, 0, 0)" stroke-opacity="1.0" stroke-linecap="round" stroke-linejoin="round"/>
    <path d="M 131.6634979248047 100.92720031738281 C 112.35699462890625 125.91288757324219 121.26680755615234 88.5247573852539 163.44387817382812 102.99469757080078" stroke-width="2" fill="none" stroke="rgb(0, 0, 0)" stroke-opacity="1.0" stroke-linecap="round" stroke-linejoin="round"/>
    <path d="M 164.92828369140625 130.21881103515625 C 127.21001434326172 137.56968688964844 164.4191131591797 144.03103637695312 126.3452377319336 124.51937866210938" stroke-width="2" fill="none" stroke="rgb(0, 0, 0)" stroke-opacity="1.0" stroke-linecap="round" stroke-linejoin="round"/>
    <path d="M 149.44146728515625 149.6421356201172 C 110.47185516357422 139.0215301513672 244.2818145751953 176.45802307128906 109.90433502197266 141.2045135498047" stroke-width="2" fill="none" stroke="rgb(0, 0, 0)" stroke-opacity="1.0" stroke-linecap="round" stroke-linejoin="round"/>
    <path d="M 101.5535659790039 97.21910858154297 C 104.85712432861328 121.73161315917969 124.6598129272461 90.31692504882812 89.51862335205078 129.67799377441406" stroke-width="2" fill="none" stroke="rgb(0, 0, 0)" stroke-opacity="1.0" stroke-linecap="round" stroke-linejoin="round"/>
    <path d="M 102.38367462158203 115.7338638305664 C 80.37120819091797 0.7684248089790344 141.01327514648438 148.7453155517578 177.5436248779297 84.22245788574219" stroke-width="2" fill="none" stroke="rgb(0, 0, 0)" stroke-opacity="1.0" stroke-linecap="round" stroke-linejoin="round"/>
    <path d="M 57.85226821899414 103.77204132080078 C 28.99142074584961 137.2344207763672 46.46855545043945 149.8413543701172 95.44780731201172 148.32432556152344" stroke-width="2" fill="none" stroke="rgb(0, 0, 0)" stroke-opacity="1.0" stroke-linecap="round" stroke-linejoin="round"/>
    <path d="M 139.630126953125 119.38080596923828 C 227.38595581054688 172.26339721679688 73.84104919433594 104.38243103027344 152.5031280517578 126.413330078125" stroke-width="2" fill="none" stroke="rgb(0, 0, 0)" stroke-opacity="1.0" stroke-linecap="round" stroke-linejoin="round"/>
    <path d="M 121.83576202392578 132.10804748535156 C 117.56391906738281 115.13943481445312 98.85140228271484 132.10740661621094 118.19275665283203 126.54666137695312" stroke-width="2" fill="none" stroke="rgb(0, 0, 0)" stroke-opacity="1.0" stroke-linecap="round" stroke-linejoin="round"/>
    <path d="M 169.96920776367188 120.74549102783203 C 213.22471618652344 4.345529079437256 162.43690490722656 107.39805603027344 141.93594360351562 97.99270629882812" stroke-width="2" fill="none" stroke="rgb(0, 0, 0)" stroke-opacity="1.0" stroke-linecap="round" stroke-linejoin="round"/>
    <path d="M 176.4150390625 113.38275146484375 C 156.3612060546875 125.33341217041016 251.20455932617188 202.47604370117188 48.604469299316406 138.8026123046875" stroke-width="2" fill="none" stroke="rgb(0, 0, 0)" stroke-opacity="1.0" stroke-linecap="round" stroke-linejoin="round"/>
    <path d="M 102.96928405761719 101.02538299560547 C 25.718061447143555 81.90369415283203 44.14045333862305 165.35679626464844 108.8968276977539 157.92086791992188" stroke-width="2" fill="none" stroke="rgb(0, 0, 0)" stroke-opacity="1.0" stroke-linecap="round" stroke-linejoin="round"/>
    <path d="M 126.19266510009766 126.05281829833984 C 124.44528198242188 74.41627502441406 124.62914276123047 141.47296142578125 101.51300811767578 75.33552551269531" stroke-width="2" fill="none" stroke="rgb(0, 0, 0)" stroke-opacity="1.0" stroke-linecap="round" stroke-linejoin="round"/>
    <path d="M 156.7638702392578 101.77539825439453 C 180.8256378173828 154.710693359375 202.9819793701172 0.556499719619751 171.90040588378906 94.07817077636719" stroke-width="2" fill="none" stroke="rgb(0, 0, 0)" stroke-opacity="1.0" stroke-linecap="round" stroke-linejoin="round"/>
    <path d="M 163.862060546875 136.03872680664062 C 87.38225555419922 148.1533966064453 199.23287963867188 125.08984375 133.23312377929688 133.0684356689453" stroke-width="2" fill="none" stroke="rgb(0, 0, 0)" stroke-opacity="1.0" stroke-linecap="round" stroke-linejoin="round"/>
  </g>
</svg>
