<?xml version="1.0" ?>
<svg xmlns="http://www.w3.org/2000/svg" version="1.1" width="224" height="224">
  <defs/>
  <g>
    <path d="M 137.10646057128906 97.59044647216797 C 64.91332244873047 130.84671020507812 223.7329559326172 149.591064453125 126.04393005371094 133.4021759033203" stroke-width="2" fill="none" stroke="rgb(0, 0, 0)" stroke-opacity="1.0" stroke-linecap="round" stroke-linejoin="round"/>
    <path d="M 126.09539794921875 120.34515380859375 C 77.09024810791016 127.34754180908203 119.44821166992188 124.63631439208984 96.71647644042969 102.65312194824219" stroke-width="2" fill="none" stroke="rgb(0, 0, 0)" stroke-opacity="1.0" stroke-linecap="round" stroke-linejoin="round"/>
    <path d="M 177.96189880371094 74.12722778320312 C 170.03089904785156 107.3130111694336 146.68902587890625 89.38178253173828 168.6450958251953 90.6915512084961" stroke-width="2" fill="none" stroke="rgb(0, 0, 0)" stroke-opacity="1.0" stroke-linecap="round" stroke-linejoin="round"/>
    <path d="M 137.45831298828125 130.4896697998047 C 153.49562072753906 134.6835174560547 179.1592559814453 144.4916229248047 138.31861877441406 117.29150390625" stroke-width="2" fill="none" stroke="rgb(0, 0, 0)" stroke-opacity="1.0" stroke-linecap="round" stroke-linejoin="round"/>
    <path d="M 166.81495666503906 113.31157684326172 C 121.34066772460938 42.87543869018555 235.32620239257812 168.02603149414062 87.40836334228516 134.18821716308594" stroke-width="2" fill="none" stroke="rgb(0, 0, 0)" stroke-opacity="1.0" stroke-linecap="round" stroke-linejoin="round"/>
    <path d="M 160.11778259277344 119.1535415649414 C 104.89543914794922 122.33170318603516 171.0296173095703 109.66436767578125 141.17428588867188 126.23614501953125" stroke-width="2" fill="none" stroke="rgb(0, 0, 0)" stroke-opacity="1.0" stroke-linecap="round" stroke-linejoin="round"/>
    <path d="M 100.2468490600586 97.8167724609375 C 81.43646240234375 9.116145133972168 142.71331787109375 137.5719451904297 175.05923461914062 81.73757934570312" stroke-width="2" fill="none" stroke="rgb(0, 0, 0)" stroke-opacity="1.0" stroke-linecap="round" stroke-linejoin="round"/>
    <path d="M 79.22224426269531 115.16935729980469 C 77.0614013671875 126.39385986328125 46.453773498535156 101.9676284790039 54.05388641357422 128.1134796142578" stroke-width="2" fill="none" stroke="rgb(0, 0, 0)" stroke-opacity="1.0" stroke-linecap="round" stroke-linejoin="round"/>
    <path d="M 108.89725494384766 154.25718688964844 C 233.96420288085938 169.12985229492188 74.39580535888672 123.9721908569336 125.60234832763672 138.71392822265625" stroke-width="2" fill="none" stroke="rgb(0, 0, 0)" stroke-opacity="1.0" stroke-linecap="round" stroke-linejoin="round"/>
    <path d="M 131.85499572753906 127.29269409179688 C 93.73149871826172 140.37159729003906 138.34490966796875 97.09613800048828 106.16283416748047 127.4971923828125" stroke-width="2" fill="none" stroke="rgb(0, 0, 0)" stroke-opacity="1.0" stroke-linecap="round" stroke-linejoin="round"/>
    <path d="M 166.3892059326172 86.31535339355469 C 211.24656677246094 15.896974563598633 156.24197387695312 108.73646545410156 136.62779235839844 86.4982681274414" stroke-width="2" fill="none" stroke="rgb(0, 0, 0)" stroke-opacity="1.0" stroke-linecap="round" stroke-linejoin="round"/>
    <path d="M 176.23849487304688 104.70319366455078 C 135.48239135742188 136.48187255859375 247.29176330566406 171.46751403808594 89.91148376464844 152.72018432617188" stroke-width="2" fill="none" stroke="rgb(0, 0, 0)" stroke-opacity="1.0" stroke-linecap="round" stroke-linejoin="round"/>
    <path d="M 94.04962921142578 97.31697082519531 C 44.471343994140625 79.42110443115234 6.604048728942871 160.64134216308594 96.0732192993164 149.82322692871094" stroke-width="2" fill="none" stroke="rgb(0, 0, 0)" stroke-opacity="1.0" stroke-linecap="round" stroke-linejoin="round"/>
    <path d="M 115.74735260009766 107.74044036865234 C 155.78524780273438 104.90231323242188 127.7606201171875 114.1003646850586 107.60310363769531 67.16712951660156" stroke-width="2" fill="none" stroke="rgb(0, 0, 0)" stroke-opacity="1.0" stroke-linecap="round" stroke-linejoin="round"/>
    <path d="M 180.31317138671875 106.22722625732422 C 184.10562133789062 116.99168395996094 200.2727508544922 9.14207649230957 177.03819274902344 102.8023452758789" stroke-width="2" fill="none" stroke="rgb(0, 0, 0)" stroke-opacity="1.0" stroke-linecap="round" stroke-linejoin="round"/>
    <path d="M 106.74188232421875 127.36556243896484 C 90.0113296508789 104.22383117675781 166.15817260742188 158.44284057617188 114.80256652832031 117.54693603515625" stroke-width="2" fill="none" stroke="rgb(0, 0, 0)" stroke-opacity="1.0" stroke-linecap="round" stroke-linejoin="round"/>
  </g>
</svg>
