<?xml version="1.0" ?>
<svg xmlns="http://www.w3.org/2000/svg" version="1.1" width="224" height="224">
  <defs/>
  <g>
    <path d="M 128.1189727783203 157.9117889404297 C 158.08033752441406 170.33233642578125 220.67230224609375 144.65777587890625 122.53111267089844 129.6515655517578" stroke-width="2" fill="none" stroke="rgb(0, 0, 0)" stroke-opacity="1.0" stroke-linecap="round" stroke-linejoin="round"/>
    <path d="M 107.36415100097656 120.99736785888672 C 86.40677642822266 73.44706726074219 114.1355972290039 92.55956268310547 90.02208709716797 93.06336975097656" stroke-width="2" fill="none" stroke="rgb(0, 0, 0)" stroke-opacity="1.0" stroke-linecap="round" stroke-linejoin="round"/>
    <path d="M 166.07847595214844 125.24968719482422 C 85.15454864501953 135.1624755859375 132.4791259765625 78.26966857910156 141.83908081054688 102.07600402832031" stroke-width="2" fill="none" stroke="rgb(0, 0, 0)" stroke-opacity="1.0" stroke-linecap="round" stroke-linejoin="round"/>
    <path d="M 172.1918182373047 99.66195678710938 C 127.86542510986328 98.94378662109375 219.0626983642578 122.8173599243164 124.56529998779297 107.21775817871094" stroke-width="2" fill="none" stroke="rgb(0, 0, 0)" stroke-opacity="1.0" stroke-linecap="round" stroke-linejoin="round"/>
    <path d="M 90.4583740234375 119.61962890625 C 19.230722427368164 112.00794982910156 290.3287658691406 178.44886779785156 67.89529418945312 155.4471893310547" stroke-width="2" fill="none" stroke="rgb(0, 0, 0)" stroke-opacity="1.0" stroke-linecap="round" stroke-linejoin="round"/>
    <path d="M 55.37550354003906 103.099609375 C 45.31061553955078 127.03761291503906 30.32158088684082 115.14962005615234 49.137474060058594 147.620361328125" stroke-width="2" fill="none" stroke="rgb(0, 0, 0)" stroke-opacity="1.0" stroke-linecap="round" stroke-linejoin="round"/>
    <path d="M 100.18663024902344 114.46371459960938 C 82.94374084472656 10.326472282409668 136.25146484375 117.46759033203125 127.32708740234375 96.77145385742188" stroke-width="2" fill="none" stroke="rgb(0, 0, 0)" stroke-opacity="1.0" stroke-linecap="round" stroke-linejoin="round"/>
    <path d="M 54.223487854003906 151.34494018554688 C 39.145687103271484 139.1436767578125 42.192138671875 150.2521514892578 117.29888916015625 152.80059814453125" stroke-width="2" fill="none" stroke="rgb(0, 0, 0)" stroke-opacity="1.0" stroke-linecap="round" stroke-linejoin="round"/>
    <path d="M 152.54136657714844 117.45930480957031 C 185.90931701660156 124.97801208496094 137.56846618652344 100.1566390991211 163.73854064941406 125.43840789794922" stroke-width="2" fill="none" stroke="rgb(0, 0, 0)" stroke-opacity="1.0" stroke-linecap="round" stroke-linejoin="round"/>
    <path d="M 71.98761749267578 128.84365844726562 C 229.92205810546875 135.57089233398438 117.95439910888672 115.30374908447266 148.4573974609375 132.19114685058594" stroke-width="2" fill="none" stroke="rgb(0, 0, 0)" stroke-opacity="1.0" stroke-linecap="round" stroke-linejoin="round"/>
    <path d="M 162.5436248779297 93.97615814208984 C 196.8687744140625 22.2684383392334 164.6417999267578 114.59952545166016 120.57678985595703 84.82836151123047" stroke-width="2" fill="none" stroke="rgb(0, 0, 0)" stroke-opacity="1.0" stroke-linecap="round" stroke-linejoin="round"/>
    <path d="M 172.37643432617188 113.3183822631836 C 159.43772888183594 139.32269287109375 222.06211853027344 171.99427795410156 45.614906311035156 138.7969207763672" stroke-width="2" fill="none" stroke="rgb(0, 0, 0)" stroke-opacity="1.0" stroke-linecap="round" stroke-linejoin="round"/>
    <path d="M 106.3279800415039 100.65015411376953 C 35.98917770385742 64.6996078491211 14.328329086303711 162.35682678222656 66.3106918334961 148.1255645751953" stroke-width="2" fill="none" stroke="rgb(0, 0, 0)" stroke-opacity="1.0" stroke-linecap="round" stroke-linejoin="round"/>
    <path d="M 146.48434448242188 111.294921875 C 116.61749267578125 127.50501251220703 166.60733032226562 108.47026062011719 137.444580078125 111.91238403320312" stroke-width="2" fill="none" stroke="rgb(0, 0, 0)" stroke-opacity="1.0" stroke-linecap="round" stroke-linejoin="round"/>
    <path d="M 136.0253143310547 115.32958984375 C 202.89198303222656 138.47052001953125 185.4862060546875 0.6348249912261963 175.17930603027344 86.47290802001953" stroke-width="2" fill="none" stroke="rgb(0, 0, 0)" stroke-opacity="1.0" stroke-linecap="round" stroke-linejoin="round"/>
    <path d="M 156.19178771972656 123.3449935913086 C 61.535743713378906 117.86170959472656 181.5585174560547 102.92098999023438 115.56067657470703 107.14642333984375" stroke-width="2" fill="none" stroke="rgb(0, 0, 0)" stroke-opacity="1.0" stroke-linecap="round" stroke-linejoin="round"/>
  </g>
</svg>
