<?xml version="1.0" ?>
<svg xmlns="http://www.w3.org/2000/svg" version="1.1" width="224" height="224">
  <defs/>
  <g>
    <path d="M 141.71554565429688 121.71240997314453 C 91.72122192382812 145.13705444335938 201.36534118652344 135.46994018554688 147.51327514648438 142.04000854492188" stroke-width="2" fill="none" stroke="rgb(0, 0, 0)" stroke-opacity="1.0" stroke-linecap="round" stroke-linejoin="round"/>
    <path d="M 139.44882202148438 130.3979034423828 C 105.52232360839844 100.2669448852539 152.1819610595703 165.06033325195312 175.1818389892578 137.3509521484375" stroke-width="2" fill="none" stroke="rgb(0, 0, 0)" stroke-opacity="1.0" stroke-linecap="round" stroke-linejoin="round"/>
    <path d="M 177.81764221191406 74.7996826171875 C 166.8024444580078 100.99661254882812 116.49812316894531 69.25511169433594 166.98458862304688 107.71330261230469" stroke-width="2" fill="none" stroke="rgb(0, 0, 0)" stroke-opacity="1.0" stroke-linecap="round" stroke-linejoin="round"/>
    <path d="M 170.7243194580078 124.32854461669922 C 150.0302734375 101.77665710449219 208.56333923339844 129.7366485595703 146.97962951660156 146.0215606689453" stroke-width="2" fill="none" stroke="rgb(0, 0, 0)" stroke-opacity="1.0" stroke-linecap="round" stroke-linejoin="round"/>
    <path d="M 164.29991149902344 121.02193450927734 C 127.4281005859375 96.37709045410156 281.25653076171875 166.00843811035156 64.62809753417969 150.2036590576172" stroke-width="2" fill="none" stroke="rgb(0, 0, 0)" stroke-opacity="1.0" stroke-linecap="round" stroke-linejoin="round"/>
    <path d="M 162.91928100585938 138.8099365234375 C 143.9904327392578 125.55746459960938 141.41278076171875 158.76467895507812 168.7961883544922 143.93350219726562" stroke-width="2" fill="none" stroke="rgb(0, 0, 0)" stroke-opacity="1.0" stroke-linecap="round" stroke-linejoin="round"/>
    <path d="M 91.17583465576172 80.0645751953125 C 149.5673828125 66.07398223876953 128.0473175048828 149.96885681152344 181.4075469970703 63.59303283691406" stroke-width="2" fill="none" stroke="rgb(0, 0, 0)" stroke-opacity="1.0" stroke-linecap="round" stroke-linejoin="round"/>
    <path d="M 62.63307571411133 140.29356384277344 C 131.86293029785156 146.87063598632812 -1.1179813146591187 110.57173919677734 69.60630798339844 132.02728271484375" stroke-width="2" fill="none" stroke="rgb(0, 0, 0)" stroke-opacity="1.0" stroke-linecap="round" stroke-linejoin="round"/>
    <path d="M 151.85409545898438 120.77779388427734 C 210.40402221679688 112.88239288330078 137.75973510742188 122.78741455078125 163.2781982421875 125.58734893798828" stroke-width="2" fill="none" stroke="rgb(0, 0, 0)" stroke-opacity="1.0" stroke-linecap="round" stroke-linejoin="round"/>
    <path d="M 127.71153259277344 114.02928924560547 C 120.93310546875 133.29579162597656 157.77490234375 118.06407165527344 131.67422485351562 123.44338989257812" stroke-width="2" fill="none" stroke="rgb(0, 0, 0)" stroke-opacity="1.0" stroke-linecap="round" stroke-linejoin="round"/>
    <path d="M 131.10348510742188 85.93463897705078 C 226.09848022460938 20.935131072998047 179.06436157226562 119.56958770751953 136.7870330810547 86.13042449951172" stroke-width="2" fill="none" stroke="rgb(0, 0, 0)" stroke-opacity="1.0" stroke-linecap="round" stroke-linejoin="round"/>
    <path d="M 178.60011291503906 106.87616729736328 C 164.09506225585938 170.8714141845703 184.85897827148438 164.39614868164062 49.16053771972656 138.35159301757812" stroke-width="2" fill="none" stroke="rgb(0, 0, 0)" stroke-opacity="1.0" stroke-linecap="round" stroke-linejoin="round"/>
    <path d="M 86.32276916503906 95.23816680908203 C 45.16883850097656 95.12068176269531 1.1330093145370483 153.6743927001953 120.5545654296875 165.29859924316406" stroke-width="2" fill="none" stroke="rgb(0, 0, 0)" stroke-opacity="1.0" stroke-linecap="round" stroke-linejoin="round"/>
    <path d="M 84.45252227783203 109.85734558105469 C 136.23764038085938 118.11561584472656 141.6233673095703 198.32351684570312 112.15874481201172 106.95149993896484" stroke-width="2" fill="none" stroke="rgb(0, 0, 0)" stroke-opacity="1.0" stroke-linecap="round" stroke-linejoin="round"/>
    <path d="M 177.1654815673828 92.89965057373047 C 164.11972045898438 127.51283264160156 221.0381622314453 -6.467032432556152 153.2874298095703 71.41509246826172" stroke-width="2" fill="none" stroke="rgb(0, 0, 0)" stroke-opacity="1.0" stroke-linecap="round" stroke-linejoin="round"/>
    <path d="M 110.62708282470703 142.76409912109375 C 107.02941131591797 134.16806030273438 133.87356567382812 135.4691162109375 62.948734283447266 122.56322479248047" stroke-width="2" fill="none" stroke="rgb(0, 0, 0)" stroke-opacity="1.0" stroke-linecap="round" stroke-linejoin="round"/>
  </g>
</svg>
