<?xml version="1.0" ?>
<svg xmlns="http://www.w3.org/2000/svg" version="1.1" width="224" height="224">
  <defs/>
  <g>
    <path d="M 151.38705444335938 120.59122467041016 C 115.5330810546875 117.92076873779297 209.75621032714844 129.4031982421875 130.3860626220703 122.68712615966797" stroke-width="2" fill="none" stroke="rgb(0, 0, 0)" stroke-opacity="1.0" stroke-linecap="round" stroke-linejoin="round"/>
    <path d="M 148.38458251953125 160.24293518066406 C 37.04116439819336 144.82806396484375 79.06687927246094 142.52853393554688 69.7645034790039 130.89292907714844" stroke-width="2" fill="none" stroke="rgb(0, 0, 0)" stroke-opacity="1.0" stroke-linecap="round" stroke-linejoin="round"/>
    <path d="M 135.13832092285156 109.40001678466797 C 116.44792938232422 133.04298400878906 123.18324279785156 79.47624969482422 165.18890380859375 100.53453826904297" stroke-width="2" fill="none" stroke="rgb(0, 0, 0)" stroke-opacity="1.0" stroke-linecap="round" stroke-linejoin="round"/>
    <path d="M 158.69110107421875 135.31436157226562 C 122.24971008300781 143.34300231933594 163.23414611816406 142.66864013671875 126.49559020996094 127.3446044921875" stroke-width="2" fill="none" stroke="rgb(0, 0, 0)" stroke-opacity="1.0" stroke-linecap="round" stroke-linejoin="round"/>
    <path d="M 160.1358642578125 143.0221710205078 C 114.16644287109375 126.9448471069336 237.1986541748047 174.64930725097656 107.28742218017578 143.12606811523438" stroke-width="2" fill="none" stroke="rgb(0, 0, 0)" stroke-opacity="1.0" stroke-linecap="round" stroke-linejoin="round"/>
    <path d="M 111.44633483886719 99.03038024902344 C 103.81845092773438 128.6416778564453 116.40633392333984 86.96043395996094 97.83045959472656 117.49647521972656" stroke-width="2" fill="none" stroke="rgb(0, 0, 0)" stroke-opacity="1.0" stroke-linecap="round" stroke-linejoin="round"/>
    <path d="M 102.56222534179688 103.09819030761719 C 73.00645446777344 3.8177125453948975 141.08663940429688 157.07862854003906 172.81190490722656 87.45398712158203" stroke-width="2" fill="none" stroke="rgb(0, 0, 0)" stroke-opacity="1.0" stroke-linecap="round" stroke-linejoin="round"/>
    <path d="M 51.73878479003906 115.90727233886719 C 29.059587478637695 143.20111083984375 42.97231674194336 157.1976776123047 88.41006469726562 163.5946502685547" stroke-width="2" fill="none" stroke="rgb(0, 0, 0)" stroke-opacity="1.0" stroke-linecap="round" stroke-linejoin="round"/>
    <path d="M 127.47452545166016 117.1885757446289 C 237.59332275390625 173.52740478515625 78.19882202148438 108.4209213256836 128.769287109375 136.3318328857422" stroke-width="2" fill="none" stroke="rgb(0, 0, 0)" stroke-opacity="1.0" stroke-linecap="round" stroke-linejoin="round"/>
    <path d="M 114.27115631103516 123.43539428710938 C 104.52188873291016 123.31866455078125 94.75318145751953 134.5617218017578 117.88452911376953 129.02403259277344" stroke-width="2" fill="none" stroke="rgb(0, 0, 0)" stroke-opacity="1.0" stroke-linecap="round" stroke-linejoin="round"/>
    <path d="M 175.41934204101562 113.53636169433594 C 212.06344604492188 -5.939325332641602 164.62344360351562 101.89012145996094 137.43350219726562 93.17130279541016" stroke-width="2" fill="none" stroke="rgb(0, 0, 0)" stroke-opacity="1.0" stroke-linecap="round" stroke-linejoin="round"/>
    <path d="M 173.65545654296875 104.70500183105469 C 145.19723510742188 129.59365844726562 231.9101104736328 205.89295959472656 51.54591369628906 147.34474182128906" stroke-width="2" fill="none" stroke="rgb(0, 0, 0)" stroke-opacity="1.0" stroke-linecap="round" stroke-linejoin="round"/>
    <path d="M 99.88114929199219 98.57433319091797 C 33.09975814819336 83.09966278076172 42.68666458129883 160.55267333984375 122.1704330444336 153.96885681152344" stroke-width="2" fill="none" stroke="rgb(0, 0, 0)" stroke-opacity="1.0" stroke-linecap="round" stroke-linejoin="round"/>
    <path d="M 132.0425567626953 131.8533935546875 C 118.74070739746094 67.98950958251953 131.78189086914062 126.88581848144531 107.64777374267578 75.47280883789062" stroke-width="2" fill="none" stroke="rgb(0, 0, 0)" stroke-opacity="1.0" stroke-linecap="round" stroke-linejoin="round"/>
    <path d="M 152.80758666992188 99.43224334716797 C 176.2444610595703 152.5333709716797 211.8685302734375 -9.39962387084961 166.3107452392578 89.83549499511719" stroke-width="2" fill="none" stroke="rgb(0, 0, 0)" stroke-opacity="1.0" stroke-linecap="round" stroke-linejoin="round"/>
    <path d="M 158.17333984375 138.34275817871094 C 84.23763275146484 149.08456420898438 185.02149963378906 109.75761413574219 144.49790954589844 130.19216918945312" stroke-width="2" fill="none" stroke="rgb(0, 0, 0)" stroke-opacity="1.0" stroke-linecap="round" stroke-linejoin="round"/>
  </g>
</svg>
