<?xml version="1.0" ?>
<svg xmlns="http://www.w3.org/2000/svg" version="1.1" width="224" height="224">
  <defs/>
  <g>
    <path d="M 125.48160552978516 118.76678466796875 C 75.96637725830078 122.81398010253906 174.37010192871094 114.19719696044922 116.53857421875 107.79499816894531" stroke-width="2" fill="none" stroke="rgb(0, 0, 0)" stroke-opacity="1.0" stroke-linecap="round" stroke-linejoin="round"/>
    <path d="M 132.069091796875 129.23329162597656 C 80.81294250488281 111.06375885009766 190.3322296142578 144.35235595703125 152.99298095703125 145.8685760498047" stroke-width="2" fill="none" stroke="rgb(0, 0, 0)" stroke-opacity="1.0" stroke-linecap="round" stroke-linejoin="round"/>
    <path d="M 148.92555236816406 108.0683822631836 C 197.10537719726562 121.18379211425781 122.21009826660156 109.64700317382812 160.4124755859375 117.43071746826172" stroke-width="2" fill="none" stroke="rgb(0, 0, 0)" stroke-opacity="1.0" stroke-linecap="round" stroke-linejoin="round"/>
    <path d="M 148.91383361816406 131.83364868164062 C 81.73301696777344 140.44073486328125 227.18423461914062 146.62759399414062 128.9759979248047 156.0758056640625" stroke-width="2" fill="none" stroke="rgb(0, 0, 0)" stroke-opacity="1.0" stroke-linecap="round" stroke-linejoin="round"/>
    <path d="M 124.01087188720703 102.91911315917969 C 71.13009643554688 130.7030792236328 214.8776092529297 146.3610382080078 118.60809326171875 136.4630584716797" stroke-width="2" fill="none" stroke="rgb(0, 0, 0)" stroke-opacity="1.0" stroke-linecap="round" stroke-linejoin="round"/>
    <path d="M 128.92391967773438 121.52079772949219 C 107.25889587402344 118.97946166992188 92.63079833984375 138.95716857910156 147.3838348388672 147.1659698486328" stroke-width="2" fill="none" stroke="rgb(0, 0, 0)" stroke-opacity="1.0" stroke-linecap="round" stroke-linejoin="round"/>
    <path d="M 97.78643798828125 80.5535659790039 C 144.4679412841797 64.65220642089844 120.74310302734375 127.9999008178711 182.87098693847656 63.590267181396484" stroke-width="2" fill="none" stroke="rgb(0, 0, 0)" stroke-opacity="1.0" stroke-linecap="round" stroke-linejoin="round"/>
    <path d="M 120.03677368164062 151.3809814453125 C 78.76818084716797 155.28599548339844 2.123683452606201 147.087646484375 62.51476287841797 102.71202087402344" stroke-width="2" fill="none" stroke="rgb(0, 0, 0)" stroke-opacity="1.0" stroke-linecap="round" stroke-linejoin="round"/>
    <path d="M 152.76112365722656 121.203125 C 182.53700256347656 129.1631317138672 124.5033187866211 110.8511734008789 159.91062927246094 108.92152404785156" stroke-width="2" fill="none" stroke="rgb(0, 0, 0)" stroke-opacity="1.0" stroke-linecap="round" stroke-linejoin="round"/>
    <path d="M 105.71589660644531 116.02291870117188 C 116.19632720947266 155.6237335205078 150.23277282714844 148.37503051757812 89.90201568603516 125.74398803710938" stroke-width="2" fill="none" stroke="rgb(0, 0, 0)" stroke-opacity="1.0" stroke-linecap="round" stroke-linejoin="round"/>
    <path d="M 163.30833435058594 90.56009674072266 C 206.18649291992188 4.170914173126221 178.74745178222656 144.23915100097656 157.4837646484375 108.07682800292969" stroke-width="2" fill="none" stroke="rgb(0, 0, 0)" stroke-opacity="1.0" stroke-linecap="round" stroke-linejoin="round"/>
    <path d="M 161.14634704589844 112.35748291015625 C 166.07794189453125 161.87318420410156 173.5985107421875 168.2237091064453 45.236488342285156 138.07188415527344" stroke-width="2" fill="none" stroke="rgb(0, 0, 0)" stroke-opacity="1.0" stroke-linecap="round" stroke-linejoin="round"/>
    <path d="M 43.682167053222656 135.8300018310547 C 61.86732482910156 162.0390625 25.515491485595703 129.9226531982422 107.22844696044922 153.88973999023438" stroke-width="2" fill="none" stroke="rgb(0, 0, 0)" stroke-opacity="1.0" stroke-linecap="round" stroke-linejoin="round"/>
    <path d="M 105.77815246582031 108.68702697753906 C 87.00804901123047 86.82716369628906 105.32620239257812 91.91131591796875 105.75849151611328 131.12672424316406" stroke-width="2" fill="none" stroke="rgb(0, 0, 0)" stroke-opacity="1.0" stroke-linecap="round" stroke-linejoin="round"/>
    <path d="M 159.97589111328125 134.5454864501953 C 177.8945770263672 148.04624938964844 204.81048583984375 -8.612202644348145 169.4116973876953 97.09587097167969" stroke-width="2" fill="none" stroke="rgb(0, 0, 0)" stroke-opacity="1.0" stroke-linecap="round" stroke-linejoin="round"/>
    <path d="M 82.72579956054688 110.20380401611328 C 23.26308250427246 110.21492767333984 83.7142562866211 97.61925506591797 66.71028900146484 104.83726501464844" stroke-width="2" fill="none" stroke="rgb(0, 0, 0)" stroke-opacity="1.0" stroke-linecap="round" stroke-linejoin="round"/>
  </g>
</svg>
