<?xml version="1.0" ?>
<svg xmlns="http://www.w3.org/2000/svg" version="1.1" width="224" height="224">
  <defs/>
  <g>
    <path d="M 105.92996215820312 134.82986450195312 C 60.46915817260742 119.943603515625 121.2974624633789 164.7759552001953 109.02684783935547 117.55941772460938" stroke-width="2" fill="none" stroke="rgb(0, 0, 0)" stroke-opacity="1.0" stroke-linecap="round" stroke-linejoin="round"/>
    <path d="M 141.57041931152344 130.06407165527344 C 98.159912109375 145.99217224121094 187.6619415283203 133.832763671875 128.240234375 129.8589324951172" stroke-width="2" fill="none" stroke="rgb(0, 0, 0)" stroke-opacity="1.0" stroke-linecap="round" stroke-linejoin="round"/>
    <path d="M 152.67727661132812 123.43787384033203 C 119.63011169433594 160.35891723632812 90.65707397460938 122.13803100585938 95.64125061035156 132.9629364013672" stroke-width="2" fill="none" stroke="rgb(0, 0, 0)" stroke-opacity="1.0" stroke-linecap="round" stroke-linejoin="round"/>
    <path d="M 164.04148864746094 108.92472076416016 C 121.57360076904297 89.8583984375 236.54379272460938 155.38291931152344 127.49805450439453 134.23135375976562" stroke-width="2" fill="none" stroke="rgb(0, 0, 0)" stroke-opacity="1.0" stroke-linecap="round" stroke-linejoin="round"/>
    <path d="M 121.38858795166016 114.49625396728516 C 85.22127532958984 135.9029998779297 142.963134765625 111.3154067993164 106.69497680664062 119.23028564453125" stroke-width="2" fill="none" stroke="rgb(0, 0, 0)" stroke-opacity="1.0" stroke-linecap="round" stroke-linejoin="round"/>
    <path d="M 114.56702423095703 112.47138977050781 C 91.47225952148438 128.60635375976562 96.91866302490234 94.83412170410156 122.30368041992188 105.18302917480469" stroke-width="2" fill="none" stroke="rgb(0, 0, 0)" stroke-opacity="1.0" stroke-linecap="round" stroke-linejoin="round"/>
    <path d="M 97.1939697265625 70.09546661376953 C 118.04985809326172 62.1790771484375 108.46569061279297 115.4056167602539 164.9671630859375 85.01242065429688" stroke-width="2" fill="none" stroke="rgb(0, 0, 0)" stroke-opacity="1.0" stroke-linecap="round" stroke-linejoin="round"/>
    <path d="M 112.80870819091797 143.5953826904297 C 102.99085235595703 122.75920867919922 2.3993825912475586 180.20526123046875 53.35472869873047 112.86273193359375" stroke-width="2" fill="none" stroke="rgb(0, 0, 0)" stroke-opacity="1.0" stroke-linecap="round" stroke-linejoin="round"/>
    <path d="M 137.8465118408203 119.11515808105469 C 185.14739990234375 115.20379638671875 106.881103515625 109.02253723144531 144.55831909179688 120.83242797851562" stroke-width="2" fill="none" stroke="rgb(0, 0, 0)" stroke-opacity="1.0" stroke-linecap="round" stroke-linejoin="round"/>
    <path d="M 68.01296997070312 108.33378601074219 C 102.91340637207031 109.736083984375 68.76492309570312 95.81998443603516 117.4004135131836 148.7581024169922" stroke-width="2" fill="none" stroke="rgb(0, 0, 0)" stroke-opacity="1.0" stroke-linecap="round" stroke-linejoin="round"/>
    <path d="M 153.8819580078125 92.29103088378906 C 209.44383239746094 19.90418243408203 187.52220153808594 80.97246551513672 167.49295043945312 127.2922134399414" stroke-width="2" fill="none" stroke="rgb(0, 0, 0)" stroke-opacity="1.0" stroke-linecap="round" stroke-linejoin="round"/>
    <path d="M 174.00167846679688 106.9217300415039 C 189.67333984375 175.81007385253906 165.0331268310547 149.9180908203125 132.92642211914062 155.807373046875" stroke-width="2" fill="none" stroke="rgb(0, 0, 0)" stroke-opacity="1.0" stroke-linecap="round" stroke-linejoin="round"/>
    <path d="M 78.8094253540039 141.81011962890625 C 76.12517547607422 148.3019561767578 11.950530052185059 130.16236877441406 102.06409454345703 146.51519775390625" stroke-width="2" fill="none" stroke="rgb(0, 0, 0)" stroke-opacity="1.0" stroke-linecap="round" stroke-linejoin="round"/>
    <path d="M 92.65099334716797 106.07628631591797 C 98.88681030273438 52.566219329833984 91.92159271240234 71.59606170654297 98.78385925292969 107.67232513427734" stroke-width="2" fill="none" stroke="rgb(0, 0, 0)" stroke-opacity="1.0" stroke-linecap="round" stroke-linejoin="round"/>
    <path d="M 170.6961669921875 98.80542755126953 C 150.72581481933594 134.18299865722656 211.09568786621094 71.57819366455078 177.6703338623047 79.01459503173828" stroke-width="2" fill="none" stroke="rgb(0, 0, 0)" stroke-opacity="1.0" stroke-linecap="round" stroke-linejoin="round"/>
    <path d="M 53.10898208618164 125.9197006225586 C 41.44485855102539 87.7060546875 117.01116943359375 110.5612564086914 100.66309356689453 106.96610260009766" stroke-width="2" fill="none" stroke="rgb(0, 0, 0)" stroke-opacity="1.0" stroke-linecap="round" stroke-linejoin="round"/>
  </g>
</svg>
