<?xml version="1.0" ?>
<svg xmlns="http://www.w3.org/2000/svg" version="1.1" width="224" height="224">
  <defs/>
  <g>
    <path d="M 124.86982727050781 96.8006591796875 C 57.82219696044922 85.10203552246094 127.84585571289062 133.8813018798828 130.56808471679688 117.86479187011719" stroke-width="2" fill="none" stroke="rgb(0, 0, 0)" stroke-opacity="1.0" stroke-linecap="round" stroke-linejoin="round"/>
    <path d="M 157.14157104492188 145.26512145996094 C 43.01744079589844 114.72626495361328 229.22462463378906 156.7536163330078 166.6528778076172 130.2559356689453" stroke-width="2" fill="none" stroke="rgb(0, 0, 0)" stroke-opacity="1.0" stroke-linecap="round" stroke-linejoin="round"/>
    <path d="M 149.16261291503906 128.7396697998047 C 121.07807922363281 148.79144287109375 100.52796173095703 111.28805541992188 132.09918212890625 123.81368255615234" stroke-width="2" fill="none" stroke="rgb(0, 0, 0)" stroke-opacity="1.0" stroke-linecap="round" stroke-linejoin="round"/>
    <path d="M 176.93978881835938 109.5987777709961 C 140.28591918945312 125.15218353271484 229.399169921875 159.502197265625 128.53005981445312 140.97454833984375" stroke-width="2" fill="none" stroke="rgb(0, 0, 0)" stroke-opacity="1.0" stroke-linecap="round" stroke-linejoin="round"/>
    <path d="M 136.58494567871094 117.79750061035156 C 78.51105499267578 152.0716094970703 184.1472625732422 136.58358764648438 146.6443328857422 130.04042053222656" stroke-width="2" fill="none" stroke="rgb(0, 0, 0)" stroke-opacity="1.0" stroke-linecap="round" stroke-linejoin="round"/>
    <path d="M 131.18638610839844 113.36206817626953 C 112.91117858886719 126.04566955566406 114.96581268310547 110.798828125 135.4047393798828 120.4826431274414" stroke-width="2" fill="none" stroke="rgb(0, 0, 0)" stroke-opacity="1.0" stroke-linecap="round" stroke-linejoin="round"/>
    <path d="M 101.22602081298828 72.56139373779297 C 122.18647766113281 73.27539825439453 108.7903823852539 119.32901000976562 167.1482696533203 76.26773834228516" stroke-width="2" fill="none" stroke="rgb(0, 0, 0)" stroke-opacity="1.0" stroke-linecap="round" stroke-linejoin="round"/>
    <path d="M 104.81060791015625 163.10887145996094 C 78.55062866210938 158.7158203125 3.1948399543762207 155.319580078125 56.189002990722656 100.70628356933594" stroke-width="2" fill="none" stroke="rgb(0, 0, 0)" stroke-opacity="1.0" stroke-linecap="round" stroke-linejoin="round"/>
    <path d="M 142.12522888183594 116.93966674804688 C 187.26760864257812 127.56652069091797 112.81587219238281 114.30430603027344 155.42333984375 125.00473022460938" stroke-width="2" fill="none" stroke="rgb(0, 0, 0)" stroke-opacity="1.0" stroke-linecap="round" stroke-linejoin="round"/>
    <path d="M 51.48633575439453 135.1350555419922 C 95.48941802978516 145.13131713867188 59.92258834838867 124.38086700439453 102.0051498413086 145.46937561035156" stroke-width="2" fill="none" stroke="rgb(0, 0, 0)" stroke-opacity="1.0" stroke-linecap="round" stroke-linejoin="round"/>
    <path d="M 155.23902893066406 93.71355438232422 C 204.29583740234375 17.919511795043945 188.81939697265625 96.73834228515625 160.29656982421875 136.59588623046875" stroke-width="2" fill="none" stroke="rgb(0, 0, 0)" stroke-opacity="1.0" stroke-linecap="round" stroke-linejoin="round"/>
    <path d="M 162.28640747070312 100.32337188720703 C 196.11453247070312 171.3932647705078 183.66989135742188 156.1802978515625 107.17415618896484 154.94403076171875" stroke-width="2" fill="none" stroke="rgb(0, 0, 0)" stroke-opacity="1.0" stroke-linecap="round" stroke-linejoin="round"/>
    <path d="M 38.595706939697266 144.46002197265625 C 78.03057098388672 167.18963623046875 9.217036247253418 127.50881958007812 120.18838500976562 153.46987915039062" stroke-width="2" fill="none" stroke="rgb(0, 0, 0)" stroke-opacity="1.0" stroke-linecap="round" stroke-linejoin="round"/>
    <path d="M 90.54447174072266 107.91450500488281 C 69.53490447998047 106.1154556274414 103.58100891113281 98.49589538574219 105.88911437988281 121.04251861572266" stroke-width="2" fill="none" stroke="rgb(0, 0, 0)" stroke-opacity="1.0" stroke-linecap="round" stroke-linejoin="round"/>
    <path d="M 153.52197265625 102.07239532470703 C 171.03060913085938 125.65843200683594 211.30723571777344 19.66895866394043 162.14122009277344 87.40670013427734" stroke-width="2" fill="none" stroke="rgb(0, 0, 0)" stroke-opacity="1.0" stroke-linecap="round" stroke-linejoin="round"/>
    <path d="M 50.12696838378906 122.56999206542969 C 34.3143310546875 84.87242126464844 125.6742935180664 85.94330596923828 108.67494201660156 114.81536865234375" stroke-width="2" fill="none" stroke="rgb(0, 0, 0)" stroke-opacity="1.0" stroke-linecap="round" stroke-linejoin="round"/>
  </g>
</svg>
