<?xml version="1.0" ?>
<svg xmlns="http://www.w3.org/2000/svg" version="1.1" width="224" height="224">
  <defs/>
  <g>
    <path d="M 93.00027465820312 122.93966674804688 C 99.56095886230469 105.7917251586914 95.76411437988281 116.34305572509766 90.26130676269531 90.30633544921875" stroke-width="2" fill="none" stroke="rgb(0, 0, 0)" stroke-opacity="1.0" stroke-linecap="round" stroke-linejoin="round"/>
    <path d="M 141.01034545898438 136.30389404296875 C 130.62440490722656 138.449951171875 109.36106872558594 134.37680053710938 105.95661926269531 130.19944763183594" stroke-width="2" fill="none" stroke="rgb(0, 0, 0)" stroke-opacity="1.0" stroke-linecap="round" stroke-linejoin="round"/>
    <path d="M 120.135498046875 131.16134643554688 C 137.7567901611328 132.07208251953125 154.57469177246094 127.15460205078125 108.9659652709961 123.35746002197266" stroke-width="2" fill="none" stroke="rgb(0, 0, 0)" stroke-opacity="1.0" stroke-linecap="round" stroke-linejoin="round"/>
    <path d="M 144.1439666748047 131.08900451660156 C 130.46530151367188 128.9617919921875 143.80682373046875 124.50836944580078 162.86204528808594 119.02669525146484" stroke-width="2" fill="none" stroke="rgb(0, 0, 0)" stroke-opacity="1.0" stroke-linecap="round" stroke-linejoin="round"/>
    <path d="M 119.83638000488281 94.88159942626953 C 128.51422119140625 97.26470184326172 136.41323852539062 89.68993377685547 145.61253356933594 102.30744934082031" stroke-width="2" fill="none" stroke="rgb(0, 0, 0)" stroke-opacity="1.0" stroke-linecap="round" stroke-linejoin="round"/>
    <path d="M 120.0423355102539 102.3716812133789 C 126.33372497558594 81.41058349609375 125.05523681640625 98.30775451660156 124.17455291748047 95.38195037841797" stroke-width="2" fill="none" stroke="rgb(0, 0, 0)" stroke-opacity="1.0" stroke-linecap="round" stroke-linejoin="round"/>
    <path d="M 99.33457946777344 65.57376098632812 C 109.9085464477539 89.13912200927734 128.42063903808594 87.18575286865234 148.08676147460938 97.58866119384766" stroke-width="2" fill="none" stroke="rgb(0, 0, 0)" stroke-opacity="1.0" stroke-linecap="round" stroke-linejoin="round"/>
    <path d="M 85.98436737060547 148.6024627685547 C 80.6006851196289 150.67572021484375 36.987709045410156 158.60043334960938 38.2627067565918 134.33578491210938" stroke-width="2" fill="none" stroke="rgb(0, 0, 0)" stroke-opacity="1.0" stroke-linecap="round" stroke-linejoin="round"/>
    <path d="M 158.52688598632812 113.51200866699219 C 143.67340087890625 109.89177703857422 148.28282165527344 112.24551391601562 150.53187561035156 115.100341796875" stroke-width="2" fill="none" stroke="rgb(0, 0, 0)" stroke-opacity="1.0" stroke-linecap="round" stroke-linejoin="round"/>
    <path d="M 143.77154541015625 130.2535400390625 C 127.60641479492188 129.45736694335938 109.47679901123047 132.09228515625 106.49069213867188 125.43812561035156" stroke-width="2" fill="none" stroke="rgb(0, 0, 0)" stroke-opacity="1.0" stroke-linecap="round" stroke-linejoin="round"/>
    <path d="M 185.66285705566406 59.386173248291016 C 187.46556091308594 65.8541030883789 189.70408630371094 73.82344818115234 181.09478759765625 105.7908935546875" stroke-width="2" fill="none" stroke="rgb(0, 0, 0)" stroke-opacity="1.0" stroke-linecap="round" stroke-linejoin="round"/>
    <path d="M 181.60305786132812 129.17189025878906 C 186.5719757080078 160.7943878173828 177.7784881591797 150.61337280273438 119.75524139404297 152.96026611328125" stroke-width="2" fill="none" stroke="rgb(0, 0, 0)" stroke-opacity="1.0" stroke-linecap="round" stroke-linejoin="round"/>
    <path d="M 60.34624481201172 151.03988647460938 C 76.02747344970703 155.94615173339844 94.17832946777344 160.21998596191406 96.41498565673828 148.08343505859375" stroke-width="2" fill="none" stroke="rgb(0, 0, 0)" stroke-opacity="1.0" stroke-linecap="round" stroke-linejoin="round"/>
    <path d="M 123.89945220947266 100.26873779296875 C 109.34782409667969 69.64693450927734 101.78111267089844 76.60213470458984 115.992431640625 100.02119445800781" stroke-width="2" fill="none" stroke="rgb(0, 0, 0)" stroke-opacity="1.0" stroke-linecap="round" stroke-linejoin="round"/>
    <path d="M 156.35350036621094 87.8751449584961 C 158.2884063720703 101.98784637451172 154.1441192626953 81.8344955444336 183.65457153320312 57.33064651489258" stroke-width="2" fill="none" stroke="rgb(0, 0, 0)" stroke-opacity="1.0" stroke-linecap="round" stroke-linejoin="round"/>
    <path d="M 73.83818054199219 71.55767059326172 C 68.69110107421875 90.72777557373047 85.17984771728516 93.45088195800781 91.1576156616211 109.6409912109375" stroke-width="2" fill="none" stroke="rgb(0, 0, 0)" stroke-opacity="1.0" stroke-linecap="round" stroke-linejoin="round"/>
  </g>
</svg>
