<?xml version="1.0" ?>
<svg xmlns="http://www.w3.org/2000/svg" version="1.1" width="224" height="224">
  <defs/>
  <g>
    <path d="M 132.84988403320312 100.15684509277344 C 60.08131408691406 126.98857116699219 225.48757934570312 144.58087158203125 124.23474884033203 131.53839111328125" stroke-width="2" fill="none" stroke="rgb(0, 0, 0)" stroke-opacity="1.0" stroke-linecap="round" stroke-linejoin="round"/>
    <path d="M 130.6985626220703 118.8743896484375 C 86.81639099121094 132.26918029785156 126.73114776611328 122.41679382324219 112.50688934326172 97.84893035888672" stroke-width="2" fill="none" stroke="rgb(0, 0, 0)" stroke-opacity="1.0" stroke-linecap="round" stroke-linejoin="round"/>
    <path d="M 176.8668670654297 84.8068618774414 C 180.1576385498047 100.38043975830078 146.79576110839844 78.15222930908203 168.9357147216797 95.96855163574219" stroke-width="2" fill="none" stroke="rgb(0, 0, 0)" stroke-opacity="1.0" stroke-linecap="round" stroke-linejoin="round"/>
    <path d="M 137.84750366210938 136.51315307617188 C 152.39093017578125 130.78070068359375 177.2489013671875 143.60842895507812 153.56687927246094 110.82872009277344" stroke-width="2" fill="none" stroke="rgb(0, 0, 0)" stroke-opacity="1.0" stroke-linecap="round" stroke-linejoin="round"/>
    <path d="M 168.44090270996094 113.59857940673828 C 121.98877716064453 44.145816802978516 238.4566650390625 169.0032196044922 71.66719055175781 127.18419647216797" stroke-width="2" fill="none" stroke="rgb(0, 0, 0)" stroke-opacity="1.0" stroke-linecap="round" stroke-linejoin="round"/>
    <path d="M 158.20187377929688 122.76602172851562 C 110.29562377929688 117.08256530761719 178.7264404296875 114.84036254882812 145.29307556152344 120.78946685791016" stroke-width="2" fill="none" stroke="rgb(0, 0, 0)" stroke-opacity="1.0" stroke-linecap="round" stroke-linejoin="round"/>
    <path d="M 107.16889953613281 96.81055450439453 C 80.40754699707031 3.9257373809814453 145.40724182128906 142.32130432128906 179.52748107910156 95.10397338867188" stroke-width="2" fill="none" stroke="rgb(0, 0, 0)" stroke-opacity="1.0" stroke-linecap="round" stroke-linejoin="round"/>
    <path d="M 85.53591918945312 106.4533462524414 C 72.55372619628906 117.47369384765625 47.75434112548828 96.57958221435547 54.20331954956055 120.83627319335938" stroke-width="2" fill="none" stroke="rgb(0, 0, 0)" stroke-opacity="1.0" stroke-linecap="round" stroke-linejoin="round"/>
    <path d="M 109.90370178222656 144.06329345703125 C 241.7946014404297 167.8784942626953 91.14029693603516 126.71400451660156 122.92034149169922 143.5958251953125" stroke-width="2" fill="none" stroke="rgb(0, 0, 0)" stroke-opacity="1.0" stroke-linecap="round" stroke-linejoin="round"/>
    <path d="M 129.47633361816406 116.78746795654297 C 78.48152923583984 146.75343322753906 133.1150665283203 101.69327545166016 108.4833755493164 128.24232482910156" stroke-width="2" fill="none" stroke="rgb(0, 0, 0)" stroke-opacity="1.0" stroke-linecap="round" stroke-linejoin="round"/>
    <path d="M 170.5869903564453 84.7265853881836 C 208.30880737304688 13.342066764831543 157.52073669433594 111.60985565185547 131.9893341064453 89.94969940185547" stroke-width="2" fill="none" stroke="rgb(0, 0, 0)" stroke-opacity="1.0" stroke-linecap="round" stroke-linejoin="round"/>
    <path d="M 185.57020568847656 106.4403305053711 C 139.53683471679688 135.94566345214844 245.8118133544922 164.14967346191406 88.3270034790039 151.31642150878906" stroke-width="2" fill="none" stroke="rgb(0, 0, 0)" stroke-opacity="1.0" stroke-linecap="round" stroke-linejoin="round"/>
    <path d="M 95.00309753417969 98.6668472290039 C 45.034706115722656 83.26668548583984 9.04723072052002 158.73915100097656 89.1932601928711 157.2585906982422" stroke-width="2" fill="none" stroke="rgb(0, 0, 0)" stroke-opacity="1.0" stroke-linecap="round" stroke-linejoin="round"/>
    <path d="M 115.63094329833984 99.15308380126953 C 158.87232971191406 94.12345886230469 131.09886169433594 111.82251739501953 106.2689208984375 77.42996215820312" stroke-width="2" fill="none" stroke="rgb(0, 0, 0)" stroke-opacity="1.0" stroke-linecap="round" stroke-linejoin="round"/>
    <path d="M 183.8236083984375 103.1409912109375 C 184.6445770263672 117.79558563232422 203.89505004882812 8.103643417358398 175.99407958984375 109.12210083007812" stroke-width="2" fill="none" stroke="rgb(0, 0, 0)" stroke-opacity="1.0" stroke-linecap="round" stroke-linejoin="round"/>
    <path d="M 109.41401672363281 128.54150390625 C 93.06414794921875 101.46817779541016 165.56228637695312 161.2803955078125 108.79393768310547 109.9101791381836" stroke-width="2" fill="none" stroke="rgb(0, 0, 0)" stroke-opacity="1.0" stroke-linecap="round" stroke-linejoin="round"/>
  </g>
</svg>
