<?xml version="1.0" ?>
<svg xmlns="http://www.w3.org/2000/svg" version="1.1" width="224" height="224">
  <defs/>
  <g>
    <path d="M 144.05564880371094 124.00886535644531 C 94.96749877929688 121.6577377319336 173.79844665527344 122.7917251586914 131.66275024414062 115.7967758178711" stroke-width="2" fill="none" stroke="rgb(0, 0, 0)" stroke-opacity="1.0" stroke-linecap="round" stroke-linejoin="round"/>
    <path d="M 58.33903121948242 149.3048553466797 C 11.095968246459961 111.1110610961914 72.75700378417969 117.02244567871094 46.16707992553711 118.47682189941406" stroke-width="2" fill="none" stroke="rgb(0, 0, 0)" stroke-opacity="1.0" stroke-linecap="round" stroke-linejoin="round"/>
    <path d="M 157.99050903320312 153.02056884765625 C 84.47730255126953 161.7355499267578 113.52050018310547 55.35296630859375 150.16514587402344 99.7005386352539" stroke-width="2" fill="none" stroke="rgb(0, 0, 0)" stroke-opacity="1.0" stroke-linecap="round" stroke-linejoin="round"/>
    <path d="M 163.17649841308594 100.2701644897461 C 116.56375122070312 123.383544921875 189.44400024414062 117.26020812988281 122.60527801513672 118.00330352783203" stroke-width="2" fill="none" stroke="rgb(0, 0, 0)" stroke-opacity="1.0" stroke-linecap="round" stroke-linejoin="round"/>
    <path d="M 147.24777221679688 139.0370635986328 C 85.78538513183594 116.77678680419922 244.4424591064453 154.1227264404297 83.24254608154297 125.5872573852539" stroke-width="2" fill="none" stroke="rgb(0, 0, 0)" stroke-opacity="1.0" stroke-linecap="round" stroke-linejoin="round"/>
    <path d="M 98.13566589355469 96.02216339111328 C 66.8936767578125 97.74658966064453 76.0418930053711 92.67704010009766 88.93192291259766 103.99897003173828" stroke-width="2" fill="none" stroke="rgb(0, 0, 0)" stroke-opacity="1.0" stroke-linecap="round" stroke-linejoin="round"/>
    <path d="M 108.78860473632812 132.65911865234375 C 67.31242370605469 0.82447350025177 140.50502014160156 100.52558898925781 106.2313461303711 104.9615478515625" stroke-width="2" fill="none" stroke="rgb(0, 0, 0)" stroke-opacity="1.0" stroke-linecap="round" stroke-linejoin="round"/>
    <path d="M 94.38326263427734 157.5892333984375 C 42.425533294677734 140.04876708984375 24.80048179626465 137.2063446044922 114.98060607910156 150.57151794433594" stroke-width="2" fill="none" stroke="rgb(0, 0, 0)" stroke-opacity="1.0" stroke-linecap="round" stroke-linejoin="round"/>
    <path d="M 126.5938720703125 117.9565658569336 C 182.58673095703125 126.80048370361328 91.7169418334961 138.24560546875 125.62909698486328 138.0694122314453" stroke-width="2" fill="none" stroke="rgb(0, 0, 0)" stroke-opacity="1.0" stroke-linecap="round" stroke-linejoin="round"/>
    <path d="M 145.29275512695312 101.01789855957031 C 178.944580078125 135.71302795410156 122.46135711669922 112.09290313720703 161.28648376464844 114.52725219726562" stroke-width="2" fill="none" stroke="rgb(0, 0, 0)" stroke-opacity="1.0" stroke-linecap="round" stroke-linejoin="round"/>
    <path d="M 153.7830047607422 86.42835998535156 C 202.0065460205078 34.95533752441406 157.4064178466797 135.7452850341797 113.12910461425781 78.32609558105469" stroke-width="2" fill="none" stroke="rgb(0, 0, 0)" stroke-opacity="1.0" stroke-linecap="round" stroke-linejoin="round"/>
    <path d="M 172.8266143798828 106.09537506103516 C 132.4337921142578 136.81724548339844 240.15817260742188 188.9969940185547 44.22380828857422 146.89793395996094" stroke-width="2" fill="none" stroke="rgb(0, 0, 0)" stroke-opacity="1.0" stroke-linecap="round" stroke-linejoin="round"/>
    <path d="M 66.61408996582031 108.38785552978516 C 35.52781677246094 116.96733856201172 14.866632461547852 161.38841247558594 84.45704650878906 161.36737060546875" stroke-width="2" fill="none" stroke="rgb(0, 0, 0)" stroke-opacity="1.0" stroke-linecap="round" stroke-linejoin="round"/>
    <path d="M 161.87767028808594 158.83998107910156 C 169.71080017089844 144.85238647460938 107.14655303955078 152.54119873046875 94.30227661132812 131.54872131347656" stroke-width="2" fill="none" stroke="rgb(0, 0, 0)" stroke-opacity="1.0" stroke-linecap="round" stroke-linejoin="round"/>
    <path d="M 161.82716369628906 100.25179290771484 C 174.11007690429688 132.7720947265625 195.53494262695312 4.7297587394714355 164.1011962890625 99.13285827636719" stroke-width="2" fill="none" stroke="rgb(0, 0, 0)" stroke-opacity="1.0" stroke-linecap="round" stroke-linejoin="round"/>
    <path d="M 156.2751922607422 135.38629150390625 C 46.046993255615234 120.15296173095703 140.44024658203125 118.03849029541016 82.75953674316406 132.89523315429688" stroke-width="2" fill="none" stroke="rgb(0, 0, 0)" stroke-opacity="1.0" stroke-linecap="round" stroke-linejoin="round"/>
  </g>
</svg>
