<?xml version="1.0" ?>
<svg xmlns="http://www.w3.org/2000/svg" version="1.1" width="224" height="224">
  <defs/>
  <g>
    <path d="M 137.93206787109375 117.42765808105469 C 79.80147552490234 148.7915802001953 209.47378540039062 138.15049743652344 136.3468780517578 135.9318389892578" stroke-width="2" fill="none" stroke="rgb(0, 0, 0)" stroke-opacity="1.0" stroke-linecap="round" stroke-linejoin="round"/>
    <path d="M 129.30616760253906 129.9217987060547 C 83.22989654541016 99.18999481201172 160.55857849121094 161.47193908691406 172.47071838378906 142.6210479736328" stroke-width="2" fill="none" stroke="rgb(0, 0, 0)" stroke-opacity="1.0" stroke-linecap="round" stroke-linejoin="round"/>
    <path d="M 178.58815002441406 79.44879913330078 C 161.56488037109375 116.89451599121094 152.15325927734375 82.07449340820312 166.5439453125 101.86642456054688" stroke-width="2" fill="none" stroke="rgb(0, 0, 0)" stroke-opacity="1.0" stroke-linecap="round" stroke-linejoin="round"/>
    <path d="M 163.06149291992188 121.33484649658203 C 133.23214721679688 102.678466796875 216.32997131347656 129.6240997314453 133.639404296875 136.95712280273438" stroke-width="2" fill="none" stroke="rgb(0, 0, 0)" stroke-opacity="1.0" stroke-linecap="round" stroke-linejoin="round"/>
    <path d="M 163.34092712402344 123.23564910888672 C 115.34278106689453 103.7974853515625 255.887451171875 175.12229919433594 81.37739562988281 141.69949340820312" stroke-width="2" fill="none" stroke="rgb(0, 0, 0)" stroke-opacity="1.0" stroke-linecap="round" stroke-linejoin="round"/>
    <path d="M 159.10873413085938 135.16212463378906 C 117.07955169677734 127.9581298828125 127.376953125 151.21217346191406 148.712158203125 129.98680114746094" stroke-width="2" fill="none" stroke="rgb(0, 0, 0)" stroke-opacity="1.0" stroke-linecap="round" stroke-linejoin="round"/>
    <path d="M 100.96113586425781 70.48607635498047 C 158.6387176513672 59.18156051635742 136.1746826171875 128.13803100585938 175.3321990966797 60.39507293701172" stroke-width="2" fill="none" stroke="rgb(0, 0, 0)" stroke-opacity="1.0" stroke-linecap="round" stroke-linejoin="round"/>
    <path d="M 51.24687576293945 137.76983642578125 C 120.41152954101562 157.3920440673828 -7.325902938842773 138.2316436767578 69.90181732177734 98.7449951171875" stroke-width="2" fill="none" stroke="rgb(0, 0, 0)" stroke-opacity="1.0" stroke-linecap="round" stroke-linejoin="round"/>
    <path d="M 152.02264404296875 115.26133728027344 C 192.12997436523438 122.43059539794922 130.00477600097656 116.02766418457031 162.09530639648438 124.6938705444336" stroke-width="2" fill="none" stroke="rgb(0, 0, 0)" stroke-opacity="1.0" stroke-linecap="round" stroke-linejoin="round"/>
    <path d="M 132.01217651367188 123.5322494506836 C 113.93209838867188 144.39932250976562 134.54905700683594 134.08499145507812 131.4760284423828 115.2717056274414" stroke-width="2" fill="none" stroke="rgb(0, 0, 0)" stroke-opacity="1.0" stroke-linecap="round" stroke-linejoin="round"/>
    <path d="M 142.17959594726562 77.33928680419922 C 226.96356201171875 -2.7834508419036865 169.37245178222656 110.4017333984375 130.4084014892578 90.30293273925781" stroke-width="2" fill="none" stroke="rgb(0, 0, 0)" stroke-opacity="1.0" stroke-linecap="round" stroke-linejoin="round"/>
    <path d="M 168.54150390625 113.58515930175781 C 169.48538208007812 178.58116149902344 177.86216735839844 173.5823974609375 43.467350006103516 139.444091796875" stroke-width="2" fill="none" stroke="rgb(0, 0, 0)" stroke-opacity="1.0" stroke-linecap="round" stroke-linejoin="round"/>
    <path d="M 65.40190887451172 110.64380645751953 C 39.351226806640625 108.55204010009766 10.022561073303223 162.37857055664062 112.00802612304688 156.30799865722656" stroke-width="2" fill="none" stroke="rgb(0, 0, 0)" stroke-opacity="1.0" stroke-linecap="round" stroke-linejoin="round"/>
    <path d="M 109.3331298828125 139.4221954345703 C 125.60154724121094 138.05441284179688 155.213134765625 184.2819061279297 114.66021728515625 96.96320343017578" stroke-width="2" fill="none" stroke="rgb(0, 0, 0)" stroke-opacity="1.0" stroke-linecap="round" stroke-linejoin="round"/>
    <path d="M 171.32984924316406 106.96217346191406 C 175.40939331054688 133.4416046142578 206.8968963623047 -6.6212053298950195 165.79525756835938 81.4498519897461" stroke-width="2" fill="none" stroke="rgb(0, 0, 0)" stroke-opacity="1.0" stroke-linecap="round" stroke-linejoin="round"/>
    <path d="M 103.99275970458984 128.5421905517578 C 88.1708984375 113.98128509521484 122.34125518798828 123.34053802490234 52.915523529052734 116.630859375" stroke-width="2" fill="none" stroke="rgb(0, 0, 0)" stroke-opacity="1.0" stroke-linecap="round" stroke-linejoin="round"/>
  </g>
</svg>
