<?xml version="1.0" ?>
<svg xmlns="http://www.w3.org/2000/svg" version="1.1" width="224" height="224">
  <defs/>
  <g>
    <path d="M 147.6915740966797 119.87374877929688 C 113.33971405029297 119.84568786621094 209.6128387451172 130.70541381835938 125.84396362304688 124.99517059326172" stroke-width="2" fill="none" stroke="rgb(0, 0, 0)" stroke-opacity="1.0" stroke-linecap="round" stroke-linejoin="round"/>
    <path d="M 150.81723022460938 160.6375274658203 C 41.34748077392578 146.88308715820312 87.10589599609375 142.64303588867188 74.77694702148438 132.48326110839844" stroke-width="2" fill="none" stroke="rgb(0, 0, 0)" stroke-opacity="1.0" stroke-linecap="round" stroke-linejoin="round"/>
    <path d="M 125.20407104492188 104.82765197753906 C 115.24091339111328 133.0056610107422 127.63834381103516 79.31595611572266 158.25076293945312 103.64137268066406" stroke-width="2" fill="none" stroke="rgb(0, 0, 0)" stroke-opacity="1.0" stroke-linecap="round" stroke-linejoin="round"/>
    <path d="M 162.74310302734375 138.29225158691406 C 117.45132446289062 142.27224731445312 161.21986389160156 137.39964294433594 127.74832916259766 123.23246002197266" stroke-width="2" fill="none" stroke="rgb(0, 0, 0)" stroke-opacity="1.0" stroke-linecap="round" stroke-linejoin="round"/>
    <path d="M 154.4163360595703 137.48243713378906 C 112.11747741699219 124.7200698852539 232.1824951171875 177.6436767578125 104.46571350097656 143.25088500976562" stroke-width="2" fill="none" stroke="rgb(0, 0, 0)" stroke-opacity="1.0" stroke-linecap="round" stroke-linejoin="round"/>
    <path d="M 108.9144058227539 99.56727600097656 C 96.19775390625 125.49415588378906 113.96939086914062 83.65169525146484 107.74740600585938 110.63282775878906" stroke-width="2" fill="none" stroke="rgb(0, 0, 0)" stroke-opacity="1.0" stroke-linecap="round" stroke-linejoin="round"/>
    <path d="M 104.10401153564453 104.29241943359375 C 78.11320495605469 -3.4019525051116943 151.4326171875 150.04244995117188 172.17881774902344 86.64390563964844" stroke-width="2" fill="none" stroke="rgb(0, 0, 0)" stroke-opacity="1.0" stroke-linecap="round" stroke-linejoin="round"/>
    <path d="M 52.84079360961914 116.17173767089844 C 30.678089141845703 143.85977172851562 42.73695755004883 158.9979248046875 79.03450775146484 166.97335815429688" stroke-width="2" fill="none" stroke="rgb(0, 0, 0)" stroke-opacity="1.0" stroke-linecap="round" stroke-linejoin="round"/>
    <path d="M 126.95918273925781 121.11824798583984 C 240.0552215576172 179.98663330078125 83.47393798828125 107.65377044677734 131.02810668945312 136.02618408203125" stroke-width="2" fill="none" stroke="rgb(0, 0, 0)" stroke-opacity="1.0" stroke-linecap="round" stroke-linejoin="round"/>
    <path d="M 100.66122436523438 135.13987731933594 C 108.80116271972656 124.26388549804688 114.92581939697266 138.29393005371094 114.53225708007812 121.02313232421875" stroke-width="2" fill="none" stroke="rgb(0, 0, 0)" stroke-opacity="1.0" stroke-linecap="round" stroke-linejoin="round"/>
    <path d="M 171.02793884277344 104.78016662597656 C 213.69276428222656 -4.254003047943115 164.71383666992188 97.22434997558594 132.75894165039062 89.69277954101562" stroke-width="2" fill="none" stroke="rgb(0, 0, 0)" stroke-opacity="1.0" stroke-linecap="round" stroke-linejoin="round"/>
    <path d="M 174.9157257080078 109.25226593017578 C 142.42808532714844 128.73031616210938 231.1931915283203 201.2628631591797 49.76525115966797 143.9122314453125" stroke-width="2" fill="none" stroke="rgb(0, 0, 0)" stroke-opacity="1.0" stroke-linecap="round" stroke-linejoin="round"/>
    <path d="M 103.19371032714844 97.70753479003906 C 27.306865692138672 82.70641326904297 40.02228546142578 158.54055786132812 125.95722961425781 151.2198028564453" stroke-width="2" fill="none" stroke="rgb(0, 0, 0)" stroke-opacity="1.0" stroke-linecap="round" stroke-linejoin="round"/>
    <path d="M 130.46240234375 133.45668029785156 C 111.70963287353516 74.6500015258789 124.81138610839844 131.56353759765625 103.12847137451172 72.82201385498047" stroke-width="2" fill="none" stroke="rgb(0, 0, 0)" stroke-opacity="1.0" stroke-linecap="round" stroke-linejoin="round"/>
    <path d="M 155.89161682128906 106.61137390136719 C 176.8759765625 162.18386840820312 202.6196746826172 -10.919198989868164 163.13717651367188 85.90159606933594" stroke-width="2" fill="none" stroke="rgb(0, 0, 0)" stroke-opacity="1.0" stroke-linecap="round" stroke-linejoin="round"/>
    <path d="M 170.28236389160156 149.93821716308594 C 102.56047058105469 159.88296508789062 188.33074951171875 106.70417785644531 151.39527893066406 136.31182861328125" stroke-width="2" fill="none" stroke="rgb(0, 0, 0)" stroke-opacity="1.0" stroke-linecap="round" stroke-linejoin="round"/>
  </g>
</svg>
