<?xml version="1.0" ?>
<svg xmlns="http://www.w3.org/2000/svg" version="1.1" width="224" height="224">
  <defs/>
  <g>
    <path d="M 135.62643432617188 125.96558380126953 C 95.5466079711914 124.710205078125 172.27088928222656 113.74993133544922 116.8329086303711 118.05625915527344" stroke-width="2" fill="none" stroke="rgb(0, 0, 0)" stroke-opacity="1.0" stroke-linecap="round" stroke-linejoin="round"/>
    <path d="M 46.72645950317383 136.7970733642578 C 28.428173065185547 106.20519256591797 82.12049102783203 95.21109008789062 53.604156494140625 108.35865020751953" stroke-width="2" fill="none" stroke="rgb(0, 0, 0)" stroke-opacity="1.0" stroke-linecap="round" stroke-linejoin="round"/>
    <path d="M 155.78871154785156 133.1772918701172 C 65.00450897216797 140.64796447753906 123.9603271484375 53.91047668457031 156.0052032470703 93.8176040649414" stroke-width="2" fill="none" stroke="rgb(0, 0, 0)" stroke-opacity="1.0" stroke-linecap="round" stroke-linejoin="round"/>
    <path d="M 177.06336975097656 104.75531768798828 C 144.7384033203125 140.5379180908203 191.50860595703125 146.51019287109375 120.99343872070312 114.1653823852539" stroke-width="2" fill="none" stroke="rgb(0, 0, 0)" stroke-opacity="1.0" stroke-linecap="round" stroke-linejoin="round"/>
    <path d="M 154.548828125 118.5656967163086 C 62.943260192871094 123.42424011230469 262.4404296875 136.73719787597656 76.80036163330078 111.27091979980469" stroke-width="2" fill="none" stroke="rgb(0, 0, 0)" stroke-opacity="1.0" stroke-linecap="round" stroke-linejoin="round"/>
    <path d="M 51.35991668701172 119.43128204345703 C 43.33309555053711 123.09566497802734 51.455326080322266 87.80316162109375 79.72985076904297 113.56000518798828" stroke-width="2" fill="none" stroke="rgb(0, 0, 0)" stroke-opacity="1.0" stroke-linecap="round" stroke-linejoin="round"/>
    <path d="M 110.08523559570312 126.2093505859375 C 69.4149398803711 10.442962646484375 132.39942932128906 101.6680908203125 98.3865737915039 90.17623138427734" stroke-width="2" fill="none" stroke="rgb(0, 0, 0)" stroke-opacity="1.0" stroke-linecap="round" stroke-linejoin="round"/>
    <path d="M 60.70314407348633 148.22203063964844 C 39.58904266357422 125.09974670410156 35.049957275390625 131.76268005371094 103.70671081542969 149.01177978515625" stroke-width="2" fill="none" stroke="rgb(0, 0, 0)" stroke-opacity="1.0" stroke-linecap="round" stroke-linejoin="round"/>
    <path d="M 126.06510925292969 110.76488494873047 C 158.7939453125 103.76164245605469 81.1819076538086 128.1664581298828 142.68922424316406 121.41678619384766" stroke-width="2" fill="none" stroke="rgb(0, 0, 0)" stroke-opacity="1.0" stroke-linecap="round" stroke-linejoin="round"/>
    <path d="M 152.40753173828125 97.40555572509766 C 186.000244140625 137.1314697265625 111.0372085571289 115.55473327636719 164.99514770507812 118.44412231445312" stroke-width="2" fill="none" stroke="rgb(0, 0, 0)" stroke-opacity="1.0" stroke-linecap="round" stroke-linejoin="round"/>
    <path d="M 156.42185974121094 96.79322814941406 C 195.45346069335938 23.617677688598633 153.88136291503906 120.64755249023438 107.35717010498047 66.77560424804688" stroke-width="2" fill="none" stroke="rgb(0, 0, 0)" stroke-opacity="1.0" stroke-linecap="round" stroke-linejoin="round"/>
    <path d="M 164.640380859375 107.80301666259766 C 130.2990264892578 109.18637084960938 256.0365295410156 180.85862731933594 48.97004318237305 148.97042846679688" stroke-width="2" fill="none" stroke="rgb(0, 0, 0)" stroke-opacity="1.0" stroke-linecap="round" stroke-linejoin="round"/>
    <path d="M 39.26285171508789 120.92240142822266 C 32.55434799194336 129.7247772216797 30.37021255493164 149.28396606445312 74.99602508544922 152.64492797851562" stroke-width="2" fill="none" stroke="rgb(0, 0, 0)" stroke-opacity="1.0" stroke-linecap="round" stroke-linejoin="round"/>
    <path d="M 170.19488525390625 146.7373809814453 C 192.11871337890625 149.23828125 145.084716796875 159.3767852783203 137.82705688476562 139.48016357421875" stroke-width="2" fill="none" stroke="rgb(0, 0, 0)" stroke-opacity="1.0" stroke-linecap="round" stroke-linejoin="round"/>
    <path d="M 169.37611389160156 95.72904968261719 C 174.54574584960938 143.50718688964844 200.09532165527344 4.014247417449951 168.33148193359375 91.2816390991211" stroke-width="2" fill="none" stroke="rgb(0, 0, 0)" stroke-opacity="1.0" stroke-linecap="round" stroke-linejoin="round"/>
    <path d="M 154.31072998046875 148.73666381835938 C 36.84540939331055 118.58396911621094 128.1925048828125 133.39273071289062 93.86858367919922 131.47418212890625" stroke-width="2" fill="none" stroke="rgb(0, 0, 0)" stroke-opacity="1.0" stroke-linecap="round" stroke-linejoin="round"/>
  </g>
</svg>
