<?xml version="1.0" ?>
<svg xmlns="http://www.w3.org/2000/svg" version="1.1" width="224" height="224">
  <defs/>
  <g>
    <path d="M 102.88680267333984 124.74853515625 C 96.36803436279297 104.11910247802734 80.37686157226562 123.01123809814453 82.59455871582031 115.36979675292969" stroke-width="2" fill="none" stroke="rgb(0, 0, 0)" stroke-opacity="1.0" stroke-linecap="round" stroke-linejoin="round"/>
    <path d="M 117.20997619628906 137.0243682861328 C 128.1901092529297 140.30621337890625 157.5996856689453 140.1616973876953 123.44522094726562 137.51681518554688" stroke-width="2" fill="none" stroke="rgb(0, 0, 0)" stroke-opacity="1.0" stroke-linecap="round" stroke-linejoin="round"/>
    <path d="M 153.71888732910156 141.27542114257812 C 114.17949676513672 154.93666076660156 122.24562072753906 130.2926788330078 107.4884033203125 126.78743743896484" stroke-width="2" fill="none" stroke="rgb(0, 0, 0)" stroke-opacity="1.0" stroke-linecap="round" stroke-linejoin="round"/>
    <path d="M 151.48626708984375 126.93046569824219 C 99.37191009521484 125.3851318359375 166.91322326660156 140.19662475585938 142.5738067626953 133.5118865966797" stroke-width="2" fill="none" stroke="rgb(0, 0, 0)" stroke-opacity="1.0" stroke-linecap="round" stroke-linejoin="round"/>
    <path d="M 124.03426361083984 100.89163970947266 C 124.3140640258789 97.07405853271484 132.3448486328125 97.73661041259766 125.3825454711914 95.03153228759766" stroke-width="2" fill="none" stroke="rgb(0, 0, 0)" stroke-opacity="1.0" stroke-linecap="round" stroke-linejoin="round"/>
    <path d="M 125.11568450927734 99.75517272949219 C 120.91675567626953 101.68112182617188 107.30402374267578 98.2116470336914 110.02250671386719 113.05523681640625" stroke-width="2" fill="none" stroke="rgb(0, 0, 0)" stroke-opacity="1.0" stroke-linecap="round" stroke-linejoin="round"/>
    <path d="M 97.75148010253906 64.88748931884766 C 126.32042694091797 84.26248931884766 118.20451354980469 100.053466796875 148.400390625 97.00616455078125" stroke-width="2" fill="none" stroke="rgb(0, 0, 0)" stroke-opacity="1.0" stroke-linecap="round" stroke-linejoin="round"/>
    <path d="M 109.17139434814453 153.1484832763672 C 97.45063018798828 153.52542114257812 13.852495193481445 156.40066528320312 47.861236572265625 108.82564544677734" stroke-width="2" fill="none" stroke="rgb(0, 0, 0)" stroke-opacity="1.0" stroke-linecap="round" stroke-linejoin="round"/>
    <path d="M 131.42507934570312 125.64865112304688 C 150.5496368408203 137.6914825439453 127.28340911865234 115.21382904052734 136.21536254882812 130.67054748535156" stroke-width="2" fill="none" stroke="rgb(0, 0, 0)" stroke-opacity="1.0" stroke-linecap="round" stroke-linejoin="round"/>
    <path d="M 91.33097839355469 130.75753784179688 C 125.87139892578125 135.7555389404297 109.29329681396484 115.03620147705078 114.16009521484375 124.86162567138672" stroke-width="2" fill="none" stroke="rgb(0, 0, 0)" stroke-opacity="1.0" stroke-linecap="round" stroke-linejoin="round"/>
    <path d="M 155.94981384277344 82.03804779052734 C 203.43870544433594 41.88993453979492 197.24984741210938 68.3270034790039 163.87539672851562 130.42123413085938" stroke-width="2" fill="none" stroke="rgb(0, 0, 0)" stroke-opacity="1.0" stroke-linecap="round" stroke-linejoin="round"/>
    <path d="M 174.67250061035156 123.2476577758789 C 178.42169189453125 163.23599243164062 165.11659240722656 147.47328186035156 120.98358154296875 151.76332092285156" stroke-width="2" fill="none" stroke="rgb(0, 0, 0)" stroke-opacity="1.0" stroke-linecap="round" stroke-linejoin="round"/>
    <path d="M 48.428199768066406 143.64247131347656 C 85.03032684326172 139.60289001464844 92.33618927001953 148.97035217285156 96.01216888427734 153.6027374267578" stroke-width="2" fill="none" stroke="rgb(0, 0, 0)" stroke-opacity="1.0" stroke-linecap="round" stroke-linejoin="round"/>
    <path d="M 93.37720489501953 103.07982635498047 C 94.63282775878906 53.47694396972656 100.46366882324219 53.12799072265625 111.76127624511719 99.22415161132812" stroke-width="2" fill="none" stroke="rgb(0, 0, 0)" stroke-opacity="1.0" stroke-linecap="round" stroke-linejoin="round"/>
    <path d="M 175.4494171142578 126.99613189697266 C 166.0641632080078 120.27088165283203 178.0421600341797 112.38528442382812 166.9490203857422 103.01717376708984" stroke-width="2" fill="none" stroke="rgb(0, 0, 0)" stroke-opacity="1.0" stroke-linecap="round" stroke-linejoin="round"/>
    <path d="M 48.87184524536133 106.46431732177734 C 75.77416229248047 103.1788330078125 96.53868865966797 99.5418701171875 89.43794250488281 108.27644348144531" stroke-width="2" fill="none" stroke="rgb(0, 0, 0)" stroke-opacity="1.0" stroke-linecap="round" stroke-linejoin="round"/>
  </g>
</svg>
