<?xml version="1.0" ?>
<svg xmlns="http://www.w3.org/2000/svg" version="1.1" width="224" height="224">
  <defs/>
  <g>
    <path d="M 105.9931640625 105.28485107421875 C 64.81493377685547 98.90286254882812 135.04815673828125 132.44676208496094 116.71002197265625 110.66987609863281" stroke-width="2" fill="none" stroke="rgb(0, 0, 0)" stroke-opacity="1.0" stroke-linecap="round" stroke-linejoin="round"/>
    <path d="M 126.40514373779297 156.0196990966797 C 30.823328018188477 136.5308380126953 188.78726196289062 170.7082977294922 149.8877410888672 148.15280151367188" stroke-width="2" fill="none" stroke="rgb(0, 0, 0)" stroke-opacity="1.0" stroke-linecap="round" stroke-linejoin="round"/>
    <path d="M 146.68711853027344 143.52786254882812 C 134.09097290039062 137.55091857910156 86.5405044555664 131.66903686523438 136.4872283935547 141.30516052246094" stroke-width="2" fill="none" stroke="rgb(0, 0, 0)" stroke-opacity="1.0" stroke-linecap="round" stroke-linejoin="round"/>
    <path d="M 164.52334594726562 115.6056900024414 C 133.4227752685547 157.64974975585938 210.5028839111328 164.337646484375 112.4592056274414 153.66542053222656" stroke-width="2" fill="none" stroke="rgb(0, 0, 0)" stroke-opacity="1.0" stroke-linecap="round" stroke-linejoin="round"/>
    <path d="M 122.58168029785156 109.36158752441406 C 54.20964813232422 148.7257080078125 192.8171844482422 124.74159240722656 133.79833984375 128.40650939941406" stroke-width="2" fill="none" stroke="rgb(0, 0, 0)" stroke-opacity="1.0" stroke-linecap="round" stroke-linejoin="round"/>
    <path d="M 125.60108947753906 112.15995025634766 C 109.69412994384766 105.95524597167969 114.24642944335938 124.27493286132812 125.55416107177734 115.03056335449219" stroke-width="2" fill="none" stroke="rgb(0, 0, 0)" stroke-opacity="1.0" stroke-linecap="round" stroke-linejoin="round"/>
    <path d="M 98.04027557373047 78.26713562011719 C 123.5677719116211 54.53072738647461 113.077880859375 121.32987213134766 171.8606719970703 68.64390563964844" stroke-width="2" fill="none" stroke="rgb(0, 0, 0)" stroke-opacity="1.0" stroke-linecap="round" stroke-linejoin="round"/>
    <path d="M 87.27788543701172 158.3955841064453 C 83.03877258300781 156.33282470703125 12.326523780822754 155.95025634765625 58.160377502441406 103.83952331542969" stroke-width="2" fill="none" stroke="rgb(0, 0, 0)" stroke-opacity="1.0" stroke-linecap="round" stroke-linejoin="round"/>
    <path d="M 139.8064422607422 106.72048950195312 C 196.65235900878906 124.66806030273438 114.0519027709961 106.3537826538086 144.0355987548828 119.73019409179688" stroke-width="2" fill="none" stroke="rgb(0, 0, 0)" stroke-opacity="1.0" stroke-linecap="round" stroke-linejoin="round"/>
    <path d="M 58.99356460571289 135.26583862304688 C 84.5938491821289 150.8475799560547 56.234352111816406 143.7247314453125 96.41492462158203 157.09588623046875" stroke-width="2" fill="none" stroke="rgb(0, 0, 0)" stroke-opacity="1.0" stroke-linecap="round" stroke-linejoin="round"/>
    <path d="M 151.03543090820312 90.46714782714844 C 204.10296630859375 17.785785675048828 181.6620330810547 112.92578125 146.53955078125 112.4292221069336" stroke-width="2" fill="none" stroke="rgb(0, 0, 0)" stroke-opacity="1.0" stroke-linecap="round" stroke-linejoin="round"/>
    <path d="M 157.32925415039062 109.34059143066406 C 193.2275848388672 176.92922973632812 176.4003143310547 165.9586944580078 79.31285858154297 158.0989227294922" stroke-width="2" fill="none" stroke="rgb(0, 0, 0)" stroke-opacity="1.0" stroke-linecap="round" stroke-linejoin="round"/>
    <path d="M 46.276283264160156 140.56495666503906 C 78.71489715576172 153.41294860839844 5.947059154510498 138.23114013671875 104.22711944580078 162.63473510742188" stroke-width="2" fill="none" stroke="rgb(0, 0, 0)" stroke-opacity="1.0" stroke-linecap="round" stroke-linejoin="round"/>
    <path d="M 92.26213836669922 132.94285583496094 C 68.27507781982422 88.28326416015625 85.1846694946289 88.48795318603516 85.8084945678711 118.40128326416016" stroke-width="2" fill="none" stroke="rgb(0, 0, 0)" stroke-opacity="1.0" stroke-linecap="round" stroke-linejoin="round"/>
    <path d="M 150.44973754882812 139.8038330078125 C 175.43338012695312 130.57977294921875 195.0082550048828 2.6348705291748047 162.6462860107422 99.04649353027344" stroke-width="2" fill="none" stroke="rgb(0, 0, 0)" stroke-opacity="1.0" stroke-linecap="round" stroke-linejoin="round"/>
    <path d="M 51.60749053955078 124.83329772949219 C 27.78847312927246 88.05294036865234 110.96099853515625 90.8348388671875 105.25416564941406 132.62098693847656" stroke-width="2" fill="none" stroke="rgb(0, 0, 0)" stroke-opacity="1.0" stroke-linecap="round" stroke-linejoin="round"/>
  </g>
</svg>
