<?xml version="1.0" ?>
<svg xmlns="http://www.w3.org/2000/svg" version="1.1" width="224" height="224">
  <defs/>
  <g>
    <path d="M 134.3120880126953 131.88894653320312 C 64.88561248779297 121.58138275146484 185.46258544921875 135.35133361816406 112.51338958740234 121.27204132080078" stroke-width="2" fill="none" stroke="rgb(0, 0, 0)" stroke-opacity="1.0" stroke-linecap="round" stroke-linejoin="round"/>
    <path d="M 61.907291412353516 114.1681137084961 C 20.565410614013672 117.82340240478516 74.45706176757812 114.63160705566406 72.32279968261719 124.87857818603516" stroke-width="2" fill="none" stroke="rgb(0, 0, 0)" stroke-opacity="1.0" stroke-linecap="round" stroke-linejoin="round"/>
    <path d="M 141.1854248046875 136.95889282226562 C 72.97014617919922 153.10362243652344 117.97449493408203 51.99787902832031 153.0646514892578 97.75247955322266" stroke-width="2" fill="none" stroke="rgb(0, 0, 0)" stroke-opacity="1.0" stroke-linecap="round" stroke-linejoin="round"/>
    <path d="M 121.00889587402344 97.86729431152344 C 75.50748443603516 126.44266510009766 196.26504516601562 103.07215881347656 138.891845703125 119.62262725830078" stroke-width="2" fill="none" stroke="rgb(0, 0, 0)" stroke-opacity="1.0" stroke-linecap="round" stroke-linejoin="round"/>
    <path d="M 107.01374816894531 127.14775848388672 C 78.72388458251953 119.82011413574219 268.268310546875 173.546142578125 78.11360931396484 143.7238006591797" stroke-width="2" fill="none" stroke="rgb(0, 0, 0)" stroke-opacity="1.0" stroke-linecap="round" stroke-linejoin="round"/>
    <path d="M 110.16416931152344 99.80772399902344 C 87.90410614013672 98.7810287475586 115.90875244140625 98.311279296875 88.89669799804688 111.6372299194336" stroke-width="2" fill="none" stroke="rgb(0, 0, 0)" stroke-opacity="1.0" stroke-linecap="round" stroke-linejoin="round"/>
    <path d="M 106.79927062988281 114.4332504272461 C 66.56678009033203 5.6064372062683105 134.58596801757812 120.18721008300781 108.36841583251953 91.61016082763672" stroke-width="2" fill="none" stroke="rgb(0, 0, 0)" stroke-opacity="1.0" stroke-linecap="round" stroke-linejoin="round"/>
    <path d="M 63.55564880371094 139.68438720703125 C 37.3423957824707 115.53547668457031 11.25885009765625 152.681640625 106.09992980957031 143.1981201171875" stroke-width="2" fill="none" stroke="rgb(0, 0, 0)" stroke-opacity="1.0" stroke-linecap="round" stroke-linejoin="round"/>
    <path d="M 114.79352569580078 115.49639129638672 C 144.9558868408203 100.04068756103516 66.63751983642578 118.50940704345703 126.78367614746094 136.5391845703125" stroke-width="2" fill="none" stroke="rgb(0, 0, 0)" stroke-opacity="1.0" stroke-linecap="round" stroke-linejoin="round"/>
    <path d="M 133.86810302734375 111.90737915039062 C 175.9357147216797 135.95729064941406 121.49264526367188 130.69383239746094 152.68484497070312 121.46112060546875" stroke-width="2" fill="none" stroke="rgb(0, 0, 0)" stroke-opacity="1.0" stroke-linecap="round" stroke-linejoin="round"/>
    <path d="M 166.86099243164062 89.3644027709961 C 205.347900390625 7.244853496551514 158.30531311035156 127.20726776123047 105.41338348388672 74.07630157470703" stroke-width="2" fill="none" stroke="rgb(0, 0, 0)" stroke-opacity="1.0" stroke-linecap="round" stroke-linejoin="round"/>
    <path d="M 172.6753387451172 108.95512390136719 C 144.7425079345703 134.0535888671875 251.78817749023438 178.2443084716797 43.62692642211914 147.04632568359375" stroke-width="2" fill="none" stroke="rgb(0, 0, 0)" stroke-opacity="1.0" stroke-linecap="round" stroke-linejoin="round"/>
    <path d="M 91.9674301147461 104.6523666381836 C 38.62578582763672 85.15440368652344 12.50065803527832 154.36517333984375 78.10435485839844 156.71669006347656" stroke-width="2" fill="none" stroke="rgb(0, 0, 0)" stroke-opacity="1.0" stroke-linecap="round" stroke-linejoin="round"/>
    <path d="M 163.3919219970703 151.02102661132812 C 159.03164672851562 133.21116638183594 137.58297729492188 159.10679626464844 104.46129608154297 131.43431091308594" stroke-width="2" fill="none" stroke="rgb(0, 0, 0)" stroke-opacity="1.0" stroke-linecap="round" stroke-linejoin="round"/>
    <path d="M 157.40150451660156 107.31420135498047 C 172.11062622070312 141.8406982421875 211.1448516845703 11.3451566696167 157.1162567138672 83.89838409423828" stroke-width="2" fill="none" stroke="rgb(0, 0, 0)" stroke-opacity="1.0" stroke-linecap="round" stroke-linejoin="round"/>
    <path d="M 133.07958984375 124.70063781738281 C 35.7243537902832 130.04440307617188 107.55937194824219 117.43408966064453 76.6995620727539 128.78369140625" stroke-width="2" fill="none" stroke="rgb(0, 0, 0)" stroke-opacity="1.0" stroke-linecap="round" stroke-linejoin="round"/>
  </g>
</svg>
