<?xml version="1.0" ?>
<svg xmlns="http://www.w3.org/2000/svg" version="1.1" width="224" height="224">
  <defs/>
  <g>
    <path d="M 149.8605194091797 122.8484878540039 C 54.300838470458984 100.92900848388672 182.17210388183594 141.29568481445312 126.51057434082031 119.81318664550781" stroke-width="2" fill="none" stroke="rgb(0, 0, 0)" stroke-opacity="1.0" stroke-linecap="round" stroke-linejoin="round"/>
    <path d="M 66.18035125732422 152.63633728027344 C 2.109872579574585 137.44662475585938 66.09303283691406 109.0255126953125 52.4118537902832 119.82584381103516" stroke-width="2" fill="none" stroke="rgb(0, 0, 0)" stroke-opacity="1.0" stroke-linecap="round" stroke-linejoin="round"/>
    <path d="M 149.2004852294922 135.82701110839844 C 88.65701293945312 144.6212921142578 131.47396850585938 52.998870849609375 159.0609130859375 104.75808715820312" stroke-width="2" fill="none" stroke="rgb(0, 0, 0)" stroke-opacity="1.0" stroke-linecap="round" stroke-linejoin="round"/>
    <path d="M 142.2769775390625 116.51188659667969 C 97.3084487915039 124.10953521728516 199.33517456054688 120.39466094970703 145.4808349609375 107.24812316894531" stroke-width="2" fill="none" stroke="rgb(0, 0, 0)" stroke-opacity="1.0" stroke-linecap="round" stroke-linejoin="round"/>
    <path d="M 151.93394470214844 122.60507202148438 C 58.55207824707031 136.1681365966797 273.9685974121094 150.71713256835938 95.02348327636719 156.2837371826172" stroke-width="2" fill="none" stroke="rgb(0, 0, 0)" stroke-opacity="1.0" stroke-linecap="round" stroke-linejoin="round"/>
    <path d="M 104.48845672607422 103.75434875488281 C 97.08901977539062 77.42438507080078 114.58444213867188 100.89513397216797 88.58503723144531 100.44708251953125" stroke-width="2" fill="none" stroke="rgb(0, 0, 0)" stroke-opacity="1.0" stroke-linecap="round" stroke-linejoin="round"/>
    <path d="M 105.14620971679688 96.95183563232422 C 86.36414337158203 13.599906921386719 152.0104522705078 138.06521606445312 111.13593292236328 108.26394653320312" stroke-width="2" fill="none" stroke="rgb(0, 0, 0)" stroke-opacity="1.0" stroke-linecap="round" stroke-linejoin="round"/>
    <path d="M 61.508365631103516 133.25491333007812 C 33.06975555419922 109.4405517578125 28.51792335510254 142.01058959960938 104.55408477783203 141.98117065429688" stroke-width="2" fill="none" stroke="rgb(0, 0, 0)" stroke-opacity="1.0" stroke-linecap="round" stroke-linejoin="round"/>
    <path d="M 122.74665832519531 120.48515319824219 C 171.65147399902344 107.88399505615234 80.95925903320312 102.05753326416016 138.38461303710938 137.9813995361328" stroke-width="2" fill="none" stroke="rgb(0, 0, 0)" stroke-opacity="1.0" stroke-linecap="round" stroke-linejoin="round"/>
    <path d="M 128.00210571289062 117.59342193603516 C 182.22988891601562 141.693115234375 119.54901123046875 131.27993774414062 148.53591918945312 138.09442138671875" stroke-width="2" fill="none" stroke="rgb(0, 0, 0)" stroke-opacity="1.0" stroke-linecap="round" stroke-linejoin="round"/>
    <path d="M 163.99356079101562 93.71367645263672 C 211.84988403320312 9.13084888458252 153.50448608398438 135.28489685058594 107.96284484863281 68.99044799804688" stroke-width="2" fill="none" stroke="rgb(0, 0, 0)" stroke-opacity="1.0" stroke-linecap="round" stroke-linejoin="round"/>
    <path d="M 173.20693969726562 108.50323486328125 C 143.79119873046875 127.76097869873047 235.61013793945312 192.7728729248047 83.33119201660156 142.5919189453125" stroke-width="2" fill="none" stroke="rgb(0, 0, 0)" stroke-opacity="1.0" stroke-linecap="round" stroke-linejoin="round"/>
    <path d="M 83.96711730957031 99.74114227294922 C 48.99203109741211 78.54059600830078 8.670226097106934 160.89390563964844 82.21782684326172 153.78045654296875" stroke-width="2" fill="none" stroke="rgb(0, 0, 0)" stroke-opacity="1.0" stroke-linecap="round" stroke-linejoin="round"/>
    <path d="M 125.7398452758789 163.73941040039062 C 129.2916717529297 165.61404418945312 127.42318725585938 170.03244018554688 88.42271423339844 158.5279083251953" stroke-width="2" fill="none" stroke="rgb(0, 0, 0)" stroke-opacity="1.0" stroke-linecap="round" stroke-linejoin="round"/>
    <path d="M 157.2322998046875 107.75896453857422 C 160.4871826171875 170.48719787597656 222.3162841796875 -10.145018577575684 168.30516052246094 88.17092895507812" stroke-width="2" fill="none" stroke="rgb(0, 0, 0)" stroke-opacity="1.0" stroke-linecap="round" stroke-linejoin="round"/>
    <path d="M 144.17556762695312 151.17605590820312 C 29.49715805053711 130.56317138671875 121.02872467041016 116.8597412109375 76.43714904785156 138.16026306152344" stroke-width="2" fill="none" stroke="rgb(0, 0, 0)" stroke-opacity="1.0" stroke-linecap="round" stroke-linejoin="round"/>
  </g>
</svg>
