<?xml version="1.0" ?>
<svg xmlns="http://www.w3.org/2000/svg" version="1.1" width="224" height="224">
  <defs/>
  <g>
    <path d="M 115.88195037841797 116.41159057617188 C 164.7464141845703 123.69540405273438 205.1136932373047 161.17367553710938 119.50288391113281 134.82400512695312" stroke-width="2" fill="none" stroke="rgb(0, 0, 0)" stroke-opacity="1.0" stroke-linecap="round" stroke-linejoin="round"/>
    <path d="M 91.25043487548828 108.38199615478516 C 88.43241119384766 88.84773254394531 112.2199478149414 85.11914825439453 52.533592224121094 101.8866195678711" stroke-width="2" fill="none" stroke="rgb(0, 0, 0)" stroke-opacity="1.0" stroke-linecap="round" stroke-linejoin="round"/>
    <path d="M 151.48268127441406 117.80996704101562 C 77.92078399658203 152.32089233398438 125.64315032958984 49.30428695678711 164.21926879882812 99.53446197509766" stroke-width="2" fill="none" stroke="rgb(0, 0, 0)" stroke-opacity="1.0" stroke-linecap="round" stroke-linejoin="round"/>
    <path d="M 165.07167053222656 105.78174591064453 C 133.8370361328125 96.63606262207031 198.49058532714844 154.10232543945312 121.20491027832031 123.95890808105469" stroke-width="2" fill="none" stroke="rgb(0, 0, 0)" stroke-opacity="1.0" stroke-linecap="round" stroke-linejoin="round"/>
    <path d="M 82.13518524169922 125.58031463623047 C 28.594579696655273 119.65750122070312 238.71864318847656 164.1026611328125 62.46487045288086 127.0335922241211" stroke-width="2" fill="none" stroke="rgb(0, 0, 0)" stroke-opacity="1.0" stroke-linecap="round" stroke-linejoin="round"/>
    <path d="M 48.03515625 107.19667053222656 C 38.25105667114258 129.9896240234375 56.25926208496094 108.85914611816406 44.02921676635742 117.5653076171875" stroke-width="2" fill="none" stroke="rgb(0, 0, 0)" stroke-opacity="1.0" stroke-linecap="round" stroke-linejoin="round"/>
    <path d="M 107.1987075805664 107.39057159423828 C 79.10887145996094 15.97780990600586 146.19654846191406 109.16371154785156 116.9368667602539 95.34809875488281" stroke-width="2" fill="none" stroke="rgb(0, 0, 0)" stroke-opacity="1.0" stroke-linecap="round" stroke-linejoin="round"/>
    <path d="M 93.07137298583984 127.55574798583984 C 70.58081817626953 130.5350341796875 46.180198669433594 118.63441467285156 79.02559661865234 138.20669555664062" stroke-width="2" fill="none" stroke="rgb(0, 0, 0)" stroke-opacity="1.0" stroke-linecap="round" stroke-linejoin="round"/>
    <path d="M 142.20199584960938 108.5332260131836 C 172.8726806640625 128.19215393066406 97.67182159423828 129.6180877685547 159.12069702148438 128.72471618652344" stroke-width="2" fill="none" stroke="rgb(0, 0, 0)" stroke-opacity="1.0" stroke-linecap="round" stroke-linejoin="round"/>
    <path d="M 112.71465301513672 117.6958236694336 C 226.02212524414062 129.23248291015625 67.24049377441406 132.6605987548828 108.93341827392578 107.70325469970703" stroke-width="2" fill="none" stroke="rgb(0, 0, 0)" stroke-opacity="1.0" stroke-linecap="round" stroke-linejoin="round"/>
    <path d="M 155.8904571533203 88.74036407470703 C 202.87327575683594 26.941497802734375 160.66290283203125 128.96958923339844 106.32199096679688 73.4919204711914" stroke-width="2" fill="none" stroke="rgb(0, 0, 0)" stroke-opacity="1.0" stroke-linecap="round" stroke-linejoin="round"/>
    <path d="M 176.88995361328125 111.84773254394531 C 161.3357391357422 137.90933227539062 217.5882110595703 181.05776977539062 50.30727767944336 142.71786499023438" stroke-width="2" fill="none" stroke="rgb(0, 0, 0)" stroke-opacity="1.0" stroke-linecap="round" stroke-linejoin="round"/>
    <path d="M 79.38493347167969 105.84332275390625 C 56.16987991333008 74.68767547607422 11.789297103881836 150.4336395263672 70.518798828125 145.58779907226562" stroke-width="2" fill="none" stroke="rgb(0, 0, 0)" stroke-opacity="1.0" stroke-linecap="round" stroke-linejoin="round"/>
    <path d="M 133.4304656982422 134.62811279296875 C 161.55291748046875 137.06338500976562 172.7014923095703 123.97442626953125 152.24392700195312 138.18267822265625" stroke-width="2" fill="none" stroke="rgb(0, 0, 0)" stroke-opacity="1.0" stroke-linecap="round" stroke-linejoin="round"/>
    <path d="M 140.7821502685547 111.7823257446289 C 187.80296325683594 150.9173583984375 200.28977966308594 -3.3289146423339844 170.00355529785156 94.34457397460938" stroke-width="2" fill="none" stroke="rgb(0, 0, 0)" stroke-opacity="1.0" stroke-linecap="round" stroke-linejoin="round"/>
    <path d="M 163.08209228515625 157.35504150390625 C 41.60885238647461 128.1730499267578 173.05816650390625 92.77725982666016 122.68476104736328 114.0069808959961" stroke-width="2" fill="none" stroke="rgb(0, 0, 0)" stroke-opacity="1.0" stroke-linecap="round" stroke-linejoin="round"/>
  </g>
</svg>
