<?xml version="1.0" ?>
<svg xmlns="http://www.w3.org/2000/svg" version="1.1" width="224" height="224">
  <defs/>
  <g>
    <path d="M 135.33460998535156 113.00117492675781 C 73.62214660644531 130.52911376953125 229.6670379638672 147.1918487548828 105.41383361816406 124.81095123291016" stroke-width="2" fill="none" stroke="rgb(0, 0, 0)" stroke-opacity="1.0" stroke-linecap="round" stroke-linejoin="round"/>
    <path d="M 152.10540771484375 138.64630126953125 C 65.65260314941406 148.95040893554688 97.35377502441406 117.5719985961914 76.78062438964844 117.88231658935547" stroke-width="2" fill="none" stroke="rgb(0, 0, 0)" stroke-opacity="1.0" stroke-linecap="round" stroke-linejoin="round"/>
    <path d="M 176.0201416015625 64.13215637207031 C 166.37208557128906 114.66082000732422 121.84159851074219 76.32230377197266 164.50033569335938 98.86251831054688" stroke-width="2" fill="none" stroke="rgb(0, 0, 0)" stroke-opacity="1.0" stroke-linecap="round" stroke-linejoin="round"/>
    <path d="M 167.11585998535156 119.22102355957031 C 142.73526000976562 123.08272552490234 173.54598999023438 130.45364379882812 146.890625 113.99998474121094" stroke-width="2" fill="none" stroke="rgb(0, 0, 0)" stroke-opacity="1.0" stroke-linecap="round" stroke-linejoin="round"/>
    <path d="M 161.61383056640625 104.03836059570312 C 117.09219360351562 49.847373962402344 230.17713928222656 173.00662231445312 76.71060943603516 137.4337615966797" stroke-width="2" fill="none" stroke="rgb(0, 0, 0)" stroke-opacity="1.0" stroke-linecap="round" stroke-linejoin="round"/>
    <path d="M 152.94456481933594 114.79071807861328 C 55.37937927246094 102.21569061279297 146.38099670410156 111.89099884033203 122.32648468017578 128.1490936279297" stroke-width="2" fill="none" stroke="rgb(0, 0, 0)" stroke-opacity="1.0" stroke-linecap="round" stroke-linejoin="round"/>
    <path d="M 97.72721862792969 101.47858428955078 C 91.03511047363281 4.607792377471924 116.3602294921875 144.57504272460938 172.80023193359375 75.57982635498047" stroke-width="2" fill="none" stroke="rgb(0, 0, 0)" stroke-opacity="1.0" stroke-linecap="round" stroke-linejoin="round"/>
    <path d="M 64.12557983398438 120.79093933105469 C 54.785194396972656 122.68018341064453 42.962745666503906 101.2874984741211 50.09294128417969 123.4820556640625" stroke-width="2" fill="none" stroke="rgb(0, 0, 0)" stroke-opacity="1.0" stroke-linecap="round" stroke-linejoin="round"/>
    <path d="M 99.72911071777344 145.5330810546875 C 264.9538269042969 150.2603302001953 35.53768539428711 123.5141372680664 131.1397247314453 128.14291381835938" stroke-width="2" fill="none" stroke="rgb(0, 0, 0)" stroke-opacity="1.0" stroke-linecap="round" stroke-linejoin="round"/>
    <path d="M 157.1380157470703 145.17210388183594 C 63.02837371826172 133.65008544921875 107.80660247802734 123.88983154296875 95.67172241210938 135.51190185546875" stroke-width="2" fill="none" stroke="rgb(0, 0, 0)" stroke-opacity="1.0" stroke-linecap="round" stroke-linejoin="round"/>
    <path d="M 163.67333984375 101.91508483886719 C 199.32424926757812 -7.961191177368164 153.5959014892578 106.97357940673828 123.21470642089844 91.11149597167969" stroke-width="2" fill="none" stroke="rgb(0, 0, 0)" stroke-opacity="1.0" stroke-linecap="round" stroke-linejoin="round"/>
    <path d="M 176.6796417236328 109.39151000976562 C 144.0680389404297 125.83485412597656 245.19351196289062 177.6834716796875 84.46452331542969 156.71200561523438" stroke-width="2" fill="none" stroke="rgb(0, 0, 0)" stroke-opacity="1.0" stroke-linecap="round" stroke-linejoin="round"/>
    <path d="M 91.06388092041016 76.17461395263672 C 45.327457427978516 70.3302230834961 17.340423583984375 157.00341796875 91.115478515625 152.2724609375" stroke-width="2" fill="none" stroke="rgb(0, 0, 0)" stroke-opacity="1.0" stroke-linecap="round" stroke-linejoin="round"/>
    <path d="M 99.4879379272461 107.83113861083984 C 117.54546356201172 106.41041564941406 118.29115295410156 101.83687591552734 104.44526672363281 70.88691711425781" stroke-width="2" fill="none" stroke="rgb(0, 0, 0)" stroke-opacity="1.0" stroke-linecap="round" stroke-linejoin="round"/>
    <path d="M 170.6624298095703 108.70763397216797 C 184.5073699951172 93.33320617675781 186.85476684570312 16.17560386657715 173.84153747558594 80.80682373046875" stroke-width="2" fill="none" stroke="rgb(0, 0, 0)" stroke-opacity="1.0" stroke-linecap="round" stroke-linejoin="round"/>
    <path d="M 148.26744079589844 138.53456115722656 C 100.54350280761719 124.12183380126953 183.50747680664062 122.0631332397461 115.99898529052734 136.30052185058594" stroke-width="2" fill="none" stroke="rgb(0, 0, 0)" stroke-opacity="1.0" stroke-linecap="round" stroke-linejoin="round"/>
  </g>
</svg>
