<?xml version="1.0" ?>
<svg xmlns="http://www.w3.org/2000/svg" version="1.1" width="224" height="224">
  <defs/>
  <g>
    <path d="M 154.23703002929688 112.80293273925781 C 118.04852294921875 109.0378189086914 190.79043579101562 116.78154754638672 131.8143768310547 123.76634979248047" stroke-width="2" fill="none" stroke="rgb(0, 0, 0)" stroke-opacity="1.0" stroke-linecap="round" stroke-linejoin="round"/>
    <path d="M 127.37682342529297 157.5231475830078 C 14.159042358398438 103.9430923461914 56.4315185546875 148.1912078857422 68.22367095947266 120.76568603515625" stroke-width="2" fill="none" stroke="rgb(0, 0, 0)" stroke-opacity="1.0" stroke-linecap="round" stroke-linejoin="round"/>
    <path d="M 116.96268463134766 98.84615325927734 C 127.2442855834961 106.02632904052734 99.73592376708984 91.99354553222656 167.67770385742188 95.3177490234375" stroke-width="2" fill="none" stroke="rgb(0, 0, 0)" stroke-opacity="1.0" stroke-linecap="round" stroke-linejoin="round"/>
    <path d="M 173.3136444091797 125.03143310546875 C 87.15161895751953 121.72843170166016 173.62228393554688 139.7805633544922 135.15284729003906 121.45667266845703" stroke-width="2" fill="none" stroke="rgb(0, 0, 0)" stroke-opacity="1.0" stroke-linecap="round" stroke-linejoin="round"/>
    <path d="M 151.27517700195312 150.50515747070312 C 118.13579559326172 144.4025421142578 238.46836853027344 161.96139526367188 116.23712158203125 143.6059112548828" stroke-width="2" fill="none" stroke="rgb(0, 0, 0)" stroke-opacity="1.0" stroke-linecap="round" stroke-linejoin="round"/>
    <path d="M 102.93372344970703 120.35440063476562 C 116.1187973022461 123.50416564941406 107.3898696899414 106.30348205566406 115.67757415771484 132.469482421875" stroke-width="2" fill="none" stroke="rgb(0, 0, 0)" stroke-opacity="1.0" stroke-linecap="round" stroke-linejoin="round"/>
    <path d="M 92.70320129394531 103.62559509277344 C 91.92034149169922 8.397102355957031 133.8543243408203 143.84860229492188 177.67413330078125 77.58834838867188" stroke-width="2" fill="none" stroke="rgb(0, 0, 0)" stroke-opacity="1.0" stroke-linecap="round" stroke-linejoin="round"/>
    <path d="M 58.83503341674805 113.89212036132812 C 43.63374710083008 107.02387237548828 25.461585998535156 159.49693298339844 74.4851303100586 141.1210479736328" stroke-width="2" fill="none" stroke="rgb(0, 0, 0)" stroke-opacity="1.0" stroke-linecap="round" stroke-linejoin="round"/>
    <path d="M 137.95571899414062 136.54574584960938 C 226.1631317138672 153.52357482910156 96.17094421386719 93.08638763427734 157.4769744873047 120.82488250732422" stroke-width="2" fill="none" stroke="rgb(0, 0, 0)" stroke-opacity="1.0" stroke-linecap="round" stroke-linejoin="round"/>
    <path d="M 78.60575103759766 126.42276000976562 C 103.45856475830078 122.36823272705078 68.18180847167969 121.86746215820312 91.6812744140625 129.75833129882812" stroke-width="2" fill="none" stroke="rgb(0, 0, 0)" stroke-opacity="1.0" stroke-linecap="round" stroke-linejoin="round"/>
    <path d="M 168.2500457763672 133.2706298828125 C 205.3271484375 -8.489574432373047 165.73048400878906 114.02554321289062 126.99471282958984 93.43534851074219" stroke-width="2" fill="none" stroke="rgb(0, 0, 0)" stroke-opacity="1.0" stroke-linecap="round" stroke-linejoin="round"/>
    <path d="M 173.61582946777344 119.39288330078125 C 140.94915771484375 109.25724792480469 253.5248565673828 181.22802734375 60.605712890625 147.7236328125" stroke-width="2" fill="none" stroke="rgb(0, 0, 0)" stroke-opacity="1.0" stroke-linecap="round" stroke-linejoin="round"/>
    <path d="M 91.66197967529297 101.45965576171875 C 29.02535629272461 88.0522232055664 37.43114471435547 155.29385375976562 105.61593627929688 142.3350067138672" stroke-width="2" fill="none" stroke="rgb(0, 0, 0)" stroke-opacity="1.0" stroke-linecap="round" stroke-linejoin="round"/>
    <path d="M 120.16502380371094 120.5099105834961 C 123.00367736816406 86.76261138916016 121.67350006103516 124.04753112792969 106.86100769042969 70.76002502441406" stroke-width="2" fill="none" stroke="rgb(0, 0, 0)" stroke-opacity="1.0" stroke-linecap="round" stroke-linejoin="round"/>
    <path d="M 157.50314331054688 102.1070556640625 C 184.966552734375 139.69029235839844 205.0709228515625 0.25259968638420105 170.42335510253906 93.68416595458984" stroke-width="2" fill="none" stroke="rgb(0, 0, 0)" stroke-opacity="1.0" stroke-linecap="round" stroke-linejoin="round"/>
    <path d="M 130.53611755371094 102.6343994140625 C 60.719234466552734 144.60061645507812 198.58624267578125 138.3951416015625 164.90977478027344 123.77994537353516" stroke-width="2" fill="none" stroke="rgb(0, 0, 0)" stroke-opacity="1.0" stroke-linecap="round" stroke-linejoin="round"/>
  </g>
</svg>
