<?xml version="1.0" ?>
<svg xmlns="http://www.w3.org/2000/svg" version="1.1" width="224" height="224">
  <defs/>
  <g>
    <path d="M 134.19871520996094 140.01541137695312 C 156.6197509765625 155.3009490966797 223.77078247070312 140.07595825195312 124.3428955078125 139.59242248535156" stroke-width="2" fill="none" stroke="rgb(0, 0, 0)" stroke-opacity="1.0" stroke-linecap="round" stroke-linejoin="round"/>
    <path d="M 124.05704498291016 117.72692108154297 C 76.03272247314453 74.65995788574219 109.53591918945312 87.47749328613281 93.95466613769531 95.00507354736328" stroke-width="2" fill="none" stroke="rgb(0, 0, 0)" stroke-opacity="1.0" stroke-linecap="round" stroke-linejoin="round"/>
    <path d="M 171.15306091308594 136.5732421875 C 84.30400848388672 139.45034790039062 135.14633178710938 77.57951354980469 153.10826110839844 102.39209747314453" stroke-width="2" fill="none" stroke="rgb(0, 0, 0)" stroke-opacity="1.0" stroke-linecap="round" stroke-linejoin="round"/>
    <path d="M 174.98472595214844 101.16972351074219 C 130.703369140625 97.2010726928711 222.27264404296875 122.88096618652344 129.46839904785156 112.06800079345703" stroke-width="2" fill="none" stroke="rgb(0, 0, 0)" stroke-opacity="1.0" stroke-linecap="round" stroke-linejoin="round"/>
    <path d="M 89.46512603759766 131.7399139404297 C 13.178359031677246 115.2998046875 261.9725646972656 184.37684631347656 69.84780883789062 151.2900848388672" stroke-width="2" fill="none" stroke="rgb(0, 0, 0)" stroke-opacity="1.0" stroke-linecap="round" stroke-linejoin="round"/>
    <path d="M 46.339778900146484 108.05355072021484 C 38.75066375732422 130.66217041015625 28.99308204650879 126.1676025390625 49.48149490356445 145.67974853515625" stroke-width="2" fill="none" stroke="rgb(0, 0, 0)" stroke-opacity="1.0" stroke-linecap="round" stroke-linejoin="round"/>
    <path d="M 103.48072814941406 120.20044708251953 C 79.03990936279297 18.592079162597656 132.97183227539062 122.79801177978516 127.34398651123047 95.27101135253906" stroke-width="2" fill="none" stroke="rgb(0, 0, 0)" stroke-opacity="1.0" stroke-linecap="round" stroke-linejoin="round"/>
    <path d="M 52.802513122558594 149.55931091308594 C 35.849979400634766 137.8009490966797 42.14926528930664 151.53677368164062 110.7961654663086 158.45867919921875" stroke-width="2" fill="none" stroke="rgb(0, 0, 0)" stroke-opacity="1.0" stroke-linecap="round" stroke-linejoin="round"/>
    <path d="M 157.21824645996094 119.9901123046875 C 189.52456665039062 129.92807006835938 142.6896514892578 101.77571105957031 168.6959991455078 117.35888671875" stroke-width="2" fill="none" stroke="rgb(0, 0, 0)" stroke-opacity="1.0" stroke-linecap="round" stroke-linejoin="round"/>
    <path d="M 80.9235610961914 137.0264434814453 C 225.09417724609375 136.1776580810547 106.4979476928711 120.57142639160156 133.56863403320312 135.16387939453125" stroke-width="2" fill="none" stroke="rgb(0, 0, 0)" stroke-opacity="1.0" stroke-linecap="round" stroke-linejoin="round"/>
    <path d="M 160.5979461669922 95.46424102783203 C 200.39772033691406 16.17665672302246 166.89260864257812 114.5429458618164 122.7761459350586 93.04393768310547" stroke-width="2" fill="none" stroke="rgb(0, 0, 0)" stroke-opacity="1.0" stroke-linecap="round" stroke-linejoin="round"/>
    <path d="M 182.9561309814453 112.90128326416016 C 167.2874298095703 148.04644775390625 232.24151611328125 171.78311157226562 55.25326156616211 140.16348266601562" stroke-width="2" fill="none" stroke="rgb(0, 0, 0)" stroke-opacity="1.0" stroke-linecap="round" stroke-linejoin="round"/>
    <path d="M 109.09954071044922 99.8272933959961 C 28.076080322265625 56.74631118774414 10.776498794555664 160.52255249023438 77.71524047851562 151.60635375976562" stroke-width="2" fill="none" stroke="rgb(0, 0, 0)" stroke-opacity="1.0" stroke-linecap="round" stroke-linejoin="round"/>
    <path d="M 149.11141967773438 118.18647003173828 C 121.7095947265625 129.44113159179688 169.8202667236328 108.47757720947266 141.30494689941406 109.72667694091797" stroke-width="2" fill="none" stroke="rgb(0, 0, 0)" stroke-opacity="1.0" stroke-linecap="round" stroke-linejoin="round"/>
    <path d="M 143.214111328125 109.86559295654297 C 203.93128967285156 143.5159149169922 185.46295166015625 -2.253331184387207 176.9854278564453 87.82512664794922" stroke-width="2" fill="none" stroke="rgb(0, 0, 0)" stroke-opacity="1.0" stroke-linecap="round" stroke-linejoin="round"/>
    <path d="M 152.6725616455078 132.6182098388672 C 60.5461540222168 116.4609375 180.88714599609375 98.11506652832031 113.3101806640625 116.9899673461914" stroke-width="2" fill="none" stroke="rgb(0, 0, 0)" stroke-opacity="1.0" stroke-linecap="round" stroke-linejoin="round"/>
  </g>
</svg>
