<?xml version="1.0" ?>
<svg xmlns="http://www.w3.org/2000/svg" version="1.1" width="224" height="224">
  <defs/>
  <g>
    <path d="M 121.41835021972656 131.48794555664062 C 161.1953582763672 147.04489135742188 205.61585998535156 139.17239379882812 127.54931640625 142.148681640625" stroke-width="2" fill="none" stroke="rgb(0, 0, 0)" stroke-opacity="1.0" stroke-linecap="round" stroke-linejoin="round"/>
    <path d="M 101.6950912475586 113.2835464477539 C 103.62834930419922 94.17654418945312 120.4332275390625 99.61891174316406 74.75220489501953 104.10692596435547" stroke-width="2" fill="none" stroke="rgb(0, 0, 0)" stroke-opacity="1.0" stroke-linecap="round" stroke-linejoin="round"/>
    <path d="M 160.2800750732422 140.05433654785156 C 86.08013153076172 148.62742614746094 128.0589141845703 64.95162200927734 163.31298828125 96.95680236816406" stroke-width="2" fill="none" stroke="rgb(0, 0, 0)" stroke-opacity="1.0" stroke-linecap="round" stroke-linejoin="round"/>
    <path d="M 173.07275390625 105.75896453857422 C 137.8627166748047 101.30387115478516 219.8615264892578 131.53976440429688 127.18592834472656 113.67020416259766" stroke-width="2" fill="none" stroke="rgb(0, 0, 0)" stroke-opacity="1.0" stroke-linecap="round" stroke-linejoin="round"/>
    <path d="M 80.25901794433594 121.93640899658203 C 18.492015838623047 112.30755615234375 240.16908264160156 181.26156616210938 50.95488357543945 144.04400634765625" stroke-width="2" fill="none" stroke="rgb(0, 0, 0)" stroke-opacity="1.0" stroke-linecap="round" stroke-linejoin="round"/>
    <path d="M 55.35257339477539 103.82444763183594 C 42.17688751220703 116.20487976074219 46.10258483886719 105.87803649902344 51.57757568359375 119.65038299560547" stroke-width="2" fill="none" stroke="rgb(0, 0, 0)" stroke-opacity="1.0" stroke-linecap="round" stroke-linejoin="round"/>
    <path d="M 110.03755187988281 115.58676147460938 C 72.5234375 12.682867050170898 140.48370361328125 128.42138671875 124.84379577636719 97.77904510498047" stroke-width="2" fill="none" stroke="rgb(0, 0, 0)" stroke-opacity="1.0" stroke-linecap="round" stroke-linejoin="round"/>
    <path d="M 67.82698059082031 151.83766174316406 C 60.9924430847168 142.40304565429688 58.48347473144531 149.7216796875 106.44984436035156 151.89105224609375" stroke-width="2" fill="none" stroke="rgb(0, 0, 0)" stroke-opacity="1.0" stroke-linecap="round" stroke-linejoin="round"/>
    <path d="M 150.2846221923828 120.75032043457031 C 187.90603637695312 121.28424072265625 125.6952896118164 106.00926208496094 161.154052734375 128.73236083984375" stroke-width="2" fill="none" stroke="rgb(0, 0, 0)" stroke-opacity="1.0" stroke-linecap="round" stroke-linejoin="round"/>
    <path d="M 85.54589080810547 135.47633361816406 C 235.09840393066406 153.1297149658203 118.7694320678711 144.75390625 165.16049194335938 138.43820190429688" stroke-width="2" fill="none" stroke="rgb(0, 0, 0)" stroke-opacity="1.0" stroke-linecap="round" stroke-linejoin="round"/>
    <path d="M 164.6707763671875 96.66189575195312 C 202.99964904785156 12.720769882202148 163.37973022460938 123.51606750488281 116.40225982666016 83.3484115600586" stroke-width="2" fill="none" stroke="rgb(0, 0, 0)" stroke-opacity="1.0" stroke-linecap="round" stroke-linejoin="round"/>
    <path d="M 177.19692993164062 109.85655975341797 C 167.32998657226562 146.21363830566406 233.14723205566406 172.66221618652344 85.19707489013672 138.03868103027344" stroke-width="2" fill="none" stroke="rgb(0, 0, 0)" stroke-opacity="1.0" stroke-linecap="round" stroke-linejoin="round"/>
    <path d="M 87.00597381591797 105.30341339111328 C 54.32002639770508 69.3016357421875 8.733535766601562 157.30349731445312 83.34919738769531 159.69558715820312" stroke-width="2" fill="none" stroke="rgb(0, 0, 0)" stroke-opacity="1.0" stroke-linecap="round" stroke-linejoin="round"/>
    <path d="M 171.1157989501953 116.68318176269531 C 169.0393829345703 128.46253967285156 177.87542724609375 125.48612213134766 144.2903594970703 121.0162582397461" stroke-width="2" fill="none" stroke="rgb(0, 0, 0)" stroke-opacity="1.0" stroke-linecap="round" stroke-linejoin="round"/>
    <path d="M 150.34500122070312 113.5678482055664 C 200.25604248046875 150.71319580078125 187.16085815429688 2.3818750381469727 176.2481231689453 91.19673919677734" stroke-width="2" fill="none" stroke="rgb(0, 0, 0)" stroke-opacity="1.0" stroke-linecap="round" stroke-linejoin="round"/>
    <path d="M 151.30104064941406 134.20339965820312 C 39.072757720947266 116.21862030029297 193.09271240234375 92.06742095947266 126.00819396972656 119.32815551757812" stroke-width="2" fill="none" stroke="rgb(0, 0, 0)" stroke-opacity="1.0" stroke-linecap="round" stroke-linejoin="round"/>
  </g>
</svg>
