<?xml version="1.0" ?>
<svg xmlns="http://www.w3.org/2000/svg" version="1.1" width="224" height="224">
  <defs/>
  <g>
    <path d="M 137.46104431152344 142.54568481445312 C 111.23715209960938 142.58306884765625 216.8618927001953 144.3174285888672 121.53226470947266 127.31981658935547" stroke-width="2" fill="none" stroke="rgb(0, 0, 0)" stroke-opacity="1.0" stroke-linecap="round" stroke-linejoin="round"/>
    <path d="M 150.68295288085938 135.627197265625 C 58.305484771728516 90.59475708007812 124.25267791748047 107.24075317382812 90.85556030273438 127.80796813964844" stroke-width="2" fill="none" stroke="rgb(0, 0, 0)" stroke-opacity="1.0" stroke-linecap="round" stroke-linejoin="round"/>
    <path d="M 125.652587890625 127.58409881591797 C 121.94427490234375 136.0597686767578 101.34627532958984 77.0638427734375 167.85418701171875 100.45292663574219" stroke-width="2" fill="none" stroke="rgb(0, 0, 0)" stroke-opacity="1.0" stroke-linecap="round" stroke-linejoin="round"/>
    <path d="M 146.99215698242188 113.40548706054688 C 108.42584991455078 98.57759094238281 215.850341796875 150.32382202148438 119.15033721923828 126.53280639648438" stroke-width="2" fill="none" stroke="rgb(0, 0, 0)" stroke-opacity="1.0" stroke-linecap="round" stroke-linejoin="round"/>
    <path d="M 138.39732360839844 133.40045166015625 C 48.77524948120117 122.6222152709961 225.8704376220703 154.60302734375 90.6250991821289 144.80189514160156" stroke-width="2" fill="none" stroke="rgb(0, 0, 0)" stroke-opacity="1.0" stroke-linecap="round" stroke-linejoin="round"/>
    <path d="M 77.74884033203125 111.23316192626953 C 31.788227081298828 127.1731185913086 92.05766296386719 108.61373138427734 88.49845123291016 133.133544921875" stroke-width="2" fill="none" stroke="rgb(0, 0, 0)" stroke-opacity="1.0" stroke-linecap="round" stroke-linejoin="round"/>
    <path d="M 116.6176986694336 105.58116912841797 C 76.8857650756836 4.197113990783691 136.25473022460938 137.86593627929688 172.48570251464844 84.22884368896484" stroke-width="2" fill="none" stroke="rgb(0, 0, 0)" stroke-opacity="1.0" stroke-linecap="round" stroke-linejoin="round"/>
    <path d="M 48.060420989990234 139.18862915039062 C 39.718990325927734 125.98604583740234 27.415283203125 148.4345245361328 65.9865951538086 146.80978393554688" stroke-width="2" fill="none" stroke="rgb(0, 0, 0)" stroke-opacity="1.0" stroke-linecap="round" stroke-linejoin="round"/>
    <path d="M 107.40851593017578 134.87205505371094 C 188.54739379882812 153.86753845214844 149.38705444335938 109.70781707763672 145.2504425048828 134.61239624023438" stroke-width="2" fill="none" stroke="rgb(0, 0, 0)" stroke-opacity="1.0" stroke-linecap="round" stroke-linejoin="round"/>
    <path d="M 61.30082702636719 143.69161987304688 C 152.8331298828125 154.79754638671875 73.50406646728516 125.27485656738281 80.68193054199219 126.84844970703125" stroke-width="2" fill="none" stroke="rgb(0, 0, 0)" stroke-opacity="1.0" stroke-linecap="round" stroke-linejoin="round"/>
    <path d="M 160.23782348632812 112.3434829711914 C 216.38262939453125 -3.7052369117736816 155.8695068359375 93.60881805419922 148.0565948486328 88.69497680664062" stroke-width="2" fill="none" stroke="rgb(0, 0, 0)" stroke-opacity="1.0" stroke-linecap="round" stroke-linejoin="round"/>
    <path d="M 170.98434448242188 112.84463500976562 C 143.52516174316406 125.2384262084961 231.2108612060547 192.1729736328125 56.212223052978516 147.5817108154297" stroke-width="2" fill="none" stroke="rgb(0, 0, 0)" stroke-opacity="1.0" stroke-linecap="round" stroke-linejoin="round"/>
    <path d="M 103.13490295410156 88.85237121582031 C 30.03310203552246 88.66708374023438 4.237410545349121 167.86203002929688 107.24170684814453 158.4388427734375" stroke-width="2" fill="none" stroke="rgb(0, 0, 0)" stroke-opacity="1.0" stroke-linecap="round" stroke-linejoin="round"/>
    <path d="M 130.3499298095703 132.61524963378906 C 161.28404235839844 139.90426635742188 79.35694122314453 129.99789428710938 144.58328247070312 118.22130584716797" stroke-width="2" fill="none" stroke="rgb(0, 0, 0)" stroke-opacity="1.0" stroke-linecap="round" stroke-linejoin="round"/>
    <path d="M 158.3909149169922 106.47277069091797 C 171.83567810058594 177.26158142089844 204.1168212890625 -3.7705585956573486 163.92474365234375 80.37451934814453" stroke-width="2" fill="none" stroke="rgb(0, 0, 0)" stroke-opacity="1.0" stroke-linecap="round" stroke-linejoin="round"/>
    <path d="M 145.43040466308594 109.74685668945312 C 52.62003707885742 117.24288940429688 172.59703063964844 128.18209838867188 134.8326416015625 113.04003143310547" stroke-width="2" fill="none" stroke="rgb(0, 0, 0)" stroke-opacity="1.0" stroke-linecap="round" stroke-linejoin="round"/>
  </g>
</svg>
