<?xml version="1.0" ?>
<svg xmlns="http://www.w3.org/2000/svg" version="1.1" width="224" height="224">
  <defs/>
  <g>
    <path d="M 139.2352294921875 93.95294189453125 C 76.91822814941406 127.98084259033203 212.84841918945312 138.0159149169922 125.8673324584961 127.90050506591797" stroke-width="2" fill="none" stroke="rgb(0, 0, 0)" stroke-opacity="1.0" stroke-linecap="round" stroke-linejoin="round"/>
    <path d="M 135.99745178222656 117.2593994140625 C 77.98099517822266 115.17288970947266 124.32012939453125 130.67337036132812 120.22843170166016 102.38268280029297" stroke-width="2" fill="none" stroke="rgb(0, 0, 0)" stroke-opacity="1.0" stroke-linecap="round" stroke-linejoin="round"/>
    <path d="M 183.6659698486328 64.29106903076172 C 168.92835998535156 116.49932098388672 131.36985778808594 72.78338623046875 163.39991760253906 98.85958862304688" stroke-width="2" fill="none" stroke="rgb(0, 0, 0)" stroke-opacity="1.0" stroke-linecap="round" stroke-linejoin="round"/>
    <path d="M 144.58558654785156 121.36131286621094 C 153.7523956298828 102.55817413330078 159.59329223632812 134.31240844726562 144.8196258544922 114.7476577758789" stroke-width="2" fill="none" stroke="rgb(0, 0, 0)" stroke-opacity="1.0" stroke-linecap="round" stroke-linejoin="round"/>
    <path d="M 162.6427459716797 106.24991607666016 C 118.32003784179688 58.12635803222656 242.15382385253906 180.96856689453125 48.65547561645508 149.6719970703125" stroke-width="2" fill="none" stroke="rgb(0, 0, 0)" stroke-opacity="1.0" stroke-linecap="round" stroke-linejoin="round"/>
    <path d="M 154.06968688964844 120.26309204101562 C 118.51710510253906 114.85667419433594 183.89390563964844 124.6313247680664 149.10888671875 114.94001007080078" stroke-width="2" fill="none" stroke="rgb(0, 0, 0)" stroke-opacity="1.0" stroke-linecap="round" stroke-linejoin="round"/>
    <path d="M 96.21405029296875 98.82337951660156 C 84.85494232177734 19.230043411254883 137.12481689453125 142.4287109375 173.9125518798828 82.78903198242188" stroke-width="2" fill="none" stroke="rgb(0, 0, 0)" stroke-opacity="1.0" stroke-linecap="round" stroke-linejoin="round"/>
    <path d="M 92.94949340820312 101.45111083984375 C 100.82714080810547 122.76446533203125 39.86627197265625 89.25408172607422 47.8411750793457 123.93400573730469" stroke-width="2" fill="none" stroke="rgb(0, 0, 0)" stroke-opacity="1.0" stroke-linecap="round" stroke-linejoin="round"/>
    <path d="M 118.96533203125 130.20919799804688 C 232.61012268066406 142.00267028808594 79.18588256835938 143.86447143554688 159.17324829101562 149.1666717529297" stroke-width="2" fill="none" stroke="rgb(0, 0, 0)" stroke-opacity="1.0" stroke-linecap="round" stroke-linejoin="round"/>
    <path d="M 126.56842803955078 104.8761978149414 C 95.02979278564453 148.5237274169922 160.24745178222656 112.65457916259766 118.74813079833984 128.08221435546875" stroke-width="2" fill="none" stroke="rgb(0, 0, 0)" stroke-opacity="1.0" stroke-linecap="round" stroke-linejoin="round"/>
    <path d="M 167.01226806640625 89.8010025024414 C 207.9014434814453 15.132195472717285 168.2376251220703 112.37001037597656 118.47769165039062 87.99846649169922" stroke-width="2" fill="none" stroke="rgb(0, 0, 0)" stroke-opacity="1.0" stroke-linecap="round" stroke-linejoin="round"/>
    <path d="M 174.46295166015625 103.14640045166016 C 134.869873046875 147.3761444091797 225.83934020996094 160.5524139404297 79.13172912597656 140.482666015625" stroke-width="2" fill="none" stroke="rgb(0, 0, 0)" stroke-opacity="1.0" stroke-linecap="round" stroke-linejoin="round"/>
    <path d="M 90.87468719482422 101.34466552734375 C 46.11481857299805 93.2547836303711 14.676750183105469 150.05641174316406 84.11045837402344 150.58631896972656" stroke-width="2" fill="none" stroke="rgb(0, 0, 0)" stroke-opacity="1.0" stroke-linecap="round" stroke-linejoin="round"/>
    <path d="M 109.41271209716797 101.20087432861328 C 149.07199096679688 94.4859848022461 122.68504333496094 134.04898071289062 102.0745849609375 71.27330780029297" stroke-width="2" fill="none" stroke="rgb(0, 0, 0)" stroke-opacity="1.0" stroke-linecap="round" stroke-linejoin="round"/>
    <path d="M 169.61282348632812 105.4712905883789 C 190.72637939453125 116.52730560302734 192.60972595214844 1.9735321998596191 166.12461853027344 98.3626480102539" stroke-width="2" fill="none" stroke="rgb(0, 0, 0)" stroke-opacity="1.0" stroke-linecap="round" stroke-linejoin="round"/>
    <path d="M 108.6595458984375 131.885986328125 C 70.91438293457031 126.1935043334961 127.92404174804688 135.58543395996094 77.50083923339844 109.54724884033203" stroke-width="2" fill="none" stroke="rgb(0, 0, 0)" stroke-opacity="1.0" stroke-linecap="round" stroke-linejoin="round"/>
  </g>
</svg>
