<?xml version="1.0" ?>
<svg xmlns="http://www.w3.org/2000/svg" version="1.1" width="224" height="224">
  <defs/>
  <g>
    <path d="M 136.84304809570312 126.6279525756836 C 101.23145294189453 112.35092163085938 236.97628784179688 146.48890686035156 131.45899963378906 136.64227294921875" stroke-width="2" fill="none" stroke="rgb(0, 0, 0)" stroke-opacity="1.0" stroke-linecap="round" stroke-linejoin="round"/>
    <path d="M 167.9934539794922 136.97763061523438 C 77.78178405761719 150.83192443847656 116.5115966796875 129.5621337890625 88.21159362792969 136.88037109375" stroke-width="2" fill="none" stroke="rgb(0, 0, 0)" stroke-opacity="1.0" stroke-linecap="round" stroke-linejoin="round"/>
    <path d="M 163.25364685058594 114.91822814941406 C 113.26612854003906 116.90309143066406 78.68802642822266 83.75716400146484 162.25311279296875 85.31904602050781" stroke-width="2" fill="none" stroke="rgb(0, 0, 0)" stroke-opacity="1.0" stroke-linecap="round" stroke-linejoin="round"/>
    <path d="M 162.5359649658203 125.34705352783203 C 132.8901824951172 126.71638488769531 188.87615966796875 111.04293060302734 160.7331085205078 107.7591552734375" stroke-width="2" fill="none" stroke="rgb(0, 0, 0)" stroke-opacity="1.0" stroke-linecap="round" stroke-linejoin="round"/>
    <path d="M 122.64232635498047 115.02178192138672 C 135.29611206054688 70.03668975830078 237.1981964111328 178.35488891601562 85.44091796875 133.7753143310547" stroke-width="2" fill="none" stroke="rgb(0, 0, 0)" stroke-opacity="1.0" stroke-linecap="round" stroke-linejoin="round"/>
    <path d="M 166.9423370361328 108.0965805053711 C 54.77420425415039 115.28802490234375 121.17386627197266 103.82402038574219 107.56632995605469 129.84828186035156" stroke-width="2" fill="none" stroke="rgb(0, 0, 0)" stroke-opacity="1.0" stroke-linecap="round" stroke-linejoin="round"/>
    <path d="M 94.4261474609375 100.17657470703125 C 89.52802276611328 3.2479171752929688 121.59046173095703 146.8962860107422 171.27590942382812 70.3545913696289" stroke-width="2" fill="none" stroke="rgb(0, 0, 0)" stroke-opacity="1.0" stroke-linecap="round" stroke-linejoin="round"/>
    <path d="M 47.64395523071289 110.8013687133789 C 32.941436767578125 147.64633178710938 43.41179275512695 125.86514282226562 53.79820251464844 138.38296508789062" stroke-width="2" fill="none" stroke="rgb(0, 0, 0)" stroke-opacity="1.0" stroke-linecap="round" stroke-linejoin="round"/>
    <path d="M 51.307273864746094 148.91690063476562 C 285.6161804199219 183.76637268066406 84.72383117675781 140.32398986816406 118.41424560546875 135.6256561279297" stroke-width="2" fill="none" stroke="rgb(0, 0, 0)" stroke-opacity="1.0" stroke-linecap="round" stroke-linejoin="round"/>
    <path d="M 144.1728515625 143.95765686035156 C 60.40206527709961 133.8043975830078 93.434814453125 138.5813446044922 99.49517059326172 142.2321319580078" stroke-width="2" fill="none" stroke="rgb(0, 0, 0)" stroke-opacity="1.0" stroke-linecap="round" stroke-linejoin="round"/>
    <path d="M 179.1234893798828 116.0605239868164 C 182.60125732421875 15.409619331359863 169.8016357421875 117.92333984375 151.5709991455078 92.41239166259766" stroke-width="2" fill="none" stroke="rgb(0, 0, 0)" stroke-opacity="1.0" stroke-linecap="round" stroke-linejoin="round"/>
    <path d="M 173.7721405029297 121.86592864990234 C 149.17520141601562 132.63832092285156 229.301513671875 179.23992919921875 70.67718505859375 142.23876953125" stroke-width="2" fill="none" stroke="rgb(0, 0, 0)" stroke-opacity="1.0" stroke-linecap="round" stroke-linejoin="round"/>
    <path d="M 98.8726577758789 97.99261474609375 C 41.41228103637695 77.69467163085938 13.696223258972168 153.908203125 75.15570831298828 149.44273376464844" stroke-width="2" fill="none" stroke="rgb(0, 0, 0)" stroke-opacity="1.0" stroke-linecap="round" stroke-linejoin="round"/>
    <path d="M 120.51465606689453 119.81891632080078 C 131.3253936767578 108.787841796875 119.99008178710938 137.06405639648438 104.31090545654297 67.43756866455078" stroke-width="2" fill="none" stroke="rgb(0, 0, 0)" stroke-opacity="1.0" stroke-linecap="round" stroke-linejoin="round"/>
    <path d="M 150.9886016845703 116.2859878540039 C 183.28013610839844 120.99646759033203 211.07752990722656 18.441011428833008 167.62632751464844 77.00558471679688" stroke-width="2" fill="none" stroke="rgb(0, 0, 0)" stroke-opacity="1.0" stroke-linecap="round" stroke-linejoin="round"/>
    <path d="M 155.56442260742188 141.96636962890625 C 113.67119598388672 129.5433807373047 185.25399780273438 132.2355499267578 125.91433715820312 140.8740997314453" stroke-width="2" fill="none" stroke="rgb(0, 0, 0)" stroke-opacity="1.0" stroke-linecap="round" stroke-linejoin="round"/>
  </g>
</svg>
