<?xml version="1.0" ?>
<svg xmlns="http://www.w3.org/2000/svg" version="1.1" width="224" height="224">
  <defs/>
  <g>
    <path d="M 155.77001953125 122.3488998413086 C 94.4896240234375 155.76162719726562 191.36929321289062 138.95066833496094 129.23153686523438 133.72544860839844" stroke-width="2" fill="none" stroke="rgb(0, 0, 0)" stroke-opacity="1.0" stroke-linecap="round" stroke-linejoin="round"/>
    <path d="M 123.67545318603516 153.5979461669922 C 24.909521102905273 96.19792175292969 99.26956939697266 129.61965942382812 69.60311889648438 114.83433532714844" stroke-width="2" fill="none" stroke="rgb(0, 0, 0)" stroke-opacity="1.0" stroke-linecap="round" stroke-linejoin="round"/>
    <path d="M 112.604248046875 112.96541595458984 C 137.9661865234375 93.5759048461914 72.75890350341797 85.40032196044922 148.05372619628906 89.60173034667969" stroke-width="2" fill="none" stroke="rgb(0, 0, 0)" stroke-opacity="1.0" stroke-linecap="round" stroke-linejoin="round"/>
    <path d="M 144.4802703857422 131.7161102294922 C 102.38060760498047 117.65418243408203 226.9539031982422 131.08523559570312 120.90480041503906 127.97551727294922" stroke-width="2" fill="none" stroke="rgb(0, 0, 0)" stroke-opacity="1.0" stroke-linecap="round" stroke-linejoin="round"/>
    <path d="M 147.11375427246094 165.83428955078125 C 136.68402099609375 164.87619018554688 248.90823364257812 149.21592712402344 81.78343963623047 148.31773376464844" stroke-width="2" fill="none" stroke="rgb(0, 0, 0)" stroke-opacity="1.0" stroke-linecap="round" stroke-linejoin="round"/>
    <path d="M 98.93980407714844 114.22595977783203 C 88.19091033935547 117.57508850097656 111.26746368408203 117.09473419189453 105.62732696533203 131.44313049316406" stroke-width="2" fill="none" stroke="rgb(0, 0, 0)" stroke-opacity="1.0" stroke-linecap="round" stroke-linejoin="round"/>
    <path d="M 97.43904113769531 106.59876251220703 C 81.72274780273438 9.644036293029785 134.31300354003906 143.65652465820312 179.8372039794922 92.20166778564453" stroke-width="2" fill="none" stroke="rgb(0, 0, 0)" stroke-opacity="1.0" stroke-linecap="round" stroke-linejoin="round"/>
    <path d="M 63.653343200683594 115.52153015136719 C 59.055511474609375 94.4745864868164 20.645174026489258 138.320556640625 44.535194396972656 150.5881805419922" stroke-width="2" fill="none" stroke="rgb(0, 0, 0)" stroke-opacity="1.0" stroke-linecap="round" stroke-linejoin="round"/>
    <path d="M 112.92137908935547 130.41017150878906 C 213.63482666015625 145.1112823486328 111.19297790527344 104.74853515625 151.9263458251953 118.61198425292969" stroke-width="2" fill="none" stroke="rgb(0, 0, 0)" stroke-opacity="1.0" stroke-linecap="round" stroke-linejoin="round"/>
    <path d="M 68.51249694824219 134.75425720214844 C 93.11870574951172 155.32310485839844 17.414241790771484 129.82723999023438 69.15426635742188 150.57504272460938" stroke-width="2" fill="none" stroke="rgb(0, 0, 0)" stroke-opacity="1.0" stroke-linecap="round" stroke-linejoin="round"/>
    <path d="M 166.41421508789062 94.23890686035156 C 210.05577087402344 11.37714672088623 152.80946350097656 111.94054412841797 116.9820556640625 101.31436157226562" stroke-width="2" fill="none" stroke="rgb(0, 0, 0)" stroke-opacity="1.0" stroke-linecap="round" stroke-linejoin="round"/>
    <path d="M 170.69993591308594 108.28992462158203 C 143.17800903320312 124.09745788574219 246.58929443359375 184.1962432861328 43.04756546020508 140.90029907226562" stroke-width="2" fill="none" stroke="rgb(0, 0, 0)" stroke-opacity="1.0" stroke-linecap="round" stroke-linejoin="round"/>
    <path d="M 98.75845336914062 98.14440155029297 C 24.316055297851562 82.98808288574219 28.160539627075195 170.1072540283203 107.87706756591797 151.218505859375" stroke-width="2" fill="none" stroke="rgb(0, 0, 0)" stroke-opacity="1.0" stroke-linecap="round" stroke-linejoin="round"/>
    <path d="M 113.52650451660156 126.18608856201172 C 113.40802764892578 81.43074798583984 131.6538543701172 128.06985473632812 102.03694152832031 75.87824249267578" stroke-width="2" fill="none" stroke="rgb(0, 0, 0)" stroke-opacity="1.0" stroke-linecap="round" stroke-linejoin="round"/>
    <path d="M 158.0653076171875 104.33214569091797 C 175.4886932373047 155.2628173828125 200.12608337402344 4.082498550415039 171.90789794921875 87.35447692871094" stroke-width="2" fill="none" stroke="rgb(0, 0, 0)" stroke-opacity="1.0" stroke-linecap="round" stroke-linejoin="round"/>
    <path d="M 127.05404663085938 124.68816375732422 C 72.24231719970703 146.40354919433594 221.07574462890625 153.09881591796875 138.43319702148438 124.86398315429688" stroke-width="2" fill="none" stroke="rgb(0, 0, 0)" stroke-opacity="1.0" stroke-linecap="round" stroke-linejoin="round"/>
  </g>
</svg>
