<?xml version="1.0" ?>
<svg xmlns="http://www.w3.org/2000/svg" version="1.1" width="224" height="224">
  <defs/>
  <g>
    <path d="M 131.0433349609375 106.06807708740234 C 73.0770034790039 142.77127075195312 178.50796508789062 146.2133026123047 125.00375366210938 134.5667266845703" stroke-width="2" fill="none" stroke="rgb(0, 0, 0)" stroke-opacity="1.0" stroke-linecap="round" stroke-linejoin="round"/>
    <path d="M 127.47484588623047 126.22947692871094 C 71.48834228515625 107.44432830810547 128.72813415527344 139.7914581298828 117.20185089111328 113.19548034667969" stroke-width="2" fill="none" stroke="rgb(0, 0, 0)" stroke-opacity="1.0" stroke-linecap="round" stroke-linejoin="round"/>
    <path d="M 184.50173950195312 84.05862426757812 C 161.4288787841797 144.15589904785156 123.99403381347656 78.46014404296875 161.53164672851562 98.8461685180664" stroke-width="2" fill="none" stroke="rgb(0, 0, 0)" stroke-opacity="1.0" stroke-linecap="round" stroke-linejoin="round"/>
    <path d="M 159.94247436523438 125.32937622070312 C 153.7727508544922 96.48613739013672 161.34298706054688 147.6225128173828 145.2091064453125 131.4376678466797" stroke-width="2" fill="none" stroke="rgb(0, 0, 0)" stroke-opacity="1.0" stroke-linecap="round" stroke-linejoin="round"/>
    <path d="M 168.65121459960938 119.67705535888672 C 125.08868408203125 78.00230407714844 273.70294189453125 196.08091735839844 52.653114318847656 136.6022491455078" stroke-width="2" fill="none" stroke="rgb(0, 0, 0)" stroke-opacity="1.0" stroke-linecap="round" stroke-linejoin="round"/>
    <path d="M 157.04421997070312 122.99469757080078 C 103.3971176147461 118.72130584716797 166.5776824951172 131.71310424804688 139.6598358154297 120.32130432128906" stroke-width="2" fill="none" stroke="rgb(0, 0, 0)" stroke-opacity="1.0" stroke-linecap="round" stroke-linejoin="round"/>
    <path d="M 104.89163970947266 94.93742370605469 C 87.89282989501953 24.465805053710938 131.07713317871094 155.2998809814453 178.1022186279297 85.71440887451172" stroke-width="2" fill="none" stroke="rgb(0, 0, 0)" stroke-opacity="1.0" stroke-linecap="round" stroke-linejoin="round"/>
    <path d="M 106.30946350097656 91.53396606445312 C 98.06515502929688 122.56238555908203 59.14533996582031 80.78694915771484 59.300758361816406 119.91043853759766" stroke-width="2" fill="none" stroke="rgb(0, 0, 0)" stroke-opacity="1.0" stroke-linecap="round" stroke-linejoin="round"/>
    <path d="M 126.84149169921875 132.43679809570312 C 176.25146484375 138.47119140625 84.96279907226562 132.60757446289062 140.2568817138672 143.90582275390625" stroke-width="2" fill="none" stroke="rgb(0, 0, 0)" stroke-opacity="1.0" stroke-linecap="round" stroke-linejoin="round"/>
    <path d="M 125.04952239990234 111.18399047851562 C 82.17277526855469 143.53773498535156 159.99427795410156 113.26871490478516 107.2411117553711 122.06763458251953" stroke-width="2" fill="none" stroke="rgb(0, 0, 0)" stroke-opacity="1.0" stroke-linecap="round" stroke-linejoin="round"/>
    <path d="M 171.75547790527344 108.26642608642578 C 202.54000854492188 8.341761589050293 170.43092346191406 111.23077392578125 126.20093536376953 95.02677154541016" stroke-width="2" fill="none" stroke="rgb(0, 0, 0)" stroke-opacity="1.0" stroke-linecap="round" stroke-linejoin="round"/>
    <path d="M 173.13043212890625 106.70118713378906 C 141.65562438964844 167.50201416015625 222.23458862304688 161.73338317871094 77.00364685058594 136.85177612304688" stroke-width="2" fill="none" stroke="rgb(0, 0, 0)" stroke-opacity="1.0" stroke-linecap="round" stroke-linejoin="round"/>
    <path d="M 98.42921447753906 101.96980285644531 C 47.043190002441406 86.72517395019531 24.207157135009766 151.80125427246094 87.51213836669922 153.1820068359375" stroke-width="2" fill="none" stroke="rgb(0, 0, 0)" stroke-opacity="1.0" stroke-linecap="round" stroke-linejoin="round"/>
    <path d="M 103.52919006347656 108.06858825683594 C 134.0234375 105.55467224121094 124.19539642333984 164.8949737548828 99.95448303222656 72.14264678955078" stroke-width="2" fill="none" stroke="rgb(0, 0, 0)" stroke-opacity="1.0" stroke-linecap="round" stroke-linejoin="round"/>
    <path d="M 181.5843048095703 94.61125946044922 C 180.50421142578125 106.72164916992188 200.67161560058594 11.600593566894531 163.11981201171875 102.1376953125" stroke-width="2" fill="none" stroke="rgb(0, 0, 0)" stroke-opacity="1.0" stroke-linecap="round" stroke-linejoin="round"/>
    <path d="M 107.46265411376953 144.0382843017578 C 41.98060989379883 122.25537872314453 80.55271911621094 134.89332580566406 80.940673828125 119.5412368774414" stroke-width="2" fill="none" stroke="rgb(0, 0, 0)" stroke-opacity="1.0" stroke-linecap="round" stroke-linejoin="round"/>
  </g>
</svg>
