<?xml version="1.0" ?>
<svg xmlns="http://www.w3.org/2000/svg" version="1.1" width="224" height="224">
  <defs/>
  <g>
    <path d="M 103.96633911132812 124.46151733398438 C 64.62788391113281 112.40330505371094 162.88388061523438 119.67447662353516 126.32405090332031 124.37700653076172" stroke-width="2" fill="none" stroke="rgb(0, 0, 0)" stroke-opacity="1.0" stroke-linecap="round" stroke-linejoin="round"/>
    <path d="M 128.78298950195312 153.2346954345703 C 33.25934982299805 141.58221435546875 204.96865844726562 161.49282836914062 141.0928497314453 151.64541625976562" stroke-width="2" fill="none" stroke="rgb(0, 0, 0)" stroke-opacity="1.0" stroke-linecap="round" stroke-linejoin="round"/>
    <path d="M 145.0888671875 140.64752197265625 C 126.83963012695312 139.61297607421875 90.77839660644531 126.34921264648438 140.92715454101562 137.02320861816406" stroke-width="2" fill="none" stroke="rgb(0, 0, 0)" stroke-opacity="1.0" stroke-linecap="round" stroke-linejoin="round"/>
    <path d="M 138.41600036621094 132.08563232421875 C 92.70164489746094 135.405517578125 205.53660583496094 136.39410400390625 117.81515502929688 136.77468872070312" stroke-width="2" fill="none" stroke="rgb(0, 0, 0)" stroke-opacity="1.0" stroke-linecap="round" stroke-linejoin="round"/>
    <path d="M 120.2594985961914 104.51669311523438 C 59.27131652832031 149.32908630371094 191.57460021972656 151.29104614257812 121.41655731201172 146.25729370117188" stroke-width="2" fill="none" stroke="rgb(0, 0, 0)" stroke-opacity="1.0" stroke-linecap="round" stroke-linejoin="round"/>
    <path d="M 135.34933471679688 116.97760772705078 C 121.68356323242188 109.62663269042969 110.58634948730469 125.34886932373047 137.8387908935547 120.95692443847656" stroke-width="2" fill="none" stroke="rgb(0, 0, 0)" stroke-opacity="1.0" stroke-linecap="round" stroke-linejoin="round"/>
    <path d="M 95.74363708496094 70.89260864257812 C 124.96212768554688 67.04472351074219 101.50713348388672 125.49272155761719 178.94630432128906 68.66483306884766" stroke-width="2" fill="none" stroke="rgb(0, 0, 0)" stroke-opacity="1.0" stroke-linecap="round" stroke-linejoin="round"/>
    <path d="M 79.40435791015625 154.40069580078125 C 71.86323547363281 145.83526611328125 17.321535110473633 153.9586944580078 52.242671966552734 99.57915496826172" stroke-width="2" fill="none" stroke="rgb(0, 0, 0)" stroke-opacity="1.0" stroke-linecap="round" stroke-linejoin="round"/>
    <path d="M 144.85244750976562 101.82984924316406 C 194.68743896484375 119.71711730957031 119.65221405029297 107.17349243164062 156.5172119140625 119.52703857421875" stroke-width="2" fill="none" stroke="rgb(0, 0, 0)" stroke-opacity="1.0" stroke-linecap="round" stroke-linejoin="round"/>
    <path d="M 49.542274475097656 135.7687225341797 C 82.57124328613281 139.28402709960938 74.93537139892578 141.07427978515625 98.64186096191406 146.49989318847656" stroke-width="2" fill="none" stroke="rgb(0, 0, 0)" stroke-opacity="1.0" stroke-linecap="round" stroke-linejoin="round"/>
    <path d="M 157.41407775878906 86.0667953491211 C 213.67393493652344 8.179718017578125 173.88624572753906 145.30517578125 151.14773559570312 110.9815902709961" stroke-width="2" fill="none" stroke="rgb(0, 0, 0)" stroke-opacity="1.0" stroke-linecap="round" stroke-linejoin="round"/>
    <path d="M 162.51544189453125 116.69719696044922 C 174.81724548339844 175.67459106445312 164.0950164794922 171.88356018066406 66.21880340576172 153.1650390625" stroke-width="2" fill="none" stroke="rgb(0, 0, 0)" stroke-opacity="1.0" stroke-linecap="round" stroke-linejoin="round"/>
    <path d="M 66.27753448486328 124.00692749023438 C 88.77667999267578 131.8841094970703 26.532329559326172 113.52213287353516 96.10836791992188 147.64132690429688" stroke-width="2" fill="none" stroke="rgb(0, 0, 0)" stroke-opacity="1.0" stroke-linecap="round" stroke-linejoin="round"/>
    <path d="M 105.4132308959961 136.32252502441406 C 76.93466186523438 93.3778305053711 87.04438018798828 78.9263687133789 85.30723571777344 120.26997375488281" stroke-width="2" fill="none" stroke="rgb(0, 0, 0)" stroke-opacity="1.0" stroke-linecap="round" stroke-linejoin="round"/>
    <path d="M 158.5298614501953 149.66041564941406 C 170.3672637939453 126.94072723388672 209.73785400390625 1.4827044010162354 162.17318725585938 97.73851776123047" stroke-width="2" fill="none" stroke="rgb(0, 0, 0)" stroke-opacity="1.0" stroke-linecap="round" stroke-linejoin="round"/>
    <path d="M 54.70842742919922 123.97116088867188 C 26.92462730407715 86.54859924316406 136.92922973632812 82.02388000488281 114.26688385009766 135.85682678222656" stroke-width="2" fill="none" stroke="rgb(0, 0, 0)" stroke-opacity="1.0" stroke-linecap="round" stroke-linejoin="round"/>
  </g>
</svg>
