<?xml version="1.0" ?>
<svg xmlns="http://www.w3.org/2000/svg" version="1.1" width="224" height="224">
  <defs/>
  <g>
    <path d="M 160.98658752441406 136.1748809814453 C 86.33031463623047 147.11598205566406 162.30006408691406 126.11446380615234 129.77243041992188 132.68408203125" stroke-width="2" fill="none" stroke="rgb(0, 0, 0)" stroke-opacity="1.0" stroke-linecap="round" stroke-linejoin="round"/>
    <path d="M 116.90469360351562 152.22198486328125 C 32.13924789428711 92.29256439208984 109.51858520507812 121.34626007080078 71.0671157836914 114.570068359375" stroke-width="2" fill="none" stroke="rgb(0, 0, 0)" stroke-opacity="1.0" stroke-linecap="round" stroke-linejoin="round"/>
    <path d="M 109.07870483398438 101.49696350097656 C 153.6708526611328 91.16753387451172 85.15430450439453 90.54615783691406 165.22999572753906 91.1678695678711" stroke-width="2" fill="none" stroke="rgb(0, 0, 0)" stroke-opacity="1.0" stroke-linecap="round" stroke-linejoin="round"/>
    <path d="M 140.0261993408203 140.92913818359375 C 91.45358276367188 117.40030670166016 231.16348266601562 134.8209686279297 119.75924682617188 115.94548797607422" stroke-width="2" fill="none" stroke="rgb(0, 0, 0)" stroke-opacity="1.0" stroke-linecap="round" stroke-linejoin="round"/>
    <path d="M 134.1382293701172 132.76846313476562 C 129.373779296875 147.619384765625 243.63134765625 157.10031127929688 81.25037384033203 149.3577423095703" stroke-width="2" fill="none" stroke="rgb(0, 0, 0)" stroke-opacity="1.0" stroke-linecap="round" stroke-linejoin="round"/>
    <path d="M 102.43390655517578 122.83800506591797 C 79.4515151977539 121.69580078125 112.99690246582031 118.10125732421875 106.90986633300781 139.99209594726562" stroke-width="2" fill="none" stroke="rgb(0, 0, 0)" stroke-opacity="1.0" stroke-linecap="round" stroke-linejoin="round"/>
    <path d="M 103.68885040283203 98.87100219726562 C 80.562744140625 7.695005893707275 137.22251892089844 142.34544372558594 174.74717712402344 101.26536560058594" stroke-width="2" fill="none" stroke="rgb(0, 0, 0)" stroke-opacity="1.0" stroke-linecap="round" stroke-linejoin="round"/>
    <path d="M 50.4075813293457 126.72450256347656 C 50.140926361083984 106.69414520263672 19.509918212890625 143.73719787597656 53.62956619262695 145.9601593017578" stroke-width="2" fill="none" stroke="rgb(0, 0, 0)" stroke-opacity="1.0" stroke-linecap="round" stroke-linejoin="round"/>
    <path d="M 113.70365142822266 134.82583618164062 C 182.45176696777344 139.63157653808594 101.54595184326172 106.34458923339844 146.78228759765625 115.62979888916016" stroke-width="2" fill="none" stroke="rgb(0, 0, 0)" stroke-opacity="1.0" stroke-linecap="round" stroke-linejoin="round"/>
    <path d="M 74.54185485839844 152.0917205810547 C 95.05017852783203 172.30123901367188 6.8453898429870605 147.60379028320312 63.8609733581543 149.7732696533203" stroke-width="2" fill="none" stroke="rgb(0, 0, 0)" stroke-opacity="1.0" stroke-linecap="round" stroke-linejoin="round"/>
    <path d="M 162.7129364013672 100.63726806640625 C 208.58973693847656 11.326119422912598 149.5809326171875 108.2061767578125 133.3358917236328 97.86972045898438" stroke-width="2" fill="none" stroke="rgb(0, 0, 0)" stroke-opacity="1.0" stroke-linecap="round" stroke-linejoin="round"/>
    <path d="M 169.83091735839844 107.91341400146484 C 149.29000854492188 130.95330810546875 249.03857421875 195.91738891601562 48.86798858642578 144.3404541015625" stroke-width="2" fill="none" stroke="rgb(0, 0, 0)" stroke-opacity="1.0" stroke-linecap="round" stroke-linejoin="round"/>
    <path d="M 96.65923309326172 90.14008331298828 C 24.0133113861084 82.73724365234375 21.50735855102539 174.76400756835938 104.05437469482422 160.6474609375" stroke-width="2" fill="none" stroke="rgb(0, 0, 0)" stroke-opacity="1.0" stroke-linecap="round" stroke-linejoin="round"/>
    <path d="M 101.16836547851562 113.2857666015625 C 105.54161834716797 68.23753356933594 123.29553985595703 135.18301391601562 103.68622589111328 89.2305908203125" stroke-width="2" fill="none" stroke="rgb(0, 0, 0)" stroke-opacity="1.0" stroke-linecap="round" stroke-linejoin="round"/>
    <path d="M 159.99220275878906 101.1681900024414 C 167.03993225097656 164.04078674316406 201.9069366455078 1.0599762201309204 168.6732940673828 88.05254364013672" stroke-width="2" fill="none" stroke="rgb(0, 0, 0)" stroke-opacity="1.0" stroke-linecap="round" stroke-linejoin="round"/>
    <path d="M 118.9210205078125 130.65464782714844 C 64.95970916748047 135.2427520751953 211.01202392578125 144.33084106445312 116.79705810546875 116.66309356689453" stroke-width="2" fill="none" stroke="rgb(0, 0, 0)" stroke-opacity="1.0" stroke-linecap="round" stroke-linejoin="round"/>
  </g>
</svg>
