<?xml version="1.0" ?>
<svg xmlns="http://www.w3.org/2000/svg" version="1.1" width="224" height="224">
  <defs/>
  <g>
    <path d="M 135.8756561279297 123.9115219116211 C 77.17819213867188 125.56981658935547 177.29368591308594 117.32817077636719 123.3501205444336 109.54838562011719" stroke-width="2" fill="none" stroke="rgb(0, 0, 0)" stroke-opacity="1.0" stroke-linecap="round" stroke-linejoin="round"/>
    <path d="M 129.001953125 135.0890350341797 C 80.9917984008789 107.00152587890625 188.9090576171875 144.0955810546875 151.29318237304688 148.26329040527344" stroke-width="2" fill="none" stroke="rgb(0, 0, 0)" stroke-opacity="1.0" stroke-linecap="round" stroke-linejoin="round"/>
    <path d="M 150.55978393554688 100.0807876586914 C 196.79592895507812 122.90593719482422 122.69890594482422 103.42156982421875 159.05824279785156 117.25714874267578" stroke-width="2" fill="none" stroke="rgb(0, 0, 0)" stroke-opacity="1.0" stroke-linecap="round" stroke-linejoin="round"/>
    <path d="M 153.2474365234375 131.43238830566406 C 87.56927490234375 139.4445037841797 225.77401733398438 148.48809814453125 128.13116455078125 156.47830200195312" stroke-width="2" fill="none" stroke="rgb(0, 0, 0)" stroke-opacity="1.0" stroke-linecap="round" stroke-linejoin="round"/>
    <path d="M 128.95889282226562 105.8963623046875 C 69.20918273925781 127.28226470947266 217.6771697998047 149.0009002685547 116.56294250488281 139.65333557128906" stroke-width="2" fill="none" stroke="rgb(0, 0, 0)" stroke-opacity="1.0" stroke-linecap="round" stroke-linejoin="round"/>
    <path d="M 138.47882080078125 123.10518646240234 C 106.60562896728516 113.50752258300781 93.83890533447266 131.68197631835938 144.65867614746094 149.02105712890625" stroke-width="2" fill="none" stroke="rgb(0, 0, 0)" stroke-opacity="1.0" stroke-linecap="round" stroke-linejoin="round"/>
    <path d="M 101.37702941894531 76.28697967529297 C 142.0113525390625 71.07279205322266 116.35224151611328 123.33084106445312 178.62245178222656 60.420223236083984" stroke-width="2" fill="none" stroke="rgb(0, 0, 0)" stroke-opacity="1.0" stroke-linecap="round" stroke-linejoin="round"/>
    <path d="M 117.75390625 154.48699951171875 C 81.64525604248047 149.28082275390625 8.293294906616211 150.07827758789062 57.59249496459961 95.07789611816406" stroke-width="2" fill="none" stroke="rgb(0, 0, 0)" stroke-opacity="1.0" stroke-linecap="round" stroke-linejoin="round"/>
    <path d="M 155.43310546875 118.36701202392578 C 183.02288818359375 131.9257354736328 129.39974975585938 109.3007583618164 160.4424285888672 112.3697280883789" stroke-width="2" fill="none" stroke="rgb(0, 0, 0)" stroke-opacity="1.0" stroke-linecap="round" stroke-linejoin="round"/>
    <path d="M 106.58236694335938 116.02001190185547 C 120.69110107421875 153.12518310546875 153.08103942871094 148.16775512695312 96.90556335449219 135.19020080566406" stroke-width="2" fill="none" stroke="rgb(0, 0, 0)" stroke-opacity="1.0" stroke-linecap="round" stroke-linejoin="round"/>
    <path d="M 163.7218017578125 92.26448059082031 C 207.4867706298828 1.0699539184570312 175.69607543945312 143.98497009277344 154.59954833984375 112.17259216308594" stroke-width="2" fill="none" stroke="rgb(0, 0, 0)" stroke-opacity="1.0" stroke-linecap="round" stroke-linejoin="round"/>
    <path d="M 162.41094970703125 111.23564910888672 C 164.14784240722656 170.56121826171875 177.32679748535156 172.73974609375 51.20817947387695 153.6425323486328" stroke-width="2" fill="none" stroke="rgb(0, 0, 0)" stroke-opacity="1.0" stroke-linecap="round" stroke-linejoin="round"/>
    <path d="M 49.12114715576172 128.05479431152344 C 65.36341857910156 150.36131286621094 21.867658615112305 123.1843490600586 107.31452941894531 147.39566040039062" stroke-width="2" fill="none" stroke="rgb(0, 0, 0)" stroke-opacity="1.0" stroke-linecap="round" stroke-linejoin="round"/>
    <path d="M 110.46324920654297 104.0382080078125 C 97.78501892089844 87.94004821777344 114.01696014404297 84.98739624023438 109.6277084350586 136.36727905273438" stroke-width="2" fill="none" stroke="rgb(0, 0, 0)" stroke-opacity="1.0" stroke-linecap="round" stroke-linejoin="round"/>
    <path d="M 163.22421264648438 129.6063232421875 C 180.4169464111328 152.29287719726562 202.68458557128906 -11.981931686401367 164.28384399414062 93.5734634399414" stroke-width="2" fill="none" stroke="rgb(0, 0, 0)" stroke-opacity="1.0" stroke-linecap="round" stroke-linejoin="round"/>
    <path d="M 76.1610107421875 91.58051300048828 C 19.19034194946289 100.9804916381836 87.3608627319336 98.08494567871094 70.17511749267578 96.66686248779297" stroke-width="2" fill="none" stroke="rgb(0, 0, 0)" stroke-opacity="1.0" stroke-linecap="round" stroke-linejoin="round"/>
  </g>
</svg>
