<?xml version="1.0" ?>
<svg xmlns="http://www.w3.org/2000/svg" version="1.1" width="224" height="224">
  <defs/>
  <g>
    <path d="M 105.21126556396484 134.03005981445312 C 152.02748107910156 128.9912872314453 204.71875 156.41448974609375 121.43309020996094 112.47679901123047" stroke-width="2" fill="none" stroke="rgb(0, 0, 0)" stroke-opacity="1.0" stroke-linecap="round" stroke-linejoin="round"/>
    <path d="M 106.23576354980469 100.52424621582031 C 79.9178466796875 121.99018859863281 110.44974517822266 87.50563049316406 52.492340087890625 108.37019348144531" stroke-width="2" fill="none" stroke="rgb(0, 0, 0)" stroke-opacity="1.0" stroke-linecap="round" stroke-linejoin="round"/>
    <path d="M 153.4941864013672 126.51113891601562 C 71.98360443115234 139.88380432128906 136.9740753173828 52.55839157104492 154.88438415527344 104.10700225830078" stroke-width="2" fill="none" stroke="rgb(0, 0, 0)" stroke-opacity="1.0" stroke-linecap="round" stroke-linejoin="round"/>
    <path d="M 173.46096801757812 105.1138687133789 C 155.28118896484375 105.6048812866211 232.16949462890625 183.58926391601562 82.4365234375 151.83059692382812" stroke-width="2" fill="none" stroke="rgb(0, 0, 0)" stroke-opacity="1.0" stroke-linecap="round" stroke-linejoin="round"/>
    <path d="M 88.58553314208984 131.56732177734375 C 24.759382247924805 128.30201721191406 258.6332702636719 169.8024444580078 78.44385528564453 146.38169860839844" stroke-width="2" fill="none" stroke="rgb(0, 0, 0)" stroke-opacity="1.0" stroke-linecap="round" stroke-linejoin="round"/>
    <path d="M 63.995513916015625 162.3199462890625 C 22.668697357177734 161.3209228515625 25.988401412963867 109.4380111694336 63.53937911987305 95.83203125" stroke-width="2" fill="none" stroke="rgb(0, 0, 0)" stroke-opacity="1.0" stroke-linecap="round" stroke-linejoin="round"/>
    <path d="M 109.13986206054688 125.25039672851562 C 79.42533111572266 9.974396705627441 132.79055786132812 115.08428955078125 116.99205780029297 87.99768829345703" stroke-width="2" fill="none" stroke="rgb(0, 0, 0)" stroke-opacity="1.0" stroke-linecap="round" stroke-linejoin="round"/>
    <path d="M 101.91236877441406 146.42396545410156 C 66.40301513671875 152.59146118164062 48.298011779785156 126.68000793457031 69.13899230957031 145.9144287109375" stroke-width="2" fill="none" stroke="rgb(0, 0, 0)" stroke-opacity="1.0" stroke-linecap="round" stroke-linejoin="round"/>
    <path d="M 108.23912811279297 111.06181335449219 C 171.66453552246094 115.6491470336914 96.50146484375 134.1172332763672 136.57882690429688 117.3478775024414" stroke-width="2" fill="none" stroke="rgb(0, 0, 0)" stroke-opacity="1.0" stroke-linecap="round" stroke-linejoin="round"/>
    <path d="M 126.61237335205078 129.24996948242188 C 190.52085876464844 117.09274291992188 71.23408508300781 136.05972290039062 141.48410034179688 111.73407745361328" stroke-width="2" fill="none" stroke="rgb(0, 0, 0)" stroke-opacity="1.0" stroke-linecap="round" stroke-linejoin="round"/>
    <path d="M 158.49464416503906 97.67054748535156 C 191.9834747314453 34.822078704833984 149.69888305664062 123.79534149169922 110.64759063720703 78.4922866821289" stroke-width="2" fill="none" stroke="rgb(0, 0, 0)" stroke-opacity="1.0" stroke-linecap="round" stroke-linejoin="round"/>
    <path d="M 159.55323791503906 115.8680419921875 C 127.6319580078125 133.58285522460938 223.7285919189453 182.92977905273438 41.65816116333008 152.59564208984375" stroke-width="2" fill="none" stroke="rgb(0, 0, 0)" stroke-opacity="1.0" stroke-linecap="round" stroke-linejoin="round"/>
    <path d="M 53.11895751953125 135.77609252929688 C 44.2076416015625 119.73616790771484 11.57105827331543 152.0008544921875 82.60488891601562 152.47506713867188" stroke-width="2" fill="none" stroke="rgb(0, 0, 0)" stroke-opacity="1.0" stroke-linecap="round" stroke-linejoin="round"/>
    <path d="M 147.83895874023438 141.28565979003906 C 166.52816772460938 156.24359130859375 167.9295196533203 160.3017578125 171.39630126953125 136.4496307373047" stroke-width="2" fill="none" stroke="rgb(0, 0, 0)" stroke-opacity="1.0" stroke-linecap="round" stroke-linejoin="round"/>
    <path d="M 155.25323486328125 114.9833755493164 C 179.832275390625 154.7038116455078 201.5577850341797 -3.8689773082733154 167.52137756347656 85.75471496582031" stroke-width="2" fill="none" stroke="rgb(0, 0, 0)" stroke-opacity="1.0" stroke-linecap="round" stroke-linejoin="round"/>
    <path d="M 151.65597534179688 152.1723175048828 C 48.935977935791016 128.63931274414062 167.15090942382812 99.43343353271484 144.9119873046875 135.9972381591797" stroke-width="2" fill="none" stroke="rgb(0, 0, 0)" stroke-opacity="1.0" stroke-linecap="round" stroke-linejoin="round"/>
  </g>
</svg>
