<?xml version="1.0" ?>
<svg xmlns="http://www.w3.org/2000/svg" version="1.1" width="224" height="224">
  <defs/>
  <g>
    <path d="M 115.70185852050781 115.0083236694336 C 173.63282775878906 117.21220397949219 218.20614624023438 168.11111450195312 103.12612915039062 144.60093688964844" stroke-width="2" fill="none" stroke="rgb(0, 0, 0)" stroke-opacity="1.0" stroke-linecap="round" stroke-linejoin="round"/>
    <path d="M 124.22284698486328 93.47441101074219 C 104.42443084716797 120.35773468017578 121.93495178222656 81.88578796386719 57.960880279541016 100.10420227050781" stroke-width="2" fill="none" stroke="rgb(0, 0, 0)" stroke-opacity="1.0" stroke-linecap="round" stroke-linejoin="round"/>
    <path d="M 166.12295532226562 139.986328125 C 76.70096588134766 156.85386657714844 126.1191635131836 55.467185974121094 147.28851318359375 110.86138916015625" stroke-width="2" fill="none" stroke="rgb(0, 0, 0)" stroke-opacity="1.0" stroke-linecap="round" stroke-linejoin="round"/>
    <path d="M 174.86849975585938 104.06005859375 C 137.26499938964844 96.40535736083984 185.675537109375 153.62869262695312 97.5869369506836 124.69815826416016" stroke-width="2" fill="none" stroke="rgb(0, 0, 0)" stroke-opacity="1.0" stroke-linecap="round" stroke-linejoin="round"/>
    <path d="M 80.45552062988281 119.24336242675781 C 33.15779495239258 129.19216918945312 267.2643127441406 134.2971649169922 81.12899780273438 133.80357360839844" stroke-width="2" fill="none" stroke="rgb(0, 0, 0)" stroke-opacity="1.0" stroke-linecap="round" stroke-linejoin="round"/>
    <path d="M 60.275089263916016 99.21630096435547 C 41.248497009277344 114.9191665649414 56.190189361572266 107.74748229980469 50.842559814453125 121.29434204101562" stroke-width="2" fill="none" stroke="rgb(0, 0, 0)" stroke-opacity="1.0" stroke-linecap="round" stroke-linejoin="round"/>
    <path d="M 112.57608795166016 119.6166763305664 C 67.88709259033203 15.444499015808105 130.43692016601562 111.00548553466797 121.86529541015625 96.83821105957031" stroke-width="2" fill="none" stroke="rgb(0, 0, 0)" stroke-opacity="1.0" stroke-linecap="round" stroke-linejoin="round"/>
    <path d="M 108.11017608642578 145.68174743652344 C 69.84031677246094 154.68991088867188 65.50361633300781 124.79139709472656 78.52555084228516 146.4831085205078" stroke-width="2" fill="none" stroke="rgb(0, 0, 0)" stroke-opacity="1.0" stroke-linecap="round" stroke-linejoin="round"/>
    <path d="M 130.52896118164062 111.42559814453125 C 146.040771484375 134.79122924804688 73.32935333251953 114.89342498779297 146.4298553466797 108.96060943603516" stroke-width="2" fill="none" stroke="rgb(0, 0, 0)" stroke-opacity="1.0" stroke-linecap="round" stroke-linejoin="round"/>
    <path d="M 120.50907897949219 133.5402069091797 C 205.23114013671875 115.77581024169922 85.71964263916016 119.51174926757812 140.47544860839844 113.3231201171875" stroke-width="2" fill="none" stroke="rgb(0, 0, 0)" stroke-opacity="1.0" stroke-linecap="round" stroke-linejoin="round"/>
    <path d="M 152.2050323486328 95.56495666503906 C 194.96292114257812 20.323772430419922 151.5299530029297 121.36923217773438 116.77796936035156 76.0827407836914" stroke-width="2" fill="none" stroke="rgb(0, 0, 0)" stroke-opacity="1.0" stroke-linecap="round" stroke-linejoin="round"/>
    <path d="M 173.31655883789062 97.80742645263672 C 152.2565155029297 144.38157653808594 248.31324768066406 175.88934326171875 50.07675552368164 147.63650512695312" stroke-width="2" fill="none" stroke="rgb(0, 0, 0)" stroke-opacity="1.0" stroke-linecap="round" stroke-linejoin="round"/>
    <path d="M 54.46424865722656 112.8533935546875 C 49.635047912597656 92.09371185302734 5.523233413696289 156.78506469726562 76.43292999267578 148.865234375" stroke-width="2" fill="none" stroke="rgb(0, 0, 0)" stroke-opacity="1.0" stroke-linecap="round" stroke-linejoin="round"/>
    <path d="M 157.7614288330078 131.78958129882812 C 149.73802185058594 141.71304321289062 172.7570037841797 137.30685424804688 174.95126342773438 134.61585998535156" stroke-width="2" fill="none" stroke="rgb(0, 0, 0)" stroke-opacity="1.0" stroke-linecap="round" stroke-linejoin="round"/>
    <path d="M 157.1190643310547 101.10194396972656 C 181.99609375 149.24444580078125 187.77621459960938 9.359439849853516 169.75790405273438 87.07019805908203" stroke-width="2" fill="none" stroke="rgb(0, 0, 0)" stroke-opacity="1.0" stroke-linecap="round" stroke-linejoin="round"/>
    <path d="M 172.1435089111328 150.11288452148438 C 48.862152099609375 123.53983306884766 169.1994171142578 92.44548034667969 111.44440460205078 121.10945129394531" stroke-width="2" fill="none" stroke="rgb(0, 0, 0)" stroke-opacity="1.0" stroke-linecap="round" stroke-linejoin="round"/>
  </g>
</svg>
