<?xml version="1.0" ?>
<svg xmlns="http://www.w3.org/2000/svg" version="1.1" width="224" height="224">
  <defs/>
  <g>
    <path d="M 156.74465942382812 139.3314666748047 C 91.00187683105469 124.8289794921875 223.5249481201172 122.07662963867188 124.03267669677734 144.3583984375" stroke-width="2" fill="none" stroke="rgb(0, 0, 0)" stroke-opacity="1.0" stroke-linecap="round" stroke-linejoin="round"/>
    <path d="M 159.68800354003906 126.543212890625 C 54.162620544433594 132.37777709960938 99.02680206298828 114.32794952392578 74.86603546142578 116.98080444335938" stroke-width="2" fill="none" stroke="rgb(0, 0, 0)" stroke-opacity="1.0" stroke-linecap="round" stroke-linejoin="round"/>
    <path d="M 129.14208984375 113.25492858886719 C 143.29934692382812 129.5308074951172 111.04385375976562 98.59101867675781 172.94491577148438 110.62672424316406" stroke-width="2" fill="none" stroke="rgb(0, 0, 0)" stroke-opacity="1.0" stroke-linecap="round" stroke-linejoin="round"/>
    <path d="M 167.34527587890625 122.9466323852539 C 135.21327209472656 146.6306915283203 187.32553100585938 124.32747650146484 144.51271057128906 126.92322540283203" stroke-width="2" fill="none" stroke="rgb(0, 0, 0)" stroke-opacity="1.0" stroke-linecap="round" stroke-linejoin="round"/>
    <path d="M 152.6191864013672 121.74382019042969 C 110.30967712402344 109.81842803955078 235.22503662109375 162.64735412597656 115.68019104003906 123.01300048828125" stroke-width="2" fill="none" stroke="rgb(0, 0, 0)" stroke-opacity="1.0" stroke-linecap="round" stroke-linejoin="round"/>
    <path d="M 105.28036499023438 101.8261947631836 C 81.78947448730469 128.25433349609375 115.4646224975586 97.27191925048828 94.58744049072266 116.19950866699219" stroke-width="2" fill="none" stroke="rgb(0, 0, 0)" stroke-opacity="1.0" stroke-linecap="round" stroke-linejoin="round"/>
    <path d="M 97.39959716796875 99.6423568725586 C 91.37590789794922 -4.412631511688232 132.36361694335938 166.1614227294922 171.9643096923828 85.43499755859375" stroke-width="2" fill="none" stroke="rgb(0, 0, 0)" stroke-opacity="1.0" stroke-linecap="round" stroke-linejoin="round"/>
    <path d="M 51.15409851074219 111.75072479248047 C 29.7580623626709 139.7637176513672 45.82236862182617 145.5764923095703 72.5804672241211 142.468994140625" stroke-width="2" fill="none" stroke="rgb(0, 0, 0)" stroke-opacity="1.0" stroke-linecap="round" stroke-linejoin="round"/>
    <path d="M 78.97520446777344 141.9196014404297 C 285.3387145996094 166.8642120361328 66.64949798583984 128.8968963623047 125.17449951171875 131.97547912597656" stroke-width="2" fill="none" stroke="rgb(0, 0, 0)" stroke-opacity="1.0" stroke-linecap="round" stroke-linejoin="round"/>
    <path d="M 99.28094482421875 137.37347412109375 C 65.40560150146484 123.41246032714844 83.77444458007812 147.407470703125 111.26425170898438 159.70530700683594" stroke-width="2" fill="none" stroke="rgb(0, 0, 0)" stroke-opacity="1.0" stroke-linecap="round" stroke-linejoin="round"/>
    <path d="M 178.1095428466797 96.94847869873047 C 199.92247009277344 10.429906845092773 167.81924438476562 80.28746032714844 153.56231689453125 86.83892059326172" stroke-width="2" fill="none" stroke="rgb(0, 0, 0)" stroke-opacity="1.0" stroke-linecap="round" stroke-linejoin="round"/>
    <path d="M 176.7566680908203 106.29194641113281 C 134.132080078125 129.15895080566406 255.8187255859375 200.9116668701172 48.165767669677734 143.9949188232422" stroke-width="2" fill="none" stroke="rgb(0, 0, 0)" stroke-opacity="1.0" stroke-linecap="round" stroke-linejoin="round"/>
    <path d="M 97.07281494140625 97.7010269165039 C 31.23809814453125 81.3390121459961 28.178470611572266 150.063232421875 102.74806213378906 147.26332092285156" stroke-width="2" fill="none" stroke="rgb(0, 0, 0)" stroke-opacity="1.0" stroke-linecap="round" stroke-linejoin="round"/>
    <path d="M 127.62933349609375 134.18191528320312 C 133.12925720214844 75.9244384765625 115.56534576416016 139.5203094482422 100.78488159179688 68.71210479736328" stroke-width="2" fill="none" stroke="rgb(0, 0, 0)" stroke-opacity="1.0" stroke-linecap="round" stroke-linejoin="round"/>
    <path d="M 153.40252685546875 101.61697387695312 C 177.47232055664062 152.23974609375 184.1538848876953 30.976606369018555 177.33009338378906 88.99654388427734" stroke-width="2" fill="none" stroke="rgb(0, 0, 0)" stroke-opacity="1.0" stroke-linecap="round" stroke-linejoin="round"/>
    <path d="M 163.46487426757812 136.6050262451172 C 135.49606323242188 143.9481201171875 211.38243103027344 138.69189453125 137.70700073242188 135.4390106201172" stroke-width="2" fill="none" stroke="rgb(0, 0, 0)" stroke-opacity="1.0" stroke-linecap="round" stroke-linejoin="round"/>
  </g>
</svg>
