<?xml version="1.0" ?>
<svg xmlns="http://www.w3.org/2000/svg" version="1.1" width="224" height="224">
  <defs/>
  <g>
    <path d="M 112.34517669677734 137.17552185058594 C 68.22557067871094 106.16702270507812 123.44354248046875 163.1343536376953 111.66126251220703 111.60054016113281" stroke-width="2" fill="none" stroke="rgb(0, 0, 0)" stroke-opacity="1.0" stroke-linecap="round" stroke-linejoin="round"/>
    <path d="M 147.9341278076172 132.323486328125 C 79.23638916015625 140.654052734375 197.52122497558594 135.93209838867188 130.6922607421875 128.23912048339844" stroke-width="2" fill="none" stroke="rgb(0, 0, 0)" stroke-opacity="1.0" stroke-linecap="round" stroke-linejoin="round"/>
    <path d="M 156.61669921875 130.34677124023438 C 128.8153839111328 162.71923828125 99.94246673583984 119.52607727050781 98.85053253173828 123.11088562011719" stroke-width="2" fill="none" stroke="rgb(0, 0, 0)" stroke-opacity="1.0" stroke-linecap="round" stroke-linejoin="round"/>
    <path d="M 166.30633544921875 109.47673034667969 C 126.67686462402344 89.97247314453125 220.478515625 159.18202209472656 127.79251861572266 133.310546875" stroke-width="2" fill="none" stroke="rgb(0, 0, 0)" stroke-opacity="1.0" stroke-linecap="round" stroke-linejoin="round"/>
    <path d="M 124.87415313720703 119.51947021484375 C 77.92137908935547 129.20358276367188 153.3660430908203 110.29265594482422 104.94219970703125 113.67405700683594" stroke-width="2" fill="none" stroke="rgb(0, 0, 0)" stroke-opacity="1.0" stroke-linecap="round" stroke-linejoin="round"/>
    <path d="M 123.07939910888672 110.88490295410156 C 100.72006225585938 125.48321533203125 92.13874053955078 102.95173645019531 113.00922393798828 103.24943542480469" stroke-width="2" fill="none" stroke="rgb(0, 0, 0)" stroke-opacity="1.0" stroke-linecap="round" stroke-linejoin="round"/>
    <path d="M 94.88961791992188 75.32136535644531 C 117.0858383178711 68.12416076660156 109.25630187988281 122.08162689208984 170.78231811523438 86.85516357421875" stroke-width="2" fill="none" stroke="rgb(0, 0, 0)" stroke-opacity="1.0" stroke-linecap="round" stroke-linejoin="round"/>
    <path d="M 111.5238037109375 148.1229705810547 C 109.41888427734375 125.8309555053711 9.727149963378906 170.5280303955078 55.111175537109375 111.65447998046875" stroke-width="2" fill="none" stroke="rgb(0, 0, 0)" stroke-opacity="1.0" stroke-linecap="round" stroke-linejoin="round"/>
    <path d="M 140.13705444335938 120.89651489257812 C 183.54714965820312 118.37259674072266 107.6464614868164 109.1649398803711 144.26866149902344 118.0821304321289" stroke-width="2" fill="none" stroke="rgb(0, 0, 0)" stroke-opacity="1.0" stroke-linecap="round" stroke-linejoin="round"/>
    <path d="M 75.27101135253906 107.20203399658203 C 88.28136444091797 114.42455291748047 79.15782928466797 89.2936019897461 119.46014404296875 143.24755859375" stroke-width="2" fill="none" stroke="rgb(0, 0, 0)" stroke-opacity="1.0" stroke-linecap="round" stroke-linejoin="round"/>
    <path d="M 152.75575256347656 100.76602935791016 C 211.55838012695312 24.423295974731445 185.8891143798828 81.35453033447266 166.60040283203125 140.77816772460938" stroke-width="2" fill="none" stroke="rgb(0, 0, 0)" stroke-opacity="1.0" stroke-linecap="round" stroke-linejoin="round"/>
    <path d="M 167.58929443359375 102.20722961425781 C 185.38369750976562 178.4459991455078 177.4399871826172 151.62583923339844 112.46936798095703 152.1407470703125" stroke-width="2" fill="none" stroke="rgb(0, 0, 0)" stroke-opacity="1.0" stroke-linecap="round" stroke-linejoin="round"/>
    <path d="M 69.16818237304688 152.2816619873047 C 65.05978393554688 159.8543701171875 -8.852388381958008 126.65819549560547 105.30259704589844 152.7389678955078" stroke-width="2" fill="none" stroke="rgb(0, 0, 0)" stroke-opacity="1.0" stroke-linecap="round" stroke-linejoin="round"/>
    <path d="M 95.1916275024414 104.51766967773438 C 100.90058898925781 59.601478576660156 92.46066284179688 80.01556396484375 96.36852264404297 104.32845306396484" stroke-width="2" fill="none" stroke="rgb(0, 0, 0)" stroke-opacity="1.0" stroke-linecap="round" stroke-linejoin="round"/>
    <path d="M 172.72958374023438 91.48626708984375 C 147.04067993164062 132.00299072265625 198.4715576171875 80.13024139404297 182.8546600341797 84.61029815673828" stroke-width="2" fill="none" stroke="rgb(0, 0, 0)" stroke-opacity="1.0" stroke-linecap="round" stroke-linejoin="round"/>
    <path d="M 59.75307846069336 127.67274475097656 C 34.60803985595703 84.4488525390625 118.24711608886719 111.44868469238281 98.34976196289062 106.93567657470703" stroke-width="2" fill="none" stroke="rgb(0, 0, 0)" stroke-opacity="1.0" stroke-linecap="round" stroke-linejoin="round"/>
  </g>
</svg>
