<?xml version="1.0" ?>
<svg xmlns="http://www.w3.org/2000/svg" version="1.1" width="224" height="224">
  <defs/>
  <g>
    <path d="M 140.81869506835938 134.65638732910156 C 69.07785034179688 135.59861755371094 184.1342315673828 131.4295196533203 127.87928771972656 123.12871551513672" stroke-width="2" fill="none" stroke="rgb(0, 0, 0)" stroke-opacity="1.0" stroke-linecap="round" stroke-linejoin="round"/>
    <path d="M 134.6407012939453 142.21560668945312 C 56.00284194946289 111.14634704589844 158.5341796875 118.1724624633789 98.23968505859375 121.02823638916016" stroke-width="2" fill="none" stroke="rgb(0, 0, 0)" stroke-opacity="1.0" stroke-linecap="round" stroke-linejoin="round"/>
    <path d="M 111.36848449707031 131.34194946289062 C 122.22380065917969 119.00511932373047 84.45722961425781 83.83402252197266 167.9888458251953 91.26335906982422" stroke-width="2" fill="none" stroke="rgb(0, 0, 0)" stroke-opacity="1.0" stroke-linecap="round" stroke-linejoin="round"/>
    <path d="M 155.040283203125 120.04803466796875 C 104.5615463256836 94.15773010253906 204.5091552734375 130.22024536132812 95.94792175292969 122.04795837402344" stroke-width="2" fill="none" stroke="rgb(0, 0, 0)" stroke-opacity="1.0" stroke-linecap="round" stroke-linejoin="round"/>
    <path d="M 141.8236541748047 138.832763671875 C 75.04780578613281 125.84416961669922 204.87081909179688 162.37445068359375 84.64183807373047 144.2890625" stroke-width="2" fill="none" stroke="rgb(0, 0, 0)" stroke-opacity="1.0" stroke-linecap="round" stroke-linejoin="round"/>
    <path d="M 69.95481872558594 118.0848388671875 C 43.06846237182617 117.53965759277344 91.10828399658203 110.75188446044922 81.7710952758789 124.12183380126953" stroke-width="2" fill="none" stroke="rgb(0, 0, 0)" stroke-opacity="1.0" stroke-linecap="round" stroke-linejoin="round"/>
    <path d="M 113.4642105102539 104.32715606689453 C 81.43030548095703 8.100375175476074 148.5660858154297 139.20579528808594 172.5320587158203 84.96900939941406" stroke-width="2" fill="none" stroke="rgb(0, 0, 0)" stroke-opacity="1.0" stroke-linecap="round" stroke-linejoin="round"/>
    <path d="M 57.338478088378906 130.5435028076172 C 42.69163131713867 116.14049530029297 21.150806427001953 154.56649780273438 61.08055877685547 154.77610778808594" stroke-width="2" fill="none" stroke="rgb(0, 0, 0)" stroke-opacity="1.0" stroke-linecap="round" stroke-linejoin="round"/>
    <path d="M 113.48731994628906 138.0739288330078 C 188.1748046875 167.54672241210938 149.18832397460938 109.2074203491211 169.3415069580078 131.42396545410156" stroke-width="2" fill="none" stroke="rgb(0, 0, 0)" stroke-opacity="1.0" stroke-linecap="round" stroke-linejoin="round"/>
    <path d="M 53.97652816772461 140.67813110351562 C 125.66876220703125 165.5603485107422 34.3056640625 141.9158172607422 69.49916076660156 155.80865478515625" stroke-width="2" fill="none" stroke="rgb(0, 0, 0)" stroke-opacity="1.0" stroke-linecap="round" stroke-linejoin="round"/>
    <path d="M 165.39830017089844 120.32777404785156 C 213.2505340576172 9.915714263916016 162.44760131835938 105.03597259521484 147.2805633544922 93.18304443359375" stroke-width="2" fill="none" stroke="rgb(0, 0, 0)" stroke-opacity="1.0" stroke-linecap="round" stroke-linejoin="round"/>
    <path d="M 178.71102905273438 114.17707824707031 C 149.5017852783203 128.29275512695312 242.1526336669922 204.07936096191406 64.97923278808594 139.42898559570312" stroke-width="2" fill="none" stroke="rgb(0, 0, 0)" stroke-opacity="1.0" stroke-linecap="round" stroke-linejoin="round"/>
    <path d="M 100.95570373535156 86.11906433105469 C 20.643245697021484 82.0069808959961 10.246232032775879 167.72335815429688 123.2336654663086 163.04000854492188" stroke-width="2" fill="none" stroke="rgb(0, 0, 0)" stroke-opacity="1.0" stroke-linecap="round" stroke-linejoin="round"/>
    <path d="M 130.1295166015625 139.87176513671875 C 151.59605407714844 136.81605529785156 65.38346862792969 144.24313354492188 131.67855834960938 119.08403015136719" stroke-width="2" fill="none" stroke="rgb(0, 0, 0)" stroke-opacity="1.0" stroke-linecap="round" stroke-linejoin="round"/>
    <path d="M 150.2874298095703 101.56973266601562 C 168.65150451660156 151.3900909423828 211.40113830566406 8.178260803222656 166.13063049316406 82.43225860595703" stroke-width="2" fill="none" stroke="rgb(0, 0, 0)" stroke-opacity="1.0" stroke-linecap="round" stroke-linejoin="round"/>
    <path d="M 144.10626220703125 122.78363037109375 C 53.46445083618164 123.13993835449219 185.4532470703125 120.77566528320312 137.6288299560547 120.85205078125" stroke-width="2" fill="none" stroke="rgb(0, 0, 0)" stroke-opacity="1.0" stroke-linecap="round" stroke-linejoin="round"/>
  </g>
</svg>
