<?xml version="1.0" ?>
<svg xmlns="http://www.w3.org/2000/svg" version="1.1" width="224" height="224">
  <defs/>
  <g>
    <path d="M 155.49942016601562 121.24972534179688 C 98.45357513427734 152.65023803710938 185.78744506835938 117.40528106689453 127.7203140258789 118.04278564453125" stroke-width="2" fill="none" stroke="rgb(0, 0, 0)" stroke-opacity="1.0" stroke-linecap="round" stroke-linejoin="round"/>
    <path d="M 159.08229064941406 138.83628845214844 C 46.56645202636719 102.15296173095703 138.90208435058594 120.94066619873047 85.11221313476562 115.65240478515625" stroke-width="2" fill="none" stroke="rgb(0, 0, 0)" stroke-opacity="1.0" stroke-linecap="round" stroke-linejoin="round"/>
    <path d="M 113.8606948852539 97.18202209472656 C 158.11688232421875 101.61476135253906 77.69900512695312 90.54610443115234 167.07981872558594 89.2503662109375" stroke-width="2" fill="none" stroke="rgb(0, 0, 0)" stroke-opacity="1.0" stroke-linecap="round" stroke-linejoin="round"/>
    <path d="M 140.3352508544922 129.7947540283203 C 87.33193969726562 112.47516632080078 231.893798828125 122.3879165649414 125.83570098876953 127.15768432617188" stroke-width="2" fill="none" stroke="rgb(0, 0, 0)" stroke-opacity="1.0" stroke-linecap="round" stroke-linejoin="round"/>
    <path d="M 147.54833984375 142.8775177001953 C 121.99259185791016 140.13665771484375 240.13270568847656 151.0633087158203 99.4466781616211 132.22509765625" stroke-width="2" fill="none" stroke="rgb(0, 0, 0)" stroke-opacity="1.0" stroke-linecap="round" stroke-linejoin="round"/>
    <path d="M 80.67998504638672 102.03636169433594 C 60.36011505126953 110.11589813232422 101.25108337402344 91.36923217773438 109.34326171875 129.06996154785156" stroke-width="2" fill="none" stroke="rgb(0, 0, 0)" stroke-opacity="1.0" stroke-linecap="round" stroke-linejoin="round"/>
    <path d="M 111.92345428466797 109.15937805175781 C 80.13391876220703 8.578107833862305 132.21170043945312 140.90103149414062 170.25698852539062 83.40467834472656" stroke-width="2" fill="none" stroke="rgb(0, 0, 0)" stroke-opacity="1.0" stroke-linecap="round" stroke-linejoin="round"/>
    <path d="M 62.92301940917969 125.04854583740234 C 47.83676528930664 100.28734588623047 27.10361099243164 148.87290954589844 62.5252571105957 150.7888641357422" stroke-width="2" fill="none" stroke="rgb(0, 0, 0)" stroke-opacity="1.0" stroke-linecap="round" stroke-linejoin="round"/>
    <path d="M 118.99290466308594 142.48988342285156 C 212.99383544921875 146.8419952392578 136.43455505371094 96.7266616821289 161.72335815429688 125.68266296386719" stroke-width="2" fill="none" stroke="rgb(0, 0, 0)" stroke-opacity="1.0" stroke-linecap="round" stroke-linejoin="round"/>
    <path d="M 92.31709289550781 142.5742950439453 C 126.02488708496094 163.28994750976562 21.296279907226562 141.86526489257812 65.39196014404297 148.99700927734375" stroke-width="2" fill="none" stroke="rgb(0, 0, 0)" stroke-opacity="1.0" stroke-linecap="round" stroke-linejoin="round"/>
    <path d="M 168.17408752441406 120.92745208740234 C 217.52877807617188 -3.263838768005371 155.9297332763672 97.06190490722656 140.90235900878906 90.45684814453125" stroke-width="2" fill="none" stroke="rgb(0, 0, 0)" stroke-opacity="1.0" stroke-linecap="round" stroke-linejoin="round"/>
    <path d="M 162.25730895996094 107.76146697998047 C 139.76419067382812 121.35271453857422 240.64918518066406 182.66558837890625 59.563777923583984 136.60885620117188" stroke-width="2" fill="none" stroke="rgb(0, 0, 0)" stroke-opacity="1.0" stroke-linecap="round" stroke-linejoin="round"/>
    <path d="M 95.53218078613281 85.29118347167969 C 23.842126846313477 86.15684509277344 31.767623901367188 152.9462890625 120.17140197753906 161.8827362060547" stroke-width="2" fill="none" stroke="rgb(0, 0, 0)" stroke-opacity="1.0" stroke-linecap="round" stroke-linejoin="round"/>
    <path d="M 109.85763549804688 127.22257995605469 C 112.94129180908203 100.90522766113281 97.86759185791016 149.5013885498047 134.6814727783203 118.53588104248047" stroke-width="2" fill="none" stroke="rgb(0, 0, 0)" stroke-opacity="1.0" stroke-linecap="round" stroke-linejoin="round"/>
    <path d="M 156.06903076171875 94.88255310058594 C 169.95028686523438 146.38758850097656 213.82730102539062 -0.7126164436340332 165.50706481933594 91.64457702636719" stroke-width="2" fill="none" stroke="rgb(0, 0, 0)" stroke-opacity="1.0" stroke-linecap="round" stroke-linejoin="round"/>
    <path d="M 121.21489715576172 141.80279541015625 C 75.88607788085938 113.19092559814453 186.91778564453125 128.9386749267578 132.15174865722656 115.01874542236328" stroke-width="2" fill="none" stroke="rgb(0, 0, 0)" stroke-opacity="1.0" stroke-linecap="round" stroke-linejoin="round"/>
  </g>
</svg>
