<?xml version="1.0" ?>
<svg xmlns="http://www.w3.org/2000/svg" version="1.1" width="224" height="224">
  <defs/>
  <g>
    <path d="M 144.90574645996094 124.42008209228516 C 90.37775421142578 139.09735107421875 185.84564208984375 126.88401794433594 125.72084045410156 123.7380142211914" stroke-width="2" fill="none" stroke="rgb(0, 0, 0)" stroke-opacity="1.0" stroke-linecap="round" stroke-linejoin="round"/>
    <path d="M 107.64281463623047 125.51580047607422 C 51.770137786865234 101.29303741455078 174.63084411621094 157.1182861328125 157.45445251464844 142.2865753173828" stroke-width="2" fill="none" stroke="rgb(0, 0, 0)" stroke-opacity="1.0" stroke-linecap="round" stroke-linejoin="round"/>
    <path d="M 177.29359436035156 74.20366668701172 C 169.8821563720703 104.21648406982422 143.60426330566406 78.55216217041016 170.09780883789062 103.0771484375" stroke-width="2" fill="none" stroke="rgb(0, 0, 0)" stroke-opacity="1.0" stroke-linecap="round" stroke-linejoin="round"/>
    <path d="M 176.72726440429688 117.55978393554688 C 140.5763702392578 143.82044982910156 215.78611755371094 119.81753540039062 140.7227325439453 116.13768768310547" stroke-width="2" fill="none" stroke="rgb(0, 0, 0)" stroke-opacity="1.0" stroke-linecap="round" stroke-linejoin="round"/>
    <path d="M 150.51319885253906 114.3174057006836 C 100.14415740966797 101.16978454589844 265.7518005371094 159.70553588867188 121.23939514160156 149.14871215820312" stroke-width="2" fill="none" stroke="rgb(0, 0, 0)" stroke-opacity="1.0" stroke-linecap="round" stroke-linejoin="round"/>
    <path d="M 145.24107360839844 129.17979431152344 C 107.5994644165039 126.00389099121094 124.42658233642578 131.13450622558594 140.59487915039062 134.2939910888672" stroke-width="2" fill="none" stroke="rgb(0, 0, 0)" stroke-opacity="1.0" stroke-linecap="round" stroke-linejoin="round"/>
    <path d="M 124.98462677001953 73.3901596069336 C 164.25759887695312 64.66075897216797 139.7758026123047 103.29299926757812 172.4010772705078 62.787986755371094" stroke-width="2" fill="none" stroke="rgb(0, 0, 0)" stroke-opacity="1.0" stroke-linecap="round" stroke-linejoin="round"/>
    <path d="M 72.50322723388672 154.83779907226562 C 107.17057037353516 167.95603942871094 0.8471292853355408 154.15634155273438 54.78443145751953 98.46383666992188" stroke-width="2" fill="none" stroke="rgb(0, 0, 0)" stroke-opacity="1.0" stroke-linecap="round" stroke-linejoin="round"/>
    <path d="M 152.08279418945312 125.89067077636719 C 182.0061798095703 134.047607421875 144.72621154785156 102.4303207397461 172.67335510253906 124.77346801757812" stroke-width="2" fill="none" stroke="rgb(0, 0, 0)" stroke-opacity="1.0" stroke-linecap="round" stroke-linejoin="round"/>
    <path d="M 122.53623962402344 90.79894256591797 C 101.62397766113281 103.28536987304688 115.59574127197266 112.6797103881836 117.3685073852539 91.27178192138672" stroke-width="2" fill="none" stroke="rgb(0, 0, 0)" stroke-opacity="1.0" stroke-linecap="round" stroke-linejoin="round"/>
    <path d="M 154.5435028076172 75.38394927978516 C 217.95797729492188 -0.16953301429748535 165.822265625 119.30026245117188 158.48138427734375 89.2823257446289" stroke-width="2" fill="none" stroke="rgb(0, 0, 0)" stroke-opacity="1.0" stroke-linecap="round" stroke-linejoin="round"/>
    <path d="M 168.5153350830078 94.43268585205078 C 193.96205139160156 186.84974670410156 200.9414825439453 174.96888732910156 52.38628005981445 130.33566284179688" stroke-width="2" fill="none" stroke="rgb(0, 0, 0)" stroke-opacity="1.0" stroke-linecap="round" stroke-linejoin="round"/>
    <path d="M 43.70384979248047 137.73582458496094 C 56.845985412597656 121.01744079589844 32.60739517211914 143.62852478027344 113.9664306640625 156.7544708251953" stroke-width="2" fill="none" stroke="rgb(0, 0, 0)" stroke-opacity="1.0" stroke-linecap="round" stroke-linejoin="round"/>
    <path d="M 113.67806243896484 140.32345581054688 C 90.88655853271484 110.11483764648438 120.61560821533203 129.2321014404297 108.84063720703125 99.70667266845703" stroke-width="2" fill="none" stroke="rgb(0, 0, 0)" stroke-opacity="1.0" stroke-linecap="round" stroke-linejoin="round"/>
    <path d="M 154.0001220703125 128.90057373046875 C 186.64013671875 138.70230102539062 199.4182586669922 -18.47901725769043 168.04725646972656 84.03140258789062" stroke-width="2" fill="none" stroke="rgb(0, 0, 0)" stroke-opacity="1.0" stroke-linecap="round" stroke-linejoin="round"/>
    <path d="M 97.04036712646484 116.3755111694336 C 75.43061828613281 97.23251342773438 112.36483764648438 84.82408142089844 53.16370391845703 99.14096069335938" stroke-width="2" fill="none" stroke="rgb(0, 0, 0)" stroke-opacity="1.0" stroke-linecap="round" stroke-linejoin="round"/>
  </g>
</svg>
