<?xml version="1.0" ?>
<svg xmlns="http://www.w3.org/2000/svg" version="1.1" width="224" height="224">
  <defs/>
  <g>
    <path d="M 156.6992950439453 121.32220458984375 C 92.22502899169922 147.4545440673828 186.41159057617188 124.14198303222656 135.3326416015625 120.49018096923828" stroke-width="2" fill="none" stroke="rgb(0, 0, 0)" stroke-opacity="1.0" stroke-linecap="round" stroke-linejoin="round"/>
    <path d="M 156.58590698242188 145.9796905517578 C 50.3248405456543 96.31865692138672 116.79744720458984 116.45310974121094 89.15084838867188 128.04685974121094" stroke-width="2" fill="none" stroke="rgb(0, 0, 0)" stroke-opacity="1.0" stroke-linecap="round" stroke-linejoin="round"/>
    <path d="M 117.99237060546875 110.60107421875 C 134.1535186767578 100.743408203125 65.62981414794922 101.12210083007812 169.1373291015625 95.33634948730469" stroke-width="2" fill="none" stroke="rgb(0, 0, 0)" stroke-opacity="1.0" stroke-linecap="round" stroke-linejoin="round"/>
    <path d="M 144.42909240722656 125.46051788330078 C 74.99567413330078 104.02130126953125 219.47332763671875 127.43888092041016 120.10504913330078 122.30847930908203" stroke-width="2" fill="none" stroke="rgb(0, 0, 0)" stroke-opacity="1.0" stroke-linecap="round" stroke-linejoin="round"/>
    <path d="M 145.5940704345703 131.23085021972656 C 103.88806915283203 143.504638671875 221.7194061279297 154.77294921875 90.4732666015625 127.13623046875" stroke-width="2" fill="none" stroke="rgb(0, 0, 0)" stroke-opacity="1.0" stroke-linecap="round" stroke-linejoin="round"/>
    <path d="M 91.1869125366211 116.58372497558594 C 67.14891052246094 126.95248413085938 86.24236297607422 101.65055847167969 104.4905014038086 135.60304260253906" stroke-width="2" fill="none" stroke="rgb(0, 0, 0)" stroke-opacity="1.0" stroke-linecap="round" stroke-linejoin="round"/>
    <path d="M 108.6124267578125 116.42308807373047 C 67.67166900634766 2.5784270763397217 127.18811798095703 141.2783966064453 178.09889221191406 82.78218841552734" stroke-width="2" fill="none" stroke="rgb(0, 0, 0)" stroke-opacity="1.0" stroke-linecap="round" stroke-linejoin="round"/>
    <path d="M 58.643062591552734 138.2110595703125 C 47.20814895629883 130.4485626220703 37.5880241394043 150.6500701904297 73.93109893798828 150.0970916748047" stroke-width="2" fill="none" stroke="rgb(0, 0, 0)" stroke-opacity="1.0" stroke-linecap="round" stroke-linejoin="round"/>
    <path d="M 124.11663818359375 142.6835479736328 C 210.28106689453125 151.90927124023438 147.09498596191406 86.77813720703125 171.37745666503906 119.55754852294922" stroke-width="2" fill="none" stroke="rgb(0, 0, 0)" stroke-opacity="1.0" stroke-linecap="round" stroke-linejoin="round"/>
    <path d="M 81.57482147216797 142.2953338623047 C 128.05152893066406 162.6857452392578 24.870819091796875 139.63853454589844 80.21456146240234 154.85369873046875" stroke-width="2" fill="none" stroke="rgb(0, 0, 0)" stroke-opacity="1.0" stroke-linecap="round" stroke-linejoin="round"/>
    <path d="M 172.6792755126953 119.2831039428711 C 214.48556518554688 -3.959047794342041 161.36631774902344 99.4013900756836 150.19198608398438 92.74653625488281" stroke-width="2" fill="none" stroke="rgb(0, 0, 0)" stroke-opacity="1.0" stroke-linecap="round" stroke-linejoin="round"/>
    <path d="M 172.7601318359375 111.27947235107422 C 141.09576416015625 121.95467376708984 249.63294982910156 178.7327423095703 59.39305114746094 140.10763549804688" stroke-width="2" fill="none" stroke="rgb(0, 0, 0)" stroke-opacity="1.0" stroke-linecap="round" stroke-linejoin="round"/>
    <path d="M 98.04911041259766 85.35189819335938 C 18.533321380615234 83.80596160888672 16.35104751586914 161.36585998535156 98.6844253540039 157.46881103515625" stroke-width="2" fill="none" stroke="rgb(0, 0, 0)" stroke-opacity="1.0" stroke-linecap="round" stroke-linejoin="round"/>
    <path d="M 122.35236358642578 126.90376281738281 C 139.42645263671875 103.44854736328125 118.98139953613281 151.6818389892578 127.1507797241211 122.98880767822266" stroke-width="2" fill="none" stroke="rgb(0, 0, 0)" stroke-opacity="1.0" stroke-linecap="round" stroke-linejoin="round"/>
    <path d="M 154.54498291015625 101.03559875488281 C 170.47508239746094 150.90945434570312 213.76742553710938 -10.664531707763672 168.14645385742188 96.54446411132812" stroke-width="2" fill="none" stroke="rgb(0, 0, 0)" stroke-opacity="1.0" stroke-linecap="round" stroke-linejoin="round"/>
    <path d="M 143.44882202148438 136.45802307128906 C 80.69220733642578 116.31707763671875 188.00912475585938 119.38199615478516 138.33688354492188 109.7830581665039" stroke-width="2" fill="none" stroke="rgb(0, 0, 0)" stroke-opacity="1.0" stroke-linecap="round" stroke-linejoin="round"/>
  </g>
</svg>
