<?xml version="1.0" ?>
<svg xmlns="http://www.w3.org/2000/svg" version="1.1" width="224" height="224">
  <defs/>
  <g>
    <path d="M 134.5397186279297 116.15333557128906 C 78.43946075439453 156.33975219726562 198.86952209472656 137.48121643066406 143.1492919921875 136.899169921875" stroke-width="2" fill="none" stroke="rgb(0, 0, 0)" stroke-opacity="1.0" stroke-linecap="round" stroke-linejoin="round"/>
    <path d="M 115.34030151367188 135.20021057128906 C 74.93122863769531 109.53457641601562 151.1876220703125 171.0456085205078 174.66177368164062 149.1029052734375" stroke-width="2" fill="none" stroke="rgb(0, 0, 0)" stroke-opacity="1.0" stroke-linecap="round" stroke-linejoin="round"/>
    <path d="M 173.7060546875 72.2802505493164 C 169.43136596679688 112.33240509033203 155.38783264160156 79.08949279785156 168.9851837158203 100.8960952758789" stroke-width="2" fill="none" stroke="rgb(0, 0, 0)" stroke-opacity="1.0" stroke-linecap="round" stroke-linejoin="round"/>
    <path d="M 164.68846130371094 125.12268829345703 C 129.06390380859375 110.95771026611328 206.84133911132812 128.52523803710938 143.8519287109375 132.323974609375" stroke-width="2" fill="none" stroke="rgb(0, 0, 0)" stroke-opacity="1.0" stroke-linecap="round" stroke-linejoin="round"/>
    <path d="M 156.80067443847656 117.89844512939453 C 121.13119506835938 104.18307495117188 254.9488525390625 183.15740966796875 77.39696502685547 153.05430603027344" stroke-width="2" fill="none" stroke="rgb(0, 0, 0)" stroke-opacity="1.0" stroke-linecap="round" stroke-linejoin="round"/>
    <path d="M 156.15696716308594 134.75982666015625 C 127.94386291503906 120.8782730102539 142.23512268066406 147.28659057617188 147.77151489257812 129.97647094726562" stroke-width="2" fill="none" stroke="rgb(0, 0, 0)" stroke-opacity="1.0" stroke-linecap="round" stroke-linejoin="round"/>
    <path d="M 99.96308898925781 68.62867736816406 C 158.67898559570312 57.9536018371582 129.2781219482422 129.22821044921875 173.8272705078125 59.233909606933594" stroke-width="2" fill="none" stroke="rgb(0, 0, 0)" stroke-opacity="1.0" stroke-linecap="round" stroke-linejoin="round"/>
    <path d="M 47.27910232543945 143.38755798339844 C 114.11588287353516 165.93150329589844 -7.430994987487793 147.00482177734375 68.47163391113281 96.9787368774414" stroke-width="2" fill="none" stroke="rgb(0, 0, 0)" stroke-opacity="1.0" stroke-linecap="round" stroke-linejoin="round"/>
    <path d="M 154.59817504882812 122.28545379638672 C 187.98416137695312 126.35742950439453 139.6743621826172 106.81671905517578 166.3499755859375 122.84172058105469" stroke-width="2" fill="none" stroke="rgb(0, 0, 0)" stroke-opacity="1.0" stroke-linecap="round" stroke-linejoin="round"/>
    <path d="M 131.45654296875 123.88240051269531 C 103.44483184814453 140.55633544921875 123.86810302734375 121.9295654296875 120.62820434570312 113.04966735839844" stroke-width="2" fill="none" stroke="rgb(0, 0, 0)" stroke-opacity="1.0" stroke-linecap="round" stroke-linejoin="round"/>
    <path d="M 146.8769073486328 77.17329406738281 C 223.07601928710938 0.20810779929161072 165.5843963623047 101.08158874511719 128.133056640625 90.45614624023438" stroke-width="2" fill="none" stroke="rgb(0, 0, 0)" stroke-opacity="1.0" stroke-linecap="round" stroke-linejoin="round"/>
    <path d="M 172.4920654296875 113.795654296875 C 175.95738220214844 182.78826904296875 183.72227478027344 173.0265655517578 50.039772033691406 134.92678833007812" stroke-width="2" fill="none" stroke="rgb(0, 0, 0)" stroke-opacity="1.0" stroke-linecap="round" stroke-linejoin="round"/>
    <path d="M 68.25130462646484 103.45729064941406 C 29.748214721679688 108.393798828125 8.876351356506348 155.49676513671875 110.7403335571289 164.7443084716797" stroke-width="2" fill="none" stroke="rgb(0, 0, 0)" stroke-opacity="1.0" stroke-linecap="round" stroke-linejoin="round"/>
    <path d="M 108.83800506591797 146.49032592773438 C 100.90523529052734 142.30661010742188 144.3184814453125 168.9185791015625 106.13471221923828 97.28388977050781" stroke-width="2" fill="none" stroke="rgb(0, 0, 0)" stroke-opacity="1.0" stroke-linecap="round" stroke-linejoin="round"/>
    <path d="M 165.28221130371094 111.20906829833984 C 178.7763671875 137.06764221191406 203.4311065673828 -8.174070358276367 169.48533630371094 87.79718017578125" stroke-width="2" fill="none" stroke="rgb(0, 0, 0)" stroke-opacity="1.0" stroke-linecap="round" stroke-linejoin="round"/>
    <path d="M 96.37174224853516 134.61538696289062 C 76.72832489013672 124.72249603271484 106.35481262207031 122.43548583984375 48.59694290161133 117.98438262939453" stroke-width="2" fill="none" stroke="rgb(0, 0, 0)" stroke-opacity="1.0" stroke-linecap="round" stroke-linejoin="round"/>
  </g>
</svg>
