<?xml version="1.0" ?>
<svg xmlns="http://www.w3.org/2000/svg" version="1.1" width="224" height="224">
  <defs/>
  <g>
    <path d="M 132.60931396484375 98.62982177734375 C 51.47345733642578 136.85804748535156 220.44390869140625 151.20616149902344 113.8431167602539 128.65106201171875" stroke-width="2" fill="none" stroke="rgb(0, 0, 0)" stroke-opacity="1.0" stroke-linecap="round" stroke-linejoin="round"/>
    <path d="M 124.24693298339844 123.28720092773438 C 76.01589965820312 124.42491149902344 119.0687255859375 114.54578399658203 89.94390869140625 117.0563735961914" stroke-width="2" fill="none" stroke="rgb(0, 0, 0)" stroke-opacity="1.0" stroke-linecap="round" stroke-linejoin="round"/>
    <path d="M 176.69207763671875 70.82313537597656 C 172.3159942626953 131.92044067382812 120.04837036132812 86.31684112548828 169.37890625 89.44395446777344" stroke-width="2" fill="none" stroke="rgb(0, 0, 0)" stroke-opacity="1.0" stroke-linecap="round" stroke-linejoin="round"/>
    <path d="M 144.15145874023438 130.3218231201172 C 150.46511840820312 127.22944641113281 175.0193634033203 145.1688690185547 138.89797973632812 115.62092590332031" stroke-width="2" fill="none" stroke="rgb(0, 0, 0)" stroke-opacity="1.0" stroke-linecap="round" stroke-linejoin="round"/>
    <path d="M 167.4933319091797 109.1001205444336 C 111.12250518798828 48.32656478881836 228.20733642578125 162.42718505859375 79.2947006225586 132.68296813964844" stroke-width="2" fill="none" stroke="rgb(0, 0, 0)" stroke-opacity="1.0" stroke-linecap="round" stroke-linejoin="round"/>
    <path d="M 157.15846252441406 120.16879272460938 C 100.39958190917969 123.22364044189453 165.48287963867188 113.17684173583984 141.40354919433594 122.32907104492188" stroke-width="2" fill="none" stroke="rgb(0, 0, 0)" stroke-opacity="1.0" stroke-linecap="round" stroke-linejoin="round"/>
    <path d="M 109.61720275878906 109.34954071044922 C 88.02177429199219 2.0612616539001465 132.10714721679688 143.32559204101562 172.15782165527344 82.86475372314453" stroke-width="2" fill="none" stroke="rgb(0, 0, 0)" stroke-opacity="1.0" stroke-linecap="round" stroke-linejoin="round"/>
    <path d="M 60.09695816040039 113.18838500976562 C 62.969139099121094 124.17318725585938 39.47368240356445 108.27700805664062 50.04051208496094 124.92240142822266" stroke-width="2" fill="none" stroke="rgb(0, 0, 0)" stroke-opacity="1.0" stroke-linecap="round" stroke-linejoin="round"/>
    <path d="M 110.2962646484375 148.6793975830078 C 244.03294372558594 162.21868896484375 61.130062103271484 142.1513671875 136.6480255126953 135.40689086914062" stroke-width="2" fill="none" stroke="rgb(0, 0, 0)" stroke-opacity="1.0" stroke-linecap="round" stroke-linejoin="round"/>
    <path d="M 132.5963592529297 135.18089294433594 C 91.14812469482422 156.0054473876953 127.04765319824219 108.16178131103516 93.40420532226562 123.88816833496094" stroke-width="2" fill="none" stroke="rgb(0, 0, 0)" stroke-opacity="1.0" stroke-linecap="round" stroke-linejoin="round"/>
    <path d="M 168.32745361328125 80.92815399169922 C 203.1385498046875 -0.5094643235206604 151.9266357421875 99.88697052001953 130.78016662597656 89.4926528930664" stroke-width="2" fill="none" stroke="rgb(0, 0, 0)" stroke-opacity="1.0" stroke-linecap="round" stroke-linejoin="round"/>
    <path d="M 172.41754150390625 104.50305938720703 C 142.0562744140625 137.40261840820312 243.63465881347656 170.14967346191406 78.44851684570312 162.38417053222656" stroke-width="2" fill="none" stroke="rgb(0, 0, 0)" stroke-opacity="1.0" stroke-linecap="round" stroke-linejoin="round"/>
    <path d="M 92.68623352050781 95.95030212402344 C 47.3964729309082 80.14600372314453 5.063793182373047 162.47401428222656 107.92729187011719 145.94139099121094" stroke-width="2" fill="none" stroke="rgb(0, 0, 0)" stroke-opacity="1.0" stroke-linecap="round" stroke-linejoin="round"/>
    <path d="M 117.05772399902344 96.0541000366211 C 141.06089782714844 100.9092788696289 117.38993835449219 113.65904998779297 106.33340454101562 72.4804916381836" stroke-width="2" fill="none" stroke="rgb(0, 0, 0)" stroke-opacity="1.0" stroke-linecap="round" stroke-linejoin="round"/>
    <path d="M 170.16287231445312 107.55844116210938 C 183.86337280273438 111.99420166015625 189.42385864257812 8.238061904907227 180.30323791503906 90.13683319091797" stroke-width="2" fill="none" stroke="rgb(0, 0, 0)" stroke-opacity="1.0" stroke-linecap="round" stroke-linejoin="round"/>
    <path d="M 124.7276611328125 136.73158264160156 C 84.32373046875 102.17802429199219 149.0283660888672 155.8233642578125 107.96441650390625 136.0272216796875" stroke-width="2" fill="none" stroke="rgb(0, 0, 0)" stroke-opacity="1.0" stroke-linecap="round" stroke-linejoin="round"/>
  </g>
</svg>
