<?xml version="1.0" ?>
<svg xmlns="http://www.w3.org/2000/svg" version="1.1" width="224" height="224">
  <defs/>
  <g>
    <path d="M 140.97885131835938 123.7537841796875 C 104.15260314941406 135.4208221435547 196.13404846191406 146.3585205078125 118.11090850830078 128.2216796875" stroke-width="2" fill="none" stroke="rgb(0, 0, 0)" stroke-opacity="1.0" stroke-linecap="round" stroke-linejoin="round"/>
    <path d="M 147.80087280273438 129.32762145996094 C 59.18106460571289 96.21481323242188 138.7019500732422 106.65882110595703 94.32193756103516 122.07789611816406" stroke-width="2" fill="none" stroke="rgb(0, 0, 0)" stroke-opacity="1.0" stroke-linecap="round" stroke-linejoin="round"/>
    <path d="M 105.77046203613281 135.18927001953125 C 116.25096130371094 124.74742889404297 91.74942016601562 77.3007583618164 162.0228271484375 96.00939178466797" stroke-width="2" fill="none" stroke="rgb(0, 0, 0)" stroke-opacity="1.0" stroke-linecap="round" stroke-linejoin="round"/>
    <path d="M 143.41822814941406 113.99797821044922 C 105.11062622070312 94.56901550292969 199.59063720703125 149.0883026123047 110.31095886230469 123.6648178100586" stroke-width="2" fill="none" stroke="rgb(0, 0, 0)" stroke-opacity="1.0" stroke-linecap="round" stroke-linejoin="round"/>
    <path d="M 147.56280517578125 134.1817169189453 C 73.09176635742188 131.4087371826172 221.79132080078125 157.91729736328125 87.84190368652344 141.2084197998047" stroke-width="2" fill="none" stroke="rgb(0, 0, 0)" stroke-opacity="1.0" stroke-linecap="round" stroke-linejoin="round"/>
    <path d="M 66.75353240966797 112.06364440917969 C 37.199153900146484 119.25094604492188 91.70158386230469 113.95120239257812 86.69007873535156 130.3954620361328" stroke-width="2" fill="none" stroke="rgb(0, 0, 0)" stroke-opacity="1.0" stroke-linecap="round" stroke-linejoin="round"/>
    <path d="M 112.48465728759766 100.65782165527344 C 79.39192962646484 7.629756927490234 134.46542358398438 145.3802947998047 170.45733642578125 88.21753692626953" stroke-width="2" fill="none" stroke="rgb(0, 0, 0)" stroke-opacity="1.0" stroke-linecap="round" stroke-linejoin="round"/>
    <path d="M 50.04834747314453 127.53141784667969 C 42.230323791503906 117.8344497680664 25.467058181762695 161.9277801513672 66.62782287597656 147.58212280273438" stroke-width="2" fill="none" stroke="rgb(0, 0, 0)" stroke-opacity="1.0" stroke-linecap="round" stroke-linejoin="round"/>
    <path d="M 126.10810089111328 129.4586944580078 C 188.97000122070312 168.62940979003906 148.1388702392578 112.39753723144531 159.50831604003906 130.72677612304688" stroke-width="2" fill="none" stroke="rgb(0, 0, 0)" stroke-opacity="1.0" stroke-linecap="round" stroke-linejoin="round"/>
    <path d="M 51.447933197021484 152.36709594726562 C 122.84923553466797 173.61859130859375 46.192195892333984 138.85675048828125 71.65007781982422 147.0817413330078" stroke-width="2" fill="none" stroke="rgb(0, 0, 0)" stroke-opacity="1.0" stroke-linecap="round" stroke-linejoin="round"/>
    <path d="M 155.86566162109375 110.88733673095703 C 223.9682159423828 4.833477973937988 158.04656982421875 94.0745620727539 147.9205322265625 91.59187316894531" stroke-width="2" fill="none" stroke="rgb(0, 0, 0)" stroke-opacity="1.0" stroke-linecap="round" stroke-linejoin="round"/>
    <path d="M 169.24398803710938 115.79279327392578 C 135.04339599609375 128.10377502441406 218.0379638671875 193.5476837158203 64.37361907958984 143.1952362060547" stroke-width="2" fill="none" stroke="rgb(0, 0, 0)" stroke-opacity="1.0" stroke-linecap="round" stroke-linejoin="round"/>
    <path d="M 95.0727310180664 90.19811248779297 C 26.177480697631836 84.49695587158203 8.367749214172363 158.6703643798828 121.37004852294922 164.03623962402344" stroke-width="2" fill="none" stroke="rgb(0, 0, 0)" stroke-opacity="1.0" stroke-linecap="round" stroke-linejoin="round"/>
    <path d="M 125.59313201904297 143.59033203125 C 149.24082946777344 153.2788543701172 66.08637237548828 129.59967041015625 143.40306091308594 119.17642211914062" stroke-width="2" fill="none" stroke="rgb(0, 0, 0)" stroke-opacity="1.0" stroke-linecap="round" stroke-linejoin="round"/>
    <path d="M 160.42124938964844 108.49729919433594 C 168.8233184814453 170.08323669433594 204.79779052734375 6.317871570587158 170.6430206298828 90.29662322998047" stroke-width="2" fill="none" stroke="rgb(0, 0, 0)" stroke-opacity="1.0" stroke-linecap="round" stroke-linejoin="round"/>
    <path d="M 148.6107635498047 122.99989318847656 C 53.90474319458008 123.84615325927734 181.0775604248047 124.47185516357422 134.6817626953125 112.44750213623047" stroke-width="2" fill="none" stroke="rgb(0, 0, 0)" stroke-opacity="1.0" stroke-linecap="round" stroke-linejoin="round"/>
  </g>
</svg>
