<?xml version="1.0" ?>
<svg xmlns="http://www.w3.org/2000/svg" version="1.1" width="224" height="224">
  <defs/>
  <g>
    <path d="M 138.9795379638672 99.39085388183594 C 59.611534118652344 140.06942749023438 215.5821075439453 158.3381805419922 121.65772247314453 131.63336181640625" stroke-width="2" fill="none" stroke="rgb(0, 0, 0)" stroke-opacity="1.0" stroke-linecap="round" stroke-linejoin="round"/>
    <path d="M 125.99544525146484 118.1007080078125 C 72.98181915283203 130.91046142578125 115.77120971679688 125.06039428710938 86.42623138427734 115.16365814208984" stroke-width="2" fill="none" stroke="rgb(0, 0, 0)" stroke-opacity="1.0" stroke-linecap="round" stroke-linejoin="round"/>
    <path d="M 173.7240447998047 76.45708465576172 C 168.7213592529297 117.28678131103516 133.85516357421875 87.74978637695312 164.77963256835938 93.1285171508789" stroke-width="2" fill="none" stroke="rgb(0, 0, 0)" stroke-opacity="1.0" stroke-linecap="round" stroke-linejoin="round"/>
    <path d="M 138.62196350097656 136.58648681640625 C 157.6407928466797 137.487548828125 186.2451171875 145.03265380859375 144.3511199951172 117.48168182373047" stroke-width="2" fill="none" stroke="rgb(0, 0, 0)" stroke-opacity="1.0" stroke-linecap="round" stroke-linejoin="round"/>
    <path d="M 164.01382446289062 112.1932601928711 C 114.69210052490234 48.68799591064453 233.12818908691406 170.21493530273438 78.51884460449219 135.95606994628906" stroke-width="2" fill="none" stroke="rgb(0, 0, 0)" stroke-opacity="1.0" stroke-linecap="round" stroke-linejoin="round"/>
    <path d="M 165.0267333984375 120.74024200439453 C 103.41700744628906 126.99882507324219 168.7960968017578 114.07518768310547 139.95184326171875 126.35406494140625" stroke-width="2" fill="none" stroke="rgb(0, 0, 0)" stroke-opacity="1.0" stroke-linecap="round" stroke-linejoin="round"/>
    <path d="M 108.8384017944336 100.02582550048828 C 86.75484466552734 12.297979354858398 138.93006896972656 148.9554443359375 169.03970336914062 89.99431610107422" stroke-width="2" fill="none" stroke="rgb(0, 0, 0)" stroke-opacity="1.0" stroke-linecap="round" stroke-linejoin="round"/>
    <path d="M 71.12239837646484 106.91437530517578 C 71.1141586303711 120.73516845703125 44.33903503417969 94.71554565429688 49.423763275146484 123.64017486572266" stroke-width="2" fill="none" stroke="rgb(0, 0, 0)" stroke-opacity="1.0" stroke-linecap="round" stroke-linejoin="round"/>
    <path d="M 114.05582427978516 144.70382690429688 C 227.08572387695312 169.56654357910156 66.89313507080078 127.73457336425781 123.67350769042969 143.1559600830078" stroke-width="2" fill="none" stroke="rgb(0, 0, 0)" stroke-opacity="1.0" stroke-linecap="round" stroke-linejoin="round"/>
    <path d="M 133.76959228515625 131.6181640625 C 90.6599349975586 151.85745239257812 139.50411987304688 100.2048110961914 101.45612335205078 127.14318084716797" stroke-width="2" fill="none" stroke="rgb(0, 0, 0)" stroke-opacity="1.0" stroke-linecap="round" stroke-linejoin="round"/>
    <path d="M 173.43728637695312 92.20968627929688 C 212.9755096435547 16.063806533813477 156.3096160888672 101.45181274414062 134.28355407714844 88.26017761230469" stroke-width="2" fill="none" stroke="rgb(0, 0, 0)" stroke-opacity="1.0" stroke-linecap="round" stroke-linejoin="round"/>
    <path d="M 177.42819213867188 107.74566650390625 C 130.50050354003906 137.79498291015625 238.47390747070312 169.29612731933594 74.36500549316406 147.90733337402344" stroke-width="2" fill="none" stroke="rgb(0, 0, 0)" stroke-opacity="1.0" stroke-linecap="round" stroke-linejoin="round"/>
    <path d="M 100.12505340576172 97.26866149902344 C 47.64175033569336 86.97050476074219 8.569205284118652 153.2367401123047 101.8692626953125 151.2704620361328" stroke-width="2" fill="none" stroke="rgb(0, 0, 0)" stroke-opacity="1.0" stroke-linecap="round" stroke-linejoin="round"/>
    <path d="M 114.62055969238281 94.40167236328125 C 159.15780639648438 97.57603454589844 129.55177307128906 109.20692443847656 102.77571868896484 74.56257629394531" stroke-width="2" fill="none" stroke="rgb(0, 0, 0)" stroke-opacity="1.0" stroke-linecap="round" stroke-linejoin="round"/>
    <path d="M 175.18223571777344 110.35335540771484 C 182.82032775878906 116.72590637207031 197.91217041015625 9.157837867736816 181.94027709960938 104.06953430175781" stroke-width="2" fill="none" stroke="rgb(0, 0, 0)" stroke-opacity="1.0" stroke-linecap="round" stroke-linejoin="round"/>
    <path d="M 106.92825317382812 126.58380126953125 C 96.83709716796875 102.95423126220703 165.37637329101562 157.67909240722656 115.57135772705078 119.84398651123047" stroke-width="2" fill="none" stroke="rgb(0, 0, 0)" stroke-opacity="1.0" stroke-linecap="round" stroke-linejoin="round"/>
  </g>
</svg>
