<?xml version="1.0" ?>
<svg xmlns="http://www.w3.org/2000/svg" version="1.1" width="224" height="224">
  <defs/>
  <g>
    <path d="M 109.88650512695312 131.3065948486328 C 74.54090118408203 114.82652282714844 111.52049255371094 148.44207763671875 106.21426391601562 120.47895812988281" stroke-width="2" fill="none" stroke="rgb(0, 0, 0)" stroke-opacity="1.0" stroke-linecap="round" stroke-linejoin="round"/>
    <path d="M 126.87242889404297 139.0518341064453 C 129.10897827148438 138.2918243408203 201.7866668701172 135.0438232421875 129.89071655273438 135.33721923828125" stroke-width="2" fill="none" stroke="rgb(0, 0, 0)" stroke-opacity="1.0" stroke-linecap="round" stroke-linejoin="round"/>
    <path d="M 154.3633575439453 127.14368438720703 C 128.5207977294922 161.61199951171875 95.46846008300781 112.07381439208984 79.8833999633789 135.59361267089844" stroke-width="2" fill="none" stroke="rgb(0, 0, 0)" stroke-opacity="1.0" stroke-linecap="round" stroke-linejoin="round"/>
    <path d="M 148.4409637451172 111.23986053466797 C 100.67373657226562 98.9957046508789 221.09719848632812 147.08224487304688 126.94434356689453 142.64710998535156" stroke-width="2" fill="none" stroke="rgb(0, 0, 0)" stroke-opacity="1.0" stroke-linecap="round" stroke-linejoin="round"/>
    <path d="M 115.53927612304688 114.15321350097656 C 88.28165435791016 130.8690948486328 143.3936767578125 115.6226806640625 101.95951080322266 120.23676300048828" stroke-width="2" fill="none" stroke="rgb(0, 0, 0)" stroke-opacity="1.0" stroke-linecap="round" stroke-linejoin="round"/>
    <path d="M 112.17649841308594 113.58332061767578 C 89.96870422363281 122.51110076904297 90.71758270263672 92.0490493774414 106.55083465576172 87.84920501708984" stroke-width="2" fill="none" stroke="rgb(0, 0, 0)" stroke-opacity="1.0" stroke-linecap="round" stroke-linejoin="round"/>
    <path d="M 86.73501586914062 56.940391540527344 C 120.26082611083984 65.9395980834961 116.85426330566406 108.84461975097656 162.3105926513672 81.63339233398438" stroke-width="2" fill="none" stroke="rgb(0, 0, 0)" stroke-opacity="1.0" stroke-linecap="round" stroke-linejoin="round"/>
    <path d="M 118.76145935058594 148.9586181640625 C 95.81411743164062 137.3480682373047 1.349358081817627 172.19000244140625 51.303070068359375 108.74720001220703" stroke-width="2" fill="none" stroke="rgb(0, 0, 0)" stroke-opacity="1.0" stroke-linecap="round" stroke-linejoin="round"/>
    <path d="M 126.4172134399414 123.65119934082031 C 186.71255493164062 115.89144897460938 98.1764144897461 116.5746078491211 133.843017578125 126.44078826904297" stroke-width="2" fill="none" stroke="rgb(0, 0, 0)" stroke-opacity="1.0" stroke-linecap="round" stroke-linejoin="round"/>
    <path d="M 76.90863037109375 121.4402084350586 C 123.72493743896484 133.65444946289062 81.690673828125 111.18960571289062 118.8888168334961 143.06863403320312" stroke-width="2" fill="none" stroke="rgb(0, 0, 0)" stroke-opacity="1.0" stroke-linecap="round" stroke-linejoin="round"/>
    <path d="M 149.4489288330078 92.7105941772461 C 205.31378173828125 19.336172103881836 186.9646759033203 80.18846893310547 161.12542724609375 127.080810546875" stroke-width="2" fill="none" stroke="rgb(0, 0, 0)" stroke-opacity="1.0" stroke-linecap="round" stroke-linejoin="round"/>
    <path d="M 166.1282958984375 106.98603820800781 C 189.61373901367188 175.77322387695312 159.6080322265625 152.49484252929688 113.7004165649414 155.6956329345703" stroke-width="2" fill="none" stroke="rgb(0, 0, 0)" stroke-opacity="1.0" stroke-linecap="round" stroke-linejoin="round"/>
    <path d="M 78.34368133544922 150.2200164794922 C 64.63965606689453 151.7995147705078 16.040414810180664 141.13978576660156 83.61925506591797 157.05419921875" stroke-width="2" fill="none" stroke="rgb(0, 0, 0)" stroke-opacity="1.0" stroke-linecap="round" stroke-linejoin="round"/>
    <path d="M 78.83110046386719 96.866455078125 C 80.49198913574219 44.008426666259766 83.21858215332031 53.08437728881836 97.8134536743164 95.06201934814453" stroke-width="2" fill="none" stroke="rgb(0, 0, 0)" stroke-opacity="1.0" stroke-linecap="round" stroke-linejoin="round"/>
    <path d="M 172.65914916992188 111.75032806396484 C 144.69039916992188 132.25648498535156 210.425048828125 70.97211456298828 179.9433135986328 84.9883041381836" stroke-width="2" fill="none" stroke="rgb(0, 0, 0)" stroke-opacity="1.0" stroke-linecap="round" stroke-linejoin="round"/>
    <path d="M 48.9278678894043 131.11599731445312 C 32.0574951171875 87.39567565917969 110.8339614868164 109.2135238647461 81.21377563476562 99.0644760131836" stroke-width="2" fill="none" stroke="rgb(0, 0, 0)" stroke-opacity="1.0" stroke-linecap="round" stroke-linejoin="round"/>
  </g>
</svg>
