<?xml version="1.0" ?>
<svg xmlns="http://www.w3.org/2000/svg" version="1.1" width="224" height="224">
  <defs/>
  <g>
    <path d="M 105.59873962402344 136.29139709472656 C 68.55579376220703 122.36677551269531 118.92654418945312 153.01162719726562 102.63433074951172 121.69800567626953" stroke-width="2" fill="none" stroke="rgb(0, 0, 0)" stroke-opacity="1.0" stroke-linecap="round" stroke-linejoin="round"/>
    <path d="M 133.33827209472656 134.238037109375 C 126.63673400878906 144.01806640625 200.697509765625 144.65963745117188 130.0535430908203 137.7522735595703" stroke-width="2" fill="none" stroke="rgb(0, 0, 0)" stroke-opacity="1.0" stroke-linecap="round" stroke-linejoin="round"/>
    <path d="M 149.5782928466797 127.86886596679688 C 118.97743225097656 164.83995056152344 97.58033752441406 114.83988952636719 93.96309661865234 135.14382934570312" stroke-width="2" fill="none" stroke="rgb(0, 0, 0)" stroke-opacity="1.0" stroke-linecap="round" stroke-linejoin="round"/>
    <path d="M 147.4584503173828 112.33626556396484 C 105.79292297363281 100.13624572753906 228.96661376953125 148.99876403808594 133.60467529296875 142.6894989013672" stroke-width="2" fill="none" stroke="rgb(0, 0, 0)" stroke-opacity="1.0" stroke-linecap="round" stroke-linejoin="round"/>
    <path d="M 118.56169891357422 113.19938659667969 C 101.85504150390625 131.4965057373047 141.53591918945312 115.48853302001953 105.50564575195312 118.77043914794922" stroke-width="2" fill="none" stroke="rgb(0, 0, 0)" stroke-opacity="1.0" stroke-linecap="round" stroke-linejoin="round"/>
    <path d="M 121.29466247558594 115.6462631225586 C 88.63458251953125 123.03913116455078 89.36670684814453 96.11004638671875 112.37041473388672 96.92886352539062" stroke-width="2" fill="none" stroke="rgb(0, 0, 0)" stroke-opacity="1.0" stroke-linecap="round" stroke-linejoin="round"/>
    <path d="M 86.5551986694336 64.21476745605469 C 117.45320892333984 62.67119216918945 117.04326629638672 115.70999908447266 167.9530029296875 88.31919860839844" stroke-width="2" fill="none" stroke="rgb(0, 0, 0)" stroke-opacity="1.0" stroke-linecap="round" stroke-linejoin="round"/>
    <path d="M 111.31836700439453 152.44210815429688 C 98.73799896240234 133.781982421875 1.8030107021331787 171.3942108154297 47.652801513671875 106.80331420898438" stroke-width="2" fill="none" stroke="rgb(0, 0, 0)" stroke-opacity="1.0" stroke-linecap="round" stroke-linejoin="round"/>
    <path d="M 130.47186279296875 124.39802551269531 C 186.847412109375 120.89337158203125 101.22012329101562 115.24267578125 140.9822540283203 125.03702545166016" stroke-width="2" fill="none" stroke="rgb(0, 0, 0)" stroke-opacity="1.0" stroke-linecap="round" stroke-linejoin="round"/>
    <path d="M 76.61358642578125 127.05740356445312 C 120.09820556640625 131.91452026367188 79.93762969970703 108.73768615722656 114.68850708007812 149.7510223388672" stroke-width="2" fill="none" stroke="rgb(0, 0, 0)" stroke-opacity="1.0" stroke-linecap="round" stroke-linejoin="round"/>
    <path d="M 154.75408935546875 94.68301391601562 C 213.838623046875 25.9583740234375 192.81161499023438 84.26702880859375 167.4241485595703 128.8453826904297" stroke-width="2" fill="none" stroke="rgb(0, 0, 0)" stroke-opacity="1.0" stroke-linecap="round" stroke-linejoin="round"/>
    <path d="M 160.0792236328125 104.34637451171875 C 190.57679748535156 179.2425994873047 169.53115844726562 152.900390625 118.65472412109375 154.94786071777344" stroke-width="2" fill="none" stroke="rgb(0, 0, 0)" stroke-opacity="1.0" stroke-linecap="round" stroke-linejoin="round"/>
    <path d="M 81.67176818847656 142.88084411621094 C 67.94108581542969 154.607177734375 14.802699089050293 142.74827575683594 79.92501831054688 156.0172576904297" stroke-width="2" fill="none" stroke="rgb(0, 0, 0)" stroke-opacity="1.0" stroke-linecap="round" stroke-linejoin="round"/>
    <path d="M 88.4603271484375 100.68843078613281 C 86.63631439208984 47.07029724121094 76.44741821289062 59.61599349975586 99.87715911865234 97.463134765625" stroke-width="2" fill="none" stroke="rgb(0, 0, 0)" stroke-opacity="1.0" stroke-linecap="round" stroke-linejoin="round"/>
    <path d="M 170.45083618164062 107.74507904052734 C 143.73846435546875 130.0482940673828 206.45457458496094 72.02487182617188 177.03933715820312 80.27835845947266" stroke-width="2" fill="none" stroke="rgb(0, 0, 0)" stroke-opacity="1.0" stroke-linecap="round" stroke-linejoin="round"/>
    <path d="M 45.08720016479492 129.85089111328125 C 32.1053581237793 85.33358764648438 112.25100708007812 107.46253967285156 90.29674530029297 106.19571685791016" stroke-width="2" fill="none" stroke="rgb(0, 0, 0)" stroke-opacity="1.0" stroke-linecap="round" stroke-linejoin="round"/>
  </g>
</svg>
