<?xml version="1.0" ?>
<svg xmlns="http://www.w3.org/2000/svg" version="1.1" width="224" height="224">
  <defs/>
  <g>
    <path d="M 140.30404663085938 111.83966064453125 C 80.89488220214844 148.5071563720703 193.70436096191406 135.45428466796875 147.75564575195312 138.99057006835938" stroke-width="2" fill="none" stroke="rgb(0, 0, 0)" stroke-opacity="1.0" stroke-linecap="round" stroke-linejoin="round"/>
    <path d="M 131.85874938964844 131.88160705566406 C 86.24803924560547 115.07475280761719 144.00535583496094 169.159423828125 172.3057098388672 146.89366149902344" stroke-width="2" fill="none" stroke="rgb(0, 0, 0)" stroke-opacity="1.0" stroke-linecap="round" stroke-linejoin="round"/>
    <path d="M 166.00733947753906 72.83447265625 C 164.82896423339844 108.75262451171875 120.35860443115234 66.87035369873047 167.72218322753906 103.69656372070312" stroke-width="2" fill="none" stroke="rgb(0, 0, 0)" stroke-opacity="1.0" stroke-linecap="round" stroke-linejoin="round"/>
    <path d="M 175.65338134765625 127.62896728515625 C 153.84710693359375 97.84745025634766 205.82864379882812 138.27227783203125 150.0742950439453 146.03692626953125" stroke-width="2" fill="none" stroke="rgb(0, 0, 0)" stroke-opacity="1.0" stroke-linecap="round" stroke-linejoin="round"/>
    <path d="M 166.2229766845703 130.5021514892578 C 120.80867004394531 90.72408294677734 274.34423828125 181.3069305419922 85.20703887939453 159.6033172607422" stroke-width="2" fill="none" stroke="rgb(0, 0, 0)" stroke-opacity="1.0" stroke-linecap="round" stroke-linejoin="round"/>
    <path d="M 164.25180053710938 139.0780487060547 C 140.420166015625 128.91868591308594 141.9955291748047 151.30844116210938 172.2908935546875 136.34268188476562" stroke-width="2" fill="none" stroke="rgb(0, 0, 0)" stroke-opacity="1.0" stroke-linecap="round" stroke-linejoin="round"/>
    <path d="M 105.50017547607422 80.92076110839844 C 141.9881134033203 62.929161071777344 132.20303344726562 137.70603942871094 175.8763885498047 73.04630279541016" stroke-width="2" fill="none" stroke="rgb(0, 0, 0)" stroke-opacity="1.0" stroke-linecap="round" stroke-linejoin="round"/>
    <path d="M 68.38414764404297 118.98571014404297 C 150.69711303710938 147.8946990966797 7.797073841094971 95.13715362548828 80.85655975341797 114.77304077148438" stroke-width="2" fill="none" stroke="rgb(0, 0, 0)" stroke-opacity="1.0" stroke-linecap="round" stroke-linejoin="round"/>
    <path d="M 154.1728057861328 123.6864013671875 C 217.15447998046875 128.67910766601562 136.6416778564453 125.18456268310547 164.84201049804688 135.8961181640625" stroke-width="2" fill="none" stroke="rgb(0, 0, 0)" stroke-opacity="1.0" stroke-linecap="round" stroke-linejoin="round"/>
    <path d="M 128.1805419921875 111.4784164428711 C 121.95507049560547 129.0555419921875 162.3328857421875 110.28766632080078 136.27366638183594 123.63922882080078" stroke-width="2" fill="none" stroke="rgb(0, 0, 0)" stroke-opacity="1.0" stroke-linecap="round" stroke-linejoin="round"/>
    <path d="M 135.10183715820312 84.0733871459961 C 213.3350067138672 10.017489433288574 165.14178466796875 110.41374969482422 124.54033660888672 80.05976104736328" stroke-width="2" fill="none" stroke="rgb(0, 0, 0)" stroke-opacity="1.0" stroke-linecap="round" stroke-linejoin="round"/>
    <path d="M 173.63748168945312 102.90641784667969 C 157.0858612060547 187.15060424804688 196.17823791503906 168.4952392578125 49.05852508544922 134.70945739746094" stroke-width="2" fill="none" stroke="rgb(0, 0, 0)" stroke-opacity="1.0" stroke-linecap="round" stroke-linejoin="round"/>
    <path d="M 100.06390380859375 91.13582611083984 C 46.6561164855957 76.40103912353516 -5.038540363311768 154.14308166503906 103.30622863769531 166.68821716308594" stroke-width="2" fill="none" stroke="rgb(0, 0, 0)" stroke-opacity="1.0" stroke-linecap="round" stroke-linejoin="round"/>
    <path d="M 109.63898468017578 111.46299743652344 C 132.4759521484375 135.52684020996094 153.67578125 182.9673309326172 113.46846771240234 105.7478256225586" stroke-width="2" fill="none" stroke="rgb(0, 0, 0)" stroke-opacity="1.0" stroke-linecap="round" stroke-linejoin="round"/>
    <path d="M 173.67857360839844 85.32062530517578 C 164.0390625 124.56534576416016 208.57566833496094 7.153995990753174 163.86245727539062 79.44146728515625" stroke-width="2" fill="none" stroke="rgb(0, 0, 0)" stroke-opacity="1.0" stroke-linecap="round" stroke-linejoin="round"/>
    <path d="M 104.26879119873047 125.28582763671875 C 99.91744232177734 133.39068603515625 130.08731079101562 116.01702117919922 59.19841003417969 108.60218811035156" stroke-width="2" fill="none" stroke="rgb(0, 0, 0)" stroke-opacity="1.0" stroke-linecap="round" stroke-linejoin="round"/>
  </g>
</svg>
