<?xml version="1.0" ?>
<svg xmlns="http://www.w3.org/2000/svg" version="1.1" width="224" height="224">
  <defs/>
  <g>
    <path d="M 146.32412719726562 136.1260223388672 C 97.8570327758789 119.68085479736328 233.60650634765625 147.66502380371094 112.35356903076172 136.64768981933594" stroke-width="2" fill="none" stroke="rgb(0, 0, 0)" stroke-opacity="1.0" stroke-linecap="round" stroke-linejoin="round"/>
    <path d="M 174.4318084716797 143.78138732910156 C 73.93041229248047 143.6296844482422 118.82393646240234 132.5113067626953 92.74588775634766 125.3752670288086" stroke-width="2" fill="none" stroke="rgb(0, 0, 0)" stroke-opacity="1.0" stroke-linecap="round" stroke-linejoin="round"/>
    <path d="M 157.18743896484375 121.89331817626953 C 141.57313537597656 118.71643829345703 115.08628845214844 92.66948699951172 163.367431640625 96.5947265625" stroke-width="2" fill="none" stroke="rgb(0, 0, 0)" stroke-opacity="1.0" stroke-linecap="round" stroke-linejoin="round"/>
    <path d="M 174.09664916992188 109.57076263427734 C 154.39193725585938 139.32244873046875 189.64859008789062 108.78656768798828 149.2154998779297 118.02583312988281" stroke-width="2" fill="none" stroke="rgb(0, 0, 0)" stroke-opacity="1.0" stroke-linecap="round" stroke-linejoin="round"/>
    <path d="M 119.72488403320312 126.18203735351562 C 140.40286254882812 84.94586944580078 238.5093536376953 159.14329528808594 81.61882019042969 129.37750244140625" stroke-width="2" fill="none" stroke="rgb(0, 0, 0)" stroke-opacity="1.0" stroke-linecap="round" stroke-linejoin="round"/>
    <path d="M 130.7607421875 98.27365112304688 C 73.35710906982422 105.3945083618164 121.88519287109375 95.04131317138672 112.8163070678711 120.82750701904297" stroke-width="2" fill="none" stroke="rgb(0, 0, 0)" stroke-opacity="1.0" stroke-linecap="round" stroke-linejoin="round"/>
    <path d="M 97.32254791259766 100.48687744140625 C 98.5750503540039 7.085047721862793 126.32228088378906 153.3584747314453 173.5646514892578 74.5691909790039" stroke-width="2" fill="none" stroke="rgb(0, 0, 0)" stroke-opacity="1.0" stroke-linecap="round" stroke-linejoin="round"/>
    <path d="M 57.72483444213867 111.37084197998047 C 32.08439254760742 139.82351684570312 40.469661712646484 143.9278564453125 53.47541046142578 150.7113037109375" stroke-width="2" fill="none" stroke="rgb(0, 0, 0)" stroke-opacity="1.0" stroke-linecap="round" stroke-linejoin="round"/>
    <path d="M 60.24540710449219 141.507080078125 C 279.0172424316406 180.60594177246094 93.00732421875 121.80369567871094 117.0891342163086 139.02194213867188" stroke-width="2" fill="none" stroke="rgb(0, 0, 0)" stroke-opacity="1.0" stroke-linecap="round" stroke-linejoin="round"/>
    <path d="M 151.2310028076172 138.46681213378906 C 70.91509246826172 123.5591812133789 91.18702697753906 134.65724182128906 104.71013641357422 147.44232177734375" stroke-width="2" fill="none" stroke="rgb(0, 0, 0)" stroke-opacity="1.0" stroke-linecap="round" stroke-linejoin="round"/>
    <path d="M 173.01380920410156 109.88258361816406 C 194.07188415527344 15.018651008605957 168.07089233398438 85.6998062133789 155.34585571289062 86.48050689697266" stroke-width="2" fill="none" stroke="rgb(0, 0, 0)" stroke-opacity="1.0" stroke-linecap="round" stroke-linejoin="round"/>
    <path d="M 167.2478485107422 109.0927963256836 C 137.9740753173828 115.33940124511719 245.55917358398438 192.251708984375 52.04176712036133 148.64224243164062" stroke-width="2" fill="none" stroke="rgb(0, 0, 0)" stroke-opacity="1.0" stroke-linecap="round" stroke-linejoin="round"/>
    <path d="M 98.21953582763672 96.51605224609375 C 38.88008117675781 76.06365203857422 21.623485565185547 143.6503143310547 85.92308807373047 146.68402099609375" stroke-width="2" fill="none" stroke="rgb(0, 0, 0)" stroke-opacity="1.0" stroke-linecap="round" stroke-linejoin="round"/>
    <path d="M 116.70218658447266 111.12564849853516 C 126.41023254394531 75.55541229248047 122.21487426757812 126.5719985961914 106.28010559082031 67.31622314453125" stroke-width="2" fill="none" stroke="rgb(0, 0, 0)" stroke-opacity="1.0" stroke-linecap="round" stroke-linejoin="round"/>
    <path d="M 156.77798461914062 106.22322845458984 C 189.19131469726562 136.1819305419922 200.1399383544922 18.181970596313477 175.02529907226562 66.89952850341797" stroke-width="2" fill="none" stroke="rgb(0, 0, 0)" stroke-opacity="1.0" stroke-linecap="round" stroke-linejoin="round"/>
    <path d="M 170.0978546142578 144.43179321289062 C 130.95188903808594 145.5291290283203 199.36009216308594 123.843505859375 123.6687240600586 145.9685516357422" stroke-width="2" fill="none" stroke="rgb(0, 0, 0)" stroke-opacity="1.0" stroke-linecap="round" stroke-linejoin="round"/>
  </g>
</svg>
