<?xml version="1.0" ?>
<svg xmlns="http://www.w3.org/2000/svg" version="1.1" width="224" height="224">
  <defs/>
  <g>
    <path d="M 115.75498962402344 119.28451538085938 C 127.99092864990234 136.79002380371094 181.8700408935547 143.42230224609375 142.31048583984375 110.96463775634766" stroke-width="2" fill="none" stroke="rgb(0, 0, 0)" stroke-opacity="1.0" stroke-linecap="round" stroke-linejoin="round"/>
    <path d="M 96.65956115722656 90.27815246582031 C 86.97137451171875 139.9291534423828 105.86514282226562 98.1119384765625 77.87361907958984 110.31312561035156" stroke-width="2" fill="none" stroke="rgb(0, 0, 0)" stroke-opacity="1.0" stroke-linecap="round" stroke-linejoin="round"/>
    <path d="M 155.49966430664062 122.01982879638672 C 70.59645080566406 140.37220764160156 134.6288299560547 61.673736572265625 158.25791931152344 98.23394012451172" stroke-width="2" fill="none" stroke="rgb(0, 0, 0)" stroke-opacity="1.0" stroke-linecap="round" stroke-linejoin="round"/>
    <path d="M 182.07626342773438 111.50367736816406 C 163.67210388183594 132.61721801757812 228.54623413085938 182.3767852783203 99.53040313720703 155.59085083007812" stroke-width="2" fill="none" stroke="rgb(0, 0, 0)" stroke-opacity="1.0" stroke-linecap="round" stroke-linejoin="round"/>
    <path d="M 86.37122344970703 147.86399841308594 C 30.46666717529297 141.6789093017578 240.1448211669922 174.76795959472656 88.5716323852539 135.0743408203125" stroke-width="2" fill="none" stroke="rgb(0, 0, 0)" stroke-opacity="1.0" stroke-linecap="round" stroke-linejoin="round"/>
    <path d="M 55.65935134887695 138.8153533935547 C 30.662534713745117 153.06568908691406 45.39619827270508 91.93724060058594 78.47219848632812 100.30687713623047" stroke-width="2" fill="none" stroke="rgb(0, 0, 0)" stroke-opacity="1.0" stroke-linecap="round" stroke-linejoin="round"/>
    <path d="M 113.32228088378906 120.8137435913086 C 70.54202270507812 4.773561000823975 141.70291137695312 116.02361297607422 119.68558502197266 87.63758087158203" stroke-width="2" fill="none" stroke="rgb(0, 0, 0)" stroke-opacity="1.0" stroke-linecap="round" stroke-linejoin="round"/>
    <path d="M 63.12773132324219 131.6448516845703 C 83.0501708984375 139.7623748779297 47.01746368408203 129.86825561523438 80.47960662841797 143.2574920654297" stroke-width="2" fill="none" stroke="rgb(0, 0, 0)" stroke-opacity="1.0" stroke-linecap="round" stroke-linejoin="round"/>
    <path d="M 112.23094177246094 120.37229919433594 C 176.6471405029297 122.3608169555664 83.30186462402344 142.7060546875 153.0123748779297 118.55830383300781" stroke-width="2" fill="none" stroke="rgb(0, 0, 0)" stroke-opacity="1.0" stroke-linecap="round" stroke-linejoin="round"/>
    <path d="M 112.08984375 111.39661407470703 C 225.97653198242188 124.40960693359375 106.53005981445312 116.63748931884766 152.65785217285156 126.71946716308594" stroke-width="2" fill="none" stroke="rgb(0, 0, 0)" stroke-opacity="1.0" stroke-linecap="round" stroke-linejoin="round"/>
    <path d="M 170.47486877441406 87.56012725830078 C 199.59217834472656 12.60947036743164 160.6594696044922 126.56915283203125 115.82644653320312 79.96739959716797" stroke-width="2" fill="none" stroke="rgb(0, 0, 0)" stroke-opacity="1.0" stroke-linecap="round" stroke-linejoin="round"/>
    <path d="M 167.3905029296875 105.53314208984375 C 109.47007751464844 97.84825134277344 218.03726196289062 189.89869689941406 49.14348220825195 153.19908142089844" stroke-width="2" fill="none" stroke="rgb(0, 0, 0)" stroke-opacity="1.0" stroke-linecap="round" stroke-linejoin="round"/>
    <path d="M 47.99753189086914 138.47972106933594 C 53.35014343261719 132.7811279296875 24.610620498657227 145.88172912597656 77.96434783935547 154.02174377441406" stroke-width="2" fill="none" stroke="rgb(0, 0, 0)" stroke-opacity="1.0" stroke-linecap="round" stroke-linejoin="round"/>
    <path d="M 162.76693725585938 153.74729919433594 C 185.24363708496094 146.02195739746094 163.19541931152344 155.6941375732422 163.9037322998047 141.8949737548828" stroke-width="2" fill="none" stroke="rgb(0, 0, 0)" stroke-opacity="1.0" stroke-linecap="round" stroke-linejoin="round"/>
    <path d="M 163.44036865234375 94.79966735839844 C 168.8470001220703 152.32176208496094 209.67251586914062 0.14127850532531738 159.1126708984375 91.92790985107422" stroke-width="2" fill="none" stroke="rgb(0, 0, 0)" stroke-opacity="1.0" stroke-linecap="round" stroke-linejoin="round"/>
    <path d="M 151.98504638671875 154.0493927001953 C 58.332584381103516 124.66999816894531 157.9669189453125 101.2411117553711 132.29087829589844 130.48536682128906" stroke-width="2" fill="none" stroke="rgb(0, 0, 0)" stroke-opacity="1.0" stroke-linecap="round" stroke-linejoin="round"/>
  </g>
</svg>
