<?xml version="1.0" ?>
<svg xmlns="http://www.w3.org/2000/svg" version="1.1" width="224" height="224">
  <defs/>
  <g>
    <path d="M 139.49449157714844 127.1590576171875 C 101.95631408691406 109.54803466796875 238.63473510742188 142.55523681640625 119.36802673339844 135.46971130371094" stroke-width="2" fill="none" stroke="rgb(0, 0, 0)" stroke-opacity="1.0" stroke-linecap="round" stroke-linejoin="round"/>
    <path d="M 167.36892700195312 136.47975158691406 C 79.1488265991211 150.19021606445312 115.47453308105469 137.0032196044922 89.41744232177734 143.1289825439453" stroke-width="2" fill="none" stroke="rgb(0, 0, 0)" stroke-opacity="1.0" stroke-linecap="round" stroke-linejoin="round"/>
    <path d="M 163.551025390625 114.29402160644531 C 107.28114318847656 119.15607452392578 74.38121795654297 92.48868560791016 158.98118591308594 92.21292877197266" stroke-width="2" fill="none" stroke="rgb(0, 0, 0)" stroke-opacity="1.0" stroke-linecap="round" stroke-linejoin="round"/>
    <path d="M 161.87245178222656 122.12461853027344 C 133.80177307128906 127.98646545410156 189.37527465820312 114.5418472290039 158.92654418945312 110.13528442382812" stroke-width="2" fill="none" stroke="rgb(0, 0, 0)" stroke-opacity="1.0" stroke-linecap="round" stroke-linejoin="round"/>
    <path d="M 121.60454559326172 119.42855072021484 C 132.22096252441406 71.85749816894531 236.1858367919922 175.19979858398438 79.2130355834961 133.16917419433594" stroke-width="2" fill="none" stroke="rgb(0, 0, 0)" stroke-opacity="1.0" stroke-linecap="round" stroke-linejoin="round"/>
    <path d="M 165.0417022705078 110.97337341308594 C 54.83510208129883 120.73282623291016 120.79058837890625 105.40672302246094 113.63087463378906 129.111572265625" stroke-width="2" fill="none" stroke="rgb(0, 0, 0)" stroke-opacity="1.0" stroke-linecap="round" stroke-linejoin="round"/>
    <path d="M 97.5770263671875 101.5282211303711 C 90.58243560791016 2.9529879093170166 118.85037231445312 144.0205078125 170.42738342285156 68.70515441894531" stroke-width="2" fill="none" stroke="rgb(0, 0, 0)" stroke-opacity="1.0" stroke-linecap="round" stroke-linejoin="round"/>
    <path d="M 47.092411041259766 103.97514343261719 C 28.155357360839844 142.84722900390625 41.37279510498047 123.72526550292969 57.110389709472656 140.5176239013672" stroke-width="2" fill="none" stroke="rgb(0, 0, 0)" stroke-opacity="1.0" stroke-linecap="round" stroke-linejoin="round"/>
    <path d="M 58.19708251953125 147.00613403320312 C 282.5545959472656 188.23675537109375 81.9163589477539 138.45643615722656 116.66895294189453 135.64671325683594" stroke-width="2" fill="none" stroke="rgb(0, 0, 0)" stroke-opacity="1.0" stroke-linecap="round" stroke-linejoin="round"/>
    <path d="M 147.84303283691406 143.70811462402344 C 61.09172439575195 126.82276916503906 92.40513610839844 136.42335510253906 100.7958984375 138.43841552734375" stroke-width="2" fill="none" stroke="rgb(0, 0, 0)" stroke-opacity="1.0" stroke-linecap="round" stroke-linejoin="round"/>
    <path d="M 169.00440979003906 109.04159545898438 C 182.876708984375 15.969934463500977 171.28001403808594 120.92622375488281 151.35206604003906 99.18213653564453" stroke-width="2" fill="none" stroke="rgb(0, 0, 0)" stroke-opacity="1.0" stroke-linecap="round" stroke-linejoin="round"/>
    <path d="M 164.3273162841797 114.55908966064453 C 145.5279998779297 136.83291625976562 228.6190948486328 178.85162353515625 73.38775634765625 144.86032104492188" stroke-width="2" fill="none" stroke="rgb(0, 0, 0)" stroke-opacity="1.0" stroke-linecap="round" stroke-linejoin="round"/>
    <path d="M 96.28268432617188 93.98295593261719 C 37.6822395324707 78.51715850830078 8.328947067260742 157.65858459472656 66.5061264038086 156.7193603515625" stroke-width="2" fill="none" stroke="rgb(0, 0, 0)" stroke-opacity="1.0" stroke-linecap="round" stroke-linejoin="round"/>
    <path d="M 118.4778060913086 118.74302673339844 C 130.0676727294922 106.97671508789062 115.09391021728516 138.72711181640625 98.8021469116211 70.41992950439453" stroke-width="2" fill="none" stroke="rgb(0, 0, 0)" stroke-opacity="1.0" stroke-linecap="round" stroke-linejoin="round"/>
    <path d="M 151.16627502441406 116.9115982055664 C 176.3064422607422 119.24835968017578 201.29640197753906 16.64353370666504 166.2093963623047 75.60108947753906" stroke-width="2" fill="none" stroke="rgb(0, 0, 0)" stroke-opacity="1.0" stroke-linecap="round" stroke-linejoin="round"/>
    <path d="M 160.0563507080078 140.2853546142578 C 112.24298858642578 128.8701171875 181.67860412597656 126.74291229248047 122.83394622802734 137.36195373535156" stroke-width="2" fill="none" stroke="rgb(0, 0, 0)" stroke-opacity="1.0" stroke-linecap="round" stroke-linejoin="round"/>
  </g>
</svg>
