<?xml version="1.0" ?>
<svg xmlns="http://www.w3.org/2000/svg" version="1.1" width="224" height="224">
  <defs/>
  <g>
    <path d="M 142.29563903808594 116.3568344116211 C 55.662166595458984 108.64636993408203 183.05857849121094 143.92694091796875 122.25334930419922 110.7110824584961" stroke-width="2" fill="none" stroke="rgb(0, 0, 0)" stroke-opacity="1.0" stroke-linecap="round" stroke-linejoin="round"/>
    <path d="M 65.67169952392578 120.63549041748047 C 15.905511856079102 128.77639770507812 78.14940643310547 129.48118591308594 65.08966064453125 136.25457763671875" stroke-width="2" fill="none" stroke="rgb(0, 0, 0)" stroke-opacity="1.0" stroke-linecap="round" stroke-linejoin="round"/>
    <path d="M 142.63616943359375 117.56312561035156 C 81.04209899902344 138.15768432617188 121.64704132080078 51.29621124267578 156.47059631347656 106.08416748046875" stroke-width="2" fill="none" stroke="rgb(0, 0, 0)" stroke-opacity="1.0" stroke-linecap="round" stroke-linejoin="round"/>
    <path d="M 136.74571228027344 119.36727905273438 C 90.53083038330078 119.15033721923828 190.31333923339844 108.84556579589844 153.9850311279297 120.33490753173828" stroke-width="2" fill="none" stroke="rgb(0, 0, 0)" stroke-opacity="1.0" stroke-linecap="round" stroke-linejoin="round"/>
    <path d="M 128.8335723876953 120.10492706298828 C 38.9515266418457 145.4411163330078 258.86077880859375 158.55020141601562 85.50080108642578 145.89340209960938" stroke-width="2" fill="none" stroke="rgb(0, 0, 0)" stroke-opacity="1.0" stroke-linecap="round" stroke-linejoin="round"/>
    <path d="M 116.5076675415039 95.92338562011719 C 88.38612365722656 85.7162857055664 109.72986602783203 100.79666900634766 93.01798248291016 108.2063980102539" stroke-width="2" fill="none" stroke="rgb(0, 0, 0)" stroke-opacity="1.0" stroke-linecap="round" stroke-linejoin="round"/>
    <path d="M 102.0197525024414 121.25872802734375 C 81.77408599853516 12.836153030395508 120.83704376220703 152.05545043945312 117.15274047851562 124.8709716796875" stroke-width="2" fill="none" stroke="rgb(0, 0, 0)" stroke-opacity="1.0" stroke-linecap="round" stroke-linejoin="round"/>
    <path d="M 68.54641723632812 135.9875030517578 C 28.763843536376953 102.24364471435547 23.98936653137207 149.46139526367188 108.3111343383789 158.23834228515625" stroke-width="2" fill="none" stroke="rgb(0, 0, 0)" stroke-opacity="1.0" stroke-linecap="round" stroke-linejoin="round"/>
    <path d="M 113.682861328125 117.46339416503906 C 163.1864471435547 96.7117691040039 78.51870727539062 117.6792984008789 138.8745880126953 127.24569702148438" stroke-width="2" fill="none" stroke="rgb(0, 0, 0)" stroke-opacity="1.0" stroke-linecap="round" stroke-linejoin="round"/>
    <path d="M 143.0294189453125 112.66456604003906 C 193.34483337402344 122.82197570800781 128.6654815673828 139.32693481445312 151.7270965576172 128.23854064941406" stroke-width="2" fill="none" stroke="rgb(0, 0, 0)" stroke-opacity="1.0" stroke-linecap="round" stroke-linejoin="round"/>
    <path d="M 166.39056396484375 91.70972442626953 C 215.43434143066406 10.602174758911133 160.88037109375 135.60992431640625 105.66184997558594 70.03376770019531" stroke-width="2" fill="none" stroke="rgb(0, 0, 0)" stroke-opacity="1.0" stroke-linecap="round" stroke-linejoin="round"/>
    <path d="M 169.86505126953125 103.68376922607422 C 150.43536376953125 136.33831787109375 240.6933135986328 193.79209899902344 70.9538803100586 137.9655303955078" stroke-width="2" fill="none" stroke="rgb(0, 0, 0)" stroke-opacity="1.0" stroke-linecap="round" stroke-linejoin="round"/>
    <path d="M 93.40213012695312 92.22505950927734 C 39.27457809448242 79.33739471435547 15.783631324768066 155.47952270507812 81.75466918945312 153.90110778808594" stroke-width="2" fill="none" stroke="rgb(0, 0, 0)" stroke-opacity="1.0" stroke-linecap="round" stroke-linejoin="round"/>
    <path d="M 149.07321166992188 161.9666290283203 C 143.2307586669922 159.8759765625 131.37591552734375 168.94537353515625 90.6958999633789 140.74327087402344" stroke-width="2" fill="none" stroke="rgb(0, 0, 0)" stroke-opacity="1.0" stroke-linecap="round" stroke-linejoin="round"/>
    <path d="M 153.8345947265625 105.9330062866211 C 161.43841552734375 161.53262329101562 217.5037078857422 5.433784008026123 156.35037231445312 90.50142669677734" stroke-width="2" fill="none" stroke="rgb(0, 0, 0)" stroke-opacity="1.0" stroke-linecap="round" stroke-linejoin="round"/>
    <path d="M 137.6997833251953 134.35134887695312 C 43.28495407104492 118.46643829345703 88.6071548461914 117.8141860961914 76.20249938964844 122.01597595214844" stroke-width="2" fill="none" stroke="rgb(0, 0, 0)" stroke-opacity="1.0" stroke-linecap="round" stroke-linejoin="round"/>
  </g>
</svg>
