<?xml version="1.0" ?>
<svg xmlns="http://www.w3.org/2000/svg" version="1.1" width="224" height="224">
  <defs/>
  <g>
    <path d="M 91.58187103271484 125.73324584960938 C 100.21631622314453 107.42416381835938 92.91434478759766 117.8521728515625 91.99263763427734 88.14985656738281" stroke-width="2" fill="none" stroke="rgb(0, 0, 0)" stroke-opacity="1.0" stroke-linecap="round" stroke-linejoin="round"/>
    <path d="M 145.9383544921875 138.3228302001953 C 128.04080200195312 143.66041564941406 100.9366455078125 140.2405548095703 111.42058563232422 129.33416748046875" stroke-width="2" fill="none" stroke="rgb(0, 0, 0)" stroke-opacity="1.0" stroke-linecap="round" stroke-linejoin="round"/>
    <path d="M 114.60137939453125 129.69387817382812 C 141.229248046875 139.8525848388672 156.04714965820312 129.065185546875 112.82795715332031 127.9247055053711" stroke-width="2" fill="none" stroke="rgb(0, 0, 0)" stroke-opacity="1.0" stroke-linecap="round" stroke-linejoin="round"/>
    <path d="M 141.81126403808594 137.1056365966797 C 141.70989990234375 136.37313842773438 148.51695251464844 119.68597412109375 167.9305877685547 126.15274810791016" stroke-width="2" fill="none" stroke="rgb(0, 0, 0)" stroke-opacity="1.0" stroke-linecap="round" stroke-linejoin="round"/>
    <path d="M 118.923828125 90.33776092529297 C 127.74465942382812 91.66510772705078 140.75042724609375 84.18859100341797 151.56910705566406 100.86277770996094" stroke-width="2" fill="none" stroke="rgb(0, 0, 0)" stroke-opacity="1.0" stroke-linecap="round" stroke-linejoin="round"/>
    <path d="M 116.3453369140625 109.67483520507812 C 131.67808532714844 90.78752136230469 128.4062042236328 101.31227111816406 121.09693908691406 96.5556869506836" stroke-width="2" fill="none" stroke="rgb(0, 0, 0)" stroke-opacity="1.0" stroke-linecap="round" stroke-linejoin="round"/>
    <path d="M 94.61274719238281 68.6255111694336 C 114.19613647460938 91.5933609008789 124.49872589111328 91.78750610351562 145.2587432861328 92.77025604248047" stroke-width="2" fill="none" stroke="rgb(0, 0, 0)" stroke-opacity="1.0" stroke-linecap="round" stroke-linejoin="round"/>
    <path d="M 82.86905670166016 144.4821319580078 C 79.58760833740234 150.43148803710938 37.360626220703125 159.13369750976562 40.078163146972656 128.51063537597656" stroke-width="2" fill="none" stroke="rgb(0, 0, 0)" stroke-opacity="1.0" stroke-linecap="round" stroke-linejoin="round"/>
    <path d="M 159.91842651367188 119.66231536865234 C 142.895263671875 112.0020751953125 144.0144805908203 118.18978118896484 162.67530822753906 123.19254302978516" stroke-width="2" fill="none" stroke="rgb(0, 0, 0)" stroke-opacity="1.0" stroke-linecap="round" stroke-linejoin="round"/>
    <path d="M 148.13706970214844 139.01974487304688 C 124.2146224975586 135.76747131347656 109.19646453857422 137.11195373535156 114.36786651611328 125.33946228027344" stroke-width="2" fill="none" stroke="rgb(0, 0, 0)" stroke-opacity="1.0" stroke-linecap="round" stroke-linejoin="round"/>
    <path d="M 184.99169921875 56.25880432128906 C 186.03404235839844 62.494056701660156 190.65292358398438 77.04611206054688 173.45004272460938 111.9449234008789" stroke-width="2" fill="none" stroke="rgb(0, 0, 0)" stroke-opacity="1.0" stroke-linecap="round" stroke-linejoin="round"/>
    <path d="M 182.18215942382812 124.18537902832031 C 184.7240753173828 161.33885192871094 178.70352172851562 144.54359436035156 103.33641815185547 150.51866149902344" stroke-width="2" fill="none" stroke="rgb(0, 0, 0)" stroke-opacity="1.0" stroke-linecap="round" stroke-linejoin="round"/>
    <path d="M 55.45613479614258 150.20361328125 C 79.56632232666016 151.470703125 105.23181915283203 156.5814666748047 101.70805358886719 147.1772003173828" stroke-width="2" fill="none" stroke="rgb(0, 0, 0)" stroke-opacity="1.0" stroke-linecap="round" stroke-linejoin="round"/>
    <path d="M 123.61239624023438 102.00663757324219 C 107.7596664428711 73.35464477539062 104.07061004638672 75.65717315673828 112.69355010986328 94.02394104003906" stroke-width="2" fill="none" stroke="rgb(0, 0, 0)" stroke-opacity="1.0" stroke-linecap="round" stroke-linejoin="round"/>
    <path d="M 156.85423278808594 83.64540100097656 C 151.81851196289062 97.4524154663086 153.4765167236328 80.21739959716797 182.1145782470703 55.43510437011719" stroke-width="2" fill="none" stroke="rgb(0, 0, 0)" stroke-opacity="1.0" stroke-linecap="round" stroke-linejoin="round"/>
    <path d="M 76.0101318359375 69.9534683227539 C 66.041748046875 99.58811950683594 81.72288513183594 98.67064666748047 83.75631713867188 118.7368392944336" stroke-width="2" fill="none" stroke="rgb(0, 0, 0)" stroke-opacity="1.0" stroke-linecap="round" stroke-linejoin="round"/>
  </g>
</svg>
