<?xml version="1.0" ?>
<svg xmlns="http://www.w3.org/2000/svg" version="1.1" width="224" height="224">
  <defs/>
  <g>
    <path d="M 103.86421203613281 126.89970397949219 C 115.43656158447266 112.3176040649414 178.38832092285156 115.42341613769531 138.1277618408203 110.77701568603516" stroke-width="2" fill="none" stroke="rgb(0, 0, 0)" stroke-opacity="1.0" stroke-linecap="round" stroke-linejoin="round"/>
    <path d="M 42.739471435546875 139.52024841308594 C 37.308773040771484 97.65728759765625 98.17562103271484 111.61396789550781 79.10011291503906 110.55470275878906" stroke-width="2" fill="none" stroke="rgb(0, 0, 0)" stroke-opacity="1.0" stroke-linecap="round" stroke-linejoin="round"/>
    <path d="M 151.67579650878906 129.60610961914062 C 72.81703186035156 142.1613006591797 118.8053207397461 65.42752075195312 156.4122314453125 95.85688781738281" stroke-width="2" fill="none" stroke="rgb(0, 0, 0)" stroke-opacity="1.0" stroke-linecap="round" stroke-linejoin="round"/>
    <path d="M 176.37799072265625 105.00569915771484 C 150.6492156982422 137.6368865966797 200.55711364746094 145.78062438964844 110.80784606933594 127.50118255615234" stroke-width="2" fill="none" stroke="rgb(0, 0, 0)" stroke-opacity="1.0" stroke-linecap="round" stroke-linejoin="round"/>
    <path d="M 99.89582061767578 140.06114196777344 C 57.18827819824219 136.52845764160156 250.19227600097656 152.14981079101562 87.39505004882812 120.6060562133789" stroke-width="2" fill="none" stroke="rgb(0, 0, 0)" stroke-opacity="1.0" stroke-linecap="round" stroke-linejoin="round"/>
    <path d="M 44.31999588012695 115.7521743774414 C 51.5901985168457 150.88526916503906 52.06611633300781 98.05680847167969 73.79499053955078 117.32061767578125" stroke-width="2" fill="none" stroke="rgb(0, 0, 0)" stroke-opacity="1.0" stroke-linecap="round" stroke-linejoin="round"/>
    <path d="M 106.3322982788086 111.57050323486328 C 76.42027282714844 10.645456314086914 130.8466339111328 129.24330139160156 115.7069091796875 94.58695983886719" stroke-width="2" fill="none" stroke="rgb(0, 0, 0)" stroke-opacity="1.0" stroke-linecap="round" stroke-linejoin="round"/>
    <path d="M 61.62319564819336 147.77346801757812 C 62.81639862060547 129.26153564453125 47.162105560302734 129.03878784179688 85.96227264404297 146.0029754638672" stroke-width="2" fill="none" stroke="rgb(0, 0, 0)" stroke-opacity="1.0" stroke-linecap="round" stroke-linejoin="round"/>
    <path d="M 123.12903594970703 121.76596069335938 C 150.9110870361328 99.82188415527344 66.8664321899414 139.3607177734375 154.4873504638672 141.63624572753906" stroke-width="2" fill="none" stroke="rgb(0, 0, 0)" stroke-opacity="1.0" stroke-linecap="round" stroke-linejoin="round"/>
    <path d="M 134.87852478027344 118.06013488769531 C 189.51235961914062 119.32503509521484 91.8272476196289 96.74298858642578 143.63755798339844 122.04443359375" stroke-width="2" fill="none" stroke="rgb(0, 0, 0)" stroke-opacity="1.0" stroke-linecap="round" stroke-linejoin="round"/>
    <path d="M 161.8802947998047 90.14322662353516 C 212.04977416992188 10.06039810180664 156.15432739257812 122.82771301269531 105.99890899658203 74.60363006591797" stroke-width="2" fill="none" stroke="rgb(0, 0, 0)" stroke-opacity="1.0" stroke-linecap="round" stroke-linejoin="round"/>
    <path d="M 161.6713409423828 101.3901138305664 C 127.38037109375 90.999755859375 267.39947509765625 179.6852569580078 52.42689514160156 150.40740966796875" stroke-width="2" fill="none" stroke="rgb(0, 0, 0)" stroke-opacity="1.0" stroke-linecap="round" stroke-linejoin="round"/>
    <path d="M 50.96363067626953 149.18711853027344 C 42.38970947265625 131.0082244873047 40.16752624511719 149.32254028320312 74.78741455078125 152.48434448242188" stroke-width="2" fill="none" stroke="rgb(0, 0, 0)" stroke-opacity="1.0" stroke-linecap="round" stroke-linejoin="round"/>
    <path d="M 175.5645751953125 151.16444396972656 C 189.8442840576172 133.5015411376953 160.02122497558594 148.2332000732422 152.71742248535156 156.479736328125" stroke-width="2" fill="none" stroke="rgb(0, 0, 0)" stroke-opacity="1.0" stroke-linecap="round" stroke-linejoin="round"/>
    <path d="M 167.57464599609375 96.06637573242188 C 176.8953399658203 136.0657501220703 208.1615753173828 1.867323637008667 171.49095153808594 91.4795913696289" stroke-width="2" fill="none" stroke="rgb(0, 0, 0)" stroke-opacity="1.0" stroke-linecap="round" stroke-linejoin="round"/>
    <path d="M 147.79393005371094 146.44374084472656 C 53.13590621948242 132.9485626220703 153.11166381835938 127.46318817138672 115.84857940673828 134.76780700683594" stroke-width="2" fill="none" stroke="rgb(0, 0, 0)" stroke-opacity="1.0" stroke-linecap="round" stroke-linejoin="round"/>
  </g>
</svg>
