<?xml version="1.0" ?>
<svg xmlns="http://www.w3.org/2000/svg" version="1.1" width="224" height="224">
  <defs/>
  <g>
    <path d="M 164.9265899658203 121.56139373779297 C 95.89069366455078 129.4227294921875 218.2001190185547 134.82212829589844 138.61671447753906 131.98004150390625" stroke-width="2" fill="none" stroke="rgb(0, 0, 0)" stroke-opacity="1.0" stroke-linecap="round" stroke-linejoin="round"/>
    <path d="M 162.6111297607422 144.3353271484375 C 29.886451721191406 145.4188995361328 81.4101791381836 135.60092163085938 59.9743766784668 129.21743774414062" stroke-width="2" fill="none" stroke="rgb(0, 0, 0)" stroke-opacity="1.0" stroke-linecap="round" stroke-linejoin="round"/>
    <path d="M 142.7716827392578 109.92703247070312 C 129.9441375732422 132.61553955078125 105.92423248291016 84.56401824951172 164.57461547851562 95.33292388916016" stroke-width="2" fill="none" stroke="rgb(0, 0, 0)" stroke-opacity="1.0" stroke-linecap="round" stroke-linejoin="round"/>
    <path d="M 172.7899627685547 144.51327514648438 C 111.18321228027344 126.27864837646484 160.94342041015625 116.70758819580078 126.7695083618164 118.65338134765625" stroke-width="2" fill="none" stroke="rgb(0, 0, 0)" stroke-opacity="1.0" stroke-linecap="round" stroke-linejoin="round"/>
    <path d="M 153.71392822265625 127.1904525756836 C 128.55337524414062 99.90345764160156 247.5308837890625 172.6793975830078 113.22294616699219 136.20782470703125" stroke-width="2" fill="none" stroke="rgb(0, 0, 0)" stroke-opacity="1.0" stroke-linecap="round" stroke-linejoin="round"/>
    <path d="M 111.34307861328125 96.6416244506836 C 91.74308776855469 139.1953125 122.10783386230469 87.5628890991211 106.43079376220703 111.00171661376953" stroke-width="2" fill="none" stroke="rgb(0, 0, 0)" stroke-opacity="1.0" stroke-linecap="round" stroke-linejoin="round"/>
    <path d="M 104.24103546142578 104.60012817382812 C 87.41923522949219 0.4801883101463318 153.29420471191406 153.61636352539062 173.21923828125 81.5638656616211" stroke-width="2" fill="none" stroke="rgb(0, 0, 0)" stroke-opacity="1.0" stroke-linecap="round" stroke-linejoin="round"/>
    <path d="M 62.207054138183594 108.1246566772461 C 29.35360336303711 146.9881134033203 44.33780288696289 147.67108154296875 79.52495574951172 149.35426330566406" stroke-width="2" fill="none" stroke="rgb(0, 0, 0)" stroke-opacity="1.0" stroke-linecap="round" stroke-linejoin="round"/>
    <path d="M 89.5284194946289 140.98716735839844 C 263.2043762207031 188.89854431152344 81.44741821289062 116.35250854492188 115.1364974975586 137.38204956054688" stroke-width="2" fill="none" stroke="rgb(0, 0, 0)" stroke-opacity="1.0" stroke-linecap="round" stroke-linejoin="round"/>
    <path d="M 102.19923400878906 134.29483032226562 C 68.64154052734375 125.40258026123047 104.40924835205078 129.31222534179688 98.25823211669922 123.394775390625" stroke-width="2" fill="none" stroke="rgb(0, 0, 0)" stroke-opacity="1.0" stroke-linecap="round" stroke-linejoin="round"/>
    <path d="M 165.85032653808594 109.21162414550781 C 202.69068908691406 26.000125885009766 153.4742431640625 92.31612396240234 146.10433959960938 93.88385009765625" stroke-width="2" fill="none" stroke="rgb(0, 0, 0)" stroke-opacity="1.0" stroke-linecap="round" stroke-linejoin="round"/>
    <path d="M 176.68385314941406 113.35062408447266 C 145.39401245117188 123.0601577758789 247.15817260742188 205.17153930664062 51.109859466552734 141.92176818847656" stroke-width="2" fill="none" stroke="rgb(0, 0, 0)" stroke-opacity="1.0" stroke-linecap="round" stroke-linejoin="round"/>
    <path d="M 95.85900115966797 96.73030090332031 C 28.023048400878906 78.23564910888672 25.282503128051758 171.8346405029297 111.95069885253906 163.40110778808594" stroke-width="2" fill="none" stroke="rgb(0, 0, 0)" stroke-opacity="1.0" stroke-linecap="round" stroke-linejoin="round"/>
    <path d="M 126.83678436279297 119.27420043945312 C 127.1869125366211 67.55939483642578 118.43140411376953 127.05132293701172 108.1889419555664 68.58879852294922" stroke-width="2" fill="none" stroke="rgb(0, 0, 0)" stroke-opacity="1.0" stroke-linecap="round" stroke-linejoin="round"/>
    <path d="M 160.5040283203125 102.18588256835938 C 176.9795379638672 153.4588623046875 200.81678771972656 7.341991901397705 174.0270538330078 70.6671371459961" stroke-width="2" fill="none" stroke="rgb(0, 0, 0)" stroke-opacity="1.0" stroke-linecap="round" stroke-linejoin="round"/>
    <path d="M 169.35519409179688 125.29316711425781 C 142.75265502929688 150.737548828125 197.7216033935547 146.72238159179688 120.57636260986328 136.51402282714844" stroke-width="2" fill="none" stroke="rgb(0, 0, 0)" stroke-opacity="1.0" stroke-linecap="round" stroke-linejoin="round"/>
  </g>
</svg>
