<?xml version="1.0" ?>
<svg xmlns="http://www.w3.org/2000/svg" version="1.1" width="224" height="224">
  <defs/>
  <g>
    <path d="M 155.3370819091797 120.40608978271484 C 92.34944915771484 138.53118896484375 181.52638244628906 108.20755767822266 126.14820861816406 121.52630615234375" stroke-width="2" fill="none" stroke="rgb(0, 0, 0)" stroke-opacity="1.0" stroke-linecap="round" stroke-linejoin="round"/>
    <path d="M 148.47926330566406 140.21054077148438 C 39.930381774902344 101.40956115722656 126.26604461669922 124.5340576171875 76.68851470947266 122.33086395263672" stroke-width="2" fill="none" stroke="rgb(0, 0, 0)" stroke-opacity="1.0" stroke-linecap="round" stroke-linejoin="round"/>
    <path d="M 123.00592041015625 103.01519775390625 C 169.56732177734375 93.62283325195312 84.98272705078125 97.44279479980469 156.12319946289062 95.43952178955078" stroke-width="2" fill="none" stroke="rgb(0, 0, 0)" stroke-opacity="1.0" stroke-linecap="round" stroke-linejoin="round"/>
    <path d="M 139.4493865966797 132.30078125 C 85.72515869140625 123.99333190917969 225.89491271972656 131.27090454101562 130.06333923339844 129.29476928710938" stroke-width="2" fill="none" stroke="rgb(0, 0, 0)" stroke-opacity="1.0" stroke-linecap="round" stroke-linejoin="round"/>
    <path d="M 134.30335998535156 148.3625030517578 C 124.34723663330078 142.92327880859375 241.8888702392578 160.66172790527344 87.85604858398438 137.47711181640625" stroke-width="2" fill="none" stroke="rgb(0, 0, 0)" stroke-opacity="1.0" stroke-linecap="round" stroke-linejoin="round"/>
    <path d="M 94.96997833251953 109.263671875 C 75.25447845458984 102.65016174316406 111.1255111694336 90.78356170654297 116.20978546142578 128.30307006835938" stroke-width="2" fill="none" stroke="rgb(0, 0, 0)" stroke-opacity="1.0" stroke-linecap="round" stroke-linejoin="round"/>
    <path d="M 101.56006622314453 103.03368377685547 C 87.74761199951172 10.825757026672363 128.49285888671875 144.0644989013672 168.8446807861328 87.50634002685547" stroke-width="2" fill="none" stroke="rgb(0, 0, 0)" stroke-opacity="1.0" stroke-linecap="round" stroke-linejoin="round"/>
    <path d="M 71.73775482177734 112.388671875 C 50.161197662353516 92.52021026611328 29.949121475219727 147.3910675048828 57.076900482177734 146.2816925048828" stroke-width="2" fill="none" stroke="rgb(0, 0, 0)" stroke-opacity="1.0" stroke-linecap="round" stroke-linejoin="round"/>
    <path d="M 117.95640563964844 144.96607971191406 C 208.76138305664062 146.1492156982422 123.74698638916016 101.99203491210938 147.3764190673828 119.93260955810547" stroke-width="2" fill="none" stroke="rgb(0, 0, 0)" stroke-opacity="1.0" stroke-linecap="round" stroke-linejoin="round"/>
    <path d="M 87.32726287841797 147.86309814453125 C 117.86474609375 152.5513153076172 20.39795684814453 130.94712829589844 62.57785415649414 152.146728515625" stroke-width="2" fill="none" stroke="rgb(0, 0, 0)" stroke-opacity="1.0" stroke-linecap="round" stroke-linejoin="round"/>
    <path d="M 169.43545532226562 115.72557830810547 C 210.77734375 3.9749608039855957 155.2969970703125 104.75904846191406 137.34677124023438 97.2602767944336" stroke-width="2" fill="none" stroke="rgb(0, 0, 0)" stroke-opacity="1.0" stroke-linecap="round" stroke-linejoin="round"/>
    <path d="M 170.8808135986328 110.910888671875 C 139.05894470214844 127.31190490722656 236.07957458496094 182.8902130126953 52.73329544067383 135.740234375" stroke-width="2" fill="none" stroke="rgb(0, 0, 0)" stroke-opacity="1.0" stroke-linecap="round" stroke-linejoin="round"/>
    <path d="M 101.78104400634766 91.4828872680664 C 27.555747985839844 86.59620666503906 32.373451232910156 156.94180297851562 127.0878677368164 162.09556579589844" stroke-width="2" fill="none" stroke="rgb(0, 0, 0)" stroke-opacity="1.0" stroke-linecap="round" stroke-linejoin="round"/>
    <path d="M 108.997314453125 131.01470947265625 C 113.01302337646484 86.59903717041016 113.28466796875 138.834228515625 119.23430633544922 107.94835662841797" stroke-width="2" fill="none" stroke="rgb(0, 0, 0)" stroke-opacity="1.0" stroke-linecap="round" stroke-linejoin="round"/>
    <path d="M 152.4008331298828 96.60580444335938 C 163.54681396484375 152.53799438476562 208.67318725585938 1.7478680610656738 170.0542449951172 94.64866638183594" stroke-width="2" fill="none" stroke="rgb(0, 0, 0)" stroke-opacity="1.0" stroke-linecap="round" stroke-linejoin="round"/>
    <path d="M 119.03347778320312 135.37490844726562 C 71.05552673339844 131.49664306640625 189.6732940673828 135.991455078125 127.98899841308594 119.15314483642578" stroke-width="2" fill="none" stroke="rgb(0, 0, 0)" stroke-opacity="1.0" stroke-linecap="round" stroke-linejoin="round"/>
  </g>
</svg>
