<?xml version="1.0" ?>
<svg xmlns="http://www.w3.org/2000/svg" version="1.1" width="224" height="224">
  <defs/>
  <g>
    <path d="M 108.27068328857422 134.96807861328125 C 64.0980453491211 111.33390808105469 125.0639419555664 165.193359375 110.02405548095703 116.3714370727539" stroke-width="2" fill="none" stroke="rgb(0, 0, 0)" stroke-opacity="1.0" stroke-linecap="round" stroke-linejoin="round"/>
    <path d="M 143.27828979492188 128.4873046875 C 93.69230651855469 140.197265625 189.2664337158203 126.8366470336914 124.64700317382812 126.9774169921875" stroke-width="2" fill="none" stroke="rgb(0, 0, 0)" stroke-opacity="1.0" stroke-linecap="round" stroke-linejoin="round"/>
    <path d="M 158.1637420654297 130.02462768554688 C 127.51351165771484 165.49110412597656 90.6191635131836 123.21870422363281 95.44635009765625 130.6819305419922" stroke-width="2" fill="none" stroke="rgb(0, 0, 0)" stroke-opacity="1.0" stroke-linecap="round" stroke-linejoin="round"/>
    <path d="M 163.82778930664062 113.56476593017578 C 122.18812561035156 92.35137939453125 235.1979522705078 153.69081115722656 127.23310852050781 124.39506530761719" stroke-width="2" fill="none" stroke="rgb(0, 0, 0)" stroke-opacity="1.0" stroke-linecap="round" stroke-linejoin="round"/>
    <path d="M 123.2010726928711 114.71405029296875 C 76.94536590576172 131.0860137939453 133.9913330078125 104.19770812988281 104.63692474365234 116.10353088378906" stroke-width="2" fill="none" stroke="rgb(0, 0, 0)" stroke-opacity="1.0" stroke-linecap="round" stroke-linejoin="round"/>
    <path d="M 116.67801666259766 118.593994140625 C 95.03925323486328 126.6355209350586 101.40851593017578 95.6495361328125 116.28007507324219 109.0628890991211" stroke-width="2" fill="none" stroke="rgb(0, 0, 0)" stroke-opacity="1.0" stroke-linecap="round" stroke-linejoin="round"/>
    <path d="M 97.32353973388672 69.18058776855469 C 123.31512451171875 62.58494567871094 116.55204772949219 116.09880065917969 166.27577209472656 85.94918823242188" stroke-width="2" fill="none" stroke="rgb(0, 0, 0)" stroke-opacity="1.0" stroke-linecap="round" stroke-linejoin="round"/>
    <path d="M 112.061767578125 148.1746063232422 C 104.44752502441406 117.98764038085938 7.370478630065918 171.55502319335938 51.78227233886719 107.24211883544922" stroke-width="2" fill="none" stroke="rgb(0, 0, 0)" stroke-opacity="1.0" stroke-linecap="round" stroke-linejoin="round"/>
    <path d="M 135.4305419921875 120.86162567138672 C 183.36154174804688 121.96772003173828 107.64275360107422 108.70816040039062 145.3871612548828 124.47881317138672" stroke-width="2" fill="none" stroke="rgb(0, 0, 0)" stroke-opacity="1.0" stroke-linecap="round" stroke-linejoin="round"/>
    <path d="M 72.71798706054688 109.89271545410156 C 102.94274139404297 116.58666229248047 70.12691497802734 88.15250396728516 118.2635498046875 148.88572692871094" stroke-width="2" fill="none" stroke="rgb(0, 0, 0)" stroke-opacity="1.0" stroke-linecap="round" stroke-linejoin="round"/>
    <path d="M 150.85980224609375 98.93606567382812 C 214.06752014160156 20.359758377075195 190.66677856445312 81.82441711425781 169.30007934570312 130.2750244140625" stroke-width="2" fill="none" stroke="rgb(0, 0, 0)" stroke-opacity="1.0" stroke-linecap="round" stroke-linejoin="round"/>
    <path d="M 170.05747985839844 109.94891357421875 C 182.9444122314453 174.40658569335938 164.42933654785156 146.21583557128906 124.36231994628906 153.3678436279297" stroke-width="2" fill="none" stroke="rgb(0, 0, 0)" stroke-opacity="1.0" stroke-linecap="round" stroke-linejoin="round"/>
    <path d="M 85.24267578125 150.81129455566406 C 78.22692108154297 158.5111846923828 7.613927841186523 141.6715087890625 104.83271026611328 144.69432067871094" stroke-width="2" fill="none" stroke="rgb(0, 0, 0)" stroke-opacity="1.0" stroke-linecap="round" stroke-linejoin="round"/>
    <path d="M 92.50481414794922 107.67631530761719 C 99.96569061279297 53.68449020385742 86.45274353027344 74.67174530029297 101.34710693359375 108.09776306152344" stroke-width="2" fill="none" stroke="rgb(0, 0, 0)" stroke-opacity="1.0" stroke-linecap="round" stroke-linejoin="round"/>
    <path d="M 164.092529296875 94.84786224365234 C 154.22731018066406 136.02401733398438 210.77761840820312 67.36199951171875 182.54336547851562 78.67633056640625" stroke-width="2" fill="none" stroke="rgb(0, 0, 0)" stroke-opacity="1.0" stroke-linecap="round" stroke-linejoin="round"/>
    <path d="M 50.804656982421875 123.7688217163086 C 35.54545211791992 86.72679901123047 119.02652740478516 107.83041381835938 102.20394134521484 107.90387725830078" stroke-width="2" fill="none" stroke="rgb(0, 0, 0)" stroke-opacity="1.0" stroke-linecap="round" stroke-linejoin="round"/>
  </g>
</svg>
