<?xml version="1.0" ?>
<svg xmlns="http://www.w3.org/2000/svg" version="1.1" width="224" height="224">
  <defs/>
  <g>
    <path d="M 99.58976745605469 123.41825103759766 C 95.97296142578125 108.63887023925781 87.64689636230469 130.68215942382812 79.89005279541016 129.51905822753906" stroke-width="2" fill="none" stroke="rgb(0, 0, 0)" stroke-opacity="1.0" stroke-linecap="round" stroke-linejoin="round"/>
    <path d="M 120.5894546508789 135.43881225585938 C 136.78118896484375 147.5279541015625 184.67750549316406 140.48995971679688 137.4627685546875 135.38241577148438" stroke-width="2" fill="none" stroke="rgb(0, 0, 0)" stroke-opacity="1.0" stroke-linecap="round" stroke-linejoin="round"/>
    <path d="M 150.7986602783203 130.1796875 C 140.4266815185547 152.09776306152344 121.47831726074219 128.39678955078125 101.12872314453125 129.82571411132812" stroke-width="2" fill="none" stroke="rgb(0, 0, 0)" stroke-opacity="1.0" stroke-linecap="round" stroke-linejoin="round"/>
    <path d="M 146.28480529785156 122.89962768554688 C 106.86163330078125 124.43671417236328 173.72787475585938 144.7915802001953 141.21502685546875 129.4495849609375" stroke-width="2" fill="none" stroke="rgb(0, 0, 0)" stroke-opacity="1.0" stroke-linecap="round" stroke-linejoin="round"/>
    <path d="M 121.79729461669922 99.7677230834961 C 126.33224487304688 98.22943878173828 132.8699951171875 99.91629791259766 123.03669738769531 101.5494384765625" stroke-width="2" fill="none" stroke="rgb(0, 0, 0)" stroke-opacity="1.0" stroke-linecap="round" stroke-linejoin="round"/>
    <path d="M 124.86266326904297 100.24258422851562 C 123.39458465576172 101.32307434082031 104.71556091308594 102.94320678710938 114.1911392211914 112.28570556640625" stroke-width="2" fill="none" stroke="rgb(0, 0, 0)" stroke-opacity="1.0" stroke-linecap="round" stroke-linejoin="round"/>
    <path d="M 100.89122009277344 67.30126190185547 C 118.48458099365234 84.83968353271484 119.67620086669922 104.49967956542969 150.28933715820312 96.64948272705078" stroke-width="2" fill="none" stroke="rgb(0, 0, 0)" stroke-opacity="1.0" stroke-linecap="round" stroke-linejoin="round"/>
    <path d="M 108.70486450195312 153.6717987060547 C 91.75343322753906 157.43601989746094 8.588480949401855 160.16770935058594 50.6863899230957 106.19126892089844" stroke-width="2" fill="none" stroke="rgb(0, 0, 0)" stroke-opacity="1.0" stroke-linecap="round" stroke-linejoin="round"/>
    <path d="M 129.3835906982422 123.62879943847656 C 152.6715850830078 132.3103790283203 124.8622055053711 108.43180847167969 138.48117065429688 127.83689880371094" stroke-width="2" fill="none" stroke="rgb(0, 0, 0)" stroke-opacity="1.0" stroke-linecap="round" stroke-linejoin="round"/>
    <path d="M 101.6363754272461 130.09400939941406 C 129.4942626953125 137.57447814941406 108.82625579833984 112.38412475585938 114.50743103027344 131.31906127929688" stroke-width="2" fill="none" stroke="rgb(0, 0, 0)" stroke-opacity="1.0" stroke-linecap="round" stroke-linejoin="round"/>
    <path d="M 150.6417694091797 85.68797302246094 C 198.06671142578125 34.22671127319336 191.60801696777344 61.353729248046875 158.84201049804688 127.69021606445312" stroke-width="2" fill="none" stroke="rgb(0, 0, 0)" stroke-opacity="1.0" stroke-linecap="round" stroke-linejoin="round"/>
    <path d="M 173.31776428222656 132.79713439941406 C 181.34962463378906 164.3705596923828 160.1730194091797 145.46327209472656 118.04054260253906 147.6803436279297" stroke-width="2" fill="none" stroke="rgb(0, 0, 0)" stroke-opacity="1.0" stroke-linecap="round" stroke-linejoin="round"/>
    <path d="M 46.91875076293945 146.6481475830078 C 89.95208740234375 143.5358428955078 86.30722045898438 146.61001586914062 98.41191101074219 154.1035919189453" stroke-width="2" fill="none" stroke="rgb(0, 0, 0)" stroke-opacity="1.0" stroke-linecap="round" stroke-linejoin="round"/>
    <path d="M 94.94734191894531 101.97404479980469 C 95.75615692138672 57.14418411254883 100.42576599121094 55.44595718383789 112.17642211914062 101.27987670898438" stroke-width="2" fill="none" stroke="rgb(0, 0, 0)" stroke-opacity="1.0" stroke-linecap="round" stroke-linejoin="round"/>
    <path d="M 174.08233642578125 138.4518280029297 C 154.4598846435547 125.30860900878906 168.80203247070312 119.9539794921875 158.73191833496094 104.7719497680664" stroke-width="2" fill="none" stroke="rgb(0, 0, 0)" stroke-opacity="1.0" stroke-linecap="round" stroke-linejoin="round"/>
    <path d="M 49.410011291503906 110.4573745727539 C 80.82965087890625 102.03275299072266 104.23841094970703 106.83763122558594 82.26849365234375 109.83033752441406" stroke-width="2" fill="none" stroke="rgb(0, 0, 0)" stroke-opacity="1.0" stroke-linecap="round" stroke-linejoin="round"/>
  </g>
</svg>
