<?xml version="1.0" ?>
<svg xmlns="http://www.w3.org/2000/svg" version="1.1" width="224" height="224">
  <defs/>
  <g>
    <path d="M 155.51856994628906 124.96823120117188 C 66.19989776611328 120.7274398803711 189.4891815185547 147.4634246826172 123.25920104980469 125.84307098388672" stroke-width="2" fill="none" stroke="rgb(0, 0, 0)" stroke-opacity="1.0" stroke-linecap="round" stroke-linejoin="round"/>
    <path d="M 67.31493377685547 143.89688110351562 C 8.35827922821045 142.821533203125 65.081787109375 112.85613250732422 50.053993225097656 115.22453308105469" stroke-width="2" fill="none" stroke="rgb(0, 0, 0)" stroke-opacity="1.0" stroke-linecap="round" stroke-linejoin="round"/>
    <path d="M 168.81594848632812 142.3904266357422 C 76.7714614868164 142.94906616210938 119.78662109375 48.045074462890625 160.7827911376953 98.47645568847656" stroke-width="2" fill="none" stroke="rgb(0, 0, 0)" stroke-opacity="1.0" stroke-linecap="round" stroke-linejoin="round"/>
    <path d="M 155.9312286376953 111.70929718017578 C 114.92768859863281 103.76943969726562 196.1260986328125 115.80880737304688 160.92173767089844 108.94514465332031" stroke-width="2" fill="none" stroke="rgb(0, 0, 0)" stroke-opacity="1.0" stroke-linecap="round" stroke-linejoin="round"/>
    <path d="M 144.4750518798828 126.69963073730469 C 41.39841079711914 136.89688110351562 264.697998046875 157.9597625732422 121.02491760253906 163.0190887451172" stroke-width="2" fill="none" stroke="rgb(0, 0, 0)" stroke-opacity="1.0" stroke-linecap="round" stroke-linejoin="round"/>
    <path d="M 89.89463806152344 120.2490463256836 C 102.93238067626953 126.71379089355469 110.90084075927734 128.3809814453125 114.47907257080078 93.62184143066406" stroke-width="2" fill="none" stroke="rgb(0, 0, 0)" stroke-opacity="1.0" stroke-linecap="round" stroke-linejoin="round"/>
    <path d="M 91.00479125976562 92.1514663696289 C 84.5821533203125 14.071043968200684 141.4960479736328 161.19297790527344 102.63938903808594 132.3656463623047" stroke-width="2" fill="none" stroke="rgb(0, 0, 0)" stroke-opacity="1.0" stroke-linecap="round" stroke-linejoin="round"/>
    <path d="M 64.64248657226562 135.4630584716797 C 30.820051193237305 127.69017028808594 23.038564682006836 145.0788116455078 94.43624877929688 153.4048309326172" stroke-width="2" fill="none" stroke="rgb(0, 0, 0)" stroke-opacity="1.0" stroke-linecap="round" stroke-linejoin="round"/>
    <path d="M 103.5886459350586 110.8818130493164 C 172.3627471923828 100.70773315429688 75.23893737792969 116.93026733398438 142.4645538330078 134.50137329101562" stroke-width="2" fill="none" stroke="rgb(0, 0, 0)" stroke-opacity="1.0" stroke-linecap="round" stroke-linejoin="round"/>
    <path d="M 119.8446273803711 114.78748321533203 C 194.06411743164062 134.00660705566406 124.03385925292969 137.07302856445312 156.2097930908203 127.35015106201172" stroke-width="2" fill="none" stroke="rgb(0, 0, 0)" stroke-opacity="1.0" stroke-linecap="round" stroke-linejoin="round"/>
    <path d="M 171.22006225585938 86.89167022705078 C 197.75917053222656 6.649302959442139 155.29776000976562 126.03712463378906 100.93081665039062 67.98452758789062" stroke-width="2" fill="none" stroke="rgb(0, 0, 0)" stroke-opacity="1.0" stroke-linecap="round" stroke-linejoin="round"/>
    <path d="M 175.94798278808594 104.48281860351562 C 143.53363037109375 112.93634796142578 228.4866180419922 177.49252319335938 103.0125732421875 148.46966552734375" stroke-width="2" fill="none" stroke="rgb(0, 0, 0)" stroke-opacity="1.0" stroke-linecap="round" stroke-linejoin="round"/>
    <path d="M 88.24533081054688 105.02879333496094 C 50.55963134765625 85.72201538085938 3.913970708847046 160.71493530273438 93.822509765625 159.71983337402344" stroke-width="2" fill="none" stroke="rgb(0, 0, 0)" stroke-opacity="1.0" stroke-linecap="round" stroke-linejoin="round"/>
    <path d="M 141.69232177734375 157.06536865234375 C 140.98585510253906 151.00216674804688 139.68191528320312 152.2486114501953 99.16857147216797 133.73602294921875" stroke-width="2" fill="none" stroke="rgb(0, 0, 0)" stroke-opacity="1.0" stroke-linecap="round" stroke-linejoin="round"/>
    <path d="M 153.0213165283203 102.43428802490234 C 168.04010009765625 178.78175354003906 209.0738525390625 -23.744672775268555 165.28012084960938 93.10414123535156" stroke-width="2" fill="none" stroke="rgb(0, 0, 0)" stroke-opacity="1.0" stroke-linecap="round" stroke-linejoin="round"/>
    <path d="M 163.0648651123047 142.95103454589844 C 44.56557083129883 120.8450927734375 144.6702423095703 129.22360229492188 88.60648345947266 132.9247283935547" stroke-width="2" fill="none" stroke="rgb(0, 0, 0)" stroke-opacity="1.0" stroke-linecap="round" stroke-linejoin="round"/>
  </g>
</svg>
