<?xml version="1.0" ?>
<svg xmlns="http://www.w3.org/2000/svg" version="1.1" width="224" height="224">
  <defs/>
  <g>
    <path d="M 132.8909149169922 117.5997085571289 C 79.16439819335938 112.22676086425781 159.72166442871094 133.24545288085938 114.35711669921875 111.93611145019531" stroke-width="2" fill="none" stroke="rgb(0, 0, 0)" stroke-opacity="1.0" stroke-linecap="round" stroke-linejoin="round"/>
    <path d="M 69.12187194824219 130.27395629882812 C 23.081378936767578 100.66381072998047 79.13355255126953 121.6775131225586 53.83230209350586 120.57841491699219" stroke-width="2" fill="none" stroke="rgb(0, 0, 0)" stroke-opacity="1.0" stroke-linecap="round" stroke-linejoin="round"/>
    <path d="M 145.3501739501953 153.48988342285156 C 77.8547592163086 153.4256134033203 103.41464233398438 56.466129302978516 149.13417053222656 98.3577880859375" stroke-width="2" fill="none" stroke="rgb(0, 0, 0)" stroke-opacity="1.0" stroke-linecap="round" stroke-linejoin="round"/>
    <path d="M 144.56544494628906 101.64027404785156 C 93.36640167236328 102.80807495117188 198.22300720214844 101.20024108886719 110.54586029052734 108.14469909667969" stroke-width="2" fill="none" stroke="rgb(0, 0, 0)" stroke-opacity="1.0" stroke-linecap="round" stroke-linejoin="round"/>
    <path d="M 131.66812133789062 144.22396850585938 C 89.06766510009766 121.58041381835938 249.76458740234375 171.1291046142578 77.4753189086914 135.43418884277344" stroke-width="2" fill="none" stroke="rgb(0, 0, 0)" stroke-opacity="1.0" stroke-linecap="round" stroke-linejoin="round"/>
    <path d="M 101.080810546875 98.97716522216797 C 74.50415802001953 110.1449203491211 99.28587341308594 90.59713745117188 106.08246612548828 104.66703796386719" stroke-width="2" fill="none" stroke="rgb(0, 0, 0)" stroke-opacity="1.0" stroke-linecap="round" stroke-linejoin="round"/>
    <path d="M 104.91697692871094 129.38418579101562 C 71.55448913574219 -2.6718811988830566 130.71664428710938 109.9454574584961 101.41937255859375 101.83332824707031" stroke-width="2" fill="none" stroke="rgb(0, 0, 0)" stroke-opacity="1.0" stroke-linecap="round" stroke-linejoin="round"/>
    <path d="M 82.68303680419922 148.8957977294922 C 51.83207702636719 135.491455078125 20.815092086791992 146.2529296875 109.02758026123047 145.14024353027344" stroke-width="2" fill="none" stroke="rgb(0, 0, 0)" stroke-opacity="1.0" stroke-linecap="round" stroke-linejoin="round"/>
    <path d="M 112.19654083251953 114.98906707763672 C 134.10214233398438 112.9814224243164 65.32752990722656 121.96804809570312 126.048828125 117.11734771728516" stroke-width="2" fill="none" stroke="rgb(0, 0, 0)" stroke-opacity="1.0" stroke-linecap="round" stroke-linejoin="round"/>
    <path d="M 140.75994873046875 100.73906707763672 C 176.27731323242188 142.14517211914062 118.9633560180664 117.19988250732422 158.8318634033203 122.25879669189453" stroke-width="2" fill="none" stroke="rgb(0, 0, 0)" stroke-opacity="1.0" stroke-linecap="round" stroke-linejoin="round"/>
    <path d="M 155.239013671875 80.77704620361328 C 216.32623291015625 15.103943824768066 156.87379455566406 134.3142547607422 101.6727294921875 68.98165893554688" stroke-width="2" fill="none" stroke="rgb(0, 0, 0)" stroke-opacity="1.0" stroke-linecap="round" stroke-linejoin="round"/>
    <path d="M 176.46119689941406 106.40119934082031 C 140.94711303710938 140.60150146484375 244.86805725097656 188.95681762695312 49.72396469116211 152.90802001953125" stroke-width="2" fill="none" stroke="rgb(0, 0, 0)" stroke-opacity="1.0" stroke-linecap="round" stroke-linejoin="round"/>
    <path d="M 84.9655990600586 100.5484619140625 C 40.48538589477539 90.44017028808594 15.170379638671875 160.70115661621094 88.1319580078125 152.51123046875" stroke-width="2" fill="none" stroke="rgb(0, 0, 0)" stroke-opacity="1.0" stroke-linecap="round" stroke-linejoin="round"/>
    <path d="M 155.85617065429688 155.01536560058594 C 160.7879638671875 123.95511627197266 117.16787719726562 144.70928955078125 90.88556671142578 131.2799072265625" stroke-width="2" fill="none" stroke="rgb(0, 0, 0)" stroke-opacity="1.0" stroke-linecap="round" stroke-linejoin="round"/>
    <path d="M 159.74716186523438 112.28707122802734 C 178.5380401611328 140.20228576660156 207.8148651123047 5.171197891235352 166.20657348632812 89.9626235961914" stroke-width="2" fill="none" stroke="rgb(0, 0, 0)" stroke-opacity="1.0" stroke-linecap="round" stroke-linejoin="round"/>
    <path d="M 144.86801147460938 141.90469360351562 C 39.037376403808594 118.32966613769531 125.17787170410156 119.08759307861328 74.5707015991211 134.25999450683594" stroke-width="2" fill="none" stroke="rgb(0, 0, 0)" stroke-opacity="1.0" stroke-linecap="round" stroke-linejoin="round"/>
  </g>
</svg>
