<?xml version="1.0" ?>
<svg xmlns="http://www.w3.org/2000/svg" version="1.1" width="224" height="224">
  <defs/>
  <g>
    <path d="M 131.92587280273438 126.69781494140625 C 72.64525604248047 114.09458923339844 161.25860595703125 134.0834503173828 110.29421997070312 111.42515563964844" stroke-width="2" fill="none" stroke="rgb(0, 0, 0)" stroke-opacity="1.0" stroke-linecap="round" stroke-linejoin="round"/>
    <path d="M 67.29418182373047 123.355712890625 C 21.82758903503418 99.04640197753906 78.01618957519531 119.70982360839844 45.017547607421875 113.86566162109375" stroke-width="2" fill="none" stroke="rgb(0, 0, 0)" stroke-opacity="1.0" stroke-linecap="round" stroke-linejoin="round"/>
    <path d="M 144.8251190185547 142.59669494628906 C 83.83164978027344 149.99786376953125 108.79988861083984 57.57527160644531 140.8656463623047 98.61372375488281" stroke-width="2" fill="none" stroke="rgb(0, 0, 0)" stroke-opacity="1.0" stroke-linecap="round" stroke-linejoin="round"/>
    <path d="M 137.21884155273438 94.7564926147461 C 89.69938659667969 100.85504150390625 194.46664428710938 109.80199432373047 119.71765899658203 114.46701049804688" stroke-width="2" fill="none" stroke="rgb(0, 0, 0)" stroke-opacity="1.0" stroke-linecap="round" stroke-linejoin="round"/>
    <path d="M 126.43920135498047 143.22604370117188 C 77.11868286132812 127.87920379638672 247.87472534179688 178.77764892578125 78.02064514160156 140.49276733398438" stroke-width="2" fill="none" stroke="rgb(0, 0, 0)" stroke-opacity="1.0" stroke-linecap="round" stroke-linejoin="round"/>
    <path d="M 100.72252655029297 101.39666748046875 C 76.42515563964844 106.91828155517578 100.53497314453125 92.91690063476562 101.39452362060547 107.31023406982422" stroke-width="2" fill="none" stroke="rgb(0, 0, 0)" stroke-opacity="1.0" stroke-linecap="round" stroke-linejoin="round"/>
    <path d="M 100.99109649658203 132.67446899414062 C 62.102317810058594 -4.820248603820801 124.6914291381836 113.02631378173828 107.1748275756836 102.27633666992188" stroke-width="2" fill="none" stroke="rgb(0, 0, 0)" stroke-opacity="1.0" stroke-linecap="round" stroke-linejoin="round"/>
    <path d="M 77.0075912475586 145.37611389160156 C 46.45819091796875 133.06358337402344 18.4497013092041 146.93544006347656 107.95357513427734 155.3924560546875" stroke-width="2" fill="none" stroke="rgb(0, 0, 0)" stroke-opacity="1.0" stroke-linecap="round" stroke-linejoin="round"/>
    <path d="M 111.13287353515625 110.90579223632812 C 135.56024169921875 112.50015258789062 67.8906021118164 116.93362426757812 129.7918701171875 117.59748840332031" stroke-width="2" fill="none" stroke="rgb(0, 0, 0)" stroke-opacity="1.0" stroke-linecap="round" stroke-linejoin="round"/>
    <path d="M 133.5067138671875 104.75391387939453 C 179.7639923095703 135.72250366210938 122.39871215820312 110.64364624023438 150.58126831054688 125.0345230102539" stroke-width="2" fill="none" stroke="rgb(0, 0, 0)" stroke-opacity="1.0" stroke-linecap="round" stroke-linejoin="round"/>
    <path d="M 161.73727416992188 83.08101654052734 C 216.2238311767578 20.922344207763672 152.13626098632812 134.7039794921875 102.48931884765625 68.45684051513672" stroke-width="2" fill="none" stroke="rgb(0, 0, 0)" stroke-opacity="1.0" stroke-linecap="round" stroke-linejoin="round"/>
    <path d="M 175.5902099609375 107.80171966552734 C 138.3793487548828 138.46258544921875 241.53050231933594 188.151123046875 47.320045471191406 145.52476501464844" stroke-width="2" fill="none" stroke="rgb(0, 0, 0)" stroke-opacity="1.0" stroke-linecap="round" stroke-linejoin="round"/>
    <path d="M 82.45057678222656 97.7771987915039 C 40.61666488647461 89.81819152832031 10.617683410644531 166.6428680419922 80.14212799072266 157.5978240966797" stroke-width="2" fill="none" stroke="rgb(0, 0, 0)" stroke-opacity="1.0" stroke-linecap="round" stroke-linejoin="round"/>
    <path d="M 152.1892547607422 145.74899291992188 C 161.07174682617188 129.62696838378906 119.80817413330078 154.57687377929688 86.5065689086914 142.8423309326172" stroke-width="2" fill="none" stroke="rgb(0, 0, 0)" stroke-opacity="1.0" stroke-linecap="round" stroke-linejoin="round"/>
    <path d="M 157.8182373046875 109.48707580566406 C 180.01373291015625 139.609375 207.81768798828125 6.241270065307617 166.4101104736328 92.69955444335938" stroke-width="2" fill="none" stroke="rgb(0, 0, 0)" stroke-opacity="1.0" stroke-linecap="round" stroke-linejoin="round"/>
    <path d="M 141.0028839111328 141.42929077148438 C 34.98866653442383 121.31220245361328 113.87821197509766 126.67024993896484 73.5334701538086 132.93223571777344" stroke-width="2" fill="none" stroke="rgb(0, 0, 0)" stroke-opacity="1.0" stroke-linecap="round" stroke-linejoin="round"/>
  </g>
</svg>
