<?xml version="1.0" ?>
<svg xmlns="http://www.w3.org/2000/svg" version="1.1" width="224" height="224">
  <defs/>
  <g>
    <path d="M 142.5420684814453 133.09884643554688 C 98.08944702148438 121.39806365966797 240.36949157714844 142.06515502929688 118.89190673828125 148.9108123779297" stroke-width="2" fill="none" stroke="rgb(0, 0, 0)" stroke-opacity="1.0" stroke-linecap="round" stroke-linejoin="round"/>
    <path d="M 178.0751190185547 141.85340881347656 C 83.11505889892578 140.73065185546875 130.6882781982422 118.35616302490234 94.80933380126953 128.68519592285156" stroke-width="2" fill="none" stroke="rgb(0, 0, 0)" stroke-opacity="1.0" stroke-linecap="round" stroke-linejoin="round"/>
    <path d="M 150.18496704101562 112.00328826904297 C 136.33055114746094 126.76542663574219 112.8393325805664 90.43085479736328 168.17831420898438 91.144287109375" stroke-width="2" fill="none" stroke="rgb(0, 0, 0)" stroke-opacity="1.0" stroke-linecap="round" stroke-linejoin="round"/>
    <path d="M 172.66629028320312 115.92483520507812 C 154.77163696289062 140.29849243164062 191.42306518554688 111.76769256591797 146.8548126220703 121.5807113647461" stroke-width="2" fill="none" stroke="rgb(0, 0, 0)" stroke-opacity="1.0" stroke-linecap="round" stroke-linejoin="round"/>
    <path d="M 130.58802795410156 120.2507553100586 C 133.26290893554688 78.2882080078125 240.7833709716797 163.84352111816406 80.49909973144531 133.3553009033203" stroke-width="2" fill="none" stroke="rgb(0, 0, 0)" stroke-opacity="1.0" stroke-linecap="round" stroke-linejoin="round"/>
    <path d="M 126.29631042480469 97.58349609375 C 82.52018737792969 117.11071014404297 119.9911117553711 96.91463470458984 108.60700988769531 120.42298889160156" stroke-width="2" fill="none" stroke="rgb(0, 0, 0)" stroke-opacity="1.0" stroke-linecap="round" stroke-linejoin="round"/>
    <path d="M 97.74227142333984 99.10519409179688 C 96.25623321533203 6.131026268005371 129.51751708984375 154.28993225097656 177.22474670410156 76.38689422607422" stroke-width="2" fill="none" stroke="rgb(0, 0, 0)" stroke-opacity="1.0" stroke-linecap="round" stroke-linejoin="round"/>
    <path d="M 59.026580810546875 99.65079498291016 C 28.115816116333008 135.2046356201172 37.46601486206055 145.1580352783203 51.712745666503906 152.82984924316406" stroke-width="2" fill="none" stroke="rgb(0, 0, 0)" stroke-opacity="1.0" stroke-linecap="round" stroke-linejoin="round"/>
    <path d="M 69.61827850341797 144.60450744628906 C 287.8780822753906 187.75999450683594 93.93330383300781 123.78130340576172 124.0577392578125 137.97303771972656" stroke-width="2" fill="none" stroke="rgb(0, 0, 0)" stroke-opacity="1.0" stroke-linecap="round" stroke-linejoin="round"/>
    <path d="M 139.7959747314453 142.96554565429688 C 64.04737854003906 121.48097229003906 82.74504089355469 129.94749450683594 102.3341293334961 137.830078125" stroke-width="2" fill="none" stroke="rgb(0, 0, 0)" stroke-opacity="1.0" stroke-linecap="round" stroke-linejoin="round"/>
    <path d="M 178.25714111328125 112.27622985839844 C 200.08799743652344 21.217899322509766 166.15475463867188 82.23062896728516 154.60345458984375 94.97098541259766" stroke-width="2" fill="none" stroke="rgb(0, 0, 0)" stroke-opacity="1.0" stroke-linecap="round" stroke-linejoin="round"/>
    <path d="M 170.65460205078125 106.7071533203125 C 147.1702117919922 116.56501770019531 257.81427001953125 202.94158935546875 47.18471145629883 152.7948760986328" stroke-width="2" fill="none" stroke="rgb(0, 0, 0)" stroke-opacity="1.0" stroke-linecap="round" stroke-linejoin="round"/>
    <path d="M 97.1660385131836 94.53348541259766 C 38.43634033203125 72.20606231689453 29.342357635498047 148.83526611328125 90.51802062988281 155.30938720703125" stroke-width="2" fill="none" stroke="rgb(0, 0, 0)" stroke-opacity="1.0" stroke-linecap="round" stroke-linejoin="round"/>
    <path d="M 115.31080627441406 113.11148071289062 C 123.04319763183594 73.3541030883789 119.43873596191406 124.4294662475586 106.82475280761719 69.64027404785156" stroke-width="2" fill="none" stroke="rgb(0, 0, 0)" stroke-opacity="1.0" stroke-linecap="round" stroke-linejoin="round"/>
    <path d="M 152.92015075683594 101.96434783935547 C 175.09671020507812 134.29345703125 191.5418701171875 27.654993057250977 175.72950744628906 75.1690673828125" stroke-width="2" fill="none" stroke="rgb(0, 0, 0)" stroke-opacity="1.0" stroke-linecap="round" stroke-linejoin="round"/>
    <path d="M 174.6912384033203 143.86410522460938 C 134.7593994140625 143.22593688964844 202.8059539794922 126.71775817871094 117.11620330810547 141.6245880126953" stroke-width="2" fill="none" stroke="rgb(0, 0, 0)" stroke-opacity="1.0" stroke-linecap="round" stroke-linejoin="round"/>
  </g>
</svg>
