<?xml version="1.0" ?>
<svg xmlns="http://www.w3.org/2000/svg" version="1.1" width="224" height="224">
  <defs/>
  <g>
    <path d="M 154.98123168945312 156.94007873535156 C 119.86282348632812 155.14501953125 218.5760498046875 158.60496520996094 134.92727661132812 114.75289154052734" stroke-width="2" fill="none" stroke="rgb(0, 0, 0)" stroke-opacity="1.0" stroke-linecap="round" stroke-linejoin="round"/>
    <path d="M 142.67604064941406 139.945556640625 C 63.09408187866211 101.65562438964844 103.89900207519531 101.20924377441406 105.05504608154297 128.97415161132812" stroke-width="2" fill="none" stroke="rgb(0, 0, 0)" stroke-opacity="1.0" stroke-linecap="round" stroke-linejoin="round"/>
    <path d="M 145.86151123046875 123.46138000488281 C 92.20956420898438 162.32098388671875 91.26300811767578 70.04058837890625 147.12997436523438 100.93004608154297" stroke-width="2" fill="none" stroke="rgb(0, 0, 0)" stroke-opacity="1.0" stroke-linecap="round" stroke-linejoin="round"/>
    <path d="M 153.89547729492188 112.58224487304688 C 126.182373046875 101.1415786743164 204.21728515625 118.05705261230469 126.49369812011719 119.51233673095703" stroke-width="2" fill="none" stroke="rgb(0, 0, 0)" stroke-opacity="1.0" stroke-linecap="round" stroke-linejoin="round"/>
    <path d="M 145.23516845703125 149.58462524414062 C 56.077720642089844 148.75540161132812 211.12240600585938 173.7997589111328 77.9452133178711 148.80215454101562" stroke-width="2" fill="none" stroke="rgb(0, 0, 0)" stroke-opacity="1.0" stroke-linecap="round" stroke-linejoin="round"/>
    <path d="M 80.09972381591797 112.21268463134766 C 65.85992431640625 146.90374755859375 56.697566986083984 102.1370620727539 43.23936080932617 130.71885681152344" stroke-width="2" fill="none" stroke="rgb(0, 0, 0)" stroke-opacity="1.0" stroke-linecap="round" stroke-linejoin="round"/>
    <path d="M 108.51752471923828 110.27330780029297 C 72.99726104736328 -0.910658597946167 126.6922836303711 142.0059051513672 161.64120483398438 87.41705322265625" stroke-width="2" fill="none" stroke="rgb(0, 0, 0)" stroke-opacity="1.0" stroke-linecap="round" stroke-linejoin="round"/>
    <path d="M 49.28433609008789 145.9306182861328 C 37.23197937011719 121.18574523925781 35.006935119628906 150.92938232421875 85.5791015625 162.3248748779297" stroke-width="2" fill="none" stroke="rgb(0, 0, 0)" stroke-opacity="1.0" stroke-linecap="round" stroke-linejoin="round"/>
    <path d="M 130.79554748535156 114.88014221191406 C 187.8974151611328 128.93563842773438 136.737060546875 107.87096405029297 119.78123474121094 130.13829040527344" stroke-width="2" fill="none" stroke="rgb(0, 0, 0)" stroke-opacity="1.0" stroke-linecap="round" stroke-linejoin="round"/>
    <path d="M 56.230567932128906 144.83859252929688 C 183.37840270996094 178.7392120361328 83.31974792480469 137.35943603515625 81.56816101074219 148.88587951660156" stroke-width="2" fill="none" stroke="rgb(0, 0, 0)" stroke-opacity="1.0" stroke-linecap="round" stroke-linejoin="round"/>
    <path d="M 167.26344299316406 101.6193618774414 C 202.91754150390625 12.230812072753906 162.8380126953125 92.8605728149414 146.2953643798828 89.95592498779297" stroke-width="2" fill="none" stroke="rgb(0, 0, 0)" stroke-opacity="1.0" stroke-linecap="round" stroke-linejoin="round"/>
    <path d="M 174.30062866210938 94.89073181152344 C 130.61795043945312 115.87069702148438 236.6128387451172 166.48464965820312 65.88278198242188 130.87510681152344" stroke-width="2" fill="none" stroke="rgb(0, 0, 0)" stroke-opacity="1.0" stroke-linecap="round" stroke-linejoin="round"/>
    <path d="M 95.8361587524414 97.75215148925781 C 36.70607376098633 79.66764831542969 12.532533645629883 162.38844299316406 116.99501037597656 151.50587463378906" stroke-width="2" fill="none" stroke="rgb(0, 0, 0)" stroke-opacity="1.0" stroke-linecap="round" stroke-linejoin="round"/>
    <path d="M 147.2359619140625 130.1736297607422 C 182.57569885253906 121.41407012939453 100.37263488769531 109.47332763671875 159.93576049804688 127.62922668457031" stroke-width="2" fill="none" stroke="rgb(0, 0, 0)" stroke-opacity="1.0" stroke-linecap="round" stroke-linejoin="round"/>
    <path d="M 134.23550415039062 121.19865417480469 C 174.36630249023438 178.10629272460938 198.24351501464844 12.230266571044922 170.4501953125 85.9574966430664" stroke-width="2" fill="none" stroke="rgb(0, 0, 0)" stroke-opacity="1.0" stroke-linecap="round" stroke-linejoin="round"/>
    <path d="M 150.42098999023438 141.63177490234375 C 43.89857482910156 136.1385498046875 153.1087646484375 113.21489715576172 132.6901092529297 129.10848999023438" stroke-width="2" fill="none" stroke="rgb(0, 0, 0)" stroke-opacity="1.0" stroke-linecap="round" stroke-linejoin="round"/>
  </g>
</svg>
