<?xml version="1.0" ?>
<svg xmlns="http://www.w3.org/2000/svg" version="1.1" width="224" height="224">
  <defs/>
  <g>
    <path d="M 146.58180236816406 131.12022399902344 C 104.66836547851562 114.77871704101562 247.6845245361328 151.7660675048828 112.2518081665039 132.85089111328125" stroke-width="2" fill="none" stroke="rgb(0, 0, 0)" stroke-opacity="1.0" stroke-linecap="round" stroke-linejoin="round"/>
    <path d="M 170.30575561523438 145.05125427246094 C 65.58047485351562 143.98675537109375 119.29713439941406 138.58204650878906 97.70916748046875 123.58518981933594" stroke-width="2" fill="none" stroke="rgb(0, 0, 0)" stroke-opacity="1.0" stroke-linecap="round" stroke-linejoin="round"/>
    <path d="M 154.4916229248047 122.28359985351562 C 134.8066864013672 116.02571105957031 107.24608612060547 81.72295379638672 160.6514892578125 97.64301300048828" stroke-width="2" fill="none" stroke="rgb(0, 0, 0)" stroke-opacity="1.0" stroke-linecap="round" stroke-linejoin="round"/>
    <path d="M 168.92596435546875 120.66448974609375 C 155.3395233154297 137.00851440429688 197.08343505859375 106.75735473632812 145.0240020751953 120.94661712646484" stroke-width="2" fill="none" stroke="rgb(0, 0, 0)" stroke-opacity="1.0" stroke-linecap="round" stroke-linejoin="round"/>
    <path d="M 122.90727996826172 127.5152587890625 C 136.85401916503906 81.57007598876953 241.03724670410156 163.7347412109375 82.4000244140625 129.3394775390625" stroke-width="2" fill="none" stroke="rgb(0, 0, 0)" stroke-opacity="1.0" stroke-linecap="round" stroke-linejoin="round"/>
    <path d="M 141.53024291992188 109.5418701171875 C 66.06218719482422 107.51692199707031 122.71880340576172 103.2403564453125 118.02226257324219 122.45695495605469" stroke-width="2" fill="none" stroke="rgb(0, 0, 0)" stroke-opacity="1.0" stroke-linecap="round" stroke-linejoin="round"/>
    <path d="M 93.90152740478516 101.8463134765625 C 105.48847961425781 8.573444366455078 123.9527587890625 157.83078002929688 166.62770080566406 72.08084869384766" stroke-width="2" fill="none" stroke="rgb(0, 0, 0)" stroke-opacity="1.0" stroke-linecap="round" stroke-linejoin="round"/>
    <path d="M 49.904579162597656 107.80441284179688 C 35.386592864990234 144.26815795898438 43.43527603149414 141.53126525878906 54.704750061035156 149.08209228515625" stroke-width="2" fill="none" stroke="rgb(0, 0, 0)" stroke-opacity="1.0" stroke-linecap="round" stroke-linejoin="round"/>
    <path d="M 52.244224548339844 145.90731811523438 C 266.4456787109375 186.9336700439453 84.59550476074219 126.57373809814453 119.7354507446289 134.29751586914062" stroke-width="2" fill="none" stroke="rgb(0, 0, 0)" stroke-opacity="1.0" stroke-linecap="round" stroke-linejoin="round"/>
    <path d="M 147.00048828125 144.73928833007812 C 73.0086669921875 123.56909942626953 92.88336181640625 134.50299072265625 113.22871398925781 144.21095275878906" stroke-width="2" fill="none" stroke="rgb(0, 0, 0)" stroke-opacity="1.0" stroke-linecap="round" stroke-linejoin="round"/>
    <path d="M 175.49464416503906 116.34160614013672 C 181.7786407470703 30.82832908630371 165.21310424804688 98.91533660888672 152.66622924804688 91.52141571044922" stroke-width="2" fill="none" stroke="rgb(0, 0, 0)" stroke-opacity="1.0" stroke-linecap="round" stroke-linejoin="round"/>
    <path d="M 166.79287719726562 115.76271057128906 C 147.8200225830078 132.76202392578125 254.66151428222656 204.79884338378906 67.35169219970703 152.70660400390625" stroke-width="2" fill="none" stroke="rgb(0, 0, 0)" stroke-opacity="1.0" stroke-linecap="round" stroke-linejoin="round"/>
    <path d="M 92.23025512695312 96.46886444091797 C 37.04998016357422 76.07415008544922 18.28384780883789 149.73016357421875 74.38450622558594 157.07476806640625" stroke-width="2" fill="none" stroke="rgb(0, 0, 0)" stroke-opacity="1.0" stroke-linecap="round" stroke-linejoin="round"/>
    <path d="M 128.0457000732422 122.41699981689453 C 125.2972183227539 87.5687255859375 125.18734741210938 138.48191833496094 111.22261047363281 70.9205093383789" stroke-width="2" fill="none" stroke="rgb(0, 0, 0)" stroke-opacity="1.0" stroke-linecap="round" stroke-linejoin="round"/>
    <path d="M 165.5662841796875 102.17044830322266 C 186.2126922607422 125.1251449584961 193.39561462402344 18.476228713989258 174.91920471191406 76.85800170898438" stroke-width="2" fill="none" stroke="rgb(0, 0, 0)" stroke-opacity="1.0" stroke-linecap="round" stroke-linejoin="round"/>
    <path d="M 166.09320068359375 141.18692016601562 C 135.93722534179688 142.2057342529297 192.8283233642578 124.46382904052734 119.11046600341797 146.32083129882812" stroke-width="2" fill="none" stroke="rgb(0, 0, 0)" stroke-opacity="1.0" stroke-linecap="round" stroke-linejoin="round"/>
  </g>
</svg>
