<?xml version="1.0" ?>
<svg xmlns="http://www.w3.org/2000/svg" version="1.1" width="224" height="224">
  <defs/>
  <g>
    <path d="M 132.39065551757812 95.2614517211914 C 52.99578857421875 134.9776153564453 222.9258270263672 154.64468383789062 110.80681610107422 130.992919921875" stroke-width="2" fill="none" stroke="rgb(0, 0, 0)" stroke-opacity="1.0" stroke-linecap="round" stroke-linejoin="round"/>
    <path d="M 113.91056060791016 127.2922134399414 C 62.970977783203125 130.2390594482422 112.94401550292969 110.18065643310547 82.41726684570312 112.60160827636719" stroke-width="2" fill="none" stroke="rgb(0, 0, 0)" stroke-opacity="1.0" stroke-linecap="round" stroke-linejoin="round"/>
    <path d="M 175.73077392578125 78.84381103515625 C 167.63668823242188 142.24588012695312 127.6238784790039 91.95571899414062 163.46310424804688 95.30435943603516" stroke-width="2" fill="none" stroke="rgb(0, 0, 0)" stroke-opacity="1.0" stroke-linecap="round" stroke-linejoin="round"/>
    <path d="M 157.7707061767578 120.60749816894531 C 139.33425903320312 134.58729553222656 175.12083435058594 143.0654296875 138.0165557861328 121.19178771972656" stroke-width="2" fill="none" stroke="rgb(0, 0, 0)" stroke-opacity="1.0" stroke-linecap="round" stroke-linejoin="round"/>
    <path d="M 167.58584594726562 103.29469299316406 C 102.0021743774414 66.08167266845703 228.98788452148438 169.1132354736328 78.06623077392578 127.8216781616211" stroke-width="2" fill="none" stroke="rgb(0, 0, 0)" stroke-opacity="1.0" stroke-linecap="round" stroke-linejoin="round"/>
    <path d="M 162.08123779296875 122.31298065185547 C 97.34896087646484 128.58470153808594 170.08160400390625 110.89910888671875 134.609375 127.97315216064453" stroke-width="2" fill="none" stroke="rgb(0, 0, 0)" stroke-opacity="1.0" stroke-linecap="round" stroke-linejoin="round"/>
    <path d="M 106.60596466064453 113.30618286132812 C 73.2047119140625 5.94048547744751 131.35011291503906 145.33970642089844 169.76414489746094 81.08779907226562" stroke-width="2" fill="none" stroke="rgb(0, 0, 0)" stroke-opacity="1.0" stroke-linecap="round" stroke-linejoin="round"/>
    <path d="M 64.9238052368164 110.48116302490234 C 71.5250473022461 128.6026153564453 44.702491760253906 103.52302551269531 45.84568405151367 130.04002380371094" stroke-width="2" fill="none" stroke="rgb(0, 0, 0)" stroke-opacity="1.0" stroke-linecap="round" stroke-linejoin="round"/>
    <path d="M 104.63957977294922 155.79122924804688 C 244.30104064941406 162.68307495117188 25.320331573486328 142.74281311035156 124.55647277832031 120.35855865478516" stroke-width="2" fill="none" stroke="rgb(0, 0, 0)" stroke-opacity="1.0" stroke-linecap="round" stroke-linejoin="round"/>
    <path d="M 137.0395965576172 148.94732666015625 C 76.08551025390625 153.62965393066406 124.3584976196289 111.17549133300781 101.81729888916016 124.65862274169922" stroke-width="2" fill="none" stroke="rgb(0, 0, 0)" stroke-opacity="1.0" stroke-linecap="round" stroke-linejoin="round"/>
    <path d="M 170.194091796875 88.52842712402344 C 207.1665802001953 3.1887524127960205 155.4384002685547 100.41643524169922 131.72247314453125 85.78939056396484" stroke-width="2" fill="none" stroke="rgb(0, 0, 0)" stroke-opacity="1.0" stroke-linecap="round" stroke-linejoin="round"/>
    <path d="M 178.22540283203125 103.65203857421875 C 143.0922088623047 133.26785278320312 234.7043914794922 162.40240478515625 85.75542449951172 150.3628692626953" stroke-width="2" fill="none" stroke="rgb(0, 0, 0)" stroke-opacity="1.0" stroke-linecap="round" stroke-linejoin="round"/>
    <path d="M 102.32865905761719 99.04920196533203 C 45.9720573425293 89.2166519165039 2.7776589393615723 163.3378448486328 102.71302032470703 152.5959014892578" stroke-width="2" fill="none" stroke="rgb(0, 0, 0)" stroke-opacity="1.0" stroke-linecap="round" stroke-linejoin="round"/>
    <path d="M 115.13785552978516 97.62606048583984 C 137.87054443359375 101.60028839111328 118.79460144042969 111.3423080444336 102.33386993408203 75.94872283935547" stroke-width="2" fill="none" stroke="rgb(0, 0, 0)" stroke-opacity="1.0" stroke-linecap="round" stroke-linejoin="round"/>
    <path d="M 170.87911987304688 113.3057632446289 C 185.52931213378906 110.94841766357422 193.309326171875 9.647415161132812 180.3485870361328 87.35543823242188" stroke-width="2" fill="none" stroke="rgb(0, 0, 0)" stroke-opacity="1.0" stroke-linecap="round" stroke-linejoin="round"/>
    <path d="M 124.85192108154297 129.80662536621094 C 70.40560913085938 113.50392150878906 147.6910400390625 154.5450439453125 107.57070922851562 127.94819641113281" stroke-width="2" fill="none" stroke="rgb(0, 0, 0)" stroke-opacity="1.0" stroke-linecap="round" stroke-linejoin="round"/>
  </g>
</svg>
