<?xml version="1.0" ?>
<svg xmlns="http://www.w3.org/2000/svg" version="1.1" width="224" height="224">
  <defs/>
  <g>
    <path d="M 135.91416931152344 96.06421661376953 C 67.40185546875 129.23655700683594 211.51068115234375 142.55633544921875 120.8222885131836 133.50469970703125" stroke-width="2" fill="none" stroke="rgb(0, 0, 0)" stroke-opacity="1.0" stroke-linecap="round" stroke-linejoin="round"/>
    <path d="M 137.15760803222656 117.3919677734375 C 86.23665618896484 119.16410064697266 132.24876403808594 132.2448272705078 115.5343017578125 101.28319549560547" stroke-width="2" fill="none" stroke="rgb(0, 0, 0)" stroke-opacity="1.0" stroke-linecap="round" stroke-linejoin="round"/>
    <path d="M 184.33607482910156 64.81446075439453 C 170.1896209716797 108.30433654785156 132.88626098632812 70.96399688720703 173.2600555419922 93.685791015625" stroke-width="2" fill="none" stroke="rgb(0, 0, 0)" stroke-opacity="1.0" stroke-linecap="round" stroke-linejoin="round"/>
    <path d="M 144.82936096191406 129.48419189453125 C 156.92410278320312 124.21420288085938 173.3168487548828 134.62806701660156 147.2371368408203 114.2454833984375" stroke-width="2" fill="none" stroke="rgb(0, 0, 0)" stroke-opacity="1.0" stroke-linecap="round" stroke-linejoin="round"/>
    <path d="M 165.8394775390625 102.91785430908203 C 126.25965118408203 66.29945373535156 255.29014587402344 185.02639770507812 47.006832122802734 149.5784149169922" stroke-width="2" fill="none" stroke="rgb(0, 0, 0)" stroke-opacity="1.0" stroke-linecap="round" stroke-linejoin="round"/>
    <path d="M 162.35504150390625 118.13899230957031 C 120.068115234375 106.59732055664062 196.83021545410156 115.70305633544922 144.32228088378906 119.36892700195312" stroke-width="2" fill="none" stroke="rgb(0, 0, 0)" stroke-opacity="1.0" stroke-linecap="round" stroke-linejoin="round"/>
    <path d="M 106.04203033447266 102.74237060546875 C 87.78826904296875 21.698150634765625 139.723876953125 144.38406372070312 173.4807891845703 80.33944702148438" stroke-width="2" fill="none" stroke="rgb(0, 0, 0)" stroke-opacity="1.0" stroke-linecap="round" stroke-linejoin="round"/>
    <path d="M 90.28321075439453 99.29338073730469 C 86.38460540771484 124.85482025146484 41.84540939331055 84.91986083984375 53.233341217041016 125.20458984375" stroke-width="2" fill="none" stroke="rgb(0, 0, 0)" stroke-opacity="1.0" stroke-linecap="round" stroke-linejoin="round"/>
    <path d="M 116.15995025634766 136.8848419189453 C 243.1532440185547 151.00502014160156 74.62700653076172 147.60414123535156 148.00772094726562 154.119384765625" stroke-width="2" fill="none" stroke="rgb(0, 0, 0)" stroke-opacity="1.0" stroke-linecap="round" stroke-linejoin="round"/>
    <path d="M 126.8243637084961 109.39515686035156 C 91.2991943359375 156.49549865722656 162.5355682373047 105.8866958618164 114.81768798828125 129.09637451171875" stroke-width="2" fill="none" stroke="rgb(0, 0, 0)" stroke-opacity="1.0" stroke-linecap="round" stroke-linejoin="round"/>
    <path d="M 173.0681610107422 90.87081146240234 C 203.7696533203125 9.4215669631958 163.11204528808594 114.96432495117188 122.28800201416016 85.7160873413086" stroke-width="2" fill="none" stroke="rgb(0, 0, 0)" stroke-opacity="1.0" stroke-linecap="round" stroke-linejoin="round"/>
    <path d="M 176.62496948242188 106.31240844726562 C 144.62579345703125 145.71084594726562 242.88723754882812 168.75390625 80.56521606445312 140.3279266357422" stroke-width="2" fill="none" stroke="rgb(0, 0, 0)" stroke-opacity="1.0" stroke-linecap="round" stroke-linejoin="round"/>
    <path d="M 96.04743194580078 94.32564544677734 C 45.10932922363281 85.57486724853516 11.617179870605469 165.13331604003906 88.98282623291016 163.2006378173828" stroke-width="2" fill="none" stroke="rgb(0, 0, 0)" stroke-opacity="1.0" stroke-linecap="round" stroke-linejoin="round"/>
    <path d="M 110.51382446289062 95.75516510009766 C 147.67318725585938 90.3822021484375 114.76770782470703 130.73439025878906 100.59439086914062 76.45209503173828" stroke-width="2" fill="none" stroke="rgb(0, 0, 0)" stroke-opacity="1.0" stroke-linecap="round" stroke-linejoin="round"/>
    <path d="M 169.55435180664062 103.19596862792969 C 188.15805053710938 120.91974639892578 198.10714721679688 9.004534721374512 173.88241577148438 99.00276184082031" stroke-width="2" fill="none" stroke="rgb(0, 0, 0)" stroke-opacity="1.0" stroke-linecap="round" stroke-linejoin="round"/>
    <path d="M 96.93146514892578 131.8870849609375 C 77.70719146728516 120.66102600097656 136.99354553222656 146.65562438964844 92.8441162109375 105.1590347290039" stroke-width="2" fill="none" stroke="rgb(0, 0, 0)" stroke-opacity="1.0" stroke-linecap="round" stroke-linejoin="round"/>
  </g>
</svg>
