<?xml version="1.0" ?>
<svg xmlns="http://www.w3.org/2000/svg" version="1.1" width="224" height="224">
  <defs/>
  <g>
    <path d="M 164.39862060546875 125.36483764648438 C 96.47335052490234 120.96846008300781 217.99615478515625 132.605712890625 132.95252990722656 136.7583770751953" stroke-width="2" fill="none" stroke="rgb(0, 0, 0)" stroke-opacity="1.0" stroke-linecap="round" stroke-linejoin="round"/>
    <path d="M 160.68499755859375 138.61888122558594 C 34.823524475097656 147.2300262451172 83.15589904785156 130.64622497558594 52.83551788330078 133.87033081054688" stroke-width="2" fill="none" stroke="rgb(0, 0, 0)" stroke-opacity="1.0" stroke-linecap="round" stroke-linejoin="round"/>
    <path d="M 142.76283264160156 116.35294342041016 C 136.7933807373047 137.34576416015625 99.2517318725586 88.60457611083984 165.70216369628906 97.62971496582031" stroke-width="2" fill="none" stroke="rgb(0, 0, 0)" stroke-opacity="1.0" stroke-linecap="round" stroke-linejoin="round"/>
    <path d="M 166.7224578857422 131.9241180419922 C 112.86129760742188 138.69155883789062 165.49176025390625 119.3963623046875 128.276611328125 126.12004089355469" stroke-width="2" fill="none" stroke="rgb(0, 0, 0)" stroke-opacity="1.0" stroke-linecap="round" stroke-linejoin="round"/>
    <path d="M 154.5323944091797 124.36991882324219 C 126.94976806640625 99.22187042236328 240.32232666015625 172.3864288330078 102.93732452392578 139.50820922851562" stroke-width="2" fill="none" stroke="rgb(0, 0, 0)" stroke-opacity="1.0" stroke-linecap="round" stroke-linejoin="round"/>
    <path d="M 107.92900848388672 97.52843475341797 C 97.91046142578125 140.75942993164062 122.74723815917969 88.3877182006836 102.14604949951172 115.71692657470703" stroke-width="2" fill="none" stroke="rgb(0, 0, 0)" stroke-opacity="1.0" stroke-linecap="round" stroke-linejoin="round"/>
    <path d="M 98.85269927978516 95.38433837890625 C 91.52340698242188 1.6879222393035889 140.6162567138672 159.61532592773438 175.22125244140625 88.46562194824219" stroke-width="2" fill="none" stroke="rgb(0, 0, 0)" stroke-opacity="1.0" stroke-linecap="round" stroke-linejoin="round"/>
    <path d="M 57.589637756347656 99.8597183227539 C 25.683225631713867 140.9475860595703 43.906097412109375 142.48573303222656 76.33881378173828 151.5135040283203" stroke-width="2" fill="none" stroke="rgb(0, 0, 0)" stroke-opacity="1.0" stroke-linecap="round" stroke-linejoin="round"/>
    <path d="M 85.2086410522461 145.74136352539062 C 279.65032958984375 190.01089477539062 91.67451477050781 118.48506927490234 114.7758560180664 134.20657348632812" stroke-width="2" fill="none" stroke="rgb(0, 0, 0)" stroke-opacity="1.0" stroke-linecap="round" stroke-linejoin="round"/>
    <path d="M 99.46690368652344 127.39653015136719 C 73.20732879638672 115.39836883544922 99.74410247802734 127.19424438476562 100.93289947509766 119.20824432373047" stroke-width="2" fill="none" stroke="rgb(0, 0, 0)" stroke-opacity="1.0" stroke-linecap="round" stroke-linejoin="round"/>
    <path d="M 160.88299560546875 113.49185943603516 C 194.08413696289062 20.766948699951172 160.94972229003906 96.69786071777344 147.0379638671875 97.8105697631836" stroke-width="2" fill="none" stroke="rgb(0, 0, 0)" stroke-opacity="1.0" stroke-linecap="round" stroke-linejoin="round"/>
    <path d="M 178.1771240234375 112.14118194580078 C 142.21873474121094 121.26657104492188 244.4327392578125 204.2151336669922 48.71711349487305 144.82061767578125" stroke-width="2" fill="none" stroke="rgb(0, 0, 0)" stroke-opacity="1.0" stroke-linecap="round" stroke-linejoin="round"/>
    <path d="M 95.99284362792969 99.93949890136719 C 36.04938888549805 77.44473266601562 33.47166061401367 163.08084106445312 116.3775405883789 155.2041473388672" stroke-width="2" fill="none" stroke="rgb(0, 0, 0)" stroke-opacity="1.0" stroke-linecap="round" stroke-linejoin="round"/>
    <path d="M 131.58230590820312 128.67495727539062 C 123.27043914794922 71.1929931640625 107.68115997314453 143.2821807861328 97.86421966552734 69.62753295898438" stroke-width="2" fill="none" stroke="rgb(0, 0, 0)" stroke-opacity="1.0" stroke-linecap="round" stroke-linejoin="round"/>
    <path d="M 162.04443359375 111.94699096679688 C 178.54769897460938 161.05584716796875 192.81214904785156 12.240777015686035 173.18789672851562 77.61876678466797" stroke-width="2" fill="none" stroke="rgb(0, 0, 0)" stroke-opacity="1.0" stroke-linecap="round" stroke-linejoin="round"/>
    <path d="M 170.896728515625 128.5167694091797 C 146.00692749023438 146.9615936279297 205.96530151367188 139.63809204101562 120.97250366210938 135.203857421875" stroke-width="2" fill="none" stroke="rgb(0, 0, 0)" stroke-opacity="1.0" stroke-linecap="round" stroke-linejoin="round"/>
  </g>
</svg>
