<?xml version="1.0" ?>
<svg xmlns="http://www.w3.org/2000/svg" version="1.1" width="224" height="224">
  <defs/>
  <g>
    <path d="M 157.57919311523438 123.46004486083984 C 93.27132415771484 153.74945068359375 193.2475128173828 133.67034912109375 127.20545196533203 135.7848358154297" stroke-width="2" fill="none" stroke="rgb(0, 0, 0)" stroke-opacity="1.0" stroke-linecap="round" stroke-linejoin="round"/>
    <path d="M 125.75879669189453 152.60887145996094 C 4.944998741149902 115.37299346923828 79.12381744384766 144.05979919433594 56.25714111328125 130.39065551757812" stroke-width="2" fill="none" stroke="rgb(0, 0, 0)" stroke-opacity="1.0" stroke-linecap="round" stroke-linejoin="round"/>
    <path d="M 110.10698699951172 116.35334014892578 C 128.87615966796875 100.36167907714844 89.22373962402344 91.54080200195312 161.22116088867188 95.11915588378906" stroke-width="2" fill="none" stroke="rgb(0, 0, 0)" stroke-opacity="1.0" stroke-linecap="round" stroke-linejoin="round"/>
    <path d="M 162.00001525878906 121.5359115600586 C 88.73263549804688 123.65438842773438 199.60743713378906 151.5013427734375 123.62602996826172 123.5672607421875" stroke-width="2" fill="none" stroke="rgb(0, 0, 0)" stroke-opacity="1.0" stroke-linecap="round" stroke-linejoin="round"/>
    <path d="M 146.60833740234375 151.16958618164062 C 131.39877319335938 153.50753784179688 232.81610107421875 155.76190185546875 88.88882446289062 139.082275390625" stroke-width="2" fill="none" stroke="rgb(0, 0, 0)" stroke-opacity="1.0" stroke-linecap="round" stroke-linejoin="round"/>
    <path d="M 94.59466552734375 115.31383514404297 C 97.40775299072266 111.3809814453125 112.86080932617188 109.82975006103516 115.01884460449219 129.38986206054688" stroke-width="2" fill="none" stroke="rgb(0, 0, 0)" stroke-opacity="1.0" stroke-linecap="round" stroke-linejoin="round"/>
    <path d="M 95.82526397705078 104.02674102783203 C 93.48005676269531 10.489243507385254 142.8386993408203 149.61453247070312 173.44467163085938 90.5517578125" stroke-width="2" fill="none" stroke="rgb(0, 0, 0)" stroke-opacity="1.0" stroke-linecap="round" stroke-linejoin="round"/>
    <path d="M 55.16987609863281 118.06909942626953 C 48.675201416015625 102.6211166381836 23.75713348388672 146.08355712890625 43.26653289794922 144.2194061279297" stroke-width="2" fill="none" stroke="rgb(0, 0, 0)" stroke-opacity="1.0" stroke-linecap="round" stroke-linejoin="round"/>
    <path d="M 131.33558654785156 132.7641143798828 C 224.8332061767578 152.7878875732422 107.14170837402344 108.23356628417969 147.60769653320312 118.57903289794922" stroke-width="2" fill="none" stroke="rgb(0, 0, 0)" stroke-opacity="1.0" stroke-linecap="round" stroke-linejoin="round"/>
    <path d="M 81.82548522949219 134.82351684570312 C 90.4603500366211 148.96652221679688 31.54234504699707 122.8265151977539 71.55523681640625 145.2528076171875" stroke-width="2" fill="none" stroke="rgb(0, 0, 0)" stroke-opacity="1.0" stroke-linecap="round" stroke-linejoin="round"/>
    <path d="M 157.32394409179688 92.6837387084961 C 216.47743225097656 16.828168869018555 157.7598114013672 117.2070083618164 117.32769775390625 102.62623596191406" stroke-width="2" fill="none" stroke="rgb(0, 0, 0)" stroke-opacity="1.0" stroke-linecap="round" stroke-linejoin="round"/>
    <path d="M 162.47389221191406 100.2258071899414 C 134.3716278076172 127.1288833618164 248.99452209472656 188.2301025390625 41.69407272338867 143.34498596191406" stroke-width="2" fill="none" stroke="rgb(0, 0, 0)" stroke-opacity="1.0" stroke-linecap="round" stroke-linejoin="round"/>
    <path d="M 94.16902923583984 103.27295684814453 C 19.330812454223633 92.07954406738281 19.803359985351562 175.73667907714844 100.72029113769531 157.71804809570312" stroke-width="2" fill="none" stroke="rgb(0, 0, 0)" stroke-opacity="1.0" stroke-linecap="round" stroke-linejoin="round"/>
    <path d="M 112.69207763671875 128.31480407714844 C 115.63917541503906 85.04243469238281 113.19698333740234 121.12752532958984 103.82633972167969 71.66655731201172" stroke-width="2" fill="none" stroke="rgb(0, 0, 0)" stroke-opacity="1.0" stroke-linecap="round" stroke-linejoin="round"/>
    <path d="M 153.62815856933594 106.1432113647461 C 171.64999389648438 156.7572784423828 197.8172149658203 0.918926477432251 171.61961364746094 85.78447723388672" stroke-width="2" fill="none" stroke="rgb(0, 0, 0)" stroke-opacity="1.0" stroke-linecap="round" stroke-linejoin="round"/>
    <path d="M 129.4195556640625 126.73295593261719 C 77.81100463867188 142.41757202148438 209.70643615722656 141.33372497558594 135.03465270996094 135.41770935058594" stroke-width="2" fill="none" stroke="rgb(0, 0, 0)" stroke-opacity="1.0" stroke-linecap="round" stroke-linejoin="round"/>
  </g>
</svg>
