<?xml version="1.0" ?>
<svg xmlns="http://www.w3.org/2000/svg" version="1.1" width="224" height="224">
  <defs/>
  <g>
    <path d="M 146.27037048339844 123.10172271728516 C 109.75332641601562 136.4318084716797 195.63406372070312 112.43917083740234 115.41092681884766 119.94029998779297" stroke-width="2" fill="none" stroke="rgb(0, 0, 0)" stroke-opacity="1.0" stroke-linecap="round" stroke-linejoin="round"/>
    <path d="M 61.80706024169922 132.72265625 C 32.97576904296875 110.49678039550781 86.74139404296875 98.94293212890625 62.90431213378906 111.0714111328125" stroke-width="2" fill="none" stroke="rgb(0, 0, 0)" stroke-opacity="1.0" stroke-linecap="round" stroke-linejoin="round"/>
    <path d="M 157.5094451904297 147.0424346923828 C 63.42852783203125 145.73793029785156 117.73857879638672 58.80034637451172 158.70095825195312 87.60372161865234" stroke-width="2" fill="none" stroke="rgb(0, 0, 0)" stroke-opacity="1.0" stroke-linecap="round" stroke-linejoin="round"/>
    <path d="M 174.15115356445312 101.01795959472656 C 144.36717224121094 155.4181671142578 172.31243896484375 137.99014282226562 117.92572784423828 115.44426727294922" stroke-width="2" fill="none" stroke="rgb(0, 0, 0)" stroke-opacity="1.0" stroke-linecap="round" stroke-linejoin="round"/>
    <path d="M 162.63894653320312 128.398193359375 C 60.21707534790039 127.46524047851562 254.2109832763672 143.3572998046875 88.4472885131836 113.40771484375" stroke-width="2" fill="none" stroke="rgb(0, 0, 0)" stroke-opacity="1.0" stroke-linecap="round" stroke-linejoin="round"/>
    <path d="M 69.09327697753906 105.43325805664062 C 45.44717025756836 121.35210418701172 63.722625732421875 89.9127426147461 87.37068176269531 104.08210754394531" stroke-width="2" fill="none" stroke="rgb(0, 0, 0)" stroke-opacity="1.0" stroke-linecap="round" stroke-linejoin="round"/>
    <path d="M 109.09042358398438 119.09828186035156 C 76.93562316894531 10.324080467224121 132.14151000976562 108.97501373291016 111.47235107421875 94.65320587158203" stroke-width="2" fill="none" stroke="rgb(0, 0, 0)" stroke-opacity="1.0" stroke-linecap="round" stroke-linejoin="round"/>
    <path d="M 61.17662048339844 149.284912109375 C 37.231815338134766 124.58758544921875 29.476177215576172 137.6016387939453 92.28382873535156 157.16490173339844" stroke-width="2" fill="none" stroke="rgb(0, 0, 0)" stroke-opacity="1.0" stroke-linecap="round" stroke-linejoin="round"/>
    <path d="M 130.4635467529297 116.93711853027344 C 170.3367462158203 117.27102661132812 68.71768188476562 124.08274841308594 128.5943603515625 140.5259552001953" stroke-width="2" fill="none" stroke="rgb(0, 0, 0)" stroke-opacity="1.0" stroke-linecap="round" stroke-linejoin="round"/>
    <path d="M 144.63552856445312 92.17082977294922 C 174.1143798828125 134.83905029296875 136.02450561523438 106.04608154296875 166.8325653076172 111.64903259277344" stroke-width="2" fill="none" stroke="rgb(0, 0, 0)" stroke-opacity="1.0" stroke-linecap="round" stroke-linejoin="round"/>
    <path d="M 152.96128845214844 88.43201446533203 C 200.83985900878906 48.30526351928711 161.68426513671875 130.75515747070312 112.42111206054688 71.41777801513672" stroke-width="2" fill="none" stroke="rgb(0, 0, 0)" stroke-opacity="1.0" stroke-linecap="round" stroke-linejoin="round"/>
    <path d="M 168.5377197265625 106.53157806396484 C 131.8921661376953 132.0534210205078 255.2753448486328 176.958740234375 57.304744720458984 143.47726440429688" stroke-width="2" fill="none" stroke="rgb(0, 0, 0)" stroke-opacity="1.0" stroke-linecap="round" stroke-linejoin="round"/>
    <path d="M 49.12439727783203 117.23076629638672 C 41.62139892578125 127.62342071533203 32.405128479003906 160.25454711914062 79.6007308959961 153.71292114257812" stroke-width="2" fill="none" stroke="rgb(0, 0, 0)" stroke-opacity="1.0" stroke-linecap="round" stroke-linejoin="round"/>
    <path d="M 162.797119140625 157.99607849121094 C 174.36790466308594 153.09571838378906 137.55905151367188 160.73965454101562 137.347900390625 149.5159149169922" stroke-width="2" fill="none" stroke="rgb(0, 0, 0)" stroke-opacity="1.0" stroke-linecap="round" stroke-linejoin="round"/>
    <path d="M 163.5658416748047 99.39835357666016 C 182.18113708496094 124.4384536743164 202.98681640625 15.489032745361328 165.43968200683594 92.20719146728516" stroke-width="2" fill="none" stroke="rgb(0, 0, 0)" stroke-opacity="1.0" stroke-linecap="round" stroke-linejoin="round"/>
    <path d="M 147.6614532470703 142.2520751953125 C 35.95442581176758 117.05445098876953 123.84601593017578 123.52578735351562 87.85830688476562 134.11453247070312" stroke-width="2" fill="none" stroke="rgb(0, 0, 0)" stroke-opacity="1.0" stroke-linecap="round" stroke-linejoin="round"/>
  </g>
</svg>
