<?xml version="1.0" ?>
<svg xmlns="http://www.w3.org/2000/svg" version="1.1" width="224" height="224">
  <defs/>
  <g>
    <path d="M 163.34646606445312 136.7764129638672 C 99.58912658691406 116.54387664794922 230.3992919921875 107.92542266845703 124.00782012939453 141.8890838623047" stroke-width="2" fill="none" stroke="rgb(0, 0, 0)" stroke-opacity="1.0" stroke-linecap="round" stroke-linejoin="round"/>
    <path d="M 161.03173828125 129.26902770996094 C 47.604488372802734 135.30059814453125 93.7295150756836 120.40119934082031 74.84883880615234 112.45948028564453" stroke-width="2" fill="none" stroke="rgb(0, 0, 0)" stroke-opacity="1.0" stroke-linecap="round" stroke-linejoin="round"/>
    <path d="M 133.12005615234375 117.22831726074219 C 139.27056884765625 130.30300903320312 105.39108276367188 101.31047821044922 174.1968231201172 106.98892974853516" stroke-width="2" fill="none" stroke="rgb(0, 0, 0)" stroke-opacity="1.0" stroke-linecap="round" stroke-linejoin="round"/>
    <path d="M 160.95362854003906 126.90477752685547 C 140.02215576171875 147.9253387451172 193.7412872314453 115.99090576171875 149.05018615722656 119.79847717285156" stroke-width="2" fill="none" stroke="rgb(0, 0, 0)" stroke-opacity="1.0" stroke-linecap="round" stroke-linejoin="round"/>
    <path d="M 153.66737365722656 130.78456115722656 C 110.50559997558594 115.4179916381836 235.78565979003906 162.6878662109375 111.39616394042969 124.65314483642578" stroke-width="2" fill="none" stroke="rgb(0, 0, 0)" stroke-opacity="1.0" stroke-linecap="round" stroke-linejoin="round"/>
    <path d="M 110.03948211669922 102.44477844238281 C 80.87901306152344 126.36307525634766 114.41461181640625 92.26435852050781 97.9562759399414 114.1047134399414" stroke-width="2" fill="none" stroke="rgb(0, 0, 0)" stroke-opacity="1.0" stroke-linecap="round" stroke-linejoin="round"/>
    <path d="M 97.40552520751953 105.81591033935547 C 89.22374725341797 4.591363906860352 128.8282470703125 165.57952880859375 171.5086669921875 84.2362060546875" stroke-width="2" fill="none" stroke="rgb(0, 0, 0)" stroke-opacity="1.0" stroke-linecap="round" stroke-linejoin="round"/>
    <path d="M 52.274810791015625 99.7798843383789 C 31.663488388061523 145.6601104736328 43.83985900878906 150.34703063964844 70.126953125 145.5159912109375" stroke-width="2" fill="none" stroke="rgb(0, 0, 0)" stroke-opacity="1.0" stroke-linecap="round" stroke-linejoin="round"/>
    <path d="M 75.87369537353516 146.0926055908203 C 281.87890625 170.5250244140625 69.65662384033203 130.6427764892578 130.24156188964844 132.07992553710938" stroke-width="2" fill="none" stroke="rgb(0, 0, 0)" stroke-opacity="1.0" stroke-linecap="round" stroke-linejoin="round"/>
    <path d="M 97.01305389404297 138.9293975830078 C 62.646488189697266 123.20731353759766 84.8427505493164 145.52464294433594 112.68631744384766 153.1840362548828" stroke-width="2" fill="none" stroke="rgb(0, 0, 0)" stroke-opacity="1.0" stroke-linecap="round" stroke-linejoin="round"/>
    <path d="M 180.2760772705078 97.19483184814453 C 202.8459930419922 15.343067169189453 170.57919311523438 83.45960235595703 154.2760009765625 88.61402893066406" stroke-width="2" fill="none" stroke="rgb(0, 0, 0)" stroke-opacity="1.0" stroke-linecap="round" stroke-linejoin="round"/>
    <path d="M 173.73214721679688 104.9078598022461 C 134.89137268066406 127.64466094970703 250.78309631347656 202.12155151367188 46.17585372924805 145.59397888183594" stroke-width="2" fill="none" stroke="rgb(0, 0, 0)" stroke-opacity="1.0" stroke-linecap="round" stroke-linejoin="round"/>
    <path d="M 95.09725952148438 99.58586883544922 C 33.0429801940918 84.9239730834961 30.76143455505371 147.83204650878906 103.42759704589844 148.55096435546875" stroke-width="2" fill="none" stroke="rgb(0, 0, 0)" stroke-opacity="1.0" stroke-linecap="round" stroke-linejoin="round"/>
    <path d="M 131.01968383789062 130.4080352783203 C 127.18628692626953 75.87114715576172 112.5753173828125 144.79241943359375 102.61869812011719 71.14698791503906" stroke-width="2" fill="none" stroke="rgb(0, 0, 0)" stroke-opacity="1.0" stroke-linecap="round" stroke-linejoin="round"/>
    <path d="M 160.00538635253906 100.52146911621094 C 178.6288299560547 156.28749084472656 186.0415496826172 34.42685317993164 179.4038848876953 88.05396270751953" stroke-width="2" fill="none" stroke="rgb(0, 0, 0)" stroke-opacity="1.0" stroke-linecap="round" stroke-linejoin="round"/>
    <path d="M 160.5301055908203 139.48321533203125 C 131.54737854003906 141.7509002685547 204.29078674316406 138.37777709960938 140.05288696289062 134.3267364501953" stroke-width="2" fill="none" stroke="rgb(0, 0, 0)" stroke-opacity="1.0" stroke-linecap="round" stroke-linejoin="round"/>
  </g>
</svg>
