<?xml version="1.0" ?>
<svg xmlns="http://www.w3.org/2000/svg" version="1.1" width="224" height="224">
  <defs/>
  <g>
    <path d="M 105.77325439453125 124.3460693359375 C 115.39643859863281 117.92265319824219 179.90072631835938 116.5058364868164 141.71473693847656 117.8599624633789" stroke-width="2" fill="none" stroke="rgb(0, 0, 0)" stroke-opacity="1.0" stroke-linecap="round" stroke-linejoin="round"/>
    <path d="M 38.32978820800781 145.5660858154297 C 36.77561950683594 94.2470932006836 105.8299331665039 105.95225524902344 64.61581420898438 105.81117248535156" stroke-width="2" fill="none" stroke="rgb(0, 0, 0)" stroke-opacity="1.0" stroke-linecap="round" stroke-linejoin="round"/>
    <path d="M 155.49098205566406 127.4759521484375 C 70.01508331298828 150.52320861816406 130.2537078857422 67.39103698730469 162.62551879882812 100.38164520263672" stroke-width="2" fill="none" stroke="rgb(0, 0, 0)" stroke-opacity="1.0" stroke-linecap="round" stroke-linejoin="round"/>
    <path d="M 177.61996459960938 101.60968017578125 C 146.80523681640625 153.22268676757812 185.9326171875 159.59979248046875 120.07785034179688 115.52809143066406" stroke-width="2" fill="none" stroke="rgb(0, 0, 0)" stroke-opacity="1.0" stroke-linecap="round" stroke-linejoin="round"/>
    <path d="M 118.33968353271484 117.55862426757812 C 64.80441284179688 129.2530517578125 254.83558654785156 144.77072143554688 83.929443359375 117.66778564453125" stroke-width="2" fill="none" stroke="rgb(0, 0, 0)" stroke-opacity="1.0" stroke-linecap="round" stroke-linejoin="round"/>
    <path d="M 50.7470703125 115.64315795898438 C 54.03740310668945 144.61790466308594 46.7982292175293 90.20926666259766 71.2663345336914 112.83795928955078" stroke-width="2" fill="none" stroke="rgb(0, 0, 0)" stroke-opacity="1.0" stroke-linecap="round" stroke-linejoin="round"/>
    <path d="M 112.38589477539062 112.84088134765625 C 81.7736587524414 11.096882820129395 138.4210205078125 124.09475708007812 112.80152130126953 92.27703094482422" stroke-width="2" fill="none" stroke="rgb(0, 0, 0)" stroke-opacity="1.0" stroke-linecap="round" stroke-linejoin="round"/>
    <path d="M 58.79322052001953 145.4207305908203 C 39.89931869506836 135.4375457763672 46.834388732910156 125.32299041748047 104.53087615966797 146.44371032714844" stroke-width="2" fill="none" stroke="rgb(0, 0, 0)" stroke-opacity="1.0" stroke-linecap="round" stroke-linejoin="round"/>
    <path d="M 125.18325805664062 131.5383758544922 C 166.54698181152344 111.55401611328125 89.83700561523438 121.68634796142578 150.24989318847656 135.88204956054688" stroke-width="2" fill="none" stroke="rgb(0, 0, 0)" stroke-opacity="1.0" stroke-linecap="round" stroke-linejoin="round"/>
    <path d="M 137.32415771484375 111.049560546875 C 178.02481079101562 114.91773223876953 104.00837707519531 95.22683715820312 156.1702423095703 116.39502716064453" stroke-width="2" fill="none" stroke="rgb(0, 0, 0)" stroke-opacity="1.0" stroke-linecap="round" stroke-linejoin="round"/>
    <path d="M 158.44232177734375 90.4031753540039 C 207.5734100341797 23.991825103759766 151.8362579345703 135.3327178955078 108.36595916748047 73.25521850585938" stroke-width="2" fill="none" stroke="rgb(0, 0, 0)" stroke-opacity="1.0" stroke-linecap="round" stroke-linejoin="round"/>
    <path d="M 174.45614624023438 111.54197692871094 C 128.4934539794922 105.50022888183594 260.5705871582031 184.04417419433594 45.31726837158203 146.6420135498047" stroke-width="2" fill="none" stroke="rgb(0, 0, 0)" stroke-opacity="1.0" stroke-linecap="round" stroke-linejoin="round"/>
    <path d="M 44.39118957519531 146.05186462402344 C 37.01447677612305 126.38542938232422 40.7772216796875 152.1686553955078 83.44854736328125 157.72198486328125" stroke-width="2" fill="none" stroke="rgb(0, 0, 0)" stroke-opacity="1.0" stroke-linecap="round" stroke-linejoin="round"/>
    <path d="M 164.2166748046875 147.06155395507812 C 183.10287475585938 141.72352600097656 151.14512634277344 145.88853454589844 146.72654724121094 145.24038696289062" stroke-width="2" fill="none" stroke="rgb(0, 0, 0)" stroke-opacity="1.0" stroke-linecap="round" stroke-linejoin="round"/>
    <path d="M 168.65484619140625 95.6731185913086 C 182.88912963867188 143.7938232421875 200.24729919433594 -4.233262062072754 174.41412353515625 90.15695190429688" stroke-width="2" fill="none" stroke="rgb(0, 0, 0)" stroke-opacity="1.0" stroke-linecap="round" stroke-linejoin="round"/>
    <path d="M 156.29965209960938 147.44888305664062 C 60.32974624633789 126.10115814208984 154.18455505371094 136.61964416503906 112.76270294189453 129.04666137695312" stroke-width="2" fill="none" stroke="rgb(0, 0, 0)" stroke-opacity="1.0" stroke-linecap="round" stroke-linejoin="round"/>
  </g>
</svg>
