<?xml version="1.0" ?>
<svg xmlns="http://www.w3.org/2000/svg" version="1.1" width="224" height="224">
  <defs/>
  <g>
    <path d="M 140.75765991210938 117.28562927246094 C 85.79572296142578 123.98161315917969 180.15370178222656 118.38920593261719 123.94015502929688 125.60784149169922" stroke-width="2" fill="none" stroke="rgb(0, 0, 0)" stroke-opacity="1.0" stroke-linecap="round" stroke-linejoin="round"/>
    <path d="M 79.07833862304688 141.0982666015625 C 21.435483932495117 120.51180267333984 179.03240966796875 150.28042602539062 175.52700805664062 143.75344848632812" stroke-width="2" fill="none" stroke="rgb(0, 0, 0)" stroke-opacity="1.0" stroke-linecap="round" stroke-linejoin="round"/>
    <path d="M 161.3891143798828 94.77023315429688 C 196.43345642089844 131.27992248535156 120.97370147705078 103.41691589355469 159.19659423828125 118.9404067993164" stroke-width="2" fill="none" stroke="rgb(0, 0, 0)" stroke-opacity="1.0" stroke-linecap="round" stroke-linejoin="round"/>
    <path d="M 149.68341064453125 137.00758361816406 C 95.21112060546875 127.66730499267578 209.01632690429688 138.7307891845703 146.75213623046875 143.4969940185547" stroke-width="2" fill="none" stroke="rgb(0, 0, 0)" stroke-opacity="1.0" stroke-linecap="round" stroke-linejoin="round"/>
    <path d="M 133.4374237060547 114.66886901855469 C 73.4131088256836 119.3299331665039 233.1415252685547 132.73692321777344 104.4668197631836 147.16146850585938" stroke-width="2" fill="none" stroke="rgb(0, 0, 0)" stroke-opacity="1.0" stroke-linecap="round" stroke-linejoin="round"/>
    <path d="M 133.259521484375 103.85179138183594 C 112.16504669189453 102.80220794677734 111.52366638183594 130.19215393066406 138.92518615722656 113.50538635253906" stroke-width="2" fill="none" stroke="rgb(0, 0, 0)" stroke-opacity="1.0" stroke-linecap="round" stroke-linejoin="round"/>
    <path d="M 109.42838287353516 78.27403259277344 C 157.07969665527344 74.77508544921875 128.82984924316406 114.6249771118164 173.47589111328125 62.718563079833984" stroke-width="2" fill="none" stroke="rgb(0, 0, 0)" stroke-opacity="1.0" stroke-linecap="round" stroke-linejoin="round"/>
    <path d="M 119.17947387695312 151.6283416748047 C 93.28489685058594 164.9344024658203 17.487695693969727 152.02371215820312 59.2222785949707 100.84917449951172" stroke-width="2" fill="none" stroke="rgb(0, 0, 0)" stroke-opacity="1.0" stroke-linecap="round" stroke-linejoin="round"/>
    <path d="M 143.6802978515625 145.2985382080078 C 200.35447692871094 116.09255981445312 136.0352783203125 97.84539794921875 150.3873291015625 118.08539581298828" stroke-width="2" fill="none" stroke="rgb(0, 0, 0)" stroke-opacity="1.0" stroke-linecap="round" stroke-linejoin="round"/>
    <path d="M 115.61896514892578 111.89114379882812 C 96.98670196533203 133.18914794921875 123.72498321533203 137.1581268310547 102.98851776123047 96.75353240966797" stroke-width="2" fill="none" stroke="rgb(0, 0, 0)" stroke-opacity="1.0" stroke-linecap="round" stroke-linejoin="round"/>
    <path d="M 167.29852294921875 84.1313705444336 C 203.75059509277344 -1.8246456384658813 171.05715942382812 146.93881225585938 151.50399780273438 115.10088348388672" stroke-width="2" fill="none" stroke="rgb(0, 0, 0)" stroke-opacity="1.0" stroke-linecap="round" stroke-linejoin="round"/>
    <path d="M 165.21255493164062 112.14280700683594 C 187.192138671875 171.6187744140625 191.4257049560547 171.13023376464844 47.969478607177734 140.18154907226562" stroke-width="2" fill="none" stroke="rgb(0, 0, 0)" stroke-opacity="1.0" stroke-linecap="round" stroke-linejoin="round"/>
    <path d="M 44.45298767089844 125.2557601928711 C 66.96300506591797 146.1876678466797 26.99333381652832 140.76101684570312 77.61507415771484 157.59487915039062" stroke-width="2" fill="none" stroke="rgb(0, 0, 0)" stroke-opacity="1.0" stroke-linecap="round" stroke-linejoin="round"/>
    <path d="M 112.49083709716797 131.7384490966797 C 95.23277282714844 109.7965087890625 106.62022399902344 116.9836654663086 110.9039306640625 122.04928588867188" stroke-width="2" fill="none" stroke="rgb(0, 0, 0)" stroke-opacity="1.0" stroke-linecap="round" stroke-linejoin="round"/>
    <path d="M 154.77586364746094 111.51470184326172 C 185.0163116455078 146.8381805419922 189.78274536132812 -9.581108093261719 171.9404296875 94.30513763427734" stroke-width="2" fill="none" stroke="rgb(0, 0, 0)" stroke-opacity="1.0" stroke-linecap="round" stroke-linejoin="round"/>
    <path d="M 91.25460815429688 111.32234191894531 C 44.42180252075195 101.81500244140625 88.6132583618164 87.80144500732422 56.308258056640625 104.35867309570312" stroke-width="2" fill="none" stroke="rgb(0, 0, 0)" stroke-opacity="1.0" stroke-linecap="round" stroke-linejoin="round"/>
  </g>
</svg>
