<?xml version="1.0" ?>
<svg xmlns="http://www.w3.org/2000/svg" version="1.1" width="224" height="224">
  <defs/>
  <g>
    <path d="M 118.28247833251953 125.21479034423828 C 78.51007843017578 115.16729736328125 173.52760314941406 121.86298370361328 115.28630828857422 111.63650512695312" stroke-width="2" fill="none" stroke="rgb(0, 0, 0)" stroke-opacity="1.0" stroke-linecap="round" stroke-linejoin="round"/>
    <path d="M 117.24363708496094 142.56103515625 C 67.48009490966797 111.89335632324219 191.58706665039062 153.1184539794922 161.3953094482422 151.3698272705078" stroke-width="2" fill="none" stroke="rgb(0, 0, 0)" stroke-opacity="1.0" stroke-linecap="round" stroke-linejoin="round"/>
    <path d="M 147.0839385986328 113.44926452636719 C 191.3290557861328 127.96273040771484 112.22607421875 109.77949523925781 143.56935119628906 129.33203125" stroke-width="2" fill="none" stroke="rgb(0, 0, 0)" stroke-opacity="1.0" stroke-linecap="round" stroke-linejoin="round"/>
    <path d="M 143.47500610351562 131.8865203857422 C 85.22805786132812 132.40545654296875 208.60731506347656 134.31063842773438 135.690673828125 141.2055206298828" stroke-width="2" fill="none" stroke="rgb(0, 0, 0)" stroke-opacity="1.0" stroke-linecap="round" stroke-linejoin="round"/>
    <path d="M 129.3116455078125 108.72970581054688 C 77.62337493896484 141.0101318359375 215.81919860839844 150.77809143066406 127.5399169921875 141.48275756835938" stroke-width="2" fill="none" stroke="rgb(0, 0, 0)" stroke-opacity="1.0" stroke-linecap="round" stroke-linejoin="round"/>
    <path d="M 132.0220489501953 119.822021484375 C 102.68933868408203 118.2979507446289 101.75048065185547 122.31304168701172 151.71798706054688 141.01852416992188" stroke-width="2" fill="none" stroke="rgb(0, 0, 0)" stroke-opacity="1.0" stroke-linecap="round" stroke-linejoin="round"/>
    <path d="M 96.15277862548828 76.50150299072266 C 121.09892272949219 68.52592468261719 118.2108154296875 130.6112060546875 177.00674438476562 63.046875" stroke-width="2" fill="none" stroke="rgb(0, 0, 0)" stroke-opacity="1.0" stroke-linecap="round" stroke-linejoin="round"/>
    <path d="M 97.44148254394531 151.78997802734375 C 79.65611267089844 154.14537048339844 6.66770076751709 150.03005981445312 53.99138641357422 98.46344757080078" stroke-width="2" fill="none" stroke="rgb(0, 0, 0)" stroke-opacity="1.0" stroke-linecap="round" stroke-linejoin="round"/>
    <path d="M 150.6614990234375 113.10486602783203 C 179.4247589111328 117.2914047241211 117.42234802246094 106.5715103149414 153.80482482910156 123.61568450927734" stroke-width="2" fill="none" stroke="rgb(0, 0, 0)" stroke-opacity="1.0" stroke-linecap="round" stroke-linejoin="round"/>
    <path d="M 63.7967643737793 129.6930389404297 C 97.63199615478516 163.45263671875 112.857177734375 145.3551483154297 97.08397674560547 137.67904663085938" stroke-width="2" fill="none" stroke="rgb(0, 0, 0)" stroke-opacity="1.0" stroke-linecap="round" stroke-linejoin="round"/>
    <path d="M 173.4718017578125 99.48582458496094 C 198.21372985839844 -0.8034491539001465 189.5548095703125 140.36599731445312 158.75283813476562 100.09463500976562" stroke-width="2" fill="none" stroke="rgb(0, 0, 0)" stroke-opacity="1.0" stroke-linecap="round" stroke-linejoin="round"/>
    <path d="M 165.5297088623047 108.97625732421875 C 174.47511291503906 160.74252319335938 182.62921142578125 158.14682006835938 46.943260192871094 146.3893585205078" stroke-width="2" fill="none" stroke="rgb(0, 0, 0)" stroke-opacity="1.0" stroke-linecap="round" stroke-linejoin="round"/>
    <path d="M 60.24506378173828 141.67955017089844 C 91.39447021484375 147.94615173339844 24.154327392578125 126.52458953857422 100.00023651123047 149.25982666015625" stroke-width="2" fill="none" stroke="rgb(0, 0, 0)" stroke-opacity="1.0" stroke-linecap="round" stroke-linejoin="round"/>
    <path d="M 113.52960968017578 125.72356414794922 C 95.97918701171875 81.64616394042969 90.35292053222656 75.95578002929688 95.07410430908203 114.36040496826172" stroke-width="2" fill="none" stroke="rgb(0, 0, 0)" stroke-opacity="1.0" stroke-linecap="round" stroke-linejoin="round"/>
    <path d="M 146.86019897460938 134.18450927734375 C 184.2413787841797 148.95533752441406 203.6243438720703 2.250973701477051 155.03201293945312 93.10321044921875" stroke-width="2" fill="none" stroke="rgb(0, 0, 0)" stroke-opacity="1.0" stroke-linecap="round" stroke-linejoin="round"/>
    <path d="M 72.39425659179688 109.04378509521484 C 31.610843658447266 112.5285873413086 105.50958251953125 112.7817153930664 76.7272720336914 112.07733154296875" stroke-width="2" fill="none" stroke="rgb(0, 0, 0)" stroke-opacity="1.0" stroke-linecap="round" stroke-linejoin="round"/>
  </g>
</svg>
