<?xml version="1.0" ?>
<svg xmlns="http://www.w3.org/2000/svg" version="1.1" width="224" height="224">
  <defs/>
  <g>
    <path d="M 110.57010650634766 135.67356872558594 C 104.15885162353516 105.18799591064453 119.14017486572266 160.72789001464844 107.0418472290039 111.81666564941406" stroke-width="2" fill="none" stroke="rgb(0, 0, 0)" stroke-opacity="1.0" stroke-linecap="round" stroke-linejoin="round"/>
    <path d="M 126.06189727783203 135.57485961914062 C 127.0495834350586 139.55918884277344 193.68368530273438 135.00929260253906 128.0380859375 132.9376220703125" stroke-width="2" fill="none" stroke="rgb(0, 0, 0)" stroke-opacity="1.0" stroke-linecap="round" stroke-linejoin="round"/>
    <path d="M 152.28846740722656 125.26275634765625 C 115.90345764160156 160.4394073486328 101.51304626464844 116.98409271240234 101.43773651123047 131.29006958007812" stroke-width="2" fill="none" stroke="rgb(0, 0, 0)" stroke-opacity="1.0" stroke-linecap="round" stroke-linejoin="round"/>
    <path d="M 140.6603240966797 116.85762786865234 C 96.38328552246094 107.04833221435547 207.0208740234375 138.9816436767578 133.5503387451172 142.28732299804688" stroke-width="2" fill="none" stroke="rgb(0, 0, 0)" stroke-opacity="1.0" stroke-linecap="round" stroke-linejoin="round"/>
    <path d="M 112.37552642822266 124.38899230957031 C 99.46744537353516 113.55984497070312 132.7159881591797 111.72268676757812 109.76128387451172 119.68415832519531" stroke-width="2" fill="none" stroke="rgb(0, 0, 0)" stroke-opacity="1.0" stroke-linecap="round" stroke-linejoin="round"/>
    <path d="M 122.64030456542969 116.71796417236328 C 97.9901123046875 119.10787963867188 101.30756378173828 106.54180145263672 108.3506088256836 93.49372100830078" stroke-width="2" fill="none" stroke="rgb(0, 0, 0)" stroke-opacity="1.0" stroke-linecap="round" stroke-linejoin="round"/>
    <path d="M 93.35107421875 71.0346908569336 C 123.77342224121094 64.59098815917969 108.51090240478516 100.89308166503906 154.63375854492188 85.86557006835938" stroke-width="2" fill="none" stroke="rgb(0, 0, 0)" stroke-opacity="1.0" stroke-linecap="round" stroke-linejoin="round"/>
    <path d="M 113.7760009765625 159.0372772216797 C 96.08332061767578 145.06944274902344 7.6379714012146 170.48484802246094 55.4538459777832 110.93403625488281" stroke-width="2" fill="none" stroke="rgb(0, 0, 0)" stroke-opacity="1.0" stroke-linecap="round" stroke-linejoin="round"/>
    <path d="M 130.64654541015625 124.16458892822266 C 169.33834838867188 117.94105529785156 100.00177764892578 122.82369232177734 135.95315551757812 128.5474853515625" stroke-width="2" fill="none" stroke="rgb(0, 0, 0)" stroke-opacity="1.0" stroke-linecap="round" stroke-linejoin="round"/>
    <path d="M 87.0419921875 138.35955810546875 C 120.81470489501953 155.16688537597656 93.93793487548828 110.48299407958984 124.2095947265625 148.35386657714844" stroke-width="2" fill="none" stroke="rgb(0, 0, 0)" stroke-opacity="1.0" stroke-linecap="round" stroke-linejoin="round"/>
    <path d="M 153.76278686523438 93.40628814697266 C 203.54342651367188 26.379716873168945 187.08116149902344 82.76073455810547 160.26560974121094 123.00041961669922" stroke-width="2" fill="none" stroke="rgb(0, 0, 0)" stroke-opacity="1.0" stroke-linecap="round" stroke-linejoin="round"/>
    <path d="M 155.04153442382812 117.08023071289062 C 202.55584716796875 180.44894409179688 153.06822204589844 154.55560302734375 122.04817199707031 154.64654541015625" stroke-width="2" fill="none" stroke="rgb(0, 0, 0)" stroke-opacity="1.0" stroke-linecap="round" stroke-linejoin="round"/>
    <path d="M 46.057010650634766 146.34039306640625 C 71.97866821289062 144.6993865966797 11.15882396697998 154.1614990234375 85.60821533203125 168.99603271484375" stroke-width="2" fill="none" stroke="rgb(0, 0, 0)" stroke-opacity="1.0" stroke-linecap="round" stroke-linejoin="round"/>
    <path d="M 85.19499969482422 100.2294921875 C 92.30181121826172 57.751399993896484 96.98106384277344 58.422401428222656 106.24417114257812 104.0950927734375" stroke-width="2" fill="none" stroke="rgb(0, 0, 0)" stroke-opacity="1.0" stroke-linecap="round" stroke-linejoin="round"/>
    <path d="M 162.15423583984375 117.94763946533203 C 121.88082885742188 111.9384765625 194.10157775878906 83.7434310913086 171.18685913085938 109.38323211669922" stroke-width="2" fill="none" stroke="rgb(0, 0, 0)" stroke-opacity="1.0" stroke-linecap="round" stroke-linejoin="round"/>
    <path d="M 53.245670318603516 124.31334686279297 C 45.06288146972656 94.31282806396484 109.39517974853516 113.55412292480469 77.61227416992188 105.90559387207031" stroke-width="2" fill="none" stroke="rgb(0, 0, 0)" stroke-opacity="1.0" stroke-linecap="round" stroke-linejoin="round"/>
  </g>
</svg>
