<?xml version="1.0" ?>
<svg xmlns="http://www.w3.org/2000/svg" version="1.1" width="224" height="224">
  <defs/>
  <g>
    <path d="M 157.37535095214844 155.49813842773438 C 145.82537841796875 159.7670440673828 235.06503295898438 153.29730224609375 132.0513916015625 113.74948120117188" stroke-width="2" fill="none" stroke="rgb(0, 0, 0)" stroke-opacity="1.0" stroke-linecap="round" stroke-linejoin="round"/>
    <path d="M 138.35714721679688 138.0519256591797 C 76.89653015136719 91.80150604248047 112.41390228271484 105.338134765625 103.6281967163086 124.07616424560547" stroke-width="2" fill="none" stroke="rgb(0, 0, 0)" stroke-opacity="1.0" stroke-linecap="round" stroke-linejoin="round"/>
    <path d="M 149.56875610351562 112.3431625366211 C 79.92137908935547 141.3968048095703 125.95806121826172 68.09878540039062 141.78330993652344 103.52196502685547" stroke-width="2" fill="none" stroke="rgb(0, 0, 0)" stroke-opacity="1.0" stroke-linecap="round" stroke-linejoin="round"/>
    <path d="M 169.34141540527344 106.6198501586914 C 139.75645446777344 97.65589141845703 206.55638122558594 119.5816421508789 141.4605712890625 125.85554504394531" stroke-width="2" fill="none" stroke="rgb(0, 0, 0)" stroke-opacity="1.0" stroke-linecap="round" stroke-linejoin="round"/>
    <path d="M 96.22080993652344 154.7978057861328 C 45.85448455810547 145.8046417236328 216.48744201660156 167.05101013183594 81.49600219726562 153.00933837890625" stroke-width="2" fill="none" stroke="rgb(0, 0, 0)" stroke-opacity="1.0" stroke-linecap="round" stroke-linejoin="round"/>
    <path d="M 54.339778900146484 115.29396057128906 C 70.26029968261719 121.86603546142578 49.12116241455078 94.19488525390625 40.21376419067383 142.2636260986328" stroke-width="2" fill="none" stroke="rgb(0, 0, 0)" stroke-opacity="1.0" stroke-linecap="round" stroke-linejoin="round"/>
    <path d="M 100.36428833007812 96.01600646972656 C 76.23809051513672 -6.020870208740234 112.03093719482422 133.00262451171875 169.78675842285156 84.87185668945312" stroke-width="2" fill="none" stroke="rgb(0, 0, 0)" stroke-opacity="1.0" stroke-linecap="round" stroke-linejoin="round"/>
    <path d="M 60.30523681640625 136.43939208984375 C 33.044921875 128.45071411132812 37.5272331237793 150.20504760742188 72.51641082763672 155.68145751953125" stroke-width="2" fill="none" stroke="rgb(0, 0, 0)" stroke-opacity="1.0" stroke-linecap="round" stroke-linejoin="round"/>
    <path d="M 146.36094665527344 134.67520141601562 C 197.62042236328125 144.19345092773438 125.3577651977539 95.0009765625 132.90414428710938 119.94085693359375" stroke-width="2" fill="none" stroke="rgb(0, 0, 0)" stroke-opacity="1.0" stroke-linecap="round" stroke-linejoin="round"/>
    <path d="M 43.23625183105469 142.9120635986328 C 179.92674255371094 173.00787353515625 89.3627700805664 145.3739013671875 109.80233001708984 158.09214782714844" stroke-width="2" fill="none" stroke="rgb(0, 0, 0)" stroke-opacity="1.0" stroke-linecap="round" stroke-linejoin="round"/>
    <path d="M 171.50326538085938 100.12511444091797 C 208.06504821777344 2.7196977138519287 156.32823181152344 100.5141372680664 140.5422821044922 95.99461364746094" stroke-width="2" fill="none" stroke="rgb(0, 0, 0)" stroke-opacity="1.0" stroke-linecap="round" stroke-linejoin="round"/>
    <path d="M 179.27774047851562 116.22628784179688 C 160.86962890625 139.10118103027344 239.79214477539062 174.10665893554688 87.01992797851562 136.08961486816406" stroke-width="2" fill="none" stroke="rgb(0, 0, 0)" stroke-opacity="1.0" stroke-linecap="round" stroke-linejoin="round"/>
    <path d="M 116.19453430175781 107.09068298339844 C 36.39691925048828 84.69010925292969 26.14487648010254 150.27540588378906 104.82196807861328 142.98617553710938" stroke-width="2" fill="none" stroke="rgb(0, 0, 0)" stroke-opacity="1.0" stroke-linecap="round" stroke-linejoin="round"/>
    <path d="M 136.23867797851562 114.52500915527344 C 201.7240447998047 130.51840209960938 139.23397827148438 106.47374725341797 165.87982177734375 125.54695129394531" stroke-width="2" fill="none" stroke="rgb(0, 0, 0)" stroke-opacity="1.0" stroke-linecap="round" stroke-linejoin="round"/>
    <path d="M 144.9971923828125 119.99557495117188 C 186.5249481201172 150.68153381347656 200.2009735107422 6.374019145965576 173.1245880126953 78.7571029663086" stroke-width="2" fill="none" stroke="rgb(0, 0, 0)" stroke-opacity="1.0" stroke-linecap="round" stroke-linejoin="round"/>
    <path d="M 162.43971252441406 131.36325073242188 C 47.00564193725586 121.2701416015625 163.66990661621094 136.81764221191406 128.86631774902344 137.16761779785156" stroke-width="2" fill="none" stroke="rgb(0, 0, 0)" stroke-opacity="1.0" stroke-linecap="round" stroke-linejoin="round"/>
  </g>
</svg>
