<?xml version="1.0" ?>
<svg xmlns="http://www.w3.org/2000/svg" version="1.1" width="224" height="224">
  <defs/>
  <g>
    <path d="M 128.0921630859375 127.22565460205078 C 71.81463623046875 112.24250793457031 185.49903869628906 133.2339630126953 114.46981811523438 116.64979553222656" stroke-width="2" fill="none" stroke="rgb(0, 0, 0)" stroke-opacity="1.0" stroke-linecap="round" stroke-linejoin="round"/>
    <path d="M 55.1843376159668 113.38627624511719 C 21.851892471313477 102.92284393310547 72.587890625 107.64993286132812 54.7254524230957 125.03605651855469" stroke-width="2" fill="none" stroke="rgb(0, 0, 0)" stroke-opacity="1.0" stroke-linecap="round" stroke-linejoin="round"/>
    <path d="M 143.7543182373047 138.42681884765625 C 72.50122833251953 153.37509155273438 119.7187271118164 57.65561294555664 159.1548614501953 95.65716552734375" stroke-width="2" fill="none" stroke="rgb(0, 0, 0)" stroke-opacity="1.0" stroke-linecap="round" stroke-linejoin="round"/>
    <path d="M 118.83753967285156 94.3377456665039 C 76.1751937866211 129.5483856201172 196.0365753173828 108.71395111083984 135.23374938964844 116.19482421875" stroke-width="2" fill="none" stroke="rgb(0, 0, 0)" stroke-opacity="1.0" stroke-linecap="round" stroke-linejoin="round"/>
    <path d="M 102.46018981933594 134.48997497558594 C 64.93692016601562 127.98739624023438 262.1177673339844 169.80218505859375 79.96194458007812 141.63511657714844" stroke-width="2" fill="none" stroke="rgb(0, 0, 0)" stroke-opacity="1.0" stroke-linecap="round" stroke-linejoin="round"/>
    <path d="M 111.95499420166016 106.76701354980469 C 86.02937316894531 111.82527923583984 110.90077209472656 96.72570037841797 94.01034545898438 111.65958404541016" stroke-width="2" fill="none" stroke="rgb(0, 0, 0)" stroke-opacity="1.0" stroke-linecap="round" stroke-linejoin="round"/>
    <path d="M 107.66612243652344 118.35256958007812 C 57.30792999267578 6.799455642700195 132.14508056640625 117.45639038085938 109.21094512939453 91.87480926513672" stroke-width="2" fill="none" stroke="rgb(0, 0, 0)" stroke-opacity="1.0" stroke-linecap="round" stroke-linejoin="round"/>
    <path d="M 55.299713134765625 144.16616821289062 C 33.94464111328125 114.23223876953125 9.429635047912598 152.0142822265625 112.96302795410156 145.9462432861328" stroke-width="2" fill="none" stroke="rgb(0, 0, 0)" stroke-opacity="1.0" stroke-linecap="round" stroke-linejoin="round"/>
    <path d="M 113.76538848876953 115.30254364013672 C 146.6290740966797 96.9156265258789 66.24486541748047 113.16824340820312 127.87799835205078 121.43988800048828" stroke-width="2" fill="none" stroke="rgb(0, 0, 0)" stroke-opacity="1.0" stroke-linecap="round" stroke-linejoin="round"/>
    <path d="M 131.62045288085938 109.04690551757812 C 184.3119659423828 139.5945587158203 131.94024658203125 130.3344268798828 161.08065795898438 122.9653549194336" stroke-width="2" fill="none" stroke="rgb(0, 0, 0)" stroke-opacity="1.0" stroke-linecap="round" stroke-linejoin="round"/>
    <path d="M 169.08351135253906 92.32098388671875 C 205.8528289794922 5.944511890411377 157.0608673095703 120.21255493164062 103.7955093383789 67.55377960205078" stroke-width="2" fill="none" stroke="rgb(0, 0, 0)" stroke-opacity="1.0" stroke-linecap="round" stroke-linejoin="round"/>
    <path d="M 172.3340606689453 109.73311614990234 C 140.89669799804688 136.2414093017578 247.70277404785156 188.23660278320312 47.30873489379883 146.631591796875" stroke-width="2" fill="none" stroke="rgb(0, 0, 0)" stroke-opacity="1.0" stroke-linecap="round" stroke-linejoin="round"/>
    <path d="M 87.19072723388672 102.04154205322266 C 36.92567825317383 84.17989349365234 8.228365898132324 153.9866180419922 78.42381286621094 157.13282775878906" stroke-width="2" fill="none" stroke="rgb(0, 0, 0)" stroke-opacity="1.0" stroke-linecap="round" stroke-linejoin="round"/>
    <path d="M 161.6412353515625 147.5777587890625 C 154.5844268798828 133.65618896484375 132.57395935058594 159.6195526123047 102.64274597167969 134.3463897705078" stroke-width="2" fill="none" stroke="rgb(0, 0, 0)" stroke-opacity="1.0" stroke-linecap="round" stroke-linejoin="round"/>
    <path d="M 159.7792510986328 105.70948791503906 C 174.39195251464844 140.4803009033203 209.2873077392578 -4.8388991355896 162.322509765625 83.2113037109375" stroke-width="2" fill="none" stroke="rgb(0, 0, 0)" stroke-opacity="1.0" stroke-linecap="round" stroke-linejoin="round"/>
    <path d="M 132.94435119628906 132.95053100585938 C 36.20050811767578 131.87164306640625 109.2677993774414 119.3779067993164 68.03045654296875 133.17568969726562" stroke-width="2" fill="none" stroke="rgb(0, 0, 0)" stroke-opacity="1.0" stroke-linecap="round" stroke-linejoin="round"/>
  </g>
</svg>
