<?xml version="1.0" ?>
<svg xmlns="http://www.w3.org/2000/svg" version="1.1" width="224" height="224">
  <defs/>
  <g>
    <path d="M 138.29275512695312 114.47850799560547 C 82.01727294921875 114.32546997070312 174.18260192871094 111.98748779296875 121.59297180175781 110.47071838378906" stroke-width="2" fill="none" stroke="rgb(0, 0, 0)" stroke-opacity="1.0" stroke-linecap="round" stroke-linejoin="round"/>
    <path d="M 79.8637466430664 141.93594360351562 C 32.798980712890625 117.56478881835938 188.41885375976562 139.14215087890625 176.32029724121094 140.8917694091797" stroke-width="2" fill="none" stroke="rgb(0, 0, 0)" stroke-opacity="1.0" stroke-linecap="round" stroke-linejoin="round"/>
    <path d="M 163.1862030029297 90.62010192871094 C 204.56463623046875 110.90289306640625 111.388427734375 99.26385498046875 165.5028533935547 112.2259521484375" stroke-width="2" fill="none" stroke="rgb(0, 0, 0)" stroke-opacity="1.0" stroke-linecap="round" stroke-linejoin="round"/>
    <path d="M 146.87567138671875 125.60064697265625 C 98.38080596923828 129.54171752929688 221.7528076171875 139.93756103515625 163.2354736328125 160.60098266601562" stroke-width="2" fill="none" stroke="rgb(0, 0, 0)" stroke-opacity="1.0" stroke-linecap="round" stroke-linejoin="round"/>
    <path d="M 131.4866180419922 105.43997192382812 C 62.95850372314453 131.02334594726562 216.36090087890625 141.34234619140625 117.25628662109375 136.90499877929688" stroke-width="2" fill="none" stroke="rgb(0, 0, 0)" stroke-opacity="1.0" stroke-linecap="round" stroke-linejoin="round"/>
    <path d="M 136.20130920410156 110.8623046875 C 108.17562866210938 107.78644561767578 104.99346160888672 133.1053924560547 142.71551513671875 125.74253845214844" stroke-width="2" fill="none" stroke="rgb(0, 0, 0)" stroke-opacity="1.0" stroke-linecap="round" stroke-linejoin="round"/>
    <path d="M 104.88314056396484 76.09684753417969 C 145.80186462402344 62.52476501464844 117.59214782714844 115.8673095703125 176.4152374267578 60.95228958129883" stroke-width="2" fill="none" stroke="rgb(0, 0, 0)" stroke-opacity="1.0" stroke-linecap="round" stroke-linejoin="round"/>
    <path d="M 122.27973175048828 156.0822296142578 C 83.3416519165039 158.706787109375 5.297055721282959 152.47230529785156 50.00422668457031 98.98410034179688" stroke-width="2" fill="none" stroke="rgb(0, 0, 0)" stroke-opacity="1.0" stroke-linecap="round" stroke-linejoin="round"/>
    <path d="M 148.85635375976562 140.0686798095703 C 197.84127807617188 119.13396453857422 130.10511779785156 100.13459777832031 164.2619171142578 110.9976806640625" stroke-width="2" fill="none" stroke="rgb(0, 0, 0)" stroke-opacity="1.0" stroke-linecap="round" stroke-linejoin="round"/>
    <path d="M 117.09391784667969 114.04790496826172 C 99.2127456665039 149.23475646972656 137.35302734375 139.36720275878906 89.28579711914062 123.63569641113281" stroke-width="2" fill="none" stroke="rgb(0, 0, 0)" stroke-opacity="1.0" stroke-linecap="round" stroke-linejoin="round"/>
    <path d="M 156.6296844482422 77.81957244873047 C 202.65663146972656 -8.22994613647461 172.27845764160156 138.2034454345703 158.1256561279297 109.70586395263672" stroke-width="2" fill="none" stroke="rgb(0, 0, 0)" stroke-opacity="1.0" stroke-linecap="round" stroke-linejoin="round"/>
    <path d="M 156.76422119140625 108.10675811767578 C 183.89491271972656 157.21734619140625 186.8450164794922 163.63201904296875 57.126853942871094 132.97772216796875" stroke-width="2" fill="none" stroke="rgb(0, 0, 0)" stroke-opacity="1.0" stroke-linecap="round" stroke-linejoin="round"/>
    <path d="M 45.30600357055664 128.4540252685547 C 66.52294158935547 160.00897216796875 20.946548461914062 137.06263732910156 98.03352355957031 157.80621337890625" stroke-width="2" fill="none" stroke="rgb(0, 0, 0)" stroke-opacity="1.0" stroke-linecap="round" stroke-linejoin="round"/>
    <path d="M 115.31372833251953 124.90524291992188 C 93.56449127197266 96.5615005493164 107.1601791381836 103.17566680908203 113.87761688232422 124.40081787109375" stroke-width="2" fill="none" stroke="rgb(0, 0, 0)" stroke-opacity="1.0" stroke-linecap="round" stroke-linejoin="round"/>
    <path d="M 149.98779296875 113.3065185546875 C 183.71995544433594 140.7293701171875 192.55734252929688 -21.348094940185547 167.67886352539062 88.68677520751953" stroke-width="2" fill="none" stroke="rgb(0, 0, 0)" stroke-opacity="1.0" stroke-linecap="round" stroke-linejoin="round"/>
    <path d="M 91.46214294433594 101.82892608642578 C 34.58565902709961 98.27024841308594 88.40919494628906 87.5500717163086 56.667274475097656 99.12655639648438" stroke-width="2" fill="none" stroke="rgb(0, 0, 0)" stroke-opacity="1.0" stroke-linecap="round" stroke-linejoin="round"/>
  </g>
</svg>
