<?xml version="1.0" ?>
<svg xmlns="http://www.w3.org/2000/svg" version="1.1" width="224" height="224">
  <defs/>
  <g>
    <path d="M 137.80377197265625 133.4579315185547 C 67.78771209716797 122.67791748046875 190.68450927734375 136.1333770751953 118.64337158203125 121.87886810302734" stroke-width="2" fill="none" stroke="rgb(0, 0, 0)" stroke-opacity="1.0" stroke-linecap="round" stroke-linejoin="round"/>
    <path d="M 60.169158935546875 116.16365051269531 C 22.610132217407227 124.67919921875 79.225341796875 112.5477523803711 78.8862533569336 122.61393737792969" stroke-width="2" fill="none" stroke="rgb(0, 0, 0)" stroke-opacity="1.0" stroke-linecap="round" stroke-linejoin="round"/>
    <path d="M 139.12940979003906 123.68244934082031 C 74.17350769042969 150.4583740234375 121.47815704345703 54.10761260986328 159.5502166748047 99.61814880371094" stroke-width="2" fill="none" stroke="rgb(0, 0, 0)" stroke-opacity="1.0" stroke-linecap="round" stroke-linejoin="round"/>
    <path d="M 110.51187133789062 95.2462158203125 C 74.76668548583984 128.3025665283203 197.50552368164062 106.73633575439453 137.1178436279297 116.99054718017578" stroke-width="2" fill="none" stroke="rgb(0, 0, 0)" stroke-opacity="1.0" stroke-linecap="round" stroke-linejoin="round"/>
    <path d="M 106.88539123535156 124.7295913696289 C 70.94269561767578 124.41710662841797 267.9593200683594 169.79574584960938 80.14659118652344 134.4256134033203" stroke-width="2" fill="none" stroke="rgb(0, 0, 0)" stroke-opacity="1.0" stroke-linecap="round" stroke-linejoin="round"/>
    <path d="M 108.89387512207031 103.7872085571289 C 84.7768325805664 99.61797332763672 112.8790283203125 98.60051727294922 85.74788665771484 104.80261993408203" stroke-width="2" fill="none" stroke="rgb(0, 0, 0)" stroke-opacity="1.0" stroke-linecap="round" stroke-linejoin="round"/>
    <path d="M 107.61905670166016 115.27228546142578 C 71.25827026367188 2.5429813861846924 135.60287475585938 118.76705169677734 107.76319885253906 95.12096405029297" stroke-width="2" fill="none" stroke="rgb(0, 0, 0)" stroke-opacity="1.0" stroke-linecap="round" stroke-linejoin="round"/>
    <path d="M 60.028160095214844 146.4137725830078 C 33.74291229248047 116.07334899902344 9.42692756652832 156.98353576660156 101.9322280883789 148.7805633544922" stroke-width="2" fill="none" stroke="rgb(0, 0, 0)" stroke-opacity="1.0" stroke-linecap="round" stroke-linejoin="round"/>
    <path d="M 113.72183990478516 114.72062683105469 C 148.493408203125 98.26687622070312 71.37884521484375 119.31648254394531 132.2294158935547 130.3941192626953" stroke-width="2" fill="none" stroke="rgb(0, 0, 0)" stroke-opacity="1.0" stroke-linecap="round" stroke-linejoin="round"/>
    <path d="M 135.19874572753906 111.75369262695312 C 182.04006958007812 134.6846923828125 128.60028076171875 129.756591796875 160.26219177246094 124.9992446899414" stroke-width="2" fill="none" stroke="rgb(0, 0, 0)" stroke-opacity="1.0" stroke-linecap="round" stroke-linejoin="round"/>
    <path d="M 167.89105224609375 87.3253173828125 C 205.85662841796875 3.6931803226470947 153.27304077148438 126.43354034423828 105.1302719116211 74.31718444824219" stroke-width="2" fill="none" stroke="rgb(0, 0, 0)" stroke-opacity="1.0" stroke-linecap="round" stroke-linejoin="round"/>
    <path d="M 175.4359130859375 105.55564880371094 C 145.477294921875 136.1044158935547 249.0589141845703 179.72389221191406 47.88119888305664 149.40896606445312" stroke-width="2" fill="none" stroke="rgb(0, 0, 0)" stroke-opacity="1.0" stroke-linecap="round" stroke-linejoin="round"/>
    <path d="M 90.03474426269531 103.80079650878906 C 37.058921813964844 79.86809539794922 10.340712547302246 152.38311767578125 72.14459228515625 152.431884765625" stroke-width="2" fill="none" stroke="rgb(0, 0, 0)" stroke-opacity="1.0" stroke-linecap="round" stroke-linejoin="round"/>
    <path d="M 163.61473083496094 157.57167053222656 C 156.3231201171875 131.0748748779297 134.96192932128906 157.36053466796875 97.10449981689453 137.495361328125" stroke-width="2" fill="none" stroke="rgb(0, 0, 0)" stroke-opacity="1.0" stroke-linecap="round" stroke-linejoin="round"/>
    <path d="M 156.18740844726562 104.4181137084961 C 169.90956115722656 147.14625549316406 211.34408569335938 5.454258441925049 160.30809020996094 81.19955444335938" stroke-width="2" fill="none" stroke="rgb(0, 0, 0)" stroke-opacity="1.0" stroke-linecap="round" stroke-linejoin="round"/>
    <path d="M 132.16387939453125 122.70175170898438 C 38.60740661621094 132.93028259277344 105.31855010986328 126.42434692382812 81.43826293945312 139.1951141357422" stroke-width="2" fill="none" stroke="rgb(0, 0, 0)" stroke-opacity="1.0" stroke-linecap="round" stroke-linejoin="round"/>
  </g>
</svg>
