<?xml version="1.0" ?>
<svg xmlns="http://www.w3.org/2000/svg" version="1.1" width="224" height="224">
  <defs/>
  <g>
    <path d="M 106.52547454833984 153.68983459472656 C 162.24314880371094 162.55226135253906 208.49107360839844 144.26976013183594 127.77922058105469 135.96310424804688" stroke-width="2" fill="none" stroke="rgb(0, 0, 0)" stroke-opacity="1.0" stroke-linecap="round" stroke-linejoin="round"/>
    <path d="M 102.01666259765625 113.91119384765625 C 100.19515228271484 99.2413330078125 118.02542114257812 94.86125946044922 72.33209991455078 98.25239562988281" stroke-width="2" fill="none" stroke="rgb(0, 0, 0)" stroke-opacity="1.0" stroke-linecap="round" stroke-linejoin="round"/>
    <path d="M 150.84307861328125 143.58702087402344 C 91.30567932128906 145.54302978515625 127.55375671386719 66.26616668701172 159.37774658203125 94.5927734375" stroke-width="2" fill="none" stroke="rgb(0, 0, 0)" stroke-opacity="1.0" stroke-linecap="round" stroke-linejoin="round"/>
    <path d="M 175.8772735595703 106.61151885986328 C 143.67514038085938 96.07815551757812 224.72023010253906 133.56935119628906 124.1198959350586 111.17869567871094" stroke-width="2" fill="none" stroke="rgb(0, 0, 0)" stroke-opacity="1.0" stroke-linecap="round" stroke-linejoin="round"/>
    <path d="M 80.74601745605469 122.70684051513672 C 19.351022720336914 107.92005920410156 252.7548828125 180.5139923095703 47.8865852355957 146.5438995361328" stroke-width="2" fill="none" stroke="rgb(0, 0, 0)" stroke-opacity="1.0" stroke-linecap="round" stroke-linejoin="round"/>
    <path d="M 57.70125961303711 103.3242416381836 C 58.66395950317383 122.38499450683594 42.748817443847656 106.1317138671875 53.91290283203125 120.55288696289062" stroke-width="2" fill="none" stroke="rgb(0, 0, 0)" stroke-opacity="1.0" stroke-linecap="round" stroke-linejoin="round"/>
    <path d="M 112.0029525756836 114.1011962890625 C 70.92789459228516 14.679391860961914 147.8197479248047 123.2101058959961 123.4651870727539 93.11698913574219" stroke-width="2" fill="none" stroke="rgb(0, 0, 0)" stroke-opacity="1.0" stroke-linecap="round" stroke-linejoin="round"/>
    <path d="M 57.99119567871094 146.84475708007812 C 33.148826599121094 130.71592712402344 43.53610610961914 154.37705993652344 109.07147216796875 154.0861358642578" stroke-width="2" fill="none" stroke="rgb(0, 0, 0)" stroke-opacity="1.0" stroke-linecap="round" stroke-linejoin="round"/>
    <path d="M 143.1310272216797 124.14942169189453 C 182.19888305664062 124.80879211425781 129.12217712402344 108.00675964355469 155.40162658691406 124.16827392578125" stroke-width="2" fill="none" stroke="rgb(0, 0, 0)" stroke-opacity="1.0" stroke-linecap="round" stroke-linejoin="round"/>
    <path d="M 86.41175842285156 133.5741729736328 C 242.36216735839844 140.86265563964844 122.44021606445312 143.49627685546875 172.54684448242188 141.6996307373047" stroke-width="2" fill="none" stroke="rgb(0, 0, 0)" stroke-opacity="1.0" stroke-linecap="round" stroke-linejoin="round"/>
    <path d="M 159.36483764648438 90.637451171875 C 198.29269409179688 1.2102471590042114 164.86912536621094 113.4810791015625 105.2276611328125 75.66926574707031" stroke-width="2" fill="none" stroke="rgb(0, 0, 0)" stroke-opacity="1.0" stroke-linecap="round" stroke-linejoin="round"/>
    <path d="M 177.2084503173828 106.79000091552734 C 160.75509643554688 147.7969207763672 232.54144287109375 164.55978393554688 75.54637145996094 141.4138946533203" stroke-width="2" fill="none" stroke="rgb(0, 0, 0)" stroke-opacity="1.0" stroke-linecap="round" stroke-linejoin="round"/>
    <path d="M 81.88861846923828 106.20032501220703 C 44.021305084228516 64.98725128173828 8.852054595947266 160.56784057617188 74.13996124267578 145.33859252929688" stroke-width="2" fill="none" stroke="rgb(0, 0, 0)" stroke-opacity="1.0" stroke-linecap="round" stroke-linejoin="round"/>
    <path d="M 169.35304260253906 115.55299377441406 C 165.1572723388672 125.62150573730469 168.47732543945312 137.1730194091797 149.44970703125 128.31842041015625" stroke-width="2" fill="none" stroke="rgb(0, 0, 0)" stroke-opacity="1.0" stroke-linecap="round" stroke-linejoin="round"/>
    <path d="M 154.78115844726562 113.05116271972656 C 203.96206665039062 150.10340881347656 192.77630615234375 -12.778349876403809 167.88169860839844 93.88230895996094" stroke-width="2" fill="none" stroke="rgb(0, 0, 0)" stroke-opacity="1.0" stroke-linecap="round" stroke-linejoin="round"/>
    <path d="M 148.4043731689453 137.0836181640625 C 39.33869552612305 115.69230651855469 194.96067810058594 89.67736053466797 128.90744018554688 115.12488555908203" stroke-width="2" fill="none" stroke="rgb(0, 0, 0)" stroke-opacity="1.0" stroke-linecap="round" stroke-linejoin="round"/>
  </g>
</svg>
