<?xml version="1.0" ?>
<svg xmlns="http://www.w3.org/2000/svg" version="1.1" width="224" height="224">
  <defs/>
  <g>
    <path d="M 107.09422302246094 128.19190979003906 C 105.59842681884766 114.11348724365234 117.6535415649414 143.9490966796875 114.05091857910156 117.40372467041016" stroke-width="2" fill="none" stroke="rgb(0, 0, 0)" stroke-opacity="1.0" stroke-linecap="round" stroke-linejoin="round"/>
    <path d="M 115.59721374511719 133.68788146972656 C 138.22659301757812 140.6726531982422 197.56796264648438 144.7526092529297 123.67192077636719 138.22645568847656" stroke-width="2" fill="none" stroke="rgb(0, 0, 0)" stroke-opacity="1.0" stroke-linecap="round" stroke-linejoin="round"/>
    <path d="M 149.9866485595703 123.5423355102539 C 124.03828430175781 156.1969757080078 116.39806365966797 118.55901336669922 95.21151733398438 123.7304916381836" stroke-width="2" fill="none" stroke="rgb(0, 0, 0)" stroke-opacity="1.0" stroke-linecap="round" stroke-linejoin="round"/>
    <path d="M 147.872802734375 123.80823516845703 C 87.27790832519531 117.1360092163086 174.227783203125 140.09384155273438 147.65023803710938 133.81008911132812" stroke-width="2" fill="none" stroke="rgb(0, 0, 0)" stroke-opacity="1.0" stroke-linecap="round" stroke-linejoin="round"/>
    <path d="M 110.7479248046875 116.01512908935547 C 123.8515396118164 100.71198272705078 126.54874420166016 110.78587341308594 109.59883880615234 104.34852600097656" stroke-width="2" fill="none" stroke="rgb(0, 0, 0)" stroke-opacity="1.0" stroke-linecap="round" stroke-linejoin="round"/>
    <path d="M 113.5534439086914 111.50393676757812 C 119.66075897216797 101.78925323486328 113.22792053222656 107.66041564941406 106.6968994140625 105.2427749633789" stroke-width="2" fill="none" stroke="rgb(0, 0, 0)" stroke-opacity="1.0" stroke-linecap="round" stroke-linejoin="round"/>
    <path d="M 97.02494812011719 67.3685531616211 C 128.55075073242188 75.89286041259766 115.1742172241211 93.1114273071289 156.2073211669922 80.23100280761719" stroke-width="2" fill="none" stroke="rgb(0, 0, 0)" stroke-opacity="1.0" stroke-linecap="round" stroke-linejoin="round"/>
    <path d="M 113.74702453613281 153.7749481201172 C 100.96064758300781 157.79824829101562 12.238232612609863 157.4974822998047 61.87527084350586 113.2472152709961" stroke-width="2" fill="none" stroke="rgb(0, 0, 0)" stroke-opacity="1.0" stroke-linecap="round" stroke-linejoin="round"/>
    <path d="M 127.85485076904297 125.16759490966797 C 165.8760986328125 125.54032135009766 109.01251983642578 102.85785675048828 141.568115234375 123.55001831054688" stroke-width="2" fill="none" stroke="rgb(0, 0, 0)" stroke-opacity="1.0" stroke-linecap="round" stroke-linejoin="round"/>
    <path d="M 85.40354919433594 121.00535583496094 C 104.29171752929688 124.58039855957031 99.09288787841797 101.61344909667969 119.94312286376953 141.366455078125" stroke-width="2" fill="none" stroke="rgb(0, 0, 0)" stroke-opacity="1.0" stroke-linecap="round" stroke-linejoin="round"/>
    <path d="M 155.5463409423828 84.5371322631836 C 197.01565551757812 26.169424057006836 186.50987243652344 77.4176025390625 160.45289611816406 120.05965423583984" stroke-width="2" fill="none" stroke="rgb(0, 0, 0)" stroke-opacity="1.0" stroke-linecap="round" stroke-linejoin="round"/>
    <path d="M 155.95864868164062 119.24010467529297 C 181.16697692871094 170.5964813232422 141.2299346923828 153.66978454589844 111.39942932128906 155.786865234375" stroke-width="2" fill="none" stroke="rgb(0, 0, 0)" stroke-opacity="1.0" stroke-linecap="round" stroke-linejoin="round"/>
    <path d="M 49.20671081542969 144.3277587890625 C 96.76478576660156 141.9037322998047 53.920475006103516 153.79815673828125 102.93817901611328 154.64244079589844" stroke-width="2" fill="none" stroke="rgb(0, 0, 0)" stroke-opacity="1.0" stroke-linecap="round" stroke-linejoin="round"/>
    <path d="M 97.53237915039062 101.87837219238281 C 87.74911499023438 52.27745056152344 90.46475219726562 56.197975158691406 112.30323791503906 103.1518325805664" stroke-width="2" fill="none" stroke="rgb(0, 0, 0)" stroke-opacity="1.0" stroke-linecap="round" stroke-linejoin="round"/>
    <path d="M 165.8197479248047 119.45549774169922 C 145.84255981445312 141.4720001220703 174.102783203125 102.32695770263672 154.4363250732422 111.67053985595703" stroke-width="2" fill="none" stroke="rgb(0, 0, 0)" stroke-opacity="1.0" stroke-linecap="round" stroke-linejoin="round"/>
    <path d="M 59.54442596435547 114.1353759765625 C 56.94620895385742 99.77027893066406 106.43958282470703 118.53337097167969 78.74610900878906 109.92817687988281" stroke-width="2" fill="none" stroke="rgb(0, 0, 0)" stroke-opacity="1.0" stroke-linecap="round" stroke-linejoin="round"/>
  </g>
</svg>
