<?xml version="1.0" ?>
<svg xmlns="http://www.w3.org/2000/svg" version="1.1" width="224" height="224">
  <defs/>
  <g>
    <path d="M 136.24253845214844 98.62967681884766 C 51.82660675048828 138.63804626464844 205.83396911621094 156.75640869140625 100.0810546875 124.3800277709961" stroke-width="2" fill="none" stroke="rgb(0, 0, 0)" stroke-opacity="1.0" stroke-linecap="round" stroke-linejoin="round"/>
    <path d="M 117.2907943725586 136.9822235107422 C 65.58025360107422 135.65277099609375 103.9170150756836 114.27163696289062 75.9378433227539 114.11846160888672" stroke-width="2" fill="none" stroke="rgb(0, 0, 0)" stroke-opacity="1.0" stroke-linecap="round" stroke-linejoin="round"/>
    <path d="M 170.0068359375 79.6940689086914 C 166.86244201660156 136.6799774169922 124.32815551757812 88.24832916259766 164.9155731201172 101.2247085571289" stroke-width="2" fill="none" stroke="rgb(0, 0, 0)" stroke-opacity="1.0" stroke-linecap="round" stroke-linejoin="round"/>
    <path d="M 163.55911254882812 119.42425537109375 C 131.90232849121094 133.3726043701172 175.9593048095703 138.5697784423828 136.9483642578125 120.80631256103516" stroke-width="2" fill="none" stroke="rgb(0, 0, 0)" stroke-opacity="1.0" stroke-linecap="round" stroke-linejoin="round"/>
    <path d="M 167.02427673339844 106.77651977539062 C 106.94284057617188 63.91041564941406 232.1036834716797 169.79055786132812 81.97354125976562 125.35768127441406" stroke-width="2" fill="none" stroke="rgb(0, 0, 0)" stroke-opacity="1.0" stroke-linecap="round" stroke-linejoin="round"/>
    <path d="M 162.42295837402344 126.23206329345703 C 92.30650329589844 126.20718383789062 175.60189819335938 116.13497924804688 134.04000854492188 125.29634094238281" stroke-width="2" fill="none" stroke="rgb(0, 0, 0)" stroke-opacity="1.0" stroke-linecap="round" stroke-linejoin="round"/>
    <path d="M 104.40260314941406 111.27200317382812 C 75.2275619506836 3.4580612182617188 137.0135040283203 148.7484588623047 169.64456176757812 82.4400863647461" stroke-width="2" fill="none" stroke="rgb(0, 0, 0)" stroke-opacity="1.0" stroke-linecap="round" stroke-linejoin="round"/>
    <path d="M 66.9261474609375 105.73422241210938 C 66.2657241821289 118.03482818603516 41.53359603881836 100.91864776611328 48.342185974121094 126.7523193359375" stroke-width="2" fill="none" stroke="rgb(0, 0, 0)" stroke-opacity="1.0" stroke-linecap="round" stroke-linejoin="round"/>
    <path d="M 95.00250244140625 156.9570770263672 C 254.9792022705078 153.87130737304688 23.259126663208008 136.16917419433594 128.03326416015625 130.2280731201172" stroke-width="2" fill="none" stroke="rgb(0, 0, 0)" stroke-opacity="1.0" stroke-linecap="round" stroke-linejoin="round"/>
    <path d="M 139.683837890625 156.64569091796875 C 71.24931335449219 159.87850952148438 120.83876037597656 115.50286102294922 106.33577728271484 132.2937469482422" stroke-width="2" fill="none" stroke="rgb(0, 0, 0)" stroke-opacity="1.0" stroke-linecap="round" stroke-linejoin="round"/>
    <path d="M 170.5355682373047 91.29489135742188 C 201.07034301757812 6.991262435913086 161.5138397216797 101.2300033569336 132.25794982910156 90.5997085571289" stroke-width="2" fill="none" stroke="rgb(0, 0, 0)" stroke-opacity="1.0" stroke-linecap="round" stroke-linejoin="round"/>
    <path d="M 178.0651397705078 103.88793182373047 C 141.44149780273438 141.00506591796875 232.1486053466797 170.52793884277344 82.67079162597656 146.47511291503906" stroke-width="2" fill="none" stroke="rgb(0, 0, 0)" stroke-opacity="1.0" stroke-linecap="round" stroke-linejoin="round"/>
    <path d="M 89.62916564941406 96.32080078125 C 45.16050338745117 87.25879669189453 2.1218864917755127 165.5207061767578 95.37934875488281 153.54002380371094" stroke-width="2" fill="none" stroke="rgb(0, 0, 0)" stroke-opacity="1.0" stroke-linecap="round" stroke-linejoin="round"/>
    <path d="M 108.41683959960938 99.14519500732422 C 135.04000854492188 98.56422424316406 117.30853271484375 111.2497329711914 102.37149810791016 75.18831634521484" stroke-width="2" fill="none" stroke="rgb(0, 0, 0)" stroke-opacity="1.0" stroke-linecap="round" stroke-linejoin="round"/>
    <path d="M 170.20608520507812 110.67349243164062 C 183.02198791503906 112.8631362915039 187.00344848632812 11.714361190795898 181.41184997558594 88.2456283569336" stroke-width="2" fill="none" stroke="rgb(0, 0, 0)" stroke-opacity="1.0" stroke-linecap="round" stroke-linejoin="round"/>
    <path d="M 127.16665649414062 127.19009399414062 C 85.58628845214844 105.11856079101562 167.2403564453125 153.2642059326172 113.52236938476562 128.89169311523438" stroke-width="2" fill="none" stroke="rgb(0, 0, 0)" stroke-opacity="1.0" stroke-linecap="round" stroke-linejoin="round"/>
  </g>
</svg>
