<?xml version="1.0" ?>
<svg xmlns="http://www.w3.org/2000/svg" version="1.1" width="224" height="224">
  <defs/>
  <g>
    <path d="M 130.4808349609375 117.75077819824219 C 99.47981262207031 130.40985107421875 207.94970703125 137.53579711914062 141.85397338867188 127.48783874511719" stroke-width="2" fill="none" stroke="rgb(0, 0, 0)" stroke-opacity="1.0" stroke-linecap="round" stroke-linejoin="round"/>
    <path d="M 125.86468505859375 135.19622802734375 C 92.43701934814453 95.63854217529297 155.04458618164062 151.4230194091797 154.27529907226562 129.40895080566406" stroke-width="2" fill="none" stroke="rgb(0, 0, 0)" stroke-opacity="1.0" stroke-linecap="round" stroke-linejoin="round"/>
    <path d="M 179.60830688476562 97.13629913330078 C 178.28421020507812 142.5174102783203 132.82949829101562 86.29546356201172 167.702880859375 107.25979614257812" stroke-width="2" fill="none" stroke="rgb(0, 0, 0)" stroke-opacity="1.0" stroke-linecap="round" stroke-linejoin="round"/>
    <path d="M 172.151123046875 124.3557357788086 C 166.2130889892578 99.5184555053711 186.7162628173828 147.47891235351562 142.61151123046875 131.0951385498047" stroke-width="2" fill="none" stroke="rgb(0, 0, 0)" stroke-opacity="1.0" stroke-linecap="round" stroke-linejoin="round"/>
    <path d="M 167.02198791503906 119.00221252441406 C 110.24154663085938 82.7532730102539 266.2523193359375 196.33531188964844 93.58651733398438 142.84097290039062" stroke-width="2" fill="none" stroke="rgb(0, 0, 0)" stroke-opacity="1.0" stroke-linecap="round" stroke-linejoin="round"/>
    <path d="M 159.77682495117188 120.43601989746094 C 126.55342102050781 112.4919204711914 142.3222198486328 136.13693237304688 158.5807647705078 114.39590454101562" stroke-width="2" fill="none" stroke="rgb(0, 0, 0)" stroke-opacity="1.0" stroke-linecap="round" stroke-linejoin="round"/>
    <path d="M 98.28494262695312 79.06771850585938 C 111.17094421386719 49.72450637817383 159.25303649902344 155.5199737548828 185.5130615234375 73.71564483642578" stroke-width="2" fill="none" stroke="rgb(0, 0, 0)" stroke-opacity="1.0" stroke-linecap="round" stroke-linejoin="round"/>
    <path d="M 87.3474349975586 126.22032165527344 C 146.92616271972656 131.5457763671875 21.795124053955078 86.70210266113281 51.940547943115234 122.88617706298828" stroke-width="2" fill="none" stroke="rgb(0, 0, 0)" stroke-opacity="1.0" stroke-linecap="round" stroke-linejoin="round"/>
    <path d="M 143.26226806640625 117.41852569580078 C 177.83787536621094 132.9615936279297 79.41761016845703 125.3968276977539 127.85820007324219 148.4009246826172" stroke-width="2" fill="none" stroke="rgb(0, 0, 0)" stroke-opacity="1.0" stroke-linecap="round" stroke-linejoin="round"/>
    <path d="M 130.54229736328125 98.91822814941406 C 81.8956527709961 120.848388671875 157.03977966308594 126.23751831054688 123.78799438476562 117.74748229980469" stroke-width="2" fill="none" stroke="rgb(0, 0, 0)" stroke-opacity="1.0" stroke-linecap="round" stroke-linejoin="round"/>
    <path d="M 170.01174926757812 93.27752685546875 C 206.4496612548828 18.170841217041016 175.57090759277344 114.1031723022461 117.72209930419922 90.57090759277344" stroke-width="2" fill="none" stroke="rgb(0, 0, 0)" stroke-opacity="1.0" stroke-linecap="round" stroke-linejoin="round"/>
    <path d="M 176.05284118652344 108.13949584960938 C 150.44424438476562 150.34410095214844 221.13291931152344 184.95875549316406 45.98810958862305 148.33929443359375" stroke-width="2" fill="none" stroke="rgb(0, 0, 0)" stroke-opacity="1.0" stroke-linecap="round" stroke-linejoin="round"/>
    <path d="M 81.41947937011719 93.9646987915039 C 54.528873443603516 89.83749389648438 -2.051447629928589 158.03231811523438 85.13078308105469 155.80953979492188" stroke-width="2" fill="none" stroke="rgb(0, 0, 0)" stroke-opacity="1.0" stroke-linecap="round" stroke-linejoin="round"/>
    <path d="M 100.7792739868164 108.6214828491211 C 117.06971740722656 128.04161071777344 124.71543884277344 177.6078338623047 112.00003051757812 89.18009185791016" stroke-width="2" fill="none" stroke="rgb(0, 0, 0)" stroke-opacity="1.0" stroke-linecap="round" stroke-linejoin="round"/>
    <path d="M 178.17422485351562 93.2614517211914 C 171.03289794921875 121.057373046875 213.6123809814453 15.939559936523438 149.0452880859375 93.07897186279297" stroke-width="2" fill="none" stroke="rgb(0, 0, 0)" stroke-opacity="1.0" stroke-linecap="round" stroke-linejoin="round"/>
    <path d="M 110.9219741821289 138.2698974609375 C 86.86214447021484 121.14008331298828 138.19505310058594 105.91704559326172 61.986473083496094 112.60884857177734" stroke-width="2" fill="none" stroke="rgb(0, 0, 0)" stroke-opacity="1.0" stroke-linecap="round" stroke-linejoin="round"/>
  </g>
</svg>
