<?xml version="1.0" ?>
<svg xmlns="http://www.w3.org/2000/svg" version="1.1" width="224" height="224">
  <defs/>
  <g>
    <path d="M 105.06608581542969 115.27967071533203 C 69.83531188964844 115.20258331298828 169.01052856445312 121.31497955322266 118.66646575927734 128.29420471191406" stroke-width="2" fill="none" stroke="rgb(0, 0, 0)" stroke-opacity="1.0" stroke-linecap="round" stroke-linejoin="round"/>
    <path d="M 118.2369155883789 157.3315887451172 C 28.773719787597656 132.27708435058594 184.24586486816406 156.7315673828125 134.59762573242188 146.0240478515625" stroke-width="2" fill="none" stroke="rgb(0, 0, 0)" stroke-opacity="1.0" stroke-linecap="round" stroke-linejoin="round"/>
    <path d="M 146.06521606445312 147.58238220214844 C 130.37615966796875 137.6966552734375 83.89363861083984 140.53939819335938 152.9604949951172 139.89535522460938" stroke-width="2" fill="none" stroke="rgb(0, 0, 0)" stroke-opacity="1.0" stroke-linecap="round" stroke-linejoin="round"/>
    <path d="M 153.32614135742188 140.45751953125 C 99.98454284667969 160.18853759765625 192.8578643798828 153.18968200683594 117.17670440673828 155.52694702148438" stroke-width="2" fill="none" stroke="rgb(0, 0, 0)" stroke-opacity="1.0" stroke-linecap="round" stroke-linejoin="round"/>
    <path d="M 122.29170227050781 112.41568756103516 C 57.14472961425781 155.73765563964844 185.56134033203125 148.7327880859375 128.414306640625 134.67108154296875" stroke-width="2" fill="none" stroke="rgb(0, 0, 0)" stroke-opacity="1.0" stroke-linecap="round" stroke-linejoin="round"/>
    <path d="M 135.39694213867188 121.77143096923828 C 114.35462188720703 110.4176254272461 115.33444213867188 131.52914428710938 134.29071044921875 118.70987701416016" stroke-width="2" fill="none" stroke="rgb(0, 0, 0)" stroke-opacity="1.0" stroke-linecap="round" stroke-linejoin="round"/>
    <path d="M 90.24284362792969 65.49759674072266 C 133.91189575195312 53.92923355102539 115.997314453125 116.55341339111328 173.50660705566406 52.640899658203125" stroke-width="2" fill="none" stroke="rgb(0, 0, 0)" stroke-opacity="1.0" stroke-linecap="round" stroke-linejoin="round"/>
    <path d="M 74.88371276855469 152.69183349609375 C 73.04833984375 142.2130126953125 6.190257549285889 157.34429931640625 56.05945587158203 105.03353881835938" stroke-width="2" fill="none" stroke="rgb(0, 0, 0)" stroke-opacity="1.0" stroke-linecap="round" stroke-linejoin="round"/>
    <path d="M 148.1853790283203 109.62242889404297 C 201.7698211669922 126.677978515625 128.52767944335938 113.98196411132812 154.26065063476562 125.92406463623047" stroke-width="2" fill="none" stroke="rgb(0, 0, 0)" stroke-opacity="1.0" stroke-linecap="round" stroke-linejoin="round"/>
    <path d="M 41.3812370300293 132.77392578125 C 82.19414520263672 142.30279541015625 71.03839111328125 145.3876190185547 97.23894500732422 145.90940856933594" stroke-width="2" fill="none" stroke="rgb(0, 0, 0)" stroke-opacity="1.0" stroke-linecap="round" stroke-linejoin="round"/>
    <path d="M 155.97943115234375 89.02690887451172 C 191.8292694091797 9.377948760986328 179.3165740966797 132.833984375 144.45755004882812 119.80854034423828" stroke-width="2" fill="none" stroke="rgb(0, 0, 0)" stroke-opacity="1.0" stroke-linecap="round" stroke-linejoin="round"/>
    <path d="M 159.4636993408203 117.0887222290039 C 181.8720245361328 168.2548065185547 164.4034423828125 164.5213165283203 73.88199615478516 154.3551025390625" stroke-width="2" fill="none" stroke="rgb(0, 0, 0)" stroke-opacity="1.0" stroke-linecap="round" stroke-linejoin="round"/>
    <path d="M 66.48495483398438 131.98239135742188 C 85.75161743164062 131.43243408203125 23.43605613708496 116.53303527832031 91.59642791748047 147.80029296875" stroke-width="2" fill="none" stroke="rgb(0, 0, 0)" stroke-opacity="1.0" stroke-linecap="round" stroke-linejoin="round"/>
    <path d="M 100.129638671875 131.79183959960938 C 72.02713775634766 89.74116516113281 83.05264282226562 73.45707702636719 79.88616943359375 119.57479095458984" stroke-width="2" fill="none" stroke="rgb(0, 0, 0)" stroke-opacity="1.0" stroke-linecap="round" stroke-linejoin="round"/>
    <path d="M 154.6517333984375 142.2924346923828 C 173.96865844726562 124.59052276611328 210.703125 -7.7186408042907715 159.81495666503906 84.65428924560547" stroke-width="2" fill="none" stroke="rgb(0, 0, 0)" stroke-opacity="1.0" stroke-linecap="round" stroke-linejoin="round"/>
    <path d="M 48.34291076660156 124.17123413085938 C 30.216636657714844 85.47885131835938 133.902587890625 73.51793670654297 103.73506164550781 120.70745086669922" stroke-width="2" fill="none" stroke="rgb(0, 0, 0)" stroke-opacity="1.0" stroke-linecap="round" stroke-linejoin="round"/>
  </g>
</svg>
