<?xml version="1.0" ?>
<svg xmlns="http://www.w3.org/2000/svg" version="1.1" width="224" height="224">
  <defs/>
  <g>
    <path d="M 145.06106567382812 141.6413116455078 C 119.09527587890625 143.56565856933594 228.90789794921875 148.877685546875 117.29683685302734 118.43975830078125" stroke-width="2" fill="none" stroke="rgb(0, 0, 0)" stroke-opacity="1.0" stroke-linecap="round" stroke-linejoin="round"/>
    <path d="M 156.7550506591797 138.6361083984375 C 60.38713836669922 86.37496185302734 110.94633483886719 100.74317932128906 100.12911987304688 131.31028747558594" stroke-width="2" fill="none" stroke="rgb(0, 0, 0)" stroke-opacity="1.0" stroke-linecap="round" stroke-linejoin="round"/>
    <path d="M 131.01121520996094 116.2375259399414 C 106.81048583984375 146.83241271972656 94.2071762084961 73.7392578125 164.5189971923828 95.62037658691406" stroke-width="2" fill="none" stroke="rgb(0, 0, 0)" stroke-opacity="1.0" stroke-linecap="round" stroke-linejoin="round"/>
    <path d="M 149.82437133789062 124.78865814208984 C 100.78252410888672 88.67752075195312 204.2704315185547 126.8818588256836 114.5792007446289 124.07975769042969" stroke-width="2" fill="none" stroke="rgb(0, 0, 0)" stroke-opacity="1.0" stroke-linecap="round" stroke-linejoin="round"/>
    <path d="M 132.92494201660156 136.87506103515625 C 45.49040985107422 138.3135223388672 228.87057495117188 168.15037536621094 77.30730438232422 143.36740112304688" stroke-width="2" fill="none" stroke="rgb(0, 0, 0)" stroke-opacity="1.0" stroke-linecap="round" stroke-linejoin="round"/>
    <path d="M 82.00421905517578 109.82282257080078 C 43.393943786621094 118.71717834472656 87.792724609375 102.14009094238281 86.75206756591797 125.37445831298828" stroke-width="2" fill="none" stroke="rgb(0, 0, 0)" stroke-opacity="1.0" stroke-linecap="round" stroke-linejoin="round"/>
    <path d="M 103.57040405273438 109.17977905273438 C 75.22370910644531 7.270787239074707 125.01104736328125 143.18508911132812 173.4390106201172 91.25917053222656" stroke-width="2" fill="none" stroke="rgb(0, 0, 0)" stroke-opacity="1.0" stroke-linecap="round" stroke-linejoin="round"/>
    <path d="M 51.5776252746582 134.19874572753906 C 35.605491638183594 124.49858856201172 25.43320083618164 147.9196319580078 72.63274383544922 159.06295776367188" stroke-width="2" fill="none" stroke="rgb(0, 0, 0)" stroke-opacity="1.0" stroke-linecap="round" stroke-linejoin="round"/>
    <path d="M 112.53623962402344 127.03035736083984 C 189.3374481201172 143.3751220703125 144.4375 111.63052368164062 112.2286605834961 127.40668487548828" stroke-width="2" fill="none" stroke="rgb(0, 0, 0)" stroke-opacity="1.0" stroke-linecap="round" stroke-linejoin="round"/>
    <path d="M 69.15756225585938 146.7242431640625 C 182.3154754638672 171.98048400878906 90.54374694824219 137.0369415283203 78.58787536621094 136.36331176757812" stroke-width="2" fill="none" stroke="rgb(0, 0, 0)" stroke-opacity="1.0" stroke-linecap="round" stroke-linejoin="round"/>
    <path d="M 156.77108764648438 113.95616912841797 C 205.30120849609375 -4.730713844299316 162.67706298828125 97.14009094238281 145.6870574951172 86.25884246826172" stroke-width="2" fill="none" stroke="rgb(0, 0, 0)" stroke-opacity="1.0" stroke-linecap="round" stroke-linejoin="round"/>
    <path d="M 171.14553833007812 112.01587677001953 C 143.77725219726562 136.2705078125 234.62225341796875 185.33746337890625 57.622615814208984 144.60824584960938" stroke-width="2" fill="none" stroke="rgb(0, 0, 0)" stroke-opacity="1.0" stroke-linecap="round" stroke-linejoin="round"/>
    <path d="M 105.61180877685547 98.30366516113281 C 28.391284942626953 79.19792175292969 4.176774501800537 168.03738403320312 107.07754516601562 164.13099670410156" stroke-width="2" fill="none" stroke="rgb(0, 0, 0)" stroke-opacity="1.0" stroke-linecap="round" stroke-linejoin="round"/>
    <path d="M 124.808349609375 129.588623046875 C 177.2662353515625 129.63446044921875 100.38470458984375 136.00735473632812 151.9130859375 117.29972839355469" stroke-width="2" fill="none" stroke="rgb(0, 0, 0)" stroke-opacity="1.0" stroke-linecap="round" stroke-linejoin="round"/>
    <path d="M 157.09310913085938 99.55476379394531 C 174.99261474609375 169.57777404785156 198.5996856689453 6.251316070556641 164.91595458984375 77.26019287109375" stroke-width="2" fill="none" stroke="rgb(0, 0, 0)" stroke-opacity="1.0" stroke-linecap="round" stroke-linejoin="round"/>
    <path d="M 143.18405151367188 113.75448608398438 C 59.753482818603516 117.8548812866211 157.36866760253906 120.7850112915039 125.99694061279297 117.3003921508789" stroke-width="2" fill="none" stroke="rgb(0, 0, 0)" stroke-opacity="1.0" stroke-linecap="round" stroke-linejoin="round"/>
  </g>
</svg>
