<?xml version="1.0" ?>
<svg xmlns="http://www.w3.org/2000/svg" version="1.1" width="224" height="224">
  <defs/>
  <g>
    <path d="M 105.50736999511719 114.79080963134766 C 71.18230438232422 109.13951873779297 161.61769104003906 125.1596908569336 117.61121368408203 129.31407165527344" stroke-width="2" fill="none" stroke="rgb(0, 0, 0)" stroke-opacity="1.0" stroke-linecap="round" stroke-linejoin="round"/>
    <path d="M 118.91556549072266 157.60337829589844 C 32.63802719116211 127.86040496826172 190.16650390625 149.43345642089844 132.7876739501953 147.41598510742188" stroke-width="2" fill="none" stroke="rgb(0, 0, 0)" stroke-opacity="1.0" stroke-linecap="round" stroke-linejoin="round"/>
    <path d="M 139.68650817871094 147.4545135498047 C 132.1688995361328 132.4268341064453 82.15857696533203 144.0120086669922 149.4416046142578 141.27354431152344" stroke-width="2" fill="none" stroke="rgb(0, 0, 0)" stroke-opacity="1.0" stroke-linecap="round" stroke-linejoin="round"/>
    <path d="M 163.62716674804688 130.2861785888672 C 112.19473266601562 164.8900909423828 197.07484436035156 151.7552490234375 117.58480072021484 154.28378295898438" stroke-width="2" fill="none" stroke="rgb(0, 0, 0)" stroke-opacity="1.0" stroke-linecap="round" stroke-linejoin="round"/>
    <path d="M 122.23363494873047 110.82054138183594 C 54.751930236816406 159.206787109375 179.8170166015625 151.28317260742188 134.50323486328125 137.62973022460938" stroke-width="2" fill="none" stroke="rgb(0, 0, 0)" stroke-opacity="1.0" stroke-linecap="round" stroke-linejoin="round"/>
    <path d="M 128.75933837890625 123.0655746459961 C 111.87670135498047 109.32939147949219 112.05117797851562 135.6567840576172 127.03553009033203 116.95555114746094" stroke-width="2" fill="none" stroke="rgb(0, 0, 0)" stroke-opacity="1.0" stroke-linecap="round" stroke-linejoin="round"/>
    <path d="M 95.88217163085938 78.48136901855469 C 126.18085479736328 64.31908416748047 112.25955200195312 124.91364288330078 176.99209594726562 59.1501350402832" stroke-width="2" fill="none" stroke="rgb(0, 0, 0)" stroke-opacity="1.0" stroke-linecap="round" stroke-linejoin="round"/>
    <path d="M 74.13578796386719 143.71934509277344 C 81.3409652709961 141.23370361328125 15.157711029052734 155.38876342773438 54.81832504272461 101.46385955810547" stroke-width="2" fill="none" stroke="rgb(0, 0, 0)" stroke-opacity="1.0" stroke-linecap="round" stroke-linejoin="round"/>
    <path d="M 145.8041534423828 110.79083251953125 C 200.06146240234375 129.51194763183594 119.04444122314453 109.74505615234375 148.1027069091797 128.18014526367188" stroke-width="2" fill="none" stroke="rgb(0, 0, 0)" stroke-opacity="1.0" stroke-linecap="round" stroke-linejoin="round"/>
    <path d="M 46.487815856933594 143.45521545410156 C 86.6871337890625 142.7403564453125 74.28961181640625 141.14064025878906 95.60277557373047 145.19175720214844" stroke-width="2" fill="none" stroke="rgb(0, 0, 0)" stroke-opacity="1.0" stroke-linecap="round" stroke-linejoin="round"/>
    <path d="M 165.10496520996094 98.38825225830078 C 194.83770751953125 9.741094589233398 177.96038818359375 128.0521240234375 149.72010803222656 123.4055404663086" stroke-width="2" fill="none" stroke="rgb(0, 0, 0)" stroke-opacity="1.0" stroke-linecap="round" stroke-linejoin="round"/>
    <path d="M 159.92709350585938 119.07400512695312 C 184.62570190429688 171.38864135742188 164.97569274902344 168.4469451904297 71.94930267333984 154.68670654296875" stroke-width="2" fill="none" stroke="rgb(0, 0, 0)" stroke-opacity="1.0" stroke-linecap="round" stroke-linejoin="round"/>
    <path d="M 62.47217559814453 126.95165252685547 C 85.43189239501953 131.451171875 28.596467971801758 113.92960357666016 95.39656829833984 146.24310302734375" stroke-width="2" fill="none" stroke="rgb(0, 0, 0)" stroke-opacity="1.0" stroke-linecap="round" stroke-linejoin="round"/>
    <path d="M 100.2816390991211 132.5130157470703 C 70.63140869140625 87.80638885498047 79.82987976074219 76.5910873413086 77.26593017578125 121.48644256591797" stroke-width="2" fill="none" stroke="rgb(0, 0, 0)" stroke-opacity="1.0" stroke-linecap="round" stroke-linejoin="round"/>
    <path d="M 162.18255615234375 145.93812561035156 C 172.76927185058594 130.11744689941406 201.81192016601562 0.32123351097106934 155.79779052734375 87.28177642822266" stroke-width="2" fill="none" stroke="rgb(0, 0, 0)" stroke-opacity="1.0" stroke-linecap="round" stroke-linejoin="round"/>
    <path d="M 50.51530838012695 125.42034149169922 C 27.511934280395508 89.3250503540039 128.9574432373047 80.33300018310547 106.5143051147461 122.3693618774414" stroke-width="2" fill="none" stroke="rgb(0, 0, 0)" stroke-opacity="1.0" stroke-linecap="round" stroke-linejoin="round"/>
  </g>
</svg>
