<?xml version="1.0" ?>
<svg xmlns="http://www.w3.org/2000/svg" version="1.1" width="224" height="224">
  <defs/>
  <g>
    <path d="M 99.58180236816406 135.09938049316406 C 68.84275817871094 119.17826080322266 120.12611389160156 145.57821655273438 104.8997573852539 119.55962371826172" stroke-width="2" fill="none" stroke="rgb(0, 0, 0)" stroke-opacity="1.0" stroke-linecap="round" stroke-linejoin="round"/>
    <path d="M 132.7742156982422 133.08534240722656 C 124.98982238769531 141.87188720703125 202.44578552246094 137.72097778320312 132.903076171875 134.8850555419922" stroke-width="2" fill="none" stroke="rgb(0, 0, 0)" stroke-opacity="1.0" stroke-linecap="round" stroke-linejoin="round"/>
    <path d="M 152.2266845703125 127.68954467773438 C 118.61941528320312 169.12063598632812 100.52508544921875 116.36225891113281 91.46099090576172 131.2234649658203" stroke-width="2" fill="none" stroke="rgb(0, 0, 0)" stroke-opacity="1.0" stroke-linecap="round" stroke-linejoin="round"/>
    <path d="M 149.5362548828125 111.72106170654297 C 113.02629089355469 95.48868560791016 234.01687622070312 151.67271423339844 129.7139434814453 142.3767547607422" stroke-width="2" fill="none" stroke="rgb(0, 0, 0)" stroke-opacity="1.0" stroke-linecap="round" stroke-linejoin="round"/>
    <path d="M 119.89754486083984 117.26201629638672 C 97.6820068359375 135.6158447265625 143.0976104736328 124.09733581542969 109.18497467041016 122.20594024658203" stroke-width="2" fill="none" stroke="rgb(0, 0, 0)" stroke-opacity="1.0" stroke-linecap="round" stroke-linejoin="round"/>
    <path d="M 125.45028686523438 122.7183609008789 C 92.08414459228516 117.31085968017578 98.30937957763672 99.87779998779297 116.86930084228516 102.10954284667969" stroke-width="2" fill="none" stroke="rgb(0, 0, 0)" stroke-opacity="1.0" stroke-linecap="round" stroke-linejoin="round"/>
    <path d="M 88.9986343383789 66.8572006225586 C 116.61430358886719 63.54379653930664 114.5165786743164 116.59070587158203 169.3064727783203 89.29568481445312" stroke-width="2" fill="none" stroke="rgb(0, 0, 0)" stroke-opacity="1.0" stroke-linecap="round" stroke-linejoin="round"/>
    <path d="M 109.8782958984375 153.2307586669922 C 98.32817840576172 130.93936157226562 -0.7746757864952087 172.32412719726562 49.39662551879883 111.77674102783203" stroke-width="2" fill="none" stroke="rgb(0, 0, 0)" stroke-opacity="1.0" stroke-linecap="round" stroke-linejoin="round"/>
    <path d="M 133.9171905517578 123.01860046386719 C 184.86239624023438 120.55089569091797 104.17942810058594 116.06047058105469 149.3546600341797 121.65176391601562" stroke-width="2" fill="none" stroke="rgb(0, 0, 0)" stroke-opacity="1.0" stroke-linecap="round" stroke-linejoin="round"/>
    <path d="M 76.11368560791016 131.99661254882812 C 119.19959259033203 133.83187866210938 76.02394104003906 113.90731048583984 119.44747924804688 147.30654907226562" stroke-width="2" fill="none" stroke="rgb(0, 0, 0)" stroke-opacity="1.0" stroke-linecap="round" stroke-linejoin="round"/>
    <path d="M 157.16873168945312 96.6519775390625 C 207.667724609375 27.45393943786621 191.28907775878906 88.68074798583984 171.8968963623047 131.95919799804688" stroke-width="2" fill="none" stroke="rgb(0, 0, 0)" stroke-opacity="1.0" stroke-linecap="round" stroke-linejoin="round"/>
    <path d="M 161.2640838623047 107.01219940185547 C 193.69927978515625 171.01971435546875 166.3110809326172 149.70909118652344 116.28031921386719 151.8506622314453" stroke-width="2" fill="none" stroke="rgb(0, 0, 0)" stroke-opacity="1.0" stroke-linecap="round" stroke-linejoin="round"/>
    <path d="M 82.34970092773438 138.45457458496094 C 70.80089569091797 151.6826629638672 11.803943634033203 142.16268920898438 88.376953125 154.41404724121094" stroke-width="2" fill="none" stroke="rgb(0, 0, 0)" stroke-opacity="1.0" stroke-linecap="round" stroke-linejoin="round"/>
    <path d="M 90.67266082763672 98.90047454833984 C 90.92913055419922 48.421382904052734 77.3239974975586 63.355167388916016 104.60380554199219 104.42231750488281" stroke-width="2" fill="none" stroke="rgb(0, 0, 0)" stroke-opacity="1.0" stroke-linecap="round" stroke-linejoin="round"/>
    <path d="M 179.49832153320312 102.51343536376953 C 144.78663635253906 129.58966064453125 207.84909057617188 64.463134765625 180.39749145507812 69.27310943603516" stroke-width="2" fill="none" stroke="rgb(0, 0, 0)" stroke-opacity="1.0" stroke-linecap="round" stroke-linejoin="round"/>
    <path d="M 49.77943801879883 130.45501708984375 C 32.607303619384766 90.88140869140625 114.52045440673828 110.37481689453125 92.54255676269531 103.6355972290039" stroke-width="2" fill="none" stroke="rgb(0, 0, 0)" stroke-opacity="1.0" stroke-linecap="round" stroke-linejoin="round"/>
  </g>
</svg>
