<?xml version="1.0" ?>
<svg xmlns="http://www.w3.org/2000/svg" version="1.1" width="224" height="224">
  <defs/>
  <g>
    <path d="M 102.86188507080078 128.2166748046875 C 104.16138458251953 110.1682357788086 94.83426666259766 123.30292510986328 87.55103302001953 89.38504028320312" stroke-width="2" fill="none" stroke="rgb(0, 0, 0)" stroke-opacity="1.0" stroke-linecap="round" stroke-linejoin="round"/>
    <path d="M 140.99305725097656 145.27392578125 C 131.4851837158203 142.72686767578125 100.88813018798828 138.89064025878906 119.39263916015625 123.681396484375" stroke-width="2" fill="none" stroke="rgb(0, 0, 0)" stroke-opacity="1.0" stroke-linecap="round" stroke-linejoin="round"/>
    <path d="M 111.03949737548828 131.15463256835938 C 132.70257568359375 134.64358520507812 145.9544677734375 115.71405792236328 110.98800659179688 132.32003784179688" stroke-width="2" fill="none" stroke="rgb(0, 0, 0)" stroke-opacity="1.0" stroke-linecap="round" stroke-linejoin="round"/>
    <path d="M 147.02772521972656 128.46630859375 C 144.29693603515625 140.63243103027344 152.68960571289062 121.76406860351562 157.267578125 130.76406860351562" stroke-width="2" fill="none" stroke="rgb(0, 0, 0)" stroke-opacity="1.0" stroke-linecap="round" stroke-linejoin="round"/>
    <path d="M 115.75904083251953 96.15509033203125 C 126.6002426147461 101.25780487060547 139.12939453125 83.0665283203125 162.84097290039062 108.90029907226562" stroke-width="2" fill="none" stroke="rgb(0, 0, 0)" stroke-opacity="1.0" stroke-linecap="round" stroke-linejoin="round"/>
    <path d="M 111.11882781982422 121.36831665039062 C 134.1474609375 97.59717559814453 126.08734130859375 103.92570495605469 122.60440826416016 108.503173828125" stroke-width="2" fill="none" stroke="rgb(0, 0, 0)" stroke-opacity="1.0" stroke-linecap="round" stroke-linejoin="round"/>
    <path d="M 91.34563446044922 66.56538391113281 C 127.092529296875 88.97394561767578 118.81144714355469 93.05958557128906 144.3936309814453 86.04124450683594" stroke-width="2" fill="none" stroke="rgb(0, 0, 0)" stroke-opacity="1.0" stroke-linecap="round" stroke-linejoin="round"/>
    <path d="M 71.789794921875 141.59555053710938 C 85.97650146484375 152.53048706054688 27.80177879333496 159.087646484375 48.0238151550293 117.27214813232422" stroke-width="2" fill="none" stroke="rgb(0, 0, 0)" stroke-opacity="1.0" stroke-linecap="round" stroke-linejoin="round"/>
    <path d="M 154.49130249023438 117.97977447509766 C 137.6426544189453 120.39412689208984 139.22146606445312 120.62871551513672 160.329833984375 125.43292236328125" stroke-width="2" fill="none" stroke="rgb(0, 0, 0)" stroke-opacity="1.0" stroke-linecap="round" stroke-linejoin="round"/>
    <path d="M 146.7572021484375 143.91929626464844 C 126.99887084960938 131.8673553466797 107.42208099365234 140.20262145996094 112.61182403564453 129.8125457763672" stroke-width="2" fill="none" stroke="rgb(0, 0, 0)" stroke-opacity="1.0" stroke-linecap="round" stroke-linejoin="round"/>
    <path d="M 180.39556884765625 53.59829330444336 C 191.7088623046875 49.26180648803711 189.41163635253906 75.75886535644531 172.2218780517578 119.9405517578125" stroke-width="2" fill="none" stroke="rgb(0, 0, 0)" stroke-opacity="1.0" stroke-linecap="round" stroke-linejoin="round"/>
    <path d="M 171.47605895996094 125.08168029785156 C 177.48077392578125 171.60009765625 176.31195068359375 148.28436279296875 93.53404235839844 148.79876708984375" stroke-width="2" fill="none" stroke="rgb(0, 0, 0)" stroke-opacity="1.0" stroke-linecap="round" stroke-linejoin="round"/>
    <path d="M 59.49269485473633 148.08558654785156 C 85.39112091064453 148.55030822753906 117.05088806152344 168.3201904296875 108.4647216796875 153.2570343017578" stroke-width="2" fill="none" stroke="rgb(0, 0, 0)" stroke-opacity="1.0" stroke-linecap="round" stroke-linejoin="round"/>
    <path d="M 117.9014663696289 97.3990249633789 C 100.1411361694336 69.2436752319336 91.62873840332031 63.97855758666992 104.80006408691406 93.91239929199219" stroke-width="2" fill="none" stroke="rgb(0, 0, 0)" stroke-opacity="1.0" stroke-linecap="round" stroke-linejoin="round"/>
    <path d="M 153.49586486816406 84.09144592285156 C 148.3155059814453 93.76293182373047 154.05479431152344 81.6697769165039 180.86080932617188 54.57683181762695" stroke-width="2" fill="none" stroke="rgb(0, 0, 0)" stroke-opacity="1.0" stroke-linecap="round" stroke-linejoin="round"/>
    <path d="M 80.17969512939453 71.99688720703125 C 70.08308410644531 108.95531463623047 87.36795806884766 92.9951400756836 81.6466293334961 118.22777557373047" stroke-width="2" fill="none" stroke="rgb(0, 0, 0)" stroke-opacity="1.0" stroke-linecap="round" stroke-linejoin="round"/>
  </g>
</svg>
