<?xml version="1.0" ?>
<svg xmlns="http://www.w3.org/2000/svg" version="1.1" width="224" height="224">
  <defs/>
  <g>
    <path d="M 159.11996459960938 137.89886474609375 C 104.82259368896484 121.21524810791016 235.5059051513672 123.86248779296875 117.55542755126953 145.39244079589844" stroke-width="2" fill="none" stroke="rgb(0, 0, 0)" stroke-opacity="1.0" stroke-linecap="round" stroke-linejoin="round"/>
    <path d="M 163.47325134277344 137.5770263671875 C 63.0126953125 152.9059295654297 110.4635238647461 131.50634765625 71.01316833496094 132.410400390625" stroke-width="2" fill="none" stroke="rgb(0, 0, 0)" stroke-opacity="1.0" stroke-linecap="round" stroke-linejoin="round"/>
    <path d="M 142.37034606933594 116.36219024658203 C 128.79254150390625 131.0233917236328 84.56737518310547 86.85269165039062 167.29052734375 98.43150329589844" stroke-width="2" fill="none" stroke="rgb(0, 0, 0)" stroke-opacity="1.0" stroke-linecap="round" stroke-linejoin="round"/>
    <path d="M 166.47560119628906 106.0134048461914 C 150.31088256835938 146.52957153320312 173.20849609375 113.55229187011719 148.55894470214844 121.510986328125" stroke-width="2" fill="none" stroke="rgb(0, 0, 0)" stroke-opacity="1.0" stroke-linecap="round" stroke-linejoin="round"/>
    <path d="M 139.9970703125 122.10025024414062 C 119.42752838134766 95.5787582397461 244.13629150390625 161.93145751953125 97.23300170898438 130.53970336914062" stroke-width="2" fill="none" stroke="rgb(0, 0, 0)" stroke-opacity="1.0" stroke-linecap="round" stroke-linejoin="round"/>
    <path d="M 115.76692199707031 100.96900177001953 C 92.02275848388672 126.0986099243164 117.66419982910156 96.41590118408203 113.0855712890625 124.97087097167969" stroke-width="2" fill="none" stroke="rgb(0, 0, 0)" stroke-opacity="1.0" stroke-linecap="round" stroke-linejoin="round"/>
    <path d="M 95.31494903564453 96.2294692993164 C 97.66719818115234 4.261467456817627 131.04307556152344 154.1707305908203 172.5312957763672 73.63509368896484" stroke-width="2" fill="none" stroke="rgb(0, 0, 0)" stroke-opacity="1.0" stroke-linecap="round" stroke-linejoin="round"/>
    <path d="M 53.8797607421875 103.12956237792969 C 27.389142990112305 139.99964904785156 41.865631103515625 142.0602264404297 50.11893081665039 154.22634887695312" stroke-width="2" fill="none" stroke="rgb(0, 0, 0)" stroke-opacity="1.0" stroke-linecap="round" stroke-linejoin="round"/>
    <path d="M 77.57035064697266 138.28469848632812 C 278.6475830078125 175.52804565429688 81.1522445678711 116.74063873291016 128.3457794189453 138.20413208007812" stroke-width="2" fill="none" stroke="rgb(0, 0, 0)" stroke-opacity="1.0" stroke-linecap="round" stroke-linejoin="round"/>
    <path d="M 120.7772445678711 149.2714080810547 C 72.13471221923828 127.3331527709961 93.16613006591797 147.44857788085938 107.56476593017578 136.1987762451172" stroke-width="2" fill="none" stroke="rgb(0, 0, 0)" stroke-opacity="1.0" stroke-linecap="round" stroke-linejoin="round"/>
    <path d="M 182.78182983398438 102.62039184570312 C 200.3282470703125 23.247684478759766 169.2789306640625 76.0998764038086 153.56675720214844 86.70189666748047" stroke-width="2" fill="none" stroke="rgb(0, 0, 0)" stroke-opacity="1.0" stroke-linecap="round" stroke-linejoin="round"/>
    <path d="M 156.6121063232422 113.71748352050781 C 145.537109375 122.33507537841797 266.7490539550781 202.15818786621094 45.680519104003906 140.12322998046875" stroke-width="2" fill="none" stroke="rgb(0, 0, 0)" stroke-opacity="1.0" stroke-linecap="round" stroke-linejoin="round"/>
    <path d="M 99.11881256103516 101.19867706298828 C 29.484600067138672 83.23162078857422 22.494552612304688 155.9638214111328 101.8347396850586 156.4390106201172" stroke-width="2" fill="none" stroke="rgb(0, 0, 0)" stroke-opacity="1.0" stroke-linecap="round" stroke-linejoin="round"/>
    <path d="M 110.75198364257812 117.77774810791016 C 120.41716003417969 73.17574310302734 123.78479766845703 138.3486328125 102.92256927490234 67.13014221191406" stroke-width="2" fill="none" stroke="rgb(0, 0, 0)" stroke-opacity="1.0" stroke-linecap="round" stroke-linejoin="round"/>
    <path d="M 141.86749267578125 102.96529388427734 C 171.10055541992188 136.95721435546875 192.51995849609375 23.33824920654297 173.09408569335938 74.060546875" stroke-width="2" fill="none" stroke="rgb(0, 0, 0)" stroke-opacity="1.0" stroke-linecap="round" stroke-linejoin="round"/>
    <path d="M 165.48544311523438 132.87974548339844 C 143.28224182128906 140.68560791015625 203.90562438964844 126.50189208984375 128.82981872558594 138.8701171875" stroke-width="2" fill="none" stroke="rgb(0, 0, 0)" stroke-opacity="1.0" stroke-linecap="round" stroke-linejoin="round"/>
  </g>
</svg>
