<?xml version="1.0" ?>
<svg xmlns="http://www.w3.org/2000/svg" version="1.1" width="224" height="224">
  <defs/>
  <g>
    <path d="M 132.07513427734375 104.78805541992188 C 76.21320343017578 125.52587127685547 229.2084197998047 153.16502380371094 101.68669128417969 125.82980346679688" stroke-width="2" fill="none" stroke="rgb(0, 0, 0)" stroke-opacity="1.0" stroke-linecap="round" stroke-linejoin="round"/>
    <path d="M 140.11929321289062 125.01783752441406 C 71.47459411621094 140.42575073242188 96.1967544555664 112.66525268554688 76.13581085205078 117.99950408935547" stroke-width="2" fill="none" stroke="rgb(0, 0, 0)" stroke-opacity="1.0" stroke-linecap="round" stroke-linejoin="round"/>
    <path d="M 180.1632843017578 65.72157287597656 C 163.90045166015625 117.11396026611328 119.77604675292969 83.68797302246094 164.43353271484375 101.58468627929688" stroke-width="2" fill="none" stroke="rgb(0, 0, 0)" stroke-opacity="1.0" stroke-linecap="round" stroke-linejoin="round"/>
    <path d="M 163.10385131835938 120.99043273925781 C 143.92160034179688 124.40211486816406 174.55889892578125 130.53408813476562 144.40682983398438 108.96379089355469" stroke-width="2" fill="none" stroke="rgb(0, 0, 0)" stroke-opacity="1.0" stroke-linecap="round" stroke-linejoin="round"/>
    <path d="M 163.56417846679688 109.76167297363281 C 120.67243957519531 48.83549118041992 233.2826690673828 171.5545196533203 69.11381530761719 143.24990844726562" stroke-width="2" fill="none" stroke="rgb(0, 0, 0)" stroke-opacity="1.0" stroke-linecap="round" stroke-linejoin="round"/>
    <path d="M 161.02435302734375 114.0185546875 C 57.98501968383789 103.37214660644531 137.9378204345703 115.18585968017578 115.67891693115234 128.7365264892578" stroke-width="2" fill="none" stroke="rgb(0, 0, 0)" stroke-opacity="1.0" stroke-linecap="round" stroke-linejoin="round"/>
    <path d="M 101.0279769897461 99.46302032470703 C 93.84944915771484 6.026828289031982 119.56729888916016 147.6376495361328 164.383056640625 77.08016967773438" stroke-width="2" fill="none" stroke="rgb(0, 0, 0)" stroke-opacity="1.0" stroke-linecap="round" stroke-linejoin="round"/>
    <path d="M 63.97129440307617 124.15513610839844 C 66.40657806396484 115.71380615234375 42.21839141845703 101.58842468261719 40.97099685668945 123.56952667236328" stroke-width="2" fill="none" stroke="rgb(0, 0, 0)" stroke-opacity="1.0" stroke-linecap="round" stroke-linejoin="round"/>
    <path d="M 100.33875274658203 144.68344116210938 C 265.9830322265625 152.30081176757812 35.78358840942383 128.74481201171875 126.79830169677734 136.40924072265625" stroke-width="2" fill="none" stroke="rgb(0, 0, 0)" stroke-opacity="1.0" stroke-linecap="round" stroke-linejoin="round"/>
    <path d="M 155.9215087890625 146.05369567871094 C 68.98920440673828 136.8528289794922 115.5427017211914 122.46852111816406 97.78590393066406 134.8291778564453" stroke-width="2" fill="none" stroke="rgb(0, 0, 0)" stroke-opacity="1.0" stroke-linecap="round" stroke-linejoin="round"/>
    <path d="M 168.69073486328125 98.11665344238281 C 202.5113983154297 -2.9067890644073486 165.38259887695312 111.694580078125 125.30425262451172 92.99714660644531" stroke-width="2" fill="none" stroke="rgb(0, 0, 0)" stroke-opacity="1.0" stroke-linecap="round" stroke-linejoin="round"/>
    <path d="M 178.65176391601562 108.75672912597656 C 139.56617736816406 126.4417953491211 244.6864471435547 178.24514770507812 83.85906982421875 152.15821838378906" stroke-width="2" fill="none" stroke="rgb(0, 0, 0)" stroke-opacity="1.0" stroke-linecap="round" stroke-linejoin="round"/>
    <path d="M 92.62126922607422 83.57857513427734 C 43.36064147949219 73.78347778320312 13.17674446105957 160.77084350585938 96.45453643798828 155.7897186279297" stroke-width="2" fill="none" stroke="rgb(0, 0, 0)" stroke-opacity="1.0" stroke-linecap="round" stroke-linejoin="round"/>
    <path d="M 89.88712310791016 116.25422668457031 C 114.94979858398438 123.1080551147461 114.39175415039062 105.8026123046875 98.03253173828125 72.1873550415039" stroke-width="2" fill="none" stroke="rgb(0, 0, 0)" stroke-opacity="1.0" stroke-linecap="round" stroke-linejoin="round"/>
    <path d="M 172.74212646484375 115.95640563964844 C 186.30569458007812 100.45481872558594 186.0470733642578 30.782562255859375 172.3210906982422 84.69718933105469" stroke-width="2" fill="none" stroke="rgb(0, 0, 0)" stroke-opacity="1.0" stroke-linecap="round" stroke-linejoin="round"/>
    <path d="M 143.27560424804688 136.10256958007812 C 100.10584259033203 124.74500274658203 188.30589294433594 119.98294830322266 120.44844818115234 137.2061004638672" stroke-width="2" fill="none" stroke="rgb(0, 0, 0)" stroke-opacity="1.0" stroke-linecap="round" stroke-linejoin="round"/>
  </g>
</svg>
