<?xml version="1.0" ?>
<svg xmlns="http://www.w3.org/2000/svg" version="1.1" width="224" height="224">
  <defs/>
  <g>
    <path d="M 101.68565368652344 120.62348937988281 C 63.060001373291016 118.85331726074219 154.85348510742188 125.89611053466797 111.6400375366211 126.097900390625" stroke-width="2" fill="none" stroke="rgb(0, 0, 0)" stroke-opacity="1.0" stroke-linecap="round" stroke-linejoin="round"/>
    <path d="M 120.56716918945312 158.0379180908203 C 34.58475875854492 132.7884521484375 188.4249725341797 159.6024627685547 143.71160888671875 153.3295440673828" stroke-width="2" fill="none" stroke="rgb(0, 0, 0)" stroke-opacity="1.0" stroke-linecap="round" stroke-linejoin="round"/>
    <path d="M 150.86959838867188 144.09396362304688 C 138.062255859375 139.0931854248047 83.55956268310547 148.26329040527344 149.15380859375 145.65423583984375" stroke-width="2" fill="none" stroke="rgb(0, 0, 0)" stroke-opacity="1.0" stroke-linecap="round" stroke-linejoin="round"/>
    <path d="M 164.75823974609375 120.2357177734375 C 130.43789672851562 158.70834350585938 207.42581176757812 146.52536010742188 128.26559448242188 153.8079071044922" stroke-width="2" fill="none" stroke="rgb(0, 0, 0)" stroke-opacity="1.0" stroke-linecap="round" stroke-linejoin="round"/>
    <path d="M 116.50518035888672 118.47811889648438 C 47.2229118347168 162.2073974609375 184.0320281982422 150.83135986328125 126.05387115478516 138.96231079101562" stroke-width="2" fill="none" stroke="rgb(0, 0, 0)" stroke-opacity="1.0" stroke-linecap="round" stroke-linejoin="round"/>
    <path d="M 123.89940643310547 119.78697204589844 C 102.75912475585938 108.46195220947266 110.28893280029297 144.70028686523438 127.05828094482422 124.19332885742188" stroke-width="2" fill="none" stroke="rgb(0, 0, 0)" stroke-opacity="1.0" stroke-linecap="round" stroke-linejoin="round"/>
    <path d="M 96.92228698730469 75.76595306396484 C 124.42765045166016 68.82280731201172 101.97404479980469 126.71896362304688 176.2329864501953 64.57488250732422" stroke-width="2" fill="none" stroke="rgb(0, 0, 0)" stroke-opacity="1.0" stroke-linecap="round" stroke-linejoin="round"/>
    <path d="M 80.55384826660156 155.0220947265625 C 83.05032348632812 146.1855010986328 12.566156387329102 158.28292846679688 50.21589660644531 105.33966064453125" stroke-width="2" fill="none" stroke="rgb(0, 0, 0)" stroke-opacity="1.0" stroke-linecap="round" stroke-linejoin="round"/>
    <path d="M 143.44166564941406 103.86944580078125 C 195.20370483398438 130.20559692382812 108.6236343383789 110.44524383544922 145.99896240234375 126.2889404296875" stroke-width="2" fill="none" stroke="rgb(0, 0, 0)" stroke-opacity="1.0" stroke-linecap="round" stroke-linejoin="round"/>
    <path d="M 58.70527267456055 146.18618774414062 C 92.69119262695312 153.26968383789062 76.47590637207031 138.896728515625 87.2732162475586 153.99029541015625" stroke-width="2" fill="none" stroke="rgb(0, 0, 0)" stroke-opacity="1.0" stroke-linecap="round" stroke-linejoin="round"/>
    <path d="M 161.38088989257812 94.47985076904297 C 202.71835327148438 15.326722145080566 178.02557373046875 125.5804214477539 148.40899658203125 114.43434143066406" stroke-width="2" fill="none" stroke="rgb(0, 0, 0)" stroke-opacity="1.0" stroke-linecap="round" stroke-linejoin="round"/>
    <path d="M 157.36477661132812 114.09068298339844 C 181.9654998779297 172.56674194335938 167.71206665039062 162.54591369628906 80.29961395263672 151.5749053955078" stroke-width="2" fill="none" stroke="rgb(0, 0, 0)" stroke-opacity="1.0" stroke-linecap="round" stroke-linejoin="round"/>
    <path d="M 47.02315139770508 135.2008056640625 C 93.14590454101562 142.65426635742188 20.1219425201416 125.38008880615234 90.39215850830078 152.00338745117188" stroke-width="2" fill="none" stroke="rgb(0, 0, 0)" stroke-opacity="1.0" stroke-linecap="round" stroke-linejoin="round"/>
    <path d="M 103.93529510498047 127.51883697509766 C 64.45767974853516 84.09668731689453 70.99115753173828 78.99685668945312 70.41543579101562 132.03611755371094" stroke-width="2" fill="none" stroke="rgb(0, 0, 0)" stroke-opacity="1.0" stroke-linecap="round" stroke-linejoin="round"/>
    <path d="M 151.10946655273438 143.77182006835938 C 173.9498748779297 128.56570434570312 205.07772827148438 5.753703594207764 161.75765991210938 101.10273742675781" stroke-width="2" fill="none" stroke="rgb(0, 0, 0)" stroke-opacity="1.0" stroke-linecap="round" stroke-linejoin="round"/>
    <path d="M 58.27949142456055 122.5500717163086 C 28.50351333618164 86.45303344726562 124.53450775146484 82.86714935302734 104.08833312988281 125.51917266845703" stroke-width="2" fill="none" stroke="rgb(0, 0, 0)" stroke-opacity="1.0" stroke-linecap="round" stroke-linejoin="round"/>
  </g>
</svg>
