<?xml version="1.0" ?>
<svg xmlns="http://www.w3.org/2000/svg" version="1.1" width="224" height="224">
  <defs/>
  <g>
    <path d="M 129.9564208984375 96.34435272216797 C 51.11603546142578 132.6345672607422 217.87680053710938 149.1284942626953 109.46372985839844 131.33810424804688" stroke-width="2" fill="none" stroke="rgb(0, 0, 0)" stroke-opacity="1.0" stroke-linecap="round" stroke-linejoin="round"/>
    <path d="M 128.18954467773438 120.57027435302734 C 66.86763000488281 129.21690368652344 111.91847229003906 123.19969940185547 84.7850112915039 117.84390258789062" stroke-width="2" fill="none" stroke="rgb(0, 0, 0)" stroke-opacity="1.0" stroke-linecap="round" stroke-linejoin="round"/>
    <path d="M 176.1666717529297 72.61308288574219 C 169.4640350341797 122.67021179199219 131.44528198242188 88.63392639160156 165.98684692382812 99.02153778076172" stroke-width="2" fill="none" stroke="rgb(0, 0, 0)" stroke-opacity="1.0" stroke-linecap="round" stroke-linejoin="round"/>
    <path d="M 144.94418334960938 129.0861053466797 C 159.5810546875 134.60755920410156 188.49929809570312 145.5047607421875 145.51007080078125 115.08038330078125" stroke-width="2" fill="none" stroke="rgb(0, 0, 0)" stroke-opacity="1.0" stroke-linecap="round" stroke-linejoin="round"/>
    <path d="M 170.5519256591797 110.50248718261719 C 116.77622985839844 47.668582916259766 235.58749389648438 168.18661499023438 87.3538589477539 127.01126098632812" stroke-width="2" fill="none" stroke="rgb(0, 0, 0)" stroke-opacity="1.0" stroke-linecap="round" stroke-linejoin="round"/>
    <path d="M 163.4468536376953 117.69879913330078 C 104.57308197021484 124.56110382080078 167.6471710205078 107.40699005126953 139.25289916992188 123.7624282836914" stroke-width="2" fill="none" stroke="rgb(0, 0, 0)" stroke-opacity="1.0" stroke-linecap="round" stroke-linejoin="round"/>
    <path d="M 103.5877914428711 104.55984497070312 C 78.92463684082031 6.671116352081299 139.11387634277344 143.5502166748047 165.66810607910156 82.2226333618164" stroke-width="2" fill="none" stroke="rgb(0, 0, 0)" stroke-opacity="1.0" stroke-linecap="round" stroke-linejoin="round"/>
    <path d="M 73.71795654296875 111.02923583984375 C 65.87726593017578 121.65264892578125 40.76289749145508 102.95219421386719 51.03972244262695 124.42460632324219" stroke-width="2" fill="none" stroke="rgb(0, 0, 0)" stroke-opacity="1.0" stroke-linecap="round" stroke-linejoin="round"/>
    <path d="M 118.75879669189453 137.457275390625 C 229.3196258544922 167.19752502441406 59.6171989440918 135.20309448242188 117.87688446044922 152.85580444335938" stroke-width="2" fill="none" stroke="rgb(0, 0, 0)" stroke-opacity="1.0" stroke-linecap="round" stroke-linejoin="round"/>
    <path d="M 132.7491912841797 127.89456939697266 C 88.15080261230469 149.22984313964844 131.3778839111328 101.64189910888672 96.12928771972656 123.37109375" stroke-width="2" fill="none" stroke="rgb(0, 0, 0)" stroke-opacity="1.0" stroke-linecap="round" stroke-linejoin="round"/>
    <path d="M 176.2014617919922 87.48785400390625 C 211.56689453125 12.899782180786133 158.20602416992188 101.9392318725586 124.7095718383789 87.705078125" stroke-width="2" fill="none" stroke="rgb(0, 0, 0)" stroke-opacity="1.0" stroke-linecap="round" stroke-linejoin="round"/>
    <path d="M 175.4023895263672 100.54446411132812 C 132.8188934326172 138.7996063232422 232.08436584472656 171.0714874267578 71.41581726074219 150.5550537109375" stroke-width="2" fill="none" stroke="rgb(0, 0, 0)" stroke-opacity="1.0" stroke-linecap="round" stroke-linejoin="round"/>
    <path d="M 99.00052642822266 94.68634033203125 C 45.031455993652344 84.03550720214844 4.485842704772949 158.94708251953125 99.66011810302734 155.45193481445312" stroke-width="2" fill="none" stroke="rgb(0, 0, 0)" stroke-opacity="1.0" stroke-linecap="round" stroke-linejoin="round"/>
    <path d="M 110.23702239990234 97.8803482055664 C 148.6984100341797 108.17086791992188 121.21432495117188 117.54151153564453 104.314208984375 74.75291442871094" stroke-width="2" fill="none" stroke="rgb(0, 0, 0)" stroke-opacity="1.0" stroke-linecap="round" stroke-linejoin="round"/>
    <path d="M 169.4808807373047 105.20333099365234 C 181.2079620361328 111.95866394042969 197.51939392089844 9.346747398376465 182.02783203125 97.83910369873047" stroke-width="2" fill="none" stroke="rgb(0, 0, 0)" stroke-opacity="1.0" stroke-linecap="round" stroke-linejoin="round"/>
    <path d="M 127.63300323486328 127.33915710449219 C 105.08016204833984 105.42058563232422 169.4958953857422 155.31417846679688 113.85182189941406 122.71539306640625" stroke-width="2" fill="none" stroke="rgb(0, 0, 0)" stroke-opacity="1.0" stroke-linecap="round" stroke-linejoin="round"/>
  </g>
</svg>
