<?xml version="1.0" ?>
<svg xmlns="http://www.w3.org/2000/svg" version="1.1" width="224" height="224">
  <defs/>
  <g>
    <path d="M 164.8252410888672 156.0911102294922 C 144.15133666992188 157.62815856933594 232.54302978515625 153.51712036132812 139.03475952148438 110.77011108398438" stroke-width="2" fill="none" stroke="rgb(0, 0, 0)" stroke-opacity="1.0" stroke-linecap="round" stroke-linejoin="round"/>
    <path d="M 140.8252716064453 133.3279266357422 C 82.91246032714844 85.32057189941406 118.74658203125 109.79426574707031 104.00226593017578 125.61508178710938" stroke-width="2" fill="none" stroke="rgb(0, 0, 0)" stroke-opacity="1.0" stroke-linecap="round" stroke-linejoin="round"/>
    <path d="M 153.3462677001953 113.01493835449219 C 77.56854248046875 137.86965942382812 132.93617248535156 61.93761444091797 146.4108123779297 103.46427917480469" stroke-width="2" fill="none" stroke="rgb(0, 0, 0)" stroke-opacity="1.0" stroke-linecap="round" stroke-linejoin="round"/>
    <path d="M 171.49143981933594 105.4249267578125 C 127.44110107421875 102.3392562866211 202.7991485595703 110.824462890625 136.35321044921875 118.8607177734375" stroke-width="2" fill="none" stroke="rgb(0, 0, 0)" stroke-opacity="1.0" stroke-linecap="round" stroke-linejoin="round"/>
    <path d="M 102.33937072753906 153.01780700683594 C 44.145042419433594 146.005126953125 215.69113159179688 162.477783203125 83.24423217773438 155.320556640625" stroke-width="2" fill="none" stroke="rgb(0, 0, 0)" stroke-opacity="1.0" stroke-linecap="round" stroke-linejoin="round"/>
    <path d="M 57.78688049316406 117.76652526855469 C 61.79315948486328 116.2240219116211 44.1912956237793 94.36792755126953 40.10153579711914 140.10430908203125" stroke-width="2" fill="none" stroke="rgb(0, 0, 0)" stroke-opacity="1.0" stroke-linecap="round" stroke-linejoin="round"/>
    <path d="M 100.34626007080078 101.54017639160156 C 83.72110748291016 5.341464519500732 113.4982681274414 137.1777801513672 163.64581298828125 80.34893035888672" stroke-width="2" fill="none" stroke="rgb(0, 0, 0)" stroke-opacity="1.0" stroke-linecap="round" stroke-linejoin="round"/>
    <path d="M 63.39875030517578 133.4329071044922 C 39.06398010253906 116.01238250732422 41.350650787353516 142.15408325195312 77.51368713378906 151.47824096679688" stroke-width="2" fill="none" stroke="rgb(0, 0, 0)" stroke-opacity="1.0" stroke-linecap="round" stroke-linejoin="round"/>
    <path d="M 148.45867919921875 133.64491271972656 C 196.3768310546875 139.21669006347656 124.71759033203125 96.89231872558594 136.63430786132812 119.945556640625" stroke-width="2" fill="none" stroke="rgb(0, 0, 0)" stroke-opacity="1.0" stroke-linecap="round" stroke-linejoin="round"/>
    <path d="M 44.14665222167969 141.15426635742188 C 180.52999877929688 154.4993438720703 88.86107635498047 131.007568359375 116.5006103515625 150.79966735839844" stroke-width="2" fill="none" stroke="rgb(0, 0, 0)" stroke-opacity="1.0" stroke-linecap="round" stroke-linejoin="round"/>
    <path d="M 171.21031188964844 90.37924194335938 C 198.9652099609375 5.085522174835205 155.2620086669922 98.59265899658203 136.9879913330078 84.57228088378906" stroke-width="2" fill="none" stroke="rgb(0, 0, 0)" stroke-opacity="1.0" stroke-linecap="round" stroke-linejoin="round"/>
    <path d="M 180.4575958251953 109.18412017822266 C 168.96360778808594 131.6815643310547 235.15904235839844 174.56846618652344 82.8165054321289 137.6567840576172" stroke-width="2" fill="none" stroke="rgb(0, 0, 0)" stroke-opacity="1.0" stroke-linecap="round" stroke-linejoin="round"/>
    <path d="M 115.79310607910156 104.84814453125 C 27.80710792541504 81.56830596923828 19.062904357910156 158.67103576660156 101.48572540283203 151.7266387939453" stroke-width="2" fill="none" stroke="rgb(0, 0, 0)" stroke-opacity="1.0" stroke-linecap="round" stroke-linejoin="round"/>
    <path d="M 138.0579833984375 119.99592590332031 C 201.0316162109375 130.5382843017578 146.83734130859375 108.34498596191406 166.97409057617188 130.67626953125" stroke-width="2" fill="none" stroke="rgb(0, 0, 0)" stroke-opacity="1.0" stroke-linecap="round" stroke-linejoin="round"/>
    <path d="M 138.98507690429688 113.36178588867188 C 182.528076171875 151.16725158691406 197.65492248535156 6.381341934204102 170.4005126953125 76.26123809814453" stroke-width="2" fill="none" stroke="rgb(0, 0, 0)" stroke-opacity="1.0" stroke-linecap="round" stroke-linejoin="round"/>
    <path d="M 168.55380249023438 121.7685317993164 C 55.40875244140625 120.13497161865234 166.83863830566406 135.5873260498047 136.33041381835938 135.5044403076172" stroke-width="2" fill="none" stroke="rgb(0, 0, 0)" stroke-opacity="1.0" stroke-linecap="round" stroke-linejoin="round"/>
  </g>
</svg>
