<?xml version="1.0" ?>
<svg xmlns="http://www.w3.org/2000/svg" version="1.1" width="224" height="224">
  <defs/>
  <g>
    <path d="M 125.59464263916016 125.03085327148438 C 81.15123748779297 112.9569091796875 172.15577697753906 125.16767120361328 119.41600799560547 116.67135620117188" stroke-width="2" fill="none" stroke="rgb(0, 0, 0)" stroke-opacity="1.0" stroke-linecap="round" stroke-linejoin="round"/>
    <path d="M 116.72672271728516 139.9932098388672 C 60.89816665649414 115.81168365478516 206.02333068847656 152.06353759765625 161.81698608398438 143.75335693359375" stroke-width="2" fill="none" stroke="rgb(0, 0, 0)" stroke-opacity="1.0" stroke-linecap="round" stroke-linejoin="round"/>
    <path d="M 151.29638671875 118.59600830078125 C 193.54318237304688 129.46029663085938 123.48450469970703 113.81680297851562 149.0565185546875 127.63581085205078" stroke-width="2" fill="none" stroke="rgb(0, 0, 0)" stroke-opacity="1.0" stroke-linecap="round" stroke-linejoin="round"/>
    <path d="M 148.7274932861328 131.83493041992188 C 83.02669525146484 139.49595642089844 200.24758911132812 140.481201171875 121.89502716064453 145.0769805908203" stroke-width="2" fill="none" stroke="rgb(0, 0, 0)" stroke-opacity="1.0" stroke-linecap="round" stroke-linejoin="round"/>
    <path d="M 134.72763061523438 107.45911407470703 C 75.03379821777344 146.21969604492188 214.3216552734375 154.07777404785156 129.7946014404297 141.26553344726562" stroke-width="2" fill="none" stroke="rgb(0, 0, 0)" stroke-opacity="1.0" stroke-linecap="round" stroke-linejoin="round"/>
    <path d="M 133.9330291748047 123.28301239013672 C 105.68013763427734 117.54971313476562 103.02959442138672 123.32674407958984 150.6129608154297 137.21142578125" stroke-width="2" fill="none" stroke="rgb(0, 0, 0)" stroke-opacity="1.0" stroke-linecap="round" stroke-linejoin="round"/>
    <path d="M 101.91344451904297 82.40744018554688 C 123.7225341796875 68.0179443359375 120.48335266113281 133.4010009765625 180.3331756591797 67.1659164428711" stroke-width="2" fill="none" stroke="rgb(0, 0, 0)" stroke-opacity="1.0" stroke-linecap="round" stroke-linejoin="round"/>
    <path d="M 99.08561706542969 158.77194213867188 C 81.11978912353516 150.25625610351562 16.940948486328125 155.70407104492188 54.099403381347656 100.56725311279297" stroke-width="2" fill="none" stroke="rgb(0, 0, 0)" stroke-opacity="1.0" stroke-linecap="round" stroke-linejoin="round"/>
    <path d="M 150.32327270507812 118.92323303222656 C 182.39077758789062 120.200439453125 125.69467163085938 110.34500122070312 157.12002563476562 121.24549865722656" stroke-width="2" fill="none" stroke="rgb(0, 0, 0)" stroke-opacity="1.0" stroke-linecap="round" stroke-linejoin="round"/>
    <path d="M 67.18865203857422 136.6294708251953 C 100.2881851196289 171.06585693359375 112.83771514892578 153.49618530273438 96.98770904541016 152.7975616455078" stroke-width="2" fill="none" stroke="rgb(0, 0, 0)" stroke-opacity="1.0" stroke-linecap="round" stroke-linejoin="round"/>
    <path d="M 167.41050720214844 98.5565185546875 C 196.37258911132812 2.615602493286133 181.60292053222656 137.0426483154297 152.5548095703125 102.85918426513672" stroke-width="2" fill="none" stroke="rgb(0, 0, 0)" stroke-opacity="1.0" stroke-linecap="round" stroke-linejoin="round"/>
    <path d="M 161.70367431640625 106.91651153564453 C 172.58901977539062 167.54774475097656 184.3706817626953 162.65220642089844 53.064292907714844 145.18978881835938" stroke-width="2" fill="none" stroke="rgb(0, 0, 0)" stroke-opacity="1.0" stroke-linecap="round" stroke-linejoin="round"/>
    <path d="M 66.90711975097656 133.79071044921875 C 82.69735717773438 161.23834228515625 17.453468322753906 141.41229248046875 91.01358795166016 156.54937744140625" stroke-width="2" fill="none" stroke="rgb(0, 0, 0)" stroke-opacity="1.0" stroke-linecap="round" stroke-linejoin="round"/>
    <path d="M 114.34403991699219 124.78983306884766 C 97.65746307373047 75.53532409667969 95.21025085449219 67.98938751220703 99.00562286376953 119.5237045288086" stroke-width="2" fill="none" stroke="rgb(0, 0, 0)" stroke-opacity="1.0" stroke-linecap="round" stroke-linejoin="round"/>
    <path d="M 150.20086669921875 143.48985290527344 C 179.7808074951172 146.20428466796875 203.3617401123047 -1.8364176750183105 169.05477905273438 93.9240951538086" stroke-width="2" fill="none" stroke="rgb(0, 0, 0)" stroke-opacity="1.0" stroke-linecap="round" stroke-linejoin="round"/>
    <path d="M 60.68296432495117 112.88108825683594 C 34.96760177612305 109.61656188964844 112.63880157470703 108.85099792480469 82.03417205810547 119.15214538574219" stroke-width="2" fill="none" stroke="rgb(0, 0, 0)" stroke-opacity="1.0" stroke-linecap="round" stroke-linejoin="round"/>
  </g>
</svg>
