<?xml version="1.0" ?>
<svg xmlns="http://www.w3.org/2000/svg" version="1.1" width="224" height="224">
  <defs/>
  <g>
    <path d="M 160.36181640625 116.69471740722656 C 114.58253479003906 115.7646713256836 187.5243682861328 105.6027603149414 128.86683654785156 123.02340698242188" stroke-width="2" fill="none" stroke="rgb(0, 0, 0)" stroke-opacity="1.0" stroke-linecap="round" stroke-linejoin="round"/>
    <path d="M 107.35407257080078 160.66075134277344 C 12.662361145019531 107.31977844238281 55.57731628417969 148.66812133789062 57.5849723815918 124.16322326660156" stroke-width="2" fill="none" stroke="rgb(0, 0, 0)" stroke-opacity="1.0" stroke-linecap="round" stroke-linejoin="round"/>
    <path d="M 119.17369842529297 95.68938446044922 C 118.70488739013672 107.906494140625 93.79131317138672 100.58940887451172 167.7161407470703 96.67303466796875" stroke-width="2" fill="none" stroke="rgb(0, 0, 0)" stroke-opacity="1.0" stroke-linecap="round" stroke-linejoin="round"/>
    <path d="M 163.77020263671875 121.2685775756836 C 77.31449890136719 118.70905303955078 171.48330688476562 137.18112182617188 125.17754364013672 116.02392578125" stroke-width="2" fill="none" stroke="rgb(0, 0, 0)" stroke-opacity="1.0" stroke-linecap="round" stroke-linejoin="round"/>
    <path d="M 148.5491485595703 157.88780212402344 C 119.84828186035156 154.33934020996094 235.45162963867188 169.89364624023438 103.43338012695312 151.531494140625" stroke-width="2" fill="none" stroke="rgb(0, 0, 0)" stroke-opacity="1.0" stroke-linecap="round" stroke-linejoin="round"/>
    <path d="M 93.65391540527344 115.8589096069336 C 109.79480743408203 108.9350357055664 114.88990783691406 109.67071533203125 117.33563232421875 134.21961975097656" stroke-width="2" fill="none" stroke="rgb(0, 0, 0)" stroke-opacity="1.0" stroke-linecap="round" stroke-linejoin="round"/>
    <path d="M 99.05634307861328 98.84980773925781 C 84.42341613769531 12.91439151763916 137.22596740722656 147.18008422851562 169.08236694335938 82.37126922607422" stroke-width="2" fill="none" stroke="rgb(0, 0, 0)" stroke-opacity="1.0" stroke-linecap="round" stroke-linejoin="round"/>
    <path d="M 41.871368408203125 100.77888488769531 C 47.69685363769531 117.34140014648438 19.367595672607422 157.0657196044922 66.73955535888672 137.59048461914062" stroke-width="2" fill="none" stroke="rgb(0, 0, 0)" stroke-opacity="1.0" stroke-linecap="round" stroke-linejoin="round"/>
    <path d="M 145.35987854003906 141.92112731933594 C 236.5769500732422 165.3790283203125 110.28055572509766 89.68954467773438 153.001220703125 114.23772430419922" stroke-width="2" fill="none" stroke="rgb(0, 0, 0)" stroke-opacity="1.0" stroke-linecap="round" stroke-linejoin="round"/>
    <path d="M 88.69503021240234 131.93280029296875 C 107.25676727294922 132.20045471191406 88.10453033447266 131.18324279785156 103.12149047851562 136.14785766601562" stroke-width="2" fill="none" stroke="rgb(0, 0, 0)" stroke-opacity="1.0" stroke-linecap="round" stroke-linejoin="round"/>
    <path d="M 167.31019592285156 123.64962768554688 C 211.5465850830078 0.13242991268634796 159.74481201171875 109.13140106201172 134.40005493164062 86.84217071533203" stroke-width="2" fill="none" stroke="rgb(0, 0, 0)" stroke-opacity="1.0" stroke-linecap="round" stroke-linejoin="round"/>
    <path d="M 169.1895751953125 117.11398315429688 C 141.37973022460938 122.58043670654297 258.13092041015625 193.6649932861328 52.04105758666992 153.2786102294922" stroke-width="2" fill="none" stroke="rgb(0, 0, 0)" stroke-opacity="1.0" stroke-linecap="round" stroke-linejoin="round"/>
    <path d="M 95.61388397216797 99.47976684570312 C 19.098142623901367 91.48519134521484 29.871877670288086 155.43865966796875 109.88186645507812 148.30825805664062" stroke-width="2" fill="none" stroke="rgb(0, 0, 0)" stroke-opacity="1.0" stroke-linecap="round" stroke-linejoin="round"/>
    <path d="M 119.79405975341797 111.20317840576172 C 115.67967224121094 85.6513442993164 116.89795684814453 124.82781219482422 102.253173828125 72.67839813232422" stroke-width="2" fill="none" stroke="rgb(0, 0, 0)" stroke-opacity="1.0" stroke-linecap="round" stroke-linejoin="round"/>
    <path d="M 159.64590454101562 96.76554107666016 C 181.6524658203125 141.7345428466797 207.194091796875 7.467710494995117 166.6521759033203 91.33070373535156" stroke-width="2" fill="none" stroke="rgb(0, 0, 0)" stroke-opacity="1.0" stroke-linecap="round" stroke-linejoin="round"/>
    <path d="M 132.1500701904297 106.65869903564453 C 64.82990264892578 141.1152801513672 192.94776916503906 136.5439910888672 154.3599853515625 117.20291900634766" stroke-width="2" fill="none" stroke="rgb(0, 0, 0)" stroke-opacity="1.0" stroke-linecap="round" stroke-linejoin="round"/>
  </g>
</svg>
