<?xml version="1.0" ?>
<svg xmlns="http://www.w3.org/2000/svg" version="1.1" width="224" height="224">
  <defs/>
  <g>
    <path d="M 138.79095458984375 125.92567443847656 C 85.65785217285156 130.9351043701172 193.27947998046875 136.76295471191406 126.12738037109375 127.1379623413086" stroke-width="2" fill="none" stroke="rgb(0, 0, 0)" stroke-opacity="1.0" stroke-linecap="round" stroke-linejoin="round"/>
    <path d="M 143.87965393066406 134.2042236328125 C 63.670204162597656 97.26246643066406 149.23617553710938 103.3564224243164 96.78466796875 116.4163589477539" stroke-width="2" fill="none" stroke="rgb(0, 0, 0)" stroke-opacity="1.0" stroke-linecap="round" stroke-linejoin="round"/>
    <path d="M 102.7485580444336 133.4429931640625 C 119.9839096069336 122.8956298828125 92.33355712890625 76.9638442993164 149.6281280517578 92.64691925048828" stroke-width="2" fill="none" stroke="rgb(0, 0, 0)" stroke-opacity="1.0" stroke-linecap="round" stroke-linejoin="round"/>
    <path d="M 144.38528442382812 110.29484558105469 C 109.16718292236328 94.86540985107422 204.29989624023438 150.75022888183594 110.94261169433594 121.63805389404297" stroke-width="2" fill="none" stroke="rgb(0, 0, 0)" stroke-opacity="1.0" stroke-linecap="round" stroke-linejoin="round"/>
    <path d="M 146.01812744140625 138.96824645996094 C 86.83262634277344 121.70561218261719 225.7039031982422 148.49948120117188 82.27690887451172 140.13339233398438" stroke-width="2" fill="none" stroke="rgb(0, 0, 0)" stroke-opacity="1.0" stroke-linecap="round" stroke-linejoin="round"/>
    <path d="M 80.35289001464844 113.50569152832031 C 42.020172119140625 119.02967834472656 89.8333511352539 113.21959686279297 90.01738739013672 132.87815856933594" stroke-width="2" fill="none" stroke="rgb(0, 0, 0)" stroke-opacity="1.0" stroke-linecap="round" stroke-linejoin="round"/>
    <path d="M 111.64845275878906 102.02367401123047 C 74.02562713623047 4.923767566680908 142.42027282714844 138.93678283691406 175.5361328125 87.60944366455078" stroke-width="2" fill="none" stroke="rgb(0, 0, 0)" stroke-opacity="1.0" stroke-linecap="round" stroke-linejoin="round"/>
    <path d="M 43.32792663574219 130.55218505859375 C 43.14683532714844 119.58927917480469 28.56356430053711 147.78741455078125 66.43086242675781 147.49972534179688" stroke-width="2" fill="none" stroke="rgb(0, 0, 0)" stroke-opacity="1.0" stroke-linecap="round" stroke-linejoin="round"/>
    <path d="M 127.87364196777344 128.6365509033203 C 193.00257873535156 172.15003967285156 150.6217803955078 112.74869537353516 163.06398010253906 131.79580688476562" stroke-width="2" fill="none" stroke="rgb(0, 0, 0)" stroke-opacity="1.0" stroke-linecap="round" stroke-linejoin="round"/>
    <path d="M 44.28727340698242 144.33274841308594 C 119.45840454101562 165.52862548828125 41.47914505004883 137.2960968017578 71.38626098632812 149.96856689453125" stroke-width="2" fill="none" stroke="rgb(0, 0, 0)" stroke-opacity="1.0" stroke-linecap="round" stroke-linejoin="round"/>
    <path d="M 151.41856384277344 119.1076431274414 C 220.12709045410156 6.328299045562744 158.78012084960938 93.07613372802734 139.0069122314453 81.45513153076172" stroke-width="2" fill="none" stroke="rgb(0, 0, 0)" stroke-opacity="1.0" stroke-linecap="round" stroke-linejoin="round"/>
    <path d="M 169.27264404296875 104.54623413085938 C 137.40354919433594 127.1209945678711 221.20603942871094 199.06979370117188 69.53137969970703 141.51290893554688" stroke-width="2" fill="none" stroke="rgb(0, 0, 0)" stroke-opacity="1.0" stroke-linecap="round" stroke-linejoin="round"/>
    <path d="M 101.26609802246094 91.23274993896484 C 26.9622745513916 88.99995422363281 8.393133163452148 171.72219848632812 117.73838806152344 168.02293395996094" stroke-width="2" fill="none" stroke="rgb(0, 0, 0)" stroke-opacity="1.0" stroke-linecap="round" stroke-linejoin="round"/>
    <path d="M 130.06044006347656 151.8382568359375 C 150.44073486328125 156.82913208007812 65.09934997558594 142.96115112304688 138.82974243164062 134.53611755371094" stroke-width="2" fill="none" stroke="rgb(0, 0, 0)" stroke-opacity="1.0" stroke-linecap="round" stroke-linejoin="round"/>
    <path d="M 157.524658203125 100.80327606201172 C 167.89637756347656 161.845703125 210.44944763183594 5.5068535804748535 168.5236358642578 84.89336395263672" stroke-width="2" fill="none" stroke="rgb(0, 0, 0)" stroke-opacity="1.0" stroke-linecap="round" stroke-linejoin="round"/>
    <path d="M 150.5513916015625 125.68765258789062 C 51.2298698425293 115.84506225585938 178.28561401367188 121.4670639038086 135.01611328125 109.8670654296875" stroke-width="2" fill="none" stroke="rgb(0, 0, 0)" stroke-opacity="1.0" stroke-linecap="round" stroke-linejoin="round"/>
  </g>
</svg>
