<?xml version="1.0" ?>
<svg xmlns="http://www.w3.org/2000/svg" version="1.1" width="224" height="224">
  <defs/>
  <g>
    <path d="M 159.35586547851562 152.76441955566406 C 129.39840698242188 155.5737762451172 217.40621948242188 121.12069702148438 127.19642639160156 119.95000457763672" stroke-width="2" fill="none" stroke="rgb(0, 0, 0)" stroke-opacity="1.0" stroke-linecap="round" stroke-linejoin="round"/>
    <path d="M 135.72164916992188 131.33912658691406 C 73.9936294555664 75.15425872802734 126.15097045898438 111.86591339111328 93.00894927978516 115.1030044555664" stroke-width="2" fill="none" stroke="rgb(0, 0, 0)" stroke-opacity="1.0" stroke-linecap="round" stroke-linejoin="round"/>
    <path d="M 161.37518310546875 117.53723907470703 C 77.81141662597656 139.96742248535156 132.5079803466797 75.27053833007812 155.32928466796875 103.35374450683594" stroke-width="2" fill="none" stroke="rgb(0, 0, 0)" stroke-opacity="1.0" stroke-linecap="round" stroke-linejoin="round"/>
    <path d="M 169.1876678466797 97.0465087890625 C 139.5517578125 97.03132629394531 197.06492614746094 112.36392211914062 146.56451416015625 106.68727111816406" stroke-width="2" fill="none" stroke="rgb(0, 0, 0)" stroke-opacity="1.0" stroke-linecap="round" stroke-linejoin="round"/>
    <path d="M 103.20336151123047 138.67970275878906 C 48.82822799682617 122.21551513671875 271.4609069824219 162.9634246826172 82.67626953125 149.7139129638672" stroke-width="2" fill="none" stroke="rgb(0, 0, 0)" stroke-opacity="1.0" stroke-linecap="round" stroke-linejoin="round"/>
    <path d="M 58.90325164794922 114.56334686279297 C 65.09142303466797 112.29924774169922 39.429473876953125 98.09442138671875 40.05265808105469 137.94247436523438" stroke-width="2" fill="none" stroke="rgb(0, 0, 0)" stroke-opacity="1.0" stroke-linecap="round" stroke-linejoin="round"/>
    <path d="M 106.36011505126953 106.05477905273438 C 85.1721420288086 8.036503791809082 133.05606079101562 131.42091369628906 144.78086853027344 85.79291534423828" stroke-width="2" fill="none" stroke="rgb(0, 0, 0)" stroke-opacity="1.0" stroke-linecap="round" stroke-linejoin="round"/>
    <path d="M 65.70706939697266 141.5575408935547 C 62.234901428222656 121.86532592773438 54.59196090698242 131.19650268554688 87.50233459472656 150.29054260253906" stroke-width="2" fill="none" stroke="rgb(0, 0, 0)" stroke-opacity="1.0" stroke-linecap="round" stroke-linejoin="round"/>
    <path d="M 147.25408935546875 123.66159057617188 C 191.17462158203125 126.92681121826172 119.55550384521484 98.15725708007812 159.7420196533203 122.73894500732422" stroke-width="2" fill="none" stroke="rgb(0, 0, 0)" stroke-opacity="1.0" stroke-linecap="round" stroke-linejoin="round"/>
    <path d="M 41.99369430541992 139.3236541748047 C 225.99961853027344 150.76744079589844 97.91169738769531 135.20204162597656 119.52005004882812 150.4111328125" stroke-width="2" fill="none" stroke="rgb(0, 0, 0)" stroke-opacity="1.0" stroke-linecap="round" stroke-linejoin="round"/>
    <path d="M 165.06512451171875 90.49613952636719 C 199.50848388671875 11.28348445892334 165.8828582763672 102.03941345214844 116.37471008300781 85.643310546875" stroke-width="2" fill="none" stroke="rgb(0, 0, 0)" stroke-opacity="1.0" stroke-linecap="round" stroke-linejoin="round"/>
    <path d="M 171.79345703125 101.03883361816406 C 168.50912475585938 138.3602752685547 222.96592712402344 173.8253936767578 68.9950942993164 146.3136749267578" stroke-width="2" fill="none" stroke="rgb(0, 0, 0)" stroke-opacity="1.0" stroke-linecap="round" stroke-linejoin="round"/>
    <path d="M 117.36941528320312 105.1990737915039 C 36.27729034423828 63.65640640258789 11.603107452392578 160.8502960205078 103.02430725097656 151.0131378173828" stroke-width="2" fill="none" stroke="rgb(0, 0, 0)" stroke-opacity="1.0" stroke-linecap="round" stroke-linejoin="round"/>
    <path d="M 144.52169799804688 132.60069274902344 C 181.5771484375 128.8867950439453 163.8904266357422 101.74803161621094 168.68362426757812 132.52537536621094" stroke-width="2" fill="none" stroke="rgb(0, 0, 0)" stroke-opacity="1.0" stroke-linecap="round" stroke-linejoin="round"/>
    <path d="M 131.57740783691406 116.3024673461914 C 189.54698181152344 144.46035766601562 192.5223846435547 7.101257801055908 173.41754150390625 77.8709716796875" stroke-width="2" fill="none" stroke="rgb(0, 0, 0)" stroke-opacity="1.0" stroke-linecap="round" stroke-linejoin="round"/>
    <path d="M 160.2263946533203 131.83514404296875 C 52.19621658325195 114.7144546508789 173.44482421875 122.0634994506836 127.55865478515625 112.06371307373047" stroke-width="2" fill="none" stroke="rgb(0, 0, 0)" stroke-opacity="1.0" stroke-linecap="round" stroke-linejoin="round"/>
  </g>
</svg>
