<?xml version="1.0" ?>
<svg xmlns="http://www.w3.org/2000/svg" version="1.1" width="224" height="224">
  <defs/>
  <g>
    <path d="M 129.60751342773438 109.79012298583984 C 76.37158203125 150.7134552001953 195.07278442382812 141.7010498046875 132.05648803710938 133.2789764404297" stroke-width="2" fill="none" stroke="rgb(0, 0, 0)" stroke-opacity="1.0" stroke-linecap="round" stroke-linejoin="round"/>
    <path d="M 117.506103515625 133.73260498046875 C 70.72750854492188 110.96334838867188 166.17588806152344 166.24517822265625 175.98812866210938 145.33338928222656" stroke-width="2" fill="none" stroke="rgb(0, 0, 0)" stroke-opacity="1.0" stroke-linecap="round" stroke-linejoin="round"/>
    <path d="M 181.65084838867188 79.38520050048828 C 183.2490997314453 119.43661499023438 155.58888244628906 83.72814178466797 173.23782348632812 108.95460510253906" stroke-width="2" fill="none" stroke="rgb(0, 0, 0)" stroke-opacity="1.0" stroke-linecap="round" stroke-linejoin="round"/>
    <path d="M 166.69154357910156 122.07594299316406 C 128.6879119873047 130.36996459960938 218.66004943847656 132.2768096923828 133.66366577148438 132.15269470214844" stroke-width="2" fill="none" stroke="rgb(0, 0, 0)" stroke-opacity="1.0" stroke-linecap="round" stroke-linejoin="round"/>
    <path d="M 156.57321166992188 117.28275299072266 C 115.26036071777344 103.26982879638672 253.15771484375 161.85205078125 84.85187530517578 132.8744354248047" stroke-width="2" fill="none" stroke="rgb(0, 0, 0)" stroke-opacity="1.0" stroke-linecap="round" stroke-linejoin="round"/>
    <path d="M 138.4458465576172 124.88157653808594 C 104.97064971923828 116.9326400756836 129.48399353027344 130.9256134033203 159.70896911621094 144.15757751464844" stroke-width="2" fill="none" stroke="rgb(0, 0, 0)" stroke-opacity="1.0" stroke-linecap="round" stroke-linejoin="round"/>
    <path d="M 102.84066009521484 80.89700317382812 C 179.77642822265625 65.76307678222656 141.76136779785156 121.14295196533203 171.1706085205078 69.21321868896484" stroke-width="2" fill="none" stroke="rgb(0, 0, 0)" stroke-opacity="1.0" stroke-linecap="round" stroke-linejoin="round"/>
    <path d="M 53.059139251708984 144.05235290527344 C 102.85082244873047 154.0611572265625 -5.859910011291504 146.3452911376953 66.86404418945312 95.1876220703125" stroke-width="2" fill="none" stroke="rgb(0, 0, 0)" stroke-opacity="1.0" stroke-linecap="round" stroke-linejoin="round"/>
    <path d="M 154.65054321289062 127.65913391113281 C 189.9142303466797 118.79179382324219 139.81626892089844 116.97743225097656 159.1226806640625 133.85964965820312" stroke-width="2" fill="none" stroke="rgb(0, 0, 0)" stroke-opacity="1.0" stroke-linecap="round" stroke-linejoin="round"/>
    <path d="M 136.8423614501953 108.8697738647461 C 102.55525207519531 126.42619323730469 115.29563903808594 116.41942596435547 116.00779724121094 96.21478271484375" stroke-width="2" fill="none" stroke="rgb(0, 0, 0)" stroke-opacity="1.0" stroke-linecap="round" stroke-linejoin="round"/>
    <path d="M 146.61204528808594 82.10388946533203 C 222.30726623535156 -4.269461154937744 170.81008911132812 109.08242797851562 154.90367126464844 100.53484344482422" stroke-width="2" fill="none" stroke="rgb(0, 0, 0)" stroke-opacity="1.0" stroke-linecap="round" stroke-linejoin="round"/>
    <path d="M 165.26417541503906 99.49625396728516 C 177.074951171875 179.7045135498047 171.69760131835938 177.8262939453125 58.68653106689453 133.24551391601562" stroke-width="2" fill="none" stroke="rgb(0, 0, 0)" stroke-opacity="1.0" stroke-linecap="round" stroke-linejoin="round"/>
    <path d="M 59.740203857421875 140.0784454345703 C 47.288978576660156 118.45381164550781 33.366214752197266 152.48751831054688 116.22731018066406 156.3566436767578" stroke-width="2" fill="none" stroke="rgb(0, 0, 0)" stroke-opacity="1.0" stroke-linecap="round" stroke-linejoin="round"/>
    <path d="M 120.44326782226562 138.43092346191406 C 92.44257354736328 137.0757293701172 136.2039794921875 161.44650268554688 104.36128997802734 97.01062774658203" stroke-width="2" fill="none" stroke="rgb(0, 0, 0)" stroke-opacity="1.0" stroke-linecap="round" stroke-linejoin="round"/>
    <path d="M 159.53952026367188 129.1930389404297 C 179.6277618408203 143.01510620117188 206.80068969726562 -22.32284927368164 166.4477081298828 87.23934936523438" stroke-width="2" fill="none" stroke="rgb(0, 0, 0)" stroke-opacity="1.0" stroke-linecap="round" stroke-linejoin="round"/>
    <path d="M 92.4140625 123.66650390625 C 66.71561431884766 106.46662139892578 107.03346252441406 109.2319564819336 50.35492706298828 111.26531219482422" stroke-width="2" fill="none" stroke="rgb(0, 0, 0)" stroke-opacity="1.0" stroke-linecap="round" stroke-linejoin="round"/>
  </g>
</svg>
