<?xml version="1.0" ?>
<svg xmlns="http://www.w3.org/2000/svg" version="1.1" width="224" height="224">
  <defs/>
  <g>
    <path d="M 139.74537658691406 137.98435974121094 C 67.13033294677734 140.09646606445312 184.1179656982422 128.08912658691406 124.7021713256836 129.0179443359375" stroke-width="2" fill="none" stroke="rgb(0, 0, 0)" stroke-opacity="1.0" stroke-linecap="round" stroke-linejoin="round"/>
    <path d="M 137.73428344726562 138.58998107910156 C 57.069984436035156 104.45433044433594 159.68698120117188 109.1032943725586 94.3707504272461 116.90650939941406" stroke-width="2" fill="none" stroke="rgb(0, 0, 0)" stroke-opacity="1.0" stroke-linecap="round" stroke-linejoin="round"/>
    <path d="M 110.90010070800781 130.62625122070312 C 121.27711486816406 119.66860961914062 84.23880767822266 82.50372314453125 161.55276489257812 91.48551177978516" stroke-width="2" fill="none" stroke="rgb(0, 0, 0)" stroke-opacity="1.0" stroke-linecap="round" stroke-linejoin="round"/>
    <path d="M 154.08287048339844 124.0406265258789 C 109.11609649658203 96.71554565429688 207.58396911621094 125.77238464355469 95.27374267578125 117.40745544433594" stroke-width="2" fill="none" stroke="rgb(0, 0, 0)" stroke-opacity="1.0" stroke-linecap="round" stroke-linejoin="round"/>
    <path d="M 153.31622314453125 139.30267333984375 C 86.86767578125 138.9788818359375 200.4632110595703 167.76638793945312 94.20867156982422 140.29364013671875" stroke-width="2" fill="none" stroke="rgb(0, 0, 0)" stroke-opacity="1.0" stroke-linecap="round" stroke-linejoin="round"/>
    <path d="M 72.65769958496094 112.42664337158203 C 47.694950103759766 118.7485122680664 82.80651092529297 111.97224426269531 81.14012908935547 130.10328674316406" stroke-width="2" fill="none" stroke="rgb(0, 0, 0)" stroke-opacity="1.0" stroke-linecap="round" stroke-linejoin="round"/>
    <path d="M 110.52420043945312 92.92366027832031 C 74.91322326660156 6.978662490844727 137.39451599121094 141.62539672851562 176.76319885253906 85.0645523071289" stroke-width="2" fill="none" stroke="rgb(0, 0, 0)" stroke-opacity="1.0" stroke-linecap="round" stroke-linejoin="round"/>
    <path d="M 53.98255157470703 130.67544555664062 C 47.7588996887207 117.02066040039062 27.637638092041016 150.37728881835938 60.78173828125 151.57931518554688" stroke-width="2" fill="none" stroke="rgb(0, 0, 0)" stroke-opacity="1.0" stroke-linecap="round" stroke-linejoin="round"/>
    <path d="M 122.0674819946289 134.00347900390625 C 190.19036865234375 166.17930603027344 148.4907684326172 111.12815856933594 168.06863403320312 134.4038543701172" stroke-width="2" fill="none" stroke="rgb(0, 0, 0)" stroke-opacity="1.0" stroke-linecap="round" stroke-linejoin="round"/>
    <path d="M 42.26272201538086 148.3098907470703 C 123.34942626953125 168.24404907226562 28.17169761657715 147.80052185058594 69.3224105834961 154.35301208496094" stroke-width="2" fill="none" stroke="rgb(0, 0, 0)" stroke-opacity="1.0" stroke-linecap="round" stroke-linejoin="round"/>
    <path d="M 169.84889221191406 117.71925354003906 C 206.50399780273438 0.8904768228530884 154.1765899658203 97.48213195800781 143.10284423828125 87.75707244873047" stroke-width="2" fill="none" stroke="rgb(0, 0, 0)" stroke-opacity="1.0" stroke-linecap="round" stroke-linejoin="round"/>
    <path d="M 171.4724884033203 111.9677734375 C 147.9156036376953 129.1559295654297 244.32876586914062 202.0260467529297 63.24965286254883 138.9237823486328" stroke-width="2" fill="none" stroke="rgb(0, 0, 0)" stroke-opacity="1.0" stroke-linecap="round" stroke-linejoin="round"/>
    <path d="M 99.73503875732422 95.72634887695312 C 26.447521209716797 83.0797348022461 18.3624267578125 168.16786193847656 122.40685272216797 158.83367919921875" stroke-width="2" fill="none" stroke="rgb(0, 0, 0)" stroke-opacity="1.0" stroke-linecap="round" stroke-linejoin="round"/>
    <path d="M 128.8948211669922 133.96624755859375 C 153.02682495117188 125.03508758544922 77.70946502685547 142.7494659423828 127.71466827392578 116.53313446044922" stroke-width="2" fill="none" stroke="rgb(0, 0, 0)" stroke-opacity="1.0" stroke-linecap="round" stroke-linejoin="round"/>
    <path d="M 152.35641479492188 100.76287841796875 C 165.4725341796875 146.87342834472656 206.3787384033203 8.734604835510254 169.2809600830078 85.26345825195312" stroke-width="2" fill="none" stroke="rgb(0, 0, 0)" stroke-opacity="1.0" stroke-linecap="round" stroke-linejoin="round"/>
    <path d="M 143.49676513671875 138.6685028076172 C 56.02052688598633 132.42108154296875 188.36386108398438 125.50316619873047 138.4547882080078 112.08499145507812" stroke-width="2" fill="none" stroke="rgb(0, 0, 0)" stroke-opacity="1.0" stroke-linecap="round" stroke-linejoin="round"/>
  </g>
</svg>
