<?xml version="1.0" ?>
<svg xmlns="http://www.w3.org/2000/svg" version="1.1" width="224" height="224">
  <defs/>
  <g>
    <path d="M 150.0455322265625 127.34996032714844 C 90.72691345214844 151.75381469726562 184.38491821289062 127.04603576660156 137.9093475341797 116.2269058227539" stroke-width="2" fill="none" stroke="rgb(0, 0, 0)" stroke-opacity="1.0" stroke-linecap="round" stroke-linejoin="round"/>
    <path d="M 156.52565002441406 141.9887237548828 C 54.935401916503906 100.04081726074219 134.7391815185547 116.37236785888672 101.66376495361328 125.18661499023438" stroke-width="2" fill="none" stroke="rgb(0, 0, 0)" stroke-opacity="1.0" stroke-linecap="round" stroke-linejoin="round"/>
    <path d="M 104.18242645263672 108.34263610839844 C 125.13702392578125 102.04337310791016 62.887691497802734 92.661376953125 165.3246307373047 91.49256134033203" stroke-width="2" fill="none" stroke="rgb(0, 0, 0)" stroke-opacity="1.0" stroke-linecap="round" stroke-linejoin="round"/>
    <path d="M 160.0772705078125 120.08831024169922 C 94.00174713134766 103.68131256103516 207.87890625 120.85978698730469 103.30619812011719 120.22428894042969" stroke-width="2" fill="none" stroke="rgb(0, 0, 0)" stroke-opacity="1.0" stroke-linecap="round" stroke-linejoin="round"/>
    <path d="M 148.42263793945312 145.29281616210938 C 94.94139099121094 142.3245849609375 224.89181518554688 150.6083221435547 102.27369689941406 118.62681579589844" stroke-width="2" fill="none" stroke="rgb(0, 0, 0)" stroke-opacity="1.0" stroke-linecap="round" stroke-linejoin="round"/>
    <path d="M 87.59135437011719 120.44908905029297 C 58.95472717285156 133.53079223632812 79.08203887939453 110.11366271972656 99.5011978149414 131.74273681640625" stroke-width="2" fill="none" stroke="rgb(0, 0, 0)" stroke-opacity="1.0" stroke-linecap="round" stroke-linejoin="round"/>
    <path d="M 110.61483001708984 112.33572387695312 C 74.1945571899414 4.547352313995361 127.0519027709961 149.92794799804688 173.53677368164062 91.33238983154297" stroke-width="2" fill="none" stroke="rgb(0, 0, 0)" stroke-opacity="1.0" stroke-linecap="round" stroke-linejoin="round"/>
    <path d="M 56.96905517578125 125.82197570800781 C 58.3397216796875 127.24825286865234 38.92158508300781 151.11856079101562 66.27084350585938 148.46707153320312" stroke-width="2" fill="none" stroke="rgb(0, 0, 0)" stroke-opacity="1.0" stroke-linecap="round" stroke-linejoin="round"/>
    <path d="M 118.70848083496094 140.169677734375 C 202.01028442382812 156.3209991455078 144.59512329101562 85.55622863769531 167.3528289794922 114.26244354248047" stroke-width="2" fill="none" stroke="rgb(0, 0, 0)" stroke-opacity="1.0" stroke-linecap="round" stroke-linejoin="round"/>
    <path d="M 73.79496002197266 139.7083282470703 C 139.3041534423828 167.037109375 33.10955810546875 136.71749877929688 64.85063934326172 153.68560791015625" stroke-width="2" fill="none" stroke="rgb(0, 0, 0)" stroke-opacity="1.0" stroke-linecap="round" stroke-linejoin="round"/>
    <path d="M 173.9416961669922 120.18932342529297 C 211.83309936523438 4.660513401031494 158.62451171875 99.40454864501953 147.5280303955078 92.35299682617188" stroke-width="2" fill="none" stroke="rgb(0, 0, 0)" stroke-opacity="1.0" stroke-linecap="round" stroke-linejoin="round"/>
    <path d="M 175.59886169433594 124.95439910888672 C 137.53904724121094 132.83038330078125 248.0402069091797 178.4715118408203 55.94691467285156 140.98052978515625" stroke-width="2" fill="none" stroke="rgb(0, 0, 0)" stroke-opacity="1.0" stroke-linecap="round" stroke-linejoin="round"/>
    <path d="M 94.90652465820312 87.84344482421875 C 20.96744155883789 77.06745147705078 16.932374954223633 169.57957458496094 111.0732192993164 160.76504516601562" stroke-width="2" fill="none" stroke="rgb(0, 0, 0)" stroke-opacity="1.0" stroke-linecap="round" stroke-linejoin="round"/>
    <path d="M 120.01371765136719 126.85844421386719 C 143.504638671875 109.51715087890625 108.44275665283203 151.4290008544922 119.6177749633789 118.05477142333984" stroke-width="2" fill="none" stroke="rgb(0, 0, 0)" stroke-opacity="1.0" stroke-linecap="round" stroke-linejoin="round"/>
    <path d="M 162.58457946777344 92.43704223632812 C 182.16493225097656 152.93540954589844 217.403076171875 -10.207316398620605 168.90647888183594 94.35826873779297" stroke-width="2" fill="none" stroke="rgb(0, 0, 0)" stroke-opacity="1.0" stroke-linecap="round" stroke-linejoin="round"/>
    <path d="M 145.69691467285156 138.43826293945312 C 71.97584533691406 114.49249267578125 185.3080596923828 121.74732971191406 136.38742065429688 109.58521270751953" stroke-width="2" fill="none" stroke="rgb(0, 0, 0)" stroke-opacity="1.0" stroke-linecap="round" stroke-linejoin="round"/>
  </g>
</svg>
