<?xml version="1.0" ?>
<svg xmlns="http://www.w3.org/2000/svg" version="1.1" width="224" height="224">
  <defs/>
  <g>
    <path d="M 110.79485321044922 123.6452407836914 C 137.73741149902344 134.46304321289062 195.2765655517578 147.5937957763672 131.73736572265625 115.85001373291016" stroke-width="2" fill="none" stroke="rgb(0, 0, 0)" stroke-opacity="1.0" stroke-linecap="round" stroke-linejoin="round"/>
    <path d="M 98.54302978515625 87.54670715332031 C 92.72724151611328 131.62657165527344 119.15723419189453 85.35194396972656 71.42816162109375 107.02506256103516" stroke-width="2" fill="none" stroke="rgb(0, 0, 0)" stroke-opacity="1.0" stroke-linecap="round" stroke-linejoin="round"/>
    <path d="M 152.48631286621094 125.86691284179688 C 70.52617645263672 139.3283233642578 134.4922332763672 63.2978515625 165.39630126953125 94.296875" stroke-width="2" fill="none" stroke="rgb(0, 0, 0)" stroke-opacity="1.0" stroke-linecap="round" stroke-linejoin="round"/>
    <path d="M 179.69471740722656 112.51951599121094 C 161.30911254882812 123.61266326904297 228.91355895996094 185.0514678955078 92.11580657958984 149.6595001220703" stroke-width="2" fill="none" stroke="rgb(0, 0, 0)" stroke-opacity="1.0" stroke-linecap="round" stroke-linejoin="round"/>
    <path d="M 88.42127227783203 140.61936950683594 C 27.22960090637207 136.2478790283203 245.11683654785156 177.82809448242188 98.62749481201172 135.6215362548828" stroke-width="2" fill="none" stroke="rgb(0, 0, 0)" stroke-opacity="1.0" stroke-linecap="round" stroke-linejoin="round"/>
    <path d="M 59.088340759277344 150.3159637451172 C 21.28590965270996 160.4304962158203 39.448204040527344 99.58809661865234 77.63573455810547 104.88835144042969" stroke-width="2" fill="none" stroke="rgb(0, 0, 0)" stroke-opacity="1.0" stroke-linecap="round" stroke-linejoin="round"/>
    <path d="M 112.22989654541016 126.51528930664062 C 63.921268463134766 13.767083168029785 135.46348571777344 117.91161346435547 116.99620056152344 96.44913482666016" stroke-width="2" fill="none" stroke="rgb(0, 0, 0)" stroke-opacity="1.0" stroke-linecap="round" stroke-linejoin="round"/>
    <path d="M 89.754150390625 136.58154296875 C 85.74723815917969 135.21653747558594 49.057010650634766 121.89802551269531 86.83211517333984 139.40966796875" stroke-width="2" fill="none" stroke="rgb(0, 0, 0)" stroke-opacity="1.0" stroke-linecap="round" stroke-linejoin="round"/>
    <path d="M 110.73014068603516 122.00406646728516 C 164.65057373046875 119.05388641357422 81.84081268310547 136.52511596679688 141.39491271972656 115.97199249267578" stroke-width="2" fill="none" stroke="rgb(0, 0, 0)" stroke-opacity="1.0" stroke-linecap="round" stroke-linejoin="round"/>
    <path d="M 128.1540069580078 106.00423431396484 C 213.61004638671875 130.31895446777344 102.52275085449219 122.46100616455078 142.24754333496094 114.05904388427734" stroke-width="2" fill="none" stroke="rgb(0, 0, 0)" stroke-opacity="1.0" stroke-linecap="round" stroke-linejoin="round"/>
    <path d="M 166.53616333007812 87.8364486694336 C 205.79959106445312 14.281737327575684 147.2030487060547 121.01862335205078 106.53018951416016 77.43673706054688" stroke-width="2" fill="none" stroke="rgb(0, 0, 0)" stroke-opacity="1.0" stroke-linecap="round" stroke-linejoin="round"/>
    <path d="M 172.6689453125 102.51380157470703 C 126.84201049804688 101.70755004882812 221.6356964111328 179.82627868652344 45.51971435546875 150.55319213867188" stroke-width="2" fill="none" stroke="rgb(0, 0, 0)" stroke-opacity="1.0" stroke-linecap="round" stroke-linejoin="round"/>
    <path d="M 43.71236801147461 140.421630859375 C 46.72696304321289 130.5545196533203 17.483768463134766 155.50680541992188 78.3597412109375 155.66098022460938" stroke-width="2" fill="none" stroke="rgb(0, 0, 0)" stroke-opacity="1.0" stroke-linecap="round" stroke-linejoin="round"/>
    <path d="M 157.23374938964844 159.4920654296875 C 181.74778747558594 148.58470153808594 161.45175170898438 164.78323364257812 169.52967834472656 147.72523498535156" stroke-width="2" fill="none" stroke="rgb(0, 0, 0)" stroke-opacity="1.0" stroke-linecap="round" stroke-linejoin="round"/>
    <path d="M 154.27024841308594 98.18513488769531 C 170.79440307617188 147.48306274414062 214.7420654296875 -6.666219234466553 163.12278747558594 88.40705871582031" stroke-width="2" fill="none" stroke="rgb(0, 0, 0)" stroke-opacity="1.0" stroke-linecap="round" stroke-linejoin="round"/>
    <path d="M 152.4383544921875 154.38819885253906 C 52.79719161987305 121.87030029296875 165.33486938476562 88.98575592041016 131.67996215820312 122.89234161376953" stroke-width="2" fill="none" stroke="rgb(0, 0, 0)" stroke-opacity="1.0" stroke-linecap="round" stroke-linejoin="round"/>
  </g>
</svg>
