<?xml version="1.0" ?>
<svg xmlns="http://www.w3.org/2000/svg" version="1.1" width="224" height="224">
  <defs/>
  <g>
    <path d="M 120.12477111816406 114.98432159423828 C 81.83323669433594 152.08462524414062 169.8236083984375 112.99604034423828 131.9853973388672 119.97460174560547" stroke-width="2" fill="none" stroke="rgb(0, 0, 0)" stroke-opacity="1.0" stroke-linecap="round" stroke-linejoin="round"/>
    <path d="M 102.85411834716797 129.1168212890625 C 19.020523071289062 112.03477478027344 173.67481994628906 161.2093963623047 170.51773071289062 149.2517547607422" stroke-width="2" fill="none" stroke="rgb(0, 0, 0)" stroke-opacity="1.0" stroke-linecap="round" stroke-linejoin="round"/>
    <path d="M 181.47154235839844 90.43067169189453 C 162.2902374267578 107.95384979248047 146.14759826660156 75.35871887207031 169.36380004882812 99.18318939208984" stroke-width="2" fill="none" stroke="rgb(0, 0, 0)" stroke-opacity="1.0" stroke-linecap="round" stroke-linejoin="round"/>
    <path d="M 162.21853637695312 117.3816146850586 C 112.3393783569336 131.0841522216797 215.6256103515625 109.31130981445312 129.1756134033203 116.16217041015625" stroke-width="2" fill="none" stroke="rgb(0, 0, 0)" stroke-opacity="1.0" stroke-linecap="round" stroke-linejoin="round"/>
    <path d="M 140.64129638671875 124.12506103515625 C 94.13653564453125 102.36608123779297 252.90484619140625 141.04217529296875 118.78672790527344 152.6811981201172" stroke-width="2" fill="none" stroke="rgb(0, 0, 0)" stroke-opacity="1.0" stroke-linecap="round" stroke-linejoin="round"/>
    <path d="M 144.79637145996094 126.2647476196289 C 98.40116119384766 129.6575164794922 112.98382568359375 139.91952514648438 135.99868774414062 140.37576293945312" stroke-width="2" fill="none" stroke="rgb(0, 0, 0)" stroke-opacity="1.0" stroke-linecap="round" stroke-linejoin="round"/>
    <path d="M 116.21239471435547 76.44419860839844 C 155.06553649902344 71.63204956054688 130.9630584716797 106.69441986083984 169.62759399414062 59.00166702270508" stroke-width="2" fill="none" stroke="rgb(0, 0, 0)" stroke-opacity="1.0" stroke-linecap="round" stroke-linejoin="round"/>
    <path d="M 96.34674835205078 158.6163787841797 C 117.50018310546875 169.38580322265625 3.311382293701172 131.85110473632812 60.6286735534668 95.90023040771484" stroke-width="2" fill="none" stroke="rgb(0, 0, 0)" stroke-opacity="1.0" stroke-linecap="round" stroke-linejoin="round"/>
    <path d="M 150.79258728027344 115.52783966064453 C 185.06341552734375 143.91751098632812 134.6074676513672 93.71504974365234 154.97402954101562 127.12435913085938" stroke-width="2" fill="none" stroke="rgb(0, 0, 0)" stroke-opacity="1.0" stroke-linecap="round" stroke-linejoin="round"/>
    <path d="M 116.529296875 89.5723876953125 C 107.61974334716797 106.01609802246094 124.21431732177734 116.25015258789062 109.1639633178711 86.69480895996094" stroke-width="2" fill="none" stroke="rgb(0, 0, 0)" stroke-opacity="1.0" stroke-linecap="round" stroke-linejoin="round"/>
    <path d="M 159.08143615722656 75.08551025390625 C 213.73419189453125 -7.520261287689209 171.6970977783203 144.4519500732422 165.8861846923828 96.27445983886719" stroke-width="2" fill="none" stroke="rgb(0, 0, 0)" stroke-opacity="1.0" stroke-linecap="round" stroke-linejoin="round"/>
    <path d="M 171.2886199951172 104.69942474365234 C 184.291748046875 163.77664184570312 184.9652557373047 165.25196838378906 46.447776794433594 136.70262145996094" stroke-width="2" fill="none" stroke="rgb(0, 0, 0)" stroke-opacity="1.0" stroke-linecap="round" stroke-linejoin="round"/>
    <path d="M 44.642295837402344 117.18175506591797 C 52.09681701660156 136.83966064453125 21.69024658203125 136.55897521972656 82.83223724365234 153.20370483398438" stroke-width="2" fill="none" stroke="rgb(0, 0, 0)" stroke-opacity="1.0" stroke-linecap="round" stroke-linejoin="round"/>
    <path d="M 120.6261215209961 152.22511291503906 C 80.6296615600586 126.87272644042969 113.28669738769531 131.31019592285156 94.6362533569336 104.46102905273438" stroke-width="2" fill="none" stroke="rgb(0, 0, 0)" stroke-opacity="1.0" stroke-linecap="round" stroke-linejoin="round"/>
    <path d="M 155.94168090820312 132.04757690429688 C 181.4628448486328 159.07266235351562 203.4673614501953 -8.306788444519043 170.8822784423828 80.63735961914062" stroke-width="2" fill="none" stroke="rgb(0, 0, 0)" stroke-opacity="1.0" stroke-linecap="round" stroke-linejoin="round"/>
    <path d="M 92.55598449707031 107.07437896728516 C 66.83903503417969 92.3785171508789 109.16175842285156 86.26451873779297 52.302757263183594 96.70825958251953" stroke-width="2" fill="none" stroke="rgb(0, 0, 0)" stroke-opacity="1.0" stroke-linecap="round" stroke-linejoin="round"/>
  </g>
</svg>
