<?xml version="1.0" ?>
<svg xmlns="http://www.w3.org/2000/svg" version="1.1" width="224" height="224">
  <defs/>
  <g>
    <path d="M 161.53700256347656 123.8885726928711 C 135.72482299804688 106.94183349609375 211.36782836914062 124.70782470703125 137.94410705566406 135.5756072998047" stroke-width="2" fill="none" stroke="rgb(0, 0, 0)" stroke-opacity="1.0" stroke-linecap="round" stroke-linejoin="round"/>
    <path d="M 129.3104705810547 149.14154052734375 C 8.717524528503418 100.81835174560547 51.88754653930664 138.30755615234375 72.60494995117188 124.17608642578125" stroke-width="2" fill="none" stroke="rgb(0, 0, 0)" stroke-opacity="1.0" stroke-linecap="round" stroke-linejoin="round"/>
    <path d="M 119.79281616210938 103.34223937988281 C 119.6278305053711 126.92996978759766 113.02056121826172 89.70682525634766 149.06422424316406 96.80033111572266" stroke-width="2" fill="none" stroke="rgb(0, 0, 0)" stroke-opacity="1.0" stroke-linecap="round" stroke-linejoin="round"/>
    <path d="M 167.7332000732422 119.5494613647461 C 88.50867462158203 135.36495971679688 183.81808471679688 132.94192504882812 152.76564025878906 126.99816131591797" stroke-width="2" fill="none" stroke="rgb(0, 0, 0)" stroke-opacity="1.0" stroke-linecap="round" stroke-linejoin="round"/>
    <path d="M 134.24501037597656 165.70193481445312 C 112.45172119140625 148.42251586914062 247.2987060546875 162.5702362060547 106.6665267944336 151.71945190429688" stroke-width="2" fill="none" stroke="rgb(0, 0, 0)" stroke-opacity="1.0" stroke-linecap="round" stroke-linejoin="round"/>
    <path d="M 103.44274139404297 114.37249755859375 C 103.14846801757812 137.37274169921875 106.15991973876953 102.07427978515625 117.09700775146484 130.5659637451172" stroke-width="2" fill="none" stroke="rgb(0, 0, 0)" stroke-opacity="1.0" stroke-linecap="round" stroke-linejoin="round"/>
    <path d="M 97.95913696289062 111.04116821289062 C 88.08229064941406 1.6945639848709106 121.20243072509766 139.0631561279297 172.94619750976562 64.14987182617188" stroke-width="2" fill="none" stroke="rgb(0, 0, 0)" stroke-opacity="1.0" stroke-linecap="round" stroke-linejoin="round"/>
    <path d="M 61.8105583190918 110.76412200927734 C 26.55198860168457 119.24874114990234 36.73256301879883 160.88619995117188 79.4512710571289 158.7201385498047" stroke-width="2" fill="none" stroke="rgb(0, 0, 0)" stroke-opacity="1.0" stroke-linecap="round" stroke-linejoin="round"/>
    <path d="M 136.07125854492188 125.52430725097656 C 211.66055297851562 147.87327575683594 89.7952651977539 107.4771957397461 165.19393920898438 128.47027587890625" stroke-width="2" fill="none" stroke="rgb(0, 0, 0)" stroke-opacity="1.0" stroke-linecap="round" stroke-linejoin="round"/>
    <path d="M 74.27938842773438 133.25933837890625 C 87.88126373291016 119.2030258178711 60.5450553894043 122.17784118652344 78.40928649902344 132.07757568359375" stroke-width="2" fill="none" stroke="rgb(0, 0, 0)" stroke-opacity="1.0" stroke-linecap="round" stroke-linejoin="round"/>
    <path d="M 167.59518432617188 135.66854858398438 C 209.58949279785156 -10.854097366333008 151.66165161132812 97.78760528564453 140.2231903076172 94.98529052734375" stroke-width="2" fill="none" stroke="rgb(0, 0, 0)" stroke-opacity="1.0" stroke-linecap="round" stroke-linejoin="round"/>
    <path d="M 165.22390747070312 104.62731170654297 C 144.73927307128906 113.00359344482422 244.35919189453125 199.7050018310547 44.48783874511719 147.7637176513672" stroke-width="2" fill="none" stroke="rgb(0, 0, 0)" stroke-opacity="1.0" stroke-linecap="round" stroke-linejoin="round"/>
    <path d="M 99.75940704345703 101.43391418457031 C 22.0111026763916 86.85093688964844 38.76374053955078 157.08984375 99.61585998535156 151.21847534179688" stroke-width="2" fill="none" stroke="rgb(0, 0, 0)" stroke-opacity="1.0" stroke-linecap="round" stroke-linejoin="round"/>
    <path d="M 120.21363067626953 143.53927612304688 C 128.5743865966797 88.456787109375 119.98484802246094 125.53730010986328 100.61283874511719 71.46985626220703" stroke-width="2" fill="none" stroke="rgb(0, 0, 0)" stroke-opacity="1.0" stroke-linecap="round" stroke-linejoin="round"/>
    <path d="M 152.3853302001953 97.12068939208984 C 186.04324340820312 145.21556091308594 206.8699188232422 2.84447979927063 171.07504272460938 93.79265594482422" stroke-width="2" fill="none" stroke="rgb(0, 0, 0)" stroke-opacity="1.0" stroke-linecap="round" stroke-linejoin="round"/>
    <path d="M 136.37559509277344 111.29904174804688 C 67.79019165039062 138.99046325683594 197.5200958251953 152.89947509765625 147.43601989746094 137.23434448242188" stroke-width="2" fill="none" stroke="rgb(0, 0, 0)" stroke-opacity="1.0" stroke-linecap="round" stroke-linejoin="round"/>
  </g>
</svg>
