<?xml version="1.0" ?>
<svg xmlns="http://www.w3.org/2000/svg" version="1.1" width="224" height="224">
  <defs/>
  <g>
    <path d="M 136.87554931640625 122.04566955566406 C 78.85637664794922 127.16259765625 181.9654083251953 117.61822509765625 119.24406433105469 113.93160247802734" stroke-width="2" fill="none" stroke="rgb(0, 0, 0)" stroke-opacity="1.0" stroke-linecap="round" stroke-linejoin="round"/>
    <path d="M 120.78238677978516 137.48121643066406 C 73.62493133544922 106.44001007080078 198.81011962890625 141.0727081298828 156.20509338378906 151.11260986328125" stroke-width="2" fill="none" stroke="rgb(0, 0, 0)" stroke-opacity="1.0" stroke-linecap="round" stroke-linejoin="round"/>
    <path d="M 149.25575256347656 99.30751037597656 C 195.98521423339844 123.8006362915039 124.59909057617188 106.48929595947266 157.3222198486328 121.10440063476562" stroke-width="2" fill="none" stroke="rgb(0, 0, 0)" stroke-opacity="1.0" stroke-linecap="round" stroke-linejoin="round"/>
    <path d="M 152.06800842285156 133.59046936035156 C 94.88629150390625 129.9053192138672 228.72866821289062 142.83807373046875 127.68619537353516 157.6681671142578" stroke-width="2" fill="none" stroke="rgb(0, 0, 0)" stroke-opacity="1.0" stroke-linecap="round" stroke-linejoin="round"/>
    <path d="M 133.12730407714844 111.5470962524414 C 76.85395812988281 128.67140197753906 218.2408447265625 154.6458282470703 116.46409606933594 136.76695251464844" stroke-width="2" fill="none" stroke="rgb(0, 0, 0)" stroke-opacity="1.0" stroke-linecap="round" stroke-linejoin="round"/>
    <path d="M 136.45370483398438 125.65299224853516 C 102.98956298828125 120.99369812011719 88.97071838378906 133.1636962890625 144.23208618164062 147.30418395996094" stroke-width="2" fill="none" stroke="rgb(0, 0, 0)" stroke-opacity="1.0" stroke-linecap="round" stroke-linejoin="round"/>
    <path d="M 102.4919662475586 71.84505462646484 C 136.65057373046875 72.50645446777344 116.0203628540039 125.34195709228516 181.82106018066406 61.30450439453125" stroke-width="2" fill="none" stroke="rgb(0, 0, 0)" stroke-opacity="1.0" stroke-linecap="round" stroke-linejoin="round"/>
    <path d="M 115.22390747070312 158.44300842285156 C 81.22460174560547 154.91824340820312 11.64811897277832 152.84609985351562 60.5830192565918 103.04218292236328" stroke-width="2" fill="none" stroke="rgb(0, 0, 0)" stroke-opacity="1.0" stroke-linecap="round" stroke-linejoin="round"/>
    <path d="M 147.86627197265625 116.24504852294922 C 176.37803649902344 135.76368713378906 128.31239318847656 113.69945526123047 162.82766723632812 119.38583374023438" stroke-width="2" fill="none" stroke="rgb(0, 0, 0)" stroke-opacity="1.0" stroke-linecap="round" stroke-linejoin="round"/>
    <path d="M 93.75361633300781 121.57414245605469 C 119.27645111083984 156.806640625 151.41943359375 151.931884765625 100.13858032226562 135.4405059814453" stroke-width="2" fill="none" stroke="rgb(0, 0, 0)" stroke-opacity="1.0" stroke-linecap="round" stroke-linejoin="round"/>
    <path d="M 162.1064910888672 94.06056213378906 C 204.28509521484375 7.802175045013428 177.75100708007812 148.77728271484375 151.39981079101562 116.41053009033203" stroke-width="2" fill="none" stroke="rgb(0, 0, 0)" stroke-opacity="1.0" stroke-linecap="round" stroke-linejoin="round"/>
    <path d="M 160.75741577148438 114.9749984741211 C 162.3985137939453 171.44871520996094 179.2771453857422 170.6352081298828 58.183223724365234 159.707275390625" stroke-width="2" fill="none" stroke="rgb(0, 0, 0)" stroke-opacity="1.0" stroke-linecap="round" stroke-linejoin="round"/>
    <path d="M 49.65453338623047 133.5012664794922 C 70.45877075195312 146.1512451171875 21.263200759887695 125.53594970703125 112.38419342041016 148.0523681640625" stroke-width="2" fill="none" stroke="rgb(0, 0, 0)" stroke-opacity="1.0" stroke-linecap="round" stroke-linejoin="round"/>
    <path d="M 113.76490020751953 108.84786987304688 C 98.06865692138672 89.66087341308594 119.16344451904297 82.58946990966797 108.30709838867188 132.61160278320312" stroke-width="2" fill="none" stroke="rgb(0, 0, 0)" stroke-opacity="1.0" stroke-linecap="round" stroke-linejoin="round"/>
    <path d="M 153.35833740234375 124.74073028564453 C 175.3492889404297 148.10711669921875 201.09201049804688 -5.791867733001709 166.31053161621094 97.94940185546875" stroke-width="2" fill="none" stroke="rgb(0, 0, 0)" stroke-opacity="1.0" stroke-linecap="round" stroke-linejoin="round"/>
    <path d="M 70.18080139160156 95.08438110351562 C 29.17454719543457 114.54805755615234 97.57978820800781 101.96748352050781 74.89234924316406 108.71223449707031" stroke-width="2" fill="none" stroke="rgb(0, 0, 0)" stroke-opacity="1.0" stroke-linecap="round" stroke-linejoin="round"/>
  </g>
</svg>
