<?xml version="1.0" ?>
<svg xmlns="http://www.w3.org/2000/svg" version="1.1" width="224" height="224">
  <defs/>
  <g>
    <path d="M 147.8721160888672 143.53321838378906 C 119.00952911376953 142.12962341308594 222.5843505859375 156.0826873779297 115.47711181640625 113.43061065673828" stroke-width="2" fill="none" stroke="rgb(0, 0, 0)" stroke-opacity="1.0" stroke-linecap="round" stroke-linejoin="round"/>
    <path d="M 155.596435546875 133.2267608642578 C 55.4317512512207 93.87591552734375 127.90199279785156 95.04731750488281 108.30695343017578 129.04420471191406" stroke-width="2" fill="none" stroke="rgb(0, 0, 0)" stroke-opacity="1.0" stroke-linecap="round" stroke-linejoin="round"/>
    <path d="M 130.31971740722656 112.8531494140625 C 101.83241271972656 147.32620239257812 89.5669174194336 79.38709259033203 170.01719665527344 97.1103515625" stroke-width="2" fill="none" stroke="rgb(0, 0, 0)" stroke-opacity="1.0" stroke-linecap="round" stroke-linejoin="round"/>
    <path d="M 153.60433959960938 125.19446563720703 C 112.16633605957031 93.55481719970703 212.34182739257812 121.5429458618164 116.17381286621094 116.85099792480469" stroke-width="2" fill="none" stroke="rgb(0, 0, 0)" stroke-opacity="1.0" stroke-linecap="round" stroke-linejoin="round"/>
    <path d="M 135.3318328857422 146.33111572265625 C 45.110107421875 143.43783569335938 226.76690673828125 172.55831909179688 80.23638153076172 147.78219604492188" stroke-width="2" fill="none" stroke="rgb(0, 0, 0)" stroke-opacity="1.0" stroke-linecap="round" stroke-linejoin="round"/>
    <path d="M 88.09166717529297 111.92829895019531 C 50.56526184082031 130.2312469482422 87.08747100830078 112.24540710449219 87.18858337402344 127.06607055664062" stroke-width="2" fill="none" stroke="rgb(0, 0, 0)" stroke-opacity="1.0" stroke-linecap="round" stroke-linejoin="round"/>
    <path d="M 110.35200500488281 108.98571014404297 C 82.8884506225586 5.848517417907715 126.25904083251953 142.88502502441406 172.89212036132812 91.9186019897461" stroke-width="2" fill="none" stroke="rgb(0, 0, 0)" stroke-opacity="1.0" stroke-linecap="round" stroke-linejoin="round"/>
    <path d="M 50.483089447021484 147.39065551757812 C 39.09351348876953 132.8711700439453 26.025890350341797 152.709716796875 80.38336944580078 152.3828125" stroke-width="2" fill="none" stroke="rgb(0, 0, 0)" stroke-opacity="1.0" stroke-linecap="round" stroke-linejoin="round"/>
    <path d="M 114.00826263427734 134.2235870361328 C 194.50498962402344 149.9335174560547 144.31451416015625 108.87552642822266 113.03842163085938 115.92413330078125" stroke-width="2" fill="none" stroke="rgb(0, 0, 0)" stroke-opacity="1.0" stroke-linecap="round" stroke-linejoin="round"/>
    <path d="M 69.98402404785156 134.11807250976562 C 196.0737762451172 162.9785614013672 105.22418975830078 126.10185241699219 86.65949249267578 132.08995056152344" stroke-width="2" fill="none" stroke="rgb(0, 0, 0)" stroke-opacity="1.0" stroke-linecap="round" stroke-linejoin="round"/>
    <path d="M 160.0906982421875 108.11839294433594 C 207.51162719726562 3.425417900085449 162.67501831054688 101.87097930908203 141.60137939453125 99.21331787109375" stroke-width="2" fill="none" stroke="rgb(0, 0, 0)" stroke-opacity="1.0" stroke-linecap="round" stroke-linejoin="round"/>
    <path d="M 172.2783966064453 119.49105072021484 C 140.3790283203125 135.40577697753906 232.09359741210938 183.58824157714844 52.050865173339844 147.03369140625" stroke-width="2" fill="none" stroke="rgb(0, 0, 0)" stroke-opacity="1.0" stroke-linecap="round" stroke-linejoin="round"/>
    <path d="M 107.42993927001953 91.94564819335938 C 23.883594512939453 73.64021301269531 -1.6731058359146118 168.21511840820312 106.38278198242188 158.46580505371094" stroke-width="2" fill="none" stroke="rgb(0, 0, 0)" stroke-opacity="1.0" stroke-linecap="round" stroke-linejoin="round"/>
    <path d="M 128.73353576660156 121.83003997802734 C 184.26817321777344 130.1214141845703 106.37528228759766 140.0961456298828 158.8338623046875 125.90977478027344" stroke-width="2" fill="none" stroke="rgb(0, 0, 0)" stroke-opacity="1.0" stroke-linecap="round" stroke-linejoin="round"/>
    <path d="M 154.4882049560547 100.02322387695312 C 172.2429656982422 170.3727569580078 192.9397735595703 4.587683200836182 166.63916015625 78.36164093017578" stroke-width="2" fill="none" stroke="rgb(0, 0, 0)" stroke-opacity="1.0" stroke-linecap="round" stroke-linejoin="round"/>
    <path d="M 151.49493408203125 123.11541748046875 C 54.9306526184082 121.0369644165039 151.77232360839844 114.91730499267578 129.1528778076172 107.19744873046875" stroke-width="2" fill="none" stroke="rgb(0, 0, 0)" stroke-opacity="1.0" stroke-linecap="round" stroke-linejoin="round"/>
  </g>
</svg>
