<?xml version="1.0" ?>
<svg xmlns="http://www.w3.org/2000/svg" version="1.1" width="224" height="224">
  <defs/>
  <g>
    <path d="M 139.1451416015625 114.03659057617188 C 83.9126968383789 118.93953704833984 177.47410583496094 110.07618713378906 127.04031372070312 103.3978042602539" stroke-width="2" fill="none" stroke="rgb(0, 0, 0)" stroke-opacity="1.0" stroke-linecap="round" stroke-linejoin="round"/>
    <path d="M 103.22264862060547 150.8296661376953 C 57.23728942871094 116.62855529785156 188.8214569091797 142.95855712890625 174.8839569091797 146.5392303466797" stroke-width="2" fill="none" stroke="rgb(0, 0, 0)" stroke-opacity="1.0" stroke-linecap="round" stroke-linejoin="round"/>
    <path d="M 164.78140258789062 92.8783950805664 C 204.09963989257812 110.99137878417969 118.16218566894531 99.55609893798828 166.31692504882812 111.52323150634766" stroke-width="2" fill="none" stroke="rgb(0, 0, 0)" stroke-opacity="1.0" stroke-linecap="round" stroke-linejoin="round"/>
    <path d="M 146.61117553710938 126.69807434082031 C 86.17780303955078 134.17503356933594 226.04690551757812 141.4550018310547 163.55992126464844 161.2832489013672" stroke-width="2" fill="none" stroke="rgb(0, 0, 0)" stroke-opacity="1.0" stroke-linecap="round" stroke-linejoin="round"/>
    <path d="M 135.03746032714844 109.605712890625 C 65.23951721191406 140.60572814941406 210.31710815429688 148.2466583251953 120.00050354003906 139.467529296875" stroke-width="2" fill="none" stroke="rgb(0, 0, 0)" stroke-opacity="1.0" stroke-linecap="round" stroke-linejoin="round"/>
    <path d="M 135.5959930419922 117.06700897216797 C 112.40937042236328 109.90332794189453 99.0022964477539 134.6575469970703 153.75137329101562 132.3697509765625" stroke-width="2" fill="none" stroke="rgb(0, 0, 0)" stroke-opacity="1.0" stroke-linecap="round" stroke-linejoin="round"/>
    <path d="M 97.09394836425781 75.75119018554688 C 143.28285217285156 58.155975341796875 108.98535919189453 115.36734771728516 170.75314331054688 55.78466033935547" stroke-width="2" fill="none" stroke="rgb(0, 0, 0)" stroke-opacity="1.0" stroke-linecap="round" stroke-linejoin="round"/>
    <path d="M 114.18761444091797 147.41590881347656 C 80.45015716552734 156.7097625732422 2.5393967628479004 149.34242248535156 47.67731857299805 106.22335815429688" stroke-width="2" fill="none" stroke="rgb(0, 0, 0)" stroke-opacity="1.0" stroke-linecap="round" stroke-linejoin="round"/>
    <path d="M 156.78797912597656 134.31460571289062 C 204.83387756347656 127.60449981689453 123.67498779296875 109.50315856933594 168.3970489501953 113.72842407226562" stroke-width="2" fill="none" stroke="rgb(0, 0, 0)" stroke-opacity="1.0" stroke-linecap="round" stroke-linejoin="round"/>
    <path d="M 119.78038787841797 115.08769989013672 C 107.43424224853516 153.56297302246094 130.50869750976562 153.8192138671875 89.16880798339844 118.44374084472656" stroke-width="2" fill="none" stroke="rgb(0, 0, 0)" stroke-opacity="1.0" stroke-linecap="round" stroke-linejoin="round"/>
    <path d="M 163.4652099609375 83.0047378540039 C 207.36102294921875 4.33159875869751 181.74111938476562 138.35299682617188 152.9759063720703 109.24562072753906" stroke-width="2" fill="none" stroke="rgb(0, 0, 0)" stroke-opacity="1.0" stroke-linecap="round" stroke-linejoin="round"/>
    <path d="M 161.59568786621094 107.63990020751953 C 185.43310546875 161.9268798828125 189.7192840576172 165.38351440429688 56.16813659667969 135.95069885253906" stroke-width="2" fill="none" stroke="rgb(0, 0, 0)" stroke-opacity="1.0" stroke-linecap="round" stroke-linejoin="round"/>
    <path d="M 37.6446418762207 129.0121612548828 C 70.79951477050781 159.18634033203125 32.21636962890625 126.19800567626953 93.8995132446289 152.71685791015625" stroke-width="2" fill="none" stroke="rgb(0, 0, 0)" stroke-opacity="1.0" stroke-linecap="round" stroke-linejoin="round"/>
    <path d="M 111.14136505126953 115.0929946899414 C 91.27476501464844 90.9005355834961 103.41838836669922 99.65575408935547 107.40745544433594 129.26638793945312" stroke-width="2" fill="none" stroke="rgb(0, 0, 0)" stroke-opacity="1.0" stroke-linecap="round" stroke-linejoin="round"/>
    <path d="M 158.2048797607422 135.581787109375 C 186.64126586914062 141.97866821289062 198.94461059570312 -16.782512664794922 173.12197875976562 93.68836212158203" stroke-width="2" fill="none" stroke="rgb(0, 0, 0)" stroke-opacity="1.0" stroke-linecap="round" stroke-linejoin="round"/>
    <path d="M 88.75299835205078 102.27406311035156 C 22.906341552734375 105.78141021728516 82.6760025024414 96.9687728881836 58.03339385986328 104.18704986572266" stroke-width="2" fill="none" stroke="rgb(0, 0, 0)" stroke-opacity="1.0" stroke-linecap="round" stroke-linejoin="round"/>
  </g>
</svg>
