<?xml version="1.0" ?>
<svg xmlns="http://www.w3.org/2000/svg" version="1.1" width="224" height="224">
  <defs/>
  <g>
    <path d="M 110.57299041748047 130.157470703125 C 126.18040466308594 117.27511596679688 190.5758056640625 108.59346008300781 135.4891815185547 110.17815399169922" stroke-width="2" fill="none" stroke="rgb(0, 0, 0)" stroke-opacity="1.0" stroke-linecap="round" stroke-linejoin="round"/>
    <path d="M 39.92095947265625 138.70220947265625 C 46.44649887084961 101.71284484863281 118.20668029785156 105.51607513427734 90.85551452636719 110.41991424560547" stroke-width="2" fill="none" stroke="rgb(0, 0, 0)" stroke-opacity="1.0" stroke-linecap="round" stroke-linejoin="round"/>
    <path d="M 162.38951110839844 132.07948303222656 C 76.02300262451172 139.13893127441406 118.34209442138672 59.78105926513672 154.3354034423828 94.91520690917969" stroke-width="2" fill="none" stroke="rgb(0, 0, 0)" stroke-opacity="1.0" stroke-linecap="round" stroke-linejoin="round"/>
    <path d="M 179.03773498535156 105.39996337890625 C 151.6486053466797 140.7108612060547 209.51332092285156 146.8228302001953 113.82235717773438 119.87893676757812" stroke-width="2" fill="none" stroke="rgb(0, 0, 0)" stroke-opacity="1.0" stroke-linecap="round" stroke-linejoin="round"/>
    <path d="M 107.81706237792969 139.6306915283203 C 55.502037048339844 130.36029052734375 229.84861755371094 161.57313537597656 87.98057556152344 121.25983428955078" stroke-width="2" fill="none" stroke="rgb(0, 0, 0)" stroke-opacity="1.0" stroke-linecap="round" stroke-linejoin="round"/>
    <path d="M 47.2808837890625 114.68795013427734 C 43.17446517944336 148.3629608154297 47.59284591674805 90.7025375366211 69.32340240478516 121.22777557373047" stroke-width="2" fill="none" stroke="rgb(0, 0, 0)" stroke-opacity="1.0" stroke-linecap="round" stroke-linejoin="round"/>
    <path d="M 104.51095581054688 109.70816802978516 C 75.5904769897461 6.574987411499023 137.379150390625 116.10173034667969 112.78324890136719 81.85507202148438" stroke-width="2" fill="none" stroke="rgb(0, 0, 0)" stroke-opacity="1.0" stroke-linecap="round" stroke-linejoin="round"/>
    <path d="M 79.12004852294922 137.66415405273438 C 80.17610931396484 127.73320770263672 45.91049575805664 134.25205993652344 89.94346618652344 145.21461486816406" stroke-width="2" fill="none" stroke="rgb(0, 0, 0)" stroke-opacity="1.0" stroke-linecap="round" stroke-linejoin="round"/>
    <path d="M 115.43570709228516 122.64886474609375 C 145.74359130859375 98.78831481933594 69.39024353027344 140.63327026367188 150.22518920898438 135.15699768066406" stroke-width="2" fill="none" stroke="rgb(0, 0, 0)" stroke-opacity="1.0" stroke-linecap="round" stroke-linejoin="round"/>
    <path d="M 154.40069580078125 124.88902282714844 C 193.86761474609375 124.37310028076172 89.83411407470703 101.95687866210938 157.41726684570312 119.51045227050781" stroke-width="2" fill="none" stroke="rgb(0, 0, 0)" stroke-opacity="1.0" stroke-linecap="round" stroke-linejoin="round"/>
    <path d="M 166.25433349609375 90.74126434326172 C 218.7361297607422 14.50473690032959 158.18971252441406 130.543701171875 106.78423309326172 76.9176025390625" stroke-width="2" fill="none" stroke="rgb(0, 0, 0)" stroke-opacity="1.0" stroke-linecap="round" stroke-linejoin="round"/>
    <path d="M 153.245849609375 90.86174011230469 C 126.27106475830078 75.71533203125 258.51080322265625 168.6912841796875 58.39204025268555 142.23585510253906" stroke-width="2" fill="none" stroke="rgb(0, 0, 0)" stroke-opacity="1.0" stroke-linecap="round" stroke-linejoin="round"/>
    <path d="M 33.6280632019043 148.1026611328125 C 34.36959457397461 137.13821411132812 25.65785026550293 161.7724151611328 73.0604019165039 155.55975341796875" stroke-width="2" fill="none" stroke="rgb(0, 0, 0)" stroke-opacity="1.0" stroke-linecap="round" stroke-linejoin="round"/>
    <path d="M 164.65838623046875 153.6033935546875 C 188.51124572753906 131.32943725585938 160.4249725341797 132.26075744628906 157.21588134765625 132.58346557617188" stroke-width="2" fill="none" stroke="rgb(0, 0, 0)" stroke-opacity="1.0" stroke-linecap="round" stroke-linejoin="round"/>
    <path d="M 169.6124725341797 95.91786193847656 C 179.4936981201172 139.99484252929688 215.47125244140625 1.6181124448776245 158.66004943847656 87.65558624267578" stroke-width="2" fill="none" stroke="rgb(0, 0, 0)" stroke-opacity="1.0" stroke-linecap="round" stroke-linejoin="round"/>
    <path d="M 151.60052490234375 146.0675811767578 C 57.00117111206055 133.3775177001953 152.1774444580078 121.51305389404297 116.94345092773438 131.13616943359375" stroke-width="2" fill="none" stroke="rgb(0, 0, 0)" stroke-opacity="1.0" stroke-linecap="round" stroke-linejoin="round"/>
  </g>
</svg>
