<?xml version="1.0" ?>
<svg xmlns="http://www.w3.org/2000/svg" version="1.1" width="224" height="224">
  <defs/>
  <g>
    <path d="M 125.56163787841797 125.70565032958984 C 85.30376434326172 123.84490203857422 200.0219268798828 145.08348083496094 139.17132568359375 141.83680725097656" stroke-width="2" fill="none" stroke="rgb(0, 0, 0)" stroke-opacity="1.0" stroke-linecap="round" stroke-linejoin="round"/>
    <path d="M 113.0542984008789 138.65988159179688 C 62.16404724121094 120.71807861328125 134.64215087890625 160.36061096191406 157.6341552734375 149.65753173828125" stroke-width="2" fill="none" stroke="rgb(0, 0, 0)" stroke-opacity="1.0" stroke-linecap="round" stroke-linejoin="round"/>
    <path d="M 177.06089782714844 90.15260314941406 C 166.94805908203125 150.72328186035156 124.36257934570312 87.6524658203125 164.73973083496094 88.19322204589844" stroke-width="2" fill="none" stroke="rgb(0, 0, 0)" stroke-opacity="1.0" stroke-linecap="round" stroke-linejoin="round"/>
    <path d="M 150.81661987304688 132.0571746826172 C 141.59022521972656 100.74238586425781 169.71005249023438 146.1016387939453 140.07371520996094 118.42062377929688" stroke-width="2" fill="none" stroke="rgb(0, 0, 0)" stroke-opacity="1.0" stroke-linecap="round" stroke-linejoin="round"/>
    <path d="M 162.86236572265625 108.50164794921875 C 121.71443939208984 74.87324523925781 253.8037567138672 197.4690399169922 66.15178680419922 147.8177490234375" stroke-width="2" fill="none" stroke="rgb(0, 0, 0)" stroke-opacity="1.0" stroke-linecap="round" stroke-linejoin="round"/>
    <path d="M 155.9104766845703 125.04403686523438 C 111.09110260009766 115.5867919921875 143.1936798095703 134.7558135986328 155.03311157226562 115.11034393310547" stroke-width="2" fill="none" stroke="rgb(0, 0, 0)" stroke-opacity="1.0" stroke-linecap="round" stroke-linejoin="round"/>
    <path d="M 100.46473693847656 74.12601470947266 C 96.27100372314453 32.84120559692383 147.10940551757812 153.74966430664062 168.4680633544922 72.6374740600586" stroke-width="2" fill="none" stroke="rgb(0, 0, 0)" stroke-opacity="1.0" stroke-linecap="round" stroke-linejoin="round"/>
    <path d="M 65.588623046875 104.89540100097656 C 98.18444061279297 116.25184631347656 37.497169494628906 78.01040649414062 43.480045318603516 126.08010864257812" stroke-width="2" fill="none" stroke="rgb(0, 0, 0)" stroke-opacity="1.0" stroke-linecap="round" stroke-linejoin="round"/>
    <path d="M 135.1527099609375 117.55148315429688 C 166.27162170410156 133.99049377441406 85.4930648803711 125.76004791259766 111.75875091552734 148.13880920410156" stroke-width="2" fill="none" stroke="rgb(0, 0, 0)" stroke-opacity="1.0" stroke-linecap="round" stroke-linejoin="round"/>
    <path d="M 128.0284881591797 105.10224914550781 C 81.93817138671875 137.9226837158203 149.55905151367188 125.23600006103516 117.68403625488281 125.69802856445312" stroke-width="2" fill="none" stroke="rgb(0, 0, 0)" stroke-opacity="1.0" stroke-linecap="round" stroke-linejoin="round"/>
    <path d="M 169.53738403320312 97.341796875 C 198.11900329589844 14.016853332519531 168.80006408691406 107.44580841064453 116.05709838867188 92.27336883544922" stroke-width="2" fill="none" stroke="rgb(0, 0, 0)" stroke-opacity="1.0" stroke-linecap="round" stroke-linejoin="round"/>
    <path d="M 169.85317993164062 112.3653335571289 C 146.27992248535156 163.1910400390625 211.5963134765625 184.59197998046875 68.76293182373047 143.28260803222656" stroke-width="2" fill="none" stroke="rgb(0, 0, 0)" stroke-opacity="1.0" stroke-linecap="round" stroke-linejoin="round"/>
    <path d="M 96.36680603027344 97.33781433105469 C 44.21406936645508 87.84245300292969 -2.0326125621795654 151.2113494873047 92.5245361328125 150.33758544921875" stroke-width="2" fill="none" stroke="rgb(0, 0, 0)" stroke-opacity="1.0" stroke-linecap="round" stroke-linejoin="round"/>
    <path d="M 101.40444946289062 108.26394653320312 C 122.50888061523438 118.95716857910156 120.9881362915039 179.6114044189453 108.15203857421875 73.02677154541016" stroke-width="2" fill="none" stroke="rgb(0, 0, 0)" stroke-opacity="1.0" stroke-linecap="round" stroke-linejoin="round"/>
    <path d="M 180.69580078125 92.87448120117188 C 168.85189819335938 102.85248565673828 213.89913940429688 18.4288330078125 151.54420471191406 80.7809829711914" stroke-width="2" fill="none" stroke="rgb(0, 0, 0)" stroke-opacity="1.0" stroke-linecap="round" stroke-linejoin="round"/>
    <path d="M 129.47848510742188 144.5414276123047 C 70.7122573852539 130.78250122070312 107.83386993408203 119.99614715576172 81.21612548828125 117.6437759399414" stroke-width="2" fill="none" stroke="rgb(0, 0, 0)" stroke-opacity="1.0" stroke-linecap="round" stroke-linejoin="round"/>
  </g>
</svg>
