<?xml version="1.0" ?>
<svg xmlns="http://www.w3.org/2000/svg" version="1.1" width="224" height="224">
  <defs/>
  <g>
    <path d="M 151.34291076660156 134.2539520263672 C 104.48249053955078 118.23151397705078 227.75547790527344 141.945556640625 142.95579528808594 131.0082550048828" stroke-width="2" fill="none" stroke="rgb(0, 0, 0)" stroke-opacity="1.0" stroke-linecap="round" stroke-linejoin="round"/>
    <path d="M 164.33192443847656 141.2263641357422 C 77.47964477539062 147.9768829345703 117.19694519042969 130.11831665039062 92.6731948852539 137.0873260498047" stroke-width="2" fill="none" stroke="rgb(0, 0, 0)" stroke-opacity="1.0" stroke-linecap="round" stroke-linejoin="round"/>
    <path d="M 167.37757873535156 103.62896728515625 C 133.06163024902344 119.74465942382812 102.76528930664062 83.85572814941406 165.3760223388672 89.78844451904297" stroke-width="2" fill="none" stroke="rgb(0, 0, 0)" stroke-opacity="1.0" stroke-linecap="round" stroke-linejoin="round"/>
    <path d="M 170.7763214111328 109.34385681152344 C 147.1287841796875 126.08422088623047 189.31155395507812 113.40068817138672 155.65484619140625 94.15766143798828" stroke-width="2" fill="none" stroke="rgb(0, 0, 0)" stroke-opacity="1.0" stroke-linecap="round" stroke-linejoin="round"/>
    <path d="M 137.17709350585938 119.5719985961914 C 138.16444396972656 79.2756118774414 245.25306701660156 160.27911376953125 70.80509185791016 133.5386505126953" stroke-width="2" fill="none" stroke="rgb(0, 0, 0)" stroke-opacity="1.0" stroke-linecap="round" stroke-linejoin="round"/>
    <path d="M 164.924072265625 103.82318878173828 C 45.140865325927734 103.35757446289062 114.52397918701172 104.22486877441406 112.29203033447266 120.42044830322266" stroke-width="2" fill="none" stroke="rgb(0, 0, 0)" stroke-opacity="1.0" stroke-linecap="round" stroke-linejoin="round"/>
    <path d="M 104.37510681152344 101.9075927734375 C 93.02678680419922 -11.425045013427734 123.71976470947266 134.4796600341797 166.4444122314453 73.058837890625" stroke-width="2" fill="none" stroke="rgb(0, 0, 0)" stroke-opacity="1.0" stroke-linecap="round" stroke-linejoin="round"/>
    <path d="M 44.76762008666992 114.08983612060547 C 49.12906265258789 140.93568420410156 44.28196716308594 108.58858489990234 51.06087875366211 113.5062255859375" stroke-width="2" fill="none" stroke="rgb(0, 0, 0)" stroke-opacity="1.0" stroke-linecap="round" stroke-linejoin="round"/>
    <path d="M 64.51021575927734 154.17967224121094 C 284.5560607910156 164.57760620117188 59.26411056518555 140.13160705566406 133.2114715576172 127.33357238769531" stroke-width="2" fill="none" stroke="rgb(0, 0, 0)" stroke-opacity="1.0" stroke-linecap="round" stroke-linejoin="round"/>
    <path d="M 141.72377014160156 138.32667541503906 C 67.85237121582031 139.21165466308594 102.58949279785156 125.24732971191406 100.0523452758789 134.33804321289062" stroke-width="2" fill="none" stroke="rgb(0, 0, 0)" stroke-opacity="1.0" stroke-linecap="round" stroke-linejoin="round"/>
    <path d="M 172.81410217285156 107.78227233886719 C 199.2016143798828 10.371258735656738 177.52781677246094 126.4635009765625 153.83543395996094 89.58464050292969" stroke-width="2" fill="none" stroke="rgb(0, 0, 0)" stroke-opacity="1.0" stroke-linecap="round" stroke-linejoin="round"/>
    <path d="M 173.25753784179688 128.7959442138672 C 155.60972595214844 117.90465545654297 237.81430053710938 176.8573455810547 76.11351776123047 141.9169464111328" stroke-width="2" fill="none" stroke="rgb(0, 0, 0)" stroke-opacity="1.0" stroke-linecap="round" stroke-linejoin="round"/>
    <path d="M 93.67601776123047 96.2956771850586 C 46.30683135986328 76.99020385742188 8.580110549926758 153.24063110351562 71.38583374023438 149.23562622070312" stroke-width="2" fill="none" stroke="rgb(0, 0, 0)" stroke-opacity="1.0" stroke-linecap="round" stroke-linejoin="round"/>
    <path d="M 118.22868347167969 109.41890716552734 C 138.3160858154297 93.65408325195312 119.38294982910156 116.57923889160156 109.9256591796875 70.33502197265625" stroke-width="2" fill="none" stroke="rgb(0, 0, 0)" stroke-opacity="1.0" stroke-linecap="round" stroke-linejoin="round"/>
    <path d="M 159.7430877685547 111.39303588867188 C 171.627197265625 111.11743927001953 200.23309326171875 20.411575317382812 170.2777099609375 76.54156494140625" stroke-width="2" fill="none" stroke="rgb(0, 0, 0)" stroke-opacity="1.0" stroke-linecap="round" stroke-linejoin="round"/>
    <path d="M 164.25704956054688 138.84278869628906 C 122.04039001464844 120.14154052734375 194.28500366210938 125.62711334228516 135.58956909179688 140.6505889892578" stroke-width="2" fill="none" stroke="rgb(0, 0, 0)" stroke-opacity="1.0" stroke-linecap="round" stroke-linejoin="round"/>
  </g>
</svg>
