<?xml version="1.0" ?>
<svg xmlns="http://www.w3.org/2000/svg" version="1.1" width="224" height="224">
  <defs/>
  <g>
    <path d="M 164.8662109375 124.09778594970703 C 97.17996215820312 122.57327270507812 213.69493103027344 125.57799530029297 132.14076232910156 140.35841369628906" stroke-width="2" fill="none" stroke="rgb(0, 0, 0)" stroke-opacity="1.0" stroke-linecap="round" stroke-linejoin="round"/>
    <path d="M 162.27862548828125 140.2357940673828 C 30.154695510864258 153.1479034423828 82.49439239501953 132.8995819091797 56.62037658691406 132.3364715576172" stroke-width="2" fill="none" stroke="rgb(0, 0, 0)" stroke-opacity="1.0" stroke-linecap="round" stroke-linejoin="round"/>
    <path d="M 142.30410766601562 118.82931518554688 C 137.15151977539062 143.7288055419922 97.14645385742188 94.81092834472656 165.90394592285156 103.03984832763672" stroke-width="2" fill="none" stroke="rgb(0, 0, 0)" stroke-opacity="1.0" stroke-linecap="round" stroke-linejoin="round"/>
    <path d="M 167.05538940429688 126.48657989501953 C 117.52139282226562 134.4811553955078 175.90467834472656 119.5026626586914 130.4805145263672 125.70482635498047" stroke-width="2" fill="none" stroke="rgb(0, 0, 0)" stroke-opacity="1.0" stroke-linecap="round" stroke-linejoin="round"/>
    <path d="M 153.78768920898438 131.96983337402344 C 118.87966918945312 104.83348846435547 234.2582244873047 174.16571044921875 100.03787994384766 135.40843200683594" stroke-width="2" fill="none" stroke="rgb(0, 0, 0)" stroke-opacity="1.0" stroke-linecap="round" stroke-linejoin="round"/>
    <path d="M 106.88060760498047 97.54572296142578 C 92.28409576416016 137.45225524902344 122.7454833984375 89.94493103027344 106.03755950927734 116.83955383300781" stroke-width="2" fill="none" stroke="rgb(0, 0, 0)" stroke-opacity="1.0" stroke-linecap="round" stroke-linejoin="round"/>
    <path d="M 95.01187133789062 95.59803771972656 C 92.7036361694336 9.053152084350586 142.53114318847656 158.8406982421875 169.06744384765625 84.32476806640625" stroke-width="2" fill="none" stroke="rgb(0, 0, 0)" stroke-opacity="1.0" stroke-linecap="round" stroke-linejoin="round"/>
    <path d="M 58.41041564941406 107.71002960205078 C 23.38901138305664 142.37249755859375 40.78459548950195 141.78494262695312 76.34903717041016 153.8516387939453" stroke-width="2" fill="none" stroke="rgb(0, 0, 0)" stroke-opacity="1.0" stroke-linecap="round" stroke-linejoin="round"/>
    <path d="M 85.67106628417969 144.10946655273438 C 273.5517578125 185.93374633789062 90.2628173828125 117.74686431884766 123.74267578125 137.8506622314453" stroke-width="2" fill="none" stroke="rgb(0, 0, 0)" stroke-opacity="1.0" stroke-linecap="round" stroke-linejoin="round"/>
    <path d="M 98.88896942138672 127.90624237060547 C 71.93791961669922 117.64750671386719 97.74385070800781 128.97842407226562 101.38738250732422 120.7452621459961" stroke-width="2" fill="none" stroke="rgb(0, 0, 0)" stroke-opacity="1.0" stroke-linecap="round" stroke-linejoin="round"/>
    <path d="M 169.0998077392578 108.91890716552734 C 195.0968780517578 29.28663444519043 159.67811584472656 96.766357421875 139.56768798828125 94.28828430175781" stroke-width="2" fill="none" stroke="rgb(0, 0, 0)" stroke-opacity="1.0" stroke-linecap="round" stroke-linejoin="round"/>
    <path d="M 181.69224548339844 107.34081268310547 C 149.58421325683594 117.72272491455078 251.5697784423828 200.26109313964844 51.01240921020508 145.70730590820312" stroke-width="2" fill="none" stroke="rgb(0, 0, 0)" stroke-opacity="1.0" stroke-linecap="round" stroke-linejoin="round"/>
    <path d="M 95.40936279296875 99.9437255859375 C 31.047853469848633 82.16244506835938 25.22418975830078 168.6111602783203 111.3302993774414 156.41383361816406" stroke-width="2" fill="none" stroke="rgb(0, 0, 0)" stroke-opacity="1.0" stroke-linecap="round" stroke-linejoin="round"/>
    <path d="M 136.10931396484375 134.50115966796875 C 119.06669616699219 76.4432373046875 110.40460968017578 145.1136474609375 100.27363586425781 69.53221130371094" stroke-width="2" fill="none" stroke="rgb(0, 0, 0)" stroke-opacity="1.0" stroke-linecap="round" stroke-linejoin="round"/>
    <path d="M 158.50448608398438 111.44158935546875 C 183.98960876464844 157.0526123046875 198.62875366210938 17.027202606201172 175.61668395996094 78.12638854980469" stroke-width="2" fill="none" stroke="rgb(0, 0, 0)" stroke-opacity="1.0" stroke-linecap="round" stroke-linejoin="round"/>
    <path d="M 165.8195343017578 128.27749633789062 C 130.56069946289062 149.57786560058594 205.31939697265625 139.78892517089844 124.52772521972656 134.5824432373047" stroke-width="2" fill="none" stroke="rgb(0, 0, 0)" stroke-opacity="1.0" stroke-linecap="round" stroke-linejoin="round"/>
  </g>
</svg>
