<?xml version="1.0" ?>
<svg xmlns="http://www.w3.org/2000/svg" version="1.1" width="224" height="224">
  <defs/>
  <g>
    <path d="M 135.97119140625 96.26531982421875 C 74.42024230957031 135.79603576660156 193.67298889160156 147.93077087402344 132.87220764160156 130.94680786132812" stroke-width="2" fill="none" stroke="rgb(0, 0, 0)" stroke-opacity="1.0" stroke-linecap="round" stroke-linejoin="round"/>
    <path d="M 123.57727813720703 126.7978286743164 C 76.85894012451172 106.3002700805664 128.6046905517578 139.32769775390625 124.17247009277344 107.90502166748047" stroke-width="2" fill="none" stroke="rgb(0, 0, 0)" stroke-opacity="1.0" stroke-linecap="round" stroke-linejoin="round"/>
    <path d="M 179.9701690673828 90.70906829833984 C 174.0595245361328 145.80958557128906 122.52655029296875 80.28839874267578 162.31320190429688 91.18894958496094" stroke-width="2" fill="none" stroke="rgb(0, 0, 0)" stroke-opacity="1.0" stroke-linecap="round" stroke-linejoin="round"/>
    <path d="M 154.97219848632812 127.624755859375 C 162.8369598388672 95.09457397460938 165.56922912597656 136.6745147705078 145.66477966308594 119.28390502929688" stroke-width="2" fill="none" stroke="rgb(0, 0, 0)" stroke-opacity="1.0" stroke-linecap="round" stroke-linejoin="round"/>
    <path d="M 163.7924346923828 117.67658996582031 C 125.1430892944336 75.97347259521484 272.3471374511719 196.43421936035156 46.25613021850586 142.06414794921875" stroke-width="2" fill="none" stroke="rgb(0, 0, 0)" stroke-opacity="1.0" stroke-linecap="round" stroke-linejoin="round"/>
    <path d="M 163.08999633789062 122.20538330078125 C 115.1506118774414 113.42771911621094 171.1067657470703 137.73690795898438 144.40264892578125 121.22900390625" stroke-width="2" fill="none" stroke="rgb(0, 0, 0)" stroke-opacity="1.0" stroke-linecap="round" stroke-linejoin="round"/>
    <path d="M 103.95404052734375 91.63724517822266 C 92.0619125366211 19.35411262512207 143.07113647460938 146.4379425048828 177.382080078125 83.15950012207031" stroke-width="2" fill="none" stroke="rgb(0, 0, 0)" stroke-opacity="1.0" stroke-linecap="round" stroke-linejoin="round"/>
    <path d="M 112.94139862060547 96.7562255859375 C 106.5523910522461 127.23548126220703 45.59462356567383 75.4646224975586 48.64472961425781 121.41221618652344" stroke-width="2" fill="none" stroke="rgb(0, 0, 0)" stroke-opacity="1.0" stroke-linecap="round" stroke-linejoin="round"/>
    <path d="M 117.63841247558594 132.23391723632812 C 194.5085906982422 136.5904083251953 97.69344329833984 142.28515625 153.126953125 133.34190368652344" stroke-width="2" fill="none" stroke="rgb(0, 0, 0)" stroke-opacity="1.0" stroke-linecap="round" stroke-linejoin="round"/>
    <path d="M 121.83478546142578 115.03205108642578 C 80.57420349121094 146.35452270507812 174.8421630859375 104.95687866210938 108.29362487792969 124.19155883789062" stroke-width="2" fill="none" stroke="rgb(0, 0, 0)" stroke-opacity="1.0" stroke-linecap="round" stroke-linejoin="round"/>
    <path d="M 167.22276306152344 104.26502227783203 C 202.64141845703125 8.763542175292969 169.06234741210938 107.61507415771484 127.55074310302734 88.90544891357422" stroke-width="2" fill="none" stroke="rgb(0, 0, 0)" stroke-opacity="1.0" stroke-linecap="round" stroke-linejoin="round"/>
    <path d="M 180.8887176513672 104.994140625 C 143.55113220214844 162.74441528320312 228.46026611328125 151.09693908691406 74.34257507324219 136.88473510742188" stroke-width="2" fill="none" stroke="rgb(0, 0, 0)" stroke-opacity="1.0" stroke-linecap="round" stroke-linejoin="round"/>
    <path d="M 97.8513412475586 93.45482635498047 C 37.64339065551758 88.33612823486328 11.739795684814453 159.82083129882812 80.40231323242188 145.19798278808594" stroke-width="2" fill="none" stroke="rgb(0, 0, 0)" stroke-opacity="1.0" stroke-linecap="round" stroke-linejoin="round"/>
    <path d="M 104.01515197753906 107.08798217773438 C 136.123779296875 108.19065856933594 126.8934326171875 160.32232666015625 100.35186767578125 71.89058685302734" stroke-width="2" fill="none" stroke="rgb(0, 0, 0)" stroke-opacity="1.0" stroke-linecap="round" stroke-linejoin="round"/>
    <path d="M 182.6896514892578 98.12554168701172 C 180.77734375 107.43855285644531 203.70663452148438 13.4800386428833 171.37045288085938 97.46699523925781" stroke-width="2" fill="none" stroke="rgb(0, 0, 0)" stroke-opacity="1.0" stroke-linecap="round" stroke-linejoin="round"/>
    <path d="M 109.47698211669922 146.6053009033203 C 61.73582077026367 124.3526840209961 113.69886016845703 136.04017639160156 82.03067016601562 119.01770782470703" stroke-width="2" fill="none" stroke="rgb(0, 0, 0)" stroke-opacity="1.0" stroke-linecap="round" stroke-linejoin="round"/>
  </g>
</svg>
