<?xml version="1.0" ?>
<svg xmlns="http://www.w3.org/2000/svg" version="1.1" width="224" height="224">
  <defs/>
  <g>
    <path d="M 158.3911895751953 125.82613372802734 C 96.60136413574219 126.21074676513672 218.07723999023438 131.2626953125 131.0693359375 134.6453399658203" stroke-width="2" fill="none" stroke="rgb(0, 0, 0)" stroke-opacity="1.0" stroke-linecap="round" stroke-linejoin="round"/>
    <path d="M 154.36073303222656 149.43203735351562 C 33.61957550048828 148.36996459960938 78.9434585571289 135.9412078857422 54.227237701416016 131.35076904296875" stroke-width="2" fill="none" stroke="rgb(0, 0, 0)" stroke-opacity="1.0" stroke-linecap="round" stroke-linejoin="round"/>
    <path d="M 130.58865356445312 117.63447570800781 C 133.5511474609375 129.80294799804688 106.19210052490234 87.94550323486328 172.8458251953125 100.72050476074219" stroke-width="2" fill="none" stroke="rgb(0, 0, 0)" stroke-opacity="1.0" stroke-linecap="round" stroke-linejoin="round"/>
    <path d="M 169.9331512451172 153.37608337402344 C 109.24681854248047 138.49273681640625 151.0789794921875 125.73001098632812 125.20513916015625 128.0581512451172" stroke-width="2" fill="none" stroke="rgb(0, 0, 0)" stroke-opacity="1.0" stroke-linecap="round" stroke-linejoin="round"/>
    <path d="M 152.18629455566406 131.9987030029297 C 123.7670669555664 103.78572845458984 245.27748107910156 179.85140991210938 110.65941619873047 131.654052734375" stroke-width="2" fill="none" stroke="rgb(0, 0, 0)" stroke-opacity="1.0" stroke-linecap="round" stroke-linejoin="round"/>
    <path d="M 110.33917999267578 97.32901000976562 C 91.37386322021484 137.67855834960938 126.1526107788086 87.81099700927734 110.1543960571289 110.5424575805664" stroke-width="2" fill="none" stroke="rgb(0, 0, 0)" stroke-opacity="1.0" stroke-linecap="round" stroke-linejoin="round"/>
    <path d="M 103.68463134765625 105.07633972167969 C 79.05150604248047 -0.34772390127182007 153.16505432128906 157.6270294189453 177.63735961914062 89.86853790283203" stroke-width="2" fill="none" stroke="rgb(0, 0, 0)" stroke-opacity="1.0" stroke-linecap="round" stroke-linejoin="round"/>
    <path d="M 56.489898681640625 102.23271942138672 C 23.18538475036621 138.406494140625 44.50904846191406 148.84164428710938 77.98788452148438 157.7617645263672" stroke-width="2" fill="none" stroke="rgb(0, 0, 0)" stroke-opacity="1.0" stroke-linecap="round" stroke-linejoin="round"/>
    <path d="M 91.50360870361328 144.47792053222656 C 264.2338562011719 183.1956329345703 81.44928741455078 112.22959899902344 111.03289794921875 139.3284454345703" stroke-width="2" fill="none" stroke="rgb(0, 0, 0)" stroke-opacity="1.0" stroke-linecap="round" stroke-linejoin="round"/>
    <path d="M 98.33330535888672 128.80130004882812 C 71.51344299316406 119.42083740234375 108.98667907714844 130.41400146484375 109.22459411621094 122.58711242675781" stroke-width="2" fill="none" stroke="rgb(0, 0, 0)" stroke-opacity="1.0" stroke-linecap="round" stroke-linejoin="round"/>
    <path d="M 162.23855590820312 108.64494323730469 C 206.94784545898438 17.285337448120117 161.46087646484375 94.45098114013672 150.4026336669922 92.0604476928711" stroke-width="2" fill="none" stroke="rgb(0, 0, 0)" stroke-opacity="1.0" stroke-linecap="round" stroke-linejoin="round"/>
    <path d="M 175.14157104492188 108.63220977783203 C 145.10281372070312 127.80582427978516 250.82716369628906 204.21629333496094 52.143455505371094 142.49624633789062" stroke-width="2" fill="none" stroke="rgb(0, 0, 0)" stroke-opacity="1.0" stroke-linecap="round" stroke-linejoin="round"/>
    <path d="M 95.64283752441406 97.00483703613281 C 29.83049964904785 79.24180603027344 23.731128692626953 171.85055541992188 115.68909454345703 163.32403564453125" stroke-width="2" fill="none" stroke="rgb(0, 0, 0)" stroke-opacity="1.0" stroke-linecap="round" stroke-linejoin="round"/>
    <path d="M 126.6081771850586 130.9541778564453 C 132.77296447753906 71.31575012207031 126.75126647949219 127.67903900146484 110.49380493164062 71.8244400024414" stroke-width="2" fill="none" stroke="rgb(0, 0, 0)" stroke-opacity="1.0" stroke-linecap="round" stroke-linejoin="round"/>
    <path d="M 155.9359130859375 107.38893127441406 C 177.19578552246094 160.28128051757812 200.59568786621094 13.090847969055176 175.52188110351562 79.77960205078125" stroke-width="2" fill="none" stroke="rgb(0, 0, 0)" stroke-opacity="1.0" stroke-linecap="round" stroke-linejoin="round"/>
    <path d="M 174.26473999023438 124.73552703857422 C 145.0306854248047 152.0384063720703 200.1278839111328 143.67027282714844 122.88310241699219 139.36753845214844" stroke-width="2" fill="none" stroke="rgb(0, 0, 0)" stroke-opacity="1.0" stroke-linecap="round" stroke-linejoin="round"/>
  </g>
</svg>
