<?xml version="1.0" ?>
<svg xmlns="http://www.w3.org/2000/svg" version="1.1" width="224" height="224">
  <defs/>
  <g>
    <path d="M 113.8326644897461 118.75445556640625 C 70.30374145507812 114.12117004394531 170.372314453125 121.0124740600586 124.41230773925781 122.15660095214844" stroke-width="2" fill="none" stroke="rgb(0, 0, 0)" stroke-opacity="1.0" stroke-linecap="round" stroke-linejoin="round"/>
    <path d="M 127.24308013916016 148.8391876220703 C 35.534820556640625 139.12355041503906 209.35670471191406 158.98988342285156 152.8870086669922 149.4891815185547" stroke-width="2" fill="none" stroke="rgb(0, 0, 0)" stroke-opacity="1.0" stroke-linecap="round" stroke-linejoin="round"/>
    <path d="M 149.69891357421875 128.9210662841797 C 134.23403930664062 138.02218627929688 107.83722686767578 127.30809783935547 143.8904266357422 139.5746612548828" stroke-width="2" fill="none" stroke="rgb(0, 0, 0)" stroke-opacity="1.0" stroke-linecap="round" stroke-linejoin="round"/>
    <path d="M 133.23129272460938 123.93721008300781 C 99.29461669921875 133.90992736816406 210.47427368164062 139.4229736328125 127.25082397460938 137.3172607421875" stroke-width="2" fill="none" stroke="rgb(0, 0, 0)" stroke-opacity="1.0" stroke-linecap="round" stroke-linejoin="round"/>
    <path d="M 125.8572769165039 104.09736633300781 C 55.50701141357422 139.83457946777344 197.13929748535156 142.76959228515625 121.04686737060547 150.59814453125" stroke-width="2" fill="none" stroke="rgb(0, 0, 0)" stroke-opacity="1.0" stroke-linecap="round" stroke-linejoin="round"/>
    <path d="M 131.2296142578125 123.86758422851562 C 125.91307067871094 116.828369140625 112.1743392944336 124.97576904296875 132.97994995117188 121.0709457397461" stroke-width="2" fill="none" stroke="rgb(0, 0, 0)" stroke-opacity="1.0" stroke-linecap="round" stroke-linejoin="round"/>
    <path d="M 97.71653747558594 79.4250259399414 C 130.33506774902344 66.05461883544922 114.5408935546875 126.4648666381836 181.52496337890625 68.77987670898438" stroke-width="2" fill="none" stroke="rgb(0, 0, 0)" stroke-opacity="1.0" stroke-linecap="round" stroke-linejoin="round"/>
    <path d="M 84.7624740600586 161.4728546142578 C 72.71277618408203 149.73870849609375 13.919504165649414 157.6435546875 48.61271667480469 100.74730682373047" stroke-width="2" fill="none" stroke="rgb(0, 0, 0)" stroke-opacity="1.0" stroke-linecap="round" stroke-linejoin="round"/>
    <path d="M 145.07505798339844 105.75242614746094 C 181.67550659179688 127.73770141601562 121.88934326171875 110.16130065917969 152.9503173828125 124.83724212646484" stroke-width="2" fill="none" stroke="rgb(0, 0, 0)" stroke-opacity="1.0" stroke-linecap="round" stroke-linejoin="round"/>
    <path d="M 60.09737777709961 136.91766357421875 C 91.90762329101562 134.167724609375 78.00044250488281 140.30787658691406 96.49787139892578 143.14840698242188" stroke-width="2" fill="none" stroke="rgb(0, 0, 0)" stroke-opacity="1.0" stroke-linecap="round" stroke-linejoin="round"/>
    <path d="M 152.92236328125 92.15042877197266 C 217.6052703857422 21.303178787231445 173.15573120117188 135.14752197265625 157.95814514160156 104.33222198486328" stroke-width="2" fill="none" stroke="rgb(0, 0, 0)" stroke-opacity="1.0" stroke-linecap="round" stroke-linejoin="round"/>
    <path d="M 161.4043731689453 110.64070892333984 C 181.71961975097656 176.33966064453125 178.7156982421875 166.57725524902344 71.22223663330078 147.7633819580078" stroke-width="2" fill="none" stroke="rgb(0, 0, 0)" stroke-opacity="1.0" stroke-linecap="round" stroke-linejoin="round"/>
    <path d="M 63.687198638916016 122.43437957763672 C 80.0785903930664 138.19342041015625 22.484806060791016 120.04766845703125 84.65769958496094 149.91075134277344" stroke-width="2" fill="none" stroke="rgb(0, 0, 0)" stroke-opacity="1.0" stroke-linecap="round" stroke-linejoin="round"/>
    <path d="M 107.8469009399414 135.7469024658203 C 75.96585845947266 90.08303833007812 76.71296691894531 80.51360321044922 80.45056915283203 114.4637451171875" stroke-width="2" fill="none" stroke="rgb(0, 0, 0)" stroke-opacity="1.0" stroke-linecap="round" stroke-linejoin="round"/>
    <path d="M 148.5200653076172 140.9270782470703 C 172.77085876464844 129.54324340820312 210.08935546875 1.6061800718307495 166.69320678710938 98.58074188232422" stroke-width="2" fill="none" stroke="rgb(0, 0, 0)" stroke-opacity="1.0" stroke-linecap="round" stroke-linejoin="round"/>
    <path d="M 52.3142204284668 115.84226989746094 C 24.888694763183594 86.74630737304688 121.45179748535156 82.09888458251953 108.81021118164062 132.5044708251953" stroke-width="2" fill="none" stroke="rgb(0, 0, 0)" stroke-opacity="1.0" stroke-linecap="round" stroke-linejoin="round"/>
  </g>
</svg>
