<?xml version="1.0" ?>
<svg xmlns="http://www.w3.org/2000/svg" version="1.1" width="224" height="224">
  <defs/>
  <g>
    <path d="M 137.08599853515625 94.34186553955078 C 65.51286315917969 132.44166564941406 210.70777893066406 149.72525024414062 124.85259246826172 138.46543884277344" stroke-width="2" fill="none" stroke="rgb(0, 0, 0)" stroke-opacity="1.0" stroke-linecap="round" stroke-linejoin="round"/>
    <path d="M 131.60618591308594 118.1122817993164 C 78.36869812011719 119.71650695800781 128.4622802734375 133.35609436035156 116.11134338378906 99.03954315185547" stroke-width="2" fill="none" stroke="rgb(0, 0, 0)" stroke-opacity="1.0" stroke-linecap="round" stroke-linejoin="round"/>
    <path d="M 180.32229614257812 63.38429260253906 C 169.04827880859375 96.14124298095703 132.54383850097656 70.00367736816406 170.44970703125 90.25511932373047" stroke-width="2" fill="none" stroke="rgb(0, 0, 0)" stroke-opacity="1.0" stroke-linecap="round" stroke-linejoin="round"/>
    <path d="M 140.36663818359375 140.59762573242188 C 149.79380798339844 129.16705322265625 168.62132263183594 136.23280334472656 149.1100616455078 118.39441680908203" stroke-width="2" fill="none" stroke="rgb(0, 0, 0)" stroke-opacity="1.0" stroke-linecap="round" stroke-linejoin="round"/>
    <path d="M 158.9725341796875 104.9432144165039 C 122.89070129394531 58.477752685546875 245.51356506347656 178.41860961914062 61.20606994628906 142.14920043945312" stroke-width="2" fill="none" stroke="rgb(0, 0, 0)" stroke-opacity="1.0" stroke-linecap="round" stroke-linejoin="round"/>
    <path d="M 157.70481872558594 123.13990783691406 C 109.24674987792969 108.55108642578125 184.35057067871094 116.31981658935547 140.62794494628906 119.3718490600586" stroke-width="2" fill="none" stroke="rgb(0, 0, 0)" stroke-opacity="1.0" stroke-linecap="round" stroke-linejoin="round"/>
    <path d="M 98.73888397216797 103.85215759277344 C 81.50758361816406 14.445551872253418 140.18038940429688 139.45274353027344 176.18295288085938 81.26966094970703" stroke-width="2" fill="none" stroke="rgb(0, 0, 0)" stroke-opacity="1.0" stroke-linecap="round" stroke-linejoin="round"/>
    <path d="M 80.94808959960938 108.71664428710938 C 92.17134094238281 119.76293182373047 53.406124114990234 93.76215362548828 57.366764068603516 118.2359848022461" stroke-width="2" fill="none" stroke="rgb(0, 0, 0)" stroke-opacity="1.0" stroke-linecap="round" stroke-linejoin="round"/>
    <path d="M 124.43163299560547 128.01986694335938 C 249.74795532226562 157.1770782470703 80.0592041015625 148.23785400390625 138.36911010742188 155.4213104248047" stroke-width="2" fill="none" stroke="rgb(0, 0, 0)" stroke-opacity="1.0" stroke-linecap="round" stroke-linejoin="round"/>
    <path d="M 136.1658477783203 118.87214660644531 C 96.38504791259766 155.33514404296875 162.93179321289062 103.99104309082031 108.5413818359375 123.34375" stroke-width="2" fill="none" stroke="rgb(0, 0, 0)" stroke-opacity="1.0" stroke-linecap="round" stroke-linejoin="round"/>
    <path d="M 170.74339294433594 91.17793273925781 C 209.25509643554688 9.246247291564941 161.3847198486328 111.5764389038086 124.80648803710938 81.59114837646484" stroke-width="2" fill="none" stroke="rgb(0, 0, 0)" stroke-opacity="1.0" stroke-linecap="round" stroke-linejoin="round"/>
    <path d="M 182.8719482421875 105.15426635742188 C 142.90634155273438 143.9528350830078 229.76707458496094 172.9036102294922 79.62366485595703 154.2504119873047" stroke-width="2" fill="none" stroke="rgb(0, 0, 0)" stroke-opacity="1.0" stroke-linecap="round" stroke-linejoin="round"/>
    <path d="M 95.9464340209961 96.60674285888672 C 49.09929656982422 83.98249816894531 18.086912155151367 163.1234588623047 89.87832641601562 152.77552795410156" stroke-width="2" fill="none" stroke="rgb(0, 0, 0)" stroke-opacity="1.0" stroke-linecap="round" stroke-linejoin="round"/>
    <path d="M 120.85533905029297 94.48451232910156 C 148.2030487060547 90.0378189086914 113.08395385742188 126.38851165771484 101.6982650756836 73.2781753540039" stroke-width="2" fill="none" stroke="rgb(0, 0, 0)" stroke-opacity="1.0" stroke-linecap="round" stroke-linejoin="round"/>
    <path d="M 169.58717346191406 101.05347442626953 C 186.35372924804688 116.54571533203125 203.42369079589844 9.796943664550781 166.7552947998047 99.06587982177734" stroke-width="2" fill="none" stroke="rgb(0, 0, 0)" stroke-opacity="1.0" stroke-linecap="round" stroke-linejoin="round"/>
    <path d="M 87.38131713867188 134.8224334716797 C 95.37071228027344 122.01661682128906 159.39669799804688 166.98997497558594 106.99403381347656 111.85385131835938" stroke-width="2" fill="none" stroke="rgb(0, 0, 0)" stroke-opacity="1.0" stroke-linecap="round" stroke-linejoin="round"/>
  </g>
</svg>
