<?xml version="1.0" ?>
<svg xmlns="http://www.w3.org/2000/svg" version="1.1" width="224" height="224">
  <defs/>
  <g>
    <path d="M 135.6585235595703 93.79864501953125 C 135.3638153076172 94.13810729980469 136.15576171875 94.21998596191406 135.70388793945312 93.72114562988281" stroke-width="3.0" fill="none" stroke="rgb(0, 0, 0)" stroke-opacity="1.0" stroke-linecap="round" stroke-linejoin="round"/>
    <path d="M 166.02525329589844 135.7349853515625 C 163.15708923339844 136.52752685546875 172.5771942138672 134.66958618164062 164.8285675048828 136.1286163330078" stroke-width="3.0" fill="none" stroke="rgb(0, 0, 0)" stroke-opacity="1.0" stroke-linecap="round" stroke-linejoin="round"/>
    <path d="M 82.63668823242188 141.26907348632812 C 83.8508071899414 113.75698852539062 80.0395736694336 138.55194091796875 83.01265716552734 117.98233795166016" stroke-width="3.0" fill="none" stroke="rgb(0, 0, 0)" stroke-opacity="1.0" stroke-linecap="round" stroke-linejoin="round"/>
    <path d="M 95.81935119628906 127.69281768798828 C 96.09529113769531 129.34027099609375 99.41194152832031 122.19390106201172 95.72651672363281 128.2120361328125" stroke-width="3.0" fill="none" stroke="rgb(0, 0, 0)" stroke-opacity="1.0" stroke-linecap="round" stroke-linejoin="round"/>
    <path d="M 164.96124267578125 82.36063385009766 C 164.51589965820312 82.4421157836914 164.49783325195312 83.13333892822266 164.634033203125 82.19091033935547" stroke-width="3.0" fill="none" stroke="rgb(0, 0, 0)" stroke-opacity="1.0" stroke-linecap="round" stroke-linejoin="round"/>
    <path d="M 126.78169250488281 62.55503463745117 C 126.97106170654297 61.747528076171875 126.2238540649414 63.20263671875 126.79811096191406 62.38950729370117" stroke-width="3.0" fill="none" stroke="rgb(0, 0, 0)" stroke-opacity="1.0" stroke-linecap="round" stroke-linejoin="round"/>
    <path d="M 110.14398193359375 146.39938354492188 C 123.32772064208984 142.45457458496094 119.36516571044922 147.1007843017578 134.34881591796875 143.4025115966797" stroke-width="3.0" fill="none" stroke="rgb(0, 0, 0)" stroke-opacity="1.0" stroke-linecap="round" stroke-linejoin="round"/>
    <path d="M 128.20751953125 113.99032592773438 C 128.04180908203125 113.49018859863281 128.35159301757812 114.94859313964844 128.11358642578125 114.38330078125" stroke-width="3.0" fill="none" stroke="rgb(0, 0, 0)" stroke-opacity="1.0" stroke-linecap="round" stroke-linejoin="round"/>
    <path d="M 82.29475402832031 119.40040588378906 C 82.2781982421875 121.2184829711914 81.86068725585938 140.1712188720703 82.27117919921875 130.22921752929688" stroke-width="3.0" fill="none" stroke="rgb(0, 0, 0)" stroke-opacity="1.0" stroke-linecap="round" stroke-linejoin="round"/>
    <path d="M 134.98435974121094 54.88855743408203 C 134.7536163330078 54.756568908691406 134.5494384765625 55.02959442138672 135.27423095703125 54.76590347290039" stroke-width="3.0" fill="none" stroke="rgb(0, 0, 0)" stroke-opacity="1.0" stroke-linecap="round" stroke-linejoin="round"/>
    <path d="M 83.65890502929688 147.93067932128906 C 95.09708404541016 151.9279022216797 104.83876037597656 147.42742919921875 88.36087036132812 146.27890014648438" stroke-width="3.0" fill="none" stroke="rgb(0, 0, 0)" stroke-opacity="1.0" stroke-linecap="round" stroke-linejoin="round"/>
    <path d="M 145.06961059570312 154.89276123046875 C 142.82704162597656 147.8727569580078 143.6694793701172 142.09022521972656 142.79721069335938 145.94735717773438" stroke-width="3.0" fill="none" stroke="rgb(0, 0, 0)" stroke-opacity="1.0" stroke-linecap="round" stroke-linejoin="round"/>
    <path d="M 163.8873291015625 82.1414794921875 C 163.56541442871094 82.60216522216797 163.76612854003906 83.23458862304688 163.70335388183594 82.13749694824219" stroke-width="3.0" fill="none" stroke="rgb(0, 0, 0)" stroke-opacity="1.0" stroke-linecap="round" stroke-linejoin="round"/>
    <path d="M 164.54054260253906 82.32829284667969 C 164.90707397460938 83.15274810791016 165.44650268554688 81.89049530029297 164.60589599609375 82.43827056884766" stroke-width="3.0" fill="none" stroke="rgb(0, 0, 0)" stroke-opacity="1.0" stroke-linecap="round" stroke-linejoin="round"/>
    <path d="M 184.973388671875 73.86091613769531 C 183.29270935058594 71.85646057128906 182.1272430419922 71.57969665527344 183.2602081298828 72.40046691894531" stroke-width="3.0" fill="none" stroke="rgb(0, 0, 0)" stroke-opacity="1.0" stroke-linecap="round" stroke-linejoin="round"/>
    <path d="M 177.15902709960938 86.87567138671875 C 177.2721405029297 86.9602279663086 177.13739013671875 86.9496841430664 177.0503387451172 86.47640228271484" stroke-width="3.0" fill="none" stroke="rgb(0, 0, 0)" stroke-opacity="1.0" stroke-linecap="round" stroke-linejoin="round"/>
  </g>
</svg>
