<?xml version="1.0" ?>
<svg xmlns="http://www.w3.org/2000/svg" version="1.1" width="224" height="224">
  <defs/>
  <g>
    <path d="M 135.820556640625 93.1587142944336 C 135.5571746826172 92.9039306640625 135.30540466308594 93.56303405761719 136.08802795410156 93.04261779785156" stroke-width="3.0" fill="none" stroke="rgb(0, 0, 0)" stroke-opacity="1.0" stroke-linecap="round" stroke-linejoin="round"/>
    <path d="M 165.4301300048828 133.8697967529297 C 162.83151245117188 135.06900024414062 172.39193725585938 135.78140258789062 172.8422393798828 134.36764526367188" stroke-width="3.0" fill="none" stroke="rgb(0, 0, 0)" stroke-opacity="1.0" stroke-linecap="round" stroke-linejoin="round"/>
    <path d="M 82.83110046386719 141.04872131347656 C 83.50299072265625 115.5868148803711 81.97059631347656 138.91464233398438 81.97142028808594 120.10254669189453" stroke-width="3.0" fill="none" stroke="rgb(0, 0, 0)" stroke-opacity="1.0" stroke-linecap="round" stroke-linejoin="round"/>
    <path d="M 96.73428344726562 126.04615783691406 C 95.87301635742188 128.62425231933594 99.34550476074219 122.30938720703125 95.58808135986328 128.24581909179688" stroke-width="3.0" fill="none" stroke="rgb(0, 0, 0)" stroke-opacity="1.0" stroke-linecap="round" stroke-linejoin="round"/>
    <path d="M 161.53794860839844 88.59132385253906 C 161.26429748535156 88.7234115600586 161.50900268554688 88.54833984375 161.7096710205078 88.99694061279297" stroke-width="3.0" fill="none" stroke="rgb(0, 0, 0)" stroke-opacity="1.0" stroke-linecap="round" stroke-linejoin="round"/>
    <path d="M 127.81816101074219 64.42047882080078 C 128.0662384033203 64.12799072265625 127.77216339111328 64.99451446533203 127.97616577148438 64.36477661132812" stroke-width="3.0" fill="none" stroke="rgb(0, 0, 0)" stroke-opacity="1.0" stroke-linecap="round" stroke-linejoin="round"/>
    <path d="M 108.28282165527344 146.20057678222656 C 133.48324584960938 142.4175567626953 109.66138458251953 147.77749633789062 137.79611206054688 142.39654541015625" stroke-width="3.0" fill="none" stroke="rgb(0, 0, 0)" stroke-opacity="1.0" stroke-linecap="round" stroke-linejoin="round"/>
    <path d="M 129.05137634277344 115.57476043701172 C 129.11550903320312 115.37567138671875 128.8731689453125 115.11380004882812 129.0133819580078 115.26661682128906" stroke-width="3.0" fill="none" stroke="rgb(0, 0, 0)" stroke-opacity="1.0" stroke-linecap="round" stroke-linejoin="round"/>
    <path d="M 80.77171325683594 125.593017578125 C 82.30168914794922 111.52839660644531 80.8274917602539 136.47348022460938 82.97205352783203 133.30389404296875" stroke-width="3.0" fill="none" stroke="rgb(0, 0, 0)" stroke-opacity="1.0" stroke-linecap="round" stroke-linejoin="round"/>
    <path d="M 135.77471923828125 57.059295654296875 C 136.0143585205078 58.16674041748047 135.75396728515625 57.06877517700195 135.88694763183594 55.82761001586914" stroke-width="3.0" fill="none" stroke="rgb(0, 0, 0)" stroke-opacity="1.0" stroke-linecap="round" stroke-linejoin="round"/>
    <path d="M 85.02912139892578 148.87681579589844 C 87.18474578857422 152.95132446289062 105.27445983886719 147.2249755859375 89.97282409667969 147.74900817871094" stroke-width="3.0" fill="none" stroke="rgb(0, 0, 0)" stroke-opacity="1.0" stroke-linecap="round" stroke-linejoin="round"/>
    <path d="M 145.16012573242188 152.59263610839844 C 143.21954345703125 137.0051727294922 144.33872985839844 145.73272705078125 144.0806427001953 146.98403930664062" stroke-width="3.0" fill="none" stroke="rgb(0, 0, 0)" stroke-opacity="1.0" stroke-linecap="round" stroke-linejoin="round"/>
    <path d="M 162.00894165039062 88.56153869628906 C 161.5612030029297 88.69319915771484 161.36819458007812 88.73820495605469 161.78358459472656 88.53932189941406" stroke-width="3.0" fill="none" stroke="rgb(0, 0, 0)" stroke-opacity="1.0" stroke-linecap="round" stroke-linejoin="round"/>
    <path d="M 161.9103240966797 89.32257843017578 C 161.3240966796875 89.13601684570312 162.686767578125 88.35893249511719 162.14068603515625 88.65911102294922" stroke-width="3.0" fill="none" stroke="rgb(0, 0, 0)" stroke-opacity="1.0" stroke-linecap="round" stroke-linejoin="round"/>
    <path d="M 183.91213989257812 72.45816040039062 C 182.72373962402344 71.94974517822266 184.5231475830078 72.89424896240234 183.70159912109375 72.2588882446289" stroke-width="3.0" fill="none" stroke="rgb(0, 0, 0)" stroke-opacity="1.0" stroke-linecap="round" stroke-linejoin="round"/>
    <path d="M 175.90798950195312 81.8143539428711 C 176.29212951660156 81.3707504272461 175.67919921875 82.79359436035156 175.75816345214844 81.89693450927734" stroke-width="3.0" fill="none" stroke="rgb(0, 0, 0)" stroke-opacity="1.0" stroke-linecap="round" stroke-linejoin="round"/>
  </g>
</svg>
