<?xml version="1.0" ?>
<svg xmlns="http://www.w3.org/2000/svg" version="1.1" width="224" height="224">
  <defs/>
  <g>
    <path d="M 121.43560791015625 61.96849822998047 C 60.72982406616211 70.84942626953125 60.41323471069336 102.59492492675781 150.6201934814453 77.0711441040039" stroke-width="2" fill="none" stroke="rgb(0, 0, 0)" stroke-opacity="1.0" stroke-linecap="round" stroke-linejoin="round"/>
    <path d="M 147.9739532470703 121.8714828491211 C 158.347412109375 154.8693084716797 202.85873413085938 98.09746551513672 166.42898559570312 86.73273468017578" stroke-width="2" fill="none" stroke="rgb(0, 0, 0)" stroke-opacity="1.0" stroke-linecap="round" stroke-linejoin="round"/>
    <path d="M 146.18980407714844 119.28343200683594 C 58.0578498840332 87.53055572509766 134.5998077392578 117.06763458251953 108.9024887084961 115.22840881347656" stroke-width="2" fill="none" stroke="rgb(0, 0, 0)" stroke-opacity="1.0" stroke-linecap="round" stroke-linejoin="round"/>
    <path d="M 142.06886291503906 89.7488784790039 C 144.90292358398438 89.15923309326172 153.24549865722656 88.44825744628906 143.84152221679688 90.89759826660156" stroke-width="2" fill="none" stroke="rgb(0, 0, 0)" stroke-opacity="1.0" stroke-linecap="round" stroke-linejoin="round"/>
    <path d="M 78.92550659179688 78.92999267578125 C 32.39809036254883 74.7922134399414 149.50013732910156 59.41853332519531 113.83993530273438 69.9102783203125" stroke-width="2" fill="none" stroke="rgb(0, 0, 0)" stroke-opacity="1.0" stroke-linecap="round" stroke-linejoin="round"/>
    <path d="M 70.47913360595703 67.82643127441406 C 96.8385238647461 111.50719451904297 119.94772338867188 81.09599304199219 136.29574584960938 103.97669219970703" stroke-width="2" fill="none" stroke="rgb(0, 0, 0)" stroke-opacity="1.0" stroke-linecap="round" stroke-linejoin="round"/>
    <path d="M 124.69712829589844 108.14875030517578 C 129.40797424316406 123.56205749511719 217.63673400878906 131.9038848876953 167.4698944091797 127.63687133789062" stroke-width="2" fill="none" stroke="rgb(0, 0, 0)" stroke-opacity="1.0" stroke-linecap="round" stroke-linejoin="round"/>
    <path d="M 149.72694396972656 103.9917221069336 C 168.75123596191406 102.90324401855469 117.9917984008789 100.76626586914062 99.47928619384766 80.7394790649414" stroke-width="2" fill="none" stroke="rgb(0, 0, 0)" stroke-opacity="1.0" stroke-linecap="round" stroke-linejoin="round"/>
    <path d="M 167.7317352294922 137.79005432128906 C 204.03988647460938 87.22431182861328 158.30648803710938 64.27180480957031 123.72840881347656 83.52046966552734" stroke-width="2" fill="none" stroke="rgb(0, 0, 0)" stroke-opacity="1.0" stroke-linecap="round" stroke-linejoin="round"/>
    <path d="M 96.34046173095703 68.83964538574219 C 121.32421112060547 75.68653106689453 79.91084289550781 82.54571533203125 105.58643341064453 64.95616149902344" stroke-width="2" fill="none" stroke="rgb(0, 0, 0)" stroke-opacity="1.0" stroke-linecap="round" stroke-linejoin="round"/>
    <path d="M 144.6368865966797 131.7023468017578 C 207.02432250976562 104.6119613647461 184.24755859375 145.347900390625 212.86985778808594 135.6175079345703" stroke-width="2" fill="none" stroke="rgb(0, 0, 0)" stroke-opacity="1.0" stroke-linecap="round" stroke-linejoin="round"/>
    <path d="M 179.3361358642578 109.23933410644531 C 174.36685180664062 118.60002136230469 187.18760681152344 93.27996063232422 172.27610778808594 95.28750610351562" stroke-width="2" fill="none" stroke="rgb(0, 0, 0)" stroke-opacity="1.0" stroke-linecap="round" stroke-linejoin="round"/>
    <path d="M 121.87384033203125 74.86079406738281 C 126.24317169189453 28.7640323638916 162.3507537841797 45.322086334228516 135.75234985351562 71.90865325927734" stroke-width="2" fill="none" stroke="rgb(0, 0, 0)" stroke-opacity="1.0" stroke-linecap="round" stroke-linejoin="round"/>
    <path d="M 127.01921081542969 95.58055877685547 C 100.70924377441406 77.66898345947266 162.644287109375 65.54688262939453 108.17536163330078 62.94770812988281" stroke-width="2" fill="none" stroke="rgb(0, 0, 0)" stroke-opacity="1.0" stroke-linecap="round" stroke-linejoin="round"/>
    <path d="M 118.4239273071289 71.91301727294922 C 131.28822326660156 49.72824478149414 142.74253845214844 102.04692077636719 124.78736877441406 72.20732116699219" stroke-width="2" fill="none" stroke="rgb(0, 0, 0)" stroke-opacity="1.0" stroke-linecap="round" stroke-linejoin="round"/>
    <path d="M 146.36209106445312 73.53742980957031 C 128.7117156982422 79.64470672607422 102.46258544921875 77.70592498779297 154.82470703125 85.5594482421875" stroke-width="2" fill="none" stroke="rgb(0, 0, 0)" stroke-opacity="1.0" stroke-linecap="round" stroke-linejoin="round"/>
  </g>
</svg>
