<?xml version="1.0" ?>
<svg xmlns="http://www.w3.org/2000/svg" version="1.1" width="224" height="224">
  <defs/>
  <g>
    <path d="M 120.5601577758789 72.523193359375 C 112.26844024658203 82.32601928710938 109.01432800292969 83.40958404541016 138.63125610351562 85.3075942993164" stroke-width="2" fill="none" stroke="rgb(0, 0, 0)" stroke-opacity="1.0" stroke-linecap="round" stroke-linejoin="round"/>
    <path d="M 166.56256103515625 112.8228759765625 C 174.9558868408203 115.42073822021484 187.98687744140625 100.2044448852539 173.0983123779297 96.05695343017578" stroke-width="2" fill="none" stroke="rgb(0, 0, 0)" stroke-opacity="1.0" stroke-linecap="round" stroke-linejoin="round"/>
    <path d="M 145.50555419921875 122.27564239501953 C 122.32964324951172 110.58487701416016 158.15965270996094 125.92066955566406 118.0096206665039 121.02812194824219" stroke-width="2" fill="none" stroke="rgb(0, 0, 0)" stroke-opacity="1.0" stroke-linecap="round" stroke-linejoin="round"/>
    <path d="M 142.82249450683594 95.23303985595703 C 163.19393920898438 79.80416870117188 178.5935516357422 77.12421417236328 141.8535614013672 98.47630310058594" stroke-width="2" fill="none" stroke="rgb(0, 0, 0)" stroke-opacity="1.0" stroke-linecap="round" stroke-linejoin="round"/>
    <path d="M 108.20706176757812 79.51103210449219 C 91.1966781616211 72.13802337646484 126.13849639892578 71.164794921875 121.48881530761719 81.06221008300781" stroke-width="2" fill="none" stroke="rgb(0, 0, 0)" stroke-opacity="1.0" stroke-linecap="round" stroke-linejoin="round"/>
    <path d="M 108.59375 73.78766632080078 C 118.49748992919922 88.9571304321289 121.18994140625 96.01154327392578 134.177978515625 96.89181518554688" stroke-width="2" fill="none" stroke="rgb(0, 0, 0)" stroke-opacity="1.0" stroke-linecap="round" stroke-linejoin="round"/>
    <path d="M 132.764892578125 114.21438598632812 C 157.31906127929688 119.76835632324219 184.0448455810547 114.27657318115234 181.72850036621094 118.84181213378906" stroke-width="2" fill="none" stroke="rgb(0, 0, 0)" stroke-opacity="1.0" stroke-linecap="round" stroke-linejoin="round"/>
    <path d="M 145.98072814941406 102.37430572509766 C 158.64697265625 95.26480102539062 140.2183074951172 84.70195007324219 123.3255386352539 89.7656021118164" stroke-width="2" fill="none" stroke="rgb(0, 0, 0)" stroke-opacity="1.0" stroke-linecap="round" stroke-linejoin="round"/>
    <path d="M 179.79193115234375 111.6407699584961 C 187.43699645996094 86.09883117675781 158.23193359375 79.47406768798828 147.57347106933594 83.95025634765625" stroke-width="2" fill="none" stroke="rgb(0, 0, 0)" stroke-opacity="1.0" stroke-linecap="round" stroke-linejoin="round"/>
    <path d="M 119.1287612915039 70.94374084472656 C 113.53203582763672 74.3909683227539 113.16355895996094 81.96768188476562 115.38642120361328 64.10431671142578" stroke-width="2" fill="none" stroke="rgb(0, 0, 0)" stroke-opacity="1.0" stroke-linecap="round" stroke-linejoin="round"/>
    <path d="M 161.56460571289062 115.79019927978516 C 192.1689910888672 108.06371307373047 173.89962768554688 145.75814819335938 203.3003692626953 152.37503051757812" stroke-width="2" fill="none" stroke="rgb(0, 0, 0)" stroke-opacity="1.0" stroke-linecap="round" stroke-linejoin="round"/>
    <path d="M 180.04754638671875 113.59233093261719 C 187.78041076660156 107.02801513671875 177.9014892578125 88.88566589355469 176.0477294921875 109.43387603759766" stroke-width="2" fill="none" stroke="rgb(0, 0, 0)" stroke-opacity="1.0" stroke-linecap="round" stroke-linejoin="round"/>
    <path d="M 138.01422119140625 82.82241821289062 C 136.8346710205078 69.25450134277344 144.077392578125 58.78715896606445 146.43893432617188 69.62137603759766" stroke-width="2" fill="none" stroke="rgb(0, 0, 0)" stroke-opacity="1.0" stroke-linecap="round" stroke-linejoin="round"/>
    <path d="M 128.95860290527344 106.53113555908203 C 117.35169982910156 80.95382690429688 136.3258056640625 80.00308227539062 113.38062286376953 72.98261260986328" stroke-width="2" fill="none" stroke="rgb(0, 0, 0)" stroke-opacity="1.0" stroke-linecap="round" stroke-linejoin="round"/>
    <path d="M 122.91938781738281 91.54940032958984 C 133.60768127441406 82.28512573242188 137.97683715820312 84.67198944091797 117.9239273071289 69.86872863769531" stroke-width="2" fill="none" stroke="rgb(0, 0, 0)" stroke-opacity="1.0" stroke-linecap="round" stroke-linejoin="round"/>
    <path d="M 155.95068359375 70.85608673095703 C 150.33489990234375 98.6629638671875 132.51382446289062 87.29337310791016 156.8377685546875 85.21240234375" stroke-width="2" fill="none" stroke="rgb(0, 0, 0)" stroke-opacity="1.0" stroke-linecap="round" stroke-linejoin="round"/>
  </g>
</svg>
