<?xml version="1.0" ?>
<svg xmlns="http://www.w3.org/2000/svg" version="1.1" width="224" height="224">
  <defs/>
  <g>
    <path d="M 118.59013366699219 76.8287353515625 C 118.51402282714844 77.1023178100586 116.67724609375 84.26849365234375 128.6928253173828 85.1073226928711" stroke-width="2" fill="none" stroke="rgb(0, 0, 0)" stroke-opacity="1.0" stroke-linecap="round" stroke-linejoin="round"/>
    <path d="M 167.50082397460938 125.55241394042969 C 176.9288787841797 115.69599914550781 183.4695587158203 109.77880859375 173.24456787109375 93.9316635131836" stroke-width="2" fill="none" stroke="rgb(0, 0, 0)" stroke-opacity="1.0" stroke-linecap="round" stroke-linejoin="round"/>
    <path d="M 135.9992218017578 116.55879974365234 C 122.7439956665039 113.92703247070312 147.6259002685547 121.14173889160156 118.63720703125 122.7967529296875" stroke-width="2" fill="none" stroke="rgb(0, 0, 0)" stroke-opacity="1.0" stroke-linecap="round" stroke-linejoin="round"/>
    <path d="M 144.41644287109375 94.27015686035156 C 150.52865600585938 84.84857177734375 171.13296508789062 92.67418670654297 144.51121520996094 100.51371002197266" stroke-width="2" fill="none" stroke="rgb(0, 0, 0)" stroke-opacity="1.0" stroke-linecap="round" stroke-linejoin="round"/>
    <path d="M 113.52620697021484 81.01150512695312 C 116.51356506347656 74.21492004394531 122.22500610351562 75.6762924194336 121.69767761230469 78.10273742675781" stroke-width="2" fill="none" stroke="rgb(0, 0, 0)" stroke-opacity="1.0" stroke-linecap="round" stroke-linejoin="round"/>
    <path d="M 116.09137725830078 74.06249237060547 C 127.23118591308594 68.76785278320312 127.30621337890625 74.23767852783203 135.97605895996094 98.06397247314453" stroke-width="2" fill="none" stroke="rgb(0, 0, 0)" stroke-opacity="1.0" stroke-linecap="round" stroke-linejoin="round"/>
    <path d="M 138.81085205078125 113.8482666015625 C 165.40272521972656 125.0123062133789 177.78463745117188 122.81285095214844 182.30349731445312 115.29509735107422" stroke-width="2" fill="none" stroke="rgb(0, 0, 0)" stroke-opacity="1.0" stroke-linecap="round" stroke-linejoin="round"/>
    <path d="M 151.48880004882812 108.12885284423828 C 152.94757080078125 95.38597869873047 142.12982177734375 90.81197357177734 123.3318099975586 90.17351531982422" stroke-width="2" fill="none" stroke="rgb(0, 0, 0)" stroke-opacity="1.0" stroke-linecap="round" stroke-linejoin="round"/>
    <path d="M 176.2442169189453 105.93600463867188 C 182.13645935058594 84.27360534667969 160.33609008789062 82.05956268310547 149.9626922607422 89.06076049804688" stroke-width="2" fill="none" stroke="rgb(0, 0, 0)" stroke-opacity="1.0" stroke-linecap="round" stroke-linejoin="round"/>
    <path d="M 119.99812316894531 69.85272216796875 C 120.64517974853516 78.09539794921875 114.80252838134766 82.30506896972656 114.80854797363281 65.70533752441406" stroke-width="2" fill="none" stroke="rgb(0, 0, 0)" stroke-opacity="1.0" stroke-linecap="round" stroke-linejoin="round"/>
    <path d="M 153.90711975097656 118.38072204589844 C 172.88514709472656 115.3733139038086 162.44473266601562 131.8756103515625 178.90467834472656 137.63327026367188" stroke-width="2" fill="none" stroke="rgb(0, 0, 0)" stroke-opacity="1.0" stroke-linecap="round" stroke-linejoin="round"/>
    <path d="M 182.88763427734375 115.63180541992188 C 184.010009765625 100.16387176513672 175.1428680419922 85.65691375732422 175.99917602539062 114.77800750732422" stroke-width="2" fill="none" stroke="rgb(0, 0, 0)" stroke-opacity="1.0" stroke-linecap="round" stroke-linejoin="round"/>
    <path d="M 135.874755859375 83.12464141845703 C 137.026611328125 70.52790069580078 139.8278350830078 65.023193359375 145.54373168945312 67.60344696044922" stroke-width="2" fill="none" stroke="rgb(0, 0, 0)" stroke-opacity="1.0" stroke-linecap="round" stroke-linejoin="round"/>
    <path d="M 123.03385162353516 89.87835693359375 C 120.98664093017578 65.71053314208984 127.10530090332031 72.92151641845703 116.6335220336914 81.58367919921875" stroke-width="2" fill="none" stroke="rgb(0, 0, 0)" stroke-opacity="1.0" stroke-linecap="round" stroke-linejoin="round"/>
    <path d="M 127.69049072265625 87.90856170654297 C 126.02945709228516 80.19918823242188 136.5828399658203 75.95088195800781 118.25984954833984 63.51160430908203" stroke-width="2" fill="none" stroke="rgb(0, 0, 0)" stroke-opacity="1.0" stroke-linecap="round" stroke-linejoin="round"/>
    <path d="M 157.85922241210938 73.85822296142578 C 145.398681640625 90.1881332397461 140.4490509033203 89.58209991455078 153.78762817382812 80.197021484375" stroke-width="2" fill="none" stroke="rgb(0, 0, 0)" stroke-opacity="1.0" stroke-linecap="round" stroke-linejoin="round"/>
  </g>
</svg>
