<?xml version="1.0" ?>
<svg xmlns="http://www.w3.org/2000/svg" version="1.1" width="224" height="224">
  <defs/>
  <g>
    <path d="M 121.32137298583984 67.97473907470703 C 75.88064575195312 73.64984130859375 78.86306762695312 102.07760620117188 156.77105712890625 76.24390411376953" stroke-width="2" fill="none" stroke="rgb(0, 0, 0)" stroke-opacity="1.0" stroke-linecap="round" stroke-linejoin="round"/>
    <path d="M 158.43829345703125 116.22532653808594 C 163.97555541992188 153.27877807617188 198.81307983398438 99.40757751464844 170.43698120117188 88.2537841796875" stroke-width="2" fill="none" stroke="rgb(0, 0, 0)" stroke-opacity="1.0" stroke-linecap="round" stroke-linejoin="round"/>
    <path d="M 140.99795532226562 120.45831298828125 C 66.89486694335938 104.94377136230469 138.01446533203125 117.67070770263672 109.63981628417969 121.09013366699219" stroke-width="2" fill="none" stroke="rgb(0, 0, 0)" stroke-opacity="1.0" stroke-linecap="round" stroke-linejoin="round"/>
    <path d="M 140.02133178710938 93.31561279296875 C 147.22486877441406 87.90752410888672 160.71998596191406 87.25626373291016 142.8881378173828 88.90933227539062" stroke-width="2" fill="none" stroke="rgb(0, 0, 0)" stroke-opacity="1.0" stroke-linecap="round" stroke-linejoin="round"/>
    <path d="M 89.22550201416016 78.89646911621094 C 61.9129753112793 74.89136505126953 145.27366638183594 64.95402526855469 113.85626220703125 71.62311553955078" stroke-width="2" fill="none" stroke="rgb(0, 0, 0)" stroke-opacity="1.0" stroke-linecap="round" stroke-linejoin="round"/>
    <path d="M 86.62999725341797 67.69438171386719 C 104.49565124511719 102.43216705322266 115.927734375 92.8479232788086 135.16119384765625 104.00786590576172" stroke-width="2" fill="none" stroke="rgb(0, 0, 0)" stroke-opacity="1.0" stroke-linecap="round" stroke-linejoin="round"/>
    <path d="M 134.6725616455078 115.38492584228516 C 148.3307342529297 128.95558166503906 205.12725830078125 126.363037109375 173.5535125732422 120.42273712158203" stroke-width="2" fill="none" stroke="rgb(0, 0, 0)" stroke-opacity="1.0" stroke-linecap="round" stroke-linejoin="round"/>
    <path d="M 147.73411560058594 103.52365112304688 C 171.17318725585938 102.34688568115234 129.84719848632812 98.06731414794922 103.55132293701172 88.83948516845703" stroke-width="2" fill="none" stroke="rgb(0, 0, 0)" stroke-opacity="1.0" stroke-linecap="round" stroke-linejoin="round"/>
    <path d="M 168.73574829101562 134.50836181640625 C 200.26974487304688 85.36705017089844 158.40902709960938 63.248775482177734 131.40980529785156 84.36901092529297" stroke-width="2" fill="none" stroke="rgb(0, 0, 0)" stroke-opacity="1.0" stroke-linecap="round" stroke-linejoin="round"/>
    <path d="M 103.51998138427734 74.18920135498047 C 122.55816650390625 78.97516632080078 84.91238403320312 89.75418853759766 108.28571319580078 69.55207061767578" stroke-width="2" fill="none" stroke="rgb(0, 0, 0)" stroke-opacity="1.0" stroke-linecap="round" stroke-linejoin="round"/>
    <path d="M 159.31240844726562 134.6376953125 C 201.0552520751953 100.70652770996094 185.24363708496094 148.68539428710938 213.3041229248047 141.0465087890625" stroke-width="2" fill="none" stroke="rgb(0, 0, 0)" stroke-opacity="1.0" stroke-linecap="round" stroke-linejoin="round"/>
    <path d="M 175.60269165039062 106.48966979980469 C 178.8234405517578 109.85082244873047 183.52804565429688 98.01248168945312 174.9987335205078 95.53528594970703" stroke-width="2" fill="none" stroke="rgb(0, 0, 0)" stroke-opacity="1.0" stroke-linecap="round" stroke-linejoin="round"/>
    <path d="M 134.2165985107422 75.31653594970703 C 121.71622467041016 28.01418113708496 164.41297912597656 45.12907409667969 148.83822631835938 71.76912689208984" stroke-width="2" fill="none" stroke="rgb(0, 0, 0)" stroke-opacity="1.0" stroke-linecap="round" stroke-linejoin="round"/>
    <path d="M 123.29568481445312 106.80626678466797 C 102.50630950927734 70.6087417602539 167.98785400390625 63.632568359375 111.2618408203125 67.69168090820312" stroke-width="2" fill="none" stroke="rgb(0, 0, 0)" stroke-opacity="1.0" stroke-linecap="round" stroke-linejoin="round"/>
    <path d="M 118.9365234375 73.9048843383789 C 140.4117431640625 46.0052604675293 143.85743713378906 85.58331298828125 124.77943420410156 65.92391204833984" stroke-width="2" fill="none" stroke="rgb(0, 0, 0)" stroke-opacity="1.0" stroke-linecap="round" stroke-linejoin="round"/>
    <path d="M 151.61337280273438 65.63905334472656 C 129.59584045410156 85.08304595947266 116.2224349975586 86.25670623779297 160.65151977539062 81.5623550415039" stroke-width="2" fill="none" stroke="rgb(0, 0, 0)" stroke-opacity="1.0" stroke-linecap="round" stroke-linejoin="round"/>
  </g>
</svg>
