<?xml version="1.0" ?>
<svg xmlns="http://www.w3.org/2000/svg" version="1.1" width="224" height="224">
  <defs/>
  <g>
    <path d="M 112.9896469116211 70.6362533569336 C 84.64533996582031 73.81365966796875 84.06999969482422 94.31998443603516 152.38949584960938 79.5970687866211" stroke-width="2" fill="none" stroke="rgb(0, 0, 0)" stroke-opacity="1.0" stroke-linecap="round" stroke-linejoin="round"/>
    <path d="M 156.0422821044922 117.7972640991211 C 168.439697265625 144.1649932861328 192.83541870117188 96.31237030029297 171.83030700683594 86.64057159423828" stroke-width="2" fill="none" stroke="rgb(0, 0, 0)" stroke-opacity="1.0" stroke-linecap="round" stroke-linejoin="round"/>
    <path d="M 143.21205139160156 118.71961212158203 C 86.41727447509766 107.79011535644531 150.96511840820312 119.63005065917969 109.8272933959961 120.03054809570312" stroke-width="2" fill="none" stroke="rgb(0, 0, 0)" stroke-opacity="1.0" stroke-linecap="round" stroke-linejoin="round"/>
    <path d="M 136.38987731933594 90.44734954833984 C 154.0397491455078 82.43787384033203 166.43118286132812 81.49725341796875 144.96847534179688 91.9002914428711" stroke-width="2" fill="none" stroke="rgb(0, 0, 0)" stroke-opacity="1.0" stroke-linecap="round" stroke-linejoin="round"/>
    <path d="M 89.85249328613281 74.74154663085938 C 68.16029357910156 70.84627532958984 146.10910034179688 64.027587890625 121.85688781738281 71.01746368408203" stroke-width="2" fill="none" stroke="rgb(0, 0, 0)" stroke-opacity="1.0" stroke-linecap="round" stroke-linejoin="round"/>
    <path d="M 91.8990249633789 67.5565185546875 C 115.47118377685547 92.09083557128906 119.43898010253906 90.6309585571289 132.28302001953125 104.4627456665039" stroke-width="2" fill="none" stroke="rgb(0, 0, 0)" stroke-opacity="1.0" stroke-linecap="round" stroke-linejoin="round"/>
    <path d="M 136.23199462890625 114.34371185302734 C 157.6736297607422 128.14654541015625 198.3480987548828 128.74758911132812 177.14422607421875 126.56708526611328" stroke-width="2" fill="none" stroke="rgb(0, 0, 0)" stroke-opacity="1.0" stroke-linecap="round" stroke-linejoin="round"/>
    <path d="M 152.52371215820312 104.24047088623047 C 177.34608459472656 106.59214782714844 138.0543670654297 96.33466339111328 111.68360900878906 86.30775451660156" stroke-width="2" fill="none" stroke="rgb(0, 0, 0)" stroke-opacity="1.0" stroke-linecap="round" stroke-linejoin="round"/>
    <path d="M 172.8133087158203 130.98463439941406 C 198.16647338867188 79.57923889160156 162.42068481445312 64.2674331665039 132.08779907226562 80.93699645996094" stroke-width="2" fill="none" stroke="rgb(0, 0, 0)" stroke-opacity="1.0" stroke-linecap="round" stroke-linejoin="round"/>
    <path d="M 111.37220001220703 68.09471130371094 C 124.68280792236328 75.07750701904297 107.67839050292969 82.71595764160156 110.15767669677734 67.40701293945312" stroke-width="2" fill="none" stroke="rgb(0, 0, 0)" stroke-opacity="1.0" stroke-linecap="round" stroke-linejoin="round"/>
    <path d="M 159.68287658691406 134.33480834960938 C 194.96299743652344 99.16766357421875 184.15863037109375 155.28494262695312 212.05760192871094 143.3028564453125" stroke-width="2" fill="none" stroke="rgb(0, 0, 0)" stroke-opacity="1.0" stroke-linecap="round" stroke-linejoin="round"/>
    <path d="M 175.12315368652344 107.40935516357422 C 179.43980407714844 108.76982879638672 185.43899536132812 92.99161529541016 174.87936401367188 96.56806945800781" stroke-width="2" fill="none" stroke="rgb(0, 0, 0)" stroke-opacity="1.0" stroke-linecap="round" stroke-linejoin="round"/>
    <path d="M 142.4018096923828 79.82662963867188 C 129.21380615234375 14.636481285095215 170.1335906982422 30.576684951782227 149.0890655517578 62.91890335083008" stroke-width="2" fill="none" stroke="rgb(0, 0, 0)" stroke-opacity="1.0" stroke-linecap="round" stroke-linejoin="round"/>
    <path d="M 127.45677185058594 115.96197509765625 C 117.0191879272461 53.15194320678711 163.5133819580078 65.35909271240234 110.13801574707031 66.18281555175781" stroke-width="2" fill="none" stroke="rgb(0, 0, 0)" stroke-opacity="1.0" stroke-linecap="round" stroke-linejoin="round"/>
    <path d="M 123.17976379394531 84.19041442871094 C 143.01495361328125 62.71970748901367 150.84130859375 83.69367980957031 129.39773559570312 67.36274719238281" stroke-width="2" fill="none" stroke="rgb(0, 0, 0)" stroke-opacity="1.0" stroke-linecap="round" stroke-linejoin="round"/>
    <path d="M 149.23843383789062 68.7357177734375 C 139.8782501220703 88.13957977294922 129.3340301513672 88.25873565673828 156.89926147460938 81.20499420166016" stroke-width="2" fill="none" stroke="rgb(0, 0, 0)" stroke-opacity="1.0" stroke-linecap="round" stroke-linejoin="round"/>
  </g>
</svg>
