<?xml version="1.0" ?>
<svg xmlns="http://www.w3.org/2000/svg" version="1.1" width="224" height="224">
  <defs/>
  <g>
    <path d="M 140.1727294921875 90.37028503417969 C 112.19097900390625 97.61090087890625 125.24451446533203 83.70747375488281 160.42396545410156 75.19535827636719" stroke-width="3.0" fill="none" stroke="rgb(0, 0, 0)" stroke-opacity="1.0" stroke-linecap="round" stroke-linejoin="round"/>
    <path d="M 122.457763671875 117.11064147949219 C 192.30760192871094 132.11317443847656 184.8675079345703 128.3467559814453 156.4183807373047 113.00597381591797" stroke-width="3.0" fill="none" stroke="rgb(0, 0, 0)" stroke-opacity="1.0" stroke-linecap="round" stroke-linejoin="round"/>
    <path d="M 138.37628173828125 100.85595703125 C 144.44285583496094 120.03137969970703 120.41315460205078 124.12191009521484 140.88592529296875 104.93244934082031" stroke-width="3.0" fill="none" stroke="rgb(0, 0, 0)" stroke-opacity="1.0" stroke-linecap="round" stroke-linejoin="round"/>
    <path d="M 145.84902954101562 115.70278930664062 C 154.40625 88.98784637451172 174.19615173339844 74.50617218017578 135.1679229736328 85.30597686767578" stroke-width="3.0" fill="none" stroke="rgb(0, 0, 0)" stroke-opacity="1.0" stroke-linecap="round" stroke-linejoin="round"/>
    <path d="M 104.85157775878906 79.16019439697266 C 115.82592010498047 79.53217315673828 121.14186096191406 59.147125244140625 129.13449096679688 78.96269226074219" stroke-width="3.0" fill="none" stroke="rgb(0, 0, 0)" stroke-opacity="1.0" stroke-linecap="round" stroke-linejoin="round"/>
    <path d="M 124.9778823852539 74.66081237792969 C 118.63796997070312 75.96051788330078 103.29459381103516 77.0090560913086 129.6945037841797 93.66145324707031" stroke-width="3.0" fill="none" stroke="rgb(0, 0, 0)" stroke-opacity="1.0" stroke-linecap="round" stroke-linejoin="round"/>
    <path d="M 154.65101623535156 106.6091079711914 C 171.4745330810547 132.61058044433594 190.2484588623047 148.15943908691406 173.0504913330078 103.45642852783203" stroke-width="3.0" fill="none" stroke="rgb(0, 0, 0)" stroke-opacity="1.0" stroke-linecap="round" stroke-linejoin="round"/>
    <path d="M 170.836181640625 97.17259216308594 C 199.05990600585938 119.59295654296875 149.08837890625 109.40023040771484 136.30877685546875 103.07197570800781" stroke-width="3.0" fill="none" stroke="rgb(0, 0, 0)" stroke-opacity="1.0" stroke-linecap="round" stroke-linejoin="round"/>
    <path d="M 149.56228637695312 88.82489776611328 C 171.23724365234375 118.48401641845703 183.6837615966797 115.32988739013672 155.89524841308594 101.0996322631836" stroke-width="3.0" fill="none" stroke="rgb(0, 0, 0)" stroke-opacity="1.0" stroke-linecap="round" stroke-linejoin="round"/>
    <path d="M 115.7410888671875 74.19891357421875 C 117.21586608886719 75.3033447265625 117.6962661743164 69.2613525390625 103.27013397216797 73.37094116210938" stroke-width="3.0" fill="none" stroke="rgb(0, 0, 0)" stroke-opacity="1.0" stroke-linecap="round" stroke-linejoin="round"/>
    <path d="M 144.67848205566406 135.265625 C 181.2245330810547 131.20944213867188 155.96836853027344 106.78671264648438 193.09878540039062 133.23489379882812" stroke-width="3.0" fill="none" stroke="rgb(0, 0, 0)" stroke-opacity="1.0" stroke-linecap="round" stroke-linejoin="round"/>
    <path d="M 185.49378967285156 131.6439971923828 C 179.20950317382812 81.84334564208984 162.69827270507812 66.93666076660156 187.95114135742188 106.17906188964844" stroke-width="3.0" fill="none" stroke="rgb(0, 0, 0)" stroke-opacity="1.0" stroke-linecap="round" stroke-linejoin="round"/>
    <path d="M 138.8699951171875 107.89693450927734 C 153.515380859375 93.5863265991211 149.80795288085938 68.8081283569336 161.3323516845703 91.43097686767578" stroke-width="3.0" fill="none" stroke="rgb(0, 0, 0)" stroke-opacity="1.0" stroke-linecap="round" stroke-linejoin="round"/>
    <path d="M 139.7351837158203 88.13951110839844 C 107.1798095703125 77.91516876220703 109.21377563476562 64.52737426757812 119.28555297851562 79.43537139892578" stroke-width="3.0" fill="none" stroke="rgb(0, 0, 0)" stroke-opacity="1.0" stroke-linecap="round" stroke-linejoin="round"/>
    <path d="M 115.76116180419922 73.36848449707031 C 115.22068786621094 80.37171173095703 131.07254028320312 91.8721694946289 118.2884292602539 72.6112289428711" stroke-width="3.0" fill="none" stroke="rgb(0, 0, 0)" stroke-opacity="1.0" stroke-linecap="round" stroke-linejoin="round"/>
    <path d="M 165.4292755126953 80.92615509033203 C 153.2757110595703 72.98641204833984 160.3460693359375 72.60173797607422 172.59017944335938 88.66117858886719" stroke-width="3.0" fill="none" stroke="rgb(0, 0, 0)" stroke-opacity="1.0" stroke-linecap="round" stroke-linejoin="round"/>
    <path d="M 89.96389770507812 97.29057312011719 C 91.5483627319336 70.53302001953125 109.84928894042969 110.18746948242188 98.60861206054688 89.06080627441406" stroke-width="3.0" fill="none" stroke="rgb(0, 0, 0)" stroke-opacity="1.0" stroke-linecap="round" stroke-linejoin="round"/>
    <path d="M 68.33209991455078 94.51361083984375 C 94.68402099609375 76.7567367553711 88.65911865234375 86.54773712158203 70.18292236328125 100.291015625" stroke-width="3.0" fill="none" stroke="rgb(0, 0, 0)" stroke-opacity="1.0" stroke-linecap="round" stroke-linejoin="round"/>
    <path d="M 101.15049743652344 81.02379608154297 C 114.47034454345703 92.26992797851562 127.08389282226562 80.24120330810547 106.34696197509766 78.35908508300781" stroke-width="3.0" fill="none" stroke="rgb(0, 0, 0)" stroke-opacity="1.0" stroke-linecap="round" stroke-linejoin="round"/>
    <path d="M 99.40592956542969 85.81925964355469 C 127.17994689941406 113.19317626953125 146.4626922607422 117.60218811035156 111.42951202392578 117.96227264404297" stroke-width="3.0" fill="none" stroke="rgb(0, 0, 0)" stroke-opacity="1.0" stroke-linecap="round" stroke-linejoin="round"/>
    <path d="M 67.7817153930664 72.3842544555664 C 87.7724380493164 80.69889831542969 96.36465454101562 95.25225067138672 64.30020904541016 78.29988861083984" stroke-width="3.0" fill="none" stroke="rgb(0, 0, 0)" stroke-opacity="1.0" stroke-linecap="round" stroke-linejoin="round"/>
    <path d="M 107.62329864501953 78.01498413085938 C 77.8584213256836 86.96731567382812 95.59337615966797 89.57547760009766 100.18543243408203 90.2442855834961" stroke-width="3.0" fill="none" stroke="rgb(0, 0, 0)" stroke-opacity="1.0" stroke-linecap="round" stroke-linejoin="round"/>
    <path d="M 90.46336364746094 90.12687683105469 C 90.92076873779297 91.25007629394531 93.12462615966797 86.22698211669922 74.67205810546875 105.15992736816406" stroke-width="3.0" fill="none" stroke="rgb(0, 0, 0)" stroke-opacity="1.0" stroke-linecap="round" stroke-linejoin="round"/>
    <path d="M 90.92424011230469 90.25545501708984 C 90.43392181396484 89.53337097167969 93.72686767578125 87.46913146972656 91.12876892089844 89.8501968383789" stroke-width="3.0" fill="none" stroke="rgb(0, 0, 0)" stroke-opacity="1.0" stroke-linecap="round" stroke-linejoin="round"/>
    <path d="M 159.49794006347656 132.5098419189453 C 144.98583984375 102.77699279785156 142.9121856689453 113.8363037109375 161.30628967285156 78.13800048828125" stroke-width="3.0" fill="none" stroke="rgb(0, 0, 0)" stroke-opacity="1.0" stroke-linecap="round" stroke-linejoin="round"/>
    <path d="M 91.78389739990234 78.85652923583984 C 83.69023132324219 84.60259246826172 97.3000717163086 81.17242431640625 67.58889770507812 65.43843841552734" stroke-width="3.0" fill="none" stroke="rgb(0, 0, 0)" stroke-opacity="1.0" stroke-linecap="round" stroke-linejoin="round"/>
    <path d="M 153.38412475585938 99.79835510253906 C 187.26123046875 75.70167541503906 133.217041015625 81.63824462890625 150.6743621826172 91.50819396972656" stroke-width="3.0" fill="none" stroke="rgb(0, 0, 0)" stroke-opacity="1.0" stroke-linecap="round" stroke-linejoin="round"/>
    <path d="M 118.71742248535156 112.95980072021484 C 107.9442138671875 97.97703552246094 100.86262512207031 96.80626678466797 89.95125579833984 95.7637710571289" stroke-width="3.0" fill="none" stroke="rgb(0, 0, 0)" stroke-opacity="1.0" stroke-linecap="round" stroke-linejoin="round"/>
    <path d="M 113.43656921386719 72.06206512451172 C 117.26666259765625 60.83787536621094 138.8567352294922 54.76688766479492 132.56712341308594 97.97657012939453" stroke-width="3.0" fill="none" stroke="rgb(0, 0, 0)" stroke-opacity="1.0" stroke-linecap="round" stroke-linejoin="round"/>
    <path d="M 99.79150390625 97.55284881591797 C 106.38114166259766 100.58588409423828 93.53701782226562 95.3681411743164 102.2542495727539 94.65361785888672" stroke-width="3.0" fill="none" stroke="rgb(0, 0, 0)" stroke-opacity="1.0" stroke-linecap="round" stroke-linejoin="round"/>
    <path d="M 85.30992889404297 83.43209838867188 C 86.65342712402344 101.16124725341797 96.06163787841797 80.23351287841797 92.1591796875 79.05255889892578" stroke-width="3.0" fill="none" stroke="rgb(0, 0, 0)" stroke-opacity="1.0" stroke-linecap="round" stroke-linejoin="round"/>
    <path d="M 94.31413269042969 77.32124328613281 C 108.24561309814453 70.40530395507812 104.45077514648438 73.88162231445312 102.23567962646484 73.42156219482422" stroke-width="3.0" fill="none" stroke="rgb(0, 0, 0)" stroke-opacity="1.0" stroke-linecap="round" stroke-linejoin="round"/>
  </g>
</svg>
