<?xml version="1.0" ?>
<svg xmlns="http://www.w3.org/2000/svg" version="1.1" width="224" height="224">
  <defs/>
  <g>
    <path d="M 68.31605529785156 92.77416229248047 C 100.97085571289062 123.16400146484375 76.42921447753906 87.83243560791016 67.79879760742188 82.96084594726562" stroke-width="3.0" fill="none" stroke="rgb(0, 0, 0)" stroke-opacity="1.0" stroke-linecap="round" stroke-linejoin="round"/>
    <path d="M 142.99588012695312 200.74647521972656 C 196.8853759765625 212.0584716796875 168.9446258544922 190.60691833496094 152.672119140625 180.03431701660156" stroke-width="3.0" fill="none" stroke="rgb(0, 0, 0)" stroke-opacity="1.0" stroke-linecap="round" stroke-linejoin="round"/>
    <path d="M 122.20166778564453 180.9730682373047 C 163.14732360839844 130.9186553955078 85.869140625 112.77562713623047 103.70249938964844 167.34291076660156" stroke-width="3.0" fill="none" stroke="rgb(0, 0, 0)" stroke-opacity="1.0" stroke-linecap="round" stroke-linejoin="round"/>
    <path d="M 138.81658935546875 110.53854370117188 C 127.73341369628906 101.88084411621094 146.28585815429688 111.2435073852539 123.30876159667969 99.21184539794922" stroke-width="3.0" fill="none" stroke="rgb(0, 0, 0)" stroke-opacity="1.0" stroke-linecap="round" stroke-linejoin="round"/>
    <path d="M 91.37077331542969 63.458465576171875 C 83.98129272460938 67.62366485595703 90.85831451416016 34.62594985961914 100.6879653930664 41.74894332885742" stroke-width="3.0" fill="none" stroke="rgb(0, 0, 0)" stroke-opacity="1.0" stroke-linecap="round" stroke-linejoin="round"/>
    <path d="M 78.93733978271484 24.014732360839844 C 100.18621826171875 51.854095458984375 89.07597351074219 40.96670913696289 78.53683471679688 57.443931579589844" stroke-width="3.0" fill="none" stroke="rgb(0, 0, 0)" stroke-opacity="1.0" stroke-linecap="round" stroke-linejoin="round"/>
    <path d="M 166.68499755859375 148.37374877929688 C 179.8722381591797 192.2577362060547 191.74464416503906 189.5057373046875 166.55323791503906 160.12643432617188" stroke-width="3.0" fill="none" stroke="rgb(0, 0, 0)" stroke-opacity="1.0" stroke-linecap="round" stroke-linejoin="round"/>
    <path d="M 82.27760314941406 125.34909057617188 C 76.51575469970703 107.610107421875 63.50962448120117 115.84259033203125 67.11894226074219 103.05046081542969" stroke-width="3.0" fill="none" stroke="rgb(0, 0, 0)" stroke-opacity="1.0" stroke-linecap="round" stroke-linejoin="round"/>
    <path d="M 112.67664337158203 160.8306884765625 C 147.39405822753906 167.2581787109375 117.15486145019531 128.06983947753906 104.54579162597656 160.98533630371094" stroke-width="3.0" fill="none" stroke="rgb(0, 0, 0)" stroke-opacity="1.0" stroke-linecap="round" stroke-linejoin="round"/>
    <path d="M 78.39935302734375 29.83763885498047 C 88.43989562988281 56.35018539428711 87.14237213134766 35.30228042602539 76.588134765625 49.7745361328125" stroke-width="3.0" fill="none" stroke="rgb(0, 0, 0)" stroke-opacity="1.0" stroke-linecap="round" stroke-linejoin="round"/>
    <path d="M 99.74382781982422 209.42626953125 C 176.52854919433594 177.21261596679688 117.93148040771484 205.4282684326172 169.7932891845703 197.65830993652344" stroke-width="3.0" fill="none" stroke="rgb(0, 0, 0)" stroke-opacity="1.0" stroke-linecap="round" stroke-linejoin="round"/>
    <path d="M 180.54476928710938 181.61094665527344 C 176.18264770507812 138.00572204589844 180.24667358398438 143.35145568847656 139.69354248046875 156.72952270507812" stroke-width="3.0" fill="none" stroke="rgb(0, 0, 0)" stroke-opacity="1.0" stroke-linecap="round" stroke-linejoin="round"/>
    <path d="M 104.22760772705078 77.5337142944336 C 93.34820556640625 61.06181716918945 146.5900115966797 65.30392456054688 105.49818420410156 87.67498779296875" stroke-width="3.0" fill="none" stroke="rgb(0, 0, 0)" stroke-opacity="1.0" stroke-linecap="round" stroke-linejoin="round"/>
    <path d="M 87.95429229736328 70.9281005859375 C 79.71992492675781 50.754974365234375 80.58257293701172 60.07672882080078 64.07089233398438 92.84324645996094" stroke-width="3.0" fill="none" stroke="rgb(0, 0, 0)" stroke-opacity="1.0" stroke-linecap="round" stroke-linejoin="round"/>
    <path d="M 106.24964141845703 55.045433044433594 C 116.45890045166016 70.78886413574219 134.68751525878906 65.32666778564453 102.17220306396484 43.009883880615234" stroke-width="3.0" fill="none" stroke="rgb(0, 0, 0)" stroke-opacity="1.0" stroke-linecap="round" stroke-linejoin="round"/>
    <path d="M 90.0382080078125 90.19082641601562 C 76.00347137451172 78.15201568603516 76.30974578857422 75.19864654541016 74.07674407958984 74.37113189697266" stroke-width="3.0" fill="none" stroke="rgb(0, 0, 0)" stroke-opacity="1.0" stroke-linecap="round" stroke-linejoin="round"/>
    <path d="M 125.17264556884766 93.58078002929688 C 131.57571411132812 100.56427764892578 156.99522399902344 102.32229614257812 176.7913055419922 143.29586791992188" stroke-width="3.0" fill="none" stroke="rgb(0, 0, 0)" stroke-opacity="1.0" stroke-linecap="round" stroke-linejoin="round"/>
    <path d="M 118.34915161132812 88.89448547363281 C 134.43212890625 117.43294525146484 136.78334045410156 107.44867706298828 113.32585144042969 74.53884887695312" stroke-width="3.0" fill="none" stroke="rgb(0, 0, 0)" stroke-opacity="1.0" stroke-linecap="round" stroke-linejoin="round"/>
    <path d="M 80.06460571289062 69.55126190185547 C 95.75858306884766 102.11759948730469 136.1517791748047 88.17369079589844 109.5640640258789 71.45669555664062" stroke-width="3.0" fill="none" stroke="rgb(0, 0, 0)" stroke-opacity="1.0" stroke-linecap="round" stroke-linejoin="round"/>
    <path d="M 69.81698608398438 111.3064193725586 C 86.06494903564453 150.06031799316406 92.20423126220703 149.2869873046875 71.64104461669922 118.60973358154297" stroke-width="3.0" fill="none" stroke="rgb(0, 0, 0)" stroke-opacity="1.0" stroke-linecap="round" stroke-linejoin="round"/>
    <path d="M 97.3404769897461 70.42789459228516 C 102.7265396118164 87.7061767578125 82.35010528564453 82.92261505126953 98.84725952148438 45.83085250854492" stroke-width="3.0" fill="none" stroke="rgb(0, 0, 0)" stroke-opacity="1.0" stroke-linecap="round" stroke-linejoin="round"/>
    <path d="M 114.85789489746094 83.88899993896484 C 126.27798461914062 92.96044921875 91.1389389038086 101.29165649414062 83.24995422363281 83.44673919677734" stroke-width="3.0" fill="none" stroke="rgb(0, 0, 0)" stroke-opacity="1.0" stroke-linecap="round" stroke-linejoin="round"/>
    <path d="M 81.03146362304688 94.65432739257812 C 101.9524917602539 96.48116302490234 81.7754898071289 128.0457763671875 65.59784698486328 94.39927673339844" stroke-width="3.0" fill="none" stroke="rgb(0, 0, 0)" stroke-opacity="1.0" stroke-linecap="round" stroke-linejoin="round"/>
    <path d="M 94.276123046875 101.90156555175781 C 139.8955078125 88.94512176513672 124.89277648925781 92.65625 91.40646362304688 115.56597137451172" stroke-width="3.0" fill="none" stroke="rgb(0, 0, 0)" stroke-opacity="1.0" stroke-linecap="round" stroke-linejoin="round"/>
    <path d="M 158.40634155273438 123.99839782714844 C 189.56092834472656 166.52378845214844 157.42295837402344 128.74826049804688 137.09759521484375 152.4710693359375" stroke-width="3.0" fill="none" stroke="rgb(0, 0, 0)" stroke-opacity="1.0" stroke-linecap="round" stroke-linejoin="round"/>
    <path d="M 120.9059829711914 51.33327102661133 C 131.74037170410156 66.61943054199219 110.80207824707031 97.4704818725586 124.40558624267578 27.734704971313477" stroke-width="3.0" fill="none" stroke="rgb(0, 0, 0)" stroke-opacity="1.0" stroke-linecap="round" stroke-linejoin="round"/>
    <path d="M 130.048095703125 121.90493774414062 C 129.18539428710938 104.82270812988281 95.15982055664062 100.46845245361328 94.55782318115234 133.17092895507812" stroke-width="3.0" fill="none" stroke="rgb(0, 0, 0)" stroke-opacity="1.0" stroke-linecap="round" stroke-linejoin="round"/>
    <path d="M 99.00182342529297 104.90569305419922 C 76.61565399169922 122.69050598144531 96.28627014160156 105.7033462524414 85.59871673583984 143.76272583007812" stroke-width="3.0" fill="none" stroke="rgb(0, 0, 0)" stroke-opacity="1.0" stroke-linecap="round" stroke-linejoin="round"/>
    <path d="M 121.85515594482422 25.48628807067871 C 107.7557144165039 43.947235107421875 103.7301025390625 42.040462493896484 119.2403793334961 46.83517074584961" stroke-width="3.0" fill="none" stroke="rgb(0, 0, 0)" stroke-opacity="1.0" stroke-linecap="round" stroke-linejoin="round"/>
    <path d="M 88.73153686523438 116.97496795654297 C 125.81319427490234 116.33468627929688 132.99188232421875 118.73416900634766 119.06896209716797 95.42444610595703" stroke-width="3.0" fill="none" stroke="rgb(0, 0, 0)" stroke-opacity="1.0" stroke-linecap="round" stroke-linejoin="round"/>
    <path d="M 108.69571685791016 58.36224365234375 C 87.429443359375 76.47614288330078 101.84772491455078 66.3255386352539 103.02050018310547 48.16547393798828" stroke-width="3.0" fill="none" stroke="rgb(0, 0, 0)" stroke-opacity="1.0" stroke-linecap="round" stroke-linejoin="round"/>
    <path d="M 71.51954650878906 67.34121704101562 C 77.68865203857422 52.53372573852539 72.17762756347656 44.032047271728516 74.19684600830078 25.271106719970703" stroke-width="3.0" fill="none" stroke="rgb(0, 0, 0)" stroke-opacity="1.0" stroke-linecap="round" stroke-linejoin="round"/>
  </g>
</svg>
