<?xml version="1.0" ?>
<svg xmlns="http://www.w3.org/2000/svg" version="1.1" width="224" height="224">
  <defs/>
  <g>
    <path d="M 66.58270263671875 97.12055206298828 C 111.78140258789062 120.08670806884766 78.00386810302734 93.67103576660156 69.12604522705078 89.42074584960938" stroke-width="3.0" fill="none" stroke="rgb(0, 0, 0)" stroke-opacity="1.0" stroke-linecap="round" stroke-linejoin="round"/>
    <path d="M 136.6419677734375 196.61907958984375 C 199.8056640625 221.61541748046875 169.41836547851562 200.2653350830078 150.8156280517578 178.32012939453125" stroke-width="3.0" fill="none" stroke="rgb(0, 0, 0)" stroke-opacity="1.0" stroke-linecap="round" stroke-linejoin="round"/>
    <path d="M 120.62981414794922 182.23812866210938 C 160.0152587890625 140.57806396484375 92.76844787597656 107.20635223388672 103.29248046875 168.5335235595703" stroke-width="3.0" fill="none" stroke="rgb(0, 0, 0)" stroke-opacity="1.0" stroke-linecap="round" stroke-linejoin="round"/>
    <path d="M 144.1849822998047 108.0407943725586 C 115.27690124511719 93.92378234863281 147.0059356689453 111.7681884765625 122.69548034667969 101.09159851074219" stroke-width="3.0" fill="none" stroke="rgb(0, 0, 0)" stroke-opacity="1.0" stroke-linecap="round" stroke-linejoin="round"/>
    <path d="M 91.99285888671875 60.14903259277344 C 77.13530731201172 57.50142288208008 91.42850494384766 32.90593338012695 100.46098327636719 40.040260314941406" stroke-width="3.0" fill="none" stroke="rgb(0, 0, 0)" stroke-opacity="1.0" stroke-linecap="round" stroke-linejoin="round"/>
    <path d="M 79.44026184082031 24.66268539428711 C 102.73412322998047 57.1206169128418 86.3467788696289 46.74382019042969 78.84082794189453 61.70170974731445" stroke-width="3.0" fill="none" stroke="rgb(0, 0, 0)" stroke-opacity="1.0" stroke-linecap="round" stroke-linejoin="round"/>
    <path d="M 168.90211486816406 143.90736389160156 C 178.6680145263672 190.456298828125 184.0037078857422 154.20777893066406 145.7504119873047 156.57656860351562" stroke-width="3.0" fill="none" stroke="rgb(0, 0, 0)" stroke-opacity="1.0" stroke-linecap="round" stroke-linejoin="round"/>
    <path d="M 85.62882995605469 125.41307067871094 C 79.54525756835938 112.8509521484375 69.89007568359375 112.2374267578125 66.33751678466797 99.60148620605469" stroke-width="3.0" fill="none" stroke="rgb(0, 0, 0)" stroke-opacity="1.0" stroke-linecap="round" stroke-linejoin="round"/>
    <path d="M 112.51856231689453 166.14697265625 C 146.5522918701172 171.8156280517578 114.89570617675781 117.6867446899414 95.28877258300781 182.18531799316406" stroke-width="3.0" fill="none" stroke="rgb(0, 0, 0)" stroke-opacity="1.0" stroke-linecap="round" stroke-linejoin="round"/>
    <path d="M 78.10706329345703 30.54902458190918 C 84.04676818847656 57.9863166809082 81.6356201171875 30.24114418029785 78.3058853149414 51.02086639404297" stroke-width="3.0" fill="none" stroke="rgb(0, 0, 0)" stroke-opacity="1.0" stroke-linecap="round" stroke-linejoin="round"/>
    <path d="M 99.35858917236328 210.60464477539062 C 182.18646240234375 177.55796813964844 124.73147583007812 198.9583740234375 173.7045135498047 202.5538787841797" stroke-width="3.0" fill="none" stroke="rgb(0, 0, 0)" stroke-opacity="1.0" stroke-linecap="round" stroke-linejoin="round"/>
    <path d="M 170.52059936523438 200.47195434570312 C 196.10830688476562 157.2737579345703 167.21649169921875 140.74269104003906 138.56353759765625 155.72850036621094" stroke-width="3.0" fill="none" stroke="rgb(0, 0, 0)" stroke-opacity="1.0" stroke-linecap="round" stroke-linejoin="round"/>
    <path d="M 104.72405242919922 76.33468627929688 C 89.47396087646484 56.03098678588867 154.0670166015625 55.748355865478516 100.40472412109375 89.06647491455078" stroke-width="3.0" fill="none" stroke="rgb(0, 0, 0)" stroke-opacity="1.0" stroke-linecap="round" stroke-linejoin="round"/>
    <path d="M 86.36538696289062 70.5354995727539 C 87.97956848144531 58.270164489746094 74.69933319091797 63.98591232299805 65.83785247802734 95.68894958496094" stroke-width="3.0" fill="none" stroke="rgb(0, 0, 0)" stroke-opacity="1.0" stroke-linecap="round" stroke-linejoin="round"/>
    <path d="M 104.88538360595703 49.493499755859375 C 120.4015121459961 74.60942840576172 140.31736755371094 66.86835479736328 105.70537567138672 41.29636764526367" stroke-width="3.0" fill="none" stroke="rgb(0, 0, 0)" stroke-opacity="1.0" stroke-linecap="round" stroke-linejoin="round"/>
    <path d="M 102.1679916381836 99.90435028076172 C 76.65217590332031 76.84429168701172 73.63150787353516 76.28095245361328 80.06448364257812 78.38211059570312" stroke-width="3.0" fill="none" stroke="rgb(0, 0, 0)" stroke-opacity="1.0" stroke-linecap="round" stroke-linejoin="round"/>
    <path d="M 121.27898406982422 91.9365463256836 C 125.53839111328125 101.16287994384766 171.3279571533203 107.67926788330078 179.1206512451172 156.71600341796875" stroke-width="3.0" fill="none" stroke="rgb(0, 0, 0)" stroke-opacity="1.0" stroke-linecap="round" stroke-linejoin="round"/>
    <path d="M 123.22412872314453 96.57487487792969 C 114.9413833618164 125.03170013427734 129.65426635742188 108.87687683105469 113.35580444335938 63.706443786621094" stroke-width="3.0" fill="none" stroke="rgb(0, 0, 0)" stroke-opacity="1.0" stroke-linecap="round" stroke-linejoin="round"/>
    <path d="M 80.99852752685547 70.97151184082031 C 100.98284912109375 106.41195678710938 136.51646423339844 86.11167907714844 106.86973571777344 69.57904052734375" stroke-width="3.0" fill="none" stroke="rgb(0, 0, 0)" stroke-opacity="1.0" stroke-linecap="round" stroke-linejoin="round"/>
    <path d="M 68.6148681640625 109.31461334228516 C 96.14228820800781 179.04318237304688 121.78483581542969 175.36949157714844 80.6169662475586 130.44837951660156" stroke-width="3.0" fill="none" stroke="rgb(0, 0, 0)" stroke-opacity="1.0" stroke-linecap="round" stroke-linejoin="round"/>
    <path d="M 97.1799087524414 68.5982437133789 C 112.67191314697266 86.65509033203125 79.21920776367188 90.99591064453125 98.39252471923828 44.435970306396484" stroke-width="3.0" fill="none" stroke="rgb(0, 0, 0)" stroke-opacity="1.0" stroke-linecap="round" stroke-linejoin="round"/>
    <path d="M 118.35148620605469 86.20855712890625 C 135.6458740234375 94.4511947631836 79.50473022460938 103.97969818115234 72.5094223022461 82.0367202758789" stroke-width="3.0" fill="none" stroke="rgb(0, 0, 0)" stroke-opacity="1.0" stroke-linecap="round" stroke-linejoin="round"/>
    <path d="M 84.70376586914062 96.84078979492188 C 105.67591094970703 84.3697738647461 87.61920166015625 140.77499389648438 69.41395568847656 106.3178482055664" stroke-width="3.0" fill="none" stroke="rgb(0, 0, 0)" stroke-opacity="1.0" stroke-linecap="round" stroke-linejoin="round"/>
    <path d="M 95.70063781738281 102.14134216308594 C 160.3240509033203 94.95108795166016 126.63377380371094 95.89131927490234 93.85171508789062 120.95109558105469" stroke-width="3.0" fill="none" stroke="rgb(0, 0, 0)" stroke-opacity="1.0" stroke-linecap="round" stroke-linejoin="round"/>
    <path d="M 158.10707092285156 122.01810455322266 C 190.0037078857422 178.21282958984375 155.63360595703125 123.26351928710938 134.30104064941406 153.20997619628906" stroke-width="3.0" fill="none" stroke="rgb(0, 0, 0)" stroke-opacity="1.0" stroke-linecap="round" stroke-linejoin="round"/>
    <path d="M 120.8514404296875 53.8231086730957 C 131.9465789794922 60.12299728393555 111.86268615722656 94.26984405517578 122.90229797363281 27.778162002563477" stroke-width="3.0" fill="none" stroke="rgb(0, 0, 0)" stroke-opacity="1.0" stroke-linecap="round" stroke-linejoin="round"/>
    <path d="M 129.29388427734375 140.23353576660156 C 143.265869140625 98.34268951416016 73.47395324707031 121.47057342529297 97.4975357055664 142.23362731933594" stroke-width="3.0" fill="none" stroke="rgb(0, 0, 0)" stroke-opacity="1.0" stroke-linecap="round" stroke-linejoin="round"/>
    <path d="M 114.14805603027344 100.01133728027344 C 82.43273162841797 118.71158599853516 79.34937286376953 121.10751342773438 95.4784164428711 178.62457275390625" stroke-width="3.0" fill="none" stroke="rgb(0, 0, 0)" stroke-opacity="1.0" stroke-linecap="round" stroke-linejoin="round"/>
    <path d="M 121.6186752319336 25.267911911010742 C 99.61001586914062 50.924591064453125 111.80049133300781 45.57490921020508 122.70997619628906 40.24605178833008" stroke-width="3.0" fill="none" stroke="rgb(0, 0, 0)" stroke-opacity="1.0" stroke-linecap="round" stroke-linejoin="round"/>
    <path d="M 101.2774658203125 129.61402893066406 C 120.5833740234375 113.39629364013672 144.33233642578125 136.1871337890625 118.17317199707031 96.87996673583984" stroke-width="3.0" fill="none" stroke="rgb(0, 0, 0)" stroke-opacity="1.0" stroke-linecap="round" stroke-linejoin="round"/>
    <path d="M 111.20831298828125 53.398048400878906 C 91.27009582519531 79.74066925048828 98.78999328613281 63.02055358886719 104.28575134277344 43.0909309387207" stroke-width="3.0" fill="none" stroke="rgb(0, 0, 0)" stroke-opacity="1.0" stroke-linecap="round" stroke-linejoin="round"/>
    <path d="M 74.12873077392578 70.11231231689453 C 77.21170043945312 40.721981048583984 68.2833251953125 22.073583602905273 77.43335723876953 22.830093383789062" stroke-width="3.0" fill="none" stroke="rgb(0, 0, 0)" stroke-opacity="1.0" stroke-linecap="round" stroke-linejoin="round"/>
  </g>
</svg>
