<?xml version="1.0" ?>
<svg xmlns="http://www.w3.org/2000/svg" version="1.1" width="224" height="224">
  <defs/>
  <g>
    <path d="M 110.87128448486328 119.87931060791016 C 99.0096664428711 100.21329498291016 117.903564453125 131.06227111816406 95.15979766845703 120.14240264892578" stroke-width="2" fill="none" stroke="rgb(0, 0, 0)" stroke-opacity="1.0" stroke-linecap="round" stroke-linejoin="round"/>
    <path d="M 82.9872817993164 133.76956176757812 C 150.64378356933594 151.5851287841797 212.55299377441406 126.59957885742188 147.85337829589844 129.58314514160156" stroke-width="2" fill="none" stroke="rgb(0, 0, 0)" stroke-opacity="1.0" stroke-linecap="round" stroke-linejoin="round"/>
    <path d="M 154.19186401367188 148.3187713623047 C 140.38003540039062 143.7940673828125 98.70303344726562 154.39796447753906 113.13224029541016 103.36058807373047" stroke-width="2" fill="none" stroke="rgb(0, 0, 0)" stroke-opacity="1.0" stroke-linecap="round" stroke-linejoin="round"/>
    <path d="M 129.3453826904297 89.95278930664062 C 177.40313720703125 77.11019134521484 145.7235565185547 139.0639190673828 150.09173583984375 108.98929595947266" stroke-width="2" fill="none" stroke="rgb(0, 0, 0)" stroke-opacity="1.0" stroke-linecap="round" stroke-linejoin="round"/>
    <path d="M 112.51258850097656 101.55142974853516 C 121.087646484375 105.962646484375 112.34248352050781 116.68982696533203 108.70893859863281 96.49231719970703" stroke-width="2" fill="none" stroke="rgb(0, 0, 0)" stroke-opacity="1.0" stroke-linecap="round" stroke-linejoin="round"/>
    <path d="M 115.30951690673828 84.21565246582031 C 86.8837890625 37.243839263916016 107.92359924316406 118.93255615234375 120.70750427246094 102.26597595214844" stroke-width="2" fill="none" stroke="rgb(0, 0, 0)" stroke-opacity="1.0" stroke-linecap="round" stroke-linejoin="round"/>
    <path d="M 52.756072998046875 135.33021545410156 C 46.66848373413086 142.0680389404297 109.92109680175781 171.7265625 174.9326171875 143.47970581054688" stroke-width="2" fill="none" stroke="rgb(0, 0, 0)" stroke-opacity="1.0" stroke-linecap="round" stroke-linejoin="round"/>
    <path d="M 137.85751342773438 105.39490509033203 C 164.30596923828125 124.0427474975586 171.46044921875 115.02920532226562 178.4148406982422 72.7649154663086" stroke-width="2" fill="none" stroke="rgb(0, 0, 0)" stroke-opacity="1.0" stroke-linecap="round" stroke-linejoin="round"/>
    <path d="M 120.98676300048828 114.24729919433594 C 136.51983642578125 127.87576293945312 93.52005767822266 117.00570678710938 138.43458557128906 115.6551742553711" stroke-width="2" fill="none" stroke="rgb(0, 0, 0)" stroke-opacity="1.0" stroke-linecap="round" stroke-linejoin="round"/>
    <path d="M 181.30496215820312 67.32524108886719 C 185.73448181152344 81.2117919921875 150.77975463867188 90.23248291015625 164.92532348632812 92.08800506591797" stroke-width="2" fill="none" stroke="rgb(0, 0, 0)" stroke-opacity="1.0" stroke-linecap="round" stroke-linejoin="round"/>
    <path d="M 115.1767578125 121.04059600830078 C 180.9075469970703 78.35931396484375 196.64634704589844 158.51539611816406 163.83404541015625 146.79953002929688" stroke-width="2" fill="none" stroke="rgb(0, 0, 0)" stroke-opacity="1.0" stroke-linecap="round" stroke-linejoin="round"/>
    <path d="M 118.26543426513672 148.26171875 C 49.11798858642578 131.942626953125 11.093964576721191 144.6142578125 78.61319732666016 155.13894653320312" stroke-width="2" fill="none" stroke="rgb(0, 0, 0)" stroke-opacity="1.0" stroke-linecap="round" stroke-linejoin="round"/>
    <path d="M 110.33065032958984 103.77738952636719 C 152.74493408203125 93.74296569824219 122.86597442626953 94.28727722167969 114.50335693359375 82.85691833496094" stroke-width="2" fill="none" stroke="rgb(0, 0, 0)" stroke-opacity="1.0" stroke-linecap="round" stroke-linejoin="round"/>
    <path d="M 170.21278381347656 92.46150207519531 C 110.51567840576172 96.9214096069336 187.18553161621094 100.38912200927734 145.61172485351562 113.46923828125" stroke-width="2" fill="none" stroke="rgb(0, 0, 0)" stroke-opacity="1.0" stroke-linecap="round" stroke-linejoin="round"/>
    <path d="M 65.24288940429688 119.46675109863281 C 46.442325592041016 106.49884033203125 53.22241973876953 92.6607666015625 101.50265502929688 92.89934539794922" stroke-width="2" fill="none" stroke="rgb(0, 0, 0)" stroke-opacity="1.0" stroke-linecap="round" stroke-linejoin="round"/>
    <path d="M 69.43374633789062 122.97219848632812 C 48.777225494384766 83.01004791259766 26.586687088012695 139.9460906982422 54.15477752685547 147.90835571289062" stroke-width="2" fill="none" stroke="rgb(0, 0, 0)" stroke-opacity="1.0" stroke-linecap="round" stroke-linejoin="round"/>
  </g>
</svg>
