<?xml version="1.0" ?>
<svg xmlns="http://www.w3.org/2000/svg" version="1.1" width="224" height="224">
  <defs/>
  <g>
    <path d="M 127.36624908447266 124.82686614990234 C 131.8371124267578 118.75855255126953 148.94650268554688 153.83853149414062 94.30658721923828 120.70855712890625" stroke-width="2" fill="none" stroke="rgb(0, 0, 0)" stroke-opacity="1.0" stroke-linecap="round" stroke-linejoin="round"/>
    <path d="M 88.0811538696289 119.10185241699219 C 143.85983276367188 148.73623657226562 188.66146850585938 112.48788452148438 161.8190460205078 125.73538208007812" stroke-width="2" fill="none" stroke="rgb(0, 0, 0)" stroke-opacity="1.0" stroke-linecap="round" stroke-linejoin="round"/>
    <path d="M 156.46087646484375 133.3087158203125 C 182.30003356933594 118.58184814453125 104.75495147705078 155.03024291992188 123.62786865234375 103.130859375" stroke-width="2" fill="none" stroke="rgb(0, 0, 0)" stroke-opacity="1.0" stroke-linecap="round" stroke-linejoin="round"/>
    <path d="M 131.41571044921875 97.7068862915039 C 185.16468811035156 80.24209594726562 161.6963653564453 140.40089416503906 157.82518005371094 102.59439849853516" stroke-width="2" fill="none" stroke="rgb(0, 0, 0)" stroke-opacity="1.0" stroke-linecap="round" stroke-linejoin="round"/>
    <path d="M 121.83616638183594 124.0301284790039 C 127.95745086669922 112.28190612792969 124.11215209960938 124.49842071533203 110.06756591796875 105.94478607177734" stroke-width="2" fill="none" stroke="rgb(0, 0, 0)" stroke-opacity="1.0" stroke-linecap="round" stroke-linejoin="round"/>
    <path d="M 99.04034423828125 102.71887969970703 C 87.9762191772461 37.533226013183594 125.67707824707031 112.7629165649414 135.0532684326172 99.79609680175781" stroke-width="2" fill="none" stroke="rgb(0, 0, 0)" stroke-opacity="1.0" stroke-linecap="round" stroke-linejoin="round"/>
    <path d="M 43.50727081298828 131.62261962890625 C 26.62455940246582 147.7985076904297 115.14298248291016 163.29176330566406 175.1067352294922 149.65625" stroke-width="2" fill="none" stroke="rgb(0, 0, 0)" stroke-opacity="1.0" stroke-linecap="round" stroke-linejoin="round"/>
    <path d="M 146.37864685058594 95.60515594482422 C 160.96084594726562 113.01315307617188 172.01795959472656 104.7801742553711 177.4228973388672 70.6920394897461" stroke-width="2" fill="none" stroke="rgb(0, 0, 0)" stroke-opacity="1.0" stroke-linecap="round" stroke-linejoin="round"/>
    <path d="M 142.41268920898438 117.455322265625 C 186.5531005859375 122.9957504272461 107.03143310546875 119.35201263427734 155.26113891601562 116.70453643798828" stroke-width="2" fill="none" stroke="rgb(0, 0, 0)" stroke-opacity="1.0" stroke-linecap="round" stroke-linejoin="round"/>
    <path d="M 177.53948974609375 63.258705139160156 C 179.7459716796875 80.50835418701172 137.13540649414062 90.58386993408203 164.96051025390625 93.22457122802734" stroke-width="2" fill="none" stroke="rgb(0, 0, 0)" stroke-opacity="1.0" stroke-linecap="round" stroke-linejoin="round"/>
    <path d="M 142.3717803955078 125.92664337158203 C 172.1422882080078 75.1635513305664 204.84307861328125 168.1350555419922 147.2444305419922 148.9141082763672" stroke-width="2" fill="none" stroke="rgb(0, 0, 0)" stroke-opacity="1.0" stroke-linecap="round" stroke-linejoin="round"/>
    <path d="M 142.78358459472656 141.41871643066406 C 56.173370361328125 133.48846435546875 45.10750198364258 121.72158813476562 95.1240234375 146.2901153564453" stroke-width="2" fill="none" stroke="rgb(0, 0, 0)" stroke-opacity="1.0" stroke-linecap="round" stroke-linejoin="round"/>
    <path d="M 109.85734558105469 116.96646881103516 C 149.55430603027344 96.35941314697266 132.51089477539062 87.35364532470703 119.204345703125 96.00465393066406" stroke-width="2" fill="none" stroke="rgb(0, 0, 0)" stroke-opacity="1.0" stroke-linecap="round" stroke-linejoin="round"/>
    <path d="M 172.5033416748047 89.71277618408203 C 128.87252807617188 110.24771881103516 204.27978515625 105.3029556274414 131.3500213623047 111.52057647705078" stroke-width="2" fill="none" stroke="rgb(0, 0, 0)" stroke-opacity="1.0" stroke-linecap="round" stroke-linejoin="round"/>
    <path d="M 74.25812530517578 117.286865234375 C 32.92426300048828 123.45079040527344 41.60879135131836 94.08290100097656 103.66966247558594 96.4591293334961" stroke-width="2" fill="none" stroke="rgb(0, 0, 0)" stroke-opacity="1.0" stroke-linecap="round" stroke-linejoin="round"/>
    <path d="M 71.44861602783203 122.4132308959961 C 47.63301467895508 88.60006713867188 25.36175537109375 134.5972900390625 59.852718353271484 142.22911071777344" stroke-width="2" fill="none" stroke="rgb(0, 0, 0)" stroke-opacity="1.0" stroke-linecap="round" stroke-linejoin="round"/>
  </g>
</svg>
