<?xml version="1.0" ?>
<svg xmlns="http://www.w3.org/2000/svg" version="1.1" width="224" height="224">
  <defs/>
  <g>
    <path d="M 128.337158203125 136.1962890625 C 157.45616149902344 116.99118041992188 159.52297973632812 153.07760620117188 95.56478118896484 124.5462875366211" stroke-width="2" fill="none" stroke="rgb(0, 0, 0)" stroke-opacity="1.0" stroke-linecap="round" stroke-linejoin="round"/>
    <path d="M 91.68589782714844 130.8059844970703 C 165.76593017578125 146.17330932617188 183.1531219482422 119.2990951538086 155.43405151367188 109.60184478759766" stroke-width="2" fill="none" stroke="rgb(0, 0, 0)" stroke-opacity="1.0" stroke-linecap="round" stroke-linejoin="round"/>
    <path d="M 170.8511962890625 144.50291442871094 C 185.589111328125 127.01981353759766 89.65963745117188 147.90029907226562 131.51559448242188 100.4371109008789" stroke-width="2" fill="none" stroke="rgb(0, 0, 0)" stroke-opacity="1.0" stroke-linecap="round" stroke-linejoin="round"/>
    <path d="M 112.67466735839844 92.57079315185547 C 190.5541229248047 82.80091094970703 150.70657348632812 134.9898681640625 166.33096313476562 100.31461334228516" stroke-width="2" fill="none" stroke="rgb(0, 0, 0)" stroke-opacity="1.0" stroke-linecap="round" stroke-linejoin="round"/>
    <path d="M 116.9820556640625 126.94441223144531 C 122.22001647949219 95.61601257324219 109.83307647705078 124.9297866821289 94.87757110595703 106.22592163085938" stroke-width="2" fill="none" stroke="rgb(0, 0, 0)" stroke-opacity="1.0" stroke-linecap="round" stroke-linejoin="round"/>
    <path d="M 103.24964141845703 97.76432037353516 C 94.24598693847656 37.28315734863281 114.57431030273438 108.64805603027344 134.39698791503906 101.44847106933594" stroke-width="2" fill="none" stroke="rgb(0, 0, 0)" stroke-opacity="1.0" stroke-linecap="round" stroke-linejoin="round"/>
    <path d="M 39.580474853515625 134.12078857421875 C 38.69879913330078 144.0309295654297 124.88223266601562 158.85960388183594 170.513427734375 145.29307556152344" stroke-width="2" fill="none" stroke="rgb(0, 0, 0)" stroke-opacity="1.0" stroke-linecap="round" stroke-linejoin="round"/>
    <path d="M 143.10543823242188 97.11282348632812 C 142.24163818359375 112.49002838134766 179.88841247558594 113.06903839111328 178.6602020263672 63.87934494018555" stroke-width="2" fill="none" stroke="rgb(0, 0, 0)" stroke-opacity="1.0" stroke-linecap="round" stroke-linejoin="round"/>
    <path d="M 143.17401123046875 121.83618927001953 C 175.9828643798828 131.3896942138672 104.31878662109375 116.9856185913086 150.32057189941406 127.59117889404297" stroke-width="2" fill="none" stroke="rgb(0, 0, 0)" stroke-opacity="1.0" stroke-linecap="round" stroke-linejoin="round"/>
    <path d="M 179.1877899169922 65.15320587158203 C 168.47023010253906 84.75846099853516 145.8263397216797 104.47152709960938 160.4940643310547 89.18235778808594" stroke-width="2" fill="none" stroke="rgb(0, 0, 0)" stroke-opacity="1.0" stroke-linecap="round" stroke-linejoin="round"/>
    <path d="M 132.5703887939453 125.15196990966797 C 155.65994262695312 91.5046615600586 209.89842224121094 164.68157958984375 117.90008544921875 156.8164825439453" stroke-width="2" fill="none" stroke="rgb(0, 0, 0)" stroke-opacity="1.0" stroke-linecap="round" stroke-linejoin="round"/>
    <path d="M 132.39695739746094 146.15997314453125 C 48.56532287597656 139.9384002685547 23.67744255065918 129.7570343017578 62.04608154296875 153.38417053222656" stroke-width="2" fill="none" stroke="rgb(0, 0, 0)" stroke-opacity="1.0" stroke-linecap="round" stroke-linejoin="round"/>
    <path d="M 103.94477081298828 136.94842529296875 C 135.66929626464844 107.78108215332031 121.92440032958984 91.27176666259766 111.91738891601562 87.51063537597656" stroke-width="2" fill="none" stroke="rgb(0, 0, 0)" stroke-opacity="1.0" stroke-linecap="round" stroke-linejoin="round"/>
    <path d="M 164.02117919921875 83.77897644042969 C 141.7724609375 93.51789093017578 205.6156768798828 122.11827087402344 128.11090087890625 119.20026397705078" stroke-width="2" fill="none" stroke="rgb(0, 0, 0)" stroke-opacity="1.0" stroke-linecap="round" stroke-linejoin="round"/>
    <path d="M 74.32252502441406 135.71304321289062 C 42.43133544921875 125.99799346923828 45.11488342285156 85.25093841552734 112.33843231201172 94.23016357421875" stroke-width="2" fill="none" stroke="rgb(0, 0, 0)" stroke-opacity="1.0" stroke-linecap="round" stroke-linejoin="round"/>
    <path d="M 67.3656005859375 123.71554565429688 C 51.177791595458984 91.65300750732422 25.793807983398438 162.01791381835938 57.68321228027344 150.37667846679688" stroke-width="2" fill="none" stroke="rgb(0, 0, 0)" stroke-opacity="1.0" stroke-linecap="round" stroke-linejoin="round"/>
  </g>
</svg>
