<?xml version="1.0" ?>
<svg xmlns="http://www.w3.org/2000/svg" version="1.1" width="224" height="224">
  <defs/>
  <g>
    <path d="M 91.79627227783203 113.31120300292969 C 90.13516998291016 99.10356140136719 96.78540802001953 114.04899597167969 101.82557678222656 111.29869079589844" stroke-width="2" fill="none" stroke="rgb(0, 0, 0)" stroke-opacity="1.0" stroke-linecap="round" stroke-linejoin="round"/>
    <path d="M 99.44976806640625 135.4024658203125 C 127.23499298095703 143.76512145996094 148.0235137939453 137.04623413085938 113.55870056152344 137.0601806640625" stroke-width="2" fill="none" stroke="rgb(0, 0, 0)" stroke-opacity="1.0" stroke-linecap="round" stroke-linejoin="round"/>
    <path d="M 159.66754150390625 139.6339569091797 C 148.19744873046875 149.38156127929688 109.1690673828125 139.7374267578125 104.27336120605469 113.80086517333984" stroke-width="2" fill="none" stroke="rgb(0, 0, 0)" stroke-opacity="1.0" stroke-linecap="round" stroke-linejoin="round"/>
    <path d="M 133.1088409423828 99.40263366699219 C 190.6293487548828 87.93526458740234 163.37606811523438 151.53115844726562 146.2114715576172 118.3606185913086" stroke-width="2" fill="none" stroke="rgb(0, 0, 0)" stroke-opacity="1.0" stroke-linecap="round" stroke-linejoin="round"/>
    <path d="M 111.73509979248047 125.40824890136719 C 117.40642547607422 80.69434356689453 122.32356262207031 107.21318054199219 108.92930603027344 104.2081069946289" stroke-width="2" fill="none" stroke="rgb(0, 0, 0)" stroke-opacity="1.0" stroke-linecap="round" stroke-linejoin="round"/>
    <path d="M 107.75598907470703 70.70767211914062 C 97.39752960205078 78.92090606689453 105.08074951171875 93.34403228759766 107.6029281616211 106.41931915283203" stroke-width="2" fill="none" stroke="rgb(0, 0, 0)" stroke-opacity="1.0" stroke-linecap="round" stroke-linejoin="round"/>
    <path d="M 44.282073974609375 130.10472106933594 C 48.62075424194336 146.9884490966797 87.86463165283203 166.1750030517578 162.4848175048828 151.61322021484375" stroke-width="2" fill="none" stroke="rgb(0, 0, 0)" stroke-opacity="1.0" stroke-linecap="round" stroke-linejoin="round"/>
    <path d="M 149.9002685546875 110.07928466796875 C 165.353515625 112.84066009521484 174.7753448486328 100.54623413085938 167.11048889160156 95.78524017333984" stroke-width="2" fill="none" stroke="rgb(0, 0, 0)" stroke-opacity="1.0" stroke-linecap="round" stroke-linejoin="round"/>
    <path d="M 128.33274841308594 122.82762908935547 C 136.73170471191406 116.61091613769531 129.60362243652344 128.55487060546875 130.00608825683594 119.95513916015625" stroke-width="2" fill="none" stroke="rgb(0, 0, 0)" stroke-opacity="1.0" stroke-linecap="round" stroke-linejoin="round"/>
    <path d="M 180.44468688964844 62.87818908691406 C 180.973388671875 92.8783950805664 170.67684936523438 101.255859375 168.0031280517578 98.47291564941406" stroke-width="2" fill="none" stroke="rgb(0, 0, 0)" stroke-opacity="1.0" stroke-linecap="round" stroke-linejoin="round"/>
    <path d="M 139.39425659179688 124.63949584960938 C 189.9200897216797 110.54911041259766 186.9805450439453 153.18055725097656 165.5172119140625 151.08233642578125" stroke-width="2" fill="none" stroke="rgb(0, 0, 0)" stroke-opacity="1.0" stroke-linecap="round" stroke-linejoin="round"/>
    <path d="M 111.4041519165039 155.45156860351562 C 37.342437744140625 136.18743896484375 12.007881164550781 133.7667694091797 78.46403503417969 149.44747924804688" stroke-width="2" fill="none" stroke="rgb(0, 0, 0)" stroke-opacity="1.0" stroke-linecap="round" stroke-linejoin="round"/>
    <path d="M 113.66735076904297 103.8268814086914 C 141.83590698242188 108.79273223876953 129.93702697753906 96.70829010009766 107.56221008300781 69.6149673461914" stroke-width="2" fill="none" stroke="rgb(0, 0, 0)" stroke-opacity="1.0" stroke-linecap="round" stroke-linejoin="round"/>
    <path d="M 176.76113891601562 77.53463745117188 C 125.09114837646484 110.32054901123047 169.0388641357422 112.76496124267578 156.25799560546875 90.44181823730469" stroke-width="2" fill="none" stroke="rgb(0, 0, 0)" stroke-opacity="1.0" stroke-linecap="round" stroke-linejoin="round"/>
    <path d="M 63.51734924316406 88.9795150756836 C 52.878578186035156 90.91609191894531 52.118995666503906 90.5937271118164 100.15393829345703 82.49051666259766" stroke-width="2" fill="none" stroke="rgb(0, 0, 0)" stroke-opacity="1.0" stroke-linecap="round" stroke-linejoin="round"/>
    <path d="M 57.16585922241211 90.43400573730469 C 47.94820785522461 100.30609893798828 30.714664459228516 113.56856536865234 53.643280029296875 127.458251953125" stroke-width="2" fill="none" stroke="rgb(0, 0, 0)" stroke-opacity="1.0" stroke-linecap="round" stroke-linejoin="round"/>
  </g>
</svg>
