<?xml version="1.0" ?>
<svg xmlns="http://www.w3.org/2000/svg" version="1.1" width="224" height="224">
  <defs/>
  <g>
    <path d="M 116.61387634277344 112.87460327148438 C 107.11009979248047 113.9837646484375 120.40234375 148.90142822265625 93.13877868652344 126.91831970214844" stroke-width="2" fill="none" stroke="rgb(0, 0, 0)" stroke-opacity="1.0" stroke-linecap="round" stroke-linejoin="round"/>
    <path d="M 89.91353607177734 128.77952575683594 C 153.5652618408203 162.05917358398438 207.0673065185547 121.25377655029297 148.02249145507812 121.32388305664062" stroke-width="2" fill="none" stroke="rgb(0, 0, 0)" stroke-opacity="1.0" stroke-linecap="round" stroke-linejoin="round"/>
    <path d="M 140.83909606933594 140.2289581298828 C 167.3600616455078 121.56791687011719 102.69810485839844 155.0968475341797 114.09017944335938 102.23434448242188" stroke-width="2" fill="none" stroke="rgb(0, 0, 0)" stroke-opacity="1.0" stroke-linecap="round" stroke-linejoin="round"/>
    <path d="M 126.50373840332031 90.27596282958984 C 183.64505004882812 73.94695281982422 150.19940185546875 143.24046325683594 150.20199584960938 110.30081939697266" stroke-width="2" fill="none" stroke="rgb(0, 0, 0)" stroke-opacity="1.0" stroke-linecap="round" stroke-linejoin="round"/>
    <path d="M 115.32132720947266 113.44066619873047 C 124.9457015991211 108.71110534667969 112.25434112548828 128.3036346435547 101.7822036743164 94.39998626708984" stroke-width="2" fill="none" stroke="rgb(0, 0, 0)" stroke-opacity="1.0" stroke-linecap="round" stroke-linejoin="round"/>
    <path d="M 116.72984313964844 85.78120422363281 C 83.30106353759766 35.662784576416016 107.11383056640625 127.6552734375 116.72007751464844 96.7227554321289" stroke-width="2" fill="none" stroke="rgb(0, 0, 0)" stroke-opacity="1.0" stroke-linecap="round" stroke-linejoin="round"/>
    <path d="M 46.570579528808594 140.48263549804688 C 44.5031623840332 148.04774475097656 107.76399993896484 169.51116943359375 167.912353515625 142.89625549316406" stroke-width="2" fill="none" stroke="rgb(0, 0, 0)" stroke-opacity="1.0" stroke-linecap="round" stroke-linejoin="round"/>
    <path d="M 136.59445190429688 104.3241195678711 C 159.32725524902344 126.77696228027344 168.86373901367188 117.30361938476562 172.7701416015625 71.55814361572266" stroke-width="2" fill="none" stroke="rgb(0, 0, 0)" stroke-opacity="1.0" stroke-linecap="round" stroke-linejoin="round"/>
    <path d="M 130.7405548095703 119.94141387939453 C 164.63534545898438 124.88028717041016 103.91039276123047 122.80694580078125 139.4653778076172 118.51487731933594" stroke-width="2" fill="none" stroke="rgb(0, 0, 0)" stroke-opacity="1.0" stroke-linecap="round" stroke-linejoin="round"/>
    <path d="M 183.8658447265625 63.62586975097656 C 178.87551879882812 81.92805480957031 145.4044952392578 89.17032623291016 155.35302734375 96.0649642944336" stroke-width="2" fill="none" stroke="rgb(0, 0, 0)" stroke-opacity="1.0" stroke-linecap="round" stroke-linejoin="round"/>
    <path d="M 135.69207763671875 121.25276947021484 C 176.72703552246094 73.70362854003906 192.2416534423828 159.21206665039062 159.79319763183594 153.81930541992188" stroke-width="2" fill="none" stroke="rgb(0, 0, 0)" stroke-opacity="1.0" stroke-linecap="round" stroke-linejoin="round"/>
    <path d="M 121.58700561523438 156.03182983398438 C 61.9399528503418 131.12364196777344 34.74797439575195 137.25106811523438 96.10446166992188 146.0922393798828" stroke-width="2" fill="none" stroke="rgb(0, 0, 0)" stroke-opacity="1.0" stroke-linecap="round" stroke-linejoin="round"/>
    <path d="M 101.09345245361328 104.04291534423828 C 150.97962951660156 99.36399841308594 125.32013702392578 91.21190643310547 111.61894226074219 81.77638244628906" stroke-width="2" fill="none" stroke="rgb(0, 0, 0)" stroke-opacity="1.0" stroke-linecap="round" stroke-linejoin="round"/>
    <path d="M 166.88111877441406 95.6182861328125 C 118.54368591308594 120.87605285644531 202.48780822753906 119.5309066772461 138.27767944335938 109.27721405029297" stroke-width="2" fill="none" stroke="rgb(0, 0, 0)" stroke-opacity="1.0" stroke-linecap="round" stroke-linejoin="round"/>
    <path d="M 76.9310531616211 114.4310531616211 C 46.41115188598633 102.77080535888672 49.0679931640625 89.2991943359375 97.91972351074219 90.3978500366211" stroke-width="2" fill="none" stroke="rgb(0, 0, 0)" stroke-opacity="1.0" stroke-linecap="round" stroke-linejoin="round"/>
    <path d="M 65.24147033691406 109.02650451660156 C 59.906333923339844 77.37515258789062 34.66624450683594 144.04005432128906 64.23221588134766 145.01760864257812" stroke-width="2" fill="none" stroke="rgb(0, 0, 0)" stroke-opacity="1.0" stroke-linecap="round" stroke-linejoin="round"/>
  </g>
</svg>
