<?xml version="1.0" ?>
<svg xmlns="http://www.w3.org/2000/svg" version="1.1" width="224" height="224">
  <defs/>
  <g>
    <path d="M 80.85971069335938 111.83943176269531 C 79.16742706298828 96.30110931396484 88.81903839111328 129.699951171875 108.08694458007812 116.7555160522461" stroke-width="2" fill="none" stroke="rgb(0, 0, 0)" stroke-opacity="1.0" stroke-linecap="round" stroke-linejoin="round"/>
    <path d="M 93.16947937011719 131.9176788330078 C 130.81724548339844 146.74789428710938 155.8866729736328 125.67596435546875 121.10151672363281 136.63758850097656" stroke-width="2" fill="none" stroke="rgb(0, 0, 0)" stroke-opacity="1.0" stroke-linecap="round" stroke-linejoin="round"/>
    <path d="M 154.20970153808594 133.83583068847656 C 147.0260467529297 144.79574584960938 94.89480590820312 143.01910400390625 107.12239837646484 112.47187805175781" stroke-width="2" fill="none" stroke="rgb(0, 0, 0)" stroke-opacity="1.0" stroke-linecap="round" stroke-linejoin="round"/>
    <path d="M 129.65838623046875 98.68803405761719 C 171.2135009765625 85.52108001708984 147.57952880859375 144.90467834472656 153.50482177734375 113.86466217041016" stroke-width="2" fill="none" stroke="rgb(0, 0, 0)" stroke-opacity="1.0" stroke-linecap="round" stroke-linejoin="round"/>
    <path d="M 109.59602355957031 129.81515502929688 C 122.46841430664062 91.4662094116211 122.8043212890625 117.32188415527344 110.38042449951172 106.4124984741211" stroke-width="2" fill="none" stroke="rgb(0, 0, 0)" stroke-opacity="1.0" stroke-linecap="round" stroke-linejoin="round"/>
    <path d="M 107.62673950195312 76.0332260131836 C 98.2512435913086 69.35987091064453 102.5419692993164 103.86576080322266 118.32476806640625 120.88121032714844" stroke-width="2" fill="none" stroke="rgb(0, 0, 0)" stroke-opacity="1.0" stroke-linecap="round" stroke-linejoin="round"/>
    <path d="M 44.63255310058594 131.0366668701172 C 30.8548583984375 146.95925903320312 87.87995910644531 166.71575927734375 171.3024139404297 147.52322387695312" stroke-width="2" fill="none" stroke="rgb(0, 0, 0)" stroke-opacity="1.0" stroke-linecap="round" stroke-linejoin="round"/>
    <path d="M 148.80154418945312 102.30039978027344 C 171.54425048828125 118.62007141113281 170.0926971435547 100.50835418701172 169.7415771484375 97.3319091796875" stroke-width="2" fill="none" stroke="rgb(0, 0, 0)" stroke-opacity="1.0" stroke-linecap="round" stroke-linejoin="round"/>
    <path d="M 129.5022430419922 123.36876678466797 C 155.66896057128906 128.10086059570312 118.62206268310547 116.92155456542969 137.15228271484375 126.29523468017578" stroke-width="2" fill="none" stroke="rgb(0, 0, 0)" stroke-opacity="1.0" stroke-linecap="round" stroke-linejoin="round"/>
    <path d="M 181.3701629638672 64.5613021850586 C 182.39881896972656 80.81556701660156 160.9562530517578 98.46477508544922 171.60479736328125 98.70550537109375" stroke-width="2" fill="none" stroke="rgb(0, 0, 0)" stroke-opacity="1.0" stroke-linecap="round" stroke-linejoin="round"/>
    <path d="M 144.24493408203125 116.95304870605469 C 186.2637481689453 103.2461929321289 185.37596130371094 154.39144897460938 155.308349609375 148.08950805664062" stroke-width="2" fill="none" stroke="rgb(0, 0, 0)" stroke-opacity="1.0" stroke-linecap="round" stroke-linejoin="round"/>
    <path d="M 111.64537048339844 155.32574462890625 C 30.923707962036133 136.3443145751953 3.240975856781006 127.5792465209961 77.4930419921875 130.13401794433594" stroke-width="2" fill="none" stroke="rgb(0, 0, 0)" stroke-opacity="1.0" stroke-linecap="round" stroke-linejoin="round"/>
    <path d="M 117.6767578125 113.57215881347656 C 146.70809936523438 104.9542465209961 129.98696899414062 100.07306671142578 106.29084777832031 75.96453857421875" stroke-width="2" fill="none" stroke="rgb(0, 0, 0)" stroke-opacity="1.0" stroke-linecap="round" stroke-linejoin="round"/>
    <path d="M 180.66905212402344 84.65361785888672 C 123.418701171875 111.1107177734375 163.37930297851562 98.37081146240234 157.84762573242188 95.42185974121094" stroke-width="2" fill="none" stroke="rgb(0, 0, 0)" stroke-opacity="1.0" stroke-linecap="round" stroke-linejoin="round"/>
    <path d="M 65.71244049072266 100.34895324707031 C 37.989845275878906 101.56443786621094 48.632110595703125 96.78971099853516 103.17247772216797 94.26506805419922" stroke-width="2" fill="none" stroke="rgb(0, 0, 0)" stroke-opacity="1.0" stroke-linecap="round" stroke-linejoin="round"/>
    <path d="M 55.45156478881836 98.25665283203125 C 50.982601165771484 101.42781066894531 33.51846694946289 118.70674896240234 55.269432067871094 136.63487243652344" stroke-width="2" fill="none" stroke="rgb(0, 0, 0)" stroke-opacity="1.0" stroke-linecap="round" stroke-linejoin="round"/>
  </g>
</svg>
