<?xml version="1.0" ?>
<svg xmlns="http://www.w3.org/2000/svg" version="1.1" width="224" height="224">
  <defs/>
  <g>
    <path d="M 127.63463592529297 131.03370666503906 C 135.19419860839844 123.3935546875 146.38394165039062 163.5283966064453 89.18679809570312 120.04794311523438" stroke-width="2" fill="none" stroke="rgb(0, 0, 0)" stroke-opacity="1.0" stroke-linecap="round" stroke-linejoin="round"/>
    <path d="M 86.69740295410156 119.94680786132812 C 143.9945831298828 149.69178771972656 183.58868408203125 113.47933197021484 160.27587890625 125.00377655029297" stroke-width="2" fill="none" stroke="rgb(0, 0, 0)" stroke-opacity="1.0" stroke-linecap="round" stroke-linejoin="round"/>
    <path d="M 151.06854248046875 137.70494079589844 C 185.0199737548828 122.97830963134766 107.96012878417969 153.78671264648438 123.15057373046875 100.66482543945312" stroke-width="2" fill="none" stroke="rgb(0, 0, 0)" stroke-opacity="1.0" stroke-linecap="round" stroke-linejoin="round"/>
    <path d="M 127.28742980957031 96.93136596679688 C 192.34947204589844 77.08528900146484 168.3554229736328 137.52993774414062 163.79209899902344 101.91766357421875" stroke-width="2" fill="none" stroke="rgb(0, 0, 0)" stroke-opacity="1.0" stroke-linecap="round" stroke-linejoin="round"/>
    <path d="M 112.72428131103516 120.4312973022461 C 126.91963958740234 103.81001281738281 120.67201232910156 126.16502380371094 109.87632751464844 109.57321166992188" stroke-width="2" fill="none" stroke="rgb(0, 0, 0)" stroke-opacity="1.0" stroke-linecap="round" stroke-linejoin="round"/>
    <path d="M 102.13300323486328 99.45319366455078 C 89.06633758544922 32.229705810546875 126.47950744628906 111.21637725830078 129.46385192871094 97.90691375732422" stroke-width="2" fill="none" stroke="rgb(0, 0, 0)" stroke-opacity="1.0" stroke-linecap="round" stroke-linejoin="round"/>
    <path d="M 45.46278762817383 129.88168334960938 C 29.260652542114258 143.29324340820312 118.86869049072266 160.05230712890625 173.30210876464844 143.29148864746094" stroke-width="2" fill="none" stroke="rgb(0, 0, 0)" stroke-opacity="1.0" stroke-linecap="round" stroke-linejoin="round"/>
    <path d="M 147.00730895996094 90.64132690429688 C 161.6150665283203 113.21031951904297 177.92654418945312 106.18498229980469 177.79722595214844 59.92792892456055" stroke-width="2" fill="none" stroke="rgb(0, 0, 0)" stroke-opacity="1.0" stroke-linecap="round" stroke-linejoin="round"/>
    <path d="M 138.63916015625 115.13079833984375 C 182.37921142578125 130.259033203125 105.33948516845703 129.6780548095703 152.7978057861328 123.78096771240234" stroke-width="2" fill="none" stroke="rgb(0, 0, 0)" stroke-opacity="1.0" stroke-linecap="round" stroke-linejoin="round"/>
    <path d="M 178.74960327148438 70.30890655517578 C 184.78457641601562 88.28437805175781 138.36514282226562 91.64726257324219 165.0052032470703 81.42705535888672" stroke-width="2" fill="none" stroke="rgb(0, 0, 0)" stroke-opacity="1.0" stroke-linecap="round" stroke-linejoin="round"/>
    <path d="M 144.44381713867188 127.3415298461914 C 172.90054321289062 83.2633056640625 203.67349243164062 163.40748596191406 136.54385375976562 148.879638671875" stroke-width="2" fill="none" stroke="rgb(0, 0, 0)" stroke-opacity="1.0" stroke-linecap="round" stroke-linejoin="round"/>
    <path d="M 143.38516235351562 144.43234252929688 C 58.086082458496094 133.41876220703125 48.10747528076172 120.46973419189453 97.29308319091797 141.4409637451172" stroke-width="2" fill="none" stroke="rgb(0, 0, 0)" stroke-opacity="1.0" stroke-linecap="round" stroke-linejoin="round"/>
    <path d="M 110.07904815673828 111.55328369140625 C 149.03811645507812 95.44622802734375 132.4861602783203 87.93621063232422 114.78287506103516 92.8261947631836" stroke-width="2" fill="none" stroke="rgb(0, 0, 0)" stroke-opacity="1.0" stroke-linecap="round" stroke-linejoin="round"/>
    <path d="M 168.63638305664062 94.1155014038086 C 135.21322631835938 103.63772583007812 211.50930786132812 112.9833984375 136.78640747070312 114.88047790527344" stroke-width="2" fill="none" stroke="rgb(0, 0, 0)" stroke-opacity="1.0" stroke-linecap="round" stroke-linejoin="round"/>
    <path d="M 71.06092071533203 121.54643249511719 C 33.90217590332031 122.76262664794922 41.39506530761719 93.59540557861328 105.99988555908203 101.54338836669922" stroke-width="2" fill="none" stroke="rgb(0, 0, 0)" stroke-opacity="1.0" stroke-linecap="round" stroke-linejoin="round"/>
    <path d="M 72.88124084472656 117.80973052978516 C 50.71417236328125 97.23509979248047 26.686511993408203 135.08615112304688 63.15906524658203 148.3931121826172" stroke-width="2" fill="none" stroke="rgb(0, 0, 0)" stroke-opacity="1.0" stroke-linecap="round" stroke-linejoin="round"/>
  </g>
</svg>
