<?xml version="1.0" ?>
<svg xmlns="http://www.w3.org/2000/svg" version="1.1" width="224" height="224">
  <defs/>
  <g>
    <path d="M 93.6009750366211 115.11046600341797 C 91.82321166992188 94.49191284179688 114.6194076538086 125.02580261230469 115.50941467285156 119.20912170410156" stroke-width="2" fill="none" stroke="rgb(0, 0, 0)" stroke-opacity="1.0" stroke-linecap="round" stroke-linejoin="round"/>
    <path d="M 77.45668029785156 133.62135314941406 C 146.57772827148438 151.45823669433594 176.69911193847656 138.43576049804688 146.77566528320312 135.20266723632812" stroke-width="2" fill="none" stroke="rgb(0, 0, 0)" stroke-opacity="1.0" stroke-linecap="round" stroke-linejoin="round"/>
    <path d="M 160.62722778320312 148.58041381835938 C 138.6513671875 152.707763671875 99.0934829711914 155.90687561035156 115.40552520751953 111.54549407958984" stroke-width="2" fill="none" stroke="rgb(0, 0, 0)" stroke-opacity="1.0" stroke-linecap="round" stroke-linejoin="round"/>
    <path d="M 128.6065216064453 92.9651870727539 C 173.0664825439453 82.11632537841797 148.12879943847656 145.43592834472656 146.19479370117188 114.35429382324219" stroke-width="2" fill="none" stroke="rgb(0, 0, 0)" stroke-opacity="1.0" stroke-linecap="round" stroke-linejoin="round"/>
    <path d="M 104.00496673583984 112.98326110839844 C 125.45787048339844 95.10302734375 128.16050720214844 105.9000015258789 106.34357452392578 100.75296020507812" stroke-width="2" fill="none" stroke="rgb(0, 0, 0)" stroke-opacity="1.0" stroke-linecap="round" stroke-linejoin="round"/>
    <path d="M 107.5406723022461 71.1471176147461 C 96.84774780273438 56.50387954711914 103.66907501220703 113.42737579345703 118.24313354492188 118.04546356201172" stroke-width="2" fill="none" stroke="rgb(0, 0, 0)" stroke-opacity="1.0" stroke-linecap="round" stroke-linejoin="round"/>
    <path d="M 44.80438995361328 121.91414642333984 C 23.496017456054688 148.7183074951172 89.96682739257812 169.57040405273438 174.43069458007812 146.7451934814453" stroke-width="2" fill="none" stroke="rgb(0, 0, 0)" stroke-opacity="1.0" stroke-linecap="round" stroke-linejoin="round"/>
    <path d="M 151.9827423095703 106.74684143066406 C 170.6101531982422 124.28456115722656 165.6815948486328 105.2713623046875 177.41099548339844 98.93791961669922" stroke-width="2" fill="none" stroke="rgb(0, 0, 0)" stroke-opacity="1.0" stroke-linecap="round" stroke-linejoin="round"/>
    <path d="M 121.27399444580078 112.6702880859375 C 145.49815368652344 115.39114379882812 105.5706558227539 121.99835968017578 142.10842895507812 127.42677307128906" stroke-width="2" fill="none" stroke="rgb(0, 0, 0)" stroke-opacity="1.0" stroke-linecap="round" stroke-linejoin="round"/>
    <path d="M 180.65562438964844 65.31950378417969 C 182.00311279296875 78.63352966308594 163.41152954101562 94.70317840576172 176.1903839111328 99.6789321899414" stroke-width="2" fill="none" stroke="rgb(0, 0, 0)" stroke-opacity="1.0" stroke-linecap="round" stroke-linejoin="round"/>
    <path d="M 130.1894073486328 118.42060089111328 C 180.452392578125 107.3812484741211 185.93368530273438 160.61276245117188 156.6280517578125 148.37376403808594" stroke-width="2" fill="none" stroke="rgb(0, 0, 0)" stroke-opacity="1.0" stroke-linecap="round" stroke-linejoin="round"/>
    <path d="M 107.32653045654297 160.6334991455078 C 44.49181365966797 134.77151489257812 13.53358268737793 128.5713348388672 78.60160064697266 144.3205108642578" stroke-width="2" fill="none" stroke="rgb(0, 0, 0)" stroke-opacity="1.0" stroke-linecap="round" stroke-linejoin="round"/>
    <path d="M 113.57354736328125 108.53400421142578 C 141.00294494628906 90.36471557617188 128.9102020263672 99.17504119873047 107.76554107666016 69.67906951904297" stroke-width="2" fill="none" stroke="rgb(0, 0, 0)" stroke-opacity="1.0" stroke-linecap="round" stroke-linejoin="round"/>
    <path d="M 175.88009643554688 83.46549987792969 C 123.0554428100586 100.05107879638672 172.98770141601562 94.35771179199219 153.0110626220703 90.85809326171875" stroke-width="2" fill="none" stroke="rgb(0, 0, 0)" stroke-opacity="1.0" stroke-linecap="round" stroke-linejoin="round"/>
    <path d="M 64.39249420166016 109.44412231445312 C 51.212669372558594 101.42784881591797 67.5960922241211 106.42446899414062 100.68568420410156 99.43159484863281" stroke-width="2" fill="none" stroke="rgb(0, 0, 0)" stroke-opacity="1.0" stroke-linecap="round" stroke-linejoin="round"/>
    <path d="M 61.07342529296875 103.77113342285156 C 47.67336654663086 98.3549575805664 29.10953712463379 121.23849487304688 60.051795959472656 142.4320831298828" stroke-width="2" fill="none" stroke="rgb(0, 0, 0)" stroke-opacity="1.0" stroke-linecap="round" stroke-linejoin="round"/>
  </g>
</svg>
