<?xml version="1.0" ?>
<svg xmlns="http://www.w3.org/2000/svg" version="1.1" width="224" height="224">
  <defs/>
  <g>
    <path d="M 78.74000549316406 108.35382080078125 C 78.37786865234375 108.73612976074219 86.90655517578125 109.94977569580078 83.90254974365234 107.81369018554688" stroke-width="2" fill="none" stroke="rgb(0, 0, 0)" stroke-opacity="1.0" stroke-linecap="round" stroke-linejoin="round"/>
    <path d="M 94.31604766845703 139.1080322265625 C 119.8415298461914 140.94522094726562 118.30968475341797 146.34844970703125 102.4966812133789 138.82373046875" stroke-width="2" fill="none" stroke="rgb(0, 0, 0)" stroke-opacity="1.0" stroke-linecap="round" stroke-linejoin="round"/>
    <path d="M 136.76414489746094 130.0923614501953 C 123.80353546142578 127.48262786865234 124.60706329345703 126.13307189941406 112.34551239013672 125.08143615722656" stroke-width="2" fill="none" stroke="rgb(0, 0, 0)" stroke-opacity="1.0" stroke-linecap="round" stroke-linejoin="round"/>
    <path d="M 144.9768829345703 117.64147186279297 C 151.7639617919922 123.57520294189453 151.10272216796875 136.97329711914062 135.3564453125 122.39671325683594" stroke-width="2" fill="none" stroke="rgb(0, 0, 0)" stroke-opacity="1.0" stroke-linecap="round" stroke-linejoin="round"/>
    <path d="M 116.46473693847656 96.9438247680664 C 124.26669311523438 77.34252166748047 124.5248031616211 81.95818328857422 121.73314666748047 91.1309585571289" stroke-width="2" fill="none" stroke="rgb(0, 0, 0)" stroke-opacity="1.0" stroke-linecap="round" stroke-linejoin="round"/>
    <path d="M 115.0708999633789 74.60336303710938 C 108.07271575927734 89.2667465209961 108.0969009399414 102.34379577636719 108.77685546875 98.77728271484375" stroke-width="2" fill="none" stroke="rgb(0, 0, 0)" stroke-opacity="1.0" stroke-linecap="round" stroke-linejoin="round"/>
    <path d="M 59.456764221191406 138.1020050048828 C 79.16431427001953 139.9443817138672 83.89665985107422 146.12503051757812 102.90158081054688 140.1395263671875" stroke-width="2" fill="none" stroke="rgb(0, 0, 0)" stroke-opacity="1.0" stroke-linecap="round" stroke-linejoin="round"/>
    <path d="M 148.74571228027344 120.83560943603516 C 146.58636474609375 120.10452270507812 143.54673767089844 115.02157592773438 142.04701232910156 112.4536361694336" stroke-width="2" fill="none" stroke="rgb(0, 0, 0)" stroke-opacity="1.0" stroke-linecap="round" stroke-linejoin="round"/>
    <path d="M 113.2999038696289 125.76685333251953 C 130.1170654296875 132.4431915283203 134.03561401367188 132.58277893066406 114.76622772216797 126.71829986572266" stroke-width="2" fill="none" stroke="rgb(0, 0, 0)" stroke-opacity="1.0" stroke-linecap="round" stroke-linejoin="round"/>
    <path d="M 185.7875213623047 58.4494514465332 C 186.1266326904297 78.30243682861328 177.22023010253906 83.24845886230469 172.11288452148438 94.23387145996094" stroke-width="2" fill="none" stroke="rgb(0, 0, 0)" stroke-opacity="1.0" stroke-linecap="round" stroke-linejoin="round"/>
    <path d="M 169.32748413085938 129.11338806152344 C 181.68479919433594 144.96568298339844 182.93771362304688 162.3096466064453 170.132568359375 162.77877807617188" stroke-width="2" fill="none" stroke="rgb(0, 0, 0)" stroke-opacity="1.0" stroke-linecap="round" stroke-linejoin="round"/>
    <path d="M 76.02597045898438 146.35948181152344 C 61.70537185668945 131.15769958496094 45.6808967590332 138.43832397460938 70.63296508789062 148.6215057373047" stroke-width="2" fill="none" stroke="rgb(0, 0, 0)" stroke-opacity="1.0" stroke-linecap="round" stroke-linejoin="round"/>
    <path d="M 111.99629974365234 108.1424560546875 C 116.41667938232422 96.28132629394531 123.3672103881836 98.03474426269531 122.20081329345703 84.00971221923828" stroke-width="2" fill="none" stroke="rgb(0, 0, 0)" stroke-opacity="1.0" stroke-linecap="round" stroke-linejoin="round"/>
    <path d="M 172.2920379638672 88.9770278930664 C 169.83274841308594 97.66383361816406 165.7809600830078 98.89613342285156 165.47952270507812 89.7723617553711" stroke-width="2" fill="none" stroke="rgb(0, 0, 0)" stroke-opacity="1.0" stroke-linecap="round" stroke-linejoin="round"/>
    <path d="M 75.11783599853516 86.94432830810547 C 82.74005126953125 94.06024169921875 81.67798614501953 90.09039306640625 88.63320922851562 87.24163055419922" stroke-width="2" fill="none" stroke="rgb(0, 0, 0)" stroke-opacity="1.0" stroke-linecap="round" stroke-linejoin="round"/>
    <path d="M 57.491878509521484 98.64775848388672 C 52.07876205444336 110.29196166992188 45.28070068359375 103.21910095214844 46.490623474121094 124.6898422241211" stroke-width="2" fill="none" stroke="rgb(0, 0, 0)" stroke-opacity="1.0" stroke-linecap="round" stroke-linejoin="round"/>
  </g>
</svg>
