<?xml version="1.0" ?>
<svg xmlns="http://www.w3.org/2000/svg" version="1.1" width="224" height="224">
  <defs/>
  <g>
    <path d="M 111.46219635009766 132.8516387939453 C 168.90333557128906 125.74102020263672 163.63397216796875 149.1304168701172 94.26908111572266 127.23261260986328" stroke-width="2" fill="none" stroke="rgb(0, 0, 0)" stroke-opacity="1.0" stroke-linecap="round" stroke-linejoin="round"/>
    <path d="M 83.64493560791016 126.7985610961914 C 167.05633544921875 147.95704650878906 161.31854248046875 100.7579116821289 142.66880798339844 107.24689483642578" stroke-width="2" fill="none" stroke="rgb(0, 0, 0)" stroke-opacity="1.0" stroke-linecap="round" stroke-linejoin="round"/>
    <path d="M 161.71189880371094 133.2360382080078 C 186.9859619140625 137.2286376953125 72.98114776611328 130.29608154296875 135.34957885742188 117.07667541503906" stroke-width="2" fill="none" stroke="rgb(0, 0, 0)" stroke-opacity="1.0" stroke-linecap="round" stroke-linejoin="round"/>
    <path d="M 112.21807861328125 100.6591796875 C 175.4005126953125 87.14159393310547 132.49639892578125 102.9958267211914 172.09304809570312 103.38827514648438" stroke-width="2" fill="none" stroke="rgb(0, 0, 0)" stroke-opacity="1.0" stroke-linecap="round" stroke-linejoin="round"/>
    <path d="M 114.6398696899414 130.97764587402344 C 103.3674087524414 72.80007934570312 92.19164276123047 113.71940612792969 90.51400756835938 103.50083923339844" stroke-width="2" fill="none" stroke="rgb(0, 0, 0)" stroke-opacity="1.0" stroke-linecap="round" stroke-linejoin="round"/>
    <path d="M 105.05814361572266 95.32879638671875 C 97.65225982666016 46.22420883178711 113.04895782470703 112.79487609863281 146.3178253173828 105.6779556274414" stroke-width="2" fill="none" stroke="rgb(0, 0, 0)" stroke-opacity="1.0" stroke-linecap="round" stroke-linejoin="round"/>
    <path d="M 48.70451354980469 118.9629898071289 C 38.96491622924805 143.5841064453125 120.44282531738281 170.47030639648438 160.58999633789062 154.50624084472656" stroke-width="2" fill="none" stroke="rgb(0, 0, 0)" stroke-opacity="1.0" stroke-linecap="round" stroke-linejoin="round"/>
    <path d="M 145.24171447753906 104.26403045654297 C 141.6770782470703 137.05917358398438 180.2896728515625 130.0033721923828 183.49456787109375 81.6069564819336" stroke-width="2" fill="none" stroke="rgb(0, 0, 0)" stroke-opacity="1.0" stroke-linecap="round" stroke-linejoin="round"/>
    <path d="M 123.46517944335938 121.07404327392578 C 157.9105224609375 129.1531219482422 92.63715362548828 122.95963287353516 156.0142059326172 119.46521759033203" stroke-width="2" fill="none" stroke="rgb(0, 0, 0)" stroke-opacity="1.0" stroke-linecap="round" stroke-linejoin="round"/>
    <path d="M 186.53179931640625 73.19745635986328 C 158.7101593017578 109.7547607421875 137.6575469970703 94.6908950805664 172.8630828857422 96.05390930175781" stroke-width="2" fill="none" stroke="rgb(0, 0, 0)" stroke-opacity="1.0" stroke-linecap="round" stroke-linejoin="round"/>
    <path d="M 120.71162414550781 119.87752532958984 C 151.23915100097656 111.63106536865234 224.45709228515625 160.62950134277344 134.3720703125 146.57022094726562" stroke-width="2" fill="none" stroke="rgb(0, 0, 0)" stroke-opacity="1.0" stroke-linecap="round" stroke-linejoin="round"/>
    <path d="M 121.37939453125 149.29913330078125 C 59.85774230957031 136.9345245361328 24.613588333129883 138.37741088867188 69.22075653076172 145.3863525390625" stroke-width="2" fill="none" stroke="rgb(0, 0, 0)" stroke-opacity="1.0" stroke-linecap="round" stroke-linejoin="round"/>
    <path d="M 109.32515716552734 120.79341125488281 C 114.6849136352539 95.92948913574219 131.66065979003906 109.18324279785156 112.02022552490234 98.56592559814453" stroke-width="2" fill="none" stroke="rgb(0, 0, 0)" stroke-opacity="1.0" stroke-linecap="round" stroke-linejoin="round"/>
    <path d="M 153.5367431640625 114.67481994628906 C 112.77165222167969 110.67536163330078 189.23680114746094 105.7547607421875 142.64683532714844 120.00341796875" stroke-width="2" fill="none" stroke="rgb(0, 0, 0)" stroke-opacity="1.0" stroke-linecap="round" stroke-linejoin="round"/>
    <path d="M 91.0617904663086 155.75814819335938 C 14.820337295532227 154.07772827148438 33.60844802856445 85.78369903564453 93.4774398803711 97.26283264160156" stroke-width="2" fill="none" stroke="rgb(0, 0, 0)" stroke-opacity="1.0" stroke-linecap="round" stroke-linejoin="round"/>
    <path d="M 58.87960433959961 129.48533630371094 C 44.797061920166016 104.64842224121094 33.63456726074219 161.78778076171875 48.162315368652344 143.27593994140625" stroke-width="2" fill="none" stroke="rgb(0, 0, 0)" stroke-opacity="1.0" stroke-linecap="round" stroke-linejoin="round"/>
  </g>
</svg>
