<?xml version="1.0" ?>
<svg xmlns="http://www.w3.org/2000/svg" version="1.1" width="224" height="224">
  <defs/>
  <g>
    <path d="M 125.55316162109375 132.4025421142578 C 123.43702697753906 123.86036682128906 143.36598205566406 156.2806854248047 91.01985168457031 128.41217041015625" stroke-width="2" fill="none" stroke="rgb(0, 0, 0)" stroke-opacity="1.0" stroke-linecap="round" stroke-linejoin="round"/>
    <path d="M 85.17040252685547 118.47394561767578 C 139.91357421875 148.44418334960938 191.00189208984375 107.02580261230469 155.54849243164062 121.86109161376953" stroke-width="2" fill="none" stroke="rgb(0, 0, 0)" stroke-opacity="1.0" stroke-linecap="round" stroke-linejoin="round"/>
    <path d="M 152.2456512451172 135.90235900878906 C 181.98046875 120.7442855834961 103.95417785644531 158.2699737548828 124.03111267089844 105.96329498291016" stroke-width="2" fill="none" stroke="rgb(0, 0, 0)" stroke-opacity="1.0" stroke-linecap="round" stroke-linejoin="round"/>
    <path d="M 133.46018981933594 91.48665618896484 C 193.92672729492188 70.24949645996094 165.81582641601562 136.3169403076172 155.18301391601562 107.97026062011719" stroke-width="2" fill="none" stroke="rgb(0, 0, 0)" stroke-opacity="1.0" stroke-linecap="round" stroke-linejoin="round"/>
    <path d="M 116.55475616455078 117.75525665283203 C 131.55093383789062 110.90240478515625 129.4168701171875 117.0094985961914 105.08383178710938 102.83607482910156" stroke-width="2" fill="none" stroke="rgb(0, 0, 0)" stroke-opacity="1.0" stroke-linecap="round" stroke-linejoin="round"/>
    <path d="M 105.60688781738281 101.67811584472656 C 89.67084503173828 37.530513763427734 123.53443145751953 112.58251190185547 134.38800048828125 99.59799194335938" stroke-width="2" fill="none" stroke="rgb(0, 0, 0)" stroke-opacity="1.0" stroke-linecap="round" stroke-linejoin="round"/>
    <path d="M 42.88847732543945 133.4175567626953 C 24.28867530822754 151.78903198242188 111.4085922241211 165.64805603027344 172.1271209716797 145.2205810546875" stroke-width="2" fill="none" stroke="rgb(0, 0, 0)" stroke-opacity="1.0" stroke-linecap="round" stroke-linejoin="round"/>
    <path d="M 149.5348358154297 101.73552703857422 C 155.5660858154297 121.15711975097656 171.89451599121094 110.8900146484375 177.2183074951172 75.69275665283203" stroke-width="2" fill="none" stroke="rgb(0, 0, 0)" stroke-opacity="1.0" stroke-linecap="round" stroke-linejoin="round"/>
    <path d="M 134.9424591064453 114.98989868164062 C 180.95762634277344 128.61831665039062 106.17626190185547 117.54620361328125 150.054443359375 119.23617553710938" stroke-width="2" fill="none" stroke="rgb(0, 0, 0)" stroke-opacity="1.0" stroke-linecap="round" stroke-linejoin="round"/>
    <path d="M 178.46705627441406 64.0987777709961 C 182.39891052246094 81.20378112792969 144.36724853515625 90.58137512207031 164.00804138183594 94.72559356689453" stroke-width="2" fill="none" stroke="rgb(0, 0, 0)" stroke-opacity="1.0" stroke-linecap="round" stroke-linejoin="round"/>
    <path d="M 140.6634979248047 122.014404296875 C 171.31103515625 76.33666229248047 201.22225952148438 167.61260986328125 148.25363159179688 148.23019409179688" stroke-width="2" fill="none" stroke="rgb(0, 0, 0)" stroke-opacity="1.0" stroke-linecap="round" stroke-linejoin="round"/>
    <path d="M 137.23802185058594 144.88430786132812 C 49.149070739746094 140.38345336914062 35.895111083984375 130.2366485595703 86.3339614868164 152.50596618652344" stroke-width="2" fill="none" stroke="rgb(0, 0, 0)" stroke-opacity="1.0" stroke-linecap="round" stroke-linejoin="round"/>
    <path d="M 106.1539535522461 108.15874481201172 C 153.91624450683594 98.04472351074219 135.34886169433594 87.07986450195312 122.00971221923828 83.23397827148438" stroke-width="2" fill="none" stroke="rgb(0, 0, 0)" stroke-opacity="1.0" stroke-linecap="round" stroke-linejoin="round"/>
    <path d="M 172.6794891357422 90.99020385742188 C 128.3832550048828 115.90129852294922 203.00343322753906 93.11201477050781 130.7432861328125 100.2042236328125" stroke-width="2" fill="none" stroke="rgb(0, 0, 0)" stroke-opacity="1.0" stroke-linecap="round" stroke-linejoin="round"/>
    <path d="M 75.62057495117188 113.46839904785156 C 34.45158767700195 114.53763580322266 42.93515396118164 98.58596801757812 95.23454284667969 95.25677490234375" stroke-width="2" fill="none" stroke="rgb(0, 0, 0)" stroke-opacity="1.0" stroke-linecap="round" stroke-linejoin="round"/>
    <path d="M 71.83450317382812 118.197265625 C 52.3104248046875 83.25020599365234 30.93402862548828 146.00970458984375 61.32712173461914 146.75103759765625" stroke-width="2" fill="none" stroke="rgb(0, 0, 0)" stroke-opacity="1.0" stroke-linecap="round" stroke-linejoin="round"/>
  </g>
</svg>
