<?xml version="1.0" ?>
<svg xmlns="http://www.w3.org/2000/svg" version="1.1" width="224" height="224">
  <defs/>
  <g>
    <path d="M 105.61542510986328 123.38207244873047 C 100.45490264892578 103.76323699951172 117.28022766113281 133.73602294921875 94.78205871582031 119.93026733398438" stroke-width="2" fill="none" stroke="rgb(0, 0, 0)" stroke-opacity="1.0" stroke-linecap="round" stroke-linejoin="round"/>
    <path d="M 83.64752197265625 126.75554656982422 C 155.6302032470703 143.8205108642578 202.35804748535156 132.7589874267578 153.71060180664062 130.24139404296875" stroke-width="2" fill="none" stroke="rgb(0, 0, 0)" stroke-opacity="1.0" stroke-linecap="round" stroke-linejoin="round"/>
    <path d="M 160.858154296875 149.1448516845703 C 144.82386779785156 146.0789794921875 94.19966125488281 147.66339111328125 112.41213989257812 103.54122924804688" stroke-width="2" fill="none" stroke="rgb(0, 0, 0)" stroke-opacity="1.0" stroke-linecap="round" stroke-linejoin="round"/>
    <path d="M 125.98008728027344 90.53044891357422 C 173.82254028320312 77.27262115478516 148.2434844970703 135.11264038085938 143.1715087890625 107.0399398803711" stroke-width="2" fill="none" stroke="rgb(0, 0, 0)" stroke-opacity="1.0" stroke-linecap="round" stroke-linejoin="round"/>
    <path d="M 107.4183578491211 102.8689956665039 C 125.89852905273438 97.77669525146484 128.31663513183594 110.84429931640625 108.7697982788086 111.99195861816406" stroke-width="2" fill="none" stroke="rgb(0, 0, 0)" stroke-opacity="1.0" stroke-linecap="round" stroke-linejoin="round"/>
    <path d="M 103.37995910644531 76.02111053466797 C 88.80272674560547 56.74331283569336 106.44745635986328 105.19368743896484 112.18267822265625 113.46015930175781" stroke-width="2" fill="none" stroke="rgb(0, 0, 0)" stroke-opacity="1.0" stroke-linecap="round" stroke-linejoin="round"/>
    <path d="M 40.63905715942383 123.4453353881836 C 30.720333099365234 140.2867889404297 112.31493377685547 171.3255157470703 173.3875274658203 145.58853149414062" stroke-width="2" fill="none" stroke="rgb(0, 0, 0)" stroke-opacity="1.0" stroke-linecap="round" stroke-linejoin="round"/>
    <path d="M 131.3411407470703 111.2901382446289 C 178.4612579345703 114.65287017822266 170.73948669433594 114.39581298828125 180.31320190429688 76.29187774658203" stroke-width="2" fill="none" stroke="rgb(0, 0, 0)" stroke-opacity="1.0" stroke-linecap="round" stroke-linejoin="round"/>
    <path d="M 118.7769775390625 111.11686706542969 C 140.7078399658203 118.43465423583984 91.55671691894531 115.02104187011719 144.8491973876953 123.66481018066406" stroke-width="2" fill="none" stroke="rgb(0, 0, 0)" stroke-opacity="1.0" stroke-linecap="round" stroke-linejoin="round"/>
    <path d="M 179.78903198242188 61.37849044799805 C 183.14512634277344 80.71185302734375 151.2948760986328 80.5335693359375 165.176513671875 101.04490661621094" stroke-width="2" fill="none" stroke="rgb(0, 0, 0)" stroke-opacity="1.0" stroke-linecap="round" stroke-linejoin="round"/>
    <path d="M 121.4703140258789 117.11197662353516 C 183.73635864257812 85.23851776123047 195.6851348876953 155.87684631347656 157.66075134277344 156.64553833007812" stroke-width="2" fill="none" stroke="rgb(0, 0, 0)" stroke-opacity="1.0" stroke-linecap="round" stroke-linejoin="round"/>
    <path d="M 121.5349349975586 154.75852966308594 C 42.81355667114258 138.6144561767578 12.903409004211426 136.90982055664062 77.10067749023438 148.70103454589844" stroke-width="2" fill="none" stroke="rgb(0, 0, 0)" stroke-opacity="1.0" stroke-linecap="round" stroke-linejoin="round"/>
    <path d="M 109.33197021484375 106.75536346435547 C 137.93173217773438 85.8682632446289 126.9615478515625 98.08832550048828 105.04953002929688 77.55496215820312" stroke-width="2" fill="none" stroke="rgb(0, 0, 0)" stroke-opacity="1.0" stroke-linecap="round" stroke-linejoin="round"/>
    <path d="M 165.56961059570312 90.81559753417969 C 124.6752700805664 112.32189178466797 178.05007934570312 94.25926208496094 145.3711395263672 92.61531829833984" stroke-width="2" fill="none" stroke="rgb(0, 0, 0)" stroke-opacity="1.0" stroke-linecap="round" stroke-linejoin="round"/>
    <path d="M 77.75466918945312 118.3868637084961 C 33.11473846435547 109.19136047363281 61.98275375366211 91.81883239746094 102.70724487304688 89.97703552246094" stroke-width="2" fill="none" stroke="rgb(0, 0, 0)" stroke-opacity="1.0" stroke-linecap="round" stroke-linejoin="round"/>
    <path d="M 72.32744598388672 123.29866790771484 C 55.795833587646484 92.07686614990234 27.796049118041992 129.0657196044922 59.91634750366211 148.84405517578125" stroke-width="2" fill="none" stroke="rgb(0, 0, 0)" stroke-opacity="1.0" stroke-linecap="round" stroke-linejoin="round"/>
  </g>
</svg>
