<?xml version="1.0" ?>
<svg xmlns="http://www.w3.org/2000/svg" version="1.1" width="224" height="224">
  <defs/>
  <g>
    <path d="M 125.34696960449219 120.90823364257812 C 73.09778594970703 92.10258483886719 91.78717803955078 122.06490325927734 79.45015716552734 104.88838958740234" stroke-width="2" fill="none" stroke="rgb(0, 0, 0)" stroke-opacity="1.0" stroke-linecap="round" stroke-linejoin="round"/>
    <path d="M 126.10057067871094 127.41236114501953 C 209.99740600585938 131.9617462158203 113.55781555175781 144.56942749023438 99.77772521972656 130.25323486328125" stroke-width="2" fill="none" stroke="rgb(0, 0, 0)" stroke-opacity="1.0" stroke-linecap="round" stroke-linejoin="round"/>
    <path d="M 106.80508422851562 108.25428009033203 C 110.84576416015625 132.52294921875 104.82933044433594 103.77715301513672 125.17135620117188 101.30378723144531" stroke-width="2" fill="none" stroke="rgb(0, 0, 0)" stroke-opacity="1.0" stroke-linecap="round" stroke-linejoin="round"/>
    <path d="M 147.43206787109375 144.8037109375 C 97.609619140625 142.80198669433594 183.64576721191406 144.53839111328125 161.63177490234375 100.97451782226562" stroke-width="2" fill="none" stroke="rgb(0, 0, 0)" stroke-opacity="1.0" stroke-linecap="round" stroke-linejoin="round"/>
    <path d="M 162.3301544189453 91.52709197998047 C 104.74871826171875 79.41646575927734 129.20399475097656 117.64209747314453 133.62469482421875 101.35743713378906" stroke-width="2" fill="none" stroke="rgb(0, 0, 0)" stroke-opacity="1.0" stroke-linecap="round" stroke-linejoin="round"/>
    <path d="M 130.50428771972656 90.35452270507812 C 86.51116943359375 70.68443298339844 111.01253509521484 90.6559066772461 112.53392791748047 133.1114501953125" stroke-width="2" fill="none" stroke="rgb(0, 0, 0)" stroke-opacity="1.0" stroke-linecap="round" stroke-linejoin="round"/>
    <path d="M 88.60282897949219 142.55712890625 C 57.050559997558594 132.081787109375 116.2237777709961 167.10992431640625 171.23977661132812 150.87860107421875" stroke-width="2" fill="none" stroke="rgb(0, 0, 0)" stroke-opacity="1.0" stroke-linecap="round" stroke-linejoin="round"/>
    <path d="M 133.99072265625 114.3757095336914 C 174.65428161621094 106.02493286132812 109.6319351196289 110.21641540527344 149.06948852539062 113.49210357666016" stroke-width="2" fill="none" stroke="rgb(0, 0, 0)" stroke-opacity="1.0" stroke-linecap="round" stroke-linejoin="round"/>
    <path d="M 133.0826873779297 125.14337158203125 C 105.09542083740234 105.36228942871094 158.04151916503906 109.23114013671875 126.39583587646484 113.00027465820312" stroke-width="2" fill="none" stroke="rgb(0, 0, 0)" stroke-opacity="1.0" stroke-linecap="round" stroke-linejoin="round"/>
    <path d="M 161.5087432861328 90.9537353515625 C 193.5142364501953 53.98674392700195 185.72821044921875 82.75760650634766 172.2447967529297 112.70175170898438" stroke-width="2" fill="none" stroke="rgb(0, 0, 0)" stroke-opacity="1.0" stroke-linecap="round" stroke-linejoin="round"/>
    <path d="M 157.9553680419922 114.58476257324219 C 197.3821258544922 146.75575256347656 168.02584838867188 155.4328155517578 178.90553283691406 136.36582946777344" stroke-width="2" fill="none" stroke="rgb(0, 0, 0)" stroke-opacity="1.0" stroke-linecap="round" stroke-linejoin="round"/>
    <path d="M 120.67992401123047 157.20431518554688 C 32.07174301147461 162.8756866455078 1.4682458639144897 99.02030944824219 90.04476165771484 136.46083068847656" stroke-width="2" fill="none" stroke="rgb(0, 0, 0)" stroke-opacity="1.0" stroke-linecap="round" stroke-linejoin="round"/>
    <path d="M 107.64254760742188 99.18193054199219 C 124.92276763916016 80.44453430175781 133.96871948242188 119.53632354736328 103.86089324951172 73.20697021484375" stroke-width="2" fill="none" stroke="rgb(0, 0, 0)" stroke-opacity="1.0" stroke-linecap="round" stroke-linejoin="round"/>
    <path d="M 147.4249267578125 100.78962707519531 C 158.24876403808594 114.46476745605469 174.82972717285156 94.54129028320312 171.302978515625 88.66462707519531" stroke-width="2" fill="none" stroke="rgb(0, 0, 0)" stroke-opacity="1.0" stroke-linecap="round" stroke-linejoin="round"/>
    <path d="M 47.7045783996582 112.02725219726562 C 47.81392288208008 85.87091827392578 121.57809448242188 114.97301483154297 107.767822265625 95.5418472290039" stroke-width="2" fill="none" stroke="rgb(0, 0, 0)" stroke-opacity="1.0" stroke-linecap="round" stroke-linejoin="round"/>
    <path d="M 68.70915222167969 102.83770751953125 C 42.45392990112305 93.42179870605469 20.888216018676758 141.84024047851562 58.12758255004883 155.81419372558594" stroke-width="2" fill="none" stroke="rgb(0, 0, 0)" stroke-opacity="1.0" stroke-linecap="round" stroke-linejoin="round"/>
  </g>
</svg>
