<?xml version="1.0" ?>
<svg xmlns="http://www.w3.org/2000/svg" version="1.1" width="224" height="224">
  <defs/>
  <g>
    <path d="M 113.8249282836914 114.02311706542969 C 73.32850646972656 102.1092300415039 112.87914276123047 125.3801498413086 79.96499633789062 106.5482177734375" stroke-width="2" fill="none" stroke="rgb(0, 0, 0)" stroke-opacity="1.0" stroke-linecap="round" stroke-linejoin="round"/>
    <path d="M 133.8156280517578 140.4485321044922 C 163.28216552734375 141.82032775878906 122.22384643554688 144.67294311523438 97.02482604980469 133.72569274902344" stroke-width="2" fill="none" stroke="rgb(0, 0, 0)" stroke-opacity="1.0" stroke-linecap="round" stroke-linejoin="round"/>
    <path d="M 150.60720825195312 130.27012634277344 C 102.5133285522461 135.0143280029297 111.06060028076172 124.85834503173828 119.16033172607422 105.61944580078125" stroke-width="2" fill="none" stroke="rgb(0, 0, 0)" stroke-opacity="1.0" stroke-linecap="round" stroke-linejoin="round"/>
    <path d="M 131.169921875 120.09358978271484 C 143.23794555664062 131.95741271972656 169.04649353027344 135.71405029296875 158.5807647705078 101.80479431152344" stroke-width="2" fill="none" stroke="rgb(0, 0, 0)" stroke-opacity="1.0" stroke-linecap="round" stroke-linejoin="round"/>
    <path d="M 157.83795166015625 94.19905090332031 C 107.79961395263672 83.51052856445312 125.36251831054688 117.23877716064453 138.7812957763672 102.9463119506836" stroke-width="2" fill="none" stroke="rgb(0, 0, 0)" stroke-opacity="1.0" stroke-linecap="round" stroke-linejoin="round"/>
    <path d="M 115.88481903076172 81.48519897460938 C 88.02424621582031 73.96250915527344 111.92827606201172 95.13416290283203 104.37532806396484 107.95320129394531" stroke-width="2" fill="none" stroke="rgb(0, 0, 0)" stroke-opacity="1.0" stroke-linecap="round" stroke-linejoin="round"/>
    <path d="M 49.0892448425293 126.3419189453125 C 63.71839141845703 146.33387756347656 101.46118927001953 156.7330780029297 153.5563201904297 151.00186157226562" stroke-width="2" fill="none" stroke="rgb(0, 0, 0)" stroke-opacity="1.0" stroke-linecap="round" stroke-linejoin="round"/>
    <path d="M 139.50682067871094 128.9766082763672 C 164.9219512939453 125.44832611083984 112.97441864013672 128.03338623046875 138.76690673828125 120.76270294189453" stroke-width="2" fill="none" stroke="rgb(0, 0, 0)" stroke-opacity="1.0" stroke-linecap="round" stroke-linejoin="round"/>
    <path d="M 108.79084014892578 126.02513885498047 C 120.23661804199219 117.84003448486328 121.07258605957031 124.804931640625 113.60443115234375 110.72618865966797" stroke-width="2" fill="none" stroke="rgb(0, 0, 0)" stroke-opacity="1.0" stroke-linecap="round" stroke-linejoin="round"/>
    <path d="M 156.73794555664062 88.00651550292969 C 201.4083709716797 48.21961975097656 184.78565979003906 78.94158935546875 163.7209014892578 117.53201293945312" stroke-width="2" fill="none" stroke="rgb(0, 0, 0)" stroke-opacity="1.0" stroke-linecap="round" stroke-linejoin="round"/>
    <path d="M 155.73635864257812 122.46955871582031 C 187.80250549316406 161.8806610107422 146.24000549316406 160.73129272460938 165.12120056152344 130.01251220703125" stroke-width="2" fill="none" stroke="rgb(0, 0, 0)" stroke-opacity="1.0" stroke-linecap="round" stroke-linejoin="round"/>
    <path d="M 83.54444885253906 162.62222290039062 C 48.888893127441406 147.46463012695312 31.096359252929688 132.85684204101562 81.42808532714844 150.60121154785156" stroke-width="2" fill="none" stroke="rgb(0, 0, 0)" stroke-opacity="1.0" stroke-linecap="round" stroke-linejoin="round"/>
    <path d="M 108.87193298339844 116.5837173461914 C 123.67399597167969 94.20732116699219 143.99365234375 108.74479675292969 96.47106170654297 79.10814666748047" stroke-width="2" fill="none" stroke="rgb(0, 0, 0)" stroke-opacity="1.0" stroke-linecap="round" stroke-linejoin="round"/>
    <path d="M 147.56857299804688 96.63015747070312 C 154.35321044921875 107.8885498046875 169.40872192382812 94.4770736694336 171.8894805908203 94.50019073486328" stroke-width="2" fill="none" stroke="rgb(0, 0, 0)" stroke-opacity="1.0" stroke-linecap="round" stroke-linejoin="round"/>
    <path d="M 52.47808074951172 103.72776794433594 C 57.05921936035156 88.7385025024414 98.9110107421875 102.30630493164062 99.98538208007812 91.59324645996094" stroke-width="2" fill="none" stroke="rgb(0, 0, 0)" stroke-opacity="1.0" stroke-linecap="round" stroke-linejoin="round"/>
    <path d="M 67.96493530273438 107.82093811035156 C 49.18069076538086 93.95883178710938 26.474740982055664 124.57669067382812 62.175601959228516 143.72457885742188" stroke-width="2" fill="none" stroke="rgb(0, 0, 0)" stroke-opacity="1.0" stroke-linecap="round" stroke-linejoin="round"/>
  </g>
</svg>
