<?xml version="1.0" ?>
<svg xmlns="http://www.w3.org/2000/svg" version="1.1" width="224" height="224">
  <defs/>
  <g>
    <path d="M 103.55520629882812 101.66799926757812 C 63.40959167480469 99.79965209960938 86.61237335205078 118.0657958984375 74.79401397705078 100.82801055908203" stroke-width="2" fill="none" stroke="rgb(0, 0, 0)" stroke-opacity="1.0" stroke-linecap="round" stroke-linejoin="round"/>
    <path d="M 105.8447494506836 144.66949462890625 C 130.59539794921875 136.81430053710938 114.24482727050781 145.81683349609375 91.59341430664062 140.399169921875" stroke-width="2" fill="none" stroke="rgb(0, 0, 0)" stroke-opacity="1.0" stroke-linecap="round" stroke-linejoin="round"/>
    <path d="M 154.5545654296875 128.64697265625 C 113.71857452392578 137.6843719482422 118.44226837158203 129.68728637695312 114.83159637451172 118.57926940917969" stroke-width="2" fill="none" stroke="rgb(0, 0, 0)" stroke-opacity="1.0" stroke-linecap="round" stroke-linejoin="round"/>
    <path d="M 146.79080200195312 126.86031341552734 C 147.7545623779297 111.74784851074219 165.57383728027344 120.99677276611328 156.6921844482422 110.95629119873047" stroke-width="2" fill="none" stroke="rgb(0, 0, 0)" stroke-opacity="1.0" stroke-linecap="round" stroke-linejoin="round"/>
    <path d="M 139.8212127685547 98.32801055908203 C 116.96804809570312 84.68406677246094 127.82737731933594 77.51359558105469 131.00169372558594 104.93380737304688" stroke-width="2" fill="none" stroke="rgb(0, 0, 0)" stroke-opacity="1.0" stroke-linecap="round" stroke-linejoin="round"/>
    <path d="M 114.83362579345703 70.45281982421875 C 104.91571807861328 87.44039916992188 102.46282958984375 95.99934387207031 105.01325225830078 107.22257232666016" stroke-width="2" fill="none" stroke="rgb(0, 0, 0)" stroke-opacity="1.0" stroke-linecap="round" stroke-linejoin="round"/>
    <path d="M 57.098819732666016 145.03648376464844 C 69.71394348144531 146.494140625 81.14253997802734 150.1033477783203 111.21681213378906 144.7557830810547" stroke-width="2" fill="none" stroke="rgb(0, 0, 0)" stroke-opacity="1.0" stroke-linecap="round" stroke-linejoin="round"/>
    <path d="M 160.69418334960938 135.53355407714844 C 157.4575653076172 110.22476959228516 143.8787841796875 111.96119689941406 133.433837890625 112.78934478759766" stroke-width="2" fill="none" stroke="rgb(0, 0, 0)" stroke-opacity="1.0" stroke-linecap="round" stroke-linejoin="round"/>
    <path d="M 99.91130828857422 119.234375 C 126.19127655029297 124.76417541503906 124.17333221435547 126.32475280761719 107.60686492919922 133.34292602539062" stroke-width="2" fill="none" stroke="rgb(0, 0, 0)" stroke-opacity="1.0" stroke-linecap="round" stroke-linejoin="round"/>
    <path d="M 168.73712158203125 64.6842269897461 C 183.26913452148438 65.63355255126953 174.1072540283203 80.8272705078125 162.0986328125 109.83767700195312" stroke-width="2" fill="none" stroke="rgb(0, 0, 0)" stroke-opacity="1.0" stroke-linecap="round" stroke-linejoin="round"/>
    <path d="M 155.67953491210938 136.2653045654297 C 180.9860076904297 148.6533966064453 181.5977020263672 156.1856689453125 157.62887573242188 153.0787353515625" stroke-width="2" fill="none" stroke="rgb(0, 0, 0)" stroke-opacity="1.0" stroke-linecap="round" stroke-linejoin="round"/>
    <path d="M 79.5574951171875 149.38916015625 C 44.48078918457031 142.6666259765625 26.05360984802246 140.8230438232422 73.25970458984375 156.1062774658203" stroke-width="2" fill="none" stroke="rgb(0, 0, 0)" stroke-opacity="1.0" stroke-linecap="round" stroke-linejoin="round"/>
    <path d="M 116.38317108154297 107.0322036743164 C 116.03582000732422 89.05360412597656 125.87577819824219 101.09814453125 114.33776092529297 75.91683197021484" stroke-width="2" fill="none" stroke="rgb(0, 0, 0)" stroke-opacity="1.0" stroke-linecap="round" stroke-linejoin="round"/>
    <path d="M 159.1907501220703 95.75050354003906 C 160.58389282226562 107.58113098144531 170.60894775390625 104.30126190185547 169.24288940429688 80.56831359863281" stroke-width="2" fill="none" stroke="rgb(0, 0, 0)" stroke-opacity="1.0" stroke-linecap="round" stroke-linejoin="round"/>
    <path d="M 52.15321350097656 94.60955047607422 C 75.79862976074219 94.35546875 85.93997955322266 96.6838607788086 86.62194061279297 94.39952850341797" stroke-width="2" fill="none" stroke="rgb(0, 0, 0)" stroke-opacity="1.0" stroke-linecap="round" stroke-linejoin="round"/>
    <path d="M 57.77777099609375 96.68074798583984 C 43.312660217285156 103.2488784790039 26.643062591552734 104.24969482421875 49.17768859863281 138.4581756591797" stroke-width="2" fill="none" stroke="rgb(0, 0, 0)" stroke-opacity="1.0" stroke-linecap="round" stroke-linejoin="round"/>
  </g>
</svg>
