<?xml version="1.0" ?>
<svg xmlns="http://www.w3.org/2000/svg" version="1.1" width="224" height="224">
  <defs/>
  <g>
    <path d="M 101.00384521484375 107.77039337158203 C 67.89518737792969 106.96927642822266 81.08108520507812 120.1133041381836 79.77142333984375 100.86043548583984" stroke-width="2" fill="none" stroke="rgb(0, 0, 0)" stroke-opacity="1.0" stroke-linecap="round" stroke-linejoin="round"/>
    <path d="M 109.2022933959961 146.72906494140625 C 128.0158233642578 135.34918212890625 113.87532043457031 147.79273986816406 93.94561004638672 144.09645080566406" stroke-width="2" fill="none" stroke="rgb(0, 0, 0)" stroke-opacity="1.0" stroke-linecap="round" stroke-linejoin="round"/>
    <path d="M 153.84274291992188 128.30560302734375 C 115.75373077392578 134.3295440673828 126.69790649414062 126.06503295898438 112.3796157836914 116.35164642333984" stroke-width="2" fill="none" stroke="rgb(0, 0, 0)" stroke-opacity="1.0" stroke-linecap="round" stroke-linejoin="round"/>
    <path d="M 135.541259765625 122.0538101196289 C 147.5855255126953 111.72016906738281 160.29342651367188 119.75218200683594 157.279296875 105.47737121582031" stroke-width="2" fill="none" stroke="rgb(0, 0, 0)" stroke-opacity="1.0" stroke-linecap="round" stroke-linejoin="round"/>
    <path d="M 129.8483123779297 101.52438354492188 C 120.89372253417969 78.54769134521484 124.20716094970703 81.34564971923828 127.42732238769531 104.74646759033203" stroke-width="2" fill="none" stroke="rgb(0, 0, 0)" stroke-opacity="1.0" stroke-linecap="round" stroke-linejoin="round"/>
    <path d="M 119.03960418701172 73.41841125488281 C 105.64527130126953 89.40913391113281 100.03866577148438 95.78338623046875 102.29695129394531 100.0792236328125" stroke-width="2" fill="none" stroke="rgb(0, 0, 0)" stroke-opacity="1.0" stroke-linecap="round" stroke-linejoin="round"/>
    <path d="M 59.97652053833008 145.7445831298828 C 68.85838317871094 149.59251403808594 78.73445892333984 151.44728088378906 108.00328063964844 147.27102661132812" stroke-width="2" fill="none" stroke="rgb(0, 0, 0)" stroke-opacity="1.0" stroke-linecap="round" stroke-linejoin="round"/>
    <path d="M 154.51473999023438 129.9216766357422 C 150.52867126464844 111.2232894897461 143.8043212890625 113.50432586669922 128.9871826171875 113.53350067138672" stroke-width="2" fill="none" stroke="rgb(0, 0, 0)" stroke-opacity="1.0" stroke-linecap="round" stroke-linejoin="round"/>
    <path d="M 99.888427734375 123.60428619384766 C 128.2242889404297 125.76410675048828 128.57540893554688 126.97267150878906 107.25028991699219 132.14712524414062" stroke-width="2" fill="none" stroke="rgb(0, 0, 0)" stroke-opacity="1.0" stroke-linecap="round" stroke-linejoin="round"/>
    <path d="M 172.54412841796875 63.66695022583008 C 182.1896209716797 71.50534057617188 170.91635131835938 76.6868896484375 161.17674255371094 105.52864074707031" stroke-width="2" fill="none" stroke="rgb(0, 0, 0)" stroke-opacity="1.0" stroke-linecap="round" stroke-linejoin="round"/>
    <path d="M 160.6554412841797 137.95355224609375 C 180.81961059570312 148.79827880859375 182.64651489257812 165.6387939453125 163.54299926757812 157.91592407226562" stroke-width="2" fill="none" stroke="rgb(0, 0, 0)" stroke-opacity="1.0" stroke-linecap="round" stroke-linejoin="round"/>
    <path d="M 77.9258041381836 139.89675903320312 C 45.26462936401367 137.97662353515625 24.99689483642578 141.27902221679688 71.49927520751953 148.1974334716797" stroke-width="2" fill="none" stroke="rgb(0, 0, 0)" stroke-opacity="1.0" stroke-linecap="round" stroke-linejoin="round"/>
    <path d="M 117.79571533203125 110.32430267333984 C 115.6255111694336 90.47708892822266 122.64695739746094 97.61151885986328 119.73109436035156 77.60895538330078" stroke-width="2" fill="none" stroke="rgb(0, 0, 0)" stroke-opacity="1.0" stroke-linecap="round" stroke-linejoin="round"/>
    <path d="M 161.27169799804688 89.61527252197266 C 163.39617919921875 101.33763885498047 169.59429931640625 99.08401489257812 170.75694274902344 75.43527221679688" stroke-width="2" fill="none" stroke="rgb(0, 0, 0)" stroke-opacity="1.0" stroke-linecap="round" stroke-linejoin="round"/>
    <path d="M 54.10495376586914 91.40019989013672 C 75.14724731445312 90.49271392822266 81.33271789550781 89.43356323242188 82.0633544921875 93.46422576904297" stroke-width="2" fill="none" stroke="rgb(0, 0, 0)" stroke-opacity="1.0" stroke-linecap="round" stroke-linejoin="round"/>
    <path d="M 56.87742614746094 95.95956420898438 C 47.05655288696289 109.05573272705078 32.87474822998047 103.00668334960938 50.99699020385742 138.57315063476562" stroke-width="2" fill="none" stroke="rgb(0, 0, 0)" stroke-opacity="1.0" stroke-linecap="round" stroke-linejoin="round"/>
  </g>
</svg>
