<?xml version="1.0" ?>
<svg xmlns="http://www.w3.org/2000/svg" version="1.1" width="224" height="224">
  <defs/>
  <g>
    <path d="M 138.2611083984375 117.85197448730469 C 65.1976318359375 92.9071273803711 90.3747329711914 117.8846206665039 69.71906280517578 114.4703140258789" stroke-width="2" fill="none" stroke="rgb(0, 0, 0)" stroke-opacity="1.0" stroke-linecap="round" stroke-linejoin="round"/>
    <path d="M 142.61802673339844 135.20651245117188 C 188.17832946777344 134.05209350585938 116.73648071289062 152.13441467285156 113.13536834716797 131.3807830810547" stroke-width="2" fill="none" stroke="rgb(0, 0, 0)" stroke-opacity="1.0" stroke-linecap="round" stroke-linejoin="round"/>
    <path d="M 137.5217742919922 111.56304931640625 C 122.92093658447266 125.11537170410156 110.5322265625 88.5254135131836 122.15662384033203 90.06132507324219" stroke-width="2" fill="none" stroke="rgb(0, 0, 0)" stroke-opacity="1.0" stroke-linecap="round" stroke-linejoin="round"/>
    <path d="M 148.66184997558594 132.460205078125 C 112.4024429321289 131.65225219726562 191.54737854003906 149.53175354003906 167.64295959472656 103.96992492675781" stroke-width="2" fill="none" stroke="rgb(0, 0, 0)" stroke-opacity="1.0" stroke-linecap="round" stroke-linejoin="round"/>
    <path d="M 161.23150634765625 83.99627685546875 C 105.84320831298828 81.6905517578125 124.34199523925781 108.81986236572266 134.6204376220703 97.95106506347656" stroke-width="2" fill="none" stroke="rgb(0, 0, 0)" stroke-opacity="1.0" stroke-linecap="round" stroke-linejoin="round"/>
    <path d="M 132.54421997070312 85.73506927490234 C 83.78852844238281 72.47811889648438 108.73492431640625 90.23332977294922 114.9837417602539 121.54927825927734" stroke-width="2" fill="none" stroke="rgb(0, 0, 0)" stroke-opacity="1.0" stroke-linecap="round" stroke-linejoin="round"/>
    <path d="M 96.09771728515625 139.926513671875 C 68.69476318359375 137.89874267578125 110.09508514404297 163.32447814941406 163.1043701171875 147.38589477539062" stroke-width="2" fill="none" stroke="rgb(0, 0, 0)" stroke-opacity="1.0" stroke-linecap="round" stroke-linejoin="round"/>
    <path d="M 141.764404296875 118.72270965576172 C 175.25877380371094 117.28107452392578 119.94828033447266 125.91400146484375 151.94976806640625 122.33295440673828" stroke-width="2" fill="none" stroke="rgb(0, 0, 0)" stroke-opacity="1.0" stroke-linecap="round" stroke-linejoin="round"/>
    <path d="M 103.24121856689453 120.49845886230469 C 104.81185913085938 107.03985595703125 149.59840393066406 91.86077880859375 124.51216125488281 100.30525970458984" stroke-width="2" fill="none" stroke="rgb(0, 0, 0)" stroke-opacity="1.0" stroke-linecap="round" stroke-linejoin="round"/>
    <path d="M 159.628173828125 91.05603790283203 C 197.16554260253906 39.842464447021484 186.24008178710938 71.26322174072266 167.29656982421875 116.7314453125" stroke-width="2" fill="none" stroke="rgb(0, 0, 0)" stroke-opacity="1.0" stroke-linecap="round" stroke-linejoin="round"/>
    <path d="M 160.66322326660156 125.10137176513672 C 196.57057189941406 144.43887329101562 163.8734893798828 147.7001190185547 171.63259887695312 134.16470336914062" stroke-width="2" fill="none" stroke="rgb(0, 0, 0)" stroke-opacity="1.0" stroke-linecap="round" stroke-linejoin="round"/>
    <path d="M 116.14988708496094 159.08201599121094 C 40.32423400878906 156.1617889404297 12.082365036010742 118.15153503417969 104.48892974853516 146.06434631347656" stroke-width="2" fill="none" stroke="rgb(0, 0, 0)" stroke-opacity="1.0" stroke-linecap="round" stroke-linejoin="round"/>
    <path d="M 98.182373046875 103.63513946533203 C 128.40924072265625 95.6129150390625 145.33973693847656 111.99726867675781 100.08470916748047 74.7803726196289" stroke-width="2" fill="none" stroke="rgb(0, 0, 0)" stroke-opacity="1.0" stroke-linecap="round" stroke-linejoin="round"/>
    <path d="M 148.85302734375 94.05656433105469 C 156.63783264160156 109.59635925292969 181.84703063964844 90.75360107421875 180.61331176757812 86.36261749267578" stroke-width="2" fill="none" stroke="rgb(0, 0, 0)" stroke-opacity="1.0" stroke-linecap="round" stroke-linejoin="round"/>
    <path d="M 57.299381256103516 115.85367584228516 C 55.00760269165039 88.29332733154297 109.25599670410156 110.63760375976562 106.66504669189453 97.56140899658203" stroke-width="2" fill="none" stroke="rgb(0, 0, 0)" stroke-opacity="1.0" stroke-linecap="round" stroke-linejoin="round"/>
    <path d="M 73.40371704101562 99.43963623046875 C 50.71587371826172 102.68472290039062 25.815902709960938 134.15719604492188 62.63374328613281 150.3977508544922" stroke-width="2" fill="none" stroke="rgb(0, 0, 0)" stroke-opacity="1.0" stroke-linecap="round" stroke-linejoin="round"/>
  </g>
</svg>
