<?xml version="1.0" ?>
<svg xmlns="http://www.w3.org/2000/svg" version="1.1" width="224" height="224">
  <defs/>
  <g>
    <path d="M 129.97750854492188 118.02226257324219 C 69.2135238647461 94.27039337158203 101.71187591552734 115.9249496459961 75.21499633789062 111.40657806396484" stroke-width="2" fill="none" stroke="rgb(0, 0, 0)" stroke-opacity="1.0" stroke-linecap="round" stroke-linejoin="round"/>
    <path d="M 153.25450134277344 144.67852783203125 C 177.86376953125 139.40081787109375 126.12554168701172 144.61546325683594 101.51420593261719 136.083251953125" stroke-width="2" fill="none" stroke="rgb(0, 0, 0)" stroke-opacity="1.0" stroke-linecap="round" stroke-linejoin="round"/>
    <path d="M 142.3827362060547 127.16783905029297 C 117.84151458740234 125.18429565429688 118.19593048095703 110.22232818603516 125.38095092773438 102.08735656738281" stroke-width="2" fill="none" stroke="rgb(0, 0, 0)" stroke-opacity="1.0" stroke-linecap="round" stroke-linejoin="round"/>
    <path d="M 134.41851806640625 128.8754425048828 C 145.3082733154297 139.65994262695312 175.0947723388672 144.74729919433594 167.0892333984375 110.64091491699219" stroke-width="2" fill="none" stroke="rgb(0, 0, 0)" stroke-opacity="1.0" stroke-linecap="round" stroke-linejoin="round"/>
    <path d="M 157.29034423828125 93.22248840332031 C 101.15559387207031 89.42536163330078 127.7054443359375 114.70642852783203 139.57415771484375 99.9359359741211" stroke-width="2" fill="none" stroke="rgb(0, 0, 0)" stroke-opacity="1.0" stroke-linecap="round" stroke-linejoin="round"/>
    <path d="M 127.16685485839844 87.43360137939453 C 89.46389770507812 74.71984100341797 110.32030487060547 92.55911254882812 106.69429016113281 113.9211654663086" stroke-width="2" fill="none" stroke="rgb(0, 0, 0)" stroke-opacity="1.0" stroke-linecap="round" stroke-linejoin="round"/>
    <path d="M 59.53695297241211 127.83839416503906 C 66.62925720214844 140.22193908691406 111.0962142944336 159.32745361328125 158.2775421142578 154.13534545898438" stroke-width="2" fill="none" stroke="rgb(0, 0, 0)" stroke-opacity="1.0" stroke-linecap="round" stroke-linejoin="round"/>
    <path d="M 140.71456909179688 115.1495361328125 C 177.0194091796875 115.1951675415039 111.5057144165039 124.4550552368164 151.115234375 115.26142883300781" stroke-width="2" fill="none" stroke="rgb(0, 0, 0)" stroke-opacity="1.0" stroke-linecap="round" stroke-linejoin="round"/>
    <path d="M 114.91166687011719 110.22486114501953 C 123.09485626220703 116.67389678955078 136.01197814941406 114.08450317382812 110.83150482177734 103.5961685180664" stroke-width="2" fill="none" stroke="rgb(0, 0, 0)" stroke-opacity="1.0" stroke-linecap="round" stroke-linejoin="round"/>
    <path d="M 153.26368713378906 87.44916534423828 C 202.1149444580078 39.60409164428711 185.6554412841797 70.87708282470703 168.98963928222656 109.89479064941406" stroke-width="2" fill="none" stroke="rgb(0, 0, 0)" stroke-opacity="1.0" stroke-linecap="round" stroke-linejoin="round"/>
    <path d="M 159.6981964111328 118.63184356689453 C 198.22691345214844 148.79501342773438 153.629150390625 149.24844360351562 167.55325317382812 124.16803741455078" stroke-width="2" fill="none" stroke="rgb(0, 0, 0)" stroke-opacity="1.0" stroke-linecap="round" stroke-linejoin="round"/>
    <path d="M 107.101318359375 154.2003173828125 C 47.10179138183594 160.283447265625 33.92029571533203 134.96871948242188 97.06072998046875 154.60496520996094" stroke-width="2" fill="none" stroke="rgb(0, 0, 0)" stroke-opacity="1.0" stroke-linecap="round" stroke-linejoin="round"/>
    <path d="M 107.34895324707031 123.7298812866211 C 121.44791412353516 100.05023956298828 141.1204833984375 107.87344360351562 98.76455688476562 69.9208755493164" stroke-width="2" fill="none" stroke="rgb(0, 0, 0)" stroke-opacity="1.0" stroke-linecap="round" stroke-linejoin="round"/>
    <path d="M 146.41160583496094 102.663818359375 C 149.8748321533203 119.73829650878906 179.7001190185547 99.53892517089844 175.7504119873047 87.02574157714844" stroke-width="2" fill="none" stroke="rgb(0, 0, 0)" stroke-opacity="1.0" stroke-linecap="round" stroke-linejoin="round"/>
    <path d="M 57.422916412353516 109.6951904296875 C 63.23885726928711 80.26018524169922 100.31404876708984 107.68538665771484 104.2346420288086 89.73391723632812" stroke-width="2" fill="none" stroke="rgb(0, 0, 0)" stroke-opacity="1.0" stroke-linecap="round" stroke-linejoin="round"/>
    <path d="M 59.000972747802734 107.47630310058594 C 52.08800506591797 101.70004272460938 27.442115783691406 139.38763427734375 63.2930908203125 150.03709411621094" stroke-width="2" fill="none" stroke="rgb(0, 0, 0)" stroke-opacity="1.0" stroke-linecap="round" stroke-linejoin="round"/>
  </g>
</svg>
