<?xml version="1.0" ?>
<svg xmlns="http://www.w3.org/2000/svg" version="1.1" width="224" height="224">
  <defs/>
  <g>
    <path d="M 115.1184310913086 106.78961181640625 C 65.42799377441406 101.71753692626953 103.8625717163086 117.65453338623047 80.56079864501953 111.43256378173828" stroke-width="2" fill="none" stroke="rgb(0, 0, 0)" stroke-opacity="1.0" stroke-linecap="round" stroke-linejoin="round"/>
    <path d="M 128.7787628173828 137.63426208496094 C 157.2275390625 142.3219451904297 121.8632583618164 143.75657653808594 97.53751373291016 135.34747314453125" stroke-width="2" fill="none" stroke="rgb(0, 0, 0)" stroke-opacity="1.0" stroke-linecap="round" stroke-linejoin="round"/>
    <path d="M 153.5237579345703 132.35037231445312 C 111.61795043945312 129.28048706054688 114.73885345458984 120.057373046875 112.29132843017578 103.83488464355469" stroke-width="2" fill="none" stroke="rgb(0, 0, 0)" stroke-opacity="1.0" stroke-linecap="round" stroke-linejoin="round"/>
    <path d="M 136.81800842285156 129.26690673828125 C 142.966552734375 124.0595703125 165.92138671875 129.4160614013672 154.6552276611328 105.6895980834961" stroke-width="2" fill="none" stroke="rgb(0, 0, 0)" stroke-opacity="1.0" stroke-linecap="round" stroke-linejoin="round"/>
    <path d="M 158.93687438964844 87.8200454711914 C 108.42814636230469 81.61370849609375 121.46502685546875 107.10345458984375 134.5332794189453 102.40316772460938" stroke-width="2" fill="none" stroke="rgb(0, 0, 0)" stroke-opacity="1.0" stroke-linecap="round" stroke-linejoin="round"/>
    <path d="M 118.7998046875 82.08219146728516 C 94.26700592041016 75.63981628417969 108.96459197998047 96.5181884765625 99.52501678466797 109.52457427978516" stroke-width="2" fill="none" stroke="rgb(0, 0, 0)" stroke-opacity="1.0" stroke-linecap="round" stroke-linejoin="round"/>
    <path d="M 46.451316833496094 143.03273010253906 C 58.65113067626953 151.986328125 98.27027893066406 159.50230407714844 155.7487030029297 151.55227661132812" stroke-width="2" fill="none" stroke="rgb(0, 0, 0)" stroke-opacity="1.0" stroke-linecap="round" stroke-linejoin="round"/>
    <path d="M 139.34510803222656 126.6164321899414 C 167.8905029296875 117.1519775390625 120.41339111328125 122.80408477783203 150.31558227539062 118.86075592041016" stroke-width="2" fill="none" stroke="rgb(0, 0, 0)" stroke-opacity="1.0" stroke-linecap="round" stroke-linejoin="round"/>
    <path d="M 98.03323364257812 120.08275604248047 C 114.41722869873047 123.1080093383789 114.37577056884766 133.43482971191406 102.18171691894531 121.68672943115234" stroke-width="2" fill="none" stroke="rgb(0, 0, 0)" stroke-opacity="1.0" stroke-linecap="round" stroke-linejoin="round"/>
    <path d="M 152.1529083251953 88.5693588256836 C 193.77354431152344 44.91676712036133 174.7554931640625 72.37908935546875 162.20484924316406 118.2530288696289" stroke-width="2" fill="none" stroke="rgb(0, 0, 0)" stroke-opacity="1.0" stroke-linecap="round" stroke-linejoin="round"/>
    <path d="M 154.25413513183594 120.57176971435547 C 186.07078552246094 155.101806640625 151.46148681640625 150.91107177734375 167.20066833496094 129.563232421875" stroke-width="2" fill="none" stroke="rgb(0, 0, 0)" stroke-opacity="1.0" stroke-linecap="round" stroke-linejoin="round"/>
    <path d="M 86.79803466796875 160.58697509765625 C 38.453941345214844 148.76634216308594 18.882835388183594 141.34133911132812 76.9295425415039 145.19735717773438" stroke-width="2" fill="none" stroke="rgb(0, 0, 0)" stroke-opacity="1.0" stroke-linecap="round" stroke-linejoin="round"/>
    <path d="M 113.38201141357422 111.88269805908203 C 117.73759460449219 96.21026611328125 141.37860107421875 102.05467987060547 99.06562042236328 71.56603240966797" stroke-width="2" fill="none" stroke="rgb(0, 0, 0)" stroke-opacity="1.0" stroke-linecap="round" stroke-linejoin="round"/>
    <path d="M 145.10479736328125 97.52783203125 C 153.75637817382812 112.90045928955078 165.99520874023438 93.32598876953125 170.5518035888672 93.22126007080078" stroke-width="2" fill="none" stroke="rgb(0, 0, 0)" stroke-opacity="1.0" stroke-linecap="round" stroke-linejoin="round"/>
    <path d="M 62.78664779663086 107.03639221191406 C 72.31721496582031 92.040283203125 98.07487487792969 98.5540771484375 102.21121215820312 91.8539047241211" stroke-width="2" fill="none" stroke="rgb(0, 0, 0)" stroke-opacity="1.0" stroke-linecap="round" stroke-linejoin="round"/>
    <path d="M 69.3805923461914 102.44407653808594 C 59.86083221435547 102.56964874267578 31.81964683532715 128.8840789794922 60.95212936401367 141.16842651367188" stroke-width="2" fill="none" stroke="rgb(0, 0, 0)" stroke-opacity="1.0" stroke-linecap="round" stroke-linejoin="round"/>
  </g>
</svg>
