<?xml version="1.0" ?>
<svg xmlns="http://www.w3.org/2000/svg" version="1.1" width="224" height="224">
  <defs/>
  <g>
    <path d="M 106.84381866455078 128.67794799804688 C 79.82402801513672 100.82208251953125 95.49397277832031 132.8971710205078 73.15567779541016 104.42825317382812" stroke-width="2" fill="none" stroke="rgb(0, 0, 0)" stroke-opacity="1.0" stroke-linecap="round" stroke-linejoin="round"/>
    <path d="M 144.27288818359375 147.0264129638672 C 240.2476806640625 139.80648803710938 80.24501037597656 162.249755859375 105.84779357910156 116.95352935791016" stroke-width="2" fill="none" stroke="rgb(0, 0, 0)" stroke-opacity="1.0" stroke-linecap="round" stroke-linejoin="round"/>
    <path d="M 143.64732360839844 117.42041778564453 C 119.6563720703125 114.67921447753906 144.94007873535156 129.81207275390625 155.41555786132812 106.95336151123047" stroke-width="2" fill="none" stroke="rgb(0, 0, 0)" stroke-opacity="1.0" stroke-linecap="round" stroke-linejoin="round"/>
    <path d="M 135.90521240234375 133.0011749267578 C 97.94667053222656 124.36678314208984 180.41677856445312 159.31289672851562 150.41036987304688 108.17457580566406" stroke-width="2" fill="none" stroke="rgb(0, 0, 0)" stroke-opacity="1.0" stroke-linecap="round" stroke-linejoin="round"/>
    <path d="M 165.61973571777344 94.65242767333984 C 107.56082153320312 105.25201416015625 129.6812286376953 95.95439147949219 131.31117248535156 95.62007904052734" stroke-width="2" fill="none" stroke="rgb(0, 0, 0)" stroke-opacity="1.0" stroke-linecap="round" stroke-linejoin="round"/>
    <path d="M 130.6457977294922 101.93054962158203 C 91.82811737060547 91.76197052001953 133.44622802734375 71.24057006835938 117.16753387451172 118.68145751953125" stroke-width="2" fill="none" stroke="rgb(0, 0, 0)" stroke-opacity="1.0" stroke-linecap="round" stroke-linejoin="round"/>
    <path d="M 61.15119934082031 139.13890075683594 C 27.94210433959961 123.77342987060547 121.32772064208984 171.8343505859375 175.10646057128906 151.64772033691406" stroke-width="2" fill="none" stroke="rgb(0, 0, 0)" stroke-opacity="1.0" stroke-linecap="round" stroke-linejoin="round"/>
    <path d="M 148.36007690429688 119.13675689697266 C 182.14645385742188 116.86662292480469 135.0208282470703 133.87643432617188 161.33584594726562 117.12940216064453" stroke-width="2" fill="none" stroke="rgb(0, 0, 0)" stroke-opacity="1.0" stroke-linecap="round" stroke-linejoin="round"/>
    <path d="M 162.76654052734375 122.16059112548828 C 97.82867431640625 104.5404052734375 179.02017211914062 113.78601837158203 122.53955841064453 120.02216339111328" stroke-width="2" fill="none" stroke="rgb(0, 0, 0)" stroke-opacity="1.0" stroke-linecap="round" stroke-linejoin="round"/>
    <path d="M 163.6436004638672 89.37772369384766 C 193.1488800048828 45.657936096191406 185.0069122314453 89.67819213867188 166.2853240966797 113.88921356201172" stroke-width="2" fill="none" stroke="rgb(0, 0, 0)" stroke-opacity="1.0" stroke-linecap="round" stroke-linejoin="round"/>
    <path d="M 150.55599975585938 131.92727661132812 C 193.26937866210938 144.58590698242188 163.56048583984375 134.4291534423828 172.81195068359375 120.26853942871094" stroke-width="2" fill="none" stroke="rgb(0, 0, 0)" stroke-opacity="1.0" stroke-linecap="round" stroke-linejoin="round"/>
    <path d="M 131.45217895507812 166.3677978515625 C 57.00470733642578 163.21292114257812 13.925790786743164 121.7068862915039 91.2046127319336 161.5554656982422" stroke-width="2" fill="none" stroke="rgb(0, 0, 0)" stroke-opacity="1.0" stroke-linecap="round" stroke-linejoin="round"/>
    <path d="M 111.72770690917969 112.81703186035156 C 153.46417236328125 74.31301879882812 113.05609130859375 123.38114166259766 100.75077056884766 75.90180969238281" stroke-width="2" fill="none" stroke="rgb(0, 0, 0)" stroke-opacity="1.0" stroke-linecap="round" stroke-linejoin="round"/>
    <path d="M 145.38641357421875 94.379150390625 C 167.32220458984375 114.56877899169922 175.4454345703125 101.1350326538086 160.6047821044922 106.34039306640625" stroke-width="2" fill="none" stroke="rgb(0, 0, 0)" stroke-opacity="1.0" stroke-linecap="round" stroke-linejoin="round"/>
    <path d="M 54.02093505859375 115.85940551757812 C 48.94208908081055 78.18204498291016 129.34532165527344 98.46393585205078 109.46099090576172 101.92304229736328" stroke-width="2" fill="none" stroke="rgb(0, 0, 0)" stroke-opacity="1.0" stroke-linecap="round" stroke-linejoin="round"/>
    <path d="M 85.47212219238281 104.99348449707031 C 43.54575729370117 82.6219253540039 11.135049819946289 148.60585021972656 73.48680877685547 147.5734100341797" stroke-width="2" fill="none" stroke="rgb(0, 0, 0)" stroke-opacity="1.0" stroke-linecap="round" stroke-linejoin="round"/>
  </g>
</svg>
