<?xml version="1.0" ?>
<svg xmlns="http://www.w3.org/2000/svg" version="1.1" width="224" height="224">
  <defs/>
  <g>
    <path d="M 100.1229476928711 132.36541748046875 C 75.86502075195312 108.8082275390625 91.48350524902344 130.11175537109375 73.03661346435547 113.32505798339844" stroke-width="2" fill="none" stroke="rgb(0, 0, 0)" stroke-opacity="1.0" stroke-linecap="round" stroke-linejoin="round"/>
    <path d="M 147.82923889160156 144.46652221679688 C 238.31253051757812 132.5641326904297 76.83222961425781 165.58935546875 103.71533203125 116.75117492675781" stroke-width="2" fill="none" stroke="rgb(0, 0, 0)" stroke-opacity="1.0" stroke-linecap="round" stroke-linejoin="round"/>
    <path d="M 144.93606567382812 119.04467010498047 C 110.53645324707031 106.64215087890625 137.1974334716797 125.80104064941406 154.0625 105.68305206298828" stroke-width="2" fill="none" stroke="rgb(0, 0, 0)" stroke-opacity="1.0" stroke-linecap="round" stroke-linejoin="round"/>
    <path d="M 136.23614501953125 133.9412841796875 C 98.63654327392578 124.8476333618164 189.34474182128906 158.0082550048828 149.72415161132812 106.92015838623047" stroke-width="2" fill="none" stroke="rgb(0, 0, 0)" stroke-opacity="1.0" stroke-linecap="round" stroke-linejoin="round"/>
    <path d="M 161.05233764648438 95.27134704589844 C 106.15217590332031 99.2271728515625 131.62002563476562 93.76078796386719 127.98320007324219 98.08856201171875" stroke-width="2" fill="none" stroke="rgb(0, 0, 0)" stroke-opacity="1.0" stroke-linecap="round" stroke-linejoin="round"/>
    <path d="M 125.80034637451172 107.41315460205078 C 88.36212921142578 104.79515075683594 117.48133850097656 73.43840026855469 120.21192169189453 123.72586059570312" stroke-width="2" fill="none" stroke="rgb(0, 0, 0)" stroke-opacity="1.0" stroke-linecap="round" stroke-linejoin="round"/>
    <path d="M 50.515262603759766 149.7051544189453 C 24.483552932739258 120.61476135253906 124.22393798828125 172.64987182617188 170.47280883789062 152.54412841796875" stroke-width="2" fill="none" stroke="rgb(0, 0, 0)" stroke-opacity="1.0" stroke-linecap="round" stroke-linejoin="round"/>
    <path d="M 151.39088439941406 120.45309448242188 C 180.7774200439453 120.53400421142578 127.20943450927734 135.63897705078125 166.78945922851562 114.07649993896484" stroke-width="2" fill="none" stroke="rgb(0, 0, 0)" stroke-opacity="1.0" stroke-linecap="round" stroke-linejoin="round"/>
    <path d="M 165.6617889404297 127.7196044921875 C 90.14159393310547 106.80393981933594 179.1277313232422 112.55914306640625 125.30934143066406 124.14996337890625" stroke-width="2" fill="none" stroke="rgb(0, 0, 0)" stroke-opacity="1.0" stroke-linecap="round" stroke-linejoin="round"/>
    <path d="M 162.33338928222656 93.67323303222656 C 195.9718475341797 39.901039123535156 179.16529846191406 83.36038970947266 172.2591094970703 118.59407806396484" stroke-width="2" fill="none" stroke="rgb(0, 0, 0)" stroke-opacity="1.0" stroke-linecap="round" stroke-linejoin="round"/>
    <path d="M 144.24960327148438 138.29417419433594 C 190.0293731689453 138.8041229248047 143.90203857421875 142.29190063476562 163.16119384765625 133.0993194580078" stroke-width="2" fill="none" stroke="rgb(0, 0, 0)" stroke-opacity="1.0" stroke-linecap="round" stroke-linejoin="round"/>
    <path d="M 121.60196685791016 166.3855438232422 C 58.40840148925781 165.94317626953125 9.482704162597656 124.78226470947266 93.64555358886719 159.60440063476562" stroke-width="2" fill="none" stroke="rgb(0, 0, 0)" stroke-opacity="1.0" stroke-linecap="round" stroke-linejoin="round"/>
    <path d="M 114.15206909179688 116.02000427246094 C 153.75997924804688 75.53802490234375 109.06775665283203 121.81790161132812 98.9507827758789 79.85370635986328" stroke-width="2" fill="none" stroke="rgb(0, 0, 0)" stroke-opacity="1.0" stroke-linecap="round" stroke-linejoin="round"/>
    <path d="M 148.5558319091797 99.84827423095703 C 171.2552947998047 119.73346710205078 190.86351013183594 92.77017974853516 181.74850463867188 87.18709564208984" stroke-width="2" fill="none" stroke="rgb(0, 0, 0)" stroke-opacity="1.0" stroke-linecap="round" stroke-linejoin="round"/>
    <path d="M 57.90642166137695 121.39190673828125 C 55.3455696105957 86.7271728515625 133.37310791015625 98.20759582519531 104.2191390991211 99.29428100585938" stroke-width="2" fill="none" stroke="rgb(0, 0, 0)" stroke-opacity="1.0" stroke-linecap="round" stroke-linejoin="round"/>
    <path d="M 88.51998901367188 111.1257553100586 C 49.92960739135742 80.44881439208984 19.36910629272461 152.513916015625 75.16234588623047 150.39935302734375" stroke-width="2" fill="none" stroke="rgb(0, 0, 0)" stroke-opacity="1.0" stroke-linecap="round" stroke-linejoin="round"/>
  </g>
</svg>
