<?xml version="1.0" ?>
<svg xmlns="http://www.w3.org/2000/svg" version="1.1" width="224" height="224">
  <defs/>
  <g>
    <path d="M 128.2318115234375 124.20172119140625 C 84.67251586914062 85.47831726074219 99.72466278076172 115.01586151123047 72.36896514892578 117.08628845214844" stroke-width="2" fill="none" stroke="rgb(0, 0, 0)" stroke-opacity="1.0" stroke-linecap="round" stroke-linejoin="round"/>
    <path d="M 135.1278076171875 131.2410888671875 C 210.50961303710938 134.25120544433594 110.57846069335938 155.85536193847656 105.33460235595703 132.0135498046875" stroke-width="2" fill="none" stroke="rgb(0, 0, 0)" stroke-opacity="1.0" stroke-linecap="round" stroke-linejoin="round"/>
    <path d="M 108.91654968261719 109.63943481445312 C 115.45089721679688 134.0072021484375 114.54608154296875 116.27027893066406 128.12841796875 104.5560302734375" stroke-width="2" fill="none" stroke="rgb(0, 0, 0)" stroke-opacity="1.0" stroke-linecap="round" stroke-linejoin="round"/>
    <path d="M 145.2772674560547 147.1813201904297 C 94.56462860107422 142.5552215576172 177.826416015625 147.49412536621094 162.3043975830078 104.91461181640625" stroke-width="2" fill="none" stroke="rgb(0, 0, 0)" stroke-opacity="1.0" stroke-linecap="round" stroke-linejoin="round"/>
    <path d="M 165.39932250976562 86.78711700439453 C 104.31177520751953 78.17399597167969 122.56405639648438 107.27564239501953 141.0337677001953 98.4793930053711" stroke-width="2" fill="none" stroke="rgb(0, 0, 0)" stroke-opacity="1.0" stroke-linecap="round" stroke-linejoin="round"/>
    <path d="M 125.2349624633789 91.04800415039062 C 84.96802520751953 74.23159790039062 112.45084381103516 85.46393585205078 115.46527099609375 136.39491271972656" stroke-width="2" fill="none" stroke="rgb(0, 0, 0)" stroke-opacity="1.0" stroke-linecap="round" stroke-linejoin="round"/>
    <path d="M 94.20442962646484 141.1406707763672 C 61.11893081665039 129.7851104736328 121.53630828857422 166.42347717285156 165.657470703125 148.9305419921875" stroke-width="2" fill="none" stroke="rgb(0, 0, 0)" stroke-opacity="1.0" stroke-linecap="round" stroke-linejoin="round"/>
    <path d="M 140.58531188964844 117.18465423583984 C 178.93016052246094 109.7465591430664 92.89070129394531 115.05178833007812 148.85269165039062 115.10930633544922" stroke-width="2" fill="none" stroke="rgb(0, 0, 0)" stroke-opacity="1.0" stroke-linecap="round" stroke-linejoin="round"/>
    <path d="M 143.268798828125 119.77948760986328 C 106.77058410644531 94.21520233154297 142.40737915039062 113.53316497802734 116.19029235839844 112.92369842529297" stroke-width="2" fill="none" stroke="rgb(0, 0, 0)" stroke-opacity="1.0" stroke-linecap="round" stroke-linejoin="round"/>
    <path d="M 162.0225372314453 90.23412322998047 C 200.13758850097656 45.39408874511719 189.10174560546875 76.40074157714844 168.39125061035156 120.29647064208984" stroke-width="2" fill="none" stroke="rgb(0, 0, 0)" stroke-opacity="1.0" stroke-linecap="round" stroke-linejoin="round"/>
    <path d="M 158.69696044921875 111.48420715332031 C 195.33975219726562 141.5252227783203 159.63601684570312 148.15057373046875 171.915283203125 133.51206970214844" stroke-width="2" fill="none" stroke="rgb(0, 0, 0)" stroke-opacity="1.0" stroke-linecap="round" stroke-linejoin="round"/>
    <path d="M 129.8603057861328 154.37301635742188 C 44.64540481567383 158.79705810546875 6.820796489715576 99.85953521728516 85.93797302246094 145.5950164794922" stroke-width="2" fill="none" stroke="rgb(0, 0, 0)" stroke-opacity="1.0" stroke-linecap="round" stroke-linejoin="round"/>
    <path d="M 107.16328430175781 102.98963928222656 C 126.54795837402344 77.96705627441406 127.81088256835938 120.01132202148438 98.3802719116211 74.19105529785156" stroke-width="2" fill="none" stroke="rgb(0, 0, 0)" stroke-opacity="1.0" stroke-linecap="round" stroke-linejoin="round"/>
    <path d="M 153.07595825195312 94.4831314086914 C 165.48138427734375 111.19303131103516 184.41970825195312 98.56050109863281 180.553466796875 88.54244232177734" stroke-width="2" fill="none" stroke="rgb(0, 0, 0)" stroke-opacity="1.0" stroke-linecap="round" stroke-linejoin="round"/>
    <path d="M 51.478912353515625 116.34418487548828 C 43.30100631713867 85.88980865478516 117.74496459960938 109.87371826171875 110.68444061279297 93.39191436767578" stroke-width="2" fill="none" stroke="rgb(0, 0, 0)" stroke-opacity="1.0" stroke-linecap="round" stroke-linejoin="round"/>
    <path d="M 85.92264556884766 109.7480239868164 C 47.966793060302734 87.8664779663086 27.522789001464844 139.0674285888672 63.13410949707031 151.9459686279297" stroke-width="2" fill="none" stroke="rgb(0, 0, 0)" stroke-opacity="1.0" stroke-linecap="round" stroke-linejoin="round"/>
  </g>
</svg>
