<?xml version="1.0" ?>
<svg xmlns="http://www.w3.org/2000/svg" version="1.1" width="224" height="224">
  <defs/>
  <g>
    <path d="M 93.06082153320312 106.29704284667969 C 78.93579864501953 102.59373474121094 79.7958984375 109.1368179321289 84.45220184326172 104.68492126464844" stroke-width="2" fill="none" stroke="rgb(0, 0, 0)" stroke-opacity="1.0" stroke-linecap="round" stroke-linejoin="round"/>
    <path d="M 102.67936706542969 143.37135314941406 C 121.59512329101562 131.87692260742188 116.49705505371094 142.51290893554688 95.99076843261719 137.67788696289062" stroke-width="2" fill="none" stroke="rgb(0, 0, 0)" stroke-opacity="1.0" stroke-linecap="round" stroke-linejoin="round"/>
    <path d="M 141.2353973388672 127.63080596923828 C 121.82870483398438 131.5821075439453 126.1321792602539 125.79067993164062 112.87874603271484 117.42144775390625" stroke-width="2" fill="none" stroke="rgb(0, 0, 0)" stroke-opacity="1.0" stroke-linecap="round" stroke-linejoin="round"/>
    <path d="M 143.63885498046875 117.72250366210938 C 149.05043029785156 112.04047393798828 156.27505493164062 121.24723815917969 145.65367126464844 105.14994812011719" stroke-width="2" fill="none" stroke="rgb(0, 0, 0)" stroke-opacity="1.0" stroke-linecap="round" stroke-linejoin="round"/>
    <path d="M 121.30486297607422 98.1173324584961 C 121.35889434814453 76.79487609863281 120.16040802001953 82.45973205566406 127.45074462890625 97.18634033203125" stroke-width="2" fill="none" stroke="rgb(0, 0, 0)" stroke-opacity="1.0" stroke-linecap="round" stroke-linejoin="round"/>
    <path d="M 119.75813293457031 76.99116516113281 C 106.16089630126953 87.63960266113281 102.61712646484375 96.25706481933594 102.23237609863281 104.75909423828125" stroke-width="2" fill="none" stroke="rgb(0, 0, 0)" stroke-opacity="1.0" stroke-linecap="round" stroke-linejoin="round"/>
    <path d="M 61.15448760986328 141.8927001953125 C 77.59854888916016 144.32398986816406 81.87063598632812 155.71487426757812 104.86170196533203 149.61219787597656" stroke-width="2" fill="none" stroke="rgb(0, 0, 0)" stroke-opacity="1.0" stroke-linecap="round" stroke-linejoin="round"/>
    <path d="M 150.9779052734375 123.0901870727539 C 147.49403381347656 118.73530578613281 138.3009490966797 120.56817626953125 130.52342224121094 120.3991928100586" stroke-width="2" fill="none" stroke="rgb(0, 0, 0)" stroke-opacity="1.0" stroke-linecap="round" stroke-linejoin="round"/>
    <path d="M 114.33091735839844 120.93661499023438 C 125.91515350341797 132.12501525878906 130.58082580566406 129.74595642089844 115.32733917236328 126.6570053100586" stroke-width="2" fill="none" stroke="rgb(0, 0, 0)" stroke-opacity="1.0" stroke-linecap="round" stroke-linejoin="round"/>
    <path d="M 175.3214874267578 56.27155303955078 C 180.65341186523438 74.45846557617188 170.61138916015625 78.58726501464844 165.49777221679688 91.50121307373047" stroke-width="2" fill="none" stroke="rgb(0, 0, 0)" stroke-opacity="1.0" stroke-linecap="round" stroke-linejoin="round"/>
    <path d="M 171.30068969726562 135.1712188720703 C 182.941650390625 146.33216857910156 184.08111572265625 165.0486297607422 167.06268310546875 162.11859130859375" stroke-width="2" fill="none" stroke="rgb(0, 0, 0)" stroke-opacity="1.0" stroke-linecap="round" stroke-linejoin="round"/>
    <path d="M 77.32764434814453 138.56057739257812 C 50.78480529785156 136.3023681640625 32.080482482910156 140.58853149414062 66.79832458496094 148.12127685546875" stroke-width="2" fill="none" stroke="rgb(0, 0, 0)" stroke-opacity="1.0" stroke-linecap="round" stroke-linejoin="round"/>
    <path d="M 110.44109344482422 109.8788070678711 C 115.38088989257812 95.23522186279297 121.76907348632812 93.8205795288086 121.95752716064453 84.16343688964844" stroke-width="2" fill="none" stroke="rgb(0, 0, 0)" stroke-opacity="1.0" stroke-linecap="round" stroke-linejoin="round"/>
    <path d="M 173.47840881347656 97.22114562988281 C 172.14710998535156 98.5137939453125 171.9860076904297 99.06602478027344 177.64710998535156 87.36093139648438" stroke-width="2" fill="none" stroke="rgb(0, 0, 0)" stroke-opacity="1.0" stroke-linecap="round" stroke-linejoin="round"/>
    <path d="M 68.19432830810547 91.27342987060547 C 74.91587829589844 87.77555084228516 76.85153198242188 91.03731536865234 78.01605987548828 89.30224609375" stroke-width="2" fill="none" stroke="rgb(0, 0, 0)" stroke-opacity="1.0" stroke-linecap="round" stroke-linejoin="round"/>
    <path d="M 45.535545349121094 94.75318908691406 C 51.178565979003906 100.21003723144531 40.507198333740234 95.48966979980469 44.93252944946289 126.72215270996094" stroke-width="2" fill="none" stroke="rgb(0, 0, 0)" stroke-opacity="1.0" stroke-linecap="round" stroke-linejoin="round"/>
  </g>
</svg>
