<?xml version="1.0" ?>
<svg xmlns="http://www.w3.org/2000/svg" version="1.1" width="224" height="224">
  <defs/>
  <g>
    <path d="M 138.25572204589844 91.25104522705078 C 85.97267150878906 82.71168518066406 78.96363067626953 87.52066802978516 124.3727035522461 67.80746459960938" stroke-width="2" fill="none" stroke="rgb(0, 0, 0)" stroke-opacity="1.0" stroke-linecap="round" stroke-linejoin="round"/>
    <path d="M 147.94686889648438 117.6510238647461 C 180.30316162109375 122.30458068847656 183.602294921875 113.66980743408203 184.6630096435547 114.56029510498047" stroke-width="2" fill="none" stroke="rgb(0, 0, 0)" stroke-opacity="1.0" stroke-linecap="round" stroke-linejoin="round"/>
    <path d="M 150.42861938476562 108.10477447509766 C 102.77571868896484 99.9378662109375 103.06790161132812 108.45929718017578 129.74588012695312 109.75702667236328" stroke-width="2" fill="none" stroke="rgb(0, 0, 0)" stroke-opacity="1.0" stroke-linecap="round" stroke-linejoin="round"/>
    <path d="M 123.02732849121094 105.38481903076172 C 100.17330169677734 76.86736297607422 136.4753875732422 130.78524780273438 166.862548828125 102.32656860351562" stroke-width="2" fill="none" stroke="rgb(0, 0, 0)" stroke-opacity="1.0" stroke-linecap="round" stroke-linejoin="round"/>
    <path d="M 67.51390075683594 90.14482879638672 C 64.9476547241211 117.10491180419922 113.17053985595703 73.86784362792969 114.66081237792969 108.88285064697266" stroke-width="2" fill="none" stroke="rgb(0, 0, 0)" stroke-opacity="1.0" stroke-linecap="round" stroke-linejoin="round"/>
    <path d="M 106.22624206542969 81.55113983154297 C 166.851806640625 50.08625411987305 167.99497985839844 86.42637634277344 111.09125518798828 97.37382507324219" stroke-width="2" fill="none" stroke="rgb(0, 0, 0)" stroke-opacity="1.0" stroke-linecap="round" stroke-linejoin="round"/>
    <path d="M 148.77720642089844 137.6034698486328 C 174.90084838867188 89.74493408203125 141.2691650390625 145.1908416748047 144.6985321044922 91.83522033691406" stroke-width="2" fill="none" stroke="rgb(0, 0, 0)" stroke-opacity="1.0" stroke-linecap="round" stroke-linejoin="round"/>
    <path d="M 173.73526000976562 131.7930908203125 C 127.71759033203125 95.9212646484375 78.97029113769531 78.41023254394531 119.5362548828125 84.6352767944336" stroke-width="2" fill="none" stroke="rgb(0, 0, 0)" stroke-opacity="1.0" stroke-linecap="round" stroke-linejoin="round"/>
    <path d="M 184.56028747558594 121.13114166259766 C 187.64273071289062 62.098793029785156 168.26365661621094 84.90117645263672 121.34154510498047 67.70482635498047" stroke-width="2" fill="none" stroke="rgb(0, 0, 0)" stroke-opacity="1.0" stroke-linecap="round" stroke-linejoin="round"/>
    <path d="M 128.8924102783203 69.41403198242188 C 171.77740478515625 80.85197448730469 179.24642944335938 101.20989227294922 65.44514465332031 94.83487701416016" stroke-width="2" fill="none" stroke="rgb(0, 0, 0)" stroke-opacity="1.0" stroke-linecap="round" stroke-linejoin="round"/>
    <path d="M 141.8282012939453 137.5049591064453 C 178.0924835205078 112.8934097290039 226.80081176757812 136.71595764160156 200.5583953857422 172.1236114501953" stroke-width="2" fill="none" stroke="rgb(0, 0, 0)" stroke-opacity="1.0" stroke-linecap="round" stroke-linejoin="round"/>
    <path d="M 152.598388671875 118.38465881347656 C 201.47186279296875 123.31878662109375 186.7732391357422 64.08760833740234 180.5105743408203 126.95053100585938" stroke-width="2" fill="none" stroke="rgb(0, 0, 0)" stroke-opacity="1.0" stroke-linecap="round" stroke-linejoin="round"/>
    <path d="M 110.45916748046875 76.29920959472656 C 156.5069580078125 39.07270431518555 134.70628356933594 96.31468963623047 147.0170440673828 57.52747344970703" stroke-width="2" fill="none" stroke="rgb(0, 0, 0)" stroke-opacity="1.0" stroke-linecap="round" stroke-linejoin="round"/>
    <path d="M 138.21963500976562 79.07740783691406 C 100.84877014160156 60.72129440307617 90.69255065917969 101.4872055053711 136.9964141845703 84.06902313232422" stroke-width="2" fill="none" stroke="rgb(0, 0, 0)" stroke-opacity="1.0" stroke-linecap="round" stroke-linejoin="round"/>
    <path d="M 124.76396942138672 68.84098815917969 C 124.4950180053711 105.90127563476562 154.11666870117188 34.17283630371094 124.04125213623047 74.2136001586914" stroke-width="2" fill="none" stroke="rgb(0, 0, 0)" stroke-opacity="1.0" stroke-linecap="round" stroke-linejoin="round"/>
    <path d="M 149.46722412109375 102.4257583618164 C 152.16220092773438 119.15721130371094 168.30343627929688 141.23013305664062 164.34059143066406 108.8864517211914" stroke-width="2" fill="none" stroke="rgb(0, 0, 0)" stroke-opacity="1.0" stroke-linecap="round" stroke-linejoin="round"/>
  </g>
</svg>
