<?xml version="1.0" ?>
<svg xmlns="http://www.w3.org/2000/svg" version="1.1" width="224" height="224">
  <defs/>
  <g>
    <path d="M 128.41783142089844 99.55757141113281 C 115.4073486328125 71.12115478515625 94.7481918334961 70.71162414550781 122.97069549560547 94.1783218383789" stroke-width="2" fill="none" stroke="rgb(0, 0, 0)" stroke-opacity="1.0" stroke-linecap="round" stroke-linejoin="round"/>
    <path d="M 148.12149047851562 127.4820556640625 C 177.13401794433594 108.90913391113281 177.93162536621094 109.35325622558594 175.55136108398438 120.70318603515625" stroke-width="2" fill="none" stroke="rgb(0, 0, 0)" stroke-opacity="1.0" stroke-linecap="round" stroke-linejoin="round"/>
    <path d="M 133.10342407226562 104.44618225097656 C 116.80856323242188 107.44636535644531 117.46762084960938 103.45216369628906 128.5058135986328 105.47930145263672" stroke-width="2" fill="none" stroke="rgb(0, 0, 0)" stroke-opacity="1.0" stroke-linecap="round" stroke-linejoin="round"/>
    <path d="M 138.87420654296875 87.06009674072266 C 102.76212310791016 73.75785064697266 144.88287353515625 109.65530395507812 145.65896606445312 93.53910827636719" stroke-width="2" fill="none" stroke="rgb(0, 0, 0)" stroke-opacity="1.0" stroke-linecap="round" stroke-linejoin="round"/>
    <path d="M 87.3606185913086 77.660888671875 C 112.1902084350586 86.19310760498047 130.7666015625 54.50364685058594 117.25863647460938 88.13422393798828" stroke-width="2" fill="none" stroke="rgb(0, 0, 0)" stroke-opacity="1.0" stroke-linecap="round" stroke-linejoin="round"/>
    <path d="M 115.31156158447266 70.36087036132812 C 132.3561248779297 59.27186965942383 129.14871215820312 87.15739440917969 114.46741485595703 67.50306701660156" stroke-width="2" fill="none" stroke="rgb(0, 0, 0)" stroke-opacity="1.0" stroke-linecap="round" stroke-linejoin="round"/>
    <path d="M 147.874755859375 129.15211486816406 C 163.437744140625 111.32937622070312 169.96405029296875 123.62789916992188 152.65928649902344 110.89299011230469" stroke-width="2" fill="none" stroke="rgb(0, 0, 0)" stroke-opacity="1.0" stroke-linecap="round" stroke-linejoin="round"/>
    <path d="M 179.01046752929688 120.78229522705078 C 130.4911651611328 104.25312042236328 102.78450012207031 75.78438568115234 128.31790161132812 81.75616455078125" stroke-width="2" fill="none" stroke="rgb(0, 0, 0)" stroke-opacity="1.0" stroke-linecap="round" stroke-linejoin="round"/>
    <path d="M 176.2659149169922 116.63045501708984 C 187.91259765625 84.98030853271484 173.661376953125 82.69190979003906 134.27964782714844 70.10408020019531" stroke-width="2" fill="none" stroke="rgb(0, 0, 0)" stroke-opacity="1.0" stroke-linecap="round" stroke-linejoin="round"/>
    <path d="M 124.7602767944336 64.25352478027344 C 115.22323608398438 79.4455337524414 125.16656494140625 77.07140350341797 82.30899047851562 79.94712829589844" stroke-width="2" fill="none" stroke="rgb(0, 0, 0)" stroke-opacity="1.0" stroke-linecap="round" stroke-linejoin="round"/>
    <path d="M 138.27410888671875 125.69352722167969 C 169.83326721191406 118.92597198486328 207.95936584472656 129.9695587158203 198.58914184570312 158.05377197265625" stroke-width="2" fill="none" stroke="rgb(0, 0, 0)" stroke-opacity="1.0" stroke-linecap="round" stroke-linejoin="round"/>
    <path d="M 155.0457305908203 131.22531127929688 C 184.67938232421875 113.7674789428711 186.35800170898438 71.2697982788086 175.6428680419922 117.81510925292969" stroke-width="2" fill="none" stroke="rgb(0, 0, 0)" stroke-opacity="1.0" stroke-linecap="round" stroke-linejoin="round"/>
    <path d="M 134.45089721679688 83.47745513916016 C 142.4285430908203 69.02649688720703 161.00186157226562 82.92497253417969 133.01937866210938 68.48017883300781" stroke-width="2" fill="none" stroke="rgb(0, 0, 0)" stroke-opacity="1.0" stroke-linecap="round" stroke-linejoin="round"/>
    <path d="M 138.1553497314453 74.27906799316406 C 124.7109375 66.2298583984375 98.41718292236328 88.95555114746094 134.2684783935547 83.85526275634766" stroke-width="2" fill="none" stroke="rgb(0, 0, 0)" stroke-opacity="1.0" stroke-linecap="round" stroke-linejoin="round"/>
    <path d="M 113.67452239990234 70.16661834716797 C 132.17164611816406 103.30742645263672 141.23287963867188 51.90836715698242 123.9051513671875 63.622032165527344" stroke-width="2" fill="none" stroke="rgb(0, 0, 0)" stroke-opacity="1.0" stroke-linecap="round" stroke-linejoin="round"/>
    <path d="M 156.84474182128906 104.91844940185547 C 153.50421142578125 113.29911804199219 146.18389892578125 110.2066879272461 156.6681671142578 92.84947204589844" stroke-width="2" fill="none" stroke="rgb(0, 0, 0)" stroke-opacity="1.0" stroke-linecap="round" stroke-linejoin="round"/>
  </g>
</svg>
