<?xml version="1.0" ?>
<svg xmlns="http://www.w3.org/2000/svg" version="1.1" width="224" height="224">
  <defs/>
  <g>
    <path d="M 132.38795471191406 108.94400787353516 C 82.3514175415039 101.6844253540039 85.3852310180664 119.78643035888672 128.62339782714844 94.5776596069336" stroke-width="3.0" fill="none" stroke="rgb(0, 0, 0)" stroke-opacity="1.0" stroke-linecap="round" stroke-linejoin="round"/>
    <path d="M 54.046627044677734 206.32057189941406 C 59.884742736816406 197.8263702392578 77.02790069580078 185.8475341796875 98.25791931152344 175.4668731689453" stroke-width="3.0" fill="none" stroke="rgb(0, 0, 0)" stroke-opacity="1.0" stroke-linecap="round" stroke-linejoin="round"/>
    <path d="M 65.350830078125 135.4428253173828 C 32.42658615112305 139.96969604492188 7.77338981628418 168.48348999023438 -3.854550361633301 173.3991241455078" stroke-width="3.0" fill="none" stroke="rgb(0, 0, 0)" stroke-opacity="1.0" stroke-linecap="round" stroke-linejoin="round"/>
    <path d="M 127.1834716796875 94.65608215332031 C 163.66285705566406 115.31842041015625 168.02716064453125 99.69356536865234 200.7314453125 148.433349609375" stroke-width="3.0" fill="none" stroke="rgb(0, 0, 0)" stroke-opacity="1.0" stroke-linecap="round" stroke-linejoin="round"/>
    <path d="M 105.31687927246094 45.59761047363281 C 141.38037109375 79.21195220947266 108.10298919677734 32.95307922363281 78.2417984008789 43.303226470947266" stroke-width="3.0" fill="none" stroke="rgb(0, 0, 0)" stroke-opacity="1.0" stroke-linecap="round" stroke-linejoin="round"/>
    <path d="M 146.56997680664062 59.19740676879883 C 232.65296936035156 9.549997329711914 226.60595703125 -14.290702819824219 205.80862426757812 72.53501892089844" stroke-width="3.0" fill="none" stroke="rgb(0, 0, 0)" stroke-opacity="1.0" stroke-linecap="round" stroke-linejoin="round"/>
    <path d="M 13.204391479492188 199.1388397216797 C 43.11146545410156 182.97789001464844 61.992881774902344 181.2951202392578 132.62570190429688 169.11154174804688" stroke-width="3.0" fill="none" stroke="rgb(0, 0, 0)" stroke-opacity="1.0" stroke-linecap="round" stroke-linejoin="round"/>
    <path d="M 133.46572875976562 118.85922241210938 C 72.984375 59.35921096801758 80.59902954101562 119.3870620727539 51.03162384033203 93.51351928710938" stroke-width="3.0" fill="none" stroke="rgb(0, 0, 0)" stroke-opacity="1.0" stroke-linecap="round" stroke-linejoin="round"/>
    <path d="M 103.27849578857422 169.99411010742188 C 80.63957977294922 126.0552749633789 151.7116241455078 97.22718048095703 96.2640380859375 119.17601776123047" stroke-width="3.0" fill="none" stroke="rgb(0, 0, 0)" stroke-opacity="1.0" stroke-linecap="round" stroke-linejoin="round"/>
    <path d="M 156.19093322753906 -5.3827033042907715 C 139.93954467773438 -4.839199542999268 133.87103271484375 -1.2192288637161255 135.8408966064453 -9.7030611038208" stroke-width="3.0" fill="none" stroke="rgb(0, 0, 0)" stroke-opacity="1.0" stroke-linecap="round" stroke-linejoin="round"/>
    <path d="M 163.7162322998047 181.95843505859375 C 194.61993408203125 190.01390075683594 197.85243225097656 205.5427703857422 195.52076721191406 204.5724334716797" stroke-width="3.0" fill="none" stroke="rgb(0, 0, 0)" stroke-opacity="1.0" stroke-linecap="round" stroke-linejoin="round"/>
    <path d="M 202.19410705566406 176.52012634277344 C 206.46170043945312 166.00180053710938 207.90054321289062 158.27708435058594 170.9420623779297 148.20431518554688" stroke-width="3.0" fill="none" stroke="rgb(0, 0, 0)" stroke-opacity="1.0" stroke-linecap="round" stroke-linejoin="round"/>
    <path d="M 91.8899154663086 68.12049865722656 C 67.9870376586914 37.950469970703125 121.89129638671875 30.686172485351562 97.02824401855469 69.50068664550781" stroke-width="3.0" fill="none" stroke="rgb(0, 0, 0)" stroke-opacity="1.0" stroke-linecap="round" stroke-linejoin="round"/>
    <path d="M 100.39434051513672 47.325016021728516 C 68.56233978271484 32.702518463134766 57.41340637207031 68.41267395019531 69.55777740478516 47.881004333496094" stroke-width="3.0" fill="none" stroke="rgb(0, 0, 0)" stroke-opacity="1.0" stroke-linecap="round" stroke-linejoin="round"/>
    <path d="M 94.64408874511719 56.8534049987793 C 95.09443664550781 15.652819633483887 81.62327575683594 69.9064712524414 99.6146469116211 66.23983001708984" stroke-width="3.0" fill="none" stroke="rgb(0, 0, 0)" stroke-opacity="1.0" stroke-linecap="round" stroke-linejoin="round"/>
    <path d="M 118.70685577392578 63.23937225341797 C 92.19107818603516 92.8941879272461 72.21578979492188 81.19552612304688 61.291656494140625 21.049104690551758" stroke-width="3.0" fill="none" stroke="rgb(0, 0, 0)" stroke-opacity="1.0" stroke-linecap="round" stroke-linejoin="round"/>
  </g>
</svg>
