<?xml version="1.0" ?>
<svg xmlns="http://www.w3.org/2000/svg" version="1.1" width="224" height="224">
  <defs/>
  <g>
    <path d="M 131.258544921875 105.20166778564453 C 113.89962005615234 73.51569366455078 95.28053283691406 70.0333251953125 124.64766693115234 93.48272705078125" stroke-width="2" fill="none" stroke="rgb(0, 0, 0)" stroke-opacity="1.0" stroke-linecap="round" stroke-linejoin="round"/>
    <path d="M 143.19119262695312 130.6443634033203 C 177.7361602783203 110.4210205078125 174.42689514160156 107.24373626708984 173.57550048828125 119.36090850830078" stroke-width="2" fill="none" stroke="rgb(0, 0, 0)" stroke-opacity="1.0" stroke-linecap="round" stroke-linejoin="round"/>
    <path d="M 137.02679443359375 99.97888946533203 C 115.53803253173828 103.48709106445312 117.58776092529297 102.16038513183594 126.124267578125 103.65013122558594" stroke-width="2" fill="none" stroke="rgb(0, 0, 0)" stroke-opacity="1.0" stroke-linecap="round" stroke-linejoin="round"/>
    <path d="M 133.2672882080078 90.55158233642578 C 98.08502197265625 74.7408447265625 148.75205993652344 116.0208511352539 148.0855712890625 90.2658920288086" stroke-width="2" fill="none" stroke="rgb(0, 0, 0)" stroke-opacity="1.0" stroke-linecap="round" stroke-linejoin="round"/>
    <path d="M 92.24198913574219 70.80596923828125 C 110.13677215576172 92.1839828491211 131.34866333007812 56.63833236694336 114.30799865722656 80.95780181884766" stroke-width="2" fill="none" stroke="rgb(0, 0, 0)" stroke-opacity="1.0" stroke-linecap="round" stroke-linejoin="round"/>
    <path d="M 112.09058380126953 70.69925689697266 C 131.4920196533203 64.24275970458984 131.22714233398438 87.62232971191406 119.04023742675781 67.53662109375" stroke-width="2" fill="none" stroke="rgb(0, 0, 0)" stroke-opacity="1.0" stroke-linecap="round" stroke-linejoin="round"/>
    <path d="M 152.6121063232422 129.948486328125 C 159.72134399414062 106.39513397216797 165.91595458984375 126.34097290039062 152.1475372314453 113.57842254638672" stroke-width="2" fill="none" stroke="rgb(0, 0, 0)" stroke-opacity="1.0" stroke-linecap="round" stroke-linejoin="round"/>
    <path d="M 177.15823364257812 118.6166763305664 C 129.54248046875 105.5798568725586 105.66497039794922 74.93599700927734 129.29962158203125 75.8931884765625" stroke-width="2" fill="none" stroke="rgb(0, 0, 0)" stroke-opacity="1.0" stroke-linecap="round" stroke-linejoin="round"/>
    <path d="M 174.36007690429688 121.04484558105469 C 189.59683227539062 83.10855102539062 174.4520721435547 83.84545135498047 135.036376953125 70.29379272460938" stroke-width="2" fill="none" stroke="rgb(0, 0, 0)" stroke-opacity="1.0" stroke-linecap="round" stroke-linejoin="round"/>
    <path d="M 124.66145324707031 67.38675689697266 C 107.78101348876953 74.4889907836914 118.68972778320312 70.60511779785156 80.80201721191406 74.57626342773438" stroke-width="2" fill="none" stroke="rgb(0, 0, 0)" stroke-opacity="1.0" stroke-linecap="round" stroke-linejoin="round"/>
    <path d="M 135.3229522705078 125.1607666015625 C 174.7838592529297 120.56305694580078 213.18504333496094 126.77520751953125 208.95704650878906 146.2937469482422" stroke-width="2" fill="none" stroke="rgb(0, 0, 0)" stroke-opacity="1.0" stroke-linecap="round" stroke-linejoin="round"/>
    <path d="M 156.68650817871094 130.5955352783203 C 184.1221160888672 111.26163482666016 190.61402893066406 71.4300537109375 177.45225524902344 119.79690551757812" stroke-width="2" fill="none" stroke="rgb(0, 0, 0)" stroke-opacity="1.0" stroke-linecap="round" stroke-linejoin="round"/>
    <path d="M 131.57859802246094 82.28834533691406 C 142.9424285888672 70.81468200683594 162.0052032470703 82.91510772705078 129.9364013671875 70.25135803222656" stroke-width="2" fill="none" stroke="rgb(0, 0, 0)" stroke-opacity="1.0" stroke-linecap="round" stroke-linejoin="round"/>
    <path d="M 134.75094604492188 76.75016021728516 C 122.2540054321289 63.183231353759766 101.00579071044922 85.45181274414062 132.3272705078125 84.61006927490234" stroke-width="2" fill="none" stroke="rgb(0, 0, 0)" stroke-opacity="1.0" stroke-linecap="round" stroke-linejoin="round"/>
    <path d="M 115.34147644042969 66.59561157226562 C 128.160400390625 104.8080825805664 138.8456573486328 51.43728256225586 122.09681701660156 64.42301177978516" stroke-width="2" fill="none" stroke="rgb(0, 0, 0)" stroke-opacity="1.0" stroke-linecap="round" stroke-linejoin="round"/>
    <path d="M 154.59402465820312 101.26459503173828 C 151.96743774414062 109.12516021728516 150.7671661376953 109.91431427001953 160.02511596679688 95.04126739501953" stroke-width="2" fill="none" stroke="rgb(0, 0, 0)" stroke-opacity="1.0" stroke-linecap="round" stroke-linejoin="round"/>
  </g>
</svg>
