<?xml version="1.0" ?>
<svg xmlns="http://www.w3.org/2000/svg" version="1.1" width="224" height="224">
  <defs/>
  <g>
    <path d="M 123.2056884765625 101.57555389404297 C 72.54020690917969 114.34227752685547 72.09938049316406 118.2021484375 120.05442810058594 86.9518051147461" stroke-width="3.0" fill="none" stroke="rgb(0, 0, 0)" stroke-opacity="1.0" stroke-linecap="round" stroke-linejoin="round"/>
    <path d="M 50.018043518066406 204.3293914794922 C 58.010963439941406 198.21632385253906 75.19733428955078 186.5474395751953 89.59579467773438 186.2000274658203" stroke-width="3.0" fill="none" stroke="rgb(0, 0, 0)" stroke-opacity="1.0" stroke-linecap="round" stroke-linejoin="round"/>
    <path d="M 63.73370361328125 130.55751037597656 C 20.848339080810547 138.3155975341797 5.526122093200684 161.99684143066406 -6.122315883636475 169.6361846923828" stroke-width="3.0" fill="none" stroke="rgb(0, 0, 0)" stroke-opacity="1.0" stroke-linecap="round" stroke-linejoin="round"/>
    <path d="M 125.89871215820312 97.11786651611328 C 166.022216796875 112.559814453125 151.37013244628906 99.029541015625 191.50660705566406 121.0483169555664" stroke-width="3.0" fill="none" stroke="rgb(0, 0, 0)" stroke-opacity="1.0" stroke-linecap="round" stroke-linejoin="round"/>
    <path d="M 103.3671875 45.52000427246094 C 140.19264221191406 60.79197692871094 109.63903045654297 36.15911865234375 78.27986145019531 45.28337860107422" stroke-width="3.0" fill="none" stroke="rgb(0, 0, 0)" stroke-opacity="1.0" stroke-linecap="round" stroke-linejoin="round"/>
    <path d="M 144.09210205078125 44.00975799560547 C 217.86669921875 -9.732702255249023 229.77760314941406 -5.732665061950684 195.16046142578125 65.43170166015625" stroke-width="3.0" fill="none" stroke="rgb(0, 0, 0)" stroke-opacity="1.0" stroke-linecap="round" stroke-linejoin="round"/>
    <path d="M 12.667266845703125 201.2270965576172 C 47.129417419433594 180.2975616455078 66.0203628540039 191.11322021484375 129.65225219726562 165.3221893310547" stroke-width="3.0" fill="none" stroke="rgb(0, 0, 0)" stroke-opacity="1.0" stroke-linecap="round" stroke-linejoin="round"/>
    <path d="M 117.41255950927734 116.94982147216797 C 61.464298248291016 68.7381362915039 79.7445297241211 117.22967529296875 55.36227035522461 87.20940399169922" stroke-width="3.0" fill="none" stroke="rgb(0, 0, 0)" stroke-opacity="1.0" stroke-linecap="round" stroke-linejoin="round"/>
    <path d="M 101.61863708496094 164.54469299316406 C 64.00228881835938 128.2991485595703 123.22248077392578 102.85138702392578 84.49571990966797 120.28759002685547" stroke-width="3.0" fill="none" stroke="rgb(0, 0, 0)" stroke-opacity="1.0" stroke-linecap="round" stroke-linejoin="round"/>
    <path d="M 156.19093322753906 -5.3827033042907715 C 139.93954467773438 -4.839199542999268 133.87103271484375 -1.2192288637161255 135.8408966064453 -9.7030611038208" stroke-width="3.0" fill="none" stroke="rgb(0, 0, 0)" stroke-opacity="1.0" stroke-linecap="round" stroke-linejoin="round"/>
    <path d="M 160.34765625 185.11924743652344 C 195.65867614746094 190.32907104492188 206.23561096191406 205.63099670410156 213.16900634765625 208.64590454101562" stroke-width="3.0" fill="none" stroke="rgb(0, 0, 0)" stroke-opacity="1.0" stroke-linecap="round" stroke-linejoin="round"/>
    <path d="M 201.12246704101562 179.9357452392578 C 195.95437622070312 172.73855590820312 196.42083740234375 169.04310607910156 159.61073303222656 161.95223999023438" stroke-width="3.0" fill="none" stroke="rgb(0, 0, 0)" stroke-opacity="1.0" stroke-linecap="round" stroke-linejoin="round"/>
    <path d="M 93.22434997558594 73.29988098144531 C 69.60345458984375 31.513513565063477 119.01049041748047 34.02146911621094 93.22903442382812 72.36138153076172" stroke-width="3.0" fill="none" stroke="rgb(0, 0, 0)" stroke-opacity="1.0" stroke-linecap="round" stroke-linejoin="round"/>
    <path d="M 94.61249542236328 45.20714569091797 C 79.07575225830078 36.37904357910156 50.26612854003906 60.00396728515625 83.81574249267578 44.633846282958984" stroke-width="3.0" fill="none" stroke="rgb(0, 0, 0)" stroke-opacity="1.0" stroke-linecap="round" stroke-linejoin="round"/>
    <path d="M 96.3401870727539 58.806453704833984 C 100.79879760742188 29.10080909729004 82.41152954101562 69.37019348144531 99.33930206298828 63.12491989135742" stroke-width="3.0" fill="none" stroke="rgb(0, 0, 0)" stroke-opacity="1.0" stroke-linecap="round" stroke-linejoin="round"/>
    <path d="M 120.96537780761719 59.51797103881836 C 93.2428207397461 94.77316284179688 74.16765594482422 80.78327178955078 55.4888801574707 13.9762544631958" stroke-width="3.0" fill="none" stroke="rgb(0, 0, 0)" stroke-opacity="1.0" stroke-linecap="round" stroke-linejoin="round"/>
  </g>
</svg>
