<?xml version="1.0" ?>
<svg xmlns="http://www.w3.org/2000/svg" version="1.1" width="224" height="224">
  <defs/>
  <g>
    <path d="M 118.3281021118164 91.07467651367188 C 118.80640411376953 77.09783935546875 101.53871154785156 77.97364807128906 120.27813720703125 89.06271362304688" stroke-width="2" fill="none" stroke="rgb(0, 0, 0)" stroke-opacity="1.0" stroke-linecap="round" stroke-linejoin="round"/>
    <path d="M 155.1438446044922 125.91049194335938 C 175.03526306152344 100.9878158569336 183.26541137695312 100.19306182861328 173.59532165527344 111.77278900146484" stroke-width="2" fill="none" stroke="rgb(0, 0, 0)" stroke-opacity="1.0" stroke-linecap="round" stroke-linejoin="round"/>
    <path d="M 123.85955047607422 107.17254638671875 C 110.45724487304688 112.99665069580078 105.1686019897461 110.6279067993164 115.02043914794922 112.3438720703125" stroke-width="2" fill="none" stroke="rgb(0, 0, 0)" stroke-opacity="1.0" stroke-linecap="round" stroke-linejoin="round"/>
    <path d="M 136.4774169921875 94.02190399169922 C 98.78569793701172 85.74894714355469 133.33058166503906 107.8031997680664 139.96133422851562 90.72577667236328" stroke-width="2" fill="none" stroke="rgb(0, 0, 0)" stroke-opacity="1.0" stroke-linecap="round" stroke-linejoin="round"/>
    <path d="M 102.89237976074219 72.92318725585938 C 108.33422088623047 89.34429168701172 125.12593841552734 60.330162048339844 121.14057922363281 92.50840759277344" stroke-width="2" fill="none" stroke="rgb(0, 0, 0)" stroke-opacity="1.0" stroke-linecap="round" stroke-linejoin="round"/>
    <path d="M 113.79299926757812 71.31568908691406 C 129.92979431152344 59.208736419677734 124.3169174194336 99.57414245605469 115.84191131591797 86.44763946533203" stroke-width="2" fill="none" stroke="rgb(0, 0, 0)" stroke-opacity="1.0" stroke-linecap="round" stroke-linejoin="round"/>
    <path d="M 150.85862731933594 122.82740020751953 C 160.87095642089844 111.53858184814453 169.45408630371094 117.07079315185547 164.90213012695312 105.40462493896484" stroke-width="2" fill="none" stroke="rgb(0, 0, 0)" stroke-opacity="1.0" stroke-linecap="round" stroke-linejoin="round"/>
    <path d="M 176.3144989013672 108.14400482177734 C 133.8589630126953 98.46111297607422 102.00547790527344 78.65000915527344 127.04753875732422 86.91385650634766" stroke-width="2" fill="none" stroke="rgb(0, 0, 0)" stroke-opacity="1.0" stroke-linecap="round" stroke-linejoin="round"/>
    <path d="M 176.11219787597656 109.5919189453125 C 179.59046936035156 90.51557922363281 167.6953125 77.0067367553711 136.74710083007812 75.5974349975586" stroke-width="2" fill="none" stroke="rgb(0, 0, 0)" stroke-opacity="1.0" stroke-linecap="round" stroke-linejoin="round"/>
    <path d="M 124.1944808959961 64.03436279296875 C 120.45649719238281 74.79180908203125 115.87657928466797 75.85968017578125 99.64775085449219 78.21466827392578" stroke-width="2" fill="none" stroke="rgb(0, 0, 0)" stroke-opacity="1.0" stroke-linecap="round" stroke-linejoin="round"/>
    <path d="M 145.5262908935547 121.2218017578125 C 169.35975646972656 121.67859649658203 196.74850463867188 123.81468200683594 185.7218017578125 152.94813537597656" stroke-width="2" fill="none" stroke="rgb(0, 0, 0)" stroke-opacity="1.0" stroke-linecap="round" stroke-linejoin="round"/>
    <path d="M 165.78271484375 115.27356719970703 C 178.09410095214844 109.23184967041016 182.0745086669922 83.1590347290039 174.24636840820312 114.74291229248047" stroke-width="2" fill="none" stroke="rgb(0, 0, 0)" stroke-opacity="1.0" stroke-linecap="round" stroke-linejoin="round"/>
    <path d="M 132.92617797851562 82.52699279785156 C 140.32069396972656 71.6813735961914 158.8260955810547 77.90918731689453 132.3461151123047 75.49732971191406" stroke-width="2" fill="none" stroke="rgb(0, 0, 0)" stroke-opacity="1.0" stroke-linecap="round" stroke-linejoin="round"/>
    <path d="M 133.06329345703125 76.75306701660156 C 117.45182037353516 60.979862213134766 95.53102111816406 68.65886688232422 127.01505279541016 79.9206771850586" stroke-width="2" fill="none" stroke="rgb(0, 0, 0)" stroke-opacity="1.0" stroke-linecap="round" stroke-linejoin="round"/>
    <path d="M 110.73600006103516 74.80542755126953 C 131.45147705078125 97.44699096679688 135.93983459472656 74.40937805175781 124.36656951904297 64.87251281738281" stroke-width="2" fill="none" stroke="rgb(0, 0, 0)" stroke-opacity="1.0" stroke-linecap="round" stroke-linejoin="round"/>
    <path d="M 158.05039978027344 93.92765808105469 C 150.5570068359375 106.72220611572266 145.30294799804688 103.91973876953125 146.3896026611328 92.18849182128906" stroke-width="2" fill="none" stroke="rgb(0, 0, 0)" stroke-opacity="1.0" stroke-linecap="round" stroke-linejoin="round"/>
  </g>
</svg>
