<?xml version="1.0" ?>
<svg xmlns="http://www.w3.org/2000/svg" version="1.1" width="224" height="224">
  <defs/>
  <g>
    <path d="M 126.30791473388672 99.90534210205078 C 113.10578918457031 74.44518280029297 99.73454284667969 69.54202270507812 122.21228790283203 93.47898864746094" stroke-width="2" fill="none" stroke="rgb(0, 0, 0)" stroke-opacity="1.0" stroke-linecap="round" stroke-linejoin="round"/>
    <path d="M 146.3058624267578 127.7530746459961 C 177.3779296875 107.8044204711914 177.50160217285156 104.2803955078125 177.92160034179688 116.1404800415039" stroke-width="2" fill="none" stroke="rgb(0, 0, 0)" stroke-opacity="1.0" stroke-linecap="round" stroke-linejoin="round"/>
    <path d="M 132.07789611816406 106.4653549194336 C 112.99080657958984 108.54093170166016 114.43050384521484 101.8278579711914 129.05699157714844 107.06224060058594" stroke-width="2" fill="none" stroke="rgb(0, 0, 0)" stroke-opacity="1.0" stroke-linecap="round" stroke-linejoin="round"/>
    <path d="M 136.25685119628906 91.56828308105469 C 105.77539825439453 75.89511108398438 144.21731567382812 110.10688018798828 143.2911834716797 88.76809692382812" stroke-width="2" fill="none" stroke="rgb(0, 0, 0)" stroke-opacity="1.0" stroke-linecap="round" stroke-linejoin="round"/>
    <path d="M 87.77111053466797 75.14073181152344 C 114.23656463623047 83.6851806640625 131.5709228515625 57.148780822753906 120.58973693847656 87.4912338256836" stroke-width="2" fill="none" stroke="rgb(0, 0, 0)" stroke-opacity="1.0" stroke-linecap="round" stroke-linejoin="round"/>
    <path d="M 109.26819610595703 71.64915466308594 C 130.47047424316406 59.19742965698242 127.54389953613281 92.86820220947266 116.02732849121094 74.14683532714844" stroke-width="2" fill="none" stroke="rgb(0, 0, 0)" stroke-opacity="1.0" stroke-linecap="round" stroke-linejoin="round"/>
    <path d="M 146.3114776611328 124.12440490722656 C 161.22718811035156 109.09716796875 169.51004028320312 118.5661849975586 151.7842559814453 111.20748901367188" stroke-width="2" fill="none" stroke="rgb(0, 0, 0)" stroke-opacity="1.0" stroke-linecap="round" stroke-linejoin="round"/>
    <path d="M 180.72247314453125 117.37663269042969 C 128.97691345214844 104.4138412475586 98.86322784423828 78.72481536865234 126.21475219726562 88.51325225830078" stroke-width="2" fill="none" stroke="rgb(0, 0, 0)" stroke-opacity="1.0" stroke-linecap="round" stroke-linejoin="round"/>
    <path d="M 174.8787384033203 110.80628967285156 C 187.17544555664062 85.57827758789062 173.97836303710938 80.65045166015625 132.44900512695312 72.47628784179688" stroke-width="2" fill="none" stroke="rgb(0, 0, 0)" stroke-opacity="1.0" stroke-linecap="round" stroke-linejoin="round"/>
    <path d="M 119.6298599243164 61.2575569152832 C 113.3502426147461 75.70790100097656 121.27978515625 77.40570068359375 80.63861846923828 79.17076110839844" stroke-width="2" fill="none" stroke="rgb(0, 0, 0)" stroke-opacity="1.0" stroke-linecap="round" stroke-linejoin="round"/>
    <path d="M 138.96408081054688 123.29035186767578 C 168.691162109375 114.45370483398438 204.35508728027344 127.7631607055664 188.9779815673828 155.77403259277344" stroke-width="2" fill="none" stroke="rgb(0, 0, 0)" stroke-opacity="1.0" stroke-linecap="round" stroke-linejoin="round"/>
    <path d="M 157.65011596679688 125.14622497558594 C 181.96044921875 107.6120376586914 187.5826416015625 72.61200714111328 173.75469970703125 113.6656723022461" stroke-width="2" fill="none" stroke="rgb(0, 0, 0)" stroke-opacity="1.0" stroke-linecap="round" stroke-linejoin="round"/>
    <path d="M 135.86007690429688 82.88070678710938 C 143.2851104736328 69.18607330322266 157.2707061767578 83.47013092041016 132.1181182861328 69.0644302368164" stroke-width="2" fill="none" stroke="rgb(0, 0, 0)" stroke-opacity="1.0" stroke-linecap="round" stroke-linejoin="round"/>
    <path d="M 139.97727966308594 73.16722869873047 C 123.72654724121094 65.06356811523438 98.9354248046875 81.7416000366211 128.99212646484375 77.98379516601562" stroke-width="2" fill="none" stroke="rgb(0, 0, 0)" stroke-opacity="1.0" stroke-linecap="round" stroke-linejoin="round"/>
    <path d="M 108.59397888183594 71.6837158203125 C 130.24630737304688 104.66558074951172 140.6732635498047 53.8883171081543 123.82921600341797 60.66280746459961" stroke-width="2" fill="none" stroke="rgb(0, 0, 0)" stroke-opacity="1.0" stroke-linecap="round" stroke-linejoin="round"/>
    <path d="M 159.09437561035156 104.34796905517578 C 154.99163818359375 111.41117095947266 147.72317504882812 110.33425903320312 158.2599639892578 93.13152313232422" stroke-width="2" fill="none" stroke="rgb(0, 0, 0)" stroke-opacity="1.0" stroke-linecap="round" stroke-linejoin="round"/>
  </g>
</svg>
