<?xml version="1.0" ?>
<svg xmlns="http://www.w3.org/2000/svg" version="1.1" width="224" height="224">
  <defs/>
  <g>
    <path d="M 136.24227905273438 108.10466003417969 C 112.35894012451172 75.1900634765625 93.55404663085938 73.50687408447266 125.33795166015625 94.7491683959961" stroke-width="2" fill="none" stroke="rgb(0, 0, 0)" stroke-opacity="1.0" stroke-linecap="round" stroke-linejoin="round"/>
    <path d="M 142.56617736816406 130.8537139892578 C 180.4928741455078 115.93254852294922 174.43019104003906 111.48192596435547 175.9330596923828 117.45055389404297" stroke-width="2" fill="none" stroke="rgb(0, 0, 0)" stroke-opacity="1.0" stroke-linecap="round" stroke-linejoin="round"/>
    <path d="M 140.47308349609375 98.18447875976562 C 112.91310119628906 104.25292205810547 123.68756103515625 97.74029541015625 120.55683135986328 102.83125305175781" stroke-width="2" fill="none" stroke="rgb(0, 0, 0)" stroke-opacity="1.0" stroke-linecap="round" stroke-linejoin="round"/>
    <path d="M 138.585205078125 94.32546997070312 C 99.52297973632812 72.05297088623047 149.13348388671875 115.2289810180664 151.79638671875 87.23646545410156" stroke-width="2" fill="none" stroke="rgb(0, 0, 0)" stroke-opacity="1.0" stroke-linecap="round" stroke-linejoin="round"/>
    <path d="M 90.16337585449219 70.89910125732422 C 103.26834869384766 88.21875762939453 130.9672088623047 54.83168411254883 116.30644226074219 88.05571746826172" stroke-width="2" fill="none" stroke="rgb(0, 0, 0)" stroke-opacity="1.0" stroke-linecap="round" stroke-linejoin="round"/>
    <path d="M 115.23778533935547 75.41065216064453 C 138.46832275390625 64.89108276367188 134.71681213378906 93.54659271240234 116.23624420166016 70.30157470703125" stroke-width="2" fill="none" stroke="rgb(0, 0, 0)" stroke-opacity="1.0" stroke-linecap="round" stroke-linejoin="round"/>
    <path d="M 150.0417938232422 131.53707885742188 C 159.082275390625 101.25253295898438 165.1792449951172 123.46239471435547 151.5768280029297 107.05662536621094" stroke-width="2" fill="none" stroke="rgb(0, 0, 0)" stroke-opacity="1.0" stroke-linecap="round" stroke-linejoin="round"/>
    <path d="M 180.7983856201172 115.62007904052734 C 129.1270294189453 104.35155487060547 98.69674682617188 75.15401458740234 125.14212036132812 80.63642883300781" stroke-width="2" fill="none" stroke="rgb(0, 0, 0)" stroke-opacity="1.0" stroke-linecap="round" stroke-linejoin="round"/>
    <path d="M 176.30667114257812 115.24032592773438 C 189.35739135742188 79.1304702758789 173.72438049316406 83.54570007324219 138.6849365234375 70.4632339477539" stroke-width="2" fill="none" stroke="rgb(0, 0, 0)" stroke-opacity="1.0" stroke-linecap="round" stroke-linejoin="round"/>
    <path d="M 122.25065612792969 66.21930694580078 C 104.39698028564453 79.64734649658203 120.22588348388672 72.7442398071289 81.19493865966797 74.89041137695312" stroke-width="2" fill="none" stroke="rgb(0, 0, 0)" stroke-opacity="1.0" stroke-linecap="round" stroke-linejoin="round"/>
    <path d="M 135.05947875976562 120.97537994384766 C 176.92300415039062 121.36886596679688 213.08905029296875 122.67074584960938 213.8413543701172 151.60968017578125" stroke-width="2" fill="none" stroke="rgb(0, 0, 0)" stroke-opacity="1.0" stroke-linecap="round" stroke-linejoin="round"/>
    <path d="M 154.83065795898438 126.198486328125 C 186.7984161376953 116.20938873291016 186.52554321289062 71.98023223876953 183.13108825683594 115.1717529296875" stroke-width="2" fill="none" stroke="rgb(0, 0, 0)" stroke-opacity="1.0" stroke-linecap="round" stroke-linejoin="round"/>
    <path d="M 126.49605560302734 83.21852111816406 C 139.72154235839844 66.05683135986328 158.0748748779297 82.01429748535156 131.35667419433594 65.5328369140625" stroke-width="2" fill="none" stroke="rgb(0, 0, 0)" stroke-opacity="1.0" stroke-linecap="round" stroke-linejoin="round"/>
    <path d="M 139.8909454345703 70.83299255371094 C 117.6519546508789 58.78028869628906 93.39814758300781 84.33277893066406 130.09169006347656 86.88890075683594" stroke-width="2" fill="none" stroke="rgb(0, 0, 0)" stroke-opacity="1.0" stroke-linecap="round" stroke-linejoin="round"/>
    <path d="M 119.09332275390625 68.59332275390625 C 119.80156707763672 111.24508666992188 131.21717834472656 55.06392288208008 119.47827911376953 66.62825775146484" stroke-width="2" fill="none" stroke="rgb(0, 0, 0)" stroke-opacity="1.0" stroke-linecap="round" stroke-linejoin="round"/>
    <path d="M 148.71426391601562 103.37861633300781 C 149.03582763671875 114.80631256103516 152.03233337402344 121.91366577148438 161.3748321533203 96.69701385498047" stroke-width="2" fill="none" stroke="rgb(0, 0, 0)" stroke-opacity="1.0" stroke-linecap="round" stroke-linejoin="round"/>
  </g>
</svg>
