<?xml version="1.0" ?>
<svg xmlns="http://www.w3.org/2000/svg" version="1.1" width="224" height="224">
  <defs/>
  <g>
    <path d="M 134.59388732910156 104.44804382324219 C 93.9088134765625 94.78338623046875 95.01127624511719 72.25147247314453 140.11122131347656 75.56808471679688" stroke-width="2" fill="none" stroke="rgb(0, 0, 0)" stroke-opacity="1.0" stroke-linecap="round" stroke-linejoin="round"/>
    <path d="M 147.0249786376953 123.26374053955078 C 184.01254272460938 138.50527954101562 182.79820251464844 126.71099090576172 179.6862030029297 109.3243408203125" stroke-width="2" fill="none" stroke="rgb(0, 0, 0)" stroke-opacity="1.0" stroke-linecap="round" stroke-linejoin="round"/>
    <path d="M 152.93551635742188 112.7200927734375 C 96.32964324951172 103.56938934326172 110.43396759033203 95.91842651367188 137.57176208496094 104.08146667480469" stroke-width="2" fill="none" stroke="rgb(0, 0, 0)" stroke-opacity="1.0" stroke-linecap="round" stroke-linejoin="round"/>
    <path d="M 125.13243865966797 102.42638397216797 C 89.79487609863281 80.85318756103516 127.75849914550781 125.08183288574219 161.95770263671875 89.69774627685547" stroke-width="2" fill="none" stroke="rgb(0, 0, 0)" stroke-opacity="1.0" stroke-linecap="round" stroke-linejoin="round"/>
    <path d="M 69.87364196777344 87.9111328125 C 80.4038314819336 103.19133758544922 109.40314483642578 72.21772766113281 124.79674530029297 101.08086395263672" stroke-width="2" fill="none" stroke="rgb(0, 0, 0)" stroke-opacity="1.0" stroke-linecap="round" stroke-linejoin="round"/>
    <path d="M 109.95618438720703 78.14599609375 C 143.2108612060547 56.46336364746094 141.59451293945312 83.29132843017578 105.00442504882812 77.21024322509766" stroke-width="2" fill="none" stroke="rgb(0, 0, 0)" stroke-opacity="1.0" stroke-linecap="round" stroke-linejoin="round"/>
    <path d="M 151.44642639160156 134.59657287597656 C 175.3043975830078 98.54258728027344 156.2057647705078 130.44859313964844 146.849609375 98.32945251464844" stroke-width="2" fill="none" stroke="rgb(0, 0, 0)" stroke-opacity="1.0" stroke-linecap="round" stroke-linejoin="round"/>
    <path d="M 174.95651245117188 130.01565551757812 C 129.5264892578125 96.54620361328125 88.2327880859375 73.65412902832031 114.5531234741211 84.99728393554688" stroke-width="2" fill="none" stroke="rgb(0, 0, 0)" stroke-opacity="1.0" stroke-linecap="round" stroke-linejoin="round"/>
    <path d="M 183.86566162109375 120.91703796386719 C 189.2104949951172 77.10967254638672 169.15113830566406 84.49466705322266 137.2743682861328 58.760738372802734" stroke-width="2" fill="none" stroke="rgb(0, 0, 0)" stroke-opacity="1.0" stroke-linecap="round" stroke-linejoin="round"/>
    <path d="M 123.0355224609375 74.72440338134766 C 154.8697509765625 85.69220733642578 162.14920043945312 91.33544158935547 64.34089660644531 91.58812713623047" stroke-width="2" fill="none" stroke="rgb(0, 0, 0)" stroke-opacity="1.0" stroke-linecap="round" stroke-linejoin="round"/>
    <path d="M 135.78713989257812 129.18695068359375 C 164.7504119873047 114.85684204101562 219.9412841796875 136.04409790039062 196.0068817138672 163.6284942626953" stroke-width="2" fill="none" stroke="rgb(0, 0, 0)" stroke-opacity="1.0" stroke-linecap="round" stroke-linejoin="round"/>
    <path d="M 150.25982666015625 123.99810028076172 C 195.542236328125 129.53933715820312 188.60594177246094 79.31562805175781 180.81600952148438 120.70430755615234" stroke-width="2" fill="none" stroke="rgb(0, 0, 0)" stroke-opacity="1.0" stroke-linecap="round" stroke-linejoin="round"/>
    <path d="M 113.16737365722656 74.07328033447266 C 163.88597106933594 41.84438705444336 141.81936645507812 88.69712829589844 150.64642333984375 59.00014114379883" stroke-width="2" fill="none" stroke="rgb(0, 0, 0)" stroke-opacity="1.0" stroke-linecap="round" stroke-linejoin="round"/>
    <path d="M 131.90965270996094 77.65309143066406 C 103.07390594482422 56.12245178222656 92.0956802368164 108.60206604003906 134.8406219482422 92.92416381835938" stroke-width="2" fill="none" stroke="rgb(0, 0, 0)" stroke-opacity="1.0" stroke-linecap="round" stroke-linejoin="round"/>
    <path d="M 123.5729751586914 71.29353332519531 C 122.55633544921875 105.26618957519531 140.86268615722656 45.420108795166016 124.88484191894531 74.9727554321289" stroke-width="2" fill="none" stroke="rgb(0, 0, 0)" stroke-opacity="1.0" stroke-linecap="round" stroke-linejoin="round"/>
    <path d="M 154.92645263671875 106.43758392333984 C 159.07923889160156 132.61524963378906 158.52337646484375 161.1401824951172 166.36207580566406 109.74913787841797" stroke-width="2" fill="none" stroke="rgb(0, 0, 0)" stroke-opacity="1.0" stroke-linecap="round" stroke-linejoin="round"/>
  </g>
</svg>
