<?xml version="1.0" ?>
<svg xmlns="http://www.w3.org/2000/svg" version="1.1" width="224" height="224">
  <defs/>
  <g>
    <path d="M 127.57706451416016 88.91189575195312 C 137.82009887695312 68.21208190917969 106.33025360107422 81.51841735839844 129.11083984375 80.3005599975586" stroke-width="2" fill="none" stroke="rgb(0, 0, 0)" stroke-opacity="1.0" stroke-linecap="round" stroke-linejoin="round"/>
    <path d="M 174.59776306152344 120.34637451171875 C 178.46934509277344 120.94827270507812 175.72897338867188 118.84465026855469 173.3986358642578 128.25645446777344" stroke-width="2" fill="none" stroke="rgb(0, 0, 0)" stroke-opacity="1.0" stroke-linecap="round" stroke-linejoin="round"/>
    <path d="M 136.27395629882812 103.9843521118164 C 137.906494140625 104.84352111816406 136.54800415039062 103.60751342773438 136.83224487304688 104.8087387084961" stroke-width="2" fill="none" stroke="rgb(0, 0, 0)" stroke-opacity="1.0" stroke-linecap="round" stroke-linejoin="round"/>
    <path d="M 151.05543518066406 94.25291442871094 C 149.52801513671875 94.2417984008789 150.49142456054688 93.68507385253906 151.99925231933594 93.97966003417969" stroke-width="2" fill="none" stroke="rgb(0, 0, 0)" stroke-opacity="1.0" stroke-linecap="round" stroke-linejoin="round"/>
    <path d="M 123.76254272460938 68.86273193359375 C 98.36280059814453 79.87774658203125 130.5168914794922 56.273624420166016 131.25540161132812 71.9043197631836" stroke-width="2" fill="none" stroke="rgb(0, 0, 0)" stroke-opacity="1.0" stroke-linecap="round" stroke-linejoin="round"/>
    <path d="M 113.99424743652344 73.19325256347656 C 113.24993133544922 71.3099136352539 121.11821746826172 80.16046142578125 119.1989974975586 74.89566802978516" stroke-width="2" fill="none" stroke="rgb(0, 0, 0)" stroke-opacity="1.0" stroke-linecap="round" stroke-linejoin="round"/>
    <path d="M 176.27040100097656 116.42390441894531 C 177.82858276367188 128.58802795410156 169.69384765625 134.09109497070312 173.98219299316406 121.96268463134766" stroke-width="2" fill="none" stroke="rgb(0, 0, 0)" stroke-opacity="1.0" stroke-linecap="round" stroke-linejoin="round"/>
    <path d="M 151.03933715820312 94.11151885986328 C 149.87744140625 92.6783218383789 150.37049865722656 94.6401596069336 151.18991088867188 94.32486724853516" stroke-width="2" fill="none" stroke="rgb(0, 0, 0)" stroke-opacity="1.0" stroke-linecap="round" stroke-linejoin="round"/>
    <path d="M 167.5457763671875 101.36936950683594 C 167.70689392089844 101.39643859863281 169.0011749267578 102.26053619384766 168.51832580566406 102.30349731445312" stroke-width="2" fill="none" stroke="rgb(0, 0, 0)" stroke-opacity="1.0" stroke-linecap="round" stroke-linejoin="round"/>
    <path d="M 123.28372955322266 81.48884582519531 C 117.78870391845703 75.00267028808594 118.0409927368164 69.3460922241211 96.23798370361328 77.2383041381836" stroke-width="2" fill="none" stroke="rgb(0, 0, 0)" stroke-opacity="1.0" stroke-linecap="round" stroke-linejoin="round"/>
    <path d="M 144.9758758544922 135.51828002929688 C 170.9225311279297 129.2272491455078 157.11778259277344 121.68257904052734 182.90016174316406 129.7301483154297" stroke-width="2" fill="none" stroke="rgb(0, 0, 0)" stroke-opacity="1.0" stroke-linecap="round" stroke-linejoin="round"/>
    <path d="M 193.502197265625 129.86672973632812 C 183.3602752685547 132.62661743164062 184.552734375 90.39020538330078 183.0953826904297 106.71256256103516" stroke-width="2" fill="none" stroke="rgb(0, 0, 0)" stroke-opacity="1.0" stroke-linecap="round" stroke-linejoin="round"/>
    <path d="M 131.88291931152344 74.38915252685547 C 129.13278198242188 84.97650146484375 142.70071411132812 78.8749771118164 139.2311553955078 81.58786010742188" stroke-width="2" fill="none" stroke="rgb(0, 0, 0)" stroke-opacity="1.0" stroke-linecap="round" stroke-linejoin="round"/>
    <path d="M 116.17977142333984 79.47380065917969 C 124.99791717529297 74.54127502441406 117.84806060791016 70.71896362304688 118.91304779052734 80.3658218383789" stroke-width="2" fill="none" stroke="rgb(0, 0, 0)" stroke-opacity="1.0" stroke-linecap="round" stroke-linejoin="round"/>
    <path d="M 111.24054718017578 73.42041778564453 C 117.95193481445312 74.17987823486328 125.81043243408203 90.06111907958984 121.51736450195312 68.09830474853516" stroke-width="2" fill="none" stroke="rgb(0, 0, 0)" stroke-opacity="1.0" stroke-linecap="round" stroke-linejoin="round"/>
    <path d="M 184.1086883544922 105.1242446899414 C 178.70849609375 74.501953125 145.88858032226562 77.94967651367188 149.21861267089844 79.6226577758789" stroke-width="2" fill="none" stroke="rgb(0, 0, 0)" stroke-opacity="1.0" stroke-linecap="round" stroke-linejoin="round"/>
    <path d="M 96.88941192626953 95.15416717529297 C 98.3798599243164 92.44963073730469 110.81436920166016 103.88751983642578 102.28026580810547 92.73004150390625" stroke-width="2" fill="none" stroke="rgb(0, 0, 0)" stroke-opacity="1.0" stroke-linecap="round" stroke-linejoin="round"/>
    <path d="M 82.25598907470703 94.36309051513672 C 82.88372802734375 99.06011962890625 89.15958404541016 89.73918151855469 73.94430541992188 102.63517761230469" stroke-width="2" fill="none" stroke="rgb(0, 0, 0)" stroke-opacity="1.0" stroke-linecap="round" stroke-linejoin="round"/>
    <path d="M 102.64521026611328 82.41492462158203 C 109.11797332763672 81.09405517578125 117.62284088134766 85.89128875732422 103.70430755615234 85.42039489746094" stroke-width="2" fill="none" stroke="rgb(0, 0, 0)" stroke-opacity="1.0" stroke-linecap="round" stroke-linejoin="round"/>
    <path d="M 110.57152557373047 103.68553161621094 C 120.58003234863281 111.29878997802734 114.0090103149414 110.08274841308594 111.64738464355469 104.71809387207031" stroke-width="2" fill="none" stroke="rgb(0, 0, 0)" stroke-opacity="1.0" stroke-linecap="round" stroke-linejoin="round"/>
    <path d="M 63.54684066772461 80.316162109375 C 77.24491119384766 79.51901245117188 81.65221405029297 88.90573120117188 85.5915756225586 84.07306671142578" stroke-width="2" fill="none" stroke="rgb(0, 0, 0)" stroke-opacity="1.0" stroke-linecap="round" stroke-linejoin="round"/>
    <path d="M 105.71066284179688 84.04253387451172 C 110.73284912109375 82.85850524902344 106.06324005126953 87.4789047241211 102.83868408203125 84.09119415283203" stroke-width="2" fill="none" stroke="rgb(0, 0, 0)" stroke-opacity="1.0" stroke-linecap="round" stroke-linejoin="round"/>
    <path d="M 81.60394287109375 91.52362823486328 C 89.63761901855469 85.85491943359375 93.07965850830078 83.67193603515625 69.39774322509766 92.42340850830078" stroke-width="2" fill="none" stroke="rgb(0, 0, 0)" stroke-opacity="1.0" stroke-linecap="round" stroke-linejoin="round"/>
    <path d="M 96.28333282470703 97.46771240234375 C 102.56135559082031 85.2972183227539 105.6421890258789 99.4984359741211 97.16615295410156 91.22809600830078" stroke-width="2" fill="none" stroke="rgb(0, 0, 0)" stroke-opacity="1.0" stroke-linecap="round" stroke-linejoin="round"/>
    <path d="M 151.43218994140625 104.04252624511719 C 150.60797119140625 104.5486068725586 150.67198181152344 101.66056823730469 150.79490661621094 101.85061645507812" stroke-width="2" fill="none" stroke="rgb(0, 0, 0)" stroke-opacity="1.0" stroke-linecap="round" stroke-linejoin="round"/>
    <path d="M 86.35983276367188 83.4917984008789 C 72.72348022460938 81.81396484375 101.78317260742188 79.61969757080078 94.69532775878906 75.85902404785156" stroke-width="2" fill="none" stroke="rgb(0, 0, 0)" stroke-opacity="1.0" stroke-linecap="round" stroke-linejoin="round"/>
    <path d="M 151.9173583984375 94.02025604248047 C 153.67144775390625 92.90027618408203 150.6981658935547 94.654296875 152.51502990722656 93.95043182373047" stroke-width="2" fill="none" stroke="rgb(0, 0, 0)" stroke-opacity="1.0" stroke-linecap="round" stroke-linejoin="round"/>
    <path d="M 94.26237487792969 92.50713348388672 C 106.2663803100586 102.15260314941406 99.62602996826172 92.46907043457031 110.74227905273438 102.24404907226562" stroke-width="2" fill="none" stroke="rgb(0, 0, 0)" stroke-opacity="1.0" stroke-linecap="round" stroke-linejoin="round"/>
    <path d="M 118.81893920898438 77.20906829833984 C 120.6641845703125 65.09846496582031 124.2048568725586 65.88265228271484 115.4234390258789 75.80989837646484" stroke-width="2" fill="none" stroke="rgb(0, 0, 0)" stroke-opacity="1.0" stroke-linecap="round" stroke-linejoin="round"/>
    <path d="M 100.25237274169922 94.61743927001953 C 109.16996002197266 96.61670684814453 104.97361755371094 91.65991973876953 93.05156707763672 95.68550872802734" stroke-width="2" fill="none" stroke="rgb(0, 0, 0)" stroke-opacity="1.0" stroke-linecap="round" stroke-linejoin="round"/>
    <path d="M 68.15440368652344 67.79581451416016 C 97.90094757080078 87.2084732055664 81.42606353759766 78.8689956665039 85.22721099853516 79.35179138183594" stroke-width="2" fill="none" stroke="rgb(0, 0, 0)" stroke-opacity="1.0" stroke-linecap="round" stroke-linejoin="round"/>
    <path d="M 104.92105102539062 76.527099609375 C 102.28147888183594 75.33650970458984 95.86353302001953 77.12191009521484 81.9586181640625 82.68975830078125" stroke-width="2" fill="none" stroke="rgb(0, 0, 0)" stroke-opacity="1.0" stroke-linecap="round" stroke-linejoin="round"/>
  </g>
</svg>
