<?xml version="1.0" ?>
<svg xmlns="http://www.w3.org/2000/svg" version="1.1" width="224" height="224">
  <defs/>
  <g>
    <path d="M 118.20808410644531 96.40532684326172 C 90.92432403564453 110.47309875488281 88.04622650146484 96.1160888671875 119.70079803466797 85.28045654296875" stroke-width="3.0" fill="none" stroke="rgb(0, 0, 0)" stroke-opacity="1.0" stroke-linecap="round" stroke-linejoin="round"/>
    <path d="M 34.468109130859375 207.43499755859375 C 49.06413269042969 184.09194946289062 57.419700622558594 183.2379150390625 74.97413635253906 168.6087188720703" stroke-width="3.0" fill="none" stroke="rgb(0, 0, 0)" stroke-opacity="1.0" stroke-linecap="round" stroke-linejoin="round"/>
    <path d="M 62.08397674560547 130.06626892089844 C 18.277116775512695 143.46417236328125 5.1647186279296875 154.76089477539062 -3.38144850730896 166.80020141601562" stroke-width="3.0" fill="none" stroke="rgb(0, 0, 0)" stroke-opacity="1.0" stroke-linecap="round" stroke-linejoin="round"/>
    <path d="M 149.0410919189453 112.7329330444336 C 164.63217163085938 119.16439056396484 150.18312072753906 105.62647247314453 182.75360107421875 124.810791015625" stroke-width="3.0" fill="none" stroke="rgb(0, 0, 0)" stroke-opacity="1.0" stroke-linecap="round" stroke-linejoin="round"/>
    <path d="M 90.32023620605469 47.146915435791016 C 114.12779235839844 67.13642883300781 106.43148040771484 48.283233642578125 83.59756469726562 45.8139762878418" stroke-width="3.0" fill="none" stroke="rgb(0, 0, 0)" stroke-opacity="1.0" stroke-linecap="round" stroke-linejoin="round"/>
    <path d="M 162.25575256347656 32.556793212890625 C 222.8779296875 -2.6655519008636475 229.04612731933594 -0.052834123373031616 188.31903076171875 59.12773895263672" stroke-width="3.0" fill="none" stroke="rgb(0, 0, 0)" stroke-opacity="1.0" stroke-linecap="round" stroke-linejoin="round"/>
    <path d="M 11.634919166564941 201.374267578125 C 39.900733947753906 177.2857208251953 66.68905639648438 189.1607208251953 105.98272705078125 166.42185974121094" stroke-width="3.0" fill="none" stroke="rgb(0, 0, 0)" stroke-opacity="1.0" stroke-linecap="round" stroke-linejoin="round"/>
    <path d="M 108.01555633544922 120.12403106689453 C 85.00342559814453 82.6952896118164 75.35453033447266 120.92993927001953 50.88420867919922 92.64900207519531" stroke-width="3.0" fill="none" stroke="rgb(0, 0, 0)" stroke-opacity="1.0" stroke-linecap="round" stroke-linejoin="round"/>
    <path d="M 102.07331085205078 150.70689392089844 C 96.3266830444336 114.5184097290039 133.61398315429688 114.40025329589844 100.69373321533203 122.71385955810547" stroke-width="3.0" fill="none" stroke="rgb(0, 0, 0)" stroke-opacity="1.0" stroke-linecap="round" stroke-linejoin="round"/>
    <path d="M 156.19334411621094 -5.3726372718811035 C 139.941650390625 -4.809734344482422 133.87057495117188 -1.1997774839401245 135.84225463867188 -9.683188438415527" stroke-width="3.0" fill="none" stroke="rgb(0, 0, 0)" stroke-opacity="1.0" stroke-linecap="round" stroke-linejoin="round"/>
    <path d="M 161.6873321533203 192.4040985107422 C 197.42076110839844 201.4783477783203 201.9680633544922 210.69549560546875 205.70521545410156 213.16159057617188" stroke-width="3.0" fill="none" stroke="rgb(0, 0, 0)" stroke-opacity="1.0" stroke-linecap="round" stroke-linejoin="round"/>
    <path d="M 205.95220947265625 184.88966369628906 C 194.6109619140625 176.6402587890625 188.1046600341797 176.6662139892578 170.62734985351562 171.6693572998047" stroke-width="3.0" fill="none" stroke="rgb(0, 0, 0)" stroke-opacity="1.0" stroke-linecap="round" stroke-linejoin="round"/>
    <path d="M 87.42875671386719 70.84060668945312 C 58.18019485473633 46.275917053222656 112.63131713867188 30.44337272644043 89.15009307861328 69.76463317871094" stroke-width="3.0" fill="none" stroke="rgb(0, 0, 0)" stroke-opacity="1.0" stroke-linecap="round" stroke-linejoin="round"/>
    <path d="M 88.80162048339844 46.36836624145508 C 78.94880676269531 40.88541793823242 56.641380310058594 47.1394157409668 84.11005401611328 44.67115783691406" stroke-width="3.0" fill="none" stroke="rgb(0, 0, 0)" stroke-opacity="1.0" stroke-linecap="round" stroke-linejoin="round"/>
    <path d="M 86.73583221435547 57.22176742553711 C 91.9124984741211 30.59001350402832 74.58943939208984 57.44366455078125 85.4982681274414 62.80641555786133" stroke-width="3.0" fill="none" stroke="rgb(0, 0, 0)" stroke-opacity="1.0" stroke-linecap="round" stroke-linejoin="round"/>
    <path d="M 116.13529205322266 69.4852523803711 C 92.13151550292969 94.95628356933594 67.1437759399414 82.03990173339844 62.15019607543945 18.76340103149414" stroke-width="3.0" fill="none" stroke="rgb(0, 0, 0)" stroke-opacity="1.0" stroke-linecap="round" stroke-linejoin="round"/>
  </g>
</svg>
