<?xml version="1.0" ?>
<svg xmlns="http://www.w3.org/2000/svg" version="1.1" width="224" height="224">
  <defs/>
  <g>
    <path d="M 126.5727310180664 88.44058227539062 C 125.54264831542969 71.77603149414062 114.82058715820312 76.6455078125 123.85358428955078 81.84667205810547" stroke-width="2" fill="none" stroke="rgb(0, 0, 0)" stroke-opacity="1.0" stroke-linecap="round" stroke-linejoin="round"/>
    <path d="M 175.9744873046875 121.43164825439453 C 167.99974060058594 126.47452545166016 169.93092346191406 116.12405395507812 176.2677459716797 120.47811126708984" stroke-width="2" fill="none" stroke="rgb(0, 0, 0)" stroke-opacity="1.0" stroke-linecap="round" stroke-linejoin="round"/>
    <path d="M 136.75086975097656 105.10812377929688 C 136.0388641357422 103.22757720947266 137.3465576171875 106.10163879394531 136.93104553222656 105.91304779052734" stroke-width="2" fill="none" stroke="rgb(0, 0, 0)" stroke-opacity="1.0" stroke-linecap="round" stroke-linejoin="round"/>
    <path d="M 153.33462524414062 93.28434753417969 C 151.11129760742188 93.9373779296875 154.4463348388672 93.43241882324219 153.6479034423828 93.82360076904297" stroke-width="2" fill="none" stroke="rgb(0, 0, 0)" stroke-opacity="1.0" stroke-linecap="round" stroke-linejoin="round"/>
    <path d="M 119.32215881347656 74.55522155761719 C 113.47039031982422 86.59073638916016 114.98094177246094 55.530277252197266 130.72280883789062 70.303955078125" stroke-width="2" fill="none" stroke="rgb(0, 0, 0)" stroke-opacity="1.0" stroke-linecap="round" stroke-linejoin="round"/>
    <path d="M 122.2839126586914 75.02848815917969 C 121.842041015625 70.10070037841797 123.51123809814453 81.99700164794922 119.41691589355469 77.67988586425781" stroke-width="2" fill="none" stroke="rgb(0, 0, 0)" stroke-opacity="1.0" stroke-linecap="round" stroke-linejoin="round"/>
    <path d="M 171.49598693847656 116.95941925048828 C 177.13662719726562 117.15335845947266 166.70419311523438 126.85618591308594 175.69216918945312 117.30467987060547" stroke-width="2" fill="none" stroke="rgb(0, 0, 0)" stroke-opacity="1.0" stroke-linecap="round" stroke-linejoin="round"/>
    <path d="M 154.08731079101562 93.87458801269531 C 154.89381408691406 94.59416198730469 150.69403076171875 92.3631591796875 153.53359985351562 93.20590209960938" stroke-width="2" fill="none" stroke="rgb(0, 0, 0)" stroke-opacity="1.0" stroke-linecap="round" stroke-linejoin="round"/>
    <path d="M 166.33169555664062 102.3878402709961 C 166.879638671875 102.40299987792969 166.13600158691406 102.99978637695312 165.94056701660156 102.5470962524414" stroke-width="2" fill="none" stroke="rgb(0, 0, 0)" stroke-opacity="1.0" stroke-linecap="round" stroke-linejoin="round"/>
    <path d="M 116.026123046875 76.18059539794922 C 119.255126953125 71.97029113769531 121.54962158203125 70.08586120605469 93.08482360839844 78.16909790039062" stroke-width="2" fill="none" stroke="rgb(0, 0, 0)" stroke-opacity="1.0" stroke-linecap="round" stroke-linejoin="round"/>
    <path d="M 145.05831909179688 136.16249084472656 C 178.67694091796875 122.55538940429688 172.08079528808594 128.04640197753906 182.3075714111328 129.91786193847656" stroke-width="2" fill="none" stroke="rgb(0, 0, 0)" stroke-opacity="1.0" stroke-linecap="round" stroke-linejoin="round"/>
    <path d="M 191.4613494873047 131.1535186767578 C 180.43617248535156 106.14993286132812 187.39163208007812 96.65538787841797 183.4378662109375 109.86746978759766" stroke-width="2" fill="none" stroke="rgb(0, 0, 0)" stroke-opacity="1.0" stroke-linecap="round" stroke-linejoin="round"/>
    <path d="M 130.53341674804688 72.00701904296875 C 131.10154724121094 87.32292175292969 143.41665649414062 77.32183074951172 136.75949096679688 82.7068862915039" stroke-width="2" fill="none" stroke="rgb(0, 0, 0)" stroke-opacity="1.0" stroke-linecap="round" stroke-linejoin="round"/>
    <path d="M 116.26605224609375 77.60655212402344 C 122.55265808105469 75.98365020751953 123.62371063232422 71.12345123291016 121.69306182861328 77.76075744628906" stroke-width="2" fill="none" stroke="rgb(0, 0, 0)" stroke-opacity="1.0" stroke-linecap="round" stroke-linejoin="round"/>
    <path d="M 117.14332580566406 69.19429016113281 C 117.59233093261719 73.14708709716797 119.3580551147461 83.88973236083984 120.39395141601562 67.75336456298828" stroke-width="2" fill="none" stroke="rgb(0, 0, 0)" stroke-opacity="1.0" stroke-linecap="round" stroke-linejoin="round"/>
    <path d="M 158.11331176757812 79.43588256835938 C 163.6533203125 79.1655502319336 150.3531494140625 77.11607360839844 147.6912841796875 79.4074478149414" stroke-width="2" fill="none" stroke="rgb(0, 0, 0)" stroke-opacity="1.0" stroke-linecap="round" stroke-linejoin="round"/>
    <path d="M 93.48633575439453 97.08505249023438 C 99.22848510742188 92.56949615478516 110.55195617675781 105.06813049316406 103.904052734375 96.952880859375" stroke-width="2" fill="none" stroke="rgb(0, 0, 0)" stroke-opacity="1.0" stroke-linecap="round" stroke-linejoin="round"/>
    <path d="M 86.6089859008789 94.37701416015625 C 79.75836944580078 90.77351379394531 89.25867462158203 91.71690368652344 76.10079193115234 102.28947448730469" stroke-width="2" fill="none" stroke="rgb(0, 0, 0)" stroke-opacity="1.0" stroke-linecap="round" stroke-linejoin="round"/>
    <path d="M 98.8158187866211 82.73385620117188 C 110.56562042236328 81.5904769897461 118.7640609741211 84.44917297363281 99.60984802246094 85.27215576171875" stroke-width="2" fill="none" stroke="rgb(0, 0, 0)" stroke-opacity="1.0" stroke-linecap="round" stroke-linejoin="round"/>
    <path d="M 109.17591857910156 103.05587768554688 C 117.18425750732422 106.16526794433594 114.38658142089844 104.33342742919922 108.81120300292969 102.90367126464844" stroke-width="2" fill="none" stroke="rgb(0, 0, 0)" stroke-opacity="1.0" stroke-linecap="round" stroke-linejoin="round"/>
    <path d="M 64.48075866699219 80.03996276855469 C 77.20266723632812 79.71820831298828 72.39755249023438 83.10987854003906 85.66145324707031 85.62834930419922" stroke-width="2" fill="none" stroke="rgb(0, 0, 0)" stroke-opacity="1.0" stroke-linecap="round" stroke-linejoin="round"/>
    <path d="M 102.29255676269531 84.35797882080078 C 103.19916534423828 88.411865234375 105.2824935913086 83.87542724609375 102.47199249267578 83.38462829589844" stroke-width="2" fill="none" stroke="rgb(0, 0, 0)" stroke-opacity="1.0" stroke-linecap="round" stroke-linejoin="round"/>
    <path d="M 81.627197265625 89.5185775756836 C 88.47107696533203 88.0178451538086 87.72811126708984 85.31607818603516 69.3473892211914 92.44117736816406" stroke-width="2" fill="none" stroke="rgb(0, 0, 0)" stroke-opacity="1.0" stroke-linecap="round" stroke-linejoin="round"/>
    <path d="M 94.0510482788086 96.57313537597656 C 110.3707046508789 94.7948226928711 102.79373168945312 95.38665008544922 98.830078125 97.71920013427734" stroke-width="2" fill="none" stroke="rgb(0, 0, 0)" stroke-opacity="1.0" stroke-linecap="round" stroke-linejoin="round"/>
    <path d="M 150.72560119628906 103.42433166503906 C 151.00527954101562 108.81954956054688 153.75254821777344 103.19905853271484 151.38587951660156 106.19218444824219" stroke-width="2" fill="none" stroke="rgb(0, 0, 0)" stroke-opacity="1.0" stroke-linecap="round" stroke-linejoin="round"/>
    <path d="M 96.67341613769531 80.20066833496094 C 89.95288848876953 80.33196258544922 89.96620178222656 83.7364501953125 90.07086944580078 77.18844604492188" stroke-width="2" fill="none" stroke="rgb(0, 0, 0)" stroke-opacity="1.0" stroke-linecap="round" stroke-linejoin="round"/>
    <path d="M 152.9036865234375 93.3221664428711 C 156.71568298339844 94.68287658691406 150.8642578125 93.17440795898438 152.18209838867188 92.95623779296875" stroke-width="2" fill="none" stroke="rgb(0, 0, 0)" stroke-opacity="1.0" stroke-linecap="round" stroke-linejoin="round"/>
    <path d="M 98.54947662353516 92.90201568603516 C 105.14160919189453 93.44412231445312 100.58043670654297 94.36100006103516 112.19567108154297 104.0141372680664" stroke-width="2" fill="none" stroke="rgb(0, 0, 0)" stroke-opacity="1.0" stroke-linecap="round" stroke-linejoin="round"/>
    <path d="M 117.70933532714844 79.22349548339844 C 117.8602523803711 71.13793182373047 123.27068328857422 74.75716400146484 113.32108306884766 75.80628967285156" stroke-width="2" fill="none" stroke="rgb(0, 0, 0)" stroke-opacity="1.0" stroke-linecap="round" stroke-linejoin="round"/>
    <path d="M 100.68170166015625 95.81565856933594 C 104.79943084716797 103.6840591430664 103.54412078857422 91.2729721069336 93.56526184082031 94.16553497314453" stroke-width="2" fill="none" stroke="rgb(0, 0, 0)" stroke-opacity="1.0" stroke-linecap="round" stroke-linejoin="round"/>
    <path d="M 68.96793365478516 68.29621124267578 C 99.55345153808594 87.60466003417969 87.92984008789062 79.6653060913086 90.80236053466797 81.17379760742188" stroke-width="2" fill="none" stroke="rgb(0, 0, 0)" stroke-opacity="1.0" stroke-linecap="round" stroke-linejoin="round"/>
    <path d="M 99.81108093261719 76.0435791015625 C 101.26871490478516 76.65521240234375 92.62027740478516 77.0971908569336 81.94287109375 82.93221282958984" stroke-width="2" fill="none" stroke="rgb(0, 0, 0)" stroke-opacity="1.0" stroke-linecap="round" stroke-linejoin="round"/>
  </g>
</svg>
