<?xml version="1.0" ?>
<svg xmlns="http://www.w3.org/2000/svg" version="1.1" width="224" height="224">
  <defs/>
  <g>
    <path d="M 139.69439697265625 89.49337768554688 C 86.00005340576172 75.37484741210938 79.38673400878906 81.28056335449219 128.47572326660156 69.42772674560547" stroke-width="2" fill="none" stroke="rgb(0, 0, 0)" stroke-opacity="1.0" stroke-linecap="round" stroke-linejoin="round"/>
    <path d="M 153.24526977539062 118.14801788330078 C 180.4896240234375 129.91014099121094 180.4962921142578 113.851806640625 180.03990173339844 111.21603393554688" stroke-width="2" fill="none" stroke="rgb(0, 0, 0)" stroke-opacity="1.0" stroke-linecap="round" stroke-linejoin="round"/>
    <path d="M 149.160400390625 108.72918701171875 C 101.5830078125 94.99539184570312 104.49205780029297 94.6383285522461 129.11962890625 103.22217559814453" stroke-width="2" fill="none" stroke="rgb(0, 0, 0)" stroke-opacity="1.0" stroke-linecap="round" stroke-linejoin="round"/>
    <path d="M 130.25741577148438 106.62297821044922 C 99.26334381103516 75.1861343383789 142.2835235595703 127.85533905029297 167.7245330810547 103.53858184814453" stroke-width="2" fill="none" stroke="rgb(0, 0, 0)" stroke-opacity="1.0" stroke-linecap="round" stroke-linejoin="round"/>
    <path d="M 70.20623016357422 85.5278091430664 C 70.18037414550781 112.40283966064453 119.48025512695312 73.73932647705078 127.49805450439453 102.64872741699219" stroke-width="2" fill="none" stroke="rgb(0, 0, 0)" stroke-opacity="1.0" stroke-linecap="round" stroke-linejoin="round"/>
    <path d="M 104.84978485107422 83.99468994140625 C 163.98272705078125 55.219482421875 159.2056121826172 81.71464538574219 110.66963958740234 91.89153289794922" stroke-width="2" fill="none" stroke="rgb(0, 0, 0)" stroke-opacity="1.0" stroke-linecap="round" stroke-linejoin="round"/>
    <path d="M 152.49671936035156 140.50782775878906 C 175.53466796875 99.9365463256836 144.96286010742188 150.1881103515625 136.05645751953125 90.24158477783203" stroke-width="2" fill="none" stroke="rgb(0, 0, 0)" stroke-opacity="1.0" stroke-linecap="round" stroke-linejoin="round"/>
    <path d="M 176.56443786621094 132.29232788085938 C 129.25111389160156 93.48773193359375 78.24913024902344 76.99065399169922 122.07954406738281 85.11386108398438" stroke-width="2" fill="none" stroke="rgb(0, 0, 0)" stroke-opacity="1.0" stroke-linecap="round" stroke-linejoin="round"/>
    <path d="M 192.03192138671875 117.25762176513672 C 187.10646057128906 67.7832260131836 164.91322326660156 84.31095123291016 129.61180114746094 66.10847473144531" stroke-width="2" fill="none" stroke="rgb(0, 0, 0)" stroke-opacity="1.0" stroke-linecap="round" stroke-linejoin="round"/>
    <path d="M 127.27346801757812 65.48915100097656 C 172.41204833984375 87.89811706542969 183.0487060546875 105.7715072631836 64.4642105102539 89.49754333496094" stroke-width="2" fill="none" stroke="rgb(0, 0, 0)" stroke-opacity="1.0" stroke-linecap="round" stroke-linejoin="round"/>
    <path d="M 146.5814971923828 135.1531982421875 C 172.82569885253906 106.4335708618164 227.9307098388672 144.68348693847656 209.72312927246094 176.03079223632812" stroke-width="2" fill="none" stroke="rgb(0, 0, 0)" stroke-opacity="1.0" stroke-linecap="round" stroke-linejoin="round"/>
    <path d="M 154.43617248535156 120.32087707519531 C 206.63137817382812 129.14183044433594 182.7257843017578 69.19124603271484 179.66427612304688 125.44863891601562" stroke-width="2" fill="none" stroke="rgb(0, 0, 0)" stroke-opacity="1.0" stroke-linecap="round" stroke-linejoin="round"/>
    <path d="M 109.44389343261719 77.1057357788086 C 157.23056030273438 44.16502380371094 137.56004333496094 100.05180358886719 141.26577758789062 54.39723587036133" stroke-width="2" fill="none" stroke="rgb(0, 0, 0)" stroke-opacity="1.0" stroke-linecap="round" stroke-linejoin="round"/>
    <path d="M 136.71231079101562 75.46190643310547 C 104.33998107910156 55.99169921875 93.0479507446289 97.42329406738281 144.72938537597656 90.77192687988281" stroke-width="2" fill="none" stroke="rgb(0, 0, 0)" stroke-opacity="1.0" stroke-linecap="round" stroke-linejoin="round"/>
    <path d="M 120.7508316040039 66.85169219970703 C 122.07868957519531 106.62824249267578 147.06259155273438 34.20244598388672 116.59837341308594 67.49073028564453" stroke-width="2" fill="none" stroke="rgb(0, 0, 0)" stroke-opacity="1.0" stroke-linecap="round" stroke-linejoin="round"/>
    <path d="M 154.15626525878906 96.53474426269531 C 144.1722869873047 124.7173843383789 171.8002166748047 144.4822235107422 157.18153381347656 113.18998718261719" stroke-width="2" fill="none" stroke="rgb(0, 0, 0)" stroke-opacity="1.0" stroke-linecap="round" stroke-linejoin="round"/>
  </g>
</svg>
