<?xml version="1.0" ?>
<svg xmlns="http://www.w3.org/2000/svg" version="1.1" width="224" height="224">
  <defs/>
  <g>
    <path d="M 140.91404724121094 103.7424545288086 C 116.65876007080078 70.88597869873047 101.07081604003906 68.71077728271484 124.1712646484375 95.39839935302734" stroke-width="2" fill="none" stroke="rgb(0, 0, 0)" stroke-opacity="1.0" stroke-linecap="round" stroke-linejoin="round"/>
    <path d="M 142.46310424804688 134.17295837402344 C 182.4278564453125 119.29781341552734 175.64756774902344 122.53125762939453 174.79470825195312 113.79521179199219" stroke-width="2" fill="none" stroke="rgb(0, 0, 0)" stroke-opacity="1.0" stroke-linecap="round" stroke-linejoin="round"/>
    <path d="M 142.46351623535156 101.36114501953125 C 116.86331939697266 107.61190032958984 126.54023742675781 96.18755340576172 132.45889282226562 107.45714569091797" stroke-width="2" fill="none" stroke="rgb(0, 0, 0)" stroke-opacity="1.0" stroke-linecap="round" stroke-linejoin="round"/>
    <path d="M 141.36875915527344 94.90491485595703 C 103.22386169433594 71.24102020263672 149.48622131347656 119.00740814208984 159.4256591796875 90.54259490966797" stroke-width="2" fill="none" stroke="rgb(0, 0, 0)" stroke-opacity="1.0" stroke-linecap="round" stroke-linejoin="round"/>
    <path d="M 80.088623046875 73.9520034790039 C 94.35504913330078 94.72111511230469 125.33064270019531 60.16050338745117 110.64571380615234 84.5182113647461" stroke-width="2" fill="none" stroke="rgb(0, 0, 0)" stroke-opacity="1.0" stroke-linecap="round" stroke-linejoin="round"/>
    <path d="M 116.7440185546875 75.45384979248047 C 144.74488830566406 56.060054779052734 137.70138549804688 96.27395629882812 120.02031707763672 70.95198059082031" stroke-width="2" fill="none" stroke="rgb(0, 0, 0)" stroke-opacity="1.0" stroke-linecap="round" stroke-linejoin="round"/>
    <path d="M 148.78245544433594 133.3706512451172 C 164.09097290039062 103.06690979003906 166.69105529785156 125.01400756835938 150.15786743164062 105.72016906738281" stroke-width="2" fill="none" stroke="rgb(0, 0, 0)" stroke-opacity="1.0" stroke-linecap="round" stroke-linejoin="round"/>
    <path d="M 178.01962280273438 116.14905548095703 C 126.65494537353516 106.18387603759766 94.95711517333984 77.94121551513672 124.46485900878906 77.5628433227539" stroke-width="2" fill="none" stroke="rgb(0, 0, 0)" stroke-opacity="1.0" stroke-linecap="round" stroke-linejoin="round"/>
    <path d="M 181.37229919433594 117.18498992919922 C 191.21705627441406 80.21475982666016 174.81910705566406 82.27445983886719 139.95672607421875 65.05182647705078" stroke-width="2" fill="none" stroke="rgb(0, 0, 0)" stroke-opacity="1.0" stroke-linecap="round" stroke-linejoin="round"/>
    <path d="M 120.34539031982422 66.30789947509766 C 109.3731918334961 88.56851959228516 122.04621124267578 75.73158264160156 73.16656494140625 79.6805191040039" stroke-width="2" fill="none" stroke="rgb(0, 0, 0)" stroke-opacity="1.0" stroke-linecap="round" stroke-linejoin="round"/>
    <path d="M 135.37347412109375 124.89569091796875 C 177.78704833984375 122.18384552001953 214.8441925048828 122.14266967773438 213.63555908203125 147.83828735351562" stroke-width="2" fill="none" stroke="rgb(0, 0, 0)" stroke-opacity="1.0" stroke-linecap="round" stroke-linejoin="round"/>
    <path d="M 157.02105712890625 134.44961547851562 C 191.4197998046875 121.81243896484375 188.1903533935547 77.29436492919922 188.21141052246094 113.81332397460938" stroke-width="2" fill="none" stroke="rgb(0, 0, 0)" stroke-opacity="1.0" stroke-linecap="round" stroke-linejoin="round"/>
    <path d="M 129.63609313964844 92.09711456298828 C 152.39309692382812 63.10380172729492 157.44601440429688 84.0449447631836 158.48118591308594 57.350215911865234" stroke-width="2" fill="none" stroke="rgb(0, 0, 0)" stroke-opacity="1.0" stroke-linecap="round" stroke-linejoin="round"/>
    <path d="M 137.07716369628906 74.15596008300781 C 114.80911254882812 60.68486785888672 87.61848449707031 90.93389129638672 136.3232421875 86.43299865722656" stroke-width="2" fill="none" stroke="rgb(0, 0, 0)" stroke-opacity="1.0" stroke-linecap="round" stroke-linejoin="round"/>
    <path d="M 123.95135498046875 72.6589584350586 C 126.27391815185547 104.09674835205078 136.77230834960938 52.068458557128906 125.5035400390625 70.3973617553711" stroke-width="2" fill="none" stroke="rgb(0, 0, 0)" stroke-opacity="1.0" stroke-linecap="round" stroke-linejoin="round"/>
    <path d="M 150.09727478027344 102.53044891357422 C 159.36233520507812 119.97964477539062 157.8419189453125 128.1287841796875 166.7858428955078 103.61467742919922" stroke-width="2" fill="none" stroke="rgb(0, 0, 0)" stroke-opacity="1.0" stroke-linecap="round" stroke-linejoin="round"/>
  </g>
</svg>
