<?xml version="1.0" ?>
<svg xmlns="http://www.w3.org/2000/svg" version="1.1" width="224" height="224">
  <defs/>
  <g>
    <path d="M 113.01996612548828 121.26795196533203 C 111.10474395751953 105.62255096435547 79.53966522216797 110.95226287841797 105.59272766113281 139.30804443359375" stroke-width="2" fill="none" stroke="rgb(0, 0, 0)" stroke-opacity="1.0" stroke-linecap="round" stroke-linejoin="round"/>
    <path d="M 166.24551391601562 155.69822692871094 C 130.46766662597656 157.7760009765625 119.62281036376953 145.4333038330078 78.06303405761719 131.2266845703125" stroke-width="2" fill="none" stroke="rgb(0, 0, 0)" stroke-opacity="1.0" stroke-linecap="round" stroke-linejoin="round"/>
    <path d="M 127.17296600341797 118.95431518554688 C 167.7178192138672 123.21453094482422 104.87413024902344 137.48423767089844 140.52220153808594 135.4039764404297" stroke-width="2" fill="none" stroke="rgb(0, 0, 0)" stroke-opacity="1.0" stroke-linecap="round" stroke-linejoin="round"/>
    <path d="M 163.89047241210938 118.03783416748047 C 126.91329193115234 117.86722564697266 176.66629028320312 129.24362182617188 151.87759399414062 117.45077514648438" stroke-width="2" fill="none" stroke="rgb(0, 0, 0)" stroke-opacity="1.0" stroke-linecap="round" stroke-linejoin="round"/>
    <path d="M 124.60850524902344 110.05358123779297 C 107.10293579101562 115.22172546386719 107.10557556152344 127.2165298461914 101.10868835449219 72.07454681396484" stroke-width="2" fill="none" stroke="rgb(0, 0, 0)" stroke-opacity="1.0" stroke-linecap="round" stroke-linejoin="round"/>
    <path d="M 103.42803955078125 67.31145477294922 C 92.83417510986328 78.13783264160156 94.01653289794922 123.17496490478516 88.06900024414062 105.81598663330078" stroke-width="2" fill="none" stroke="rgb(0, 0, 0)" stroke-opacity="1.0" stroke-linecap="round" stroke-linejoin="round"/>
    <path d="M 51.08006286621094 132.9923095703125 C 95.55244445800781 148.64724731445312 168.5272216796875 170.3442840576172 87.93930053710938 135.04428100585938" stroke-width="2" fill="none" stroke="rgb(0, 0, 0)" stroke-opacity="1.0" stroke-linecap="round" stroke-linejoin="round"/>
    <path d="M 153.67520141601562 133.46456909179688 C 141.47474670410156 141.92520141601562 167.36666870117188 128.784912109375 123.59840393066406 130.66940307617188" stroke-width="2" fill="none" stroke="rgb(0, 0, 0)" stroke-opacity="1.0" stroke-linecap="round" stroke-linejoin="round"/>
    <path d="M 132.18954467773438 123.08563995361328 C 155.31483459472656 138.98939514160156 132.68382263183594 117.31352233886719 124.89180755615234 121.3377914428711" stroke-width="2" fill="none" stroke="rgb(0, 0, 0)" stroke-opacity="1.0" stroke-linecap="round" stroke-linejoin="round"/>
    <path d="M 177.48782348632812 69.46717071533203 C 154.0431671142578 119.74080657958984 190.7469940185547 96.2589340209961 174.98255920410156 59.34502410888672" stroke-width="2" fill="none" stroke="rgb(0, 0, 0)" stroke-opacity="1.0" stroke-linecap="round" stroke-linejoin="round"/>
    <path d="M 174.77142333984375 97.45182037353516 C 158.71644592285156 161.0855712890625 181.26101684570312 136.07449340820312 164.18812561035156 154.21856689453125" stroke-width="2" fill="none" stroke="rgb(0, 0, 0)" stroke-opacity="1.0" stroke-linecap="round" stroke-linejoin="round"/>
    <path d="M 70.63542175292969 151.54417419433594 C 31.348865509033203 153.673583984375 42.433448791503906 122.1131591796875 42.792877197265625 141.42654418945312" stroke-width="2" fill="none" stroke="rgb(0, 0, 0)" stroke-opacity="1.0" stroke-linecap="round" stroke-linejoin="round"/>
    <path d="M 120.41844177246094 100.90226745605469 C 130.87132263183594 106.10501861572266 126.4137191772461 108.07123565673828 105.57683563232422 68.41828918457031" stroke-width="2" fill="none" stroke="rgb(0, 0, 0)" stroke-opacity="1.0" stroke-linecap="round" stroke-linejoin="round"/>
    <path d="M 161.45799255371094 132.3201446533203 C 200.46620178222656 83.5180892944336 184.13133239746094 92.84303283691406 176.7313995361328 69.13142395019531" stroke-width="2" fill="none" stroke="rgb(0, 0, 0)" stroke-opacity="1.0" stroke-linecap="round" stroke-linejoin="round"/>
    <path d="M 61.39701843261719 103.2945556640625 C 76.22283935546875 92.63127899169922 66.45165252685547 99.81025695800781 91.39080047607422 98.7922134399414" stroke-width="2" fill="none" stroke="rgb(0, 0, 0)" stroke-opacity="1.0" stroke-linecap="round" stroke-linejoin="round"/>
    <path d="M 59.885135650634766 97.90349578857422 C 55.83125305175781 118.43989562988281 42.36778259277344 101.55558776855469 51.62118911743164 134.8158416748047" stroke-width="2" fill="none" stroke="rgb(0, 0, 0)" stroke-opacity="1.0" stroke-linecap="round" stroke-linejoin="round"/>
  </g>
</svg>
