<?xml version="1.0" ?>
<svg xmlns="http://www.w3.org/2000/svg" version="1.1" width="224" height="224">
  <defs/>
  <g>
    <path d="M 111.47772979736328 135.24032592773438 C 118.52347564697266 112.1479721069336 93.59684753417969 123.8334732055664 120.09469604492188 147.10826110839844" stroke-width="2" fill="none" stroke="rgb(0, 0, 0)" stroke-opacity="1.0" stroke-linecap="round" stroke-linejoin="round"/>
    <path d="M 166.62576293945312 151.67776489257812 C 106.72442626953125 155.88465881347656 129.8336181640625 131.867431640625 84.8714370727539 132.65057373046875" stroke-width="2" fill="none" stroke="rgb(0, 0, 0)" stroke-opacity="1.0" stroke-linecap="round" stroke-linejoin="round"/>
    <path d="M 135.3448028564453 123.75032043457031 C 175.83897399902344 118.57686614990234 102.42293548583984 133.36463928222656 154.3876495361328 130.66299438476562" stroke-width="2" fill="none" stroke="rgb(0, 0, 0)" stroke-opacity="1.0" stroke-linecap="round" stroke-linejoin="round"/>
    <path d="M 167.93736267089844 121.16554260253906 C 140.04534912109375 122.47312927246094 189.88607788085938 140.27267456054688 158.1307373046875 107.12226104736328" stroke-width="2" fill="none" stroke="rgb(0, 0, 0)" stroke-opacity="1.0" stroke-linecap="round" stroke-linejoin="round"/>
    <path d="M 152.9325408935547 101.84770965576172 C 119.84778594970703 79.5241470336914 143.7365264892578 128.0375518798828 103.97964477539062 68.44693756103516" stroke-width="2" fill="none" stroke="rgb(0, 0, 0)" stroke-opacity="1.0" stroke-linecap="round" stroke-linejoin="round"/>
    <path d="M 102.19886779785156 67.7142105102539 C 93.38744354248047 66.17119598388672 110.96553039550781 103.60525512695312 108.87654876708984 106.82215881347656" stroke-width="2" fill="none" stroke="rgb(0, 0, 0)" stroke-opacity="1.0" stroke-linecap="round" stroke-linejoin="round"/>
    <path d="M 51.96432113647461 147.0788116455078 C 96.82183837890625 152.40420532226562 179.7852783203125 153.27540588378906 73.67192840576172 146.31495666503906" stroke-width="2" fill="none" stroke="rgb(0, 0, 0)" stroke-opacity="1.0" stroke-linecap="round" stroke-linejoin="round"/>
    <path d="M 136.86090087890625 131.5408477783203 C 179.28350830078125 125.34527587890625 168.62139892578125 145.89462280273438 123.00607299804688 123.14535522460938" stroke-width="2" fill="none" stroke="rgb(0, 0, 0)" stroke-opacity="1.0" stroke-linecap="round" stroke-linejoin="round"/>
    <path d="M 141.9509735107422 120.69424438476562 C 164.1514434814453 125.72564697265625 119.71768951416016 118.19969177246094 146.7328643798828 122.69482421875" stroke-width="2" fill="none" stroke="rgb(0, 0, 0)" stroke-opacity="1.0" stroke-linecap="round" stroke-linejoin="round"/>
    <path d="M 183.1927490234375 67.71961212158203 C 113.3897933959961 117.03009796142578 175.09461975097656 123.70780944824219 184.5003662109375 65.06865692138672" stroke-width="2" fill="none" stroke="rgb(0, 0, 0)" stroke-opacity="1.0" stroke-linecap="round" stroke-linejoin="round"/>
    <path d="M 172.11903381347656 101.2079849243164 C 157.45913696289062 137.44036865234375 182.66392517089844 131.2615203857422 159.6060028076172 151.4792022705078" stroke-width="2" fill="none" stroke="rgb(0, 0, 0)" stroke-opacity="1.0" stroke-linecap="round" stroke-linejoin="round"/>
    <path d="M 77.65038299560547 154.67967224121094 C 45.07667922973633 154.58004760742188 36.16973114013672 129.4463348388672 45.724037170410156 128.8467559814453" stroke-width="2" fill="none" stroke="rgb(0, 0, 0)" stroke-opacity="1.0" stroke-linecap="round" stroke-linejoin="round"/>
    <path d="M 157.8534698486328 80.73481750488281 C 115.50494384765625 94.51141357421875 125.50390625 67.72611999511719 101.38375091552734 69.61023712158203" stroke-width="2" fill="none" stroke="rgb(0, 0, 0)" stroke-opacity="1.0" stroke-linecap="round" stroke-linejoin="round"/>
    <path d="M 147.28872680664062 137.2510223388672 C 187.24539184570312 103.04364013671875 187.53952026367188 59.00271224975586 182.60923767089844 62.448177337646484" stroke-width="2" fill="none" stroke="rgb(0, 0, 0)" stroke-opacity="1.0" stroke-linecap="round" stroke-linejoin="round"/>
    <path d="M 78.69634246826172 119.37556457519531 C 90.69972229003906 99.55276489257812 98.05298614501953 115.10796356201172 83.50497436523438 109.97774505615234" stroke-width="2" fill="none" stroke="rgb(0, 0, 0)" stroke-opacity="1.0" stroke-linecap="round" stroke-linejoin="round"/>
    <path d="M 94.41973876953125 98.6242446899414 C 75.85347747802734 111.58563995361328 51.47316360473633 84.97527313232422 46.2404670715332 142.28167724609375" stroke-width="2" fill="none" stroke="rgb(0, 0, 0)" stroke-opacity="1.0" stroke-linecap="round" stroke-linejoin="round"/>
  </g>
</svg>
