<?xml version="1.0" ?>
<svg xmlns="http://www.w3.org/2000/svg" version="1.1" width="224" height="224">
  <defs/>
  <g>
    <path d="M 103.01864624023438 139.49887084960938 C 116.21038818359375 117.6026840209961 93.42440032958984 117.03085327148438 120.01043701171875 144.38604736328125" stroke-width="2" fill="none" stroke="rgb(0, 0, 0)" stroke-opacity="1.0" stroke-linecap="round" stroke-linejoin="round"/>
    <path d="M 158.21119689941406 150.3868408203125 C 106.9181900024414 160.14306640625 120.12144470214844 145.1444091796875 90.73153686523438 136.69825744628906" stroke-width="2" fill="none" stroke="rgb(0, 0, 0)" stroke-opacity="1.0" stroke-linecap="round" stroke-linejoin="round"/>
    <path d="M 131.76063537597656 125.79547882080078 C 177.83363342285156 116.72908020019531 106.69465637207031 133.8529052734375 142.231689453125 128.02362060546875" stroke-width="2" fill="none" stroke="rgb(0, 0, 0)" stroke-opacity="1.0" stroke-linecap="round" stroke-linejoin="round"/>
    <path d="M 160.96835327148438 123.95275115966797 C 131.51324462890625 119.82582092285156 191.96153259277344 142.7142333984375 158.23703002929688 102.8530044555664" stroke-width="2" fill="none" stroke="rgb(0, 0, 0)" stroke-opacity="1.0" stroke-linecap="round" stroke-linejoin="round"/>
    <path d="M 146.88059997558594 100.62887573242188 C 108.04305267333984 93.60124206542969 137.2127685546875 139.68643188476562 101.44625091552734 70.05912780761719" stroke-width="2" fill="none" stroke="rgb(0, 0, 0)" stroke-opacity="1.0" stroke-linecap="round" stroke-linejoin="round"/>
    <path d="M 101.74555969238281 70.58732604980469 C 94.82891082763672 76.17806243896484 105.78385162353516 123.81391143798828 99.06346130371094 91.83216857910156" stroke-width="2" fill="none" stroke="rgb(0, 0, 0)" stroke-opacity="1.0" stroke-linecap="round" stroke-linejoin="round"/>
    <path d="M 46.893211364746094 142.21075439453125 C 108.37661743164062 158.36203002929688 184.2269744873047 155.9283905029297 66.2442398071289 148.29998779296875" stroke-width="2" fill="none" stroke="rgb(0, 0, 0)" stroke-opacity="1.0" stroke-linecap="round" stroke-linejoin="round"/>
    <path d="M 149.89352416992188 135.32720947265625 C 172.73101806640625 115.0181655883789 189.11532592773438 155.08981323242188 123.1214370727539 128.58071899414062" stroke-width="2" fill="none" stroke="rgb(0, 0, 0)" stroke-opacity="1.0" stroke-linecap="round" stroke-linejoin="round"/>
    <path d="M 129.9871368408203 120.09323120117188 C 158.2641143798828 126.16852569580078 119.91639709472656 105.78665161132812 144.74087524414062 132.41688537597656" stroke-width="2" fill="none" stroke="rgb(0, 0, 0)" stroke-opacity="1.0" stroke-linecap="round" stroke-linejoin="round"/>
    <path d="M 179.13955688476562 68.76142883300781 C 108.79008483886719 115.3147201538086 178.17156982421875 121.1867446899414 181.02630615234375 64.42723083496094" stroke-width="2" fill="none" stroke="rgb(0, 0, 0)" stroke-opacity="1.0" stroke-linecap="round" stroke-linejoin="round"/>
    <path d="M 163.79531860351562 97.6776123046875 C 158.2061004638672 141.51043701171875 184.5602569580078 120.4551773071289 169.7916717529297 150.95639038085938" stroke-width="2" fill="none" stroke="rgb(0, 0, 0)" stroke-opacity="1.0" stroke-linecap="round" stroke-linejoin="round"/>
    <path d="M 64.7833251953125 144.2504425048828 C 39.66654968261719 153.84585571289062 33.521263122558594 122.75447082519531 62.70688247680664 139.26585388183594" stroke-width="2" fill="none" stroke="rgb(0, 0, 0)" stroke-opacity="1.0" stroke-linecap="round" stroke-linejoin="round"/>
    <path d="M 156.05699157714844 85.42786407470703 C 116.46961212158203 95.18551635742188 131.88522338867188 72.19194793701172 100.18952178955078 66.42169952392578" stroke-width="2" fill="none" stroke="rgb(0, 0, 0)" stroke-opacity="1.0" stroke-linecap="round" stroke-linejoin="round"/>
    <path d="M 147.00799560546875 138.0680694580078 C 187.64697265625 99.36495971679688 186.44448852539062 66.3202133178711 181.32528686523438 60.005409240722656" stroke-width="2" fill="none" stroke="rgb(0, 0, 0)" stroke-opacity="1.0" stroke-linecap="round" stroke-linejoin="round"/>
    <path d="M 84.85456848144531 122.6490249633789 C 90.50875854492188 99.28377532958984 88.22990417480469 122.65679168701172 102.59362030029297 111.28598022460938" stroke-width="2" fill="none" stroke="rgb(0, 0, 0)" stroke-opacity="1.0" stroke-linecap="round" stroke-linejoin="round"/>
    <path d="M 85.63098907470703 105.5256576538086 C 63.184120178222656 118.55558776855469 45.88176345825195 100.51719665527344 44.54950714111328 141.15847778320312" stroke-width="2" fill="none" stroke="rgb(0, 0, 0)" stroke-opacity="1.0" stroke-linecap="round" stroke-linejoin="round"/>
  </g>
</svg>
