<?xml version="1.0" ?>
<svg xmlns="http://www.w3.org/2000/svg" version="1.1" width="224" height="224">
  <defs/>
  <g>
    <path d="M 122.92664337158203 137.5140838623047 C 115.05177307128906 111.02322387695312 113.36674499511719 123.13082122802734 130.78720092773438 128.98387145996094" stroke-width="2" fill="none" stroke="rgb(0, 0, 0)" stroke-opacity="1.0" stroke-linecap="round" stroke-linejoin="round"/>
    <path d="M 166.42701721191406 153.3844757080078 C 92.46236419677734 154.04116821289062 124.4091567993164 129.2934112548828 92.75824737548828 130.76116943359375" stroke-width="2" fill="none" stroke="rgb(0, 0, 0)" stroke-opacity="1.0" stroke-linecap="round" stroke-linejoin="round"/>
    <path d="M 130.5692596435547 129.79344177246094 C 185.84036254882812 111.3692398071289 86.53176879882812 129.99517822265625 155.08203125 133.7958221435547" stroke-width="2" fill="none" stroke="rgb(0, 0, 0)" stroke-opacity="1.0" stroke-linecap="round" stroke-linejoin="round"/>
    <path d="M 169.31134033203125 109.957275390625 C 125.83965301513672 113.91818237304688 174.60598754882812 124.24533081054688 149.9353485107422 109.92990112304688" stroke-width="2" fill="none" stroke="rgb(0, 0, 0)" stroke-opacity="1.0" stroke-linecap="round" stroke-linejoin="round"/>
    <path d="M 169.86956787109375 100.57276153564453 C 115.76244354248047 65.66706085205078 140.92115783691406 143.2447052001953 100.33296203613281 69.01178741455078" stroke-width="2" fill="none" stroke="rgb(0, 0, 0)" stroke-opacity="1.0" stroke-linecap="round" stroke-linejoin="round"/>
    <path d="M 101.87174224853516 69.08787536621094 C 103.60914611816406 75.75923156738281 116.13284301757812 112.94849395751953 111.4814682006836 93.13465881347656" stroke-width="2" fill="none" stroke="rgb(0, 0, 0)" stroke-opacity="1.0" stroke-linecap="round" stroke-linejoin="round"/>
    <path d="M 44.087989807128906 144.7462615966797 C 101.75125885009766 158.28384399414062 189.9718780517578 155.99671936035156 82.83802032470703 140.71682739257812" stroke-width="2" fill="none" stroke="rgb(0, 0, 0)" stroke-opacity="1.0" stroke-linecap="round" stroke-linejoin="round"/>
    <path d="M 127.08152770996094 122.54246520996094 C 182.81607055664062 133.40992736816406 172.94305419921875 141.4960479736328 131.72691345214844 121.86732482910156" stroke-width="2" fill="none" stroke="rgb(0, 0, 0)" stroke-opacity="1.0" stroke-linecap="round" stroke-linejoin="round"/>
    <path d="M 128.958984375 117.03325653076172 C 161.65371704101562 114.61823272705078 100.7346420288086 114.84196472167969 137.75677490234375 112.08838653564453" stroke-width="2" fill="none" stroke="rgb(0, 0, 0)" stroke-opacity="1.0" stroke-linecap="round" stroke-linejoin="round"/>
    <path d="M 181.60411071777344 61.314353942871094 C 131.18922424316406 104.39350891113281 177.10885620117188 107.0760269165039 182.8212127685547 58.43771743774414" stroke-width="2" fill="none" stroke="rgb(0, 0, 0)" stroke-opacity="1.0" stroke-linecap="round" stroke-linejoin="round"/>
    <path d="M 157.2734832763672 109.07567596435547 C 154.5790252685547 146.10548400878906 187.0519561767578 142.3975372314453 164.10693359375 155.7966766357422" stroke-width="2" fill="none" stroke="rgb(0, 0, 0)" stroke-opacity="1.0" stroke-linecap="round" stroke-linejoin="round"/>
    <path d="M 77.78072357177734 148.0018310546875 C 42.717735290527344 152.70492553710938 24.90958595275879 122.25813293457031 61.60911178588867 117.95714569091797" stroke-width="2" fill="none" stroke="rgb(0, 0, 0)" stroke-opacity="1.0" stroke-linecap="round" stroke-linejoin="round"/>
    <path d="M 160.93682861328125 76.14958190917969 C 117.70538330078125 102.1278076171875 118.7846908569336 66.98416137695312 101.19638061523438 67.49125671386719" stroke-width="2" fill="none" stroke="rgb(0, 0, 0)" stroke-opacity="1.0" stroke-linecap="round" stroke-linejoin="round"/>
    <path d="M 150.19595336914062 136.3926239013672 C 185.25680541992188 111.98799896240234 202.36639404296875 44.656551361083984 172.068115234375 64.23576354980469" stroke-width="2" fill="none" stroke="rgb(0, 0, 0)" stroke-opacity="1.0" stroke-linecap="round" stroke-linejoin="round"/>
    <path d="M 100.92976379394531 115.45881652832031 C 90.3725814819336 120.25418090820312 108.68391418457031 130.11305236816406 73.0013427734375 120.23981475830078" stroke-width="2" fill="none" stroke="rgb(0, 0, 0)" stroke-opacity="1.0" stroke-linecap="round" stroke-linejoin="round"/>
    <path d="M 95.0314712524414 98.29685974121094 C 82.39541625976562 104.92010498046875 50.30234146118164 90.380126953125 51.797794342041016 124.31510162353516" stroke-width="2" fill="none" stroke="rgb(0, 0, 0)" stroke-opacity="1.0" stroke-linecap="round" stroke-linejoin="round"/>
  </g>
</svg>
