<?xml version="1.0" ?>
<svg xmlns="http://www.w3.org/2000/svg" version="1.1" width="224" height="224">
  <defs/>
  <g>
    <path d="M 121.53279876708984 122.03428649902344 C 123.67974853515625 101.25582885742188 97.76445770263672 114.33702087402344 148.62872314453125 126.03398132324219" stroke-width="2" fill="none" stroke="rgb(0, 0, 0)" stroke-opacity="1.0" stroke-linecap="round" stroke-linejoin="round"/>
    <path d="M 171.4624481201172 140.14096069335938 C 67.8498306274414 140.80581665039062 112.54419708251953 115.93704986572266 86.38946533203125 111.70252227783203" stroke-width="2" fill="none" stroke="rgb(0, 0, 0)" stroke-opacity="1.0" stroke-linecap="round" stroke-linejoin="round"/>
    <path d="M 119.4211654663086 114.3353271484375 C 179.49522399902344 96.26931762695312 66.00373077392578 126.4900131225586 148.46429443359375 137.02272033691406" stroke-width="2" fill="none" stroke="rgb(0, 0, 0)" stroke-opacity="1.0" stroke-linecap="round" stroke-linejoin="round"/>
    <path d="M 155.96009826660156 114.03799438476562 C 119.8983383178711 114.90504455566406 195.81678771972656 122.35458374023438 159.25624084472656 106.26190948486328" stroke-width="2" fill="none" stroke="rgb(0, 0, 0)" stroke-opacity="1.0" stroke-linecap="round" stroke-linejoin="round"/>
    <path d="M 167.23239135742188 105.57766723632812 C 113.18392181396484 63.882572174072266 121.93394470214844 157.30262756347656 94.04448699951172 63.07025146484375" stroke-width="2" fill="none" stroke="rgb(0, 0, 0)" stroke-opacity="1.0" stroke-linecap="round" stroke-linejoin="round"/>
    <path d="M 97.57999420166016 63.17084884643555 C 84.48204803466797 68.78041076660156 103.43344116210938 99.9349136352539 98.42731475830078 95.77235412597656" stroke-width="2" fill="none" stroke="rgb(0, 0, 0)" stroke-opacity="1.0" stroke-linecap="round" stroke-linejoin="round"/>
    <path d="M 46.39412307739258 137.13027954101562 C 99.77734375 157.37794494628906 178.5585479736328 154.60195922851562 81.60387420654297 137.49252319335938" stroke-width="2" fill="none" stroke="rgb(0, 0, 0)" stroke-opacity="1.0" stroke-linecap="round" stroke-linejoin="round"/>
    <path d="M 132.4017791748047 129.27047729492188 C 176.1003875732422 133.0117645263672 170.04600524902344 143.96728515625 135.40858459472656 126.02000427246094" stroke-width="2" fill="none" stroke="rgb(0, 0, 0)" stroke-opacity="1.0" stroke-linecap="round" stroke-linejoin="round"/>
    <path d="M 132.23435974121094 114.31158447265625 C 164.267578125 112.6298828125 69.86810302734375 105.7764663696289 144.62745666503906 124.84265899658203" stroke-width="2" fill="none" stroke="rgb(0, 0, 0)" stroke-opacity="1.0" stroke-linecap="round" stroke-linejoin="round"/>
    <path d="M 180.01698303222656 72.76580810546875 C 133.21881103515625 113.51067352294922 172.89234924316406 105.52403259277344 185.0673370361328 65.57261657714844" stroke-width="2" fill="none" stroke="rgb(0, 0, 0)" stroke-opacity="1.0" stroke-linecap="round" stroke-linejoin="round"/>
    <path d="M 165.1919403076172 117.25482177734375 C 151.21534729003906 167.52511596679688 189.6839599609375 144.53994750976562 160.56410217285156 136.93003845214844" stroke-width="2" fill="none" stroke="rgb(0, 0, 0)" stroke-opacity="1.0" stroke-linecap="round" stroke-linejoin="round"/>
    <path d="M 76.57923889160156 143.43875122070312 C 34.99275207519531 151.44781494140625 34.30039596557617 115.23518371582031 59.03726577758789 120.77825927734375" stroke-width="2" fill="none" stroke="rgb(0, 0, 0)" stroke-opacity="1.0" stroke-linecap="round" stroke-linejoin="round"/>
    <path d="M 170.27008056640625 75.99501037597656 C 115.01493072509766 105.86424255371094 115.07383728027344 60.549373626708984 97.31143951416016 63.48826599121094" stroke-width="2" fill="none" stroke="rgb(0, 0, 0)" stroke-opacity="1.0" stroke-linecap="round" stroke-linejoin="round"/>
    <path d="M 143.95733642578125 138.7689666748047 C 188.32492065429688 133.72947692871094 203.95364379882812 25.813045501708984 169.76605224609375 79.34980773925781" stroke-width="2" fill="none" stroke="rgb(0, 0, 0)" stroke-opacity="1.0" stroke-linecap="round" stroke-linejoin="round"/>
    <path d="M 96.18855285644531 131.97589111328125 C 85.30194854736328 134.53213500976562 116.20337677001953 134.87570190429688 83.99568939208984 113.30614471435547" stroke-width="2" fill="none" stroke="rgb(0, 0, 0)" stroke-opacity="1.0" stroke-linecap="round" stroke-linejoin="round"/>
    <path d="M 94.86316680908203 100.66180419921875 C 78.48251342773438 107.02186584472656 49.407772064208984 86.11141967773438 49.282081604003906 124.61316680908203" stroke-width="2" fill="none" stroke="rgb(0, 0, 0)" stroke-opacity="1.0" stroke-linecap="round" stroke-linejoin="round"/>
  </g>
</svg>
