<?xml version="1.0" ?>
<svg xmlns="http://www.w3.org/2000/svg" version="1.1" width="224" height="224">
  <defs/>
  <g>
    <path d="M 121.8673095703125 123.91714477539062 C 136.04476928710938 103.24813842773438 100.61084747314453 120.61709594726562 136.8817901611328 121.03087615966797" stroke-width="2" fill="none" stroke="rgb(0, 0, 0)" stroke-opacity="1.0" stroke-linecap="round" stroke-linejoin="round"/>
    <path d="M 160.28297424316406 136.95004272460938 C 48.650142669677734 133.4461669921875 95.31371307373047 116.57138061523438 77.30321502685547 120.20388793945312" stroke-width="2" fill="none" stroke="rgb(0, 0, 0)" stroke-opacity="1.0" stroke-linecap="round" stroke-linejoin="round"/>
    <path d="M 119.13978576660156 118.34723663330078 C 184.74696350097656 104.97821044921875 62.08375549316406 133.6624298095703 144.9008331298828 138.02484130859375" stroke-width="2" fill="none" stroke="rgb(0, 0, 0)" stroke-opacity="1.0" stroke-linecap="round" stroke-linejoin="round"/>
    <path d="M 158.37203979492188 113.36734008789062 C 116.96632385253906 114.15735626220703 186.56805419921875 118.99201202392578 146.93768310546875 106.71317291259766" stroke-width="2" fill="none" stroke="rgb(0, 0, 0)" stroke-opacity="1.0" stroke-linecap="round" stroke-linejoin="round"/>
    <path d="M 154.71853637695312 104.37483215332031 C 101.34336853027344 62.737850189208984 118.86322784423828 150.9362335205078 105.6143798828125 75.07254028320312" stroke-width="2" fill="none" stroke="rgb(0, 0, 0)" stroke-opacity="1.0" stroke-linecap="round" stroke-linejoin="round"/>
    <path d="M 100.5461196899414 72.19063568115234 C 90.27581787109375 75.6067123413086 109.80095672607422 110.8414535522461 92.37061309814453 113.87657928466797" stroke-width="2" fill="none" stroke="rgb(0, 0, 0)" stroke-opacity="1.0" stroke-linecap="round" stroke-linejoin="round"/>
    <path d="M 43.9315299987793 144.12611389160156 C 101.78665161132812 169.36972045898438 183.00331115722656 161.33621215820312 68.39881896972656 138.49032592773438" stroke-width="2" fill="none" stroke="rgb(0, 0, 0)" stroke-opacity="1.0" stroke-linecap="round" stroke-linejoin="round"/>
    <path d="M 129.81808471679688 130.60740661621094 C 169.58834838867188 132.7144775390625 169.94322204589844 138.2410888671875 145.35523986816406 116.36971282958984" stroke-width="2" fill="none" stroke="rgb(0, 0, 0)" stroke-opacity="1.0" stroke-linecap="round" stroke-linejoin="round"/>
    <path d="M 120.05944061279297 110.90921783447266 C 170.7853546142578 104.38572692871094 69.79615020751953 109.33207702636719 154.29054260253906 118.5310287475586" stroke-width="2" fill="none" stroke="rgb(0, 0, 0)" stroke-opacity="1.0" stroke-linecap="round" stroke-linejoin="round"/>
    <path d="M 174.13877868652344 71.93351745605469 C 119.98638916015625 108.2805404663086 160.22198486328125 107.1115493774414 179.89712524414062 66.19347381591797" stroke-width="2" fill="none" stroke="rgb(0, 0, 0)" stroke-opacity="1.0" stroke-linecap="round" stroke-linejoin="round"/>
    <path d="M 169.08216857910156 101.95203399658203 C 160.27737426757812 160.14988708496094 187.93247985839844 132.7355499267578 161.62387084960938 129.5441436767578" stroke-width="2" fill="none" stroke="rgb(0, 0, 0)" stroke-opacity="1.0" stroke-linecap="round" stroke-linejoin="round"/>
    <path d="M 67.67425537109375 146.57582092285156 C 27.340604782104492 149.892822265625 31.33435821533203 115.31398010253906 59.7794075012207 105.15354919433594" stroke-width="2" fill="none" stroke="rgb(0, 0, 0)" stroke-opacity="1.0" stroke-linecap="round" stroke-linejoin="round"/>
    <path d="M 169.24273681640625 78.81590270996094 C 109.27285766601562 110.63200378417969 118.4791488647461 65.34286499023438 98.84383392333984 69.5604019165039" stroke-width="2" fill="none" stroke="rgb(0, 0, 0)" stroke-opacity="1.0" stroke-linecap="round" stroke-linejoin="round"/>
    <path d="M 135.77780151367188 134.48410034179688 C 182.46156311035156 138.37794494628906 196.57664489746094 11.054574966430664 165.93458557128906 88.75318145751953" stroke-width="2" fill="none" stroke="rgb(0, 0, 0)" stroke-opacity="1.0" stroke-linecap="round" stroke-linejoin="round"/>
    <path d="M 96.43317413330078 129.0703582763672 C 82.2999267578125 132.076416015625 112.89350128173828 131.4332275390625 86.55197143554688 105.69147491455078" stroke-width="2" fill="none" stroke="rgb(0, 0, 0)" stroke-opacity="1.0" stroke-linecap="round" stroke-linejoin="round"/>
    <path d="M 99.6046142578125 95.12581634521484 C 86.87403106689453 96.00894927978516 48.43769836425781 83.9119873046875 51.25727081298828 123.21292877197266" stroke-width="2" fill="none" stroke="rgb(0, 0, 0)" stroke-opacity="1.0" stroke-linecap="round" stroke-linejoin="round"/>
  </g>
</svg>
