<?xml version="1.0" ?>
<svg xmlns="http://www.w3.org/2000/svg" version="1.1" width="224" height="224">
  <defs/>
  <g>
    <path d="M 121.53020477294922 139.98216247558594 C 122.11259460449219 110.06010437011719 107.382080078125 134.36256408691406 136.16659545898438 132.0023956298828" stroke-width="2" fill="none" stroke="rgb(0, 0, 0)" stroke-opacity="1.0" stroke-linecap="round" stroke-linejoin="round"/>
    <path d="M 165.35899353027344 151.87379455566406 C 84.15690612792969 150.32333374023438 120.28266143798828 124.58534240722656 93.23426055908203 128.53321838378906" stroke-width="2" fill="none" stroke="rgb(0, 0, 0)" stroke-opacity="1.0" stroke-linecap="round" stroke-linejoin="round"/>
    <path d="M 127.49714660644531 128.2208251953125 C 184.30487060546875 110.6989517211914 78.39295959472656 134.29757690429688 150.69891357421875 134.91094970703125" stroke-width="2" fill="none" stroke="rgb(0, 0, 0)" stroke-opacity="1.0" stroke-linecap="round" stroke-linejoin="round"/>
    <path d="M 170.21669006347656 106.36243438720703 C 129.1197509765625 115.28323364257812 170.38360595703125 117.70753479003906 148.495849609375 109.57847595214844" stroke-width="2" fill="none" stroke="rgb(0, 0, 0)" stroke-opacity="1.0" stroke-linecap="round" stroke-linejoin="round"/>
    <path d="M 166.1155548095703 100.628662109375 C 108.65176391601562 55.940006256103516 131.12074279785156 147.12835693359375 104.08932495117188 66.82913970947266" stroke-width="2" fill="none" stroke="rgb(0, 0, 0)" stroke-opacity="1.0" stroke-linecap="round" stroke-linejoin="round"/>
    <path d="M 106.20731353759766 68.94567108154297 C 96.83011627197266 81.29715728759766 111.0283203125 115.1544418334961 103.63148498535156 96.32613372802734" stroke-width="2" fill="none" stroke="rgb(0, 0, 0)" stroke-opacity="1.0" stroke-linecap="round" stroke-linejoin="round"/>
    <path d="M 47.46821975708008 146.469482421875 C 99.6676254272461 157.81314086914062 187.79443359375 155.91726684570312 81.21440887451172 142.8455352783203" stroke-width="2" fill="none" stroke="rgb(0, 0, 0)" stroke-opacity="1.0" stroke-linecap="round" stroke-linejoin="round"/>
    <path d="M 123.6610107421875 123.44945526123047 C 182.24794006347656 130.95799255371094 171.17686462402344 142.591552734375 137.64654541015625 120.96128845214844" stroke-width="2" fill="none" stroke="rgb(0, 0, 0)" stroke-opacity="1.0" stroke-linecap="round" stroke-linejoin="round"/>
    <path d="M 125.80239868164062 112.64627838134766 C 162.22821044921875 108.3809585571289 98.31139373779297 111.56273651123047 140.75140380859375 116.53596496582031" stroke-width="2" fill="none" stroke="rgb(0, 0, 0)" stroke-opacity="1.0" stroke-linecap="round" stroke-linejoin="round"/>
    <path d="M 181.0442657470703 66.42060089111328 C 134.97996520996094 112.53346252441406 169.90989685058594 105.91718292236328 182.88235473632812 60.34043884277344" stroke-width="2" fill="none" stroke="rgb(0, 0, 0)" stroke-opacity="1.0" stroke-linecap="round" stroke-linejoin="round"/>
    <path d="M 156.37977600097656 116.03096008300781 C 150.57806396484375 153.9199676513672 190.2359619140625 141.07789611816406 163.5557403564453 146.2289581298828" stroke-width="2" fill="none" stroke="rgb(0, 0, 0)" stroke-opacity="1.0" stroke-linecap="round" stroke-linejoin="round"/>
    <path d="M 76.9241714477539 151.256591796875 C 36.47856903076172 152.50003051757812 25.320608139038086 124.64897918701172 62.48998260498047 108.23408508300781" stroke-width="2" fill="none" stroke="rgb(0, 0, 0)" stroke-opacity="1.0" stroke-linecap="round" stroke-linejoin="round"/>
    <path d="M 166.81594848632812 73.37651824951172 C 117.17173767089844 113.20269012451172 117.66715240478516 71.40495300292969 102.1170654296875 64.0537338256836" stroke-width="2" fill="none" stroke="rgb(0, 0, 0)" stroke-opacity="1.0" stroke-linecap="round" stroke-linejoin="round"/>
    <path d="M 144.66448974609375 133.9167938232422 C 180.72488403320312 109.74141693115234 198.1712646484375 30.551259994506836 168.9619903564453 65.74686431884766" stroke-width="2" fill="none" stroke="rgb(0, 0, 0)" stroke-opacity="1.0" stroke-linecap="round" stroke-linejoin="round"/>
    <path d="M 98.1805191040039 118.7455825805664 C 88.19116973876953 116.36188507080078 111.33875274658203 125.1511459350586 73.14302825927734 116.67308044433594" stroke-width="2" fill="none" stroke="rgb(0, 0, 0)" stroke-opacity="1.0" stroke-linecap="round" stroke-linejoin="round"/>
    <path d="M 90.95477294921875 96.61779022216797 C 83.42483520507812 99.62703704833984 51.66843795776367 86.6119613647461 50.3057975769043 121.30255889892578" stroke-width="2" fill="none" stroke="rgb(0, 0, 0)" stroke-opacity="1.0" stroke-linecap="round" stroke-linejoin="round"/>
  </g>
</svg>
