<?xml version="1.0" ?>
<svg xmlns="http://www.w3.org/2000/svg" version="1.1" width="224" height="224">
  <defs/>
  <g>
    <path d="M 115.92960357666016 136.20533752441406 C 124.22350311279297 108.84727478027344 108.55032348632812 132.59996032714844 124.6769027709961 133.8739776611328" stroke-width="2" fill="none" stroke="rgb(0, 0, 0)" stroke-opacity="1.0" stroke-linecap="round" stroke-linejoin="round"/>
    <path d="M 164.48912048339844 154.76861572265625 C 100.12973022460938 157.37261962890625 126.80015563964844 126.6301040649414 99.14289093017578 128.68663024902344" stroke-width="2" fill="none" stroke="rgb(0, 0, 0)" stroke-opacity="1.0" stroke-linecap="round" stroke-linejoin="round"/>
    <path d="M 138.1018829345703 124.48775482177734 C 179.08450317382812 129.2429962158203 92.2257080078125 128.83970642089844 160.17124938964844 133.60789489746094" stroke-width="2" fill="none" stroke="rgb(0, 0, 0)" stroke-opacity="1.0" stroke-linecap="round" stroke-linejoin="round"/>
    <path d="M 164.55889892578125 120.13685607910156 C 136.29444885253906 110.46415710449219 192.62098693847656 139.06239318847656 165.90528869628906 108.66184997558594" stroke-width="2" fill="none" stroke="rgb(0, 0, 0)" stroke-opacity="1.0" stroke-linecap="round" stroke-linejoin="round"/>
    <path d="M 157.74447631835938 96.80970001220703 C 111.33566284179688 82.67633056640625 139.0166778564453 130.68728637695312 104.7591323852539 69.02598571777344" stroke-width="2" fill="none" stroke="rgb(0, 0, 0)" stroke-opacity="1.0" stroke-linecap="round" stroke-linejoin="round"/>
    <path d="M 102.47958374023438 69.90798950195312 C 94.34133911132812 81.82865905761719 116.7473373413086 117.57621765136719 111.76766204833984 117.04045104980469" stroke-width="2" fill="none" stroke="rgb(0, 0, 0)" stroke-opacity="1.0" stroke-linecap="round" stroke-linejoin="round"/>
    <path d="M 41.06615447998047 142.51101684570312 C 94.67843627929688 154.06065368652344 178.44117736816406 155.4258270263672 83.95084381103516 139.95083618164062" stroke-width="2" fill="none" stroke="rgb(0, 0, 0)" stroke-opacity="1.0" stroke-linecap="round" stroke-linejoin="round"/>
    <path d="M 123.43895721435547 133.2654571533203 C 180.37283325195312 135.94046020507812 166.6747283935547 147.08453369140625 125.3299789428711 122.42810821533203" stroke-width="2" fill="none" stroke="rgb(0, 0, 0)" stroke-opacity="1.0" stroke-linecap="round" stroke-linejoin="round"/>
    <path d="M 134.57298278808594 118.6903076171875 C 165.9691162109375 116.68119049072266 107.56839752197266 125.95301818847656 142.82962036132812 123.52301025390625" stroke-width="2" fill="none" stroke="rgb(0, 0, 0)" stroke-opacity="1.0" stroke-linecap="round" stroke-linejoin="round"/>
    <path d="M 186.48736572265625 60.72168731689453 C 120.94869995117188 112.80489349365234 168.4163055419922 113.54652404785156 183.97845458984375 61.53584289550781" stroke-width="2" fill="none" stroke="rgb(0, 0, 0)" stroke-opacity="1.0" stroke-linecap="round" stroke-linejoin="round"/>
    <path d="M 170.35678100585938 106.98333740234375 C 155.95932006835938 148.73895263671875 178.84381103515625 125.1415786743164 167.1873779296875 147.69598388671875" stroke-width="2" fill="none" stroke="rgb(0, 0, 0)" stroke-opacity="1.0" stroke-linecap="round" stroke-linejoin="round"/>
    <path d="M 71.64453125 156.65757751464844 C 44.1966552734375 152.78866577148438 30.038244247436523 131.7289581298828 48.681396484375 114.53528594970703" stroke-width="2" fill="none" stroke="rgb(0, 0, 0)" stroke-opacity="1.0" stroke-linecap="round" stroke-linejoin="round"/>
    <path d="M 164.1379852294922 76.99211120605469 C 115.23651885986328 105.96745300292969 128.1125030517578 64.38522338867188 100.33993530273438 71.005126953125" stroke-width="2" fill="none" stroke="rgb(0, 0, 0)" stroke-opacity="1.0" stroke-linecap="round" stroke-linejoin="round"/>
    <path d="M 150.50949096679688 135.56996154785156 C 186.83779907226562 113.31719970703125 192.59774780273438 46.116493225097656 183.74630737304688 47.528358459472656" stroke-width="2" fill="none" stroke="rgb(0, 0, 0)" stroke-opacity="1.0" stroke-linecap="round" stroke-linejoin="round"/>
    <path d="M 92.5656967163086 115.93726348876953 C 81.61793518066406 111.36321258544922 112.1174545288086 114.85136413574219 76.84021759033203 105.14282989501953" stroke-width="2" fill="none" stroke="rgb(0, 0, 0)" stroke-opacity="1.0" stroke-linecap="round" stroke-linejoin="round"/>
    <path d="M 100.9404067993164 99.259521484375 C 81.8213119506836 107.90177154541016 43.16867446899414 85.65494537353516 48.63971710205078 121.46796417236328" stroke-width="2" fill="none" stroke="rgb(0, 0, 0)" stroke-opacity="1.0" stroke-linecap="round" stroke-linejoin="round"/>
  </g>
</svg>
