<?xml version="1.0" ?>
<svg xmlns="http://www.w3.org/2000/svg" version="1.1" width="224" height="224">
  <defs/>
  <g>
    <path d="M 113.04148864746094 117.76757049560547 C 123.7986831665039 104.93125915527344 103.4531021118164 97.78272247314453 116.85536193847656 132.27992248535156" stroke-width="2" fill="none" stroke="rgb(0, 0, 0)" stroke-opacity="1.0" stroke-linecap="round" stroke-linejoin="round"/>
    <path d="M 164.76287841796875 152.37246704101562 C 132.1967010498047 162.36065673828125 130.3836212158203 144.00404357910156 78.93891906738281 131.7913818359375" stroke-width="2" fill="none" stroke="rgb(0, 0, 0)" stroke-opacity="1.0" stroke-linecap="round" stroke-linejoin="round"/>
    <path d="M 125.02716827392578 124.04833984375 C 176.08184814453125 118.90991973876953 96.79032135009766 131.52427673339844 148.2284698486328 136.22975158691406" stroke-width="2" fill="none" stroke="rgb(0, 0, 0)" stroke-opacity="1.0" stroke-linecap="round" stroke-linejoin="round"/>
    <path d="M 162.71624755859375 123.1414566040039 C 132.34320068359375 118.8747787475586 179.0794219970703 132.775146484375 150.63540649414062 121.00648498535156" stroke-width="2" fill="none" stroke="rgb(0, 0, 0)" stroke-opacity="1.0" stroke-linecap="round" stroke-linejoin="round"/>
    <path d="M 126.96902465820312 111.37432861328125 C 116.14434814453125 106.7010498046875 103.52316284179688 131.7396240234375 98.34112548828125 64.72689056396484" stroke-width="2" fill="none" stroke="rgb(0, 0, 0)" stroke-opacity="1.0" stroke-linecap="round" stroke-linejoin="round"/>
    <path d="M 101.66909790039062 69.7943115234375 C 83.72467041015625 88.49188232421875 90.88139343261719 116.13142395019531 89.64845275878906 97.15284729003906" stroke-width="2" fill="none" stroke="rgb(0, 0, 0)" stroke-opacity="1.0" stroke-linecap="round" stroke-linejoin="round"/>
    <path d="M 56.44655227661133 143.73614501953125 C 111.6805419921875 156.1197967529297 182.28170776367188 172.31716918945312 97.70826721191406 134.4835968017578" stroke-width="2" fill="none" stroke="rgb(0, 0, 0)" stroke-opacity="1.0" stroke-linecap="round" stroke-linejoin="round"/>
    <path d="M 143.05821228027344 141.7581787109375 C 162.54563903808594 131.02069091796875 170.1826629638672 150.3282928466797 120.88803100585938 140.44821166992188" stroke-width="2" fill="none" stroke="rgb(0, 0, 0)" stroke-opacity="1.0" stroke-linecap="round" stroke-linejoin="round"/>
    <path d="M 128.59774780273438 118.96187591552734 C 150.75619506835938 142.1517333984375 137.95506286621094 104.95820617675781 138.28636169433594 131.15274047851562" stroke-width="2" fill="none" stroke="rgb(0, 0, 0)" stroke-opacity="1.0" stroke-linecap="round" stroke-linejoin="round"/>
    <path d="M 180.28729248046875 64.00762176513672 C 133.48977661132812 126.77494812011719 174.05213928222656 100.42208099365234 176.5666961669922 68.5573501586914" stroke-width="2" fill="none" stroke="rgb(0, 0, 0)" stroke-opacity="1.0" stroke-linecap="round" stroke-linejoin="round"/>
    <path d="M 167.77847290039062 100.63883209228516 C 163.10357666015625 143.1505889892578 190.70252990722656 140.89788818359375 159.25625610351562 155.86199951171875" stroke-width="2" fill="none" stroke="rgb(0, 0, 0)" stroke-opacity="1.0" stroke-linecap="round" stroke-linejoin="round"/>
    <path d="M 68.26155090332031 139.2386474609375 C 34.39590072631836 152.10279846191406 45.98711395263672 119.17353820800781 50.163108825683594 138.72584533691406" stroke-width="2" fill="none" stroke="rgb(0, 0, 0)" stroke-opacity="1.0" stroke-linecap="round" stroke-linejoin="round"/>
    <path d="M 139.45016479492188 99.42002868652344 C 112.70278930664062 93.69920349121094 132.95335388183594 94.63151550292969 102.59522247314453 69.58342742919922" stroke-width="2" fill="none" stroke="rgb(0, 0, 0)" stroke-opacity="1.0" stroke-linecap="round" stroke-linejoin="round"/>
    <path d="M 163.22073364257812 146.97373962402344 C 190.81451416015625 91.04340362548828 183.7571258544922 83.01567840576172 181.91595458984375 64.31458282470703" stroke-width="2" fill="none" stroke="rgb(0, 0, 0)" stroke-opacity="1.0" stroke-linecap="round" stroke-linejoin="round"/>
    <path d="M 62.967830657958984 105.57369232177734 C 65.31031036376953 92.40277862548828 83.41658782958984 110.3754653930664 87.35452270507812 97.74258422851562" stroke-width="2" fill="none" stroke="rgb(0, 0, 0)" stroke-opacity="1.0" stroke-linecap="round" stroke-linejoin="round"/>
    <path d="M 56.818641662597656 101.79828643798828 C 58.857872009277344 117.06990814208984 44.44544982910156 102.28460693359375 47.75710678100586 135.14724731445312" stroke-width="2" fill="none" stroke="rgb(0, 0, 0)" stroke-opacity="1.0" stroke-linecap="round" stroke-linejoin="round"/>
  </g>
</svg>
