<?xml version="1.0" ?>
<svg xmlns="http://www.w3.org/2000/svg" version="1.1" width="224" height="224">
  <defs/>
  <g>
    <path d="M 122.93215942382812 114.21650695800781 C 126.77214813232422 97.5412368774414 97.99113464355469 115.23554229736328 143.541748046875 117.15548706054688" stroke-width="2" fill="none" stroke="rgb(0, 0, 0)" stroke-opacity="1.0" stroke-linecap="round" stroke-linejoin="round"/>
    <path d="M 166.09519958496094 139.6533203125 C 62.64910125732422 136.3040008544922 108.43827819824219 116.9689712524414 75.77147674560547 119.8815689086914" stroke-width="2" fill="none" stroke="rgb(0, 0, 0)" stroke-opacity="1.0" stroke-linecap="round" stroke-linejoin="round"/>
    <path d="M 118.97483825683594 114.90043640136719 C 183.67465209960938 95.89859008789062 79.3286361694336 128.82994079589844 155.8504180908203 135.73104858398438" stroke-width="2" fill="none" stroke="rgb(0, 0, 0)" stroke-opacity="1.0" stroke-linecap="round" stroke-linejoin="round"/>
    <path d="M 158.64306640625 111.9329605102539 C 119.0171890258789 117.21128845214844 183.2620391845703 116.158203125 148.76869201660156 108.3489761352539" stroke-width="2" fill="none" stroke="rgb(0, 0, 0)" stroke-opacity="1.0" stroke-linecap="round" stroke-linejoin="round"/>
    <path d="M 158.3125 100.62081146240234 C 107.11836242675781 53.60618209838867 108.01588439941406 150.14144897460938 99.1175308227539 70.94969177246094" stroke-width="2" fill="none" stroke="rgb(0, 0, 0)" stroke-opacity="1.0" stroke-linecap="round" stroke-linejoin="round"/>
    <path d="M 97.90790557861328 64.79302215576172 C 91.75621795654297 71.36546325683594 108.72573852539062 110.01722717285156 79.72210693359375 109.5471420288086" stroke-width="2" fill="none" stroke="rgb(0, 0, 0)" stroke-opacity="1.0" stroke-linecap="round" stroke-linejoin="round"/>
    <path d="M 49.495948791503906 139.11476135253906 C 97.55435180664062 164.1400604248047 179.6766357421875 160.65074157714844 71.04486846923828 139.3193359375" stroke-width="2" fill="none" stroke="rgb(0, 0, 0)" stroke-opacity="1.0" stroke-linecap="round" stroke-linejoin="round"/>
    <path d="M 133.31507873535156 131.96807861328125 C 175.00218200683594 131.42872619628906 175.6057891845703 136.42919921875 140.34043884277344 121.48704528808594" stroke-width="2" fill="none" stroke="rgb(0, 0, 0)" stroke-opacity="1.0" stroke-linecap="round" stroke-linejoin="round"/>
    <path d="M 130.18765258789062 117.83766174316406 C 168.03591918945312 106.76944732666016 68.24593353271484 106.65557098388672 144.7855224609375 126.85380554199219" stroke-width="2" fill="none" stroke="rgb(0, 0, 0)" stroke-opacity="1.0" stroke-linecap="round" stroke-linejoin="round"/>
    <path d="M 166.716064453125 66.21556091308594 C 111.97709655761719 105.09675598144531 168.18023681640625 108.8542251586914 175.7248992919922 62.27466583251953" stroke-width="2" fill="none" stroke="rgb(0, 0, 0)" stroke-opacity="1.0" stroke-linecap="round" stroke-linejoin="round"/>
    <path d="M 162.33421325683594 117.01119232177734 C 153.3040008544922 173.5106964111328 188.4381561279297 143.13417053222656 158.80821228027344 129.98548889160156" stroke-width="2" fill="none" stroke="rgb(0, 0, 0)" stroke-opacity="1.0" stroke-linecap="round" stroke-linejoin="round"/>
    <path d="M 71.08811950683594 143.756591796875 C 26.979310989379883 151.1761474609375 29.321866989135742 115.77729797363281 61.283390045166016 106.87755584716797" stroke-width="2" fill="none" stroke="rgb(0, 0, 0)" stroke-opacity="1.0" stroke-linecap="round" stroke-linejoin="round"/>
    <path d="M 167.31285095214844 73.45608520507812 C 108.16178131103516 106.37466430664062 113.6576919555664 62.07709884643555 99.60958099365234 60.14532470703125" stroke-width="2" fill="none" stroke="rgb(0, 0, 0)" stroke-opacity="1.0" stroke-linecap="round" stroke-linejoin="round"/>
    <path d="M 146.7669677734375 136.81263732910156 C 180.91116333007812 135.8881072998047 196.3996124267578 17.200864791870117 167.31021118164062 81.55992889404297" stroke-width="2" fill="none" stroke="rgb(0, 0, 0)" stroke-opacity="1.0" stroke-linecap="round" stroke-linejoin="round"/>
    <path d="M 96.13217163085938 129.6276092529297 C 85.9211196899414 134.87623596191406 119.47528076171875 133.47048950195312 93.07445526123047 110.58229064941406" stroke-width="2" fill="none" stroke="rgb(0, 0, 0)" stroke-opacity="1.0" stroke-linecap="round" stroke-linejoin="round"/>
    <path d="M 91.50276184082031 101.0633316040039 C 81.1128158569336 103.95431518554688 50.467926025390625 83.21783447265625 54.748294830322266 115.2698974609375" stroke-width="2" fill="none" stroke="rgb(0, 0, 0)" stroke-opacity="1.0" stroke-linecap="round" stroke-linejoin="round"/>
  </g>
</svg>
