<?xml version="1.0" ?>
<svg xmlns="http://www.w3.org/2000/svg" version="1.1" width="224" height="224">
  <defs/>
  <g>
    <path d="M 104.14393615722656 106.5431137084961 C 88.03780364990234 90.29635620117188 103.04389190673828 99.04878234863281 106.34370422363281 107.78045654296875" stroke-width="2" fill="none" stroke="rgb(0, 0, 0)" stroke-opacity="1.0" stroke-linecap="round" stroke-linejoin="round"/>
    <path d="M 159.3564910888672 151.72744750976562 C 121.67182159423828 150.7778778076172 112.15200805664062 153.98854064941406 79.49301147460938 151.64645385742188" stroke-width="2" fill="none" stroke="rgb(0, 0, 0)" stroke-opacity="1.0" stroke-linecap="round" stroke-linejoin="round"/>
    <path d="M 140.4857635498047 116.98748779296875 C 133.71791076660156 113.49496459960938 113.41110229492188 116.51792907714844 115.02204132080078 131.3370819091797" stroke-width="2" fill="none" stroke="rgb(0, 0, 0)" stroke-opacity="1.0" stroke-linecap="round" stroke-linejoin="round"/>
    <path d="M 174.8426971435547 119.54842376708984 C 143.44471740722656 116.24251556396484 164.51206970214844 128.28195190429688 165.7841796875 116.52893829345703" stroke-width="2" fill="none" stroke="rgb(0, 0, 0)" stroke-opacity="1.0" stroke-linecap="round" stroke-linejoin="round"/>
    <path d="M 131.03248596191406 110.18379211425781 C 130.98741149902344 93.43932342529297 124.99365997314453 81.8111343383789 119.8801040649414 70.07051849365234" stroke-width="2" fill="none" stroke="rgb(0, 0, 0)" stroke-opacity="1.0" stroke-linecap="round" stroke-linejoin="round"/>
    <path d="M 116.4184341430664 65.54645538330078 C 102.00525665283203 85.90074157714844 99.76681518554688 98.44216918945312 96.24665832519531 122.64822387695312" stroke-width="2" fill="none" stroke="rgb(0, 0, 0)" stroke-opacity="1.0" stroke-linecap="round" stroke-linejoin="round"/>
    <path d="M 42.86064147949219 126.08531188964844 C 78.10713195800781 155.8454132080078 118.22521209716797 160.34698486328125 83.05660247802734 127.37372589111328" stroke-width="2" fill="none" stroke="rgb(0, 0, 0)" stroke-opacity="1.0" stroke-linecap="round" stroke-linejoin="round"/>
    <path d="M 154.3820343017578 132.62283325195312 C 131.74957275390625 139.58555603027344 133.77442932128906 112.76887512207031 109.02049255371094 125.45802307128906" stroke-width="2" fill="none" stroke="rgb(0, 0, 0)" stroke-opacity="1.0" stroke-linecap="round" stroke-linejoin="round"/>
    <path d="M 124.66957092285156 123.81226348876953 C 143.39320373535156 123.94595336914062 131.1660614013672 139.9010772705078 114.04219055175781 130.244873046875" stroke-width="2" fill="none" stroke="rgb(0, 0, 0)" stroke-opacity="1.0" stroke-linecap="round" stroke-linejoin="round"/>
    <path d="M 172.68820190429688 62.713111877441406 C 194.6308135986328 89.94112396240234 186.52928161621094 100.96548461914062 170.90780639648438 67.06263732910156" stroke-width="2" fill="none" stroke="rgb(0, 0, 0)" stroke-opacity="1.0" stroke-linecap="round" stroke-linejoin="round"/>
    <path d="M 174.81964111328125 109.2063217163086 C 173.71231079101562 142.2689208984375 186.93504333496094 144.37063598632812 164.4097442626953 153.32626342773438" stroke-width="2" fill="none" stroke="rgb(0, 0, 0)" stroke-opacity="1.0" stroke-linecap="round" stroke-linejoin="round"/>
    <path d="M 65.10456848144531 139.89639282226562 C 36.36899185180664 139.85752868652344 39.62107467651367 133.90562438964844 68.22608947753906 140.1935272216797" stroke-width="2" fill="none" stroke="rgb(0, 0, 0)" stroke-opacity="1.0" stroke-linecap="round" stroke-linejoin="round"/>
    <path d="M 119.90318298339844 102.44036102294922 C 118.33953857421875 112.4131088256836 126.74261474609375 92.82498168945312 117.42172241210938 66.58155059814453" stroke-width="2" fill="none" stroke="rgb(0, 0, 0)" stroke-opacity="1.0" stroke-linecap="round" stroke-linejoin="round"/>
    <path d="M 168.61778259277344 129.33047485351562 C 190.8985595703125 99.62432098388672 171.8196563720703 109.4503173828125 177.39064025878906 72.8511962890625" stroke-width="2" fill="none" stroke="rgb(0, 0, 0)" stroke-opacity="1.0" stroke-linecap="round" stroke-linejoin="round"/>
    <path d="M 54.78470230102539 97.64982604980469 C 76.17198944091797 93.01507568359375 83.1900634765625 102.05314636230469 101.3630599975586 97.3516845703125" stroke-width="2" fill="none" stroke="rgb(0, 0, 0)" stroke-opacity="1.0" stroke-linecap="round" stroke-linejoin="round"/>
    <path d="M 57.3476676940918 97.89781188964844 C 30.22791862487793 118.73308563232422 47.8470573425293 124.61581420898438 47.36339569091797 135.27658081054688" stroke-width="2" fill="none" stroke="rgb(0, 0, 0)" stroke-opacity="1.0" stroke-linecap="round" stroke-linejoin="round"/>
  </g>
</svg>
