<?xml version="1.0" ?>
<svg xmlns="http://www.w3.org/2000/svg" version="1.1" width="224" height="224">
  <defs/>
  <g>
    <path d="M 113.20899963378906 123.07897186279297 C 99.8056411743164 117.7076644897461 94.08998107910156 107.24129486083984 108.83026123046875 144.84310913085938" stroke-width="2" fill="none" stroke="rgb(0, 0, 0)" stroke-opacity="1.0" stroke-linecap="round" stroke-linejoin="round"/>
    <path d="M 160.30657958984375 152.0770263671875 C 144.864990234375 158.7832489013672 134.27899169921875 138.64825439453125 76.34809875488281 135.27902221679688" stroke-width="2" fill="none" stroke="rgb(0, 0, 0)" stroke-opacity="1.0" stroke-linecap="round" stroke-linejoin="round"/>
    <path d="M 125.30165100097656 122.90370178222656 C 156.2127227783203 121.71847534179688 89.71218872070312 136.03050231933594 145.88584899902344 135.99378967285156" stroke-width="2" fill="none" stroke="rgb(0, 0, 0)" stroke-opacity="1.0" stroke-linecap="round" stroke-linejoin="round"/>
    <path d="M 161.1657257080078 118.40288543701172 C 128.56057739257812 117.7740249633789 174.31173706054688 131.36793518066406 154.1847686767578 121.14321899414062" stroke-width="2" fill="none" stroke="rgb(0, 0, 0)" stroke-opacity="1.0" stroke-linecap="round" stroke-linejoin="round"/>
    <path d="M 134.9879150390625 112.90878295898438 C 104.23271179199219 117.88800048828125 91.68962097167969 144.27706909179688 102.41454315185547 74.95247650146484" stroke-width="2" fill="none" stroke="rgb(0, 0, 0)" stroke-opacity="1.0" stroke-linecap="round" stroke-linejoin="round"/>
    <path d="M 100.34700775146484 67.92932891845703 C 87.03372955322266 82.9954605102539 93.48638916015625 106.46073150634766 84.87947845458984 98.36776733398438" stroke-width="2" fill="none" stroke="rgb(0, 0, 0)" stroke-opacity="1.0" stroke-linecap="round" stroke-linejoin="round"/>
    <path d="M 46.22599792480469 149.4763946533203 C 97.2962417602539 148.6822509765625 167.31248474121094 164.17811584472656 89.85521697998047 135.42318725585938" stroke-width="2" fill="none" stroke="rgb(0, 0, 0)" stroke-opacity="1.0" stroke-linecap="round" stroke-linejoin="round"/>
    <path d="M 140.340576171875 141.1378631591797 C 152.242919921875 138.37892150878906 179.93321228027344 139.28756713867188 117.29192352294922 129.93722534179688" stroke-width="2" fill="none" stroke="rgb(0, 0, 0)" stroke-opacity="1.0" stroke-linecap="round" stroke-linejoin="round"/>
    <path d="M 120.06494903564453 126.11134338378906 C 156.949951171875 141.21409606933594 130.96324157714844 119.60528564453125 138.56039428710938 130.69508361816406" stroke-width="2" fill="none" stroke="rgb(0, 0, 0)" stroke-opacity="1.0" stroke-linecap="round" stroke-linejoin="round"/>
    <path d="M 176.22515869140625 60.81697082519531 C 135.32464599609375 117.27818298339844 173.97689819335938 96.19090270996094 175.9506378173828 62.5133056640625" stroke-width="2" fill="none" stroke="rgb(0, 0, 0)" stroke-opacity="1.0" stroke-linecap="round" stroke-linejoin="round"/>
    <path d="M 172.33590698242188 91.84915924072266 C 166.69679260253906 165.28390502929688 186.4527130126953 135.08766174316406 162.296875 156.43226623535156" stroke-width="2" fill="none" stroke="rgb(0, 0, 0)" stroke-opacity="1.0" stroke-linecap="round" stroke-linejoin="round"/>
    <path d="M 79.43220520019531 138.7054443359375 C 21.214706420898438 159.3997039794922 45.30936813354492 124.18769073486328 44.82945251464844 133.6345672607422" stroke-width="2" fill="none" stroke="rgb(0, 0, 0)" stroke-opacity="1.0" stroke-linecap="round" stroke-linejoin="round"/>
    <path d="M 118.82011413574219 103.60147094726562 C 119.87262725830078 109.06864929199219 123.22393035888672 113.78389739990234 101.65219116210938 65.5843276977539" stroke-width="2" fill="none" stroke="rgb(0, 0, 0)" stroke-opacity="1.0" stroke-linecap="round" stroke-linejoin="round"/>
    <path d="M 162.26492309570312 134.018798828125 C 196.0713348388672 88.26139068603516 185.93405151367188 98.26406860351562 178.21188354492188 63.51678466796875" stroke-width="2" fill="none" stroke="rgb(0, 0, 0)" stroke-opacity="1.0" stroke-linecap="round" stroke-linejoin="round"/>
    <path d="M 57.68518829345703 103.88441467285156 C 74.82196044921875 93.12657165527344 66.12041473388672 106.54117584228516 85.83192443847656 97.64057159423828" stroke-width="2" fill="none" stroke="rgb(0, 0, 0)" stroke-opacity="1.0" stroke-linecap="round" stroke-linejoin="round"/>
    <path d="M 57.70063781738281 102.0912094116211 C 56.36088943481445 114.51325225830078 43.20176696777344 112.49088287353516 49.83793258666992 135.2544403076172" stroke-width="2" fill="none" stroke="rgb(0, 0, 0)" stroke-opacity="1.0" stroke-linecap="round" stroke-linejoin="round"/>
  </g>
</svg>
