<?xml version="1.0" ?>
<svg xmlns="http://www.w3.org/2000/svg" version="1.1" width="224" height="224">
  <defs/>
  <g>
    <path d="M 118.1519775390625 120.72422790527344 C 119.78632354736328 112.36607360839844 103.49940490722656 104.465087890625 116.51725006103516 135.88536071777344" stroke-width="2" fill="none" stroke="rgb(0, 0, 0)" stroke-opacity="1.0" stroke-linecap="round" stroke-linejoin="round"/>
    <path d="M 169.00070190429688 153.56484985351562 C 123.97091674804688 161.96340942382812 119.0316390991211 151.23397827148438 93.64038848876953 136.1144256591797" stroke-width="2" fill="none" stroke="rgb(0, 0, 0)" stroke-opacity="1.0" stroke-linecap="round" stroke-linejoin="round"/>
    <path d="M 127.41285705566406 119.98495483398438 C 180.6278076171875 125.5100326538086 93.95633697509766 126.54634094238281 137.75462341308594 134.53355407714844" stroke-width="2" fill="none" stroke="rgb(0, 0, 0)" stroke-opacity="1.0" stroke-linecap="round" stroke-linejoin="round"/>
    <path d="M 170.565673828125 121.48736572265625 C 128.72274780273438 119.44577026367188 184.88754272460938 138.5859375 158.19540405273438 122.34019470214844" stroke-width="2" fill="none" stroke="rgb(0, 0, 0)" stroke-opacity="1.0" stroke-linecap="round" stroke-linejoin="round"/>
    <path d="M 126.1950454711914 111.91574096679688 C 116.26266479492188 111.22234344482422 105.25557708740234 135.34629821777344 101.50448608398438 70.85631561279297" stroke-width="2" fill="none" stroke="rgb(0, 0, 0)" stroke-opacity="1.0" stroke-linecap="round" stroke-linejoin="round"/>
    <path d="M 103.8599624633789 66.77396392822266 C 87.12892150878906 89.3788070678711 97.75426483154297 122.88424682617188 95.969970703125 94.18805694580078" stroke-width="2" fill="none" stroke="rgb(0, 0, 0)" stroke-opacity="1.0" stroke-linecap="round" stroke-linejoin="round"/>
    <path d="M 44.458187103271484 136.36593627929688 C 110.2025375366211 150.4755401611328 185.25747680664062 151.7742462158203 76.0827865600586 135.23985290527344" stroke-width="2" fill="none" stroke="rgb(0, 0, 0)" stroke-opacity="1.0" stroke-linecap="round" stroke-linejoin="round"/>
    <path d="M 143.91221618652344 147.28961181640625 C 178.00563049316406 133.0821075439453 178.38563537597656 148.78790283203125 119.40557861328125 136.37051391601562" stroke-width="2" fill="none" stroke="rgb(0, 0, 0)" stroke-opacity="1.0" stroke-linecap="round" stroke-linejoin="round"/>
    <path d="M 121.27619171142578 128.91770935058594 C 148.48287963867188 143.43309020996094 128.39883422851562 102.94741821289062 138.6212615966797 131.91726684570312" stroke-width="2" fill="none" stroke="rgb(0, 0, 0)" stroke-opacity="1.0" stroke-linecap="round" stroke-linejoin="round"/>
    <path d="M 180.77256774902344 69.05474853515625 C 136.95211791992188 131.5749969482422 180.08497619628906 106.625732421875 178.720703125 77.91055297851562" stroke-width="2" fill="none" stroke="rgb(0, 0, 0)" stroke-opacity="1.0" stroke-linecap="round" stroke-linejoin="round"/>
    <path d="M 173.5542755126953 101.36192321777344 C 167.43231201171875 133.8197021484375 201.1231689453125 131.59262084960938 165.7757110595703 149.8927459716797" stroke-width="2" fill="none" stroke="rgb(0, 0, 0)" stroke-opacity="1.0" stroke-linecap="round" stroke-linejoin="round"/>
    <path d="M 71.25554656982422 143.65530395507812 C 43.407474517822266 143.4215850830078 42.41069030761719 110.79581451416016 50.330814361572266 140.34005737304688" stroke-width="2" fill="none" stroke="rgb(0, 0, 0)" stroke-opacity="1.0" stroke-linecap="round" stroke-linejoin="round"/>
    <path d="M 134.46966552734375 103.84530639648438 C 108.57847595214844 93.37509155273438 123.55305480957031 91.92279815673828 104.34385681152344 68.64974212646484" stroke-width="2" fill="none" stroke="rgb(0, 0, 0)" stroke-opacity="1.0" stroke-linecap="round" stroke-linejoin="round"/>
    <path d="M 163.77676391601562 147.39231872558594 C 196.5847930908203 101.09679412841797 184.4713592529297 80.73417663574219 183.29322814941406 67.99200439453125" stroke-width="2" fill="none" stroke="rgb(0, 0, 0)" stroke-opacity="1.0" stroke-linecap="round" stroke-linejoin="round"/>
    <path d="M 70.04547119140625 117.8609390258789 C 73.16757202148438 99.61266326904297 94.17131805419922 118.60650634765625 96.98828887939453 103.55633544921875" stroke-width="2" fill="none" stroke="rgb(0, 0, 0)" stroke-opacity="1.0" stroke-linecap="round" stroke-linejoin="round"/>
    <path d="M 58.16254806518555 103.21239471435547 C 55.517066955566406 120.89256286621094 44.2890625 108.80664825439453 41.87832260131836 141.8665008544922" stroke-width="2" fill="none" stroke="rgb(0, 0, 0)" stroke-opacity="1.0" stroke-linecap="round" stroke-linejoin="round"/>
  </g>
</svg>
