<?xml version="1.0" ?>
<svg xmlns="http://www.w3.org/2000/svg" version="1.1" width="224" height="224">
  <defs/>
  <g>
    <path d="M 111.64293670654297 124.8258056640625 C 122.53551483154297 119.8434066772461 108.51007080078125 112.99446868896484 117.90998077392578 136.7330322265625" stroke-width="2" fill="none" stroke="rgb(0, 0, 0)" stroke-opacity="1.0" stroke-linecap="round" stroke-linejoin="round"/>
    <path d="M 162.44696044921875 155.4892578125 C 125.31024169921875 159.14732360839844 123.97718811035156 148.31607055664062 93.5440673828125 135.14834594726562" stroke-width="2" fill="none" stroke="rgb(0, 0, 0)" stroke-opacity="1.0" stroke-linecap="round" stroke-linejoin="round"/>
    <path d="M 123.21244812011719 122.23334503173828 C 184.2359619140625 123.77813720703125 101.16651153564453 130.9644317626953 145.53089904785156 134.3888397216797" stroke-width="2" fill="none" stroke="rgb(0, 0, 0)" stroke-opacity="1.0" stroke-linecap="round" stroke-linejoin="round"/>
    <path d="M 162.1038360595703 126.9007339477539 C 129.8540496826172 120.26839447021484 187.29107666015625 138.98611450195312 154.25408935546875 120.92328643798828" stroke-width="2" fill="none" stroke="rgb(0, 0, 0)" stroke-opacity="1.0" stroke-linecap="round" stroke-linejoin="round"/>
    <path d="M 131.3836669921875 111.87464141845703 C 115.76676940917969 120.91061401367188 100.90170288085938 143.8795166015625 97.73854064941406 70.34696960449219" stroke-width="2" fill="none" stroke="rgb(0, 0, 0)" stroke-opacity="1.0" stroke-linecap="round" stroke-linejoin="round"/>
    <path d="M 102.24877166748047 71.8646240234375 C 91.00753021240234 86.813720703125 98.0081787109375 129.82960510253906 89.64257049560547 92.95675659179688" stroke-width="2" fill="none" stroke="rgb(0, 0, 0)" stroke-opacity="1.0" stroke-linecap="round" stroke-linejoin="round"/>
    <path d="M 49.16310501098633 143.89141845703125 C 107.1995849609375 168.77444458007812 184.7399139404297 169.4697723388672 74.6265869140625 140.70065307617188" stroke-width="2" fill="none" stroke="rgb(0, 0, 0)" stroke-opacity="1.0" stroke-linecap="round" stroke-linejoin="round"/>
    <path d="M 141.00283813476562 144.0060577392578 C 171.86279296875 126.6484375 176.4214324951172 156.61370849609375 112.18858337402344 137.11683654785156" stroke-width="2" fill="none" stroke="rgb(0, 0, 0)" stroke-opacity="1.0" stroke-linecap="round" stroke-linejoin="round"/>
    <path d="M 134.0589141845703 122.50090789794922 C 144.60595703125 140.3042449951172 124.10047912597656 102.39676666259766 143.3398895263672 134.08656311035156" stroke-width="2" fill="none" stroke="rgb(0, 0, 0)" stroke-opacity="1.0" stroke-linecap="round" stroke-linejoin="round"/>
    <path d="M 180.37364196777344 64.29640197753906 C 121.3126449584961 118.00962829589844 169.57325744628906 95.53815460205078 176.5548553466797 67.42298126220703" stroke-width="2" fill="none" stroke="rgb(0, 0, 0)" stroke-opacity="1.0" stroke-linecap="round" stroke-linejoin="round"/>
    <path d="M 168.48521423339844 96.04720306396484 C 165.31671142578125 145.97019958496094 183.79505920410156 136.9082489013672 168.18138122558594 153.02354431152344" stroke-width="2" fill="none" stroke="rgb(0, 0, 0)" stroke-opacity="1.0" stroke-linecap="round" stroke-linejoin="round"/>
    <path d="M 67.7173080444336 142.1254119873047 C 42.585147857666016 145.98838806152344 36.1227912902832 116.30632019042969 49.269439697265625 142.62179565429688" stroke-width="2" fill="none" stroke="rgb(0, 0, 0)" stroke-opacity="1.0" stroke-linecap="round" stroke-linejoin="round"/>
    <path d="M 140.3362579345703 101.01091003417969 C 105.63111114501953 104.3881607055664 123.95295715332031 97.34874725341797 99.67083740234375 71.36869049072266" stroke-width="2" fill="none" stroke="rgb(0, 0, 0)" stroke-opacity="1.0" stroke-linecap="round" stroke-linejoin="round"/>
    <path d="M 154.18182373046875 137.8164825439453 C 184.6916046142578 94.3433837890625 185.15139770507812 70.65449523925781 183.06884765625 61.8939323425293" stroke-width="2" fill="none" stroke="rgb(0, 0, 0)" stroke-opacity="1.0" stroke-linecap="round" stroke-linejoin="round"/>
    <path d="M 68.06391906738281 119.53022766113281 C 71.81419372558594 101.45884704589844 88.22955322265625 124.00799560546875 92.66863250732422 101.90093994140625" stroke-width="2" fill="none" stroke="rgb(0, 0, 0)" stroke-opacity="1.0" stroke-linecap="round" stroke-linejoin="round"/>
    <path d="M 66.42630767822266 100.94384765625 C 56.16947937011719 119.33297729492188 45.7433967590332 103.52021789550781 49.934837341308594 138.4498291015625" stroke-width="2" fill="none" stroke="rgb(0, 0, 0)" stroke-opacity="1.0" stroke-linecap="round" stroke-linejoin="round"/>
  </g>
</svg>
