<?xml version="1.0" ?>
<svg xmlns="http://www.w3.org/2000/svg" version="1.1" width="224" height="224">
  <defs/>
  <g>
    <path d="M 112.65352630615234 115.95059204101562 C 109.92539978027344 93.5821304321289 111.79244995117188 105.75830078125 112.63272094726562 117.65864562988281" stroke-width="2" fill="none" stroke="rgb(0, 0, 0)" stroke-opacity="1.0" stroke-linecap="round" stroke-linejoin="round"/>
    <path d="M 156.7187042236328 152.47955322265625 C 121.40438842773438 148.4051055908203 110.65703582763672 148.00704956054688 68.55372619628906 145.70152282714844" stroke-width="2" fill="none" stroke="rgb(0, 0, 0)" stroke-opacity="1.0" stroke-linecap="round" stroke-linejoin="round"/>
    <path d="M 134.86676025390625 119.27790832519531 C 169.51344299316406 116.30101013183594 104.98808288574219 107.54935455322266 123.22142028808594 130.68008422851562" stroke-width="2" fill="none" stroke="rgb(0, 0, 0)" stroke-opacity="1.0" stroke-linecap="round" stroke-linejoin="round"/>
    <path d="M 168.95697021484375 115.90662384033203 C 132.94317626953125 114.8907470703125 180.76150512695312 131.3397979736328 155.1922607421875 116.10047149658203" stroke-width="2" fill="none" stroke="rgb(0, 0, 0)" stroke-opacity="1.0" stroke-linecap="round" stroke-linejoin="round"/>
    <path d="M 136.96408081054688 102.0301284790039 C 119.67022705078125 100.43811798095703 123.12249755859375 89.24618530273438 113.35895538330078 66.53176879882812" stroke-width="2" fill="none" stroke="rgb(0, 0, 0)" stroke-opacity="1.0" stroke-linecap="round" stroke-linejoin="round"/>
    <path d="M 113.12579345703125 66.92488098144531 C 101.82390594482422 84.62105560302734 103.53117370605469 99.30293273925781 97.71359252929688 119.16315460205078" stroke-width="2" fill="none" stroke="rgb(0, 0, 0)" stroke-opacity="1.0" stroke-linecap="round" stroke-linejoin="round"/>
    <path d="M 50.687015533447266 124.87263488769531 C 82.01611328125 164.1558074951172 150.66552734375 161.47984313964844 86.26182556152344 138.84388732910156" stroke-width="2" fill="none" stroke="rgb(0, 0, 0)" stroke-opacity="1.0" stroke-linecap="round" stroke-linejoin="round"/>
    <path d="M 154.65704345703125 141.42909240722656 C 126.64708709716797 150.90269470214844 133.10401916503906 117.94685363769531 110.19499206542969 133.45652770996094" stroke-width="2" fill="none" stroke="rgb(0, 0, 0)" stroke-opacity="1.0" stroke-linecap="round" stroke-linejoin="round"/>
    <path d="M 112.09107971191406 130.37010192871094 C 145.09271240234375 131.6534881591797 123.11355590820312 141.890380859375 118.35543060302734 128.32077026367188" stroke-width="2" fill="none" stroke="rgb(0, 0, 0)" stroke-opacity="1.0" stroke-linecap="round" stroke-linejoin="round"/>
    <path d="M 183.53807067871094 59.68032455444336 C 188.0767822265625 94.40338897705078 196.74168395996094 88.36444091796875 168.78604125976562 57.409114837646484" stroke-width="2" fill="none" stroke="rgb(0, 0, 0)" stroke-opacity="1.0" stroke-linecap="round" stroke-linejoin="round"/>
    <path d="M 173.6110076904297 108.01329040527344 C 172.88742065429688 151.8719940185547 180.21630859375 133.95724487304688 167.4025115966797 150.5889434814453" stroke-width="2" fill="none" stroke="rgb(0, 0, 0)" stroke-opacity="1.0" stroke-linecap="round" stroke-linejoin="round"/>
    <path d="M 71.59014892578125 146.45960998535156 C 38.61294937133789 141.68104553222656 43.11149597167969 133.7335205078125 63.40936279296875 136.75315856933594" stroke-width="2" fill="none" stroke="rgb(0, 0, 0)" stroke-opacity="1.0" stroke-linecap="round" stroke-linejoin="round"/>
    <path d="M 123.76548767089844 104.73512268066406 C 128.30447387695312 112.74989318847656 131.89744567871094 97.9864273071289 116.2802505493164 69.59563446044922" stroke-width="2" fill="none" stroke="rgb(0, 0, 0)" stroke-opacity="1.0" stroke-linecap="round" stroke-linejoin="round"/>
    <path d="M 163.7014617919922 130.61427307128906 C 192.20494079589844 86.13211059570312 164.6707763671875 105.46056365966797 176.8466339111328 70.65666961669922" stroke-width="2" fill="none" stroke="rgb(0, 0, 0)" stroke-opacity="1.0" stroke-linecap="round" stroke-linejoin="round"/>
    <path d="M 58.57563781738281 102.74654388427734 C 80.34174346923828 93.88871002197266 83.2563247680664 96.35658264160156 98.7999038696289 96.61077117919922" stroke-width="2" fill="none" stroke="rgb(0, 0, 0)" stroke-opacity="1.0" stroke-linecap="round" stroke-linejoin="round"/>
    <path d="M 57.4487419128418 100.38822174072266 C 38.865116119384766 126.51831817626953 52.62297439575195 114.84272766113281 46.06679916381836 137.20233154296875" stroke-width="2" fill="none" stroke="rgb(0, 0, 0)" stroke-opacity="1.0" stroke-linecap="round" stroke-linejoin="round"/>
  </g>
</svg>
