<?xml version="1.0" ?>
<svg xmlns="http://www.w3.org/2000/svg" version="1.1" width="224" height="224">
  <defs/>
  <g>
    <path d="M 124.4679183959961 87.21820831298828 C 120.21582794189453 89.18577575683594 118.74374389648438 55.61574172973633 129.3052978515625 73.7358627319336" stroke-width="3.0" fill="none" stroke="rgb(0, 0, 0)" stroke-opacity="1.0" stroke-linecap="round" stroke-linejoin="round"/>
    <path d="M 158.15101623535156 124.53253936767578 C 195.56039428710938 134.59564208984375 174.02410888671875 117.46817779541016 113.84791564941406 118.41134643554688" stroke-width="3.0" fill="none" stroke="rgb(0, 0, 0)" stroke-opacity="1.0" stroke-linecap="round" stroke-linejoin="round"/>
    <path d="M 126.53495788574219 90.06298828125 C 132.64210510253906 90.60556030273438 111.54801177978516 88.46930694580078 131.8211669921875 88.83397674560547" stroke-width="3.0" fill="none" stroke="rgb(0, 0, 0)" stroke-opacity="1.0" stroke-linecap="round" stroke-linejoin="round"/>
    <path d="M 149.80833435058594 91.49553680419922 C 161.8968963623047 83.4922103881836 168.71578979492188 80.03472137451172 159.8553466796875 82.54850769042969" stroke-width="3.0" fill="none" stroke="rgb(0, 0, 0)" stroke-opacity="1.0" stroke-linecap="round" stroke-linejoin="round"/>
    <path d="M 114.82161712646484 78.06383514404297 C 128.0185546875 99.59523010253906 119.2749252319336 48.62794494628906 131.25198364257812 72.70140075683594" stroke-width="3.0" fill="none" stroke="rgb(0, 0, 0)" stroke-opacity="1.0" stroke-linecap="round" stroke-linejoin="round"/>
    <path d="M 116.16885375976562 78.767822265625 C 129.57562255859375 62.819252014160156 139.5830841064453 82.25638580322266 124.47228240966797 86.60589599609375" stroke-width="3.0" fill="none" stroke="rgb(0, 0, 0)" stroke-opacity="1.0" stroke-linecap="round" stroke-linejoin="round"/>
    <path d="M 150.72512817382812 118.99172973632812 C 167.02259826660156 146.80792236328125 166.98460388183594 97.53983306884766 158.9919891357422 132.77944946289062" stroke-width="3.0" fill="none" stroke="rgb(0, 0, 0)" stroke-opacity="1.0" stroke-linecap="round" stroke-linejoin="round"/>
    <path d="M 152.47618103027344 97.42195892333984 C 148.89942932128906 81.22306823730469 153.6549835205078 96.03587341308594 150.96115112304688 88.47607421875" stroke-width="3.0" fill="none" stroke="rgb(0, 0, 0)" stroke-opacity="1.0" stroke-linecap="round" stroke-linejoin="round"/>
    <path d="M 162.57733154296875 108.8170394897461 C 156.4434356689453 107.3231201171875 167.88644409179688 101.53152465820312 166.02554321289062 104.80354309082031" stroke-width="3.0" fill="none" stroke="rgb(0, 0, 0)" stroke-opacity="1.0" stroke-linecap="round" stroke-linejoin="round"/>
    <path d="M 120.07362365722656 65.57454681396484 C 105.02409362792969 80.48385620117188 130.9008331298828 65.16006469726562 90.65786743164062 79.13916778564453" stroke-width="3.0" fill="none" stroke="rgb(0, 0, 0)" stroke-opacity="1.0" stroke-linecap="round" stroke-linejoin="round"/>
    <path d="M 145.6539306640625 135.2105255126953 C 181.97479248046875 127.93437194824219 151.51596069335938 114.86607360839844 193.10084533691406 132.15274047851562" stroke-width="3.0" fill="none" stroke="rgb(0, 0, 0)" stroke-opacity="1.0" stroke-linecap="round" stroke-linejoin="round"/>
    <path d="M 181.70005798339844 131.99024963378906 C 191.24365234375 94.82373809814453 172.8572235107422 105.7043228149414 190.032958984375 122.99344635009766" stroke-width="3.0" fill="none" stroke="rgb(0, 0, 0)" stroke-opacity="1.0" stroke-linecap="round" stroke-linejoin="round"/>
    <path d="M 133.5467987060547 81.55227661132812 C 149.78390502929688 87.9488525390625 116.68258666992188 83.98402404785156 151.4364013671875 81.013671875" stroke-width="3.0" fill="none" stroke="rgb(0, 0, 0)" stroke-opacity="1.0" stroke-linecap="round" stroke-linejoin="round"/>
    <path d="M 127.60108184814453 70.14927673339844 C 103.64006042480469 77.6119384765625 102.57525634765625 76.17469024658203 129.87741088867188 75.7148208618164" stroke-width="3.0" fill="none" stroke="rgb(0, 0, 0)" stroke-opacity="1.0" stroke-linecap="round" stroke-linejoin="round"/>
    <path d="M 101.15947723388672 82.94023895263672 C 129.18621826171875 76.1703109741211 132.95985412597656 91.0246353149414 121.24137878417969 67.55217742919922" stroke-width="3.0" fill="none" stroke="rgb(0, 0, 0)" stroke-opacity="1.0" stroke-linecap="round" stroke-linejoin="round"/>
    <path d="M 183.84115600585938 115.09481048583984 C 187.90695190429688 77.50017547607422 139.57362365722656 72.78863525390625 140.45933532714844 86.49983215332031" stroke-width="3.0" fill="none" stroke="rgb(0, 0, 0)" stroke-opacity="1.0" stroke-linecap="round" stroke-linejoin="round"/>
    <path d="M 94.70479583740234 97.31108856201172 C 86.97857666015625 83.9591064453125 116.48896026611328 110.73880004882812 93.1168441772461 88.2077865600586" stroke-width="3.0" fill="none" stroke="rgb(0, 0, 0)" stroke-opacity="1.0" stroke-linecap="round" stroke-linejoin="round"/>
    <path d="M 74.82697296142578 75.81478881835938 C 91.21072387695312 90.22162628173828 104.59828186035156 80.98519134521484 71.25399780273438 96.64237976074219" stroke-width="3.0" fill="none" stroke="rgb(0, 0, 0)" stroke-opacity="1.0" stroke-linecap="round" stroke-linejoin="round"/>
    <path d="M 86.2504653930664 84.90420532226562 C 116.81207275390625 86.01930236816406 108.06265258789062 85.88074493408203 109.78004455566406 79.57417297363281" stroke-width="3.0" fill="none" stroke="rgb(0, 0, 0)" stroke-opacity="1.0" stroke-linecap="round" stroke-linejoin="round"/>
    <path d="M 98.58740997314453 86.20692443847656 C 125.78498077392578 120.54857635498047 116.68334197998047 112.1869888305664 109.20069122314453 116.54352569580078" stroke-width="3.0" fill="none" stroke="rgb(0, 0, 0)" stroke-opacity="1.0" stroke-linecap="round" stroke-linejoin="round"/>
    <path d="M 65.95781707763672 80.05238342285156 C 67.08394622802734 80.82115936279297 82.33345794677734 83.67308807373047 64.03756713867188 80.21499633789062" stroke-width="3.0" fill="none" stroke="rgb(0, 0, 0)" stroke-opacity="1.0" stroke-linecap="round" stroke-linejoin="round"/>
    <path d="M 128.60902404785156 85.75305938720703 C 90.95919799804688 80.82559967041016 93.13069915771484 79.69725799560547 124.35960388183594 75.22921752929688" stroke-width="3.0" fill="none" stroke="rgb(0, 0, 0)" stroke-opacity="1.0" stroke-linecap="round" stroke-linejoin="round"/>
    <path d="M 91.95539855957031 88.54737091064453 C 101.10237884521484 91.10604858398438 97.80302429199219 78.50470733642578 75.96173095703125 102.92417907714844" stroke-width="3.0" fill="none" stroke="rgb(0, 0, 0)" stroke-opacity="1.0" stroke-linecap="round" stroke-linejoin="round"/>
    <path d="M 89.35748291015625 93.20049285888672 C 107.7934799194336 86.6711654663086 105.75162506103516 89.06898498535156 88.24903106689453 91.64942932128906" stroke-width="3.0" fill="none" stroke="rgb(0, 0, 0)" stroke-opacity="1.0" stroke-linecap="round" stroke-linejoin="round"/>
    <path d="M 150.01217651367188 95.89810943603516 C 141.36073303222656 105.86212921142578 148.15975952148438 90.44671630859375 144.1612091064453 105.09215545654297" stroke-width="3.0" fill="none" stroke="rgb(0, 0, 0)" stroke-opacity="1.0" stroke-linecap="round" stroke-linejoin="round"/>
    <path d="M 88.5427017211914 76.65457916259766 C 94.1182632446289 80.77643585205078 86.58158874511719 84.75025939941406 70.26221466064453 91.8285140991211" stroke-width="3.0" fill="none" stroke="rgb(0, 0, 0)" stroke-opacity="1.0" stroke-linecap="round" stroke-linejoin="round"/>
    <path d="M 160.1802215576172 87.5354232788086 C 130.9779052734375 82.32999420166016 172.72393798828125 81.40965270996094 152.21334838867188 87.16576385498047" stroke-width="3.0" fill="none" stroke="rgb(0, 0, 0)" stroke-opacity="1.0" stroke-linecap="round" stroke-linejoin="round"/>
    <path d="M 112.75670623779297 105.87628936767578 C 95.50263977050781 95.92510223388672 106.9527816772461 79.60780334472656 87.09925842285156 87.7950210571289" stroke-width="3.0" fill="none" stroke="rgb(0, 0, 0)" stroke-opacity="1.0" stroke-linecap="round" stroke-linejoin="round"/>
    <path d="M 125.63764190673828 79.23145294189453 C 107.08267974853516 63.750980377197266 134.57179260253906 60.17548370361328 125.42206573486328 75.353759765625" stroke-width="3.0" fill="none" stroke="rgb(0, 0, 0)" stroke-opacity="1.0" stroke-linecap="round" stroke-linejoin="round"/>
    <path d="M 100.81287384033203 79.37361907958984 C 106.42520904541016 114.56108093261719 80.5906982421875 82.1549072265625 73.76460266113281 85.35968017578125" stroke-width="3.0" fill="none" stroke="rgb(0, 0, 0)" stroke-opacity="1.0" stroke-linecap="round" stroke-linejoin="round"/>
    <path d="M 68.22211456298828 67.520751953125 C 105.55989837646484 87.55094146728516 91.38955688476562 101.6885986328125 93.31694030761719 89.4892807006836" stroke-width="3.0" fill="none" stroke="rgb(0, 0, 0)" stroke-opacity="1.0" stroke-linecap="round" stroke-linejoin="round"/>
    <path d="M 98.56407165527344 84.79490661621094 C 123.897216796875 80.48616027832031 123.19685363769531 74.11498260498047 100.03823852539062 79.26384735107422" stroke-width="3.0" fill="none" stroke="rgb(0, 0, 0)" stroke-opacity="1.0" stroke-linecap="round" stroke-linejoin="round"/>
  </g>
</svg>
