<?xml version="1.0" ?>
<svg xmlns="http://www.w3.org/2000/svg" version="1.1" width="224" height="224">
  <defs/>
  <g>
    <path d="M 70.90502166748047 91.61019897460938 C 84.5165786743164 107.88340759277344 60.86981964111328 93.3678207397461 76.002197265625 71.85967254638672" stroke-width="3.0" fill="none" stroke="rgb(0, 0, 0)" stroke-opacity="1.0" stroke-linecap="round" stroke-linejoin="round"/>
    <path d="M 172.04965209960938 202.7218780517578 C 150.43731689453125 201.2449951171875 157.5510711669922 194.0492401123047 150.97911071777344 190.029052734375" stroke-width="3.0" fill="none" stroke="rgb(0, 0, 0)" stroke-opacity="1.0" stroke-linecap="round" stroke-linejoin="round"/>
    <path d="M 111.258056640625 136.60202026367188 C 157.56805419921875 138.35052490234375 98.99207305908203 131.25717163085938 104.40303039550781 146.31240844726562" stroke-width="3.0" fill="none" stroke="rgb(0, 0, 0)" stroke-opacity="1.0" stroke-linecap="round" stroke-linejoin="round"/>
    <path d="M 135.3346710205078 102.01457977294922 C 144.1854248046875 104.61272430419922 141.64501953125 108.68672943115234 126.58444213867188 97.68122863769531" stroke-width="3.0" fill="none" stroke="rgb(0, 0, 0)" stroke-opacity="1.0" stroke-linecap="round" stroke-linejoin="round"/>
    <path d="M 85.77952575683594 66.54276275634766 C 105.20069122314453 78.87483215332031 84.32161712646484 64.92176055908203 95.4195556640625 43.503414154052734" stroke-width="3.0" fill="none" stroke="rgb(0, 0, 0)" stroke-opacity="1.0" stroke-linecap="round" stroke-linejoin="round"/>
    <path d="M 75.30610656738281 48.490108489990234 C 105.64601135253906 24.50208854675293 82.37184143066406 60.215328216552734 86.49803161621094 61.27177810668945" stroke-width="3.0" fill="none" stroke="rgb(0, 0, 0)" stroke-opacity="1.0" stroke-linecap="round" stroke-linejoin="round"/>
    <path d="M 177.4636993408203 156.8415985107422 C 176.35157775878906 171.27178955078125 185.48988342285156 147.16551208496094 162.96066284179688 123.13028717041016" stroke-width="3.0" fill="none" stroke="rgb(0, 0, 0)" stroke-opacity="1.0" stroke-linecap="round" stroke-linejoin="round"/>
    <path d="M 86.264892578125 137.7646484375 C 71.93247985839844 142.76095581054688 57.70769119262695 52.636287689208984 82.83706665039062 81.16719818115234" stroke-width="3.0" fill="none" stroke="rgb(0, 0, 0)" stroke-opacity="1.0" stroke-linecap="round" stroke-linejoin="round"/>
    <path d="M 115.66924285888672 130.7455291748047 C 146.80441284179688 137.66281127929688 114.58582305908203 128.4691162109375 105.46688842773438 137.5699462890625" stroke-width="3.0" fill="none" stroke="rgb(0, 0, 0)" stroke-opacity="1.0" stroke-linecap="round" stroke-linejoin="round"/>
    <path d="M 77.99253845214844 27.69725227355957 C 107.72270965576172 49.7991943359375 64.16007232666016 66.22867584228516 90.78668975830078 41.92731857299805" stroke-width="3.0" fill="none" stroke="rgb(0, 0, 0)" stroke-opacity="1.0" stroke-linecap="round" stroke-linejoin="round"/>
    <path d="M 102.54905700683594 208.45925903320312 C 166.8993377685547 180.95509338378906 121.85171508789062 207.3506317138672 168.11907958984375 199.0933074951172" stroke-width="3.0" fill="none" stroke="rgb(0, 0, 0)" stroke-opacity="1.0" stroke-linecap="round" stroke-linejoin="round"/>
    <path d="M 174.08644104003906 203.5095977783203 C 175.5688018798828 180.4153289794922 184.79283142089844 182.50267028808594 176.8280487060547 154.91741943359375" stroke-width="3.0" fill="none" stroke="rgb(0, 0, 0)" stroke-opacity="1.0" stroke-linecap="round" stroke-linejoin="round"/>
    <path d="M 104.3091049194336 75.85591125488281 C 90.43133544921875 50.12145233154297 134.76251220703125 48.10688018798828 112.9842758178711 72.85462951660156" stroke-width="3.0" fill="none" stroke="rgb(0, 0, 0)" stroke-opacity="1.0" stroke-linecap="round" stroke-linejoin="round"/>
    <path d="M 91.00020599365234 78.3196792602539 C 92.70860290527344 49.50948715209961 72.94091033935547 50.60348892211914 74.09672546386719 76.23402404785156" stroke-width="3.0" fill="none" stroke="rgb(0, 0, 0)" stroke-opacity="1.0" stroke-linecap="round" stroke-linejoin="round"/>
    <path d="M 95.37654113769531 54.71759796142578 C 100.15382385253906 37.73558807373047 101.036865234375 37.36903381347656 100.73381805419922 57.202857971191406" stroke-width="3.0" fill="none" stroke="rgb(0, 0, 0)" stroke-opacity="1.0" stroke-linecap="round" stroke-linejoin="round"/>
    <path d="M 77.15324401855469 65.27400207519531 C 86.59683227539062 73.84492492675781 84.7667236328125 54.12154006958008 76.16783905029297 75.15167236328125" stroke-width="3.0" fill="none" stroke="rgb(0, 0, 0)" stroke-opacity="1.0" stroke-linecap="round" stroke-linejoin="round"/>
    <path d="M 122.44550323486328 92.7879638671875 C 124.08708953857422 95.83439636230469 160.36241149902344 109.9481430053711 166.83912658691406 127.7574691772461" stroke-width="3.0" fill="none" stroke="rgb(0, 0, 0)" stroke-opacity="1.0" stroke-linecap="round" stroke-linejoin="round"/>
    <path d="M 115.0404281616211 65.12369537353516 C 130.51449584960938 129.74826049804688 141.1071319580078 101.19493865966797 119.0374984741211 96.0541000366211" stroke-width="3.0" fill="none" stroke="rgb(0, 0, 0)" stroke-opacity="1.0" stroke-linecap="round" stroke-linejoin="round"/>
    <path d="M 96.76715850830078 79.77787780761719 C 90.24490356445312 55.59941864013672 72.9571762084961 72.78858947753906 100.26668548583984 75.99433898925781" stroke-width="3.0" fill="none" stroke="rgb(0, 0, 0)" stroke-opacity="1.0" stroke-linecap="round" stroke-linejoin="round"/>
    <path d="M 101.94005584716797 161.1717071533203 C 65.61404418945312 140.87689208984375 100.78280639648438 135.29660034179688 88.75731658935547 124.6566390991211" stroke-width="3.0" fill="none" stroke="rgb(0, 0, 0)" stroke-opacity="1.0" stroke-linecap="round" stroke-linejoin="round"/>
    <path d="M 105.9453353881836 53.22774124145508 C 106.09937286376953 40.981346130371094 98.3586196899414 28.209882736206055 105.26170349121094 66.63072204589844" stroke-width="3.0" fill="none" stroke="rgb(0, 0, 0)" stroke-opacity="1.0" stroke-linecap="round" stroke-linejoin="round"/>
    <path d="M 120.38922119140625 49.75193405151367 C 131.38095092773438 106.37361145019531 58.8392333984375 92.74398803710938 118.63618469238281 83.77630615234375" stroke-width="3.0" fill="none" stroke="rgb(0, 0, 0)" stroke-opacity="1.0" stroke-linecap="round" stroke-linejoin="round"/>
    <path d="M 72.06744384765625 100.28101348876953 C 96.74054718017578 101.56764221191406 59.825172424316406 107.87264251708984 72.66975402832031 76.70795440673828" stroke-width="3.0" fill="none" stroke="rgb(0, 0, 0)" stroke-opacity="1.0" stroke-linecap="round" stroke-linejoin="round"/>
    <path d="M 92.7052230834961 100.57990264892578 C 101.5154800415039 97.19388580322266 119.74380493164062 99.51256561279297 101.12517547607422 103.18484497070312" stroke-width="3.0" fill="none" stroke="rgb(0, 0, 0)" stroke-opacity="1.0" stroke-linecap="round" stroke-linejoin="round"/>
    <path d="M 145.8589630126953 148.98057556152344 C 150.4892578125 146.36875915527344 135.1306915283203 143.40850830078125 127.13675689697266 172.172119140625" stroke-width="3.0" fill="none" stroke="rgb(0, 0, 0)" stroke-opacity="1.0" stroke-linecap="round" stroke-linejoin="round"/>
    <path d="M 99.05546569824219 75.88179016113281 C 96.338623046875 57.09679412841797 140.68238830566406 79.72145080566406 113.32486724853516 58.143035888671875" stroke-width="3.0" fill="none" stroke="rgb(0, 0, 0)" stroke-opacity="1.0" stroke-linecap="round" stroke-linejoin="round"/>
    <path d="M 117.17118835449219 118.37265014648438 C 99.11068725585938 117.65674591064453 113.8804702758789 123.09099578857422 100.41746520996094 121.03941345214844" stroke-width="3.0" fill="none" stroke="rgb(0, 0, 0)" stroke-opacity="1.0" stroke-linecap="round" stroke-linejoin="round"/>
    <path d="M 87.6519546508789 135.52703857421875 C 81.17262268066406 147.22132873535156 76.79349517822266 127.52659606933594 94.8604507446289 136.53900146484375" stroke-width="3.0" fill="none" stroke="rgb(0, 0, 0)" stroke-opacity="1.0" stroke-linecap="round" stroke-linejoin="round"/>
    <path d="M 106.36427307128906 39.49083709716797 C 142.5103302001953 63.80663299560547 105.09452819824219 -11.976962089538574 123.95001220703125 64.70691680908203" stroke-width="3.0" fill="none" stroke="rgb(0, 0, 0)" stroke-opacity="1.0" stroke-linecap="round" stroke-linejoin="round"/>
    <path d="M 131.9490966796875 101.83053588867188 C 114.97721099853516 75.60350799560547 115.61011505126953 110.81669616699219 142.75277709960938 104.21902465820312" stroke-width="3.0" fill="none" stroke="rgb(0, 0, 0)" stroke-opacity="1.0" stroke-linecap="round" stroke-linejoin="round"/>
    <path d="M 115.18104553222656 54.980369567871094 C 93.1392593383789 75.90151977539062 125.47903442382812 27.70266342163086 85.16085052490234 44.604286193847656" stroke-width="3.0" fill="none" stroke="rgb(0, 0, 0)" stroke-opacity="1.0" stroke-linecap="round" stroke-linejoin="round"/>
    <path d="M 73.83990478515625 68.23934936523438 C 83.2039566040039 8.046364784240723 73.95384216308594 73.40672302246094 75.9573745727539 27.408353805541992" stroke-width="3.0" fill="none" stroke="rgb(0, 0, 0)" stroke-opacity="1.0" stroke-linecap="round" stroke-linejoin="round"/>
  </g>
</svg>
