<?xml version="1.0" ?>
<svg xmlns="http://www.w3.org/2000/svg" version="1.1" width="224" height="224">
  <defs/>
  <g>
    <path d="M 103.14958190917969 94.23926544189453 C 64.08563995361328 93.05235290527344 52.1778678894043 125.06338500976562 91.49484252929688 128.03749084472656" stroke-width="2" fill="none" stroke="rgb(0, 0, 0)" stroke-opacity="1.0" stroke-linecap="round" stroke-linejoin="round"/>
    <path d="M 140.89869689941406 149.4495086669922 C 99.2492446899414 150.04330444335938 79.69261932373047 150.35267639160156 73.29826354980469 139.0658721923828" stroke-width="2" fill="none" stroke="rgb(0, 0, 0)" stroke-opacity="1.0" stroke-linecap="round" stroke-linejoin="round"/>
    <path d="M 136.5158233642578 135.37368774414062 C 91.29396057128906 134.5247344970703 97.02731323242188 121.34220123291016 163.23471069335938 130.40357971191406" stroke-width="2" fill="none" stroke="rgb(0, 0, 0)" stroke-opacity="1.0" stroke-linecap="round" stroke-linejoin="round"/>
    <path d="M 146.30108642578125 117.40087890625 C 127.37898254394531 124.43379211425781 163.4948272705078 120.8829116821289 129.15171813964844 118.59556579589844" stroke-width="2" fill="none" stroke="rgb(0, 0, 0)" stroke-opacity="1.0" stroke-linecap="round" stroke-linejoin="round"/>
    <path d="M 128.25880432128906 111.7042007446289 C 130.2705078125 116.60442352294922 112.97752380371094 79.22992706298828 161.6899871826172 93.46717834472656" stroke-width="2" fill="none" stroke="rgb(0, 0, 0)" stroke-opacity="1.0" stroke-linecap="round" stroke-linejoin="round"/>
    <path d="M 137.29531860351562 100.43594360351562 C 107.19891357421875 89.38855743408203 115.47223663330078 116.80378723144531 132.73963928222656 101.7358169555664" stroke-width="2" fill="none" stroke="rgb(0, 0, 0)" stroke-opacity="1.0" stroke-linecap="round" stroke-linejoin="round"/>
    <path d="M 99.29170227050781 69.72149658203125 C 120.58612060546875 94.40987396240234 128.90484619140625 111.23126983642578 113.39733123779297 84.38432312011719" stroke-width="2" fill="none" stroke="rgb(0, 0, 0)" stroke-opacity="1.0" stroke-linecap="round" stroke-linejoin="round"/>
    <path d="M 93.9888916015625 155.10919189453125 C 55.783485412597656 146.81430053710938 16.117862701416016 149.05596923828125 54.01362228393555 100.94921875" stroke-width="2" fill="none" stroke="rgb(0, 0, 0)" stroke-opacity="1.0" stroke-linecap="round" stroke-linejoin="round"/>
    <path d="M 130.69749450683594 118.42816162109375 C 140.921875 147.49241638183594 174.7688446044922 112.31126403808594 153.11251831054688 114.18187713623047" stroke-width="2" fill="none" stroke="rgb(0, 0, 0)" stroke-opacity="1.0" stroke-linecap="round" stroke-linejoin="round"/>
    <path d="M 105.21023559570312 122.32335662841797 C 123.23612213134766 104.14088439941406 93.34172058105469 127.482421875 116.7400131225586 106.52531433105469" stroke-width="2" fill="none" stroke="rgb(0, 0, 0)" stroke-opacity="1.0" stroke-linecap="round" stroke-linejoin="round"/>
    <path d="M 159.2447509765625 90.39939880371094 C 187.0799560546875 67.66878509521484 186.3788299560547 51.915428161621094 181.45010375976562 83.9123764038086" stroke-width="2" fill="none" stroke="rgb(0, 0, 0)" stroke-opacity="1.0" stroke-linecap="round" stroke-linejoin="round"/>
    <path d="M 170.11631774902344 139.7283935546875 C 174.2073211669922 146.63082885742188 147.0906524658203 151.4210205078125 130.19041442871094 154.8684539794922" stroke-width="2" fill="none" stroke="rgb(0, 0, 0)" stroke-opacity="1.0" stroke-linecap="round" stroke-linejoin="round"/>
    <path d="M 48.67485427856445 143.72213745117188 C 48.96042251586914 161.77110290527344 88.46524047851562 157.0352020263672 123.1559066772461 156.33099365234375" stroke-width="2" fill="none" stroke="rgb(0, 0, 0)" stroke-opacity="1.0" stroke-linecap="round" stroke-linejoin="round"/>
    <path d="M 107.48236846923828 105.0054702758789 C 99.35893249511719 83.22076416015625 97.6767807006836 67.53221893310547 133.79556274414062 90.82288360595703" stroke-width="2" fill="none" stroke="rgb(0, 0, 0)" stroke-opacity="1.0" stroke-linecap="round" stroke-linejoin="round"/>
    <path d="M 154.6253662109375 108.21568298339844 C 164.70730590820312 129.17507934570312 177.05055236816406 97.5079345703125 183.09197998046875 65.70366668701172" stroke-width="2" fill="none" stroke="rgb(0, 0, 0)" stroke-opacity="1.0" stroke-linecap="round" stroke-linejoin="round"/>
    <path d="M 70.04444122314453 103.73975372314453 C 117.72999572753906 111.60734558105469 65.68788146972656 93.7620620727539 51.71662521362305 107.20063781738281" stroke-width="2" fill="none" stroke="rgb(0, 0, 0)" stroke-opacity="1.0" stroke-linecap="round" stroke-linejoin="round"/>
  </g>
</svg>
