<?xml version="1.0" ?>
<svg xmlns="http://www.w3.org/2000/svg" version="1.1" width="224" height="224">
  <defs/>
  <g>
    <path d="M 108.37357330322266 122.38359069824219 C 111.34595489501953 100.62043762207031 63.32526397705078 115.69378662109375 89.07202911376953 107.24697875976562" stroke-width="2" fill="none" stroke="rgb(0, 0, 0)" stroke-opacity="1.0" stroke-linecap="round" stroke-linejoin="round"/>
    <path d="M 103.54913330078125 159.9953155517578 C 148.70223999023438 165.60589599609375 126.79171752929688 144.54676818847656 119.78688049316406 153.8525390625" stroke-width="2" fill="none" stroke="rgb(0, 0, 0)" stroke-opacity="1.0" stroke-linecap="round" stroke-linejoin="round"/>
    <path d="M 148.04266357421875 134.79766845703125 C 89.0241928100586 132.1498260498047 164.70899963378906 145.8585968017578 123.91127014160156 129.22857666015625" stroke-width="2" fill="none" stroke="rgb(0, 0, 0)" stroke-opacity="1.0" stroke-linecap="round" stroke-linejoin="round"/>
    <path d="M 129.35479736328125 115.82203674316406 C 104.00260162353516 114.82917022705078 156.33401489257812 109.71810150146484 129.92893981933594 121.44246673583984" stroke-width="2" fill="none" stroke="rgb(0, 0, 0)" stroke-opacity="1.0" stroke-linecap="round" stroke-linejoin="round"/>
    <path d="M 170.4747314453125 79.68743133544922 C 125.81957244873047 95.05377960205078 158.32638549804688 80.31793975830078 116.99156188964844 76.77169036865234" stroke-width="2" fill="none" stroke="rgb(0, 0, 0)" stroke-opacity="1.0" stroke-linecap="round" stroke-linejoin="round"/>
    <path d="M 133.3321533203125 92.1622085571289 C 117.05001068115234 87.75479888916016 124.67223358154297 125.92355346679688 115.36341857910156 103.3548355102539" stroke-width="2" fill="none" stroke="rgb(0, 0, 0)" stroke-opacity="1.0" stroke-linecap="round" stroke-linejoin="round"/>
    <path d="M 105.47117614746094 77.14546966552734 C 103.75289916992188 131.43409729003906 143.0018310546875 111.28409576416016 98.3757095336914 67.28465270996094" stroke-width="2" fill="none" stroke="rgb(0, 0, 0)" stroke-opacity="1.0" stroke-linecap="round" stroke-linejoin="round"/>
    <path d="M 80.25740814208984 139.115478515625 C 57.43488693237305 118.5612564086914 72.07592010498047 135.93736267089844 71.2481918334961 122.68954467773438" stroke-width="2" fill="none" stroke="rgb(0, 0, 0)" stroke-opacity="1.0" stroke-linecap="round" stroke-linejoin="round"/>
    <path d="M 123.12579345703125 115.67301177978516 C 146.53207397460938 131.785888671875 129.3687744140625 101.63272094726562 133.9743194580078 119.01454162597656" stroke-width="2" fill="none" stroke="rgb(0, 0, 0)" stroke-opacity="1.0" stroke-linecap="round" stroke-linejoin="round"/>
    <path d="M 130.23410034179688 124.79021453857422 C 158.3712921142578 121.3369369506836 104.25994873046875 145.220947265625 115.3229751586914 103.7972640991211" stroke-width="2" fill="none" stroke="rgb(0, 0, 0)" stroke-opacity="1.0" stroke-linecap="round" stroke-linejoin="round"/>
    <path d="M 186.74771118164062 65.1983413696289 C 170.62852478027344 67.54149627685547 185.21376037597656 70.81493377685547 149.2401580810547 91.88124084472656" stroke-width="2" fill="none" stroke="rgb(0, 0, 0)" stroke-opacity="1.0" stroke-linecap="round" stroke-linejoin="round"/>
    <path d="M 173.73190307617188 143.0647430419922 C 157.49505615234375 148.59750366210938 155.58348083496094 131.666015625 143.8926544189453 141.20037841796875" stroke-width="2" fill="none" stroke="rgb(0, 0, 0)" stroke-opacity="1.0" stroke-linecap="round" stroke-linejoin="round"/>
    <path d="M 40.353675842285156 130.11141967773438 C 29.764163970947266 151.89736938476562 130.51904296875 147.5865020751953 127.33966064453125 154.0411376953125" stroke-width="2" fill="none" stroke="rgb(0, 0, 0)" stroke-opacity="1.0" stroke-linecap="round" stroke-linejoin="round"/>
    <path d="M 117.3568115234375 120.25420379638672 C 97.1202163696289 81.03255462646484 88.90904235839844 51.601898193359375 126.96372985839844 84.23859405517578" stroke-width="2" fill="none" stroke="rgb(0, 0, 0)" stroke-opacity="1.0" stroke-linecap="round" stroke-linejoin="round"/>
    <path d="M 151.8950958251953 115.31643676757812 C 167.9783935546875 89.40734100341797 174.21755981445312 93.33786010742188 179.71072387695312 70.5032958984375" stroke-width="2" fill="none" stroke="rgb(0, 0, 0)" stroke-opacity="1.0" stroke-linecap="round" stroke-linejoin="round"/>
    <path d="M 100.3028793334961 99.39080810546875 C 55.434444427490234 104.13876342773438 58.82743453979492 92.33531188964844 39.71110916137695 124.2490005493164" stroke-width="2" fill="none" stroke="rgb(0, 0, 0)" stroke-opacity="1.0" stroke-linecap="round" stroke-linejoin="round"/>
  </g>
</svg>
