<?xml version="1.0" ?>
<svg xmlns="http://www.w3.org/2000/svg" version="1.1" width="224" height="224">
  <defs/>
  <g>
    <path d="M 75.62100982666016 91.53559875488281 C 29.82611846923828 106.18487548828125 99.52642059326172 83.24987030029297 101.10643005371094 107.65599060058594" stroke-width="2" fill="none" stroke="rgb(0, 0, 0)" stroke-opacity="1.0" stroke-linecap="round" stroke-linejoin="round"/>
    <path d="M 150.2353057861328 151.53216552734375 C 158.48892211914062 141.26780700683594 171.02899169921875 168.5752716064453 173.24569702148438 154.28314208984375" stroke-width="2" fill="none" stroke="rgb(0, 0, 0)" stroke-opacity="1.0" stroke-linecap="round" stroke-linejoin="round"/>
    <path d="M 120.24723815917969 143.95416259765625 C 91.1777114868164 123.48321533203125 289.7453308105469 153.3878173828125 122.94123077392578 154.6371307373047" stroke-width="2" fill="none" stroke="rgb(0, 0, 0)" stroke-opacity="1.0" stroke-linecap="round" stroke-linejoin="round"/>
    <path d="M 150.69479370117188 106.7208480834961 C 185.4777374267578 101.33891296386719 126.4099349975586 96.08094787597656 154.99020385742188 105.06314849853516" stroke-width="2" fill="none" stroke="rgb(0, 0, 0)" stroke-opacity="1.0" stroke-linecap="round" stroke-linejoin="round"/>
    <path d="M 135.5533905029297 85.74779510498047 C 117.5625 93.79800415039062 93.66455841064453 34.50080108642578 103.6555404663086 95.08895111083984" stroke-width="2" fill="none" stroke="rgb(0, 0, 0)" stroke-opacity="1.0" stroke-linecap="round" stroke-linejoin="round"/>
    <path d="M 145.2690887451172 84.79521942138672 C 177.88446044921875 71.37310791015625 141.78492736816406 134.97787475585938 151.77012634277344 101.27853393554688" stroke-width="2" fill="none" stroke="rgb(0, 0, 0)" stroke-opacity="1.0" stroke-linecap="round" stroke-linejoin="round"/>
    <path d="M 132.341064453125 97.0443115234375 C 86.99789428710938 112.56184387207031 176.5441436767578 99.52637481689453 127.60314178466797 107.88773345947266" stroke-width="2" fill="none" stroke="rgb(0, 0, 0)" stroke-opacity="1.0" stroke-linecap="round" stroke-linejoin="round"/>
    <path d="M 183.49301147460938 154.4156951904297 C 232.8787078857422 138.80299377441406 -37.52409362792969 186.2504425048828 59.3200798034668 101.19772338867188" stroke-width="2" fill="none" stroke="rgb(0, 0, 0)" stroke-opacity="1.0" stroke-linecap="round" stroke-linejoin="round"/>
    <path d="M 112.14427185058594 110.33796691894531 C 204.2774658203125 140.90869140625 98.81415557861328 122.1120834350586 131.06065368652344 102.31415557861328" stroke-width="2" fill="none" stroke="rgb(0, 0, 0)" stroke-opacity="1.0" stroke-linecap="round" stroke-linejoin="round"/>
    <path d="M 109.77894592285156 109.96257019042969 C 177.50369262695312 140.04698181152344 -92.0709457397461 82.55146026611328 139.64471435546875 125.66339111328125" stroke-width="2" fill="none" stroke="rgb(0, 0, 0)" stroke-opacity="1.0" stroke-linecap="round" stroke-linejoin="round"/>
    <path d="M 159.4258270263672 82.40962219238281 C 230.1931915283203 19.11591148376465 133.16720581054688 139.48931884765625 161.73265075683594 110.87117004394531" stroke-width="2" fill="none" stroke="rgb(0, 0, 0)" stroke-opacity="1.0" stroke-linecap="round" stroke-linejoin="round"/>
    <path d="M 131.20037841796875 141.08334350585938 C 138.19757080078125 137.97438049316406 200.8235321044922 129.37644958496094 155.20884704589844 131.5396728515625" stroke-width="2" fill="none" stroke="rgb(0, 0, 0)" stroke-opacity="1.0" stroke-linecap="round" stroke-linejoin="round"/>
    <path d="M 112.20738220214844 112.32630920410156 C 164.57444763183594 148.91546630859375 156.5072021484375 110.06089782714844 140.2786407470703 120.15497589111328" stroke-width="2" fill="none" stroke="rgb(0, 0, 0)" stroke-opacity="1.0" stroke-linecap="round" stroke-linejoin="round"/>
    <path d="M 138.39109802246094 99.42890930175781 C 136.3437957763672 142.07398986816406 64.88839721679688 14.540725708007812 119.93402099609375 90.06991577148438" stroke-width="2" fill="none" stroke="rgb(0, 0, 0)" stroke-opacity="1.0" stroke-linecap="round" stroke-linejoin="round"/>
    <path d="M 165.0117645263672 98.96544647216797 C 138.39083862304688 67.32316589355469 165.16043090820312 117.81088256835938 183.41366577148438 66.39517211914062" stroke-width="2" fill="none" stroke="rgb(0, 0, 0)" stroke-opacity="1.0" stroke-linecap="round" stroke-linejoin="round"/>
    <path d="M 138.74969482421875 137.2384033203125 C 157.54837036132812 158.4527130126953 51.25115966796875 96.91739654541016 86.11016845703125 109.63822937011719" stroke-width="2" fill="none" stroke="rgb(0, 0, 0)" stroke-opacity="1.0" stroke-linecap="round" stroke-linejoin="round"/>
  </g>
</svg>
