<?xml version="1.0" ?>
<svg xmlns="http://www.w3.org/2000/svg" version="1.1" width="224" height="224">
  <defs/>
  <g>
    <path d="M 126.74755096435547 88.40983581542969 C 127.24918365478516 87.9638671875 126.7349624633789 88.06107330322266 126.46409606933594 88.10263061523438" stroke-width="3.0" fill="none" stroke="rgb(0, 0, 0)" stroke-opacity="1.0" stroke-linecap="round" stroke-linejoin="round"/>
    <path d="M 167.56332397460938 136.86422729492188 C 173.48501586914062 135.46890258789062 169.32887268066406 134.28359985351562 170.2012939453125 135.16152954101562" stroke-width="3.0" fill="none" stroke="rgb(0, 0, 0)" stroke-opacity="1.0" stroke-linecap="round" stroke-linejoin="round"/>
    <path d="M 84.05956268310547 147.98876953125 C 82.9220962524414 144.38522338867188 85.69496154785156 155.24920654296875 82.93902587890625 118.6325912475586" stroke-width="3.0" fill="none" stroke="rgb(0, 0, 0)" stroke-opacity="1.0" stroke-linecap="round" stroke-linejoin="round"/>
    <path d="M 96.33108520507812 126.72562408447266 C 95.6137466430664 129.38140869140625 98.82499694824219 122.37835693359375 95.17244720458984 128.59222412109375" stroke-width="3.0" fill="none" stroke="rgb(0, 0, 0)" stroke-opacity="1.0" stroke-linecap="round" stroke-linejoin="round"/>
    <path d="M 159.24285888671875 85.36164855957031 C 159.04931640625 84.87427520751953 159.2134552001953 85.0160140991211 159.12591552734375 85.0406494140625" stroke-width="3.0" fill="none" stroke="rgb(0, 0, 0)" stroke-opacity="1.0" stroke-linecap="round" stroke-linejoin="round"/>
    <path d="M 127.95831298828125 65.40110778808594 C 127.88257598876953 65.56025695800781 128.06788635253906 65.13644409179688 128.341552734375 64.92371368408203" stroke-width="3.0" fill="none" stroke="rgb(0, 0, 0)" stroke-opacity="1.0" stroke-linecap="round" stroke-linejoin="round"/>
    <path d="M 145.76736450195312 156.00338745117188 C 145.9500732421875 157.9326171875 150.0977020263672 156.67355346679688 154.95826721191406 152.93629455566406" stroke-width="3.0" fill="none" stroke="rgb(0, 0, 0)" stroke-opacity="1.0" stroke-linecap="round" stroke-linejoin="round"/>
    <path d="M 128.00839233398438 108.73033142089844 C 128.0712432861328 108.93316650390625 128.1011962890625 108.19485473632812 128.0587158203125 108.83169555664062" stroke-width="3.0" fill="none" stroke="rgb(0, 0, 0)" stroke-opacity="1.0" stroke-linecap="round" stroke-linejoin="round"/>
    <path d="M 80.94699096679688 131.21669006347656 C 82.27445220947266 126.59868621826172 81.80524444580078 103.22714233398438 81.91038513183594 146.10516357421875" stroke-width="3.0" fill="none" stroke="rgb(0, 0, 0)" stroke-opacity="1.0" stroke-linecap="round" stroke-linejoin="round"/>
    <path d="M 136.111083984375 56.08414840698242 C 136.12220764160156 56.06882858276367 137.19491577148438 55.705039978027344 136.90882873535156 55.7126579284668" stroke-width="3.0" fill="none" stroke="rgb(0, 0, 0)" stroke-opacity="1.0" stroke-linecap="round" stroke-linejoin="round"/>
    <path d="M 92.76325225830078 150.01809692382812 C 109.66140747070312 143.9017791748047 85.10687255859375 147.10264587402344 93.71385955810547 147.5277557373047" stroke-width="3.0" fill="none" stroke="rgb(0, 0, 0)" stroke-opacity="1.0" stroke-linecap="round" stroke-linejoin="round"/>
    <path d="M 109.68688201904297 146.14479064941406 C 126.9351577758789 143.1363983154297 115.04196166992188 145.344970703125 123.95060729980469 144.05809020996094" stroke-width="3.0" fill="none" stroke="rgb(0, 0, 0)" stroke-opacity="1.0" stroke-linecap="round" stroke-linejoin="round"/>
    <path d="M 159.13912963867188 85.0594711303711 C 159.11888122558594 85.17276000976562 159.31741333007812 85.03386688232422 159.121337890625 85.05864715576172" stroke-width="3.0" fill="none" stroke="rgb(0, 0, 0)" stroke-opacity="1.0" stroke-linecap="round" stroke-linejoin="round"/>
    <path d="M 158.82066345214844 84.79373168945312 C 159.2185516357422 85.03378295898438 159.59335327148438 84.82585906982422 159.1734161376953 85.0020523071289" stroke-width="3.0" fill="none" stroke="rgb(0, 0, 0)" stroke-opacity="1.0" stroke-linecap="round" stroke-linejoin="round"/>
    <path d="M 182.96405029296875 71.25581359863281 C 182.37738037109375 70.31611633300781 183.00601196289062 71.98505401611328 182.59988403320312 71.51988220214844" stroke-width="3.0" fill="none" stroke="rgb(0, 0, 0)" stroke-opacity="1.0" stroke-linecap="round" stroke-linejoin="round"/>
    <path d="M 176.23475646972656 82.09465789794922 C 176.68453979492188 81.91756439208984 176.08277893066406 82.21961212158203 176.1330108642578 81.92906951904297" stroke-width="3.0" fill="none" stroke="rgb(0, 0, 0)" stroke-opacity="1.0" stroke-linecap="round" stroke-linejoin="round"/>
  </g>
</svg>
