<?xml version="1.0" ?>
<svg xmlns="http://www.w3.org/2000/svg" version="1.1" width="224" height="224">
  <defs/>
  <g>
    <path d="M 131.82398986816406 111.0939712524414 C 80.29907989501953 99.38053894042969 80.03446197509766 114.4886474609375 125.10355377197266 94.34934997558594" stroke-width="3.0" fill="none" stroke="rgb(0, 0, 0)" stroke-opacity="1.0" stroke-linecap="round" stroke-linejoin="round"/>
    <path d="M 64.51273345947266 208.1055450439453 C 65.93687438964844 204.32737731933594 78.46190643310547 187.51585388183594 94.50811767578125 180.7293243408203" stroke-width="3.0" fill="none" stroke="rgb(0, 0, 0)" stroke-opacity="1.0" stroke-linecap="round" stroke-linejoin="round"/>
    <path d="M 63.03839874267578 141.66908264160156 C 29.039690017700195 141.95706176757812 3.906510829925537 164.56417846679688 -8.017383575439453 168.10403442382812" stroke-width="3.0" fill="none" stroke="rgb(0, 0, 0)" stroke-opacity="1.0" stroke-linecap="round" stroke-linejoin="round"/>
    <path d="M 130.1250762939453 91.75374603271484 C 165.71302795410156 112.54917907714844 166.3290557861328 97.74557495117188 199.1682586669922 144.68577575683594" stroke-width="3.0" fill="none" stroke="rgb(0, 0, 0)" stroke-opacity="1.0" stroke-linecap="round" stroke-linejoin="round"/>
    <path d="M 103.31946563720703 46.78239059448242 C 149.5988006591797 70.98030090332031 110.84025573730469 34.26587677001953 71.25440216064453 42.24524688720703" stroke-width="3.0" fill="none" stroke="rgb(0, 0, 0)" stroke-opacity="1.0" stroke-linecap="round" stroke-linejoin="round"/>
    <path d="M 147.00906372070312 53.324195861816406 C 233.68722534179688 5.01057767868042 229.27813720703125 -13.640228271484375 195.77198791503906 66.63440704345703" stroke-width="3.0" fill="none" stroke="rgb(0, 0, 0)" stroke-opacity="1.0" stroke-linecap="round" stroke-linejoin="round"/>
    <path d="M 14.765371322631836 203.6595001220703 C 48.185699462890625 185.2594757080078 63.63450622558594 182.0924835205078 132.62002563476562 164.83668518066406" stroke-width="3.0" fill="none" stroke="rgb(0, 0, 0)" stroke-opacity="1.0" stroke-linecap="round" stroke-linejoin="round"/>
    <path d="M 122.95816040039062 121.3446273803711 C 70.34953308105469 60.677391052246094 83.92823791503906 119.5093994140625 54.974395751953125 88.91675567626953" stroke-width="3.0" fill="none" stroke="rgb(0, 0, 0)" stroke-opacity="1.0" stroke-linecap="round" stroke-linejoin="round"/>
    <path d="M 107.0687484741211 174.95880126953125 C 80.08191680908203 127.6769027709961 151.61459350585938 97.45783996582031 91.20318603515625 118.61677551269531" stroke-width="3.0" fill="none" stroke="rgb(0, 0, 0)" stroke-opacity="1.0" stroke-linecap="round" stroke-linejoin="round"/>
    <path d="M 156.19093322753906 -5.3827033042907715 C 139.93954467773438 -4.839199542999268 133.87103271484375 -1.2192288637161255 135.8408966064453 -9.7030611038208" stroke-width="3.0" fill="none" stroke="rgb(0, 0, 0)" stroke-opacity="1.0" stroke-linecap="round" stroke-linejoin="round"/>
    <path d="M 165.55029296875 181.7106475830078 C 195.92893981933594 187.98849487304688 202.15478515625 202.70863342285156 201.2725830078125 201.8262176513672" stroke-width="3.0" fill="none" stroke="rgb(0, 0, 0)" stroke-opacity="1.0" stroke-linecap="round" stroke-linejoin="round"/>
    <path d="M 202.397216796875 180.24417114257812 C 191.32110595703125 168.1482696533203 197.9063720703125 165.12928771972656 167.0174560546875 153.49327087402344" stroke-width="3.0" fill="none" stroke="rgb(0, 0, 0)" stroke-opacity="1.0" stroke-linecap="round" stroke-linejoin="round"/>
    <path d="M 90.87197875976562 70.67227935791016 C 63.79395294189453 38.24924087524414 122.06224822998047 34.45167541503906 95.97050476074219 69.25665283203125" stroke-width="3.0" fill="none" stroke="rgb(0, 0, 0)" stroke-opacity="1.0" stroke-linecap="round" stroke-linejoin="round"/>
    <path d="M 96.82850646972656 48.10989761352539 C 68.1003646850586 35.87568664550781 59.95376205444336 65.61886596679688 66.22943115234375 41.77293395996094" stroke-width="3.0" fill="none" stroke="rgb(0, 0, 0)" stroke-opacity="1.0" stroke-linecap="round" stroke-linejoin="round"/>
    <path d="M 93.53103637695312 59.9338493347168 C 94.7582778930664 14.927437782287598 76.13506317138672 74.70399475097656 96.33277893066406 69.22948455810547" stroke-width="3.0" fill="none" stroke="rgb(0, 0, 0)" stroke-opacity="1.0" stroke-linecap="round" stroke-linejoin="round"/>
    <path d="M 121.34395599365234 62.33077621459961 C 91.61695098876953 92.50104522705078 73.31295013427734 80.23853302001953 61.64677810668945 28.81407356262207" stroke-width="3.0" fill="none" stroke="rgb(0, 0, 0)" stroke-opacity="1.0" stroke-linecap="round" stroke-linejoin="round"/>
  </g>
</svg>
