<?xml version="1.0" ?>
<svg xmlns="http://www.w3.org/2000/svg" version="1.1" width="224" height="224">
  <defs/>
  <g>
    <path d="M 130.1736602783203 134.98977661132812 C 71.52708435058594 87.47677612304688 70.30242919921875 116.40512084960938 127.37010955810547 86.51627349853516" stroke-width="3.0" fill="none" stroke="rgb(0, 0, 0)" stroke-opacity="1.0" stroke-linecap="round" stroke-linejoin="round"/>
    <path d="M 51.17015838623047 208.5028076171875 C 57.245628356933594 197.65155029296875 76.70790100097656 179.63156127929688 97.08818817138672 171.70318603515625" stroke-width="3.0" fill="none" stroke="rgb(0, 0, 0)" stroke-opacity="1.0" stroke-linecap="round" stroke-linejoin="round"/>
    <path d="M 85.5538330078125 133.3104705810547 C 40.508121490478516 125.86398315429688 1.4270347356796265 167.3056182861328 -12.483637809753418 167.71949768066406" stroke-width="3.0" fill="none" stroke="rgb(0, 0, 0)" stroke-opacity="1.0" stroke-linecap="round" stroke-linejoin="round"/>
    <path d="M 111.50981140136719 102.56639862060547 C 165.89202880859375 97.04837799072266 181.74771118164062 102.2851791381836 202.12803649902344 141.10552978515625" stroke-width="3.0" fill="none" stroke="rgb(0, 0, 0)" stroke-opacity="1.0" stroke-linecap="round" stroke-linejoin="round"/>
    <path d="M 96.9343032836914 49.22831726074219 C 148.61050415039062 81.72919464111328 99.04046630859375 38.22725296020508 66.2736587524414 27.64035987854004" stroke-width="3.0" fill="none" stroke="rgb(0, 0, 0)" stroke-opacity="1.0" stroke-linecap="round" stroke-linejoin="round"/>
    <path d="M 148.61590576171875 61.55947494506836 C 223.45254516601562 2.8403310775756836 235.12664794921875 -16.742557525634766 188.44752502441406 80.30901336669922" stroke-width="3.0" fill="none" stroke="rgb(0, 0, 0)" stroke-opacity="1.0" stroke-linecap="round" stroke-linejoin="round"/>
    <path d="M 23.539220809936523 198.26693725585938 C 40.24191665649414 187.50283813476562 67.74947357177734 177.94931030273438 125.31458282470703 163.51553344726562" stroke-width="3.0" fill="none" stroke="rgb(0, 0, 0)" stroke-opacity="1.0" stroke-linecap="round" stroke-linejoin="round"/>
    <path d="M 140.12286376953125 127.77035522460938 C 45.26347351074219 61.657100677490234 66.27337646484375 115.01445770263672 50.602760314941406 92.00440216064453" stroke-width="3.0" fill="none" stroke="rgb(0, 0, 0)" stroke-opacity="1.0" stroke-linecap="round" stroke-linejoin="round"/>
    <path d="M 103.552490234375 170.90281677246094 C 69.74442291259766 117.74930572509766 138.27740478515625 82.9421157836914 86.06553649902344 117.94695281982422" stroke-width="3.0" fill="none" stroke="rgb(0, 0, 0)" stroke-opacity="1.0" stroke-linecap="round" stroke-linejoin="round"/>
    <path d="M 156.19093322753906 -5.3827033042907715 C 139.93954467773438 -4.839199542999268 133.87103271484375 -1.2192288637161255 135.8408966064453 -9.7030611038208" stroke-width="3.0" fill="none" stroke="rgb(0, 0, 0)" stroke-opacity="1.0" stroke-linecap="round" stroke-linejoin="round"/>
    <path d="M 157.15850830078125 185.29629516601562 C 186.1644287109375 185.61984252929688 198.62571716308594 201.0008544921875 203.3221893310547 200.19183349609375" stroke-width="3.0" fill="none" stroke="rgb(0, 0, 0)" stroke-opacity="1.0" stroke-linecap="round" stroke-linejoin="round"/>
    <path d="M 199.118896484375 182.867431640625 C 189.98214721679688 176.92034912109375 179.81211853027344 172.66915893554688 158.3048553466797 170.82110595703125" stroke-width="3.0" fill="none" stroke="rgb(0, 0, 0)" stroke-opacity="1.0" stroke-linecap="round" stroke-linejoin="round"/>
    <path d="M 93.04579162597656 74.02499389648438 C 58.75030517578125 36.872371673583984 128.59410095214844 34.44116973876953 95.41334533691406 73.48990631103516" stroke-width="3.0" fill="none" stroke="rgb(0, 0, 0)" stroke-opacity="1.0" stroke-linecap="round" stroke-linejoin="round"/>
    <path d="M 99.52008056640625 50.76279830932617 C 73.3131103515625 30.507720947265625 62.93648910522461 77.04904174804688 66.0940170288086 46.44064712524414" stroke-width="3.0" fill="none" stroke="rgb(0, 0, 0)" stroke-opacity="1.0" stroke-linecap="round" stroke-linejoin="round"/>
    <path d="M 92.49674224853516 65.41215515136719 C 95.05121612548828 16.733091354370117 77.41793823242188 71.57035064697266 97.61672973632812 68.9980239868164" stroke-width="3.0" fill="none" stroke="rgb(0, 0, 0)" stroke-opacity="1.0" stroke-linecap="round" stroke-linejoin="round"/>
    <path d="M 123.687255859375 65.39463806152344 C 90.19718933105469 93.6591796875 71.46479034423828 82.14036560058594 63.8986701965332 25.54552459716797" stroke-width="3.0" fill="none" stroke="rgb(0, 0, 0)" stroke-opacity="1.0" stroke-linecap="round" stroke-linejoin="round"/>
  </g>
</svg>
