<?xml version="1.0" ?>
<svg xmlns="http://www.w3.org/2000/svg" version="1.1" width="224" height="224">
  <defs/>
  <g>
    <path d="M 146.5706024169922 117.99134826660156 C 4.915613651275635 70.86736297607422 246.73731994628906 86.68720245361328 168.44993591308594 93.28226470947266" stroke-width="2" fill="none" stroke="rgb(0, 0, 0)" stroke-opacity="1.0" stroke-linecap="round" stroke-linejoin="round"/>
    <path d="M 126.80345153808594 111.13752746582031 C 199.1252899169922 107.61270904541016 110.6444091796875 100.66324615478516 146.93626403808594 99.95155334472656" stroke-width="2" fill="none" stroke="rgb(0, 0, 0)" stroke-opacity="1.0" stroke-linecap="round" stroke-linejoin="round"/>
    <path d="M 126.8541030883789 113.0944595336914 C 239.2932586669922 125.72209167480469 67.26773834228516 131.12884521484375 136.4742431640625 137.6002960205078" stroke-width="2" fill="none" stroke="rgb(0, 0, 0)" stroke-opacity="1.0" stroke-linecap="round" stroke-linejoin="round"/>
    <path d="M 155.5398406982422 139.78753662109375 C 143.89138793945312 148.3558349609375 172.35728454589844 137.9764404296875 182.8649444580078 149.9617462158203" stroke-width="2" fill="none" stroke="rgb(0, 0, 0)" stroke-opacity="1.0" stroke-linecap="round" stroke-linejoin="round"/>
    <path d="M 116.42594146728516 123.51665496826172 C 163.35720825195312 166.08412170410156 222.7862091064453 28.826913833618164 170.7843475341797 85.64799499511719" stroke-width="2" fill="none" stroke="rgb(0, 0, 0)" stroke-opacity="1.0" stroke-linecap="round" stroke-linejoin="round"/>
    <path d="M 94.80391693115234 71.09033203125 C 106.46820831298828 130.4825439453125 140.23129272460938 60.04311752319336 155.8008270263672 96.19585418701172" stroke-width="2" fill="none" stroke="rgb(0, 0, 0)" stroke-opacity="1.0" stroke-linecap="round" stroke-linejoin="round"/>
    <path d="M 59.00379943847656 135.75987243652344 C 42.391387939453125 171.81927490234375 222.77655029296875 142.6239776611328 175.25096130371094 155.32627868652344" stroke-width="2" fill="none" stroke="rgb(0, 0, 0)" stroke-opacity="1.0" stroke-linecap="round" stroke-linejoin="round"/>
    <path d="M 77.41014099121094 135.7281494140625 C 370.9523620605469 102.64979553222656 7.5852508544921875 127.94775390625 147.90158081054688 107.84697723388672" stroke-width="2" fill="none" stroke="rgb(0, 0, 0)" stroke-opacity="1.0" stroke-linecap="round" stroke-linejoin="round"/>
    <path d="M 140.84591674804688 127.34391021728516 C -18.400400161743164 162.03160095214844 133.12940979003906 136.35113525390625 99.00544738769531 123.28160858154297" stroke-width="2" fill="none" stroke="rgb(0, 0, 0)" stroke-opacity="1.0" stroke-linecap="round" stroke-linejoin="round"/>
    <path d="M 163.0694122314453 87.83843231201172 C 161.5464630126953 103.08372497558594 209.79556274414062 40.41681671142578 180.98086547851562 91.0597915649414" stroke-width="2" fill="none" stroke="rgb(0, 0, 0)" stroke-opacity="1.0" stroke-linecap="round" stroke-linejoin="round"/>
    <path d="M 170.9736785888672 148.14805603027344 C 158.5575408935547 154.41197204589844 203.7064971923828 157.19325256347656 171.55885314941406 144.41534423828125" stroke-width="2" fill="none" stroke="rgb(0, 0, 0)" stroke-opacity="1.0" stroke-linecap="round" stroke-linejoin="round"/>
    <path d="M 165.9488067626953 106.74610137939453 C 159.10826110839844 90.60553741455078 187.14048767089844 106.97142791748047 188.93959045410156 84.33399200439453" stroke-width="2" fill="none" stroke="rgb(0, 0, 0)" stroke-opacity="1.0" stroke-linecap="round" stroke-linejoin="round"/>
    <path d="M 124.78226470947266 95.28861999511719 C 135.00689697265625 71.78279113769531 149.58851623535156 108.01359558105469 97.45440673828125 69.93795776367188" stroke-width="2" fill="none" stroke="rgb(0, 0, 0)" stroke-opacity="1.0" stroke-linecap="round" stroke-linejoin="round"/>
    <path d="M 168.71701049804688 98.52397155761719 C 171.21337890625 118.79695892333984 232.34637451171875 17.600191116333008 152.61412048339844 88.03410339355469" stroke-width="2" fill="none" stroke="rgb(0, 0, 0)" stroke-opacity="1.0" stroke-linecap="round" stroke-linejoin="round"/>
    <path d="M 96.79669189453125 82.20111846923828 C 162.43707275390625 128.34686279296875 43.28903579711914 76.11998748779297 45.41783905029297 121.06146240234375" stroke-width="2" fill="none" stroke="rgb(0, 0, 0)" stroke-opacity="1.0" stroke-linecap="round" stroke-linejoin="round"/>
    <path d="M 34.88782501220703 133.0771484375 C 77.41917419433594 87.31717681884766 -13.714591026306152 158.07794189453125 102.02022552490234 146.98826599121094" stroke-width="2" fill="none" stroke="rgb(0, 0, 0)" stroke-opacity="1.0" stroke-linecap="round" stroke-linejoin="round"/>
  </g>
</svg>
