<?xml version="1.0" ?>
<svg xmlns="http://www.w3.org/2000/svg" version="1.1" width="224" height="224">
  <defs/>
  <g>
    <path d="M 111.98880767822266 120.38489532470703 C 67.79875946044922 76.09669494628906 189.02671813964844 104.18328094482422 121.77203369140625 87.41898345947266" stroke-width="2" fill="none" stroke="rgb(0, 0, 0)" stroke-opacity="1.0" stroke-linecap="round" stroke-linejoin="round"/>
    <path d="M 116.43476867675781 132.0843048095703 C 132.58419799804688 88.56262969970703 122.91987609863281 163.1891632080078 104.05970001220703 117.55146789550781" stroke-width="2" fill="none" stroke="rgb(0, 0, 0)" stroke-opacity="1.0" stroke-linecap="round" stroke-linejoin="round"/>
    <path d="M 150.4677734375 134.6165771484375 C 64.21878814697266 150.88880920410156 84.86630249023438 123.1046142578125 90.55443572998047 140.39122009277344" stroke-width="2" fill="none" stroke="rgb(0, 0, 0)" stroke-opacity="1.0" stroke-linecap="round" stroke-linejoin="round"/>
    <path d="M 164.46807861328125 153.87326049804688 C 174.37606811523438 153.949951171875 202.6395721435547 134.6456298828125 109.02654266357422 125.12720489501953" stroke-width="2" fill="none" stroke="rgb(0, 0, 0)" stroke-opacity="1.0" stroke-linecap="round" stroke-linejoin="round"/>
    <path d="M 109.21178436279297 126.61088562011719 C 136.86764526367188 128.00848388671875 203.49978637695312 138.76998901367188 100.17426300048828 70.04098510742188" stroke-width="2" fill="none" stroke="rgb(0, 0, 0)" stroke-opacity="1.0" stroke-linecap="round" stroke-linejoin="round"/>
    <path d="M 102.8436279296875 71.65338897705078 C 91.5577621459961 112.46735382080078 193.62393188476562 90.3173599243164 125.86901092529297 86.64671325683594" stroke-width="2" fill="none" stroke="rgb(0, 0, 0)" stroke-opacity="1.0" stroke-linecap="round" stroke-linejoin="round"/>
    <path d="M 40.373775482177734 132.591064453125 C 28.897695541381836 174.08860778808594 172.7476806640625 138.3677978515625 173.4087677001953 144.04759216308594" stroke-width="2" fill="none" stroke="rgb(0, 0, 0)" stroke-opacity="1.0" stroke-linecap="round" stroke-linejoin="round"/>
    <path d="M 141.28564453125 147.57217407226562 C 174.20565795898438 130.64410400390625 56.71465301513672 153.15811157226562 127.30416107177734 120.00808715820312" stroke-width="2" fill="none" stroke="rgb(0, 0, 0)" stroke-opacity="1.0" stroke-linecap="round" stroke-linejoin="round"/>
    <path d="M 115.72669982910156 113.2608871459961 C 74.48065185546875 112.52864074707031 132.66665649414062 122.57085418701172 110.18302154541016 114.83522033691406" stroke-width="2" fill="none" stroke="rgb(0, 0, 0)" stroke-opacity="1.0" stroke-linecap="round" stroke-linejoin="round"/>
    <path d="M 184.37388610839844 69.32158660888672 C 107.8674545288086 132.27740478515625 199.85653686523438 79.15515899658203 150.02230834960938 107.94113159179688" stroke-width="2" fill="none" stroke="rgb(0, 0, 0)" stroke-opacity="1.0" stroke-linecap="round" stroke-linejoin="round"/>
    <path d="M 151.14715576171875 136.11264038085938 C 184.93055725097656 151.68252563476562 129.16017150878906 158.08441162109375 174.70510864257812 148.3700408935547" stroke-width="2" fill="none" stroke="rgb(0, 0, 0)" stroke-opacity="1.0" stroke-linecap="round" stroke-linejoin="round"/>
    <path d="M 89.87213897705078 145.47296142578125 C 165.8402862548828 162.51193237304688 64.76358795166016 159.25540161132812 61.957462310791016 137.61460876464844" stroke-width="2" fill="none" stroke="rgb(0, 0, 0)" stroke-opacity="1.0" stroke-linecap="round" stroke-linejoin="round"/>
    <path d="M 166.2830352783203 83.39405059814453 C 135.17581176757812 73.782958984375 135.4978485107422 134.2341766357422 104.30684661865234 74.9582290649414" stroke-width="2" fill="none" stroke="rgb(0, 0, 0)" stroke-opacity="1.0" stroke-linecap="round" stroke-linejoin="round"/>
    <path d="M 155.58958435058594 116.41434478759766 C 194.10777282714844 75.50470733642578 173.93319702148438 82.0965805053711 184.21829223632812 68.65034484863281" stroke-width="2" fill="none" stroke="rgb(0, 0, 0)" stroke-opacity="1.0" stroke-linecap="round" stroke-linejoin="round"/>
    <path d="M 103.25154876708984 82.57669830322266 C 117.81205749511719 125.51738739013672 69.85609436035156 62.62024688720703 50.49647521972656 125.15974426269531" stroke-width="2" fill="none" stroke="rgb(0, 0, 0)" stroke-opacity="1.0" stroke-linecap="round" stroke-linejoin="round"/>
    <path d="M 57.744529724121094 118.47427368164062 C 71.87012481689453 109.07881927490234 30.330894470214844 122.97930145263672 40.44150924682617 148.3730010986328" stroke-width="2" fill="none" stroke="rgb(0, 0, 0)" stroke-opacity="1.0" stroke-linecap="round" stroke-linejoin="round"/>
  </g>
</svg>
