<?xml version="1.0" ?>
<svg xmlns="http://www.w3.org/2000/svg" version="1.1" width="224" height="224">
  <defs/>
  <g>
    <path d="M 124.61727905273438 114.00784301757812 C 15.293196678161621 66.07579040527344 241.3147430419922 86.19623565673828 146.11802673339844 93.8250961303711" stroke-width="2" fill="none" stroke="rgb(0, 0, 0)" stroke-opacity="1.0" stroke-linecap="round" stroke-linejoin="round"/>
    <path d="M 115.09818267822266 103.39285278320312 C 157.1992950439453 100.44091796875 96.66799926757812 94.82852172851562 124.02044677734375 102.65723419189453" stroke-width="2" fill="none" stroke="rgb(0, 0, 0)" stroke-opacity="1.0" stroke-linecap="round" stroke-linejoin="round"/>
    <path d="M 113.25008392333984 149.79443359375 C 96.35520935058594 144.05130004882812 77.6544189453125 125.0850601196289 89.16362762451172 139.74440002441406" stroke-width="2" fill="none" stroke="rgb(0, 0, 0)" stroke-opacity="1.0" stroke-linecap="round" stroke-linejoin="round"/>
    <path d="M 218.30860900878906 145.5640411376953 C 202.9369354248047 170.52346801757812 156.90823364257812 129.0417938232422 137.90213012695312 145.78221130371094" stroke-width="2" fill="none" stroke="rgb(0, 0, 0)" stroke-opacity="1.0" stroke-linecap="round" stroke-linejoin="round"/>
    <path d="M 107.9929428100586 106.15331268310547 C 111.95875549316406 164.74229431152344 233.19944763183594 60.41087341308594 155.79885864257812 98.25662994384766" stroke-width="2" fill="none" stroke="rgb(0, 0, 0)" stroke-opacity="1.0" stroke-linecap="round" stroke-linejoin="round"/>
    <path d="M 91.5592041015625 72.692626953125 C 82.67162322998047 87.06070709228516 169.53717041015625 89.81201934814453 171.55706787109375 72.04181671142578" stroke-width="2" fill="none" stroke="rgb(0, 0, 0)" stroke-opacity="1.0" stroke-linecap="round" stroke-linejoin="round"/>
    <path d="M 39.226924896240234 145.5797119140625 C 81.01780700683594 177.50608825683594 285.7433776855469 130.779296875 200.4768524169922 146.4796142578125" stroke-width="2" fill="none" stroke="rgb(0, 0, 0)" stroke-opacity="1.0" stroke-linecap="round" stroke-linejoin="round"/>
    <path d="M 87.10188293457031 116.85769653320312 C 275.6864013671875 133.00662231445312 88.57504272460938 108.51513671875 149.2485809326172 110.97888946533203" stroke-width="2" fill="none" stroke="rgb(0, 0, 0)" stroke-opacity="1.0" stroke-linecap="round" stroke-linejoin="round"/>
    <path d="M 131.01080322265625 114.2402572631836 C -10.883206367492676 131.89068603515625 173.89024353027344 106.42697143554688 112.87654113769531 109.25653839111328" stroke-width="2" fill="none" stroke="rgb(0, 0, 0)" stroke-opacity="1.0" stroke-linecap="round" stroke-linejoin="round"/>
    <path d="M 182.79086303710938 64.91355895996094 C 142.90377807617188 95.74063110351562 227.63258361816406 15.265262603759766 153.4767303466797 106.56451416015625" stroke-width="2" fill="none" stroke="rgb(0, 0, 0)" stroke-opacity="1.0" stroke-linecap="round" stroke-linejoin="round"/>
    <path d="M 151.6046600341797 150.10780334472656 C 153.2230224609375 138.32627868652344 215.21160888671875 163.9586639404297 207.82701110839844 152.46978759765625" stroke-width="2" fill="none" stroke="rgb(0, 0, 0)" stroke-opacity="1.0" stroke-linecap="round" stroke-linejoin="round"/>
    <path d="M 153.831298828125 132.0524139404297 C 277.7039489746094 150.1634521484375 111.11953735351562 157.24948120117188 114.43134307861328 131.0907440185547" stroke-width="2" fill="none" stroke="rgb(0, 0, 0)" stroke-opacity="1.0" stroke-linecap="round" stroke-linejoin="round"/>
    <path d="M 148.96356201171875 81.96894836425781 C 103.95519256591797 105.15543365478516 181.23585510253906 99.01371002197266 88.47777557373047 72.08779907226562" stroke-width="2" fill="none" stroke="rgb(0, 0, 0)" stroke-opacity="1.0" stroke-linecap="round" stroke-linejoin="round"/>
    <path d="M 153.15594482421875 95.99646759033203 C 174.90370178222656 132.6700897216797 198.8004913330078 46.911094665527344 183.4352569580078 68.29963684082031" stroke-width="2" fill="none" stroke="rgb(0, 0, 0)" stroke-opacity="1.0" stroke-linecap="round" stroke-linejoin="round"/>
    <path d="M 91.81196594238281 80.16028594970703 C 149.29901123046875 114.57298278808594 44.488555908203125 64.81319427490234 45.91712188720703 124.38604736328125" stroke-width="2" fill="none" stroke="rgb(0, 0, 0)" stroke-opacity="1.0" stroke-linecap="round" stroke-linejoin="round"/>
    <path d="M 56.822261810302734 120.98748016357422 C 59.88338851928711 107.56574249267578 1.553478479385376 151.5858154296875 104.54438018798828 145.71322631835938" stroke-width="2" fill="none" stroke="rgb(0, 0, 0)" stroke-opacity="1.0" stroke-linecap="round" stroke-linejoin="round"/>
  </g>
</svg>
