<?xml version="1.0" ?>
<svg xmlns="http://www.w3.org/2000/svg" version="1.1" width="224" height="224">
  <defs/>
  <g>
    <path d="M 149.64984130859375 120.60653686523438 C 1.8650174140930176 38.88081359863281 225.48748779296875 86.3359603881836 168.51239013671875 90.13240814208984" stroke-width="2" fill="none" stroke="rgb(0, 0, 0)" stroke-opacity="1.0" stroke-linecap="round" stroke-linejoin="round"/>
    <path d="M 113.16828918457031 106.65838623046875 C 105.48872375488281 82.50028228759766 93.84469604492188 92.7619400024414 123.0671615600586 102.03119659423828" stroke-width="2" fill="none" stroke="rgb(0, 0, 0)" stroke-opacity="1.0" stroke-linecap="round" stroke-linejoin="round"/>
    <path d="M 126.01616668701172 115.82675170898438 C 190.47862243652344 133.76744079589844 103.47193145751953 86.46112060546875 148.0837860107422 122.00007629394531" stroke-width="2" fill="none" stroke="rgb(0, 0, 0)" stroke-opacity="1.0" stroke-linecap="round" stroke-linejoin="round"/>
    <path d="M 71.46653747558594 134.3894500732422 C 97.08553314208984 167.66928100585938 165.74891662597656 144.41102600097656 87.49987030029297 149.80145263671875" stroke-width="2" fill="none" stroke="rgb(0, 0, 0)" stroke-opacity="1.0" stroke-linecap="round" stroke-linejoin="round"/>
    <path d="M 116.85142517089844 97.01203918457031 C 161.34841918945312 168.7577362060547 238.13319396972656 7.291541576385498 155.05186462402344 86.67011260986328" stroke-width="2" fill="none" stroke="rgb(0, 0, 0)" stroke-opacity="1.0" stroke-linecap="round" stroke-linejoin="round"/>
    <path d="M 99.26582336425781 70.43570709228516 C 125.18933868408203 132.0336151123047 132.42669677734375 47.98712158203125 156.64791870117188 95.75575256347656" stroke-width="2" fill="none" stroke="rgb(0, 0, 0)" stroke-opacity="1.0" stroke-linecap="round" stroke-linejoin="round"/>
    <path d="M 87.78195190429688 128.79603576660156 C 74.74168395996094 176.66995239257812 276.4534606933594 85.70524597167969 143.95468139648438 108.2057113647461" stroke-width="2" fill="none" stroke="rgb(0, 0, 0)" stroke-opacity="1.0" stroke-linecap="round" stroke-linejoin="round"/>
    <path d="M 139.880126953125 113.9146499633789 C 295.24884033203125 103.34739685058594 37.25897216796875 113.65863800048828 102.58917236328125 115.50450897216797" stroke-width="2" fill="none" stroke="rgb(0, 0, 0)" stroke-opacity="1.0" stroke-linecap="round" stroke-linejoin="round"/>
    <path d="M 193.1496124267578 138.2861785888672 C -63.53458786010742 121.39295196533203 338.3579406738281 189.05882263183594 173.0845947265625 145.58807373046875" stroke-width="2" fill="none" stroke="rgb(0, 0, 0)" stroke-opacity="1.0" stroke-linecap="round" stroke-linejoin="round"/>
    <path d="M 149.77479553222656 100.86965942382812 C 121.14688873291016 106.13055419921875 170.86465454101562 86.86405181884766 140.72283935546875 117.34909057617188" stroke-width="2" fill="none" stroke="rgb(0, 0, 0)" stroke-opacity="1.0" stroke-linecap="round" stroke-linejoin="round"/>
    <path d="M 154.17044067382812 135.83670043945312 C 82.39785766601562 107.69771575927734 151.1920928955078 137.67047119140625 118.55572509765625 126.66744232177734" stroke-width="2" fill="none" stroke="rgb(0, 0, 0)" stroke-opacity="1.0" stroke-linecap="round" stroke-linejoin="round"/>
    <path d="M 165.93408203125 106.47038269042969 C 84.23468017578125 134.1558074951172 161.04568481445312 83.43022155761719 113.82684326171875 103.51254272460938" stroke-width="2" fill="none" stroke="rgb(0, 0, 0)" stroke-opacity="1.0" stroke-linecap="round" stroke-linejoin="round"/>
    <path d="M 93.79351043701172 69.01616668701172 C 101.63845825195312 91.6504898071289 162.12144470214844 92.5128173828125 106.43477630615234 83.1202621459961" stroke-width="2" fill="none" stroke="rgb(0, 0, 0)" stroke-opacity="1.0" stroke-linecap="round" stroke-linejoin="round"/>
    <path d="M 156.67926025390625 83.54150390625 C 174.5394744873047 91.6199951171875 214.90650939941406 33.561336517333984 175.52716064453125 84.7237548828125" stroke-width="2" fill="none" stroke="rgb(0, 0, 0)" stroke-opacity="1.0" stroke-linecap="round" stroke-linejoin="round"/>
    <path d="M 100.30799102783203 66.53693389892578 C 199.98092651367188 117.5710678100586 49.29110336303711 58.97434616088867 56.593624114990234 118.82645416259766" stroke-width="2" fill="none" stroke="rgb(0, 0, 0)" stroke-opacity="1.0" stroke-linecap="round" stroke-linejoin="round"/>
    <path d="M 39.0163688659668 120.59370422363281 C 115.25347137451172 62.97858428955078 -59.639739990234375 168.37265014648438 139.27093505859375 152.5565185546875" stroke-width="2" fill="none" stroke="rgb(0, 0, 0)" stroke-opacity="1.0" stroke-linecap="round" stroke-linejoin="round"/>
  </g>
</svg>
