<?xml version="1.0" ?>
<svg xmlns="http://www.w3.org/2000/svg" version="1.1" width="224" height="224">
  <defs/>
  <g>
    <path d="M 118.64309692382812 85.51097106933594 C 40.74304962158203 38.71268844604492 202.16787719726562 92.38089752197266 151.42092895507812 88.36640930175781" stroke-width="2" fill="none" stroke="rgb(0, 0, 0)" stroke-opacity="1.0" stroke-linecap="round" stroke-linejoin="round"/>
    <path d="M 103.96121215820312 75.37315368652344 C 175.34254455566406 113.06452941894531 48.0725212097168 24.350799560546875 114.7833480834961 91.99702453613281" stroke-width="2" fill="none" stroke="rgb(0, 0, 0)" stroke-opacity="1.0" stroke-linecap="round" stroke-linejoin="round"/>
    <path d="M 142.3223876953125 94.12551879882812 C 107.3017578125 89.9720230102539 213.7880859375 128.46693420410156 129.3590850830078 108.9618148803711" stroke-width="2" fill="none" stroke="rgb(0, 0, 0)" stroke-opacity="1.0" stroke-linecap="round" stroke-linejoin="round"/>
    <path d="M 121.08270263671875 141.7218017578125 C 89.58935546875 140.77023315429688 247.02392578125 169.36668395996094 121.8047866821289 134.24246215820312" stroke-width="2" fill="none" stroke="rgb(0, 0, 0)" stroke-opacity="1.0" stroke-linecap="round" stroke-linejoin="round"/>
    <path d="M 125.78324890136719 109.8375244140625 C 162.09719848632812 130.36595153808594 213.97535705566406 26.160476684570312 156.24417114257812 76.86241912841797" stroke-width="2" fill="none" stroke="rgb(0, 0, 0)" stroke-opacity="1.0" stroke-linecap="round" stroke-linejoin="round"/>
    <path d="M 191.84402465820312 125.09452819824219 C 255.4638671875 135.31121826171875 13.701488494873047 96.45855712890625 157.1526336669922 68.07523345947266" stroke-width="2" fill="none" stroke="rgb(0, 0, 0)" stroke-opacity="1.0" stroke-linecap="round" stroke-linejoin="round"/>
    <path d="M 129.59811401367188 127.4483871459961 C 93.37713623046875 106.81222534179688 139.93307495117188 130.83071899414062 116.42611694335938 114.9687271118164" stroke-width="2" fill="none" stroke="rgb(0, 0, 0)" stroke-opacity="1.0" stroke-linecap="round" stroke-linejoin="round"/>
    <path d="M 111.55599975585938 130.43450927734375 C 248.30380249023438 132.5731658935547 145.02085876464844 149.0932159423828 166.42877197265625 155.1724090576172" stroke-width="2" fill="none" stroke="rgb(0, 0, 0)" stroke-opacity="1.0" stroke-linecap="round" stroke-linejoin="round"/>
    <path d="M 73.64518737792969 127.94026184082031 C 83.614990234375 169.34902954101562 199.78997802734375 121.83052825927734 178.65182495117188 152.63043212890625" stroke-width="2" fill="none" stroke="rgb(0, 0, 0)" stroke-opacity="1.0" stroke-linecap="round" stroke-linejoin="round"/>
    <path d="M 153.68003845214844 93.96467590332031 C 141.0251007080078 67.63817596435547 182.92318725585938 138.88699340820312 137.09075927734375 94.12261199951172" stroke-width="2" fill="none" stroke="rgb(0, 0, 0)" stroke-opacity="1.0" stroke-linecap="round" stroke-linejoin="round"/>
    <path d="M 165.67715454101562 94.11060333251953 C 58.163429260253906 117.60021209716797 204.15859985351562 107.6085205078125 148.52447509765625 118.70315551757812" stroke-width="2" fill="none" stroke="rgb(0, 0, 0)" stroke-opacity="1.0" stroke-linecap="round" stroke-linejoin="round"/>
    <path d="M 128.26817321777344 110.84584045410156 C 115.90701293945312 97.32841491699219 196.58023071289062 103.37689971923828 129.54580688476562 113.77753448486328" stroke-width="2" fill="none" stroke="rgb(0, 0, 0)" stroke-opacity="1.0" stroke-linecap="round" stroke-linejoin="round"/>
    <path d="M 97.60547637939453 74.05619049072266 C 102.8077163696289 127.07817840576172 148.57208251953125 85.21528625488281 111.28950500488281 90.30368041992188" stroke-width="2" fill="none" stroke="rgb(0, 0, 0)" stroke-opacity="1.0" stroke-linecap="round" stroke-linejoin="round"/>
    <path d="M 147.6924591064453 108.59809112548828 C 153.26846313476562 95.86888122558594 209.37429809570312 19.34653091430664 168.24595642089844 100.28130340576172" stroke-width="2" fill="none" stroke="rgb(0, 0, 0)" stroke-opacity="1.0" stroke-linecap="round" stroke-linejoin="round"/>
    <path d="M 132.3351287841797 104.49097442626953 C 209.65914916992188 146.023681640625 42.527549743652344 46.94765853881836 50.686222076416016 118.28376770019531" stroke-width="2" fill="none" stroke="rgb(0, 0, 0)" stroke-opacity="1.0" stroke-linecap="round" stroke-linejoin="round"/>
    <path d="M 38.49085235595703 120.664794921875 C 118.6340560913086 66.47868347167969 -63.96597671508789 163.8525848388672 135.86273193359375 148.58396911621094" stroke-width="2" fill="none" stroke="rgb(0, 0, 0)" stroke-opacity="1.0" stroke-linecap="round" stroke-linejoin="round"/>
  </g>
</svg>
