<?xml version="1.0" ?>
<svg xmlns="http://www.w3.org/2000/svg" version="1.1" width="224" height="224">
  <defs/>
  <g>
    <path d="M 139.76873779296875 123.11920166015625 C 21.2569637298584 69.340576171875 230.65548706054688 82.40348815917969 159.59881591796875 92.87862396240234" stroke-width="2" fill="none" stroke="rgb(0, 0, 0)" stroke-opacity="1.0" stroke-linecap="round" stroke-linejoin="round"/>
    <path d="M 115.88594818115234 109.6033935546875 C 145.93373107910156 102.41551971435547 65.35828399658203 105.46279907226562 114.4999008178711 105.2058334350586" stroke-width="2" fill="none" stroke="rgb(0, 0, 0)" stroke-opacity="1.0" stroke-linecap="round" stroke-linejoin="round"/>
    <path d="M 132.40011596679688 119.9915542602539 C 199.06723022460938 120.53480529785156 109.70614624023438 104.76692199707031 140.81825256347656 116.40567016601562" stroke-width="2" fill="none" stroke="rgb(0, 0, 0)" stroke-opacity="1.0" stroke-linecap="round" stroke-linejoin="round"/>
    <path d="M 89.47915649414062 117.21324157714844 C 109.94400787353516 158.92518615722656 156.5736541748047 134.25265502929688 147.2914581298828 154.16297912597656" stroke-width="2" fill="none" stroke="rgb(0, 0, 0)" stroke-opacity="1.0" stroke-linecap="round" stroke-linejoin="round"/>
    <path d="M 117.29254150390625 103.32304382324219 C 129.41578674316406 167.9470977783203 240.3217315673828 8.861242294311523 153.3467254638672 83.01592254638672" stroke-width="2" fill="none" stroke="rgb(0, 0, 0)" stroke-opacity="1.0" stroke-linecap="round" stroke-linejoin="round"/>
    <path d="M 98.38616943359375 73.34309387207031 C 113.4209213256836 142.5251007080078 132.3828582763672 48.800960540771484 157.52694702148438 99.11234283447266" stroke-width="2" fill="none" stroke="rgb(0, 0, 0)" stroke-opacity="1.0" stroke-linecap="round" stroke-linejoin="round"/>
    <path d="M 90.8257827758789 131.90011596679688 C 86.54515075683594 162.46572875976562 286.2711181640625 89.39572143554688 151.0436553955078 105.79236602783203" stroke-width="2" fill="none" stroke="rgb(0, 0, 0)" stroke-opacity="1.0" stroke-linecap="round" stroke-linejoin="round"/>
    <path d="M 133.76541137695312 117.49484252929688 C 335.29315185546875 92.91319274902344 74.53483581542969 119.74836730957031 122.71357727050781 125.81621551513672" stroke-width="2" fill="none" stroke="rgb(0, 0, 0)" stroke-opacity="1.0" stroke-linecap="round" stroke-linejoin="round"/>
    <path d="M 171.38768005371094 159.68463134765625 C -50.47759246826172 117.52103424072266 287.7038269042969 207.77947998046875 122.0523681640625 141.62478637695312" stroke-width="2" fill="none" stroke="rgb(0, 0, 0)" stroke-opacity="1.0" stroke-linecap="round" stroke-linejoin="round"/>
    <path d="M 164.22415161132812 98.45175170898438 C 89.95549011230469 91.41082000732422 197.28024291992188 102.3294906616211 163.82386779785156 118.18656158447266" stroke-width="2" fill="none" stroke="rgb(0, 0, 0)" stroke-opacity="1.0" stroke-linecap="round" stroke-linejoin="round"/>
    <path d="M 167.92254638671875 131.79640197753906 C 97.16796875 127.65419006347656 163.50775146484375 116.04547119140625 132.9083251953125 111.97154235839844" stroke-width="2" fill="none" stroke="rgb(0, 0, 0)" stroke-opacity="1.0" stroke-linecap="round" stroke-linejoin="round"/>
    <path d="M 164.7918243408203 106.31549835205078 C 97.900390625 140.31581115722656 163.41783142089844 99.41397094726562 134.2601776123047 110.58722686767578" stroke-width="2" fill="none" stroke="rgb(0, 0, 0)" stroke-opacity="1.0" stroke-linecap="round" stroke-linejoin="round"/>
    <path d="M 98.39588928222656 69.32022094726562 C 108.72589111328125 106.90731048583984 149.4962158203125 85.53997802734375 106.06698608398438 77.38556671142578" stroke-width="2" fill="none" stroke="rgb(0, 0, 0)" stroke-opacity="1.0" stroke-linecap="round" stroke-linejoin="round"/>
    <path d="M 158.4346923828125 89.0434799194336 C 172.32778930664062 89.52740478515625 193.5555877685547 27.364543914794922 173.08148193359375 95.32100677490234" stroke-width="2" fill="none" stroke="rgb(0, 0, 0)" stroke-opacity="1.0" stroke-linecap="round" stroke-linejoin="round"/>
    <path d="M 99.87357330322266 68.46328735351562 C 191.13262939453125 128.71487426757812 41.637184143066406 58.7419548034668 51.725257873535156 129.9650115966797" stroke-width="2" fill="none" stroke="rgb(0, 0, 0)" stroke-opacity="1.0" stroke-linecap="round" stroke-linejoin="round"/>
    <path d="M 43.903472900390625 125.82057189941406 C 106.54447174072266 70.07589721679688 -34.13352584838867 167.11813354492188 115.44263458251953 153.71206665039062" stroke-width="2" fill="none" stroke="rgb(0, 0, 0)" stroke-opacity="1.0" stroke-linecap="round" stroke-linejoin="round"/>
  </g>
</svg>
