<?xml version="1.0" ?>
<svg xmlns="http://www.w3.org/2000/svg" version="1.1" width="224" height="224">
  <defs/>
  <g>
    <path d="M 128.76556396484375 104.49845123291016 C 32.33647155761719 29.594289779663086 216.4466552734375 104.91702270507812 156.1918182373047 99.7975082397461" stroke-width="2" fill="none" stroke="rgb(0, 0, 0)" stroke-opacity="1.0" stroke-linecap="round" stroke-linejoin="round"/>
    <path d="M 119.73538208007812 88.34764862060547 C 108.5184555053711 90.44192504882812 70.83769226074219 41.727821350097656 132.579345703125 82.43791961669922" stroke-width="2" fill="none" stroke="rgb(0, 0, 0)" stroke-opacity="1.0" stroke-linecap="round" stroke-linejoin="round"/>
    <path d="M 146.28187561035156 98.34799194335938 C 141.9143524169922 110.21347045898438 135.73098754882812 85.92497253417969 158.8053436279297 113.95708465576172" stroke-width="2" fill="none" stroke="rgb(0, 0, 0)" stroke-opacity="1.0" stroke-linecap="round" stroke-linejoin="round"/>
    <path d="M 67.34112548828125 133.33026123046875 C 67.03052520751953 160.62478637695312 212.4618682861328 129.25376892089844 89.85005187988281 132.3024444580078" stroke-width="2" fill="none" stroke="rgb(0, 0, 0)" stroke-opacity="1.0" stroke-linecap="round" stroke-linejoin="round"/>
    <path d="M 164.81349182128906 114.00811004638672 C 148.43032836914062 156.74049377441406 222.48504638671875 18.284303665161133 166.19659423828125 80.10250091552734" stroke-width="2" fill="none" stroke="rgb(0, 0, 0)" stroke-opacity="1.0" stroke-linecap="round" stroke-linejoin="round"/>
    <path d="M 110.47530364990234 98.9271469116211 C 168.30043029785156 120.03378295898438 90.38041687011719 79.49239349365234 168.01515197753906 78.72420501708984" stroke-width="2" fill="none" stroke="rgb(0, 0, 0)" stroke-opacity="1.0" stroke-linecap="round" stroke-linejoin="round"/>
    <path d="M 115.4352798461914 128.1962890625 C 94.71907043457031 142.90716552734375 268.3343811035156 176.30218505859375 158.12051391601562 137.2824249267578" stroke-width="2" fill="none" stroke="rgb(0, 0, 0)" stroke-opacity="1.0" stroke-linecap="round" stroke-linejoin="round"/>
    <path d="M 117.9660415649414 111.01988220214844 C 245.78819274902344 148.5186767578125 80.61016845703125 106.03325653076172 116.60464477539062 108.85138702392578" stroke-width="2" fill="none" stroke="rgb(0, 0, 0)" stroke-opacity="1.0" stroke-linecap="round" stroke-linejoin="round"/>
    <path d="M 110.38842010498047 153.3034210205078 C 4.5316901206970215 123.4886474609375 279.7896728515625 144.02215576171875 201.0995635986328 143.85275268554688" stroke-width="2" fill="none" stroke="rgb(0, 0, 0)" stroke-opacity="1.0" stroke-linecap="round" stroke-linejoin="round"/>
    <path d="M 166.33956909179688 92.53742980957031 C 134.3288116455078 87.34185028076172 176.72044372558594 110.84368896484375 139.46617126464844 103.88334655761719" stroke-width="2" fill="none" stroke="rgb(0, 0, 0)" stroke-opacity="1.0" stroke-linecap="round" stroke-linejoin="round"/>
    <path d="M 154.27479553222656 131.00436401367188 C 125.24906158447266 117.2946548461914 191.87789916992188 153.44175720214844 127.92483520507812 108.160888671875" stroke-width="2" fill="none" stroke="rgb(0, 0, 0)" stroke-opacity="1.0" stroke-linecap="round" stroke-linejoin="round"/>
    <path d="M 119.72996520996094 119.75523376464844 C 92.21806335449219 116.47947692871094 199.18008422851562 111.65406036376953 156.9226531982422 101.46978759765625" stroke-width="2" fill="none" stroke="rgb(0, 0, 0)" stroke-opacity="1.0" stroke-linecap="round" stroke-linejoin="round"/>
    <path d="M 99.85710906982422 73.8625717163086 C 96.81556701660156 116.29405975341797 161.13612365722656 93.46904754638672 112.89659118652344 96.29833984375" stroke-width="2" fill="none" stroke="rgb(0, 0, 0)" stroke-opacity="1.0" stroke-linecap="round" stroke-linejoin="round"/>
    <path d="M 157.73658752441406 88.60615539550781 C 180.78091430664062 91.94309997558594 189.58377075195312 57.017608642578125 182.89126586914062 98.03414154052734" stroke-width="2" fill="none" stroke="rgb(0, 0, 0)" stroke-opacity="1.0" stroke-linecap="round" stroke-linejoin="round"/>
    <path d="M 103.08914947509766 75.96115112304688 C 193.02345275878906 128.36228942871094 39.41337585449219 72.68647003173828 54.682952880859375 122.22805786132812" stroke-width="2" fill="none" stroke="rgb(0, 0, 0)" stroke-opacity="1.0" stroke-linecap="round" stroke-linejoin="round"/>
    <path d="M 37.088199615478516 131.35031127929688 C 88.46844482421875 75.8833236694336 -17.961843490600586 158.99549865722656 97.05126953125 150.20382690429688" stroke-width="2" fill="none" stroke="rgb(0, 0, 0)" stroke-opacity="1.0" stroke-linecap="round" stroke-linejoin="round"/>
  </g>
</svg>
