<?xml version="1.0" ?>
<svg xmlns="http://www.w3.org/2000/svg" version="1.1" width="224" height="224">
  <defs/>
  <g>
    <path d="M 114.47364807128906 73.48358154296875 C 38.98089599609375 50.29607009887695 212.77252197265625 106.5147705078125 153.2134246826172 101.9649429321289" stroke-width="2" fill="none" stroke="rgb(0, 0, 0)" stroke-opacity="1.0" stroke-linecap="round" stroke-linejoin="round"/>
    <path d="M 101.94644927978516 85.70314025878906 C 174.50381469726562 126.76415252685547 54.250675201416016 18.351322174072266 117.65523529052734 106.6537857055664" stroke-width="2" fill="none" stroke="rgb(0, 0, 0)" stroke-opacity="1.0" stroke-linecap="round" stroke-linejoin="round"/>
    <path d="M 141.380859375 107.32955932617188 C 118.21603393554688 99.90994262695312 181.58993530273438 136.61672973632812 126.45012664794922 111.77764129638672" stroke-width="2" fill="none" stroke="rgb(0, 0, 0)" stroke-opacity="1.0" stroke-linecap="round" stroke-linejoin="round"/>
    <path d="M 110.40992736816406 136.38690185546875 C 72.29956817626953 134.6390380859375 215.94566345214844 161.1491241455078 131.07107543945312 149.4432830810547" stroke-width="2" fill="none" stroke="rgb(0, 0, 0)" stroke-opacity="1.0" stroke-linecap="round" stroke-linejoin="round"/>
    <path d="M 138.80349731445312 115.19503784179688 C 151.97808837890625 187.63844299316406 221.1826629638672 3.8904566764831543 163.406494140625 83.06796264648438" stroke-width="2" fill="none" stroke="rgb(0, 0, 0)" stroke-opacity="1.0" stroke-linecap="round" stroke-linejoin="round"/>
    <path d="M 157.86904907226562 134.46148681640625 C 213.4464111328125 152.93389892578125 21.908693313598633 101.3083724975586 161.67100524902344 79.23779296875" stroke-width="2" fill="none" stroke="rgb(0, 0, 0)" stroke-opacity="1.0" stroke-linecap="round" stroke-linejoin="round"/>
    <path d="M 122.95677185058594 137.8857879638672 C 101.3774185180664 94.16543579101562 102.59578704833984 142.1334991455078 102.69168853759766 115.8863296508789" stroke-width="2" fill="none" stroke="rgb(0, 0, 0)" stroke-opacity="1.0" stroke-linecap="round" stroke-linejoin="round"/>
    <path d="M 166.88821411132812 154.18572998046875 C 208.54379272460938 140.5100860595703 103.03741455078125 142.11651611328125 144.03048706054688 142.71212768554688" stroke-width="2" fill="none" stroke="rgb(0, 0, 0)" stroke-opacity="1.0" stroke-linecap="round" stroke-linejoin="round"/>
    <path d="M 62.38185501098633 137.0189666748047 C 84.80973052978516 169.26577758789062 176.23153686523438 136.97215270996094 167.8558349609375 153.5481719970703" stroke-width="2" fill="none" stroke="rgb(0, 0, 0)" stroke-opacity="1.0" stroke-linecap="round" stroke-linejoin="round"/>
    <path d="M 164.46885681152344 100.13346862792969 C 126.27542114257812 97.9366226196289 196.79067993164062 124.4972915649414 123.92239379882812 111.67933654785156" stroke-width="2" fill="none" stroke="rgb(0, 0, 0)" stroke-opacity="1.0" stroke-linecap="round" stroke-linejoin="round"/>
    <path d="M 163.15277099609375 112.12622833251953 C 124.30784606933594 128.7664337158203 165.0933380126953 94.94003295898438 141.87538146972656 126.97784423828125" stroke-width="2" fill="none" stroke="rgb(0, 0, 0)" stroke-opacity="1.0" stroke-linecap="round" stroke-linejoin="round"/>
    <path d="M 146.00421142578125 130.2579345703125 C 96.90530395507812 97.0788803100586 184.7229461669922 138.57969665527344 126.9350357055664 124.38691711425781" stroke-width="2" fill="none" stroke="rgb(0, 0, 0)" stroke-opacity="1.0" stroke-linecap="round" stroke-linejoin="round"/>
    <path d="M 95.51719665527344 80.02632141113281 C 88.14005279541016 125.38417053222656 130.32626342773438 83.880126953125 115.00819396972656 107.34291076660156" stroke-width="2" fill="none" stroke="rgb(0, 0, 0)" stroke-opacity="1.0" stroke-linecap="round" stroke-linejoin="round"/>
    <path d="M 151.6548309326172 96.25144958496094 C 151.5571746826172 139.15158081054688 212.69888305664062 39.794376373291016 152.0902862548828 106.45938110351562" stroke-width="2" fill="none" stroke="rgb(0, 0, 0)" stroke-opacity="1.0" stroke-linecap="round" stroke-linejoin="round"/>
    <path d="M 126.79536437988281 119.68663024902344 C 190.27500915527344 146.77088928222656 47.58002471923828 60.653831481933594 47.56218338012695 123.90998840332031" stroke-width="2" fill="none" stroke="rgb(0, 0, 0)" stroke-opacity="1.0" stroke-linecap="round" stroke-linejoin="round"/>
    <path d="M 54.18077087402344 108.27465057373047 C 104.23709106445312 71.86255645751953 -62.37555694580078 169.35939025878906 146.67584228515625 145.99282836914062" stroke-width="2" fill="none" stroke="rgb(0, 0, 0)" stroke-opacity="1.0" stroke-linecap="round" stroke-linejoin="round"/>
  </g>
</svg>
