<?xml version="1.0" ?>
<svg xmlns="http://www.w3.org/2000/svg" version="1.1" width="224" height="224">
  <defs/>
  <g>
    <path d="M 117.9012222290039 92.80467224121094 C 33.676536560058594 31.966657638549805 217.437255859375 106.0649185180664 163.99160766601562 94.97215270996094" stroke-width="2" fill="none" stroke="rgb(0, 0, 0)" stroke-opacity="1.0" stroke-linecap="round" stroke-linejoin="round"/>
    <path d="M 119.81001281738281 86.47705841064453 C 130.71453857421875 89.88648223876953 72.8863754272461 42.0689582824707 124.68585205078125 93.51210021972656" stroke-width="2" fill="none" stroke="rgb(0, 0, 0)" stroke-opacity="1.0" stroke-linecap="round" stroke-linejoin="round"/>
    <path d="M 157.21063232421875 105.19466400146484 C 133.0823974609375 96.56644439697266 173.6260986328125 102.99373626708984 151.75405883789062 103.1611557006836" stroke-width="2" fill="none" stroke="rgb(0, 0, 0)" stroke-opacity="1.0" stroke-linecap="round" stroke-linejoin="round"/>
    <path d="M 80.39842987060547 125.35579681396484 C 64.67107391357422 167.21762084960938 259.5581359863281 158.61013793945312 100.55137634277344 135.42654418945312" stroke-width="2" fill="none" stroke="rgb(0, 0, 0)" stroke-opacity="1.0" stroke-linecap="round" stroke-linejoin="round"/>
    <path d="M 129.29293823242188 104.24052429199219 C 159.00596618652344 140.51605224609375 220.4073944091797 19.812292098999023 160.55764770507812 83.14728546142578" stroke-width="2" fill="none" stroke="rgb(0, 0, 0)" stroke-opacity="1.0" stroke-linecap="round" stroke-linejoin="round"/>
    <path d="M 164.11968994140625 145.0352325439453 C 251.48416137695312 133.2005615234375 35.51451873779297 97.78118133544922 165.46630859375 77.52141571044922" stroke-width="2" fill="none" stroke="rgb(0, 0, 0)" stroke-opacity="1.0" stroke-linecap="round" stroke-linejoin="round"/>
    <path d="M 116.2668228149414 141.83847045898438 C 119.69239044189453 122.37194061279297 266.864501953125 172.5186309814453 185.42723083496094 135.75177001953125" stroke-width="2" fill="none" stroke="rgb(0, 0, 0)" stroke-opacity="1.0" stroke-linecap="round" stroke-linejoin="round"/>
    <path d="M 113.42105102539062 115.22897338867188 C 258.7024841308594 136.37937927246094 127.91262817382812 113.280517578125 153.9044189453125 132.2615509033203" stroke-width="2" fill="none" stroke="rgb(0, 0, 0)" stroke-opacity="1.0" stroke-linecap="round" stroke-linejoin="round"/>
    <path d="M 63.65346908569336 133.9156036376953 C 84.42680358886719 166.3217315673828 233.6148681640625 120.8663558959961 199.67926025390625 149.97132873535156" stroke-width="2" fill="none" stroke="rgb(0, 0, 0)" stroke-opacity="1.0" stroke-linecap="round" stroke-linejoin="round"/>
    <path d="M 176.191650390625 86.49237060546875 C 140.19580078125 88.07808685302734 198.48651123046875 108.18028259277344 152.58164978027344 97.68095397949219" stroke-width="2" fill="none" stroke="rgb(0, 0, 0)" stroke-opacity="1.0" stroke-linecap="round" stroke-linejoin="round"/>
    <path d="M 139.46859741210938 121.25068664550781 C 57.48382568359375 89.22627258300781 198.85545349121094 138.8006591796875 114.5608139038086 110.28829956054688" stroke-width="2" fill="none" stroke="rgb(0, 0, 0)" stroke-opacity="1.0" stroke-linecap="round" stroke-linejoin="round"/>
    <path d="M 164.69461059570312 123.88809204101562 C 115.64069366455078 131.24703979492188 191.98635864257812 108.19205474853516 157.0328369140625 116.56621551513672" stroke-width="2" fill="none" stroke="rgb(0, 0, 0)" stroke-opacity="1.0" stroke-linecap="round" stroke-linejoin="round"/>
    <path d="M 100.345703125 81.32965850830078 C 106.43624877929688 129.40965270996094 145.1271209716797 82.9866714477539 139.53179931640625 110.54652404785156" stroke-width="2" fill="none" stroke="rgb(0, 0, 0)" stroke-opacity="1.0" stroke-linecap="round" stroke-linejoin="round"/>
    <path d="M 162.61312866210938 87.8569564819336 C 177.53370666503906 95.07317352294922 198.8489532470703 20.533510208129883 174.34201049804688 111.97332000732422" stroke-width="2" fill="none" stroke="rgb(0, 0, 0)" stroke-opacity="1.0" stroke-linecap="round" stroke-linejoin="round"/>
    <path d="M 112.47817993164062 100.36702728271484 C 202.43057250976562 144.09974670410156 40.8364372253418 68.84737396240234 44.536346435546875 127.03652954101562" stroke-width="2" fill="none" stroke="rgb(0, 0, 0)" stroke-opacity="1.0" stroke-linecap="round" stroke-linejoin="round"/>
    <path d="M 34.451969146728516 133.50802612304688 C 86.41455078125 86.22716522216797 -33.656314849853516 158.4044647216797 109.83040618896484 148.12892150878906" stroke-width="2" fill="none" stroke="rgb(0, 0, 0)" stroke-opacity="1.0" stroke-linecap="round" stroke-linejoin="round"/>
  </g>
</svg>
