<?xml version="1.0" ?>
<svg xmlns="http://www.w3.org/2000/svg" version="1.1" width="224" height="224">
  <defs/>
  <g>
    <path d="M 130.5325927734375 120.39743041992188 C 41.296966552734375 66.1528549194336 237.3990936279297 100.90972137451172 151.96356201171875 102.99739837646484" stroke-width="2" fill="none" stroke="rgb(0, 0, 0)" stroke-opacity="1.0" stroke-linecap="round" stroke-linejoin="round"/>
    <path d="M 125.66668701171875 123.27845001220703 C 153.44210815429688 91.07445526123047 110.70130920410156 137.32212829589844 129.04429626464844 114.46089172363281" stroke-width="2" fill="none" stroke="rgb(0, 0, 0)" stroke-opacity="1.0" stroke-linecap="round" stroke-linejoin="round"/>
    <path d="M 137.77378845214844 124.08011627197266 C 101.4256591796875 157.83993530273438 104.26301574707031 105.36874389648438 108.064208984375 134.186279296875" stroke-width="2" fill="none" stroke="rgb(0, 0, 0)" stroke-opacity="1.0" stroke-linecap="round" stroke-linejoin="round"/>
    <path d="M 176.2866973876953 157.64833068847656 C 161.59767150878906 163.73660278320312 215.58387756347656 152.37930297851562 124.59780883789062 132.52456665039062" stroke-width="2" fill="none" stroke="rgb(0, 0, 0)" stroke-opacity="1.0" stroke-linecap="round" stroke-linejoin="round"/>
    <path d="M 122.26811981201172 123.92969512939453 C 145.07723999023438 139.36228942871094 221.248291015625 124.688720703125 99.20441436767578 71.33368682861328" stroke-width="2" fill="none" stroke="rgb(0, 0, 0)" stroke-opacity="1.0" stroke-linecap="round" stroke-linejoin="round"/>
    <path d="M 100.45430755615234 70.67259979248047 C 92.1780776977539 110.53710174560547 227.7422332763672 79.664794921875 139.8042449951172 82.61881256103516" stroke-width="2" fill="none" stroke="rgb(0, 0, 0)" stroke-opacity="1.0" stroke-linecap="round" stroke-linejoin="round"/>
    <path d="M 50.47026443481445 133.41360473632812 C 24.67688751220703 164.16246032714844 191.1300506591797 138.5565185546875 181.23590087890625 149.30581665039062" stroke-width="2" fill="none" stroke="rgb(0, 0, 0)" stroke-opacity="1.0" stroke-linecap="round" stroke-linejoin="round"/>
    <path d="M 132.05670166015625 113.7566909790039 C 161.9117889404297 111.53736114501953 68.64696502685547 127.43998718261719 136.2396240234375 110.32503509521484" stroke-width="2" fill="none" stroke="rgb(0, 0, 0)" stroke-opacity="1.0" stroke-linecap="round" stroke-linejoin="round"/>
    <path d="M 139.3694305419922 113.32376861572266 C 72.13810729980469 120.80705261230469 151.3126678466797 101.4601821899414 119.81660461425781 104.25926971435547" stroke-width="2" fill="none" stroke="rgb(0, 0, 0)" stroke-opacity="1.0" stroke-linecap="round" stroke-linejoin="round"/>
    <path d="M 179.633056640625 63.38718032836914 C 120.77335357666016 120.67101287841797 222.61289978027344 15.523578643798828 173.03179931640625 95.9770278930664" stroke-width="2" fill="none" stroke="rgb(0, 0, 0)" stroke-opacity="1.0" stroke-linecap="round" stroke-linejoin="round"/>
    <path d="M 119.64746856689453 146.6285400390625 C 193.54026794433594 154.46762084960938 143.62252807617188 161.5311737060547 158.20535278320312 149.2570343017578" stroke-width="2" fill="none" stroke="rgb(0, 0, 0)" stroke-opacity="1.0" stroke-linecap="round" stroke-linejoin="round"/>
    <path d="M 91.30223083496094 135.857666015625 C 295.41741943359375 140.6528778076172 74.78462982177734 170.01646423339844 74.6153335571289 133.4958038330078" stroke-width="2" fill="none" stroke="rgb(0, 0, 0)" stroke-opacity="1.0" stroke-linecap="round" stroke-linejoin="round"/>
    <path d="M 158.09938049316406 92.28019714355469 C 108.6260757446289 108.47348022460938 186.9516143798828 104.11601257324219 106.17839813232422 77.05667114257812" stroke-width="2" fill="none" stroke="rgb(0, 0, 0)" stroke-opacity="1.0" stroke-linecap="round" stroke-linejoin="round"/>
    <path d="M 151.4244842529297 123.44873809814453 C 198.7510986328125 101.0365982055664 182.09921264648438 56.47791290283203 187.236083984375 66.63877868652344" stroke-width="2" fill="none" stroke="rgb(0, 0, 0)" stroke-opacity="1.0" stroke-linecap="round" stroke-linejoin="round"/>
    <path d="M 99.2945556640625 85.58667755126953 C 143.98216247558594 137.03907775878906 38.69406509399414 58.995765686035156 38.81340026855469 125.51172637939453" stroke-width="2" fill="none" stroke="rgb(0, 0, 0)" stroke-opacity="1.0" stroke-linecap="round" stroke-linejoin="round"/>
    <path d="M 88.0003890991211 83.70790100097656 C 45.15794372558594 90.16352844238281 3.1286656856536865 136.5833740234375 62.231632232666016 150.6443634033203" stroke-width="2" fill="none" stroke="rgb(0, 0, 0)" stroke-opacity="1.0" stroke-linecap="round" stroke-linejoin="round"/>
  </g>
</svg>
