<?xml version="1.0" ?>
<svg xmlns="http://www.w3.org/2000/svg" version="1.1" width="224" height="224">
  <defs/>
  <g>
    <path d="M 157.53628540039062 108.25025177001953 C 21.624427795410156 78.21673583984375 235.9503173828125 83.48308563232422 161.18328857421875 84.45751953125" stroke-width="2" fill="none" stroke="rgb(0, 0, 0)" stroke-opacity="1.0" stroke-linecap="round" stroke-linejoin="round"/>
    <path d="M 132.96006774902344 104.68376159667969 C 206.8961639404297 103.62545013427734 114.52720642089844 90.08714294433594 151.07249450683594 100.04228973388672" stroke-width="2" fill="none" stroke="rgb(0, 0, 0)" stroke-opacity="1.0" stroke-linecap="round" stroke-linejoin="round"/>
    <path d="M 115.59423828125 121.9117202758789 C 210.78781127929688 151.0262451171875 83.88114166259766 133.77003479003906 123.97606658935547 134.34019470214844" stroke-width="2" fill="none" stroke="rgb(0, 0, 0)" stroke-opacity="1.0" stroke-linecap="round" stroke-linejoin="round"/>
    <path d="M 145.5868377685547 139.79196166992188 C 144.71871948242188 151.5440673828125 175.5641632080078 130.5886688232422 178.74075317382812 148.76602172851562" stroke-width="2" fill="none" stroke="rgb(0, 0, 0)" stroke-opacity="1.0" stroke-linecap="round" stroke-linejoin="round"/>
    <path d="M 123.00572204589844 102.34754180908203 C 170.53744506835938 184.231689453125 223.30926513671875 0.9956819415092468 174.4465789794922 77.78917694091797" stroke-width="2" fill="none" stroke="rgb(0, 0, 0)" stroke-opacity="1.0" stroke-linecap="round" stroke-linejoin="round"/>
    <path d="M 100.45674896240234 70.16340637207031 C 109.06920623779297 106.05297088623047 104.23626708984375 80.36888885498047 164.8695068359375 84.6818618774414" stroke-width="2" fill="none" stroke="rgb(0, 0, 0)" stroke-opacity="1.0" stroke-linecap="round" stroke-linejoin="round"/>
    <path d="M 43.900753021240234 138.3175506591797 C 25.999971389770508 163.2781982421875 213.88290405273438 156.26536560058594 178.57411193847656 145.85153198242188" stroke-width="2" fill="none" stroke="rgb(0, 0, 0)" stroke-opacity="1.0" stroke-linecap="round" stroke-linejoin="round"/>
    <path d="M 90.42633819580078 117.19123840332031 C 337.73980712890625 121.31771850585938 52.92714309692383 120.92664337158203 151.7166290283203 101.37286376953125" stroke-width="2" fill="none" stroke="rgb(0, 0, 0)" stroke-opacity="1.0" stroke-linecap="round" stroke-linejoin="round"/>
    <path d="M 158.24862670898438 108.79074096679688 C -49.81182861328125 174.4085693359375 149.85325622558594 131.75901794433594 96.7265396118164 110.10639190673828" stroke-width="2" fill="none" stroke="rgb(0, 0, 0)" stroke-opacity="1.0" stroke-linecap="round" stroke-linejoin="round"/>
    <path d="M 169.11154174804688 89.08036804199219 C 162.63851928710938 115.7403564453125 201.58773803710938 50.680381774902344 180.78656005859375 99.3121566772461" stroke-width="2" fill="none" stroke="rgb(0, 0, 0)" stroke-opacity="1.0" stroke-linecap="round" stroke-linejoin="round"/>
    <path d="M 181.8893585205078 141.6646728515625 C 145.98336791992188 157.6500701904297 199.4139404296875 150.73167419433594 179.45895385742188 142.02804565429688" stroke-width="2" fill="none" stroke="rgb(0, 0, 0)" stroke-opacity="1.0" stroke-linecap="round" stroke-linejoin="round"/>
    <path d="M 194.32261657714844 130.3145751953125 C 259.0141296386719 114.7442855834961 180.01397705078125 139.82997131347656 167.0928192138672 123.36095428466797" stroke-width="2" fill="none" stroke="rgb(0, 0, 0)" stroke-opacity="1.0" stroke-linecap="round" stroke-linejoin="round"/>
    <path d="M 127.75231170654297 87.0573501586914 C 101.03334045410156 95.76429748535156 172.40797424316406 88.25186157226562 95.83718872070312 71.14741516113281" stroke-width="2" fill="none" stroke="rgb(0, 0, 0)" stroke-opacity="1.0" stroke-linecap="round" stroke-linejoin="round"/>
    <path d="M 158.6572265625 85.38875579833984 C 174.94664001464844 114.93971252441406 228.4443817138672 19.81850814819336 162.33712768554688 83.9124984741211" stroke-width="2" fill="none" stroke="rgb(0, 0, 0)" stroke-opacity="1.0" stroke-linecap="round" stroke-linejoin="round"/>
    <path d="M 100.59107208251953 72.49427032470703 C 182.0860595703125 123.83055114746094 53.12073516845703 67.58573150634766 50.25578308105469 113.54210662841797" stroke-width="2" fill="none" stroke="rgb(0, 0, 0)" stroke-opacity="1.0" stroke-linecap="round" stroke-linejoin="round"/>
    <path d="M 37.0932502746582 123.27516174316406 C 82.49834442138672 87.98287200927734 -24.799461364746094 152.04624938964844 103.0569839477539 141.11431884765625" stroke-width="2" fill="none" stroke="rgb(0, 0, 0)" stroke-opacity="1.0" stroke-linecap="round" stroke-linejoin="round"/>
  </g>
</svg>
