<?xml version="1.0" ?>
<svg xmlns="http://www.w3.org/2000/svg" version="1.1" width="224" height="224">
  <defs/>
  <g>
    <path d="M 157.18148803710938 92.56657409667969 C 114.25186157226562 64.21642303466797 182.12652587890625 107.038330078125 153.37120056152344 101.12971496582031" stroke-width="2" fill="none" stroke="rgb(0, 0, 0)" stroke-opacity="1.0" stroke-linecap="round" stroke-linejoin="round"/>
    <path d="M 103.54266357421875 70.10807037353516 C 155.6938934326172 136.48556518554688 49.452606201171875 30.657655715942383 126.08880615234375 77.6773910522461" stroke-width="2" fill="none" stroke="rgb(0, 0, 0)" stroke-opacity="1.0" stroke-linecap="round" stroke-linejoin="round"/>
    <path d="M 163.13856506347656 81.66737365722656 C 125.87945556640625 94.95649719238281 184.30287170410156 116.75373840332031 109.36914825439453 107.66012573242188" stroke-width="2" fill="none" stroke="rgb(0, 0, 0)" stroke-opacity="1.0" stroke-linecap="round" stroke-linejoin="round"/>
    <path d="M 129.30165100097656 131.22666931152344 C 74.08919525146484 129.03138732910156 200.4577178955078 144.21046447753906 173.080078125 154.21861267089844" stroke-width="2" fill="none" stroke="rgb(0, 0, 0)" stroke-opacity="1.0" stroke-linecap="round" stroke-linejoin="round"/>
    <path d="M 130.63026428222656 107.66629791259766 C 141.43475341796875 171.30191040039062 224.4830780029297 9.706061363220215 161.40435791015625 83.28450012207031" stroke-width="2" fill="none" stroke="rgb(0, 0, 0)" stroke-opacity="1.0" stroke-linecap="round" stroke-linejoin="round"/>
    <path d="M 168.8373260498047 150.41050720214844 C 222.9261474609375 155.5260009765625 25.235923767089844 88.20464324951172 159.22369384765625 72.36162567138672" stroke-width="2" fill="none" stroke="rgb(0, 0, 0)" stroke-opacity="1.0" stroke-linecap="round" stroke-linejoin="round"/>
    <path d="M 104.4190902709961 132.95401000976562 C 84.24565124511719 125.52140045166016 103.03707885742188 145.3773193359375 100.57192993164062 120.60348510742188" stroke-width="2" fill="none" stroke="rgb(0, 0, 0)" stroke-opacity="1.0" stroke-linecap="round" stroke-linejoin="round"/>
    <path d="M 192.73191833496094 145.5271453857422 C 201.06607055664062 132.26895141601562 82.53852081298828 147.3285369873047 106.34379577636719 134.00726318359375" stroke-width="2" fill="none" stroke="rgb(0, 0, 0)" stroke-opacity="1.0" stroke-linecap="round" stroke-linejoin="round"/>
    <path d="M 68.76390075683594 132.93789672851562 C 78.30880737304688 157.3250732421875 195.86093139648438 157.92794799804688 160.623291015625 154.900146484375" stroke-width="2" fill="none" stroke="rgb(0, 0, 0)" stroke-opacity="1.0" stroke-linecap="round" stroke-linejoin="round"/>
    <path d="M 169.4456787109375 89.28118133544922 C 130.35830688476562 93.30590057373047 209.54034423828125 78.43363189697266 137.48159790039062 112.25177001953125" stroke-width="2" fill="none" stroke="rgb(0, 0, 0)" stroke-opacity="1.0" stroke-linecap="round" stroke-linejoin="round"/>
    <path d="M 158.33645629882812 109.0692367553711 C 129.5463409423828 107.44153594970703 151.03514099121094 98.53755187988281 148.29464721679688 123.64434051513672" stroke-width="2" fill="none" stroke="rgb(0, 0, 0)" stroke-opacity="1.0" stroke-linecap="round" stroke-linejoin="round"/>
    <path d="M 140.01104736328125 100.34028625488281 C 111.61579895019531 99.31521606445312 176.0613250732422 118.72676086425781 136.0513916015625 107.79764556884766" stroke-width="2" fill="none" stroke="rgb(0, 0, 0)" stroke-opacity="1.0" stroke-linecap="round" stroke-linejoin="round"/>
    <path d="M 102.12535095214844 74.21378326416016 C 98.56002044677734 124.70536041259766 151.3056182861328 91.28629302978516 102.64141082763672 98.48703002929688" stroke-width="2" fill="none" stroke="rgb(0, 0, 0)" stroke-opacity="1.0" stroke-linecap="round" stroke-linejoin="round"/>
    <path d="M 157.81134033203125 98.39983367919922 C 123.24266052246094 105.48838806152344 215.743896484375 75.55125427246094 155.18585205078125 97.74085998535156" stroke-width="2" fill="none" stroke="rgb(0, 0, 0)" stroke-opacity="1.0" stroke-linecap="round" stroke-linejoin="round"/>
    <path d="M 135.00662231445312 98.78639221191406 C 170.38800048828125 149.36114501953125 51.842987060546875 51.96946334838867 52.12954330444336 118.53019714355469" stroke-width="2" fill="none" stroke="rgb(0, 0, 0)" stroke-opacity="1.0" stroke-linecap="round" stroke-linejoin="round"/>
    <path d="M 42.76351547241211 121.94074249267578 C 105.07522583007812 73.80021667480469 -48.843441009521484 159.44200134277344 134.298583984375 147.96890258789062" stroke-width="2" fill="none" stroke="rgb(0, 0, 0)" stroke-opacity="1.0" stroke-linecap="round" stroke-linejoin="round"/>
  </g>
</svg>
