<?xml version="1.0" ?>
<svg xmlns="http://www.w3.org/2000/svg" version="1.1" width="224" height="224">
  <defs/>
  <g>
    <path d="M 141.29281616210938 115.13748168945312 C 20.311494827270508 73.4693374633789 238.14988708496094 86.38917541503906 163.50074768066406 95.50996398925781" stroke-width="2" fill="none" stroke="rgb(0, 0, 0)" stroke-opacity="1.0" stroke-linecap="round" stroke-linejoin="round"/>
    <path d="M 123.20409393310547 108.3202133178711 C 182.28607177734375 98.37635803222656 97.6727066040039 109.26518249511719 130.13954162597656 96.90142059326172" stroke-width="2" fill="none" stroke="rgb(0, 0, 0)" stroke-opacity="1.0" stroke-linecap="round" stroke-linejoin="round"/>
    <path d="M 122.6337661743164 117.3572998046875 C 229.1630859375 119.31788635253906 102.69097900390625 135.90225219726562 142.8872833251953 131.119873046875" stroke-width="2" fill="none" stroke="rgb(0, 0, 0)" stroke-opacity="1.0" stroke-linecap="round" stroke-linejoin="round"/>
    <path d="M 132.92413330078125 147.62294006347656 C 134.88510131835938 133.44815063476562 183.65219116210938 136.07205200195312 180.47744750976562 142.8236541748047" stroke-width="2" fill="none" stroke="rgb(0, 0, 0)" stroke-opacity="1.0" stroke-linecap="round" stroke-linejoin="round"/>
    <path d="M 104.44459533691406 122.32605743408203 C 174.82749938964844 169.4385223388672 224.9436492919922 12.843369483947754 161.41162109375 82.76420593261719" stroke-width="2" fill="none" stroke="rgb(0, 0, 0)" stroke-opacity="1.0" stroke-linecap="round" stroke-linejoin="round"/>
    <path d="M 99.95196533203125 74.08646392822266 C 121.15385437011719 140.30252075195312 124.41175079345703 53.81465148925781 157.79588317871094 96.8671875" stroke-width="2" fill="none" stroke="rgb(0, 0, 0)" stroke-opacity="1.0" stroke-linecap="round" stroke-linejoin="round"/>
    <path d="M 72.84722900390625 129.44947814941406 C 85.40925598144531 173.86260986328125 246.6116180419922 117.71754455566406 213.87747192382812 133.66732788085938" stroke-width="2" fill="none" stroke="rgb(0, 0, 0)" stroke-opacity="1.0" stroke-linecap="round" stroke-linejoin="round"/>
    <path d="M 122.95692443847656 119.92591857910156 C 376.7665710449219 131.568359375 51.51897430419922 120.98123168945312 143.5869140625 107.0170669555664" stroke-width="2" fill="none" stroke="rgb(0, 0, 0)" stroke-opacity="1.0" stroke-linecap="round" stroke-linejoin="round"/>
    <path d="M 135.68911743164062 142.63504028320312 C -33.306915283203125 126.2826919555664 161.4757843017578 157.1603240966797 110.5067367553711 129.3770294189453" stroke-width="2" fill="none" stroke="rgb(0, 0, 0)" stroke-opacity="1.0" stroke-linecap="round" stroke-linejoin="round"/>
    <path d="M 167.79600524902344 113.44355773925781 C 160.38250732421875 93.38672637939453 229.84962463378906 45.27124786376953 155.78282165527344 89.5613784790039" stroke-width="2" fill="none" stroke="rgb(0, 0, 0)" stroke-opacity="1.0" stroke-linecap="round" stroke-linejoin="round"/>
    <path d="M 170.99913024902344 153.1442108154297 C 159.456298828125 143.67562866210938 198.99830627441406 159.460693359375 147.09544372558594 144.23252868652344" stroke-width="2" fill="none" stroke="rgb(0, 0, 0)" stroke-opacity="1.0" stroke-linecap="round" stroke-linejoin="round"/>
    <path d="M 172.2830810546875 102.64411163330078 C 124.26069641113281 103.5338134765625 181.39474487304688 117.553466796875 150.07870483398438 103.45140838623047" stroke-width="2" fill="none" stroke="rgb(0, 0, 0)" stroke-opacity="1.0" stroke-linecap="round" stroke-linejoin="round"/>
    <path d="M 115.12691497802734 90.82017517089844 C 126.77811431884766 96.35000610351562 152.13218688964844 92.42481231689453 97.08650207519531 68.25424194335938" stroke-width="2" fill="none" stroke="rgb(0, 0, 0)" stroke-opacity="1.0" stroke-linecap="round" stroke-linejoin="round"/>
    <path d="M 155.80926513671875 85.96570587158203 C 160.64309692382812 101.31168365478516 233.81210327148438 31.87540054321289 158.93594360351562 89.9794692993164" stroke-width="2" fill="none" stroke="rgb(0, 0, 0)" stroke-opacity="1.0" stroke-linecap="round" stroke-linejoin="round"/>
    <path d="M 101.52899932861328 79.92919921875 C 176.54544067382812 124.19784545898438 44.132347106933594 67.1894760131836 52.06895065307617 118.54449462890625" stroke-width="2" fill="none" stroke="rgb(0, 0, 0)" stroke-opacity="1.0" stroke-linecap="round" stroke-linejoin="round"/>
    <path d="M 35.38864517211914 124.50106048583984 C 80.61714172363281 81.76158142089844 -26.76215934753418 156.181640625 103.61604309082031 154.23275756835938" stroke-width="2" fill="none" stroke="rgb(0, 0, 0)" stroke-opacity="1.0" stroke-linecap="round" stroke-linejoin="round"/>
  </g>
</svg>
