<?xml version="1.0" ?>
<svg xmlns="http://www.w3.org/2000/svg" version="1.1" width="224" height="224">
  <defs/>
  <g>
    <path d="M 113.57138061523438 73.1850814819336 C 34.00462341308594 47.24163818359375 209.607177734375 106.34355926513672 153.43881225585938 100.61491394042969" stroke-width="2" fill="none" stroke="rgb(0, 0, 0)" stroke-opacity="1.0" stroke-linecap="round" stroke-linejoin="round"/>
    <path d="M 105.47622680664062 85.82597351074219 C 177.2932586669922 122.16699981689453 43.21577835083008 13.623966217041016 119.76010131835938 102.84326934814453" stroke-width="2" fill="none" stroke="rgb(0, 0, 0)" stroke-opacity="1.0" stroke-linecap="round" stroke-linejoin="round"/>
    <path d="M 137.11463928222656 104.54732513427734 C 108.123291015625 99.0732192993164 193.2131805419922 130.4212646484375 122.71202850341797 115.64283752441406" stroke-width="2" fill="none" stroke="rgb(0, 0, 0)" stroke-opacity="1.0" stroke-linecap="round" stroke-linejoin="round"/>
    <path d="M 118.3256607055664 140.28213500976562 C 96.87248229980469 149.37452697753906 261.1936340332031 151.96804809570312 122.44267272949219 149.57200622558594" stroke-width="2" fill="none" stroke="rgb(0, 0, 0)" stroke-opacity="1.0" stroke-linecap="round" stroke-linejoin="round"/>
    <path d="M 149.9824676513672 111.823486328125 C 143.11001586914062 167.69215393066406 222.34817504882812 19.18138885498047 167.066162109375 79.7992172241211" stroke-width="2" fill="none" stroke="rgb(0, 0, 0)" stroke-opacity="1.0" stroke-linecap="round" stroke-linejoin="round"/>
    <path d="M 170.72109985351562 129.15835571289062 C 219.8795623779297 144.24423217773438 14.412528991699219 99.03345489501953 172.57785034179688 79.92391204833984" stroke-width="2" fill="none" stroke="rgb(0, 0, 0)" stroke-opacity="1.0" stroke-linecap="round" stroke-linejoin="round"/>
    <path d="M 120.87215423583984 132.2932891845703 C 102.26227569580078 100.01068115234375 99.56877136230469 136.27626037597656 101.91056060791016 114.01338195800781" stroke-width="2" fill="none" stroke="rgb(0, 0, 0)" stroke-opacity="1.0" stroke-linecap="round" stroke-linejoin="round"/>
    <path d="M 162.9326934814453 149.7186279296875 C 193.37362670898438 134.8187255859375 127.2556381225586 139.33847045898438 149.2733612060547 139.86767578125" stroke-width="2" fill="none" stroke="rgb(0, 0, 0)" stroke-opacity="1.0" stroke-linecap="round" stroke-linejoin="round"/>
    <path d="M 71.5919418334961 136.96336364746094 C 99.94878387451172 182.9725799560547 210.99166870117188 125.65498352050781 180.39308166503906 151.49124145507812" stroke-width="2" fill="none" stroke="rgb(0, 0, 0)" stroke-opacity="1.0" stroke-linecap="round" stroke-linejoin="round"/>
    <path d="M 166.88172912597656 84.35914611816406 C 128.60153198242188 84.23015594482422 188.800048828125 127.82839965820312 121.75608825683594 116.55399322509766" stroke-width="2" fill="none" stroke="rgb(0, 0, 0)" stroke-opacity="1.0" stroke-linecap="round" stroke-linejoin="round"/>
    <path d="M 165.80242919921875 109.8357925415039 C 88.08271789550781 138.7375946044922 163.9730682373047 88.18959045410156 148.25637817382812 120.77317810058594" stroke-width="2" fill="none" stroke="rgb(0, 0, 0)" stroke-opacity="1.0" stroke-linecap="round" stroke-linejoin="round"/>
    <path d="M 134.65756225585938 120.8471450805664 C 85.63656616210938 120.78314208984375 196.85321044921875 146.95736694335938 120.8797607421875 120.70658874511719" stroke-width="2" fill="none" stroke="rgb(0, 0, 0)" stroke-opacity="1.0" stroke-linecap="round" stroke-linejoin="round"/>
    <path d="M 96.75447082519531 75.048583984375 C 91.04553985595703 125.48068237304688 142.78123474121094 79.1787338256836 114.38795471191406 113.74908447265625" stroke-width="2" fill="none" stroke="rgb(0, 0, 0)" stroke-opacity="1.0" stroke-linecap="round" stroke-linejoin="round"/>
    <path d="M 157.77389526367188 93.16465759277344 C 152.43191528320312 137.64244079589844 220.63548278808594 49.70555114746094 157.75161743164062 100.42019653320312" stroke-width="2" fill="none" stroke="rgb(0, 0, 0)" stroke-opacity="1.0" stroke-linecap="round" stroke-linejoin="round"/>
    <path d="M 123.0586166381836 111.805419921875 C 189.77159118652344 140.85482788085938 44.179473876953125 62.12360382080078 52.70113754272461 124.12326049804688" stroke-width="2" fill="none" stroke="rgb(0, 0, 0)" stroke-opacity="1.0" stroke-linecap="round" stroke-linejoin="round"/>
    <path d="M 57.318389892578125 108.71820831298828 C 105.46475982666016 76.36398315429688 -66.38119506835938 174.93890380859375 162.72003173828125 145.52272033691406" stroke-width="2" fill="none" stroke="rgb(0, 0, 0)" stroke-opacity="1.0" stroke-linecap="round" stroke-linejoin="round"/>
  </g>
</svg>
