<?xml version="1.0" ?>
<svg xmlns="http://www.w3.org/2000/svg" version="1.1" width="224" height="224">
  <defs/>
  <g>
    <path d="M 119.08771514892578 84.53923797607422 C 34.93333053588867 41.245452880859375 213.4840850830078 88.07203674316406 148.49005126953125 89.66876220703125" stroke-width="2" fill="none" stroke="rgb(0, 0, 0)" stroke-opacity="1.0" stroke-linecap="round" stroke-linejoin="round"/>
    <path d="M 114.59052276611328 94.62605285644531 C 157.66075134277344 100.09257507324219 55.956241607666016 24.795461654663086 119.17223358154297 96.91567993164062" stroke-width="2" fill="none" stroke="rgb(0, 0, 0)" stroke-opacity="1.0" stroke-linecap="round" stroke-linejoin="round"/>
    <path d="M 139.89569091796875 92.5796127319336 C 114.62017059326172 96.25782012939453 176.685546875 107.16566467285156 120.94929504394531 105.32010650634766" stroke-width="2" fill="none" stroke="rgb(0, 0, 0)" stroke-opacity="1.0" stroke-linecap="round" stroke-linejoin="round"/>
    <path d="M 101.82044982910156 126.34569549560547 C 104.65247344970703 158.05197143554688 210.25123596191406 159.7554168701172 113.89421844482422 140.89097595214844" stroke-width="2" fill="none" stroke="rgb(0, 0, 0)" stroke-opacity="1.0" stroke-linecap="round" stroke-linejoin="round"/>
    <path d="M 118.47959899902344 100.64739990234375 C 147.27561950683594 126.47762298583984 224.42559814453125 30.48694610595703 155.5789794921875 83.39884948730469" stroke-width="2" fill="none" stroke="rgb(0, 0, 0)" stroke-opacity="1.0" stroke-linecap="round" stroke-linejoin="round"/>
    <path d="M 183.0831298828125 126.07682800292969 C 231.87261962890625 148.5771942138672 23.322763442993164 86.7319107055664 161.1521759033203 70.26907348632812" stroke-width="2" fill="none" stroke="rgb(0, 0, 0)" stroke-opacity="1.0" stroke-linecap="round" stroke-linejoin="round"/>
    <path d="M 110.04338836669922 136.26222229003906 C 96.279052734375 129.8105010986328 199.69459533691406 139.9020538330078 151.3895263671875 138.75762939453125" stroke-width="2" fill="none" stroke="rgb(0, 0, 0)" stroke-opacity="1.0" stroke-linecap="round" stroke-linejoin="round"/>
    <path d="M 121.06654357910156 116.39506530761719 C 258.3763427734375 116.51487731933594 146.1351318359375 132.8704071044922 176.8463592529297 129.28651428222656" stroke-width="2" fill="none" stroke="rgb(0, 0, 0)" stroke-opacity="1.0" stroke-linecap="round" stroke-linejoin="round"/>
    <path d="M 76.09270477294922 132.5321807861328 C 79.08443450927734 151.94493103027344 165.75106811523438 137.42929077148438 160.48829650878906 155.0526885986328" stroke-width="2" fill="none" stroke="rgb(0, 0, 0)" stroke-opacity="1.0" stroke-linecap="round" stroke-linejoin="round"/>
    <path d="M 158.47369384765625 103.98461151123047 C 127.24067687988281 60.699893951416016 180.59320068359375 116.1939468383789 132.20773315429688 96.388916015625" stroke-width="2" fill="none" stroke="rgb(0, 0, 0)" stroke-opacity="1.0" stroke-linecap="round" stroke-linejoin="round"/>
    <path d="M 142.3330841064453 121.4959487915039 C 67.00923156738281 96.39938354492188 194.1172332763672 150.8927764892578 116.42166137695312 106.66328430175781" stroke-width="2" fill="none" stroke="rgb(0, 0, 0)" stroke-opacity="1.0" stroke-linecap="round" stroke-linejoin="round"/>
    <path d="M 177.1571502685547 117.56427764892578 C 116.36895751953125 112.79669952392578 189.67123413085938 97.45889282226562 164.29920959472656 99.87551879882812" stroke-width="2" fill="none" stroke="rgb(0, 0, 0)" stroke-opacity="1.0" stroke-linecap="round" stroke-linejoin="round"/>
    <path d="M 97.62177276611328 73.58562469482422 C 98.17107391357422 133.93809509277344 146.31723022460938 79.6941146850586 111.35291290283203 90.81910705566406" stroke-width="2" fill="none" stroke="rgb(0, 0, 0)" stroke-opacity="1.0" stroke-linecap="round" stroke-linejoin="round"/>
    <path d="M 157.3043212890625 105.22864532470703 C 152.62188720703125 83.83326721191406 206.05812072753906 24.609146118164062 174.86122131347656 103.56903839111328" stroke-width="2" fill="none" stroke="rgb(0, 0, 0)" stroke-opacity="1.0" stroke-linecap="round" stroke-linejoin="round"/>
    <path d="M 117.72969055175781 110.81182098388672 C 203.5798797607422 149.2144775390625 41.763458251953125 51.42381286621094 55.7958984375 120.12871551513672" stroke-width="2" fill="none" stroke="rgb(0, 0, 0)" stroke-opacity="1.0" stroke-linecap="round" stroke-linejoin="round"/>
    <path d="M 40.30825424194336 121.6141357421875 C 118.08541870117188 63.880455017089844 -59.87453079223633 164.3793487548828 138.73727416992188 146.82261657714844" stroke-width="2" fill="none" stroke="rgb(0, 0, 0)" stroke-opacity="1.0" stroke-linecap="round" stroke-linejoin="round"/>
  </g>
</svg>
