<?xml version="1.0" ?>
<svg xmlns="http://www.w3.org/2000/svg" version="1.1" width="224" height="224">
  <defs/>
  <g>
    <path d="M 133.75283813476562 115.49453735351562 C 20.72858428955078 70.8735580444336 260.6412048339844 78.216552734375 150.1605224609375 87.008056640625" stroke-width="2" fill="none" stroke="rgb(0, 0, 0)" stroke-opacity="1.0" stroke-linecap="round" stroke-linejoin="round"/>
    <path d="M 113.39458465576172 106.88804626464844 C 155.01271057128906 90.52151489257812 83.11467742919922 106.3762435913086 128.3021240234375 104.64430236816406" stroke-width="2" fill="none" stroke="rgb(0, 0, 0)" stroke-opacity="1.0" stroke-linecap="round" stroke-linejoin="round"/>
    <path d="M 93.1724853515625 154.67718505859375 C 90.20576477050781 145.1304931640625 67.7584457397461 150.6682586669922 102.42485046386719 155.52476501464844" stroke-width="2" fill="none" stroke="rgb(0, 0, 0)" stroke-opacity="1.0" stroke-linecap="round" stroke-linejoin="round"/>
    <path d="M 196.72125244140625 156.43226623535156 C 193.13015747070312 165.0136260986328 194.001953125 146.3022918701172 122.9380874633789 147.216796875" stroke-width="2" fill="none" stroke="rgb(0, 0, 0)" stroke-opacity="1.0" stroke-linecap="round" stroke-linejoin="round"/>
    <path d="M 110.50289916992188 110.25382995605469 C 106.42573547363281 164.03797912597656 235.93357849121094 75.03250885009766 125.17243957519531 91.12190246582031" stroke-width="2" fill="none" stroke="rgb(0, 0, 0)" stroke-opacity="1.0" stroke-linecap="round" stroke-linejoin="round"/>
    <path d="M 97.25977325439453 72.99343872070312 C 103.18544006347656 93.85808563232422 173.0972442626953 80.8687515258789 175.24781799316406 67.29155731201172" stroke-width="2" fill="none" stroke="rgb(0, 0, 0)" stroke-opacity="1.0" stroke-linecap="round" stroke-linejoin="round"/>
    <path d="M 64.50059509277344 135.435546875 C 77.35974884033203 176.6944580078125 235.3714141845703 132.88392639160156 185.52951049804688 156.40028381347656" stroke-width="2" fill="none" stroke="rgb(0, 0, 0)" stroke-opacity="1.0" stroke-linecap="round" stroke-linejoin="round"/>
    <path d="M 90.23047637939453 115.86006927490234 C 243.7041015625 147.24447631835938 108.38127899169922 109.85971069335938 152.41090393066406 116.0496597290039" stroke-width="2" fill="none" stroke="rgb(0, 0, 0)" stroke-opacity="1.0" stroke-linecap="round" stroke-linejoin="round"/>
    <path d="M 132.26165771484375 116.61064910888672 C -10.354513168334961 121.56501770019531 174.30955505371094 116.2570571899414 113.8013916015625 111.28367614746094" stroke-width="2" fill="none" stroke="rgb(0, 0, 0)" stroke-opacity="1.0" stroke-linecap="round" stroke-linejoin="round"/>
    <path d="M 184.23526000976562 60.085994720458984 C 139.34515380859375 96.84931945800781 236.17160034179688 8.847153663635254 154.5720977783203 108.2387466430664" stroke-width="2" fill="none" stroke="rgb(0, 0, 0)" stroke-opacity="1.0" stroke-linecap="round" stroke-linejoin="round"/>
    <path d="M 149.97998046875 138.04791259765625 C 149.24913024902344 124.3205337524414 199.07061767578125 170.4514923095703 170.7967529296875 147.50759887695312" stroke-width="2" fill="none" stroke="rgb(0, 0, 0)" stroke-opacity="1.0" stroke-linecap="round" stroke-linejoin="round"/>
    <path d="M 145.27426147460938 139.092529296875 C 286.28741455078125 152.2979278564453 73.66232299804688 149.63075256347656 108.6081314086914 145.05174255371094" stroke-width="2" fill="none" stroke="rgb(0, 0, 0)" stroke-opacity="1.0" stroke-linecap="round" stroke-linejoin="round"/>
    <path d="M 156.10617065429688 81.763427734375 C 107.6873779296875 105.67941284179688 179.46624755859375 113.77303314208984 97.83275604248047 68.81343841552734" stroke-width="2" fill="none" stroke="rgb(0, 0, 0)" stroke-opacity="1.0" stroke-linecap="round" stroke-linejoin="round"/>
    <path d="M 148.3491668701172 103.49159240722656 C 191.73516845703125 108.93595886230469 189.6352081298828 46.69161605834961 181.92640686035156 62.15850830078125" stroke-width="2" fill="none" stroke="rgb(0, 0, 0)" stroke-opacity="1.0" stroke-linecap="round" stroke-linejoin="round"/>
    <path d="M 97.76468658447266 78.72085571289062 C 135.62574768066406 118.69705963134766 45.745330810546875 71.3271255493164 48.199462890625 124.70115661621094" stroke-width="2" fill="none" stroke="rgb(0, 0, 0)" stroke-opacity="1.0" stroke-linecap="round" stroke-linejoin="round"/>
    <path d="M 65.38089752197266 99.08992004394531 C 56.43819046020508 110.33087158203125 0.28810960054397583 152.90623474121094 94.07100677490234 155.98196411132812" stroke-width="2" fill="none" stroke="rgb(0, 0, 0)" stroke-opacity="1.0" stroke-linecap="round" stroke-linejoin="round"/>
  </g>
</svg>
