<?xml version="1.0" ?>
<svg xmlns="http://www.w3.org/2000/svg" version="1.1" width="224" height="224">
  <defs/>
  <g>
    <path d="M 91.29405212402344 87.25338745117188 C 30.56796646118164 103.69800567626953 114.13783264160156 93.05795288085938 84.58573913574219 113.21221923828125" stroke-width="2" fill="none" stroke="rgb(0, 0, 0)" stroke-opacity="1.0" stroke-linecap="round" stroke-linejoin="round"/>
    <path d="M 104.06076049804688 142.72117614746094 C 156.43313598632812 112.00016021728516 119.20149230957031 155.09103393554688 94.729248046875 145.2791748046875" stroke-width="2" fill="none" stroke="rgb(0, 0, 0)" stroke-opacity="1.0" stroke-linecap="round" stroke-linejoin="round"/>
    <path d="M 157.70339965820312 122.9265365600586 C 89.38578796386719 129.51458740234375 55.85994338989258 114.25786590576172 95.94229888916016 128.24449157714844" stroke-width="2" fill="none" stroke="rgb(0, 0, 0)" stroke-opacity="1.0" stroke-linecap="round" stroke-linejoin="round"/>
    <path d="M 172.18336486816406 146.4765167236328 C 168.07644653320312 153.65606689453125 203.4901885986328 132.57763671875 122.53257751464844 129.055419921875" stroke-width="2" fill="none" stroke="rgb(0, 0, 0)" stroke-opacity="1.0" stroke-linecap="round" stroke-linejoin="round"/>
    <path d="M 104.81904602050781 128.52102661132812 C 131.8844451904297 105.09248352050781 154.9508514404297 114.42610168457031 102.97618103027344 65.40034484863281" stroke-width="2" fill="none" stroke="rgb(0, 0, 0)" stroke-opacity="1.0" stroke-linecap="round" stroke-linejoin="round"/>
    <path d="M 102.44132995605469 65.00979614257812 C 92.7923812866211 71.1290512084961 110.293212890625 116.7536849975586 99.96294403076172 96.84213256835938" stroke-width="2" fill="none" stroke="rgb(0, 0, 0)" stroke-opacity="1.0" stroke-linecap="round" stroke-linejoin="round"/>
    <path d="M 35.45221710205078 136.88011169433594 C 46.942195892333984 161.7564697265625 182.96685791015625 151.54295349121094 127.43234252929688 152.60044860839844" stroke-width="2" fill="none" stroke="rgb(0, 0, 0)" stroke-opacity="1.0" stroke-linecap="round" stroke-linejoin="round"/>
    <path d="M 164.2317352294922 145.1524658203125 C 146.35496520996094 115.72335052490234 88.5144271850586 164.13442993164062 116.9736099243164 110.65296173095703" stroke-width="2" fill="none" stroke="rgb(0, 0, 0)" stroke-opacity="1.0" stroke-linecap="round" stroke-linejoin="round"/>
    <path d="M 83.11178588867188 121.49600219726562 C 101.9131851196289 108.31058502197266 96.80314636230469 141.8978271484375 85.94564056396484 116.42214965820312" stroke-width="2" fill="none" stroke="rgb(0, 0, 0)" stroke-opacity="1.0" stroke-linecap="round" stroke-linejoin="round"/>
    <path d="M 175.61392211914062 85.4908676147461 C 170.0113067626953 32.431819915771484 209.89794921875 132.16822814941406 131.07643127441406 108.86663818359375" stroke-width="2" fill="none" stroke="rgb(0, 0, 0)" stroke-opacity="1.0" stroke-linecap="round" stroke-linejoin="round"/>
    <path d="M 164.13693237304688 149.0657501220703 C 188.8649444580078 136.572998046875 130.51856994628906 147.99917602539062 175.64378356933594 141.11619567871094" stroke-width="2" fill="none" stroke="rgb(0, 0, 0)" stroke-opacity="1.0" stroke-linecap="round" stroke-linejoin="round"/>
    <path d="M 62.054447174072266 132.00094604492188 C 121.20801544189453 168.67686462402344 61.30161666870117 129.58511352539062 87.52010345458984 141.1031494140625" stroke-width="2" fill="none" stroke="rgb(0, 0, 0)" stroke-opacity="1.0" stroke-linecap="round" stroke-linejoin="round"/>
    <path d="M 114.21035766601562 109.9479751586914 C 135.40805053710938 77.20951843261719 100.17369842529297 133.28759765625 104.30632781982422 67.07595825195312" stroke-width="2" fill="none" stroke="rgb(0, 0, 0)" stroke-opacity="1.0" stroke-linecap="round" stroke-linejoin="round"/>
    <path d="M 157.57669067382812 108.99164581298828 C 184.48843383789062 56.3273811340332 167.8347930908203 78.4102554321289 178.47274780273438 63.08208084106445" stroke-width="2" fill="none" stroke="rgb(0, 0, 0)" stroke-opacity="1.0" stroke-linecap="round" stroke-linejoin="round"/>
    <path d="M 94.23240661621094 110.50613403320312 C 62.963104248046875 119.67984008789062 81.68507385253906 71.25868225097656 39.209068298339844 122.27906036376953" stroke-width="2" fill="none" stroke="rgb(0, 0, 0)" stroke-opacity="1.0" stroke-linecap="round" stroke-linejoin="round"/>
    <path d="M 56.1806640625 122.83831024169922 C 57.50340270996094 105.80880737304688 29.303565979003906 121.3842544555664 33.19419860839844 139.00308227539062" stroke-width="2" fill="none" stroke="rgb(0, 0, 0)" stroke-opacity="1.0" stroke-linecap="round" stroke-linejoin="round"/>
  </g>
</svg>
