<?xml version="1.0" ?>
<svg xmlns="http://www.w3.org/2000/svg" version="1.1" width="224" height="224">
  <defs/>
  <g>
    <path d="M 148.04881286621094 87.63823699951172 C 82.46977233886719 59.368099212646484 187.7255401611328 97.17097473144531 157.35400390625 92.23116302490234" stroke-width="2" fill="none" stroke="rgb(0, 0, 0)" stroke-opacity="1.0" stroke-linecap="round" stroke-linejoin="round"/>
    <path d="M 102.58889770507812 86.9254379272461 C 147.43211364746094 139.39022827148438 57.49654006958008 31.903295516967773 120.73261260986328 84.90294647216797" stroke-width="2" fill="none" stroke="rgb(0, 0, 0)" stroke-opacity="1.0" stroke-linecap="round" stroke-linejoin="round"/>
    <path d="M 149.19139099121094 87.6776351928711 C 127.62152862548828 74.01738739013672 187.6468048095703 116.35490417480469 109.81983947753906 108.78356170654297" stroke-width="2" fill="none" stroke="rgb(0, 0, 0)" stroke-opacity="1.0" stroke-linecap="round" stroke-linejoin="round"/>
    <path d="M 133.46238708496094 132.55104064941406 C 105.98721313476562 135.94085693359375 210.39955139160156 157.2174835205078 168.9698486328125 154.53067016601562" stroke-width="2" fill="none" stroke="rgb(0, 0, 0)" stroke-opacity="1.0" stroke-linecap="round" stroke-linejoin="round"/>
    <path d="M 128.3800506591797 115.51580810546875 C 145.4661865234375 175.04873657226562 220.8905029296875 8.482614517211914 152.7766876220703 83.27255249023438" stroke-width="2" fill="none" stroke="rgb(0, 0, 0)" stroke-opacity="1.0" stroke-linecap="round" stroke-linejoin="round"/>
    <path d="M 168.3689422607422 155.57046508789062 C 238.02581787109375 144.86448669433594 20.049089431762695 100.11607360839844 153.6739501953125 75.93403625488281" stroke-width="2" fill="none" stroke="rgb(0, 0, 0)" stroke-opacity="1.0" stroke-linecap="round" stroke-linejoin="round"/>
    <path d="M 105.1578369140625 137.2823028564453 C 93.85140228271484 123.76275634765625 75.98468780517578 136.8547821044922 100.5339126586914 129.84019470214844" stroke-width="2" fill="none" stroke="rgb(0, 0, 0)" stroke-opacity="1.0" stroke-linecap="round" stroke-linejoin="round"/>
    <path d="M 164.50128173828125 153.2032470703125 C 178.03155517578125 132.8115997314453 92.99593353271484 144.0751953125 117.5942611694336 137.02188110351562" stroke-width="2" fill="none" stroke="rgb(0, 0, 0)" stroke-opacity="1.0" stroke-linecap="round" stroke-linejoin="round"/>
    <path d="M 65.1928482055664 131.59742736816406 C 67.28711700439453 158.32972717285156 179.8617706298828 153.61843872070312 153.18504333496094 152.33193969726562" stroke-width="2" fill="none" stroke="rgb(0, 0, 0)" stroke-opacity="1.0" stroke-linecap="round" stroke-linejoin="round"/>
    <path d="M 158.22096252441406 93.63196563720703 C 131.62545776367188 88.04036712646484 212.40357971191406 78.2765121459961 123.43362426757812 111.21479034423828" stroke-width="2" fill="none" stroke="rgb(0, 0, 0)" stroke-opacity="1.0" stroke-linecap="round" stroke-linejoin="round"/>
    <path d="M 163.82757568359375 108.88362884521484 C 147.48365783691406 117.6236801147461 159.9099884033203 102.9751205444336 151.20603942871094 135.74285888671875" stroke-width="2" fill="none" stroke="rgb(0, 0, 0)" stroke-opacity="1.0" stroke-linecap="round" stroke-linejoin="round"/>
    <path d="M 149.15248107910156 101.54051971435547 C 104.03726196289062 89.93705749511719 178.19891357421875 117.93798065185547 133.55569458007812 109.14763641357422" stroke-width="2" fill="none" stroke="rgb(0, 0, 0)" stroke-opacity="1.0" stroke-linecap="round" stroke-linejoin="round"/>
    <path d="M 99.68144989013672 71.2604751586914 C 102.93428039550781 123.51122283935547 138.5118408203125 86.4048080444336 104.05229949951172 90.9789047241211" stroke-width="2" fill="none" stroke="rgb(0, 0, 0)" stroke-opacity="1.0" stroke-linecap="round" stroke-linejoin="round"/>
    <path d="M 174.15020751953125 93.29096984863281 C 133.22715759277344 118.3338851928711 204.62179565429688 48.63051986694336 158.38067626953125 94.67595672607422" stroke-width="2" fill="none" stroke="rgb(0, 0, 0)" stroke-opacity="1.0" stroke-linecap="round" stroke-linejoin="round"/>
    <path d="M 133.67405700683594 100.61107635498047 C 190.8816680908203 147.7016143798828 40.13475036621094 51.27220916748047 52.64524841308594 125.35163879394531" stroke-width="2" fill="none" stroke="rgb(0, 0, 0)" stroke-opacity="1.0" stroke-linecap="round" stroke-linejoin="round"/>
    <path d="M 51.937740325927734 116.13251495361328 C 101.77323913574219 78.88990783691406 -54.03631591796875 175.39784240722656 142.11790466308594 144.96864318847656" stroke-width="2" fill="none" stroke="rgb(0, 0, 0)" stroke-opacity="1.0" stroke-linecap="round" stroke-linejoin="round"/>
  </g>
</svg>
