<?xml version="1.0" ?>
<svg xmlns="http://www.w3.org/2000/svg" version="1.1" width="224" height="224">
  <defs/>
  <g>
    <path d="M 100.1561508178711 95.42015838623047 C 34.92118453979492 98.21070861816406 88.35111999511719 94.28150939941406 77.13592529296875 116.60254669189453" stroke-width="2" fill="none" stroke="rgb(0, 0, 0)" stroke-opacity="1.0" stroke-linecap="round" stroke-linejoin="round"/>
    <path d="M 103.41816711425781 149.76112365722656 C 133.27001953125 105.06391906738281 118.58233642578125 152.93951416015625 99.60712432861328 143.4744415283203" stroke-width="2" fill="none" stroke="rgb(0, 0, 0)" stroke-opacity="1.0" stroke-linecap="round" stroke-linejoin="round"/>
    <path d="M 160.32708740234375 114.94332885742188 C 91.93914794921875 133.9298858642578 48.46504211425781 122.69242858886719 98.14189910888672 124.20159912109375" stroke-width="2" fill="none" stroke="rgb(0, 0, 0)" stroke-opacity="1.0" stroke-linecap="round" stroke-linejoin="round"/>
    <path d="M 164.3310546875 136.62159729003906 C 169.9059600830078 155.9381103515625 199.05804443359375 124.21304321289062 115.39383697509766 134.89601135253906" stroke-width="2" fill="none" stroke="rgb(0, 0, 0)" stroke-opacity="1.0" stroke-linecap="round" stroke-linejoin="round"/>
    <path d="M 109.69831848144531 120.57112884521484 C 130.7700958251953 107.70673370361328 138.6293487548828 111.66084289550781 104.7674331665039 68.02621459960938" stroke-width="2" fill="none" stroke="rgb(0, 0, 0)" stroke-opacity="1.0" stroke-linecap="round" stroke-linejoin="round"/>
    <path d="M 102.62545013427734 70.67267608642578 C 96.4847412109375 64.1955795288086 93.37245178222656 113.38818359375 96.60371398925781 103.94642639160156" stroke-width="2" fill="none" stroke="rgb(0, 0, 0)" stroke-opacity="1.0" stroke-linecap="round" stroke-linejoin="round"/>
    <path d="M 35.12218475341797 142.6667022705078 C 37.16938781738281 164.84288024902344 159.0913848876953 159.43556213378906 99.60318756103516 156.5476531982422" stroke-width="2" fill="none" stroke="rgb(0, 0, 0)" stroke-opacity="1.0" stroke-linecap="round" stroke-linejoin="round"/>
    <path d="M 160.60939025878906 142.23861694335938 C 141.63356018066406 116.73067474365234 100.30049133300781 167.764404296875 114.09661865234375 111.28890228271484" stroke-width="2" fill="none" stroke="rgb(0, 0, 0)" stroke-opacity="1.0" stroke-linecap="round" stroke-linejoin="round"/>
    <path d="M 79.60948944091797 129.8801727294922 C 105.99761962890625 103.73204040527344 93.42082977294922 147.29537963867188 91.47832489013672 120.55451965332031" stroke-width="2" fill="none" stroke="rgb(0, 0, 0)" stroke-opacity="1.0" stroke-linecap="round" stroke-linejoin="round"/>
    <path d="M 171.07400512695312 94.27210235595703 C 177.61021423339844 47.2291374206543 190.4967498779297 101.235595703125 132.21913146972656 93.39836883544922" stroke-width="2" fill="none" stroke="rgb(0, 0, 0)" stroke-opacity="1.0" stroke-linecap="round" stroke-linejoin="round"/>
    <path d="M 153.1903533935547 141.37774658203125 C 171.81521606445312 146.00802612304688 106.26371765136719 145.60134887695312 170.83029174804688 144.29513549804688" stroke-width="2" fill="none" stroke="rgb(0, 0, 0)" stroke-opacity="1.0" stroke-linecap="round" stroke-linejoin="round"/>
    <path d="M 76.33189392089844 141.3562774658203 C 119.59980010986328 165.9606170654297 53.54184341430664 132.050048828125 94.98747253417969 155.31298828125" stroke-width="2" fill="none" stroke="rgb(0, 0, 0)" stroke-opacity="1.0" stroke-linecap="round" stroke-linejoin="round"/>
    <path d="M 107.45484161376953 108.42564392089844 C 123.27064514160156 70.48361206054688 112.41065979003906 131.860107421875 104.02982330322266 71.41464233398438" stroke-width="2" fill="none" stroke="rgb(0, 0, 0)" stroke-opacity="1.0" stroke-linecap="round" stroke-linejoin="round"/>
    <path d="M 153.38198852539062 117.19036865234375 C 191.62220764160156 62.09028625488281 177.82717895507812 74.38324737548828 179.27479553222656 63.095035552978516" stroke-width="2" fill="none" stroke="rgb(0, 0, 0)" stroke-opacity="1.0" stroke-linecap="round" stroke-linejoin="round"/>
    <path d="M 85.95533752441406 107.48220825195312 C 70.91747283935547 114.26199340820312 74.94352722167969 77.586181640625 47.6566276550293 114.53634643554688" stroke-width="2" fill="none" stroke="rgb(0, 0, 0)" stroke-opacity="1.0" stroke-linecap="round" stroke-linejoin="round"/>
    <path d="M 37.28677749633789 123.14824676513672 C 46.58845138549805 113.65340423583984 27.994266510009766 124.37687683105469 31.345998764038086 139.4550323486328" stroke-width="2" fill="none" stroke="rgb(0, 0, 0)" stroke-opacity="1.0" stroke-linecap="round" stroke-linejoin="round"/>
  </g>
</svg>
