<?xml version="1.0" ?>
<svg xmlns="http://www.w3.org/2000/svg" version="1.1" width="224" height="224">
  <defs/>
  <g>
    <path d="M 112.13002014160156 105.93282318115234 C 35.859588623046875 20.33942985534668 192.77615356445312 115.84244537353516 161.39950561523438 93.20211029052734" stroke-width="2" fill="none" stroke="rgb(0, 0, 0)" stroke-opacity="1.0" stroke-linecap="round" stroke-linejoin="round"/>
    <path d="M 124.70984649658203 83.5953369140625 C 119.54630279541016 108.56867218017578 50.33753967285156 34.660667419433594 126.34437561035156 86.62212371826172" stroke-width="2" fill="none" stroke="rgb(0, 0, 0)" stroke-opacity="1.0" stroke-linecap="round" stroke-linejoin="round"/>
    <path d="M 139.8275909423828 97.3022689819336 C 157.3933868408203 130.71250915527344 93.377685546875 78.89503479003906 138.66920471191406 110.87529754638672" stroke-width="2" fill="none" stroke="rgb(0, 0, 0)" stroke-opacity="1.0" stroke-linecap="round" stroke-linejoin="round"/>
    <path d="M 38.520687103271484 122.80525970458984 C 55.6430778503418 162.1306915283203 178.66244506835938 141.30262756347656 106.97880554199219 127.19657135009766" stroke-width="2" fill="none" stroke="rgb(0, 0, 0)" stroke-opacity="1.0" stroke-linecap="round" stroke-linejoin="round"/>
    <path d="M 152.95986938476562 104.68408966064453 C 165.83929443359375 148.7167510986328 212.2053985595703 16.80643653869629 164.4673614501953 80.66680908203125" stroke-width="2" fill="none" stroke="rgb(0, 0, 0)" stroke-opacity="1.0" stroke-linecap="round" stroke-linejoin="round"/>
    <path d="M 97.73626708984375 85.26348876953125 C 131.7187957763672 127.84796905517578 91.73084259033203 73.5165023803711 162.37684631347656 80.69926452636719" stroke-width="2" fill="none" stroke="rgb(0, 0, 0)" stroke-opacity="1.0" stroke-linecap="round" stroke-linejoin="round"/>
    <path d="M 67.27323150634766 117.57140350341797 C 39.502437591552734 163.406005859375 242.78341674804688 140.62820434570312 141.57513427734375 133.33935546875" stroke-width="2" fill="none" stroke="rgb(0, 0, 0)" stroke-opacity="1.0" stroke-linecap="round" stroke-linejoin="round"/>
    <path d="M 123.17754364013672 103.83660888671875 C 231.01901245117188 122.4279556274414 33.61178207397461 115.94851684570312 97.54476165771484 113.97838592529297" stroke-width="2" fill="none" stroke="rgb(0, 0, 0)" stroke-opacity="1.0" stroke-linecap="round" stroke-linejoin="round"/>
    <path d="M 112.34551239013672 152.1277313232422 C -97.24235534667969 123.33024597167969 295.8152770996094 146.6152801513672 180.1431427001953 151.65145874023438" stroke-width="2" fill="none" stroke="rgb(0, 0, 0)" stroke-opacity="1.0" stroke-linecap="round" stroke-linejoin="round"/>
    <path d="M 150.3074951171875 89.94921112060547 C 138.01686096191406 123.33155822753906 180.97300720214844 99.48831939697266 131.63446044921875 106.54886627197266" stroke-width="2" fill="none" stroke="rgb(0, 0, 0)" stroke-opacity="1.0" stroke-linecap="round" stroke-linejoin="round"/>
    <path d="M 161.2579803466797 121.4140396118164 C 122.94964599609375 124.939453125 205.87229919433594 112.78170776367188 126.11005401611328 111.7518081665039" stroke-width="2" fill="none" stroke="rgb(0, 0, 0)" stroke-opacity="1.0" stroke-linecap="round" stroke-linejoin="round"/>
    <path d="M 161.24551391601562 138.1171112060547 C 63.49795150756836 103.1419448852539 210.5420379638672 88.54850006103516 153.4188232421875 92.5710220336914" stroke-width="2" fill="none" stroke="rgb(0, 0, 0)" stroke-opacity="1.0" stroke-linecap="round" stroke-linejoin="round"/>
    <path d="M 96.39530181884766 79.45079803466797 C 111.7514419555664 120.71697998046875 135.22836303710938 89.78294372558594 93.52214050292969 95.1688232421875" stroke-width="2" fill="none" stroke="rgb(0, 0, 0)" stroke-opacity="1.0" stroke-linecap="round" stroke-linejoin="round"/>
    <path d="M 148.6898651123047 90.32085418701172 C 188.8843231201172 79.05976104736328 195.81478881835938 68.29608917236328 161.00054931640625 98.78160858154297" stroke-width="2" fill="none" stroke="rgb(0, 0, 0)" stroke-opacity="1.0" stroke-linecap="round" stroke-linejoin="round"/>
    <path d="M 95.1519775390625 68.83765411376953 C 186.87106323242188 121.96902465820312 34.76200485229492 63.88159942626953 52.29218292236328 124.24942779541016" stroke-width="2" fill="none" stroke="rgb(0, 0, 0)" stroke-opacity="1.0" stroke-linecap="round" stroke-linejoin="round"/>
    <path d="M 41.3375129699707 120.41456604003906 C 114.03097534179688 51.955238342285156 -23.647775650024414 147.51734924316406 79.28763580322266 148.75015258789062" stroke-width="2" fill="none" stroke="rgb(0, 0, 0)" stroke-opacity="1.0" stroke-linecap="round" stroke-linejoin="round"/>
  </g>
</svg>
