<?xml version="1.0" ?>
<svg xmlns="http://www.w3.org/2000/svg" version="1.1" width="224" height="224">
  <defs/>
  <g>
    <path d="M 150.17604064941406 110.7296371459961 C 13.155574798583984 78.2154312133789 233.75437927246094 81.35858154296875 164.14874267578125 95.16462707519531" stroke-width="2" fill="none" stroke="rgb(0, 0, 0)" stroke-opacity="1.0" stroke-linecap="round" stroke-linejoin="round"/>
    <path d="M 139.39903259277344 110.92131042480469 C 174.70516967773438 93.44014739990234 85.91696166992188 124.11351776123047 133.32447814941406 103.87873840332031" stroke-width="2" fill="none" stroke="rgb(0, 0, 0)" stroke-opacity="1.0" stroke-linecap="round" stroke-linejoin="round"/>
    <path d="M 132.38912963867188 124.35225677490234 C 189.40191650390625 130.2361602783203 97.27268981933594 128.75009155273438 152.3053741455078 117.12761688232422" stroke-width="2" fill="none" stroke="rgb(0, 0, 0)" stroke-opacity="1.0" stroke-linecap="round" stroke-linejoin="round"/>
    <path d="M 114.25433349609375 124.63848876953125 C 113.68608856201172 163.33563232421875 157.80906677246094 131.21780395507812 153.87637329101562 141.11529541015625" stroke-width="2" fill="none" stroke="rgb(0, 0, 0)" stroke-opacity="1.0" stroke-linecap="round" stroke-linejoin="round"/>
    <path d="M 115.8698501586914 107.64920806884766 C 159.27639770507812 178.23403930664062 240.65345764160156 4.496311664581299 155.02996826171875 85.97760009765625" stroke-width="2" fill="none" stroke="rgb(0, 0, 0)" stroke-opacity="1.0" stroke-linecap="round" stroke-linejoin="round"/>
    <path d="M 98.73529815673828 76.01620483398438 C 114.05707550048828 128.14686584472656 136.23626708984375 63.865928649902344 154.7986297607422 93.0453872680664" stroke-width="2" fill="none" stroke="rgb(0, 0, 0)" stroke-opacity="1.0" stroke-linecap="round" stroke-linejoin="round"/>
    <path d="M 63.54513168334961 137.71119689941406 C 51.519683837890625 173.57460021972656 241.6809844970703 126.74095916748047 163.41525268554688 102.66796112060547" stroke-width="2" fill="none" stroke="rgb(0, 0, 0)" stroke-opacity="1.0" stroke-linecap="round" stroke-linejoin="round"/>
    <path d="M 139.75416564941406 115.08016204833984 C 324.2388610839844 94.86624908447266 57.709930419921875 132.30453491210938 148.89010620117188 122.70277404785156" stroke-width="2" fill="none" stroke="rgb(0, 0, 0)" stroke-opacity="1.0" stroke-linecap="round" stroke-linejoin="round"/>
    <path d="M 157.35498046875 152.8952178955078 C -49.806209564208984 124.77122497558594 270.60986328125 188.25254821777344 89.4461898803711 131.7998809814453" stroke-width="2" fill="none" stroke="rgb(0, 0, 0)" stroke-opacity="1.0" stroke-linecap="round" stroke-linejoin="round"/>
    <path d="M 170.95066833496094 108.64457702636719 C 124.32251739501953 114.92420196533203 203.91798400878906 90.7117691040039 160.66635131835938 107.31169891357422" stroke-width="2" fill="none" stroke="rgb(0, 0, 0)" stroke-opacity="1.0" stroke-linecap="round" stroke-linejoin="round"/>
    <path d="M 181.3046875 143.02914428710938 C 126.32379913330078 145.8766326904297 167.6132049560547 133.30833435058594 133.6353759765625 141.03756713867188" stroke-width="2" fill="none" stroke="rgb(0, 0, 0)" stroke-opacity="1.0" stroke-linecap="round" stroke-linejoin="round"/>
    <path d="M 167.11526489257812 96.58282470703125 C 142.06349182128906 111.3313217163086 212.7211151123047 104.78544616699219 159.42202758789062 95.82610321044922" stroke-width="2" fill="none" stroke="rgb(0, 0, 0)" stroke-opacity="1.0" stroke-linecap="round" stroke-linejoin="round"/>
    <path d="M 110.36217498779297 89.58843231201172 C 122.24415588378906 111.13556671142578 144.28927612304688 88.10177612304688 100.03468322753906 84.84223175048828" stroke-width="2" fill="none" stroke="rgb(0, 0, 0)" stroke-opacity="1.0" stroke-linecap="round" stroke-linejoin="round"/>
    <path d="M 155.49441528320312 89.82664489746094 C 151.48812866210938 95.27881622314453 223.85401916503906 52.27157211303711 164.84254455566406 101.50886535644531" stroke-width="2" fill="none" stroke="rgb(0, 0, 0)" stroke-opacity="1.0" stroke-linecap="round" stroke-linejoin="round"/>
    <path d="M 95.76880645751953 69.1065673828125 C 192.129638671875 126.6263198852539 46.82577896118164 61.05694580078125 49.202362060546875 121.03079223632812" stroke-width="2" fill="none" stroke="rgb(0, 0, 0)" stroke-opacity="1.0" stroke-linecap="round" stroke-linejoin="round"/>
    <path d="M 37.88758087158203 126.22203826904297 C 97.65044403076172 77.24412536621094 -32.15013885498047 154.9182891845703 98.54689025878906 151.25448608398438" stroke-width="2" fill="none" stroke="rgb(0, 0, 0)" stroke-opacity="1.0" stroke-linecap="round" stroke-linejoin="round"/>
  </g>
</svg>
