<?xml version="1.0" ?>
<svg xmlns="http://www.w3.org/2000/svg" version="1.1" width="224" height="224">
  <defs/>
  <g>
    <path d="M 114.768310546875 88.66577911376953 C 34.48540496826172 42.0115852355957 214.4464569091797 109.31353759765625 147.09536743164062 101.04937744140625" stroke-width="2" fill="none" stroke="rgb(0, 0, 0)" stroke-opacity="1.0" stroke-linecap="round" stroke-linejoin="round"/>
    <path d="M 101.16313934326172 75.79588317871094 C 159.57479858398438 129.79356384277344 54.20987319946289 21.489938735961914 115.5655517578125 101.5469741821289" stroke-width="2" fill="none" stroke="rgb(0, 0, 0)" stroke-opacity="1.0" stroke-linecap="round" stroke-linejoin="round"/>
    <path d="M 138.71206665039062 101.94664764404297 C 108.416748046875 95.29238891601562 199.57826232910156 136.81271362304688 118.62520599365234 110.07006072998047" stroke-width="2" fill="none" stroke="rgb(0, 0, 0)" stroke-opacity="1.0" stroke-linecap="round" stroke-linejoin="round"/>
    <path d="M 99.78782653808594 139.57522583007812 C 77.97605895996094 154.09429931640625 242.6787567138672 157.02487182617188 110.45001220703125 142.41580200195312" stroke-width="2" fill="none" stroke="rgb(0, 0, 0)" stroke-opacity="1.0" stroke-linecap="round" stroke-linejoin="round"/>
    <path d="M 147.21466064453125 111.14752960205078 C 156.349853515625 164.35975646972656 213.123046875 17.249906539916992 163.6229248046875 80.87301635742188" stroke-width="2" fill="none" stroke="rgb(0, 0, 0)" stroke-opacity="1.0" stroke-linecap="round" stroke-linejoin="round"/>
    <path d="M 176.48312377929688 136.1626434326172 C 222.1107940673828 155.1704559326172 16.58771324157715 92.65365600585938 161.09347534179688 78.50859069824219" stroke-width="2" fill="none" stroke="rgb(0, 0, 0)" stroke-opacity="1.0" stroke-linecap="round" stroke-linejoin="round"/>
    <path d="M 109.82894897460938 126.69341278076172 C 93.3984603881836 98.47480773925781 80.66568756103516 142.16323852539062 90.72144317626953 113.43931579589844" stroke-width="2" fill="none" stroke="rgb(0, 0, 0)" stroke-opacity="1.0" stroke-linecap="round" stroke-linejoin="round"/>
    <path d="M 157.8200225830078 144.66258239746094 C 202.8636016845703 150.96426391601562 125.54122161865234 145.91580200195312 148.51907348632812 151.14625549316406" stroke-width="2" fill="none" stroke="rgb(0, 0, 0)" stroke-opacity="1.0" stroke-linecap="round" stroke-linejoin="round"/>
    <path d="M 71.45307159423828 131.70281982421875 C 87.04600524902344 167.41934204101562 195.7452850341797 135.0050048828125 167.38006591796875 156.1959991455078" stroke-width="2" fill="none" stroke="rgb(0, 0, 0)" stroke-opacity="1.0" stroke-linecap="round" stroke-linejoin="round"/>
    <path d="M 173.01832580566406 90.47601318359375 C 134.01353454589844 91.32556915283203 180.3779296875 125.84546661376953 124.4980697631836 118.47711181640625" stroke-width="2" fill="none" stroke="rgb(0, 0, 0)" stroke-opacity="1.0" stroke-linecap="round" stroke-linejoin="round"/>
    <path d="M 166.09555053710938 104.00516510009766 C 41.084503173828125 132.6100616455078 156.1178436279297 89.64046478271484 152.435546875 120.60652923583984" stroke-width="2" fill="none" stroke="rgb(0, 0, 0)" stroke-opacity="1.0" stroke-linecap="round" stroke-linejoin="round"/>
    <path d="M 128.99285888671875 135.24667358398438 C 88.83438873291016 132.01626586914062 195.09982299804688 135.56744384765625 115.21477508544922 111.53728485107422" stroke-width="2" fill="none" stroke="rgb(0, 0, 0)" stroke-opacity="1.0" stroke-linecap="round" stroke-linejoin="round"/>
    <path d="M 103.24340057373047 80.78823852539062 C 99.8485107421875 117.772216796875 140.37841796875 81.31072998046875 112.41043853759766 108.42427825927734" stroke-width="2" fill="none" stroke="rgb(0, 0, 0)" stroke-opacity="1.0" stroke-linecap="round" stroke-linejoin="round"/>
    <path d="M 150.5093536376953 95.74652099609375 C 159.91217041015625 135.29905700683594 209.093994140625 28.133708953857422 163.3874969482422 96.684814453125" stroke-width="2" fill="none" stroke="rgb(0, 0, 0)" stroke-opacity="1.0" stroke-linecap="round" stroke-linejoin="round"/>
    <path d="M 124.99652862548828 120.30623626708984 C 195.34054565429688 139.71730041503906 49.99970245361328 61.381072998046875 46.98049545288086 122.48835754394531" stroke-width="2" fill="none" stroke="rgb(0, 0, 0)" stroke-opacity="1.0" stroke-linecap="round" stroke-linejoin="round"/>
    <path d="M 57.19818115234375 110.28043365478516 C 107.6881103515625 75.5829849243164 -64.40940856933594 165.93423461914062 144.9542236328125 151.0530548095703" stroke-width="2" fill="none" stroke="rgb(0, 0, 0)" stroke-opacity="1.0" stroke-linecap="round" stroke-linejoin="round"/>
  </g>
</svg>
