<?xml version="1.0" ?>
<svg xmlns="http://www.w3.org/2000/svg" version="1.1" width="224" height="224">
  <defs/>
  <g>
    <path d="M 162.99842834472656 110.33189392089844 C 19.152549743652344 76.44635009765625 246.71307373046875 82.52153015136719 164.17465209960938 89.166748046875" stroke-width="2" fill="none" stroke="rgb(0, 0, 0)" stroke-opacity="1.0" stroke-linecap="round" stroke-linejoin="round"/>
    <path d="M 133.25550842285156 104.22622680664062 C 189.79473876953125 103.52312469482422 121.05223083496094 90.96662902832031 153.48912048339844 102.76667785644531" stroke-width="2" fill="none" stroke="rgb(0, 0, 0)" stroke-opacity="1.0" stroke-linecap="round" stroke-linejoin="round"/>
    <path d="M 103.13016510009766 127.64543914794922 C 160.34996032714844 149.992919921875 78.3702163696289 107.65186309814453 110.1884765625 133.40139770507812" stroke-width="2" fill="none" stroke="rgb(0, 0, 0)" stroke-opacity="1.0" stroke-linecap="round" stroke-linejoin="round"/>
    <path d="M 157.0153045654297 152.765380859375 C 178.6136932373047 160.42446899414062 173.3670196533203 134.9613037109375 136.59742736816406 147.4292449951172" stroke-width="2" fill="none" stroke="rgb(0, 0, 0)" stroke-opacity="1.0" stroke-linecap="round" stroke-linejoin="round"/>
    <path d="M 118.46150207519531 106.63353729248047 C 168.9095916748047 172.26551818847656 229.38217163085938 20.517784118652344 175.40023803710938 91.72987365722656" stroke-width="2" fill="none" stroke="rgb(0, 0, 0)" stroke-opacity="1.0" stroke-linecap="round" stroke-linejoin="round"/>
    <path d="M 98.82948303222656 71.62653350830078 C 102.24131774902344 104.99752044677734 97.2331771850586 76.80109405517578 177.06723022460938 85.57246398925781" stroke-width="2" fill="none" stroke="rgb(0, 0, 0)" stroke-opacity="1.0" stroke-linecap="round" stroke-linejoin="round"/>
    <path d="M 52.759769439697266 141.09542846679688 C 58.40287399291992 167.33326721191406 223.9376983642578 146.60972595214844 198.9219970703125 142.38209533691406" stroke-width="2" fill="none" stroke="rgb(0, 0, 0)" stroke-opacity="1.0" stroke-linecap="round" stroke-linejoin="round"/>
    <path d="M 86.74853515625 115.13101196289062 C 325.068115234375 125.61734771728516 66.92249298095703 125.70838928222656 152.1776580810547 99.5509033203125" stroke-width="2" fill="none" stroke="rgb(0, 0, 0)" stroke-opacity="1.0" stroke-linecap="round" stroke-linejoin="round"/>
    <path d="M 163.607666015625 110.31107330322266 C -61.344581604003906 161.2585906982422 157.8087615966797 120.55859375 98.52388763427734 107.75314331054688" stroke-width="2" fill="none" stroke="rgb(0, 0, 0)" stroke-opacity="1.0" stroke-linecap="round" stroke-linejoin="round"/>
    <path d="M 178.94134521484375 76.14335632324219 C 159.25437927246094 108.75045013427734 207.32408142089844 18.45235824584961 168.44308471679688 101.43267822265625" stroke-width="2" fill="none" stroke="rgb(0, 0, 0)" stroke-opacity="1.0" stroke-linecap="round" stroke-linejoin="round"/>
    <path d="M 177.99913024902344 145.56753540039062 C 151.89854431152344 157.74655151367188 213.4303741455078 141.17042541503906 187.21307373046875 135.8013458251953" stroke-width="2" fill="none" stroke="rgb(0, 0, 0)" stroke-opacity="1.0" stroke-linecap="round" stroke-linejoin="round"/>
    <path d="M 166.5353240966797 137.70179748535156 C 248.4448699951172 123.75342559814453 120.8134765625 146.80902099609375 134.7802276611328 134.22145080566406" stroke-width="2" fill="none" stroke="rgb(0, 0, 0)" stroke-opacity="1.0" stroke-linecap="round" stroke-linejoin="round"/>
    <path d="M 142.92271423339844 79.7171630859375 C 107.50253295898438 106.89204406738281 166.85360717773438 99.80003356933594 95.11170196533203 67.4096908569336" stroke-width="2" fill="none" stroke="rgb(0, 0, 0)" stroke-opacity="1.0" stroke-linecap="round" stroke-linejoin="round"/>
    <path d="M 157.07110595703125 85.51583099365234 C 172.67259216308594 126.5604248046875 241.74609375 16.58452606201172 156.90321350097656 86.02860260009766" stroke-width="2" fill="none" stroke="rgb(0, 0, 0)" stroke-opacity="1.0" stroke-linecap="round" stroke-linejoin="round"/>
    <path d="M 99.61695098876953 70.45174407958984 C 165.814453125 122.47211456298828 50.89921569824219 65.54963684082031 49.658226013183594 120.13037109375" stroke-width="2" fill="none" stroke="rgb(0, 0, 0)" stroke-opacity="1.0" stroke-linecap="round" stroke-linejoin="round"/>
    <path d="M 32.13459014892578 130.55718994140625 C 71.52861785888672 84.339599609375 -16.414005279541016 161.03469848632812 84.07320404052734 155.35621643066406" stroke-width="2" fill="none" stroke="rgb(0, 0, 0)" stroke-opacity="1.0" stroke-linecap="round" stroke-linejoin="round"/>
  </g>
</svg>
