<?xml version="1.0" ?>
<svg xmlns="http://www.w3.org/2000/svg" version="1.1" width="224" height="224">
  <defs/>
  <g>
    <path d="M 118.56476593017578 87.31839752197266 C 46.0355339050293 39.974609375 202.7458953857422 95.56678771972656 155.3040771484375 86.7314682006836" stroke-width="2" fill="none" stroke="rgb(0, 0, 0)" stroke-opacity="1.0" stroke-linecap="round" stroke-linejoin="round"/>
    <path d="M 104.46047973632812 77.02295684814453 C 176.4367218017578 116.15625 51.33146667480469 18.30613136291504 115.53296661376953 90.43290710449219" stroke-width="2" fill="none" stroke="rgb(0, 0, 0)" stroke-opacity="1.0" stroke-linecap="round" stroke-linejoin="round"/>
    <path d="M 148.0401153564453 94.91841125488281 C 105.20101928710938 86.70771026611328 215.67958068847656 124.26758575439453 127.50423431396484 108.96138000488281" stroke-width="2" fill="none" stroke="rgb(0, 0, 0)" stroke-opacity="1.0" stroke-linecap="round" stroke-linejoin="round"/>
    <path d="M 116.4371566772461 141.1387176513672 C 87.18480682373047 143.2082977294922 249.29762268066406 171.6243133544922 125.89701080322266 132.31903076171875" stroke-width="2" fill="none" stroke="rgb(0, 0, 0)" stroke-opacity="1.0" stroke-linecap="round" stroke-linejoin="round"/>
    <path d="M 126.44525146484375 111.91279602050781 C 163.34872436523438 132.00921630859375 212.474609375 20.973764419555664 159.06907653808594 82.1375503540039" stroke-width="2" fill="none" stroke="rgb(0, 0, 0)" stroke-opacity="1.0" stroke-linecap="round" stroke-linejoin="round"/>
    <path d="M 188.29249572753906 130.081787109375 C 255.6814422607422 138.82920837402344 15.57166862487793 101.6175537109375 161.6016082763672 71.54869079589844" stroke-width="2" fill="none" stroke="rgb(0, 0, 0)" stroke-opacity="1.0" stroke-linecap="round" stroke-linejoin="round"/>
    <path d="M 131.26620483398438 130.5358428955078 C 96.0394058227539 109.39889526367188 140.8040771484375 133.6532745361328 118.20963287353516 119.3162841796875" stroke-width="2" fill="none" stroke="rgb(0, 0, 0)" stroke-opacity="1.0" stroke-linecap="round" stroke-linejoin="round"/>
    <path d="M 113.17721557617188 130.05419921875 C 249.2607421875 133.98422241210938 145.61585998535156 148.24549865722656 166.56993103027344 156.1159210205078" stroke-width="2" fill="none" stroke="rgb(0, 0, 0)" stroke-opacity="1.0" stroke-linecap="round" stroke-linejoin="round"/>
    <path d="M 68.34661102294922 127.83921813964844 C 91.72177124023438 168.81576538085938 208.8987274169922 125.65742492675781 184.5535430908203 148.63336181640625" stroke-width="2" fill="none" stroke="rgb(0, 0, 0)" stroke-opacity="1.0" stroke-linecap="round" stroke-linejoin="round"/>
    <path d="M 155.02333068847656 94.54096984863281 C 143.2310333251953 60.92462921142578 182.4141845703125 137.00953674316406 138.19778442382812 93.87464141845703" stroke-width="2" fill="none" stroke="rgb(0, 0, 0)" stroke-opacity="1.0" stroke-linecap="round" stroke-linejoin="round"/>
    <path d="M 173.48403930664062 96.5966567993164 C 56.26641845703125 117.67486572265625 201.46730041503906 112.85340881347656 148.36610412597656 120.45758819580078" stroke-width="2" fill="none" stroke="rgb(0, 0, 0)" stroke-opacity="1.0" stroke-linecap="round" stroke-linejoin="round"/>
    <path d="M 136.34326171875 112.28238677978516 C 120.67413330078125 93.02488708496094 184.92335510253906 105.53084564208984 131.71253967285156 113.75084686279297" stroke-width="2" fill="none" stroke="rgb(0, 0, 0)" stroke-opacity="1.0" stroke-linecap="round" stroke-linejoin="round"/>
    <path d="M 98.0391616821289 69.61756896972656 C 101.73907470703125 128.79180908203125 150.40155029296875 83.99054718017578 114.69213104248047 94.20787811279297" stroke-width="2" fill="none" stroke="rgb(0, 0, 0)" stroke-opacity="1.0" stroke-linecap="round" stroke-linejoin="round"/>
    <path d="M 150.14480590820312 111.00652313232422 C 154.6434326171875 95.7487564086914 205.56265258789062 15.088248252868652 170.6498260498047 104.76121520996094" stroke-width="2" fill="none" stroke="rgb(0, 0, 0)" stroke-opacity="1.0" stroke-linecap="round" stroke-linejoin="round"/>
    <path d="M 129.62701416015625 101.85694122314453 C 209.559326171875 149.0958251953125 49.0519905090332 52.30030822753906 52.031471252441406 119.64541625976562" stroke-width="2" fill="none" stroke="rgb(0, 0, 0)" stroke-opacity="1.0" stroke-linecap="round" stroke-linejoin="round"/>
    <path d="M 38.67201232910156 125.87017059326172 C 118.23756408691406 70.33386993408203 -64.53239440917969 166.09347534179688 138.4962921142578 146.19654846191406" stroke-width="2" fill="none" stroke="rgb(0, 0, 0)" stroke-opacity="1.0" stroke-linecap="round" stroke-linejoin="round"/>
  </g>
</svg>
