<?xml version="1.0" ?>
<svg xmlns="http://www.w3.org/2000/svg" version="1.1" width="224" height="224">
  <defs/>
  <g>
    <path d="M 114.96987915039062 110.44580841064453 C 31.348705291748047 22.082826614379883 206.4850616455078 110.45783233642578 158.06556701660156 95.6758041381836" stroke-width="2" fill="none" stroke="rgb(0, 0, 0)" stroke-opacity="1.0" stroke-linecap="round" stroke-linejoin="round"/>
    <path d="M 123.2678451538086 86.29076385498047 C 112.75898742675781 99.3861312866211 53.91982650756836 39.8987922668457 114.71869659423828 93.55943298339844" stroke-width="2" fill="none" stroke="rgb(0, 0, 0)" stroke-opacity="1.0" stroke-linecap="round" stroke-linejoin="round"/>
    <path d="M 147.36538696289062 107.72681427001953 C 140.28317260742188 134.7222137451172 124.49601745605469 88.66365814208984 144.7554473876953 116.86358642578125" stroke-width="2" fill="none" stroke="rgb(0, 0, 0)" stroke-opacity="1.0" stroke-linecap="round" stroke-linejoin="round"/>
    <path d="M 42.454994201660156 130.45262145996094 C 49.605464935302734 166.12069702148438 188.59788513183594 148.43795776367188 83.23009490966797 145.44406127929688" stroke-width="2" fill="none" stroke="rgb(0, 0, 0)" stroke-opacity="1.0" stroke-linecap="round" stroke-linejoin="round"/>
    <path d="M 160.94296264648438 104.30370330810547 C 145.05783081054688 146.13304138183594 219.3327178955078 20.4676570892334 164.219482421875 77.67169952392578" stroke-width="2" fill="none" stroke="rgb(0, 0, 0)" stroke-opacity="1.0" stroke-linecap="round" stroke-linejoin="round"/>
    <path d="M 103.19127655029297 93.18023681640625 C 135.7640838623047 126.05205535888672 83.22674560546875 80.16830444335938 166.02012634277344 80.10065460205078" stroke-width="2" fill="none" stroke="rgb(0, 0, 0)" stroke-opacity="1.0" stroke-linecap="round" stroke-linejoin="round"/>
    <path d="M 70.58381652832031 130.2493438720703 C 38.80078125 154.67942810058594 273.2648010253906 158.0960235595703 132.71055603027344 137.30227661132812" stroke-width="2" fill="none" stroke="rgb(0, 0, 0)" stroke-opacity="1.0" stroke-linecap="round" stroke-linejoin="round"/>
    <path d="M 121.18204498291016 116.5281753540039 C 235.10305786132812 136.4851531982422 49.77326583862305 113.7712631225586 102.06317901611328 114.48294067382812" stroke-width="2" fill="none" stroke="rgb(0, 0, 0)" stroke-opacity="1.0" stroke-linecap="round" stroke-linejoin="round"/>
    <path d="M 90.49740600585938 156.59878540039062 C -42.68580627441406 142.5615692138672 258.8697204589844 151.51480102539062 160.15460205078125 131.5540008544922" stroke-width="2" fill="none" stroke="rgb(0, 0, 0)" stroke-opacity="1.0" stroke-linecap="round" stroke-linejoin="round"/>
    <path d="M 153.12985229492188 89.3609848022461 C 150.7007598876953 117.59442901611328 194.09725952148438 104.697509765625 122.62802124023438 112.63495635986328" stroke-width="2" fill="none" stroke="rgb(0, 0, 0)" stroke-opacity="1.0" stroke-linecap="round" stroke-linejoin="round"/>
    <path d="M 166.83560180664062 131.8684844970703 C 106.73599243164062 128.9064483642578 186.51133728027344 124.33203887939453 117.95753479003906 119.34616088867188" stroke-width="2" fill="none" stroke="rgb(0, 0, 0)" stroke-opacity="1.0" stroke-linecap="round" stroke-linejoin="round"/>
    <path d="M 132.70291137695312 140.38967895507812 C 60.0406494140625 109.03288269042969 217.4637908935547 110.27494812011719 152.2357635498047 101.89879608154297" stroke-width="2" fill="none" stroke="rgb(0, 0, 0)" stroke-opacity="1.0" stroke-linecap="round" stroke-linejoin="round"/>
    <path d="M 99.9493637084961 76.59136962890625 C 109.30302429199219 122.92515563964844 131.01797485351562 101.62528991699219 104.58901977539062 95.96993255615234" stroke-width="2" fill="none" stroke="rgb(0, 0, 0)" stroke-opacity="1.0" stroke-linecap="round" stroke-linejoin="round"/>
    <path d="M 148.36680603027344 94.68623352050781 C 184.56724548339844 80.69278717041016 191.23587036132812 58.37118148803711 176.93609619140625 99.35678100585938" stroke-width="2" fill="none" stroke="rgb(0, 0, 0)" stroke-opacity="1.0" stroke-linecap="round" stroke-linejoin="round"/>
    <path d="M 104.7420425415039 70.44538879394531 C 178.59149169921875 121.12381744384766 28.967863082885742 60.91862106323242 52.62880325317383 120.93743133544922" stroke-width="2" fill="none" stroke="rgb(0, 0, 0)" stroke-opacity="1.0" stroke-linecap="round" stroke-linejoin="round"/>
    <path d="M 40.26624298095703 119.26809692382812 C 99.3721923828125 51.69953536987305 -20.207080841064453 151.39254760742188 87.35307312011719 155.06005859375" stroke-width="2" fill="none" stroke="rgb(0, 0, 0)" stroke-opacity="1.0" stroke-linecap="round" stroke-linejoin="round"/>
  </g>
</svg>
