<?xml version="1.0" ?>
<svg xmlns="http://www.w3.org/2000/svg" version="1.1" width="224" height="224">
  <defs/>
  <g>
    <path d="M 148.55453491210938 115.21286010742188 C 2.350506544113159 54.83760070800781 227.2565155029297 80.56301879882812 161.34664916992188 88.47318267822266" stroke-width="2" fill="none" stroke="rgb(0, 0, 0)" stroke-opacity="1.0" stroke-linecap="round" stroke-linejoin="round"/>
    <path d="M 108.05206298828125 96.17572021484375 C 103.59864044189453 80.48753356933594 79.208251953125 93.85957336425781 121.7096176147461 102.70243835449219" stroke-width="2" fill="none" stroke="rgb(0, 0, 0)" stroke-opacity="1.0" stroke-linecap="round" stroke-linejoin="round"/>
    <path d="M 135.01588439941406 127.23091125488281 C 181.3735809326172 115.69878387451172 94.86272430419922 85.95567321777344 150.84214782714844 111.94652557373047" stroke-width="2" fill="none" stroke="rgb(0, 0, 0)" stroke-opacity="1.0" stroke-linecap="round" stroke-linejoin="round"/>
    <path d="M 67.52542114257812 142.5296173095703 C 90.41869354248047 170.22267150878906 165.71343994140625 143.6600799560547 88.58316040039062 141.56918334960938" stroke-width="2" fill="none" stroke="rgb(0, 0, 0)" stroke-opacity="1.0" stroke-linecap="round" stroke-linejoin="round"/>
    <path d="M 118.3088607788086 96.15580749511719 C 155.88418579101562 165.33399963378906 230.47703552246094 3.775510787963867 150.8798828125 85.95494842529297" stroke-width="2" fill="none" stroke="rgb(0, 0, 0)" stroke-opacity="1.0" stroke-linecap="round" stroke-linejoin="round"/>
    <path d="M 95.16108703613281 66.80142211914062 C 121.8271484375 129.65843200683594 136.24461364746094 43.02629852294922 153.00550842285156 87.27571105957031" stroke-width="2" fill="none" stroke="rgb(0, 0, 0)" stroke-opacity="1.0" stroke-linecap="round" stroke-linejoin="round"/>
    <path d="M 77.91693115234375 119.23236083984375 C 69.18737030029297 182.6820068359375 274.79693603515625 82.87653350830078 144.0716552734375 97.15569305419922" stroke-width="2" fill="none" stroke="rgb(0, 0, 0)" stroke-opacity="1.0" stroke-linecap="round" stroke-linejoin="round"/>
    <path d="M 133.3013153076172 109.11489868164062 C 301.28448486328125 86.81665802001953 52.08046340942383 112.47502136230469 109.56166076660156 110.30033874511719" stroke-width="2" fill="none" stroke="rgb(0, 0, 0)" stroke-opacity="1.0" stroke-linecap="round" stroke-linejoin="round"/>
    <path d="M 177.21092224121094 141.56884765625 C -49.64472198486328 115.23636627197266 341.7600402832031 180.66250610351562 180.46194458007812 128.0689239501953" stroke-width="2" fill="none" stroke="rgb(0, 0, 0)" stroke-opacity="1.0" stroke-linecap="round" stroke-linejoin="round"/>
    <path d="M 156.73333740234375 91.18367767333984 C 128.66119384765625 75.669189453125 176.7667694091797 79.28347778320312 140.42318725585938 112.2045669555664" stroke-width="2" fill="none" stroke="rgb(0, 0, 0)" stroke-opacity="1.0" stroke-linecap="round" stroke-linejoin="round"/>
    <path d="M 157.42047119140625 134.52870178222656 C 102.16606140136719 103.48485565185547 175.3798828125 130.73890686035156 132.0239715576172 126.59105682373047" stroke-width="2" fill="none" stroke="rgb(0, 0, 0)" stroke-opacity="1.0" stroke-linecap="round" stroke-linejoin="round"/>
    <path d="M 164.23960876464844 95.752197265625 C 99.9395751953125 140.27662658691406 165.31309509277344 81.59355926513672 117.01571655273438 108.81380462646484" stroke-width="2" fill="none" stroke="rgb(0, 0, 0)" stroke-opacity="1.0" stroke-linecap="round" stroke-linejoin="round"/>
    <path d="M 92.91891479492188 66.91281127929688 C 103.43379211425781 106.06661987304688 156.9793243408203 99.92231750488281 102.4115982055664 72.96812438964844" stroke-width="2" fill="none" stroke="rgb(0, 0, 0)" stroke-opacity="1.0" stroke-linecap="round" stroke-linejoin="round"/>
    <path d="M 149.30140686035156 84.5058364868164 C 166.70697021484375 81.04975891113281 207.42739868164062 29.410249710083008 173.55276489257812 84.3565673828125" stroke-width="2" fill="none" stroke="rgb(0, 0, 0)" stroke-opacity="1.0" stroke-linecap="round" stroke-linejoin="round"/>
    <path d="M 98.8216323852539 68.60165405273438 C 190.65878295898438 116.08068084716797 37.73387908935547 58.70863342285156 51.37216567993164 121.31910705566406" stroke-width="2" fill="none" stroke="rgb(0, 0, 0)" stroke-opacity="1.0" stroke-linecap="round" stroke-linejoin="round"/>
    <path d="M 43.12036895751953 121.55228424072266 C 117.53600311279297 64.10614776611328 -51.05466079711914 163.23655700683594 134.78964233398438 151.97647094726562" stroke-width="2" fill="none" stroke="rgb(0, 0, 0)" stroke-opacity="1.0" stroke-linecap="round" stroke-linejoin="round"/>
  </g>
</svg>
