<?xml version="1.0" ?>
<svg xmlns="http://www.w3.org/2000/svg" version="1.1" width="224" height="224">
  <defs/>
  <g>
    <path d="M 142.38377380371094 129.518798828125 C 23.29762077331543 59.022239685058594 241.68809509277344 76.02067565917969 161.58311462402344 87.468017578125" stroke-width="2" fill="none" stroke="rgb(0, 0, 0)" stroke-opacity="1.0" stroke-linecap="round" stroke-linejoin="round"/>
    <path d="M 113.68467712402344 107.34333801269531 C 139.09942626953125 109.55276489257812 86.65670013427734 97.4306640625 108.19252014160156 103.31978607177734" stroke-width="2" fill="none" stroke="rgb(0, 0, 0)" stroke-opacity="1.0" stroke-linecap="round" stroke-linejoin="round"/>
    <path d="M 133.16622924804688 126.14293670654297 C 160.31982421875 116.1043472290039 97.26251220703125 91.49449920654297 145.68582153320312 111.81028747558594" stroke-width="2" fill="none" stroke="rgb(0, 0, 0)" stroke-opacity="1.0" stroke-linecap="round" stroke-linejoin="round"/>
    <path d="M 70.93144226074219 132.07998657226562 C 70.95109558105469 157.44540405273438 120.51644897460938 134.7514190673828 108.30955505371094 154.1513671875" stroke-width="2" fill="none" stroke="rgb(0, 0, 0)" stroke-opacity="1.0" stroke-linecap="round" stroke-linejoin="round"/>
    <path d="M 113.6942138671875 103.3334732055664 C 127.7232437133789 163.7582244873047 238.85853576660156 8.645495414733887 152.30035400390625 80.38307189941406" stroke-width="2" fill="none" stroke="rgb(0, 0, 0)" stroke-opacity="1.0" stroke-linecap="round" stroke-linejoin="round"/>
    <path d="M 97.74278259277344 69.67401885986328 C 103.880859375 134.5626678466797 135.7469940185547 43.64246368408203 155.38104248046875 91.94197845458984" stroke-width="2" fill="none" stroke="rgb(0, 0, 0)" stroke-opacity="1.0" stroke-linecap="round" stroke-linejoin="round"/>
    <path d="M 105.59878540039062 123.19032287597656 C 99.21784210205078 166.72830200195312 272.6061706542969 81.78485870361328 147.07899475097656 105.19676971435547" stroke-width="2" fill="none" stroke="rgb(0, 0, 0)" stroke-opacity="1.0" stroke-linecap="round" stroke-linejoin="round"/>
    <path d="M 123.1549301147461 113.53076934814453 C 336.3514709472656 82.10049438476562 74.89275360107422 121.3404769897461 119.70606994628906 119.8542251586914" stroke-width="2" fill="none" stroke="rgb(0, 0, 0)" stroke-opacity="1.0" stroke-linecap="round" stroke-linejoin="round"/>
    <path d="M 157.017333984375 143.84976196289062 C -64.15492248535156 111.9265365600586 325.3302917480469 204.3619842529297 147.23379516601562 148.35020446777344" stroke-width="2" fill="none" stroke="rgb(0, 0, 0)" stroke-opacity="1.0" stroke-linecap="round" stroke-linejoin="round"/>
    <path d="M 151.52340698242188 94.19894409179688 C 104.23806762695312 85.0079574584961 187.70677185058594 107.644775390625 157.72366333007812 117.85279846191406" stroke-width="2" fill="none" stroke="rgb(0, 0, 0)" stroke-opacity="1.0" stroke-linecap="round" stroke-linejoin="round"/>
    <path d="M 164.2864990234375 133.0039520263672 C 80.10888671875 116.64081573486328 162.01100158691406 118.37876892089844 129.6071319580078 126.07035064697266" stroke-width="2" fill="none" stroke="rgb(0, 0, 0)" stroke-opacity="1.0" stroke-linecap="round" stroke-linejoin="round"/>
    <path d="M 164.63552856445312 102.2987060546875 C 99.64913940429688 139.31527709960938 140.56285095214844 103.53262329101562 114.39997100830078 118.48487854003906" stroke-width="2" fill="none" stroke="rgb(0, 0, 0)" stroke-opacity="1.0" stroke-linecap="round" stroke-linejoin="round"/>
    <path d="M 99.55403900146484 74.30261993408203 C 105.6129150390625 106.50300598144531 163.32061767578125 90.23001098632812 103.26873016357422 83.2791976928711" stroke-width="2" fill="none" stroke="rgb(0, 0, 0)" stroke-opacity="1.0" stroke-linecap="round" stroke-linejoin="round"/>
    <path d="M 158.7010498046875 81.97781372070312 C 174.91973876953125 91.44869232177734 200.31094360351562 30.443737030029297 178.49195861816406 85.06189727783203" stroke-width="2" fill="none" stroke="rgb(0, 0, 0)" stroke-opacity="1.0" stroke-linecap="round" stroke-linejoin="round"/>
    <path d="M 94.00421142578125 65.81271362304688 C 182.70225524902344 119.71068572998047 49.46217346191406 60.51103973388672 57.19810104370117 114.12765502929688" stroke-width="2" fill="none" stroke="rgb(0, 0, 0)" stroke-opacity="1.0" stroke-linecap="round" stroke-linejoin="round"/>
    <path d="M 39.06190872192383 124.4678726196289 C 102.71041870117188 64.154541015625 -43.3902473449707 168.38345336914062 132.551025390625 150.91351318359375" stroke-width="2" fill="none" stroke="rgb(0, 0, 0)" stroke-opacity="1.0" stroke-linecap="round" stroke-linejoin="round"/>
  </g>
</svg>
