<?xml version="1.0" ?>
<svg xmlns="http://www.w3.org/2000/svg" version="1.1" width="224" height="224">
  <defs/>
  <g>
    <path d="M 121.86875915527344 106.61568450927734 C 31.513362884521484 25.279870986938477 223.65919494628906 103.31865692138672 151.56080627441406 110.44824981689453" stroke-width="2" fill="none" stroke="rgb(0, 0, 0)" stroke-opacity="1.0" stroke-linecap="round" stroke-linejoin="round"/>
    <path d="M 119.74366760253906 77.52095794677734 C 110.22762298583984 87.8569564819336 72.61751556396484 39.787437438964844 122.38040924072266 86.17190551757812" stroke-width="2" fill="none" stroke="rgb(0, 0, 0)" stroke-opacity="1.0" stroke-linecap="round" stroke-linejoin="round"/>
    <path d="M 146.35154724121094 99.01346588134766 C 127.71363067626953 111.00370788574219 135.7499237060547 86.89237213134766 158.23593139648438 113.35741424560547" stroke-width="2" fill="none" stroke="rgb(0, 0, 0)" stroke-opacity="1.0" stroke-linecap="round" stroke-linejoin="round"/>
    <path d="M 67.43907165527344 134.64154052734375 C 67.44192504882812 163.5726318359375 192.93048095703125 133.4411163330078 92.41488647460938 136.4598388671875" stroke-width="2" fill="none" stroke="rgb(0, 0, 0)" stroke-opacity="1.0" stroke-linecap="round" stroke-linejoin="round"/>
    <path d="M 170.70919799804688 120.41146087646484 C 138.50672912597656 160.1141357421875 230.29103088378906 17.603200912475586 158.65884399414062 80.8006362915039" stroke-width="2" fill="none" stroke="rgb(0, 0, 0)" stroke-opacity="1.0" stroke-linecap="round" stroke-linejoin="round"/>
    <path d="M 102.76949310302734 95.86001586914062 C 152.83486938476562 121.05970764160156 89.21372985839844 79.37939453125 168.09109497070312 80.1251449584961" stroke-width="2" fill="none" stroke="rgb(0, 0, 0)" stroke-opacity="1.0" stroke-linecap="round" stroke-linejoin="round"/>
    <path d="M 114.597412109375 132.2428741455078 C 84.09391021728516 137.845458984375 287.9820251464844 182.7108612060547 145.17196655273438 137.2742156982422" stroke-width="2" fill="none" stroke="rgb(0, 0, 0)" stroke-opacity="1.0" stroke-linecap="round" stroke-linejoin="round"/>
    <path d="M 124.07398986816406 117.95480346679688 C 243.57582092285156 154.60516357421875 80.0793685913086 107.21449279785156 116.49458312988281 110.55915069580078" stroke-width="2" fill="none" stroke="rgb(0, 0, 0)" stroke-opacity="1.0" stroke-linecap="round" stroke-linejoin="round"/>
    <path d="M 110.2442626953125 153.47361755371094 C -22.066194534301758 142.23504638671875 251.651123046875 158.03433227539062 203.10157775878906 151.45053100585938" stroke-width="2" fill="none" stroke="rgb(0, 0, 0)" stroke-opacity="1.0" stroke-linecap="round" stroke-linejoin="round"/>
    <path d="M 158.92515563964844 96.45734405517578 C 153.81796264648438 106.46553039550781 186.86607360839844 107.95368194580078 137.10020446777344 103.90611267089844" stroke-width="2" fill="none" stroke="rgb(0, 0, 0)" stroke-opacity="1.0" stroke-linecap="round" stroke-linejoin="round"/>
    <path d="M 154.74234008789062 124.64073944091797 C 105.52059936523438 118.44478607177734 176.77786254882812 152.76084899902344 122.26847076416016 108.91688537597656" stroke-width="2" fill="none" stroke="rgb(0, 0, 0)" stroke-opacity="1.0" stroke-linecap="round" stroke-linejoin="round"/>
    <path d="M 130.10391235351562 124.99275207519531 C 92.30441284179688 104.0946273803711 200.1047821044922 103.91219329833984 156.1383514404297 97.73460388183594" stroke-width="2" fill="none" stroke="rgb(0, 0, 0)" stroke-opacity="1.0" stroke-linecap="round" stroke-linejoin="round"/>
    <path d="M 100.17546081542969 82.36158752441406 C 102.03755187988281 108.32107543945312 141.8710174560547 103.34146881103516 100.58403015136719 94.07088470458984" stroke-width="2" fill="none" stroke="rgb(0, 0, 0)" stroke-opacity="1.0" stroke-linecap="round" stroke-linejoin="round"/>
    <path d="M 156.14442443847656 91.87033081054688 C 180.46087646484375 95.36610412597656 179.95887756347656 58.971527099609375 173.46173095703125 93.42658233642578" stroke-width="2" fill="none" stroke="rgb(0, 0, 0)" stroke-opacity="1.0" stroke-linecap="round" stroke-linejoin="round"/>
    <path d="M 104.13050079345703 71.15715026855469 C 197.1724853515625 115.5960922241211 28.278106689453125 71.74911499023438 51.181236267089844 122.16736602783203" stroke-width="2" fill="none" stroke="rgb(0, 0, 0)" stroke-opacity="1.0" stroke-linecap="round" stroke-linejoin="round"/>
    <path d="M 37.685401916503906 124.94376373291016 C 88.09970092773438 70.37346649169922 -12.654800415039062 144.1995086669922 83.83856964111328 152.64976501464844" stroke-width="2" fill="none" stroke="rgb(0, 0, 0)" stroke-opacity="1.0" stroke-linecap="round" stroke-linejoin="round"/>
  </g>
</svg>
