<?xml version="1.0" ?>
<svg xmlns="http://www.w3.org/2000/svg" version="1.1" width="224" height="224">
  <defs/>
  <g>
    <path d="M 120.90471649169922 85.35431671142578 C 40.071102142333984 48.552974700927734 208.3802032470703 92.75418853759766 152.223388671875 89.98768615722656" stroke-width="2" fill="none" stroke="rgb(0, 0, 0)" stroke-opacity="1.0" stroke-linecap="round" stroke-linejoin="round"/>
    <path d="M 101.06104278564453 74.37173461914062 C 164.01844787597656 117.18505096435547 56.99192810058594 20.041126251220703 111.17322540283203 87.63508605957031" stroke-width="2" fill="none" stroke="rgb(0, 0, 0)" stroke-opacity="1.0" stroke-linecap="round" stroke-linejoin="round"/>
    <path d="M 141.81494140625 95.7723159790039 C 99.29936981201172 91.06314086914062 226.57989501953125 124.17213439941406 115.14862060546875 116.20198059082031" stroke-width="2" fill="none" stroke="rgb(0, 0, 0)" stroke-opacity="1.0" stroke-linecap="round" stroke-linejoin="round"/>
    <path d="M 113.31598663330078 137.91677856445312 C 87.11166381835938 143.1230010986328 251.53134155273438 173.21737670898438 122.75635528564453 132.52064514160156" stroke-width="2" fill="none" stroke="rgb(0, 0, 0)" stroke-opacity="1.0" stroke-linecap="round" stroke-linejoin="round"/>
    <path d="M 129.86524963378906 112.64513397216797 C 164.1296844482422 126.30386352539062 218.86077880859375 22.529298782348633 156.17742919921875 80.98666381835938" stroke-width="2" fill="none" stroke="rgb(0, 0, 0)" stroke-opacity="1.0" stroke-linecap="round" stroke-linejoin="round"/>
    <path d="M 194.06053161621094 143.41497802734375 C 251.63092041015625 144.8640594482422 13.91459846496582 94.11927032470703 157.23379516601562 74.11324310302734" stroke-width="2" fill="none" stroke="rgb(0, 0, 0)" stroke-opacity="1.0" stroke-linecap="round" stroke-linejoin="round"/>
    <path d="M 129.2672576904297 129.31813049316406 C 122.3455810546875 105.43292236328125 137.50601196289062 136.11923217773438 127.76130676269531 128.51527404785156" stroke-width="2" fill="none" stroke="rgb(0, 0, 0)" stroke-opacity="1.0" stroke-linecap="round" stroke-linejoin="round"/>
    <path d="M 123.88377380371094 135.0026397705078 C 232.32557678222656 143.4980010986328 135.87281799316406 155.8577117919922 168.1278839111328 150.96243286132812" stroke-width="2" fill="none" stroke="rgb(0, 0, 0)" stroke-opacity="1.0" stroke-linecap="round" stroke-linejoin="round"/>
    <path d="M 73.08775329589844 129.86123657226562 C 93.63958740234375 163.2678680419922 177.17108154296875 124.67007446289062 189.1448211669922 147.31787109375" stroke-width="2" fill="none" stroke="rgb(0, 0, 0)" stroke-opacity="1.0" stroke-linecap="round" stroke-linejoin="round"/>
    <path d="M 153.40225219726562 97.9126205444336 C 137.42063903808594 59.91141128540039 184.57994079589844 135.70315551757812 136.40594482421875 94.99081420898438" stroke-width="2" fill="none" stroke="rgb(0, 0, 0)" stroke-opacity="1.0" stroke-linecap="round" stroke-linejoin="round"/>
    <path d="M 173.78228759765625 98.99286651611328 C 54.45013427734375 107.6935806274414 199.62586975097656 112.05068969726562 139.93896484375 123.36967468261719" stroke-width="2" fill="none" stroke="rgb(0, 0, 0)" stroke-opacity="1.0" stroke-linecap="round" stroke-linejoin="round"/>
    <path d="M 133.0288543701172 109.24542999267578 C 114.61634826660156 107.99913787841797 184.37026977539062 111.8207015991211 145.24049377441406 112.52960205078125" stroke-width="2" fill="none" stroke="rgb(0, 0, 0)" stroke-opacity="1.0" stroke-linecap="round" stroke-linejoin="round"/>
    <path d="M 100.98734283447266 72.83869171142578 C 95.13542938232422 124.17098999023438 144.0078582763672 84.6487045288086 111.81163024902344 94.33856964111328" stroke-width="2" fill="none" stroke="rgb(0, 0, 0)" stroke-opacity="1.0" stroke-linecap="round" stroke-linejoin="round"/>
    <path d="M 146.38510131835938 111.0570297241211 C 156.03677368164062 96.4079818725586 212.18112182617188 19.3242244720459 169.45919799804688 108.67974090576172" stroke-width="2" fill="none" stroke="rgb(0, 0, 0)" stroke-opacity="1.0" stroke-linecap="round" stroke-linejoin="round"/>
    <path d="M 125.55853271484375 108.12052917480469 C 217.9903564453125 147.34881591796875 50.37092590332031 60.16340255737305 58.3284797668457 120.3094253540039" stroke-width="2" fill="none" stroke="rgb(0, 0, 0)" stroke-opacity="1.0" stroke-linecap="round" stroke-linejoin="round"/>
    <path d="M 38.534706115722656 122.14022064208984 C 118.44804382324219 66.27486419677734 -56.9930534362793 162.7866973876953 129.8136749267578 148.4172821044922" stroke-width="2" fill="none" stroke="rgb(0, 0, 0)" stroke-opacity="1.0" stroke-linecap="round" stroke-linejoin="round"/>
  </g>
</svg>
