<?xml version="1.0" ?>
<svg xmlns="http://www.w3.org/2000/svg" version="1.1" width="224" height="224">
  <defs/>
  <g>
    <path d="M 112.39224243164062 106.7157974243164 C 39.05024337768555 23.549528121948242 196.12103271484375 116.02902221679688 148.40284729003906 100.42262268066406" stroke-width="2" fill="none" stroke="rgb(0, 0, 0)" stroke-opacity="1.0" stroke-linecap="round" stroke-linejoin="round"/>
    <path d="M 118.80382537841797 90.32418823242188 C 118.5875015258789 104.19979858398438 46.244380950927734 37.881813049316406 115.95465850830078 93.30268096923828" stroke-width="2" fill="none" stroke="rgb(0, 0, 0)" stroke-opacity="1.0" stroke-linecap="round" stroke-linejoin="round"/>
    <path d="M 143.42535400390625 102.83856201171875 C 166.28172302246094 132.59263610839844 95.65231323242188 80.89960479736328 146.58973693847656 109.76981353759766" stroke-width="2" fill="none" stroke="rgb(0, 0, 0)" stroke-opacity="1.0" stroke-linecap="round" stroke-linejoin="round"/>
    <path d="M 36.63288116455078 122.88553619384766 C 51.87924575805664 164.0545654296875 181.91184997558594 141.38259887695312 95.93780517578125 127.8006362915039" stroke-width="2" fill="none" stroke="rgb(0, 0, 0)" stroke-opacity="1.0" stroke-linecap="round" stroke-linejoin="round"/>
    <path d="M 158.29653930664062 105.25786590576172 C 156.83688354492188 145.5635223388672 215.66317749023438 16.37594223022461 159.4838409423828 80.62235260009766" stroke-width="2" fill="none" stroke="rgb(0, 0, 0)" stroke-opacity="1.0" stroke-linecap="round" stroke-linejoin="round"/>
    <path d="M 96.33255004882812 82.94610595703125 C 129.33724975585938 126.45559692382812 89.72403717041016 73.02955627441406 160.3987274169922 80.08021545410156" stroke-width="2" fill="none" stroke="rgb(0, 0, 0)" stroke-opacity="1.0" stroke-linecap="round" stroke-linejoin="round"/>
    <path d="M 70.16071319580078 116.50135040283203 C 29.671844482421875 162.4444580078125 256.2740783691406 144.4377899169922 140.80068969726562 136.95632934570312" stroke-width="2" fill="none" stroke="rgb(0, 0, 0)" stroke-opacity="1.0" stroke-linecap="round" stroke-linejoin="round"/>
    <path d="M 124.44425201416016 103.26361083984375 C 236.20343017578125 123.39868927001953 50.34563064575195 114.93658447265625 99.33023834228516 111.3761215209961" stroke-width="2" fill="none" stroke="rgb(0, 0, 0)" stroke-opacity="1.0" stroke-linecap="round" stroke-linejoin="round"/>
    <path d="M 107.77658081054688 153.62062072753906 C -75.16316223144531 118.87850952148438 290.26214599609375 138.21951293945312 181.23341369628906 139.19009399414062" stroke-width="2" fill="none" stroke="rgb(0, 0, 0)" stroke-opacity="1.0" stroke-linecap="round" stroke-linejoin="round"/>
    <path d="M 150.13449096679688 90.63475036621094 C 145.43946838378906 122.5954360961914 183.90347290039062 94.43608093261719 123.22064971923828 108.69859313964844" stroke-width="2" fill="none" stroke="rgb(0, 0, 0)" stroke-opacity="1.0" stroke-linecap="round" stroke-linejoin="round"/>
    <path d="M 156.19830322265625 123.59729766845703 C 125.3428726196289 124.56330108642578 208.63819885253906 112.47478485107422 127.00308227539062 112.13396453857422" stroke-width="2" fill="none" stroke="rgb(0, 0, 0)" stroke-opacity="1.0" stroke-linecap="round" stroke-linejoin="round"/>
    <path d="M 149.70115661621094 132.90245056152344 C 58.164451599121094 110.70367431640625 211.05001831054688 96.27246856689453 149.14088439941406 98.90510559082031" stroke-width="2" fill="none" stroke="rgb(0, 0, 0)" stroke-opacity="1.0" stroke-linecap="round" stroke-linejoin="round"/>
    <path d="M 92.97913360595703 75.66960906982422 C 113.64035034179688 116.74018859863281 129.2015838623047 90.2066879272461 104.65714263916016 96.22419738769531" stroke-width="2" fill="none" stroke="rgb(0, 0, 0)" stroke-opacity="1.0" stroke-linecap="round" stroke-linejoin="round"/>
    <path d="M 135.974365234375 92.88846588134766 C 186.21946716308594 87.86615753173828 190.1291046142578 65.56461334228516 156.54217529296875 94.36726379394531" stroke-width="2" fill="none" stroke="rgb(0, 0, 0)" stroke-opacity="1.0" stroke-linecap="round" stroke-linejoin="round"/>
    <path d="M 93.38433074951172 70.2281265258789 C 188.42115783691406 120.42240905761719 28.74924087524414 53.03289031982422 49.429969787597656 114.99549102783203" stroke-width="2" fill="none" stroke="rgb(0, 0, 0)" stroke-opacity="1.0" stroke-linecap="round" stroke-linejoin="round"/>
    <path d="M 36.344093322753906 109.01484680175781 C 106.69266510009766 49.625144958496094 -21.936803817749023 146.83355712890625 84.78176879882812 149.5861053466797" stroke-width="2" fill="none" stroke="rgb(0, 0, 0)" stroke-opacity="1.0" stroke-linecap="round" stroke-linejoin="round"/>
  </g>
</svg>
