<?xml version="1.0" ?>
<svg xmlns="http://www.w3.org/2000/svg" version="1.1" width="224" height="224">
  <defs/>
  <g>
    <path d="M 103.15170288085938 105.95826721191406 C 52.94632339477539 92.7771224975586 152.05836486816406 103.52520751953125 113.25971984863281 94.58663940429688" stroke-width="2" fill="none" stroke="rgb(0, 0, 0)" stroke-opacity="1.0" stroke-linecap="round" stroke-linejoin="round"/>
    <path d="M 91.22087860107422 136.54849243164062 C 141.8805389404297 109.4860610961914 115.7961196899414 141.9792022705078 105.48485565185547 120.11835479736328" stroke-width="2" fill="none" stroke="rgb(0, 0, 0)" stroke-opacity="1.0" stroke-linecap="round" stroke-linejoin="round"/>
    <path d="M 153.74810791015625 126.78629302978516 C 73.43785095214844 147.51123046875 58.910789489746094 112.59494018554688 84.56468963623047 135.4375" stroke-width="2" fill="none" stroke="rgb(0, 0, 0)" stroke-opacity="1.0" stroke-linecap="round" stroke-linejoin="round"/>
    <path d="M 164.2479705810547 148.59957885742188 C 181.67041015625 154.35995483398438 198.0146484375 142.06747436523438 106.26407623291016 130.8916778564453" stroke-width="2" fill="none" stroke="rgb(0, 0, 0)" stroke-opacity="1.0" stroke-linecap="round" stroke-linejoin="round"/>
    <path d="M 103.84821319580078 129.23336791992188 C 133.2862548828125 105.90414428710938 170.03660583496094 137.98599243164062 101.54588317871094 63.2118034362793" stroke-width="2" fill="none" stroke="rgb(0, 0, 0)" stroke-opacity="1.0" stroke-linecap="round" stroke-linejoin="round"/>
    <path d="M 100.33963775634766 64.55882263183594 C 82.11177825927734 124.90631866455078 167.853515625 101.85411071777344 118.3199691772461 91.41754913330078" stroke-width="2" fill="none" stroke="rgb(0, 0, 0)" stroke-opacity="1.0" stroke-linecap="round" stroke-linejoin="round"/>
    <path d="M 38.30720901489258 130.59454345703125 C 44.938934326171875 172.94837951660156 203.04052734375 132.47494506835938 150.103759765625 147.30914306640625" stroke-width="2" fill="none" stroke="rgb(0, 0, 0)" stroke-opacity="1.0" stroke-linecap="round" stroke-linejoin="round"/>
    <path d="M 173.7143096923828 154.17202758789062 C 144.49008178710938 106.27372741699219 64.68399810791016 163.9542999267578 115.65222930908203 116.81108093261719" stroke-width="2" fill="none" stroke="rgb(0, 0, 0)" stroke-opacity="1.0" stroke-linecap="round" stroke-linejoin="round"/>
    <path d="M 97.51713562011719 117.41111755371094 C 71.4308853149414 102.26223754882812 119.72652435302734 113.31777954101562 83.53978729248047 111.50588989257812" stroke-width="2" fill="none" stroke="rgb(0, 0, 0)" stroke-opacity="1.0" stroke-linecap="round" stroke-linejoin="round"/>
    <path d="M 166.2611541748047 100.76475524902344 C 123.2127685546875 95.76204681396484 193.8062744140625 106.79731750488281 126.50957489013672 109.43177032470703" stroke-width="2" fill="none" stroke="rgb(0, 0, 0)" stroke-opacity="1.0" stroke-linecap="round" stroke-linejoin="round"/>
    <path d="M 140.0768585205078 148.5615234375 C 160.47158813476562 130.70864868164062 121.27125549316406 149.6728515625 176.0498504638672 151.64157104492188" stroke-width="2" fill="none" stroke="rgb(0, 0, 0)" stroke-opacity="1.0" stroke-linecap="round" stroke-linejoin="round"/>
    <path d="M 78.56505584716797 148.9610595703125 C 142.9834442138672 151.332763671875 63.22172164916992 151.7181854248047 67.92078399658203 141.6170654296875" stroke-width="2" fill="none" stroke="rgb(0, 0, 0)" stroke-opacity="1.0" stroke-linecap="round" stroke-linejoin="round"/>
    <path d="M 127.42572784423828 111.07322692871094 C 136.89991760253906 71.40950775146484 114.37542724609375 140.39462280273438 100.7645492553711 73.52760314941406" stroke-width="2" fill="none" stroke="rgb(0, 0, 0)" stroke-opacity="1.0" stroke-linecap="round" stroke-linejoin="round"/>
    <path d="M 155.1912078857422 121.75517272949219 C 184.53402709960938 68.45243835449219 156.6841583251953 84.15486145019531 168.4198760986328 56.83598709106445" stroke-width="2" fill="none" stroke="rgb(0, 0, 0)" stroke-opacity="1.0" stroke-linecap="round" stroke-linejoin="round"/>
    <path d="M 106.94207000732422 104.19813537597656 C 114.07833099365234 128.1161651611328 82.28583526611328 62.87324523925781 44.445091247558594 125.36371612548828" stroke-width="2" fill="none" stroke="rgb(0, 0, 0)" stroke-opacity="1.0" stroke-linecap="round" stroke-linejoin="round"/>
    <path d="M 65.94656372070312 117.71295928955078 C 68.62425231933594 108.13705444335938 41.65899658203125 111.84434509277344 41.89516067504883 136.30972290039062" stroke-width="2" fill="none" stroke="rgb(0, 0, 0)" stroke-opacity="1.0" stroke-linecap="round" stroke-linejoin="round"/>
  </g>
</svg>
