<?xml version="1.0" ?>
<svg xmlns="http://www.w3.org/2000/svg" version="1.1" width="224" height="224">
  <defs/>
  <g>
    <path d="M 107.56964111328125 102.40530395507812 C 75.40837860107422 88.40213775634766 158.8594207763672 109.36955261230469 117.43318176269531 96.38341522216797" stroke-width="2" fill="none" stroke="rgb(0, 0, 0)" stroke-opacity="1.0" stroke-linecap="round" stroke-linejoin="round"/>
    <path d="M 101.49015808105469 136.32701110839844 C 132.21343994140625 108.79812622070312 102.74424743652344 147.3278350830078 104.33240509033203 121.97996520996094" stroke-width="2" fill="none" stroke="rgb(0, 0, 0)" stroke-opacity="1.0" stroke-linecap="round" stroke-linejoin="round"/>
    <path d="M 147.3142547607422 129.17759704589844 C 61.65033721923828 148.22909545898438 75.71632385253906 110.21609497070312 86.42134094238281 134.85183715820312" stroke-width="2" fill="none" stroke="rgb(0, 0, 0)" stroke-opacity="1.0" stroke-linecap="round" stroke-linejoin="round"/>
    <path d="M 163.38250732421875 147.30953979492188 C 181.5704345703125 156.9567108154297 202.50119018554688 137.1376190185547 106.9165267944336 128.01583862304688" stroke-width="2" fill="none" stroke="rgb(0, 0, 0)" stroke-opacity="1.0" stroke-linecap="round" stroke-linejoin="round"/>
    <path d="M 103.01148223876953 128.29383850097656 C 139.1544189453125 106.92037963867188 175.6718292236328 135.82281494140625 102.99815368652344 65.42831420898438" stroke-width="2" fill="none" stroke="rgb(0, 0, 0)" stroke-opacity="1.0" stroke-linecap="round" stroke-linejoin="round"/>
    <path d="M 96.87709045410156 66.65604400634766 C 83.58599090576172 125.89002990722656 177.83816528320312 96.66586303710938 118.71110534667969 90.43865966796875" stroke-width="2" fill="none" stroke="rgb(0, 0, 0)" stroke-opacity="1.0" stroke-linecap="round" stroke-linejoin="round"/>
    <path d="M 33.9262580871582 132.9807891845703 C 54.653099060058594 174.40048217773438 203.591064453125 137.55593872070312 167.34278869628906 152.55381774902344" stroke-width="2" fill="none" stroke="rgb(0, 0, 0)" stroke-opacity="1.0" stroke-linecap="round" stroke-linejoin="round"/>
    <path d="M 160.84918212890625 155.3406219482422 C 139.12442016601562 110.92375946044922 63.90618896484375 171.238525390625 116.44290924072266 122.69380187988281" stroke-width="2" fill="none" stroke="rgb(0, 0, 0)" stroke-opacity="1.0" stroke-linecap="round" stroke-linejoin="round"/>
    <path d="M 96.9468994140625 113.12960815429688 C 72.7110595703125 118.44500732421875 122.28739166259766 119.19772338867188 94.79750061035156 103.81625366210938" stroke-width="2" fill="none" stroke="rgb(0, 0, 0)" stroke-opacity="1.0" stroke-linecap="round" stroke-linejoin="round"/>
    <path d="M 169.08413696289062 94.40890502929688 C 127.7489013671875 93.04573059082031 207.1240234375 100.08037567138672 132.9447784423828 110.43559265136719" stroke-width="2" fill="none" stroke="rgb(0, 0, 0)" stroke-opacity="1.0" stroke-linecap="round" stroke-linejoin="round"/>
    <path d="M 148.2490692138672 137.74407958984375 C 171.8059539794922 143.37863159179688 127.18439483642578 157.80184936523438 175.607666015625 153.72804260253906" stroke-width="2" fill="none" stroke="rgb(0, 0, 0)" stroke-opacity="1.0" stroke-linecap="round" stroke-linejoin="round"/>
    <path d="M 78.51495361328125 147.41111755371094 C 141.07022094726562 157.62112426757812 69.48889923095703 150.00770568847656 66.57698059082031 140.2877655029297" stroke-width="2" fill="none" stroke="rgb(0, 0, 0)" stroke-opacity="1.0" stroke-linecap="round" stroke-linejoin="round"/>
    <path d="M 141.2198944091797 102.16535186767578 C 153.16712951660156 67.94791412353516 115.69279479980469 146.2180633544922 101.76116180419922 79.8373794555664" stroke-width="2" fill="none" stroke="rgb(0, 0, 0)" stroke-opacity="1.0" stroke-linecap="round" stroke-linejoin="round"/>
    <path d="M 149.42897033691406 114.8944320678711 C 192.48468017578125 76.57599639892578 168.94541931152344 85.5958480834961 181.9368438720703 63.586280822753906" stroke-width="2" fill="none" stroke="rgb(0, 0, 0)" stroke-opacity="1.0" stroke-linecap="round" stroke-linejoin="round"/>
    <path d="M 109.18940734863281 102.95912170410156 C 118.8585433959961 124.11540222167969 79.51560974121094 61.77461242675781 44.53728103637695 119.37496185302734" stroke-width="2" fill="none" stroke="rgb(0, 0, 0)" stroke-opacity="1.0" stroke-linecap="round" stroke-linejoin="round"/>
    <path d="M 56.19844055175781 119.17855834960938 C 63.850006103515625 112.7029800415039 34.035987854003906 115.89897155761719 37.01612854003906 133.43450927734375" stroke-width="2" fill="none" stroke="rgb(0, 0, 0)" stroke-opacity="1.0" stroke-linecap="round" stroke-linejoin="round"/>
  </g>
</svg>
