<?xml version="1.0" ?>
<svg xmlns="http://www.w3.org/2000/svg" version="1.1" width="224" height="224">
  <defs/>
  <g>
    <path d="M 149.92140197753906 111.15886688232422 C 14.295137405395508 78.22789764404297 235.25123596191406 88.76188659667969 169.9711151123047 99.84564208984375" stroke-width="2" fill="none" stroke="rgb(0, 0, 0)" stroke-opacity="1.0" stroke-linecap="round" stroke-linejoin="round"/>
    <path d="M 142.55496215820312 110.25799560546875 C 181.42645263671875 93.00529479980469 92.7021255493164 117.88751983642578 136.62290954589844 107.53345489501953" stroke-width="2" fill="none" stroke="rgb(0, 0, 0)" stroke-opacity="1.0" stroke-linecap="round" stroke-linejoin="round"/>
    <path d="M 138.33157348632812 117.97409057617188 C 199.89683532714844 111.19488525390625 113.95767211914062 141.2091827392578 149.00213623046875 119.68683624267578" stroke-width="2" fill="none" stroke="rgb(0, 0, 0)" stroke-opacity="1.0" stroke-linecap="round" stroke-linejoin="round"/>
    <path d="M 124.72286224365234 118.88501739501953 C 120.15736389160156 153.47596740722656 162.30685424804688 135.7678680419922 145.70135498046875 147.13796997070312" stroke-width="2" fill="none" stroke="rgb(0, 0, 0)" stroke-opacity="1.0" stroke-linecap="round" stroke-linejoin="round"/>
    <path d="M 114.57616424560547 112.49054718017578 C 161.49453735351562 187.94725036621094 228.3198699951172 2.9443180561065674 160.9187774658203 89.42647552490234" stroke-width="2" fill="none" stroke="rgb(0, 0, 0)" stroke-opacity="1.0" stroke-linecap="round" stroke-linejoin="round"/>
    <path d="M 97.63874053955078 74.47322845458984 C 109.51823425292969 129.73487854003906 138.5625457763672 65.35450744628906 163.77609252929688 100.64443969726562" stroke-width="2" fill="none" stroke="rgb(0, 0, 0)" stroke-opacity="1.0" stroke-linecap="round" stroke-linejoin="round"/>
    <path d="M 67.81678771972656 130.02882385253906 C 40.036224365234375 171.00990295410156 231.4303436279297 118.4326400756836 183.77108764648438 110.74234771728516" stroke-width="2" fill="none" stroke="rgb(0, 0, 0)" stroke-opacity="1.0" stroke-linecap="round" stroke-linejoin="round"/>
    <path d="M 140.43531799316406 122.98219299316406 C 348.5107727050781 94.04924774169922 79.16191101074219 133.83370971679688 148.7379608154297 113.8600845336914" stroke-width="2" fill="none" stroke="rgb(0, 0, 0)" stroke-opacity="1.0" stroke-linecap="round" stroke-linejoin="round"/>
    <path d="M 154.4705047607422 147.0789794921875 C -54.32025146484375 137.38699340820312 250.05502319335938 190.02383422851562 87.96229553222656 135.50503540039062" stroke-width="2" fill="none" stroke="rgb(0, 0, 0)" stroke-opacity="1.0" stroke-linecap="round" stroke-linejoin="round"/>
    <path d="M 173.41766357421875 110.25942993164062 C 136.3149871826172 124.26881408691406 216.4143524169922 88.70500183105469 163.816162109375 111.68673706054688" stroke-width="2" fill="none" stroke="rgb(0, 0, 0)" stroke-opacity="1.0" stroke-linecap="round" stroke-linejoin="round"/>
    <path d="M 181.7431182861328 142.17694091796875 C 126.58360290527344 149.8824920654297 166.2469940185547 145.77642822265625 128.26004028320312 146.65406799316406" stroke-width="2" fill="none" stroke="rgb(0, 0, 0)" stroke-opacity="1.0" stroke-linecap="round" stroke-linejoin="round"/>
    <path d="M 183.32009887695312 104.58497619628906 C 128.79762268066406 111.46683502197266 214.71588134765625 106.0486068725586 166.87400817871094 118.00778198242188" stroke-width="2" fill="none" stroke="rgb(0, 0, 0)" stroke-opacity="1.0" stroke-linecap="round" stroke-linejoin="round"/>
    <path d="M 106.19196319580078 96.76876068115234 C 123.67357635498047 111.05392456054688 149.04916381835938 100.37259674072266 101.2483139038086 83.05520629882812" stroke-width="2" fill="none" stroke="rgb(0, 0, 0)" stroke-opacity="1.0" stroke-linecap="round" stroke-linejoin="round"/>
    <path d="M 150.98583984375 86.79735565185547 C 145.9596710205078 98.60214233398438 217.24887084960938 36.18818664550781 156.96299743652344 92.66401672363281" stroke-width="2" fill="none" stroke="rgb(0, 0, 0)" stroke-opacity="1.0" stroke-linecap="round" stroke-linejoin="round"/>
    <path d="M 96.41919708251953 71.16064453125 C 204.9391632080078 129.27621459960938 40.61891555786133 68.6102066040039 57.212833404541016 116.7415542602539" stroke-width="2" fill="none" stroke="rgb(0, 0, 0)" stroke-opacity="1.0" stroke-linecap="round" stroke-linejoin="round"/>
    <path d="M 38.52218246459961 123.58311462402344 C 98.52738952636719 67.11695861816406 -24.148834228515625 154.39451599121094 99.8394775390625 153.8060760498047" stroke-width="2" fill="none" stroke="rgb(0, 0, 0)" stroke-opacity="1.0" stroke-linecap="round" stroke-linejoin="round"/>
  </g>
</svg>
