<?xml version="1.0" ?>
<svg xmlns="http://www.w3.org/2000/svg" version="1.1" width="224" height="224">
  <defs/>
  <g>
    <path d="M 131.97308349609375 73.88023376464844 C 43.58256149291992 47.66498565673828 227.26780700683594 98.81387329101562 155.12100219726562 97.03801727294922" stroke-width="2" fill="none" stroke="rgb(0, 0, 0)" stroke-opacity="1.0" stroke-linecap="round" stroke-linejoin="round"/>
    <path d="M 107.98728942871094 75.91715240478516 C 154.09719848632812 108.8349609375 54.65375518798828 23.963523864746094 110.75466918945312 83.97134399414062" stroke-width="2" fill="none" stroke="rgb(0, 0, 0)" stroke-opacity="1.0" stroke-linecap="round" stroke-linejoin="round"/>
    <path d="M 141.6363067626953 92.84712219238281 C 97.14130401611328 93.73827362060547 218.97555541992188 108.27584075927734 100.04241943359375 112.88600158691406" stroke-width="2" fill="none" stroke="rgb(0, 0, 0)" stroke-opacity="1.0" stroke-linecap="round" stroke-linejoin="round"/>
    <path d="M 114.12683868408203 139.71742248535156 C 84.76263427734375 144.77865600585938 232.78665161132812 172.7120819091797 118.6603775024414 131.6995086669922" stroke-width="2" fill="none" stroke="rgb(0, 0, 0)" stroke-opacity="1.0" stroke-linecap="round" stroke-linejoin="round"/>
    <path d="M 118.3258056640625 104.31143951416016 C 159.0658721923828 117.42422485351562 229.85328674316406 29.644807815551758 155.3398895263672 80.68192291259766" stroke-width="2" fill="none" stroke="rgb(0, 0, 0)" stroke-opacity="1.0" stroke-linecap="round" stroke-linejoin="round"/>
    <path d="M 192.38343811035156 148.87669372558594 C 248.70489501953125 154.6269073486328 7.844325065612793 88.62169647216797 162.93402099609375 70.44153594970703" stroke-width="2" fill="none" stroke="rgb(0, 0, 0)" stroke-opacity="1.0" stroke-linecap="round" stroke-linejoin="round"/>
    <path d="M 139.6890106201172 138.0366973876953 C 129.00357055664062 114.12373352050781 151.4345245361328 149.71913146972656 132.40467834472656 133.0204315185547" stroke-width="2" fill="none" stroke="rgb(0, 0, 0)" stroke-opacity="1.0" stroke-linecap="round" stroke-linejoin="round"/>
    <path d="M 116.63063049316406 134.082275390625 C 234.86256408691406 150.8491973876953 131.2680206298828 160.75038146972656 167.43243408203125 148.36737060546875" stroke-width="2" fill="none" stroke="rgb(0, 0, 0)" stroke-opacity="1.0" stroke-linecap="round" stroke-linejoin="round"/>
    <path d="M 69.75408935546875 131.16357421875 C 87.06397247314453 167.77316284179688 167.34906005859375 128.2345733642578 171.1294403076172 157.1810760498047" stroke-width="2" fill="none" stroke="rgb(0, 0, 0)" stroke-opacity="1.0" stroke-linecap="round" stroke-linejoin="round"/>
    <path d="M 153.97865295410156 96.64359283447266 C 141.44265747070312 59.091392517089844 193.2440185546875 130.94696044921875 136.9206085205078 94.80890655517578" stroke-width="2" fill="none" stroke="rgb(0, 0, 0)" stroke-opacity="1.0" stroke-linecap="round" stroke-linejoin="round"/>
    <path d="M 158.6660919189453 107.01927947998047 C 42.20238494873047 100.82554626464844 205.59890747070312 125.86210632324219 147.5289764404297 103.41355895996094" stroke-width="2" fill="none" stroke="rgb(0, 0, 0)" stroke-opacity="1.0" stroke-linecap="round" stroke-linejoin="round"/>
    <path d="M 132.33399963378906 105.3238525390625 C 114.41905212402344 118.37592315673828 174.91616821289062 119.837890625 150.07154846191406 114.58152770996094" stroke-width="2" fill="none" stroke="rgb(0, 0, 0)" stroke-opacity="1.0" stroke-linecap="round" stroke-linejoin="round"/>
    <path d="M 97.29003143310547 63.80671310424805 C 101.92803192138672 117.11400604248047 134.33062744140625 77.17029571533203 110.8025894165039 93.56720733642578" stroke-width="2" fill="none" stroke="rgb(0, 0, 0)" stroke-opacity="1.0" stroke-linecap="round" stroke-linejoin="round"/>
    <path d="M 151.23333740234375 107.12489318847656 C 151.42596435546875 83.30655670166016 216.69744873046875 20.309017181396484 170.9838409423828 105.5608901977539" stroke-width="2" fill="none" stroke="rgb(0, 0, 0)" stroke-opacity="1.0" stroke-linecap="round" stroke-linejoin="round"/>
    <path d="M 128.28025817871094 111.65562438964844 C 221.27529907226562 145.20257568359375 46.88465118408203 54.91030502319336 54.79357147216797 125.48763275146484" stroke-width="2" fill="none" stroke="rgb(0, 0, 0)" stroke-opacity="1.0" stroke-linecap="round" stroke-linejoin="round"/>
    <path d="M 41.81830596923828 123.23966979980469 C 126.14799499511719 60.776309967041016 -55.95097732543945 170.2611083984375 131.1774444580078 144.27342224121094" stroke-width="2" fill="none" stroke="rgb(0, 0, 0)" stroke-opacity="1.0" stroke-linecap="round" stroke-linejoin="round"/>
  </g>
</svg>
