<?xml version="1.0" ?>
<svg xmlns="http://www.w3.org/2000/svg" version="1.1" width="224" height="224">
  <defs/>
  <g>
    <path d="M 120.78280639648438 104.7552261352539 C 36.41414260864258 28.363000869750977 215.5528564453125 103.77119445800781 152.9549102783203 114.09437561035156" stroke-width="2" fill="none" stroke="rgb(0, 0, 0)" stroke-opacity="1.0" stroke-linecap="round" stroke-linejoin="round"/>
    <path d="M 120.73571014404297 83.48657989501953 C 109.36000061035156 95.01597595214844 68.64437866210938 46.5048942565918 126.4589614868164 82.6345443725586" stroke-width="2" fill="none" stroke="rgb(0, 0, 0)" stroke-opacity="1.0" stroke-linecap="round" stroke-linejoin="round"/>
    <path d="M 147.22994995117188 100.40447998046875 C 140.1925811767578 109.9446792602539 135.7622833251953 85.91642761230469 160.52581787109375 118.34400177001953" stroke-width="2" fill="none" stroke="rgb(0, 0, 0)" stroke-opacity="1.0" stroke-linecap="round" stroke-linejoin="round"/>
    <path d="M 65.61566925048828 131.59815979003906 C 59.521175384521484 160.24160766601562 190.9163818359375 132.18601989746094 94.9501724243164 137.56288146972656" stroke-width="2" fill="none" stroke="rgb(0, 0, 0)" stroke-opacity="1.0" stroke-linecap="round" stroke-linejoin="round"/>
    <path d="M 163.23629760742188 115.00888061523438 C 136.9037628173828 157.257080078125 222.32313537597656 12.52413558959961 157.46742248535156 85.16681671142578" stroke-width="2" fill="none" stroke="rgb(0, 0, 0)" stroke-opacity="1.0" stroke-linecap="round" stroke-linejoin="round"/>
    <path d="M 107.330322265625 94.74250030517578 C 156.28799438476562 123.9378890991211 82.57778930664062 82.36721801757812 166.78439331054688 83.70735168457031" stroke-width="2" fill="none" stroke="rgb(0, 0, 0)" stroke-opacity="1.0" stroke-linecap="round" stroke-linejoin="round"/>
    <path d="M 111.5300521850586 130.77603149414062 C 77.57307434082031 141.53182983398438 290.1672668457031 186.21661376953125 154.14845275878906 135.03463745117188" stroke-width="2" fill="none" stroke="rgb(0, 0, 0)" stroke-opacity="1.0" stroke-linecap="round" stroke-linejoin="round"/>
    <path d="M 127.39051055908203 113.88827514648438 C 251.64146423339844 147.95648193359375 79.38774871826172 102.11151885986328 118.05754852294922 110.8655776977539" stroke-width="2" fill="none" stroke="rgb(0, 0, 0)" stroke-opacity="1.0" stroke-linecap="round" stroke-linejoin="round"/>
    <path d="M 113.49541473388672 152.03749084472656 C -14.305697441101074 136.8285369873047 268.6371154785156 162.25961303710938 210.04806518554688 152.15174865722656" stroke-width="2" fill="none" stroke="rgb(0, 0, 0)" stroke-opacity="1.0" stroke-linecap="round" stroke-linejoin="round"/>
    <path d="M 160.5288543701172 99.42634582519531 C 141.3249053955078 102.4451904296875 180.17063903808594 116.18695831298828 139.3060760498047 103.64918518066406" stroke-width="2" fill="none" stroke="rgb(0, 0, 0)" stroke-opacity="1.0" stroke-linecap="round" stroke-linejoin="round"/>
    <path d="M 159.39065551757812 122.016357421875 C 116.04953002929688 115.29314422607422 183.06182861328125 146.42367553710938 118.57396697998047 105.30714416503906" stroke-width="2" fill="none" stroke="rgb(0, 0, 0)" stroke-opacity="1.0" stroke-linecap="round" stroke-linejoin="round"/>
    <path d="M 132.5793914794922 120.50553131103516 C 96.97876739501953 107.20138549804688 192.8457794189453 105.5696792602539 155.2305450439453 103.82518768310547" stroke-width="2" fill="none" stroke="rgb(0, 0, 0)" stroke-opacity="1.0" stroke-linecap="round" stroke-linejoin="round"/>
    <path d="M 100.10104370117188 79.4720458984375 C 109.07305145263672 107.84980773925781 147.20172119140625 107.35356140136719 105.02085876464844 93.84992980957031" stroke-width="2" fill="none" stroke="rgb(0, 0, 0)" stroke-opacity="1.0" stroke-linecap="round" stroke-linejoin="round"/>
    <path d="M 154.9883270263672 95.44444274902344 C 180.35943603515625 99.79823303222656 182.84376525878906 57.4174690246582 174.86802673339844 97.50553131103516" stroke-width="2" fill="none" stroke="rgb(0, 0, 0)" stroke-opacity="1.0" stroke-linecap="round" stroke-linejoin="round"/>
    <path d="M 104.3187026977539 71.77770233154297 C 194.61001586914062 115.77796173095703 37.06367111206055 69.50732421875 55.265567779541016 117.37689208984375" stroke-width="2" fill="none" stroke="rgb(0, 0, 0)" stroke-opacity="1.0" stroke-linecap="round" stroke-linejoin="round"/>
    <path d="M 39.357818603515625 129.0614471435547 C 88.04837036132812 71.37648010253906 -8.073283195495605 148.8215789794922 97.2339096069336 156.67417907714844" stroke-width="2" fill="none" stroke="rgb(0, 0, 0)" stroke-opacity="1.0" stroke-linecap="round" stroke-linejoin="round"/>
  </g>
</svg>
