<?xml version="1.0" ?>
<svg xmlns="http://www.w3.org/2000/svg" version="1.1" width="224" height="224">
  <defs/>
  <g>
    <path d="M 92.77059936523438 95.03213500976562 C 38.82081604003906 93.26571655273438 144.8472137451172 128.09463500976562 96.96910095214844 101.83736419677734" stroke-width="2" fill="none" stroke="rgb(0, 0, 0)" stroke-opacity="1.0" stroke-linecap="round" stroke-linejoin="round"/>
    <path d="M 101.54385375976562 135.77056884765625 C 142.16107177734375 89.32614135742188 109.5269546508789 143.29714965820312 94.6463394165039 127.71964263916016" stroke-width="2" fill="none" stroke="rgb(0, 0, 0)" stroke-opacity="1.0" stroke-linecap="round" stroke-linejoin="round"/>
    <path d="M 168.1810760498047 121.86219024658203 C 87.31767272949219 136.9723663330078 62.87714385986328 114.85418701171875 82.89840698242188 131.27017211914062" stroke-width="2" fill="none" stroke="rgb(0, 0, 0)" stroke-opacity="1.0" stroke-linecap="round" stroke-linejoin="round"/>
    <path d="M 167.16415405273438 163.41049194335938 C 190.40335083007812 149.74478149414062 207.68026733398438 136.33953857421875 106.05220031738281 123.86882781982422" stroke-width="2" fill="none" stroke="rgb(0, 0, 0)" stroke-opacity="1.0" stroke-linecap="round" stroke-linejoin="round"/>
    <path d="M 105.53826904296875 120.20260620117188 C 119.56192779541016 100.95108032226562 149.32017517089844 124.11760711669922 101.71133422851562 65.25527954101562" stroke-width="2" fill="none" stroke="rgb(0, 0, 0)" stroke-opacity="1.0" stroke-linecap="round" stroke-linejoin="round"/>
    <path d="M 99.17884826660156 69.23163604736328 C 82.81129455566406 109.28495788574219 141.6976776123047 103.79163360595703 106.90460205078125 82.86211395263672" stroke-width="2" fill="none" stroke="rgb(0, 0, 0)" stroke-opacity="1.0" stroke-linecap="round" stroke-linejoin="round"/>
    <path d="M 33.826412200927734 135.12823486328125 C 40.99837875366211 174.59304809570312 198.61795043945312 135.47003173828125 127.38166046142578 150.5289764404297" stroke-width="2" fill="none" stroke="rgb(0, 0, 0)" stroke-opacity="1.0" stroke-linecap="round" stroke-linejoin="round"/>
    <path d="M 159.90480041503906 155.87942504882812 C 161.93605041503906 118.37738800048828 83.87545013427734 160.31484985351562 115.68427276611328 116.66985321044922" stroke-width="2" fill="none" stroke="rgb(0, 0, 0)" stroke-opacity="1.0" stroke-linecap="round" stroke-linejoin="round"/>
    <path d="M 84.42828369140625 130.17312622070312 C 76.34130859375 109.63191223144531 96.94727325439453 139.33966064453125 78.88290405273438 125.96553039550781" stroke-width="2" fill="none" stroke="rgb(0, 0, 0)" stroke-opacity="1.0" stroke-linecap="round" stroke-linejoin="round"/>
    <path d="M 174.46449279785156 86.79512786865234 C 152.85165405273438 24.231966018676758 185.51678466796875 129.86563110351562 120.2688217163086 101.94064331054688" stroke-width="2" fill="none" stroke="rgb(0, 0, 0)" stroke-opacity="1.0" stroke-linecap="round" stroke-linejoin="round"/>
    <path d="M 135.40560913085938 144.8374786376953 C 163.80926513671875 141.2846221923828 121.31205749511719 145.2213897705078 174.27890014648438 155.53805541992188" stroke-width="2" fill="none" stroke="rgb(0, 0, 0)" stroke-opacity="1.0" stroke-linecap="round" stroke-linejoin="round"/>
    <path d="M 86.02730560302734 141.7490692138672 C 139.1061553955078 162.6095428466797 54.4022331237793 147.5153045654297 76.93524169921875 147.26344299316406" stroke-width="2" fill="none" stroke="rgb(0, 0, 0)" stroke-opacity="1.0" stroke-linecap="round" stroke-linejoin="round"/>
    <path d="M 115.3173599243164 109.59506225585938 C 100.867431640625 86.34015655517578 103.66362762451172 144.34715270996094 97.66735076904297 72.6048812866211" stroke-width="2" fill="none" stroke="rgb(0, 0, 0)" stroke-opacity="1.0" stroke-linecap="round" stroke-linejoin="round"/>
    <path d="M 160.13037109375 122.71141815185547 C 195.62078857421875 57.0881233215332 171.41407775878906 89.66210174560547 179.6982421875 65.44762420654297" stroke-width="2" fill="none" stroke="rgb(0, 0, 0)" stroke-opacity="1.0" stroke-linecap="round" stroke-linejoin="round"/>
    <path d="M 94.49976348876953 104.70197296142578 C 101.13290405273438 141.14212036132812 78.76061248779297 56.8839111328125 39.89731216430664 122.2989730834961" stroke-width="2" fill="none" stroke="rgb(0, 0, 0)" stroke-opacity="1.0" stroke-linecap="round" stroke-linejoin="round"/>
    <path d="M 59.94691848754883 119.303955078125 C 63.27231979370117 104.37530517578125 26.389719009399414 115.13420104980469 33.927330017089844 142.453369140625" stroke-width="2" fill="none" stroke="rgb(0, 0, 0)" stroke-opacity="1.0" stroke-linecap="round" stroke-linejoin="round"/>
  </g>
</svg>
