<?xml version="1.0" ?>
<svg xmlns="http://www.w3.org/2000/svg" version="1.1" width="224" height="224">
  <defs/>
  <g>
    <path d="M 113.14572143554688 91.3569564819336 C 37.665199279785156 40.539390563964844 205.67239379882812 88.88177490234375 155.04725646972656 82.72637176513672" stroke-width="2" fill="none" stroke="rgb(0, 0, 0)" stroke-opacity="1.0" stroke-linecap="round" stroke-linejoin="round"/>
    <path d="M 98.99258422851562 76.18315887451172 C 177.39724731445312 114.81890106201172 49.66524887084961 24.634033203125 113.46804809570312 94.18852996826172" stroke-width="2" fill="none" stroke="rgb(0, 0, 0)" stroke-opacity="1.0" stroke-linecap="round" stroke-linejoin="round"/>
    <path d="M 144.44992065429688 94.46957397460938 C 111.89066314697266 86.28326416015625 215.54229736328125 126.78106689453125 125.92926025390625 109.13310241699219" stroke-width="2" fill="none" stroke="rgb(0, 0, 0)" stroke-opacity="1.0" stroke-linecap="round" stroke-linejoin="round"/>
    <path d="M 115.57076263427734 141.5452423095703 C 86.78107452392578 143.60958862304688 245.8992462158203 170.8289794921875 123.7425765991211 135.1854705810547" stroke-width="2" fill="none" stroke="rgb(0, 0, 0)" stroke-opacity="1.0" stroke-linecap="round" stroke-linejoin="round"/>
    <path d="M 131.65457153320312 110.74353790283203 C 159.66812133789062 127.54560089111328 215.85186767578125 28.557104110717773 160.246826171875 78.17816162109375" stroke-width="2" fill="none" stroke="rgb(0, 0, 0)" stroke-opacity="1.0" stroke-linecap="round" stroke-linejoin="round"/>
    <path d="M 188.8303680419922 126.74029541015625 C 255.13565063476562 133.88233947753906 14.969547271728516 97.65316772460938 160.3849639892578 70.6231689453125" stroke-width="2" fill="none" stroke="rgb(0, 0, 0)" stroke-opacity="1.0" stroke-linecap="round" stroke-linejoin="round"/>
    <path d="M 129.71400451660156 127.4715347290039 C 88.6329345703125 102.69535064697266 140.9476776123047 130.66258239746094 113.73710632324219 113.54263305664062" stroke-width="2" fill="none" stroke="rgb(0, 0, 0)" stroke-opacity="1.0" stroke-linecap="round" stroke-linejoin="round"/>
    <path d="M 108.62765502929688 132.3114013671875 C 247.808837890625 135.95565795898438 144.69094848632812 147.70616149902344 168.78285217285156 153.1904296875" stroke-width="2" fill="none" stroke="rgb(0, 0, 0)" stroke-opacity="1.0" stroke-linecap="round" stroke-linejoin="round"/>
    <path d="M 73.17127227783203 130.479248046875 C 84.29854583740234 166.8483123779297 205.34410095214844 120.12480926513672 186.53147888183594 149.6329345703125" stroke-width="2" fill="none" stroke="rgb(0, 0, 0)" stroke-opacity="1.0" stroke-linecap="round" stroke-linejoin="round"/>
    <path d="M 154.9813232421875 96.87722778320312 C 145.3156280517578 66.18640899658203 184.33238220214844 139.0388641357422 140.48483276367188 94.8361587524414" stroke-width="2" fill="none" stroke="rgb(0, 0, 0)" stroke-opacity="1.0" stroke-linecap="round" stroke-linejoin="round"/>
    <path d="M 170.93588256835938 98.61180877685547 C 58.25448989868164 123.09097290039062 201.654052734375 103.94928741455078 150.93748474121094 120.9196548461914" stroke-width="2" fill="none" stroke="rgb(0, 0, 0)" stroke-opacity="1.0" stroke-linecap="round" stroke-linejoin="round"/>
    <path d="M 130.37965393066406 116.57002258300781 C 114.39779663085938 99.17585754394531 193.51254272460938 104.86798095703125 129.25582885742188 111.68963623046875" stroke-width="2" fill="none" stroke="rgb(0, 0, 0)" stroke-opacity="1.0" stroke-linecap="round" stroke-linejoin="round"/>
    <path d="M 98.28817749023438 77.52379608154297 C 98.65387725830078 123.35027313232422 148.28024291992188 83.36834716796875 112.6793441772461 92.9917984008789" stroke-width="2" fill="none" stroke="rgb(0, 0, 0)" stroke-opacity="1.0" stroke-linecap="round" stroke-linejoin="round"/>
    <path d="M 148.90679931640625 107.03997802734375 C 158.31101989746094 99.9369888305664 205.1942138671875 15.703707695007324 173.6736297607422 104.24102783203125" stroke-width="2" fill="none" stroke="rgb(0, 0, 0)" stroke-opacity="1.0" stroke-linecap="round" stroke-linejoin="round"/>
    <path d="M 134.60694885253906 105.24652099609375 C 211.32806396484375 146.49496459960938 49.932891845703125 49.030540466308594 49.203548431396484 121.4397201538086" stroke-width="2" fill="none" stroke="rgb(0, 0, 0)" stroke-opacity="1.0" stroke-linecap="round" stroke-linejoin="round"/>
    <path d="M 39.09747314453125 117.13245391845703 C 116.85001373291016 61.175254821777344 -64.98184967041016 165.5072479248047 140.27418518066406 151.3076629638672" stroke-width="2" fill="none" stroke="rgb(0, 0, 0)" stroke-opacity="1.0" stroke-linecap="round" stroke-linejoin="round"/>
  </g>
</svg>
