<?xml version="1.0" ?>
<svg xmlns="http://www.w3.org/2000/svg" version="1.1" width="224" height="224">
  <defs/>
  <g>
    <path d="M 127.97000122070312 105.30164337158203 C 14.199394226074219 59.07954406738281 239.74545288085938 88.46429443359375 152.61317443847656 90.96653747558594" stroke-width="2" fill="none" stroke="rgb(0, 0, 0)" stroke-opacity="1.0" stroke-linecap="round" stroke-linejoin="round"/>
    <path d="M 104.82911682128906 97.9804458618164 C 157.55003356933594 85.81725311279297 88.91629028320312 91.2917709350586 127.8373794555664 101.47711181640625" stroke-width="2" fill="none" stroke="rgb(0, 0, 0)" stroke-opacity="1.0" stroke-linecap="round" stroke-linejoin="round"/>
    <path d="M 103.46424865722656 146.96754455566406 C 107.9205093383789 140.38243103027344 65.01065063476562 128.74972534179688 96.850341796875 139.8831329345703" stroke-width="2" fill="none" stroke="rgb(0, 0, 0)" stroke-opacity="1.0" stroke-linecap="round" stroke-linejoin="round"/>
    <path d="M 185.6053924560547 154.21229553222656 C 186.3466796875 167.27923583984375 161.4043731689453 136.0919952392578 130.4590301513672 143.59783935546875" stroke-width="2" fill="none" stroke="rgb(0, 0, 0)" stroke-opacity="1.0" stroke-linecap="round" stroke-linejoin="round"/>
    <path d="M 103.87958526611328 103.2784652709961 C 131.3927764892578 171.71466064453125 234.53013610839844 22.758514404296875 156.5261993408203 93.64945983886719" stroke-width="2" fill="none" stroke="rgb(0, 0, 0)" stroke-opacity="1.0" stroke-linecap="round" stroke-linejoin="round"/>
    <path d="M 92.01315307617188 71.24760437011719 C 83.15192413330078 93.52185821533203 158.89291381835938 82.38263702392578 172.86868286132812 67.09690856933594" stroke-width="2" fill="none" stroke="rgb(0, 0, 0)" stroke-opacity="1.0" stroke-linecap="round" stroke-linejoin="round"/>
    <path d="M 50.58466339111328 137.8057861328125 C 60.02701950073242 171.39630126953125 275.13177490234375 141.331787109375 206.2169952392578 141.2097625732422" stroke-width="2" fill="none" stroke="rgb(0, 0, 0)" stroke-opacity="1.0" stroke-linecap="round" stroke-linejoin="round"/>
    <path d="M 90.31057739257812 110.8861083984375 C 290.2592468261719 117.72529602050781 83.07410430908203 111.4085922241211 146.39125061035156 109.15605926513672" stroke-width="2" fill="none" stroke="rgb(0, 0, 0)" stroke-opacity="1.0" stroke-linecap="round" stroke-linejoin="round"/>
    <path d="M 128.46070861816406 109.42388153076172 C 11.421015739440918 124.98809814453125 174.9744415283203 102.14482879638672 114.2928695678711 103.76046752929688" stroke-width="2" fill="none" stroke="rgb(0, 0, 0)" stroke-opacity="1.0" stroke-linecap="round" stroke-linejoin="round"/>
    <path d="M 187.1123809814453 60.33256912231445 C 135.45196533203125 84.32209777832031 239.5726318359375 24.480560302734375 157.04649353027344 99.30630493164062" stroke-width="2" fill="none" stroke="rgb(0, 0, 0)" stroke-opacity="1.0" stroke-linecap="round" stroke-linejoin="round"/>
    <path d="M 170.93905639648438 149.09352111816406 C 150.18560791015625 142.0811767578125 201.71519470214844 147.48361206054688 179.24209594726562 154.56439208984375" stroke-width="2" fill="none" stroke="rgb(0, 0, 0)" stroke-opacity="1.0" stroke-linecap="round" stroke-linejoin="round"/>
    <path d="M 149.56040954589844 134.9119110107422 C 280.4444885253906 150.1697540283203 99.97169494628906 162.26075744628906 104.24697875976562 118.77845764160156" stroke-width="2" fill="none" stroke="rgb(0, 0, 0)" stroke-opacity="1.0" stroke-linecap="round" stroke-linejoin="round"/>
    <path d="M 150.7455291748047 83.6324462890625 C 121.560791015625 101.18840026855469 185.78012084960938 92.39220428466797 89.37351989746094 65.93647003173828" stroke-width="2" fill="none" stroke="rgb(0, 0, 0)" stroke-opacity="1.0" stroke-linecap="round" stroke-linejoin="round"/>
    <path d="M 155.26065063476562 91.43040466308594 C 176.5350799560547 137.73776245117188 190.0851287841797 48.95809555053711 184.00314331054688 74.17572784423828" stroke-width="2" fill="none" stroke="rgb(0, 0, 0)" stroke-opacity="1.0" stroke-linecap="round" stroke-linejoin="round"/>
    <path d="M 95.33939361572266 73.03720092773438 C 146.54580688476562 111.42794036865234 47.0478515625 61.94362258911133 39.408939361572266 124.63468933105469" stroke-width="2" fill="none" stroke="rgb(0, 0, 0)" stroke-opacity="1.0" stroke-linecap="round" stroke-linejoin="round"/>
    <path d="M 36.04926300048828 128.2542266845703 C 46.43610763549805 101.84516906738281 4.558885097503662 154.26266479492188 85.36249542236328 148.4484405517578" stroke-width="2" fill="none" stroke="rgb(0, 0, 0)" stroke-opacity="1.0" stroke-linecap="round" stroke-linejoin="round"/>
  </g>
</svg>
