<?xml version="1.0" ?>
<svg xmlns="http://www.w3.org/2000/svg" version="1.1" width="224" height="224">
  <defs/>
  <g>
    <path d="M 159.806640625 106.38248443603516 C 18.535381317138672 76.8694076538086 234.34156799316406 79.7372817993164 158.23382568359375 78.31140899658203" stroke-width="2" fill="none" stroke="rgb(0, 0, 0)" stroke-opacity="1.0" stroke-linecap="round" stroke-linejoin="round"/>
    <path d="M 132.6506805419922 102.8958740234375 C 204.31158447265625 101.91610717773438 112.38253021240234 90.2743148803711 151.52728271484375 101.7896728515625" stroke-width="2" fill="none" stroke="rgb(0, 0, 0)" stroke-opacity="1.0" stroke-linecap="round" stroke-linejoin="round"/>
    <path d="M 116.28611755371094 122.09954071044922 C 215.87533569335938 152.87908935546875 94.83256530761719 135.82550048828125 125.5105972290039 133.0634307861328" stroke-width="2" fill="none" stroke="rgb(0, 0, 0)" stroke-opacity="1.0" stroke-linecap="round" stroke-linejoin="round"/>
    <path d="M 145.45791625976562 143.0941162109375 C 147.3744659423828 155.0177459716797 176.31646728515625 133.04486083984375 174.90782165527344 148.7652587890625" stroke-width="2" fill="none" stroke="rgb(0, 0, 0)" stroke-opacity="1.0" stroke-linecap="round" stroke-linejoin="round"/>
    <path d="M 121.6350326538086 97.13082885742188 C 168.53057861328125 183.29559326171875 220.12542724609375 5.876491069793701 176.01004028320312 83.96501922607422" stroke-width="2" fill="none" stroke="rgb(0, 0, 0)" stroke-opacity="1.0" stroke-linecap="round" stroke-linejoin="round"/>
    <path d="M 98.3910903930664 72.52915954589844 C 111.50605010986328 105.233642578125 103.24893188476562 77.89879608154297 160.78579711914062 80.74552154541016" stroke-width="2" fill="none" stroke="rgb(0, 0, 0)" stroke-opacity="1.0" stroke-linecap="round" stroke-linejoin="round"/>
    <path d="M 49.955989837646484 133.92108154296875 C 32.36717224121094 164.22145080566406 213.2991485595703 155.1104278564453 179.2906951904297 142.8466796875" stroke-width="2" fill="none" stroke="rgb(0, 0, 0)" stroke-opacity="1.0" stroke-linecap="round" stroke-linejoin="round"/>
    <path d="M 87.56893920898438 116.3438491821289 C 336.1350402832031 121.3035888671875 53.05344009399414 120.9096908569336 151.5396728515625 98.66751098632812" stroke-width="2" fill="none" stroke="rgb(0, 0, 0)" stroke-opacity="1.0" stroke-linecap="round" stroke-linejoin="round"/>
    <path d="M 158.6176300048828 107.27195739746094 C -57.29875564575195 172.52845764160156 149.17678833007812 134.37123107910156 95.09608459472656 111.85568237304688" stroke-width="2" fill="none" stroke="rgb(0, 0, 0)" stroke-opacity="1.0" stroke-linecap="round" stroke-linejoin="round"/>
    <path d="M 175.44821166992188 92.63137817382812 C 170.44729614257812 122.88538360595703 197.21453857421875 50.112430572509766 179.66436767578125 101.7097396850586" stroke-width="2" fill="none" stroke="rgb(0, 0, 0)" stroke-opacity="1.0" stroke-linecap="round" stroke-linejoin="round"/>
    <path d="M 180.3826446533203 141.97738647460938 C 144.84939575195312 157.6992950439453 197.50601196289062 148.12109375 174.3157958984375 147.7597198486328" stroke-width="2" fill="none" stroke="rgb(0, 0, 0)" stroke-opacity="1.0" stroke-linecap="round" stroke-linejoin="round"/>
    <path d="M 191.12881469726562 130.72666931152344 C 257.9031066894531 112.93388366699219 174.6311492919922 138.6258544921875 159.8209686279297 134.48448181152344" stroke-width="2" fill="none" stroke="rgb(0, 0, 0)" stroke-opacity="1.0" stroke-linecap="round" stroke-linejoin="round"/>
    <path d="M 134.71913146972656 85.1984634399414 C 101.9266586303711 97.06754302978516 172.05467224121094 86.71065521240234 100.75579071044922 66.82312774658203" stroke-width="2" fill="none" stroke="rgb(0, 0, 0)" stroke-opacity="1.0" stroke-linecap="round" stroke-linejoin="round"/>
    <path d="M 159.1217803955078 86.5511474609375 C 173.3755340576172 123.47687530517578 231.7985076904297 18.682361602783203 163.96267700195312 83.47943878173828" stroke-width="2" fill="none" stroke="rgb(0, 0, 0)" stroke-opacity="1.0" stroke-linecap="round" stroke-linejoin="round"/>
    <path d="M 105.08939361572266 70.64756774902344 C 181.97958374023438 120.87445068359375 54.17335510253906 67.75767517089844 49.384586334228516 114.7669906616211" stroke-width="2" fill="none" stroke="rgb(0, 0, 0)" stroke-opacity="1.0" stroke-linecap="round" stroke-linejoin="round"/>
    <path d="M 40.407142639160156 121.67268371582031 C 86.85565948486328 83.82035827636719 -17.61164665222168 149.0316162109375 108.12678527832031 138.1677703857422" stroke-width="2" fill="none" stroke="rgb(0, 0, 0)" stroke-opacity="1.0" stroke-linecap="round" stroke-linejoin="round"/>
  </g>
</svg>
