<?xml version="1.0" ?>
<svg xmlns="http://www.w3.org/2000/svg" version="1.1" width="224" height="224">
  <defs/>
  <g>
    <path d="M 156.3975372314453 105.72004699707031 C 22.261045455932617 78.93495178222656 232.90505981445312 78.6620864868164 164.8436279296875 79.60586547851562" stroke-width="2" fill="none" stroke="rgb(0, 0, 0)" stroke-opacity="1.0" stroke-linecap="round" stroke-linejoin="round"/>
    <path d="M 123.18958282470703 102.09667205810547 C 211.22930908203125 101.25821685791016 105.99641418457031 86.46298217773438 149.5370330810547 98.22760009765625" stroke-width="2" fill="none" stroke="rgb(0, 0, 0)" stroke-opacity="1.0" stroke-linecap="round" stroke-linejoin="round"/>
    <path d="M 110.0171127319336 126.96886444091797 C 225.22103881835938 151.08042907714844 86.0312728881836 113.0759506225586 118.71925354003906 131.40528869628906" stroke-width="2" fill="none" stroke="rgb(0, 0, 0)" stroke-opacity="1.0" stroke-linecap="round" stroke-linejoin="round"/>
    <path d="M 137.94947814941406 143.5966796875 C 154.60623168945312 154.30526733398438 170.9392547607422 130.2861328125 178.84512329101562 151.61624145507812" stroke-width="2" fill="none" stroke="rgb(0, 0, 0)" stroke-opacity="1.0" stroke-linecap="round" stroke-linejoin="round"/>
    <path d="M 125.21097564697266 101.43795776367188 C 170.32421875 180.25718688964844 219.8367462158203 4.602928638458252 177.9786376953125 77.86872100830078" stroke-width="2" fill="none" stroke="rgb(0, 0, 0)" stroke-opacity="1.0" stroke-linecap="round" stroke-linejoin="round"/>
    <path d="M 101.51327514648438 70.5635986328125 C 102.59387969970703 104.71176147460938 108.25285339355469 77.28440856933594 165.25961303710938 80.5280990600586" stroke-width="2" fill="none" stroke="rgb(0, 0, 0)" stroke-opacity="1.0" stroke-linecap="round" stroke-linejoin="round"/>
    <path d="M 45.59617233276367 139.66024780273438 C 37.292911529541016 166.20394897460938 207.8377685546875 145.16458129882812 179.10980224609375 149.08224487304688" stroke-width="2" fill="none" stroke="rgb(0, 0, 0)" stroke-opacity="1.0" stroke-linecap="round" stroke-linejoin="round"/>
    <path d="M 91.90190887451172 118.91243743896484 C 337.5924987792969 125.7034912109375 45.46278762817383 122.89788818359375 149.13980102539062 98.26910400390625" stroke-width="2" fill="none" stroke="rgb(0, 0, 0)" stroke-opacity="1.0" stroke-linecap="round" stroke-linejoin="round"/>
    <path d="M 158.374755859375 112.38931274414062 C -57.952552795410156 176.24942016601562 150.98709106445312 123.72832489013672 110.74553680419922 111.83672332763672" stroke-width="2" fill="none" stroke="rgb(0, 0, 0)" stroke-opacity="1.0" stroke-linecap="round" stroke-linejoin="round"/>
    <path d="M 163.54537963867188 86.33094787597656 C 160.73806762695312 115.27601623535156 204.8144989013672 45.89316940307617 184.14161682128906 96.7282485961914" stroke-width="2" fill="none" stroke="rgb(0, 0, 0)" stroke-opacity="1.0" stroke-linecap="round" stroke-linejoin="round"/>
    <path d="M 177.22145080566406 145.78988647460938 C 146.17575073242188 156.03839111328125 201.35531616210938 152.05499267578125 180.8773651123047 145.3477020263672" stroke-width="2" fill="none" stroke="rgb(0, 0, 0)" stroke-opacity="1.0" stroke-linecap="round" stroke-linejoin="round"/>
    <path d="M 203.2830047607422 128.08407592773438 C 256.3977966308594 116.79451751708984 181.2853546142578 129.3966827392578 175.81118774414062 115.95775604248047" stroke-width="2" fill="none" stroke="rgb(0, 0, 0)" stroke-opacity="1.0" stroke-linecap="round" stroke-linejoin="round"/>
    <path d="M 129.15074157714844 84.25554656982422 C 109.13826751708984 81.5691909790039 180.54623413085938 95.69913482666016 97.19954681396484 68.57302856445312" stroke-width="2" fill="none" stroke="rgb(0, 0, 0)" stroke-opacity="1.0" stroke-linecap="round" stroke-linejoin="round"/>
    <path d="M 159.12281799316406 85.68035888671875 C 174.74447631835938 117.0517807006836 228.1472625732422 18.407297134399414 155.61514282226562 81.17607879638672" stroke-width="2" fill="none" stroke="rgb(0, 0, 0)" stroke-opacity="1.0" stroke-linecap="round" stroke-linejoin="round"/>
    <path d="M 97.59207153320312 68.5976333618164 C 169.7338409423828 121.30553436279297 51.291011810302734 67.61514282226562 50.0577507019043 125.45036315917969" stroke-width="2" fill="none" stroke="rgb(0, 0, 0)" stroke-opacity="1.0" stroke-linecap="round" stroke-linejoin="round"/>
    <path d="M 40.400672912597656 115.33965301513672 C 89.15190124511719 105.32252502441406 -29.67455291748047 153.09384155273438 102.24068450927734 139.62989807128906" stroke-width="2" fill="none" stroke="rgb(0, 0, 0)" stroke-opacity="1.0" stroke-linecap="round" stroke-linejoin="round"/>
  </g>
</svg>
