<?xml version="1.0" ?>
<svg xmlns="http://www.w3.org/2000/svg" version="1.1" width="224" height="224">
  <defs/>
  <g>
    <path d="M 148.41326904296875 82.88664245605469 C 73.26697540283203 61.023048400878906 189.57774353027344 92.98919677734375 153.679931640625 86.64598083496094" stroke-width="2" fill="none" stroke="rgb(0, 0, 0)" stroke-opacity="1.0" stroke-linecap="round" stroke-linejoin="round"/>
    <path d="M 105.92308044433594 85.0128402709961 C 150.7759246826172 133.55538940429688 63.46036911010742 30.74166488647461 118.88630676269531 82.89656829833984" stroke-width="2" fill="none" stroke="rgb(0, 0, 0)" stroke-opacity="1.0" stroke-linecap="round" stroke-linejoin="round"/>
    <path d="M 143.01788330078125 97.81251525878906 C 124.95527648925781 85.97960662841797 188.29090881347656 107.02457427978516 116.84961700439453 107.1937026977539" stroke-width="2" fill="none" stroke="rgb(0, 0, 0)" stroke-opacity="1.0" stroke-linecap="round" stroke-linejoin="round"/>
    <path d="M 131.23617553710938 131.73191833496094 C 104.2120132446289 134.4762420654297 221.78182983398438 159.58462524414062 170.1100311279297 157.34767150878906" stroke-width="2" fill="none" stroke="rgb(0, 0, 0)" stroke-opacity="1.0" stroke-linecap="round" stroke-linejoin="round"/>
    <path d="M 129.53866577148438 111.11203002929688 C 150.58810424804688 179.98011779785156 223.98529052734375 4.097723484039307 163.35826110839844 87.78106689453125" stroke-width="2" fill="none" stroke="rgb(0, 0, 0)" stroke-opacity="1.0" stroke-linecap="round" stroke-linejoin="round"/>
    <path d="M 177.71151733398438 152.82632446289062 C 232.0003662109375 157.37249755859375 16.3353328704834 96.01871490478516 159.86036682128906 76.2712173461914" stroke-width="2" fill="none" stroke="rgb(0, 0, 0)" stroke-opacity="1.0" stroke-linecap="round" stroke-linejoin="round"/>
    <path d="M 106.09856414794922 141.54847717285156 C 104.3756332397461 127.63831329345703 71.59983825683594 130.39874267578125 98.0758285522461 128.44949340820312" stroke-width="2" fill="none" stroke="rgb(0, 0, 0)" stroke-opacity="1.0" stroke-linecap="round" stroke-linejoin="round"/>
    <path d="M 172.87051391601562 147.35586547851562 C 171.35031127929688 129.24154663085938 100.90928649902344 139.58311462402344 119.50302124023438 134.4561767578125" stroke-width="2" fill="none" stroke="rgb(0, 0, 0)" stroke-opacity="1.0" stroke-linecap="round" stroke-linejoin="round"/>
    <path d="M 72.33229064941406 133.86166381835938 C 75.40662384033203 150.89462280273438 181.2122039794922 144.35009765625 145.22219848632812 150.11851501464844" stroke-width="2" fill="none" stroke="rgb(0, 0, 0)" stroke-opacity="1.0" stroke-linecap="round" stroke-linejoin="round"/>
    <path d="M 159.15809631347656 91.51595306396484 C 131.36984252929688 81.9717788696289 217.3579864501953 82.60153198242188 127.92662048339844 106.74861907958984" stroke-width="2" fill="none" stroke="rgb(0, 0, 0)" stroke-opacity="1.0" stroke-linecap="round" stroke-linejoin="round"/>
    <path d="M 164.53440856933594 109.1228256225586 C 158.6207275390625 116.67949676513672 154.8883819580078 101.28665924072266 154.44638061523438 132.97113037109375" stroke-width="2" fill="none" stroke="rgb(0, 0, 0)" stroke-opacity="1.0" stroke-linecap="round" stroke-linejoin="round"/>
    <path d="M 151.82501220703125 102.63195037841797 C 102.83219909667969 91.6904067993164 184.5883026123047 120.18722534179688 134.6942138671875 110.32244873046875" stroke-width="2" fill="none" stroke="rgb(0, 0, 0)" stroke-opacity="1.0" stroke-linecap="round" stroke-linejoin="round"/>
    <path d="M 100.85206604003906 68.69489288330078 C 95.67588806152344 130.56771850585938 138.318115234375 85.56140899658203 111.37274932861328 95.08685302734375" stroke-width="2" fill="none" stroke="rgb(0, 0, 0)" stroke-opacity="1.0" stroke-linecap="round" stroke-linejoin="round"/>
    <path d="M 174.60821533203125 97.40985107421875 C 136.02052307128906 119.29409790039062 211.94737243652344 48.828277587890625 156.77308654785156 96.97907257080078" stroke-width="2" fill="none" stroke="rgb(0, 0, 0)" stroke-opacity="1.0" stroke-linecap="round" stroke-linejoin="round"/>
    <path d="M 137.17198181152344 99.26170349121094 C 196.32948303222656 142.44390869140625 47.27998352050781 49.402774810791016 59.27920150756836 123.96282958984375" stroke-width="2" fill="none" stroke="rgb(0, 0, 0)" stroke-opacity="1.0" stroke-linecap="round" stroke-linejoin="round"/>
    <path d="M 59.00513458251953 112.29536437988281 C 105.19864654541016 78.70604705810547 -55.92738342285156 171.71974182128906 144.09674072265625 145.1324462890625" stroke-width="2" fill="none" stroke="rgb(0, 0, 0)" stroke-opacity="1.0" stroke-linecap="round" stroke-linejoin="round"/>
  </g>
</svg>
