<?xml version="1.0" ?>
<svg xmlns="http://www.w3.org/2000/svg" version="1.1" width="224" height="224">
  <defs/>
  <g>
    <path d="M 151.53045654296875 110.90975952148438 C 29.665849685668945 71.11518859863281 255.0442657470703 71.61949920654297 169.5926513671875 91.50569915771484" stroke-width="2" fill="none" stroke="rgb(0, 0, 0)" stroke-opacity="1.0" stroke-linecap="round" stroke-linejoin="round"/>
    <path d="M 126.93704986572266 101.6732177734375 C 183.07806396484375 104.40985107421875 93.63381958007812 88.7066879272461 143.85629272460938 105.08039855957031" stroke-width="2" fill="none" stroke="rgb(0, 0, 0)" stroke-opacity="1.0" stroke-linecap="round" stroke-linejoin="round"/>
    <path d="M 93.74797821044922 141.55413818359375 C 146.73899841308594 174.6540069580078 101.59182739257812 124.37322235107422 113.1026840209961 145.51527404785156" stroke-width="2" fill="none" stroke="rgb(0, 0, 0)" stroke-opacity="1.0" stroke-linecap="round" stroke-linejoin="round"/>
    <path d="M 170.5679931640625 148.9315185546875 C 166.92662048339844 162.4878387451172 146.85842895507812 131.53033447265625 139.6355743408203 151.41542053222656" stroke-width="2" fill="none" stroke="rgb(0, 0, 0)" stroke-opacity="1.0" stroke-linecap="round" stroke-linejoin="round"/>
    <path d="M 108.6685562133789 115.11261749267578 C 155.14295959472656 169.1040802001953 222.625244140625 33.15785598754883 161.01536560058594 106.41836547851562" stroke-width="2" fill="none" stroke="rgb(0, 0, 0)" stroke-opacity="1.0" stroke-linecap="round" stroke-linejoin="round"/>
    <path d="M 100.11861419677734 70.9130859375 C 100.06352233886719 97.10932922363281 126.32308959960938 76.6147232055664 182.46435546875 73.90644836425781" stroke-width="2" fill="none" stroke="rgb(0, 0, 0)" stroke-opacity="1.0" stroke-linecap="round" stroke-linejoin="round"/>
    <path d="M 60.523040771484375 140.824462890625 C 77.72174835205078 171.43026733398438 214.6194305419922 140.1185302734375 187.99378967285156 140.5482635498047" stroke-width="2" fill="none" stroke="rgb(0, 0, 0)" stroke-opacity="1.0" stroke-linecap="round" stroke-linejoin="round"/>
    <path d="M 82.35525512695312 122.94526672363281 C 313.79400634765625 130.75552368164062 50.948448181152344 121.51493835449219 145.4435577392578 98.20929718017578" stroke-width="2" fill="none" stroke="rgb(0, 0, 0)" stroke-opacity="1.0" stroke-linecap="round" stroke-linejoin="round"/>
    <path d="M 153.62538146972656 110.00839233398438 C -38.397613525390625 154.7461395263672 157.9215850830078 115.79779052734375 105.03384399414062 113.1281509399414" stroke-width="2" fill="none" stroke="rgb(0, 0, 0)" stroke-opacity="1.0" stroke-linecap="round" stroke-linejoin="round"/>
    <path d="M 187.89309692382812 68.01795196533203 C 162.937744140625 96.37663269042969 222.16351318359375 18.89405059814453 175.2886505126953 106.13594818115234" stroke-width="2" fill="none" stroke="rgb(0, 0, 0)" stroke-opacity="1.0" stroke-linecap="round" stroke-linejoin="round"/>
    <path d="M 195.38905334472656 142.94020080566406 C 177.9480438232422 155.09063720703125 210.0746307373047 114.69791412353516 184.65939331054688 136.85446166992188" stroke-width="2" fill="none" stroke="rgb(0, 0, 0)" stroke-opacity="1.0" stroke-linecap="round" stroke-linejoin="round"/>
    <path d="M 171.9510498046875 142.49351501464844 C 248.3900604248047 115.63773345947266 108.39854431152344 156.6000518798828 129.37779235839844 148.89805603027344" stroke-width="2" fill="none" stroke="rgb(0, 0, 0)" stroke-opacity="1.0" stroke-linecap="round" stroke-linejoin="round"/>
    <path d="M 154.94915771484375 76.65977478027344 C 120.12057495117188 95.56754302978516 189.8579864501953 92.0145263671875 98.6209945678711 67.70645141601562" stroke-width="2" fill="none" stroke="rgb(0, 0, 0)" stroke-opacity="1.0" stroke-linecap="round" stroke-linejoin="round"/>
    <path d="M 157.34373474121094 98.49042510986328 C 165.7305908203125 127.17697143554688 233.78109741210938 19.306961059570312 164.96127319335938 71.22859954833984" stroke-width="2" fill="none" stroke="rgb(0, 0, 0)" stroke-opacity="1.0" stroke-linecap="round" stroke-linejoin="round"/>
    <path d="M 97.62421417236328 67.77568817138672 C 177.6339874267578 119.22200012207031 36.19090270996094 63.06112289428711 50.80476379394531 124.40409851074219" stroke-width="2" fill="none" stroke="rgb(0, 0, 0)" stroke-opacity="1.0" stroke-linecap="round" stroke-linejoin="round"/>
    <path d="M 33.21718978881836 131.72354125976562 C 68.2861099243164 86.01702117919922 -6.543822765350342 148.70175170898438 83.1894760131836 152.94451904296875" stroke-width="2" fill="none" stroke="rgb(0, 0, 0)" stroke-opacity="1.0" stroke-linecap="round" stroke-linejoin="round"/>
  </g>
</svg>
