<?xml version="1.0" ?>
<svg xmlns="http://www.w3.org/2000/svg" version="1.1" width="224" height="224">
  <defs/>
  <g>
    <path d="M 158.2809295654297 92.64163970947266 C 112.66468811035156 69.71452331542969 185.79945373535156 108.63614654541016 150.9033203125 101.07007598876953" stroke-width="2" fill="none" stroke="rgb(0, 0, 0)" stroke-opacity="1.0" stroke-linecap="round" stroke-linejoin="round"/>
    <path d="M 97.0383529663086 70.1579818725586 C 153.161865234375 135.21983337402344 47.08728790283203 27.12091636657715 124.93901062011719 83.70158386230469" stroke-width="2" fill="none" stroke="rgb(0, 0, 0)" stroke-opacity="1.0" stroke-linecap="round" stroke-linejoin="round"/>
    <path d="M 160.35296630859375 82.84406280517578 C 132.52474975585938 87.43589782714844 191.9622802734375 113.17422485351562 111.36083984375 106.58783721923828" stroke-width="2" fill="none" stroke="rgb(0, 0, 0)" stroke-opacity="1.0" stroke-linecap="round" stroke-linejoin="round"/>
    <path d="M 134.690673828125 133.39891052246094 C 80.6249008178711 130.5692596435547 193.1157684326172 145.14019775390625 171.39691162109375 151.73782348632812" stroke-width="2" fill="none" stroke="rgb(0, 0, 0)" stroke-opacity="1.0" stroke-linecap="round" stroke-linejoin="round"/>
    <path d="M 129.18035888671875 111.02621459960938 C 138.5770721435547 173.7723388671875 223.86541748046875 4.950361251831055 157.88368225097656 83.8873291015625" stroke-width="2" fill="none" stroke="rgb(0, 0, 0)" stroke-opacity="1.0" stroke-linecap="round" stroke-linejoin="round"/>
    <path d="M 168.53579711914062 149.5956268310547 C 225.61590576171875 158.91107177734375 25.080366134643555 87.79283905029297 164.24009704589844 76.90364074707031" stroke-width="2" fill="none" stroke="rgb(0, 0, 0)" stroke-opacity="1.0" stroke-linecap="round" stroke-linejoin="round"/>
    <path d="M 113.61491394042969 128.45257568359375 C 88.0697250366211 127.56339263916016 112.95390319824219 136.3585968017578 112.63500213623047 122.58772277832031" stroke-width="2" fill="none" stroke="rgb(0, 0, 0)" stroke-opacity="1.0" stroke-linecap="round" stroke-linejoin="round"/>
    <path d="M 183.9195556640625 141.7421417236328 C 197.16854858398438 131.25546264648438 77.7405014038086 145.3173370361328 107.45047760009766 136.2130889892578" stroke-width="2" fill="none" stroke="rgb(0, 0, 0)" stroke-opacity="1.0" stroke-linecap="round" stroke-linejoin="round"/>
    <path d="M 74.52267456054688 133.7705535888672 C 77.73773956298828 155.22500610351562 195.526611328125 158.35508728027344 160.29002380371094 154.1793212890625" stroke-width="2" fill="none" stroke="rgb(0, 0, 0)" stroke-opacity="1.0" stroke-linecap="round" stroke-linejoin="round"/>
    <path d="M 161.93333435058594 92.708251953125 C 127.45185852050781 86.79853820800781 221.07537841796875 85.07747650146484 140.19467163085938 111.54508209228516" stroke-width="2" fill="none" stroke="rgb(0, 0, 0)" stroke-opacity="1.0" stroke-linecap="round" stroke-linejoin="round"/>
    <path d="M 161.35739135742188 107.82462310791016 C 138.2905731201172 107.98655700683594 153.96804809570312 98.63684844970703 149.17459106445312 128.25465393066406" stroke-width="2" fill="none" stroke="rgb(0, 0, 0)" stroke-opacity="1.0" stroke-linecap="round" stroke-linejoin="round"/>
    <path d="M 139.5116729736328 100.13734436035156 C 109.24137878417969 98.8367919921875 172.51434326171875 116.03278350830078 131.09423828125 108.18771362304688" stroke-width="2" fill="none" stroke="rgb(0, 0, 0)" stroke-opacity="1.0" stroke-linecap="round" stroke-linejoin="round"/>
    <path d="M 98.25686645507812 75.7579345703125 C 93.71289825439453 121.41592407226562 151.79356384277344 85.2781753540039 102.34020233154297 92.70464324951172" stroke-width="2" fill="none" stroke="rgb(0, 0, 0)" stroke-opacity="1.0" stroke-linecap="round" stroke-linejoin="round"/>
    <path d="M 158.6514434814453 99.02360534667969 C 123.6725082397461 106.34334564208984 215.70619201660156 70.83685302734375 155.91004943847656 96.87364196777344" stroke-width="2" fill="none" stroke="rgb(0, 0, 0)" stroke-opacity="1.0" stroke-linecap="round" stroke-linejoin="round"/>
    <path d="M 135.063232421875 99.08082580566406 C 175.86111450195312 145.615478515625 50.897186279296875 51.95465850830078 50.71193313598633 121.31600952148438" stroke-width="2" fill="none" stroke="rgb(0, 0, 0)" stroke-opacity="1.0" stroke-linecap="round" stroke-linejoin="round"/>
    <path d="M 42.456085205078125 120.40357971191406 C 103.12324523925781 71.18599700927734 -49.90296936035156 163.75119018554688 135.22903442382812 144.9976348876953" stroke-width="2" fill="none" stroke="rgb(0, 0, 0)" stroke-opacity="1.0" stroke-linecap="round" stroke-linejoin="round"/>
  </g>
</svg>
