<?xml version="1.0" ?>
<svg xmlns="http://www.w3.org/2000/svg" version="1.1" width="224" height="224">
  <defs/>
  <g>
    <path d="M 147.52224731445312 115.64970397949219 C 15.23092269897461 79.86289978027344 243.0640106201172 77.99400329589844 164.64393615722656 103.88662719726562" stroke-width="2" fill="none" stroke="rgb(0, 0, 0)" stroke-opacity="1.0" stroke-linecap="round" stroke-linejoin="round"/>
    <path d="M 134.72482299804688 121.1390151977539 C 160.2600555419922 90.6268539428711 98.07276153564453 128.00177001953125 131.7154541015625 102.18221282958984" stroke-width="2" fill="none" stroke="rgb(0, 0, 0)" stroke-opacity="1.0" stroke-linecap="round" stroke-linejoin="round"/>
    <path d="M 131.21144104003906 124.03131103515625 C 183.4717254638672 126.75221252441406 98.0175552368164 130.9363250732422 156.45413208007812 118.25582122802734" stroke-width="2" fill="none" stroke="rgb(0, 0, 0)" stroke-opacity="1.0" stroke-linecap="round" stroke-linejoin="round"/>
    <path d="M 112.95303344726562 120.46775817871094 C 101.85454559326172 160.76702880859375 176.3175506591797 134.23248291015625 153.6786651611328 144.2982940673828" stroke-width="2" fill="none" stroke="rgb(0, 0, 0)" stroke-opacity="1.0" stroke-linecap="round" stroke-linejoin="round"/>
    <path d="M 113.78960418701172 108.22977447509766 C 146.70291137695312 178.7764892578125 243.59783935546875 3.1758129596710205 156.89352416992188 87.82427978515625" stroke-width="2" fill="none" stroke="rgb(0, 0, 0)" stroke-opacity="1.0" stroke-linecap="round" stroke-linejoin="round"/>
    <path d="M 97.69364166259766 71.99051666259766 C 117.8980941772461 136.79022216796875 142.72218322753906 64.3893051147461 151.49339294433594 100.49589538574219" stroke-width="2" fill="none" stroke="rgb(0, 0, 0)" stroke-opacity="1.0" stroke-linecap="round" stroke-linejoin="round"/>
    <path d="M 67.21648406982422 133.43121337890625 C 66.98248291015625 171.12652587890625 250.77059936523438 122.60456848144531 167.19183349609375 106.5472412109375" stroke-width="2" fill="none" stroke="rgb(0, 0, 0)" stroke-opacity="1.0" stroke-linecap="round" stroke-linejoin="round"/>
    <path d="M 134.3691864013672 118.43775939941406 C 337.467529296875 97.08155822753906 60.06632614135742 131.6701202392578 150.22525024414062 128.5367889404297" stroke-width="2" fill="none" stroke="rgb(0, 0, 0)" stroke-opacity="1.0" stroke-linecap="round" stroke-linejoin="round"/>
    <path d="M 154.87933349609375 158.43836975097656 C -58.163658142089844 116.6861801147461 257.7018737792969 185.13052368164062 93.22779083251953 129.49969482421875" stroke-width="2" fill="none" stroke="rgb(0, 0, 0)" stroke-opacity="1.0" stroke-linecap="round" stroke-linejoin="round"/>
    <path d="M 186.07395935058594 114.65106201171875 C 132.36788940429688 125.98165130615234 225.2725830078125 92.51820373535156 165.0859375 123.51908874511719" stroke-width="2" fill="none" stroke="rgb(0, 0, 0)" stroke-opacity="1.0" stroke-linecap="round" stroke-linejoin="round"/>
    <path d="M 178.69981384277344 141.3251495361328 C 110.0170669555664 148.01712036132812 156.11526489257812 133.295654296875 136.59579467773438 135.70277404785156" stroke-width="2" fill="none" stroke="rgb(0, 0, 0)" stroke-opacity="1.0" stroke-linecap="round" stroke-linejoin="round"/>
    <path d="M 177.49464416503906 95.72834777832031 C 127.49517822265625 110.3519287109375 197.7446746826172 114.71134185791016 164.54263305664062 107.46311950683594" stroke-width="2" fill="none" stroke="rgb(0, 0, 0)" stroke-opacity="1.0" stroke-linecap="round" stroke-linejoin="round"/>
    <path d="M 98.88526153564453 76.30131530761719 C 126.24530792236328 103.23687744140625 144.36648559570312 91.65865325927734 105.68616485595703 85.51268005371094" stroke-width="2" fill="none" stroke="rgb(0, 0, 0)" stroke-opacity="1.0" stroke-linecap="round" stroke-linejoin="round"/>
    <path d="M 148.98004150390625 92.27352905273438 C 154.80880737304688 99.74054718017578 226.112548828125 50.19451904296875 165.99717712402344 100.5054931640625" stroke-width="2" fill="none" stroke="rgb(0, 0, 0)" stroke-opacity="1.0" stroke-linecap="round" stroke-linejoin="round"/>
    <path d="M 98.70862579345703 70.37100219726562 C 201.10641479492188 128.2425537109375 40.960269927978516 61.08868408203125 49.361793518066406 120.17860412597656" stroke-width="2" fill="none" stroke="rgb(0, 0, 0)" stroke-opacity="1.0" stroke-linecap="round" stroke-linejoin="round"/>
    <path d="M 40.3510627746582 123.93477630615234 C 102.94232177734375 73.9638671875 -31.856138229370117 153.50070190429688 106.0946273803711 150.8491973876953" stroke-width="2" fill="none" stroke="rgb(0, 0, 0)" stroke-opacity="1.0" stroke-linecap="round" stroke-linejoin="round"/>
  </g>
</svg>
