<?xml version="1.0" ?>
<svg xmlns="http://www.w3.org/2000/svg" version="1.1" width="224" height="224">
  <defs/>
  <g>
    <path d="M 145.28627014160156 117.46406555175781 C 16.541393280029297 71.2787094116211 225.4228057861328 76.85153198242188 157.98878479003906 92.17252349853516" stroke-width="2" fill="none" stroke="rgb(0, 0, 0)" stroke-opacity="1.0" stroke-linecap="round" stroke-linejoin="round"/>
    <path d="M 126.26162719726562 124.16719055175781 C 148.5992431640625 92.53581237792969 84.8619384765625 129.32785034179688 127.69237518310547 100.7313003540039" stroke-width="2" fill="none" stroke="rgb(0, 0, 0)" stroke-opacity="1.0" stroke-linecap="round" stroke-linejoin="round"/>
    <path d="M 129.11146545410156 119.63326263427734 C 187.94984436035156 120.68568420410156 91.16409301757812 130.4862060546875 141.89944458007812 111.20503997802734" stroke-width="2" fill="none" stroke="rgb(0, 0, 0)" stroke-opacity="1.0" stroke-linecap="round" stroke-linejoin="round"/>
    <path d="M 104.5531234741211 117.74979400634766 C 103.28679656982422 157.4967498779297 152.86070251464844 130.69789123535156 148.15109252929688 139.05484008789062" stroke-width="2" fill="none" stroke="rgb(0, 0, 0)" stroke-opacity="1.0" stroke-linecap="round" stroke-linejoin="round"/>
    <path d="M 117.16649627685547 103.58409881591797 C 136.51309204101562 173.93923950195312 248.9110107421875 2.4760305881500244 153.8134002685547 88.68340301513672" stroke-width="2" fill="none" stroke="rgb(0, 0, 0)" stroke-opacity="1.0" stroke-linecap="round" stroke-linejoin="round"/>
    <path d="M 97.90937042236328 74.91027069091797 C 112.8750228881836 139.5532684326172 137.0735626220703 64.67911529541016 149.89984130859375 97.54579162597656" stroke-width="2" fill="none" stroke="rgb(0, 0, 0)" stroke-opacity="1.0" stroke-linecap="round" stroke-linejoin="round"/>
    <path d="M 70.37043762207031 135.2740020751953 C 58.78934860229492 169.28504943847656 267.6015319824219 110.9346694946289 161.05262756347656 100.05741882324219" stroke-width="2" fill="none" stroke="rgb(0, 0, 0)" stroke-opacity="1.0" stroke-linecap="round" stroke-linejoin="round"/>
    <path d="M 129.0203094482422 115.759521484375 C 337.8655090332031 94.12025451660156 47.934261322021484 117.19599914550781 146.56690979003906 125.7625503540039" stroke-width="2" fill="none" stroke="rgb(0, 0, 0)" stroke-opacity="1.0" stroke-linecap="round" stroke-linejoin="round"/>
    <path d="M 157.5222625732422 149.19937133789062 C -61.68269729614258 115.8085708618164 268.23297119140625 189.31106567382812 88.78483581542969 126.5124282836914" stroke-width="2" fill="none" stroke="rgb(0, 0, 0)" stroke-opacity="1.0" stroke-linecap="round" stroke-linejoin="round"/>
    <path d="M 185.6529083251953 106.61209869384766 C 133.21278381347656 115.39989471435547 223.2382354736328 93.86540985107422 159.0990753173828 114.99856567382812" stroke-width="2" fill="none" stroke="rgb(0, 0, 0)" stroke-opacity="1.0" stroke-linecap="round" stroke-linejoin="round"/>
    <path d="M 174.24501037597656 147.4620819091797 C 94.55078125 146.01036071777344 165.76449584960938 127.33797454833984 136.19544982910156 132.7788543701172" stroke-width="2" fill="none" stroke="rgb(0, 0, 0)" stroke-opacity="1.0" stroke-linecap="round" stroke-linejoin="round"/>
    <path d="M 181.41073608398438 102.56229400634766 C 127.481201171875 120.59620666503906 192.31590270996094 119.494873046875 156.7918701171875 102.90442657470703" stroke-width="2" fill="none" stroke="rgb(0, 0, 0)" stroke-opacity="1.0" stroke-linecap="round" stroke-linejoin="round"/>
    <path d="M 100.01213073730469 70.99508666992188 C 122.95867919921875 122.6443862915039 148.86944580078125 99.05402374267578 100.46458435058594 86.6043930053711" stroke-width="2" fill="none" stroke="rgb(0, 0, 0)" stroke-opacity="1.0" stroke-linecap="round" stroke-linejoin="round"/>
    <path d="M 153.33566284179688 85.98131561279297 C 155.239501953125 89.72409057617188 218.96075439453125 32.46907043457031 172.8241424560547 109.0198974609375" stroke-width="2" fill="none" stroke="rgb(0, 0, 0)" stroke-opacity="1.0" stroke-linecap="round" stroke-linejoin="round"/>
    <path d="M 97.5456771850586 70.53504180908203 C 202.90687561035156 126.6917953491211 45.59223556518555 60.25320053100586 54.314334869384766 124.90013122558594" stroke-width="2" fill="none" stroke="rgb(0, 0, 0)" stroke-opacity="1.0" stroke-linecap="round" stroke-linejoin="round"/>
    <path d="M 42.412986755371094 126.8860855102539 C 105.45064544677734 66.79244995117188 -28.913053512573242 158.26812744140625 103.55062866210938 149.2134552001953" stroke-width="2" fill="none" stroke="rgb(0, 0, 0)" stroke-opacity="1.0" stroke-linecap="round" stroke-linejoin="round"/>
  </g>
</svg>
