<?xml version="1.0" ?>
<svg xmlns="http://www.w3.org/2000/svg" version="1.1" width="224" height="224">
  <defs/>
  <g>
    <path d="M 128.97784423828125 132.5303497314453 C 26.205516815185547 65.27812957763672 250.89599609375 96.8496322631836 145.1923065185547 98.3885498046875" stroke-width="2" fill="none" stroke="rgb(0, 0, 0)" stroke-opacity="1.0" stroke-linecap="round" stroke-linejoin="round"/>
    <path d="M 124.35194396972656 121.26480865478516 C 158.0009307861328 107.97763061523438 106.29366302490234 108.8731460571289 129.6310272216797 105.05955505371094" stroke-width="2" fill="none" stroke="rgb(0, 0, 0)" stroke-opacity="1.0" stroke-linecap="round" stroke-linejoin="round"/>
    <path d="M 131.66310119628906 139.64413452148438 C 116.63042449951172 156.91278076171875 101.14485931396484 111.31982421875 97.69464111328125 137.1126708984375" stroke-width="2" fill="none" stroke="rgb(0, 0, 0)" stroke-opacity="1.0" stroke-linecap="round" stroke-linejoin="round"/>
    <path d="M 181.31346130371094 147.51803588867188 C 147.07632446289062 158.990234375 200.65098571777344 142.0434112548828 132.73318481445312 142.41604614257812" stroke-width="2" fill="none" stroke="rgb(0, 0, 0)" stroke-opacity="1.0" stroke-linecap="round" stroke-linejoin="round"/>
    <path d="M 115.99765014648438 119.70991516113281 C 146.36676025390625 143.8438720703125 223.98313903808594 111.05707550048828 100.88552856445312 82.2015380859375" stroke-width="2" fill="none" stroke="rgb(0, 0, 0)" stroke-opacity="1.0" stroke-linecap="round" stroke-linejoin="round"/>
    <path d="M 97.22325897216797 68.31584167480469 C 100.70170593261719 118.16095733642578 239.76324462890625 69.8231430053711 145.7474365234375 82.05475616455078" stroke-width="2" fill="none" stroke="rgb(0, 0, 0)" stroke-opacity="1.0" stroke-linecap="round" stroke-linejoin="round"/>
    <path d="M 48.540260314941406 138.1573486328125 C 36.66366958618164 169.67791748046875 217.28709411621094 138.9824676513672 172.9582977294922 156.07614135742188" stroke-width="2" fill="none" stroke="rgb(0, 0, 0)" stroke-opacity="1.0" stroke-linecap="round" stroke-linejoin="round"/>
    <path d="M 128.25894165039062 116.32097625732422 C 163.42713928222656 114.27918243408203 66.22898864746094 122.68067932128906 135.77371215820312 119.42887878417969" stroke-width="2" fill="none" stroke="rgb(0, 0, 0)" stroke-opacity="1.0" stroke-linecap="round" stroke-linejoin="round"/>
    <path d="M 145.37368774414062 126.3351821899414 C 65.55424499511719 108.76160430908203 166.8422393798828 114.89952087402344 137.53616333007812 107.55339050292969" stroke-width="2" fill="none" stroke="rgb(0, 0, 0)" stroke-opacity="1.0" stroke-linecap="round" stroke-linejoin="round"/>
    <path d="M 181.0818328857422 59.88652801513672 C 120.4005126953125 117.17854309082031 225.82546997070312 12.75253963470459 167.9005584716797 96.65038299560547" stroke-width="2" fill="none" stroke="rgb(0, 0, 0)" stroke-opacity="1.0" stroke-linecap="round" stroke-linejoin="round"/>
    <path d="M 103.31739807128906 155.83668518066406 C 173.75970458984375 137.26666259765625 164.29339599609375 163.6280059814453 148.8994903564453 149.0240478515625" stroke-width="2" fill="none" stroke="rgb(0, 0, 0)" stroke-opacity="1.0" stroke-linecap="round" stroke-linejoin="round"/>
    <path d="M 97.81338500976562 129.57681274414062 C 301.1617431640625 147.5749969482422 79.83551025390625 160.99342346191406 81.4856948852539 137.93844604492188" stroke-width="2" fill="none" stroke="rgb(0, 0, 0)" stroke-opacity="1.0" stroke-linecap="round" stroke-linejoin="round"/>
    <path d="M 153.68597412109375 92.06116485595703 C 120.68487548828125 105.26425170898438 193.64903259277344 108.46862030029297 99.82682037353516 72.95018768310547" stroke-width="2" fill="none" stroke="rgb(0, 0, 0)" stroke-opacity="1.0" stroke-linecap="round" stroke-linejoin="round"/>
    <path d="M 155.4509735107422 111.5147705078125 C 185.7075653076172 119.25214385986328 186.59674072265625 55.41078567504883 183.73516845703125 68.11241912841797" stroke-width="2" fill="none" stroke="rgb(0, 0, 0)" stroke-opacity="1.0" stroke-linecap="round" stroke-linejoin="round"/>
    <path d="M 101.92359161376953 82.7209243774414 C 141.1804656982422 136.4176788330078 46.604881286621094 62.940223693847656 50.502037048339844 120.55652618408203" stroke-width="2" fill="none" stroke="rgb(0, 0, 0)" stroke-opacity="1.0" stroke-linecap="round" stroke-linejoin="round"/>
    <path d="M 90.42861938476562 95.48676300048828 C 53.35245895385742 91.2405776977539 5.784456729888916 150.2834930419922 66.51171112060547 148.4918975830078" stroke-width="2" fill="none" stroke="rgb(0, 0, 0)" stroke-opacity="1.0" stroke-linecap="round" stroke-linejoin="round"/>
  </g>
</svg>
