<?xml version="1.0" ?>
<svg xmlns="http://www.w3.org/2000/svg" version="1.1" width="224" height="224">
  <defs/>
  <g>
    <path d="M 119.45941925048828 86.80079650878906 C 31.508161544799805 44.66880416870117 212.34043884277344 103.1763916015625 155.93528747558594 88.14585876464844" stroke-width="2" fill="none" stroke="rgb(0, 0, 0)" stroke-opacity="1.0" stroke-linecap="round" stroke-linejoin="round"/>
    <path d="M 122.44355773925781 78.4215316772461 C 196.3701629638672 102.13447570800781 42.987754821777344 38.703834533691406 119.18902587890625 92.00511169433594" stroke-width="2" fill="none" stroke="rgb(0, 0, 0)" stroke-opacity="1.0" stroke-linecap="round" stroke-linejoin="round"/>
    <path d="M 151.71678161621094 98.91889953613281 C 109.20010375976562 97.99737548828125 227.75448608398438 124.32232666015625 122.24253845214844 109.54330444335938" stroke-width="2" fill="none" stroke="rgb(0, 0, 0)" stroke-opacity="1.0" stroke-linecap="round" stroke-linejoin="round"/>
    <path d="M 104.13619232177734 138.6497802734375 C 73.33659362792969 142.3936004638672 276.12042236328125 165.84609985351562 118.46077728271484 149.12109375" stroke-width="2" fill="none" stroke="rgb(0, 0, 0)" stroke-opacity="1.0" stroke-linecap="round" stroke-linejoin="round"/>
    <path d="M 148.22604370117188 101.07716369628906 C 161.34933471679688 153.53782653808594 214.7909698486328 22.219655990600586 167.65908813476562 76.1438980102539" stroke-width="2" fill="none" stroke="rgb(0, 0, 0)" stroke-opacity="1.0" stroke-linecap="round" stroke-linejoin="round"/>
    <path d="M 189.09556579589844 137.33843994140625 C 245.05093383789062 147.90420532226562 21.46910858154297 97.56593322753906 169.7938232421875 74.17422485351562" stroke-width="2" fill="none" stroke="rgb(0, 0, 0)" stroke-opacity="1.0" stroke-linecap="round" stroke-linejoin="round"/>
    <path d="M 116.91082000732422 131.7165985107422 C 84.05121612548828 81.79788208007812 123.41675567626953 135.64642333984375 112.85091400146484 114.82978057861328" stroke-width="2" fill="none" stroke="rgb(0, 0, 0)" stroke-opacity="1.0" stroke-linecap="round" stroke-linejoin="round"/>
    <path d="M 153.1527557373047 139.45936584472656 C 217.1167755126953 159.654052734375 132.36387634277344 147.6710968017578 146.51307678222656 154.77293395996094" stroke-width="2" fill="none" stroke="rgb(0, 0, 0)" stroke-opacity="1.0" stroke-linecap="round" stroke-linejoin="round"/>
    <path d="M 72.68890380859375 132.32574462890625 C 71.8252182006836 159.31275939941406 211.76174926757812 128.54786682128906 185.67764282226562 154.1535186767578" stroke-width="2" fill="none" stroke="rgb(0, 0, 0)" stroke-opacity="1.0" stroke-linecap="round" stroke-linejoin="round"/>
    <path d="M 171.85482788085938 85.5857925415039 C 138.2598876953125 97.16603088378906 172.7870330810547 115.37313842773438 138.62391662597656 114.5120849609375" stroke-width="2" fill="none" stroke="rgb(0, 0, 0)" stroke-opacity="1.0" stroke-linecap="round" stroke-linejoin="round"/>
    <path d="M 165.3306427001953 107.36837768554688 C 65.3132095336914 121.04332733154297 180.1644287109375 101.2630844116211 143.29713439941406 119.83638000488281" stroke-width="2" fill="none" stroke="rgb(0, 0, 0)" stroke-opacity="1.0" stroke-linecap="round" stroke-linejoin="round"/>
    <path d="M 145.94068908691406 132.6180419921875 C 117.04888916015625 129.47291564941406 189.4561309814453 126.3141860961914 123.98357391357422 108.64314270019531" stroke-width="2" fill="none" stroke="rgb(0, 0, 0)" stroke-opacity="1.0" stroke-linecap="round" stroke-linejoin="round"/>
    <path d="M 102.2211685180664 78.06535339355469 C 107.73900604248047 128.14585876464844 167.0165252685547 86.42375946044922 113.5721435546875 106.27685546875" stroke-width="2" fill="none" stroke="rgb(0, 0, 0)" stroke-opacity="1.0" stroke-linecap="round" stroke-linejoin="round"/>
    <path d="M 150.2565155029297 89.44804382324219 C 168.56936645507812 128.60105895996094 211.05015563964844 39.43331527709961 157.233154296875 92.76588439941406" stroke-width="2" fill="none" stroke="rgb(0, 0, 0)" stroke-opacity="1.0" stroke-linecap="round" stroke-linejoin="round"/>
    <path d="M 137.78726196289062 119.02760314941406 C 191.7724151611328 138.4058380126953 57.4369010925293 55.25802230834961 48.87519073486328 122.40863800048828" stroke-width="2" fill="none" stroke="rgb(0, 0, 0)" stroke-opacity="1.0" stroke-linecap="round" stroke-linejoin="round"/>
    <path d="M 58.58421325683594 104.61336517333984 C 120.42147827148438 70.11968231201172 -59.69477462768555 165.33848571777344 132.6576385498047 151.813720703125" stroke-width="2" fill="none" stroke="rgb(0, 0, 0)" stroke-opacity="1.0" stroke-linecap="round" stroke-linejoin="round"/>
  </g>
</svg>
