<?xml version="1.0" ?>
<svg xmlns="http://www.w3.org/2000/svg" version="1.1" width="224" height="224">
  <defs/>
  <g>
    <path d="M 115.4800796508789 69.12207794189453 C 42.75300979614258 49.264305114746094 202.0381317138672 107.54230499267578 149.96011352539062 93.94306945800781" stroke-width="2" fill="none" stroke="rgb(0, 0, 0)" stroke-opacity="1.0" stroke-linecap="round" stroke-linejoin="round"/>
    <path d="M 101.30896759033203 88.16364288330078 C 164.0258331298828 122.69464874267578 40.87289810180664 16.373743057250977 112.80670928955078 105.0296859741211" stroke-width="2" fill="none" stroke="rgb(0, 0, 0)" stroke-opacity="1.0" stroke-linecap="round" stroke-linejoin="round"/>
    <path d="M 140.68301391601562 106.29077911376953 C 114.7423095703125 95.46835327148438 185.95018005371094 140.80093383789062 120.00645446777344 109.82884216308594" stroke-width="2" fill="none" stroke="rgb(0, 0, 0)" stroke-opacity="1.0" stroke-linecap="round" stroke-linejoin="round"/>
    <path d="M 109.0614242553711 132.5405731201172 C 65.96971893310547 131.9053497314453 241.23483276367188 153.03619384765625 136.46180725097656 153.5895538330078" stroke-width="2" fill="none" stroke="rgb(0, 0, 0)" stroke-opacity="1.0" stroke-linecap="round" stroke-linejoin="round"/>
    <path d="M 132.03773498535156 113.11455535888672 C 146.3995819091797 192.0646209716797 220.20095825195312 9.188752174377441 164.9578399658203 79.66863250732422" stroke-width="2" fill="none" stroke="rgb(0, 0, 0)" stroke-opacity="1.0" stroke-linecap="round" stroke-linejoin="round"/>
    <path d="M 158.12852478027344 136.1163330078125 C 209.8665008544922 148.11053466796875 12.36324691772461 100.45145416259766 163.31884765625 80.20368194580078" stroke-width="2" fill="none" stroke="rgb(0, 0, 0)" stroke-opacity="1.0" stroke-linecap="round" stroke-linejoin="round"/>
    <path d="M 112.22288513183594 137.980224609375 C 101.30157470703125 112.31097412109375 77.13346862792969 146.48507690429688 94.00082397460938 123.22277069091797" stroke-width="2" fill="none" stroke="rgb(0, 0, 0)" stroke-opacity="1.0" stroke-linecap="round" stroke-linejoin="round"/>
    <path d="M 152.59524536132812 155.7753143310547 C 178.63897705078125 149.8745880126953 82.28269958496094 141.8164520263672 135.2503204345703 142.32904052734375" stroke-width="2" fill="none" stroke="rgb(0, 0, 0)" stroke-opacity="1.0" stroke-linecap="round" stroke-linejoin="round"/>
    <path d="M 72.65425109863281 138.85777282714844 C 82.17476654052734 168.1808319091797 149.3416748046875 142.8997039794922 136.1305694580078 156.8762664794922" stroke-width="2" fill="none" stroke="rgb(0, 0, 0)" stroke-opacity="1.0" stroke-linecap="round" stroke-linejoin="round"/>
    <path d="M 168.5399627685547 95.10404205322266 C 128.01937866210938 107.58183288574219 200.23574829101562 103.39298248291016 131.93531799316406 113.84830474853516" stroke-width="2" fill="none" stroke="rgb(0, 0, 0)" stroke-opacity="1.0" stroke-linecap="round" stroke-linejoin="round"/>
    <path d="M 166.32936096191406 115.42801666259766 C 123.13553619384766 136.66815185546875 160.8927764892578 91.53167724609375 149.07362365722656 125.88385772705078" stroke-width="2" fill="none" stroke="rgb(0, 0, 0)" stroke-opacity="1.0" stroke-linecap="round" stroke-linejoin="round"/>
    <path d="M 147.9993438720703 118.51388549804688 C 91.33212280273438 91.6402816772461 186.0950927734375 137.9730987548828 119.4454345703125 119.55548858642578" stroke-width="2" fill="none" stroke="rgb(0, 0, 0)" stroke-opacity="1.0" stroke-linecap="round" stroke-linejoin="round"/>
    <path d="M 92.25602722167969 80.71170043945312 C 86.4216079711914 137.07920837402344 139.9422149658203 90.50021362304688 105.84422302246094 106.35307312011719" stroke-width="2" fill="none" stroke="rgb(0, 0, 0)" stroke-opacity="1.0" stroke-linecap="round" stroke-linejoin="round"/>
    <path d="M 149.21728515625 92.39666748046875 C 146.20306396484375 135.88282775878906 216.62159729003906 38.7127685546875 153.13816833496094 100.8335189819336" stroke-width="2" fill="none" stroke="rgb(0, 0, 0)" stroke-opacity="1.0" stroke-linecap="round" stroke-linejoin="round"/>
    <path d="M 123.42819213867188 115.78277587890625 C 190.8816680908203 149.66000366210938 46.70292282104492 62.60422897338867 52.93534851074219 121.82748413085938" stroke-width="2" fill="none" stroke="rgb(0, 0, 0)" stroke-opacity="1.0" stroke-linecap="round" stroke-linejoin="round"/>
    <path d="M 59.988914489746094 107.38690185546875 C 105.83311462402344 72.3913345336914 -60.460655212402344 173.54200744628906 155.13026428222656 143.96861267089844" stroke-width="2" fill="none" stroke="rgb(0, 0, 0)" stroke-opacity="1.0" stroke-linecap="round" stroke-linejoin="round"/>
  </g>
</svg>
