<?xml version="1.0" ?>
<svg xmlns="http://www.w3.org/2000/svg" version="1.1" width="224" height="224">
  <defs/>
  <g>
    <path d="M 150.84814453125 112.6258773803711 C 15.8165283203125 79.70991516113281 236.1624298095703 82.65757751464844 168.09146118164062 94.09139251708984" stroke-width="2" fill="none" stroke="rgb(0, 0, 0)" stroke-opacity="1.0" stroke-linecap="round" stroke-linejoin="round"/>
    <path d="M 146.3052978515625 121.07443237304688 C 168.86061096191406 91.65241241455078 92.8453598022461 125.8696517944336 132.58132934570312 102.91082763671875" stroke-width="2" fill="none" stroke="rgb(0, 0, 0)" stroke-opacity="1.0" stroke-linecap="round" stroke-linejoin="round"/>
    <path d="M 137.44284057617188 122.3792724609375 C 193.66600036621094 130.34324645996094 99.71052551269531 126.34048461914062 150.73684692382812 113.3458023071289" stroke-width="2" fill="none" stroke="rgb(0, 0, 0)" stroke-opacity="1.0" stroke-linecap="round" stroke-linejoin="round"/>
    <path d="M 115.0510482788086 123.15770721435547 C 117.10731506347656 168.6382293701172 163.69674682617188 132.26486206054688 154.1282196044922 137.03353881835938" stroke-width="2" fill="none" stroke="rgb(0, 0, 0)" stroke-opacity="1.0" stroke-linecap="round" stroke-linejoin="round"/>
    <path d="M 116.56346893310547 102.88069915771484 C 156.42526245117188 174.8816680908203 242.59246826171875 1.7617390155792236 158.1907196044922 86.62748718261719" stroke-width="2" fill="none" stroke="rgb(0, 0, 0)" stroke-opacity="1.0" stroke-linecap="round" stroke-linejoin="round"/>
    <path d="M 98.55976104736328 73.86761474609375 C 107.12443542480469 131.28663635253906 136.72276306152344 60.05156707763672 157.2506866455078 96.68511962890625" stroke-width="2" fill="none" stroke="rgb(0, 0, 0)" stroke-opacity="1.0" stroke-linecap="round" stroke-linejoin="round"/>
    <path d="M 67.66645050048828 135.86349487304688 C 62.013397216796875 168.49554443359375 237.5258026123047 121.25431060791016 161.3290252685547 102.26371765136719" stroke-width="2" fill="none" stroke="rgb(0, 0, 0)" stroke-opacity="1.0" stroke-linecap="round" stroke-linejoin="round"/>
    <path d="M 139.09298706054688 114.19499206542969 C 308.0716552734375 90.38353729248047 51.74381637573242 131.04116821289062 149.52955627441406 121.07633209228516" stroke-width="2" fill="none" stroke="rgb(0, 0, 0)" stroke-opacity="1.0" stroke-linecap="round" stroke-linejoin="round"/>
    <path d="M 164.08851623535156 154.1945037841797 C -55.3764762878418 124.38906860351562 269.1155090332031 194.0120086669922 91.53800201416016 130.28225708007812" stroke-width="2" fill="none" stroke="rgb(0, 0, 0)" stroke-opacity="1.0" stroke-linecap="round" stroke-linejoin="round"/>
    <path d="M 177.44566345214844 103.92652893066406 C 128.8988494873047 115.99622344970703 206.4978790283203 88.17466735839844 162.71046447753906 112.84463500976562" stroke-width="2" fill="none" stroke="rgb(0, 0, 0)" stroke-opacity="1.0" stroke-linecap="round" stroke-linejoin="round"/>
    <path d="M 184.35122680664062 139.02418518066406 C 119.24732971191406 151.5222930908203 165.1782989501953 136.7568359375 132.8414306640625 140.37217712402344" stroke-width="2" fill="none" stroke="rgb(0, 0, 0)" stroke-opacity="1.0" stroke-linecap="round" stroke-linejoin="round"/>
    <path d="M 177.80967712402344 101.62932586669922 C 141.83139038085938 110.48368835449219 204.80604553222656 105.66055297851562 165.5955810546875 96.99895477294922" stroke-width="2" fill="none" stroke="rgb(0, 0, 0)" stroke-opacity="1.0" stroke-linecap="round" stroke-linejoin="round"/>
    <path d="M 105.74678039550781 87.21858215332031 C 127.3656005859375 102.86766815185547 151.36749267578125 80.4540023803711 102.60083770751953 84.5292739868164" stroke-width="2" fill="none" stroke="rgb(0, 0, 0)" stroke-opacity="1.0" stroke-linecap="round" stroke-linejoin="round"/>
    <path d="M 152.42568969726562 91.43048858642578 C 151.1649932861328 94.51190948486328 223.23214721679688 50.76042175292969 163.40838623046875 97.08491516113281" stroke-width="2" fill="none" stroke="rgb(0, 0, 0)" stroke-opacity="1.0" stroke-linecap="round" stroke-linejoin="round"/>
    <path d="M 98.43785858154297 69.0866470336914 C 191.1015167236328 130.420654296875 40.31971740722656 65.20521545410156 47.719200134277344 119.97505187988281" stroke-width="2" fill="none" stroke="rgb(0, 0, 0)" stroke-opacity="1.0" stroke-linecap="round" stroke-linejoin="round"/>
    <path d="M 37.924781799316406 125.71292877197266 C 100.72421264648438 75.56055450439453 -31.679418563842773 154.1033172607422 100.04412841796875 151.71022033691406" stroke-width="2" fill="none" stroke="rgb(0, 0, 0)" stroke-opacity="1.0" stroke-linecap="round" stroke-linejoin="round"/>
  </g>
</svg>
