<?xml version="1.0" ?>
<svg xmlns="http://www.w3.org/2000/svg" version="1.1" width="224" height="224">
  <defs/>
  <g>
    <path d="M 116.42352294921875 94.68868255615234 C 43.93935775756836 35.33515548706055 215.11215209960938 106.70987701416016 155.3168487548828 101.52609252929688" stroke-width="2" fill="none" stroke="rgb(0, 0, 0)" stroke-opacity="1.0" stroke-linecap="round" stroke-linejoin="round"/>
    <path d="M 132.7215576171875 94.21543884277344 C 108.7235107421875 94.85016632080078 70.9184341430664 43.52151107788086 120.71746063232422 87.75040435791016" stroke-width="2" fill="none" stroke="rgb(0, 0, 0)" stroke-opacity="1.0" stroke-linecap="round" stroke-linejoin="round"/>
    <path d="M 152.0495147705078 111.21891021728516 C 117.70875549316406 107.85352325439453 165.02853393554688 106.05321502685547 140.50970458984375 110.197021484375" stroke-width="2" fill="none" stroke="rgb(0, 0, 0)" stroke-opacity="1.0" stroke-linecap="round" stroke-linejoin="round"/>
    <path d="M 68.40531921386719 126.35250854492188 C 70.92377471923828 166.8975830078125 233.4556884765625 153.49427795410156 61.3742561340332 136.40127563476562" stroke-width="2" fill="none" stroke="rgb(0, 0, 0)" stroke-opacity="1.0" stroke-linecap="round" stroke-linejoin="round"/>
    <path d="M 126.33291625976562 103.9639663696289 C 154.18472290039062 149.0750274658203 216.79530334472656 24.02206039428711 163.5315704345703 77.9264144897461" stroke-width="2" fill="none" stroke="rgb(0, 0, 0)" stroke-opacity="1.0" stroke-linecap="round" stroke-linejoin="round"/>
    <path d="M 116.06230926513672 136.9671173095703 C 209.82423400878906 144.38905334472656 52.0855598449707 92.29389190673828 164.7747039794922 78.57462310791016" stroke-width="2" fill="none" stroke="rgb(0, 0, 0)" stroke-opacity="1.0" stroke-linecap="round" stroke-linejoin="round"/>
    <path d="M 106.67706298828125 144.15411376953125 C 124.68653869628906 121.03104400634766 244.75070190429688 177.94525146484375 173.87210083007812 136.31216430664062" stroke-width="2" fill="none" stroke="rgb(0, 0, 0)" stroke-opacity="1.0" stroke-linecap="round" stroke-linejoin="round"/>
    <path d="M 125.97361755371094 117.00777435302734 C 247.71124267578125 149.5087127685547 66.64974212646484 110.60322570800781 106.24322509765625 123.64656829833984" stroke-width="2" fill="none" stroke="rgb(0, 0, 0)" stroke-opacity="1.0" stroke-linecap="round" stroke-linejoin="round"/>
    <path d="M 62.3864631652832 135.5471954345703 C 63.95550537109375 155.53598022460938 241.54034423828125 130.66050720214844 186.9032745361328 154.3648223876953" stroke-width="2" fill="none" stroke="rgb(0, 0, 0)" stroke-opacity="1.0" stroke-linecap="round" stroke-linejoin="round"/>
    <path d="M 168.7207794189453 87.56246948242188 C 120.93172454833984 94.78301239013672 203.9317626953125 116.26744842529297 141.0981903076172 104.4360580444336" stroke-width="2" fill="none" stroke="rgb(0, 0, 0)" stroke-opacity="1.0" stroke-linecap="round" stroke-linejoin="round"/>
    <path d="M 132.1128692626953 123.93766784667969 C 63.19973373413086 110.69039154052734 213.76751708984375 145.7530975341797 127.20067596435547 122.25386047363281" stroke-width="2" fill="none" stroke="rgb(0, 0, 0)" stroke-opacity="1.0" stroke-linecap="round" stroke-linejoin="round"/>
    <path d="M 135.52976989746094 121.21197509765625 C 91.80304718017578 115.5028305053711 183.55206298828125 104.44577026367188 147.8999481201172 122.38792419433594" stroke-width="2" fill="none" stroke="rgb(0, 0, 0)" stroke-opacity="1.0" stroke-linecap="round" stroke-linejoin="round"/>
    <path d="M 96.78280639648438 73.75987243652344 C 105.04169464111328 121.75431060791016 152.8443603515625 106.64688110351562 122.68802642822266 105.73528289794922" stroke-width="2" fill="none" stroke="rgb(0, 0, 0)" stroke-opacity="1.0" stroke-linecap="round" stroke-linejoin="round"/>
    <path d="M 153.5038604736328 92.07711791992188 C 171.10430908203125 100.27871704101562 197.55422973632812 42.806644439697266 167.61134338378906 115.58189392089844" stroke-width="2" fill="none" stroke="rgb(0, 0, 0)" stroke-opacity="1.0" stroke-linecap="round" stroke-linejoin="round"/>
    <path d="M 108.08284759521484 73.81865692138672 C 187.67279052734375 128.61521911621094 46.86378479003906 60.3758544921875 47.157779693603516 128.486083984375" stroke-width="2" fill="none" stroke="rgb(0, 0, 0)" stroke-opacity="1.0" stroke-linecap="round" stroke-linejoin="round"/>
    <path d="M 38.681358337402344 136.08839416503906 C 72.25163269042969 96.43360137939453 -21.960445404052734 157.75735473632812 129.0447235107422 152.48365783691406" stroke-width="2" fill="none" stroke="rgb(0, 0, 0)" stroke-opacity="1.0" stroke-linecap="round" stroke-linejoin="round"/>
  </g>
</svg>
