<?xml version="1.0" ?>
<svg xmlns="http://www.w3.org/2000/svg" version="1.1" width="224" height="224">
  <defs/>
  <g>
    <path d="M 143.7772216796875 113.80699920654297 C 14.123926162719727 78.35559844970703 240.3014678955078 77.55941009521484 163.9730224609375 101.51844024658203" stroke-width="2" fill="none" stroke="rgb(0, 0, 0)" stroke-opacity="1.0" stroke-linecap="round" stroke-linejoin="round"/>
    <path d="M 134.07257080078125 123.02140045166016 C 161.06109619140625 91.21100616455078 93.35254669189453 127.21516418457031 128.07620239257812 97.78428649902344" stroke-width="2" fill="none" stroke="rgb(0, 0, 0)" stroke-opacity="1.0" stroke-linecap="round" stroke-linejoin="round"/>
    <path d="M 129.28907775878906 119.86814880371094 C 185.26954650878906 128.7442169189453 92.75696563720703 130.3729705810547 153.0470733642578 114.21826171875" stroke-width="2" fill="none" stroke="rgb(0, 0, 0)" stroke-opacity="1.0" stroke-linecap="round" stroke-linejoin="round"/>
    <path d="M 102.48560333251953 123.24629974365234 C 96.65376281738281 156.5435028076172 167.8103790283203 129.65663146972656 147.08416748046875 145.41256713867188" stroke-width="2" fill="none" stroke="rgb(0, 0, 0)" stroke-opacity="1.0" stroke-linecap="round" stroke-linejoin="round"/>
    <path d="M 115.76333618164062 108.06562805175781 C 140.3724822998047 178.03482055664062 243.04454040527344 4.530429363250732 153.8748321533203 87.20394134521484" stroke-width="2" fill="none" stroke="rgb(0, 0, 0)" stroke-opacity="1.0" stroke-linecap="round" stroke-linejoin="round"/>
    <path d="M 99.23167419433594 70.17886352539062 C 106.72905731201172 143.66639709472656 137.97227478027344 63.46626281738281 150.07022094726562 97.16382598876953" stroke-width="2" fill="none" stroke="rgb(0, 0, 0)" stroke-opacity="1.0" stroke-linecap="round" stroke-linejoin="round"/>
    <path d="M 64.93936920166016 133.1654052734375 C 62.082088470458984 172.51939392089844 252.9212188720703 118.89631652832031 164.7025146484375 103.70059204101562" stroke-width="2" fill="none" stroke="rgb(0, 0, 0)" stroke-opacity="1.0" stroke-linecap="round" stroke-linejoin="round"/>
    <path d="M 132.2801971435547 117.91846466064453 C 337.28009033203125 97.13420867919922 55.78476333618164 128.10659790039062 147.3488006591797 127.39595794677734" stroke-width="2" fill="none" stroke="rgb(0, 0, 0)" stroke-opacity="1.0" stroke-linecap="round" stroke-linejoin="round"/>
    <path d="M 154.69203186035156 152.68032836914062 C -64.35891723632812 127.76538848876953 263.1773986816406 195.05825805664062 88.95836639404297 127.60211181640625" stroke-width="2" fill="none" stroke="rgb(0, 0, 0)" stroke-opacity="1.0" stroke-linecap="round" stroke-linejoin="round"/>
    <path d="M 185.18133544921875 114.75223541259766 C 131.47044372558594 124.3287124633789 224.95724487304688 88.0487060546875 162.40512084960938 118.72024536132812" stroke-width="2" fill="none" stroke="rgb(0, 0, 0)" stroke-opacity="1.0" stroke-linecap="round" stroke-linejoin="round"/>
    <path d="M 178.5565948486328 141.92037963867188 C 114.77162170410156 143.6848907470703 163.0427703857422 132.99383544921875 139.6303253173828 137.3492431640625" stroke-width="2" fill="none" stroke="rgb(0, 0, 0)" stroke-opacity="1.0" stroke-linecap="round" stroke-linejoin="round"/>
    <path d="M 177.41204833984375 95.01207733154297 C 120.03292083740234 111.66590881347656 192.21669006347656 114.02655792236328 159.06234741210938 107.2546615600586" stroke-width="2" fill="none" stroke="rgb(0, 0, 0)" stroke-opacity="1.0" stroke-linecap="round" stroke-linejoin="round"/>
    <path d="M 97.33321380615234 80.01559448242188 C 119.94841003417969 114.0916748046875 145.6991729736328 92.31526947021484 106.9268569946289 82.89956665039062" stroke-width="2" fill="none" stroke="rgb(0, 0, 0)" stroke-opacity="1.0" stroke-linecap="round" stroke-linejoin="round"/>
    <path d="M 149.59498596191406 90.97367095947266 C 156.80630493164062 98.58769226074219 223.9382781982422 42.11160659790039 166.65174865722656 102.65045166015625" stroke-width="2" fill="none" stroke="rgb(0, 0, 0)" stroke-opacity="1.0" stroke-linecap="round" stroke-linejoin="round"/>
    <path d="M 100.633056640625 71.85211944580078 C 203.53292846679688 124.70791625976562 37.939796447753906 56.097496032714844 52.06110382080078 118.87355041503906" stroke-width="2" fill="none" stroke="rgb(0, 0, 0)" stroke-opacity="1.0" stroke-linecap="round" stroke-linejoin="round"/>
    <path d="M 40.654666900634766 126.42839813232422 C 103.33124542236328 72.00381469726562 -35.11359786987305 158.9073944091797 107.3410415649414 152.05966186523438" stroke-width="2" fill="none" stroke="rgb(0, 0, 0)" stroke-opacity="1.0" stroke-linecap="round" stroke-linejoin="round"/>
  </g>
</svg>
