<?xml version="1.0" ?>
<svg xmlns="http://www.w3.org/2000/svg" version="1.1" width="224" height="224">
  <defs/>
  <g>
    <path d="M 115.34241485595703 123.29969787597656 C 69.72281646728516 72.0678482055664 196.4182891845703 100.03971862792969 128.2490234375 93.51263427734375" stroke-width="2" fill="none" stroke="rgb(0, 0, 0)" stroke-opacity="1.0" stroke-linecap="round" stroke-linejoin="round"/>
    <path d="M 127.9632339477539 124.81613159179688 C 135.45223999023438 81.92525482177734 113.44195556640625 153.87057495117188 105.6629867553711 112.11749267578125" stroke-width="2" fill="none" stroke="rgb(0, 0, 0)" stroke-opacity="1.0" stroke-linecap="round" stroke-linejoin="round"/>
    <path d="M 144.66921997070312 133.7825469970703 C 86.69763946533203 148.17999267578125 85.4494400024414 122.36825561523438 95.00316619873047 133.2378387451172" stroke-width="2" fill="none" stroke="rgb(0, 0, 0)" stroke-opacity="1.0" stroke-linecap="round" stroke-linejoin="round"/>
    <path d="M 164.5804901123047 146.9583740234375 C 166.26925659179688 155.82257080078125 195.71665954589844 140.71144104003906 119.32098388671875 126.42781066894531" stroke-width="2" fill="none" stroke="rgb(0, 0, 0)" stroke-opacity="1.0" stroke-linecap="round" stroke-linejoin="round"/>
    <path d="M 112.53820037841797 127.18352508544922 C 144.4098663330078 128.3658905029297 217.312744140625 129.8030548095703 95.84944915771484 68.4880599975586" stroke-width="2" fill="none" stroke="rgb(0, 0, 0)" stroke-opacity="1.0" stroke-linecap="round" stroke-linejoin="round"/>
    <path d="M 95.47608947753906 72.06483459472656 C 90.69570922851562 111.34536743164062 200.93914794921875 79.03962707519531 128.95285034179688 88.29033660888672" stroke-width="2" fill="none" stroke="rgb(0, 0, 0)" stroke-opacity="1.0" stroke-linecap="round" stroke-linejoin="round"/>
    <path d="M 39.915836334228516 130.7757110595703 C 30.54966926574707 171.846923828125 168.84873962402344 134.45108032226562 166.078125 146.62860107421875" stroke-width="2" fill="none" stroke="rgb(0, 0, 0)" stroke-opacity="1.0" stroke-linecap="round" stroke-linejoin="round"/>
    <path d="M 151.41058349609375 140.6529998779297 C 181.37957763671875 140.28683471679688 69.40086364746094 144.93841552734375 132.8505096435547 116.21593475341797" stroke-width="2" fill="none" stroke="rgb(0, 0, 0)" stroke-opacity="1.0" stroke-linecap="round" stroke-linejoin="round"/>
    <path d="M 118.87742614746094 114.0756607055664 C 71.29191589355469 110.29188537597656 139.60899353027344 124.11797332763672 114.13683319091797 112.41195678710938" stroke-width="2" fill="none" stroke="rgb(0, 0, 0)" stroke-opacity="1.0" stroke-linecap="round" stroke-linejoin="round"/>
    <path d="M 181.40115356445312 64.0633773803711 C 111.24232482910156 128.67564392089844 203.13522338867188 73.58489227294922 157.9472198486328 102.9908447265625" stroke-width="2" fill="none" stroke="rgb(0, 0, 0)" stroke-opacity="1.0" stroke-linecap="round" stroke-linejoin="round"/>
    <path d="M 137.38775634765625 144.01699829101562 C 181.0030975341797 147.9539337158203 119.65255737304688 162.57394409179688 155.96682739257812 155.6415557861328" stroke-width="2" fill="none" stroke="rgb(0, 0, 0)" stroke-opacity="1.0" stroke-linecap="round" stroke-linejoin="round"/>
    <path d="M 84.86919403076172 144.4884033203125 C 190.87701416015625 156.681396484375 81.71636199951172 158.49093627929688 63.71774673461914 134.3333282470703" stroke-width="2" fill="none" stroke="rgb(0, 0, 0)" stroke-opacity="1.0" stroke-linecap="round" stroke-linejoin="round"/>
    <path d="M 161.51351928710938 85.57919311523438 C 117.0766830444336 74.29078674316406 141.7273406982422 132.879638671875 102.08613586425781 70.2354736328125" stroke-width="2" fill="none" stroke="rgb(0, 0, 0)" stroke-opacity="1.0" stroke-linecap="round" stroke-linejoin="round"/>
    <path d="M 157.272705078125 117.44581604003906 C 195.1730194091797 81.00359344482422 172.85693359375 73.8948974609375 183.80908203125 67.50723266601562" stroke-width="2" fill="none" stroke="rgb(0, 0, 0)" stroke-opacity="1.0" stroke-linecap="round" stroke-linejoin="round"/>
    <path d="M 99.79566192626953 79.43206024169922 C 123.61338806152344 134.23252868652344 64.13951873779297 70.11690521240234 50.81254196166992 123.7867202758789" stroke-width="2" fill="none" stroke="rgb(0, 0, 0)" stroke-opacity="1.0" stroke-linecap="round" stroke-linejoin="round"/>
    <path d="M 68.65370178222656 121.42912292480469 C 68.67241668701172 101.46267700195312 34.30236053466797 121.24171447753906 44.266563415527344 144.16519165039062" stroke-width="2" fill="none" stroke="rgb(0, 0, 0)" stroke-opacity="1.0" stroke-linecap="round" stroke-linejoin="round"/>
  </g>
</svg>
