<?xml version="1.0" ?>
<svg xmlns="http://www.w3.org/2000/svg" version="1.1" width="224" height="224">
  <defs/>
  <g>
    <path d="M 126.31526184082031 116.17213439941406 C 43.760093688964844 71.29167938232422 227.57937622070312 101.95965576171875 146.96527099609375 103.36066436767578" stroke-width="2" fill="none" stroke="rgb(0, 0, 0)" stroke-opacity="1.0" stroke-linecap="round" stroke-linejoin="round"/>
    <path d="M 125.72221374511719 118.97992706298828 C 152.37820434570312 91.94249725341797 111.80160522460938 136.65704345703125 125.79654693603516 106.10789489746094" stroke-width="2" fill="none" stroke="rgb(0, 0, 0)" stroke-opacity="1.0" stroke-linecap="round" stroke-linejoin="round"/>
    <path d="M 135.28700256347656 121.23871612548828 C 94.42633056640625 156.3212432861328 99.01600646972656 105.80096435546875 98.7613296508789 131.3491668701172" stroke-width="2" fill="none" stroke="rgb(0, 0, 0)" stroke-opacity="1.0" stroke-linecap="round" stroke-linejoin="round"/>
    <path d="M 165.7745819091797 159.25546264648438 C 157.1436309814453 158.09629821777344 210.66085815429688 155.0692138671875 113.02262878417969 124.5035171508789" stroke-width="2" fill="none" stroke="rgb(0, 0, 0)" stroke-opacity="1.0" stroke-linecap="round" stroke-linejoin="round"/>
    <path d="M 115.43716430664062 127.2439193725586 C 136.94137573242188 141.2981719970703 216.8582763671875 124.16471862792969 99.33342742919922 66.53583526611328" stroke-width="2" fill="none" stroke="rgb(0, 0, 0)" stroke-opacity="1.0" stroke-linecap="round" stroke-linejoin="round"/>
    <path d="M 99.17984008789062 70.43144226074219 C 95.97708892822266 108.09854888916016 220.94754028320312 80.34485626220703 144.2500762939453 81.83940887451172" stroke-width="2" fill="none" stroke="rgb(0, 0, 0)" stroke-opacity="1.0" stroke-linecap="round" stroke-linejoin="round"/>
    <path d="M 45.072425842285156 135.58302307128906 C 36.23076248168945 164.75210571289062 186.48898315429688 143.38543701171875 174.58648681640625 150.3761749267578" stroke-width="2" fill="none" stroke="rgb(0, 0, 0)" stroke-opacity="1.0" stroke-linecap="round" stroke-linejoin="round"/>
    <path d="M 145.47171020507812 121.18096160888672 C 158.5474395751953 115.25534057617188 70.11932373046875 126.59212493896484 134.6917724609375 110.18197631835938" stroke-width="2" fill="none" stroke="rgb(0, 0, 0)" stroke-opacity="1.0" stroke-linecap="round" stroke-linejoin="round"/>
    <path d="M 134.17312622070312 112.7874755859375 C 68.2618637084961 123.71944427490234 151.7956085205078 104.43128967285156 118.85014343261719 106.92406463623047" stroke-width="2" fill="none" stroke="rgb(0, 0, 0)" stroke-opacity="1.0" stroke-linecap="round" stroke-linejoin="round"/>
    <path d="M 182.14552307128906 64.00656127929688 C 118.6612548828125 125.91583251953125 217.98025512695312 29.14706039428711 168.479736328125 96.18997955322266" stroke-width="2" fill="none" stroke="rgb(0, 0, 0)" stroke-opacity="1.0" stroke-linecap="round" stroke-linejoin="round"/>
    <path d="M 126.37176513671875 147.6527862548828 C 200.08187866210938 153.4619903564453 137.56100463867188 159.31155395507812 151.28672790527344 150.3045654296875" stroke-width="2" fill="none" stroke="rgb(0, 0, 0)" stroke-opacity="1.0" stroke-linecap="round" stroke-linejoin="round"/>
    <path d="M 89.34051513671875 134.56472778320312 C 289.3477478027344 144.4189453125 82.4422836303711 167.4409637451172 66.55381774902344 131.972900390625" stroke-width="2" fill="none" stroke="rgb(0, 0, 0)" stroke-opacity="1.0" stroke-linecap="round" stroke-linejoin="round"/>
    <path d="M 152.00331115722656 96.76671600341797 C 107.65984344482422 100.7016372680664 181.09022521972656 117.59028625488281 104.42962646484375 76.78617858886719" stroke-width="2" fill="none" stroke="rgb(0, 0, 0)" stroke-opacity="1.0" stroke-linecap="round" stroke-linejoin="round"/>
    <path d="M 153.92042541503906 119.89104461669922 C 196.53744506835938 87.29010009765625 177.20263671875 63.58845901489258 184.5024871826172 66.06121826171875" stroke-width="2" fill="none" stroke="rgb(0, 0, 0)" stroke-opacity="1.0" stroke-linecap="round" stroke-linejoin="round"/>
    <path d="M 101.6540756225586 83.11225128173828 C 138.20777893066406 133.50634765625 45.398014068603516 63.887596130371094 50.18672180175781 125.13973999023438" stroke-width="2" fill="none" stroke="rgb(0, 0, 0)" stroke-opacity="1.0" stroke-linecap="round" stroke-linejoin="round"/>
    <path d="M 89.27313995361328 96.5337905883789 C 55.26698684692383 94.16197204589844 11.412457466125488 140.98397827148438 54.08794021606445 147.13067626953125" stroke-width="2" fill="none" stroke="rgb(0, 0, 0)" stroke-opacity="1.0" stroke-linecap="round" stroke-linejoin="round"/>
  </g>
</svg>
