<?xml version="1.0" ?>
<svg xmlns="http://www.w3.org/2000/svg" version="1.1" width="224" height="224">
  <defs/>
  <g>
    <path d="M 145.57550048828125 103.66824340820312 C 11.961437225341797 78.08074951171875 242.4357452392578 74.71517944335938 163.8966522216797 87.8742904663086" stroke-width="2" fill="none" stroke="rgb(0, 0, 0)" stroke-opacity="1.0" stroke-linecap="round" stroke-linejoin="round"/>
    <path d="M 127.25511169433594 103.29818725585938 C 178.09156799316406 95.71698760986328 115.29856872558594 92.04378509521484 148.35125732421875 99.63929748535156" stroke-width="2" fill="none" stroke="rgb(0, 0, 0)" stroke-opacity="1.0" stroke-linecap="round" stroke-linejoin="round"/>
    <path d="M 127.52661895751953 107.37801361083984 C 266.8150939941406 149.8580322265625 77.90959167480469 112.31874084472656 123.65035247802734 136.75953674316406" stroke-width="2" fill="none" stroke="rgb(0, 0, 0)" stroke-opacity="1.0" stroke-linecap="round" stroke-linejoin="round"/>
    <path d="M 133.59190368652344 137.04786682128906 C 144.3288116455078 148.26577758789062 170.60345458984375 135.81166076660156 175.80165100097656 146.83958435058594" stroke-width="2" fill="none" stroke="rgb(0, 0, 0)" stroke-opacity="1.0" stroke-linecap="round" stroke-linejoin="round"/>
    <path d="M 128.03884887695312 100.35334777832031 C 163.01165771484375 183.2048797607422 225.9468536376953 4.388421058654785 175.9637908935547 82.11689758300781" stroke-width="2" fill="none" stroke="rgb(0, 0, 0)" stroke-opacity="1.0" stroke-linecap="round" stroke-linejoin="round"/>
    <path d="M 97.9939956665039 65.07070922851562 C 116.58003997802734 117.95601654052734 120.48699951171875 64.97637176513672 160.32740783691406 84.35481262207031" stroke-width="2" fill="none" stroke="rgb(0, 0, 0)" stroke-opacity="1.0" stroke-linecap="round" stroke-linejoin="round"/>
    <path d="M 51.54502868652344 137.02992248535156 C 44.48542404174805 178.82106018066406 200.4938507080078 137.09521484375 187.8816680908203 152.75852966308594" stroke-width="2" fill="none" stroke="rgb(0, 0, 0)" stroke-opacity="1.0" stroke-linecap="round" stroke-linejoin="round"/>
    <path d="M 93.06311798095703 123.92964935302734 C 333.2628173828125 91.18982696533203 55.44804763793945 133.12123107910156 146.02008056640625 96.6610336303711" stroke-width="2" fill="none" stroke="rgb(0, 0, 0)" stroke-opacity="1.0" stroke-linecap="round" stroke-linejoin="round"/>
    <path d="M 155.33042907714844 107.98530578613281 C -36.199859619140625 183.92552185058594 148.58663940429688 124.5003662109375 108.79447174072266 113.14830017089844" stroke-width="2" fill="none" stroke="rgb(0, 0, 0)" stroke-opacity="1.0" stroke-linecap="round" stroke-linejoin="round"/>
    <path d="M 169.4535675048828 90.08956909179688 C 168.79660034179688 115.96756744384766 207.1337127685547 53.840492248535156 180.7971954345703 95.8538589477539" stroke-width="2" fill="none" stroke="rgb(0, 0, 0)" stroke-opacity="1.0" stroke-linecap="round" stroke-linejoin="round"/>
    <path d="M 167.37423706054688 146.33982849121094 C 154.42861938476562 162.23634338378906 215.54971313476562 148.13877868652344 185.5826873779297 143.218017578125" stroke-width="2" fill="none" stroke="rgb(0, 0, 0)" stroke-opacity="1.0" stroke-linecap="round" stroke-linejoin="round"/>
    <path d="M 185.82496643066406 107.54891967773438 C 210.4680938720703 113.31581115722656 185.27630615234375 101.07159423828125 185.28619384765625 110.69300842285156" stroke-width="2" fill="none" stroke="rgb(0, 0, 0)" stroke-opacity="1.0" stroke-linecap="round" stroke-linejoin="round"/>
    <path d="M 128.25018310546875 88.79935455322266 C 130.41127014160156 67.56224822998047 179.41317749023438 106.42276000976562 99.65312194824219 68.75394439697266" stroke-width="2" fill="none" stroke="rgb(0, 0, 0)" stroke-opacity="1.0" stroke-linecap="round" stroke-linejoin="round"/>
    <path d="M 150.4292755126953 76.62317657470703 C 173.57537841796875 98.55838012695312 229.5631561279297 20.29195213317871 157.49807739257812 81.88453674316406" stroke-width="2" fill="none" stroke="rgb(0, 0, 0)" stroke-opacity="1.0" stroke-linecap="round" stroke-linejoin="round"/>
    <path d="M 98.32328033447266 70.75963592529297 C 162.953125 117.16670227050781 45.55478286743164 66.688232421875 52.165618896484375 126.98994445800781" stroke-width="2" fill="none" stroke="rgb(0, 0, 0)" stroke-opacity="1.0" stroke-linecap="round" stroke-linejoin="round"/>
    <path d="M 38.384124755859375 132.60855102539062 C 84.97982025146484 92.00404357910156 -21.67243766784668 158.9217529296875 103.787353515625 141.37135314941406" stroke-width="2" fill="none" stroke="rgb(0, 0, 0)" stroke-opacity="1.0" stroke-linecap="round" stroke-linejoin="round"/>
  </g>
</svg>
