<?xml version="1.0" ?>
<svg xmlns="http://www.w3.org/2000/svg" version="1.1" width="224" height="224">
  <defs/>
  <g>
    <path d="M 146.04736328125 114.38921356201172 C 9.346935272216797 62.79811477661133 240.5858154296875 90.88401794433594 161.960693359375 92.06927490234375" stroke-width="2" fill="none" stroke="rgb(0, 0, 0)" stroke-opacity="1.0" stroke-linecap="round" stroke-linejoin="round"/>
    <path d="M 130.5801544189453 107.4289321899414 C 193.16537475585938 110.19132995605469 92.29248046875 100.26441192626953 151.86181640625 105.79316711425781" stroke-width="2" fill="none" stroke="rgb(0, 0, 0)" stroke-opacity="1.0" stroke-linecap="round" stroke-linejoin="round"/>
    <path d="M 123.08045959472656 109.44770812988281 C 255.5384063720703 123.27375793457031 51.548126220703125 121.6801986694336 118.52554321289062 142.734619140625" stroke-width="2" fill="none" stroke="rgb(0, 0, 0)" stroke-opacity="1.0" stroke-linecap="round" stroke-linejoin="round"/>
    <path d="M 131.05113220214844 125.47987365722656 C 111.60316467285156 140.28517150878906 190.09425354003906 135.2630157470703 178.48519897460938 152.04058837890625" stroke-width="2" fill="none" stroke="rgb(0, 0, 0)" stroke-opacity="1.0" stroke-linecap="round" stroke-linejoin="round"/>
    <path d="M 109.14911651611328 114.19324493408203 C 158.98300170898438 184.04331970214844 226.7774200439453 8.3589506149292 174.1087188720703 81.944580078125" stroke-width="2" fill="none" stroke="rgb(0, 0, 0)" stroke-opacity="1.0" stroke-linecap="round" stroke-linejoin="round"/>
    <path d="M 96.77181243896484 70.87232208251953 C 111.35372924804688 131.17300415039062 137.55665588378906 65.9906997680664 158.40821838378906 89.96282958984375" stroke-width="2" fill="none" stroke="rgb(0, 0, 0)" stroke-opacity="1.0" stroke-linecap="round" stroke-linejoin="round"/>
    <path d="M 44.85091018676758 143.003173828125 C 49.69633483886719 170.71371459960938 177.85145568847656 141.0139923095703 166.15769958496094 157.54144287109375" stroke-width="2" fill="none" stroke="rgb(0, 0, 0)" stroke-opacity="1.0" stroke-linecap="round" stroke-linejoin="round"/>
    <path d="M 84.14585876464844 131.36126708984375 C 334.30853271484375 113.53898620605469 38.175819396972656 140.6436309814453 150.80224609375 100.59112548828125" stroke-width="2" fill="none" stroke="rgb(0, 0, 0)" stroke-opacity="1.0" stroke-linecap="round" stroke-linejoin="round"/>
    <path d="M 150.90731811523438 118.35951232910156 C -29.046796798706055 173.2184600830078 128.97149658203125 135.96253967285156 102.18910217285156 117.45446014404297" stroke-width="2" fill="none" stroke="rgb(0, 0, 0)" stroke-opacity="1.0" stroke-linecap="round" stroke-linejoin="round"/>
    <path d="M 167.88311767578125 99.5665054321289 C 179.68141174316406 125.84656524658203 207.09439086914062 48.61000061035156 174.85116577148438 85.79183197021484" stroke-width="2" fill="none" stroke="rgb(0, 0, 0)" stroke-opacity="1.0" stroke-linecap="round" stroke-linejoin="round"/>
    <path d="M 163.77767944335938 154.43980407714844 C 163.44068908691406 167.03182983398438 223.9076385498047 140.8254852294922 169.4330291748047 148.96942138671875" stroke-width="2" fill="none" stroke="rgb(0, 0, 0)" stroke-opacity="1.0" stroke-linecap="round" stroke-linejoin="round"/>
    <path d="M 196.33218383789062 100.81157684326172 C 194.6455078125 107.23824310302734 204.21542358398438 96.3135757446289 183.1869659423828 114.56471252441406" stroke-width="2" fill="none" stroke="rgb(0, 0, 0)" stroke-opacity="1.0" stroke-linecap="round" stroke-linejoin="round"/>
    <path d="M 124.62726593017578 110.03147888183594 C 128.7676544189453 57.61903762817383 176.13284301757812 119.5420913696289 98.66181182861328 69.47642517089844" stroke-width="2" fill="none" stroke="rgb(0, 0, 0)" stroke-opacity="1.0" stroke-linecap="round" stroke-linejoin="round"/>
    <path d="M 160.51077270507812 93.1965103149414 C 171.02294921875 104.9145278930664 231.34584045410156 22.837982177734375 153.13714599609375 88.1583023071289" stroke-width="2" fill="none" stroke="rgb(0, 0, 0)" stroke-opacity="1.0" stroke-linecap="round" stroke-linejoin="round"/>
    <path d="M 100.66938781738281 80.78753662109375 C 162.39199829101562 105.81343841552734 43.79572677612305 72.65084838867188 53.266021728515625 122.23643493652344" stroke-width="2" fill="none" stroke="rgb(0, 0, 0)" stroke-opacity="1.0" stroke-linecap="round" stroke-linejoin="round"/>
    <path d="M 37.02494430541992 130.1493682861328 C 84.8860855102539 89.59659576416016 -17.18947410583496 151.71434020996094 100.70318603515625 145.71202087402344" stroke-width="2" fill="none" stroke="rgb(0, 0, 0)" stroke-opacity="1.0" stroke-linecap="round" stroke-linejoin="round"/>
  </g>
</svg>
