<?xml version="1.0" ?>
<svg xmlns="http://www.w3.org/2000/svg" version="1.1" width="224" height="224">
  <defs/>
  <g>
    <path d="M 116.77449798583984 82.8421630859375 C 37.1818733215332 41.91595458984375 208.96676635742188 94.40351867675781 153.1338348388672 95.46646118164062" stroke-width="2" fill="none" stroke="rgb(0, 0, 0)" stroke-opacity="1.0" stroke-linecap="round" stroke-linejoin="round"/>
    <path d="M 119.94803619384766 91.50582885742188 C 160.32559204101562 95.5318374633789 57.54397964477539 33.5513916015625 117.66588592529297 92.2054214477539" stroke-width="2" fill="none" stroke="rgb(0, 0, 0)" stroke-opacity="1.0" stroke-linecap="round" stroke-linejoin="round"/>
    <path d="M 143.9615936279297 101.62542724609375 C 112.56005096435547 92.60530853271484 178.01376342773438 114.41920471191406 134.97500610351562 110.28424835205078" stroke-width="2" fill="none" stroke="rgb(0, 0, 0)" stroke-opacity="1.0" stroke-linecap="round" stroke-linejoin="round"/>
    <path d="M 92.57486724853516 118.88544464111328 C 79.66304016113281 156.5790557861328 254.6184844970703 164.83729553222656 126.2416763305664 131.50753784179688" stroke-width="2" fill="none" stroke="rgb(0, 0, 0)" stroke-opacity="1.0" stroke-linecap="round" stroke-linejoin="round"/>
    <path d="M 114.91112518310547 110.20792388916016 C 144.57131958007812 129.6022491455078 225.7360382080078 24.10916519165039 154.82806396484375 78.5517349243164" stroke-width="2" fill="none" stroke="rgb(0, 0, 0)" stroke-opacity="1.0" stroke-linecap="round" stroke-linejoin="round"/>
    <path d="M 188.3587646484375 140.25070190429688 C 254.7924346923828 133.12533569335938 28.209672927856445 104.06104278564453 153.186767578125 73.88444519042969" stroke-width="2" fill="none" stroke="rgb(0, 0, 0)" stroke-opacity="1.0" stroke-linecap="round" stroke-linejoin="round"/>
    <path d="M 114.771484375 133.3291015625 C 132.32418823242188 119.59064483642578 269.74957275390625 172.2705841064453 190.11569213867188 131.10708618164062" stroke-width="2" fill="none" stroke="rgb(0, 0, 0)" stroke-opacity="1.0" stroke-linecap="round" stroke-linejoin="round"/>
    <path d="M 110.1584701538086 118.23912811279297 C 270.4168395996094 126.39434814453125 135.7305450439453 109.98280334472656 161.89306640625 127.82109069824219" stroke-width="2" fill="none" stroke="rgb(0, 0, 0)" stroke-opacity="1.0" stroke-linecap="round" stroke-linejoin="round"/>
    <path d="M 72.05831146240234 136.22439575195312 C 93.10787963867188 165.31869506835938 230.4514923095703 121.57351684570312 195.18939208984375 147.85194396972656" stroke-width="2" fill="none" stroke="rgb(0, 0, 0)" stroke-opacity="1.0" stroke-linecap="round" stroke-linejoin="round"/>
    <path d="M 164.03794860839844 90.09549713134766 C 122.1377182006836 85.94944763183594 191.0435333251953 112.75910186767578 137.56324768066406 98.2663345336914" stroke-width="2" fill="none" stroke="rgb(0, 0, 0)" stroke-opacity="1.0" stroke-linecap="round" stroke-linejoin="round"/>
    <path d="M 140.98269653320312 117.77959442138672 C 37.67122268676758 102.4788818359375 198.68710327148438 141.5383758544922 114.38228607177734 108.67879486083984" stroke-width="2" fill="none" stroke="rgb(0, 0, 0)" stroke-opacity="1.0" stroke-linecap="round" stroke-linejoin="round"/>
    <path d="M 190.64541625976562 120.73861694335938 C 118.51899719238281 118.81462097167969 195.09405517578125 97.94649505615234 162.5797119140625 108.89722442626953" stroke-width="2" fill="none" stroke="rgb(0, 0, 0)" stroke-opacity="1.0" stroke-linecap="round" stroke-linejoin="round"/>
    <path d="M 97.6701889038086 75.2640151977539 C 97.7945556640625 134.7289276123047 147.21829223632812 80.3462905883789 120.99813079833984 109.46880340576172" stroke-width="2" fill="none" stroke="rgb(0, 0, 0)" stroke-opacity="1.0" stroke-linecap="round" stroke-linejoin="round"/>
    <path d="M 164.77090454101562 85.24628448486328 C 154.15687561035156 81.04920196533203 211.1722869873047 27.607696533203125 168.56663513183594 105.68729400634766" stroke-width="2" fill="none" stroke="rgb(0, 0, 0)" stroke-opacity="1.0" stroke-linecap="round" stroke-linejoin="round"/>
    <path d="M 120.94987487792969 99.39515686035156 C 181.0024871826172 147.56207275390625 58.41416549682617 46.5072135925293 47.47317123413086 125.49451446533203" stroke-width="2" fill="none" stroke="rgb(0, 0, 0)" stroke-opacity="1.0" stroke-linecap="round" stroke-linejoin="round"/>
    <path d="M 41.12667465209961 128.10780334472656 C 109.87975311279297 78.03235626220703 -38.140316009521484 152.4158477783203 115.23190307617188 154.73716735839844" stroke-width="2" fill="none" stroke="rgb(0, 0, 0)" stroke-opacity="1.0" stroke-linecap="round" stroke-linejoin="round"/>
  </g>
</svg>
