<?xml version="1.0" ?>
<svg xmlns="http://www.w3.org/2000/svg" version="1.1" width="224" height="224">
  <defs/>
  <g>
    <path d="M 117.51404571533203 87.80651092529297 C 38.191375732421875 35.06181335449219 207.74659729003906 109.28128814697266 154.27359008789062 98.56617736816406" stroke-width="2" fill="none" stroke="rgb(0, 0, 0)" stroke-opacity="1.0" stroke-linecap="round" stroke-linejoin="round"/>
    <path d="M 116.36780548095703 85.22621154785156 C 112.43656921386719 101.05381774902344 80.49571228027344 53.04659652709961 121.4976577758789 83.7363510131836" stroke-width="2" fill="none" stroke="rgb(0, 0, 0)" stroke-opacity="1.0" stroke-linecap="round" stroke-linejoin="round"/>
    <path d="M 146.94004821777344 104.23606872558594 C 116.82504272460938 114.34952545166016 152.54747009277344 88.94300842285156 147.88272094726562 114.95854949951172" stroke-width="2" fill="none" stroke="rgb(0, 0, 0)" stroke-opacity="1.0" stroke-linecap="round" stroke-linejoin="round"/>
    <path d="M 74.05030822753906 125.7544937133789 C 63.8892936706543 152.80416870117188 211.74229431152344 140.2639923095703 91.27698516845703 138.48483276367188" stroke-width="2" fill="none" stroke="rgb(0, 0, 0)" stroke-opacity="1.0" stroke-linecap="round" stroke-linejoin="round"/>
    <path d="M 153.5023193359375 109.2081527709961 C 148.02151489257812 159.39271545410156 221.46131896972656 16.973615646362305 165.04969787597656 79.216552734375" stroke-width="2" fill="none" stroke="rgb(0, 0, 0)" stroke-opacity="1.0" stroke-linecap="round" stroke-linejoin="round"/>
    <path d="M 91.15473937988281 104.69831848144531 C 154.16053771972656 124.58406066894531 72.6136245727539 87.43501281738281 165.97357177734375 80.720458984375" stroke-width="2" fill="none" stroke="rgb(0, 0, 0)" stroke-opacity="1.0" stroke-linecap="round" stroke-linejoin="round"/>
    <path d="M 102.68949890136719 154.97256469726562 C 101.86372375488281 134.6553955078125 287.518310546875 171.8086700439453 166.6668701171875 125.1851577758789" stroke-width="2" fill="none" stroke="rgb(0, 0, 0)" stroke-opacity="1.0" stroke-linecap="round" stroke-linejoin="round"/>
    <path d="M 103.6587905883789 110.0467529296875 C 265.3930969238281 134.674072265625 59.88972473144531 108.91065979003906 110.04153442382812 113.9197769165039" stroke-width="2" fill="none" stroke="rgb(0, 0, 0)" stroke-opacity="1.0" stroke-linecap="round" stroke-linejoin="round"/>
    <path d="M 80.8388671875 161.25787353515625 C 23.77134895324707 139.29147338867188 273.18231201171875 128.82217407226562 197.0406951904297 135.1981964111328" stroke-width="2" fill="none" stroke="rgb(0, 0, 0)" stroke-opacity="1.0" stroke-linecap="round" stroke-linejoin="round"/>
    <path d="M 164.73208618164062 88.43009948730469 C 129.58848571777344 97.22056579589844 192.5899658203125 116.16606903076172 136.08753967285156 105.53387451171875" stroke-width="2" fill="none" stroke="rgb(0, 0, 0)" stroke-opacity="1.0" stroke-linecap="round" stroke-linejoin="round"/>
    <path d="M 133.95851135253906 127.9284439086914 C 87.70960235595703 102.69580841064453 190.97772216796875 136.3560028076172 119.03369140625 113.05972290039062" stroke-width="2" fill="none" stroke="rgb(0, 0, 0)" stroke-opacity="1.0" stroke-linecap="round" stroke-linejoin="round"/>
    <path d="M 126.06623840332031 125.2291259765625 C 88.42845153808594 128.24655151367188 196.03050231933594 95.23550415039062 162.9517059326172 115.43487548828125" stroke-width="2" fill="none" stroke="rgb(0, 0, 0)" stroke-opacity="1.0" stroke-linecap="round" stroke-linejoin="round"/>
    <path d="M 100.18901062011719 71.08150482177734 C 100.25924682617188 119.7307357788086 139.63746643066406 86.75579071044922 116.59679412841797 104.63394165039062" stroke-width="2" fill="none" stroke="rgb(0, 0, 0)" stroke-opacity="1.0" stroke-linecap="round" stroke-linejoin="round"/>
    <path d="M 154.7174835205078 94.5179443359375 C 168.94703674316406 106.69894409179688 184.6303253173828 52.719871520996094 172.1899871826172 87.55411529541016" stroke-width="2" fill="none" stroke="rgb(0, 0, 0)" stroke-opacity="1.0" stroke-linecap="round" stroke-linejoin="round"/>
    <path d="M 109.66338348388672 70.48358154296875 C 186.95712280273438 122.4162826538086 38.528255462646484 65.82998657226562 49.32279968261719 120.45298767089844" stroke-width="2" fill="none" stroke="rgb(0, 0, 0)" stroke-opacity="1.0" stroke-linecap="round" stroke-linejoin="round"/>
    <path d="M 34.82563781738281 129.0040740966797 C 80.1176528930664 78.47050476074219 -13.663071632385254 158.76673889160156 92.99441528320312 156.02659606933594" stroke-width="2" fill="none" stroke="rgb(0, 0, 0)" stroke-opacity="1.0" stroke-linecap="round" stroke-linejoin="round"/>
  </g>
</svg>
