<?xml version="1.0" ?>
<svg xmlns="http://www.w3.org/2000/svg" version="1.1" width="224" height="224">
  <defs/>
  <g>
    <path d="M 120.7313461303711 108.0733642578125 C 33.1107177734375 25.886486053466797 218.70443725585938 103.70572662353516 153.6826629638672 113.41880798339844" stroke-width="2" fill="none" stroke="rgb(0, 0, 0)" stroke-opacity="1.0" stroke-linecap="round" stroke-linejoin="round"/>
    <path d="M 122.94248962402344 79.09261322021484 C 111.29571533203125 88.4544906616211 70.51329803466797 45.13687515258789 125.64094543457031 86.94815826416016" stroke-width="2" fill="none" stroke="rgb(0, 0, 0)" stroke-opacity="1.0" stroke-linecap="round" stroke-linejoin="round"/>
    <path d="M 144.4607696533203 99.423095703125 C 129.7951202392578 111.14397430419922 131.60186767578125 86.15678405761719 159.1019287109375 116.38778686523438" stroke-width="2" fill="none" stroke="rgb(0, 0, 0)" stroke-opacity="1.0" stroke-linecap="round" stroke-linejoin="round"/>
    <path d="M 67.5824966430664 132.79176330566406 C 62.356605529785156 160.0515899658203 193.8257598876953 129.3616943359375 89.65071105957031 136.1600799560547" stroke-width="2" fill="none" stroke="rgb(0, 0, 0)" stroke-opacity="1.0" stroke-linecap="round" stroke-linejoin="round"/>
    <path d="M 164.0538787841797 113.74099731445312 C 134.25665283203125 155.7866973876953 225.61813354492188 15.79234504699707 154.81747436523438 81.07234954833984" stroke-width="2" fill="none" stroke="rgb(0, 0, 0)" stroke-opacity="1.0" stroke-linecap="round" stroke-linejoin="round"/>
    <path d="M 103.24358367919922 94.06786346435547 C 152.7627410888672 120.71485900878906 82.84525299072266 79.2530517578125 165.9108428955078 82.2798080444336" stroke-width="2" fill="none" stroke="rgb(0, 0, 0)" stroke-opacity="1.0" stroke-linecap="round" stroke-linejoin="round"/>
    <path d="M 111.57809448242188 129.77149963378906 C 82.61692810058594 138.99826049804688 290.4765319824219 182.91525268554688 149.10032653808594 139.3353729248047" stroke-width="2" fill="none" stroke="rgb(0, 0, 0)" stroke-opacity="1.0" stroke-linecap="round" stroke-linejoin="round"/>
    <path d="M 129.7060546875 116.7540283203125 C 243.3817901611328 154.9663848876953 81.71942901611328 104.52721405029297 119.16288757324219 111.33584594726562" stroke-width="2" fill="none" stroke="rgb(0, 0, 0)" stroke-opacity="1.0" stroke-linecap="round" stroke-linejoin="round"/>
    <path d="M 118.71305084228516 156.81649780273438 C -14.392531394958496 138.89903259277344 258.18121337890625 159.8315887451172 208.82069396972656 151.26376342773438" stroke-width="2" fill="none" stroke="rgb(0, 0, 0)" stroke-opacity="1.0" stroke-linecap="round" stroke-linejoin="round"/>
    <path d="M 159.74530029296875 101.02750396728516 C 146.20391845703125 103.93473815917969 186.69200134277344 109.99640655517578 133.6298828125 105.28380584716797" stroke-width="2" fill="none" stroke="rgb(0, 0, 0)" stroke-opacity="1.0" stroke-linecap="round" stroke-linejoin="round"/>
    <path d="M 159.31126403808594 124.60858154296875 C 111.39273071289062 114.64073944091797 176.03273010253906 151.27304077148438 120.79135131835938 106.65038299560547" stroke-width="2" fill="none" stroke="rgb(0, 0, 0)" stroke-opacity="1.0" stroke-linecap="round" stroke-linejoin="round"/>
    <path d="M 132.8389129638672 121.01185607910156 C 97.50211334228516 105.92577362060547 199.1739044189453 105.27074432373047 154.45278930664062 100.54341125488281" stroke-width="2" fill="none" stroke="rgb(0, 0, 0)" stroke-opacity="1.0" stroke-linecap="round" stroke-linejoin="round"/>
    <path d="M 99.12998962402344 82.17889404296875 C 103.51526641845703 109.08995819091797 141.18333435058594 107.82518768310547 100.10926818847656 93.97380828857422" stroke-width="2" fill="none" stroke="rgb(0, 0, 0)" stroke-opacity="1.0" stroke-linecap="round" stroke-linejoin="round"/>
    <path d="M 154.343505859375 93.01042938232422 C 175.9257049560547 97.82611083984375 179.60813903808594 55.84310531616211 173.44589233398438 96.88562774658203" stroke-width="2" fill="none" stroke="rgb(0, 0, 0)" stroke-opacity="1.0" stroke-linecap="round" stroke-linejoin="round"/>
    <path d="M 100.93798828125 75.3483657836914 C 194.52549743652344 112.54712677001953 29.668071746826172 71.27401733398438 58.71841049194336 117.93424224853516" stroke-width="2" fill="none" stroke="rgb(0, 0, 0)" stroke-opacity="1.0" stroke-linecap="round" stroke-linejoin="round"/>
    <path d="M 40.8175048828125 125.64059448242188 C 90.91674041748047 75.54306030273438 -10.55345344543457 146.3209991455078 87.031005859375 154.2833709716797" stroke-width="2" fill="none" stroke="rgb(0, 0, 0)" stroke-opacity="1.0" stroke-linecap="round" stroke-linejoin="round"/>
  </g>
</svg>
