<?xml version="1.0" ?>
<svg xmlns="http://www.w3.org/2000/svg" version="1.1" width="224" height="224">
  <defs/>
  <g>
    <path d="M 126.98146057128906 118.28701782226562 C 30.923973083496094 75.8529052734375 259.0874328613281 84.53221130371094 144.47280883789062 94.82190704345703" stroke-width="2" fill="none" stroke="rgb(0, 0, 0)" stroke-opacity="1.0" stroke-linecap="round" stroke-linejoin="round"/>
    <path d="M 116.16551208496094 113.6254653930664 C 160.24017333984375 105.19407653808594 97.71829986572266 108.29232025146484 131.40927124023438 104.00714874267578" stroke-width="2" fill="none" stroke="rgb(0, 0, 0)" stroke-opacity="1.0" stroke-linecap="round" stroke-linejoin="round"/>
    <path d="M 132.4385986328125 140.78855895996094 C 126.0588150024414 149.3163299560547 108.70895385742188 119.29418182373047 122.01433563232422 141.6713409423828" stroke-width="2" fill="none" stroke="rgb(0, 0, 0)" stroke-opacity="1.0" stroke-linecap="round" stroke-linejoin="round"/>
    <path d="M 158.55909729003906 149.67080688476562 C 142.2315216064453 166.43739318847656 201.94891357421875 141.7080841064453 130.74278259277344 139.85604858398438" stroke-width="2" fill="none" stroke="rgb(0, 0, 0)" stroke-opacity="1.0" stroke-linecap="round" stroke-linejoin="round"/>
    <path d="M 115.62164306640625 110.04632568359375 C 137.6328125 156.56207275390625 220.5204620361328 89.75569152832031 107.64486694335938 86.60890197753906" stroke-width="2" fill="none" stroke="rgb(0, 0, 0)" stroke-opacity="1.0" stroke-linecap="round" stroke-linejoin="round"/>
    <path d="M 100.07206726074219 69.43060302734375 C 98.38983154296875 110.25361633300781 222.2863311767578 68.69451141357422 149.66749572753906 82.3236083984375" stroke-width="2" fill="none" stroke="rgb(0, 0, 0)" stroke-opacity="1.0" stroke-linecap="round" stroke-linejoin="round"/>
    <path d="M 71.33141326904297 142.9376220703125 C 58.79417419433594 172.10110473632812 222.70997619628906 134.58778381347656 181.39308166503906 150.4449462890625" stroke-width="2" fill="none" stroke="rgb(0, 0, 0)" stroke-opacity="1.0" stroke-linecap="round" stroke-linejoin="round"/>
    <path d="M 122.42241668701172 119.68167877197266 C 191.75350952148438 114.85096740722656 71.13259887695312 113.7812728881836 160.17234802246094 128.21084594726562" stroke-width="2" fill="none" stroke="rgb(0, 0, 0)" stroke-opacity="1.0" stroke-linecap="round" stroke-linejoin="round"/>
    <path d="M 142.59634399414062 122.56161499023438 C 67.00066375732422 107.5576171875 172.2902069091797 119.4409408569336 138.521240234375 111.55375671386719" stroke-width="2" fill="none" stroke="rgb(0, 0, 0)" stroke-opacity="1.0" stroke-linecap="round" stroke-linejoin="round"/>
    <path d="M 181.92494201660156 63.30021667480469 C 123.29563903808594 108.11524200439453 226.8455352783203 14.372944831848145 165.0051727294922 100.0465316772461" stroke-width="2" fill="none" stroke="rgb(0, 0, 0)" stroke-opacity="1.0" stroke-linecap="round" stroke-linejoin="round"/>
    <path d="M 117.0504150390625 142.87493896484375 C 158.21395874023438 142.41734313964844 161.23135375976562 162.1844940185547 156.0289306640625 149.48513793945312" stroke-width="2" fill="none" stroke="rgb(0, 0, 0)" stroke-opacity="1.0" stroke-linecap="round" stroke-linejoin="round"/>
    <path d="M 117.78629302978516 124.8400650024414 C 291.3960876464844 151.88938903808594 78.37140655517578 156.42225646972656 101.02444458007812 146.0720977783203" stroke-width="2" fill="none" stroke="rgb(0, 0, 0)" stroke-opacity="1.0" stroke-linecap="round" stroke-linejoin="round"/>
    <path d="M 147.5321807861328 85.61063385009766 C 121.23344421386719 105.88533782958984 183.86370849609375 113.23481750488281 95.50271606445312 68.79714965820312" stroke-width="2" fill="none" stroke="rgb(0, 0, 0)" stroke-opacity="1.0" stroke-linecap="round" stroke-linejoin="round"/>
    <path d="M 153.68972778320312 108.3036880493164 C 184.82406616210938 119.43629455566406 196.21006774902344 45.779781341552734 185.16064453125 46.95000076293945" stroke-width="2" fill="none" stroke="rgb(0, 0, 0)" stroke-opacity="1.0" stroke-linecap="round" stroke-linejoin="round"/>
    <path d="M 98.666259765625 82.30794525146484 C 140.82699584960938 132.13426208496094 46.28705596923828 64.30482482910156 55.361732482910156 120.60982513427734" stroke-width="2" fill="none" stroke="rgb(0, 0, 0)" stroke-opacity="1.0" stroke-linecap="round" stroke-linejoin="round"/>
    <path d="M 86.30979919433594 92.28642272949219 C 50.808509826660156 90.96443939208984 9.206499099731445 156.27774047851562 79.73584747314453 154.7432861328125" stroke-width="2" fill="none" stroke="rgb(0, 0, 0)" stroke-opacity="1.0" stroke-linecap="round" stroke-linejoin="round"/>
  </g>
</svg>
