<?xml version="1.0" ?>
<svg xmlns="http://www.w3.org/2000/svg" version="1.1" width="224" height="224">
  <defs/>
  <g>
    <path d="M 124.68272399902344 119.16578674316406 C 49.518150329589844 67.1958236694336 234.22508239746094 96.44654846191406 150.0861053466797 107.22077941894531" stroke-width="2" fill="none" stroke="rgb(0, 0, 0)" stroke-opacity="1.0" stroke-linecap="round" stroke-linejoin="round"/>
    <path d="M 121.2304458618164 115.70609283447266 C 151.8480224609375 81.88935089111328 110.19379425048828 139.54966735839844 121.60636901855469 108.81552124023438" stroke-width="2" fill="none" stroke="rgb(0, 0, 0)" stroke-opacity="1.0" stroke-linecap="round" stroke-linejoin="round"/>
    <path d="M 134.8752899169922 121.54021453857422 C 93.69567108154297 154.85829162597656 89.62434387207031 107.71170806884766 100.71987915039062 130.88516235351562" stroke-width="2" fill="none" stroke="rgb(0, 0, 0)" stroke-opacity="1.0" stroke-linecap="round" stroke-linejoin="round"/>
    <path d="M 164.21543884277344 153.79820251464844 C 160.0892333984375 155.54843139648438 212.74749755859375 155.9721221923828 116.16238403320312 124.38744354248047" stroke-width="2" fill="none" stroke="rgb(0, 0, 0)" stroke-opacity="1.0" stroke-linecap="round" stroke-linejoin="round"/>
    <path d="M 113.80184173583984 127.23432922363281 C 142.5237274169922 138.14837646484375 216.18618774414062 131.3228302001953 101.80811309814453 71.86174774169922" stroke-width="2" fill="none" stroke="rgb(0, 0, 0)" stroke-opacity="1.0" stroke-linecap="round" stroke-linejoin="round"/>
    <path d="M 101.26581573486328 67.43037414550781 C 94.66291809082031 105.34915924072266 214.34878540039062 78.50755310058594 138.57965087890625 82.27920532226562" stroke-width="2" fill="none" stroke="rgb(0, 0, 0)" stroke-opacity="1.0" stroke-linecap="round" stroke-linejoin="round"/>
    <path d="M 45.1801643371582 134.9712677001953 C 31.587787628173828 165.93130493164062 182.18104553222656 140.98997497558594 177.95155334472656 142.2017364501953" stroke-width="2" fill="none" stroke="rgb(0, 0, 0)" stroke-opacity="1.0" stroke-linecap="round" stroke-linejoin="round"/>
    <path d="M 150.7609100341797 131.86245727539062 C 151.77137756347656 115.98503112792969 77.47441864013672 132.4401092529297 132.73622131347656 104.70465850830078" stroke-width="2" fill="none" stroke="rgb(0, 0, 0)" stroke-opacity="1.0" stroke-linecap="round" stroke-linejoin="round"/>
    <path d="M 132.8187255859375 110.97791290283203 C 67.47147369384766 111.1800765991211 152.3167266845703 103.47501373291016 124.46514129638672 103.43779754638672" stroke-width="2" fill="none" stroke="rgb(0, 0, 0)" stroke-opacity="1.0" stroke-linecap="round" stroke-linejoin="round"/>
    <path d="M 179.4845733642578 64.58626556396484 C 114.29420471191406 122.02192687988281 221.90443420410156 37.77210998535156 159.377685546875 97.19470977783203" stroke-width="2" fill="none" stroke="rgb(0, 0, 0)" stroke-opacity="1.0" stroke-linecap="round" stroke-linejoin="round"/>
    <path d="M 128.69668579101562 144.3721160888672 C 212.6616668701172 153.3817901611328 151.5912628173828 161.17147827148438 159.22508239746094 155.65684509277344" stroke-width="2" fill="none" stroke="rgb(0, 0, 0)" stroke-opacity="1.0" stroke-linecap="round" stroke-linejoin="round"/>
    <path d="M 90.20616149902344 133.4318389892578 C 267.1812438964844 142.26377868652344 77.88741302490234 162.5854034423828 69.05445861816406 133.468994140625" stroke-width="2" fill="none" stroke="rgb(0, 0, 0)" stroke-opacity="1.0" stroke-linecap="round" stroke-linejoin="round"/>
    <path d="M 152.84837341308594 98.37789154052734 C 108.11843872070312 95.73661041259766 183.23666381835938 115.85852813720703 103.14786529541016 70.45807647705078" stroke-width="2" fill="none" stroke="rgb(0, 0, 0)" stroke-opacity="1.0" stroke-linecap="round" stroke-linejoin="round"/>
    <path d="M 155.6175994873047 124.12434387207031 C 200.84654235839844 88.65646362304688 178.96133422851562 57.46943283081055 186.1850128173828 64.35462188720703" stroke-width="2" fill="none" stroke="rgb(0, 0, 0)" stroke-opacity="1.0" stroke-linecap="round" stroke-linejoin="round"/>
    <path d="M 102.49990844726562 83.29557800292969 C 139.4868621826172 132.78170776367188 41.521419525146484 69.50796508789062 48.7988395690918 124.822998046875" stroke-width="2" fill="none" stroke="rgb(0, 0, 0)" stroke-opacity="1.0" stroke-linecap="round" stroke-linejoin="round"/>
    <path d="M 86.33306884765625 91.08124542236328 C 60.02938461303711 94.40512084960938 14.530181884765625 140.66693115234375 54.381771087646484 148.7152557373047" stroke-width="2" fill="none" stroke="rgb(0, 0, 0)" stroke-opacity="1.0" stroke-linecap="round" stroke-linejoin="round"/>
  </g>
</svg>
