<?xml version="1.0" ?>
<svg xmlns="http://www.w3.org/2000/svg" version="1.1" width="224" height="224">
  <defs/>
  <g>
    <path d="M 99.5145492553711 87.17327117919922 C 44.85444259643555 108.25196838378906 87.1858901977539 91.54207611083984 88.30425262451172 112.66557312011719" stroke-width="2" fill="none" stroke="rgb(0, 0, 0)" stroke-opacity="1.0" stroke-linecap="round" stroke-linejoin="round"/>
    <path d="M 106.88684844970703 144.32977294921875 C 132.14552307128906 115.38630676269531 113.86720275878906 161.2188262939453 94.1640853881836 145.3120574951172" stroke-width="2" fill="none" stroke="rgb(0, 0, 0)" stroke-opacity="1.0" stroke-linecap="round" stroke-linejoin="round"/>
    <path d="M 160.4542999267578 132.56153869628906 C 106.93927001953125 130.63018798828125 73.46809387207031 119.38417053222656 101.705078125 131.24705505371094" stroke-width="2" fill="none" stroke="rgb(0, 0, 0)" stroke-opacity="1.0" stroke-linecap="round" stroke-linejoin="round"/>
    <path d="M 183.0830535888672 148.1121063232422 C 171.8282470703125 156.4961700439453 198.42404174804688 136.79318237304688 124.30541229248047 124.88648223876953" stroke-width="2" fill="none" stroke="rgb(0, 0, 0)" stroke-opacity="1.0" stroke-linecap="round" stroke-linejoin="round"/>
    <path d="M 122.09468078613281 117.39299011230469 C 132.3847198486328 101.5029296875 127.52971649169922 91.18963623046875 106.02000427246094 63.671226501464844" stroke-width="2" fill="none" stroke="rgb(0, 0, 0)" stroke-opacity="1.0" stroke-linecap="round" stroke-linejoin="round"/>
    <path d="M 105.21797943115234 67.51566314697266 C 102.64472961425781 69.07328796386719 97.13700866699219 93.59403228759766 99.23165130615234 108.37274169921875" stroke-width="2" fill="none" stroke="rgb(0, 0, 0)" stroke-opacity="1.0" stroke-linecap="round" stroke-linejoin="round"/>
    <path d="M 41.33995056152344 142.26441955566406 C 68.27323913574219 154.80897521972656 122.91679382324219 156.3494873046875 92.68800354003906 150.05540466308594" stroke-width="2" fill="none" stroke="rgb(0, 0, 0)" stroke-opacity="1.0" stroke-linecap="round" stroke-linejoin="round"/>
    <path d="M 152.84339904785156 150.013427734375 C 145.34768676757812 131.3533172607422 101.35964965820312 165.0829315185547 113.5481948852539 120.67507934570312" stroke-width="2" fill="none" stroke="rgb(0, 0, 0)" stroke-opacity="1.0" stroke-linecap="round" stroke-linejoin="round"/>
    <path d="M 92.85433959960938 133.04769897460938 C 104.45281219482422 108.95186614990234 100.27174377441406 144.99298095703125 90.41622924804688 126.69715118408203" stroke-width="2" fill="none" stroke="rgb(0, 0, 0)" stroke-opacity="1.0" stroke-linecap="round" stroke-linejoin="round"/>
    <path d="M 168.62030029296875 86.51549530029297 C 177.15711975097656 40.7628059387207 191.7073974609375 77.26181030273438 155.19517517089844 93.11882019042969" stroke-width="2" fill="none" stroke="rgb(0, 0, 0)" stroke-opacity="1.0" stroke-linecap="round" stroke-linejoin="round"/>
    <path d="M 173.19189453125 146.73388671875 C 205.42092895507812 161.69544982910156 141.06260681152344 150.1551055908203 168.3291015625 154.946533203125" stroke-width="2" fill="none" stroke="rgb(0, 0, 0)" stroke-opacity="1.0" stroke-linecap="round" stroke-linejoin="round"/>
    <path d="M 72.17101287841797 136.84107971191406 C 112.41979217529297 160.0989532470703 47.994014739990234 129.2570343017578 99.42011260986328 157.61773681640625" stroke-width="2" fill="none" stroke="rgb(0, 0, 0)" stroke-opacity="1.0" stroke-linecap="round" stroke-linejoin="round"/>
    <path d="M 108.94270324707031 113.76741027832031 C 125.70917510986328 99.34066009521484 99.69425201416016 118.94823455810547 104.00511932373047 69.87202453613281" stroke-width="2" fill="none" stroke="rgb(0, 0, 0)" stroke-opacity="1.0" stroke-linecap="round" stroke-linejoin="round"/>
    <path d="M 152.7528533935547 127.93827056884766 C 197.26907348632812 77.13969421386719 171.8822479248047 81.5526351928711 180.87327575683594 63.44975280761719" stroke-width="2" fill="none" stroke="rgb(0, 0, 0)" stroke-opacity="1.0" stroke-linecap="round" stroke-linejoin="round"/>
    <path d="M 91.27613067626953 106.7450180053711 C 65.29972076416016 100.7081527709961 71.94242095947266 91.89385986328125 58.41196060180664 107.7284164428711" stroke-width="2" fill="none" stroke="rgb(0, 0, 0)" stroke-opacity="1.0" stroke-linecap="round" stroke-linejoin="round"/>
    <path d="M 38.97531509399414 116.5610580444336 C 67.06449890136719 106.24897766113281 35.198978424072266 114.52273559570312 38.06236267089844 131.61268615722656" stroke-width="2" fill="none" stroke="rgb(0, 0, 0)" stroke-opacity="1.0" stroke-linecap="round" stroke-linejoin="round"/>
  </g>
</svg>
