<?xml version="1.0" ?>
<svg xmlns="http://www.w3.org/2000/svg" version="1.1" width="224" height="224">
  <defs/>
  <g>
    <path d="M 123.9671859741211 113.98267364501953 C 46.3195915222168 69.01594543457031 230.0136260986328 97.34111022949219 142.2382354736328 101.42543029785156" stroke-width="2" fill="none" stroke="rgb(0, 0, 0)" stroke-opacity="1.0" stroke-linecap="round" stroke-linejoin="round"/>
    <path d="M 124.78311920166016 118.01519012451172 C 154.12620544433594 86.14664459228516 114.9894790649414 138.8120880126953 124.26749420166016 104.9357681274414" stroke-width="2" fill="none" stroke="rgb(0, 0, 0)" stroke-opacity="1.0" stroke-linecap="round" stroke-linejoin="round"/>
    <path d="M 132.6761016845703 119.36006164550781 C 92.83613586425781 155.47412109375 89.1349105834961 106.64384460449219 99.41436004638672 134.2819061279297" stroke-width="2" fill="none" stroke="rgb(0, 0, 0)" stroke-opacity="1.0" stroke-linecap="round" stroke-linejoin="round"/>
    <path d="M 164.69503784179688 157.9039764404297 C 158.47439575195312 157.01731872558594 213.1783905029297 152.39334106445312 113.1951904296875 124.0640869140625" stroke-width="2" fill="none" stroke="rgb(0, 0, 0)" stroke-opacity="1.0" stroke-linecap="round" stroke-linejoin="round"/>
    <path d="M 114.68353271484375 123.97502899169922 C 142.6915283203125 141.1352996826172 218.75527954101562 127.47863006591797 101.32524871826172 71.93892669677734" stroke-width="2" fill="none" stroke="rgb(0, 0, 0)" stroke-opacity="1.0" stroke-linecap="round" stroke-linejoin="round"/>
    <path d="M 100.65762329101562 65.1769027709961 C 94.59514617919922 108.48992156982422 214.13865661621094 84.21927642822266 137.2923583984375 85.50405883789062" stroke-width="2" fill="none" stroke="rgb(0, 0, 0)" stroke-opacity="1.0" stroke-linecap="round" stroke-linejoin="round"/>
    <path d="M 50.150970458984375 136.8110809326172 C 31.713294982910156 162.6038360595703 182.56578063964844 136.57859802246094 180.20257568359375 147.98611450195312" stroke-width="2" fill="none" stroke="rgb(0, 0, 0)" stroke-opacity="1.0" stroke-linecap="round" stroke-linejoin="round"/>
    <path d="M 149.38916015625 129.31622314453125 C 155.4611053466797 117.20051574707031 71.43876647949219 130.9932861328125 132.72508239746094 104.98062133789062" stroke-width="2" fill="none" stroke="rgb(0, 0, 0)" stroke-opacity="1.0" stroke-linecap="round" stroke-linejoin="round"/>
    <path d="M 134.80711364746094 109.69538116455078 C 66.22769165039062 114.47191619873047 151.7789306640625 104.13467407226562 120.82472229003906 103.0834732055664" stroke-width="2" fill="none" stroke="rgb(0, 0, 0)" stroke-opacity="1.0" stroke-linecap="round" stroke-linejoin="round"/>
    <path d="M 180.5187530517578 63.41966247558594 C 116.6758804321289 124.6408920288086 220.2692413330078 32.155643463134766 161.86155700683594 92.67183685302734" stroke-width="2" fill="none" stroke="rgb(0, 0, 0)" stroke-opacity="1.0" stroke-linecap="round" stroke-linejoin="round"/>
    <path d="M 131.52474975585938 145.1123046875 C 207.426513671875 156.94198608398438 143.2484588623047 158.43350219726562 156.3582305908203 153.36314392089844" stroke-width="2" fill="none" stroke="rgb(0, 0, 0)" stroke-opacity="1.0" stroke-linecap="round" stroke-linejoin="round"/>
    <path d="M 89.90625762939453 133.96974182128906 C 264.5321350097656 140.1548309326172 69.72846984863281 164.3369140625 68.53166198730469 134.26275634765625" stroke-width="2" fill="none" stroke="rgb(0, 0, 0)" stroke-opacity="1.0" stroke-linecap="round" stroke-linejoin="round"/>
    <path d="M 147.95736694335938 94.74412536621094 C 100.49031829833984 89.7962646484375 175.2368927001953 114.21931457519531 100.23102569580078 73.25020599365234" stroke-width="2" fill="none" stroke="rgb(0, 0, 0)" stroke-opacity="1.0" stroke-linecap="round" stroke-linejoin="round"/>
    <path d="M 155.01138305664062 122.02093505859375 C 199.2972412109375 84.76917266845703 173.78817749023438 56.42622756958008 186.32034301757812 63.67662811279297" stroke-width="2" fill="none" stroke="rgb(0, 0, 0)" stroke-opacity="1.0" stroke-linecap="round" stroke-linejoin="round"/>
    <path d="M 103.57650756835938 82.77635192871094 C 137.785888671875 135.47079467773438 44.7894287109375 66.16755676269531 48.02372360229492 125.51380920410156" stroke-width="2" fill="none" stroke="rgb(0, 0, 0)" stroke-opacity="1.0" stroke-linecap="round" stroke-linejoin="round"/>
    <path d="M 86.06361389160156 91.08989715576172 C 58.11658477783203 95.56768798828125 12.341609001159668 139.7150115966797 54.222103118896484 146.03829956054688" stroke-width="2" fill="none" stroke="rgb(0, 0, 0)" stroke-opacity="1.0" stroke-linecap="round" stroke-linejoin="round"/>
  </g>
</svg>
