<?xml version="1.0" ?>
<svg xmlns="http://www.w3.org/2000/svg" version="1.1" width="224" height="224">
  <defs/>
  <g>
    <path d="M 106.49868774414062 108.61983489990234 C 78.56304931640625 83.23248291015625 174.2023162841797 109.70365905761719 118.28375244140625 95.24972534179688" stroke-width="2" fill="none" stroke="rgb(0, 0, 0)" stroke-opacity="1.0" stroke-linecap="round" stroke-linejoin="round"/>
    <path d="M 103.80841064453125 130.44772338867188 C 140.03709411621094 98.58116149902344 106.5992202758789 144.6175537109375 99.41109466552734 122.20316314697266" stroke-width="2" fill="none" stroke="rgb(0, 0, 0)" stroke-opacity="1.0" stroke-linecap="round" stroke-linejoin="round"/>
    <path d="M 141.84364318847656 124.64204406738281 C 65.9669418334961 147.3581085205078 91.38552856445312 103.03913879394531 90.42471313476562 135.2335205078125" stroke-width="2" fill="none" stroke="rgb(0, 0, 0)" stroke-opacity="1.0" stroke-linecap="round" stroke-linejoin="round"/>
    <path d="M 161.20335388183594 146.51634216308594 C 177.5535430908203 151.01113891601562 203.6256103515625 143.28416442871094 100.20603942871094 124.32071685791016" stroke-width="2" fill="none" stroke="rgb(0, 0, 0)" stroke-opacity="1.0" stroke-linecap="round" stroke-linejoin="round"/>
    <path d="M 99.59889221191406 130.41860961914062 C 135.54995727539062 108.68861389160156 172.5865478515625 137.5755615234375 100.53980255126953 68.16780853271484" stroke-width="2" fill="none" stroke="rgb(0, 0, 0)" stroke-opacity="1.0" stroke-linecap="round" stroke-linejoin="round"/>
    <path d="M 98.8769302368164 66.427978515625 C 85.37167358398438 128.0908660888672 180.22900390625 88.80139923095703 115.26639556884766 89.99402618408203" stroke-width="2" fill="none" stroke="rgb(0, 0, 0)" stroke-opacity="1.0" stroke-linecap="round" stroke-linejoin="round"/>
    <path d="M 38.12350845336914 130.64930725097656 C 52.32525634765625 172.36373901367188 186.51760864257812 142.32699584960938 168.82603454589844 156.48233032226562" stroke-width="2" fill="none" stroke="rgb(0, 0, 0)" stroke-opacity="1.0" stroke-linecap="round" stroke-linejoin="round"/>
    <path d="M 157.89877319335938 151.6044921875 C 148.15667724609375 124.1535415649414 61.31031036376953 158.8390655517578 117.04930114746094 115.84423828125" stroke-width="2" fill="none" stroke="rgb(0, 0, 0)" stroke-opacity="1.0" stroke-linecap="round" stroke-linejoin="round"/>
    <path d="M 108.7981948852539 107.54891967773438 C 80.59260559082031 109.72583770751953 128.78945922851562 123.00273132324219 98.8055419921875 108.83753204345703" stroke-width="2" fill="none" stroke="rgb(0, 0, 0)" stroke-opacity="1.0" stroke-linecap="round" stroke-linejoin="round"/>
    <path d="M 169.57676696777344 84.61200714111328 C 104.38219451904297 115.13127899169922 195.25518798828125 91.27584075927734 138.4348907470703 108.73163604736328" stroke-width="2" fill="none" stroke="rgb(0, 0, 0)" stroke-opacity="1.0" stroke-linecap="round" stroke-linejoin="round"/>
    <path d="M 159.1599578857422 139.61260986328125 C 199.1570587158203 155.3238525390625 143.85455322265625 162.04759216308594 170.55819702148438 150.07772827148438" stroke-width="2" fill="none" stroke="rgb(0, 0, 0)" stroke-opacity="1.0" stroke-linecap="round" stroke-linejoin="round"/>
    <path d="M 80.23236083984375 149.7050018310547 C 127.19705963134766 156.61178588867188 60.47922134399414 153.15191650390625 64.4423599243164 136.57476806640625" stroke-width="2" fill="none" stroke="rgb(0, 0, 0)" stroke-opacity="1.0" stroke-linecap="round" stroke-linejoin="round"/>
    <path d="M 160.1763458251953 89.92806243896484 C 138.35726928710938 78.27975463867188 118.83708190917969 138.65621948242188 100.24273681640625 77.48601531982422" stroke-width="2" fill="none" stroke="rgb(0, 0, 0)" stroke-opacity="1.0" stroke-linecap="round" stroke-linejoin="round"/>
    <path d="M 149.94598388671875 120.1219253540039 C 191.5223388671875 60.42788314819336 170.24330139160156 73.21288299560547 179.65109252929688 60.2083854675293" stroke-width="2" fill="none" stroke="rgb(0, 0, 0)" stroke-opacity="1.0" stroke-linecap="round" stroke-linejoin="round"/>
    <path d="M 111.37930297851562 102.9257583618164 C 118.80374145507812 125.51346588134766 70.08745574951172 63.07301712036133 49.616554260253906 118.05441284179688" stroke-width="2" fill="none" stroke="rgb(0, 0, 0)" stroke-opacity="1.0" stroke-linecap="round" stroke-linejoin="round"/>
    <path d="M 55.05587387084961 116.2010726928711 C 68.04973602294922 110.94760131835938 36.87102127075195 117.51873779296875 43.32144546508789 137.57781982421875" stroke-width="2" fill="none" stroke="rgb(0, 0, 0)" stroke-opacity="1.0" stroke-linecap="round" stroke-linejoin="round"/>
  </g>
</svg>
