<?xml version="1.0" ?>
<svg xmlns="http://www.w3.org/2000/svg" version="1.1" width="224" height="224">
  <defs/>
  <g>
    <path d="M 149.84274291992188 121.0389404296875 C 1.4787391424179077 39.56619644165039 240.27154541015625 85.60075378417969 166.86521911621094 90.02776336669922" stroke-width="2" fill="none" stroke="rgb(0, 0, 0)" stroke-opacity="1.0" stroke-linecap="round" stroke-linejoin="round"/>
    <path d="M 116.38228607177734 106.39552307128906 C 105.0603256225586 80.97954559326172 96.32292938232422 94.2241439819336 132.01649475097656 102.64840698242188" stroke-width="2" fill="none" stroke="rgb(0, 0, 0)" stroke-opacity="1.0" stroke-linecap="round" stroke-linejoin="round"/>
    <path d="M 131.04660034179688 115.23731994628906 C 192.1203155517578 135.91468811035156 108.78620147705078 84.143798828125 148.4142303466797 121.17081451416016" stroke-width="2" fill="none" stroke="rgb(0, 0, 0)" stroke-opacity="1.0" stroke-linecap="round" stroke-linejoin="round"/>
    <path d="M 74.61195373535156 133.25189208984375 C 105.15972900390625 165.94924926757812 166.4916229248047 141.36541748046875 84.05008697509766 146.303955078125" stroke-width="2" fill="none" stroke="rgb(0, 0, 0)" stroke-opacity="1.0" stroke-linecap="round" stroke-linejoin="round"/>
    <path d="M 115.8604507446289 98.0339126586914 C 161.89016723632812 169.7774658203125 243.1865692138672 4.683310031890869 156.84457397460938 86.82793426513672" stroke-width="2" fill="none" stroke="rgb(0, 0, 0)" stroke-opacity="1.0" stroke-linecap="round" stroke-linejoin="round"/>
    <path d="M 100.51402282714844 73.05425262451172 C 125.9337387084961 130.17320251464844 132.63674926757812 46.42443084716797 162.08978271484375 92.62955474853516" stroke-width="2" fill="none" stroke="rgb(0, 0, 0)" stroke-opacity="1.0" stroke-linecap="round" stroke-linejoin="round"/>
    <path d="M 85.80633544921875 120.11653900146484 C 78.20063781738281 173.552490234375 278.2401428222656 90.7376708984375 149.14447021484375 110.48262023925781" stroke-width="2" fill="none" stroke="rgb(0, 0, 0)" stroke-opacity="1.0" stroke-linecap="round" stroke-linejoin="round"/>
    <path d="M 136.82217407226562 118.27812957763672 C 296.85919189453125 107.20088958740234 40.233734130859375 113.9827880859375 104.23809814453125 116.55524444580078" stroke-width="2" fill="none" stroke="rgb(0, 0, 0)" stroke-opacity="1.0" stroke-linecap="round" stroke-linejoin="round"/>
    <path d="M 192.92787170410156 146.54971313476562 C -60.579463958740234 122.64521789550781 330.307373046875 192.800048828125 183.70193481445312 148.7072296142578" stroke-width="2" fill="none" stroke="rgb(0, 0, 0)" stroke-opacity="1.0" stroke-linecap="round" stroke-linejoin="round"/>
    <path d="M 153.22950744628906 103.31028747558594 C 120.97466278076172 102.93186950683594 177.18560791015625 91.77133178710938 141.84413146972656 116.51677703857422" stroke-width="2" fill="none" stroke="rgb(0, 0, 0)" stroke-opacity="1.0" stroke-linecap="round" stroke-linejoin="round"/>
    <path d="M 141.29974365234375 143.47589111328125 C 79.98504638671875 106.08026123046875 149.51023864746094 138.5303955078125 111.59204864501953 127.13666534423828" stroke-width="2" fill="none" stroke="rgb(0, 0, 0)" stroke-opacity="1.0" stroke-linecap="round" stroke-linejoin="round"/>
    <path d="M 156.34109497070312 103.48824310302734 C 75.07763671875 132.16468811035156 157.10968017578125 81.84871673583984 116.6375732421875 107.12286376953125" stroke-width="2" fill="none" stroke="rgb(0, 0, 0)" stroke-opacity="1.0" stroke-linecap="round" stroke-linejoin="round"/>
    <path d="M 95.80802154541016 71.01567077636719 C 107.38160705566406 88.96087646484375 164.30859375 90.02542114257812 108.73196411132812 84.70733642578125" stroke-width="2" fill="none" stroke="rgb(0, 0, 0)" stroke-opacity="1.0" stroke-linecap="round" stroke-linejoin="round"/>
    <path d="M 157.3793487548828 79.71113586425781 C 174.9519805908203 93.60963439941406 217.52259826660156 35.50528335571289 178.7467041015625 80.26144409179688" stroke-width="2" fill="none" stroke="rgb(0, 0, 0)" stroke-opacity="1.0" stroke-linecap="round" stroke-linejoin="round"/>
    <path d="M 102.6220474243164 66.99385070800781 C 203.80844116210938 121.28768157958984 43.11840057373047 61.4522819519043 47.277278900146484 117.75120544433594" stroke-width="2" fill="none" stroke="rgb(0, 0, 0)" stroke-opacity="1.0" stroke-linecap="round" stroke-linejoin="round"/>
    <path d="M 37.195274353027344 122.95304107666016 C 114.79728698730469 61.2115364074707 -62.12102127075195 166.68902587890625 137.640380859375 147.2999267578125" stroke-width="2" fill="none" stroke="rgb(0, 0, 0)" stroke-opacity="1.0" stroke-linecap="round" stroke-linejoin="round"/>
  </g>
</svg>
