<?xml version="1.0" ?>
<svg xmlns="http://www.w3.org/2000/svg" version="1.1" width="224" height="224">
  <defs/>
  <g>
    <path d="M 113.59188842773438 84.75279235839844 C 23.271100997924805 43.002384185791016 209.12107849121094 94.17286682128906 154.2023468017578 89.77202606201172" stroke-width="2" fill="none" stroke="rgb(0, 0, 0)" stroke-opacity="1.0" stroke-linecap="round" stroke-linejoin="round"/>
    <path d="M 116.7088623046875 72.81442260742188 C 181.7783660888672 117.35725402832031 42.37888717651367 37.64698028564453 113.24454498291016 95.72711181640625" stroke-width="2" fill="none" stroke="rgb(0, 0, 0)" stroke-opacity="1.0" stroke-linecap="round" stroke-linejoin="round"/>
    <path d="M 147.28529357910156 94.99097442626953 C 104.78114318847656 89.7115478515625 228.1814422607422 123.06769561767578 119.96524810791016 116.0209732055664" stroke-width="2" fill="none" stroke="rgb(0, 0, 0)" stroke-opacity="1.0" stroke-linecap="round" stroke-linejoin="round"/>
    <path d="M 114.28064727783203 137.5721435546875 C 83.02426147460938 138.46949768066406 255.94464111328125 166.0742950439453 118.303466796875 152.4444122314453" stroke-width="2" fill="none" stroke="rgb(0, 0, 0)" stroke-opacity="1.0" stroke-linecap="round" stroke-linejoin="round"/>
    <path d="M 154.7737579345703 105.33006286621094 C 164.32864379882812 135.74456787109375 208.76205444335938 27.468610763549805 168.9550018310547 74.5737075805664" stroke-width="2" fill="none" stroke="rgb(0, 0, 0)" stroke-opacity="1.0" stroke-linecap="round" stroke-linejoin="round"/>
    <path d="M 181.3683624267578 130.73851013183594 C 237.55931091308594 147.0694580078125 9.977157592773438 96.30621337890625 167.0393829345703 75.16954803466797" stroke-width="2" fill="none" stroke="rgb(0, 0, 0)" stroke-opacity="1.0" stroke-linecap="round" stroke-linejoin="round"/>
    <path d="M 124.54181671142578 132.18336486816406 C 82.76480102539062 98.6594009399414 148.40301513671875 131.86831665039062 117.48048400878906 111.0879135131836" stroke-width="2" fill="none" stroke="rgb(0, 0, 0)" stroke-opacity="1.0" stroke-linecap="round" stroke-linejoin="round"/>
    <path d="M 138.3949432373047 139.70257568359375 C 218.1201629638672 147.56484985351562 134.82899475097656 159.5370635986328 147.91448974609375 152.19802856445312" stroke-width="2" fill="none" stroke="rgb(0, 0, 0)" stroke-opacity="1.0" stroke-linecap="round" stroke-linejoin="round"/>
    <path d="M 71.04735565185547 128.09788513183594 C 86.47924041748047 168.3302459716797 190.4110565185547 129.43336486816406 173.3646697998047 154.88352966308594" stroke-width="2" fill="none" stroke="rgb(0, 0, 0)" stroke-opacity="1.0" stroke-linecap="round" stroke-linejoin="round"/>
    <path d="M 160.79270935058594 94.42561340332031 C 136.46847534179688 75.38336181640625 181.3060760498047 108.47042083740234 133.6038055419922 101.86570739746094" stroke-width="2" fill="none" stroke="rgb(0, 0, 0)" stroke-opacity="1.0" stroke-linecap="round" stroke-linejoin="round"/>
    <path d="M 155.87220764160156 102.58267974853516 C 46.74018478393555 123.69738006591797 189.63209533691406 103.40274047851562 142.35659790039062 122.79850006103516" stroke-width="2" fill="none" stroke="rgb(0, 0, 0)" stroke-opacity="1.0" stroke-linecap="round" stroke-linejoin="round"/>
    <path d="M 149.9679718017578 121.16862487792969 C 130.917724609375 111.48860168457031 197.1149139404297 121.54158020019531 126.86459350585938 116.68318939208984" stroke-width="2" fill="none" stroke="rgb(0, 0, 0)" stroke-opacity="1.0" stroke-linecap="round" stroke-linejoin="round"/>
    <path d="M 90.66121673583984 74.74771881103516 C 89.9200210571289 128.84947204589844 137.78236389160156 89.62648010253906 103.86078643798828 103.52354431152344" stroke-width="2" fill="none" stroke="rgb(0, 0, 0)" stroke-opacity="1.0" stroke-linecap="round" stroke-linejoin="round"/>
    <path d="M 146.4598846435547 97.8099136352539 C 167.78245544433594 133.0276641845703 215.82882690429688 33.2736930847168 157.129638671875 90.82919311523438" stroke-width="2" fill="none" stroke="rgb(0, 0, 0)" stroke-opacity="1.0" stroke-linecap="round" stroke-linejoin="round"/>
    <path d="M 141.24493408203125 123.5226821899414 C 197.34902954101562 139.0608673095703 51.88323211669922 58.75197219848633 50.919986724853516 120.62156677246094" stroke-width="2" fill="none" stroke="rgb(0, 0, 0)" stroke-opacity="1.0" stroke-linecap="round" stroke-linejoin="round"/>
    <path d="M 58.63536071777344 109.84854125976562 C 118.27972412109375 66.80934143066406 -65.77860260009766 166.3400421142578 140.11961364746094 153.50726318359375" stroke-width="2" fill="none" stroke="rgb(0, 0, 0)" stroke-opacity="1.0" stroke-linecap="round" stroke-linejoin="round"/>
  </g>
</svg>
