<?xml version="1.0" ?>
<svg xmlns="http://www.w3.org/2000/svg" version="1.1" width="224" height="224">
  <defs/>
  <g>
    <path d="M 117.60674285888672 120.6509017944336 C 58.18083572387695 68.1839599609375 213.29226684570312 104.97779083251953 140.7423095703125 100.437744140625" stroke-width="2" fill="none" stroke="rgb(0, 0, 0)" stroke-opacity="1.0" stroke-linecap="round" stroke-linejoin="round"/>
    <path d="M 121.39773559570312 118.90583038330078 C 138.8176727294922 86.86506652832031 115.52961730957031 146.1155548095703 108.54964447021484 106.67493438720703" stroke-width="2" fill="none" stroke="rgb(0, 0, 0)" stroke-opacity="1.0" stroke-linecap="round" stroke-linejoin="round"/>
    <path d="M 126.90068817138672 125.35555267333984 C 113.67668151855469 157.31710815429688 92.36963653564453 121.96173858642578 106.8265151977539 134.5283966064453" stroke-width="2" fill="none" stroke="rgb(0, 0, 0)" stroke-opacity="1.0" stroke-linecap="round" stroke-linejoin="round"/>
    <path d="M 156.1903533935547 150.407958984375 C 158.22569274902344 159.1466064453125 196.62159729003906 152.57131958007812 113.2610855102539 126.97827911376953" stroke-width="2" fill="none" stroke="rgb(0, 0, 0)" stroke-opacity="1.0" stroke-linecap="round" stroke-linejoin="round"/>
    <path d="M 113.26284790039062 125.05863952636719 C 141.43504333496094 135.26075744628906 215.47625732421875 131.2225799560547 98.55091857910156 68.87866973876953" stroke-width="2" fill="none" stroke="rgb(0, 0, 0)" stroke-opacity="1.0" stroke-linecap="round" stroke-linejoin="round"/>
    <path d="M 102.16554260253906 70.8388442993164 C 92.87567138671875 111.33756256103516 205.8131866455078 81.63139343261719 131.01275634765625 88.24699401855469" stroke-width="2" fill="none" stroke="rgb(0, 0, 0)" stroke-opacity="1.0" stroke-linecap="round" stroke-linejoin="round"/>
    <path d="M 44.942501068115234 137.76324462890625 C 32.730194091796875 162.11178588867188 177.2837677001953 134.94427490234375 161.3534393310547 154.17572021484375" stroke-width="2" fill="none" stroke="rgb(0, 0, 0)" stroke-opacity="1.0" stroke-linecap="round" stroke-linejoin="round"/>
    <path d="M 153.668701171875 133.2189483642578 C 179.54910278320312 127.08515930175781 67.35630798339844 133.31065368652344 129.42164611816406 113.71701049804688" stroke-width="2" fill="none" stroke="rgb(0, 0, 0)" stroke-opacity="1.0" stroke-linecap="round" stroke-linejoin="round"/>
    <path d="M 121.4100112915039 109.60755920410156 C 61.08754348754883 117.26333618164062 153.17152404785156 114.28710174560547 115.21540069580078 112.04814910888672" stroke-width="2" fill="none" stroke="rgb(0, 0, 0)" stroke-opacity="1.0" stroke-linecap="round" stroke-linejoin="round"/>
    <path d="M 181.36041259765625 64.6747055053711 C 111.03015899658203 129.44300842285156 196.44374084472656 52.79560852050781 162.05255126953125 98.92418670654297" stroke-width="2" fill="none" stroke="rgb(0, 0, 0)" stroke-opacity="1.0" stroke-linecap="round" stroke-linejoin="round"/>
    <path d="M 131.55235290527344 147.9879150390625 C 182.5764617919922 164.06234741210938 114.20930480957031 160.37034606933594 147.98675537109375 157.872802734375" stroke-width="2" fill="none" stroke="rgb(0, 0, 0)" stroke-opacity="1.0" stroke-linecap="round" stroke-linejoin="round"/>
    <path d="M 91.9482192993164 137.75950622558594 C 240.92245483398438 144.88577270507812 78.94861602783203 166.3202667236328 65.59793853759766 126.88156127929688" stroke-width="2" fill="none" stroke="rgb(0, 0, 0)" stroke-opacity="1.0" stroke-linecap="round" stroke-linejoin="round"/>
    <path d="M 155.90194702148438 88.90428161621094 C 113.89089965820312 86.70220184326172 166.12074279785156 130.550048828125 102.2659912109375 75.70691680908203" stroke-width="2" fill="none" stroke="rgb(0, 0, 0)" stroke-opacity="1.0" stroke-linecap="round" stroke-linejoin="round"/>
    <path d="M 157.84568786621094 119.12471771240234 C 194.53981018066406 81.91207122802734 177.8202362060547 56.11636734008789 185.69857788085938 64.93634033203125" stroke-width="2" fill="none" stroke="rgb(0, 0, 0)" stroke-opacity="1.0" stroke-linecap="round" stroke-linejoin="round"/>
    <path d="M 103.2208480834961 82.25645446777344 C 130.30633544921875 136.36412048339844 51.447635650634766 68.82286834716797 52.215511322021484 124.58638763427734" stroke-width="2" fill="none" stroke="rgb(0, 0, 0)" stroke-opacity="1.0" stroke-linecap="round" stroke-linejoin="round"/>
    <path d="M 80.30225372314453 97.1273422241211 C 62.64064407348633 92.38349914550781 18.64955711364746 145.69700622558594 50.83073425292969 145.14491271972656" stroke-width="2" fill="none" stroke="rgb(0, 0, 0)" stroke-opacity="1.0" stroke-linecap="round" stroke-linejoin="round"/>
  </g>
</svg>
