<?xml version="1.0" ?>
<svg xmlns="http://www.w3.org/2000/svg" version="1.1" width="224" height="224">
  <defs/>
  <g>
    <path d="M 119.7863998413086 76.23990631103516 C 31.526891708374023 44.57401657104492 213.06663513183594 104.6713638305664 157.1314239501953 93.62516021728516" stroke-width="2" fill="none" stroke="rgb(0, 0, 0)" stroke-opacity="1.0" stroke-linecap="round" stroke-linejoin="round"/>
    <path d="M 103.421875 75.78186798095703 C 171.5164031982422 126.15596771240234 53.205074310302734 18.87920570373535 113.08135223388672 102.66943359375" stroke-width="2" fill="none" stroke="rgb(0, 0, 0)" stroke-opacity="1.0" stroke-linecap="round" stroke-linejoin="round"/>
    <path d="M 141.47677612304688 98.4339599609375 C 109.8705825805664 92.23735046386719 200.1620330810547 137.2945556640625 121.60318756103516 109.47647094726562" stroke-width="2" fill="none" stroke="rgb(0, 0, 0)" stroke-opacity="1.0" stroke-linecap="round" stroke-linejoin="round"/>
    <path d="M 115.5408706665039 135.24461364746094 C 107.32787322998047 148.5565948486328 253.29415893554688 165.2465057373047 122.8313217163086 143.85299682617188" stroke-width="2" fill="none" stroke="rgb(0, 0, 0)" stroke-opacity="1.0" stroke-linecap="round" stroke-linejoin="round"/>
    <path d="M 148.54251098632812 108.71610260009766 C 152.88504028320312 164.79579162597656 215.470458984375 17.272279739379883 167.1467742919922 78.4630355834961" stroke-width="2" fill="none" stroke="rgb(0, 0, 0)" stroke-opacity="1.0" stroke-linecap="round" stroke-linejoin="round"/>
    <path d="M 181.46731567382812 135.09759521484375 C 224.63345336914062 151.97113037109375 18.19986343383789 93.54071044921875 166.6851043701172 79.03855895996094" stroke-width="2" fill="none" stroke="rgb(0, 0, 0)" stroke-opacity="1.0" stroke-linecap="round" stroke-linejoin="round"/>
    <path d="M 105.95654296875 123.86064147949219 C 94.9582748413086 101.6129150390625 91.1762924194336 136.47593688964844 93.59078979492188 112.37297058105469" stroke-width="2" fill="none" stroke="rgb(0, 0, 0)" stroke-opacity="1.0" stroke-linecap="round" stroke-linejoin="round"/>
    <path d="M 165.6839599609375 142.2325439453125 C 205.5641326904297 145.58160400390625 124.33148193359375 133.41409301757812 142.90638732910156 145.65708923339844" stroke-width="2" fill="none" stroke="rgb(0, 0, 0)" stroke-opacity="1.0" stroke-linecap="round" stroke-linejoin="round"/>
    <path d="M 69.09436798095703 135.1196746826172 C 98.08978271484375 178.19818115234375 205.21800231933594 137.7499237060547 181.8436279296875 153.64418029785156" stroke-width="2" fill="none" stroke="rgb(0, 0, 0)" stroke-opacity="1.0" stroke-linecap="round" stroke-linejoin="round"/>
    <path d="M 168.0074005126953 95.95219421386719 C 130.62330627441406 87.34904479980469 183.08349609375 122.65143585205078 121.62792205810547 116.01548767089844" stroke-width="2" fill="none" stroke="rgb(0, 0, 0)" stroke-opacity="1.0" stroke-linecap="round" stroke-linejoin="round"/>
    <path d="M 166.61135864257812 102.77102661132812 C 59.106048583984375 133.68789672851562 155.3837890625 85.68631744384766 150.7696075439453 121.43025207519531" stroke-width="2" fill="none" stroke="rgb(0, 0, 0)" stroke-opacity="1.0" stroke-linecap="round" stroke-linejoin="round"/>
    <path d="M 124.38722229003906 129.63438415527344 C 98.16419982910156 115.929443359375 198.35914611816406 146.67593383789062 109.91148376464844 116.81401824951172" stroke-width="2" fill="none" stroke="rgb(0, 0, 0)" stroke-opacity="1.0" stroke-linecap="round" stroke-linejoin="round"/>
    <path d="M 101.13386535644531 80.55284118652344 C 94.63849639892578 113.21047973632812 148.99342346191406 80.11625671386719 108.14444732666016 109.06481170654297" stroke-width="2" fill="none" stroke="rgb(0, 0, 0)" stroke-opacity="1.0" stroke-linecap="round" stroke-linejoin="round"/>
    <path d="M 156.7932891845703 90.86992645263672 C 155.8885498046875 130.46617126464844 214.94895935058594 31.063989639282227 159.55715942382812 100.21858978271484" stroke-width="2" fill="none" stroke="rgb(0, 0, 0)" stroke-opacity="1.0" stroke-linecap="round" stroke-linejoin="round"/>
    <path d="M 120.82596588134766 119.0682373046875 C 189.01275634765625 139.89419555664062 49.700870513916016 54.39426803588867 51.05939865112305 120.65714263916016" stroke-width="2" fill="none" stroke="rgb(0, 0, 0)" stroke-opacity="1.0" stroke-linecap="round" stroke-linejoin="round"/>
    <path d="M 49.92987060546875 106.95353698730469 C 104.80489349365234 75.37271881103516 -65.30298614501953 169.91998291015625 156.70834350585938 147.46543884277344" stroke-width="2" fill="none" stroke="rgb(0, 0, 0)" stroke-opacity="1.0" stroke-linecap="round" stroke-linejoin="round"/>
  </g>
</svg>
