<?xml version="1.0" ?>
<svg xmlns="http://www.w3.org/2000/svg" version="1.1" width="224" height="224">
  <defs/>
  <g>
    <path d="M 143.91561889648438 116.21446990966797 C 4.425191402435303 71.64981079101562 250.34669494628906 81.16252136230469 161.142578125 94.43383026123047" stroke-width="2" fill="none" stroke="rgb(0, 0, 0)" stroke-opacity="1.0" stroke-linecap="round" stroke-linejoin="round"/>
    <path d="M 128.26492309570312 107.33738708496094 C 186.84461975097656 113.85397338867188 114.84855651855469 96.90504455566406 142.58619689941406 100.53571319580078" stroke-width="2" fill="none" stroke="rgb(0, 0, 0)" stroke-opacity="1.0" stroke-linecap="round" stroke-linejoin="round"/>
    <path d="M 130.62896728515625 108.93321228027344 C 241.43179321289062 123.5137939453125 79.33556365966797 129.0767822265625 124.48114776611328 137.65280151367188" stroke-width="2" fill="none" stroke="rgb(0, 0, 0)" stroke-opacity="1.0" stroke-linecap="round" stroke-linejoin="round"/>
    <path d="M 136.0768585205078 127.58306884765625 C 123.8792953491211 144.6239471435547 187.52513122558594 132.78512573242188 169.96414184570312 153.22198486328125" stroke-width="2" fill="none" stroke="rgb(0, 0, 0)" stroke-opacity="1.0" stroke-linecap="round" stroke-linejoin="round"/>
    <path d="M 115.37078094482422 107.19770812988281 C 166.970947265625 174.36141967773438 221.15692138671875 35.381893157958984 171.80020141601562 84.27909088134766" stroke-width="2" fill="none" stroke="rgb(0, 0, 0)" stroke-opacity="1.0" stroke-linecap="round" stroke-linejoin="round"/>
    <path d="M 93.96855163574219 71.41575622558594 C 112.65678405761719 133.0255889892578 138.8225860595703 50.491764068603516 160.07850646972656 89.0126953125" stroke-width="2" fill="none" stroke="rgb(0, 0, 0)" stroke-opacity="1.0" stroke-linecap="round" stroke-linejoin="round"/>
    <path d="M 51.45793151855469 138.47689819335938 C 46.90095901489258 164.4523468017578 196.7492218017578 139.5183563232422 159.59893798828125 150.6547393798828" stroke-width="2" fill="none" stroke="rgb(0, 0, 0)" stroke-opacity="1.0" stroke-linecap="round" stroke-linejoin="round"/>
    <path d="M 80.8175048828125 131.4437713623047 C 332.9955749511719 120.04226684570312 11.406651496887207 127.95232391357422 151.68299865722656 103.272705078125" stroke-width="2" fill="none" stroke="rgb(0, 0, 0)" stroke-opacity="1.0" stroke-linecap="round" stroke-linejoin="round"/>
    <path d="M 147.01271057128906 124.7319564819336 C -20.487285614013672 173.2944793701172 134.71035766601562 141.61080932617188 86.0964584350586 129.71519470214844" stroke-width="2" fill="none" stroke="rgb(0, 0, 0)" stroke-opacity="1.0" stroke-linecap="round" stroke-linejoin="round"/>
    <path d="M 164.4022674560547 94.41900634765625 C 157.87094116210938 118.81148529052734 209.3147735595703 46.477638244628906 182.4720458984375 97.986328125" stroke-width="2" fill="none" stroke="rgb(0, 0, 0)" stroke-opacity="1.0" stroke-linecap="round" stroke-linejoin="round"/>
    <path d="M 154.034912109375 147.0007781982422 C 145.97308349609375 156.56585693359375 194.0983123779297 149.58338928222656 173.43405151367188 142.4970703125" stroke-width="2" fill="none" stroke="rgb(0, 0, 0)" stroke-opacity="1.0" stroke-linecap="round" stroke-linejoin="round"/>
    <path d="M 179.87498474121094 110.55809020996094 C 176.34332275390625 102.11177825927734 189.22084045410156 94.73582458496094 183.09011840820312 99.45439910888672" stroke-width="2" fill="none" stroke="rgb(0, 0, 0)" stroke-opacity="1.0" stroke-linecap="round" stroke-linejoin="round"/>
    <path d="M 122.64386749267578 97.51248931884766 C 128.3733673095703 61.20392608642578 176.7693328857422 107.82514190673828 99.22383117675781 71.21990966796875" stroke-width="2" fill="none" stroke="rgb(0, 0, 0)" stroke-opacity="1.0" stroke-linecap="round" stroke-linejoin="round"/>
    <path d="M 161.6624298095703 99.54129028320312 C 173.58328247070312 113.51910400390625 228.7076416015625 22.894336700439453 157.96778869628906 83.86268615722656" stroke-width="2" fill="none" stroke="rgb(0, 0, 0)" stroke-opacity="1.0" stroke-linecap="round" stroke-linejoin="round"/>
    <path d="M 97.07621765136719 80.8154296875 C 158.9674072265625 120.76104736328125 54.70892333984375 81.45834350585938 53.45913314819336 114.83954620361328" stroke-width="2" fill="none" stroke="rgb(0, 0, 0)" stroke-opacity="1.0" stroke-linecap="round" stroke-linejoin="round"/>
    <path d="M 39.38814926147461 115.62679290771484 C 77.6012954711914 88.32313537597656 -20.045305252075195 154.69993591308594 91.9618148803711 147.78713989257812" stroke-width="2" fill="none" stroke="rgb(0, 0, 0)" stroke-opacity="1.0" stroke-linecap="round" stroke-linejoin="round"/>
  </g>
</svg>
