<?xml version="1.0" ?>
<svg xmlns="http://www.w3.org/2000/svg" version="1.1" width="224" height="224">
  <defs/>
  <g>
    <path d="M 97.58869934082031 88.3001480102539 C 23.229387283325195 108.09813690185547 109.164794921875 105.55236053466797 76.02381134033203 110.24923706054688" stroke-width="2" fill="none" stroke="rgb(0, 0, 0)" stroke-opacity="1.0" stroke-linecap="round" stroke-linejoin="round"/>
    <path d="M 100.69718170166016 141.3906707763672 C 147.146240234375 105.2234115600586 116.07475280761719 156.47898864746094 94.13644409179688 144.383056640625" stroke-width="2" fill="none" stroke="rgb(0, 0, 0)" stroke-opacity="1.0" stroke-linecap="round" stroke-linejoin="round"/>
    <path d="M 158.12850952148438 122.46942901611328 C 90.3204116821289 129.19918823242188 51.302001953125 108.85514068603516 88.07845306396484 129.6123046875" stroke-width="2" fill="none" stroke="rgb(0, 0, 0)" stroke-opacity="1.0" stroke-linecap="round" stroke-linejoin="round"/>
    <path d="M 162.58206176757812 140.82627868652344 C 167.4068603515625 161.55067443847656 198.2931365966797 128.030517578125 121.37074279785156 131.00709533691406" stroke-width="2" fill="none" stroke="rgb(0, 0, 0)" stroke-opacity="1.0" stroke-linecap="round" stroke-linejoin="round"/>
    <path d="M 100.66178131103516 126.29479217529297 C 129.545654296875 99.3934555053711 159.88307189941406 113.24787139892578 102.5202407836914 61.15059280395508" stroke-width="2" fill="none" stroke="rgb(0, 0, 0)" stroke-opacity="1.0" stroke-linecap="round" stroke-linejoin="round"/>
    <path d="M 102.32569885253906 62.22045135498047 C 91.90483093261719 78.28023529052734 118.56807708740234 105.95636749267578 99.24246215820312 91.50891876220703" stroke-width="2" fill="none" stroke="rgb(0, 0, 0)" stroke-opacity="1.0" stroke-linecap="round" stroke-linejoin="round"/>
    <path d="M 33.99598693847656 141.88235473632812 C 43.990478515625 167.7602081298828 204.3412322998047 144.18641662597656 139.0233154296875 148.6165008544922" stroke-width="2" fill="none" stroke="rgb(0, 0, 0)" stroke-opacity="1.0" stroke-linecap="round" stroke-linejoin="round"/>
    <path d="M 165.39967346191406 142.24659729003906 C 155.76885986328125 119.78243255615234 87.74015045166016 165.29727172851562 109.34930419921875 110.32816314697266" stroke-width="2" fill="none" stroke="rgb(0, 0, 0)" stroke-opacity="1.0" stroke-linecap="round" stroke-linejoin="round"/>
    <path d="M 78.58032989501953 123.41487121582031 C 97.62969970703125 107.04176330566406 90.61997985839844 140.53668212890625 77.85664367675781 115.86054992675781" stroke-width="2" fill="none" stroke="rgb(0, 0, 0)" stroke-opacity="1.0" stroke-linecap="round" stroke-linejoin="round"/>
    <path d="M 178.0059356689453 80.97374725341797 C 159.73060607910156 27.10297203063965 196.7228240966797 126.11348724365234 119.75871276855469 105.44477081298828" stroke-width="2" fill="none" stroke="rgb(0, 0, 0)" stroke-opacity="1.0" stroke-linecap="round" stroke-linejoin="round"/>
    <path d="M 153.34730529785156 152.1518096923828 C 168.5061492919922 139.45040893554688 120.97452545166016 136.03289794921875 168.1296844482422 140.6138916015625" stroke-width="2" fill="none" stroke="rgb(0, 0, 0)" stroke-opacity="1.0" stroke-linecap="round" stroke-linejoin="round"/>
    <path d="M 61.560543060302734 136.59999084472656 C 115.4026870727539 170.3396759033203 61.14337158203125 131.4127197265625 89.262939453125 141.7527618408203" stroke-width="2" fill="none" stroke="rgb(0, 0, 0)" stroke-opacity="1.0" stroke-linecap="round" stroke-linejoin="round"/>
    <path d="M 115.1832504272461 101.40869140625 C 136.32302856445312 65.17325592041016 103.07738494873047 114.34147644042969 102.20803833007812 66.79782104492188" stroke-width="2" fill="none" stroke="rgb(0, 0, 0)" stroke-opacity="1.0" stroke-linecap="round" stroke-linejoin="round"/>
    <path d="M 147.10012817382812 105.57139587402344 C 188.69456481933594 66.86978149414062 166.5 75.25884246826172 177.18508911132812 62.75244140625" stroke-width="2" fill="none" stroke="rgb(0, 0, 0)" stroke-opacity="1.0" stroke-linecap="round" stroke-linejoin="round"/>
    <path d="M 85.19659423828125 110.0222396850586 C 67.64250183105469 122.79087829589844 73.14933776855469 72.7303237915039 37.53118896484375 123.19115447998047" stroke-width="2" fill="none" stroke="rgb(0, 0, 0)" stroke-opacity="1.0" stroke-linecap="round" stroke-linejoin="round"/>
    <path d="M 52.949920654296875 125.4072265625 C 59.02366256713867 103.19345092773438 23.700084686279297 119.30379486083984 34.41189193725586 141.5384521484375" stroke-width="2" fill="none" stroke="rgb(0, 0, 0)" stroke-opacity="1.0" stroke-linecap="round" stroke-linejoin="round"/>
  </g>
</svg>
