<?xml version="1.0" ?>
<svg xmlns="http://www.w3.org/2000/svg" version="1.1" width="224" height="224">
  <defs/>
  <g>
    <path d="M 86.81367492675781 102.36597442626953 C 34.85914993286133 93.9119873046875 150.5906524658203 105.35519409179688 113.64300537109375 99.12250518798828" stroke-width="2" fill="none" stroke="rgb(0, 0, 0)" stroke-opacity="1.0" stroke-linecap="round" stroke-linejoin="round"/>
    <path d="M 96.13255310058594 137.50137329101562 C 153.9496307373047 101.61943817138672 124.39317321777344 148.90097045898438 108.12641143798828 119.03916931152344" stroke-width="2" fill="none" stroke="rgb(0, 0, 0)" stroke-opacity="1.0" stroke-linecap="round" stroke-linejoin="round"/>
    <path d="M 160.52645874023438 130.5494384765625 C 76.86433410644531 142.16134643554688 52.287261962890625 119.16942596435547 83.71871948242188 136.3498077392578" stroke-width="2" fill="none" stroke="rgb(0, 0, 0)" stroke-opacity="1.0" stroke-linecap="round" stroke-linejoin="round"/>
    <path d="M 177.9434356689453 151.9593963623047 C 181.98751831054688 141.99778747558594 200.55262756347656 145.1634979248047 110.75719451904297 129.92758178710938" stroke-width="2" fill="none" stroke="rgb(0, 0, 0)" stroke-opacity="1.0" stroke-linecap="round" stroke-linejoin="round"/>
    <path d="M 113.06658935546875 129.49378967285156 C 126.31216430664062 107.12866973876953 160.5795135498047 128.34751892089844 103.57950592041016 62.33610534667969" stroke-width="2" fill="none" stroke="rgb(0, 0, 0)" stroke-opacity="1.0" stroke-linecap="round" stroke-linejoin="round"/>
    <path d="M 102.9505386352539 63.530006408691406 C 83.6626205444336 127.35447692871094 158.9713134765625 95.17755889892578 116.00733184814453 91.53168487548828" stroke-width="2" fill="none" stroke="rgb(0, 0, 0)" stroke-opacity="1.0" stroke-linecap="round" stroke-linejoin="round"/>
    <path d="M 37.22814178466797 133.95730590820312 C 53.39421844482422 181.29147338867188 198.05349731445312 136.51052856445312 130.20738220214844 147.68783569335938" stroke-width="2" fill="none" stroke="rgb(0, 0, 0)" stroke-opacity="1.0" stroke-linecap="round" stroke-linejoin="round"/>
    <path d="M 168.9685821533203 151.68263244628906 C 145.96084594726562 115.63619232177734 82.12394714355469 167.2494659423828 118.56664276123047 120.5589370727539" stroke-width="2" fill="none" stroke="rgb(0, 0, 0)" stroke-opacity="1.0" stroke-linecap="round" stroke-linejoin="round"/>
    <path d="M 89.98885345458984 134.5885467529297 C 62.00905990600586 109.93966674804688 104.7592544555664 128.87753295898438 80.96503448486328 123.23442840576172" stroke-width="2" fill="none" stroke="rgb(0, 0, 0)" stroke-opacity="1.0" stroke-linecap="round" stroke-linejoin="round"/>
    <path d="M 161.98081970214844 98.11463165283203 C 132.5708465576172 55.52294158935547 185.63116455078125 127.13011932373047 125.9963150024414 109.11598205566406" stroke-width="2" fill="none" stroke="rgb(0, 0, 0)" stroke-opacity="1.0" stroke-linecap="round" stroke-linejoin="round"/>
    <path d="M 132.38693237304688 146.56663513183594 C 166.875732421875 136.30105590820312 121.04408264160156 151.8727569580078 182.2733154296875 149.22767639160156" stroke-width="2" fill="none" stroke="rgb(0, 0, 0)" stroke-opacity="1.0" stroke-linecap="round" stroke-linejoin="round"/>
    <path d="M 72.98896789550781 145.4808349609375 C 137.87451171875 161.04525756835938 63.923118591308594 143.1057586669922 76.47132873535156 145.5159912109375" stroke-width="2" fill="none" stroke="rgb(0, 0, 0)" stroke-opacity="1.0" stroke-linecap="round" stroke-linejoin="round"/>
    <path d="M 121.46411895751953 112.18180084228516 C 130.8424835205078 80.46285247802734 108.53919982910156 140.41934204101562 100.30287170410156 72.55033874511719" stroke-width="2" fill="none" stroke="rgb(0, 0, 0)" stroke-opacity="1.0" stroke-linecap="round" stroke-linejoin="round"/>
    <path d="M 158.20326232910156 129.7322998046875 C 185.99720764160156 57.36865997314453 159.6396026611328 96.31351470947266 178.07704162597656 67.17889404296875" stroke-width="2" fill="none" stroke="rgb(0, 0, 0)" stroke-opacity="1.0" stroke-linecap="round" stroke-linejoin="round"/>
    <path d="M 93.21649932861328 104.2550048828125 C 100.59030151367188 139.35816955566406 79.95600128173828 60.3973388671875 37.42148971557617 123.22352600097656" stroke-width="2" fill="none" stroke="rgb(0, 0, 0)" stroke-opacity="1.0" stroke-linecap="round" stroke-linejoin="round"/>
    <path d="M 58.98764419555664 121.16931915283203 C 59.37793731689453 104.32317352294922 32.2346305847168 109.83904266357422 36.62148666381836 142.26409912109375" stroke-width="2" fill="none" stroke="rgb(0, 0, 0)" stroke-opacity="1.0" stroke-linecap="round" stroke-linejoin="round"/>
  </g>
</svg>
