<?xml version="1.0" ?>
<svg xmlns="http://www.w3.org/2000/svg" version="1.1" width="224" height="224">
  <defs/>
  <g>
    <path d="M 159.60826110839844 108.89397430419922 C 24.272537231445312 79.29629516601562 236.36456298828125 80.93450927734375 164.87783813476562 84.12014770507812" stroke-width="2" fill="none" stroke="rgb(0, 0, 0)" stroke-opacity="1.0" stroke-linecap="round" stroke-linejoin="round"/>
    <path d="M 128.3665771484375 103.4154052734375 C 208.17294311523438 103.45144653320312 110.29954528808594 88.61862182617188 148.78558349609375 99.03790283203125" stroke-width="2" fill="none" stroke="rgb(0, 0, 0)" stroke-opacity="1.0" stroke-linecap="round" stroke-linejoin="round"/>
    <path d="M 109.05705261230469 127.40438079833984 C 220.96253967285156 149.67864990234375 83.11874389648438 116.25211334228516 118.2054214477539 128.0913543701172" stroke-width="2" fill="none" stroke="rgb(0, 0, 0)" stroke-opacity="1.0" stroke-linecap="round" stroke-linejoin="round"/>
    <path d="M 135.5379638671875 144.30813598632812 C 156.32040405273438 154.06727600097656 179.37120056152344 133.08071899414062 183.93365478515625 152.9271697998047" stroke-width="2" fill="none" stroke="rgb(0, 0, 0)" stroke-opacity="1.0" stroke-linecap="round" stroke-linejoin="round"/>
    <path d="M 127.89480590820312 102.1551513671875 C 170.14700317382812 176.84043884277344 219.9462127685547 5.94829797744751 177.4445343017578 80.1221923828125" stroke-width="2" fill="none" stroke="rgb(0, 0, 0)" stroke-opacity="1.0" stroke-linecap="round" stroke-linejoin="round"/>
    <path d="M 100.98583221435547 69.94935607910156 C 106.97650909423828 107.38382720947266 107.39661407470703 80.98165130615234 166.52223205566406 83.19561004638672" stroke-width="2" fill="none" stroke="rgb(0, 0, 0)" stroke-opacity="1.0" stroke-linecap="round" stroke-linejoin="round"/>
    <path d="M 48.01389694213867 135.72056579589844 C 29.779956817626953 162.1081085205078 210.10511779785156 148.96444702148438 180.39466857910156 153.90403747558594" stroke-width="2" fill="none" stroke="rgb(0, 0, 0)" stroke-opacity="1.0" stroke-linecap="round" stroke-linejoin="round"/>
    <path d="M 88.7462158203125 119.60161590576172 C 332.79766845703125 121.35791015625 42.848079681396484 124.90360260009766 150.930419921875 100.25330352783203" stroke-width="2" fill="none" stroke="rgb(0, 0, 0)" stroke-opacity="1.0" stroke-linecap="round" stroke-linejoin="round"/>
    <path d="M 162.31480407714844 113.05789947509766 C -56.703216552734375 168.3415069580078 158.16383361816406 130.3681640625 111.89911651611328 109.69161224365234" stroke-width="2" fill="none" stroke="rgb(0, 0, 0)" stroke-opacity="1.0" stroke-linecap="round" stroke-linejoin="round"/>
    <path d="M 163.89715576171875 85.11626434326172 C 157.70394897460938 117.44898223876953 197.26885986328125 43.67768478393555 178.5756072998047 95.58714294433594" stroke-width="2" fill="none" stroke="rgb(0, 0, 0)" stroke-opacity="1.0" stroke-linecap="round" stroke-linejoin="round"/>
    <path d="M 181.60882568359375 149.5770263671875 C 149.00592041015625 158.3113250732422 205.41529846191406 153.60569763183594 183.0185089111328 143.77450561523438" stroke-width="2" fill="none" stroke="rgb(0, 0, 0)" stroke-opacity="1.0" stroke-linecap="round" stroke-linejoin="round"/>
    <path d="M 200.5778350830078 128.3335418701172 C 258.9837341308594 115.11090850830078 179.89208984375 131.0222625732422 175.7462158203125 120.08509826660156" stroke-width="2" fill="none" stroke="rgb(0, 0, 0)" stroke-opacity="1.0" stroke-linecap="round" stroke-linejoin="round"/>
    <path d="M 125.75285339355469 84.64872741699219 C 107.01422882080078 87.37483215332031 179.90972900390625 94.86582946777344 98.40791320800781 70.25224304199219" stroke-width="2" fill="none" stroke="rgb(0, 0, 0)" stroke-opacity="1.0" stroke-linecap="round" stroke-linejoin="round"/>
    <path d="M 157.88809204101562 82.87928771972656 C 173.1483917236328 110.01397705078125 230.97219848632812 14.635584831237793 159.57989501953125 83.07634735107422" stroke-width="2" fill="none" stroke="rgb(0, 0, 0)" stroke-opacity="1.0" stroke-linecap="round" stroke-linejoin="round"/>
    <path d="M 99.64127349853516 68.94114685058594 C 168.21946716308594 124.14790344238281 49.620361328125 66.94456481933594 50.36112976074219 123.38648223876953" stroke-width="2" fill="none" stroke="rgb(0, 0, 0)" stroke-opacity="1.0" stroke-linecap="round" stroke-linejoin="round"/>
    <path d="M 36.83151626586914 114.92180633544922 C 89.42352294921875 100.99674224853516 -25.55997085571289 156.32347106933594 104.69233703613281 143.77285766601562" stroke-width="2" fill="none" stroke="rgb(0, 0, 0)" stroke-opacity="1.0" stroke-linecap="round" stroke-linejoin="round"/>
  </g>
</svg>
