<?xml version="1.0" ?>
<svg xmlns="http://www.w3.org/2000/svg" version="1.1" width="224" height="224">
  <defs/>
  <g>
    <path d="M 155.73394775390625 89.73321533203125 C 121.05642700195312 60.410831451416016 185.87010192871094 101.6999282836914 149.3004913330078 93.3486328125" stroke-width="2" fill="none" stroke="rgb(0, 0, 0)" stroke-opacity="1.0" stroke-linecap="round" stroke-linejoin="round"/>
    <path d="M 101.75106048583984 72.03267669677734 C 156.5622100830078 137.84197998046875 46.13555145263672 34.14590072631836 128.5327911376953 82.04193878173828" stroke-width="2" fill="none" stroke="rgb(0, 0, 0)" stroke-opacity="1.0" stroke-linecap="round" stroke-linejoin="round"/>
    <path d="M 171.9420928955078 80.61251068115234 C 127.55509948730469 96.81468963623047 182.7852020263672 121.57901000976562 114.64112854003906 109.22196960449219" stroke-width="2" fill="none" stroke="rgb(0, 0, 0)" stroke-opacity="1.0" stroke-linecap="round" stroke-linejoin="round"/>
    <path d="M 132.69467163085938 121.42184448242188 C 83.54647064208984 113.31814575195312 210.29840087890625 131.623779296875 172.0226593017578 153.83445739746094" stroke-width="2" fill="none" stroke="rgb(0, 0, 0)" stroke-opacity="1.0" stroke-linecap="round" stroke-linejoin="round"/>
    <path d="M 131.62478637695312 109.33075714111328 C 141.37245178222656 170.46707153320312 220.5545196533203 9.269145965576172 159.3808135986328 80.96974182128906" stroke-width="2" fill="none" stroke="rgb(0, 0, 0)" stroke-opacity="1.0" stroke-linecap="round" stroke-linejoin="round"/>
    <path d="M 178.435302734375 136.56161499023438 C 222.78590393066406 153.05828857421875 25.87216567993164 90.53052520751953 160.15274047851562 80.90225982666016" stroke-width="2" fill="none" stroke="rgb(0, 0, 0)" stroke-opacity="1.0" stroke-linecap="round" stroke-linejoin="round"/>
    <path d="M 105.70506286621094 131.99884033203125 C 79.81554412841797 126.32119750976562 92.24288940429688 144.68350219726562 106.68485260009766 121.7527084350586" stroke-width="2" fill="none" stroke="rgb(0, 0, 0)" stroke-opacity="1.0" stroke-linecap="round" stroke-linejoin="round"/>
    <path d="M 180.3249053955078 151.47735595703125 C 201.77987670898438 135.62332153320312 75.63140869140625 148.7959442138672 105.59297943115234 140.45294189453125" stroke-width="2" fill="none" stroke="rgb(0, 0, 0)" stroke-opacity="1.0" stroke-linecap="round" stroke-linejoin="round"/>
    <path d="M 66.8064956665039 131.77992248535156 C 71.2235336303711 153.3609161376953 202.97901916503906 160.89149475097656 154.35311889648438 145.23780822753906" stroke-width="2" fill="none" stroke="rgb(0, 0, 0)" stroke-opacity="1.0" stroke-linecap="round" stroke-linejoin="round"/>
    <path d="M 171.88294982910156 88.38961791992188 C 134.00624084472656 95.28546142578125 215.06192016601562 79.73915100097656 135.80215454101562 111.54660034179688" stroke-width="2" fill="none" stroke="rgb(0, 0, 0)" stroke-opacity="1.0" stroke-linecap="round" stroke-linejoin="round"/>
    <path d="M 157.59814453125 109.8143081665039 C 126.23405456542969 110.37361907958984 152.57437133789062 101.1978759765625 144.91049194335938 123.90489959716797" stroke-width="2" fill="none" stroke="rgb(0, 0, 0)" stroke-opacity="1.0" stroke-linecap="round" stroke-linejoin="round"/>
    <path d="M 141.28317260742188 98.48749542236328 C 110.94031524658203 95.63138580322266 176.8545684814453 114.42748260498047 131.31422424316406 103.30633544921875" stroke-width="2" fill="none" stroke="rgb(0, 0, 0)" stroke-opacity="1.0" stroke-linecap="round" stroke-linejoin="round"/>
    <path d="M 101.03691101074219 76.91038513183594 C 96.53237915039062 127.00301361083984 150.83413696289062 85.70354461669922 101.95893096923828 105.294189453125" stroke-width="2" fill="none" stroke="rgb(0, 0, 0)" stroke-opacity="1.0" stroke-linecap="round" stroke-linejoin="round"/>
    <path d="M 160.7235565185547 97.89850616455078 C 122.94487762451172 105.38652038574219 214.44261169433594 73.8211898803711 153.59788513183594 101.6068115234375" stroke-width="2" fill="none" stroke="rgb(0, 0, 0)" stroke-opacity="1.0" stroke-linecap="round" stroke-linejoin="round"/>
    <path d="M 139.03692626953125 99.71087646484375 C 167.4947052001953 149.8604736328125 59.298458099365234 50.25322723388672 50.6770133972168 121.09302520751953" stroke-width="2" fill="none" stroke="rgb(0, 0, 0)" stroke-opacity="1.0" stroke-linecap="round" stroke-linejoin="round"/>
    <path d="M 41.82297134399414 122.84632110595703 C 101.56661224365234 72.30403137207031 -48.80671310424805 162.2421417236328 145.09356689453125 152.2789306640625" stroke-width="2" fill="none" stroke="rgb(0, 0, 0)" stroke-opacity="1.0" stroke-linecap="round" stroke-linejoin="round"/>
  </g>
</svg>
