<?xml version="1.0" ?>
<svg xmlns="http://www.w3.org/2000/svg" version="1.1" width="224" height="224">
  <defs/>
  <g>
    <path d="M 147.7960968017578 112.44124603271484 C 4.28987979888916 65.51185607910156 243.80035400390625 91.11346435546875 162.02403259277344 93.0805892944336" stroke-width="2" fill="none" stroke="rgb(0, 0, 0)" stroke-opacity="1.0" stroke-linecap="round" stroke-linejoin="round"/>
    <path d="M 131.223388671875 107.07929992675781 C 194.17807006835938 107.3892822265625 98.61494445800781 98.35441589355469 145.8719024658203 100.1106185913086" stroke-width="2" fill="none" stroke="rgb(0, 0, 0)" stroke-opacity="1.0" stroke-linecap="round" stroke-linejoin="round"/>
    <path d="M 130.92694091796875 108.71784973144531 C 260.73095703125 116.51679229736328 57.071861267089844 123.6675796508789 119.08308410644531 139.040283203125" stroke-width="2" fill="none" stroke="rgb(0, 0, 0)" stroke-opacity="1.0" stroke-linecap="round" stroke-linejoin="round"/>
    <path d="M 132.555908203125 125.59979248046875 C 113.41967010498047 147.64529418945312 182.4909210205078 134.5574188232422 174.99697875976562 150.04576110839844" stroke-width="2" fill="none" stroke="rgb(0, 0, 0)" stroke-opacity="1.0" stroke-linecap="round" stroke-linejoin="round"/>
    <path d="M 111.5896987915039 114.29356384277344 C 164.68194580078125 188.68954467773438 230.454833984375 12.123242378234863 172.49478149414062 87.8559799194336" stroke-width="2" fill="none" stroke="rgb(0, 0, 0)" stroke-opacity="1.0" stroke-linecap="round" stroke-linejoin="round"/>
    <path d="M 97.17760467529297 71.22018432617188 C 114.83614349365234 130.7056121826172 136.14605712890625 61.76631164550781 154.70835876464844 92.22860717773438" stroke-width="2" fill="none" stroke="rgb(0, 0, 0)" stroke-opacity="1.0" stroke-linecap="round" stroke-linejoin="round"/>
    <path d="M 45.653846740722656 134.69581604003906 C 51.253116607666016 164.16046142578125 185.55227661132812 137.21592712402344 166.36695861816406 154.2828369140625" stroke-width="2" fill="none" stroke="rgb(0, 0, 0)" stroke-opacity="1.0" stroke-linecap="round" stroke-linejoin="round"/>
    <path d="M 83.6729965209961 131.26124572753906 C 329.5804748535156 110.00562286376953 33.07437515258789 140.15609741210938 152.40447998046875 102.7972183227539" stroke-width="2" fill="none" stroke="rgb(0, 0, 0)" stroke-opacity="1.0" stroke-linecap="round" stroke-linejoin="round"/>
    <path d="M 152.34226989746094 120.94995880126953 C -31.656070709228516 168.7078399658203 133.54539489746094 143.0518035888672 96.1036605834961 119.74626159667969" stroke-width="2" fill="none" stroke="rgb(0, 0, 0)" stroke-opacity="1.0" stroke-linecap="round" stroke-linejoin="round"/>
    <path d="M 168.51197814941406 95.46822357177734 C 175.85983276367188 125.52587127685547 211.32167053222656 50.334877014160156 173.03028869628906 84.070068359375" stroke-width="2" fill="none" stroke="rgb(0, 0, 0)" stroke-opacity="1.0" stroke-linecap="round" stroke-linejoin="round"/>
    <path d="M 164.4429168701172 154.16404724121094 C 165.1320343017578 163.54788208007812 219.21337890625 141.09512329101562 172.56369018554688 146.17449951171875" stroke-width="2" fill="none" stroke="rgb(0, 0, 0)" stroke-opacity="1.0" stroke-linecap="round" stroke-linejoin="round"/>
    <path d="M 190.8501739501953 100.02460479736328 C 190.76513671875 106.2442626953125 194.2033233642578 92.9804916381836 190.28028869628906 109.07080078125" stroke-width="2" fill="none" stroke="rgb(0, 0, 0)" stroke-opacity="1.0" stroke-linecap="round" stroke-linejoin="round"/>
    <path d="M 122.59124755859375 106.8922348022461 C 120.1604995727539 57.79995346069336 174.77674865722656 115.80679321289062 96.90058135986328 70.01740264892578" stroke-width="2" fill="none" stroke="rgb(0, 0, 0)" stroke-opacity="1.0" stroke-linecap="round" stroke-linejoin="round"/>
    <path d="M 163.2747344970703 93.6402816772461 C 171.1826934814453 108.1083984375 232.70782470703125 28.542709350585938 155.35174560546875 88.33708953857422" stroke-width="2" fill="none" stroke="rgb(0, 0, 0)" stroke-opacity="1.0" stroke-linecap="round" stroke-linejoin="round"/>
    <path d="M 102.95341491699219 81.31483459472656 C 156.78932189941406 105.28988647460938 46.417747497558594 72.47608184814453 51.64094161987305 122.64012145996094" stroke-width="2" fill="none" stroke="rgb(0, 0, 0)" stroke-opacity="1.0" stroke-linecap="round" stroke-linejoin="round"/>
    <path d="M 40.23479461669922 125.72132873535156 C 83.22242736816406 93.89572143554688 -19.000720977783203 154.50804138183594 100.13671875 149.1279296875" stroke-width="2" fill="none" stroke="rgb(0, 0, 0)" stroke-opacity="1.0" stroke-linecap="round" stroke-linejoin="round"/>
  </g>
</svg>
