<?xml version="1.0" ?>
<svg xmlns="http://www.w3.org/2000/svg" version="1.1" width="224" height="224">
  <defs/>
  <g>
    <path d="M 119.64897155761719 86.00294494628906 C 35.24651336669922 34.24859619140625 213.81472778320312 107.1519546508789 152.87814331054688 98.69217681884766" stroke-width="2" fill="none" stroke="rgb(0, 0, 0)" stroke-opacity="1.0" stroke-linecap="round" stroke-linejoin="round"/>
    <path d="M 118.01309204101562 85.94176483154297 C 106.62287139892578 99.82447052001953 68.8927230834961 48.58945083618164 124.23905944824219 74.0182113647461" stroke-width="2" fill="none" stroke="rgb(0, 0, 0)" stroke-opacity="1.0" stroke-linecap="round" stroke-linejoin="round"/>
    <path d="M 145.5230712890625 101.86894226074219 C 124.1180191040039 111.24673461914062 151.7616424560547 88.36768341064453 142.79763793945312 111.92699432373047" stroke-width="2" fill="none" stroke="rgb(0, 0, 0)" stroke-opacity="1.0" stroke-linecap="round" stroke-linejoin="round"/>
    <path d="M 65.80289459228516 128.55023193359375 C 54.903865814208984 151.78341674804688 202.77589416503906 135.96609497070312 89.53984832763672 130.38656616210938" stroke-width="2" fill="none" stroke="rgb(0, 0, 0)" stroke-opacity="1.0" stroke-linecap="round" stroke-linejoin="round"/>
    <path d="M 166.06887817382812 115.4619369506836 C 150.2481231689453 152.77310180664062 222.867919921875 17.314233779907227 165.69699096679688 78.85919952392578" stroke-width="2" fill="none" stroke="rgb(0, 0, 0)" stroke-opacity="1.0" stroke-linecap="round" stroke-linejoin="round"/>
    <path d="M 95.36842346191406 99.60999298095703 C 152.6020965576172 129.3361053466797 71.27054595947266 85.2334976196289 163.32833862304688 77.45309448242188" stroke-width="2" fill="none" stroke="rgb(0, 0, 0)" stroke-opacity="1.0" stroke-linecap="round" stroke-linejoin="round"/>
    <path d="M 102.26377868652344 149.78012084960938 C 90.00556182861328 133.50680541992188 263.778076171875 164.3277130126953 154.02781677246094 131.78195190429688" stroke-width="2" fill="none" stroke="rgb(0, 0, 0)" stroke-opacity="1.0" stroke-linecap="round" stroke-linejoin="round"/>
    <path d="M 106.9539794921875 111.9805908203125 C 260.5950927734375 141.31658935546875 67.82882690429688 103.8276138305664 115.219970703125 109.88375854492188" stroke-width="2" fill="none" stroke="rgb(0, 0, 0)" stroke-opacity="1.0" stroke-linecap="round" stroke-linejoin="round"/>
    <path d="M 86.33348083496094 151.36190795898438 C 8.883787155151367 127.42768096923828 263.9892272949219 121.61956024169922 196.11314392089844 130.34463500976562" stroke-width="2" fill="none" stroke="rgb(0, 0, 0)" stroke-opacity="1.0" stroke-linecap="round" stroke-linejoin="round"/>
    <path d="M 164.30679321289062 79.6405029296875 C 128.33262634277344 88.29910278320312 184.74319458007812 111.88583374023438 140.60092163085938 106.22064208984375" stroke-width="2" fill="none" stroke="rgb(0, 0, 0)" stroke-opacity="1.0" stroke-linecap="round" stroke-linejoin="round"/>
    <path d="M 149.92343139648438 123.29737854003906 C 113.52201080322266 112.57357788085938 192.82553100585938 146.88211059570312 129.63461303710938 107.59626770019531" stroke-width="2" fill="none" stroke="rgb(0, 0, 0)" stroke-opacity="1.0" stroke-linecap="round" stroke-linejoin="round"/>
    <path d="M 125.0606689453125 115.47126007080078 C 92.0373764038086 124.4872817993164 190.49984741210938 96.88211059570312 158.6581573486328 114.6043472290039" stroke-width="2" fill="none" stroke="rgb(0, 0, 0)" stroke-opacity="1.0" stroke-linecap="round" stroke-linejoin="round"/>
    <path d="M 99.41657257080078 77.3453598022461 C 101.09001159667969 121.24391174316406 140.23805236816406 88.29839324951172 117.06009674072266 105.66272735595703" stroke-width="2" fill="none" stroke="rgb(0, 0, 0)" stroke-opacity="1.0" stroke-linecap="round" stroke-linejoin="round"/>
    <path d="M 159.9111328125 89.82315826416016 C 176.28097534179688 102.30718231201172 186.00746154785156 45.70683670043945 171.61724853515625 90.06552124023438" stroke-width="2" fill="none" stroke="rgb(0, 0, 0)" stroke-opacity="1.0" stroke-linecap="round" stroke-linejoin="round"/>
    <path d="M 105.76349639892578 67.34017181396484 C 176.354248046875 122.53401947021484 34.12322235107422 63.91163635253906 56.66903305053711 123.92000579833984" stroke-width="2" fill="none" stroke="rgb(0, 0, 0)" stroke-opacity="1.0" stroke-linecap="round" stroke-linejoin="round"/>
    <path d="M 39.42321014404297 132.44557189941406 C 88.20899200439453 77.08026123046875 -12.941136360168457 158.36485290527344 97.27214813232422 153.2471160888672" stroke-width="2" fill="none" stroke="rgb(0, 0, 0)" stroke-opacity="1.0" stroke-linecap="round" stroke-linejoin="round"/>
  </g>
</svg>
