<?xml version="1.0" ?>
<svg xmlns="http://www.w3.org/2000/svg" version="1.1" width="224" height="224">
  <defs/>
  <g>
    <path d="M 154.55642700195312 114.89918518066406 C 13.459568977355957 71.09986114501953 232.23451232910156 85.04292297363281 168.93670654296875 95.91873931884766" stroke-width="2" fill="none" stroke="rgb(0, 0, 0)" stroke-opacity="1.0" stroke-linecap="round" stroke-linejoin="round"/>
    <path d="M 147.93397521972656 109.90827941894531 C 176.92588806152344 94.99140167236328 99.32430267333984 118.62061309814453 127.92741394042969 96.49365997314453" stroke-width="2" fill="none" stroke="rgb(0, 0, 0)" stroke-opacity="1.0" stroke-linecap="round" stroke-linejoin="round"/>
    <path d="M 143.199462890625 125.4366455078125 C 211.11386108398438 105.48480987548828 105.36305236816406 127.09297180175781 159.6831512451172 126.79022216796875" stroke-width="2" fill="none" stroke="rgb(0, 0, 0)" stroke-opacity="1.0" stroke-linecap="round" stroke-linejoin="round"/>
    <path d="M 125.23101043701172 120.76106262207031 C 117.97612762451172 145.1250762939453 182.01527404785156 138.8072509765625 160.4879608154297 143.8076171875" stroke-width="2" fill="none" stroke="rgb(0, 0, 0)" stroke-opacity="1.0" stroke-linecap="round" stroke-linejoin="round"/>
    <path d="M 120.06509399414062 111.33451080322266 C 160.9789581298828 181.05982971191406 225.49456787109375 6.027400493621826 154.11891174316406 85.11700439453125" stroke-width="2" fill="none" stroke="rgb(0, 0, 0)" stroke-opacity="1.0" stroke-linecap="round" stroke-linejoin="round"/>
    <path d="M 98.78189086914062 72.90924072265625 C 113.37995147705078 137.8401336669922 134.79421997070312 58.13911437988281 163.09373474121094 96.11392974853516" stroke-width="2" fill="none" stroke="rgb(0, 0, 0)" stroke-opacity="1.0" stroke-linecap="round" stroke-linejoin="round"/>
    <path d="M 65.93172454833984 129.18460083007812 C 48.837581634521484 169.9453582763672 255.97996520996094 119.28108978271484 192.08462524414062 123.25569152832031" stroke-width="2" fill="none" stroke="rgb(0, 0, 0)" stroke-opacity="1.0" stroke-linecap="round" stroke-linejoin="round"/>
    <path d="M 130.01393127441406 124.23971557617188 C 355.0474853515625 90.48960876464844 79.07938385009766 132.56809997558594 155.6117706298828 116.58795928955078" stroke-width="2" fill="none" stroke="rgb(0, 0, 0)" stroke-opacity="1.0" stroke-linecap="round" stroke-linejoin="round"/>
    <path d="M 139.74566650390625 155.97689819335938 C -63.025211334228516 138.8373260498047 213.032470703125 181.5585174560547 90.21790313720703 133.14202880859375" stroke-width="2" fill="none" stroke="rgb(0, 0, 0)" stroke-opacity="1.0" stroke-linecap="round" stroke-linejoin="round"/>
    <path d="M 169.9035186767578 106.70343780517578 C 134.15106201171875 111.55978393554688 224.596435546875 80.60098266601562 163.58641052246094 99.5304183959961" stroke-width="2" fill="none" stroke="rgb(0, 0, 0)" stroke-opacity="1.0" stroke-linecap="round" stroke-linejoin="round"/>
    <path d="M 174.20755004882812 152.75021362304688 C 135.6102752685547 156.1843719482422 171.2214813232422 150.06298828125 129.08689880371094 142.45269775390625" stroke-width="2" fill="none" stroke="rgb(0, 0, 0)" stroke-opacity="1.0" stroke-linecap="round" stroke-linejoin="round"/>
    <path d="M 173.2013702392578 102.92633819580078 C 145.93130493164062 101.88046264648438 211.94688415527344 80.92870330810547 162.40794372558594 107.9720687866211" stroke-width="2" fill="none" stroke="rgb(0, 0, 0)" stroke-opacity="1.0" stroke-linecap="round" stroke-linejoin="round"/>
    <path d="M 118.87582397460938 95.68714141845703 C 124.67021942138672 110.25662231445312 145.5530242919922 100.68518829345703 97.99320983886719 66.82112884521484" stroke-width="2" fill="none" stroke="rgb(0, 0, 0)" stroke-opacity="1.0" stroke-linecap="round" stroke-linejoin="round"/>
    <path d="M 150.28282165527344 92.78787231445312 C 149.34329223632812 96.74054718017578 220.146728515625 34.05166244506836 158.38136291503906 91.55609893798828" stroke-width="2" fill="none" stroke="rgb(0, 0, 0)" stroke-opacity="1.0" stroke-linecap="round" stroke-linejoin="round"/>
    <path d="M 102.23957061767578 84.90733337402344 C 227.08482360839844 117.91327667236328 36.31868362426758 70.39263153076172 54.33506393432617 119.21110534667969" stroke-width="2" fill="none" stroke="rgb(0, 0, 0)" stroke-opacity="1.0" stroke-linecap="round" stroke-linejoin="round"/>
    <path d="M 38.438079833984375 124.22975158691406 C 100.1073989868164 69.62809753417969 -18.123029708862305 151.33413696289062 82.47942352294922 147.1222381591797" stroke-width="2" fill="none" stroke="rgb(0, 0, 0)" stroke-opacity="1.0" stroke-linecap="round" stroke-linejoin="round"/>
  </g>
</svg>
