<?xml version="1.0" ?>
<svg xmlns="http://www.w3.org/2000/svg" version="1.1" width="224" height="224">
  <defs/>
  <g>
    <path d="M 120.56642150878906 104.61736297607422 C 44.39191436767578 24.152626037597656 206.6920623779297 112.88750457763672 156.024169921875 96.71585845947266" stroke-width="2" fill="none" stroke="rgb(0, 0, 0)" stroke-opacity="1.0" stroke-linecap="round" stroke-linejoin="round"/>
    <path d="M 116.09078979492188 96.01764678955078 C 123.14064025878906 129.96310424804688 63.70750427246094 40.62525939941406 119.51487731933594 86.45150756835938" stroke-width="2" fill="none" stroke="rgb(0, 0, 0)" stroke-opacity="1.0" stroke-linecap="round" stroke-linejoin="round"/>
    <path d="M 135.9175262451172 105.41572570800781 C 185.54481506347656 124.50843811035156 115.82689666748047 89.71768188476562 148.77310180664062 122.43521881103516" stroke-width="2" fill="none" stroke="rgb(0, 0, 0)" stroke-opacity="1.0" stroke-linecap="round" stroke-linejoin="round"/>
    <path d="M 39.50120544433594 138.6866912841797 C 56.41170120239258 158.9984130859375 177.8359375 148.5231170654297 85.34689331054688 125.11139678955078" stroke-width="2" fill="none" stroke="rgb(0, 0, 0)" stroke-opacity="1.0" stroke-linecap="round" stroke-linejoin="round"/>
    <path d="M 130.5010528564453 112.81502532958984 C 172.58615112304688 146.810791015625 217.63182067871094 17.30495262145996 158.85682678222656 79.35418701171875" stroke-width="2" fill="none" stroke="rgb(0, 0, 0)" stroke-opacity="1.0" stroke-linecap="round" stroke-linejoin="round"/>
    <path d="M 92.80916595458984 64.9579849243164 C 121.39957427978516 130.5446319580078 110.42192077636719 66.57063293457031 168.28582763671875 86.70450592041016" stroke-width="2" fill="none" stroke="rgb(0, 0, 0)" stroke-opacity="1.0" stroke-linecap="round" stroke-linejoin="round"/>
    <path d="M 52.591827392578125 131.58279418945312 C 58.91804885864258 170.2899932861328 326.7166748046875 137.91957092285156 146.7562255859375 139.95916748046875" stroke-width="2" fill="none" stroke="rgb(0, 0, 0)" stroke-opacity="1.0" stroke-linecap="round" stroke-linejoin="round"/>
    <path d="M 137.32191467285156 104.36677551269531 C 231.39999389648438 123.01288604736328 63.72003936767578 110.07682037353516 97.2211685180664 110.00098419189453" stroke-width="2" fill="none" stroke="rgb(0, 0, 0)" stroke-opacity="1.0" stroke-linecap="round" stroke-linejoin="round"/>
    <path d="M 142.90646362304688 159.88609313964844 C -101.81538391113281 114.78340911865234 288.08428955078125 176.73402404785156 205.98854064941406 143.75552368164062" stroke-width="2" fill="none" stroke="rgb(0, 0, 0)" stroke-opacity="1.0" stroke-linecap="round" stroke-linejoin="round"/>
    <path d="M 155.30958557128906 94.45556640625 C 146.84275817871094 124.01759338378906 201.64381408691406 97.4195556640625 138.68008422851562 114.63975524902344" stroke-width="2" fill="none" stroke="rgb(0, 0, 0)" stroke-opacity="1.0" stroke-linecap="round" stroke-linejoin="round"/>
    <path d="M 164.50015258789062 125.85660552978516 C 128.12063598632812 127.15611267089844 213.29737854003906 118.67974090576172 129.37860107421875 110.94149017333984" stroke-width="2" fill="none" stroke="rgb(0, 0, 0)" stroke-opacity="1.0" stroke-linecap="round" stroke-linejoin="round"/>
    <path d="M 174.90798950195312 142.52903747558594 C 43.680057525634766 105.32257843017578 186.1412353515625 114.5424575805664 152.7632293701172 100.57958221435547" stroke-width="2" fill="none" stroke="rgb(0, 0, 0)" stroke-opacity="1.0" stroke-linecap="round" stroke-linejoin="round"/>
    <path d="M 98.22160339355469 86.45589447021484 C 126.46936798095703 115.10883331298828 133.91006469726562 98.6969223022461 94.63091278076172 90.18190002441406" stroke-width="2" fill="none" stroke="rgb(0, 0, 0)" stroke-opacity="1.0" stroke-linecap="round" stroke-linejoin="round"/>
    <path d="M 152.4283447265625 91.52593994140625 C 205.95143127441406 84.66730499267578 185.1921844482422 65.13378143310547 163.61669921875 89.23663330078125" stroke-width="2" fill="none" stroke="rgb(0, 0, 0)" stroke-opacity="1.0" stroke-linecap="round" stroke-linejoin="round"/>
    <path d="M 95.34065246582031 68.75703430175781 C 194.24996948242188 124.37921142578125 52.26378631591797 54.04640197753906 59.094505310058594 115.16735076904297" stroke-width="2" fill="none" stroke="rgb(0, 0, 0)" stroke-opacity="1.0" stroke-linecap="round" stroke-linejoin="round"/>
    <path d="M 38.66657638549805 122.00042724609375 C 117.41812896728516 51.28688430786133 -38.3302116394043 155.7395782470703 104.83831024169922 148.7777862548828" stroke-width="2" fill="none" stroke="rgb(0, 0, 0)" stroke-opacity="1.0" stroke-linecap="round" stroke-linejoin="round"/>
  </g>
</svg>
