<?xml version="1.0" ?>
<svg xmlns="http://www.w3.org/2000/svg" version="1.1" width="224" height="224">
  <defs/>
  <g>
    <path d="M 93.89158630371094 92.29240417480469 C 32.58815002441406 97.04122924804688 83.66183471679688 95.08843231201172 77.0708999633789 113.83275604248047" stroke-width="2" fill="none" stroke="rgb(0, 0, 0)" stroke-opacity="1.0" stroke-linecap="round" stroke-linejoin="round"/>
    <path d="M 104.67123413085938 147.1802978515625 C 137.21852111816406 99.61226654052734 120.13778686523438 150.92074584960938 98.60568237304688 144.1265411376953" stroke-width="2" fill="none" stroke="rgb(0, 0, 0)" stroke-opacity="1.0" stroke-linecap="round" stroke-linejoin="round"/>
    <path d="M 158.83416748046875 120.44308471679688 C 91.29077911376953 133.2843780517578 51.05360412597656 120.62635040283203 94.2149658203125 123.66863250732422" stroke-width="2" fill="none" stroke="rgb(0, 0, 0)" stroke-opacity="1.0" stroke-linecap="round" stroke-linejoin="round"/>
    <path d="M 167.70877075195312 131.92518615722656 C 164.11279296875 145.4297332763672 195.72779846191406 120.32247924804688 116.44564056396484 134.40516662597656" stroke-width="2" fill="none" stroke="rgb(0, 0, 0)" stroke-opacity="1.0" stroke-linecap="round" stroke-linejoin="round"/>
    <path d="M 108.82501220703125 119.77909851074219 C 127.9826431274414 99.09843444824219 140.864013671875 109.47933959960938 103.35629272460938 68.59199523925781" stroke-width="2" fill="none" stroke="rgb(0, 0, 0)" stroke-opacity="1.0" stroke-linecap="round" stroke-linejoin="round"/>
    <path d="M 103.4380874633789 66.2416763305664 C 94.24258422851562 61.036781311035156 87.41016387939453 114.42018127441406 96.8444595336914 105.93314361572266" stroke-width="2" fill="none" stroke="rgb(0, 0, 0)" stroke-opacity="1.0" stroke-linecap="round" stroke-linejoin="round"/>
    <path d="M 35.12581253051758 142.3472442626953 C 42.050106048583984 159.54632568359375 158.7664337158203 156.30267333984375 102.56403350830078 155.9661407470703" stroke-width="2" fill="none" stroke="rgb(0, 0, 0)" stroke-opacity="1.0" stroke-linecap="round" stroke-linejoin="round"/>
    <path d="M 164.8066864013672 135.87486267089844 C 147.22549438476562 106.69234466552734 102.93740844726562 168.80690002441406 113.3719482421875 110.47027587890625" stroke-width="2" fill="none" stroke="rgb(0, 0, 0)" stroke-opacity="1.0" stroke-linecap="round" stroke-linejoin="round"/>
    <path d="M 78.5844497680664 128.66322326660156 C 106.03136444091797 105.6000747680664 90.82803344726562 147.19566345214844 90.81590270996094 120.1695327758789" stroke-width="2" fill="none" stroke="rgb(0, 0, 0)" stroke-opacity="1.0" stroke-linecap="round" stroke-linejoin="round"/>
    <path d="M 171.00161743164062 84.90581512451172 C 177.02737426757812 32.60976028442383 196.91461181640625 100.62214660644531 130.26226806640625 93.54898071289062" stroke-width="2" fill="none" stroke="rgb(0, 0, 0)" stroke-opacity="1.0" stroke-linecap="round" stroke-linejoin="round"/>
    <path d="M 158.253662109375 147.69430541992188 C 169.50254821777344 149.7574005126953 102.09183502197266 144.47251892089844 172.35586547851562 140.41770935058594" stroke-width="2" fill="none" stroke="rgb(0, 0, 0)" stroke-opacity="1.0" stroke-linecap="round" stroke-linejoin="round"/>
    <path d="M 71.92240142822266 139.13458251953125 C 118.6639175415039 167.00059509277344 52.640594482421875 130.9586181640625 90.51107788085938 155.6208038330078" stroke-width="2" fill="none" stroke="rgb(0, 0, 0)" stroke-opacity="1.0" stroke-linecap="round" stroke-linejoin="round"/>
    <path d="M 107.88252258300781 109.85823059082031 C 123.58186340332031 69.56768798828125 111.66234588623047 131.10177612304688 99.4075927734375 68.22051239013672" stroke-width="2" fill="none" stroke="rgb(0, 0, 0)" stroke-opacity="1.0" stroke-linecap="round" stroke-linejoin="round"/>
    <path d="M 153.99288940429688 113.25192260742188 C 193.66127014160156 70.97911071777344 165.69924926757812 68.56965637207031 180.62921142578125 63.319801330566406" stroke-width="2" fill="none" stroke="rgb(0, 0, 0)" stroke-opacity="1.0" stroke-linecap="round" stroke-linejoin="round"/>
    <path d="M 81.92692565917969 107.9072265625 C 70.91845703125 116.4389419555664 64.2759017944336 77.52652740478516 40.42137908935547 113.0361328125" stroke-width="2" fill="none" stroke="rgb(0, 0, 0)" stroke-opacity="1.0" stroke-linecap="round" stroke-linejoin="round"/>
    <path d="M 37.05168533325195 124.98613739013672 C 46.02360534667969 118.11758422851562 26.13413429260254 125.43938446044922 34.68362808227539 143.48031616210938" stroke-width="2" fill="none" stroke="rgb(0, 0, 0)" stroke-opacity="1.0" stroke-linecap="round" stroke-linejoin="round"/>
  </g>
</svg>
