<?xml version="1.0" ?>
<svg xmlns="http://www.w3.org/2000/svg" version="1.1" width="224" height="224">
  <defs/>
  <g>
    <path d="M 141.23426818847656 119.07599639892578 C 5.984737873077393 38.741939544677734 251.10997009277344 79.63204956054688 162.6138153076172 93.09870147705078" stroke-width="2" fill="none" stroke="rgb(0, 0, 0)" stroke-opacity="1.0" stroke-linecap="round" stroke-linejoin="round"/>
    <path d="M 122.56230163574219 102.46269989013672 C 121.60198974609375 79.7295913696289 84.5233383178711 95.7450942993164 119.41303253173828 105.02754974365234" stroke-width="2" fill="none" stroke="rgb(0, 0, 0)" stroke-opacity="1.0" stroke-linecap="round" stroke-linejoin="round"/>
    <path d="M 150.34014892578125 129.4170684814453 C 188.00770568847656 123.46044158935547 105.97764587402344 99.90648651123047 149.1777801513672 107.24246215820312" stroke-width="2" fill="none" stroke="rgb(0, 0, 0)" stroke-opacity="1.0" stroke-linecap="round" stroke-linejoin="round"/>
    <path d="M 54.52884292602539 135.13577270507812 C 84.29232025146484 164.22584533691406 176.13214111328125 141.83782958984375 72.75788879394531 142.54965209960938" stroke-width="2" fill="none" stroke="rgb(0, 0, 0)" stroke-opacity="1.0" stroke-linecap="round" stroke-linejoin="round"/>
    <path d="M 105.87486267089844 100.52656555175781 C 173.29177856445312 162.91075134277344 234.14920043945312 8.286409378051758 160.23687744140625 90.7561264038086" stroke-width="2" fill="none" stroke="rgb(0, 0, 0)" stroke-opacity="1.0" stroke-linecap="round" stroke-linejoin="round"/>
    <path d="M 100.36712646484375 81.13655853271484 C 122.6557846069336 130.1558074951172 138.591796875 43.61219787597656 160.88441467285156 96.83954620361328" stroke-width="2" fill="none" stroke="rgb(0, 0, 0)" stroke-opacity="1.0" stroke-linecap="round" stroke-linejoin="round"/>
    <path d="M 73.77965545654297 123.69779205322266 C 70.73389434814453 167.38607788085938 276.4658203125 103.5771255493164 138.3079071044922 119.22865295410156" stroke-width="2" fill="none" stroke="rgb(0, 0, 0)" stroke-opacity="1.0" stroke-linecap="round" stroke-linejoin="round"/>
    <path d="M 137.72914123535156 119.69325256347656 C 290.73480224609375 97.97307586669922 36.12514877319336 119.34280395507812 95.12319946289062 109.99919891357422" stroke-width="2" fill="none" stroke="rgb(0, 0, 0)" stroke-opacity="1.0" stroke-linecap="round" stroke-linejoin="round"/>
    <path d="M 189.6659393310547 140.5640869140625 C -50.385765075683594 110.18901824951172 320.4705505371094 192.8260955810547 180.57916259765625 144.06520080566406" stroke-width="2" fill="none" stroke="rgb(0, 0, 0)" stroke-opacity="1.0" stroke-linecap="round" stroke-linejoin="round"/>
    <path d="M 155.7025604248047 111.61148071289062 C 113.83750915527344 107.91390228271484 182.68853759765625 93.1783676147461 142.5757293701172 115.06517791748047" stroke-width="2" fill="none" stroke="rgb(0, 0, 0)" stroke-opacity="1.0" stroke-linecap="round" stroke-linejoin="round"/>
    <path d="M 137.83978271484375 140.2945556640625 C 91.56362915039062 97.33917236328125 154.53627014160156 147.66598510742188 120.48511505126953 126.7049560546875" stroke-width="2" fill="none" stroke="rgb(0, 0, 0)" stroke-opacity="1.0" stroke-linecap="round" stroke-linejoin="round"/>
    <path d="M 151.19358825683594 108.23735046386719 C 84.99939727783203 122.39647674560547 156.139404296875 84.76577758789062 114.98979187011719 101.43099975585938" stroke-width="2" fill="none" stroke="rgb(0, 0, 0)" stroke-opacity="1.0" stroke-linecap="round" stroke-linejoin="round"/>
    <path d="M 94.72457885742188 69.42717742919922 C 105.41937255859375 99.60848999023438 156.7084197998047 88.91790771484375 93.54411315917969 67.89654541015625" stroke-width="2" fill="none" stroke="rgb(0, 0, 0)" stroke-opacity="1.0" stroke-linecap="round" stroke-linejoin="round"/>
    <path d="M 156.83660888671875 81.95012664794922 C 174.9630584716797 94.44117736816406 218.90621948242188 34.46303939819336 170.7515106201172 101.11918640136719" stroke-width="2" fill="none" stroke="rgb(0, 0, 0)" stroke-opacity="1.0" stroke-linecap="round" stroke-linejoin="round"/>
    <path d="M 98.4176025390625 73.88560485839844 C 224.703369140625 117.32515716552734 47.523887634277344 47.660423278808594 50.814327239990234 107.60614013671875" stroke-width="2" fill="none" stroke="rgb(0, 0, 0)" stroke-opacity="1.0" stroke-linecap="round" stroke-linejoin="round"/>
    <path d="M 37.97369384765625 113.15911865234375 C 114.62003326416016 44.77007293701172 -59.730918884277344 167.02088928222656 120.80696105957031 151.44322204589844" stroke-width="2" fill="none" stroke="rgb(0, 0, 0)" stroke-opacity="1.0" stroke-linecap="round" stroke-linejoin="round"/>
  </g>
</svg>
