<?xml version="1.0" ?>
<svg xmlns="http://www.w3.org/2000/svg" version="1.1" width="224" height="224">
  <defs/>
  <g>
    <path d="M 106.7906723022461 114.00762939453125 C 75.9267349243164 82.05581665039062 176.68202209472656 109.18815612792969 117.9329605102539 92.46615600585938" stroke-width="2" fill="none" stroke="rgb(0, 0, 0)" stroke-opacity="1.0" stroke-linecap="round" stroke-linejoin="round"/>
    <path d="M 103.71509552001953 128.92190551757812 C 144.93943786621094 98.80974578857422 107.9058837890625 142.03297424316406 102.47051239013672 118.66854858398438" stroke-width="2" fill="none" stroke="rgb(0, 0, 0)" stroke-opacity="1.0" stroke-linecap="round" stroke-linejoin="round"/>
    <path d="M 140.53688049316406 124.62484741210938 C 66.4808120727539 144.27267456054688 85.01651000976562 106.08409881591797 90.65768432617188 133.27503967285156" stroke-width="2" fill="none" stroke="rgb(0, 0, 0)" stroke-opacity="1.0" stroke-linecap="round" stroke-linejoin="round"/>
    <path d="M 162.54908752441406 147.9171905517578 C 179.11203002929688 146.89010620117188 203.38961791992188 146.66590881347656 103.91852569580078 121.37198638916016" stroke-width="2" fill="none" stroke="rgb(0, 0, 0)" stroke-opacity="1.0" stroke-linecap="round" stroke-linejoin="round"/>
    <path d="M 103.95209503173828 129.5009002685547 C 132.68670654296875 105.95915222167969 172.6730194091797 139.116455078125 100.81596374511719 70.20291137695312" stroke-width="2" fill="none" stroke="rgb(0, 0, 0)" stroke-opacity="1.0" stroke-linecap="round" stroke-linejoin="round"/>
    <path d="M 99.69676971435547 69.40303802490234 C 84.82051086425781 126.70590209960938 174.6192626953125 88.45774841308594 117.78702545166016 87.53519439697266" stroke-width="2" fill="none" stroke="rgb(0, 0, 0)" stroke-opacity="1.0" stroke-linecap="round" stroke-linejoin="round"/>
    <path d="M 42.2469482421875 130.9448699951172 C 50.500152587890625 172.64215087890625 185.14984130859375 144.20526123046875 163.9001007080078 153.77679443359375" stroke-width="2" fill="none" stroke="rgb(0, 0, 0)" stroke-opacity="1.0" stroke-linecap="round" stroke-linejoin="round"/>
    <path d="M 155.12290954589844 143.509033203125 C 164.44766235351562 119.36724853515625 64.75431060791016 149.09474182128906 120.93555450439453 114.3394546508789" stroke-width="2" fill="none" stroke="rgb(0, 0, 0)" stroke-opacity="1.0" stroke-linecap="round" stroke-linejoin="round"/>
    <path d="M 109.9355239868164 110.88360595703125 C 77.88927459716797 108.59744262695312 130.9724884033203 122.74470520019531 102.3553466796875 109.27037048339844" stroke-width="2" fill="none" stroke="rgb(0, 0, 0)" stroke-opacity="1.0" stroke-linecap="round" stroke-linejoin="round"/>
    <path d="M 170.92379760742188 77.07740783691406 C 100.93875122070312 114.44761657714844 193.54856872558594 88.167724609375 139.26512145996094 107.83841705322266" stroke-width="2" fill="none" stroke="rgb(0, 0, 0)" stroke-opacity="1.0" stroke-linecap="round" stroke-linejoin="round"/>
    <path d="M 156.0621795654297 140.04896545410156 C 206.7990264892578 152.84194946289062 149.14356994628906 159.9080810546875 170.33157348632812 151.17547607421875" stroke-width="2" fill="none" stroke="rgb(0, 0, 0)" stroke-opacity="1.0" stroke-linecap="round" stroke-linejoin="round"/>
    <path d="M 78.5253677368164 145.98886108398438 C 126.43517303466797 155.47312927246094 62.086185455322266 152.40460205078125 64.7425537109375 134.4121551513672" stroke-width="2" fill="none" stroke="rgb(0, 0, 0)" stroke-opacity="1.0" stroke-linecap="round" stroke-linejoin="round"/>
    <path d="M 158.2877197265625 81.8377685546875 C 134.33860778808594 78.55355834960938 123.39214324951172 139.80245971679688 99.12220764160156 74.2500991821289" stroke-width="2" fill="none" stroke="rgb(0, 0, 0)" stroke-opacity="1.0" stroke-linecap="round" stroke-linejoin="round"/>
    <path d="M 151.28224182128906 121.14942169189453 C 192.74720764160156 62.111751556396484 167.49786376953125 72.4053955078125 178.2327423095703 60.37932205200195" stroke-width="2" fill="none" stroke="rgb(0, 0, 0)" stroke-opacity="1.0" stroke-linecap="round" stroke-linejoin="round"/>
    <path d="M 109.2762680053711 98.24815368652344 C 116.15876007080078 125.70320892333984 69.63375091552734 61.44729995727539 49.95450210571289 117.47525024414062" stroke-width="2" fill="none" stroke="rgb(0, 0, 0)" stroke-opacity="1.0" stroke-linecap="round" stroke-linejoin="round"/>
    <path d="M 60.37519073486328 113.61526489257812 C 68.4913330078125 106.69318389892578 39.49851989746094 115.72190856933594 45.174774169921875 140.11245727539062" stroke-width="2" fill="none" stroke="rgb(0, 0, 0)" stroke-opacity="1.0" stroke-linecap="round" stroke-linejoin="round"/>
  </g>
</svg>
