<?xml version="1.0" ?>
<svg xmlns="http://www.w3.org/2000/svg" version="1.1" width="224" height="224">
  <defs/>
  <g>
    <path d="M 147.48953247070312 116.05134582519531 C 1.9303045272827148 68.90099334716797 244.9247589111328 86.35411071777344 164.11190795898438 94.06910705566406" stroke-width="2" fill="none" stroke="rgb(0, 0, 0)" stroke-opacity="1.0" stroke-linecap="round" stroke-linejoin="round"/>
    <path d="M 135.10308837890625 110.19332122802734 C 197.09413146972656 112.5277099609375 110.08504486083984 100.77989959716797 148.28955078125 100.6750259399414" stroke-width="2" fill="none" stroke="rgb(0, 0, 0)" stroke-opacity="1.0" stroke-linecap="round" stroke-linejoin="round"/>
    <path d="M 133.26734924316406 110.28996276855469 C 252.99490356445312 122.20332336425781 64.01837158203125 126.11885070800781 111.71285247802734 141.6668243408203" stroke-width="2" fill="none" stroke="rgb(0, 0, 0)" stroke-opacity="1.0" stroke-linecap="round" stroke-linejoin="round"/>
    <path d="M 129.7687530517578 123.82839965820312 C 105.4238510131836 141.27809143066406 171.8806915283203 135.69131469726562 167.0669708251953 152.80747985839844" stroke-width="2" fill="none" stroke="rgb(0, 0, 0)" stroke-opacity="1.0" stroke-linecap="round" stroke-linejoin="round"/>
    <path d="M 114.35347747802734 109.2540283203125 C 164.191162109375 181.2589569091797 227.80108642578125 20.794654846191406 171.84088134765625 84.04963684082031" stroke-width="2" fill="none" stroke="rgb(0, 0, 0)" stroke-opacity="1.0" stroke-linecap="round" stroke-linejoin="round"/>
    <path d="M 96.62273406982422 73.65621948242188 C 110.59007263183594 122.22647857666016 130.64401245117188 51.29711151123047 156.26039123535156 93.41807556152344" stroke-width="2" fill="none" stroke="rgb(0, 0, 0)" stroke-opacity="1.0" stroke-linecap="round" stroke-linejoin="round"/>
    <path d="M 47.604896545410156 133.19056701660156 C 43.59538269042969 159.57925415039062 193.16383361816406 140.77523803710938 157.5475616455078 150.76058959960938" stroke-width="2" fill="none" stroke="rgb(0, 0, 0)" stroke-opacity="1.0" stroke-linecap="round" stroke-linejoin="round"/>
    <path d="M 83.36669921875 135.31581115722656 C 311.3161926269531 120.46036529541016 3.6416940689086914 132.72869873046875 156.00523376464844 103.8225326538086" stroke-width="2" fill="none" stroke="rgb(0, 0, 0)" stroke-opacity="1.0" stroke-linecap="round" stroke-linejoin="round"/>
    <path d="M 146.92921447753906 120.47654724121094 C -29.1705322265625 163.4986114501953 135.44122314453125 135.8931121826172 93.1033706665039 124.50949096679688" stroke-width="2" fill="none" stroke="rgb(0, 0, 0)" stroke-opacity="1.0" stroke-linecap="round" stroke-linejoin="round"/>
    <path d="M 163.240966796875 96.69085693359375 C 157.08460998535156 130.16204833984375 210.99609375 44.48471450805664 181.05728149414062 91.13126373291016" stroke-width="2" fill="none" stroke="rgb(0, 0, 0)" stroke-opacity="1.0" stroke-linecap="round" stroke-linejoin="round"/>
    <path d="M 163.14816284179688 151.8184356689453 C 145.3173065185547 158.55191040039062 193.8507080078125 148.6858367919922 166.96505737304688 141.94947814941406" stroke-width="2" fill="none" stroke="rgb(0, 0, 0)" stroke-opacity="1.0" stroke-linecap="round" stroke-linejoin="round"/>
    <path d="M 181.2735595703125 104.20539855957031 C 178.51710510253906 105.79393005371094 185.64346313476562 93.90416717529297 181.6620635986328 102.94183349609375" stroke-width="2" fill="none" stroke="rgb(0, 0, 0)" stroke-opacity="1.0" stroke-linecap="round" stroke-linejoin="round"/>
    <path d="M 117.67581176757812 100.29671478271484 C 127.9337158203125 63.467159271240234 175.83572387695312 113.76799011230469 95.85578155517578 69.72974395751953" stroke-width="2" fill="none" stroke="rgb(0, 0, 0)" stroke-opacity="1.0" stroke-linecap="round" stroke-linejoin="round"/>
    <path d="M 162.34616088867188 94.0040512084961 C 175.62432861328125 109.64232635498047 228.9661865234375 26.16638946533203 155.29354858398438 86.8114013671875" stroke-width="2" fill="none" stroke="rgb(0, 0, 0)" stroke-opacity="1.0" stroke-linecap="round" stroke-linejoin="round"/>
    <path d="M 105.17044830322266 79.03947448730469 C 157.3754119873047 115.98452758789062 52.1020393371582 77.18347930908203 50.784332275390625 113.37508392333984" stroke-width="2" fill="none" stroke="rgb(0, 0, 0)" stroke-opacity="1.0" stroke-linecap="round" stroke-linejoin="round"/>
    <path d="M 42.95348358154297 127.47344970703125 C 81.08853149414062 84.48424530029297 -17.056629180908203 157.58470153808594 88.47952270507812 139.9429473876953" stroke-width="2" fill="none" stroke="rgb(0, 0, 0)" stroke-opacity="1.0" stroke-linecap="round" stroke-linejoin="round"/>
  </g>
</svg>
