<?xml version="1.0" ?>
<svg xmlns="http://www.w3.org/2000/svg" version="1.1" width="224" height="224">
  <defs/>
  <g>
    <path d="M 114.75321197509766 120.96135711669922 C 76.2105712890625 80.28976440429688 190.6463165283203 107.58328247070312 126.01921844482422 98.35026550292969" stroke-width="2" fill="none" stroke="rgb(0, 0, 0)" stroke-opacity="1.0" stroke-linecap="round" stroke-linejoin="round"/>
    <path d="M 122.22183227539062 126.591064453125 C 129.30316162109375 88.78981018066406 127.30697631835938 161.61383056640625 106.97157287597656 112.71068572998047" stroke-width="2" fill="none" stroke="rgb(0, 0, 0)" stroke-opacity="1.0" stroke-linecap="round" stroke-linejoin="round"/>
    <path d="M 142.93927001953125 131.50071716308594 C 67.66079711914062 148.67689514160156 84.54512023925781 126.4391098022461 99.42686462402344 138.6912078857422" stroke-width="2" fill="none" stroke="rgb(0, 0, 0)" stroke-opacity="1.0" stroke-linecap="round" stroke-linejoin="round"/>
    <path d="M 165.2747802734375 153.62158203125 C 170.75973510742188 157.84556579589844 197.6374053955078 137.7825164794922 113.59925079345703 123.59929656982422" stroke-width="2" fill="none" stroke="rgb(0, 0, 0)" stroke-opacity="1.0" stroke-linecap="round" stroke-linejoin="round"/>
    <path d="M 111.96157836914062 125.64920806884766 C 139.6882781982422 128.07791137695312 207.89865112304688 137.00119018554688 103.0326156616211 70.87060546875" stroke-width="2" fill="none" stroke="rgb(0, 0, 0)" stroke-opacity="1.0" stroke-linecap="round" stroke-linejoin="round"/>
    <path d="M 99.47662353515625 68.24605560302734 C 92.64484405517578 119.52032470703125 202.3258819580078 89.06554412841797 124.30804443359375 88.26432037353516" stroke-width="2" fill="none" stroke="rgb(0, 0, 0)" stroke-opacity="1.0" stroke-linecap="round" stroke-linejoin="round"/>
    <path d="M 41.21756362915039 126.41299438476562 C 29.518463134765625 177.0522918701172 162.36431884765625 134.67359924316406 175.50709533691406 147.01077270507812" stroke-width="2" fill="none" stroke="rgb(0, 0, 0)" stroke-opacity="1.0" stroke-linecap="round" stroke-linejoin="round"/>
    <path d="M 143.7413787841797 140.9768524169922 C 173.93577575683594 134.54295349121094 64.2676010131836 149.7230987548828 132.494384765625 116.10334777832031" stroke-width="2" fill="none" stroke="rgb(0, 0, 0)" stroke-opacity="1.0" stroke-linecap="round" stroke-linejoin="round"/>
    <path d="M 118.18697357177734 112.87970733642578 C 76.37637329101562 111.14356231689453 138.03591918945312 124.59735107421875 113.24490356445312 114.10221099853516" stroke-width="2" fill="none" stroke="rgb(0, 0, 0)" stroke-opacity="1.0" stroke-linecap="round" stroke-linejoin="round"/>
    <path d="M 182.01329040527344 63.82404708862305 C 115.875732421875 129.10281372070312 203.9897003173828 75.93492126464844 161.21238708496094 107.47066497802734" stroke-width="2" fill="none" stroke="rgb(0, 0, 0)" stroke-opacity="1.0" stroke-linecap="round" stroke-linejoin="round"/>
    <path d="M 141.5306396484375 140.90887451171875 C 184.51339721679688 152.91302490234375 123.27559661865234 163.52438354492188 167.4500732421875 154.68894958496094" stroke-width="2" fill="none" stroke="rgb(0, 0, 0)" stroke-opacity="1.0" stroke-linecap="round" stroke-linejoin="round"/>
    <path d="M 87.13433074951172 145.55490112304688 C 172.10501098632812 159.84645080566406 63.50410842895508 158.85951232910156 65.56439208984375 136.341064453125" stroke-width="2" fill="none" stroke="rgb(0, 0, 0)" stroke-opacity="1.0" stroke-linecap="round" stroke-linejoin="round"/>
    <path d="M 164.3713836669922 85.33496856689453 C 122.40650177001953 74.71765899658203 140.6903076171875 139.65110778808594 104.01226043701172 75.98766326904297" stroke-width="2" fill="none" stroke="rgb(0, 0, 0)" stroke-opacity="1.0" stroke-linecap="round" stroke-linejoin="round"/>
    <path d="M 153.79669189453125 117.69107055664062 C 194.28811645507812 77.20327758789062 176.3729705810547 76.96068572998047 187.1443634033203 65.5497055053711" stroke-width="2" fill="none" stroke="rgb(0, 0, 0)" stroke-opacity="1.0" stroke-linecap="round" stroke-linejoin="round"/>
    <path d="M 100.7358169555664 78.86798858642578 C 116.76368713378906 127.82221984863281 72.36695861816406 67.93460083007812 45.46315383911133 127.44268798828125" stroke-width="2" fill="none" stroke="rgb(0, 0, 0)" stroke-opacity="1.0" stroke-linecap="round" stroke-linejoin="round"/>
    <path d="M 71.81793975830078 114.04557037353516 C 63.492916107177734 101.57166290283203 35.40523910522461 120.94122314453125 39.127994537353516 141.45748901367188" stroke-width="2" fill="none" stroke="rgb(0, 0, 0)" stroke-opacity="1.0" stroke-linecap="round" stroke-linejoin="round"/>
  </g>
</svg>
