<?xml version="1.0" ?>
<svg xmlns="http://www.w3.org/2000/svg" version="1.1" width="224" height="224">
  <defs/>
  <g>
    <path d="M 94.0433349609375 93.96761322021484 C 27.852523803710938 98.66519927978516 141.79026794433594 118.50398254394531 91.91067504882812 102.15812683105469" stroke-width="2" fill="none" stroke="rgb(0, 0, 0)" stroke-opacity="1.0" stroke-linecap="round" stroke-linejoin="round"/>
    <path d="M 101.8128662109375 132.31947326660156 C 134.67666625976562 110.6914291381836 99.0650405883789 147.681640625 95.3603744506836 137.30116271972656" stroke-width="2" fill="none" stroke="rgb(0, 0, 0)" stroke-opacity="1.0" stroke-linecap="round" stroke-linejoin="round"/>
    <path d="M 168.60189819335938 130.688232421875 C 87.77272033691406 136.79647827148438 49.19175720214844 112.84615325927734 86.06135559082031 135.32391357421875" stroke-width="2" fill="none" stroke="rgb(0, 0, 0)" stroke-opacity="1.0" stroke-linecap="round" stroke-linejoin="round"/>
    <path d="M 156.41192626953125 152.5558319091797 C 176.72906494140625 156.90655517578125 198.16769409179688 134.823974609375 100.90301513671875 133.6435089111328" stroke-width="2" fill="none" stroke="rgb(0, 0, 0)" stroke-opacity="1.0" stroke-linecap="round" stroke-linejoin="round"/>
    <path d="M 103.58292388916016 122.55350494384766 C 123.36029815673828 109.44332122802734 156.83204650878906 129.32664489746094 104.76818084716797 67.06436920166016" stroke-width="2" fill="none" stroke="rgb(0, 0, 0)" stroke-opacity="1.0" stroke-linecap="round" stroke-linejoin="round"/>
    <path d="M 103.02460479736328 66.48395538330078 C 88.1826400756836 103.84966278076172 121.15248107910156 104.6235122680664 105.63035583496094 83.92121124267578" stroke-width="2" fill="none" stroke="rgb(0, 0, 0)" stroke-opacity="1.0" stroke-linecap="round" stroke-linejoin="round"/>
    <path d="M 34.27383804321289 139.53817749023438 C 49.973289489746094 170.2395477294922 199.97019958496094 136.28973388671875 132.47579956054688 152.4461669921875" stroke-width="2" fill="none" stroke="rgb(0, 0, 0)" stroke-opacity="1.0" stroke-linecap="round" stroke-linejoin="round"/>
    <path d="M 166.31561279296875 151.86416625976562 C 159.23597717285156 121.20489501953125 87.43891143798828 161.2857208251953 117.46682739257812 113.48717498779297" stroke-width="2" fill="none" stroke="rgb(0, 0, 0)" stroke-opacity="1.0" stroke-linecap="round" stroke-linejoin="round"/>
    <path d="M 76.61099243164062 131.37062072753906 C 91.93518829345703 106.42874145507812 97.41951751708984 146.2397918701172 74.90449523925781 120.77843475341797" stroke-width="2" fill="none" stroke="rgb(0, 0, 0)" stroke-opacity="1.0" stroke-linecap="round" stroke-linejoin="round"/>
    <path d="M 179.66737365722656 79.69721984863281 C 160.61093139648438 38.82086181640625 205.48423767089844 128.0166778564453 121.8437728881836 100.10669708251953" stroke-width="2" fill="none" stroke="rgb(0, 0, 0)" stroke-opacity="1.0" stroke-linecap="round" stroke-linejoin="round"/>
    <path d="M 148.55679321289062 147.9396209716797 C 160.0003662109375 146.84573364257812 114.5567855834961 128.55406188964844 170.7733612060547 148.14251708984375" stroke-width="2" fill="none" stroke="rgb(0, 0, 0)" stroke-opacity="1.0" stroke-linecap="round" stroke-linejoin="round"/>
    <path d="M 66.88426208496094 151.8133544921875 C 130.85182189941406 160.82102966308594 54.9716682434082 137.86878967285156 73.3058853149414 142.28836059570312" stroke-width="2" fill="none" stroke="rgb(0, 0, 0)" stroke-opacity="1.0" stroke-linecap="round" stroke-linejoin="round"/>
    <path d="M 112.59416198730469 105.44705963134766 C 110.6122055053711 64.27542877197266 104.48979187011719 132.80381774902344 104.63861083984375 66.6434326171875" stroke-width="2" fill="none" stroke="rgb(0, 0, 0)" stroke-opacity="1.0" stroke-linecap="round" stroke-linejoin="round"/>
    <path d="M 154.7689208984375 114.54639434814453 C 198.1034698486328 60.48291778564453 163.0996551513672 92.57414245605469 178.0977783203125 66.02449035644531" stroke-width="2" fill="none" stroke="rgb(0, 0, 0)" stroke-opacity="1.0" stroke-linecap="round" stroke-linejoin="round"/>
    <path d="M 93.0086898803711 107.88014221191406 C 90.81623077392578 132.1190643310547 83.07552337646484 57.48126983642578 39.74821090698242 120.58140563964844" stroke-width="2" fill="none" stroke="rgb(0, 0, 0)" stroke-opacity="1.0" stroke-linecap="round" stroke-linejoin="round"/>
    <path d="M 56.19745635986328 117.89969635009766 C 61.2396240234375 100.59327697753906 27.487346649169922 120.32241821289062 32.640830993652344 139.0524139404297" stroke-width="2" fill="none" stroke="rgb(0, 0, 0)" stroke-opacity="1.0" stroke-linecap="round" stroke-linejoin="round"/>
  </g>
</svg>
