<?xml version="1.0" ?>
<svg xmlns="http://www.w3.org/2000/svg" version="1.1" width="224" height="224">
  <defs/>
  <g>
    <path d="M 106.4965591430664 105.32711029052734 C 73.10317993164062 92.46862030029297 163.12042236328125 118.33158874511719 118.09728240966797 97.34413146972656" stroke-width="2" fill="none" stroke="rgb(0, 0, 0)" stroke-opacity="1.0" stroke-linecap="round" stroke-linejoin="round"/>
    <path d="M 100.67683410644531 135.39280700683594 C 133.42857360839844 107.86544799804688 102.3611831665039 151.83615112304688 102.59093475341797 121.13056945800781" stroke-width="2" fill="none" stroke="rgb(0, 0, 0)" stroke-opacity="1.0" stroke-linecap="round" stroke-linejoin="round"/>
    <path d="M 146.66574096679688 129.9119415283203 C 69.14195251464844 147.0935821533203 85.8898696899414 106.23372650146484 91.14063262939453 135.55242919921875" stroke-width="2" fill="none" stroke="rgb(0, 0, 0)" stroke-opacity="1.0" stroke-linecap="round" stroke-linejoin="round"/>
    <path d="M 164.21302795410156 152.45201110839844 C 177.41357421875 167.18019104003906 199.04867553710938 142.67161560058594 99.19328308105469 129.0317840576172" stroke-width="2" fill="none" stroke="rgb(0, 0, 0)" stroke-opacity="1.0" stroke-linecap="round" stroke-linejoin="round"/>
    <path d="M 102.90548706054688 128.88804626464844 C 138.8248748779297 107.09260559082031 175.35935974121094 142.19268798828125 102.74475860595703 62.79243087768555" stroke-width="2" fill="none" stroke="rgb(0, 0, 0)" stroke-opacity="1.0" stroke-linecap="round" stroke-linejoin="round"/>
    <path d="M 99.46183776855469 64.66585540771484 C 84.41295623779297 127.4680404663086 180.2419891357422 96.6069564819336 120.32327270507812 91.01766967773438" stroke-width="2" fill="none" stroke="rgb(0, 0, 0)" stroke-opacity="1.0" stroke-linecap="round" stroke-linejoin="round"/>
    <path d="M 34.54561233520508 133.15516662597656 C 58.37232971191406 174.75999450683594 198.54539489746094 135.74620056152344 169.24826049804688 158.1947784423828" stroke-width="2" fill="none" stroke="rgb(0, 0, 0)" stroke-opacity="1.0" stroke-linecap="round" stroke-linejoin="round"/>
    <path d="M 161.81690979003906 156.9420623779297 C 141.14691162109375 112.81067657470703 61.685001373291016 169.46315002441406 116.31708526611328 118.7108383178711" stroke-width="2" fill="none" stroke="rgb(0, 0, 0)" stroke-opacity="1.0" stroke-linecap="round" stroke-linejoin="round"/>
    <path d="M 99.73490905761719 110.48515319824219 C 76.33186340332031 111.81800079345703 127.26593017578125 116.76309204101562 95.9013671875 104.74494171142578" stroke-width="2" fill="none" stroke="rgb(0, 0, 0)" stroke-opacity="1.0" stroke-linecap="round" stroke-linejoin="round"/>
    <path d="M 168.93511962890625 92.16204071044922 C 120.4331283569336 98.07210540771484 203.44198608398438 104.1644058227539 136.1528778076172 110.97187042236328" stroke-width="2" fill="none" stroke="rgb(0, 0, 0)" stroke-opacity="1.0" stroke-linecap="round" stroke-linejoin="round"/>
    <path d="M 161.21426391601562 146.1273193359375 C 194.19981384277344 147.2175750732422 136.1017303466797 156.08590698242188 167.9322052001953 151.4273223876953" stroke-width="2" fill="none" stroke="rgb(0, 0, 0)" stroke-opacity="1.0" stroke-linecap="round" stroke-linejoin="round"/>
    <path d="M 80.86947631835938 153.49520874023438 C 137.46568298339844 164.43408203125 70.56208038330078 149.2832489013672 63.65016555786133 138.35174560546875" stroke-width="2" fill="none" stroke="rgb(0, 0, 0)" stroke-opacity="1.0" stroke-linecap="round" stroke-linejoin="round"/>
    <path d="M 152.4291229248047 101.38288879394531 C 148.33889770507812 67.62568664550781 111.7127456665039 142.76712036132812 105.38412475585938 81.61798095703125" stroke-width="2" fill="none" stroke="rgb(0, 0, 0)" stroke-opacity="1.0" stroke-linecap="round" stroke-linejoin="round"/>
    <path d="M 152.3008270263672 117.3866195678711 C 191.61187744140625 68.7418212890625 167.03598022460938 79.50287628173828 179.09449768066406 63.2921142578125" stroke-width="2" fill="none" stroke="rgb(0, 0, 0)" stroke-opacity="1.0" stroke-linecap="round" stroke-linejoin="round"/>
    <path d="M 103.83094787597656 102.11160278320312 C 115.04518127441406 127.18480682373047 73.5574722290039 62.85002517700195 47.06769561767578 119.13408660888672" stroke-width="2" fill="none" stroke="rgb(0, 0, 0)" stroke-opacity="1.0" stroke-linecap="round" stroke-linejoin="round"/>
    <path d="M 54.5583381652832 119.46417999267578 C 64.58333587646484 112.8215560913086 34.535404205322266 115.18809509277344 41.27630615234375 136.96331787109375" stroke-width="2" fill="none" stroke="rgb(0, 0, 0)" stroke-opacity="1.0" stroke-linecap="round" stroke-linejoin="round"/>
  </g>
</svg>
