<?xml version="1.0" ?>
<svg xmlns="http://www.w3.org/2000/svg" version="1.1" width="224" height="224">
  <defs/>
  <g>
    <path d="M 95.48448944091797 93.4036636352539 C 29.39371681213379 93.56717681884766 113.9056625366211 116.34667205810547 78.29694366455078 102.58846282958984" stroke-width="2" fill="none" stroke="rgb(0, 0, 0)" stroke-opacity="1.0" stroke-linecap="round" stroke-linejoin="round"/>
    <path d="M 102.60710144042969 141.127197265625 C 140.13084411621094 110.35769653320312 108.59306335449219 155.9844207763672 87.92806243896484 145.5623779296875" stroke-width="2" fill="none" stroke="rgb(0, 0, 0)" stroke-opacity="1.0" stroke-linecap="round" stroke-linejoin="round"/>
    <path d="M 150.12416076660156 123.6185302734375 C 81.55164337158203 138.81825256347656 43.77125549316406 112.20791625976562 86.32706451416016 134.01528930664062" stroke-width="2" fill="none" stroke="rgb(0, 0, 0)" stroke-opacity="1.0" stroke-linecap="round" stroke-linejoin="round"/>
    <path d="M 159.33619689941406 147.7034149169922 C 172.40625 163.9093475341797 198.35855102539062 126.95944213867188 112.0805892944336 136.17483520507812" stroke-width="2" fill="none" stroke="rgb(0, 0, 0)" stroke-opacity="1.0" stroke-linecap="round" stroke-linejoin="round"/>
    <path d="M 103.492919921875 126.20608520507812 C 123.99568176269531 102.26614379882812 159.73806762695312 118.51434326171875 107.2129898071289 69.4659652709961" stroke-width="2" fill="none" stroke="rgb(0, 0, 0)" stroke-opacity="1.0" stroke-linecap="round" stroke-linejoin="round"/>
    <path d="M 102.07181549072266 66.2281265258789 C 95.72239685058594 87.66925811767578 119.7770767211914 109.34416961669922 102.49819946289062 98.02923583984375" stroke-width="2" fill="none" stroke="rgb(0, 0, 0)" stroke-opacity="1.0" stroke-linecap="round" stroke-linejoin="round"/>
    <path d="M 36.068206787109375 138.0207977294922 C 50.24840545654297 166.12770080566406 206.26620483398438 145.3568572998047 132.86566162109375 149.6106414794922" stroke-width="2" fill="none" stroke="rgb(0, 0, 0)" stroke-opacity="1.0" stroke-linecap="round" stroke-linejoin="round"/>
    <path d="M 169.6681365966797 152.26490783691406 C 150.34457397460938 120.98686981201172 85.42990112304688 160.600341796875 114.28294372558594 109.65982055664062" stroke-width="2" fill="none" stroke="rgb(0, 0, 0)" stroke-opacity="1.0" stroke-linecap="round" stroke-linejoin="round"/>
    <path d="M 76.32828521728516 126.09678649902344 C 89.53273010253906 107.86360931396484 91.4350814819336 145.5386962890625 73.73045349121094 120.4306411743164" stroke-width="2" fill="none" stroke="rgb(0, 0, 0)" stroke-opacity="1.0" stroke-linecap="round" stroke-linejoin="round"/>
    <path d="M 178.13092041015625 80.78752136230469 C 156.28453063964844 25.017789840698242 192.9309844970703 130.44158935546875 120.59880828857422 106.1554183959961" stroke-width="2" fill="none" stroke="rgb(0, 0, 0)" stroke-opacity="1.0" stroke-linecap="round" stroke-linejoin="round"/>
    <path d="M 152.12155151367188 153.5386505126953 C 169.68043518066406 145.87258911132812 118.89942169189453 134.0419158935547 172.37844848632812 144.2039337158203" stroke-width="2" fill="none" stroke="rgb(0, 0, 0)" stroke-opacity="1.0" stroke-linecap="round" stroke-linejoin="round"/>
    <path d="M 61.56117248535156 133.0110321044922 C 115.666015625 166.8516082763672 49.340721130371094 123.53324127197266 77.2948226928711 146.82908630371094" stroke-width="2" fill="none" stroke="rgb(0, 0, 0)" stroke-opacity="1.0" stroke-linecap="round" stroke-linejoin="round"/>
    <path d="M 126.20816802978516 103.91008758544922 C 127.93767547607422 73.68389892578125 108.50946807861328 137.2650604248047 105.06123352050781 67.91128540039062" stroke-width="2" fill="none" stroke="rgb(0, 0, 0)" stroke-opacity="1.0" stroke-linecap="round" stroke-linejoin="round"/>
    <path d="M 152.07154846191406 113.12782287597656 C 199.6654815673828 64.50941467285156 172.55441284179688 73.17880249023438 174.2082061767578 64.3115005493164" stroke-width="2" fill="none" stroke="rgb(0, 0, 0)" stroke-opacity="1.0" stroke-linecap="round" stroke-linejoin="round"/>
    <path d="M 80.1890640258789 106.92839050292969 C 79.52249145507812 118.86427307128906 69.73458862304688 62.99549865722656 42.12580490112305 117.67945098876953" stroke-width="2" fill="none" stroke="rgb(0, 0, 0)" stroke-opacity="1.0" stroke-linecap="round" stroke-linejoin="round"/>
    <path d="M 56.568031311035156 119.56209564208984 C 57.731197357177734 95.17374420166016 26.217174530029297 119.2565689086914 35.421409606933594 143.61639404296875" stroke-width="2" fill="none" stroke="rgb(0, 0, 0)" stroke-opacity="1.0" stroke-linecap="round" stroke-linejoin="round"/>
  </g>
</svg>
