<?xml version="1.0" ?>
<svg xmlns="http://www.w3.org/2000/svg" version="1.1" width="224" height="224">
  <defs/>
  <g>
    <path d="M 156.6721954345703 115.70024108886719 C 20.145586013793945 73.70736694335938 251.04745483398438 76.8774642944336 167.09446716308594 93.5558853149414" stroke-width="2" fill="none" stroke="rgb(0, 0, 0)" stroke-opacity="1.0" stroke-linecap="round" stroke-linejoin="round"/>
    <path d="M 135.5272674560547 103.58707427978516 C 193.12579345703125 104.49237823486328 122.76163482666016 88.7117919921875 156.28147888183594 106.39989471435547" stroke-width="2" fill="none" stroke="rgb(0, 0, 0)" stroke-opacity="1.0" stroke-linecap="round" stroke-linejoin="round"/>
    <path d="M 101.8862533569336 123.40399169921875 C 155.18539428710938 151.87832641601562 99.700439453125 112.2667236328125 121.6516342163086 132.51744079589844" stroke-width="2" fill="none" stroke="rgb(0, 0, 0)" stroke-opacity="1.0" stroke-linecap="round" stroke-linejoin="round"/>
    <path d="M 160.41221618652344 148.9805908203125 C 183.49722290039062 158.73086547851562 170.37911987304688 133.40786743164062 155.61793518066406 151.09609985351562" stroke-width="2" fill="none" stroke="rgb(0, 0, 0)" stroke-opacity="1.0" stroke-linecap="round" stroke-linejoin="round"/>
    <path d="M 110.0645523071289 109.78878784179688 C 169.28346252441406 163.43711853027344 226.26742553710938 33.69907760620117 165.52243041992188 109.80030059814453" stroke-width="2" fill="none" stroke="rgb(0, 0, 0)" stroke-opacity="1.0" stroke-linecap="round" stroke-linejoin="round"/>
    <path d="M 101.05834197998047 74.11663818359375 C 111.13309478759766 102.06400299072266 113.67475891113281 77.53845977783203 184.0492706298828 83.96820068359375" stroke-width="2" fill="none" stroke="rgb(0, 0, 0)" stroke-opacity="1.0" stroke-linecap="round" stroke-linejoin="round"/>
    <path d="M 55.59104919433594 143.71376037597656 C 67.27355194091797 169.76675415039062 225.71400451660156 145.52088928222656 193.67991638183594 147.63099670410156" stroke-width="2" fill="none" stroke="rgb(0, 0, 0)" stroke-opacity="1.0" stroke-linecap="round" stroke-linejoin="round"/>
    <path d="M 81.92830657958984 125.03844451904297 C 316.5967102050781 138.56993103027344 60.23137664794922 123.19529724121094 157.7082977294922 99.09542083740234" stroke-width="2" fill="none" stroke="rgb(0, 0, 0)" stroke-opacity="1.0" stroke-linecap="round" stroke-linejoin="round"/>
    <path d="M 158.4271240234375 111.09730529785156 C -44.1379508972168 155.9802703857422 163.73748779296875 114.9813003540039 105.33689880371094 114.31649780273438" stroke-width="2" fill="none" stroke="rgb(0, 0, 0)" stroke-opacity="1.0" stroke-linecap="round" stroke-linejoin="round"/>
    <path d="M 188.28443908691406 74.0112075805664 C 167.74252319335938 106.99629211425781 221.87599182128906 20.85943031311035 169.69859313964844 111.24345397949219" stroke-width="2" fill="none" stroke="rgb(0, 0, 0)" stroke-opacity="1.0" stroke-linecap="round" stroke-linejoin="round"/>
    <path d="M 197.02011108398438 145.20664978027344 C 165.47349548339844 166.71127319335938 219.4156036376953 133.27102661132812 190.48927307128906 136.61114501953125" stroke-width="2" fill="none" stroke="rgb(0, 0, 0)" stroke-opacity="1.0" stroke-linecap="round" stroke-linejoin="round"/>
    <path d="M 172.58297729492188 143.045654296875 C 248.59410095214844 119.54899597167969 110.92700958251953 160.61280822753906 134.8420867919922 155.0985107421875" stroke-width="2" fill="none" stroke="rgb(0, 0, 0)" stroke-opacity="1.0" stroke-linecap="round" stroke-linejoin="round"/>
    <path d="M 154.6196746826172 81.16503143310547 C 112.4106216430664 96.63654327392578 183.15884399414062 95.04385375976562 95.19921875 68.69640350341797" stroke-width="2" fill="none" stroke="rgb(0, 0, 0)" stroke-opacity="1.0" stroke-linecap="round" stroke-linejoin="round"/>
    <path d="M 164.62513732910156 95.48373413085938 C 166.08555603027344 129.82406616210938 231.77745056152344 15.880587577819824 161.89578247070312 86.84813690185547" stroke-width="2" fill="none" stroke="rgb(0, 0, 0)" stroke-opacity="1.0" stroke-linecap="round" stroke-linejoin="round"/>
    <path d="M 97.21611022949219 67.74195861816406 C 179.93865966796875 124.58149719238281 37.27766036987305 64.70726013183594 51.1215934753418 126.2016830444336" stroke-width="2" fill="none" stroke="rgb(0, 0, 0)" stroke-opacity="1.0" stroke-linecap="round" stroke-linejoin="round"/>
    <path d="M 35.328887939453125 134.6017608642578 C 72.60966491699219 87.8509521484375 -4.0683207511901855 154.30429077148438 85.31117248535156 152.29638671875" stroke-width="2" fill="none" stroke="rgb(0, 0, 0)" stroke-opacity="1.0" stroke-linecap="round" stroke-linejoin="round"/>
  </g>
</svg>
