<?xml version="1.0" ?>
<svg xmlns="http://www.w3.org/2000/svg" version="1.1" width="224" height="224">
  <defs/>
  <g>
    <path d="M 142.67559814453125 107.64647674560547 C 26.508575439453125 71.90900421142578 235.7531280517578 78.41204833984375 155.66378784179688 90.58788299560547" stroke-width="2" fill="none" stroke="rgb(0, 0, 0)" stroke-opacity="1.0" stroke-linecap="round" stroke-linejoin="round"/>
    <path d="M 125.3321762084961 106.07972717285156 C 181.29440307617188 104.7688980102539 114.29885864257812 93.58856964111328 145.3424835205078 103.4572982788086" stroke-width="2" fill="none" stroke="rgb(0, 0, 0)" stroke-opacity="1.0" stroke-linecap="round" stroke-linejoin="round"/>
    <path d="M 114.96636962890625 141.9302215576172 C 121.96212005615234 173.88551330566406 87.83680725097656 124.6285171508789 106.42247772216797 151.61634826660156" stroke-width="2" fill="none" stroke="rgb(0, 0, 0)" stroke-opacity="1.0" stroke-linecap="round" stroke-linejoin="round"/>
    <path d="M 175.9058837890625 146.32591247558594 C 196.98995971679688 162.21173095703125 140.50790405273438 137.29776000976562 124.77452850341797 144.53067016601562" stroke-width="2" fill="none" stroke="rgb(0, 0, 0)" stroke-opacity="1.0" stroke-linecap="round" stroke-linejoin="round"/>
    <path d="M 118.05423736572266 105.84774017333984 C 152.7740478515625 167.3472900390625 221.58001708984375 40.2945556640625 164.4230499267578 108.31548309326172" stroke-width="2" fill="none" stroke="rgb(0, 0, 0)" stroke-opacity="1.0" stroke-linecap="round" stroke-linejoin="round"/>
    <path d="M 100.49205017089844 77.28501892089844 C 102.58565521240234 105.09933471679688 155.79971313476562 72.01322937011719 173.1700439453125 75.89112854003906" stroke-width="2" fill="none" stroke="rgb(0, 0, 0)" stroke-opacity="1.0" stroke-linecap="round" stroke-linejoin="round"/>
    <path d="M 62.8348388671875 140.06729125976562 C 81.0189208984375 179.27500915527344 226.18055725097656 132.09515380859375 201.39907836914062 126.51122283935547" stroke-width="2" fill="none" stroke="rgb(0, 0, 0)" stroke-opacity="1.0" stroke-linecap="round" stroke-linejoin="round"/>
    <path d="M 101.35954284667969 120.82310485839844 C 281.9327087402344 118.50775909423828 57.82884216308594 123.36953735351562 144.0127716064453 102.40148162841797" stroke-width="2" fill="none" stroke="rgb(0, 0, 0)" stroke-opacity="1.0" stroke-linecap="round" stroke-linejoin="round"/>
    <path d="M 150.38400268554688 115.31341552734375 C -5.396651744842529 135.7646026611328 173.54356384277344 121.8952865600586 115.36123657226562 107.68927001953125" stroke-width="2" fill="none" stroke="rgb(0, 0, 0)" stroke-opacity="1.0" stroke-linecap="round" stroke-linejoin="round"/>
    <path d="M 184.69276428222656 65.4817886352539 C 146.14990234375 87.3512954711914 237.6781463623047 30.09273338317871 163.05348205566406 95.70222473144531" stroke-width="2" fill="none" stroke="rgb(0, 0, 0)" stroke-opacity="1.0" stroke-linecap="round" stroke-linejoin="round"/>
    <path d="M 185.2033233642578 141.7369384765625 C 167.62246704101562 153.35543823242188 221.2511444091797 134.7181854248047 190.5692901611328 144.40936279296875" stroke-width="2" fill="none" stroke="rgb(0, 0, 0)" stroke-opacity="1.0" stroke-linecap="round" stroke-linejoin="round"/>
    <path d="M 179.57334899902344 140.1148681640625 C 266.767578125 122.65482330322266 111.45641326904297 178.71534729003906 113.67705535888672 143.267822265625" stroke-width="2" fill="none" stroke="rgb(0, 0, 0)" stroke-opacity="1.0" stroke-linecap="round" stroke-linejoin="round"/>
    <path d="M 160.83932495117188 80.52999114990234 C 135.92762756347656 107.76996612548828 193.09523010253906 93.53388977050781 97.26127624511719 72.47410583496094" stroke-width="2" fill="none" stroke="rgb(0, 0, 0)" stroke-opacity="1.0" stroke-linecap="round" stroke-linejoin="round"/>
    <path d="M 156.17710876464844 99.67282104492188 C 185.916259765625 114.84758758544922 208.04237365722656 34.050045013427734 181.38929748535156 83.33073425292969" stroke-width="2" fill="none" stroke="rgb(0, 0, 0)" stroke-opacity="1.0" stroke-linecap="round" stroke-linejoin="round"/>
    <path d="M 100.96685791015625 71.13505554199219 C 181.10214233398438 121.90228271484375 39.992618560791016 59.94176483154297 48.05622863769531 128.82179260253906" stroke-width="2" fill="none" stroke="rgb(0, 0, 0)" stroke-opacity="1.0" stroke-linecap="round" stroke-linejoin="round"/>
    <path d="M 35.851600646972656 140.20249938964844 C 57.601314544677734 104.3165054321289 -2.635451555252075 159.2479248046875 105.66846466064453 155.9700164794922" stroke-width="2" fill="none" stroke="rgb(0, 0, 0)" stroke-opacity="1.0" stroke-linecap="round" stroke-linejoin="round"/>
  </g>
</svg>
