<?xml version="1.0" ?>
<svg xmlns="http://www.w3.org/2000/svg" version="1.1" width="224" height="224">
  <defs/>
  <g>
    <path d="M 118.25736236572266 107.49781799316406 C 29.697572708129883 22.098594665527344 190.5302276611328 114.52059936523438 168.0142364501953 86.52542877197266" stroke-width="2" fill="none" stroke="rgb(0, 0, 0)" stroke-opacity="1.0" stroke-linecap="round" stroke-linejoin="round"/>
    <path d="M 124.7856674194336 83.75847625732422 C 119.9952392578125 112.35066223144531 52.09028625488281 30.422101974487305 121.40508270263672 86.39212036132812" stroke-width="2" fill="none" stroke="rgb(0, 0, 0)" stroke-opacity="1.0" stroke-linecap="round" stroke-linejoin="round"/>
    <path d="M 145.39096069335938 95.30304718017578 C 167.61868286132812 130.6312255859375 93.34768676757812 83.43606567382812 140.071533203125 113.31420135498047" stroke-width="2" fill="none" stroke="rgb(0, 0, 0)" stroke-opacity="1.0" stroke-linecap="round" stroke-linejoin="round"/>
    <path d="M 35.655025482177734 129.28848266601562 C 58.17584228515625 162.33583068847656 191.82960510253906 142.37142944335938 112.73271179199219 125.88046264648438" stroke-width="2" fill="none" stroke="rgb(0, 0, 0)" stroke-opacity="1.0" stroke-linecap="round" stroke-linejoin="round"/>
    <path d="M 152.01400756835938 104.5540771484375 C 161.12506103515625 145.68731689453125 212.54653930664062 16.52444076538086 164.5535125732422 81.92062377929688" stroke-width="2" fill="none" stroke="rgb(0, 0, 0)" stroke-opacity="1.0" stroke-linecap="round" stroke-linejoin="round"/>
    <path d="M 98.25054168701172 84.6459732055664 C 128.37252807617188 131.84634399414062 90.46698760986328 74.1701889038086 165.00184631347656 78.96031951904297" stroke-width="2" fill="none" stroke="rgb(0, 0, 0)" stroke-opacity="1.0" stroke-linecap="round" stroke-linejoin="round"/>
    <path d="M 72.406005859375 125.0853500366211 C 41.950809478759766 157.0651397705078 243.68214416503906 132.77972412109375 146.75192260742188 136.1452178955078" stroke-width="2" fill="none" stroke="rgb(0, 0, 0)" stroke-opacity="1.0" stroke-linecap="round" stroke-linejoin="round"/>
    <path d="M 125.8424072265625 106.28753662109375 C 233.7658233642578 125.67296600341797 41.64830780029297 113.81037902832031 100.15411376953125 113.42227935791016" stroke-width="2" fill="none" stroke="rgb(0, 0, 0)" stroke-opacity="1.0" stroke-linecap="round" stroke-linejoin="round"/>
    <path d="M 111.21317291259766 151.3805389404297 C -97.9294662475586 124.92950439453125 305.7853698730469 148.2589111328125 179.1688995361328 146.7266387939453" stroke-width="2" fill="none" stroke="rgb(0, 0, 0)" stroke-opacity="1.0" stroke-linecap="round" stroke-linejoin="round"/>
    <path d="M 151.48397827148438 89.16417694091797 C 142.41842651367188 122.31253814697266 179.91575622558594 98.90483856201172 132.65155029296875 106.40648651123047" stroke-width="2" fill="none" stroke="rgb(0, 0, 0)" stroke-opacity="1.0" stroke-linecap="round" stroke-linejoin="round"/>
    <path d="M 160.26416015625 125.14397430419922 C 130.2982940673828 125.5572738647461 208.3038787841797 114.2865982055664 127.73416137695312 115.40943908691406" stroke-width="2" fill="none" stroke="rgb(0, 0, 0)" stroke-opacity="1.0" stroke-linecap="round" stroke-linejoin="round"/>
    <path d="M 163.82167053222656 137.55331420898438 C 65.27379608154297 107.2009506225586 217.84327697753906 98.82828521728516 164.54995727539062 93.20596313476562" stroke-width="2" fill="none" stroke="rgb(0, 0, 0)" stroke-opacity="1.0" stroke-linecap="round" stroke-linejoin="round"/>
    <path d="M 101.17711639404297 81.26533508300781 C 104.6994857788086 130.49322509765625 132.33653259277344 97.12068176269531 88.74773406982422 92.49202728271484" stroke-width="2" fill="none" stroke="rgb(0, 0, 0)" stroke-opacity="1.0" stroke-linecap="round" stroke-linejoin="round"/>
    <path d="M 146.4936981201172 91.31607055664062 C 184.41461181640625 68.85559844970703 201.22216796875 68.9092025756836 156.74359130859375 90.138671875" stroke-width="2" fill="none" stroke="rgb(0, 0, 0)" stroke-opacity="1.0" stroke-linecap="round" stroke-linejoin="round"/>
    <path d="M 96.2826156616211 69.2445068359375 C 195.90350341796875 121.49311828613281 38.06031799316406 68.53893280029297 56.33476638793945 123.13737487792969" stroke-width="2" fill="none" stroke="rgb(0, 0, 0)" stroke-opacity="1.0" stroke-linecap="round" stroke-linejoin="round"/>
    <path d="M 41.98329544067383 124.59770965576172 C 118.18273162841797 56.0214729309082 -25.681177139282227 149.14755249023438 79.04513549804688 152.32339477539062" stroke-width="2" fill="none" stroke="rgb(0, 0, 0)" stroke-opacity="1.0" stroke-linecap="round" stroke-linejoin="round"/>
  </g>
</svg>
