<?xml version="1.0" ?>
<svg xmlns="http://www.w3.org/2000/svg" version="1.1" width="224" height="224">
  <defs/>
  <g>
    <path d="M 118.34501647949219 120.85729217529297 C 64.4952621459961 73.86878204345703 198.39796447753906 101.30402374267578 126.4328842163086 94.38853454589844" stroke-width="2" fill="none" stroke="rgb(0, 0, 0)" stroke-opacity="1.0" stroke-linecap="round" stroke-linejoin="round"/>
    <path d="M 121.26560974121094 122.08587646484375 C 135.3647003173828 82.67689514160156 108.59065246582031 148.7306671142578 108.98453521728516 108.02869415283203" stroke-width="2" fill="none" stroke="rgb(0, 0, 0)" stroke-opacity="1.0" stroke-linecap="round" stroke-linejoin="round"/>
    <path d="M 140.49974060058594 132.79371643066406 C 94.8182144165039 144.06117248535156 90.37471771240234 117.33956146240234 103.14842987060547 130.79518127441406" stroke-width="2" fill="none" stroke="rgb(0, 0, 0)" stroke-opacity="1.0" stroke-linecap="round" stroke-linejoin="round"/>
    <path d="M 162.2207794189453 148.47918701171875 C 168.80015563964844 152.76089477539062 198.1119384765625 147.26531982421875 117.07550811767578 126.92950439453125" stroke-width="2" fill="none" stroke="rgb(0, 0, 0)" stroke-opacity="1.0" stroke-linecap="round" stroke-linejoin="round"/>
    <path d="M 116.98494720458984 130.0702362060547 C 145.69091796875 133.22325134277344 216.77198791503906 135.036376953125 94.91749572753906 68.02491760253906" stroke-width="2" fill="none" stroke="rgb(0, 0, 0)" stroke-opacity="1.0" stroke-linecap="round" stroke-linejoin="round"/>
    <path d="M 95.83159637451172 68.58565521240234 C 89.25386810302734 116.01810455322266 201.78785705566406 77.67662048339844 129.14932250976562 93.25077056884766" stroke-width="2" fill="none" stroke="rgb(0, 0, 0)" stroke-opacity="1.0" stroke-linecap="round" stroke-linejoin="round"/>
    <path d="M 39.233062744140625 133.6892547607422 C 35.42694854736328 170.2527313232422 178.59829711914062 134.604248046875 162.50888061523438 146.23214721679688" stroke-width="2" fill="none" stroke="rgb(0, 0, 0)" stroke-opacity="1.0" stroke-linecap="round" stroke-linejoin="round"/>
    <path d="M 152.42315673828125 135.50076293945312 C 183.06002807617188 132.33580017089844 75.4623794555664 143.77883911132812 133.4776611328125 116.43539428710938" stroke-width="2" fill="none" stroke="rgb(0, 0, 0)" stroke-opacity="1.0" stroke-linecap="round" stroke-linejoin="round"/>
    <path d="M 117.23323059082031 111.83009338378906 C 62.58759307861328 110.87113952636719 143.6432342529297 119.66557312011719 112.91707611083984 113.04297637939453" stroke-width="2" fill="none" stroke="rgb(0, 0, 0)" stroke-opacity="1.0" stroke-linecap="round" stroke-linejoin="round"/>
    <path d="M 182.22996520996094 63.756805419921875 C 109.91316223144531 129.8295135498047 200.0272216796875 67.56380462646484 159.925048828125 102.89568328857422" stroke-width="2" fill="none" stroke="rgb(0, 0, 0)" stroke-opacity="1.0" stroke-linecap="round" stroke-linejoin="round"/>
    <path d="M 135.69943237304688 143.6262664794922 C 178.43231201171875 152.5803985595703 117.38053894042969 161.242919921875 156.74032592773438 155.4912567138672" stroke-width="2" fill="none" stroke="rgb(0, 0, 0)" stroke-opacity="1.0" stroke-linecap="round" stroke-linejoin="round"/>
    <path d="M 89.04997253417969 140.91102600097656 C 211.75550842285156 145.04080200195312 87.15155029296875 158.31430053710938 66.79875946044922 127.1185073852539" stroke-width="2" fill="none" stroke="rgb(0, 0, 0)" stroke-opacity="1.0" stroke-linecap="round" stroke-linejoin="round"/>
    <path d="M 154.9967041015625 91.62643432617188 C 113.31365203857422 77.9422378540039 153.3152313232422 132.25355529785156 104.21833801269531 73.42378234863281" stroke-width="2" fill="none" stroke="rgb(0, 0, 0)" stroke-opacity="1.0" stroke-linecap="round" stroke-linejoin="round"/>
    <path d="M 154.27401733398438 120.95409393310547 C 195.18601989746094 83.6319808959961 172.4327850341797 67.84423828125 185.56541442871094 64.23414611816406" stroke-width="2" fill="none" stroke="rgb(0, 0, 0)" stroke-opacity="1.0" stroke-linecap="round" stroke-linejoin="round"/>
    <path d="M 99.90708923339844 78.40962219238281 C 128.79580688476562 132.24208068847656 58.14155960083008 70.57647705078125 49.63389205932617 122.27394104003906" stroke-width="2" fill="none" stroke="rgb(0, 0, 0)" stroke-opacity="1.0" stroke-linecap="round" stroke-linejoin="round"/>
    <path d="M 66.23026275634766 117.2170639038086 C 67.5256576538086 97.38511657714844 32.620174407958984 119.31161499023438 45.34431076049805 145.38352966308594" stroke-width="2" fill="none" stroke="rgb(0, 0, 0)" stroke-opacity="1.0" stroke-linecap="round" stroke-linejoin="round"/>
  </g>
</svg>
