<?xml version="1.0" ?>
<svg xmlns="http://www.w3.org/2000/svg" version="1.1" width="224" height="224">
  <defs/>
  <g>
    <path d="M 146.62046813964844 78.6166763305664 C 74.41853332519531 53.570343017578125 202.59178161621094 93.70126342773438 150.1444091796875 98.97500610351562" stroke-width="2" fill="none" stroke="rgb(0, 0, 0)" stroke-opacity="1.0" stroke-linecap="round" stroke-linejoin="round"/>
    <path d="M 107.71104431152344 84.97940063476562 C 157.80838012695312 124.6454086303711 56.51940155029297 21.88701057434082 120.7742691040039 81.17110443115234" stroke-width="2" fill="none" stroke="rgb(0, 0, 0)" stroke-opacity="1.0" stroke-linecap="round" stroke-linejoin="round"/>
    <path d="M 140.93309020996094 98.10474395751953 C 121.38249969482422 93.01136016845703 170.3167724609375 94.126953125 112.4301986694336 109.39634704589844" stroke-width="2" fill="none" stroke="rgb(0, 0, 0)" stroke-opacity="1.0" stroke-linecap="round" stroke-linejoin="round"/>
    <path d="M 127.09669494628906 134.79281616210938 C 93.61971282958984 133.062255859375 228.9239959716797 167.0416259765625 172.3863983154297 160.28823852539062" stroke-width="2" fill="none" stroke="rgb(0, 0, 0)" stroke-opacity="1.0" stroke-linecap="round" stroke-linejoin="round"/>
    <path d="M 129.6404571533203 109.3132553100586 C 147.04238891601562 179.46469116210938 221.3406982421875 4.858297824859619 160.56256103515625 83.79399108886719" stroke-width="2" fill="none" stroke="rgb(0, 0, 0)" stroke-opacity="1.0" stroke-linecap="round" stroke-linejoin="round"/>
    <path d="M 192.47592163085938 153.53948974609375 C 235.8769989013672 159.1011199951172 17.77239990234375 86.34324645996094 166.83680725097656 68.68997192382812" stroke-width="2" fill="none" stroke="rgb(0, 0, 0)" stroke-opacity="1.0" stroke-linecap="round" stroke-linejoin="round"/>
    <path d="M 112.99854278564453 143.3206329345703 C 117.40909576416016 127.34774780273438 70.2749252319336 139.7982940673828 100.6578598022461 129.86648559570312" stroke-width="2" fill="none" stroke="rgb(0, 0, 0)" stroke-opacity="1.0" stroke-linecap="round" stroke-linejoin="round"/>
    <path d="M 164.6175537109375 153.22824096679688 C 171.88243103027344 131.2955780029297 86.0955581665039 145.44532775878906 117.93879699707031 140.99655151367188" stroke-width="2" fill="none" stroke="rgb(0, 0, 0)" stroke-opacity="1.0" stroke-linecap="round" stroke-linejoin="round"/>
    <path d="M 69.03885650634766 135.65931701660156 C 63.20750427246094 156.00881958007812 179.61715698242188 144.3232421875 141.50213623046875 151.3950653076172" stroke-width="2" fill="none" stroke="rgb(0, 0, 0)" stroke-opacity="1.0" stroke-linecap="round" stroke-linejoin="round"/>
    <path d="M 163.48158264160156 96.40058135986328 C 124.1273422241211 84.9964370727539 209.909423828125 95.61463928222656 125.31071472167969 108.4509506225586" stroke-width="2" fill="none" stroke="rgb(0, 0, 0)" stroke-opacity="1.0" stroke-linecap="round" stroke-linejoin="round"/>
    <path d="M 164.60232543945312 110.42691802978516 C 147.24588012695312 121.075439453125 160.79592895507812 103.2617416381836 155.5451202392578 135.08474731445312" stroke-width="2" fill="none" stroke="rgb(0, 0, 0)" stroke-opacity="1.0" stroke-linecap="round" stroke-linejoin="round"/>
    <path d="M 147.218017578125 104.71805572509766 C 93.54788208007812 95.33598327636719 183.75802612304688 118.47532653808594 126.27989959716797 108.20938110351562" stroke-width="2" fill="none" stroke="rgb(0, 0, 0)" stroke-opacity="1.0" stroke-linecap="round" stroke-linejoin="round"/>
    <path d="M 95.78047943115234 66.88465881347656 C 96.19256591796875 125.14866638183594 142.28701782226562 86.9207992553711 111.29949188232422 93.31673431396484" stroke-width="2" fill="none" stroke="rgb(0, 0, 0)" stroke-opacity="1.0" stroke-linecap="round" stroke-linejoin="round"/>
    <path d="M 163.94029235839844 106.02729034423828 C 121.06449127197266 117.26725769042969 210.78958129882812 43.68807601928711 156.3857879638672 96.6813735961914" stroke-width="2" fill="none" stroke="rgb(0, 0, 0)" stroke-opacity="1.0" stroke-linecap="round" stroke-linejoin="round"/>
    <path d="M 127.51996612548828 101.5505599975586 C 192.92556762695312 146.2126007080078 50.43852996826172 47.37727737426758 52.631378173828125 127.2081527709961" stroke-width="2" fill="none" stroke="rgb(0, 0, 0)" stroke-opacity="1.0" stroke-linecap="round" stroke-linejoin="round"/>
    <path d="M 57.97831344604492 114.21615600585938 C 106.91475677490234 79.65309143066406 -57.03411102294922 170.6514434814453 151.54942321777344 147.18917846679688" stroke-width="2" fill="none" stroke="rgb(0, 0, 0)" stroke-opacity="1.0" stroke-linecap="round" stroke-linejoin="round"/>
  </g>
</svg>
