<?xml version="1.0" ?>
<svg xmlns="http://www.w3.org/2000/svg" version="1.1" width="224" height="224">
  <defs/>
  <g>
    <path d="M 118.67118835449219 82.06755065917969 C 35.84788131713867 45.585365295410156 222.7372589111328 103.16365051269531 142.91943359375 95.8924789428711" stroke-width="2" fill="none" stroke="rgb(0, 0, 0)" stroke-opacity="1.0" stroke-linecap="round" stroke-linejoin="round"/>
    <path d="M 105.68865966796875 86.06934356689453 C 146.02944946289062 103.48353576660156 55.769962310791016 34.886112213134766 117.24299621582031 97.04688262939453" stroke-width="2" fill="none" stroke="rgb(0, 0, 0)" stroke-opacity="1.0" stroke-linecap="round" stroke-linejoin="round"/>
    <path d="M 136.53021240234375 91.18193817138672 C 103.78583526611328 90.11209106445312 191.8426971435547 113.57671356201172 119.88045501708984 110.2683334350586" stroke-width="2" fill="none" stroke="rgb(0, 0, 0)" stroke-opacity="1.0" stroke-linecap="round" stroke-linejoin="round"/>
    <path d="M 95.69740295410156 134.70448303222656 C 91.03204345703125 162.69212341308594 243.818115234375 158.4039764404297 117.73442077636719 139.70849609375" stroke-width="2" fill="none" stroke="rgb(0, 0, 0)" stroke-opacity="1.0" stroke-linecap="round" stroke-linejoin="round"/>
    <path d="M 123.18666076660156 100.766357421875 C 156.36373901367188 112.99686431884766 229.0093994140625 25.81728172302246 149.7705535888672 86.33238220214844" stroke-width="2" fill="none" stroke="rgb(0, 0, 0)" stroke-opacity="1.0" stroke-linecap="round" stroke-linejoin="round"/>
    <path d="M 180.75216674804688 131.0018310546875 C 241.6963653564453 156.6446075439453 16.557493209838867 87.61083984375 158.61334228515625 72.81901550292969" stroke-width="2" fill="none" stroke="rgb(0, 0, 0)" stroke-opacity="1.0" stroke-linecap="round" stroke-linejoin="round"/>
    <path d="M 141.609130859375 135.1938018798828 C 119.12355041503906 130.32342529296875 198.52044677734375 144.0027313232422 166.50454711914062 126.76777648925781" stroke-width="2" fill="none" stroke="rgb(0, 0, 0)" stroke-opacity="1.0" stroke-linecap="round" stroke-linejoin="round"/>
    <path d="M 109.59487915039062 119.04899597167969 C 245.46974182128906 136.7611541748047 137.70751953125 145.6537628173828 180.8407440185547 136.406982421875" stroke-width="2" fill="none" stroke="rgb(0, 0, 0)" stroke-opacity="1.0" stroke-linecap="round" stroke-linejoin="round"/>
    <path d="M 71.66442108154297 125.5987777709961 C 86.9163589477539 162.4687042236328 166.17652893066406 130.6730499267578 156.88430786132812 152.04014587402344" stroke-width="2" fill="none" stroke="rgb(0, 0, 0)" stroke-opacity="1.0" stroke-linecap="round" stroke-linejoin="round"/>
    <path d="M 154.5992431640625 98.61347198486328 C 124.9140396118164 55.76499557495117 176.31211853027344 110.15979766845703 133.29486083984375 94.60482788085938" stroke-width="2" fill="none" stroke="rgb(0, 0, 0)" stroke-opacity="1.0" stroke-linecap="round" stroke-linejoin="round"/>
    <path d="M 142.73497009277344 116.74092102050781 C 41.893341064453125 100.51395416259766 197.86399841308594 147.8955078125 128.4287109375 104.33657836914062" stroke-width="2" fill="none" stroke="rgb(0, 0, 0)" stroke-opacity="1.0" stroke-linecap="round" stroke-linejoin="round"/>
    <path d="M 144.2313690185547 116.58385467529297 C 126.56458282470703 112.25756072998047 181.96290588378906 98.9793930053711 156.42959594726562 110.81458282470703" stroke-width="2" fill="none" stroke="rgb(0, 0, 0)" stroke-opacity="1.0" stroke-linecap="round" stroke-linejoin="round"/>
    <path d="M 101.293701171875 78.30711364746094 C 96.53569030761719 124.56938171386719 137.72962951660156 75.59113311767578 109.55701446533203 98.98306274414062" stroke-width="2" fill="none" stroke="rgb(0, 0, 0)" stroke-opacity="1.0" stroke-linecap="round" stroke-linejoin="round"/>
    <path d="M 145.281494140625 115.07017517089844 C 143.83184814453125 94.0673828125 214.39828491210938 23.79849624633789 167.80799865722656 105.07940673828125" stroke-width="2" fill="none" stroke="rgb(0, 0, 0)" stroke-opacity="1.0" stroke-linecap="round" stroke-linejoin="round"/>
    <path d="M 116.57707977294922 105.61933135986328 C 210.4879608154297 146.25555419921875 49.809078216552734 51.50232696533203 53.65755844116211 123.15370178222656" stroke-width="2" fill="none" stroke="rgb(0, 0, 0)" stroke-opacity="1.0" stroke-linecap="round" stroke-linejoin="round"/>
    <path d="M 41.606300354003906 120.97897338867188 C 122.61780548095703 65.35218048095703 -63.694549560546875 170.3844757080078 143.11920166015625 149.22268676757812" stroke-width="2" fill="none" stroke="rgb(0, 0, 0)" stroke-opacity="1.0" stroke-linecap="round" stroke-linejoin="round"/>
  </g>
</svg>
