<?xml version="1.0" ?>
<svg xmlns="http://www.w3.org/2000/svg" version="1.1" width="224" height="224">
  <defs/>
  <g>
    <path d="M 120.39308166503906 118.61087036132812 C 27.142961502075195 73.24846649169922 256.9890441894531 84.25677490234375 146.82736206054688 95.80299377441406" stroke-width="2" fill="none" stroke="rgb(0, 0, 0)" stroke-opacity="1.0" stroke-linecap="round" stroke-linejoin="round"/>
    <path d="M 113.60993194580078 109.16082000732422 C 153.85910034179688 104.8791732788086 93.82051849365234 105.18862915039062 128.24803161621094 103.63365173339844" stroke-width="2" fill="none" stroke="rgb(0, 0, 0)" stroke-opacity="1.0" stroke-linecap="round" stroke-linejoin="round"/>
    <path d="M 128.2613067626953 136.8628387451172 C 115.62062072753906 153.35525512695312 106.0477294921875 116.36908721923828 118.33690643310547 138.11001586914062" stroke-width="2" fill="none" stroke="rgb(0, 0, 0)" stroke-opacity="1.0" stroke-linecap="round" stroke-linejoin="round"/>
    <path d="M 170.2800750732422 148.35385131835938 C 158.95326232910156 166.43649291992188 211.89413452148438 139.84950256347656 125.33331298828125 139.35943603515625" stroke-width="2" fill="none" stroke="rgb(0, 0, 0)" stroke-opacity="1.0" stroke-linecap="round" stroke-linejoin="round"/>
    <path d="M 107.65319061279297 109.70610809326172 C 134.2445831298828 160.73434448242188 220.27699279785156 90.28045654296875 112.37294006347656 84.75922393798828" stroke-width="2" fill="none" stroke="rgb(0, 0, 0)" stroke-opacity="1.0" stroke-linecap="round" stroke-linejoin="round"/>
    <path d="M 99.83435821533203 70.0540542602539 C 100.30388641357422 112.8007583618164 215.77513122558594 70.6875991821289 146.39891052246094 82.7634506225586" stroke-width="2" fill="none" stroke="rgb(0, 0, 0)" stroke-opacity="1.0" stroke-linecap="round" stroke-linejoin="round"/>
    <path d="M 66.62003326416016 137.56832885742188 C 62.34842300415039 168.4459991455078 215.9008331298828 137.96726989746094 186.63821411132812 157.03517150878906" stroke-width="2" fill="none" stroke="rgb(0, 0, 0)" stroke-opacity="1.0" stroke-linecap="round" stroke-linejoin="round"/>
    <path d="M 125.40251159667969 116.1896743774414 C 195.0227508544922 117.41989135742188 79.60360717773438 110.80999755859375 157.9609832763672 124.45092010498047" stroke-width="2" fill="none" stroke="rgb(0, 0, 0)" stroke-opacity="1.0" stroke-linecap="round" stroke-linejoin="round"/>
    <path d="M 151.7545623779297 121.85617065429688 C 60.6410026550293 106.31287384033203 179.14012145996094 119.42961883544922 138.796630859375 108.15792083740234" stroke-width="2" fill="none" stroke="rgb(0, 0, 0)" stroke-opacity="1.0" stroke-linecap="round" stroke-linejoin="round"/>
    <path d="M 183.67144775390625 64.1734619140625 C 128.5546112060547 109.32219696044922 228.55043029785156 15.0093355178833 163.24693298339844 103.89167022705078" stroke-width="2" fill="none" stroke="rgb(0, 0, 0)" stroke-opacity="1.0" stroke-linecap="round" stroke-linejoin="round"/>
    <path d="M 120.11103820800781 148.96066284179688 C 155.32261657714844 146.43162536621094 163.78392028808594 162.94166564941406 168.0628204345703 151.64366149902344" stroke-width="2" fill="none" stroke="rgb(0, 0, 0)" stroke-opacity="1.0" stroke-linecap="round" stroke-linejoin="round"/>
    <path d="M 113.34686279296875 123.91136169433594 C 298.26605224609375 156.1877899169922 83.69822692871094 151.45263671875 106.98185729980469 142.6296844482422" stroke-width="2" fill="none" stroke="rgb(0, 0, 0)" stroke-opacity="1.0" stroke-linecap="round" stroke-linejoin="round"/>
    <path d="M 155.74620056152344 87.14795684814453 C 127.39971923828125 105.13127136230469 193.36756896972656 108.11610412597656 95.1748275756836 69.28451538085938" stroke-width="2" fill="none" stroke="rgb(0, 0, 0)" stroke-opacity="1.0" stroke-linecap="round" stroke-linejoin="round"/>
    <path d="M 155.80442810058594 108.50589752197266 C 185.7825164794922 121.0191421508789 197.65634155273438 43.533634185791016 180.71963500976562 49.13496398925781" stroke-width="2" fill="none" stroke="rgb(0, 0, 0)" stroke-opacity="1.0" stroke-linecap="round" stroke-linejoin="round"/>
    <path d="M 95.42938995361328 84.710205078125 C 137.0462646484375 124.10099792480469 48.91070556640625 66.75675964355469 55.427005767822266 120.29957580566406" stroke-width="2" fill="none" stroke="rgb(0, 0, 0)" stroke-opacity="1.0" stroke-linecap="round" stroke-linejoin="round"/>
    <path d="M 87.10643768310547 91.81324768066406 C 52.232601165771484 95.42914581298828 9.168914794921875 157.6566162109375 86.6912612915039 149.91717529296875" stroke-width="2" fill="none" stroke="rgb(0, 0, 0)" stroke-opacity="1.0" stroke-linecap="round" stroke-linejoin="round"/>
  </g>
</svg>
