<?xml version="1.0" ?>
<svg xmlns="http://www.w3.org/2000/svg" version="1.1" width="224" height="224">
  <defs/>
  <g>
    <path d="M 139.07965087890625 119.98320007324219 C 6.722164154052734 57.24655532836914 237.5511016845703 72.60664367675781 152.11643981933594 88.82366943359375" stroke-width="2" fill="none" stroke="rgb(0, 0, 0)" stroke-opacity="1.0" stroke-linecap="round" stroke-linejoin="round"/>
    <path d="M 113.57646179199219 104.27152252197266 C 133.92788696289062 93.83294677734375 91.02471923828125 104.73939514160156 122.35246276855469 107.7514877319336" stroke-width="2" fill="none" stroke="rgb(0, 0, 0)" stroke-opacity="1.0" stroke-linecap="round" stroke-linejoin="round"/>
    <path d="M 130.65867614746094 127.43388366699219 C 163.29515075683594 114.25550842285156 100.97347259521484 93.37921142578125 147.9678955078125 110.98095703125" stroke-width="2" fill="none" stroke="rgb(0, 0, 0)" stroke-opacity="1.0" stroke-linecap="round" stroke-linejoin="round"/>
    <path d="M 78.4975357055664 132.65650939941406 C 90.4137191772461 156.00360107421875 122.03348541259766 134.5471649169922 105.04060363769531 149.2845001220703" stroke-width="2" fill="none" stroke="rgb(0, 0, 0)" stroke-opacity="1.0" stroke-linecap="round" stroke-linejoin="round"/>
    <path d="M 112.36695861816406 100.9967269897461 C 134.2763214111328 163.43948364257812 244.4228515625 10.047407150268555 147.058349609375 83.31103515625" stroke-width="2" fill="none" stroke="rgb(0, 0, 0)" stroke-opacity="1.0" stroke-linecap="round" stroke-linejoin="round"/>
    <path d="M 94.1286849975586 67.25772094726562 C 106.8603515625 131.35861206054688 132.617431640625 39.438541412353516 152.0201416015625 96.45142364501953" stroke-width="2" fill="none" stroke="rgb(0, 0, 0)" stroke-opacity="1.0" stroke-linecap="round" stroke-linejoin="round"/>
    <path d="M 102.09337615966797 123.9369125366211 C 103.23384857177734 172.80992126464844 269.5063171386719 76.17535400390625 146.58285522460938 101.2723159790039" stroke-width="2" fill="none" stroke="rgb(0, 0, 0)" stroke-opacity="1.0" stroke-linecap="round" stroke-linejoin="round"/>
    <path d="M 123.40213775634766 113.81574249267578 C 327.97198486328125 77.05669403076172 69.48099517822266 117.50920867919922 119.38798522949219 119.57231140136719" stroke-width="2" fill="none" stroke="rgb(0, 0, 0)" stroke-opacity="1.0" stroke-linecap="round" stroke-linejoin="round"/>
    <path d="M 180.3459930419922 142.35879516601562 C -52.25871276855469 113.11021423339844 324.23760986328125 199.8437042236328 154.54318237304688 145.5792236328125" stroke-width="2" fill="none" stroke="rgb(0, 0, 0)" stroke-opacity="1.0" stroke-linecap="round" stroke-linejoin="round"/>
    <path d="M 146.67173767089844 89.49604797363281 C 114.39022064208984 77.92398834228516 187.11497497558594 115.70230102539062 154.62831115722656 112.0015640258789" stroke-width="2" fill="none" stroke="rgb(0, 0, 0)" stroke-opacity="1.0" stroke-linecap="round" stroke-linejoin="round"/>
    <path d="M 157.52980041503906 133.70458984375 C 78.23950958251953 110.30874633789062 173.96786499023438 119.22085571289062 127.31413269042969 119.98995971679688" stroke-width="2" fill="none" stroke="rgb(0, 0, 0)" stroke-opacity="1.0" stroke-linecap="round" stroke-linejoin="round"/>
    <path d="M 165.3623809814453 94.52324676513672 C 96.01026916503906 142.1939697265625 143.5938262939453 101.35001373291016 114.02564239501953 119.71553802490234" stroke-width="2" fill="none" stroke="rgb(0, 0, 0)" stroke-opacity="1.0" stroke-linecap="round" stroke-linejoin="round"/>
    <path d="M 95.99089813232422 74.45917510986328 C 109.61180877685547 101.2118148803711 151.84326171875 91.4067611694336 103.24610900878906 73.67645263671875" stroke-width="2" fill="none" stroke="rgb(0, 0, 0)" stroke-opacity="1.0" stroke-linecap="round" stroke-linejoin="round"/>
    <path d="M 154.44741821289062 84.99520111083984 C 171.50555419921875 88.6630859375 204.32510375976562 34.357242584228516 176.04002380371094 81.32830810546875" stroke-width="2" fill="none" stroke="rgb(0, 0, 0)" stroke-opacity="1.0" stroke-linecap="round" stroke-linejoin="round"/>
    <path d="M 92.98267364501953 65.52809143066406 C 188.4541473388672 117.16683197021484 45.50067138671875 59.88524627685547 54.5255126953125 116.04336547851562" stroke-width="2" fill="none" stroke="rgb(0, 0, 0)" stroke-opacity="1.0" stroke-linecap="round" stroke-linejoin="round"/>
    <path d="M 38.74158477783203 123.5557632446289 C 104.5428237915039 60.21954345703125 -46.24862289428711 167.7540283203125 138.6405487060547 147.05831909179688" stroke-width="2" fill="none" stroke="rgb(0, 0, 0)" stroke-opacity="1.0" stroke-linecap="round" stroke-linejoin="round"/>
  </g>
</svg>
