<?xml version="1.0" ?>
<svg xmlns="http://www.w3.org/2000/svg" version="1.1" width="224" height="224">
  <defs/>
  <g>
    <path d="M 126.3062744140625 126.23902893066406 C 19.2648983001709 69.97325897216797 254.30226135253906 84.74574279785156 142.14476013183594 95.01139831542969" stroke-width="2" fill="none" stroke="rgb(0, 0, 0)" stroke-opacity="1.0" stroke-linecap="round" stroke-linejoin="round"/>
    <path d="M 116.72730255126953 111.28740692138672 C 160.43780517578125 101.7677993774414 91.98989868164062 115.32801055908203 125.57769775390625 105.54878997802734" stroke-width="2" fill="none" stroke="rgb(0, 0, 0)" stroke-opacity="1.0" stroke-linecap="round" stroke-linejoin="round"/>
    <path d="M 136.3132781982422 140.8242950439453 C 109.02056884765625 158.5782928466797 109.5350112915039 115.90361022949219 106.96000671386719 136.71466064453125" stroke-width="2" fill="none" stroke="rgb(0, 0, 0)" stroke-opacity="1.0" stroke-linecap="round" stroke-linejoin="round"/>
    <path d="M 165.81878662109375 147.4114227294922 C 150.10818481445312 166.3050079345703 213.41485595703125 141.127197265625 129.4284210205078 131.95643615722656" stroke-width="2" fill="none" stroke="rgb(0, 0, 0)" stroke-opacity="1.0" stroke-linecap="round" stroke-linejoin="round"/>
    <path d="M 115.89824676513672 119.20225524902344 C 143.6625518798828 155.3356475830078 226.98927307128906 95.13591003417969 103.5716552734375 80.28682708740234" stroke-width="2" fill="none" stroke="rgb(0, 0, 0)" stroke-opacity="1.0" stroke-linecap="round" stroke-linejoin="round"/>
    <path d="M 96.75656127929688 66.02456665039062 C 94.76217651367188 116.95601654052734 230.06585693359375 71.53672790527344 149.61715698242188 80.18549346923828" stroke-width="2" fill="none" stroke="rgb(0, 0, 0)" stroke-opacity="1.0" stroke-linecap="round" stroke-linejoin="round"/>
    <path d="M 54.45289611816406 135.68896484375 C 53.80080032348633 163.9178466796875 185.71966552734375 133.76873779296875 165.69464111328125 153.9388885498047" stroke-width="2" fill="none" stroke="rgb(0, 0, 0)" stroke-opacity="1.0" stroke-linecap="round" stroke-linejoin="round"/>
    <path d="M 111.74510955810547 114.96414947509766 C 198.53253173828125 123.32384490966797 76.00296020507812 117.00120544433594 154.3062286376953 126.8955307006836" stroke-width="2" fill="none" stroke="rgb(0, 0, 0)" stroke-opacity="1.0" stroke-linecap="round" stroke-linejoin="round"/>
    <path d="M 137.73516845703125 122.42909240722656 C 69.90442657470703 107.8347396850586 170.07504272460938 117.10920715332031 137.1853485107422 108.45001220703125" stroke-width="2" fill="none" stroke="rgb(0, 0, 0)" stroke-opacity="1.0" stroke-linecap="round" stroke-linejoin="round"/>
    <path d="M 179.69845581054688 63.89748764038086 C 124.03922271728516 105.7972183227539 236.20932006835938 10.875513076782227 166.25967407226562 100.2854232788086" stroke-width="2" fill="none" stroke="rgb(0, 0, 0)" stroke-opacity="1.0" stroke-linecap="round" stroke-linejoin="round"/>
    <path d="M 113.59251403808594 148.3811492919922 C 155.9687042236328 146.94973754882812 144.0274658203125 158.3734588623047 146.96609497070312 150.36758422851562" stroke-width="2" fill="none" stroke="rgb(0, 0, 0)" stroke-opacity="1.0" stroke-linecap="round" stroke-linejoin="round"/>
    <path d="M 117.31146240234375 116.0980453491211 C 276.6228332519531 158.26065063476562 82.31593322753906 147.48214721679688 95.71839141845703 133.271484375" stroke-width="2" fill="none" stroke="rgb(0, 0, 0)" stroke-opacity="1.0" stroke-linecap="round" stroke-linejoin="round"/>
    <path d="M 156.94329833984375 89.12510681152344 C 113.60513305664062 113.94914245605469 178.3334503173828 102.97732543945312 96.26783752441406 64.65594482421875" stroke-width="2" fill="none" stroke="rgb(0, 0, 0)" stroke-opacity="1.0" stroke-linecap="round" stroke-linejoin="round"/>
    <path d="M 157.58506774902344 107.81758117675781 C 184.9898223876953 119.70132446289062 200.82090759277344 37.061134338378906 192.78375244140625 37.85657501220703" stroke-width="2" fill="none" stroke="rgb(0, 0, 0)" stroke-opacity="1.0" stroke-linecap="round" stroke-linejoin="round"/>
    <path d="M 95.22595977783203 85.19900512695312 C 135.05963134765625 132.8538360595703 51.232120513916016 60.88676834106445 55.52842330932617 110.47577667236328" stroke-width="2" fill="none" stroke="rgb(0, 0, 0)" stroke-opacity="1.0" stroke-linecap="round" stroke-linejoin="round"/>
    <path d="M 82.48127746582031 84.35309600830078 C 49.3828239440918 88.28010559082031 9.7118558883667 157.8374786376953 83.41046905517578 145.0023193359375" stroke-width="2" fill="none" stroke="rgb(0, 0, 0)" stroke-opacity="1.0" stroke-linecap="round" stroke-linejoin="round"/>
  </g>
</svg>
