<?xml version="1.0" ?>
<svg xmlns="http://www.w3.org/2000/svg" version="1.1" width="224" height="224">
  <defs/>
  <g>
    <path d="M 156.7920379638672 114.71000671386719 C -5.739604949951172 35.94419479370117 226.0301971435547 88.22247314453125 154.6169891357422 72.26264190673828" stroke-width="2" fill="none" stroke="rgb(0, 0, 0)" stroke-opacity="1.0" stroke-linecap="round" stroke-linejoin="round"/>
    <path d="M 118.02621459960938 95.73046875 C 120.34135437011719 96.8097152709961 76.6837158203125 70.5176773071289 117.22463989257812 107.51058959960938" stroke-width="2" fill="none" stroke="rgb(0, 0, 0)" stroke-opacity="1.0" stroke-linecap="round" stroke-linejoin="round"/>
    <path d="M 150.39520263671875 122.62084197998047 C 194.33021545410156 117.57431030273438 129.38922119140625 93.11891174316406 162.03939819335938 101.16795349121094" stroke-width="2" fill="none" stroke="rgb(0, 0, 0)" stroke-opacity="1.0" stroke-linecap="round" stroke-linejoin="round"/>
    <path d="M 43.036468505859375 140.38963317871094 C 59.58875274658203 150.60122680664062 143.4633331298828 155.66775512695312 46.9557991027832 144.09970092773438" stroke-width="2" fill="none" stroke="rgb(0, 0, 0)" stroke-opacity="1.0" stroke-linecap="round" stroke-linejoin="round"/>
    <path d="M 131.53575134277344 109.93317413330078 C 164.7780303955078 163.6295623779297 224.6859893798828 12.100414276123047 167.20278930664062 74.93384552001953" stroke-width="2" fill="none" stroke="rgb(0, 0, 0)" stroke-opacity="1.0" stroke-linecap="round" stroke-linejoin="round"/>
    <path d="M 97.23279571533203 69.79977416992188 C 115.67147827148438 137.8494415283203 153.21595764160156 44.59640121459961 165.52259826660156 90.7275390625" stroke-width="2" fill="none" stroke="rgb(0, 0, 0)" stroke-opacity="1.0" stroke-linecap="round" stroke-linejoin="round"/>
    <path d="M 69.06232452392578 129.4553985595703 C 57.677162170410156 161.25376892089844 296.14007568359375 131.042724609375 156.78167724609375 135.90771484375" stroke-width="2" fill="none" stroke="rgb(0, 0, 0)" stroke-opacity="1.0" stroke-linecap="round" stroke-linejoin="round"/>
    <path d="M 152.98587036132812 107.90819549560547 C 260.642578125 110.55038452148438 31.510116577148438 107.87247467041016 86.71756744384766 103.52152252197266" stroke-width="2" fill="none" stroke="rgb(0, 0, 0)" stroke-opacity="1.0" stroke-linecap="round" stroke-linejoin="round"/>
    <path d="M 166.8621826171875 141.38546752929688 C -82.78047943115234 105.9472427368164 323.9530944824219 176.452880859375 189.04495239257812 142.24749755859375" stroke-width="2" fill="none" stroke="rgb(0, 0, 0)" stroke-opacity="1.0" stroke-linecap="round" stroke-linejoin="round"/>
    <path d="M 163.27622985839844 108.65145111083984 C 111.51103973388672 126.63420867919922 193.10165405273438 90.10614776611328 152.36856079101562 103.84370422363281" stroke-width="2" fill="none" stroke="rgb(0, 0, 0)" stroke-opacity="1.0" stroke-linecap="round" stroke-linejoin="round"/>
    <path d="M 138.5679931640625 135.49725341796875 C 93.45625305175781 96.04824829101562 162.978515625 141.4476318359375 116.91942596435547 120.45453643798828" stroke-width="2" fill="none" stroke="rgb(0, 0, 0)" stroke-opacity="1.0" stroke-linecap="round" stroke-linejoin="round"/>
    <path d="M 163.0232696533203 125.53340911865234 C 83.02812957763672 107.14803314208984 174.2281036376953 95.38858032226562 136.14723205566406 101.83023071289062" stroke-width="2" fill="none" stroke="rgb(0, 0, 0)" stroke-opacity="1.0" stroke-linecap="round" stroke-linejoin="round"/>
    <path d="M 97.76502990722656 77.85408020019531 C 104.01412200927734 124.18911743164062 165.291259765625 90.67316436767578 101.16998291015625 76.73419952392578" stroke-width="2" fill="none" stroke="rgb(0, 0, 0)" stroke-opacity="1.0" stroke-linecap="round" stroke-linejoin="round"/>
    <path d="M 157.32481384277344 79.99754333496094 C 165.6425018310547 99.52064514160156 216.07772827148438 39.05306625366211 174.40574645996094 98.60582733154297" stroke-width="2" fill="none" stroke="rgb(0, 0, 0)" stroke-opacity="1.0" stroke-linecap="round" stroke-linejoin="round"/>
    <path d="M 99.34880065917969 69.39437103271484 C 230.8024444580078 109.77442169189453 36.38440704345703 63.918617248535156 48.71012496948242 115.70059204101562" stroke-width="2" fill="none" stroke="rgb(0, 0, 0)" stroke-opacity="1.0" stroke-linecap="round" stroke-linejoin="round"/>
    <path d="M 40.732879638671875 117.18759155273438 C 113.14676666259766 51.57632827758789 -56.9854850769043 171.69021606445312 129.96949768066406 151.84947204589844" stroke-width="2" fill="none" stroke="rgb(0, 0, 0)" stroke-opacity="1.0" stroke-linecap="round" stroke-linejoin="round"/>
  </g>
</svg>
