<?xml version="1.0" ?>
<svg xmlns="http://www.w3.org/2000/svg" version="1.1" width="224" height="224">
  <defs/>
  <g>
    <path d="M 121.69539642333984 91.5207748413086 C 30.14350128173828 29.72519874572754 217.5560302734375 106.59053802490234 157.23085021972656 97.7889175415039" stroke-width="2" fill="none" stroke="rgb(0, 0, 0)" stroke-opacity="1.0" stroke-linecap="round" stroke-linejoin="round"/>
    <path d="M 117.15391540527344 90.70470428466797 C 106.2170639038086 103.58982849121094 75.7944107055664 43.628387451171875 129.9159393310547 76.74601745605469" stroke-width="2" fill="none" stroke="rgb(0, 0, 0)" stroke-opacity="1.0" stroke-linecap="round" stroke-linejoin="round"/>
    <path d="M 146.97085571289062 102.48419189453125 C 127.66046905517578 107.27659606933594 158.84878540039062 90.34414672851562 154.33352661132812 113.4815902709961" stroke-width="2" fill="none" stroke="rgb(0, 0, 0)" stroke-opacity="1.0" stroke-linecap="round" stroke-linejoin="round"/>
    <path d="M 64.83938598632812 131.8211212158203 C 71.18246459960938 162.1599884033203 218.91445922851562 145.4627685546875 91.12140655517578 135.74044799804688" stroke-width="2" fill="none" stroke="rgb(0, 0, 0)" stroke-opacity="1.0" stroke-linecap="round" stroke-linejoin="round"/>
    <path d="M 164.22987365722656 107.41900634765625 C 148.0134735107422 153.1201934814453 214.99197387695312 15.045879364013672 162.2172088623047 78.67169189453125" stroke-width="2" fill="none" stroke="rgb(0, 0, 0)" stroke-opacity="1.0" stroke-linecap="round" stroke-linejoin="round"/>
    <path d="M 103.80632781982422 95.44586944580078 C 157.6073760986328 121.09830474853516 77.99109649658203 88.19571685791016 163.50775146484375 76.34870147705078" stroke-width="2" fill="none" stroke="rgb(0, 0, 0)" stroke-opacity="1.0" stroke-linecap="round" stroke-linejoin="round"/>
    <path d="M 109.21540832519531 148.0675506591797 C 82.30567169189453 133.55926513671875 255.99050903320312 167.71771240234375 157.5591583251953 136.7529754638672" stroke-width="2" fill="none" stroke="rgb(0, 0, 0)" stroke-opacity="1.0" stroke-linecap="round" stroke-linejoin="round"/>
    <path d="M 104.35691833496094 110.58391571044922 C 253.63070678710938 148.46957397460938 82.54872131347656 100.77523803710938 112.19322204589844 115.81080627441406" stroke-width="2" fill="none" stroke="rgb(0, 0, 0)" stroke-opacity="1.0" stroke-linecap="round" stroke-linejoin="round"/>
    <path d="M 106.0660400390625 151.0662078857422 C 12.215276718139648 126.76143646240234 270.7013854980469 131.28445434570312 195.81259155273438 137.4666290283203" stroke-width="2" fill="none" stroke="rgb(0, 0, 0)" stroke-opacity="1.0" stroke-linecap="round" stroke-linejoin="round"/>
    <path d="M 167.70301818847656 90.88224792480469 C 136.53790283203125 78.26091766357422 183.39308166503906 106.9279556274414 143.32872009277344 108.91168212890625" stroke-width="2" fill="none" stroke="rgb(0, 0, 0)" stroke-opacity="1.0" stroke-linecap="round" stroke-linejoin="round"/>
    <path d="M 152.95265197753906 125.59549713134766 C 114.2080078125 115.06714630126953 195.6380615234375 146.26806640625 134.40011596679688 108.59539031982422" stroke-width="2" fill="none" stroke="rgb(0, 0, 0)" stroke-opacity="1.0" stroke-linecap="round" stroke-linejoin="round"/>
    <path d="M 125.71868896484375 119.72672271728516 C 97.8597640991211 122.43790435791016 195.83583068847656 103.75631713867188 168.38783264160156 102.6276626586914" stroke-width="2" fill="none" stroke="rgb(0, 0, 0)" stroke-opacity="1.0" stroke-linecap="round" stroke-linejoin="round"/>
    <path d="M 95.52273559570312 70.61016082763672 C 108.27124786376953 123.7284927368164 148.31214904785156 96.73107147216797 110.50032043457031 103.90113067626953" stroke-width="2" fill="none" stroke="rgb(0, 0, 0)" stroke-opacity="1.0" stroke-linecap="round" stroke-linejoin="round"/>
    <path d="M 161.33775329589844 86.2064437866211 C 172.7248077392578 90.53761291503906 193.17059326171875 43.65320587158203 175.19728088378906 98.71006774902344" stroke-width="2" fill="none" stroke="rgb(0, 0, 0)" stroke-opacity="1.0" stroke-linecap="round" stroke-linejoin="round"/>
    <path d="M 98.18204498291016 69.84109497070312 C 190.0349578857422 127.39990234375 33.45931625366211 66.84532165527344 54.610164642333984 124.60686492919922" stroke-width="2" fill="none" stroke="rgb(0, 0, 0)" stroke-opacity="1.0" stroke-linecap="round" stroke-linejoin="round"/>
    <path d="M 37.84662628173828 132.81126403808594 C 87.19668579101562 78.31783294677734 -12.85820198059082 155.30844116210938 100.00961303710938 152.33734130859375" stroke-width="2" fill="none" stroke="rgb(0, 0, 0)" stroke-opacity="1.0" stroke-linecap="round" stroke-linejoin="round"/>
  </g>
</svg>
