<?xml version="1.0" ?>
<svg xmlns="http://www.w3.org/2000/svg" version="1.1" width="224" height="224">
  <defs/>
  <g>
    <path d="M 124.30166625976562 106.28268432617188 C 34.896724700927734 33.87095260620117 213.1810760498047 106.26921844482422 157.20040893554688 106.4489974975586" stroke-width="2" fill="none" stroke="rgb(0, 0, 0)" stroke-opacity="1.0" stroke-linecap="round" stroke-linejoin="round"/>
    <path d="M 123.89813995361328 90.2018814086914 C 113.1462173461914 97.84577178955078 73.13693237304688 50.00112533569336 125.88261413574219 83.5961685180664" stroke-width="2" fill="none" stroke="rgb(0, 0, 0)" stroke-opacity="1.0" stroke-linecap="round" stroke-linejoin="round"/>
    <path d="M 149.75486755371094 102.5565414428711 C 138.74710083007812 114.82140350341797 132.04318237304688 87.93941497802734 162.03219604492188 117.53719329833984" stroke-width="2" fill="none" stroke="rgb(0, 0, 0)" stroke-opacity="1.0" stroke-linecap="round" stroke-linejoin="round"/>
    <path d="M 64.30866241455078 134.43280029296875 C 65.59175109863281 159.49273681640625 209.68106079101562 138.3683624267578 91.34211730957031 130.99244689941406" stroke-width="2" fill="none" stroke="rgb(0, 0, 0)" stroke-opacity="1.0" stroke-linecap="round" stroke-linejoin="round"/>
    <path d="M 165.06817626953125 111.83009338378906 C 142.20285034179688 156.00936889648438 225.54322814941406 20.69649314880371 162.6123504638672 79.53023529052734" stroke-width="2" fill="none" stroke="rgb(0, 0, 0)" stroke-opacity="1.0" stroke-linecap="round" stroke-linejoin="round"/>
    <path d="M 105.10980987548828 90.53150177001953 C 157.5010528564453 118.95063781738281 81.52067565917969 87.80249786376953 169.135009765625 84.44645690917969" stroke-width="2" fill="none" stroke="rgb(0, 0, 0)" stroke-opacity="1.0" stroke-linecap="round" stroke-linejoin="round"/>
    <path d="M 110.88874053955078 122.45787811279297 C 89.37625885009766 144.2628936767578 284.91339111328125 194.46971130371094 161.00628662109375 140.4176788330078" stroke-width="2" fill="none" stroke="rgb(0, 0, 0)" stroke-opacity="1.0" stroke-linecap="round" stroke-linejoin="round"/>
    <path d="M 125.81761932373047 116.6890640258789 C 249.902099609375 146.70970153808594 74.9229965209961 104.09135437011719 115.49639129638672 109.3210220336914" stroke-width="2" fill="none" stroke="rgb(0, 0, 0)" stroke-opacity="1.0" stroke-linecap="round" stroke-linejoin="round"/>
    <path d="M 102.93003845214844 152.55862426757812 C -7.628074645996094 135.1019287109375 272.1919250488281 161.79505920410156 200.77288818359375 149.45790100097656" stroke-width="2" fill="none" stroke="rgb(0, 0, 0)" stroke-opacity="1.0" stroke-linecap="round" stroke-linejoin="round"/>
    <path d="M 163.89259338378906 102.13236236572266 C 139.14413452148438 96.98579406738281 182.5550079345703 121.43290710449219 141.16358947753906 106.56594848632812" stroke-width="2" fill="none" stroke="rgb(0, 0, 0)" stroke-opacity="1.0" stroke-linecap="round" stroke-linejoin="round"/>
    <path d="M 155.05467224121094 127.90685272216797 C 124.2218017578125 121.56729888916016 192.55039978027344 154.37266540527344 129.11273193359375 109.6553726196289" stroke-width="2" fill="none" stroke="rgb(0, 0, 0)" stroke-opacity="1.0" stroke-linecap="round" stroke-linejoin="round"/>
    <path d="M 130.24008178710938 119.31969451904297 C 92.5026626586914 115.65233612060547 201.18690490722656 107.56122589111328 159.45286560058594 97.02909088134766" stroke-width="2" fill="none" stroke="rgb(0, 0, 0)" stroke-opacity="1.0" stroke-linecap="round" stroke-linejoin="round"/>
    <path d="M 100.85120391845703 80.70626068115234 C 99.97325897216797 117.0734634399414 167.28591918945312 97.0723648071289 112.8622055053711 95.09587860107422" stroke-width="2" fill="none" stroke="rgb(0, 0, 0)" stroke-opacity="1.0" stroke-linecap="round" stroke-linejoin="round"/>
    <path d="M 158.88699340820312 89.2411880493164 C 177.6214599609375 92.22663116455078 182.23985290527344 53.80988693237305 171.921630859375 100.20919036865234" stroke-width="2" fill="none" stroke="rgb(0, 0, 0)" stroke-opacity="1.0" stroke-linecap="round" stroke-linejoin="round"/>
    <path d="M 105.57096862792969 72.80964660644531 C 198.6099090576172 123.92695617675781 40.84767532348633 68.98622131347656 53.48737716674805 115.80817413330078" stroke-width="2" fill="none" stroke="rgb(0, 0, 0)" stroke-opacity="1.0" stroke-linecap="round" stroke-linejoin="round"/>
    <path d="M 37.817665100097656 127.85335540771484 C 89.46102142333984 76.13035583496094 -15.313450813293457 156.64117431640625 89.67659759521484 153.52589416503906" stroke-width="2" fill="none" stroke="rgb(0, 0, 0)" stroke-opacity="1.0" stroke-linecap="round" stroke-linejoin="round"/>
  </g>
</svg>
