<?xml version="1.0" ?>
<svg xmlns="http://www.w3.org/2000/svg" version="1.1" width="224" height="224">
  <defs/>
  <g>
    <path d="M 114.77430725097656 84.8431167602539 C 26.54949378967285 44.14946365356445 204.8114471435547 95.34336853027344 155.55380249023438 87.51080322265625" stroke-width="2" fill="none" stroke="rgb(0, 0, 0)" stroke-opacity="1.0" stroke-linecap="round" stroke-linejoin="round"/>
    <path d="M 112.41043853759766 72.72457885742188 C 177.02828979492188 119.21211242675781 44.73728942871094 34.2111701965332 112.4824447631836 95.10838317871094" stroke-width="2" fill="none" stroke="rgb(0, 0, 0)" stroke-opacity="1.0" stroke-linecap="round" stroke-linejoin="round"/>
    <path d="M 143.29173278808594 94.00313568115234 C 102.60892486572266 91.40044403076172 216.4354248046875 121.09673309326172 126.15078735351562 116.52384948730469" stroke-width="2" fill="none" stroke="rgb(0, 0, 0)" stroke-opacity="1.0" stroke-linecap="round" stroke-linejoin="round"/>
    <path d="M 108.14717102050781 140.31707763671875 C 80.05364990234375 142.03416442871094 259.38726806640625 163.13668823242188 125.8722152709961 152.287353515625" stroke-width="2" fill="none" stroke="rgb(0, 0, 0)" stroke-opacity="1.0" stroke-linecap="round" stroke-linejoin="round"/>
    <path d="M 156.26119995117188 107.17855072021484 C 156.9144744873047 133.048583984375 205.75689697265625 24.621612548828125 168.85293579101562 75.058349609375" stroke-width="2" fill="none" stroke="rgb(0, 0, 0)" stroke-opacity="1.0" stroke-linecap="round" stroke-linejoin="round"/>
    <path d="M 175.88282775878906 131.3476104736328 C 238.77528381347656 142.58009338378906 6.270134449005127 94.05354309082031 166.22061157226562 75.6937484741211" stroke-width="2" fill="none" stroke="rgb(0, 0, 0)" stroke-opacity="1.0" stroke-linecap="round" stroke-linejoin="round"/>
    <path d="M 126.6038818359375 140.97169494628906 C 84.74116516113281 98.66382598876953 149.7479248046875 139.56747436523438 113.05418395996094 122.31522369384766" stroke-width="2" fill="none" stroke="rgb(0, 0, 0)" stroke-opacity="1.0" stroke-linecap="round" stroke-linejoin="round"/>
    <path d="M 141.80332946777344 142.92373657226562 C 219.43414306640625 147.8651123046875 134.09051513671875 162.2569580078125 145.2760009765625 151.06776428222656" stroke-width="2" fill="none" stroke="rgb(0, 0, 0)" stroke-opacity="1.0" stroke-linecap="round" stroke-linejoin="round"/>
    <path d="M 70.49365997314453 128.19309997558594 C 89.11886596679688 169.68089294433594 196.64846801757812 122.24787902832031 182.97853088378906 152.9082489013672" stroke-width="2" fill="none" stroke="rgb(0, 0, 0)" stroke-opacity="1.0" stroke-linecap="round" stroke-linejoin="round"/>
    <path d="M 156.58502197265625 98.34671020507812 C 139.52716064453125 67.48031616210938 183.12271118164062 102.76983642578125 132.94161987304688 104.74368286132812" stroke-width="2" fill="none" stroke="rgb(0, 0, 0)" stroke-opacity="1.0" stroke-linecap="round" stroke-linejoin="round"/>
    <path d="M 165.7591552734375 100.05071258544922 C 49.2907829284668 125.00948333740234 190.54530334472656 106.13019561767578 141.27439880371094 123.91561889648438" stroke-width="2" fill="none" stroke="rgb(0, 0, 0)" stroke-opacity="1.0" stroke-linecap="round" stroke-linejoin="round"/>
    <path d="M 145.04495239257812 125.0583267211914 C 129.77255249023438 112.45394897460938 200.34156799316406 120.55061340332031 130.467529296875 114.62052917480469" stroke-width="2" fill="none" stroke="rgb(0, 0, 0)" stroke-opacity="1.0" stroke-linecap="round" stroke-linejoin="round"/>
    <path d="M 88.78440856933594 69.85831451416016 C 91.56515502929688 133.54824829101562 147.2903594970703 91.42286682128906 103.4610595703125 102.26069641113281" stroke-width="2" fill="none" stroke="rgb(0, 0, 0)" stroke-opacity="1.0" stroke-linecap="round" stroke-linejoin="round"/>
    <path d="M 142.28839111328125 97.90068817138672 C 163.00962829589844 124.30397033691406 205.1547393798828 36.3759651184082 158.47393798828125 94.68866729736328" stroke-width="2" fill="none" stroke="rgb(0, 0, 0)" stroke-opacity="1.0" stroke-linecap="round" stroke-linejoin="round"/>
    <path d="M 136.6721954345703 123.82437133789062 C 198.58912658691406 144.53726196289062 55.217079162597656 55.4579963684082 47.005821228027344 124.51542663574219" stroke-width="2" fill="none" stroke="rgb(0, 0, 0)" stroke-opacity="1.0" stroke-linecap="round" stroke-linejoin="round"/>
    <path d="M 53.821311950683594 111.74807739257812 C 120.50386047363281 64.91120910644531 -63.26909637451172 164.77279663085938 133.0664825439453 151.67930603027344" stroke-width="2" fill="none" stroke="rgb(0, 0, 0)" stroke-opacity="1.0" stroke-linecap="round" stroke-linejoin="round"/>
  </g>
</svg>
