<?xml version="1.0" ?>
<svg xmlns="http://www.w3.org/2000/svg" version="1.1" width="224" height="224">
  <defs/>
  <g>
    <path d="M 89.0277328491211 104.26152038574219 C 47.80618667602539 126.96700286865234 85.76300048828125 91.44593811035156 95.8951644897461 113.43460845947266" stroke-width="2" fill="none" stroke="rgb(0, 0, 0)" stroke-opacity="1.0" stroke-linecap="round" stroke-linejoin="round"/>
    <path d="M 105.3021469116211 139.71688842773438 C 152.80819702148438 126.20245361328125 121.9640121459961 144.89732360839844 95.5916976928711 146.26930236816406" stroke-width="2" fill="none" stroke="rgb(0, 0, 0)" stroke-opacity="1.0" stroke-linecap="round" stroke-linejoin="round"/>
    <path d="M 153.8727569580078 127.54828643798828 C 100.61073303222656 128.304931640625 111.95407104492188 118.10940551757812 107.743408203125 132.6727752685547" stroke-width="2" fill="none" stroke="rgb(0, 0, 0)" stroke-opacity="1.0" stroke-linecap="round" stroke-linejoin="round"/>
    <path d="M 166.31297302246094 140.39370727539062 C 160.52320861816406 132.69244384765625 179.93304443359375 106.95515441894531 120.97674560546875 111.74525451660156" stroke-width="2" fill="none" stroke="rgb(0, 0, 0)" stroke-opacity="1.0" stroke-linecap="round" stroke-linejoin="round"/>
    <path d="M 118.07207489013672 116.6353988647461 C 124.96595764160156 90.15449523925781 123.24931335449219 87.86073303222656 116.16520690917969 67.78569030761719" stroke-width="2" fill="none" stroke="rgb(0, 0, 0)" stroke-opacity="1.0" stroke-linecap="round" stroke-linejoin="round"/>
    <path d="M 114.89717102050781 70.15343475341797 C 102.45964813232422 78.51644134521484 102.78089141845703 83.23870849609375 93.9732666015625 99.66456604003906" stroke-width="2" fill="none" stroke="rgb(0, 0, 0)" stroke-opacity="1.0" stroke-linecap="round" stroke-linejoin="round"/>
    <path d="M 41.91230392456055 148.00538635253906 C 81.25697326660156 153.71604919433594 103.65174865722656 156.839599609375 101.201171875 145.27377319335938" stroke-width="2" fill="none" stroke="rgb(0, 0, 0)" stroke-opacity="1.0" stroke-linecap="round" stroke-linejoin="round"/>
    <path d="M 156.66883850097656 151.1365509033203 C 158.1867218017578 121.15874481201172 121.8286361694336 144.88768005371094 112.5724105834961 117.56803131103516" stroke-width="2" fill="none" stroke="rgb(0, 0, 0)" stroke-opacity="1.0" stroke-linecap="round" stroke-linejoin="round"/>
    <path d="M 101.41111755371094 129.7133026123047 C 114.56348419189453 112.5516357421875 112.5690689086914 145.28204345703125 103.4054183959961 124.2015609741211" stroke-width="2" fill="none" stroke="rgb(0, 0, 0)" stroke-opacity="1.0" stroke-linecap="round" stroke-linejoin="round"/>
    <path d="M 175.32818603515625 64.60725402832031 C 163.7972412109375 54.22650909423828 179.78414916992188 81.04788970947266 156.49415588378906 93.47146606445312" stroke-width="2" fill="none" stroke="rgb(0, 0, 0)" stroke-opacity="1.0" stroke-linecap="round" stroke-linejoin="round"/>
    <path d="M 168.70684814453125 129.5432891845703 C 193.4246368408203 153.5092315673828 158.5813446044922 151.9100341796875 177.344970703125 149.2718963623047" stroke-width="2" fill="none" stroke="rgb(0, 0, 0)" stroke-opacity="1.0" stroke-linecap="round" stroke-linejoin="round"/>
    <path d="M 61.8802604675293 127.24881744384766 C 94.50330352783203 152.04898071289062 42.7370491027832 121.42464447021484 82.49531555175781 147.93206787109375" stroke-width="2" fill="none" stroke="rgb(0, 0, 0)" stroke-opacity="1.0" stroke-linecap="round" stroke-linejoin="round"/>
    <path d="M 108.4199447631836 107.79678344726562 C 122.39773559570312 105.154052734375 107.61119842529297 100.46556854248047 113.79042053222656 70.76145935058594" stroke-width="2" fill="none" stroke="rgb(0, 0, 0)" stroke-opacity="1.0" stroke-linecap="round" stroke-linejoin="round"/>
    <path d="M 160.383056640625 116.96765899658203 C 190.69554138183594 72.1496810913086 171.92550659179688 86.48638916015625 182.44554138183594 69.68024444580078" stroke-width="2" fill="none" stroke="rgb(0, 0, 0)" stroke-opacity="1.0" stroke-linecap="round" stroke-linejoin="round"/>
    <path d="M 79.244873046875 106.6821517944336 C 57.586605072021484 96.45331573486328 78.32957458496094 100.43959045410156 61.04417037963867 95.23686218261719" stroke-width="2" fill="none" stroke="rgb(0, 0, 0)" stroke-opacity="1.0" stroke-linecap="round" stroke-linejoin="round"/>
    <path d="M 40.693389892578125 117.2900161743164 C 71.91621398925781 109.3226547241211 36.87445068359375 108.9327392578125 37.193485260009766 130.1177215576172" stroke-width="2" fill="none" stroke="rgb(0, 0, 0)" stroke-opacity="1.0" stroke-linecap="round" stroke-linejoin="round"/>
  </g>
</svg>
