<?xml version="1.0" ?>
<svg xmlns="http://www.w3.org/2000/svg" version="1.1" width="224" height="224">
  <defs/>
  <g>
    <path d="M 140.42465209960938 118.91006469726562 C -5.310187816619873 41.85007858276367 228.03125 87.99153900146484 153.48219299316406 84.82975006103516" stroke-width="2" fill="none" stroke="rgb(0, 0, 0)" stroke-opacity="1.0" stroke-linecap="round" stroke-linejoin="round"/>
    <path d="M 120.79583740234375 94.24382019042969 C 98.2162094116211 100.63239288330078 69.57747650146484 61.047035217285156 121.97019958496094 97.33612060546875" stroke-width="2" fill="none" stroke="rgb(0, 0, 0)" stroke-opacity="1.0" stroke-linecap="round" stroke-linejoin="round"/>
    <path d="M 165.11585998535156 122.51319885253906 C 197.41429138183594 116.8723373413086 116.08472442626953 99.3484878540039 152.53028869628906 110.0791015625" stroke-width="2" fill="none" stroke="rgb(0, 0, 0)" stroke-opacity="1.0" stroke-linecap="round" stroke-linejoin="round"/>
    <path d="M 43.29795837402344 138.22329711914062 C 56.57841873168945 148.7829132080078 145.1961212158203 157.7045440673828 45.33891296386719 148.04307556152344" stroke-width="2" fill="none" stroke="rgb(0, 0, 0)" stroke-opacity="1.0" stroke-linecap="round" stroke-linejoin="round"/>
    <path d="M 124.73511505126953 120.21292877197266 C 162.30947875976562 155.34756469726562 226.45620727539062 19.14779281616211 161.58880615234375 79.40357971191406" stroke-width="2" fill="none" stroke="rgb(0, 0, 0)" stroke-opacity="1.0" stroke-linecap="round" stroke-linejoin="round"/>
    <path d="M 90.50806427001953 72.9334716796875 C 115.10540771484375 137.36692810058594 144.658203125 43.99734115600586 165.96044921875 103.4081802368164" stroke-width="2" fill="none" stroke="rgb(0, 0, 0)" stroke-opacity="1.0" stroke-linecap="round" stroke-linejoin="round"/>
    <path d="M 62.30255126953125 124.4305419921875 C 59.790687561035156 171.07806396484375 303.034423828125 147.8169403076172 150.23480224609375 142.2579345703125" stroke-width="2" fill="none" stroke="rgb(0, 0, 0)" stroke-opacity="1.0" stroke-linecap="round" stroke-linejoin="round"/>
    <path d="M 141.54483032226562 117.65751647949219 C 248.0569610595703 116.38426971435547 28.13712501525879 111.27989959716797 88.78697967529297 107.61552429199219" stroke-width="2" fill="none" stroke="rgb(0, 0, 0)" stroke-opacity="1.0" stroke-linecap="round" stroke-linejoin="round"/>
    <path d="M 142.15164184570312 152.06044006347656 C -88.60787200927734 96.6978988647461 331.6329345703125 192.33949279785156 186.0230255126953 148.1181640625" stroke-width="2" fill="none" stroke="rgb(0, 0, 0)" stroke-opacity="1.0" stroke-linecap="round" stroke-linejoin="round"/>
    <path d="M 154.62939453125 109.91416931152344 C 105.13780975341797 126.06394958496094 179.86587524414062 100.42607116699219 141.91702270507812 105.40862274169922" stroke-width="2" fill="none" stroke="rgb(0, 0, 0)" stroke-opacity="1.0" stroke-linecap="round" stroke-linejoin="round"/>
    <path d="M 145.57725524902344 137.2089385986328 C 85.93846130371094 97.32756042480469 174.5562286376953 143.14915466308594 135.06687927246094 125.23995208740234" stroke-width="2" fill="none" stroke="rgb(0, 0, 0)" stroke-opacity="1.0" stroke-linecap="round" stroke-linejoin="round"/>
    <path d="M 145.9254150390625 130.2028350830078 C 63.381019592285156 113.39188385009766 156.8799591064453 105.38603210449219 113.60926055908203 108.27831268310547" stroke-width="2" fill="none" stroke="rgb(0, 0, 0)" stroke-opacity="1.0" stroke-linecap="round" stroke-linejoin="round"/>
    <path d="M 104.88249969482422 84.74952697753906 C 116.87921142578125 122.84786224365234 143.46592712402344 84.52448272705078 97.22782897949219 79.00565338134766" stroke-width="2" fill="none" stroke="rgb(0, 0, 0)" stroke-opacity="1.0" stroke-linecap="round" stroke-linejoin="round"/>
    <path d="M 152.37811279296875 90.31122589111328 C 173.12026977539062 109.21980285644531 195.51820373535156 29.585372924804688 170.21839904785156 98.13721466064453" stroke-width="2" fill="none" stroke="rgb(0, 0, 0)" stroke-opacity="1.0" stroke-linecap="round" stroke-linejoin="round"/>
    <path d="M 91.94523620605469 68.50762939453125 C 222.52088928222656 117.54375457763672 37.68867492675781 61.42913055419922 43.40214538574219 115.7908935546875" stroke-width="2" fill="none" stroke="rgb(0, 0, 0)" stroke-opacity="1.0" stroke-linecap="round" stroke-linejoin="round"/>
    <path d="M 37.76905822753906 111.94432830810547 C 108.63764953613281 43.484249114990234 -50.08715057373047 166.05813598632812 122.53229522705078 147.94210815429688" stroke-width="2" fill="none" stroke="rgb(0, 0, 0)" stroke-opacity="1.0" stroke-linecap="round" stroke-linejoin="round"/>
  </g>
</svg>
