<?xml version="1.0" ?>
<svg xmlns="http://www.w3.org/2000/svg" version="1.1" width="224" height="224">
  <defs/>
  <g>
    <path d="M 119.82373809814453 87.5707778930664 C 36.664405822753906 34.87643051147461 208.66177368164062 111.9087142944336 153.95516967773438 98.11270904541016" stroke-width="2" fill="none" stroke="rgb(0, 0, 0)" stroke-opacity="1.0" stroke-linecap="round" stroke-linejoin="round"/>
    <path d="M 119.87802124023438 89.07694244384766 C 113.36048126220703 99.99241638183594 76.4050064086914 50.363380432128906 123.54605102539062 76.84152221679688" stroke-width="2" fill="none" stroke="rgb(0, 0, 0)" stroke-opacity="1.0" stroke-linecap="round" stroke-linejoin="round"/>
    <path d="M 142.99586486816406 103.76567077636719 C 111.70777130126953 109.05669403076172 148.5425262451172 88.46085357666016 151.54905700683594 114.75090789794922" stroke-width="2" fill="none" stroke="rgb(0, 0, 0)" stroke-opacity="1.0" stroke-linecap="round" stroke-linejoin="round"/>
    <path d="M 69.81704711914062 137.84109497070312 C 50.0887565612793 156.50701904296875 203.4573974609375 142.1167755126953 94.3582763671875 135.38490295410156" stroke-width="2" fill="none" stroke="rgb(0, 0, 0)" stroke-opacity="1.0" stroke-linecap="round" stroke-linejoin="round"/>
    <path d="M 152.5869903564453 111.10348510742188 C 148.45777893066406 153.8389129638672 222.01409912109375 17.070560455322266 164.7527618408203 81.97339630126953" stroke-width="2" fill="none" stroke="rgb(0, 0, 0)" stroke-opacity="1.0" stroke-linecap="round" stroke-linejoin="round"/>
    <path d="M 93.58016204833984 100.30699157714844 C 148.16571044921875 128.12847900390625 69.22803497314453 83.71841430664062 165.20501708984375 81.12677001953125" stroke-width="2" fill="none" stroke="rgb(0, 0, 0)" stroke-opacity="1.0" stroke-linecap="round" stroke-linejoin="round"/>
    <path d="M 102.6968994140625 153.69419860839844 C 102.14640045166016 131.01109313964844 272.0112609863281 169.84738159179688 157.90359497070312 131.48788452148438" stroke-width="2" fill="none" stroke="rgb(0, 0, 0)" stroke-opacity="1.0" stroke-linecap="round" stroke-linejoin="round"/>
    <path d="M 107.43758392333984 109.5096435546875 C 263.1148376464844 138.4913330078125 61.46477127075195 107.47425079345703 112.2485122680664 108.80818176269531" stroke-width="2" fill="none" stroke="rgb(0, 0, 0)" stroke-opacity="1.0" stroke-linecap="round" stroke-linejoin="round"/>
    <path d="M 84.71273040771484 160.69032287597656 C 14.896273612976074 134.30044555664062 265.9993896484375 129.0275421142578 204.37652587890625 134.78892517089844" stroke-width="2" fill="none" stroke="rgb(0, 0, 0)" stroke-opacity="1.0" stroke-linecap="round" stroke-linejoin="round"/>
    <path d="M 166.40127563476562 86.28720092773438 C 126.0752944946289 88.43355560302734 181.4041748046875 111.48762512207031 138.8270721435547 107.16344451904297" stroke-width="2" fill="none" stroke="rgb(0, 0, 0)" stroke-opacity="1.0" stroke-linecap="round" stroke-linejoin="round"/>
    <path d="M 146.3047637939453 130.618408203125 C 112.06768035888672 109.06864929199219 196.51318359375 139.66018676757812 121.91088104248047 111.24910736083984" stroke-width="2" fill="none" stroke="rgb(0, 0, 0)" stroke-opacity="1.0" stroke-linecap="round" stroke-linejoin="round"/>
    <path d="M 125.89098358154297 121.06271362304688 C 90.33161163330078 125.9188003540039 191.7329864501953 97.29039764404297 162.4451141357422 117.18102264404297" stroke-width="2" fill="none" stroke="rgb(0, 0, 0)" stroke-opacity="1.0" stroke-linecap="round" stroke-linejoin="round"/>
    <path d="M 100.4813003540039 71.73514556884766 C 100.4139404296875 117.7156753540039 140.34756469726562 86.4857177734375 113.64669036865234 104.05552673339844" stroke-width="2" fill="none" stroke="rgb(0, 0, 0)" stroke-opacity="1.0" stroke-linecap="round" stroke-linejoin="round"/>
    <path d="M 159.7666015625 91.03125 C 170.9100799560547 100.87213897705078 189.29910278320312 51.17910385131836 174.52593994140625 88.73709106445312" stroke-width="2" fill="none" stroke="rgb(0, 0, 0)" stroke-opacity="1.0" stroke-linecap="round" stroke-linejoin="round"/>
    <path d="M 108.28070068359375 69.86368560791016 C 179.3623809814453 122.13465881347656 35.37331771850586 64.59013366699219 51.989845275878906 124.81068420410156" stroke-width="2" fill="none" stroke="rgb(0, 0, 0)" stroke-opacity="1.0" stroke-linecap="round" stroke-linejoin="round"/>
    <path d="M 36.98395919799805 131.8142547607422 C 85.7698745727539 74.1394271850586 -12.24425220489502 152.33230590820312 92.6174087524414 161.0133056640625" stroke-width="2" fill="none" stroke="rgb(0, 0, 0)" stroke-opacity="1.0" stroke-linecap="round" stroke-linejoin="round"/>
  </g>
</svg>
