<?xml version="1.0" ?>
<svg xmlns="http://www.w3.org/2000/svg" version="1.1" width="224" height="224">
  <defs/>
  <g>
    <path d="M 111.69357299804688 119.72691345214844 C 78.32018280029297 76.59163665771484 191.2267608642578 105.16678619384766 123.72455596923828 95.19183349609375" stroke-width="2" fill="none" stroke="rgb(0, 0, 0)" stroke-opacity="1.0" stroke-linecap="round" stroke-linejoin="round"/>
    <path d="M 117.28135681152344 133.42674255371094 C 137.50604248046875 89.7117919921875 127.11245727539062 164.1500244140625 104.28330993652344 115.4956283569336" stroke-width="2" fill="none" stroke="rgb(0, 0, 0)" stroke-opacity="1.0" stroke-linecap="round" stroke-linejoin="round"/>
    <path d="M 154.41839599609375 132.30413818359375 C 60.85169982910156 148.5259552001953 86.60214233398438 121.40409851074219 93.01041412353516 139.18907165527344" stroke-width="2" fill="none" stroke="rgb(0, 0, 0)" stroke-opacity="1.0" stroke-linecap="round" stroke-linejoin="round"/>
    <path d="M 165.05540466308594 157.26731872558594 C 174.03082275390625 153.43792724609375 200.5280303955078 139.48289489746094 108.32302856445312 124.20173645019531" stroke-width="2" fill="none" stroke="rgb(0, 0, 0)" stroke-opacity="1.0" stroke-linecap="round" stroke-linejoin="round"/>
    <path d="M 112.23835754394531 130.3673858642578 C 139.301025390625 129.19566345214844 208.4331817626953 134.70016479492188 102.14117431640625 70.29238891601562" stroke-width="2" fill="none" stroke="rgb(0, 0, 0)" stroke-opacity="1.0" stroke-linecap="round" stroke-linejoin="round"/>
    <path d="M 100.21954345703125 70.34010314941406 C 91.78160858154297 115.9837417602539 199.76730346679688 90.25775909423828 129.3443603515625 88.2934799194336" stroke-width="2" fill="none" stroke="rgb(0, 0, 0)" stroke-opacity="1.0" stroke-linecap="round" stroke-linejoin="round"/>
    <path d="M 38.25651550292969 125.53498840332031 C 33.782997131347656 173.25344848632812 169.40524291992188 136.05966186523438 177.66075134277344 144.0373992919922" stroke-width="2" fill="none" stroke="rgb(0, 0, 0)" stroke-opacity="1.0" stroke-linecap="round" stroke-linejoin="round"/>
    <path d="M 142.98802185058594 148.39744567871094 C 175.6851348876953 137.84523010253906 67.53621673583984 151.2722625732422 130.61618041992188 119.40664672851562" stroke-width="2" fill="none" stroke="rgb(0, 0, 0)" stroke-opacity="1.0" stroke-linecap="round" stroke-linejoin="round"/>
    <path d="M 117.61735534667969 112.52130889892578 C 74.50574493408203 110.6662826538086 137.1370086669922 123.18071746826172 110.46528625488281 113.05796813964844" stroke-width="2" fill="none" stroke="rgb(0, 0, 0)" stroke-opacity="1.0" stroke-linecap="round" stroke-linejoin="round"/>
    <path d="M 182.6484832763672 64.60757446289062 C 115.34341430664062 128.26051330566406 206.00233459472656 80.64989471435547 158.34133911132812 105.65139770507812" stroke-width="2" fill="none" stroke="rgb(0, 0, 0)" stroke-opacity="1.0" stroke-linecap="round" stroke-linejoin="round"/>
    <path d="M 141.8203125 140.20582580566406 C 188.30996704101562 151.46200561523438 129.04119873046875 156.19419860839844 170.6327362060547 152.28460693359375" stroke-width="2" fill="none" stroke="rgb(0, 0, 0)" stroke-opacity="1.0" stroke-linecap="round" stroke-linejoin="round"/>
    <path d="M 93.42988586425781 141.25405883789062 C 172.40133666992188 159.56845092773438 68.82032775878906 156.46009826660156 62.74540328979492 136.5399932861328" stroke-width="2" fill="none" stroke="rgb(0, 0, 0)" stroke-opacity="1.0" stroke-linecap="round" stroke-linejoin="round"/>
    <path d="M 167.08901977539062 84.56660461425781 C 131.7596893310547 73.33342742919922 138.63026428222656 134.8894500732422 103.5313720703125 73.67997741699219" stroke-width="2" fill="none" stroke="rgb(0, 0, 0)" stroke-opacity="1.0" stroke-linecap="round" stroke-linejoin="round"/>
    <path d="M 152.46607971191406 118.57669067382812 C 194.06016540527344 77.93848419189453 174.254638671875 77.40350341796875 183.9178466796875 65.76873016357422" stroke-width="2" fill="none" stroke="rgb(0, 0, 0)" stroke-opacity="1.0" stroke-linecap="round" stroke-linejoin="round"/>
    <path d="M 104.52983856201172 85.93855285644531 C 115.06575775146484 138.61378479003906 63.51661682128906 71.11920928955078 42.06248474121094 127.09178924560547" stroke-width="2" fill="none" stroke="rgb(0, 0, 0)" stroke-opacity="1.0" stroke-linecap="round" stroke-linejoin="round"/>
    <path d="M 65.60610961914062 118.03053283691406 C 64.592529296875 97.59974670410156 29.945247650146484 116.3946533203125 39.63956832885742 146.30567932128906" stroke-width="2" fill="none" stroke="rgb(0, 0, 0)" stroke-opacity="1.0" stroke-linecap="round" stroke-linejoin="round"/>
  </g>
</svg>
