<?xml version="1.0" ?>
<svg xmlns="http://www.w3.org/2000/svg" version="1.1" width="224" height="224">
  <defs/>
  <g>
    <path d="M 145.98736572265625 126.6732406616211 C 21.995664596557617 67.96405792236328 228.71871948242188 88.82459259033203 159.04942321777344 95.47330474853516" stroke-width="2" fill="none" stroke="rgb(0, 0, 0)" stroke-opacity="1.0" stroke-linecap="round" stroke-linejoin="round"/>
    <path d="M 123.75562286376953 119.95179748535156 C 146.36973571777344 95.97240447998047 71.6952896118164 125.32770538330078 127.51668548583984 105.70306396484375" stroke-width="2" fill="none" stroke="rgb(0, 0, 0)" stroke-opacity="1.0" stroke-linecap="round" stroke-linejoin="round"/>
    <path d="M 122.1449203491211 116.83428192138672 C 193.07618713378906 120.14430236816406 105.34282684326172 122.32957458496094 137.6846466064453 112.78392791748047" stroke-width="2" fill="none" stroke="rgb(0, 0, 0)" stroke-opacity="1.0" stroke-linecap="round" stroke-linejoin="round"/>
    <path d="M 98.98033905029297 115.0726089477539 C 101.72679138183594 163.77215576171875 151.05645751953125 137.25672912597656 144.78350830078125 155.84930419921875" stroke-width="2" fill="none" stroke="rgb(0, 0, 0)" stroke-opacity="1.0" stroke-linecap="round" stroke-linejoin="round"/>
    <path d="M 120.24639892578125 113.2349853515625 C 130.09844970703125 167.5562286376953 238.88572692871094 1.2159267663955688 153.1656036376953 90.0004653930664" stroke-width="2" fill="none" stroke="rgb(0, 0, 0)" stroke-opacity="1.0" stroke-linecap="round" stroke-linejoin="round"/>
    <path d="M 96.86505889892578 76.68687438964844 C 107.70332336425781 141.65509033203125 126.51939392089844 60.6700325012207 155.48092651367188 97.3145523071289" stroke-width="2" fill="none" stroke="rgb(0, 0, 0)" stroke-opacity="1.0" stroke-linecap="round" stroke-linejoin="round"/>
    <path d="M 69.16446685791016 137.02871704101562 C 67.19438171386719 175.3824005126953 287.8326416015625 101.83454132080078 146.31854248046875 100.72923278808594" stroke-width="2" fill="none" stroke="rgb(0, 0, 0)" stroke-opacity="1.0" stroke-linecap="round" stroke-linejoin="round"/>
    <path d="M 137.4962921142578 118.50141906738281 C 348.0685119628906 95.00852966308594 62.639347076416016 116.7624282836914 145.46429443359375 128.86572265625" stroke-width="2" fill="none" stroke="rgb(0, 0, 0)" stroke-opacity="1.0" stroke-linecap="round" stroke-linejoin="round"/>
    <path d="M 173.7598419189453 150.44371032714844 C -55.80332565307617 115.47066497802734 268.63671875 198.45616149902344 90.3792953491211 126.3472900390625" stroke-width="2" fill="none" stroke="rgb(0, 0, 0)" stroke-opacity="1.0" stroke-linecap="round" stroke-linejoin="round"/>
    <path d="M 167.45355224609375 111.09395599365234 C 107.28073120117188 117.61415100097656 212.39007568359375 85.83270263671875 154.66925048828125 119.9342041015625" stroke-width="2" fill="none" stroke="rgb(0, 0, 0)" stroke-opacity="1.0" stroke-linecap="round" stroke-linejoin="round"/>
    <path d="M 184.67739868164062 132.86663818359375 C 86.67754364013672 146.44195556640625 174.2268829345703 120.1334457397461 130.4692840576172 125.97594451904297" stroke-width="2" fill="none" stroke="rgb(0, 0, 0)" stroke-opacity="1.0" stroke-linecap="round" stroke-linejoin="round"/>
    <path d="M 171.4695281982422 106.45236206054688 C 114.66653442382812 131.86953735351562 151.55047607421875 111.161376953125 132.67572021484375 114.40492248535156" stroke-width="2" fill="none" stroke="rgb(0, 0, 0)" stroke-opacity="1.0" stroke-linecap="round" stroke-linejoin="round"/>
    <path d="M 96.13384246826172 70.50141906738281 C 121.99427795410156 115.87815856933594 150.4976043701172 99.33560943603516 99.95147705078125 86.72457885742188" stroke-width="2" fill="none" stroke="rgb(0, 0, 0)" stroke-opacity="1.0" stroke-linecap="round" stroke-linejoin="round"/>
    <path d="M 155.26126098632812 85.70413970947266 C 173.96173095703125 91.1376724243164 197.88291931152344 32.484375 178.6803741455078 101.70995330810547" stroke-width="2" fill="none" stroke="rgb(0, 0, 0)" stroke-opacity="1.0" stroke-linecap="round" stroke-linejoin="round"/>
    <path d="M 98.79472351074219 68.7675552368164 C 194.51620483398438 131.11056518554688 44.433109283447266 56.775421142578125 52.89201736450195 125.56610107421875" stroke-width="2" fill="none" stroke="rgb(0, 0, 0)" stroke-opacity="1.0" stroke-linecap="round" stroke-linejoin="round"/>
    <path d="M 42.90887451171875 128.3128662109375 C 105.57828521728516 70.63382720947266 -33.33145523071289 155.3722686767578 107.41999816894531 153.16575622558594" stroke-width="2" fill="none" stroke="rgb(0, 0, 0)" stroke-opacity="1.0" stroke-linecap="round" stroke-linejoin="round"/>
  </g>
</svg>
