<?xml version="1.0" ?>
<svg xmlns="http://www.w3.org/2000/svg" version="1.1" width="224" height="224">
  <defs/>
  <g>
    <path d="M 137.95640563964844 122.1576919555664 C 19.845762252807617 71.52926635742188 233.90538024902344 84.16690063476562 161.5784454345703 95.9423828125" stroke-width="2" fill="none" stroke="rgb(0, 0, 0)" stroke-opacity="1.0" stroke-linecap="round" stroke-linejoin="round"/>
    <path d="M 122.10079956054688 111.91047668457031 C 150.02232360839844 93.7352066040039 70.47820281982422 111.54000091552734 122.56587219238281 97.13666534423828" stroke-width="2" fill="none" stroke="rgb(0, 0, 0)" stroke-opacity="1.0" stroke-linecap="round" stroke-linejoin="round"/>
    <path d="M 132.98619079589844 113.03511810302734 C 192.91744995117188 123.68567657470703 104.24520874023438 115.48241424560547 135.0519561767578 119.53144073486328" stroke-width="2" fill="none" stroke="rgb(0, 0, 0)" stroke-opacity="1.0" stroke-linecap="round" stroke-linejoin="round"/>
    <path d="M 94.43803405761719 120.08953094482422 C 95.46984100341797 156.7376251220703 159.4133758544922 134.3792724609375 141.56500244140625 149.6281280517578" stroke-width="2" fill="none" stroke="rgb(0, 0, 0)" stroke-opacity="1.0" stroke-linecap="round" stroke-linejoin="round"/>
    <path d="M 120.38177490234375 111.34378814697266 C 127.68427276611328 167.02474975585938 242.06454467773438 10.259925842285156 155.21739196777344 85.29904174804688" stroke-width="2" fill="none" stroke="rgb(0, 0, 0)" stroke-opacity="1.0" stroke-linecap="round" stroke-linejoin="round"/>
    <path d="M 98.9961929321289 75.09721374511719 C 115.30844116210938 145.13385009765625 127.6924819946289 51.84373474121094 160.1556854248047 97.86810302734375" stroke-width="2" fill="none" stroke="rgb(0, 0, 0)" stroke-opacity="1.0" stroke-linecap="round" stroke-linejoin="round"/>
    <path d="M 78.3314208984375 134.54641723632812 C 71.0580825805664 164.94964599609375 290.28656005859375 98.19458770751953 156.38009643554688 111.77899169921875" stroke-width="2" fill="none" stroke="rgb(0, 0, 0)" stroke-opacity="1.0" stroke-linecap="round" stroke-linejoin="round"/>
    <path d="M 133.3155059814453 113.99923706054688 C 338.6173400878906 93.1455078125 72.91163635253906 121.69495391845703 136.00521850585938 126.99628448486328" stroke-width="2" fill="none" stroke="rgb(0, 0, 0)" stroke-opacity="1.0" stroke-linecap="round" stroke-linejoin="round"/>
    <path d="M 170.92529296875 149.74185180664062 C -46.000423431396484 107.41285705566406 284.7911071777344 187.3103485107422 103.43229675292969 132.33319091796875" stroke-width="2" fill="none" stroke="rgb(0, 0, 0)" stroke-opacity="1.0" stroke-linecap="round" stroke-linejoin="round"/>
    <path d="M 171.86614990234375 102.64148712158203 C 89.76394653320312 100.44771575927734 200.1012725830078 100.07425689697266 160.2821044921875 122.5730972290039" stroke-width="2" fill="none" stroke="rgb(0, 0, 0)" stroke-opacity="1.0" stroke-linecap="round" stroke-linejoin="round"/>
    <path d="M 172.3145294189453 128.73135375976562 C 87.7777099609375 147.85171508789062 171.5283966064453 120.07144165039062 125.73167419433594 120.41432189941406" stroke-width="2" fill="none" stroke="rgb(0, 0, 0)" stroke-opacity="1.0" stroke-linecap="round" stroke-linejoin="round"/>
    <path d="M 162.9091796875 105.43636322021484 C 96.7266845703125 136.4915313720703 159.0369415283203 106.22747802734375 132.83096313476562 110.43263244628906" stroke-width="2" fill="none" stroke="rgb(0, 0, 0)" stroke-opacity="1.0" stroke-linecap="round" stroke-linejoin="round"/>
    <path d="M 94.90202331542969 70.02391815185547 C 116.62491607666016 112.53507995605469 155.57373046875 95.46498107910156 101.03563690185547 88.74388885498047" stroke-width="2" fill="none" stroke="rgb(0, 0, 0)" stroke-opacity="1.0" stroke-linecap="round" stroke-linejoin="round"/>
    <path d="M 166.4850311279297 85.8804702758789 C 176.48214721679688 89.67937469482422 199.90228271484375 32.874088287353516 180.9647979736328 99.260009765625" stroke-width="2" fill="none" stroke="rgb(0, 0, 0)" stroke-opacity="1.0" stroke-linecap="round" stroke-linejoin="round"/>
    <path d="M 95.83338928222656 68.75790405273438 C 196.96397399902344 132.12167358398438 39.607723236083984 61.30517578125 51.52814483642578 121.632080078125" stroke-width="2" fill="none" stroke="rgb(0, 0, 0)" stroke-opacity="1.0" stroke-linecap="round" stroke-linejoin="round"/>
    <path d="M 42.39066696166992 124.98444366455078 C 106.87572479248047 71.60417175292969 -36.7362060546875 161.0619659423828 115.20541381835938 152.75216674804688" stroke-width="2" fill="none" stroke="rgb(0, 0, 0)" stroke-opacity="1.0" stroke-linecap="round" stroke-linejoin="round"/>
  </g>
</svg>
