<?xml version="1.0" ?>
<svg xmlns="http://www.w3.org/2000/svg" version="1.1" width="224" height="224">
  <defs/>
  <g>
    <path d="M 160.26693725585938 105.9762191772461 C 28.77918815612793 75.61275482177734 241.7301788330078 81.22136688232422 155.967041015625 81.6621322631836" stroke-width="2" fill="none" stroke="rgb(0, 0, 0)" stroke-opacity="1.0" stroke-linecap="round" stroke-linejoin="round"/>
    <path d="M 132.85391235351562 104.81485748291016 C 207.1433563232422 103.79598999023438 110.82073974609375 88.76728820800781 152.0210723876953 99.30794525146484" stroke-width="2" fill="none" stroke="rgb(0, 0, 0)" stroke-opacity="1.0" stroke-linecap="round" stroke-linejoin="round"/>
    <path d="M 116.63583374023438 122.00942993164062 C 212.73143005371094 150.51048278808594 102.83944702148438 128.98390197753906 132.02322387695312 131.42282104492188" stroke-width="2" fill="none" stroke="rgb(0, 0, 0)" stroke-opacity="1.0" stroke-linecap="round" stroke-linejoin="round"/>
    <path d="M 151.2303009033203 137.2505645751953 C 154.34439086914062 154.36886596679688 168.77188110351562 133.77525329589844 160.96060180664062 151.2319793701172" stroke-width="2" fill="none" stroke="rgb(0, 0, 0)" stroke-opacity="1.0" stroke-linecap="round" stroke-linejoin="round"/>
    <path d="M 126.02322387695312 94.05608367919922 C 172.3350067138672 188.63967895507812 220.54229736328125 4.890642166137695 177.55328369140625 80.03889465332031" stroke-width="2" fill="none" stroke="rgb(0, 0, 0)" stroke-opacity="1.0" stroke-linecap="round" stroke-linejoin="round"/>
    <path d="M 103.5956802368164 69.39818572998047 C 111.1773681640625 99.55033874511719 111.54463958740234 79.79273986816406 163.33460998535156 81.75350952148438" stroke-width="2" fill="none" stroke="rgb(0, 0, 0)" stroke-opacity="1.0" stroke-linecap="round" stroke-linejoin="round"/>
    <path d="M 47.97218322753906 135.3226776123047 C 39.9090461730957 161.4875030517578 211.14581298828125 148.68994140625 177.02989196777344 144.24203491210938" stroke-width="2" fill="none" stroke="rgb(0, 0, 0)" stroke-opacity="1.0" stroke-linecap="round" stroke-linejoin="round"/>
    <path d="M 79.4006576538086 120.48848724365234 C 333.77386474609375 118.29219818115234 51.166141510009766 121.06079864501953 150.0217742919922 99.88270568847656" stroke-width="2" fill="none" stroke="rgb(0, 0, 0)" stroke-opacity="1.0" stroke-linecap="round" stroke-linejoin="round"/>
    <path d="M 165.10031127929688 110.14783477783203 C -58.37498474121094 171.5951385498047 150.841552734375 127.034912109375 95.05973052978516 109.88420867919922" stroke-width="2" fill="none" stroke="rgb(0, 0, 0)" stroke-opacity="1.0" stroke-linecap="round" stroke-linejoin="round"/>
    <path d="M 186.34556579589844 91.00481414794922 C 170.6348419189453 120.69391632080078 193.17059326171875 42.558414459228516 182.70758056640625 101.96717834472656" stroke-width="2" fill="none" stroke="rgb(0, 0, 0)" stroke-opacity="1.0" stroke-linecap="round" stroke-linejoin="round"/>
    <path d="M 177.77528381347656 142.4226531982422 C 147.61940002441406 161.6648712158203 193.92288208007812 144.70419311523438 176.106689453125 146.1830596923828" stroke-width="2" fill="none" stroke="rgb(0, 0, 0)" stroke-opacity="1.0" stroke-linecap="round" stroke-linejoin="round"/>
    <path d="M 173.611328125 134.7981414794922 C 245.24960327148438 115.40525817871094 170.38848876953125 143.08241271972656 167.1053009033203 131.38351440429688" stroke-width="2" fill="none" stroke="rgb(0, 0, 0)" stroke-opacity="1.0" stroke-linecap="round" stroke-linejoin="round"/>
    <path d="M 139.36260986328125 81.10401153564453 C 102.9881591796875 100.89108276367188 171.1875457763672 91.2679672241211 103.6166763305664 69.72486877441406" stroke-width="2" fill="none" stroke="rgb(0, 0, 0)" stroke-opacity="1.0" stroke-linecap="round" stroke-linejoin="round"/>
    <path d="M 158.60775756835938 81.34307861328125 C 162.5350341796875 115.7874755859375 227.3014678955078 19.476064682006836 160.2998504638672 87.7018051147461" stroke-width="2" fill="none" stroke="rgb(0, 0, 0)" stroke-opacity="1.0" stroke-linecap="round" stroke-linejoin="round"/>
    <path d="M 104.91431427001953 72.30030059814453 C 183.9113311767578 122.70809936523438 50.22151184082031 70.63072967529297 55.28680419921875 113.69216918945312" stroke-width="2" fill="none" stroke="rgb(0, 0, 0)" stroke-opacity="1.0" stroke-linecap="round" stroke-linejoin="round"/>
    <path d="M 41.29657745361328 119.12456512451172 C 83.5219955444336 82.09431457519531 -22.931903839111328 151.6353759765625 111.3592529296875 137.888916015625" stroke-width="2" fill="none" stroke="rgb(0, 0, 0)" stroke-opacity="1.0" stroke-linecap="round" stroke-linejoin="round"/>
  </g>
</svg>
