<?xml version="1.0" ?>
<svg xmlns="http://www.w3.org/2000/svg" version="1.1" width="224" height="224">
  <defs/>
  <g>
    <path d="M 127.38890075683594 112.60794067382812 C 12.856568336486816 71.22714233398438 237.14793395996094 79.33705139160156 146.4127655029297 89.43006134033203" stroke-width="2" fill="none" stroke="rgb(0, 0, 0)" stroke-opacity="1.0" stroke-linecap="round" stroke-linejoin="round"/>
    <path d="M 109.02454376220703 105.94476318359375 C 148.34417724609375 95.30570220947266 79.81721496582031 99.18831634521484 120.36451721191406 100.88284301757812" stroke-width="2" fill="none" stroke="rgb(0, 0, 0)" stroke-opacity="1.0" stroke-linecap="round" stroke-linejoin="round"/>
    <path d="M 112.39325714111328 148.93739318847656 C 110.43082427978516 137.02650451660156 85.49337005615234 143.1255340576172 105.23754119873047 148.1333465576172" stroke-width="2" fill="none" stroke="rgb(0, 0, 0)" stroke-opacity="1.0" stroke-linecap="round" stroke-linejoin="round"/>
    <path d="M 196.010986328125 144.53759765625 C 195.21932983398438 172.64865112304688 188.23175048828125 136.13705444335938 118.67967987060547 146.33689880371094" stroke-width="2" fill="none" stroke="rgb(0, 0, 0)" stroke-opacity="1.0" stroke-linecap="round" stroke-linejoin="round"/>
    <path d="M 105.0443115234375 109.5521240234375 C 109.29232788085938 162.5522003173828 229.10525512695312 73.84384155273438 142.46803283691406 97.14840698242188" stroke-width="2" fill="none" stroke="rgb(0, 0, 0)" stroke-opacity="1.0" stroke-linecap="round" stroke-linejoin="round"/>
    <path d="M 89.49848937988281 74.64945983886719 C 83.1127700805664 89.35823059082031 166.1682586669922 83.69066619873047 169.69573974609375 66.99852752685547" stroke-width="2" fill="none" stroke="rgb(0, 0, 0)" stroke-opacity="1.0" stroke-linecap="round" stroke-linejoin="round"/>
    <path d="M 63.16800308227539 133.47093200683594 C 76.14118957519531 169.45884704589844 244.96063232421875 132.3341522216797 190.51776123046875 152.15005493164062" stroke-width="2" fill="none" stroke="rgb(0, 0, 0)" stroke-opacity="1.0" stroke-linecap="round" stroke-linejoin="round"/>
    <path d="M 84.35909271240234 119.77076721191406 C 254.04336547851562 134.92642211914062 95.08190155029297 104.83049011230469 145.3697967529297 111.85984802246094" stroke-width="2" fill="none" stroke="rgb(0, 0, 0)" stroke-opacity="1.0" stroke-linecap="round" stroke-linejoin="round"/>
    <path d="M 129.4822540283203 117.38427734375 C -6.676386833190918 135.824951171875 159.1179656982422 122.06858825683594 104.99411010742188 107.0498046875" stroke-width="2" fill="none" stroke="rgb(0, 0, 0)" stroke-opacity="1.0" stroke-linecap="round" stroke-linejoin="round"/>
    <path d="M 183.52565002441406 58.2939453125 C 136.99754333496094 89.39623260498047 230.4846954345703 11.83498764038086 159.6851043701172 108.07489013671875" stroke-width="2" fill="none" stroke="rgb(0, 0, 0)" stroke-opacity="1.0" stroke-linecap="round" stroke-linejoin="round"/>
    <path d="M 154.43466186523438 145.4518280029297 C 127.71484375 132.238525390625 195.11839294433594 168.83755493164062 179.69342041015625 147.25111389160156" stroke-width="2" fill="none" stroke="rgb(0, 0, 0)" stroke-opacity="1.0" stroke-linecap="round" stroke-linejoin="round"/>
    <path d="M 146.93011474609375 132.8740997314453 C 273.2891845703125 150.36708068847656 95.22840881347656 150.1533966064453 127.61019897460938 135.91343688964844" stroke-width="2" fill="none" stroke="rgb(0, 0, 0)" stroke-opacity="1.0" stroke-linecap="round" stroke-linejoin="round"/>
    <path d="M 146.51744079589844 81.55292510986328 C 93.61774444580078 106.98612213134766 182.07127380371094 101.60409545898438 86.7839126586914 67.54874420166016" stroke-width="2" fill="none" stroke="rgb(0, 0, 0)" stroke-opacity="1.0" stroke-linecap="round" stroke-linejoin="round"/>
    <path d="M 153.82272338867188 94.5009994506836 C 184.5364227294922 116.2658920288086 193.20851135253906 46.03059005737305 179.77381896972656 60.581382751464844" stroke-width="2" fill="none" stroke="rgb(0, 0, 0)" stroke-opacity="1.0" stroke-linecap="round" stroke-linejoin="round"/>
    <path d="M 95.5269775390625 79.12859344482422 C 132.68495178222656 117.59248352050781 43.306785583496094 66.87649536132812 51.01466369628906 121.65343475341797" stroke-width="2" fill="none" stroke="rgb(0, 0, 0)" stroke-opacity="1.0" stroke-linecap="round" stroke-linejoin="round"/>
    <path d="M 57.08333206176758 102.10401153564453 C 55.273681640625 114.06275939941406 -5.515514850616455 148.73899841308594 104.91117858886719 154.3797149658203" stroke-width="2" fill="none" stroke="rgb(0, 0, 0)" stroke-opacity="1.0" stroke-linecap="round" stroke-linejoin="round"/>
  </g>
</svg>
