<?xml version="1.0" ?>
<svg xmlns="http://www.w3.org/2000/svg" version="1.1" width="224" height="224">
  <defs/>
  <g>
    <path d="M 117.79830169677734 83.61210632324219 C 20.207366943359375 40.570186614990234 214.02371215820312 102.40010833740234 152.65496826171875 98.6874771118164" stroke-width="2" fill="none" stroke="rgb(0, 0, 0)" stroke-opacity="1.0" stroke-linecap="round" stroke-linejoin="round"/>
    <path d="M 113.91026306152344 86.06066131591797 C 100.66661071777344 100.98717498779297 69.38587188720703 50.03475570678711 126.01786804199219 86.82039642333984" stroke-width="2" fill="none" stroke="rgb(0, 0, 0)" stroke-opacity="1.0" stroke-linecap="round" stroke-linejoin="round"/>
    <path d="M 138.38914489746094 102.35763549804688 C 112.9767074584961 102.73308563232422 155.65487670898438 91.83607482910156 135.51918029785156 107.61473846435547" stroke-width="2" fill="none" stroke="rgb(0, 0, 0)" stroke-opacity="1.0" stroke-linecap="round" stroke-linejoin="round"/>
    <path d="M 64.07478332519531 134.4096221923828 C 65.2151870727539 164.1977081298828 219.15089416503906 147.80789184570312 81.61559295654297 140.84005737304688" stroke-width="2" fill="none" stroke="rgb(0, 0, 0)" stroke-opacity="1.0" stroke-linecap="round" stroke-linejoin="round"/>
    <path d="M 126.92479705810547 111.84285736083984 C 141.4077606201172 153.71978759765625 230.72215270996094 18.909875869750977 159.62722778320312 80.70423889160156" stroke-width="2" fill="none" stroke="rgb(0, 0, 0)" stroke-opacity="1.0" stroke-linecap="round" stroke-linejoin="round"/>
    <path d="M 87.30944061279297 104.73717498779297 C 162.9370880126953 135.2977294921875 54.29484176635742 82.31710815429688 167.95529174804688 77.42298126220703" stroke-width="2" fill="none" stroke="rgb(0, 0, 0)" stroke-opacity="1.0" stroke-linecap="round" stroke-linejoin="round"/>
    <path d="M 109.86022186279297 146.15663146972656 C 107.86091613769531 122.95964050292969 245.86622619628906 175.9907684326172 166.88027954101562 136.06973266601562" stroke-width="2" fill="none" stroke="rgb(0, 0, 0)" stroke-opacity="1.0" stroke-linecap="round" stroke-linejoin="round"/>
    <path d="M 103.82022857666016 120.44310760498047 C 255.93280029296875 143.12245178222656 79.03551483154297 105.57825469970703 106.39971160888672 123.4249038696289" stroke-width="2" fill="none" stroke="rgb(0, 0, 0)" stroke-opacity="1.0" stroke-linecap="round" stroke-linejoin="round"/>
    <path d="M 90.03429412841797 150.0338134765625 C 20.73255157470703 142.86550903320312 237.9833984375 134.3822479248047 197.1240692138672 150.89866638183594" stroke-width="2" fill="none" stroke="rgb(0, 0, 0)" stroke-opacity="1.0" stroke-linecap="round" stroke-linejoin="round"/>
    <path d="M 167.9360809326172 92.7030258178711 C 121.6380844116211 90.78263854980469 204.32852172851562 126.09170532226562 131.22532653808594 105.47077941894531" stroke-width="2" fill="none" stroke="rgb(0, 0, 0)" stroke-opacity="1.0" stroke-linecap="round" stroke-linejoin="round"/>
    <path d="M 146.05552673339844 128.44017028808594 C 72.79107666015625 102.48292541503906 192.71722412109375 144.08740234375 124.41773986816406 112.56652069091797" stroke-width="2" fill="none" stroke="rgb(0, 0, 0)" stroke-opacity="1.0" stroke-linecap="round" stroke-linejoin="round"/>
    <path d="M 121.02804565429688 120.9734115600586 C 76.69379425048828 114.62236022949219 189.94967651367188 99.34137725830078 156.45753479003906 111.44941711425781" stroke-width="2" fill="none" stroke="rgb(0, 0, 0)" stroke-opacity="1.0" stroke-linecap="round" stroke-linejoin="round"/>
    <path d="M 92.09843444824219 73.23585510253906 C 99.62759399414062 124.02749633789062 146.9619140625 103.4858627319336 108.9709701538086 108.65142822265625" stroke-width="2" fill="none" stroke="rgb(0, 0, 0)" stroke-opacity="1.0" stroke-linecap="round" stroke-linejoin="round"/>
    <path d="M 154.1934051513672 83.81394958496094 C 166.9754180908203 97.68328857421875 198.81886291503906 39.948280334472656 176.34034729003906 97.30622863769531" stroke-width="2" fill="none" stroke="rgb(0, 0, 0)" stroke-opacity="1.0" stroke-linecap="round" stroke-linejoin="round"/>
    <path d="M 94.52371978759766 73.84425354003906 C 176.83770751953125 123.69976043701172 35.47370147705078 62.383750915527344 48.44626235961914 124.31771850585938" stroke-width="2" fill="none" stroke="rgb(0, 0, 0)" stroke-opacity="1.0" stroke-linecap="round" stroke-linejoin="round"/>
    <path d="M 35.36345672607422 132.3318328857422 C 81.70227813720703 87.24962615966797 -13.748273849487305 149.73886108398438 98.68006134033203 147.43577575683594" stroke-width="2" fill="none" stroke="rgb(0, 0, 0)" stroke-opacity="1.0" stroke-linecap="round" stroke-linejoin="round"/>
  </g>
</svg>
