<?xml version="1.0" ?>
<svg xmlns="http://www.w3.org/2000/svg" version="1.1" width="224" height="224">
  <defs/>
  <g>
    <path d="M 149.32167053222656 103.5360107421875 C 18.617786407470703 72.50296783447266 233.71449279785156 75.28180694580078 158.5060577392578 91.15432739257812" stroke-width="2" fill="none" stroke="rgb(0, 0, 0)" stroke-opacity="1.0" stroke-linecap="round" stroke-linejoin="round"/>
    <path d="M 122.33235931396484 101.29033660888672 C 187.40040588378906 99.05818176269531 122.77670288085938 88.4973373413086 150.29185485839844 99.28266906738281" stroke-width="2" fill="none" stroke="rgb(0, 0, 0)" stroke-opacity="1.0" stroke-linecap="round" stroke-linejoin="round"/>
    <path d="M 120.73345947265625 110.00943756103516 C 240.85830688476562 152.96533203125 87.12443542480469 115.33399963378906 115.62933349609375 137.0469970703125" stroke-width="2" fill="none" stroke="rgb(0, 0, 0)" stroke-opacity="1.0" stroke-linecap="round" stroke-linejoin="round"/>
    <path d="M 131.42416381835938 136.2081298828125 C 149.09072875976562 150.7166748046875 180.43072509765625 129.9901580810547 182.92930603027344 151.58621215820312" stroke-width="2" fill="none" stroke="rgb(0, 0, 0)" stroke-opacity="1.0" stroke-linecap="round" stroke-linejoin="round"/>
    <path d="M 127.25015258789062 94.97046661376953 C 163.07583618164062 178.48509216308594 227.0404815673828 1.8932960033416748 170.9876708984375 75.76517486572266" stroke-width="2" fill="none" stroke="rgb(0, 0, 0)" stroke-opacity="1.0" stroke-linecap="round" stroke-linejoin="round"/>
    <path d="M 100.1748046875 64.67094421386719 C 106.70543670654297 111.3425521850586 110.5403823852539 69.47999572753906 164.0907440185547 82.06531524658203" stroke-width="2" fill="none" stroke="rgb(0, 0, 0)" stroke-opacity="1.0" stroke-linecap="round" stroke-linejoin="round"/>
    <path d="M 45.19007873535156 136.5196533203125 C 42.94289016723633 167.68649291992188 201.41648864746094 138.66383361816406 183.58233642578125 149.797119140625" stroke-width="2" fill="none" stroke="rgb(0, 0, 0)" stroke-opacity="1.0" stroke-linecap="round" stroke-linejoin="round"/>
    <path d="M 88.46109008789062 122.2888412475586 C 335.8108825683594 93.89153289794922 55.3529052734375 131.90362548828125 148.7119903564453 96.82717895507812" stroke-width="2" fill="none" stroke="rgb(0, 0, 0)" stroke-opacity="1.0" stroke-linecap="round" stroke-linejoin="round"/>
    <path d="M 154.6674041748047 109.64141845703125 C -44.24934768676758 185.69052124023438 146.78497314453125 129.84976196289062 105.54487609863281 112.0858154296875" stroke-width="2" fill="none" stroke="rgb(0, 0, 0)" stroke-opacity="1.0" stroke-linecap="round" stroke-linejoin="round"/>
    <path d="M 165.0223846435547 88.58168029785156 C 158.28758239746094 115.43663787841797 211.82264709472656 53.47900390625 179.58653259277344 92.87501525878906" stroke-width="2" fill="none" stroke="rgb(0, 0, 0)" stroke-opacity="1.0" stroke-linecap="round" stroke-linejoin="round"/>
    <path d="M 176.46669006347656 148.72824096679688 C 159.42919921875 155.1404571533203 205.93190002441406 149.64981079101562 184.6725311279297 142.55162048339844" stroke-width="2" fill="none" stroke="rgb(0, 0, 0)" stroke-opacity="1.0" stroke-linecap="round" stroke-linejoin="round"/>
    <path d="M 202.6371307373047 116.65787506103516 C 224.8511962890625 117.1190414428711 182.61439514160156 110.84434509277344 183.79461669921875 112.76947784423828" stroke-width="2" fill="none" stroke="rgb(0, 0, 0)" stroke-opacity="1.0" stroke-linecap="round" stroke-linejoin="round"/>
    <path d="M 125.8551254272461 82.72264862060547 C 130.0014190673828 69.93183898925781 188.46209716796875 102.54043579101562 99.17137145996094 67.18087768554688" stroke-width="2" fill="none" stroke="rgb(0, 0, 0)" stroke-opacity="1.0" stroke-linecap="round" stroke-linejoin="round"/>
    <path d="M 153.2640380859375 76.98188018798828 C 176.96888732910156 106.64820098876953 233.5865936279297 15.351688385009766 156.99461364746094 82.61311340332031" stroke-width="2" fill="none" stroke="rgb(0, 0, 0)" stroke-opacity="1.0" stroke-linecap="round" stroke-linejoin="round"/>
    <path d="M 99.87105560302734 69.68631744384766 C 165.35736083984375 116.7388916015625 43.99213409423828 68.20613098144531 48.61471176147461 122.66305541992188" stroke-width="2" fill="none" stroke="rgb(0, 0, 0)" stroke-opacity="1.0" stroke-linecap="round" stroke-linejoin="round"/>
    <path d="M 35.143917083740234 130.5717315673828 C 81.74930572509766 87.72048950195312 -22.04518699645996 149.92662048339844 104.12332153320312 143.60723876953125" stroke-width="2" fill="none" stroke="rgb(0, 0, 0)" stroke-opacity="1.0" stroke-linecap="round" stroke-linejoin="round"/>
  </g>
</svg>
