<?xml version="1.0" ?>
<svg xmlns="http://www.w3.org/2000/svg" version="1.1" width="224" height="224">
  <defs/>
  <g>
    <path d="M 125.36244201660156 88.96797180175781 C 33.7140007019043 44.37971115112305 213.32583618164062 104.76870727539062 151.04417419433594 99.4329833984375" stroke-width="2" fill="none" stroke="rgb(0, 0, 0)" stroke-opacity="1.0" stroke-linecap="round" stroke-linejoin="round"/>
    <path d="M 116.62821197509766 88.25433349609375 C 104.98262786865234 99.2002944946289 74.20531463623047 42.77739334106445 122.09262084960938 80.32141876220703" stroke-width="2" fill="none" stroke="rgb(0, 0, 0)" stroke-opacity="1.0" stroke-linecap="round" stroke-linejoin="round"/>
    <path d="M 142.7186737060547 104.58415985107422 C 116.13487243652344 104.3587875366211 160.91184997558594 96.78315734863281 136.68704223632812 110.4383316040039" stroke-width="2" fill="none" stroke="rgb(0, 0, 0)" stroke-opacity="1.0" stroke-linecap="round" stroke-linejoin="round"/>
    <path d="M 71.95687103271484 132.4422607421875 C 69.86254119873047 172.57424926757812 226.28384399414062 149.35874938964844 75.6234359741211 146.29415893554688" stroke-width="2" fill="none" stroke="rgb(0, 0, 0)" stroke-opacity="1.0" stroke-linecap="round" stroke-linejoin="round"/>
    <path d="M 125.12254333496094 109.84613800048828 C 151.7588348388672 151.59625244140625 226.37413024902344 20.35920524597168 157.00465393066406 84.68269348144531" stroke-width="2" fill="none" stroke="rgb(0, 0, 0)" stroke-opacity="1.0" stroke-linecap="round" stroke-linejoin="round"/>
    <path d="M 87.9030990600586 106.81219482421875 C 166.31634521484375 142.60171508789062 49.79601287841797 83.85848999023438 170.5306396484375 84.3013687133789" stroke-width="2" fill="none" stroke="rgb(0, 0, 0)" stroke-opacity="1.0" stroke-linecap="round" stroke-linejoin="round"/>
    <path d="M 110.46442413330078 145.38656616210938 C 112.52342987060547 124.86599731445312 241.3577423095703 183.8855438232422 157.611328125 139.01589965820312" stroke-width="2" fill="none" stroke="rgb(0, 0, 0)" stroke-opacity="1.0" stroke-linecap="round" stroke-linejoin="round"/>
    <path d="M 109.11619567871094 122.34829711914062 C 284.31500244140625 153.61624145507812 87.61807250976562 112.12403869628906 119.09867858886719 129.81704711914062" stroke-width="2" fill="none" stroke="rgb(0, 0, 0)" stroke-opacity="1.0" stroke-linecap="round" stroke-linejoin="round"/>
    <path d="M 93.34766387939453 146.5817413330078 C 27.324153900146484 154.23416137695312 244.61636352539062 139.2493896484375 189.5469512939453 151.6728973388672" stroke-width="2" fill="none" stroke="rgb(0, 0, 0)" stroke-opacity="1.0" stroke-linecap="round" stroke-linejoin="round"/>
    <path d="M 174.46694946289062 93.01434326171875 C 125.87364196777344 91.51335144042969 206.09259033203125 124.17996978759766 137.03968811035156 105.75782775878906" stroke-width="2" fill="none" stroke="rgb(0, 0, 0)" stroke-opacity="1.0" stroke-linecap="round" stroke-linejoin="round"/>
    <path d="M 147.27467346191406 117.53858947753906 C 72.00969696044922 104.16851043701172 209.9718475341797 140.7128448486328 129.75523376464844 110.53022003173828" stroke-width="2" fill="none" stroke="rgb(0, 0, 0)" stroke-opacity="1.0" stroke-linecap="round" stroke-linejoin="round"/>
    <path d="M 123.33321380615234 124.43193054199219 C 71.7093276977539 111.17080688476562 183.65530395507812 103.7518310546875 159.9911651611328 114.75184631347656" stroke-width="2" fill="none" stroke="rgb(0, 0, 0)" stroke-opacity="1.0" stroke-linecap="round" stroke-linejoin="round"/>
    <path d="M 97.7485122680664 76.78019714355469 C 99.31201934814453 116.14218139648438 152.09164428710938 111.09425354003906 108.00784301757812 105.87830352783203" stroke-width="2" fill="none" stroke="rgb(0, 0, 0)" stroke-opacity="1.0" stroke-linecap="round" stroke-linejoin="round"/>
    <path d="M 150.4014434814453 90.52583312988281 C 178.49237060546875 99.1014633178711 193.61976623535156 37.88080596923828 178.47396850585938 99.07255554199219" stroke-width="2" fill="none" stroke="rgb(0, 0, 0)" stroke-opacity="1.0" stroke-linecap="round" stroke-linejoin="round"/>
    <path d="M 110.84508514404297 74.4841079711914 C 181.7178192138672 120.50723266601562 36.97551727294922 65.74330139160156 48.94878387451172 124.27890014648438" stroke-width="2" fill="none" stroke="rgb(0, 0, 0)" stroke-opacity="1.0" stroke-linecap="round" stroke-linejoin="round"/>
    <path d="M 38.0062255859375 131.6973114013672 C 74.98372650146484 84.90794372558594 -18.32790184020996 163.27915954589844 105.33343505859375 152.7393798828125" stroke-width="2" fill="none" stroke="rgb(0, 0, 0)" stroke-opacity="1.0" stroke-linecap="round" stroke-linejoin="round"/>
  </g>
</svg>
