<?xml version="1.0" ?>
<svg xmlns="http://www.w3.org/2000/svg" version="1.1" width="224" height="224">
  <defs/>
  <g>
    <path d="M 143.6222686767578 116.28277587890625 C 0.9666199088096619 41.304786682128906 243.83901977539062 80.3102035522461 162.61691284179688 92.03494262695312" stroke-width="2" fill="none" stroke="rgb(0, 0, 0)" stroke-opacity="1.0" stroke-linecap="round" stroke-linejoin="round"/>
    <path d="M 119.01827239990234 106.47111511230469 C 123.37056732177734 84.08934020996094 90.41443634033203 102.10025787353516 119.21976470947266 95.4516830444336" stroke-width="2" fill="none" stroke="rgb(0, 0, 0)" stroke-opacity="1.0" stroke-linecap="round" stroke-linejoin="round"/>
    <path d="M 140.8745574951172 123.21798706054688 C 185.44277954101562 120.0249252319336 106.6522445678711 89.9722671508789 158.40016174316406 107.277587890625" stroke-width="2" fill="none" stroke="rgb(0, 0, 0)" stroke-opacity="1.0" stroke-linecap="round" stroke-linejoin="round"/>
    <path d="M 62.66398239135742 139.25607299804688 C 87.40311431884766 171.0691680908203 183.33128356933594 148.3094024658203 75.63124084472656 147.07363891601562" stroke-width="2" fill="none" stroke="rgb(0, 0, 0)" stroke-opacity="1.0" stroke-linecap="round" stroke-linejoin="round"/>
    <path d="M 109.32020568847656 98.34358215332031 C 170.79766845703125 163.5268096923828 231.11764526367188 5.973525524139404 158.91226196289062 88.17866516113281" stroke-width="2" fill="none" stroke="rgb(0, 0, 0)" stroke-opacity="1.0" stroke-linecap="round" stroke-linejoin="round"/>
    <path d="M 98.3457260131836 79.84142303466797 C 121.06566619873047 130.94775390625 140.31414794921875 43.10263442993164 163.73541259765625 95.20909881591797" stroke-width="2" fill="none" stroke="rgb(0, 0, 0)" stroke-opacity="1.0" stroke-linecap="round" stroke-linejoin="round"/>
    <path d="M 69.22876739501953 125.54972076416016 C 62.087242126464844 168.38198852539062 277.60113525390625 97.9717025756836 133.78125 116.60482788085938" stroke-width="2" fill="none" stroke="rgb(0, 0, 0)" stroke-opacity="1.0" stroke-linecap="round" stroke-linejoin="round"/>
    <path d="M 133.09996032714844 118.7037582397461 C 288.0710144042969 96.4314956665039 39.62171173095703 118.99266815185547 104.83391571044922 108.23685455322266" stroke-width="2" fill="none" stroke="rgb(0, 0, 0)" stroke-opacity="1.0" stroke-linecap="round" stroke-linejoin="round"/>
    <path d="M 198.62142944335938 145.82540893554688 C -45.09556198120117 114.61354064941406 325.09039306640625 189.26400756835938 176.69912719726562 146.54486083984375" stroke-width="2" fill="none" stroke="rgb(0, 0, 0)" stroke-opacity="1.0" stroke-linecap="round" stroke-linejoin="round"/>
    <path d="M 159.8708953857422 112.4319076538086 C 117.2343521118164 111.48558807373047 182.6458282470703 100.36479187011719 142.00930786132812 117.04541778564453" stroke-width="2" fill="none" stroke="rgb(0, 0, 0)" stroke-opacity="1.0" stroke-linecap="round" stroke-linejoin="round"/>
    <path d="M 137.69171142578125 141.0664825439453 C 88.89362335205078 102.44229888916016 156.40052795410156 150.58538818359375 125.77667999267578 122.03938293457031" stroke-width="2" fill="none" stroke="rgb(0, 0, 0)" stroke-opacity="1.0" stroke-linecap="round" stroke-linejoin="round"/>
    <path d="M 153.02586364746094 107.57471466064453 C 89.0683364868164 116.6944351196289 156.92149353027344 86.20697784423828 117.40583038330078 101.33428192138672" stroke-width="2" fill="none" stroke="rgb(0, 0, 0)" stroke-opacity="1.0" stroke-linecap="round" stroke-linejoin="round"/>
    <path d="M 97.88433837890625 66.55387878417969 C 105.20929718017578 102.23221588134766 155.07254028320312 89.685302734375 104.65731048583984 68.15986633300781" stroke-width="2" fill="none" stroke="rgb(0, 0, 0)" stroke-opacity="1.0" stroke-linecap="round" stroke-linejoin="round"/>
    <path d="M 161.97157287597656 82.27751922607422 C 174.0363006591797 88.9133529663086 219.82501220703125 34.09211730957031 172.5192108154297 94.20071411132812" stroke-width="2" fill="none" stroke="rgb(0, 0, 0)" stroke-opacity="1.0" stroke-linecap="round" stroke-linejoin="round"/>
    <path d="M 98.51786041259766 69.32579803466797 C 221.35882568359375 113.5384750366211 46.11458206176758 48.52322769165039 57.5097770690918 110.69552612304688" stroke-width="2" fill="none" stroke="rgb(0, 0, 0)" stroke-opacity="1.0" stroke-linecap="round" stroke-linejoin="round"/>
    <path d="M 36.848453521728516 114.47137451171875 C 114.60106658935547 47.17325973510742 -61.29021072387695 167.48167419433594 121.54349517822266 151.45172119140625" stroke-width="2" fill="none" stroke="rgb(0, 0, 0)" stroke-opacity="1.0" stroke-linecap="round" stroke-linejoin="round"/>
  </g>
</svg>
