<?xml version="1.0" ?>
<svg xmlns="http://www.w3.org/2000/svg" version="1.1" width="224" height="224">
  <defs/>
  <g>
    <path d="M 141.6617889404297 114.79798126220703 C 14.322157859802246 73.3750228881836 233.87843322753906 78.11800384521484 157.6124725341797 93.47377014160156" stroke-width="2" fill="none" stroke="rgb(0, 0, 0)" stroke-opacity="1.0" stroke-linecap="round" stroke-linejoin="round"/>
    <path d="M 131.16339111328125 122.90335083007812 C 159.5741729736328 89.44464874267578 95.2328109741211 124.8416519165039 130.18310546875 99.93051147460938" stroke-width="2" fill="none" stroke="rgb(0, 0, 0)" stroke-opacity="1.0" stroke-linecap="round" stroke-linejoin="round"/>
    <path d="M 130.89527893066406 118.08433532714844 C 189.8108367919922 127.18055725097656 93.70496368408203 130.1175537109375 151.0868682861328 118.27581024169922" stroke-width="2" fill="none" stroke="rgb(0, 0, 0)" stroke-opacity="1.0" stroke-linecap="round" stroke-linejoin="round"/>
    <path d="M 94.90596008300781 122.00537109375 C 101.79481506347656 160.3822784423828 163.54446411132812 127.9583740234375 148.58627319335938 140.32301330566406" stroke-width="2" fill="none" stroke="rgb(0, 0, 0)" stroke-opacity="1.0" stroke-linecap="round" stroke-linejoin="round"/>
    <path d="M 116.42118835449219 105.47754669189453 C 143.91107177734375 181.66566467285156 243.78970336914062 -0.01572275161743164 158.42286682128906 85.9881820678711" stroke-width="2" fill="none" stroke="rgb(0, 0, 0)" stroke-opacity="1.0" stroke-linecap="round" stroke-linejoin="round"/>
    <path d="M 99.72509765625 78.8674545288086 C 116.95345306396484 137.1723175048828 134.72744750976562 60.75122833251953 153.20997619628906 98.0506362915039" stroke-width="2" fill="none" stroke="rgb(0, 0, 0)" stroke-opacity="1.0" stroke-linecap="round" stroke-linejoin="round"/>
    <path d="M 65.71790313720703 135.95518493652344 C 63.99814987182617 169.76571655273438 257.69580078125 114.2413101196289 159.11744689941406 100.29319763183594" stroke-width="2" fill="none" stroke="rgb(0, 0, 0)" stroke-opacity="1.0" stroke-linecap="round" stroke-linejoin="round"/>
    <path d="M 130.74246215820312 118.59906005859375 C 330.7589111328125 98.08405303955078 39.303646087646484 120.35546112060547 147.7836456298828 129.52139282226562" stroke-width="2" fill="none" stroke="rgb(0, 0, 0)" stroke-opacity="1.0" stroke-linecap="round" stroke-linejoin="round"/>
    <path d="M 158.48814392089844 153.3376007080078 C -59.67037582397461 119.22248077392578 265.255615234375 193.42807006835938 92.0491943359375 128.61558532714844" stroke-width="2" fill="none" stroke="rgb(0, 0, 0)" stroke-opacity="1.0" stroke-linecap="round" stroke-linejoin="round"/>
    <path d="M 185.93338012695312 112.74066162109375 C 131.57029724121094 118.20968627929688 220.48939514160156 89.75757598876953 163.7061767578125 118.48706817626953" stroke-width="2" fill="none" stroke="rgb(0, 0, 0)" stroke-opacity="1.0" stroke-linecap="round" stroke-linejoin="round"/>
    <path d="M 178.3955078125 140.3166961669922 C 99.3418197631836 149.40469360351562 158.43115234375 131.54104614257812 136.1586456298828 135.4578857421875" stroke-width="2" fill="none" stroke="rgb(0, 0, 0)" stroke-opacity="1.0" stroke-linecap="round" stroke-linejoin="round"/>
    <path d="M 183.15184020996094 104.2921371459961 C 129.59930419921875 118.23297119140625 198.62733459472656 121.834716796875 153.9517059326172 107.1455078125" stroke-width="2" fill="none" stroke="rgb(0, 0, 0)" stroke-opacity="1.0" stroke-linecap="round" stroke-linejoin="round"/>
    <path d="M 96.43875122070312 76.20879364013672 C 125.57291412353516 111.063720703125 157.33926391601562 84.62333679199219 104.04398345947266 82.74491882324219" stroke-width="2" fill="none" stroke="rgb(0, 0, 0)" stroke-opacity="1.0" stroke-linecap="round" stroke-linejoin="round"/>
    <path d="M 154.1744384765625 87.2996826171875 C 160.5723114013672 98.47322082519531 221.4490966796875 38.520389556884766 169.4292449951172 107.14315032958984" stroke-width="2" fill="none" stroke="rgb(0, 0, 0)" stroke-opacity="1.0" stroke-linecap="round" stroke-linejoin="round"/>
    <path d="M 97.21510314941406 69.17439270019531 C 201.02920532226562 131.05918884277344 40.00177001953125 62.86288833618164 53.47739028930664 123.91764831542969" stroke-width="2" fill="none" stroke="rgb(0, 0, 0)" stroke-opacity="1.0" stroke-linecap="round" stroke-linejoin="round"/>
    <path d="M 39.62485885620117 122.32774353027344 C 104.90245819091797 69.0008544921875 -34.87604904174805 159.30540466308594 102.00562286376953 152.48492431640625" stroke-width="2" fill="none" stroke="rgb(0, 0, 0)" stroke-opacity="1.0" stroke-linecap="round" stroke-linejoin="round"/>
  </g>
</svg>
