<?xml version="1.0" ?>
<svg xmlns="http://www.w3.org/2000/svg" version="1.1" width="224" height="224">
  <defs/>
  <g>
    <path d="M 141.93544006347656 127.76806640625 C 34.07636642456055 66.15874481201172 229.0279083251953 80.07070922851562 153.89500427246094 91.58253479003906" stroke-width="2" fill="none" stroke="rgb(0, 0, 0)" stroke-opacity="1.0" stroke-linecap="round" stroke-linejoin="round"/>
    <path d="M 114.63288879394531 109.28302764892578 C 141.31532287597656 102.74878692626953 64.82978057861328 101.75687408447266 116.6695556640625 107.21136474609375" stroke-width="2" fill="none" stroke="rgb(0, 0, 0)" stroke-opacity="1.0" stroke-linecap="round" stroke-linejoin="round"/>
    <path d="M 132.01705932617188 121.74107360839844 C 179.46728515625 121.7366714477539 102.57128143310547 103.6400375366211 140.25521850585938 116.61925506591797" stroke-width="2" fill="none" stroke="rgb(0, 0, 0)" stroke-opacity="1.0" stroke-linecap="round" stroke-linejoin="round"/>
    <path d="M 80.76280975341797 119.9786376953125 C 96.95348358154297 157.1509246826172 143.20668029785156 128.31802368164062 136.08193969726562 153.81143188476562" stroke-width="2" fill="none" stroke="rgb(0, 0, 0)" stroke-opacity="1.0" stroke-linecap="round" stroke-linejoin="round"/>
    <path d="M 118.91654968261719 105.71342468261719 C 126.08606719970703 165.54083251953125 238.58726501464844 8.662461280822754 151.87403869628906 85.8214111328125" stroke-width="2" fill="none" stroke="rgb(0, 0, 0)" stroke-opacity="1.0" stroke-linecap="round" stroke-linejoin="round"/>
    <path d="M 99.061767578125 68.22088623046875 C 116.53923797607422 137.97927856445312 134.58506774902344 45.49048614501953 156.5233154296875 98.580322265625" stroke-width="2" fill="none" stroke="rgb(0, 0, 0)" stroke-opacity="1.0" stroke-linecap="round" stroke-linejoin="round"/>
    <path d="M 103.29399108886719 127.58426666259766 C 88.89359283447266 161.17320251464844 280.19171142578125 83.7021255493164 145.8707733154297 105.67271423339844" stroke-width="2" fill="none" stroke="rgb(0, 0, 0)" stroke-opacity="1.0" stroke-linecap="round" stroke-linejoin="round"/>
    <path d="M 134.68824768066406 114.36717987060547 C 328.4228210449219 83.30821990966797 79.22863006591797 118.47927856445312 123.04944610595703 125.3526382446289" stroke-width="2" fill="none" stroke="rgb(0, 0, 0)" stroke-opacity="1.0" stroke-linecap="round" stroke-linejoin="round"/>
    <path d="M 172.94236755371094 159.6511993408203 C -59.38493728637695 115.60748291015625 289.79095458984375 207.9993133544922 118.4953384399414 148.3610076904297" stroke-width="2" fill="none" stroke="rgb(0, 0, 0)" stroke-opacity="1.0" stroke-linecap="round" stroke-linejoin="round"/>
    <path d="M 163.059814453125 97.51695251464844 C 97.77416229248047 84.82686614990234 191.22964477539062 95.16779327392578 160.26016235351562 119.31448364257812" stroke-width="2" fill="none" stroke="rgb(0, 0, 0)" stroke-opacity="1.0" stroke-linecap="round" stroke-linejoin="round"/>
    <path d="M 167.60809326171875 133.65525817871094 C 92.60232543945312 127.41336059570312 159.01060485839844 113.93965148925781 131.58575439453125 116.84654235839844" stroke-width="2" fill="none" stroke="rgb(0, 0, 0)" stroke-opacity="1.0" stroke-linecap="round" stroke-linejoin="round"/>
    <path d="M 165.62449645996094 109.03397369384766 C 102.83348083496094 144.19741821289062 163.4285125732422 108.34402465820312 129.5061798095703 110.90441131591797" stroke-width="2" fill="none" stroke="rgb(0, 0, 0)" stroke-opacity="1.0" stroke-linecap="round" stroke-linejoin="round"/>
    <path d="M 102.87757873535156 68.73221588134766 C 101.86634063720703 101.07345581054688 146.01052856445312 78.93746185302734 102.20965576171875 79.36359405517578" stroke-width="2" fill="none" stroke="rgb(0, 0, 0)" stroke-opacity="1.0" stroke-linecap="round" stroke-linejoin="round"/>
    <path d="M 154.74366760253906 85.44391632080078 C 174.3499298095703 89.76556396484375 199.09471130371094 30.306318283081055 181.19969177246094 97.85233306884766" stroke-width="2" fill="none" stroke="rgb(0, 0, 0)" stroke-opacity="1.0" stroke-linecap="round" stroke-linejoin="round"/>
    <path d="M 99.9818115234375 66.96833038330078 C 190.08021545410156 128.79444885253906 42.53866195678711 58.92341995239258 55.644412994384766 126.01986694335938" stroke-width="2" fill="none" stroke="rgb(0, 0, 0)" stroke-opacity="1.0" stroke-linecap="round" stroke-linejoin="round"/>
    <path d="M 43.89467239379883 131.29034423828125 C 110.44244384765625 74.99385833740234 -33.49607849121094 165.347900390625 115.46282958984375 150.39556884765625" stroke-width="2" fill="none" stroke="rgb(0, 0, 0)" stroke-opacity="1.0" stroke-linecap="round" stroke-linejoin="round"/>
  </g>
</svg>
