<?xml version="1.0" ?>
<svg xmlns="http://www.w3.org/2000/svg" version="1.1" width="224" height="224">
  <defs/>
  <g>
    <path d="M 146.18814086914062 124.64798736572266 C 26.929794311523438 64.03778076171875 235.3039093017578 79.719970703125 156.28553771972656 95.27759552001953" stroke-width="2" fill="none" stroke="rgb(0, 0, 0)" stroke-opacity="1.0" stroke-linecap="round" stroke-linejoin="round"/>
    <path d="M 120.99022674560547 111.99211883544922 C 154.20547485351562 93.0730972290039 69.773193359375 119.2661361694336 127.51976013183594 103.43482208251953" stroke-width="2" fill="none" stroke="rgb(0, 0, 0)" stroke-opacity="1.0" stroke-linecap="round" stroke-linejoin="round"/>
    <path d="M 128.748046875 113.67298126220703 C 194.0608367919922 121.4794692993164 105.73025512695312 116.30790710449219 136.95558166503906 114.34239959716797" stroke-width="2" fill="none" stroke="rgb(0, 0, 0)" stroke-opacity="1.0" stroke-linecap="round" stroke-linejoin="round"/>
    <path d="M 99.08097076416016 117.68496704101562 C 93.81692504882812 158.10678100585938 166.32867431640625 134.67857360839844 144.00784301757812 150.83131408691406" stroke-width="2" fill="none" stroke="rgb(0, 0, 0)" stroke-opacity="1.0" stroke-linecap="round" stroke-linejoin="round"/>
    <path d="M 121.81124877929688 111.62760925292969 C 129.22808837890625 168.74209594726562 235.2736358642578 0.7264072299003601 152.39186096191406 89.40711975097656" stroke-width="2" fill="none" stroke="rgb(0, 0, 0)" stroke-opacity="1.0" stroke-linecap="round" stroke-linejoin="round"/>
    <path d="M 95.79956817626953 75.3785400390625 C 118.78392791748047 147.88880920410156 134.9801483154297 54.71520233154297 156.333740234375 98.2872085571289" stroke-width="2" fill="none" stroke="rgb(0, 0, 0)" stroke-opacity="1.0" stroke-linecap="round" stroke-linejoin="round"/>
    <path d="M 67.40958404541016 132.6433563232422 C 67.4438247680664 168.39356994628906 287.8692932128906 103.7548828125 147.9548797607422 108.1255111694336" stroke-width="2" fill="none" stroke="rgb(0, 0, 0)" stroke-opacity="1.0" stroke-linecap="round" stroke-linejoin="round"/>
    <path d="M 126.96174621582031 119.16593170166016 C 330.9688720703125 89.52003479003906 65.85075378417969 116.22740936279297 148.26077270507812 127.51172637939453" stroke-width="2" fill="none" stroke="rgb(0, 0, 0)" stroke-opacity="1.0" stroke-linecap="round" stroke-linejoin="round"/>
    <path d="M 167.92324829101562 144.49258422851562 C -65.56565856933594 114.58555603027344 276.477783203125 191.27096557617188 98.87223052978516 125.05451965332031" stroke-width="2" fill="none" stroke="rgb(0, 0, 0)" stroke-opacity="1.0" stroke-linecap="round" stroke-linejoin="round"/>
    <path d="M 167.93736267089844 108.2990951538086 C 100.33103942871094 115.65962219238281 208.2895050048828 85.64363098144531 160.22494506835938 120.42507934570312" stroke-width="2" fill="none" stroke="rgb(0, 0, 0)" stroke-opacity="1.0" stroke-linecap="round" stroke-linejoin="round"/>
    <path d="M 180.28517150878906 128.6726837158203 C 93.20653533935547 147.79568481445312 178.71473693847656 115.35659790039062 131.01812744140625 125.43852996826172" stroke-width="2" fill="none" stroke="rgb(0, 0, 0)" stroke-opacity="1.0" stroke-linecap="round" stroke-linejoin="round"/>
    <path d="M 170.12977600097656 104.35409545898438 C 101.97742462158203 138.833740234375 148.24655151367188 108.97139739990234 130.25015258789062 112.20480346679688" stroke-width="2" fill="none" stroke="rgb(0, 0, 0)" stroke-opacity="1.0" stroke-linecap="round" stroke-linejoin="round"/>
    <path d="M 93.2702865600586 70.9184799194336 C 121.51871490478516 114.21112060546875 162.98008728027344 89.4154281616211 104.39391326904297 82.63902282714844" stroke-width="2" fill="none" stroke="rgb(0, 0, 0)" stroke-opacity="1.0" stroke-linecap="round" stroke-linejoin="round"/>
    <path d="M 164.01954650878906 79.58053588867188 C 173.27748107910156 83.45526123046875 198.8145751953125 28.81662368774414 179.40443420410156 101.36048889160156" stroke-width="2" fill="none" stroke="rgb(0, 0, 0)" stroke-opacity="1.0" stroke-linecap="round" stroke-linejoin="round"/>
    <path d="M 94.47218322753906 67.2021255493164 C 206.261962890625 128.64210510253906 41.123626708984375 54.051692962646484 54.57560348510742 118.50756072998047" stroke-width="2" fill="none" stroke="rgb(0, 0, 0)" stroke-opacity="1.0" stroke-linecap="round" stroke-linejoin="round"/>
    <path d="M 42.09769821166992 122.02288055419922 C 107.28863525390625 66.80465698242188 -33.0198974609375 157.07186889648438 112.57648468017578 151.72360229492188" stroke-width="2" fill="none" stroke="rgb(0, 0, 0)" stroke-opacity="1.0" stroke-linecap="round" stroke-linejoin="round"/>
  </g>
</svg>
