<?xml version="1.0" ?>
<svg xmlns="http://www.w3.org/2000/svg" version="1.1" width="224" height="224">
  <defs/>
  <g>
    <path d="M 147.21841430664062 76.78343200683594 C 77.61701202392578 53.48538589477539 196.8289031982422 89.57339477539062 155.1449432373047 95.90386962890625" stroke-width="2" fill="none" stroke="rgb(0, 0, 0)" stroke-opacity="1.0" stroke-linecap="round" stroke-linejoin="round"/>
    <path d="M 107.96995544433594 85.89371490478516 C 154.8409423828125 130.6334991455078 63.91729736328125 29.807048797607422 121.70316314697266 80.9333267211914" stroke-width="2" fill="none" stroke="rgb(0, 0, 0)" stroke-opacity="1.0" stroke-linecap="round" stroke-linejoin="round"/>
    <path d="M 142.65182495117188 94.75236511230469 C 123.88528442382812 87.2223129272461 183.7093963623047 96.88948822021484 121.80128479003906 110.3796157836914" stroke-width="2" fill="none" stroke="rgb(0, 0, 0)" stroke-opacity="1.0" stroke-linecap="round" stroke-linejoin="round"/>
    <path d="M 128.60096740722656 129.7935791015625 C 96.35511779785156 133.0223388671875 226.30613708496094 162.9389190673828 175.06753540039062 160.23941040039062" stroke-width="2" fill="none" stroke="rgb(0, 0, 0)" stroke-opacity="1.0" stroke-linecap="round" stroke-linejoin="round"/>
    <path d="M 129.40988159179688 105.5958480834961 C 146.9546661376953 174.67666625976562 222.38186645507812 4.757488250732422 159.70925903320312 83.11088562011719" stroke-width="2" fill="none" stroke="rgb(0, 0, 0)" stroke-opacity="1.0" stroke-linecap="round" stroke-linejoin="round"/>
    <path d="M 183.46893310546875 154.7530975341797 C 238.0049285888672 155.3115997314453 22.301925659179688 87.00696563720703 166.13076782226562 69.75008392333984" stroke-width="2" fill="none" stroke="rgb(0, 0, 0)" stroke-opacity="1.0" stroke-linecap="round" stroke-linejoin="round"/>
    <path d="M 114.74681091308594 141.5038604736328 C 110.17159271240234 127.5224609375 73.53488159179688 133.60464477539062 95.69961547851562 128.6448516845703" stroke-width="2" fill="none" stroke="rgb(0, 0, 0)" stroke-opacity="1.0" stroke-linecap="round" stroke-linejoin="round"/>
    <path d="M 171.8778533935547 153.11717224121094 C 170.69386291503906 128.7905731201172 85.01670837402344 142.469970703125 120.29579162597656 136.82379150390625" stroke-width="2" fill="none" stroke="rgb(0, 0, 0)" stroke-opacity="1.0" stroke-linecap="round" stroke-linejoin="round"/>
    <path d="M 72.51600646972656 135.07156372070312 C 77.36325073242188 155.45428466796875 179.60179138183594 145.75904846191406 142.16429138183594 157.43197631835938" stroke-width="2" fill="none" stroke="rgb(0, 0, 0)" stroke-opacity="1.0" stroke-linecap="round" stroke-linejoin="round"/>
    <path d="M 167.0945587158203 89.56817626953125 C 127.10796356201172 80.77539825439453 215.8858184814453 93.53402709960938 130.3691864013672 106.7476806640625" stroke-width="2" fill="none" stroke="rgb(0, 0, 0)" stroke-opacity="1.0" stroke-linecap="round" stroke-linejoin="round"/>
    <path d="M 163.19993591308594 112.56792449951172 C 150.5283660888672 120.73999786376953 153.1361083984375 100.4126205444336 152.75987243652344 131.86862182617188" stroke-width="2" fill="none" stroke="rgb(0, 0, 0)" stroke-opacity="1.0" stroke-linecap="round" stroke-linejoin="round"/>
    <path d="M 153.2718048095703 103.84628295898438 C 98.33784484863281 91.15060424804688 184.38931274414062 118.68978881835938 131.6901092529297 112.83937072753906" stroke-width="2" fill="none" stroke="rgb(0, 0, 0)" stroke-opacity="1.0" stroke-linecap="round" stroke-linejoin="round"/>
    <path d="M 97.8943862915039 66.29508972167969 C 97.5496826171875 132.63536071777344 142.9943389892578 85.10662841796875 114.27245330810547 95.98699951171875" stroke-width="2" fill="none" stroke="rgb(0, 0, 0)" stroke-opacity="1.0" stroke-linecap="round" stroke-linejoin="round"/>
    <path d="M 167.55984497070312 99.73486328125 C 127.15869140625 113.51148986816406 217.927978515625 49.54645919799805 156.23434448242188 91.8420181274414" stroke-width="2" fill="none" stroke="rgb(0, 0, 0)" stroke-opacity="1.0" stroke-linecap="round" stroke-linejoin="round"/>
    <path d="M 131.65760803222656 101.4974365234375 C 195.53173828125 146.4598846435547 57.65204620361328 50.179466247558594 62.9626350402832 125.65520477294922" stroke-width="2" fill="none" stroke="rgb(0, 0, 0)" stroke-opacity="1.0" stroke-linecap="round" stroke-linejoin="round"/>
    <path d="M 58.50090026855469 116.29741668701172 C 108.97489929199219 83.67244720458984 -52.943328857421875 170.4910888671875 149.22930908203125 147.22486877441406" stroke-width="2" fill="none" stroke="rgb(0, 0, 0)" stroke-opacity="1.0" stroke-linecap="round" stroke-linejoin="round"/>
  </g>
</svg>
