<?xml version="1.0" ?>
<svg xmlns="http://www.w3.org/2000/svg" version="1.1" width="224" height="224">
  <defs/>
  <g>
    <path d="M 96.06648254394531 92.8161849975586 C 24.999258041381836 92.78343200683594 115.30514526367188 105.9856185913086 74.41730499267578 108.30681610107422" stroke-width="2" fill="none" stroke="rgb(0, 0, 0)" stroke-opacity="1.0" stroke-linecap="round" stroke-linejoin="round"/>
    <path d="M 102.93614196777344 142.05548095703125 C 148.79718017578125 108.60819244384766 113.41368865966797 157.20640563964844 87.20426177978516 147.10780334472656" stroke-width="2" fill="none" stroke="rgb(0, 0, 0)" stroke-opacity="1.0" stroke-linecap="round" stroke-linejoin="round"/>
    <path d="M 152.85964965820312 122.48455047607422 C 90.62557983398438 133.01174926757812 50.28074645996094 105.48746490478516 84.82363891601562 129.12432861328125" stroke-width="2" fill="none" stroke="rgb(0, 0, 0)" stroke-opacity="1.0" stroke-linecap="round" stroke-linejoin="round"/>
    <path d="M 160.7820281982422 142.25839233398438 C 170.44554138183594 167.45968627929688 195.93614196777344 122.40843200683594 115.9847412109375 134.62950134277344" stroke-width="2" fill="none" stroke="rgb(0, 0, 0)" stroke-opacity="1.0" stroke-linecap="round" stroke-linejoin="round"/>
    <path d="M 100.99172973632812 121.54032897949219 C 128.41432189941406 103.2226791381836 159.57290649414062 123.44296264648438 102.33935546875 61.13003921508789" stroke-width="2" fill="none" stroke="rgb(0, 0, 0)" stroke-opacity="1.0" stroke-linecap="round" stroke-linejoin="round"/>
    <path d="M 102.741943359375 59.98853302001953 C 91.8166732788086 86.97282409667969 113.8788070678711 109.9578857421875 99.97476196289062 95.905029296875" stroke-width="2" fill="none" stroke="rgb(0, 0, 0)" stroke-opacity="1.0" stroke-linecap="round" stroke-linejoin="round"/>
    <path d="M 31.915771484375 136.50918579101562 C 50.47236251831055 168.01834106445312 206.267578125 148.40444946289062 134.94674682617188 155.21517944335938" stroke-width="2" fill="none" stroke="rgb(0, 0, 0)" stroke-opacity="1.0" stroke-linecap="round" stroke-linejoin="round"/>
    <path d="M 167.10887145996094 149.05752563476562 C 157.36463928222656 122.4186019897461 93.04497528076172 164.38711547851562 113.14734649658203 112.2170181274414" stroke-width="2" fill="none" stroke="rgb(0, 0, 0)" stroke-opacity="1.0" stroke-linecap="round" stroke-linejoin="round"/>
    <path d="M 77.7671890258789 124.05801391601562 C 96.26480102539062 108.37300109863281 96.40901184082031 140.8415069580078 75.46968078613281 118.15921020507812" stroke-width="2" fill="none" stroke="rgb(0, 0, 0)" stroke-opacity="1.0" stroke-linecap="round" stroke-linejoin="round"/>
    <path d="M 177.28187561035156 81.42517852783203 C 157.8990478515625 29.690690994262695 197.5784912109375 125.98416900634766 122.49539947509766 108.54110717773438" stroke-width="2" fill="none" stroke="rgb(0, 0, 0)" stroke-opacity="1.0" stroke-linecap="round" stroke-linejoin="round"/>
    <path d="M 152.6910858154297 150.90733337402344 C 170.69790649414062 143.07723999023438 120.5624771118164 140.62586975097656 173.52037048339844 143.58651733398438" stroke-width="2" fill="none" stroke="rgb(0, 0, 0)" stroke-opacity="1.0" stroke-linecap="round" stroke-linejoin="round"/>
    <path d="M 57.89236068725586 134.0101776123047 C 112.2249984741211 169.8854217529297 45.263648986816406 126.09481048583984 80.58334350585938 141.7953643798828" stroke-width="2" fill="none" stroke="rgb(0, 0, 0)" stroke-opacity="1.0" stroke-linecap="round" stroke-linejoin="round"/>
    <path d="M 117.61012268066406 104.35710144042969 C 133.031982421875 69.02798461914062 107.8791275024414 126.09115600585938 103.62122344970703 69.39839172363281" stroke-width="2" fill="none" stroke="rgb(0, 0, 0)" stroke-opacity="1.0" stroke-linecap="round" stroke-linejoin="round"/>
    <path d="M 152.81118774414062 114.06484985351562 C 194.64218139648438 62.807945251464844 168.66493225097656 74.97029113769531 167.8331756591797 66.35017395019531" stroke-width="2" fill="none" stroke="rgb(0, 0, 0)" stroke-opacity="1.0" stroke-linecap="round" stroke-linejoin="round"/>
    <path d="M 84.7189712524414 112.12263488769531 C 74.93224334716797 119.00941467285156 73.09941101074219 64.1192626953125 41.25568389892578 118.59881591796875" stroke-width="2" fill="none" stroke="rgb(0, 0, 0)" stroke-opacity="1.0" stroke-linecap="round" stroke-linejoin="round"/>
    <path d="M 58.52351760864258 118.18659973144531 C 56.63530349731445 96.98632049560547 24.045053482055664 122.00398254394531 36.617103576660156 141.93954467773438" stroke-width="2" fill="none" stroke="rgb(0, 0, 0)" stroke-opacity="1.0" stroke-linecap="round" stroke-linejoin="round"/>
  </g>
</svg>
