<?xml version="1.0" ?>
<svg xmlns="http://www.w3.org/2000/svg" version="1.1" width="224" height="224">
  <defs/>
  <g>
    <path d="M 93.7112808227539 89.83942413330078 C 40.218814849853516 107.25841522216797 83.99259185791016 89.3111801147461 80.49468231201172 115.38238525390625" stroke-width="2" fill="none" stroke="rgb(0, 0, 0)" stroke-opacity="1.0" stroke-linecap="round" stroke-linejoin="round"/>
    <path d="M 108.00897216796875 152.31985473632812 C 138.3596954345703 119.0364990234375 124.55397033691406 163.38272094726562 87.53801727294922 147.273193359375" stroke-width="2" fill="none" stroke="rgb(0, 0, 0)" stroke-opacity="1.0" stroke-linecap="round" stroke-linejoin="round"/>
    <path d="M 166.99005126953125 116.93667602539062 C 96.24961853027344 128.70791625976562 53.19057083129883 124.51622009277344 99.16693878173828 127.03451538085938" stroke-width="2" fill="none" stroke="rgb(0, 0, 0)" stroke-opacity="1.0" stroke-linecap="round" stroke-linejoin="round"/>
    <path d="M 176.32667541503906 144.5806884765625 C 165.5024871826172 151.50352478027344 199.36659240722656 137.35484313964844 114.2513198852539 133.34031677246094" stroke-width="2" fill="none" stroke="rgb(0, 0, 0)" stroke-opacity="1.0" stroke-linecap="round" stroke-linejoin="round"/>
    <path d="M 118.58345794677734 118.63179779052734 C 135.6173858642578 104.85796356201172 132.04383850097656 102.4590072631836 105.74069213867188 65.10346984863281" stroke-width="2" fill="none" stroke="rgb(0, 0, 0)" stroke-opacity="1.0" stroke-linecap="round" stroke-linejoin="round"/>
    <path d="M 104.9089126586914 65.30447387695312 C 98.23821258544922 68.56339263916016 94.83405303955078 97.08438873291016 95.92725372314453 98.97953796386719" stroke-width="2" fill="none" stroke="rgb(0, 0, 0)" stroke-opacity="1.0" stroke-linecap="round" stroke-linejoin="round"/>
    <path d="M 31.718175888061523 138.95509338378906 C 55.15242004394531 154.80648803710938 153.5955810546875 163.66714477539062 106.99459838867188 143.8500213623047" stroke-width="2" fill="none" stroke="rgb(0, 0, 0)" stroke-opacity="1.0" stroke-linecap="round" stroke-linejoin="round"/>
    <path d="M 158.91749572753906 155.16746520996094 C 150.9254913330078 126.6443862915039 102.37091064453125 165.0292510986328 117.29911804199219 113.70014190673828" stroke-width="2" fill="none" stroke="rgb(0, 0, 0)" stroke-opacity="1.0" stroke-linecap="round" stroke-linejoin="round"/>
    <path d="M 82.60213470458984 129.27813720703125 C 111.5052490234375 107.272216796875 98.05059814453125 147.76585388183594 89.19422149658203 120.9134292602539" stroke-width="2" fill="none" stroke="rgb(0, 0, 0)" stroke-opacity="1.0" stroke-linecap="round" stroke-linejoin="round"/>
    <path d="M 173.1037139892578 94.5991439819336 C 169.8006591796875 41.150299072265625 190.2577667236328 95.84158325195312 148.2144317626953 93.60933685302734" stroke-width="2" fill="none" stroke="rgb(0, 0, 0)" stroke-opacity="1.0" stroke-linecap="round" stroke-linejoin="round"/>
    <path d="M 163.18931579589844 148.23818969726562 C 184.9534149169922 161.97225952148438 130.8196563720703 152.12474060058594 173.29568481445312 153.32781982421875" stroke-width="2" fill="none" stroke="rgb(0, 0, 0)" stroke-opacity="1.0" stroke-linecap="round" stroke-linejoin="round"/>
    <path d="M 70.45879364013672 132.9939422607422 C 105.1889877319336 158.21429443359375 38.55607986450195 124.9585952758789 98.43671417236328 155.54832458496094" stroke-width="2" fill="none" stroke="rgb(0, 0, 0)" stroke-opacity="1.0" stroke-linecap="round" stroke-linejoin="round"/>
    <path d="M 108.50804138183594 114.08032989501953 C 122.95068359375 82.51000213623047 108.23133087158203 141.18359375 104.6538314819336 65.33678436279297" stroke-width="2" fill="none" stroke="rgb(0, 0, 0)" stroke-opacity="1.0" stroke-linecap="round" stroke-linejoin="round"/>
    <path d="M 157.6256561279297 120.64057159423828 C 199.11265563964844 61.623985290527344 165.74790954589844 96.84629821777344 177.22691345214844 62.291709899902344" stroke-width="2" fill="none" stroke="rgb(0, 0, 0)" stroke-opacity="1.0" stroke-linecap="round" stroke-linejoin="round"/>
    <path d="M 84.96625518798828 112.13164520263672 C 74.62350463867188 107.41123962402344 68.09739685058594 85.47384643554688 45.07069396972656 111.75" stroke-width="2" fill="none" stroke="rgb(0, 0, 0)" stroke-opacity="1.0" stroke-linecap="round" stroke-linejoin="round"/>
    <path d="M 34.657691955566406 117.36539459228516 C 49.31406784057617 104.73641967773438 31.101428985595703 107.32557678222656 34.181480407714844 129.9006805419922" stroke-width="2" fill="none" stroke="rgb(0, 0, 0)" stroke-opacity="1.0" stroke-linecap="round" stroke-linejoin="round"/>
  </g>
</svg>
