<?xml version="1.0" ?>
<svg xmlns="http://www.w3.org/2000/svg" version="1.1" width="224" height="224">
  <defs/>
  <g>
    <path d="M 129.5141143798828 129.55621337890625 C 25.9792423248291 65.42144775390625 247.9321746826172 99.9232406616211 145.50164794921875 100.04859924316406" stroke-width="2" fill="none" stroke="rgb(0, 0, 0)" stroke-opacity="1.0" stroke-linecap="round" stroke-linejoin="round"/>
    <path d="M 120.88500213623047 120.596435546875 C 150.02639770507812 112.33162689208984 98.37631225585938 105.26282501220703 130.86843872070312 107.2250747680664" stroke-width="2" fill="none" stroke="rgb(0, 0, 0)" stroke-opacity="1.0" stroke-linecap="round" stroke-linejoin="round"/>
    <path d="M 135.80616760253906 138.16299438476562 C 108.01431274414062 159.95895385742188 99.38706970214844 112.29671478271484 100.79856872558594 133.50469970703125" stroke-width="2" fill="none" stroke="rgb(0, 0, 0)" stroke-opacity="1.0" stroke-linecap="round" stroke-linejoin="round"/>
    <path d="M 175.55877685546875 153.28306579589844 C 152.19290161132812 158.30325317382812 214.20928955078125 137.77145385742188 133.51531982421875 137.54881286621094" stroke-width="2" fill="none" stroke="rgb(0, 0, 0)" stroke-opacity="1.0" stroke-linecap="round" stroke-linejoin="round"/>
    <path d="M 117.74056243896484 118.635009765625 C 141.9139862060547 147.798828125 222.69793701171875 99.71066284179688 102.59214782714844 83.02047729492188" stroke-width="2" fill="none" stroke="rgb(0, 0, 0)" stroke-opacity="1.0" stroke-linecap="round" stroke-linejoin="round"/>
    <path d="M 100.2476577758789 66.69235229492188 C 98.01387023925781 117.49676513671875 234.3793487548828 74.40967559814453 140.55130004882812 83.50923156738281" stroke-width="2" fill="none" stroke="rgb(0, 0, 0)" stroke-opacity="1.0" stroke-linecap="round" stroke-linejoin="round"/>
    <path d="M 63.433780670166016 139.36016845703125 C 43.38493728637695 168.73040771484375 224.05062866210938 135.41647338867188 184.20372009277344 155.2318878173828" stroke-width="2" fill="none" stroke="rgb(0, 0, 0)" stroke-opacity="1.0" stroke-linecap="round" stroke-linejoin="round"/>
    <path d="M 123.0776596069336 112.69186401367188 C 161.10006713867188 112.34973907470703 60.8549919128418 119.61210632324219 139.37347412109375 127.60065460205078" stroke-width="2" fill="none" stroke="rgb(0, 0, 0)" stroke-opacity="1.0" stroke-linecap="round" stroke-linejoin="round"/>
    <path d="M 146.47091674804688 121.52642059326172 C 74.79130554199219 116.05783081054688 165.6757049560547 119.56724548339844 138.22750854492188 115.8740005493164" stroke-width="2" fill="none" stroke="rgb(0, 0, 0)" stroke-opacity="1.0" stroke-linecap="round" stroke-linejoin="round"/>
    <path d="M 183.19052124023438 66.8602066040039 C 127.42301177978516 118.81621551513672 232.2646026611328 8.829745292663574 167.73170471191406 97.93718719482422" stroke-width="2" fill="none" stroke="rgb(0, 0, 0)" stroke-opacity="1.0" stroke-linecap="round" stroke-linejoin="round"/>
    <path d="M 107.40247344970703 157.1268768310547 C 163.59535217285156 138.8680419921875 150.76100158691406 165.15768432617188 141.88616943359375 152.65367126464844" stroke-width="2" fill="none" stroke="rgb(0, 0, 0)" stroke-opacity="1.0" stroke-linecap="round" stroke-linejoin="round"/>
    <path d="M 100.68732452392578 124.42487335205078 C 315.03009033203125 141.51434326171875 81.02256774902344 166.4827423095703 74.83737182617188 142.622802734375" stroke-width="2" fill="none" stroke="rgb(0, 0, 0)" stroke-opacity="1.0" stroke-linecap="round" stroke-linejoin="round"/>
    <path d="M 161.57728576660156 92.9211654663086 C 118.99394989013672 111.67575073242188 181.94993591308594 114.90914916992188 101.94261932373047 71.0442886352539" stroke-width="2" fill="none" stroke="rgb(0, 0, 0)" stroke-opacity="1.0" stroke-linecap="round" stroke-linejoin="round"/>
    <path d="M 153.78477478027344 112.63772583007812 C 185.73670959472656 115.05426025390625 194.67367553710938 54.28494644165039 184.49900817871094 66.32211303710938" stroke-width="2" fill="none" stroke="rgb(0, 0, 0)" stroke-opacity="1.0" stroke-linecap="round" stroke-linejoin="round"/>
    <path d="M 101.51101684570312 80.41093444824219 C 137.54147338867188 141.16610717773438 40.359092712402344 65.20547485351562 51.054195404052734 120.16482543945312" stroke-width="2" fill="none" stroke="rgb(0, 0, 0)" stroke-opacity="1.0" stroke-linecap="round" stroke-linejoin="round"/>
    <path d="M 90.98616027832031 92.29310607910156 C 53.39569091796875 92.21099090576172 5.159722805023193 148.930419921875 74.02103424072266 148.27085876464844" stroke-width="2" fill="none" stroke="rgb(0, 0, 0)" stroke-opacity="1.0" stroke-linecap="round" stroke-linejoin="round"/>
  </g>
</svg>
