<?xml version="1.0" ?>
<svg xmlns="http://www.w3.org/2000/svg" version="1.1" width="224" height="224">
  <defs/>
  <g>
    <path d="M 147.67054748535156 113.24507141113281 C 28.98427963256836 70.36113739013672 249.5508575439453 77.71892547607422 159.3497314453125 92.19226837158203" stroke-width="2" fill="none" stroke="rgb(0, 0, 0)" stroke-opacity="1.0" stroke-linecap="round" stroke-linejoin="round"/>
    <path d="M 122.72734069824219 108.55865478515625 C 178.61851501464844 105.08119201660156 87.10773468017578 90.11837768554688 141.76312255859375 107.39546966552734" stroke-width="2" fill="none" stroke="rgb(0, 0, 0)" stroke-opacity="1.0" stroke-linecap="round" stroke-linejoin="round"/>
    <path d="M 95.610107421875 138.75946044921875 C 143.7074737548828 173.93560791015625 94.87698364257812 127.37329864501953 117.9610595703125 145.52655029296875" stroke-width="2" fill="none" stroke="rgb(0, 0, 0)" stroke-opacity="1.0" stroke-linecap="round" stroke-linejoin="round"/>
    <path d="M 177.519775390625 150.25949096679688 C 176.33981323242188 160.36630249023438 146.17825317382812 128.83224487304688 140.5686798095703 152.680419921875" stroke-width="2" fill="none" stroke="rgb(0, 0, 0)" stroke-opacity="1.0" stroke-linecap="round" stroke-linejoin="round"/>
    <path d="M 112.05453491210938 108.12893676757812 C 153.8367919921875 168.20692443847656 231.59320068359375 35.52665328979492 163.99794006347656 104.10362243652344" stroke-width="2" fill="none" stroke="rgb(0, 0, 0)" stroke-opacity="1.0" stroke-linecap="round" stroke-linejoin="round"/>
    <path d="M 99.18345642089844 74.09349822998047 C 104.89115905761719 102.77781677246094 129.62559509277344 73.64324951171875 180.2509307861328 74.40013122558594" stroke-width="2" fill="none" stroke="rgb(0, 0, 0)" stroke-opacity="1.0" stroke-linecap="round" stroke-linejoin="round"/>
    <path d="M 62.572509765625 140.37022399902344 C 73.42231750488281 171.2090301513672 211.07278442382812 136.49583435058594 186.33087158203125 135.93307495117188" stroke-width="2" fill="none" stroke="rgb(0, 0, 0)" stroke-opacity="1.0" stroke-linecap="round" stroke-linejoin="round"/>
    <path d="M 84.31488037109375 123.90064239501953 C 308.8694763183594 124.12918090820312 49.74949645996094 117.66668701171875 146.9468994140625 100.54430389404297" stroke-width="2" fill="none" stroke="rgb(0, 0, 0)" stroke-opacity="1.0" stroke-linecap="round" stroke-linejoin="round"/>
    <path d="M 153.94821166992188 111.10803985595703 C -32.095115661621094 152.41880798339844 160.08102416992188 116.52323913574219 109.68276977539062 116.73424530029297" stroke-width="2" fill="none" stroke="rgb(0, 0, 0)" stroke-opacity="1.0" stroke-linecap="round" stroke-linejoin="round"/>
    <path d="M 188.4785919189453 67.47879028320312 C 163.1722869873047 95.0528335571289 224.3857421875 18.06485366821289 177.9118194580078 107.91105651855469" stroke-width="2" fill="none" stroke="rgb(0, 0, 0)" stroke-opacity="1.0" stroke-linecap="round" stroke-linejoin="round"/>
    <path d="M 192.91427612304688 135.8023681640625 C 172.86886596679688 152.1277618408203 212.12950134277344 115.52235412597656 185.46226501464844 135.8330841064453" stroke-width="2" fill="none" stroke="rgb(0, 0, 0)" stroke-opacity="1.0" stroke-linecap="round" stroke-linejoin="round"/>
    <path d="M 166.86363220214844 142.37213134765625 C 246.65737915039062 115.91909790039062 111.04925537109375 160.1090545654297 127.77008056640625 151.86578369140625" stroke-width="2" fill="none" stroke="rgb(0, 0, 0)" stroke-opacity="1.0" stroke-linecap="round" stroke-linejoin="round"/>
    <path d="M 156.136474609375 80.98993682861328 C 124.57353973388672 96.55243682861328 194.03868103027344 94.05239868164062 96.43327331542969 69.55931091308594" stroke-width="2" fill="none" stroke="rgb(0, 0, 0)" stroke-opacity="1.0" stroke-linecap="round" stroke-linejoin="round"/>
    <path d="M 161.30116271972656 93.22758483886719 C 163.4256591796875 122.35932922363281 229.15245056152344 18.415084838867188 170.86337280273438 72.1562271118164" stroke-width="2" fill="none" stroke="rgb(0, 0, 0)" stroke-opacity="1.0" stroke-linecap="round" stroke-linejoin="round"/>
    <path d="M 98.25267791748047 68.86518096923828 C 179.06732177734375 120.38077545166016 37.08858871459961 62.66655349731445 50.623313903808594 130.18499755859375" stroke-width="2" fill="none" stroke="rgb(0, 0, 0)" stroke-opacity="1.0" stroke-linecap="round" stroke-linejoin="round"/>
    <path d="M 32.57548522949219 134.18675231933594 C 65.61801147460938 91.42011260986328 -8.75340461730957 163.29713439941406 85.87992095947266 150.82154846191406" stroke-width="2" fill="none" stroke="rgb(0, 0, 0)" stroke-opacity="1.0" stroke-linecap="round" stroke-linejoin="round"/>
  </g>
</svg>
