<?xml version="1.0" ?>
<svg xmlns="http://www.w3.org/2000/svg" version="1.1" width="224" height="224">
  <defs/>
  <g>
    <path d="M 133.52394104003906 103.45160675048828 C 29.87500762939453 62.154022216796875 250.52218627929688 88.51355743408203 150.67034912109375 92.04312133789062" stroke-width="2" fill="none" stroke="rgb(0, 0, 0)" stroke-opacity="1.0" stroke-linecap="round" stroke-linejoin="round"/>
    <path d="M 115.95850372314453 99.60540008544922 C 167.20579528808594 91.00470733642578 101.97831726074219 90.0947265625 133.78143310546875 101.05738067626953" stroke-width="2" fill="none" stroke="rgb(0, 0, 0)" stroke-opacity="1.0" stroke-linecap="round" stroke-linejoin="round"/>
    <path d="M 108.9869613647461 143.10191345214844 C 111.14558410644531 133.585693359375 66.2293930053711 123.94990539550781 90.7165756225586 134.5429229736328" stroke-width="2" fill="none" stroke="rgb(0, 0, 0)" stroke-opacity="1.0" stroke-linecap="round" stroke-linejoin="round"/>
    <path d="M 179.08868408203125 148.14646911621094 C 165.34518432617188 167.66664123535156 146.7602996826172 134.16490173339844 121.82681274414062 147.82839965820312" stroke-width="2" fill="none" stroke="rgb(0, 0, 0)" stroke-opacity="1.0" stroke-linecap="round" stroke-linejoin="round"/>
    <path d="M 108.75320434570312 99.66534423828125 C 134.7201690673828 170.7102813720703 231.15858459472656 16.644012451171875 156.8458251953125 97.28150939941406" stroke-width="2" fill="none" stroke="rgb(0, 0, 0)" stroke-opacity="1.0" stroke-linecap="round" stroke-linejoin="round"/>
    <path d="M 95.20195007324219 69.83755493164062 C 85.46739196777344 97.1275634765625 166.38494873046875 77.49800109863281 170.47390747070312 67.17404174804688" stroke-width="2" fill="none" stroke="rgb(0, 0, 0)" stroke-opacity="1.0" stroke-linecap="round" stroke-linejoin="round"/>
    <path d="M 56.67839431762695 134.08726501464844 C 65.32111358642578 170.72265625 259.2565002441406 136.72174072265625 201.49447631835938 141.8021240234375" stroke-width="2" fill="none" stroke="rgb(0, 0, 0)" stroke-opacity="1.0" stroke-linecap="round" stroke-linejoin="round"/>
    <path d="M 91.3416748046875 109.43416595458984 C 284.61627197265625 116.8815689086914 93.32454681396484 110.07605743408203 148.08253479003906 106.4130859375" stroke-width="2" fill="none" stroke="rgb(0, 0, 0)" stroke-opacity="1.0" stroke-linecap="round" stroke-linejoin="round"/>
    <path d="M 131.07586669921875 106.27306365966797 C 17.71837615966797 121.00233459472656 167.85302734375 109.760009765625 118.11809539794922 106.62783813476562" stroke-width="2" fill="none" stroke="rgb(0, 0, 0)" stroke-opacity="1.0" stroke-linecap="round" stroke-linejoin="round"/>
    <path d="M 182.884765625 60.665748596191406 C 135.52293395996094 82.50164031982422 237.5526885986328 27.49247932434082 159.2877960205078 93.27781677246094" stroke-width="2" fill="none" stroke="rgb(0, 0, 0)" stroke-opacity="1.0" stroke-linecap="round" stroke-linejoin="round"/>
    <path d="M 174.4792938232422 152.26466369628906 C 165.84596252441406 138.81442260742188 204.62115478515625 153.73440551757812 169.759765625 152.54000854492188" stroke-width="2" fill="none" stroke="rgb(0, 0, 0)" stroke-opacity="1.0" stroke-linecap="round" stroke-linejoin="round"/>
    <path d="M 146.26571655273438 137.5972900390625 C 266.8359375 136.2704620361328 104.09178924560547 168.78408813476562 107.80081939697266 122.66105651855469" stroke-width="2" fill="none" stroke="rgb(0, 0, 0)" stroke-opacity="1.0" stroke-linecap="round" stroke-linejoin="round"/>
    <path d="M 152.48924255371094 77.40055847167969 C 124.50121307373047 95.42709350585938 180.19435119628906 91.24999237060547 90.17659759521484 70.36031341552734" stroke-width="2" fill="none" stroke="rgb(0, 0, 0)" stroke-opacity="1.0" stroke-linecap="round" stroke-linejoin="round"/>
    <path d="M 155.8595428466797 94.71099853515625 C 177.7694549560547 134.20501708984375 195.0474395751953 46.8446044921875 184.5408935546875 73.99381256103516" stroke-width="2" fill="none" stroke="rgb(0, 0, 0)" stroke-opacity="1.0" stroke-linecap="round" stroke-linejoin="round"/>
    <path d="M 98.46438598632812 70.83197784423828 C 159.40887451171875 114.50454711914062 46.360958099365234 60.33087921142578 45.87345504760742 123.02156066894531" stroke-width="2" fill="none" stroke="rgb(0, 0, 0)" stroke-opacity="1.0" stroke-linecap="round" stroke-linejoin="round"/>
    <path d="M 40.84550857543945 130.86280822753906 C 54.336891174316406 108.67525482177734 6.118083953857422 149.68527221679688 99.20932006835938 151.59381103515625" stroke-width="2" fill="none" stroke="rgb(0, 0, 0)" stroke-opacity="1.0" stroke-linecap="round" stroke-linejoin="round"/>
  </g>
</svg>
