<?xml version="1.0" ?>
<svg xmlns="http://www.w3.org/2000/svg" version="1.1" width="224" height="224">
  <defs/>
  <g>
    <path d="M 114.82301330566406 109.82267761230469 C 26.85686683654785 22.07340431213379 206.71170043945312 107.83468627929688 157.10165405273438 97.51371765136719" stroke-width="2" fill="none" stroke="rgb(0, 0, 0)" stroke-opacity="1.0" stroke-linecap="round" stroke-linejoin="round"/>
    <path d="M 123.2598876953125 89.28389739990234 C 118.28870391845703 93.29554748535156 54.298404693603516 37.47523498535156 114.46493530273438 91.21183013916016" stroke-width="2" fill="none" stroke="rgb(0, 0, 0)" stroke-opacity="1.0" stroke-linecap="round" stroke-linejoin="round"/>
    <path d="M 144.35128784179688 108.80511474609375 C 140.434814453125 133.705322265625 121.85587310791016 84.8031997680664 141.7364044189453 116.02207946777344" stroke-width="2" fill="none" stroke="rgb(0, 0, 0)" stroke-opacity="1.0" stroke-linecap="round" stroke-linejoin="round"/>
    <path d="M 43.42789077758789 129.14796447753906 C 54.01335525512695 168.5205535888672 191.47116088867188 157.50645446777344 85.61613464355469 147.0661163330078" stroke-width="2" fill="none" stroke="rgb(0, 0, 0)" stroke-opacity="1.0" stroke-linecap="round" stroke-linejoin="round"/>
    <path d="M 159.47828674316406 108.16633605957031 C 147.14959716796875 152.15065002441406 217.51736450195312 19.481294631958008 164.95213317871094 76.91455841064453" stroke-width="2" fill="none" stroke="rgb(0, 0, 0)" stroke-opacity="1.0" stroke-linecap="round" stroke-linejoin="round"/>
    <path d="M 102.87334442138672 97.23491668701172 C 140.7078399658203 126.6379165649414 83.6464614868164 74.90765380859375 164.905029296875 77.97879791259766" stroke-width="2" fill="none" stroke="rgb(0, 0, 0)" stroke-opacity="1.0" stroke-linecap="round" stroke-linejoin="round"/>
    <path d="M 76.74163055419922 131.74827575683594 C 48.30900192260742 155.73098754882812 282.1589050292969 162.8152618408203 138.39410400390625 141.94541931152344" stroke-width="2" fill="none" stroke="rgb(0, 0, 0)" stroke-opacity="1.0" stroke-linecap="round" stroke-linejoin="round"/>
    <path d="M 120.25518798828125 114.29023742675781 C 231.01104736328125 138.1121368408203 53.81714630126953 112.41385650634766 100.68606567382812 114.26441955566406" stroke-width="2" fill="none" stroke="rgb(0, 0, 0)" stroke-opacity="1.0" stroke-linecap="round" stroke-linejoin="round"/>
    <path d="M 89.0304946899414 154.43685913085938 C -40.22445297241211 140.5641632080078 263.3780822753906 152.63546752929688 166.65699768066406 130.5920867919922" stroke-width="2" fill="none" stroke="rgb(0, 0, 0)" stroke-opacity="1.0" stroke-linecap="round" stroke-linejoin="round"/>
    <path d="M 146.51022338867188 83.4372787475586 C 148.1269989013672 112.19584655761719 198.3734588623047 105.33676147460938 122.40886688232422 112.87931060791016" stroke-width="2" fill="none" stroke="rgb(0, 0, 0)" stroke-opacity="1.0" stroke-linecap="round" stroke-linejoin="round"/>
    <path d="M 167.36288452148438 133.54574584960938 C 112.63700866699219 133.41940307617188 191.8435821533203 131.2336883544922 122.06981658935547 119.61253356933594" stroke-width="2" fill="none" stroke="rgb(0, 0, 0)" stroke-opacity="1.0" stroke-linecap="round" stroke-linejoin="round"/>
    <path d="M 137.26263427734375 136.7691192626953 C 63.258060455322266 110.69524383544922 218.2123260498047 106.91963195800781 152.5158233642578 103.56209564208984" stroke-width="2" fill="none" stroke="rgb(0, 0, 0)" stroke-opacity="1.0" stroke-linecap="round" stroke-linejoin="round"/>
    <path d="M 100.8869400024414 82.54528045654297 C 110.22482299804688 122.63752746582031 130.1661834716797 103.58200073242188 101.4433364868164 98.17279815673828" stroke-width="2" fill="none" stroke="rgb(0, 0, 0)" stroke-opacity="1.0" stroke-linecap="round" stroke-linejoin="round"/>
    <path d="M 149.786865234375 97.21583557128906 C 183.93946838378906 84.93362426757812 184.93173217773438 56.23392868041992 177.13502502441406 98.21070098876953" stroke-width="2" fill="none" stroke="rgb(0, 0, 0)" stroke-opacity="1.0" stroke-linecap="round" stroke-linejoin="round"/>
    <path d="M 102.134033203125 74.76716613769531 C 178.6989288330078 128.5307159423828 28.541410446166992 61.52283477783203 50.80108642578125 120.98868560791016" stroke-width="2" fill="none" stroke="rgb(0, 0, 0)" stroke-opacity="1.0" stroke-linecap="round" stroke-linejoin="round"/>
    <path d="M 39.932411193847656 120.63400268554688 C 98.0569076538086 51.576202392578125 -18.35085105895996 152.08970642089844 89.24150085449219 152.64041137695312" stroke-width="2" fill="none" stroke="rgb(0, 0, 0)" stroke-opacity="1.0" stroke-linecap="round" stroke-linejoin="round"/>
  </g>
</svg>
