<?xml version="1.0" ?>
<svg xmlns="http://www.w3.org/2000/svg" version="1.1" width="224" height="224">
  <defs/>
  <g>
    <path d="M 140.2405242919922 127.20724487304688 C 19.371200561523438 58.396095275878906 245.78933715820312 75.01447296142578 155.9149932861328 89.52085876464844" stroke-width="2" fill="none" stroke="rgb(0, 0, 0)" stroke-opacity="1.0" stroke-linecap="round" stroke-linejoin="round"/>
    <path d="M 113.57823944091797 110.59235382080078 C 137.05520629882812 107.8913803100586 91.52095794677734 95.99649810791016 110.85945892333984 103.17959594726562" stroke-width="2" fill="none" stroke="rgb(0, 0, 0)" stroke-opacity="1.0" stroke-linecap="round" stroke-linejoin="round"/>
    <path d="M 135.04872131347656 130.81715393066406 C 160.93165588378906 116.98849487304688 98.35520935058594 95.19367980957031 148.7625274658203 109.17863464355469" stroke-width="2" fill="none" stroke="rgb(0, 0, 0)" stroke-opacity="1.0" stroke-linecap="round" stroke-linejoin="round"/>
    <path d="M 70.13521575927734 141.70265197753906 C 76.65245056152344 161.21315002441406 116.59627532958984 136.40040588378906 106.02345275878906 151.0758819580078" stroke-width="2" fill="none" stroke="rgb(0, 0, 0)" stroke-opacity="1.0" stroke-linecap="round" stroke-linejoin="round"/>
    <path d="M 114.53630828857422 101.85173797607422 C 123.6622314453125 161.95484924316406 235.4061279296875 8.08678913116455 146.2647705078125 80.41173553466797" stroke-width="2" fill="none" stroke="rgb(0, 0, 0)" stroke-opacity="1.0" stroke-linecap="round" stroke-linejoin="round"/>
    <path d="M 101.60889434814453 70.19176483154297 C 103.94390869140625 133.830810546875 138.7684326171875 45.84613800048828 151.95855712890625 99.09246063232422" stroke-width="2" fill="none" stroke="rgb(0, 0, 0)" stroke-opacity="1.0" stroke-linecap="round" stroke-linejoin="round"/>
    <path d="M 96.4839859008789 125.51115417480469 C 104.62895965576172 170.69895935058594 273.88519287109375 80.8863754272461 149.47689819335938 102.58097839355469" stroke-width="2" fill="none" stroke="rgb(0, 0, 0)" stroke-opacity="1.0" stroke-linecap="round" stroke-linejoin="round"/>
    <path d="M 125.31108093261719 115.09607696533203 C 339.3517761230469 83.45774841308594 71.28227233886719 118.33444213867188 118.19283294677734 118.55001068115234" stroke-width="2" fill="none" stroke="rgb(0, 0, 0)" stroke-opacity="1.0" stroke-linecap="round" stroke-linejoin="round"/>
    <path d="M 175.71998596191406 141.01893615722656 C -65.83849334716797 113.03296661376953 318.21771240234375 204.31808471679688 147.126708984375 147.48873901367188" stroke-width="2" fill="none" stroke="rgb(0, 0, 0)" stroke-opacity="1.0" stroke-linecap="round" stroke-linejoin="round"/>
    <path d="M 144.89617919921875 89.35816955566406 C 111.2906265258789 79.02181243896484 193.67453002929688 110.7619400024414 159.82583618164062 116.0214614868164" stroke-width="2" fill="none" stroke="rgb(0, 0, 0)" stroke-opacity="1.0" stroke-linecap="round" stroke-linejoin="round"/>
    <path d="M 164.5972137451172 132.74400329589844 C 79.25463104248047 117.5233154296875 167.4310302734375 117.39806365966797 129.8882598876953 122.49174499511719" stroke-width="2" fill="none" stroke="rgb(0, 0, 0)" stroke-opacity="1.0" stroke-linecap="round" stroke-linejoin="round"/>
    <path d="M 167.9844207763672 100.13401794433594 C 97.73826599121094 138.72010803222656 139.04440307617188 102.28477478027344 113.49700927734375 119.23333740234375" stroke-width="2" fill="none" stroke="rgb(0, 0, 0)" stroke-opacity="1.0" stroke-linecap="round" stroke-linejoin="round"/>
    <path d="M 101.94429779052734 72.40650177001953 C 106.5274887084961 100.75212860107422 154.77972412109375 82.02243041992188 102.55448913574219 83.08198547363281" stroke-width="2" fill="none" stroke="rgb(0, 0, 0)" stroke-opacity="1.0" stroke-linecap="round" stroke-linejoin="round"/>
    <path d="M 157.66229248046875 81.2916259765625 C 168.4414520263672 86.28201293945312 197.02938842773438 30.27996253967285 177.44921875 83.51795959472656" stroke-width="2" fill="none" stroke="rgb(0, 0, 0)" stroke-opacity="1.0" stroke-linecap="round" stroke-linejoin="round"/>
    <path d="M 98.79695892333984 67.65158081054688 C 181.71295166015625 117.43690490722656 48.822086334228516 60.46894073486328 58.37055206298828 118.57917022705078" stroke-width="2" fill="none" stroke="rgb(0, 0, 0)" stroke-opacity="1.0" stroke-linecap="round" stroke-linejoin="round"/>
    <path d="M 42.31025695800781 125.7000503540039 C 105.85091400146484 67.60494995117188 -43.344078063964844 173.7666778564453 139.47520446777344 148.66053771972656" stroke-width="2" fill="none" stroke="rgb(0, 0, 0)" stroke-opacity="1.0" stroke-linecap="round" stroke-linejoin="round"/>
  </g>
</svg>
