<?xml version="1.0" ?>
<svg xmlns="http://www.w3.org/2000/svg" version="1.1" width="224" height="224">
  <defs/>
  <g>
    <path d="M 112.92598724365234 87.22021484375 C 24.731548309326172 41.28571319580078 198.46762084960938 95.09566497802734 151.0509796142578 84.76207733154297" stroke-width="2" fill="none" stroke="rgb(0, 0, 0)" stroke-opacity="1.0" stroke-linecap="round" stroke-linejoin="round"/>
    <path d="M 117.45404815673828 68.16948699951172 C 181.80081176757812 116.81504821777344 49.24988555908203 37.04811477661133 110.8670883178711 96.8611831665039" stroke-width="2" fill="none" stroke="rgb(0, 0, 0)" stroke-opacity="1.0" stroke-linecap="round" stroke-linejoin="round"/>
    <path d="M 145.75653076171875 94.43582916259766 C 107.7331771850586 90.38072204589844 214.4652099609375 125.61748504638672 129.46182250976562 116.90556335449219" stroke-width="2" fill="none" stroke="rgb(0, 0, 0)" stroke-opacity="1.0" stroke-linecap="round" stroke-linejoin="round"/>
    <path d="M 114.62049865722656 144.37298583984375 C 78.6556396484375 143.6733856201172 254.34974670410156 165.22024536132812 125.2889633178711 145.3057403564453" stroke-width="2" fill="none" stroke="rgb(0, 0, 0)" stroke-opacity="1.0" stroke-linecap="round" stroke-linejoin="round"/>
    <path d="M 157.07040405273438 108.38805389404297 C 161.6637420654297 132.6279754638672 206.8525848388672 17.416425704956055 163.3340606689453 71.81565856933594" stroke-width="2" fill="none" stroke="rgb(0, 0, 0)" stroke-opacity="1.0" stroke-linecap="round" stroke-linejoin="round"/>
    <path d="M 178.47097778320312 131.55795288085938 C 237.46246337890625 146.41995239257812 8.35029125213623 100.45086669921875 164.08346557617188 71.85765838623047" stroke-width="2" fill="none" stroke="rgb(0, 0, 0)" stroke-opacity="1.0" stroke-linecap="round" stroke-linejoin="round"/>
    <path d="M 131.78067016601562 136.4710693359375 C 79.86030578613281 94.07366180419922 149.8367462158203 135.16502380371094 109.54961395263672 119.64481353759766" stroke-width="2" fill="none" stroke="rgb(0, 0, 0)" stroke-opacity="1.0" stroke-linecap="round" stroke-linejoin="round"/>
    <path d="M 133.59881591796875 141.54647827148438 C 222.03073120117188 143.06753540039062 131.14781188964844 157.94790649414062 148.65235900878906 150.88824462890625" stroke-width="2" fill="none" stroke="rgb(0, 0, 0)" stroke-opacity="1.0" stroke-linecap="round" stroke-linejoin="round"/>
    <path d="M 71.12484741210938 134.63119506835938 C 86.58287048339844 180.25234985351562 195.76150512695312 129.2513427734375 178.20516967773438 153.58726501464844" stroke-width="2" fill="none" stroke="rgb(0, 0, 0)" stroke-opacity="1.0" stroke-linecap="round" stroke-linejoin="round"/>
    <path d="M 160.60670471191406 91.88163757324219 C 133.7093048095703 68.26371765136719 169.9521484375 109.2743148803711 135.5548858642578 106.50173950195312" stroke-width="2" fill="none" stroke="rgb(0, 0, 0)" stroke-opacity="1.0" stroke-linecap="round" stroke-linejoin="round"/>
    <path d="M 170.4848175048828 104.03309631347656 C 58.430816650390625 125.1414794921875 192.5760498046875 107.24275207519531 141.0176544189453 123.54470825195312" stroke-width="2" fill="none" stroke="rgb(0, 0, 0)" stroke-opacity="1.0" stroke-linecap="round" stroke-linejoin="round"/>
    <path d="M 134.3885498046875 128.8335723876953 C 128.8144989013672 112.24427795410156 204.334716796875 124.01459503173828 133.226806640625 112.15240478515625" stroke-width="2" fill="none" stroke="rgb(0, 0, 0)" stroke-opacity="1.0" stroke-linecap="round" stroke-linejoin="round"/>
    <path d="M 90.1701889038086 77.20365142822266 C 83.78085327148438 136.58792114257812 140.98049926757812 88.00006866455078 105.932373046875 105.47293853759766" stroke-width="2" fill="none" stroke="rgb(0, 0, 0)" stroke-opacity="1.0" stroke-linecap="round" stroke-linejoin="round"/>
    <path d="M 142.029296875 96.2455825805664 C 164.68814086914062 120.81494903564453 205.74169921875 31.821680068969727 156.43710327148438 98.45467376708984" stroke-width="2" fill="none" stroke="rgb(0, 0, 0)" stroke-opacity="1.0" stroke-linecap="round" stroke-linejoin="round"/>
    <path d="M 136.31085205078125 120.6587905883789 C 201.39602661132812 149.88525390625 47.122047424316406 57.66953659057617 46.80040740966797 125.5508804321289" stroke-width="2" fill="none" stroke="rgb(0, 0, 0)" stroke-opacity="1.0" stroke-linecap="round" stroke-linejoin="round"/>
    <path d="M 50.38005065917969 111.40673065185547 C 121.863037109375 68.66390228271484 -62.749900817871094 162.0276641845703 129.74575805664062 152.2947235107422" stroke-width="2" fill="none" stroke="rgb(0, 0, 0)" stroke-opacity="1.0" stroke-linecap="round" stroke-linejoin="round"/>
  </g>
</svg>
