<?xml version="1.0" ?>
<svg xmlns="http://www.w3.org/2000/svg" version="1.1" width="224" height="224">
  <defs/>
  <g>
    <path d="M 145.12962341308594 121.92976379394531 C -4.179164886474609 40.411380767822266 241.09254455566406 81.61152648925781 168.8276824951172 88.37232971191406" stroke-width="2" fill="none" stroke="rgb(0, 0, 0)" stroke-opacity="1.0" stroke-linecap="round" stroke-linejoin="round"/>
    <path d="M 116.92100524902344 102.75125122070312 C 128.2396697998047 81.6888427734375 99.31148529052734 104.75569915771484 127.68949127197266 94.52346801757812" stroke-width="2" fill="none" stroke="rgb(0, 0, 0)" stroke-opacity="1.0" stroke-linecap="round" stroke-linejoin="round"/>
    <path d="M 140.29429626464844 125.90567016601562 C 187.57736206054688 119.82963562011719 112.42857360839844 82.67691040039062 153.9608917236328 109.79147338867188" stroke-width="2" fill="none" stroke="rgb(0, 0, 0)" stroke-opacity="1.0" stroke-linecap="round" stroke-linejoin="round"/>
    <path d="M 60.37810134887695 141.70587158203125 C 88.19332122802734 169.1534423828125 180.6306610107422 146.31419372558594 81.29149627685547 148.53683471679688" stroke-width="2" fill="none" stroke="rgb(0, 0, 0)" stroke-opacity="1.0" stroke-linecap="round" stroke-linejoin="round"/>
    <path d="M 116.05089569091797 97.47333526611328 C 172.3369140625 166.37518310546875 230.619384765625 3.443178415298462 156.8282928466797 89.06320190429688" stroke-width="2" fill="none" stroke="rgb(0, 0, 0)" stroke-opacity="1.0" stroke-linecap="round" stroke-linejoin="round"/>
    <path d="M 102.34622955322266 75.98136138916016 C 119.80404663085938 135.57974243164062 141.0214080810547 43.38637924194336 162.3507537841797 97.39991760253906" stroke-width="2" fill="none" stroke="rgb(0, 0, 0)" stroke-opacity="1.0" stroke-linecap="round" stroke-linejoin="round"/>
    <path d="M 78.17396545410156 126.9781265258789 C 72.59961700439453 171.4109344482422 281.29278564453125 103.0187759399414 137.91009521484375 116.826416015625" stroke-width="2" fill="none" stroke="rgb(0, 0, 0)" stroke-opacity="1.0" stroke-linecap="round" stroke-linejoin="round"/>
    <path d="M 138.76052856445312 118.98906707763672 C 288.9413146972656 96.8709945678711 39.46271514892578 117.66588592529297 102.598388671875 116.65377044677734" stroke-width="2" fill="none" stroke="rgb(0, 0, 0)" stroke-opacity="1.0" stroke-linecap="round" stroke-linejoin="round"/>
    <path d="M 194.822509765625 142.55404663085938 C -61.027061462402344 114.71695709228516 325.68017578125 189.24485778808594 175.96607971191406 147.23631286621094" stroke-width="2" fill="none" stroke="rgb(0, 0, 0)" stroke-opacity="1.0" stroke-linecap="round" stroke-linejoin="round"/>
    <path d="M 159.84170532226562 104.89468383789062 C 119.24545288085938 96.51542663574219 182.26788330078125 97.96437072753906 139.4466552734375 113.02017211914062" stroke-width="2" fill="none" stroke="rgb(0, 0, 0)" stroke-opacity="1.0" stroke-linecap="round" stroke-linejoin="round"/>
    <path d="M 140.843994140625 141.63864135742188 C 87.53861236572266 100.40155029296875 159.8402862548828 144.25958251953125 122.1297836303711 126.52772521972656" stroke-width="2" fill="none" stroke="rgb(0, 0, 0)" stroke-opacity="1.0" stroke-linecap="round" stroke-linejoin="round"/>
    <path d="M 151.17225646972656 110.04768371582031 C 91.35091400146484 128.28887939453125 165.6155242919922 85.75232696533203 115.40608978271484 107.24102020263672" stroke-width="2" fill="none" stroke="rgb(0, 0, 0)" stroke-opacity="1.0" stroke-linecap="round" stroke-linejoin="round"/>
    <path d="M 97.02577209472656 70.8790512084961 C 102.78739166259766 105.94627380371094 152.0500030517578 99.95365905761719 103.48109436035156 79.86257934570312" stroke-width="2" fill="none" stroke="rgb(0, 0, 0)" stroke-opacity="1.0" stroke-linecap="round" stroke-linejoin="round"/>
    <path d="M 153.46011352539062 80.78511810302734 C 173.98939514160156 90.36370086669922 221.91119384765625 38.739376068115234 170.70118713378906 88.70082092285156" stroke-width="2" fill="none" stroke="rgb(0, 0, 0)" stroke-opacity="1.0" stroke-linecap="round" stroke-linejoin="round"/>
    <path d="M 95.54852294921875 70.92646026611328 C 216.5437469482422 120.50953674316406 44.66063690185547 57.878936767578125 54.99174880981445 118.6525650024414" stroke-width="2" fill="none" stroke="rgb(0, 0, 0)" stroke-opacity="1.0" stroke-linecap="round" stroke-linejoin="round"/>
    <path d="M 40.72177505493164 121.01992797851562 C 119.29483795166016 52.736881256103516 -59.22364044189453 166.60462951660156 127.44096374511719 153.56639099121094" stroke-width="2" fill="none" stroke="rgb(0, 0, 0)" stroke-opacity="1.0" stroke-linecap="round" stroke-linejoin="round"/>
  </g>
</svg>
