<?xml version="1.0" ?>
<svg xmlns="http://www.w3.org/2000/svg" version="1.1" width="224" height="224">
  <defs/>
  <g>
    <path d="M 74.02809143066406 107.70991516113281 C 55.33762741088867 120.57166290283203 110.14814758300781 93.5213394165039 101.54279327392578 122.43186950683594" stroke-width="2" fill="none" stroke="rgb(0, 0, 0)" stroke-opacity="1.0" stroke-linecap="round" stroke-linejoin="round"/>
    <path d="M 101.5549545288086 152.99440002441406 C 149.3555908203125 127.34466552734375 145.8211212158203 160.71603393554688 99.64466094970703 141.06324768066406" stroke-width="2" fill="none" stroke="rgb(0, 0, 0)" stroke-opacity="1.0" stroke-linecap="round" stroke-linejoin="round"/>
    <path d="M 135.4113311767578 130.20997619628906 C 116.63297271728516 119.24756622314453 117.28866577148438 153.19683837890625 136.27606201171875 131.63345336914062" stroke-width="2" fill="none" stroke="rgb(0, 0, 0)" stroke-opacity="1.0" stroke-linecap="round" stroke-linejoin="round"/>
    <path d="M 153.73318481445312 134.26809692382812 C 179.38070678710938 135.24864196777344 161.77687072753906 128.85531616210938 124.94615173339844 110.18656921386719" stroke-width="2" fill="none" stroke="rgb(0, 0, 0)" stroke-opacity="1.0" stroke-linecap="round" stroke-linejoin="round"/>
    <path d="M 129.19786071777344 136.95521545410156 C 139.10096740722656 100.44062042236328 124.84170532226562 87.99565887451172 121.1547622680664 72.82614135742188" stroke-width="2" fill="none" stroke="rgb(0, 0, 0)" stroke-opacity="1.0" stroke-linecap="round" stroke-linejoin="round"/>
    <path d="M 117.09159088134766 72.09191131591797 C 110.28712463378906 90.61102294921875 103.87728118896484 93.35205078125 102.10415649414062 110.66651153564453" stroke-width="2" fill="none" stroke="rgb(0, 0, 0)" stroke-opacity="1.0" stroke-linecap="round" stroke-linejoin="round"/>
    <path d="M 71.04695892333984 142.73556518554688 C 82.5048599243164 142.19834899902344 78.28177642822266 165.79782104492188 114.4425277709961 144.06504821777344" stroke-width="2" fill="none" stroke="rgb(0, 0, 0)" stroke-opacity="1.0" stroke-linecap="round" stroke-linejoin="round"/>
    <path d="M 180.55772399902344 152.8761444091797 C 148.19053649902344 114.02103424072266 161.17562866210938 110.31059265136719 138.875 114.78013610839844" stroke-width="2" fill="none" stroke="rgb(0, 0, 0)" stroke-opacity="1.0" stroke-linecap="round" stroke-linejoin="round"/>
    <path d="M 113.20125579833984 128.15025329589844 C 133.6565399169922 125.22189331054688 137.72134399414062 149.85850524902344 115.90270233154297 124.74246215820312" stroke-width="2" fill="none" stroke="rgb(0, 0, 0)" stroke-opacity="1.0" stroke-linecap="round" stroke-linejoin="round"/>
    <path d="M 180.94158935546875 65.42325592041016 C 175.24191284179688 67.50205993652344 173.4834442138672 79.22061920166016 158.163818359375 117.53813171386719" stroke-width="2" fill="none" stroke="rgb(0, 0, 0)" stroke-opacity="1.0" stroke-linecap="round" stroke-linejoin="round"/>
    <path d="M 177.016845703125 159.97796630859375 C 162.22019958496094 165.26412963867188 193.50711059570312 165.18080139160156 179.7143096923828 148.3816680908203" stroke-width="2" fill="none" stroke="rgb(0, 0, 0)" stroke-opacity="1.0" stroke-linecap="round" stroke-linejoin="round"/>
    <path d="M 62.5733642578125 129.87400817871094 C 67.32090759277344 152.8829345703125 13.50706958770752 139.3772735595703 54.32125473022461 141.1063690185547" stroke-width="2" fill="none" stroke="rgb(0, 0, 0)" stroke-opacity="1.0" stroke-linecap="round" stroke-linejoin="round"/>
    <path d="M 114.13582611083984 109.96233367919922 C 132.50875854492188 100.3738784790039 114.99938201904297 96.56583404541016 121.52519226074219 71.55957794189453" stroke-width="2" fill="none" stroke="rgb(0, 0, 0)" stroke-opacity="1.0" stroke-linecap="round" stroke-linejoin="round"/>
    <path d="M 165.0251922607422 90.1429672241211 C 178.9706268310547 70.23080444335938 165.3671112060547 87.13734436035156 186.93809509277344 65.6085205078125" stroke-width="2" fill="none" stroke="rgb(0, 0, 0)" stroke-opacity="1.0" stroke-linecap="round" stroke-linejoin="round"/>
    <path d="M 77.01016235351562 106.10368347167969 C 59.678688049316406 94.96903228759766 75.42555236816406 96.18632507324219 44.823509216308594 86.05677795410156" stroke-width="2" fill="none" stroke="rgb(0, 0, 0)" stroke-opacity="1.0" stroke-linecap="round" stroke-linejoin="round"/>
    <path d="M 55.73091125488281 111.40187072753906 C 52.42488479614258 76.57215118408203 28.48259925842285 82.53986358642578 63.936317443847656 122.65397644042969" stroke-width="2" fill="none" stroke="rgb(0, 0, 0)" stroke-opacity="1.0" stroke-linecap="round" stroke-linejoin="round"/>
  </g>
</svg>
