<?xml version="1.0" ?>
<svg xmlns="http://www.w3.org/2000/svg" version="1.1" width="224" height="224">
  <defs/>
  <g>
    <path d="M 81.74693298339844 108.73104858398438 C 40.25075912475586 110.47576904296875 108.42469787597656 97.4650650024414 95.41390228271484 121.99686431884766" stroke-width="2" fill="none" stroke="rgb(0, 0, 0)" stroke-opacity="1.0" stroke-linecap="round" stroke-linejoin="round"/>
    <path d="M 121.11514282226562 153.5432891845703 C 182.53282165527344 132.08900451660156 124.364990234375 177.53720092773438 102.70873260498047 139.05130004882812" stroke-width="2" fill="none" stroke="rgb(0, 0, 0)" stroke-opacity="1.0" stroke-linecap="round" stroke-linejoin="round"/>
    <path d="M 139.10391235351562 135.27867126464844 C 116.28433990478516 113.62852478027344 129.2005157470703 157.8134765625 144.09239196777344 121.21326446533203" stroke-width="2" fill="none" stroke="rgb(0, 0, 0)" stroke-opacity="1.0" stroke-linecap="round" stroke-linejoin="round"/>
    <path d="M 148.55923461914062 131.56155395507812 C 165.1701202392578 124.84524536132812 168.462158203125 122.95140075683594 127.62086486816406 106.78557586669922" stroke-width="2" fill="none" stroke="rgb(0, 0, 0)" stroke-opacity="1.0" stroke-linecap="round" stroke-linejoin="round"/>
    <path d="M 128.2312469482422 143.11448669433594 C 156.2677001953125 130.11453247070312 129.56033325195312 84.74651336669922 109.13558959960938 69.83904266357422" stroke-width="2" fill="none" stroke="rgb(0, 0, 0)" stroke-opacity="1.0" stroke-linecap="round" stroke-linejoin="round"/>
    <path d="M 109.6927719116211 68.71123504638672 C 96.06754302978516 86.98311614990234 103.92982482910156 104.6167221069336 104.71807861328125 120.62134552001953" stroke-width="2" fill="none" stroke="rgb(0, 0, 0)" stroke-opacity="1.0" stroke-linecap="round" stroke-linejoin="round"/>
    <path d="M 81.95487976074219 151.60800170898438 C 86.64254760742188 152.38717651367188 60.910118103027344 155.57469177246094 139.18008422851562 147.55618286132812" stroke-width="2" fill="none" stroke="rgb(0, 0, 0)" stroke-opacity="1.0" stroke-linecap="round" stroke-linejoin="round"/>
    <path d="M 163.68992614746094 144.77847290039062 C 126.33501434326172 138.8426513671875 195.6383819580078 98.42113494873047 138.14747619628906 122.18461608886719" stroke-width="2" fill="none" stroke="rgb(0, 0, 0)" stroke-opacity="1.0" stroke-linecap="round" stroke-linejoin="round"/>
    <path d="M 113.78412628173828 131.84567260742188 C 140.20506286621094 127.32518768310547 146.88079833984375 141.89059448242188 115.07167053222656 128.90003967285156" stroke-width="2" fill="none" stroke="rgb(0, 0, 0)" stroke-opacity="1.0" stroke-linecap="round" stroke-linejoin="round"/>
    <path d="M 181.9534149169922 64.48198699951172 C 160.72079467773438 87.25286865234375 186.62698364257812 86.51703643798828 167.18994140625 114.23174285888672" stroke-width="2" fill="none" stroke="rgb(0, 0, 0)" stroke-opacity="1.0" stroke-linecap="round" stroke-linejoin="round"/>
    <path d="M 166.95700073242188 154.67640686035156 C 126.74913024902344 148.64735412597656 189.3170928955078 163.83164978027344 154.6913299560547 148.06907653808594" stroke-width="2" fill="none" stroke="rgb(0, 0, 0)" stroke-opacity="1.0" stroke-linecap="round" stroke-linejoin="round"/>
    <path d="M 40.71211624145508 128.5887451171875 C 44.624122619628906 155.51524353027344 -36.422969818115234 140.47283935546875 34.80317687988281 141.7684326171875" stroke-width="2" fill="none" stroke="rgb(0, 0, 0)" stroke-opacity="1.0" stroke-linecap="round" stroke-linejoin="round"/>
    <path d="M 102.63236236572266 117.42314147949219 C 112.02594757080078 91.07083129882812 127.50203704833984 126.02916717529297 111.46171569824219 71.9743881225586" stroke-width="2" fill="none" stroke="rgb(0, 0, 0)" stroke-opacity="1.0" stroke-linecap="round" stroke-linejoin="round"/>
    <path d="M 175.3138885498047 75.87977600097656 C 177.8026580810547 86.12731170654297 172.91552734375 84.59329986572266 177.70079040527344 72.54811096191406" stroke-width="2" fill="none" stroke="rgb(0, 0, 0)" stroke-opacity="1.0" stroke-linecap="round" stroke-linejoin="round"/>
    <path d="M 102.91287231445312 105.80620574951172 C 53.13068771362305 95.16083526611328 82.10009765625 116.76311492919922 38.33068084716797 101.17723846435547" stroke-width="2" fill="none" stroke="rgb(0, 0, 0)" stroke-opacity="1.0" stroke-linecap="round" stroke-linejoin="round"/>
    <path d="M 77.39857482910156 117.82162475585938 C 29.154714584350586 96.33740997314453 11.569543838500977 87.34225463867188 78.97290802001953 144.36651611328125" stroke-width="2" fill="none" stroke="rgb(0, 0, 0)" stroke-opacity="1.0" stroke-linecap="round" stroke-linejoin="round"/>
  </g>
</svg>
