<?xml version="1.0" ?>
<svg xmlns="http://www.w3.org/2000/svg" version="1.1" width="224" height="224">
  <defs/>
  <g>
    <path d="M 89.99983215332031 108.00067138671875 C 89.56201171875 102.68772888183594 89.03900146484375 101.57879638671875 89.69087982177734 103.55774688720703" stroke-width="2" fill="none" stroke="rgb(0, 0, 0)" stroke-opacity="1.0" stroke-linecap="round" stroke-linejoin="round"/>
    <path d="M 113.00007629394531 148.00025939941406 C 119.39151763916016 143.37640380859375 118.47737884521484 140.10699462890625 113.36690521240234 138.16751098632812" stroke-width="2" fill="none" stroke="rgb(0, 0, 0)" stroke-opacity="1.0" stroke-linecap="round" stroke-linejoin="round"/>
    <path d="M 128.99972534179688 130.00030517578125 C 121.69865417480469 128.5972442626953 123.3779296875 127.13072967529297 120.24494171142578 130.1204071044922" stroke-width="2" fill="none" stroke="rgb(0, 0, 0)" stroke-opacity="1.0" stroke-linecap="round" stroke-linejoin="round"/>
    <path d="M 145.99964904785156 120.00007629394531 C 147.46664428710938 114.47406768798828 152.88648986816406 118.68315887451172 151.1002960205078 112.83364868164062" stroke-width="2" fill="none" stroke="rgb(0, 0, 0)" stroke-opacity="1.0" stroke-linecap="round" stroke-linejoin="round"/>
    <path d="M 119.0001220703125 93.0000991821289 C 126.11779022216797 91.17035675048828 121.55924987792969 88.65119934082031 125.451171875 89.81391906738281" stroke-width="2" fill="none" stroke="rgb(0, 0, 0)" stroke-opacity="1.0" stroke-linecap="round" stroke-linejoin="round"/>
    <path d="M 110.99916076660156 83.00023651123047 C 112.43991088867188 87.57281494140625 112.84571075439453 92.87126159667969 111.48532104492188 93.45458984375" stroke-width="2" fill="none" stroke="rgb(0, 0, 0)" stroke-opacity="1.0" stroke-linecap="round" stroke-linejoin="round"/>
    <path d="M 70.99980163574219 142.00009155273438 C 72.68998718261719 143.32864379882812 76.74073791503906 144.19398498535156 81.0314712524414 139.10711669921875" stroke-width="2" fill="none" stroke="rgb(0, 0, 0)" stroke-opacity="1.0" stroke-linecap="round" stroke-linejoin="round"/>
    <path d="M 147.0004425048828 121.99968719482422 C 143.95263671875 119.64103698730469 139.24627685546875 116.64830780029297 134.77757263183594 112.16215515136719" stroke-width="2" fill="none" stroke="rgb(0, 0, 0)" stroke-opacity="1.0" stroke-linecap="round" stroke-linejoin="round"/>
    <path d="M 118.99983978271484 128.00013732910156 C 120.51946258544922 126.4879379272461 119.06543731689453 125.2310791015625 114.46627044677734 128.12353515625" stroke-width="2" fill="none" stroke="rgb(0, 0, 0)" stroke-opacity="1.0" stroke-linecap="round" stroke-linejoin="round"/>
    <path d="M 176.9998779296875 75.99979400634766 C 176.6585235595703 75.22261810302734 172.97532653808594 77.788818359375 169.2115936279297 76.43858337402344" stroke-width="2" fill="none" stroke="rgb(0, 0, 0)" stroke-opacity="1.0" stroke-linecap="round" stroke-linejoin="round"/>
    <path d="M 170.99993896484375 149.0000762939453 C 174.4829559326172 152.5677490234375 175.1216583251953 154.63519287109375 178.9607696533203 157.72682189941406" stroke-width="2" fill="none" stroke="rgb(0, 0, 0)" stroke-opacity="1.0" stroke-linecap="round" stroke-linejoin="round"/>
    <path d="M 68.00009155273438 140.99729919433594 C 64.96566772460938 135.74575805664062 62.89951705932617 131.15855407714844 61.661338806152344 138.11866760253906" stroke-width="2" fill="none" stroke="rgb(0, 0, 0)" stroke-opacity="1.0" stroke-linecap="round" stroke-linejoin="round"/>
    <path d="M 113.99976348876953 98.99796295166016 C 118.21439361572266 96.92394256591797 119.95267486572266 93.75711059570312 122.59925842285156 93.29480743408203" stroke-width="2" fill="none" stroke="rgb(0, 0, 0)" stroke-opacity="1.0" stroke-linecap="round" stroke-linejoin="round"/>
    <path d="M 175.99853515625 95.99991607666016 C 173.3645477294922 91.16519927978516 172.0543975830078 90.50372314453125 175.00099182128906 92.96083068847656" stroke-width="2" fill="none" stroke="rgb(0, 0, 0)" stroke-opacity="1.0" stroke-linecap="round" stroke-linejoin="round"/>
    <path d="M 79.00206756591797 95.00007629394531 C 77.87383270263672 91.86248779296875 83.44591522216797 91.96452331542969 80.86365509033203 86.89092254638672" stroke-width="2" fill="none" stroke="rgb(0, 0, 0)" stroke-opacity="1.0" stroke-linecap="round" stroke-linejoin="round"/>
    <path d="M 52.000099182128906 104.0005874633789 C 49.62519454956055 105.42755889892578 52.898597717285156 104.55598449707031 46.0112190246582 105.22962188720703" stroke-width="2" fill="none" stroke="rgb(0, 0, 0)" stroke-opacity="1.0" stroke-linecap="round" stroke-linejoin="round"/>
  </g>
</svg>
