<?xml version="1.0" ?>
<svg xmlns="http://www.w3.org/2000/svg" version="1.1" width="224" height="224">
  <defs/>
  <g>
    <path d="M 76.51851654052734 111.74625396728516 C 49.51689529418945 115.92977905273438 108.11688995361328 91.56904602050781 102.757080078125 118.96285247802734" stroke-width="2" fill="none" stroke="rgb(0, 0, 0)" stroke-opacity="1.0" stroke-linecap="round" stroke-linejoin="round"/>
    <path d="M 93.64884948730469 147.7242889404297 C 147.1824951171875 135.67242431640625 139.69149780273438 150.29544067382812 94.86477661132812 143.69873046875" stroke-width="2" fill="none" stroke="rgb(0, 0, 0)" stroke-opacity="1.0" stroke-linecap="round" stroke-linejoin="round"/>
    <path d="M 132.79115295410156 125.819580078125 C 111.92046356201172 116.20269775390625 115.47390747070312 147.32447814941406 128.3553466796875 126.16362762451172" stroke-width="2" fill="none" stroke="rgb(0, 0, 0)" stroke-opacity="1.0" stroke-linecap="round" stroke-linejoin="round"/>
    <path d="M 148.85299682617188 135.52845764160156 C 176.85064697265625 135.2991943359375 158.35255432128906 132.74481201171875 132.04379272460938 110.74434661865234" stroke-width="2" fill="none" stroke="rgb(0, 0, 0)" stroke-opacity="1.0" stroke-linecap="round" stroke-linejoin="round"/>
    <path d="M 131.56430053710938 126.0001220703125 C 139.57040405273438 106.59906005859375 124.0161361694336 91.72594451904297 120.9678955078125 74.97610473632812" stroke-width="2" fill="none" stroke="rgb(0, 0, 0)" stroke-opacity="1.0" stroke-linecap="round" stroke-linejoin="round"/>
    <path d="M 120.51175689697266 74.89265441894531 C 110.48799896240234 91.14962768554688 106.80854034423828 95.3471908569336 104.836669921875 108.13982391357422" stroke-width="2" fill="none" stroke="rgb(0, 0, 0)" stroke-opacity="1.0" stroke-linecap="round" stroke-linejoin="round"/>
    <path d="M 70.93191528320312 145.9854278564453 C 84.92792510986328 142.09967041015625 84.98780822753906 162.6385040283203 115.79572296142578 141.636474609375" stroke-width="2" fill="none" stroke="rgb(0, 0, 0)" stroke-opacity="1.0" stroke-linecap="round" stroke-linejoin="round"/>
    <path d="M 182.30731201171875 149.240234375 C 145.441650390625 118.24422454833984 155.12303161621094 110.55403137207031 139.7625732421875 117.02182006835938" stroke-width="2" fill="none" stroke="rgb(0, 0, 0)" stroke-opacity="1.0" stroke-linecap="round" stroke-linejoin="round"/>
    <path d="M 115.06197357177734 116.19087219238281 C 133.3695831298828 125.37359619140625 132.4179229736328 149.3629150390625 114.3069076538086 124.81011962890625" stroke-width="2" fill="none" stroke="rgb(0, 0, 0)" stroke-opacity="1.0" stroke-linecap="round" stroke-linejoin="round"/>
    <path d="M 188.49452209472656 70.17939758300781 C 177.16517639160156 68.50425720214844 170.40542602539062 77.32415771484375 153.3655242919922 107.5910873413086" stroke-width="2" fill="none" stroke="rgb(0, 0, 0)" stroke-opacity="1.0" stroke-linecap="round" stroke-linejoin="round"/>
    <path d="M 180.12109375 163.0428009033203 C 159.87327575683594 167.3800811767578 193.4760284423828 163.03440856933594 178.29270935058594 152.2452850341797" stroke-width="2" fill="none" stroke="rgb(0, 0, 0)" stroke-opacity="1.0" stroke-linecap="round" stroke-linejoin="round"/>
    <path d="M 71.73201751708984 127.27857208251953 C 72.17953491210938 155.51174926757812 16.381088256835938 141.1348114013672 53.0844612121582 138.76905822753906" stroke-width="2" fill="none" stroke="rgb(0, 0, 0)" stroke-opacity="1.0" stroke-linecap="round" stroke-linejoin="round"/>
    <path d="M 109.44963073730469 105.55045318603516 C 128.82867431640625 103.00204467773438 113.48246765136719 94.69544982910156 122.25299072265625 72.3113021850586" stroke-width="2" fill="none" stroke="rgb(0, 0, 0)" stroke-opacity="1.0" stroke-linecap="round" stroke-linejoin="round"/>
    <path d="M 164.92738342285156 85.33352661132812 C 181.8726348876953 76.85091400146484 159.58486938476562 80.06172180175781 181.6952362060547 67.5827407836914" stroke-width="2" fill="none" stroke="rgb(0, 0, 0)" stroke-opacity="1.0" stroke-linecap="round" stroke-linejoin="round"/>
    <path d="M 74.81898498535156 104.15961456298828 C 59.95325469970703 99.14199829101562 77.66989135742188 101.63018035888672 45.45981979370117 88.19760131835938" stroke-width="2" fill="none" stroke="rgb(0, 0, 0)" stroke-opacity="1.0" stroke-linecap="round" stroke-linejoin="round"/>
    <path d="M 52.33258056640625 113.7060546875 C 57.949153900146484 77.09525299072266 29.974794387817383 86.58415985107422 57.12174606323242 126.77806854248047" stroke-width="2" fill="none" stroke="rgb(0, 0, 0)" stroke-opacity="1.0" stroke-linecap="round" stroke-linejoin="round"/>
  </g>
</svg>
