<?xml version="1.0" ?>
<svg xmlns="http://www.w3.org/2000/svg" version="1.1" width="224" height="224">
  <defs/>
  <g>
    <path d="M 77.46238708496094 151.2000274658203 C -5.8438825607299805 157.80601501464844 72.95307922363281 47.97161865234375 120.27677917480469 118.36978149414062" stroke-width="2" fill="none" stroke="rgb(0, 0, 0)" stroke-opacity="1.0" stroke-linecap="round" stroke-linejoin="round"/>
    <path d="M 143.17555236816406 116.16654205322266 C 185.68922424316406 108.8834228515625 53.68284606933594 118.98104858398438 118.56043243408203 136.23312377929688" stroke-width="2" fill="none" stroke="rgb(0, 0, 0)" stroke-opacity="1.0" stroke-linecap="round" stroke-linejoin="round"/>
    <path d="M 56.168190002441406 112.12781524658203 C -10.042057991027832 157.2041015625 225.18141174316406 176.53427124023438 172.4221954345703 132.1940460205078" stroke-width="2" fill="none" stroke="rgb(0, 0, 0)" stroke-opacity="1.0" stroke-linecap="round" stroke-linejoin="round"/>
    <path d="M 127.78821563720703 113.20108795166016 C 202.06568908691406 130.5118408203125 122.23265838623047 114.55917358398438 158.70339965820312 123.2545166015625" stroke-width="2" fill="none" stroke="rgb(0, 0, 0)" stroke-opacity="1.0" stroke-linecap="round" stroke-linejoin="round"/>
    <path d="M 103.98744201660156 72.1091537475586 C 138.07301330566406 115.25192260742188 144.7014617919922 64.42247772216797 163.4804229736328 93.83037567138672" stroke-width="2" fill="none" stroke="rgb(0, 0, 0)" stroke-opacity="1.0" stroke-linecap="round" stroke-linejoin="round"/>
    <path d="M 96.44347381591797 103.57746887207031 C 129.38548278808594 91.11685943603516 115.20220947265625 82.23474884033203 102.38502502441406 112.56124877929688" stroke-width="2" fill="none" stroke="rgb(0, 0, 0)" stroke-opacity="1.0" stroke-linecap="round" stroke-linejoin="round"/>
    <path d="M 115.20641326904297 147.7727508544922 C 67.95860290527344 111.54290771484375 175.4708709716797 155.51182556152344 69.68074798583984 113.9425048828125" stroke-width="2" fill="none" stroke="rgb(0, 0, 0)" stroke-opacity="1.0" stroke-linecap="round" stroke-linejoin="round"/>
    <path d="M 96.8592529296875 107.80450439453125 C 169.21568298339844 141.7242431640625 -11.667635917663574 95.0712661743164 62.287166595458984 141.67391967773438" stroke-width="2" fill="none" stroke="rgb(0, 0, 0)" stroke-opacity="1.0" stroke-linecap="round" stroke-linejoin="round"/>
    <path d="M 173.98544311523438 143.39080810546875 C 70.74630737304688 133.63548278808594 170.9062957763672 113.44171905517578 92.206298828125 112.83838653564453" stroke-width="2" fill="none" stroke="rgb(0, 0, 0)" stroke-opacity="1.0" stroke-linecap="round" stroke-linejoin="round"/>
    <path d="M 144.72471618652344 121.36873626708984 C 172.74586486816406 126.16979217529297 120.27574157714844 123.91529083251953 162.94134521484375 130.07156372070312" stroke-width="2" fill="none" stroke="rgb(0, 0, 0)" stroke-opacity="1.0" stroke-linecap="round" stroke-linejoin="round"/>
    <path d="M 177.02940368652344 101.16459655761719 C 205.4414825439453 18.268596649169922 167.41026306152344 98.72726440429688 162.216552734375 85.74977111816406" stroke-width="2" fill="none" stroke="rgb(0, 0, 0)" stroke-opacity="1.0" stroke-linecap="round" stroke-linejoin="round"/>
    <path d="M 168.5104217529297 119.59044647216797 C 180.95272827148438 135.82174682617188 109.9453353881836 173.3561248779297 110.04141998291016 80.76715850830078" stroke-width="2" fill="none" stroke="rgb(0, 0, 0)" stroke-opacity="1.0" stroke-linecap="round" stroke-linejoin="round"/>
    <path d="M 65.3375473022461 134.6846923828125 C 28.58251190185547 116.04344177246094 94.5852279663086 160.75877380371094 151.25804138183594 146.5552978515625" stroke-width="2" fill="none" stroke="rgb(0, 0, 0)" stroke-opacity="1.0" stroke-linecap="round" stroke-linejoin="round"/>
    <path d="M 172.86105346679688 151.38995361328125 C 151.1647491455078 156.57595825195312 188.74977111816406 149.86241149902344 176.4883575439453 154.65371704101562" stroke-width="2" fill="none" stroke="rgb(0, 0, 0)" stroke-opacity="1.0" stroke-linecap="round" stroke-linejoin="round"/>
    <path d="M 167.2926025390625 128.35992431640625 C 178.13282775878906 79.32283782958984 153.70948791503906 130.93231201171875 182.30482482910156 99.44003295898438" stroke-width="2" fill="none" stroke="rgb(0, 0, 0)" stroke-opacity="1.0" stroke-linecap="round" stroke-linejoin="round"/>
    <path d="M 105.06587219238281 117.10002136230469 C 161.22752380371094 158.97093200683594 132.2745361328125 111.35485076904297 140.2672119140625 148.39305114746094" stroke-width="2" fill="none" stroke="rgb(0, 0, 0)" stroke-opacity="1.0" stroke-linecap="round" stroke-linejoin="round"/>
  </g>
</svg>
