<?xml version="1.0" ?>
<svg xmlns="http://www.w3.org/2000/svg" version="1.1" width="224" height="224">
  <defs/>
  <g>
    <path d="M 86.21891021728516 156.1562957763672 C 42.20573806762695 153.60671997070312 50.14806365966797 127.43838500976562 73.5640640258789 155.93948364257812" stroke-width="2" fill="none" stroke="rgb(0, 0, 0)" stroke-opacity="1.0" stroke-linecap="round" stroke-linejoin="round"/>
    <path d="M 89.372802734375 125.29122924804688 C 128.1737823486328 117.58192443847656 85.4848861694336 128.46971130371094 124.83939361572266 155.9459686279297" stroke-width="2" fill="none" stroke="rgb(0, 0, 0)" stroke-opacity="1.0" stroke-linecap="round" stroke-linejoin="round"/>
    <path d="M 54.73860549926758 109.310791015625 C -15.853250503540039 170.21649169921875 251.48678588867188 170.12408447265625 130.7335968017578 130.88949584960938" stroke-width="2" fill="none" stroke="rgb(0, 0, 0)" stroke-opacity="1.0" stroke-linecap="round" stroke-linejoin="round"/>
    <path d="M 111.30394744873047 131.64285278320312 C 184.39739990234375 135.48951721191406 73.75775146484375 122.34156799316406 162.3514404296875 130.0620574951172" stroke-width="2" fill="none" stroke="rgb(0, 0, 0)" stroke-opacity="1.0" stroke-linecap="round" stroke-linejoin="round"/>
    <path d="M 106.56928253173828 79.06033325195312 C 147.70068359375 110.57085418701172 135.08389282226562 69.48760986328125 165.40065002441406 96.41493225097656" stroke-width="2" fill="none" stroke="rgb(0, 0, 0)" stroke-opacity="1.0" stroke-linecap="round" stroke-linejoin="round"/>
    <path d="M 108.34719848632812 124.81884002685547 C 164.91868591308594 116.78998565673828 89.5113296508789 106.5750503540039 130.98699951171875 118.18119812011719" stroke-width="2" fill="none" stroke="rgb(0, 0, 0)" stroke-opacity="1.0" stroke-linecap="round" stroke-linejoin="round"/>
    <path d="M 113.65040588378906 109.2918472290039 C 152.9590606689453 98.51028442382812 81.90316772460938 109.2081298828125 130.41842651367188 129.03257751464844" stroke-width="2" fill="none" stroke="rgb(0, 0, 0)" stroke-opacity="1.0" stroke-linecap="round" stroke-linejoin="round"/>
    <path d="M 104.62358856201172 69.2319564819336 C 124.1559066772461 118.115966796875 48.83100509643555 65.74166870117188 55.313541412353516 116.33800506591797" stroke-width="2" fill="none" stroke="rgb(0, 0, 0)" stroke-opacity="1.0" stroke-linecap="round" stroke-linejoin="round"/>
    <path d="M 152.92030334472656 111.89300537109375 C 151.56492614746094 126.3161392211914 111.96640014648438 128.9889678955078 164.22918701171875 126.24430847167969" stroke-width="2" fill="none" stroke="rgb(0, 0, 0)" stroke-opacity="1.0" stroke-linecap="round" stroke-linejoin="round"/>
    <path d="M 80.33224487304688 134.76502990722656 C 247.61163330078125 151.69866943359375 138.32125854492188 135.26870727539062 119.19871520996094 128.13673400878906" stroke-width="2" fill="none" stroke="rgb(0, 0, 0)" stroke-opacity="1.0" stroke-linecap="round" stroke-linejoin="round"/>
    <path d="M 161.10362243652344 126.0171890258789 C 194.1070098876953 26.891643524169922 176.74497985839844 94.81123352050781 155.8916778564453 89.4014663696289" stroke-width="2" fill="none" stroke="rgb(0, 0, 0)" stroke-opacity="1.0" stroke-linecap="round" stroke-linejoin="round"/>
    <path d="M 91.8177719116211 98.33526611328125 C 114.97745513916016 110.22174835205078 83.31568145751953 108.1587905883789 117.43608856201172 89.85267639160156" stroke-width="2" fill="none" stroke="rgb(0, 0, 0)" stroke-opacity="1.0" stroke-linecap="round" stroke-linejoin="round"/>
    <path d="M 69.26846313476562 145.79444885253906 C 24.126035690307617 112.45075225830078 121.93720245361328 171.2574920654297 138.5563201904297 149.803955078125" stroke-width="2" fill="none" stroke="rgb(0, 0, 0)" stroke-opacity="1.0" stroke-linecap="round" stroke-linejoin="round"/>
    <path d="M 87.52583312988281 144.51808166503906 C 66.7467269897461 144.60716247558594 198.80621337890625 170.73597717285156 174.06407165527344 135.90972900390625" stroke-width="2" fill="none" stroke="rgb(0, 0, 0)" stroke-opacity="1.0" stroke-linecap="round" stroke-linejoin="round"/>
    <path d="M 157.8641815185547 79.97579956054688 C 217.50180053710938 12.63818645477295 163.00770568847656 129.8427734375 157.1542205810547 96.83417510986328" stroke-width="2" fill="none" stroke="rgb(0, 0, 0)" stroke-opacity="1.0" stroke-linecap="round" stroke-linejoin="round"/>
    <path d="M 106.65904998779297 108.5688705444336 C 135.03309631347656 168.95565795898438 174.7238006591797 115.8149642944336 143.46286010742188 115.90460205078125" stroke-width="2" fill="none" stroke="rgb(0, 0, 0)" stroke-opacity="1.0" stroke-linecap="round" stroke-linejoin="round"/>
  </g>
</svg>
