<?xml version="1.0" ?>
<svg xmlns="http://www.w3.org/2000/svg" version="1.1" width="224" height="224">
  <defs/>
  <g>
    <path d="M 65.27667999267578 130.41073608398438 C 18.562475204467773 139.13644409179688 81.69198608398438 58.0494499206543 101.64041137695312 119.89024353027344" stroke-width="2" fill="none" stroke="rgb(0, 0, 0)" stroke-opacity="1.0" stroke-linecap="round" stroke-linejoin="round"/>
    <path d="M 144.26907348632812 138.17845153808594 C 205.1677703857422 151.08290100097656 61.802772521972656 135.59368896484375 64.51001739501953 130.84739685058594" stroke-width="2" fill="none" stroke="rgb(0, 0, 0)" stroke-opacity="1.0" stroke-linecap="round" stroke-linejoin="round"/>
    <path d="M 65.54728698730469 126.6246566772461 C 13.150283813476562 109.7880630493164 78.00875091552734 167.29666137695312 147.3744659423828 151.83323669433594" stroke-width="2" fill="none" stroke="rgb(0, 0, 0)" stroke-opacity="1.0" stroke-linecap="round" stroke-linejoin="round"/>
    <path d="M 163.18653869628906 103.25098419189453 C 171.49745178222656 116.6248550415039 178.04571533203125 68.95884704589844 162.21099853515625 131.96746826171875" stroke-width="2" fill="none" stroke="rgb(0, 0, 0)" stroke-opacity="1.0" stroke-linecap="round" stroke-linejoin="round"/>
    <path d="M 101.94678497314453 72.69953918457031 C 110.53169250488281 115.31767272949219 160.112060546875 56.43745040893555 162.6049346923828 107.01423645019531" stroke-width="2" fill="none" stroke="rgb(0, 0, 0)" stroke-opacity="1.0" stroke-linecap="round" stroke-linejoin="round"/>
    <path d="M 102.53031921386719 119.57054138183594 C 25.0421142578125 109.30933380126953 126.50401306152344 114.9076156616211 78.777099609375 105.71898651123047" stroke-width="2" fill="none" stroke="rgb(0, 0, 0)" stroke-opacity="1.0" stroke-linecap="round" stroke-linejoin="round"/>
    <path d="M 134.00160217285156 119.4383316040039 C 71.3477783203125 80.95082092285156 132.7493438720703 67.10358428955078 104.99365234375 111.60657501220703" stroke-width="2" fill="none" stroke="rgb(0, 0, 0)" stroke-opacity="1.0" stroke-linecap="round" stroke-linejoin="round"/>
    <path d="M 95.92842864990234 158.36289978027344 C 108.8061294555664 150.77076721191406 1.137489914894104 164.99472045898438 63.341209411621094 101.02770233154297" stroke-width="2" fill="none" stroke="rgb(0, 0, 0)" stroke-opacity="1.0" stroke-linecap="round" stroke-linejoin="round"/>
    <path d="M 176.9772186279297 97.75369262695312 C 141.17547607421875 105.35145568847656 202.35446166992188 124.89789581298828 133.55593872070312 126.31956481933594" stroke-width="2" fill="none" stroke="rgb(0, 0, 0)" stroke-opacity="1.0" stroke-linecap="round" stroke-linejoin="round"/>
    <path d="M 129.2870635986328 122.70091247558594 C 203.1352081298828 111.89385986328125 91.65693664550781 113.93267822265625 164.76129150390625 126.60658264160156" stroke-width="2" fill="none" stroke="rgb(0, 0, 0)" stroke-opacity="1.0" stroke-linecap="round" stroke-linejoin="round"/>
    <path d="M 186.02218627929688 65.87333679199219 C 173.81396484375 61.18349838256836 170.79794311523438 102.15680694580078 144.8673095703125 87.09373474121094" stroke-width="2" fill="none" stroke="rgb(0, 0, 0)" stroke-opacity="1.0" stroke-linecap="round" stroke-linejoin="round"/>
    <path d="M 178.7095947265625 150.19735717773438 C 174.6432342529297 174.1325225830078 40.78376007080078 123.26457214355469 88.27348327636719 131.6011199951172" stroke-width="2" fill="none" stroke="rgb(0, 0, 0)" stroke-opacity="1.0" stroke-linecap="round" stroke-linejoin="round"/>
    <path d="M 143.41461181640625 147.8643798828125 C 60.16395950317383 140.88734436035156 224.01837158203125 159.17649841308594 166.54135131835938 125.82730865478516" stroke-width="2" fill="none" stroke="rgb(0, 0, 0)" stroke-opacity="1.0" stroke-linecap="round" stroke-linejoin="round"/>
    <path d="M 139.47230529785156 120.17096710205078 C 167.7857208251953 132.08419799804688 127.19999694824219 100.83489227294922 147.48214721679688 122.0180435180664" stroke-width="2" fill="none" stroke="rgb(0, 0, 0)" stroke-opacity="1.0" stroke-linecap="round" stroke-linejoin="round"/>
    <path d="M 161.95814514160156 102.44290924072266 C 127.23255157470703 99.38358306884766 177.9669952392578 136.40806579589844 181.08233642578125 66.74250030517578" stroke-width="2" fill="none" stroke="rgb(0, 0, 0)" stroke-opacity="1.0" stroke-linecap="round" stroke-linejoin="round"/>
    <path d="M 155.18624877929688 114.6784896850586 C 96.16287231445312 128.23239135742188 160.23585510253906 135.7790985107422 128.0747528076172 126.52323913574219" stroke-width="2" fill="none" stroke="rgb(0, 0, 0)" stroke-opacity="1.0" stroke-linecap="round" stroke-linejoin="round"/>
  </g>
</svg>
