<?xml version="1.0" ?>
<svg xmlns="http://www.w3.org/2000/svg" version="1.1" width="224" height="224">
  <defs/>
  <g>
    <path d="M 67.9135971069336 147.1148681640625 C 8.693068504333496 127.66897583007812 78.97183227539062 47.390357971191406 113.23992156982422 132.65069580078125" stroke-width="2" fill="none" stroke="rgb(0, 0, 0)" stroke-opacity="1.0" stroke-linecap="round" stroke-linejoin="round"/>
    <path d="M 138.14459228515625 100.40518951416016 C 180.20364379882812 110.16902923583984 14.479348182678223 92.85319519042969 121.3883285522461 124.35938262939453" stroke-width="2" fill="none" stroke="rgb(0, 0, 0)" stroke-opacity="1.0" stroke-linecap="round" stroke-linejoin="round"/>
    <path d="M 49.15275192260742 126.24394226074219 C 12.999491691589355 144.21119689941406 234.4018096923828 181.9561767578125 165.45135498046875 137.0836639404297" stroke-width="2" fill="none" stroke="rgb(0, 0, 0)" stroke-opacity="1.0" stroke-linecap="round" stroke-linejoin="round"/>
    <path d="M 138.34828186035156 122.49866485595703 C 159.69119262695312 107.86567687988281 110.82477569580078 121.38336944580078 152.0825653076172 117.32351684570312" stroke-width="2" fill="none" stroke="rgb(0, 0, 0)" stroke-opacity="1.0" stroke-linecap="round" stroke-linejoin="round"/>
    <path d="M 103.68307495117188 65.45117950439453 C 119.99095153808594 88.9588851928711 116.45124053955078 65.82372283935547 140.8170166015625 85.12860107421875" stroke-width="2" fill="none" stroke="rgb(0, 0, 0)" stroke-opacity="1.0" stroke-linecap="round" stroke-linejoin="round"/>
    <path d="M 109.02588653564453 85.24280548095703 C 112.61270141601562 97.6446762084961 105.17475128173828 87.75935363769531 110.94915771484375 74.34423065185547" stroke-width="2" fill="none" stroke="rgb(0, 0, 0)" stroke-opacity="1.0" stroke-linecap="round" stroke-linejoin="round"/>
    <path d="M 125.42704010009766 111.72188568115234 C 83.29263305664062 87.63225555419922 191.4805908203125 144.54037475585938 50.620147705078125 118.99400329589844" stroke-width="2" fill="none" stroke="rgb(0, 0, 0)" stroke-opacity="1.0" stroke-linecap="round" stroke-linejoin="round"/>
    <path d="M 86.7613754272461 136.19024658203125 C 182.0722198486328 166.0459442138672 -17.922584533691406 159.0579071044922 57.78071594238281 114.94754791259766" stroke-width="2" fill="none" stroke="rgb(0, 0, 0)" stroke-opacity="1.0" stroke-linecap="round" stroke-linejoin="round"/>
    <path d="M 156.45928955078125 121.33275604248047 C 93.17953491210938 112.24618530273438 203.64752197265625 126.19847106933594 139.01800537109375 129.2386932373047" stroke-width="2" fill="none" stroke="rgb(0, 0, 0)" stroke-opacity="1.0" stroke-linecap="round" stroke-linejoin="round"/>
    <path d="M 130.34085083007812 105.40947723388672 C 169.82192993164062 95.55414581298828 73.08744049072266 119.34043884277344 145.2610321044922 135.59317016601562" stroke-width="2" fill="none" stroke="rgb(0, 0, 0)" stroke-opacity="1.0" stroke-linecap="round" stroke-linejoin="round"/>
    <path d="M 186.0209197998047 86.0623550415039 C 194.70472717285156 27.371139526367188 167.16693115234375 102.08291625976562 139.95413208007812 87.88626861572266" stroke-width="2" fill="none" stroke="rgb(0, 0, 0)" stroke-opacity="1.0" stroke-linecap="round" stroke-linejoin="round"/>
    <path d="M 175.8364715576172 149.9371337890625 C 177.95498657226562 140.283447265625 80.23982238769531 162.5990753173828 106.57772064208984 91.14817810058594" stroke-width="2" fill="none" stroke="rgb(0, 0, 0)" stroke-opacity="1.0" stroke-linecap="round" stroke-linejoin="round"/>
    <path d="M 48.700164794921875 142.85830688476562 C 11.28596019744873 116.52391052246094 143.03892517089844 168.5775604248047 156.54574584960938 153.74266052246094" stroke-width="2" fill="none" stroke="rgb(0, 0, 0)" stroke-opacity="1.0" stroke-linecap="round" stroke-linejoin="round"/>
    <path d="M 117.35791778564453 150.25047302246094 C 137.77064514160156 144.91685485839844 169.77093505859375 159.80947875976562 168.71255493164062 156.7538299560547" stroke-width="2" fill="none" stroke="rgb(0, 0, 0)" stroke-opacity="1.0" stroke-linecap="round" stroke-linejoin="round"/>
    <path d="M 171.97865295410156 118.70114135742188 C 163.906982421875 75.15031433105469 166.3031768798828 122.60132598876953 177.81300354003906 85.9031982421875" stroke-width="2" fill="none" stroke="rgb(0, 0, 0)" stroke-opacity="1.0" stroke-linecap="round" stroke-linejoin="round"/>
    <path d="M 150.19786071777344 139.9197235107422 C 174.98330688476562 150.6372528076172 165.26560974121094 104.61683654785156 157.54754638671875 121.5615234375" stroke-width="2" fill="none" stroke="rgb(0, 0, 0)" stroke-opacity="1.0" stroke-linecap="round" stroke-linejoin="round"/>
  </g>
</svg>
