<?xml version="1.0" ?>
<svg xmlns="http://www.w3.org/2000/svg" version="1.1" width="224" height="224">
  <defs/>
  <g>
    <path d="M 68.18647766113281 152.77450561523438 C 15.336063385009766 147.9343719482422 73.2041244506836 57.19326400756836 105.93972778320312 122.74378204345703" stroke-width="2" fill="none" stroke="rgb(0, 0, 0)" stroke-opacity="1.0" stroke-linecap="round" stroke-linejoin="round"/>
    <path d="M 145.2818603515625 112.29896545410156 C 207.94700622558594 120.63162994384766 42.5806770324707 130.10264587402344 127.21871948242188 143.53184509277344" stroke-width="2" fill="none" stroke="rgb(0, 0, 0)" stroke-opacity="1.0" stroke-linecap="round" stroke-linejoin="round"/>
    <path d="M 52.94996643066406 113.31297302246094 C 4.110989570617676 154.8095245361328 217.077880859375 175.5078887939453 167.41360473632812 124.23081970214844" stroke-width="2" fill="none" stroke="rgb(0, 0, 0)" stroke-opacity="1.0" stroke-linecap="round" stroke-linejoin="round"/>
    <path d="M 148.45242309570312 120.75994110107422 C 191.9480743408203 120.71710205078125 123.23503875732422 124.89405822753906 160.43743896484375 124.76573944091797" stroke-width="2" fill="none" stroke="rgb(0, 0, 0)" stroke-opacity="1.0" stroke-linecap="round" stroke-linejoin="round"/>
    <path d="M 100.21109771728516 69.15668487548828 C 128.6951446533203 122.20076751708984 132.41136169433594 64.25468444824219 158.5304412841797 91.47391510009766" stroke-width="2" fill="none" stroke="rgb(0, 0, 0)" stroke-opacity="1.0" stroke-linecap="round" stroke-linejoin="round"/>
    <path d="M 89.47937774658203 100.60980224609375 C 94.75515747070312 67.92450714111328 95.1258316040039 80.1561050415039 98.54600524902344 88.68608856201172" stroke-width="2" fill="none" stroke="rgb(0, 0, 0)" stroke-opacity="1.0" stroke-linecap="round" stroke-linejoin="round"/>
    <path d="M 115.18815612792969 149.67481994628906 C 72.43690490722656 100.30658721923828 161.02586364746094 151.089599609375 65.68742370605469 140.54722595214844" stroke-width="2" fill="none" stroke="rgb(0, 0, 0)" stroke-opacity="1.0" stroke-linecap="round" stroke-linejoin="round"/>
    <path d="M 76.94026184082031 112.48448944091797 C 212.11666870117188 142.7035369873047 -10.579916000366211 117.59320068359375 64.03083038330078 143.9364776611328" stroke-width="2" fill="none" stroke="rgb(0, 0, 0)" stroke-opacity="1.0" stroke-linecap="round" stroke-linejoin="round"/>
    <path d="M 164.98822021484375 137.30047607421875 C 91.35556030273438 137.61729431152344 179.87197875976562 136.2593536376953 124.00209045410156 116.44445037841797" stroke-width="2" fill="none" stroke="rgb(0, 0, 0)" stroke-opacity="1.0" stroke-linecap="round" stroke-linejoin="round"/>
    <path d="M 153.00222778320312 126.9929428100586 C 190.64578247070312 96.40328979492188 120.11539459228516 116.79368591308594 163.25921630859375 122.02704620361328" stroke-width="2" fill="none" stroke="rgb(0, 0, 0)" stroke-opacity="1.0" stroke-linecap="round" stroke-linejoin="round"/>
    <path d="M 175.60191345214844 94.27996063232422 C 193.44261169433594 18.79983139038086 165.31558227539062 99.00624084472656 154.71189880371094 87.03069305419922" stroke-width="2" fill="none" stroke="rgb(0, 0, 0)" stroke-opacity="1.0" stroke-linecap="round" stroke-linejoin="round"/>
    <path d="M 174.7444305419922 146.0267333984375 C 165.10305786132812 140.4040069580078 97.96955108642578 179.9722442626953 97.52650451660156 79.14154052734375" stroke-width="2" fill="none" stroke="rgb(0, 0, 0)" stroke-opacity="1.0" stroke-linecap="round" stroke-linejoin="round"/>
    <path d="M 65.74188232421875 130.0911407470703 C 21.935503005981445 108.28524780273438 128.7889862060547 158.70773315429688 151.38735961914062 146.4781951904297" stroke-width="2" fill="none" stroke="rgb(0, 0, 0)" stroke-opacity="1.0" stroke-linecap="round" stroke-linejoin="round"/>
    <path d="M 116.9270248413086 158.5830078125 C 144.55235290527344 150.32669067382812 197.017822265625 164.39691162109375 171.29296875 154.7386016845703" stroke-width="2" fill="none" stroke="rgb(0, 0, 0)" stroke-opacity="1.0" stroke-linecap="round" stroke-linejoin="round"/>
    <path d="M 170.01458740234375 122.58023071289062 C 165.0735626220703 65.81073760986328 164.240966796875 128.3134307861328 175.64102172851562 98.971923828125" stroke-width="2" fill="none" stroke="rgb(0, 0, 0)" stroke-opacity="1.0" stroke-linecap="round" stroke-linejoin="round"/>
    <path d="M 98.5922622680664 129.88772583007812 C 164.92904663085938 166.32211303710938 123.89925384521484 120.04471588134766 151.93223571777344 141.19248962402344" stroke-width="2" fill="none" stroke="rgb(0, 0, 0)" stroke-opacity="1.0" stroke-linecap="round" stroke-linejoin="round"/>
  </g>
</svg>
