<?xml version="1.0" ?>
<svg xmlns="http://www.w3.org/2000/svg" version="1.1" width="224" height="224">
  <defs/>
  <g>
    <path d="M 111.52656555175781 160.53396606445312 C -15.96009349822998 167.4057159423828 87.19818115234375 59.54453659057617 98.95431518554688 118.70589447021484" stroke-width="2" fill="none" stroke="rgb(0, 0, 0)" stroke-opacity="1.0" stroke-linecap="round" stroke-linejoin="round"/>
    <path d="M 119.44905090332031 116.86945343017578 C 168.5701904296875 108.88288116455078 72.78340911865234 138.8410186767578 151.23739624023438 122.60009765625" stroke-width="2" fill="none" stroke="rgb(0, 0, 0)" stroke-opacity="1.0" stroke-linecap="round" stroke-linejoin="round"/>
    <path d="M 56.12837219238281 123.66690063476562 C -0.9895086288452148 162.85108947753906 252.5352020263672 178.5181121826172 158.03089904785156 126.59413146972656" stroke-width="2" fill="none" stroke="rgb(0, 0, 0)" stroke-opacity="1.0" stroke-linecap="round" stroke-linejoin="round"/>
    <path d="M 141.4941864013672 107.89816284179688 C 207.13534545898438 118.11312866210938 124.24909973144531 89.76913452148438 157.12826538085938 112.28494262695312" stroke-width="2" fill="none" stroke="rgb(0, 0, 0)" stroke-opacity="1.0" stroke-linecap="round" stroke-linejoin="round"/>
    <path d="M 106.03008270263672 68.93701171875 C 126.02565002441406 113.8233642578125 153.74749755859375 72.10289764404297 158.9890594482422 97.14814758300781" stroke-width="2" fill="none" stroke="rgb(0, 0, 0)" stroke-opacity="1.0" stroke-linecap="round" stroke-linejoin="round"/>
    <path d="M 103.95211791992188 124.4570541381836 C 132.69662475585938 94.64532470703125 121.33716583251953 133.89332580566406 100.16796875 103.08914184570312" stroke-width="2" fill="none" stroke="rgb(0, 0, 0)" stroke-opacity="1.0" stroke-linecap="round" stroke-linejoin="round"/>
    <path d="M 108.75387573242188 92.62109375 C 31.495437622070312 94.2750244140625 152.59664916992188 124.79023742675781 89.63111877441406 96.76544952392578" stroke-width="2" fill="none" stroke="rgb(0, 0, 0)" stroke-opacity="1.0" stroke-linecap="round" stroke-linejoin="round"/>
    <path d="M 103.30050659179688 90.19523620605469 C 103.32918548583984 102.1067123413086 0.38221126794815063 69.8040542602539 50.63349151611328 145.94033813476562" stroke-width="2" fill="none" stroke="rgb(0, 0, 0)" stroke-opacity="1.0" stroke-linecap="round" stroke-linejoin="round"/>
    <path d="M 141.77487182617188 141.41163635253906 C 67.17991638183594 147.9191131591797 136.75421142578125 105.2182388305664 96.64659881591797 114.33605194091797" stroke-width="2" fill="none" stroke="rgb(0, 0, 0)" stroke-opacity="1.0" stroke-linecap="round" stroke-linejoin="round"/>
    <path d="M 122.93014526367188 110.39895629882812 C 157.1541748046875 142.26837158203125 89.695068359375 127.3947982788086 131.59063720703125 124.46170043945312" stroke-width="2" fill="none" stroke="rgb(0, 0, 0)" stroke-opacity="1.0" stroke-linecap="round" stroke-linejoin="round"/>
    <path d="M 173.086181640625 108.5981216430664 C 201.7583465576172 14.749872207641602 160.9691925048828 91.2797622680664 161.4547882080078 86.06150817871094" stroke-width="2" fill="none" stroke="rgb(0, 0, 0)" stroke-opacity="1.0" stroke-linecap="round" stroke-linejoin="round"/>
    <path d="M 164.26361083984375 103.41002655029297 C 208.74156188964844 144.91746520996094 88.44013214111328 156.29849243164062 111.64518737792969 83.23738861083984" stroke-width="2" fill="none" stroke="rgb(0, 0, 0)" stroke-opacity="1.0" stroke-linecap="round" stroke-linejoin="round"/>
    <path d="M 73.2304458618164 155.52053833007812 C 22.9577579498291 127.78855895996094 70.1064453125 154.79188537597656 175.6556854248047 149.0416259765625" stroke-width="2" fill="none" stroke="rgb(0, 0, 0)" stroke-opacity="1.0" stroke-linecap="round" stroke-linejoin="round"/>
    <path d="M 173.2140350341797 146.64532470703125 C 143.21510314941406 141.8817138671875 155.40794372558594 143.763671875 165.5535888671875 145.60256958007812" stroke-width="2" fill="none" stroke="rgb(0, 0, 0)" stroke-opacity="1.0" stroke-linecap="round" stroke-linejoin="round"/>
    <path d="M 175.75157165527344 122.72498321533203 C 186.35372924804688 68.66353607177734 152.49383544921875 128.37045288085938 177.41543579101562 95.0635986328125" stroke-width="2" fill="none" stroke="rgb(0, 0, 0)" stroke-opacity="1.0" stroke-linecap="round" stroke-linejoin="round"/>
    <path d="M 75.25411987304688 131.97286987304688 C 156.7298126220703 147.61204528808594 138.59518432617188 141.62445068359375 141.04595947265625 148.23104858398438" stroke-width="2" fill="none" stroke="rgb(0, 0, 0)" stroke-opacity="1.0" stroke-linecap="round" stroke-linejoin="round"/>
  </g>
</svg>
