<?xml version="1.0" ?>
<svg xmlns="http://www.w3.org/2000/svg" version="1.1" width="224" height="224">
  <defs/>
  <g>
    <path d="M 93.22899627685547 130.11212158203125 C 55.896610260009766 116.00203704833984 12.842570304870605 91.48731231689453 110.07984161376953 98.26199340820312" stroke-width="2" fill="none" stroke="rgb(0, 0, 0)" stroke-opacity="1.0" stroke-linecap="round" stroke-linejoin="round"/>
    <path d="M 125.27461242675781 154.54531860351562 C 114.29277038574219 160.7996826171875 69.1130599975586 156.42149353027344 61.66898727416992 141.0166473388672" stroke-width="2" fill="none" stroke="rgb(0, 0, 0)" stroke-opacity="1.0" stroke-linecap="round" stroke-linejoin="round"/>
    <path d="M 148.40895080566406 136.5323486328125 C 48.97159194946289 111.9084701538086 87.30377197265625 151.48025512695312 163.84054565429688 141.6816864013672" stroke-width="2" fill="none" stroke="rgb(0, 0, 0)" stroke-opacity="1.0" stroke-linecap="round" stroke-linejoin="round"/>
    <path d="M 158.59051513671875 123.65294647216797 C 136.37139892578125 133.01730346679688 183.17718505859375 129.7917938232422 139.48426818847656 134.50082397460938" stroke-width="2" fill="none" stroke="rgb(0, 0, 0)" stroke-opacity="1.0" stroke-linecap="round" stroke-linejoin="round"/>
    <path d="M 99.85954284667969 105.16140747070312 C 121.16810607910156 120.66968536376953 138.3069610595703 66.0841064453125 163.12103271484375 102.78271484375" stroke-width="2" fill="none" stroke="rgb(0, 0, 0)" stroke-opacity="1.0" stroke-linecap="round" stroke-linejoin="round"/>
    <path d="M 104.07333374023438 79.47830963134766 C 113.61964416503906 91.85102081298828 116.79183197021484 132.8016815185547 99.01875305175781 100.32794952392578" stroke-width="2" fill="none" stroke="rgb(0, 0, 0)" stroke-opacity="1.0" stroke-linecap="round" stroke-linejoin="round"/>
    <path d="M 99.93211364746094 69.84033203125 C 104.00486755371094 85.92841339111328 134.3832244873047 81.75726318359375 118.30455017089844 100.0047607421875" stroke-width="2" fill="none" stroke="rgb(0, 0, 0)" stroke-opacity="1.0" stroke-linecap="round" stroke-linejoin="round"/>
    <path d="M 73.9924087524414 150.7117462158203 C 99.35281372070312 148.93258666992188 12.247968673706055 152.52525329589844 57.236820220947266 101.56106567382812" stroke-width="2" fill="none" stroke="rgb(0, 0, 0)" stroke-opacity="1.0" stroke-linecap="round" stroke-linejoin="round"/>
    <path d="M 106.88993072509766 109.98143768310547 C 95.78504180908203 140.52816772460938 146.85264587402344 125.57599639892578 120.1388168334961 126.02763366699219" stroke-width="2" fill="none" stroke="rgb(0, 0, 0)" stroke-opacity="1.0" stroke-linecap="round" stroke-linejoin="round"/>
    <path d="M 128.60296630859375 109.0188217163086 C 188.9972686767578 103.26566314697266 129.6922607421875 123.49612426757812 128.75364685058594 96.66166687011719" stroke-width="2" fill="none" stroke="rgb(0, 0, 0)" stroke-opacity="1.0" stroke-linecap="round" stroke-linejoin="round"/>
    <path d="M 184.9844207763672 64.31095123291016 C 167.2187042236328 69.76432800292969 171.52870178222656 90.32159423828125 153.66310119628906 87.54788208007812" stroke-width="2" fill="none" stroke="rgb(0, 0, 0)" stroke-opacity="1.0" stroke-linecap="round" stroke-linejoin="round"/>
    <path d="M 186.0323028564453 133.5464324951172 C 188.8983154296875 149.31582641601562 154.37582397460938 160.21755981445312 119.55203247070312 150.56187438964844" stroke-width="2" fill="none" stroke="rgb(0, 0, 0)" stroke-opacity="1.0" stroke-linecap="round" stroke-linejoin="round"/>
    <path d="M 42.279964447021484 146.57301330566406 C 68.81678771972656 157.62783813476562 98.62356567382812 152.9889678955078 76.91046905517578 151.6368865966797" stroke-width="2" fill="none" stroke="rgb(0, 0, 0)" stroke-opacity="1.0" stroke-linecap="round" stroke-linejoin="round"/>
    <path d="M 100.14395904541016 108.78248596191406 C 109.62886810302734 90.45928955078125 102.00778198242188 79.32197570800781 134.5915985107422 92.00145721435547" stroke-width="2" fill="none" stroke="rgb(0, 0, 0)" stroke-opacity="1.0" stroke-linecap="round" stroke-linejoin="round"/>
    <path d="M 166.51776123046875 115.600341796875 C 164.61627197265625 91.87808227539062 170.56900024414062 127.80078887939453 184.00816345214844 64.9731216430664" stroke-width="2" fill="none" stroke="rgb(0, 0, 0)" stroke-opacity="1.0" stroke-linecap="round" stroke-linejoin="round"/>
    <path d="M 49.929988861083984 110.71949768066406 C 128.13682556152344 116.41610717773438 80.93743133544922 128.54376220703125 55.635353088378906 116.3969497680664" stroke-width="2" fill="none" stroke="rgb(0, 0, 0)" stroke-opacity="1.0" stroke-linecap="round" stroke-linejoin="round"/>
  </g>
</svg>
