<?xml version="1.0" ?>
<svg xmlns="http://www.w3.org/2000/svg" version="1.1" width="224" height="224">
  <defs/>
  <g>
    <path d="M 79.58622741699219 152.5768280029297 C 17.132095336914062 140.5266571044922 45.32029342651367 68.12783813476562 112.56241607666016 121.83146667480469" stroke-width="2" fill="none" stroke="rgb(0, 0, 0)" stroke-opacity="1.0" stroke-linecap="round" stroke-linejoin="round"/>
    <path d="M 149.2387237548828 153.7407989501953 C 171.70611572265625 160.7879638671875 43.79300308227539 150.2454833984375 40.875572204589844 133.5474395751953" stroke-width="2" fill="none" stroke="rgb(0, 0, 0)" stroke-opacity="1.0" stroke-linecap="round" stroke-linejoin="round"/>
    <path d="M 83.1608657836914 121.41519927978516 C -6.728764057159424 89.62296295166016 93.59357452392578 149.76336669921875 157.94174194335938 141.35447692871094" stroke-width="2" fill="none" stroke="rgb(0, 0, 0)" stroke-opacity="1.0" stroke-linecap="round" stroke-linejoin="round"/>
    <path d="M 162.39915466308594 105.6772689819336 C 122.74056243896484 102.47862243652344 176.08230590820312 111.3741683959961 158.251220703125 115.59317016601562" stroke-width="2" fill="none" stroke="rgb(0, 0, 0)" stroke-opacity="1.0" stroke-linecap="round" stroke-linejoin="round"/>
    <path d="M 100.59930419921875 70.32926177978516 C 131.39454650878906 110.2265625 148.2030792236328 60.22445297241211 163.50938415527344 113.67915344238281" stroke-width="2" fill="none" stroke="rgb(0, 0, 0)" stroke-opacity="1.0" stroke-linecap="round" stroke-linejoin="round"/>
    <path d="M 112.97872161865234 117.2723617553711 C 80.51988983154297 61.00206756591797 137.53846740722656 90.02589416503906 68.14356231689453 98.45860290527344" stroke-width="2" fill="none" stroke="rgb(0, 0, 0)" stroke-opacity="1.0" stroke-linecap="round" stroke-linejoin="round"/>
    <path d="M 125.32520294189453 132.76609802246094 C 92.6728744506836 108.5671157836914 163.9272003173828 104.23248291015625 106.43804931640625 111.208251953125" stroke-width="2" fill="none" stroke="rgb(0, 0, 0)" stroke-opacity="1.0" stroke-linecap="round" stroke-linejoin="round"/>
    <path d="M 131.2470703125 149.23875427246094 C 101.51455688476562 147.9667205810547 -3.0849573612213135 166.2708740234375 56.941078186035156 104.09475708007812" stroke-width="2" fill="none" stroke="rgb(0, 0, 0)" stroke-opacity="1.0" stroke-linecap="round" stroke-linejoin="round"/>
    <path d="M 147.64874267578125 119.91221618652344 C 115.61322784423828 114.3917007446289 188.94004821777344 139.60379028320312 160.15972900390625 128.7041015625" stroke-width="2" fill="none" stroke="rgb(0, 0, 0)" stroke-opacity="1.0" stroke-linecap="round" stroke-linejoin="round"/>
    <path d="M 139.16064453125 124.65184783935547 C 181.0297088623047 126.54790496826172 97.29717254638672 133.28199768066406 124.877197265625 106.08683013916016" stroke-width="2" fill="none" stroke="rgb(0, 0, 0)" stroke-opacity="1.0" stroke-linecap="round" stroke-linejoin="round"/>
    <path d="M 185.52700805664062 61.66636276245117 C 173.7140655517578 52.42497634887695 158.85275268554688 96.95548248291016 157.73243713378906 84.6400375366211" stroke-width="2" fill="none" stroke="rgb(0, 0, 0)" stroke-opacity="1.0" stroke-linecap="round" stroke-linejoin="round"/>
    <path d="M 169.72048950195312 141.5428466796875 C 177.8154754638672 150.96453857421875 114.48716735839844 150.92945861816406 128.7705841064453 154.02598571777344" stroke-width="2" fill="none" stroke="rgb(0, 0, 0)" stroke-opacity="1.0" stroke-linecap="round" stroke-linejoin="round"/>
    <path d="M 92.0948715209961 110.32356262207031 C 87.54234313964844 148.91358947753906 177.7727813720703 138.01890563964844 161.77206420898438 123.75066375732422" stroke-width="2" fill="none" stroke="rgb(0, 0, 0)" stroke-opacity="1.0" stroke-linecap="round" stroke-linejoin="round"/>
    <path d="M 90.80519104003906 113.67424774169922 C 120.34078979492188 96.7137222290039 89.08614349365234 83.36421966552734 123.55084228515625 116.32891082763672" stroke-width="2" fill="none" stroke="rgb(0, 0, 0)" stroke-opacity="1.0" stroke-linecap="round" stroke-linejoin="round"/>
    <path d="M 158.7920379638672 130.5064697265625 C 164.14434814453125 77.78471374511719 168.04359436035156 136.9013671875 176.47039794921875 65.9382095336914" stroke-width="2" fill="none" stroke="rgb(0, 0, 0)" stroke-opacity="1.0" stroke-linecap="round" stroke-linejoin="round"/>
    <path d="M 109.59242248535156 120.2203140258789 C 88.02498626708984 115.12325286865234 124.60226440429688 113.60698699951172 103.17549133300781 118.7063980102539" stroke-width="2" fill="none" stroke="rgb(0, 0, 0)" stroke-opacity="1.0" stroke-linecap="round" stroke-linejoin="round"/>
  </g>
</svg>
