<?xml version="1.0" ?>
<svg xmlns="http://www.w3.org/2000/svg" version="1.1" width="224" height="224">
  <defs/>
  <g>
    <path d="M 92.76111602783203 152.27154541015625 C 12.7004976272583 154.3154754638672 46.8710823059082 118.71160125732422 58.51816177368164 143.80535888671875" stroke-width="2" fill="none" stroke="rgb(0, 0, 0)" stroke-opacity="1.0" stroke-linecap="round" stroke-linejoin="round"/>
    <path d="M 81.434814453125 97.29899597167969 C 166.43362426757812 110.0557632446289 45.741798400878906 96.07433319091797 152.5405731201172 123.23775482177734" stroke-width="2" fill="none" stroke="rgb(0, 0, 0)" stroke-opacity="1.0" stroke-linecap="round" stroke-linejoin="round"/>
    <path d="M 50.637046813964844 103.80662536621094 C -5.826435565948486 153.91107177734375 240.14553833007812 192.21115112304688 158.99996948242188 106.02998352050781" stroke-width="2" fill="none" stroke="rgb(0, 0, 0)" stroke-opacity="1.0" stroke-linecap="round" stroke-linejoin="round"/>
    <path d="M 110.30372619628906 118.01685333251953 C 162.62405395507812 119.00930786132812 74.78411102294922 104.96952056884766 159.12168884277344 115.41140747070312" stroke-width="2" fill="none" stroke="rgb(0, 0, 0)" stroke-opacity="1.0" stroke-linecap="round" stroke-linejoin="round"/>
    <path d="M 103.75471496582031 73.69872283935547 C 118.71906280517578 107.14707946777344 141.81448364257812 68.28946685791016 149.1426239013672 96.26953125" stroke-width="2" fill="none" stroke="rgb(0, 0, 0)" stroke-opacity="1.0" stroke-linecap="round" stroke-linejoin="round"/>
    <path d="M 95.3819580078125 113.25003814697266 C 108.24951171875 104.61983489990234 77.44480895996094 104.48125457763672 108.1246566772461 83.89788055419922" stroke-width="2" fill="none" stroke="rgb(0, 0, 0)" stroke-opacity="1.0" stroke-linecap="round" stroke-linejoin="round"/>
    <path d="M 140.28533935546875 113.65824127197266 C 119.72346496582031 100.56483459472656 126.42547607421875 135.57461547851562 108.6027603149414 111.21098327636719" stroke-width="2" fill="none" stroke="rgb(0, 0, 0)" stroke-opacity="1.0" stroke-linecap="round" stroke-linejoin="round"/>
    <path d="M 98.7469253540039 76.39595794677734 C 114.36515808105469 134.4806365966797 50.033329010009766 64.98824310302734 41.76412582397461 139.0353240966797" stroke-width="2" fill="none" stroke="rgb(0, 0, 0)" stroke-opacity="1.0" stroke-linecap="round" stroke-linejoin="round"/>
    <path d="M 130.83836364746094 109.08470153808594 C 83.82920837402344 135.93496704101562 179.88685607910156 102.34766387939453 122.17259216308594 127.2518081665039" stroke-width="2" fill="none" stroke="rgb(0, 0, 0)" stroke-opacity="1.0" stroke-linecap="round" stroke-linejoin="round"/>
    <path d="M 87.72554779052734 124.04396057128906 C 176.6017303466797 158.08428955078125 79.0531997680664 138.10406494140625 114.7060546875 109.85432434082031" stroke-width="2" fill="none" stroke="rgb(0, 0, 0)" stroke-opacity="1.0" stroke-linecap="round" stroke-linejoin="round"/>
    <path d="M 157.7556915283203 120.40345001220703 C 216.1664581298828 13.301407814025879 160.42877197265625 99.6124267578125 145.39208984375 86.30026245117188" stroke-width="2" fill="none" stroke="rgb(0, 0, 0)" stroke-opacity="1.0" stroke-linecap="round" stroke-linejoin="round"/>
    <path d="M 127.67424774169922 105.52401733398438 C 143.3560333251953 120.75511169433594 86.8807373046875 130.78750610351562 93.65142059326172 96.34053802490234" stroke-width="2" fill="none" stroke="rgb(0, 0, 0)" stroke-opacity="1.0" stroke-linecap="round" stroke-linejoin="round"/>
    <path d="M 74.6951904296875 138.18209838867188 C 45.33026885986328 120.92119598388672 110.92744445800781 151.69728088378906 159.66981506347656 139.0813446044922" stroke-width="2" fill="none" stroke="rgb(0, 0, 0)" stroke-opacity="1.0" stroke-linecap="round" stroke-linejoin="round"/>
    <path d="M 126.5971450805664 143.7298583984375 C 43.94476318359375 124.32373046875 175.59573364257812 127.63932800292969 137.39988708496094 133.1766357421875" stroke-width="2" fill="none" stroke="rgb(0, 0, 0)" stroke-opacity="1.0" stroke-linecap="round" stroke-linejoin="round"/>
    <path d="M 170.81842041015625 98.6814956665039 C 171.60585021972656 54.664798736572266 183.2122802734375 105.6605224609375 154.26760864257812 99.4770736694336" stroke-width="2" fill="none" stroke="rgb(0, 0, 0)" stroke-opacity="1.0" stroke-linecap="round" stroke-linejoin="round"/>
    <path d="M 79.73060607910156 138.04507446289062 C 200.97918701171875 175.966064453125 193.0284423828125 128.8500518798828 128.36114501953125 132.81210327148438" stroke-width="2" fill="none" stroke="rgb(0, 0, 0)" stroke-opacity="1.0" stroke-linecap="round" stroke-linejoin="round"/>
  </g>
</svg>
