<?xml version="1.0" ?>
<svg xmlns="http://www.w3.org/2000/svg" version="1.1" width="224" height="224">
  <defs/>
  <g>
    <path d="M 81.79376983642578 151.38710021972656 C -9.747276306152344 163.63482666015625 81.18190002441406 50.34217834472656 109.02668762207031 120.72052001953125" stroke-width="2" fill="none" stroke="rgb(0, 0, 0)" stroke-opacity="1.0" stroke-linecap="round" stroke-linejoin="round"/>
    <path d="M 136.24986267089844 120.01653289794922 C 195.96705627441406 104.38975524902344 56.562503814697266 123.17544555664062 110.09894561767578 127.8667984008789" stroke-width="2" fill="none" stroke="rgb(0, 0, 0)" stroke-opacity="1.0" stroke-linecap="round" stroke-linejoin="round"/>
    <path d="M 54.536376953125 107.21524047851562 C -15.041234970092773 157.59165954589844 224.1682586669922 167.92616271972656 166.6399688720703 133.30667114257812" stroke-width="2" fill="none" stroke="rgb(0, 0, 0)" stroke-opacity="1.0" stroke-linecap="round" stroke-linejoin="round"/>
    <path d="M 135.838623046875 116.59391021728516 C 194.5863494873047 135.3068389892578 115.56587219238281 114.39102172851562 152.45681762695312 128.4488525390625" stroke-width="2" fill="none" stroke="rgb(0, 0, 0)" stroke-opacity="1.0" stroke-linecap="round" stroke-linejoin="round"/>
    <path d="M 104.5881576538086 68.73249053955078 C 134.0670928955078 108.09061431884766 140.7275848388672 58.37042999267578 160.83721923828125 100.94483184814453" stroke-width="2" fill="none" stroke="rgb(0, 0, 0)" stroke-opacity="1.0" stroke-linecap="round" stroke-linejoin="round"/>
    <path d="M 98.6675796508789 103.98249053955078 C 120.86094665527344 96.60221099853516 112.74103546142578 87.32132720947266 92.98129272460938 112.9721450805664" stroke-width="2" fill="none" stroke="rgb(0, 0, 0)" stroke-opacity="1.0" stroke-linecap="round" stroke-linejoin="round"/>
    <path d="M 102.93062591552734 137.3958282470703 C 38.89873123168945 98.21112060546875 170.14010620117188 150.65432739257812 65.62068176269531 113.4307632446289" stroke-width="2" fill="none" stroke="rgb(0, 0, 0)" stroke-opacity="1.0" stroke-linecap="round" stroke-linejoin="round"/>
    <path d="M 96.58859252929688 98.69319152832031 C 156.49853515625 132.32247924804688 -1.6164814233779907 85.46631622314453 53.1744499206543 149.52206420898438" stroke-width="2" fill="none" stroke="rgb(0, 0, 0)" stroke-opacity="1.0" stroke-linecap="round" stroke-linejoin="round"/>
    <path d="M 159.61915588378906 146.98345947265625 C 68.06588745117188 140.0020294189453 170.31143188476562 115.85428619384766 90.78211975097656 109.80083465576172" stroke-width="2" fill="none" stroke="rgb(0, 0, 0)" stroke-opacity="1.0" stroke-linecap="round" stroke-linejoin="round"/>
    <path d="M 142.6387481689453 129.57069396972656 C 175.2688751220703 122.8425521850586 120.96312713623047 126.24336242675781 154.38133239746094 131.61634826660156" stroke-width="2" fill="none" stroke="rgb(0, 0, 0)" stroke-opacity="1.0" stroke-linecap="round" stroke-linejoin="round"/>
    <path d="M 171.76893615722656 89.31877136230469 C 191.70382690429688 13.795670509338379 164.98773193359375 93.37193298339844 148.7803497314453 86.66809844970703" stroke-width="2" fill="none" stroke="rgb(0, 0, 0)" stroke-opacity="1.0" stroke-linecap="round" stroke-linejoin="round"/>
    <path d="M 165.45181274414062 125.81774139404297 C 179.0096893310547 134.6598663330078 114.06015014648438 167.10598754882812 104.34947204589844 75.48968505859375" stroke-width="2" fill="none" stroke="rgb(0, 0, 0)" stroke-opacity="1.0" stroke-linecap="round" stroke-linejoin="round"/>
    <path d="M 75.14897918701172 136.51153564453125 C 32.94184112548828 118.64193725585938 90.35267639160156 159.56085205078125 157.7976837158203 151.60986328125" stroke-width="2" fill="none" stroke="rgb(0, 0, 0)" stroke-opacity="1.0" stroke-linecap="round" stroke-linejoin="round"/>
    <path d="M 172.25942993164062 146.41812133789062 C 133.9986572265625 142.87396240234375 174.11451721191406 137.40628051757812 174.94888305664062 142.88722229003906" stroke-width="2" fill="none" stroke="rgb(0, 0, 0)" stroke-opacity="1.0" stroke-linecap="round" stroke-linejoin="round"/>
    <path d="M 163.89906311035156 134.3309783935547 C 175.35235595703125 84.82489013671875 143.62649536132812 137.8158416748047 167.60337829589844 97.34746551513672" stroke-width="2" fill="none" stroke="rgb(0, 0, 0)" stroke-opacity="1.0" stroke-linecap="round" stroke-linejoin="round"/>
    <path d="M 95.81521606445312 121.59626770019531 C 153.7600860595703 154.48468017578125 122.85883331298828 106.56121826171875 131.69239807128906 140.44088745117188" stroke-width="2" fill="none" stroke="rgb(0, 0, 0)" stroke-opacity="1.0" stroke-linecap="round" stroke-linejoin="round"/>
  </g>
</svg>
