<?xml version="1.0" ?>
<svg xmlns="http://www.w3.org/2000/svg" version="1.1" width="224" height="224">
  <defs/>
  <g>
    <path d="M 148.0111846923828 137.7928009033203 C 73.1133041381836 126.68966674804688 67.6844711303711 132.69091796875 54.097023010253906 111.89273071289062" stroke-width="2" fill="none" stroke="rgb(0, 0, 0)" stroke-opacity="1.0" stroke-linecap="round" stroke-linejoin="round"/>
    <path d="M 57.180294036865234 95.98847961425781 C 155.08250427246094 86.06895446777344 60.07777786254883 136.69741821289062 153.17825317382812 147.2740936279297" stroke-width="2" fill="none" stroke="rgb(0, 0, 0)" stroke-opacity="1.0" stroke-linecap="round" stroke-linejoin="round"/>
    <path d="M 58.51520919799805 101.39261627197266 C -21.79841423034668 171.101806640625 232.56524658203125 152.13417053222656 153.27674865722656 153.59791564941406" stroke-width="2" fill="none" stroke="rgb(0, 0, 0)" stroke-opacity="1.0" stroke-linecap="round" stroke-linejoin="round"/>
    <path d="M 117.80950927734375 120.56458282470703 C 206.85040283203125 115.14079284667969 129.96585083007812 103.35541534423828 165.43870544433594 100.50534057617188" stroke-width="2" fill="none" stroke="rgb(0, 0, 0)" stroke-opacity="1.0" stroke-linecap="round" stroke-linejoin="round"/>
    <path d="M 106.86946868896484 65.9682388305664 C 140.80865478515625 97.10702514648438 133.82640075683594 60.65711212158203 157.2888641357422 88.8404769897461" stroke-width="2" fill="none" stroke="rgb(0, 0, 0)" stroke-opacity="1.0" stroke-linecap="round" stroke-linejoin="round"/>
    <path d="M 104.43946838378906 95.67446899414062 C 141.11814880371094 67.33941650390625 70.54138946533203 120.66883850097656 129.2562255859375 115.11634826660156" stroke-width="2" fill="none" stroke="rgb(0, 0, 0)" stroke-opacity="1.0" stroke-linecap="round" stroke-linejoin="round"/>
    <path d="M 80.59278869628906 124.18673706054688 C 92.59790802001953 117.32437896728516 48.831085205078125 122.35128021240234 127.17062377929688 148.272705078125" stroke-width="2" fill="none" stroke="rgb(0, 0, 0)" stroke-opacity="1.0" stroke-linecap="round" stroke-linejoin="round"/>
    <path d="M 94.57440185546875 80.71290588378906 C 102.32662200927734 126.181640625 33.342491149902344 70.05060577392578 42.334442138671875 140.615478515625" stroke-width="2" fill="none" stroke="rgb(0, 0, 0)" stroke-opacity="1.0" stroke-linecap="round" stroke-linejoin="round"/>
    <path d="M 158.00120544433594 117.19706726074219 C 133.10887145996094 134.69204711914062 215.9603271484375 131.1884002685547 121.74613189697266 123.57830810546875" stroke-width="2" fill="none" stroke="rgb(0, 0, 0)" stroke-opacity="1.0" stroke-linecap="round" stroke-linejoin="round"/>
    <path d="M 133.08602905273438 154.287109375 C 214.49502563476562 155.11260986328125 143.26258850097656 131.3397674560547 164.14662170410156 104.83456420898438" stroke-width="2" fill="none" stroke="rgb(0, 0, 0)" stroke-opacity="1.0" stroke-linecap="round" stroke-linejoin="round"/>
    <path d="M 168.1831512451172 96.33898162841797 C 200.19699096679688 13.731611251831055 158.2987518310547 94.94001007080078 148.8618927001953 81.6131820678711" stroke-width="2" fill="none" stroke="rgb(0, 0, 0)" stroke-opacity="1.0" stroke-linecap="round" stroke-linejoin="round"/>
    <path d="M 105.1396484375 101.7363510131836 C 105.87626647949219 50.72301483154297 82.24073791503906 94.77098083496094 104.48709869384766 71.92911529541016" stroke-width="2" fill="none" stroke="rgb(0, 0, 0)" stroke-opacity="1.0" stroke-linecap="round" stroke-linejoin="round"/>
    <path d="M 95.54573059082031 145.78982543945312 C -6.663201332092285 118.66222381591797 69.98712158203125 158.46011352539062 73.60343170166016 155.5367889404297" stroke-width="2" fill="none" stroke="rgb(0, 0, 0)" stroke-opacity="1.0" stroke-linecap="round" stroke-linejoin="round"/>
    <path d="M 69.63916778564453 126.11842346191406 C 27.803489685058594 122.35897827148438 170.2964324951172 187.92471313476562 167.35195922851562 127.94841003417969" stroke-width="2" fill="none" stroke="rgb(0, 0, 0)" stroke-opacity="1.0" stroke-linecap="round" stroke-linejoin="round"/>
    <path d="M 125.32293701171875 125.1209487915039 C 166.02960205078125 103.68660736083984 106.67715454101562 105.0059585571289 159.9014892578125 119.07540130615234" stroke-width="2" fill="none" stroke="rgb(0, 0, 0)" stroke-opacity="1.0" stroke-linecap="round" stroke-linejoin="round"/>
    <path d="M 157.3141326904297 119.1365966796875 C 85.45235443115234 119.06559753417969 160.54058837890625 139.6619110107422 121.5811767578125 112.98167419433594" stroke-width="2" fill="none" stroke="rgb(0, 0, 0)" stroke-opacity="1.0" stroke-linecap="round" stroke-linejoin="round"/>
  </g>
</svg>
