<?xml version="1.0" ?>
<svg xmlns="http://www.w3.org/2000/svg" version="1.1" width="224" height="224">
  <defs/>
  <g>
    <path d="M 80.57521057128906 145.74758911132812 C 34.8654670715332 122.29632568359375 33.68107223510742 87.33734893798828 116.31739044189453 96.56102752685547" stroke-width="2" fill="none" stroke="rgb(0, 0, 0)" stroke-opacity="1.0" stroke-linecap="round" stroke-linejoin="round"/>
    <path d="M 141.39866638183594 154.43516540527344 C 142.4063262939453 159.65444946289062 83.49944305419922 159.4071807861328 67.69536590576172 140.61474609375" stroke-width="2" fill="none" stroke="rgb(0, 0, 0)" stroke-opacity="1.0" stroke-linecap="round" stroke-linejoin="round"/>
    <path d="M 134.55496215820312 141.7477264404297 C 48.71913146972656 111.74434661865234 127.5779037475586 143.1032257080078 171.46437072753906 147.06483459472656" stroke-width="2" fill="none" stroke="rgb(0, 0, 0)" stroke-opacity="1.0" stroke-linecap="round" stroke-linejoin="round"/>
    <path d="M 161.04171752929688 105.59944915771484 C 114.69178771972656 123.09290313720703 184.60369873046875 114.06169891357422 153.55838012695312 127.04244995117188" stroke-width="2" fill="none" stroke="rgb(0, 0, 0)" stroke-opacity="1.0" stroke-linecap="round" stroke-linejoin="round"/>
    <path d="M 104.0444107055664 69.56050872802734 C 113.38504028320312 112.11073303222656 167.2235107421875 59.33552169799805 170.87257385253906 108.68451690673828" stroke-width="2" fill="none" stroke="rgb(0, 0, 0)" stroke-opacity="1.0" stroke-linecap="round" stroke-linejoin="round"/>
    <path d="M 114.59854125976562 108.10810852050781 C 97.55113983154297 73.06195831298828 122.43965148925781 102.73164367675781 106.13858032226562 91.86183166503906" stroke-width="2" fill="none" stroke="rgb(0, 0, 0)" stroke-opacity="1.0" stroke-linecap="round" stroke-linejoin="round"/>
    <path d="M 129.4794464111328 96.52798461914062 C 85.83008575439453 123.39604949951172 144.11473083496094 98.68133544921875 96.91631317138672 104.41950225830078" stroke-width="2" fill="none" stroke="rgb(0, 0, 0)" stroke-opacity="1.0" stroke-linecap="round" stroke-linejoin="round"/>
    <path d="M 114.53446960449219 151.76736450195312 C 106.2685317993164 143.37025451660156 2.336560010910034 168.2320556640625 70.36442565917969 99.12955474853516" stroke-width="2" fill="none" stroke="rgb(0, 0, 0)" stroke-opacity="1.0" stroke-linecap="round" stroke-linejoin="round"/>
    <path d="M 147.41171264648438 117.14393615722656 C 112.50166320800781 119.08084106445312 181.07603454589844 135.66864013671875 124.85218048095703 124.04621887207031" stroke-width="2" fill="none" stroke="rgb(0, 0, 0)" stroke-opacity="1.0" stroke-linecap="round" stroke-linejoin="round"/>
    <path d="M 130.76548767089844 103.43297576904297 C 165.2608184814453 106.4638900756836 134.5812225341797 128.13949584960938 142.24432373046875 98.42489624023438" stroke-width="2" fill="none" stroke="rgb(0, 0, 0)" stroke-opacity="1.0" stroke-linecap="round" stroke-linejoin="round"/>
    <path d="M 186.63726806640625 66.34187316894531 C 177.1912841796875 56.206085205078125 157.4068603515625 101.50579071044922 141.0504913330078 84.72832489013672" stroke-width="2" fill="none" stroke="rgb(0, 0, 0)" stroke-opacity="1.0" stroke-linecap="round" stroke-linejoin="round"/>
    <path d="M 181.70895385742188 142.03407287597656 C 178.77056884765625 151.947265625 124.0772705078125 151.86708068847656 136.9320831298828 157.29202270507812" stroke-width="2" fill="none" stroke="rgb(0, 0, 0)" stroke-opacity="1.0" stroke-linecap="round" stroke-linejoin="round"/>
    <path d="M 69.05366516113281 122.44685363769531 C 64.9981460571289 144.54510498046875 201.14166259765625 138.71511840820312 156.4857177734375 136.620849609375" stroke-width="2" fill="none" stroke="rgb(0, 0, 0)" stroke-opacity="1.0" stroke-linecap="round" stroke-linejoin="round"/>
    <path d="M 116.292724609375 124.44229888916016 C 123.13065338134766 117.79222869873047 79.92040252685547 75.37940979003906 129.8048095703125 92.56534576416016" stroke-width="2" fill="none" stroke="rgb(0, 0, 0)" stroke-opacity="1.0" stroke-linecap="round" stroke-linejoin="round"/>
    <path d="M 164.7665557861328 115.75666809082031 C 177.20985412597656 87.81305694580078 183.0865936279297 120.57367706298828 189.29396057128906 63.212615966796875" stroke-width="2" fill="none" stroke="rgb(0, 0, 0)" stroke-opacity="1.0" stroke-linecap="round" stroke-linejoin="round"/>
    <path d="M 83.09143829345703 118.86474609375 C 92.66189575195312 105.2737808227539 98.58790588378906 127.27611541748047 103.85594177246094 106.95417785644531" stroke-width="2" fill="none" stroke="rgb(0, 0, 0)" stroke-opacity="1.0" stroke-linecap="round" stroke-linejoin="round"/>
  </g>
</svg>
