<?xml version="1.0" ?>
<svg xmlns="http://www.w3.org/2000/svg" version="1.1" width="224" height="224">
  <defs/>
  <g>
    <path d="M 60.25594711303711 146.53541564941406 C -1.157383680343628 129.9202423095703 92.573974609375 70.25115966796875 96.28640747070312 117.09197998046875" stroke-width="2" fill="none" stroke="rgb(0, 0, 0)" stroke-opacity="1.0" stroke-linecap="round" stroke-linejoin="round"/>
    <path d="M 125.23670196533203 133.40098571777344 C 229.8798370361328 127.67132568359375 109.06851196289062 140.3417205810547 129.38430786132812 120.38690185546875" stroke-width="2" fill="none" stroke="rgb(0, 0, 0)" stroke-opacity="1.0" stroke-linecap="round" stroke-linejoin="round"/>
    <path d="M 135.20851135253906 145.7104949951172 C 14.621614456176758 116.89228820800781 109.57855987548828 139.22044372558594 109.84767150878906 148.471923828125" stroke-width="2" fill="none" stroke="rgb(0, 0, 0)" stroke-opacity="1.0" stroke-linecap="round" stroke-linejoin="round"/>
    <path d="M 150.6566619873047 108.9632568359375 C 158.03311157226562 128.56036376953125 116.85445404052734 94.77432250976562 156.9052734375 120.37626647949219" stroke-width="2" fill="none" stroke="rgb(0, 0, 0)" stroke-opacity="1.0" stroke-linecap="round" stroke-linejoin="round"/>
    <path d="M 103.84233856201172 75.71097564697266 C 102.53482055664062 103.70362854003906 143.00698852539062 66.85773468017578 139.33880615234375 94.25420379638672" stroke-width="2" fill="none" stroke="rgb(0, 0, 0)" stroke-opacity="1.0" stroke-linecap="round" stroke-linejoin="round"/>
    <path d="M 79.2525634765625 108.4232406616211 C 2.882941246032715 109.1962661743164 94.65653991699219 136.5295867919922 55.12746047973633 119.19682312011719" stroke-width="2" fill="none" stroke="rgb(0, 0, 0)" stroke-opacity="1.0" stroke-linecap="round" stroke-linejoin="round"/>
    <path d="M 117.1458740234375 122.29887390136719 C 87.02253723144531 63.03962326049805 139.68975830078125 85.13099670410156 99.33460235595703 111.12207794189453" stroke-width="2" fill="none" stroke="rgb(0, 0, 0)" stroke-opacity="1.0" stroke-linecap="round" stroke-linejoin="round"/>
    <path d="M 100.49235534667969 153.9225616455078 C 103.97154235839844 158.82498168945312 -11.623964309692383 153.4254608154297 63.10383605957031 102.12452697753906" stroke-width="2" fill="none" stroke="rgb(0, 0, 0)" stroke-opacity="1.0" stroke-linecap="round" stroke-linejoin="round"/>
    <path d="M 160.43087768554688 91.78209686279297 C 128.98663330078125 68.42472076416016 194.92160034179688 110.5444564819336 161.3657684326172 126.4344253540039" stroke-width="2" fill="none" stroke="rgb(0, 0, 0)" stroke-opacity="1.0" stroke-linecap="round" stroke-linejoin="round"/>
    <path d="M 137.3860321044922 112.22721862792969 C 192.1107940673828 121.49815368652344 103.88269805908203 134.41383361816406 171.20819091796875 114.77889251708984" stroke-width="2" fill="none" stroke="rgb(0, 0, 0)" stroke-opacity="1.0" stroke-linecap="round" stroke-linejoin="round"/>
    <path d="M 187.3160858154297 64.30297088623047 C 173.5887451171875 64.94782257080078 169.87246704101562 93.66598510742188 141.3776092529297 86.44212341308594" stroke-width="2" fill="none" stroke="rgb(0, 0, 0)" stroke-opacity="1.0" stroke-linecap="round" stroke-linejoin="round"/>
    <path d="M 173.21054077148438 147.98146057128906 C 152.86697387695312 170.14820861816406 61.239131927490234 90.410400390625 74.14688110351562 108.28976440429688" stroke-width="2" fill="none" stroke="rgb(0, 0, 0)" stroke-opacity="1.0" stroke-linecap="round" stroke-linejoin="round"/>
    <path d="M 161.61048889160156 150.27342224121094 C -26.492067337036133 138.9571990966797 202.65184020996094 180.60614013671875 172.50955200195312 130.46011352539062" stroke-width="2" fill="none" stroke="rgb(0, 0, 0)" stroke-opacity="1.0" stroke-linecap="round" stroke-linejoin="round"/>
    <path d="M 124.72563171386719 114.5866470336914 C 202.31741333007812 113.7378921508789 164.72036743164062 135.66624450683594 171.57606506347656 113.2269287109375" stroke-width="2" fill="none" stroke="rgb(0, 0, 0)" stroke-opacity="1.0" stroke-linecap="round" stroke-linejoin="round"/>
    <path d="M 134.82423400878906 101.91011047363281 C 146.11663818359375 85.82456970214844 171.76681518554688 133.0469207763672 185.22618103027344 69.65410614013672" stroke-width="2" fill="none" stroke="rgb(0, 0, 0)" stroke-opacity="1.0" stroke-linecap="round" stroke-linejoin="round"/>
    <path d="M 171.3636474609375 120.12918853759766 C 153.017333984375 143.90359497070312 193.87399291992188 100.86514282226562 149.3939971923828 115.36358642578125" stroke-width="2" fill="none" stroke="rgb(0, 0, 0)" stroke-opacity="1.0" stroke-linecap="round" stroke-linejoin="round"/>
  </g>
</svg>
