<?xml version="1.0" ?>
<svg xmlns="http://www.w3.org/2000/svg" version="1.1" width="224" height="224">
  <defs/>
  <g>
    <path d="M 137.01669311523438 147.82916259765625 C 105.02435302734375 145.98902893066406 89.23312377929688 111.88799285888672 98.03160095214844 132.12335205078125" stroke-width="2" fill="none" stroke="rgb(0, 0, 0)" stroke-opacity="1.0" stroke-linecap="round" stroke-linejoin="round"/>
    <path d="M 90.2082748413086 109.38876342773438 C 141.52537536621094 106.99403381347656 70.2737808227539 144.9674835205078 150.2235565185547 129.8545379638672" stroke-width="2" fill="none" stroke="rgb(0, 0, 0)" stroke-opacity="1.0" stroke-linecap="round" stroke-linejoin="round"/>
    <path d="M 65.88204956054688 99.49689483642578 C -29.736125946044922 175.97764587402344 201.184814453125 153.32447814941406 163.47311401367188 127.06444549560547" stroke-width="2" fill="none" stroke="rgb(0, 0, 0)" stroke-opacity="1.0" stroke-linecap="round" stroke-linejoin="round"/>
    <path d="M 128.72158813476562 113.86150360107422 C 185.2711944580078 114.41492462158203 124.09566497802734 110.64295196533203 153.67745971679688 111.17404174804688" stroke-width="2" fill="none" stroke="rgb(0, 0, 0)" stroke-opacity="1.0" stroke-linecap="round" stroke-linejoin="round"/>
    <path d="M 104.8395767211914 70.95911407470703 C 143.62786865234375 111.27435302734375 129.15237426757812 52.2821044921875 168.344482421875 86.94764709472656" stroke-width="2" fill="none" stroke="rgb(0, 0, 0)" stroke-opacity="1.0" stroke-linecap="round" stroke-linejoin="round"/>
    <path d="M 124.64844512939453 103.90234375 C 173.71754455566406 86.96468353271484 58.38869094848633 110.73976135253906 153.64874267578125 143.3616180419922" stroke-width="2" fill="none" stroke="rgb(0, 0, 0)" stroke-opacity="1.0" stroke-linecap="round" stroke-linejoin="round"/>
    <path d="M 54.290985107421875 104.14801788330078 C 83.30366516113281 105.29460144042969 35.74904251098633 84.38788604736328 154.0133819580078 112.52889251708984" stroke-width="2" fill="none" stroke="rgb(0, 0, 0)" stroke-opacity="1.0" stroke-linecap="round" stroke-linejoin="round"/>
    <path d="M 97.67391967773438 71.3877182006836 C 133.80311584472656 120.9451675415039 33.761878967285156 67.91342163085938 52.26939392089844 126.02603912353516" stroke-width="2" fill="none" stroke="rgb(0, 0, 0)" stroke-opacity="1.0" stroke-linecap="round" stroke-linejoin="round"/>
    <path d="M 160.11656188964844 129.0699462890625 C 135.0258331298828 117.3820571899414 187.6487579345703 105.48681640625 148.45370483398438 101.9754409790039" stroke-width="2" fill="none" stroke="rgb(0, 0, 0)" stroke-opacity="1.0" stroke-linecap="round" stroke-linejoin="round"/>
    <path d="M 131.4656524658203 147.6251983642578 C 218.11898803710938 154.68153381347656 137.48284912109375 137.62115478515625 175.055419921875 98.99080657958984" stroke-width="2" fill="none" stroke="rgb(0, 0, 0)" stroke-opacity="1.0" stroke-linecap="round" stroke-linejoin="round"/>
    <path d="M 172.73599243164062 93.82943725585938 C 195.1658477783203 18.520944595336914 163.24462890625 89.21910095214844 163.25302124023438 75.68606567382812" stroke-width="2" fill="none" stroke="rgb(0, 0, 0)" stroke-opacity="1.0" stroke-linecap="round" stroke-linejoin="round"/>
    <path d="M 117.0981674194336 115.86805725097656 C 86.70277404785156 90.91049194335938 115.77896118164062 88.46295928955078 103.1058120727539 98.32633209228516" stroke-width="2" fill="none" stroke="rgb(0, 0, 0)" stroke-opacity="1.0" stroke-linecap="round" stroke-linejoin="round"/>
    <path d="M 112.95415496826172 142.51126098632812 C 50.567298889160156 126.64204406738281 107.31763458251953 146.2374267578125 133.5441131591797 145.09579467773438" stroke-width="2" fill="none" stroke="rgb(0, 0, 0)" stroke-opacity="1.0" stroke-linecap="round" stroke-linejoin="round"/>
    <path d="M 65.66500091552734 144.9063262939453 C 19.207427978515625 119.8816146850586 166.30892944335938 187.3866424560547 177.218505859375 135.01718139648438" stroke-width="2" fill="none" stroke="rgb(0, 0, 0)" stroke-opacity="1.0" stroke-linecap="round" stroke-linejoin="round"/>
    <path d="M 116.7838134765625 125.16877746582031 C 169.59384155273438 112.72083282470703 82.88615417480469 87.37380981445312 158.29563903808594 120.74100494384766" stroke-width="2" fill="none" stroke="rgb(0, 0, 0)" stroke-opacity="1.0" stroke-linecap="round" stroke-linejoin="round"/>
    <path d="M 162.19288635253906 126.82813262939453 C 79.87904357910156 131.60433959960938 177.2826690673828 123.81275939941406 130.5005645751953 123.23445892333984" stroke-width="2" fill="none" stroke="rgb(0, 0, 0)" stroke-opacity="1.0" stroke-linecap="round" stroke-linejoin="round"/>
  </g>
</svg>
