<?xml version="1.0" ?>
<svg xmlns="http://www.w3.org/2000/svg" version="1.1" width="224" height="224">
  <defs/>
  <g>
    <path d="M 77.31644439697266 153.45465087890625 C -2.930406093597412 132.92251586914062 105.5184097290039 51.537174224853516 123.77824401855469 133.1168670654297" stroke-width="2" fill="none" stroke="rgb(0, 0, 0)" stroke-opacity="1.0" stroke-linecap="round" stroke-linejoin="round"/>
    <path d="M 149.4677276611328 156.19583129882812 C 222.17498779296875 148.95010375976562 69.8641357421875 154.73233032226562 124.95455932617188 110.18329620361328" stroke-width="2" fill="none" stroke="rgb(0, 0, 0)" stroke-opacity="1.0" stroke-linecap="round" stroke-linejoin="round"/>
    <path d="M 125.40544891357422 147.1256103515625 C 29.52995491027832 142.34375 223.14715576171875 178.95010375976562 158.6430206298828 121.387451171875" stroke-width="2" fill="none" stroke="rgb(0, 0, 0)" stroke-opacity="1.0" stroke-linecap="round" stroke-linejoin="round"/>
    <path d="M 133.11685180664062 106.75334930419922 C 165.40232849121094 109.22960662841797 94.70897674560547 110.68648529052734 162.83526611328125 110.4278335571289" stroke-width="2" fill="none" stroke="rgb(0, 0, 0)" stroke-opacity="1.0" stroke-linecap="round" stroke-linejoin="round"/>
    <path d="M 102.60110473632812 75.91485595703125 C 125.30243682861328 108.06333923339844 132.16702270507812 71.81128692626953 151.77719116210938 101.44837188720703" stroke-width="2" fill="none" stroke="rgb(0, 0, 0)" stroke-opacity="1.0" stroke-linecap="round" stroke-linejoin="round"/>
    <path d="M 107.30571746826172 87.9585189819336 C 65.54822540283203 108.7876205444336 143.30322265625 114.22989654541016 102.20408630371094 91.27323150634766" stroke-width="2" fill="none" stroke="rgb(0, 0, 0)" stroke-opacity="1.0" stroke-linecap="round" stroke-linejoin="round"/>
    <path d="M 102.85879516601562 118.89534759521484 C 99.90406036376953 65.41819763183594 122.4533462524414 122.948974609375 88.99391174316406 104.222900390625" stroke-width="2" fill="none" stroke="rgb(0, 0, 0)" stroke-opacity="1.0" stroke-linecap="round" stroke-linejoin="round"/>
    <path d="M 149.87815856933594 157.09588623046875 C 131.85260009765625 150.3701171875 12.0549955368042 175.57733154296875 53.52880096435547 108.30339813232422" stroke-width="2" fill="none" stroke="rgb(0, 0, 0)" stroke-opacity="1.0" stroke-linecap="round" stroke-linejoin="round"/>
    <path d="M 144.78770446777344 133.40098571777344 C 104.36153411865234 134.94403076171875 189.41798400878906 124.94259643554688 134.59869384765625 130.6309051513672" stroke-width="2" fill="none" stroke="rgb(0, 0, 0)" stroke-opacity="1.0" stroke-linecap="round" stroke-linejoin="round"/>
    <path d="M 141.21739196777344 123.6744613647461 C 170.582763671875 119.76493072509766 116.9032211303711 151.3094482421875 151.34249877929688 126.2341079711914" stroke-width="2" fill="none" stroke="rgb(0, 0, 0)" stroke-opacity="1.0" stroke-linecap="round" stroke-linejoin="round"/>
    <path d="M 188.6231689453125 76.32111358642578 C 181.89479064941406 62.64453887939453 166.00616455078125 95.43951416015625 148.47535705566406 90.50405883789062" stroke-width="2" fill="none" stroke="rgb(0, 0, 0)" stroke-opacity="1.0" stroke-linecap="round" stroke-linejoin="round"/>
    <path d="M 150.34884643554688 128.98812866210938 C 158.92539978027344 148.5127716064453 45.31785202026367 114.87751770019531 85.75446319580078 122.37894439697266" stroke-width="2" fill="none" stroke="rgb(0, 0, 0)" stroke-opacity="1.0" stroke-linecap="round" stroke-linejoin="round"/>
    <path d="M 101.16665649414062 149.81314086914062 C -36.643978118896484 110.04537200927734 181.38693237304688 166.2075653076172 176.03768920898438 142.54396057128906" stroke-width="2" fill="none" stroke="rgb(0, 0, 0)" stroke-opacity="1.0" stroke-linecap="round" stroke-linejoin="round"/>
    <path d="M 122.05988311767578 125.36201477050781 C 145.64198303222656 121.41619110107422 164.88809204101562 154.02682495117188 156.7404022216797 107.61425018310547" stroke-width="2" fill="none" stroke="rgb(0, 0, 0)" stroke-opacity="1.0" stroke-linecap="round" stroke-linejoin="round"/>
    <path d="M 163.35690307617188 117.79232788085938 C 122.5783920288086 85.62579345703125 171.874755859375 150.19244384765625 182.7684783935547 75.65555572509766" stroke-width="2" fill="none" stroke="rgb(0, 0, 0)" stroke-opacity="1.0" stroke-linecap="round" stroke-linejoin="round"/>
    <path d="M 147.8432159423828 124.72174072265625 C 123.21859741210938 150.9380645751953 211.7509765625 81.9728012084961 164.03134155273438 96.96385192871094" stroke-width="2" fill="none" stroke="rgb(0, 0, 0)" stroke-opacity="1.0" stroke-linecap="round" stroke-linejoin="round"/>
  </g>
</svg>
