<?xml version="1.0" ?>
<svg xmlns="http://www.w3.org/2000/svg" version="1.1" width="224" height="224">
  <defs/>
  <g>
    <path d="M 71.56267547607422 151.43519592285156 C 44.01127624511719 139.38328552246094 52.318275451660156 126.15379333496094 51.62358856201172 141.2087860107422" stroke-width="2" fill="none" stroke="rgb(0, 0, 0)" stroke-opacity="1.0" stroke-linecap="round" stroke-linejoin="round"/>
    <path d="M 97.32034301757812 115.11060333251953 C 139.84109497070312 111.22480773925781 76.04210662841797 142.42730712890625 154.1616973876953 135.87974548339844" stroke-width="2" fill="none" stroke="rgb(0, 0, 0)" stroke-opacity="1.0" stroke-linecap="round" stroke-linejoin="round"/>
    <path d="M 57.93901062011719 98.81391906738281 C -40.095123291015625 178.5282745361328 267.172119140625 141.73876953125 145.11001586914062 142.59112548828125" stroke-width="2" fill="none" stroke="rgb(0, 0, 0)" stroke-opacity="1.0" stroke-linecap="round" stroke-linejoin="round"/>
    <path d="M 125.61890411376953 114.21167755126953 C 183.0191192626953 131.00718688964844 124.39440155029297 126.69803619384766 150.1834259033203 122.91311645507812" stroke-width="2" fill="none" stroke="rgb(0, 0, 0)" stroke-opacity="1.0" stroke-linecap="round" stroke-linejoin="round"/>
    <path d="M 114.83944702148438 76.83877563476562 C 104.0794448852539 102.240966796875 144.34414672851562 65.04112243652344 155.9880828857422 100.30986022949219" stroke-width="2" fill="none" stroke="rgb(0, 0, 0)" stroke-opacity="1.0" stroke-linecap="round" stroke-linejoin="round"/>
    <path d="M 142.24610900878906 108.44284057617188 C 168.2876739501953 124.4112548828125 144.10569763183594 102.91913604736328 155.49818420410156 119.06632232666016" stroke-width="2" fill="none" stroke="rgb(0, 0, 0)" stroke-opacity="1.0" stroke-linecap="round" stroke-linejoin="round"/>
    <path d="M 120.71996307373047 107.19258880615234 C 168.58555603027344 92.03180694580078 89.42327117919922 120.58190155029297 128.9688262939453 138.93714904785156" stroke-width="2" fill="none" stroke="rgb(0, 0, 0)" stroke-opacity="1.0" stroke-linecap="round" stroke-linejoin="round"/>
    <path d="M 108.91812133789062 71.78499603271484 C 144.3445281982422 126.60247802734375 57.857181549072266 73.09901428222656 59.385986328125 112.54035186767578" stroke-width="2" fill="none" stroke="rgb(0, 0, 0)" stroke-opacity="1.0" stroke-linecap="round" stroke-linejoin="round"/>
    <path d="M 142.48095703125 111.76239776611328 C 175.29244995117188 118.83216857910156 111.59220886230469 127.43146514892578 164.0423583984375 111.13253784179688" stroke-width="2" fill="none" stroke="rgb(0, 0, 0)" stroke-opacity="1.0" stroke-linecap="round" stroke-linejoin="round"/>
    <path d="M 95.25348663330078 103.3284683227539 C 211.1796417236328 147.6429443359375 140.92337036132812 95.91644287109375 148.3611602783203 129.94203186035156" stroke-width="2" fill="none" stroke="rgb(0, 0, 0)" stroke-opacity="1.0" stroke-linecap="round" stroke-linejoin="round"/>
    <path d="M 172.8712158203125 120.17796325683594 C 208.32667541503906 4.874537944793701 169.76588439941406 102.65789031982422 151.53445434570312 84.97389221191406" stroke-width="2" fill="none" stroke="rgb(0, 0, 0)" stroke-opacity="1.0" stroke-linecap="round" stroke-linejoin="round"/>
    <path d="M 108.3825912475586 74.1524658203125 C 139.50965881347656 82.29151153564453 106.31929779052734 87.47176361083984 124.07005310058594 102.16878509521484" stroke-width="2" fill="none" stroke="rgb(0, 0, 0)" stroke-opacity="1.0" stroke-linecap="round" stroke-linejoin="round"/>
    <path d="M 91.58109283447266 143.63755798339844 C -13.873298645019531 124.26669311523438 78.18763732910156 165.91265869140625 139.11378479003906 157.10877990722656" stroke-width="2" fill="none" stroke="rgb(0, 0, 0)" stroke-opacity="1.0" stroke-linecap="round" stroke-linejoin="round"/>
    <path d="M 77.04412841796875 126.4365234375 C 83.18187713623047 142.24949645996094 187.13844299316406 173.42933654785156 173.90623474121094 138.2129364013672" stroke-width="2" fill="none" stroke="rgb(0, 0, 0)" stroke-opacity="1.0" stroke-linecap="round" stroke-linejoin="round"/>
    <path d="M 153.29698181152344 98.82128143310547 C 191.9906005859375 91.1683120727539 158.79031372070312 121.00059509277344 183.08001708984375 96.83236694335938" stroke-width="2" fill="none" stroke="rgb(0, 0, 0)" stroke-opacity="1.0" stroke-linecap="round" stroke-linejoin="round"/>
    <path d="M 128.09617614746094 100.67315673828125 C 109.2546615600586 129.93984985351562 206.92230224609375 104.92826843261719 165.07540893554688 133.12693786621094" stroke-width="2" fill="none" stroke="rgb(0, 0, 0)" stroke-opacity="1.0" stroke-linecap="round" stroke-linejoin="round"/>
  </g>
</svg>
