<?xml version="1.0" ?>
<svg xmlns="http://www.w3.org/2000/svg" version="1.1" width="224" height="224">
  <defs/>
  <g>
    <path d="M 55.60188674926758 152.63966369628906 C 3.450562000274658 134.0104217529297 95.65502166748047 65.04715728759766 96.65301513671875 112.25499725341797" stroke-width="2" fill="none" stroke="rgb(0, 0, 0)" stroke-opacity="1.0" stroke-linecap="round" stroke-linejoin="round"/>
    <path d="M 121.22640228271484 143.78370666503906 C 223.3391876220703 130.75692749023438 87.0813217163086 143.90435791015625 128.20266723632812 124.76761627197266" stroke-width="2" fill="none" stroke="rgb(0, 0, 0)" stroke-opacity="1.0" stroke-linecap="round" stroke-linejoin="round"/>
    <path d="M 131.17640686035156 146.62457275390625 C 7.246362209320068 119.43154907226562 96.52511596679688 147.38336181640625 115.39785766601562 148.43861389160156" stroke-width="2" fill="none" stroke="rgb(0, 0, 0)" stroke-opacity="1.0" stroke-linecap="round" stroke-linejoin="round"/>
    <path d="M 155.5550079345703 99.83423614501953 C 163.17062377929688 134.66172790527344 120.32627868652344 99.31319427490234 155.63465881347656 122.18936157226562" stroke-width="2" fill="none" stroke="rgb(0, 0, 0)" stroke-opacity="1.0" stroke-linecap="round" stroke-linejoin="round"/>
    <path d="M 96.8332748413086 69.91532897949219 C 103.96180725097656 102.16854095458984 136.8244171142578 68.88787078857422 141.26771545410156 94.57406616210938" stroke-width="2" fill="none" stroke="rgb(0, 0, 0)" stroke-opacity="1.0" stroke-linecap="round" stroke-linejoin="round"/>
    <path d="M 76.99722290039062 111.22557067871094 C -3.948801279067993 105.12946319580078 91.12255096435547 131.79896545410156 57.210391998291016 118.05370330810547" stroke-width="2" fill="none" stroke="rgb(0, 0, 0)" stroke-opacity="1.0" stroke-linecap="round" stroke-linejoin="round"/>
    <path d="M 116.82774353027344 127.34066772460938 C 86.84036254882812 63.487571716308594 140.28623962402344 81.9814453125 98.69412231445312 104.01823425292969" stroke-width="2" fill="none" stroke="rgb(0, 0, 0)" stroke-opacity="1.0" stroke-linecap="round" stroke-linejoin="round"/>
    <path d="M 102.26903533935547 152.56593322753906 C 106.32827758789062 155.47824096679688 -11.887800216674805 148.29795837402344 62.905879974365234 97.92998504638672" stroke-width="2" fill="none" stroke="rgb(0, 0, 0)" stroke-opacity="1.0" stroke-linecap="round" stroke-linejoin="round"/>
    <path d="M 164.08731079101562 88.87787628173828 C 123.62117004394531 75.8126449584961 194.64266967773438 119.33562469482422 164.189208984375 128.89979553222656" stroke-width="2" fill="none" stroke="rgb(0, 0, 0)" stroke-opacity="1.0" stroke-linecap="round" stroke-linejoin="round"/>
    <path d="M 139.5166473388672 113.25313568115234 C 201.8197021484375 123.82846069335938 112.52772521972656 131.00360107421875 174.4884796142578 116.56266021728516" stroke-width="2" fill="none" stroke="rgb(0, 0, 0)" stroke-opacity="1.0" stroke-linecap="round" stroke-linejoin="round"/>
    <path d="M 185.40679931640625 63.95590591430664 C 171.37261962890625 58.87788009643555 167.1434783935547 94.62368774414062 141.1996307373047 87.19657897949219" stroke-width="2" fill="none" stroke="rgb(0, 0, 0)" stroke-opacity="1.0" stroke-linecap="round" stroke-linejoin="round"/>
    <path d="M 173.1964111328125 144.06884765625 C 161.85540771484375 165.6109619140625 63.69469451904297 89.87477111816406 82.31275177001953 107.38711547851562" stroke-width="2" fill="none" stroke="rgb(0, 0, 0)" stroke-opacity="1.0" stroke-linecap="round" stroke-linejoin="round"/>
    <path d="M 161.2169647216797 146.7154541015625 C -28.07979393005371 135.53195190429688 209.2158660888672 178.3008270263672 178.31918334960938 126.07662963867188" stroke-width="2" fill="none" stroke="rgb(0, 0, 0)" stroke-opacity="1.0" stroke-linecap="round" stroke-linejoin="round"/>
    <path d="M 122.23194885253906 117.16471099853516 C 200.1195068359375 118.07142639160156 169.31309509277344 138.6957550048828 168.8618621826172 112.826416015625" stroke-width="2" fill="none" stroke="rgb(0, 0, 0)" stroke-opacity="1.0" stroke-linecap="round" stroke-linejoin="round"/>
    <path d="M 140.44947814941406 108.81071472167969 C 148.60321044921875 86.88167572021484 167.57740783691406 137.5666961669922 179.92381286621094 67.99746704101562" stroke-width="2" fill="none" stroke="rgb(0, 0, 0)" stroke-opacity="1.0" stroke-linecap="round" stroke-linejoin="round"/>
    <path d="M 171.74964904785156 120.76044464111328 C 152.69876098632812 142.1672821044922 199.4714813232422 103.35011291503906 147.28521728515625 110.25418090820312" stroke-width="2" fill="none" stroke="rgb(0, 0, 0)" stroke-opacity="1.0" stroke-linecap="round" stroke-linejoin="round"/>
  </g>
</svg>
