<?xml version="1.0" ?>
<svg xmlns="http://www.w3.org/2000/svg" version="1.1" width="224" height="224">
  <defs/>
  <g>
    <path d="M 165.44517517089844 143.085693359375 C 70.06028747558594 152.41978454589844 30.871919631958008 148.8834686279297 43.11188888549805 126.89079284667969" stroke-width="2" fill="none" stroke="rgb(0, 0, 0)" stroke-opacity="1.0" stroke-linecap="round" stroke-linejoin="round"/>
    <path d="M 82.06937408447266 117.10261535644531 C 138.42491149902344 111.64457702636719 60.85107421875 137.1427459716797 151.00540161132812 136.01597595214844" stroke-width="2" fill="none" stroke="rgb(0, 0, 0)" stroke-opacity="1.0" stroke-linecap="round" stroke-linejoin="round"/>
    <path d="M 60.8184814453125 105.15922546386719 C -21.61992645263672 184.52468872070312 239.60665893554688 150.20960998535156 150.3633270263672 131.72860717773438" stroke-width="2" fill="none" stroke="rgb(0, 0, 0)" stroke-opacity="1.0" stroke-linecap="round" stroke-linejoin="round"/>
    <path d="M 115.82893371582031 111.80838775634766 C 216.50550842285156 113.75477600097656 129.3434600830078 106.1512680053711 169.83425903320312 101.45197296142578" stroke-width="2" fill="none" stroke="rgb(0, 0, 0)" stroke-opacity="1.0" stroke-linecap="round" stroke-linejoin="round"/>
    <path d="M 97.83454895019531 69.59249114990234 C 131.81585693359375 108.06241607666016 130.25027465820312 63.2122802734375 156.82762145996094 93.440185546875" stroke-width="2" fill="none" stroke="rgb(0, 0, 0)" stroke-opacity="1.0" stroke-linecap="round" stroke-linejoin="round"/>
    <path d="M 112.69561004638672 117.04682922363281 C 156.93417358398438 96.08387756347656 95.8604965209961 110.87571716308594 141.3332977294922 115.53357696533203" stroke-width="2" fill="none" stroke="rgb(0, 0, 0)" stroke-opacity="1.0" stroke-linecap="round" stroke-linejoin="round"/>
    <path d="M 120.96268463134766 112.88346862792969 C 103.36032104492188 93.75249481201172 79.08765411376953 126.86669158935547 132.55052185058594 143.69740295410156" stroke-width="2" fill="none" stroke="rgb(0, 0, 0)" stroke-opacity="1.0" stroke-linecap="round" stroke-linejoin="round"/>
    <path d="M 111.25643920898438 98.41326904296875 C 112.18620300292969 133.79319763183594 56.53870391845703 66.24641418457031 52.623165130615234 119.11613464355469" stroke-width="2" fill="none" stroke="rgb(0, 0, 0)" stroke-opacity="1.0" stroke-linecap="round" stroke-linejoin="round"/>
    <path d="M 146.02796936035156 123.60115814208984 C 142.09909057617188 120.10307312011719 145.8700714111328 109.31763458251953 134.58656311035156 122.60374450683594" stroke-width="2" fill="none" stroke="rgb(0, 0, 0)" stroke-opacity="1.0" stroke-linecap="round" stroke-linejoin="round"/>
    <path d="M 156.72463989257812 151.8952178955078 C 207.66839599609375 158.1076202392578 122.14362335205078 86.53982543945312 164.39979553222656 88.24037170410156" stroke-width="2" fill="none" stroke="rgb(0, 0, 0)" stroke-opacity="1.0" stroke-linecap="round" stroke-linejoin="round"/>
    <path d="M 166.0146942138672 116.58617401123047 C 215.3406524658203 14.657994270324707 159.14646911621094 92.2811050415039 153.26119995117188 82.1177749633789" stroke-width="2" fill="none" stroke="rgb(0, 0, 0)" stroke-opacity="1.0" stroke-linecap="round" stroke-linejoin="round"/>
    <path d="M 105.7358169555664 85.31513214111328 C 108.22212219238281 55.735443115234375 104.87799072265625 105.0082015991211 112.85333251953125 95.4031753540039" stroke-width="2" fill="none" stroke="rgb(0, 0, 0)" stroke-opacity="1.0" stroke-linecap="round" stroke-linejoin="round"/>
    <path d="M 101.1330795288086 139.13287353515625 C -5.946619510650635 133.36923217773438 96.49933624267578 140.00836181640625 110.03141021728516 154.96630859375" stroke-width="2" fill="none" stroke="rgb(0, 0, 0)" stroke-opacity="1.0" stroke-linecap="round" stroke-linejoin="round"/>
    <path d="M 69.9813003540039 137.70513916015625 C 26.756601333618164 128.71665954589844 172.7841033935547 192.5600128173828 164.85678100585938 117.80525970458984" stroke-width="2" fill="none" stroke="rgb(0, 0, 0)" stroke-opacity="1.0" stroke-linecap="round" stroke-linejoin="round"/>
    <path d="M 128.26182556152344 128.9821319580078 C 166.43385314941406 111.8558349609375 120.34931182861328 93.51005554199219 157.43438720703125 114.7716293334961" stroke-width="2" fill="none" stroke="rgb(0, 0, 0)" stroke-opacity="1.0" stroke-linecap="round" stroke-linejoin="round"/>
    <path d="M 141.83758544921875 132.7925262451172 C 93.26119232177734 117.15924072265625 177.54757690429688 125.78588104248047 127.61679077148438 116.08848571777344" stroke-width="2" fill="none" stroke="rgb(0, 0, 0)" stroke-opacity="1.0" stroke-linecap="round" stroke-linejoin="round"/>
  </g>
</svg>
