<?xml version="1.0" ?>
<svg xmlns="http://www.w3.org/2000/svg" version="1.1" width="224" height="224">
  <defs/>
  <g>
    <path d="M 148.4876251220703 142.66319274902344 C 90.26032257080078 136.32669067382812 87.93997955322266 113.03521728515625 108.2964859008789 130.1708221435547" stroke-width="2" fill="none" stroke="rgb(0, 0, 0)" stroke-opacity="1.0" stroke-linecap="round" stroke-linejoin="round"/>
    <path d="M 55.677215576171875 108.86918640136719 C 156.543701171875 97.01215362548828 76.26109313964844 149.0520477294922 146.23919677734375 143.37574768066406" stroke-width="2" fill="none" stroke="rgb(0, 0, 0)" stroke-opacity="1.0" stroke-linecap="round" stroke-linejoin="round"/>
    <path d="M 57.126739501953125 106.47634887695312 C -25.64100456237793 184.38653564453125 219.81663513183594 143.72132873535156 152.82012939453125 147.1353302001953" stroke-width="2" fill="none" stroke="rgb(0, 0, 0)" stroke-opacity="1.0" stroke-linecap="round" stroke-linejoin="round"/>
    <path d="M 122.78074645996094 121.32032775878906 C 212.07318115234375 121.71945190429688 133.74781799316406 116.2511215209961 155.308837890625 113.99266815185547" stroke-width="2" fill="none" stroke="rgb(0, 0, 0)" stroke-opacity="1.0" stroke-linecap="round" stroke-linejoin="round"/>
    <path d="M 109.8564682006836 69.06878662109375 C 151.09835815429688 113.15182495117188 142.8636474609375 53.59444808959961 173.81362915039062 88.44270324707031" stroke-width="2" fill="none" stroke="rgb(0, 0, 0)" stroke-opacity="1.0" stroke-linecap="round" stroke-linejoin="round"/>
    <path d="M 116.07962799072266 104.22040557861328 C 157.47605895996094 100.5364761352539 60.27116394042969 112.51029205322266 145.2139892578125 146.77117919921875" stroke-width="2" fill="none" stroke="rgb(0, 0, 0)" stroke-opacity="1.0" stroke-linecap="round" stroke-linejoin="round"/>
    <path d="M 73.42288970947266 121.75501251220703 C 87.39486694335938 129.97586059570312 27.47804069519043 128.39291381835938 126.43159484863281 144.87924194335938" stroke-width="2" fill="none" stroke="rgb(0, 0, 0)" stroke-opacity="1.0" stroke-linecap="round" stroke-linejoin="round"/>
    <path d="M 102.74022674560547 87.16232299804688 C 115.16887664794922 128.84156799316406 64.34195709228516 78.6399917602539 45.00674057006836 122.63778686523438" stroke-width="2" fill="none" stroke="rgb(0, 0, 0)" stroke-opacity="1.0" stroke-linecap="round" stroke-linejoin="round"/>
    <path d="M 154.3566436767578 117.85845947265625 C 128.48260498046875 135.05628967285156 197.06581115722656 127.04456329345703 154.5852508544922 135.0601806640625" stroke-width="2" fill="none" stroke="rgb(0, 0, 0)" stroke-opacity="1.0" stroke-linecap="round" stroke-linejoin="round"/>
    <path d="M 128.91329956054688 151.10520935058594 C 221.60105895996094 163.6708526611328 150.09930419921875 113.96240997314453 173.5059814453125 108.02742004394531" stroke-width="2" fill="none" stroke="rgb(0, 0, 0)" stroke-opacity="1.0" stroke-linecap="round" stroke-linejoin="round"/>
    <path d="M 178.46034240722656 108.19049835205078 C 211.9878387451172 9.60418701171875 160.99583435058594 109.43894958496094 170.92999267578125 79.21867370605469" stroke-width="2" fill="none" stroke="rgb(0, 0, 0)" stroke-opacity="1.0" stroke-linecap="round" stroke-linejoin="round"/>
    <path d="M 121.93558502197266 111.6949462890625 C 99.37442016601562 64.82767486572266 96.15179443359375 71.69811248779297 96.26607513427734 91.41751098632812" stroke-width="2" fill="none" stroke="rgb(0, 0, 0)" stroke-opacity="1.0" stroke-linecap="round" stroke-linejoin="round"/>
    <path d="M 113.08615112304688 147.07656860351562 C 4.61200475692749 136.89173889160156 86.97132873535156 144.41738891601562 83.51227569580078 145.10536193847656" stroke-width="2" fill="none" stroke="rgb(0, 0, 0)" stroke-opacity="1.0" stroke-linecap="round" stroke-linejoin="round"/>
    <path d="M 74.21144104003906 133.6260223388672 C 45.8867073059082 113.15267944335938 157.59326171875 192.47540283203125 177.35794067382812 122.88754272460938" stroke-width="2" fill="none" stroke="rgb(0, 0, 0)" stroke-opacity="1.0" stroke-linecap="round" stroke-linejoin="round"/>
    <path d="M 114.84954833984375 138.7779998779297 C 153.95230102539062 113.40508270263672 75.72699737548828 116.77420806884766 160.54957580566406 118.49501037597656" stroke-width="2" fill="none" stroke="rgb(0, 0, 0)" stroke-opacity="1.0" stroke-linecap="round" stroke-linejoin="round"/>
    <path d="M 153.2199249267578 112.02704620361328 C 92.58321380615234 141.2756805419922 149.5072479248047 120.36223602294922 113.27159118652344 103.27173614501953" stroke-width="2" fill="none" stroke="rgb(0, 0, 0)" stroke-opacity="1.0" stroke-linecap="round" stroke-linejoin="round"/>
  </g>
</svg>
