<?xml version="1.0" ?>
<svg xmlns="http://www.w3.org/2000/svg" version="1.1" width="224" height="224">
  <defs/>
  <g>
    <path d="M 69.98536682128906 124.22169494628906 C 17.583698272705078 135.6791229248047 68.4966049194336 65.80331420898438 106.52378845214844 125.452392578125" stroke-width="2" fill="none" stroke="rgb(0, 0, 0)" stroke-opacity="1.0" stroke-linecap="round" stroke-linejoin="round"/>
    <path d="M 145.877197265625 137.21990966796875 C 204.9602508544922 146.977783203125 46.497093200683594 143.5507354736328 56.654815673828125 123.33968353271484" stroke-width="2" fill="none" stroke="rgb(0, 0, 0)" stroke-opacity="1.0" stroke-linecap="round" stroke-linejoin="round"/>
    <path d="M 71.08174896240234 126.89051055908203 C 15.352688789367676 109.47998809814453 77.37873840332031 170.78726196289062 146.7386474609375 147.4145050048828" stroke-width="2" fill="none" stroke="rgb(0, 0, 0)" stroke-opacity="1.0" stroke-linecap="round" stroke-linejoin="round"/>
    <path d="M 163.32717895507812 111.47274780273438 C 166.85247802734375 121.31719207763672 173.87574768066406 76.4292984008789 172.62449645996094 131.98410034179688" stroke-width="2" fill="none" stroke="rgb(0, 0, 0)" stroke-opacity="1.0" stroke-linecap="round" stroke-linejoin="round"/>
    <path d="M 97.65167999267578 77.08988189697266 C 109.22120666503906 119.6902084350586 163.99154663085938 59.637569427490234 165.88665771484375 112.82557678222656" stroke-width="2" fill="none" stroke="rgb(0, 0, 0)" stroke-opacity="1.0" stroke-linecap="round" stroke-linejoin="round"/>
    <path d="M 104.37645721435547 115.14112854003906 C 32.18388366699219 91.56897735595703 126.81140899658203 107.392822265625 82.03360748291016 99.57782745361328" stroke-width="2" fill="none" stroke="rgb(0, 0, 0)" stroke-opacity="1.0" stroke-linecap="round" stroke-linejoin="round"/>
    <path d="M 134.94349670410156 127.74634552001953 C 83.8707504272461 87.93894958496094 145.37493896484375 84.75315856933594 114.48007202148438 114.81640625" stroke-width="2" fill="none" stroke="rgb(0, 0, 0)" stroke-opacity="1.0" stroke-linecap="round" stroke-linejoin="round"/>
    <path d="M 96.95098876953125 155.5767364501953 C 109.42073059082031 148.93251037597656 -3.5302109718322754 163.07008361816406 63.27560806274414 105.09817504882812" stroke-width="2" fill="none" stroke="rgb(0, 0, 0)" stroke-opacity="1.0" stroke-linecap="round" stroke-linejoin="round"/>
    <path d="M 172.88388061523438 97.42443084716797 C 153.25694274902344 101.88011932373047 208.88002014160156 121.2703628540039 131.2679443359375 120.09135437011719" stroke-width="2" fill="none" stroke="rgb(0, 0, 0)" stroke-opacity="1.0" stroke-linecap="round" stroke-linejoin="round"/>
    <path d="M 119.9859390258789 118.7270278930664 C 195.2016143798828 111.03250122070312 96.80985260009766 107.8470230102539 174.8566131591797 124.88239288330078" stroke-width="2" fill="none" stroke="rgb(0, 0, 0)" stroke-opacity="1.0" stroke-linecap="round" stroke-linejoin="round"/>
    <path d="M 185.49020385742188 64.29151153564453 C 168.2599639892578 60.18716049194336 165.00698852539062 99.1731948852539 142.9539031982422 86.86758422851562" stroke-width="2" fill="none" stroke="rgb(0, 0, 0)" stroke-opacity="1.0" stroke-linecap="round" stroke-linejoin="round"/>
    <path d="M 178.89401245117188 143.8181610107422 C 171.42588806152344 169.605712890625 50.94540023803711 121.66155242919922 97.18553161621094 132.20709228515625" stroke-width="2" fill="none" stroke="rgb(0, 0, 0)" stroke-opacity="1.0" stroke-linecap="round" stroke-linejoin="round"/>
    <path d="M 148.47171020507812 135.23147583007812 C 58.71359634399414 126.8412857055664 214.77261352539062 146.5177764892578 158.20985412597656 130.5142364501953" stroke-width="2" fill="none" stroke="rgb(0, 0, 0)" stroke-opacity="1.0" stroke-linecap="round" stroke-linejoin="round"/>
    <path d="M 135.4751434326172 113.7263412475586 C 167.42169189453125 127.13004302978516 125.0958251953125 95.36547088623047 145.467041015625 121.53878784179688" stroke-width="2" fill="none" stroke="rgb(0, 0, 0)" stroke-opacity="1.0" stroke-linecap="round" stroke-linejoin="round"/>
    <path d="M 160.40773010253906 101.1600112915039 C 125.46102142333984 90.2566146850586 176.31076049804688 126.44466400146484 181.48861694335938 70.71478271484375" stroke-width="2" fill="none" stroke="rgb(0, 0, 0)" stroke-opacity="1.0" stroke-linecap="round" stroke-linejoin="round"/>
    <path d="M 139.09181213378906 117.56428527832031 C 102.54963684082031 131.1298370361328 167.4279022216797 137.67031860351562 129.4159698486328 125.3509750366211" stroke-width="2" fill="none" stroke="rgb(0, 0, 0)" stroke-opacity="1.0" stroke-linecap="round" stroke-linejoin="round"/>
  </g>
</svg>
