<?xml version="1.0" ?>
<svg xmlns="http://www.w3.org/2000/svg" version="1.1" width="224" height="224">
  <defs/>
  <g>
    <path d="M 60.68613815307617 156.01846313476562 C 4.230106830596924 139.2576904296875 85.87307739257812 69.0425033569336 104.70218658447266 125.01423645019531" stroke-width="2" fill="none" stroke="rgb(0, 0, 0)" stroke-opacity="1.0" stroke-linecap="round" stroke-linejoin="round"/>
    <path d="M 150.79185485839844 134.6023712158203 C 197.9620361328125 145.58177185058594 64.09290313720703 130.07113647460938 66.86439514160156 132.78660583496094" stroke-width="2" fill="none" stroke="rgb(0, 0, 0)" stroke-opacity="1.0" stroke-linecap="round" stroke-linejoin="round"/>
    <path d="M 58.99913024902344 139.54977416992188 C 10.723694801330566 122.11267852783203 79.82391357421875 153.34219360351562 135.8959503173828 150.8491973876953" stroke-width="2" fill="none" stroke="rgb(0, 0, 0)" stroke-opacity="1.0" stroke-linecap="round" stroke-linejoin="round"/>
    <path d="M 159.93283081054688 105.5666732788086 C 181.5246124267578 117.8264389038086 171.76014709472656 71.61492156982422 169.85011291503906 129.51058959960938" stroke-width="2" fill="none" stroke="rgb(0, 0, 0)" stroke-opacity="1.0" stroke-linecap="round" stroke-linejoin="round"/>
    <path d="M 108.41923522949219 72.8802261352539 C 115.66584014892578 113.29676818847656 157.8516845703125 62.08137130737305 150.1723175048828 104.31059265136719" stroke-width="2" fill="none" stroke="rgb(0, 0, 0)" stroke-opacity="1.0" stroke-linecap="round" stroke-linejoin="round"/>
    <path d="M 99.67105865478516 140.1906280517578 C 11.943323135375977 110.09379577636719 109.19889831542969 125.61456298828125 58.413368225097656 121.32596588134766" stroke-width="2" fill="none" stroke="rgb(0, 0, 0)" stroke-opacity="1.0" stroke-linecap="round" stroke-linejoin="round"/>
    <path d="M 135.75245666503906 125.30374908447266 C 83.77973175048828 93.61283874511719 149.4965362548828 74.9096908569336 102.19770050048828 113.52372741699219" stroke-width="2" fill="none" stroke="rgb(0, 0, 0)" stroke-opacity="1.0" stroke-linecap="round" stroke-linejoin="round"/>
    <path d="M 122.80650329589844 157.0447540283203 C 113.93527221679688 157.27218627929688 3.9143528938293457 157.0968017578125 62.389495849609375 100.22137451171875" stroke-width="2" fill="none" stroke="rgb(0, 0, 0)" stroke-opacity="1.0" stroke-linecap="round" stroke-linejoin="round"/>
    <path d="M 174.2237548828125 91.79345703125 C 131.74517822265625 98.38442993164062 195.28904724121094 118.73648834228516 150.78782653808594 132.4551544189453" stroke-width="2" fill="none" stroke="rgb(0, 0, 0)" stroke-opacity="1.0" stroke-linecap="round" stroke-linejoin="round"/>
    <path d="M 116.20133209228516 117.43717956542969 C 213.9346160888672 107.63911437988281 99.81993865966797 116.71939849853516 168.9154052734375 126.84069061279297" stroke-width="2" fill="none" stroke="rgb(0, 0, 0)" stroke-opacity="1.0" stroke-linecap="round" stroke-linejoin="round"/>
    <path d="M 187.7892608642578 63.975074768066406 C 173.71275329589844 51.30192947387695 166.166748046875 97.1029281616211 138.8510284423828 87.30374145507812" stroke-width="2" fill="none" stroke="rgb(0, 0, 0)" stroke-opacity="1.0" stroke-linecap="round" stroke-linejoin="round"/>
    <path d="M 174.76885986328125 141.86404418945312 C 181.88644409179688 162.78073120117188 55.40869140625 112.09442138671875 106.26148223876953 120.03524780273438" stroke-width="2" fill="none" stroke="rgb(0, 0, 0)" stroke-opacity="1.0" stroke-linecap="round" stroke-linejoin="round"/>
    <path d="M 139.31692504882812 145.37806701660156 C 58.96420669555664 146.7318115234375 225.19639587402344 170.11151123046875 165.91847229003906 134.56126403808594" stroke-width="2" fill="none" stroke="rgb(0, 0, 0)" stroke-opacity="1.0" stroke-linecap="round" stroke-linejoin="round"/>
    <path d="M 129.3981475830078 117.68502807617188 C 164.70965576171875 116.0716552734375 95.06729888916016 97.71380615234375 151.29733276367188 125.53809356689453" stroke-width="2" fill="none" stroke="rgb(0, 0, 0)" stroke-opacity="1.0" stroke-linecap="round" stroke-linejoin="round"/>
    <path d="M 158.55853271484375 95.83033752441406 C 130.70266723632812 83.96257781982422 190.3421630859375 128.06468200683594 184.536865234375 63.97929382324219" stroke-width="2" fill="none" stroke="rgb(0, 0, 0)" stroke-opacity="1.0" stroke-linecap="round" stroke-linejoin="round"/>
    <path d="M 159.94680786132812 120.29362487792969 C 89.28401947021484 105.3709716796875 205.78970336914062 109.51799011230469 134.6032257080078 122.73463439941406" stroke-width="2" fill="none" stroke="rgb(0, 0, 0)" stroke-opacity="1.0" stroke-linecap="round" stroke-linejoin="round"/>
  </g>
</svg>
