<?xml version="1.0" ?>
<svg xmlns="http://www.w3.org/2000/svg" version="1.1" width="224" height="224">
  <defs/>
  <g>
    <path d="M 128.86790466308594 145.6306915283203 C 71.08692169189453 133.2471160888672 88.22801208496094 127.37108612060547 101.49852752685547 136.3238067626953" stroke-width="2" fill="none" stroke="rgb(0, 0, 0)" stroke-opacity="1.0" stroke-linecap="round" stroke-linejoin="round"/>
    <path d="M 84.95806121826172 117.35218048095703 C 150.9384765625 105.34435272216797 78.66372680664062 140.68678283691406 157.6863250732422 144.6903533935547" stroke-width="2" fill="none" stroke="rgb(0, 0, 0)" stroke-opacity="1.0" stroke-linecap="round" stroke-linejoin="round"/>
    <path d="M 57.1710090637207 100.71052551269531 C -36.67143630981445 178.8916473388672 258.1364440917969 146.97305297851562 130.11207580566406 144.21939086914062" stroke-width="2" fill="none" stroke="rgb(0, 0, 0)" stroke-opacity="1.0" stroke-linecap="round" stroke-linejoin="round"/>
    <path d="M 156.86595153808594 116.88899993896484 C 180.72047424316406 119.5311050415039 141.82940673828125 101.73439025878906 111.4132080078125 98.9454574584961" stroke-width="2" fill="none" stroke="rgb(0, 0, 0)" stroke-opacity="1.0" stroke-linecap="round" stroke-linejoin="round"/>
    <path d="M 97.92731475830078 72.05970764160156 C 131.86251831054688 101.15106201171875 121.92073059082031 71.27661895751953 151.8937530517578 90.00324249267578" stroke-width="2" fill="none" stroke="rgb(0, 0, 0)" stroke-opacity="1.0" stroke-linecap="round" stroke-linejoin="round"/>
    <path d="M 131.31951904296875 128.4066162109375 C 174.56155395507812 130.92945861816406 98.9952392578125 114.10405731201172 144.2935791015625 128.7210693359375" stroke-width="2" fill="none" stroke="rgb(0, 0, 0)" stroke-opacity="1.0" stroke-linecap="round" stroke-linejoin="round"/>
    <path d="M 130.84507751464844 116.54596710205078 C 169.4432373046875 109.12114715576172 46.70354080200195 152.54791259765625 138.1479949951172 150.36134338378906" stroke-width="2" fill="none" stroke="rgb(0, 0, 0)" stroke-opacity="1.0" stroke-linecap="round" stroke-linejoin="round"/>
    <path d="M 104.05876922607422 85.17864227294922 C 118.99964904785156 117.33623504638672 36.7113151550293 75.1539535522461 48.44801712036133 122.05753326416016" stroke-width="2" fill="none" stroke="rgb(0, 0, 0)" stroke-opacity="1.0" stroke-linecap="round" stroke-linejoin="round"/>
    <path d="M 127.31104278564453 120.60514068603516 C 186.00857543945312 119.46184539794922 144.5317840576172 125.1122817993164 160.404541015625 117.25491333007812" stroke-width="2" fill="none" stroke="rgb(0, 0, 0)" stroke-opacity="1.0" stroke-linecap="round" stroke-linejoin="round"/>
    <path d="M 132.75184631347656 138.65994262695312 C 207.88856506347656 141.57688903808594 137.41961669921875 87.98240661621094 151.13446044921875 99.43565368652344" stroke-width="2" fill="none" stroke="rgb(0, 0, 0)" stroke-opacity="1.0" stroke-linecap="round" stroke-linejoin="round"/>
    <path d="M 168.28587341308594 98.63037872314453 C 208.052734375 12.806589126586914 161.11439514160156 99.42068481445312 150.10079956054688 84.98148345947266" stroke-width="2" fill="none" stroke="rgb(0, 0, 0)" stroke-opacity="1.0" stroke-linecap="round" stroke-linejoin="round"/>
    <path d="M 114.9664535522461 87.93937683105469 C 116.98029327392578 69.5849838256836 84.63121032714844 66.47209167480469 122.03040313720703 106.12992095947266" stroke-width="2" fill="none" stroke="rgb(0, 0, 0)" stroke-opacity="1.0" stroke-linecap="round" stroke-linejoin="round"/>
    <path d="M 63.753028869628906 154.99075317382812 C -7.757562160491943 130.3202362060547 87.42874908447266 162.8445281982422 102.88764953613281 152.60130310058594" stroke-width="2" fill="none" stroke="rgb(0, 0, 0)" stroke-opacity="1.0" stroke-linecap="round" stroke-linejoin="round"/>
    <path d="M 88.61971282958984 147.19398498535156 C 48.714622497558594 133.5480194091797 198.39202880859375 178.68069458007812 165.76927185058594 129.15895080566406" stroke-width="2" fill="none" stroke="rgb(0, 0, 0)" stroke-opacity="1.0" stroke-linecap="round" stroke-linejoin="round"/>
    <path d="M 146.49740600585938 116.31967163085938 C 162.32785034179688 121.5115737915039 129.54080200195312 122.61672973632812 174.1196746826172 90.79862976074219" stroke-width="2" fill="none" stroke="rgb(0, 0, 0)" stroke-opacity="1.0" stroke-linecap="round" stroke-linejoin="round"/>
    <path d="M 122.9892807006836 110.81368255615234 C 109.19628143310547 109.34910583496094 180.82106018066406 73.04566192626953 169.93795776367188 119.6722640991211" stroke-width="2" fill="none" stroke="rgb(0, 0, 0)" stroke-opacity="1.0" stroke-linecap="round" stroke-linejoin="round"/>
  </g>
</svg>
