<?xml version="1.0" ?>
<svg xmlns="http://www.w3.org/2000/svg" version="1.1" width="224" height="224">
  <defs/>
  <g>
    <path d="M 167.00230407714844 144.9498291015625 C 58.38511276245117 155.37783813476562 70.41639709472656 139.96417236328125 73.89187622070312 146.16543579101562" stroke-width="2" fill="none" stroke="rgb(0, 0, 0)" stroke-opacity="1.0" stroke-linecap="round" stroke-linejoin="round"/>
    <path d="M 87.43766021728516 110.2919692993164 C 122.55847930908203 104.70305633544922 68.16059875488281 139.4999237060547 159.98924255371094 119.78714752197266" stroke-width="2" fill="none" stroke="rgb(0, 0, 0)" stroke-opacity="1.0" stroke-linecap="round" stroke-linejoin="round"/>
    <path d="M 61.256290435791016 103.40130615234375 C -23.309162139892578 184.44534301757812 252.82760620117188 141.39341735839844 139.3844451904297 155.89895629882812" stroke-width="2" fill="none" stroke="rgb(0, 0, 0)" stroke-opacity="1.0" stroke-linecap="round" stroke-linejoin="round"/>
    <path d="M 150.68389892578125 115.34357452392578 C 189.91896057128906 114.27957153320312 147.03146362304688 100.33523559570312 131.20106506347656 101.87419891357422" stroke-width="2" fill="none" stroke="rgb(0, 0, 0)" stroke-opacity="1.0" stroke-linecap="round" stroke-linejoin="round"/>
    <path d="M 99.74524688720703 71.6458511352539 C 136.53182983398438 106.26121520996094 121.81935119628906 77.47110748291016 151.50367736816406 90.39385223388672" stroke-width="2" fill="none" stroke="rgb(0, 0, 0)" stroke-opacity="1.0" stroke-linecap="round" stroke-linejoin="round"/>
    <path d="M 143.539794921875 127.61659240722656 C 168.59783935546875 128.62240600585938 89.62803649902344 111.41949462890625 138.1045379638672 137.01856994628906" stroke-width="2" fill="none" stroke="rgb(0, 0, 0)" stroke-opacity="1.0" stroke-linecap="round" stroke-linejoin="round"/>
    <path d="M 130.05792236328125 127.45948028564453 C 158.42630004882812 90.96568298339844 65.82546997070312 125.25713348388672 126.87775421142578 148.35415649414062" stroke-width="2" fill="none" stroke="rgb(0, 0, 0)" stroke-opacity="1.0" stroke-linecap="round" stroke-linejoin="round"/>
    <path d="M 112.14905548095703 80.29830169677734 C 123.65876770019531 117.4117202758789 53.68275451660156 78.36563873291016 53.65321350097656 119.76542663574219" stroke-width="2" fill="none" stroke="rgb(0, 0, 0)" stroke-opacity="1.0" stroke-linecap="round" stroke-linejoin="round"/>
    <path d="M 157.15127563476562 126.06202697753906 C 189.4891357421875 110.54147338867188 137.65518188476562 129.3065948486328 162.57040405273438 120.33758544921875" stroke-width="2" fill="none" stroke="rgb(0, 0, 0)" stroke-opacity="1.0" stroke-linecap="round" stroke-linejoin="round"/>
    <path d="M 121.2740707397461 133.53677368164062 C 210.9816131591797 140.2744140625 126.36808776855469 101.30247497558594 139.2921600341797 103.0113525390625" stroke-width="2" fill="none" stroke="rgb(0, 0, 0)" stroke-opacity="1.0" stroke-linecap="round" stroke-linejoin="round"/>
    <path d="M 170.58596801757812 105.5692138671875 C 203.23721313476562 22.43752098083496 164.4058837890625 103.9188461303711 148.08155822753906 94.27018737792969" stroke-width="2" fill="none" stroke="rgb(0, 0, 0)" stroke-opacity="1.0" stroke-linecap="round" stroke-linejoin="round"/>
    <path d="M 101.86707305908203 83.42210388183594 C 107.00354766845703 68.6254653930664 91.1087417602539 78.2022476196289 111.65333557128906 109.26715850830078" stroke-width="2" fill="none" stroke="rgb(0, 0, 0)" stroke-opacity="1.0" stroke-linecap="round" stroke-linejoin="round"/>
    <path d="M 95.73287963867188 139.54183959960938 C 15.561128616333008 123.0957260131836 96.41734313964844 147.13690185546875 91.4337387084961 149.1361846923828" stroke-width="2" fill="none" stroke="rgb(0, 0, 0)" stroke-opacity="1.0" stroke-linecap="round" stroke-linejoin="round"/>
    <path d="M 91.243896484375 137.5513458251953 C 63.44269561767578 124.80111694335938 200.00233459472656 182.17771911621094 171.2057342529297 128.19149780273438" stroke-width="2" fill="none" stroke="rgb(0, 0, 0)" stroke-opacity="1.0" stroke-linecap="round" stroke-linejoin="round"/>
    <path d="M 155.74148559570312 103.38902282714844 C 189.42872619628906 124.01292419433594 122.09778594970703 119.79197692871094 178.00245666503906 98.54309844970703" stroke-width="2" fill="none" stroke="rgb(0, 0, 0)" stroke-opacity="1.0" stroke-linecap="round" stroke-linejoin="round"/>
    <path d="M 134.47607421875 127.94844055175781 C 115.4693832397461 109.3531265258789 184.4163055419922 91.17790985107422 157.4857940673828 128.77122497558594" stroke-width="2" fill="none" stroke="rgb(0, 0, 0)" stroke-opacity="1.0" stroke-linecap="round" stroke-linejoin="round"/>
  </g>
</svg>
