<?xml version="1.0" ?>
<svg xmlns="http://www.w3.org/2000/svg" version="1.1" width="224" height="224">
  <defs/>
  <g>
    <path d="M 64.63511657714844 148.39944458007812 C -3.9007227420806885 129.07066345214844 105.52658081054688 59.06849670410156 120.33529663085938 114.78905487060547" stroke-width="2" fill="none" stroke="rgb(0, 0, 0)" stroke-opacity="1.0" stroke-linecap="round" stroke-linejoin="round"/>
    <path d="M 161.37332153320312 147.5477752685547 C 184.0641326904297 154.3016357421875 77.4521255493164 146.7637176513672 130.50674438476562 119.2773208618164" stroke-width="2" fill="none" stroke="rgb(0, 0, 0)" stroke-opacity="1.0" stroke-linecap="round" stroke-linejoin="round"/>
    <path d="M 90.65678405761719 138.40206909179688 C 34.5577507019043 132.45028686523438 220.15586853027344 202.56460571289062 163.6838836669922 104.68675231933594" stroke-width="2" fill="none" stroke="rgb(0, 0, 0)" stroke-opacity="1.0" stroke-linecap="round" stroke-linejoin="round"/>
    <path d="M 159.06015014648438 101.42941284179688 C 192.36361694335938 108.481689453125 137.84323120117188 100.06616973876953 168.5748748779297 104.38943481445312" stroke-width="2" fill="none" stroke="rgb(0, 0, 0)" stroke-opacity="1.0" stroke-linecap="round" stroke-linejoin="round"/>
    <path d="M 104.19595336914062 67.12277221679688 C 117.42107391357422 86.72937774658203 112.06700897216797 62.33344650268555 136.7957305908203 78.21941375732422" stroke-width="2" fill="none" stroke="rgb(0, 0, 0)" stroke-opacity="1.0" stroke-linecap="round" stroke-linejoin="round"/>
    <path d="M 108.279541015625 93.01068115234375 C 93.19918823242188 97.80950164794922 108.67720794677734 110.40520477294922 110.82038116455078 76.1015853881836" stroke-width="2" fill="none" stroke="rgb(0, 0, 0)" stroke-opacity="1.0" stroke-linecap="round" stroke-linejoin="round"/>
    <path d="M 136.64527893066406 128.7043914794922 C 111.99337005615234 102.5716552734375 185.4406280517578 115.05670166015625 97.7369613647461 105.0829086303711" stroke-width="2" fill="none" stroke="rgb(0, 0, 0)" stroke-opacity="1.0" stroke-linecap="round" stroke-linejoin="round"/>
    <path d="M 90.6127700805664 154.25979614257812 C 177.195556640625 164.82540893554688 17.017871856689453 139.60092163085938 57.633277893066406 106.97904205322266" stroke-width="2" fill="none" stroke="rgb(0, 0, 0)" stroke-opacity="1.0" stroke-linecap="round" stroke-linejoin="round"/>
    <path d="M 159.4004364013672 122.66665649414062 C 122.54757690429688 120.79385375976562 180.9341583251953 114.17443084716797 144.45594787597656 119.6792221069336" stroke-width="2" fill="none" stroke="rgb(0, 0, 0)" stroke-opacity="1.0" stroke-linecap="round" stroke-linejoin="round"/>
    <path d="M 129.6194305419922 115.378173828125 C 199.82192993164062 114.86170196533203 109.851806640625 123.85423278808594 159.61691284179688 134.64015197753906" stroke-width="2" fill="none" stroke="rgb(0, 0, 0)" stroke-opacity="1.0" stroke-linecap="round" stroke-linejoin="round"/>
    <path d="M 175.01853942871094 86.2576904296875 C 203.4949188232422 26.053497314453125 166.7066650390625 98.68132781982422 138.4356231689453 83.73983001708984" stroke-width="2" fill="none" stroke="rgb(0, 0, 0)" stroke-opacity="1.0" stroke-linecap="round" stroke-linejoin="round"/>
    <path d="M 135.032470703125 135.51185607910156 C 204.46461486816406 140.5890655517578 80.73193359375 113.68550109863281 127.22064971923828 113.18730926513672" stroke-width="2" fill="none" stroke="rgb(0, 0, 0)" stroke-opacity="1.0" stroke-linecap="round" stroke-linejoin="round"/>
    <path d="M 98.6948013305664 158.06912231445312 C -52.009334564208984 123.93099975585938 168.93209838867188 157.13136291503906 165.34060668945312 142.18185424804688" stroke-width="2" fill="none" stroke="rgb(0, 0, 0)" stroke-opacity="1.0" stroke-linecap="round" stroke-linejoin="round"/>
    <path d="M 156.2091522216797 136.62173461914062 C 120.7805404663086 134.3231964111328 169.254150390625 144.46730041503906 168.0538330078125 108.1188735961914" stroke-width="2" fill="none" stroke="rgb(0, 0, 0)" stroke-opacity="1.0" stroke-linecap="round" stroke-linejoin="round"/>
    <path d="M 155.1865234375 127.210205078125 C 117.38945770263672 117.89344787597656 189.7161865234375 143.53280639648438 188.30950927734375 71.1065902709961" stroke-width="2" fill="none" stroke="rgb(0, 0, 0)" stroke-opacity="1.0" stroke-linecap="round" stroke-linejoin="round"/>
    <path d="M 176.12857055664062 143.8944854736328 C 159.11431884765625 143.93336486816406 194.48631286621094 71.35907745361328 158.3910369873047 83.52699279785156" stroke-width="2" fill="none" stroke="rgb(0, 0, 0)" stroke-opacity="1.0" stroke-linecap="round" stroke-linejoin="round"/>
  </g>
</svg>
