<?xml version="1.0" ?>
<svg xmlns="http://www.w3.org/2000/svg" version="1.1" width="224" height="224">
  <defs/>
  <g>
    <path d="M 105.40985107421875 134.65455627441406 C 45.951759338378906 135.4992218017578 31.5274658203125 90.15612030029297 114.02561950683594 94.66187286376953" stroke-width="2" fill="none" stroke="rgb(0, 0, 0)" stroke-opacity="1.0" stroke-linecap="round" stroke-linejoin="round"/>
    <path d="M 111.98023986816406 153.16383361816406 C 127.1266860961914 146.04559326171875 78.5848617553711 156.6675262451172 71.55607604980469 139.01406860351562" stroke-width="2" fill="none" stroke="rgb(0, 0, 0)" stroke-opacity="1.0" stroke-linecap="round" stroke-linejoin="round"/>
    <path d="M 142.4586181640625 146.13934326171875 C 39.20783615112305 130.85684204101562 114.95944213867188 135.04885864257812 165.7524871826172 135.01873779296875" stroke-width="2" fill="none" stroke="rgb(0, 0, 0)" stroke-opacity="1.0" stroke-linecap="round" stroke-linejoin="round"/>
    <path d="M 170.4260711669922 118.70721435546875 C 149.03074645996094 123.9363021850586 195.2606201171875 113.38395690917969 156.38648986816406 131.1356201171875" stroke-width="2" fill="none" stroke="rgb(0, 0, 0)" stroke-opacity="1.0" stroke-linecap="round" stroke-linejoin="round"/>
    <path d="M 118.4061279296875 101.75871276855469 C 101.74681091308594 120.29220581054688 148.67686462402344 76.28059387207031 162.80967712402344 106.63934326171875" stroke-width="2" fill="none" stroke="rgb(0, 0, 0)" stroke-opacity="1.0" stroke-linecap="round" stroke-linejoin="round"/>
    <path d="M 105.42523956298828 108.71989440917969 C 111.33833312988281 90.4255599975586 124.76810455322266 112.85790252685547 102.88015747070312 87.78681182861328" stroke-width="2" fill="none" stroke="rgb(0, 0, 0)" stroke-opacity="1.0" stroke-linecap="round" stroke-linejoin="round"/>
    <path d="M 100.91796112060547 74.1072769165039 C 110.77238464355469 97.19452667236328 151.88609313964844 102.4548110961914 121.52510070800781 104.7214126586914" stroke-width="2" fill="none" stroke="rgb(0, 0, 0)" stroke-opacity="1.0" stroke-linecap="round" stroke-linejoin="round"/>
    <path d="M 85.67607116699219 155.70993041992188 C 101.42565155029297 152.6496124267578 -7.970798492431641 161.613037109375 67.84934997558594 98.58161163330078" stroke-width="2" fill="none" stroke="rgb(0, 0, 0)" stroke-opacity="1.0" stroke-linecap="round" stroke-linejoin="round"/>
    <path d="M 119.81816101074219 115.40502166748047 C 102.18500518798828 139.8789825439453 168.3905792236328 131.57083129882812 136.1527557373047 127.1255874633789" stroke-width="2" fill="none" stroke="rgb(0, 0, 0)" stroke-opacity="1.0" stroke-linecap="round" stroke-linejoin="round"/>
    <path d="M 134.0982666015625 115.48469543457031 C 190.73036193847656 110.84894561767578 130.84307861328125 128.92953491210938 149.06027221679688 98.7465591430664" stroke-width="2" fill="none" stroke="rgb(0, 0, 0)" stroke-opacity="1.0" stroke-linecap="round" stroke-linejoin="round"/>
    <path d="M 183.18124389648438 62.48591613769531 C 162.29595947265625 74.73571014404297 175.23036193847656 95.8172836303711 146.9689178466797 91.4853744506836" stroke-width="2" fill="none" stroke="rgb(0, 0, 0)" stroke-opacity="1.0" stroke-linecap="round" stroke-linejoin="round"/>
    <path d="M 183.02813720703125 144.9833526611328 C 180.5813751220703 150.3286895751953 145.10142517089844 154.33441162109375 114.43169403076172 150.48484802246094" stroke-width="2" fill="none" stroke="rgb(0, 0, 0)" stroke-opacity="1.0" stroke-linecap="round" stroke-linejoin="round"/>
    <path d="M 59.51482009887695 143.6773681640625 C 66.63297271728516 151.50733947753906 157.94671630859375 149.28160095214844 128.42169189453125 149.88909912109375" stroke-width="2" fill="none" stroke="rgb(0, 0, 0)" stroke-opacity="1.0" stroke-linecap="round" stroke-linejoin="round"/>
    <path d="M 110.66007232666016 100.27725982666016 C 104.14632415771484 77.82012939453125 91.00691986083984 64.25746154785156 117.69074249267578 117.81452941894531" stroke-width="2" fill="none" stroke="rgb(0, 0, 0)" stroke-opacity="1.0" stroke-linecap="round" stroke-linejoin="round"/>
    <path d="M 166.15943908691406 129.03834533691406 C 165.91256713867188 82.82447052001953 174.8984375 137.47679138183594 182.1842041015625 67.04864501953125" stroke-width="2" fill="none" stroke="rgb(0, 0, 0)" stroke-opacity="1.0" stroke-linecap="round" stroke-linejoin="round"/>
    <path d="M 62.263023376464844 102.3867416381836 C 94.03736114501953 99.8587646484375 77.75753021240234 132.8815155029297 89.576171875 106.03729248046875" stroke-width="2" fill="none" stroke="rgb(0, 0, 0)" stroke-opacity="1.0" stroke-linecap="round" stroke-linejoin="round"/>
  </g>
</svg>
