<?xml version="1.0" ?>
<svg xmlns="http://www.w3.org/2000/svg" version="1.1" width="224" height="224">
  <defs/>
  <g>
    <path d="M 93.00482177734375 151.44387817382812 C 32.217411041259766 144.22618103027344 14.705309867858887 134.610595703125 65.53925323486328 149.732177734375" stroke-width="2" fill="none" stroke="rgb(0, 0, 0)" stroke-opacity="1.0" stroke-linecap="round" stroke-linejoin="round"/>
    <path d="M 89.3094482421875 110.56078338623047 C 127.6849136352539 101.23428344726562 78.20325469970703 142.76315307617188 138.81932067871094 139.5558624267578" stroke-width="2" fill="none" stroke="rgb(0, 0, 0)" stroke-opacity="1.0" stroke-linecap="round" stroke-linejoin="round"/>
    <path d="M 63.97952651977539 99.74932861328125 C -25.961069107055664 173.7632293701172 259.4571228027344 148.6844940185547 144.78265380859375 143.85401916503906" stroke-width="2" fill="none" stroke="rgb(0, 0, 0)" stroke-opacity="1.0" stroke-linecap="round" stroke-linejoin="round"/>
    <path d="M 128.75967407226562 126.57524871826172 C 193.89805603027344 139.7589874267578 130.0308074951172 137.32168579101562 173.5707244873047 123.05704498291016" stroke-width="2" fill="none" stroke="rgb(0, 0, 0)" stroke-opacity="1.0" stroke-linecap="round" stroke-linejoin="round"/>
    <path d="M 102.44896697998047 78.52918243408203 C 124.4010009765625 101.77948760986328 136.56216430664062 68.88777160644531 162.72056579589844 90.05699157714844" stroke-width="2" fill="none" stroke="rgb(0, 0, 0)" stroke-opacity="1.0" stroke-linecap="round" stroke-linejoin="round"/>
    <path d="M 122.44489288330078 118.33108520507812 C 162.11471557617188 112.68793487548828 126.17769622802734 110.0896987915039 150.02081298828125 126.77820587158203" stroke-width="2" fill="none" stroke="rgb(0, 0, 0)" stroke-opacity="1.0" stroke-linecap="round" stroke-linejoin="round"/>
    <path d="M 122.19131469726562 120.87870025634766 C 163.11709594726562 107.90276336669922 83.79735565185547 123.00515747070312 144.32907104492188 125.27649688720703" stroke-width="2" fill="none" stroke="rgb(0, 0, 0)" stroke-opacity="1.0" stroke-linecap="round" stroke-linejoin="round"/>
    <path d="M 101.38633728027344 69.14408874511719 C 118.219482421875 127.23222351074219 61.6890983581543 75.9411849975586 62.37105178833008 108.45728302001953" stroke-width="2" fill="none" stroke="rgb(0, 0, 0)" stroke-opacity="1.0" stroke-linecap="round" stroke-linejoin="round"/>
    <path d="M 142.48828125 110.2326431274414 C 189.87979125976562 121.59166717529297 119.00662231445312 130.41258239746094 150.46897888183594 113.64905548095703" stroke-width="2" fill="none" stroke="rgb(0, 0, 0)" stroke-opacity="1.0" stroke-linecap="round" stroke-linejoin="round"/>
    <path d="M 97.9056625366211 123.10882568359375 C 218.1874542236328 148.25714111328125 144.94857788085938 99.38172912597656 142.63235473632812 126.84283447265625" stroke-width="2" fill="none" stroke="rgb(0, 0, 0)" stroke-opacity="1.0" stroke-linecap="round" stroke-linejoin="round"/>
    <path d="M 163.7606658935547 123.62710571289062 C 206.39622497558594 -5.124460697174072 165.4397735595703 92.75822448730469 154.92105102539062 86.7510757446289" stroke-width="2" fill="none" stroke="rgb(0, 0, 0)" stroke-opacity="1.0" stroke-linecap="round" stroke-linejoin="round"/>
    <path d="M 117.28025817871094 90.75450134277344 C 132.9247283935547 106.14361572265625 113.92960357666016 104.71337127685547 126.12885284423828 90.43064880371094" stroke-width="2" fill="none" stroke="rgb(0, 0, 0)" stroke-opacity="1.0" stroke-linecap="round" stroke-linejoin="round"/>
    <path d="M 90.68241882324219 139.36032104492188 C -23.7152099609375 126.793212890625 91.49473571777344 161.75869750976562 156.39859008789062 147.06495666503906" stroke-width="2" fill="none" stroke="rgb(0, 0, 0)" stroke-opacity="1.0" stroke-linecap="round" stroke-linejoin="round"/>
    <path d="M 83.80750274658203 139.22064208984375 C 91.24868774414062 141.36460876464844 190.22140502929688 177.08322143554688 181.8432159423828 120.34494018554688" stroke-width="2" fill="none" stroke="rgb(0, 0, 0)" stroke-opacity="1.0" stroke-linecap="round" stroke-linejoin="round"/>
    <path d="M 164.7405242919922 94.47988891601562 C 202.4972686767578 57.8950080871582 166.85528564453125 143.64112854003906 170.65740966796875 96.056884765625" stroke-width="2" fill="none" stroke="rgb(0, 0, 0)" stroke-opacity="1.0" stroke-linecap="round" stroke-linejoin="round"/>
    <path d="M 114.7483139038086 108.96725463867188 C 116.32972717285156 132.2868194580078 184.19094848632812 92.72492218017578 137.37307739257812 127.85298156738281" stroke-width="2" fill="none" stroke="rgb(0, 0, 0)" stroke-opacity="1.0" stroke-linecap="round" stroke-linejoin="round"/>
  </g>
</svg>
