<?xml version="1.0" ?>
<svg xmlns="http://www.w3.org/2000/svg" version="1.1" width="224" height="224">
  <defs/>
  <g>
    <path d="M 76.82452392578125 149.18621826171875 C -7.497476577758789 136.70118713378906 98.0972900390625 52.57888412475586 115.80852508544922 116.76837158203125" stroke-width="2" fill="none" stroke="rgb(0, 0, 0)" stroke-opacity="1.0" stroke-linecap="round" stroke-linejoin="round"/>
    <path d="M 134.8280029296875 143.35533142089844 C 226.68360900878906 138.92742919921875 82.03189849853516 144.46705627441406 124.87432861328125 111.67703247070312" stroke-width="2" fill="none" stroke="rgb(0, 0, 0)" stroke-opacity="1.0" stroke-linecap="round" stroke-linejoin="round"/>
    <path d="M 136.88426208496094 143.44227600097656 C 43.77490234375 112.27609252929688 150.84608459472656 140.7236785888672 133.9992218017578 132.27256774902344" stroke-width="2" fill="none" stroke="rgb(0, 0, 0)" stroke-opacity="1.0" stroke-linecap="round" stroke-linejoin="round"/>
    <path d="M 119.71907806396484 96.55001831054688 C 124.2850112915039 108.61235809326172 83.30484008789062 104.70604705810547 156.16207885742188 122.29850769042969" stroke-width="2" fill="none" stroke="rgb(0, 0, 0)" stroke-opacity="1.0" stroke-linecap="round" stroke-linejoin="round"/>
    <path d="M 103.66643524169922 70.01835632324219 C 123.85612487792969 104.939453125 151.33119201660156 64.44203186035156 162.0954132080078 94.88932037353516" stroke-width="2" fill="none" stroke="rgb(0, 0, 0)" stroke-opacity="1.0" stroke-linecap="round" stroke-linejoin="round"/>
    <path d="M 96.87150573730469 100.35808563232422 C 28.642126083374023 92.51205444335938 122.03699493408203 108.67443084716797 57.90068054199219 109.68409729003906" stroke-width="2" fill="none" stroke="rgb(0, 0, 0)" stroke-opacity="1.0" stroke-linecap="round" stroke-linejoin="round"/>
    <path d="M 102.74325561523438 97.97130584716797 C 91.54476165771484 48.859527587890625 121.79067993164062 76.1772232055664 90.86385345458984 92.6391830444336" stroke-width="2" fill="none" stroke="rgb(0, 0, 0)" stroke-opacity="1.0" stroke-linecap="round" stroke-linejoin="round"/>
    <path d="M 102.81558990478516 149.20323181152344 C 115.2024154663086 159.13055419921875 -4.032444953918457 163.26783752441406 65.02090454101562 105.35485076904297" stroke-width="2" fill="none" stroke="rgb(0, 0, 0)" stroke-opacity="1.0" stroke-linecap="round" stroke-linejoin="round"/>
    <path d="M 145.91165161132812 102.93269348144531 C 109.59510040283203 104.00386047363281 183.4044647216797 104.42082214355469 162.07321166992188 128.19601440429688" stroke-width="2" fill="none" stroke="rgb(0, 0, 0)" stroke-opacity="1.0" stroke-linecap="round" stroke-linejoin="round"/>
    <path d="M 130.0333709716797 116.70957946777344 C 182.48480224609375 102.14832305908203 104.0545654296875 123.59188842773438 156.8371124267578 120.21063995361328" stroke-width="2" fill="none" stroke="rgb(0, 0, 0)" stroke-opacity="1.0" stroke-linecap="round" stroke-linejoin="round"/>
    <path d="M 185.92127990722656 59.63698959350586 C 171.5299530029297 61.3997688293457 165.60879516601562 100.3888168334961 149.026611328125 82.69966888427734" stroke-width="2" fill="none" stroke="rgb(0, 0, 0)" stroke-opacity="1.0" stroke-linecap="round" stroke-linejoin="round"/>
    <path d="M 167.85728454589844 128.85137939453125 C 145.9607391357422 160.3865509033203 41.53240203857422 104.00688934326172 43.162086486816406 131.9377899169922" stroke-width="2" fill="none" stroke="rgb(0, 0, 0)" stroke-opacity="1.0" stroke-linecap="round" stroke-linejoin="round"/>
    <path d="M 145.86746215820312 145.91510009765625 C -55.22193145751953 129.48435974121094 231.800048828125 182.2766876220703 169.45750427246094 132.77296447753906" stroke-width="2" fill="none" stroke="rgb(0, 0, 0)" stroke-opacity="1.0" stroke-linecap="round" stroke-linejoin="round"/>
    <path d="M 114.55455017089844 117.0828628540039 C 177.26156616210938 96.8238525390625 166.21389770507812 133.4337921142578 173.53517150878906 99.62832641601562" stroke-width="2" fill="none" stroke="rgb(0, 0, 0)" stroke-opacity="1.0" stroke-linecap="round" stroke-linejoin="round"/>
    <path d="M 160.58543395996094 111.68584442138672 C 145.4859161376953 85.60330963134766 179.76364135742188 139.4955291748047 184.39556884765625 68.73323822021484" stroke-width="2" fill="none" stroke="rgb(0, 0, 0)" stroke-opacity="1.0" stroke-linecap="round" stroke-linejoin="round"/>
    <path d="M 151.85714721679688 121.85267639160156 C 113.25968933105469 128.2659454345703 176.24635314941406 104.46473693847656 130.11517333984375 107.8034439086914" stroke-width="2" fill="none" stroke="rgb(0, 0, 0)" stroke-opacity="1.0" stroke-linecap="round" stroke-linejoin="round"/>
  </g>
</svg>
