<?xml version="1.0" ?>
<svg xmlns="http://www.w3.org/2000/svg" version="1.1" width="224" height="224">
  <defs/>
  <g>
    <path d="M 84.54039764404297 144.33750915527344 C 37.01025390625 136.08680725097656 41.915687561035156 90.98504638671875 115.03092193603516 100.43611145019531" stroke-width="2" fill="none" stroke="rgb(0, 0, 0)" stroke-opacity="1.0" stroke-linecap="round" stroke-linejoin="round"/>
    <path d="M 138.65658569335938 154.66455078125 C 140.2558135986328 156.14358520507812 76.68240356445312 161.6905975341797 63.35742950439453 141.6682586669922" stroke-width="2" fill="none" stroke="rgb(0, 0, 0)" stroke-opacity="1.0" stroke-linecap="round" stroke-linejoin="round"/>
    <path d="M 133.16893005371094 143.8289794921875 C 43.81414031982422 113.619140625 122.74393463134766 147.62757873535156 170.46603393554688 148.30812072753906" stroke-width="2" fill="none" stroke="rgb(0, 0, 0)" stroke-opacity="1.0" stroke-linecap="round" stroke-linejoin="round"/>
    <path d="M 156.2117156982422 106.99205780029297 C 116.91100311279297 121.9926528930664 186.3160400390625 110.05093383789062 154.40350341796875 120.29105377197266" stroke-width="2" fill="none" stroke="rgb(0, 0, 0)" stroke-opacity="1.0" stroke-linecap="round" stroke-linejoin="round"/>
    <path d="M 110.57386016845703 70.62335205078125 C 113.90741729736328 115.46768951416016 175.8451690673828 63.709171295166016 169.9729461669922 106.2480239868164" stroke-width="2" fill="none" stroke="rgb(0, 0, 0)" stroke-opacity="1.0" stroke-linecap="round" stroke-linejoin="round"/>
    <path d="M 114.1041259765625 105.40727996826172 C 92.817138671875 66.21405792236328 120.84814453125 92.82002258300781 103.81819152832031 92.57775115966797" stroke-width="2" fill="none" stroke="rgb(0, 0, 0)" stroke-opacity="1.0" stroke-linecap="round" stroke-linejoin="round"/>
    <path d="M 130.8889923095703 96.16400909423828 C 86.98428344726562 123.31803894042969 142.02197265625 101.541015625 99.88562774658203 107.74283599853516" stroke-width="2" fill="none" stroke="rgb(0, 0, 0)" stroke-opacity="1.0" stroke-linecap="round" stroke-linejoin="round"/>
    <path d="M 103.43378448486328 149.80482482910156 C 104.31807708740234 135.1808319091797 -2.66082501411438 164.32534790039062 65.4083480834961 101.36272430419922" stroke-width="2" fill="none" stroke="rgb(0, 0, 0)" stroke-opacity="1.0" stroke-linecap="round" stroke-linejoin="round"/>
    <path d="M 149.9160614013672 126.14374542236328 C 113.96861267089844 122.28348541259766 179.9860076904297 139.21240234375 116.9886703491211 123.30887603759766" stroke-width="2" fill="none" stroke="rgb(0, 0, 0)" stroke-opacity="1.0" stroke-linecap="round" stroke-linejoin="round"/>
    <path d="M 138.26629638671875 104.22756958007812 C 168.7333526611328 107.69013214111328 135.14041137695312 123.87288665771484 133.39242553710938 98.38202667236328" stroke-width="2" fill="none" stroke="rgb(0, 0, 0)" stroke-opacity="1.0" stroke-linecap="round" stroke-linejoin="round"/>
    <path d="M 190.04489135742188 68.14808654785156 C 175.64271545410156 58.98329162597656 164.00770568847656 106.31382751464844 153.3955078125 82.34030151367188" stroke-width="2" fill="none" stroke="rgb(0, 0, 0)" stroke-opacity="1.0" stroke-linecap="round" stroke-linejoin="round"/>
    <path d="M 176.235107421875 142.99049377441406 C 177.10325622558594 155.56878662109375 126.72720336914062 150.38844299316406 136.7374725341797 153.76756286621094" stroke-width="2" fill="none" stroke="rgb(0, 0, 0)" stroke-opacity="1.0" stroke-linecap="round" stroke-linejoin="round"/>
    <path d="M 76.3774642944336 126.99807739257812 C 67.87056732177734 146.68795776367188 195.5448760986328 142.16961669921875 163.74363708496094 138.05662536621094" stroke-width="2" fill="none" stroke="rgb(0, 0, 0)" stroke-opacity="1.0" stroke-linecap="round" stroke-linejoin="round"/>
    <path d="M 114.74205780029297 121.46063232421875 C 125.55364227294922 115.2695541381836 82.23106384277344 63.88630676269531 132.55958557128906 89.1724853515625" stroke-width="2" fill="none" stroke="rgb(0, 0, 0)" stroke-opacity="1.0" stroke-linecap="round" stroke-linejoin="round"/>
    <path d="M 166.7104949951172 119.9974594116211 C 174.60699462890625 82.52955627441406 180.08197021484375 121.06463623046875 188.50048828125 67.4654769897461" stroke-width="2" fill="none" stroke="rgb(0, 0, 0)" stroke-opacity="1.0" stroke-linecap="round" stroke-linejoin="round"/>
    <path d="M 92.85031127929688 115.43755340576172 C 91.88428497314453 96.50214385986328 103.73101043701172 117.80001831054688 103.01024627685547 102.54660034179688" stroke-width="2" fill="none" stroke="rgb(0, 0, 0)" stroke-opacity="1.0" stroke-linecap="round" stroke-linejoin="round"/>
  </g>
</svg>
