<?xml version="1.0" ?>
<svg xmlns="http://www.w3.org/2000/svg" version="1.1" width="224" height="224">
  <defs/>
  <g>
    <path d="M 73.33805084228516 150.73484802246094 C 27.95016860961914 132.07460021972656 42.44552993774414 68.44075775146484 110.48673248291016 109.17243194580078" stroke-width="2" fill="none" stroke="rgb(0, 0, 0)" stroke-opacity="1.0" stroke-linecap="round" stroke-linejoin="round"/>
    <path d="M 137.5166015625 151.8362579345703 C 153.35671997070312 153.15093994140625 56.27328872680664 158.68295288085938 50.54439163208008 136.1503448486328" stroke-width="2" fill="none" stroke="rgb(0, 0, 0)" stroke-opacity="1.0" stroke-linecap="round" stroke-linejoin="round"/>
    <path d="M 123.09064483642578 135.73416137695312 C 47.30917739868164 121.30345916748047 125.26539611816406 144.6869354248047 161.99542236328125 141.83494567871094" stroke-width="2" fill="none" stroke="rgb(0, 0, 0)" stroke-opacity="1.0" stroke-linecap="round" stroke-linejoin="round"/>
    <path d="M 162.26739501953125 107.70298767089844 C 135.79026794433594 105.97051239013672 188.872314453125 100.28035736083984 155.44178771972656 123.04957580566406" stroke-width="2" fill="none" stroke="rgb(0, 0, 0)" stroke-opacity="1.0" stroke-linecap="round" stroke-linejoin="round"/>
    <path d="M 106.91100311279297 69.41356658935547 C 117.6969985961914 110.9554443359375 166.9925537109375 63.683860778808594 163.092041015625 106.03643035888672" stroke-width="2" fill="none" stroke="rgb(0, 0, 0)" stroke-opacity="1.0" stroke-linecap="round" stroke-linejoin="round"/>
    <path d="M 113.31706237792969 111.43284606933594 C 96.35433197021484 76.18241882324219 134.2595977783203 89.6567153930664 85.29651641845703 92.65034484863281" stroke-width="2" fill="none" stroke="rgb(0, 0, 0)" stroke-opacity="1.0" stroke-linecap="round" stroke-linejoin="round"/>
    <path d="M 115.38929748535156 110.76113891601562 C 75.0672607421875 126.33789825439453 142.1555633544922 96.4889144897461 102.11463928222656 98.0076675415039" stroke-width="2" fill="none" stroke="rgb(0, 0, 0)" stroke-opacity="1.0" stroke-linecap="round" stroke-linejoin="round"/>
    <path d="M 123.0998306274414 147.58192443847656 C 107.68451690673828 130.01394653320312 7.879486083984375 166.2592010498047 54.87941360473633 103.38340759277344" stroke-width="2" fill="none" stroke="rgb(0, 0, 0)" stroke-opacity="1.0" stroke-linecap="round" stroke-linejoin="round"/>
    <path d="M 144.4305419921875 119.92253875732422 C 103.36726379394531 114.04862976074219 171.23892211914062 136.63365173339844 124.86478424072266 115.68424224853516" stroke-width="2" fill="none" stroke="rgb(0, 0, 0)" stroke-opacity="1.0" stroke-linecap="round" stroke-linejoin="round"/>
    <path d="M 126.03815460205078 108.96403503417969 C 155.2982635498047 105.37042236328125 101.72669219970703 124.37843322753906 128.58670043945312 89.73099517822266" stroke-width="2" fill="none" stroke="rgb(0, 0, 0)" stroke-opacity="1.0" stroke-linecap="round" stroke-linejoin="round"/>
    <path d="M 188.60765075683594 65.54492950439453 C 176.50982666015625 62.23454666137695 155.54739379882812 108.38641357421875 140.93582153320312 86.3538818359375" stroke-width="2" fill="none" stroke="rgb(0, 0, 0)" stroke-opacity="1.0" stroke-linecap="round" stroke-linejoin="round"/>
    <path d="M 177.0287322998047 136.7522430419922 C 185.79598999023438 157.36195373535156 120.17484283447266 156.12681579589844 130.18589782714844 148.81201171875" stroke-width="2" fill="none" stroke="rgb(0, 0, 0)" stroke-opacity="1.0" stroke-linecap="round" stroke-linejoin="round"/>
    <path d="M 86.74381256103516 119.16043090820312 C 90.43333435058594 137.2509002685547 185.34103393554688 135.9462890625 146.71839904785156 130.84213256835938" stroke-width="2" fill="none" stroke="rgb(0, 0, 0)" stroke-opacity="1.0" stroke-linecap="round" stroke-linejoin="round"/>
    <path d="M 99.59329223632812 99.6932144165039 C 122.8343734741211 105.38200378417969 81.29598236083984 81.43756103515625 117.6805419921875 104.25214385986328" stroke-width="2" fill="none" stroke="rgb(0, 0, 0)" stroke-opacity="1.0" stroke-linecap="round" stroke-linejoin="round"/>
    <path d="M 168.78787231445312 125.12784576416016 C 174.5474853515625 81.60125732421875 177.64385986328125 120.79326629638672 186.159423828125 70.78260040283203" stroke-width="2" fill="none" stroke="rgb(0, 0, 0)" stroke-opacity="1.0" stroke-linecap="round" stroke-linejoin="round"/>
    <path d="M 93.44354248046875 108.7776870727539 C 85.38261413574219 85.1549072265625 121.69578552246094 87.73524475097656 107.14204406738281 105.5014419555664" stroke-width="2" fill="none" stroke="rgb(0, 0, 0)" stroke-opacity="1.0" stroke-linecap="round" stroke-linejoin="round"/>
  </g>
</svg>
