<?xml version="1.0" ?>
<svg xmlns="http://www.w3.org/2000/svg" version="1.1" width="224" height="224">
  <defs/>
  <g>
    <path d="M 92.79203796386719 150.67184448242188 C 32.74898147583008 142.03587341308594 16.644065856933594 126.46794891357422 61.29561233520508 149.93409729003906" stroke-width="2" fill="none" stroke="rgb(0, 0, 0)" stroke-opacity="1.0" stroke-linecap="round" stroke-linejoin="round"/>
    <path d="M 90.01713562011719 108.2655258178711 C 132.3868865966797 96.147705078125 84.12740325927734 143.03787231445312 138.2107696533203 146.99862670898438" stroke-width="2" fill="none" stroke="rgb(0, 0, 0)" stroke-opacity="1.0" stroke-linecap="round" stroke-linejoin="round"/>
    <path d="M 54.65923309326172 97.33911895751953 C -29.044212341308594 174.5143280029297 256.1952819824219 148.4630584716797 141.82884216308594 138.56117248535156" stroke-width="2" fill="none" stroke="rgb(0, 0, 0)" stroke-opacity="1.0" stroke-linecap="round" stroke-linejoin="round"/>
    <path d="M 128.88644409179688 125.8221435546875 C 191.66140747070312 141.76426696777344 113.32040405273438 134.9447784423828 169.80731201171875 122.20182800292969" stroke-width="2" fill="none" stroke="rgb(0, 0, 0)" stroke-opacity="1.0" stroke-linecap="round" stroke-linejoin="round"/>
    <path d="M 103.45597839355469 76.7252197265625 C 131.627197265625 107.24329376220703 141.19198608398438 76.04165649414062 163.46697998046875 93.15331268310547" stroke-width="2" fill="none" stroke="rgb(0, 0, 0)" stroke-opacity="1.0" stroke-linecap="round" stroke-linejoin="round"/>
    <path d="M 112.45690155029297 119.26068878173828 C 158.4811248779297 115.81932830810547 112.28462219238281 111.33915710449219 143.81407165527344 129.80615234375" stroke-width="2" fill="none" stroke="rgb(0, 0, 0)" stroke-opacity="1.0" stroke-linecap="round" stroke-linejoin="round"/>
    <path d="M 124.47733306884766 125.90557098388672 C 167.471435546875 113.36421203613281 88.342041015625 129.0674285888672 155.2562713623047 130.2759552001953" stroke-width="2" fill="none" stroke="rgb(0, 0, 0)" stroke-opacity="1.0" stroke-linecap="round" stroke-linejoin="round"/>
    <path d="M 99.65290832519531 73.18510437011719 C 120.54631042480469 127.17145538330078 57.22135925292969 75.16123962402344 66.9513168334961 106.39197540283203" stroke-width="2" fill="none" stroke="rgb(0, 0, 0)" stroke-opacity="1.0" stroke-linecap="round" stroke-linejoin="round"/>
    <path d="M 139.47598266601562 107.39186096191406 C 180.0265655517578 121.77039337158203 113.50767517089844 117.25983428955078 154.32962036132812 115.99358367919922" stroke-width="2" fill="none" stroke="rgb(0, 0, 0)" stroke-opacity="1.0" stroke-linecap="round" stroke-linejoin="round"/>
    <path d="M 97.86917114257812 121.44900512695312 C 222.62864685058594 157.5376434326172 140.4913330078125 108.42745971679688 133.71031188964844 124.19679260253906" stroke-width="2" fill="none" stroke="rgb(0, 0, 0)" stroke-opacity="1.0" stroke-linecap="round" stroke-linejoin="round"/>
    <path d="M 165.66650390625 125.85858917236328 C 204.443603515625 -8.56713581085205 171.43092346191406 95.26028442382812 159.92124938964844 85.37342834472656" stroke-width="2" fill="none" stroke="rgb(0, 0, 0)" stroke-opacity="1.0" stroke-linecap="round" stroke-linejoin="round"/>
    <path d="M 119.98554992675781 89.7868881225586 C 138.09945678710938 113.09288787841797 110.29318237304688 103.84102630615234 133.76890563964844 96.27095031738281" stroke-width="2" fill="none" stroke="rgb(0, 0, 0)" stroke-opacity="1.0" stroke-linecap="round" stroke-linejoin="round"/>
    <path d="M 98.36371612548828 151.27427673339844 C -24.446128845214844 127.03231811523438 94.76824951171875 156.47833251953125 155.43511962890625 147.3880615234375" stroke-width="2" fill="none" stroke="rgb(0, 0, 0)" stroke-opacity="1.0" stroke-linecap="round" stroke-linejoin="round"/>
    <path d="M 74.36509704589844 142.77345275878906 C 100.61210632324219 137.62429809570312 197.5105438232422 179.53326416015625 186.62399291992188 123.13856506347656" stroke-width="2" fill="none" stroke="rgb(0, 0, 0)" stroke-opacity="1.0" stroke-linecap="round" stroke-linejoin="round"/>
    <path d="M 163.8720245361328 93.23688507080078 C 201.3351593017578 51.580142974853516 164.64767456054688 137.21682739257812 162.8036346435547 91.60733795166016" stroke-width="2" fill="none" stroke="rgb(0, 0, 0)" stroke-opacity="1.0" stroke-linecap="round" stroke-linejoin="round"/>
    <path d="M 117.42757415771484 106.7210922241211 C 125.03750610351562 138.318603515625 183.9238739013672 99.07632446289062 128.84104919433594 130.36410522460938" stroke-width="2" fill="none" stroke="rgb(0, 0, 0)" stroke-opacity="1.0" stroke-linecap="round" stroke-linejoin="round"/>
  </g>
</svg>
