<?xml version="1.0" ?>
<svg xmlns="http://www.w3.org/2000/svg" version="1.1" width="224" height="224">
  <defs/>
  <g>
    <path d="M 158.70538330078125 153.54307556152344 C 62.21147537231445 153.384033203125 39.32905197143555 143.8601531982422 39.04084777832031 120.90765380859375" stroke-width="2" fill="none" stroke="rgb(0, 0, 0)" stroke-opacity="1.0" stroke-linecap="round" stroke-linejoin="round"/>
    <path d="M 79.9858627319336 102.7420425415039 C 136.8675994873047 96.72132110595703 70.6358413696289 134.42330932617188 168.48025512695312 123.87617492675781" stroke-width="2" fill="none" stroke="rgb(0, 0, 0)" stroke-opacity="1.0" stroke-linecap="round" stroke-linejoin="round"/>
    <path d="M 58.74033737182617 103.95392608642578 C -9.406698226928711 192.7442169189453 246.77755737304688 135.37855529785156 193.28355407714844 151.13821411132812" stroke-width="2" fill="none" stroke="rgb(0, 0, 0)" stroke-opacity="1.0" stroke-linecap="round" stroke-linejoin="round"/>
    <path d="M 130.21580505371094 114.27815246582031 C 186.60333251953125 95.3675308227539 141.21839904785156 110.34199523925781 167.0758819580078 91.628173828125" stroke-width="2" fill="none" stroke="rgb(0, 0, 0)" stroke-opacity="1.0" stroke-linecap="round" stroke-linejoin="round"/>
    <path d="M 97.74900817871094 66.33341979980469 C 126.30640411376953 109.14540100097656 125.73338317871094 70.42346954345703 158.27020263671875 92.91134643554688" stroke-width="2" fill="none" stroke="rgb(0, 0, 0)" stroke-opacity="1.0" stroke-linecap="round" stroke-linejoin="round"/>
    <path d="M 107.0498275756836 106.62238311767578 C 152.36026000976562 92.140625 97.3340072631836 116.57579040527344 147.40374755859375 112.8863754272461" stroke-width="2" fill="none" stroke="rgb(0, 0, 0)" stroke-opacity="1.0" stroke-linecap="round" stroke-linejoin="round"/>
    <path d="M 143.32040405273438 113.25180053710938 C 128.77499389648438 85.1440200805664 88.15167236328125 148.84152221679688 136.17994689941406 143.9490203857422" stroke-width="2" fill="none" stroke="rgb(0, 0, 0)" stroke-opacity="1.0" stroke-linecap="round" stroke-linejoin="round"/>
    <path d="M 97.80493927001953 76.32396697998047 C 124.99606323242188 121.71049499511719 53.38340377807617 74.1373291015625 58.80756378173828 124.59542846679688" stroke-width="2" fill="none" stroke="rgb(0, 0, 0)" stroke-opacity="1.0" stroke-linecap="round" stroke-linejoin="round"/>
    <path d="M 159.02186584472656 129.4856414794922 C 185.72242736816406 142.7467803955078 154.18719482421875 119.48287963867188 152.24049377441406 129.2422637939453" stroke-width="2" fill="none" stroke="rgb(0, 0, 0)" stroke-opacity="1.0" stroke-linecap="round" stroke-linejoin="round"/>
    <path d="M 122.22626495361328 141.8984832763672 C 225.4661102294922 138.48196411132812 119.48966217041016 97.24945068359375 159.3330078125 121.72449493408203" stroke-width="2" fill="none" stroke="rgb(0, 0, 0)" stroke-opacity="1.0" stroke-linecap="round" stroke-linejoin="round"/>
    <path d="M 164.3761749267578 100.3392562866211 C 200.7530975341797 22.21869468688965 154.5411376953125 92.62742614746094 149.68185424804688 82.43681335449219" stroke-width="2" fill="none" stroke="rgb(0, 0, 0)" stroke-opacity="1.0" stroke-linecap="round" stroke-linejoin="round"/>
    <path d="M 91.6401596069336 104.9057388305664 C 121.90039825439453 74.81439971923828 78.78059387207031 80.86502838134766 113.30274963378906 103.69754791259766" stroke-width="2" fill="none" stroke="rgb(0, 0, 0)" stroke-opacity="1.0" stroke-linecap="round" stroke-linejoin="round"/>
    <path d="M 119.42979431152344 147.31893920898438 C -5.952625274658203 133.22752380371094 93.2159423828125 137.31591796875 84.5694351196289 150.76278686523438" stroke-width="2" fill="none" stroke="rgb(0, 0, 0)" stroke-opacity="1.0" stroke-linecap="round" stroke-linejoin="round"/>
    <path d="M 93.72888946533203 129.24009704589844 C 46.11567306518555 103.16143798828125 190.79568481445312 160.01893615722656 172.7660369873047 112.96062469482422" stroke-width="2" fill="none" stroke="rgb(0, 0, 0)" stroke-opacity="1.0" stroke-linecap="round" stroke-linejoin="round"/>
    <path d="M 157.27059936523438 101.17821502685547 C 180.82366943359375 141.4296417236328 116.8450698852539 106.39765930175781 176.5809783935547 112.36173248291016" stroke-width="2" fill="none" stroke="rgb(0, 0, 0)" stroke-opacity="1.0" stroke-linecap="round" stroke-linejoin="round"/>
    <path d="M 146.63031005859375 135.6996612548828 C 103.90279388427734 123.06610870361328 170.50921630859375 122.59044647216797 115.10820770263672 125.27965545654297" stroke-width="2" fill="none" stroke="rgb(0, 0, 0)" stroke-opacity="1.0" stroke-linecap="round" stroke-linejoin="round"/>
  </g>
</svg>
