<?xml version="1.0" ?>
<svg xmlns="http://www.w3.org/2000/svg" version="1.1" width="224" height="224">
  <defs/>
  <g>
    <path d="M 68.2558364868164 155.56719970703125 C -15.533788681030273 138.49057006835938 117.41576385498047 50.552085876464844 119.25670623779297 131.13160705566406" stroke-width="2" fill="none" stroke="rgb(0, 0, 0)" stroke-opacity="1.0" stroke-linecap="round" stroke-linejoin="round"/>
    <path d="M 137.9670867919922 155.4470672607422 C 209.99037170410156 156.1454315185547 64.9952392578125 156.3011016845703 123.34803771972656 110.5672378540039" stroke-width="2" fill="none" stroke="rgb(0, 0, 0)" stroke-opacity="1.0" stroke-linecap="round" stroke-linejoin="round"/>
    <path d="M 124.988037109375 144.7379913330078 C 23.451616287231445 148.67640686035156 222.38516235351562 177.29031372070312 156.8736572265625 126.57652282714844" stroke-width="2" fill="none" stroke="rgb(0, 0, 0)" stroke-opacity="1.0" stroke-linecap="round" stroke-linejoin="round"/>
    <path d="M 127.18328857421875 114.50294494628906 C 163.93136596679688 115.13986206054688 91.2448501586914 118.12102508544922 155.962158203125 117.92742919921875" stroke-width="2" fill="none" stroke="rgb(0, 0, 0)" stroke-opacity="1.0" stroke-linecap="round" stroke-linejoin="round"/>
    <path d="M 103.7633056640625 77.34890747070312 C 118.38611602783203 107.24028778076172 134.8601531982422 72.11742401123047 149.02877807617188 92.43714904785156" stroke-width="2" fill="none" stroke="rgb(0, 0, 0)" stroke-opacity="1.0" stroke-linecap="round" stroke-linejoin="round"/>
    <path d="M 85.9244155883789 96.4509048461914 C -4.638503074645996 104.91151428222656 110.41268920898438 120.9338607788086 76.83515930175781 111.7568130493164" stroke-width="2" fill="none" stroke="rgb(0, 0, 0)" stroke-opacity="1.0" stroke-linecap="round" stroke-linejoin="round"/>
    <path d="M 110.53438568115234 110.04790496826172 C 100.87663269042969 61.9427490234375 130.86996459960938 119.80757904052734 81.34830474853516 100.16862487792969" stroke-width="2" fill="none" stroke="rgb(0, 0, 0)" stroke-opacity="1.0" stroke-linecap="round" stroke-linejoin="round"/>
    <path d="M 145.4375457763672 147.9795379638672 C 134.67919921875 150.06712341308594 10.162836074829102 171.06185913085938 52.641780853271484 99.8533706665039" stroke-width="2" fill="none" stroke="rgb(0, 0, 0)" stroke-opacity="1.0" stroke-linecap="round" stroke-linejoin="round"/>
    <path d="M 149.277587890625 128.71876525878906 C 97.49127960205078 124.90057373046875 183.9559783935547 122.197509765625 136.44285583496094 132.52259826660156" stroke-width="2" fill="none" stroke="rgb(0, 0, 0)" stroke-opacity="1.0" stroke-linecap="round" stroke-linejoin="round"/>
    <path d="M 136.85980224609375 125.63792419433594 C 169.33529663085938 118.06387329101562 119.88578796386719 149.1521759033203 145.10626220703125 121.26231384277344" stroke-width="2" fill="none" stroke="rgb(0, 0, 0)" stroke-opacity="1.0" stroke-linecap="round" stroke-linejoin="round"/>
    <path d="M 187.15530395507812 66.27824401855469 C 178.43267822265625 61.364906311035156 161.1194610595703 96.64492797851562 151.8129119873047 88.02567291259766" stroke-width="2" fill="none" stroke="rgb(0, 0, 0)" stroke-opacity="1.0" stroke-linecap="round" stroke-linejoin="round"/>
    <path d="M 148.8699188232422 131.02313232421875 C 154.13153076171875 156.80116271972656 47.98362350463867 116.9327163696289 94.43590545654297 127.07586669921875" stroke-width="2" fill="none" stroke="rgb(0, 0, 0)" stroke-opacity="1.0" stroke-linecap="round" stroke-linejoin="round"/>
    <path d="M 102.09823608398438 149.5482177734375 C -26.857437133789062 102.45391845703125 188.8483123779297 174.71249389648438 175.8003387451172 150.2415313720703" stroke-width="2" fill="none" stroke="rgb(0, 0, 0)" stroke-opacity="1.0" stroke-linecap="round" stroke-linejoin="round"/>
    <path d="M 116.87665557861328 125.5211181640625 C 143.42825317382812 124.42101287841797 170.22276306152344 156.6929931640625 159.2988739013672 100.87764739990234" stroke-width="2" fill="none" stroke="rgb(0, 0, 0)" stroke-opacity="1.0" stroke-linecap="round" stroke-linejoin="round"/>
    <path d="M 154.1124725341797 121.31564331054688 C 123.20108032226562 81.52791595458984 163.3238067626953 143.88177490234375 181.5924835205078 69.28739929199219" stroke-width="2" fill="none" stroke="rgb(0, 0, 0)" stroke-opacity="1.0" stroke-linecap="round" stroke-linejoin="round"/>
    <path d="M 139.30810546875 115.9912109375 C 110.84324645996094 140.61256408691406 202.87545776367188 81.6131362915039 161.68228149414062 95.30351257324219" stroke-width="2" fill="none" stroke="rgb(0, 0, 0)" stroke-opacity="1.0" stroke-linecap="round" stroke-linejoin="round"/>
  </g>
</svg>
