<?xml version="1.0" ?>
<svg xmlns="http://www.w3.org/2000/svg" version="1.1" width="224" height="224">
  <defs/>
  <g>
    <path d="M 140.46356201171875 156.0691680908203 C 102.09461212158203 150.40493774414062 92.17476654052734 119.10843658447266 96.4101791381836 134.3848114013672" stroke-width="2" fill="none" stroke="rgb(0, 0, 0)" stroke-opacity="1.0" stroke-linecap="round" stroke-linejoin="round"/>
    <path d="M 87.8221664428711 123.41120910644531 C 140.0354766845703 125.08369445800781 72.3818588256836 147.23318481445312 153.0234832763672 136.7596893310547" stroke-width="2" fill="none" stroke="rgb(0, 0, 0)" stroke-opacity="1.0" stroke-linecap="round" stroke-linejoin="round"/>
    <path d="M 65.44855499267578 101.50740814208984 C -26.954713821411133 171.3026123046875 211.7469482421875 150.5516815185547 173.56678771972656 145.1962432861328" stroke-width="2" fill="none" stroke="rgb(0, 0, 0)" stroke-opacity="1.0" stroke-linecap="round" stroke-linejoin="round"/>
    <path d="M 140.55165100097656 130.2149658203125 C 195.7827911376953 126.09938049316406 126.26165771484375 101.15583038330078 161.57315063476562 106.53124237060547" stroke-width="2" fill="none" stroke="rgb(0, 0, 0)" stroke-opacity="1.0" stroke-linecap="round" stroke-linejoin="round"/>
    <path d="M 103.13611602783203 71.74951934814453 C 143.54014587402344 107.12234497070312 131.4351348876953 63.606143951416016 166.9995574951172 84.16091918945312" stroke-width="2" fill="none" stroke="rgb(0, 0, 0)" stroke-opacity="1.0" stroke-linecap="round" stroke-linejoin="round"/>
    <path d="M 121.06944274902344 109.31134033203125 C 166.02761840820312 89.48473358154297 63.643707275390625 115.70022583007812 137.8832244873047 150.97232055664062" stroke-width="2" fill="none" stroke="rgb(0, 0, 0)" stroke-opacity="1.0" stroke-linecap="round" stroke-linejoin="round"/>
    <path d="M 57.63713073730469 111.24860382080078 C 97.54808807373047 114.87000274658203 43.799495697021484 92.20325469970703 151.08680725097656 116.17854309082031" stroke-width="2" fill="none" stroke="rgb(0, 0, 0)" stroke-opacity="1.0" stroke-linecap="round" stroke-linejoin="round"/>
    <path d="M 108.19088745117188 72.6965103149414 C 125.32044982910156 113.330322265625 44.299442291259766 75.29138946533203 48.91447830200195 119.0122299194336" stroke-width="2" fill="none" stroke="rgb(0, 0, 0)" stroke-opacity="1.0" stroke-linecap="round" stroke-linejoin="round"/>
    <path d="M 150.44314575195312 130.37518310546875 C 126.08253479003906 127.82747650146484 178.78538513183594 104.71653747558594 141.72572326660156 116.74952697753906" stroke-width="2" fill="none" stroke="rgb(0, 0, 0)" stroke-opacity="1.0" stroke-linecap="round" stroke-linejoin="round"/>
    <path d="M 146.6031494140625 140.50132751464844 C 204.6126708984375 140.3282470703125 134.43698120117188 141.04200744628906 175.07672119140625 96.64836120605469" stroke-width="2" fill="none" stroke="rgb(0, 0, 0)" stroke-opacity="1.0" stroke-linecap="round" stroke-linejoin="round"/>
    <path d="M 182.2503204345703 101.81615447998047 C 201.85916137695312 24.29887580871582 165.00808715820312 93.33689880371094 160.4222412109375 82.6409912109375" stroke-width="2" fill="none" stroke="rgb(0, 0, 0)" stroke-opacity="1.0" stroke-linecap="round" stroke-linejoin="round"/>
    <path d="M 115.57901000976562 121.03912353515625 C 82.77449798583984 88.0108642578125 118.72650146484375 85.50907135009766 104.58565521240234 96.86712646484375" stroke-width="2" fill="none" stroke="rgb(0, 0, 0)" stroke-opacity="1.0" stroke-linecap="round" stroke-linejoin="round"/>
    <path d="M 104.3321762084961 146.8407745361328 C 43.32242965698242 125.1324234008789 95.12674713134766 141.12887573242188 146.33770751953125 139.48829650878906" stroke-width="2" fill="none" stroke="rgb(0, 0, 0)" stroke-opacity="1.0" stroke-linecap="round" stroke-linejoin="round"/>
    <path d="M 54.15479278564453 135.21340942382812 C 18.8944091796875 125.11376190185547 172.09982299804688 185.7612762451172 182.69813537597656 135.81002807617188" stroke-width="2" fill="none" stroke="rgb(0, 0, 0)" stroke-opacity="1.0" stroke-linecap="round" stroke-linejoin="round"/>
    <path d="M 113.71681213378906 111.05970764160156 C 181.8064727783203 109.90564727783203 91.49143981933594 91.17211151123047 151.15951538085938 124.55764770507812" stroke-width="2" fill="none" stroke="rgb(0, 0, 0)" stroke-opacity="1.0" stroke-linecap="round" stroke-linejoin="round"/>
    <path d="M 162.13821411132812 115.8575210571289 C 87.10948181152344 123.1041030883789 163.1806182861328 102.00374603271484 129.5022735595703 117.11914825439453" stroke-width="2" fill="none" stroke="rgb(0, 0, 0)" stroke-opacity="1.0" stroke-linecap="round" stroke-linejoin="round"/>
  </g>
</svg>
