<?xml version="1.0" ?>
<svg xmlns="http://www.w3.org/2000/svg" version="1.1" width="224" height="224">
  <defs/>
  <g>
    <path d="M 158.580810546875 142.30465698242188 C 74.9835433959961 148.3753662109375 36.349430084228516 144.61636352539062 48.15254211425781 130.23521423339844" stroke-width="2" fill="none" stroke="rgb(0, 0, 0)" stroke-opacity="1.0" stroke-linecap="round" stroke-linejoin="round"/>
    <path d="M 73.2176284790039 107.57772827148438 C 148.44570922851562 106.32526397705078 74.4305419921875 144.856689453125 144.79293823242188 137.66107177734375" stroke-width="2" fill="none" stroke="rgb(0, 0, 0)" stroke-opacity="1.0" stroke-linecap="round" stroke-linejoin="round"/>
    <path d="M 51.94432830810547 99.95073699951172 C -24.581880569458008 181.67637634277344 249.41110229492188 153.0261993408203 154.05311584472656 134.03953552246094" stroke-width="2" fill="none" stroke="rgb(0, 0, 0)" stroke-opacity="1.0" stroke-linecap="round" stroke-linejoin="round"/>
    <path d="M 113.29613494873047 118.84359741210938 C 211.634033203125 122.96019744873047 130.05860900878906 114.46952056884766 169.19920349121094 103.09014892578125" stroke-width="2" fill="none" stroke="rgb(0, 0, 0)" stroke-opacity="1.0" stroke-linecap="round" stroke-linejoin="round"/>
    <path d="M 96.28608703613281 68.90177154541016 C 134.20802307128906 106.80736541748047 135.70184326171875 73.13871765136719 149.873291015625 96.32262420654297" stroke-width="2" fill="none" stroke="rgb(0, 0, 0)" stroke-opacity="1.0" stroke-linecap="round" stroke-linejoin="round"/>
    <path d="M 113.48516845703125 119.96593475341797 C 166.910888671875 106.5910873413086 97.69123077392578 114.95264434814453 145.28121948242188 122.06427001953125" stroke-width="2" fill="none" stroke="rgb(0, 0, 0)" stroke-opacity="1.0" stroke-linecap="round" stroke-linejoin="round"/>
    <path d="M 114.43329620361328 113.96369934082031 C 86.33133697509766 88.90910339355469 61.6512451171875 119.30133056640625 133.90574645996094 140.10638427734375" stroke-width="2" fill="none" stroke="rgb(0, 0, 0)" stroke-opacity="1.0" stroke-linecap="round" stroke-linejoin="round"/>
    <path d="M 111.90279388427734 95.0907974243164 C 110.3521957397461 131.97267150878906 54.56005096435547 63.32624816894531 46.90367126464844 118.1924819946289" stroke-width="2" fill="none" stroke="rgb(0, 0, 0)" stroke-opacity="1.0" stroke-linecap="round" stroke-linejoin="round"/>
    <path d="M 135.78175354003906 119.27962493896484 C 124.25767517089844 129.15457153320312 127.77255249023438 120.6329116821289 142.9234619140625 124.48237609863281" stroke-width="2" fill="none" stroke="rgb(0, 0, 0)" stroke-opacity="1.0" stroke-linecap="round" stroke-linejoin="round"/>
    <path d="M 148.32896423339844 152.86476135253906 C 213.76724243164062 154.75701904296875 127.2933578491211 86.14793395996094 165.03587341308594 92.57611083984375" stroke-width="2" fill="none" stroke="rgb(0, 0, 0)" stroke-opacity="1.0" stroke-linecap="round" stroke-linejoin="round"/>
    <path d="M 161.08111572265625 117.18689727783203 C 214.42945861816406 17.629457473754883 163.4521026611328 88.69338989257812 161.618408203125 82.03150939941406" stroke-width="2" fill="none" stroke="rgb(0, 0, 0)" stroke-opacity="1.0" stroke-linecap="round" stroke-linejoin="round"/>
    <path d="M 101.29088592529297 91.79501342773438 C 104.17762756347656 60.19571304321289 92.48170471191406 115.50379180908203 117.68860626220703 84.67466735839844" stroke-width="2" fill="none" stroke="rgb(0, 0, 0)" stroke-opacity="1.0" stroke-linecap="round" stroke-linejoin="round"/>
    <path d="M 86.50060272216797 150.3470458984375 C -7.753519058227539 121.29669952392578 103.6065444946289 127.62391662597656 128.46617126464844 140.1187744140625" stroke-width="2" fill="none" stroke="rgb(0, 0, 0)" stroke-opacity="1.0" stroke-linecap="round" stroke-linejoin="round"/>
    <path d="M 60.78533935546875 138.76235961914062 C -2.2631876468658447 141.38204956054688 168.6786651611328 194.31671142578125 161.91873168945312 111.54916381835938" stroke-width="2" fill="none" stroke="rgb(0, 0, 0)" stroke-opacity="1.0" stroke-linecap="round" stroke-linejoin="round"/>
    <path d="M 131.79962158203125 126.94820404052734 C 166.48028564453125 113.33983612060547 123.4330825805664 106.42875671386719 154.27357482910156 124.29808807373047" stroke-width="2" fill="none" stroke="rgb(0, 0, 0)" stroke-opacity="1.0" stroke-linecap="round" stroke-linejoin="round"/>
    <path d="M 141.95330810546875 136.15902709960938 C 99.59471893310547 131.64073181152344 179.99417114257812 140.6371307373047 127.4161605834961 117.75653076171875" stroke-width="2" fill="none" stroke="rgb(0, 0, 0)" stroke-opacity="1.0" stroke-linecap="round" stroke-linejoin="round"/>
  </g>
</svg>
