<?xml version="1.0" ?>
<svg xmlns="http://www.w3.org/2000/svg" version="1.1" width="224" height="224">
  <defs/>
  <g>
    <path d="M 69.2431640625 152.1976318359375 C 4.707145690917969 152.5576934814453 82.41063690185547 55.368743896484375 113.74210357666016 115.22997283935547" stroke-width="2" fill="none" stroke="rgb(0, 0, 0)" stroke-opacity="1.0" stroke-linecap="round" stroke-linejoin="round"/>
    <path d="M 135.5614471435547 117.8030014038086 C 190.8358917236328 116.58375549316406 41.4351806640625 125.01888275146484 127.57807922363281 135.78065490722656" stroke-width="2" fill="none" stroke="rgb(0, 0, 0)" stroke-opacity="1.0" stroke-linecap="round" stroke-linejoin="round"/>
    <path d="M 52.56632614135742 114.20277404785156 C 3.603203296661377 160.28773498535156 221.8035888671875 184.2481231689453 164.35342407226562 118.49793243408203" stroke-width="2" fill="none" stroke="rgb(0, 0, 0)" stroke-opacity="1.0" stroke-linecap="round" stroke-linejoin="round"/>
    <path d="M 122.85833740234375 116.27751159667969 C 184.50714111328125 119.86649322509766 106.07012176513672 123.15823364257812 146.56443786621094 125.42649841308594" stroke-width="2" fill="none" stroke="rgb(0, 0, 0)" stroke-opacity="1.0" stroke-linecap="round" stroke-linejoin="round"/>
    <path d="M 108.56375122070312 70.34678649902344 C 142.6393585205078 110.53111267089844 125.5350570678711 71.76292419433594 163.1931915283203 87.3104476928711" stroke-width="2" fill="none" stroke="rgb(0, 0, 0)" stroke-opacity="1.0" stroke-linecap="round" stroke-linejoin="round"/>
    <path d="M 92.05164337158203 95.30054473876953 C 115.99305725097656 75.85575866699219 103.25618743896484 71.56520080566406 103.67179107666016 98.15987396240234" stroke-width="2" fill="none" stroke="rgb(0, 0, 0)" stroke-opacity="1.0" stroke-linecap="round" stroke-linejoin="round"/>
    <path d="M 113.99559783935547 140.374267578125 C 72.71890258789062 96.46318054199219 172.53018188476562 146.61024475097656 59.52376937866211 125.6421127319336" stroke-width="2" fill="none" stroke="rgb(0, 0, 0)" stroke-opacity="1.0" stroke-linecap="round" stroke-linejoin="round"/>
    <path d="M 90.53292083740234 107.61866760253906 C 188.22203063964844 155.78778076171875 -9.577696800231934 116.60673522949219 55.64680099487305 151.7539520263672" stroke-width="2" fill="none" stroke="rgb(0, 0, 0)" stroke-opacity="1.0" stroke-linecap="round" stroke-linejoin="round"/>
    <path d="M 164.92799377441406 143.4000244140625 C 60.219459533691406 134.32823181152344 140.76370239257812 114.75736999511719 98.03140258789062 121.1997299194336" stroke-width="2" fill="none" stroke="rgb(0, 0, 0)" stroke-opacity="1.0" stroke-linecap="round" stroke-linejoin="round"/>
    <path d="M 152.5247802734375 128.09481811523438 C 187.7514190673828 122.93370819091797 129.0176544189453 128.17311096191406 163.35194396972656 136.11231994628906" stroke-width="2" fill="none" stroke="rgb(0, 0, 0)" stroke-opacity="1.0" stroke-linecap="round" stroke-linejoin="round"/>
    <path d="M 183.2372589111328 95.81050109863281 C 198.2909393310547 20.697832107543945 165.30052185058594 103.52998352050781 159.96737670898438 88.10975646972656" stroke-width="2" fill="none" stroke="rgb(0, 0, 0)" stroke-opacity="1.0" stroke-linecap="round" stroke-linejoin="round"/>
    <path d="M 166.74298095703125 129.1521759033203 C 172.34234619140625 135.7777099609375 109.44493103027344 180.13861083984375 99.79541778564453 71.37824249267578" stroke-width="2" fill="none" stroke="rgb(0, 0, 0)" stroke-opacity="1.0" stroke-linecap="round" stroke-linejoin="round"/>
    <path d="M 69.43838500976562 125.42020416259766 C 24.779949188232422 111.81234741210938 116.32000732421875 155.92520141601562 151.73284912109375 148.7910919189453" stroke-width="2" fill="none" stroke="rgb(0, 0, 0)" stroke-opacity="1.0" stroke-linecap="round" stroke-linejoin="round"/>
    <path d="M 133.3433837890625 154.14208984375 C 134.55523681640625 160.56495666503906 190.87022399902344 165.30023193359375 176.10769653320312 150.84115600585938" stroke-width="2" fill="none" stroke="rgb(0, 0, 0)" stroke-opacity="1.0" stroke-linecap="round" stroke-linejoin="round"/>
    <path d="M 163.9384002685547 127.45339965820312 C 186.12948608398438 69.68946075439453 154.2357635498047 114.01204681396484 182.6644287109375 91.903076171875" stroke-width="2" fill="none" stroke="rgb(0, 0, 0)" stroke-opacity="1.0" stroke-linecap="round" stroke-linejoin="round"/>
    <path d="M 97.93614959716797 136.12075805664062 C 163.42027282714844 165.59805297851562 127.12661743164062 112.8974838256836 141.40655517578125 146.74819946289062" stroke-width="2" fill="none" stroke="rgb(0, 0, 0)" stroke-opacity="1.0" stroke-linecap="round" stroke-linejoin="round"/>
  </g>
</svg>
