<?xml version="1.0" ?>
<svg xmlns="http://www.w3.org/2000/svg" version="1.1" width="224" height="224">
  <defs/>
  <g>
    <path d="M 99.55044555664062 143.25140380859375 C 33.67997360229492 130.44674682617188 33.3895263671875 96.08216094970703 106.4348373413086 82.2777328491211" stroke-width="2" fill="none" stroke="rgb(0, 0, 0)" stroke-opacity="1.0" stroke-linecap="round" stroke-linejoin="round"/>
    <path d="M 117.62873077392578 160.17935180664062 C 137.9154815673828 163.1367950439453 79.23287963867188 159.08287048339844 74.0445327758789 141.373291015625" stroke-width="2" fill="none" stroke="rgb(0, 0, 0)" stroke-opacity="1.0" stroke-linecap="round" stroke-linejoin="round"/>
    <path d="M 141.1698760986328 144.0473175048828 C 44.783050537109375 132.34738159179688 126.19903564453125 143.0733642578125 169.71157836914062 141.95733642578125" stroke-width="2" fill="none" stroke="rgb(0, 0, 0)" stroke-opacity="1.0" stroke-linecap="round" stroke-linejoin="round"/>
    <path d="M 162.7261962890625 121.89549255371094 C 126.67768096923828 129.9680633544922 190.8049774169922 120.93106079101562 149.5187530517578 135.04330444335938" stroke-width="2" fill="none" stroke="rgb(0, 0, 0)" stroke-opacity="1.0" stroke-linecap="round" stroke-linejoin="round"/>
    <path d="M 95.89497375488281 83.95079803466797 C 118.57615661621094 112.9068832397461 180.25865173339844 75.07367706298828 172.9020233154297 111.60836029052734" stroke-width="2" fill="none" stroke="rgb(0, 0, 0)" stroke-opacity="1.0" stroke-linecap="round" stroke-linejoin="round"/>
    <path d="M 102.95362091064453 109.283203125 C 125.2481689453125 104.59236145019531 137.39060974121094 96.50057983398438 105.4525375366211 94.03185272216797" stroke-width="2" fill="none" stroke="rgb(0, 0, 0)" stroke-opacity="1.0" stroke-linecap="round" stroke-linejoin="round"/>
    <path d="M 98.58847045898438 72.98220825195312 C 101.29109954833984 94.07254791259766 149.10556030273438 79.5719985961914 118.28398132324219 106.22337341308594" stroke-width="2" fill="none" stroke="rgb(0, 0, 0)" stroke-opacity="1.0" stroke-linecap="round" stroke-linejoin="round"/>
    <path d="M 101.12355041503906 158.0927734375 C 103.54083251953125 155.7972412109375 -3.874469041824341 159.9398651123047 66.69920349121094 99.22224426269531" stroke-width="2" fill="none" stroke="rgb(0, 0, 0)" stroke-opacity="1.0" stroke-linecap="round" stroke-linejoin="round"/>
    <path d="M 117.99734497070312 109.55001068115234 C 92.78514862060547 144.2747344970703 164.03173828125 131.375732421875 131.45965576171875 130.1940155029297" stroke-width="2" fill="none" stroke="rgb(0, 0, 0)" stroke-opacity="1.0" stroke-linecap="round" stroke-linejoin="round"/>
    <path d="M 132.1641387939453 102.61366271972656 C 186.2470703125 113.06537628173828 136.65318298339844 116.52815246582031 153.30442810058594 94.01773071289062" stroke-width="2" fill="none" stroke="rgb(0, 0, 0)" stroke-opacity="1.0" stroke-linecap="round" stroke-linejoin="round"/>
    <path d="M 189.47052001953125 68.94110870361328 C 169.5978546142578 74.1246109008789 168.99356079101562 111.2413330078125 132.78819274902344 100.91112518310547" stroke-width="2" fill="none" stroke="rgb(0, 0, 0)" stroke-opacity="1.0" stroke-linecap="round" stroke-linejoin="round"/>
    <path d="M 184.26402282714844 146.9210968017578 C 183.3029327392578 155.9604949951172 139.0296173095703 157.9236297607422 129.49700927734375 152.59991455078125" stroke-width="2" fill="none" stroke="rgb(0, 0, 0)" stroke-opacity="1.0" stroke-linecap="round" stroke-linejoin="round"/>
    <path d="M 58.369102478027344 141.77049255371094 C 51.357059478759766 156.3189697265625 176.40126037597656 152.9784393310547 151.6400146484375 147.28594970703125" stroke-width="2" fill="none" stroke="rgb(0, 0, 0)" stroke-opacity="1.0" stroke-linecap="round" stroke-linejoin="round"/>
    <path d="M 111.07923126220703 120.66600799560547 C 120.57485961914062 95.37268829345703 95.8287124633789 82.03890228271484 120.33186340332031 111.184326171875" stroke-width="2" fill="none" stroke="rgb(0, 0, 0)" stroke-opacity="1.0" stroke-linecap="round" stroke-linejoin="round"/>
    <path d="M 171.81939697265625 119.96590423583984 C 172.4602813720703 89.8864517211914 184.09844970703125 124.24752044677734 186.97283935546875 72.49398040771484" stroke-width="2" fill="none" stroke="rgb(0, 0, 0)" stroke-opacity="1.0" stroke-linecap="round" stroke-linejoin="round"/>
    <path d="M 59.906227111816406 104.72490692138672 C 91.98101806640625 93.45179748535156 104.57952880859375 131.8712615966797 98.54650115966797 99.6490249633789" stroke-width="2" fill="none" stroke="rgb(0, 0, 0)" stroke-opacity="1.0" stroke-linecap="round" stroke-linejoin="round"/>
  </g>
</svg>
