<?xml version="1.0" ?>
<svg xmlns="http://www.w3.org/2000/svg" version="1.1" width="224" height="224">
  <defs/>
  <g>
    <path d="M 144.39401245117188 130.6110382080078 C 75.11600494384766 141.5381622314453 85.7647933959961 111.49850463867188 98.40921020507812 134.5274200439453" stroke-width="2" fill="none" stroke="rgb(0, 0, 0)" stroke-opacity="1.0" stroke-linecap="round" stroke-linejoin="round"/>
    <path d="M 100.78754425048828 95.96199798583984 C 139.33358764648438 117.70114135742188 80.96937561035156 134.59706115722656 163.65493774414062 136.41761779785156" stroke-width="2" fill="none" stroke="rgb(0, 0, 0)" stroke-opacity="1.0" stroke-linecap="round" stroke-linejoin="round"/>
    <path d="M 52.08576202392578 105.05693817138672 C -23.995817184448242 169.9295654296875 198.7742919921875 160.0753936767578 161.1330108642578 139.3438720703125" stroke-width="2" fill="none" stroke="rgb(0, 0, 0)" stroke-opacity="1.0" stroke-linecap="round" stroke-linejoin="round"/>
    <path d="M 131.33445739746094 123.7820053100586 C 188.2208709716797 127.10277557373047 147.87258911132812 83.43424224853516 168.6748046875 97.16234588623047" stroke-width="2" fill="none" stroke="rgb(0, 0, 0)" stroke-opacity="1.0" stroke-linecap="round" stroke-linejoin="round"/>
    <path d="M 103.34037017822266 69.28839874267578 C 143.79953002929688 110.65497589111328 134.03445434570312 69.95011901855469 158.83810424804688 88.3729476928711" stroke-width="2" fill="none" stroke="rgb(0, 0, 0)" stroke-opacity="1.0" stroke-linecap="round" stroke-linejoin="round"/>
    <path d="M 126.83025360107422 113.98591613769531 C 184.44686889648438 94.128662109375 82.0772476196289 121.53153228759766 163.01077270507812 116.20525360107422" stroke-width="2" fill="none" stroke="rgb(0, 0, 0)" stroke-opacity="1.0" stroke-linecap="round" stroke-linejoin="round"/>
    <path d="M 73.84555053710938 114.9276123046875 C 100.63597869873047 119.96503448486328 49.23238754272461 94.92057800292969 163.31053161621094 114.67784118652344" stroke-width="2" fill="none" stroke="rgb(0, 0, 0)" stroke-opacity="1.0" stroke-linecap="round" stroke-linejoin="round"/>
    <path d="M 104.59646606445312 69.88232421875 C 129.63780212402344 125.92743682861328 52.921607971191406 68.90830993652344 48.38803482055664 119.73709869384766" stroke-width="2" fill="none" stroke="rgb(0, 0, 0)" stroke-opacity="1.0" stroke-linecap="round" stroke-linejoin="round"/>
    <path d="M 156.61892700195312 126.5677490234375 C 123.86927795410156 122.39933776855469 187.84243774414062 108.11520385742188 157.0236358642578 105.1088638305664" stroke-width="2" fill="none" stroke="rgb(0, 0, 0)" stroke-opacity="1.0" stroke-linecap="round" stroke-linejoin="round"/>
    <path d="M 115.96639251708984 154.17254638671875 C 238.00709533691406 156.73281860351562 133.51504516601562 123.04918670654297 172.1596221923828 100.25813293457031" stroke-width="2" fill="none" stroke="rgb(0, 0, 0)" stroke-opacity="1.0" stroke-linecap="round" stroke-linejoin="round"/>
    <path d="M 175.47647094726562 98.00993347167969 C 198.49264526367188 26.094762802124023 167.40032958984375 94.36077117919922 161.85948181152344 86.21354675292969" stroke-width="2" fill="none" stroke="rgb(0, 0, 0)" stroke-opacity="1.0" stroke-linecap="round" stroke-linejoin="round"/>
    <path d="M 119.51830291748047 108.56875610351562 C 97.8924789428711 97.94391632080078 119.76334381103516 75.47373962402344 88.55719757080078 90.96723937988281" stroke-width="2" fill="none" stroke="rgb(0, 0, 0)" stroke-opacity="1.0" stroke-linecap="round" stroke-linejoin="round"/>
    <path d="M 102.17449188232422 134.92337036132812 C 90.93606567382812 128.9633026123047 116.83489227294922 133.70277404785156 113.12400817871094 136.8905487060547" stroke-width="2" fill="none" stroke="rgb(0, 0, 0)" stroke-opacity="1.0" stroke-linecap="round" stroke-linejoin="round"/>
    <path d="M 94.75126647949219 142.05946350097656 C -1.3892241716384888 125.46147918701172 150.9273681640625 168.9278106689453 145.63368225097656 142.71826171875" stroke-width="2" fill="none" stroke="rgb(0, 0, 0)" stroke-opacity="1.0" stroke-linecap="round" stroke-linejoin="round"/>
    <path d="M 129.4441680908203 107.70960998535156 C 187.01535034179688 107.6208267211914 99.1312026977539 96.081787109375 157.91197204589844 121.4538345336914" stroke-width="2" fill="none" stroke="rgb(0, 0, 0)" stroke-opacity="1.0" stroke-linecap="round" stroke-linejoin="round"/>
    <path d="M 160.28305053710938 111.82433319091797 C 84.7081298828125 124.37662506103516 186.0520782470703 137.3105010986328 147.6856231689453 117.05191040039062" stroke-width="2" fill="none" stroke="rgb(0, 0, 0)" stroke-opacity="1.0" stroke-linecap="round" stroke-linejoin="round"/>
  </g>
</svg>
