<?xml version="1.0" ?>
<svg xmlns="http://www.w3.org/2000/svg" version="1.1" width="224" height="224">
  <defs/>
  <g>
    <path d="M 158.3580322265625 142.79965209960938 C 74.4746322631836 142.56285095214844 86.21062469482422 121.89573669433594 99.49848937988281 135.30735778808594" stroke-width="2" fill="none" stroke="rgb(0, 0, 0)" stroke-opacity="1.0" stroke-linecap="round" stroke-linejoin="round"/>
    <path d="M 52.00439453125 108.69442749023438 C 156.54409790039062 86.24400329589844 84.7647933959961 139.22244262695312 141.88333129882812 138.48812866210938" stroke-width="2" fill="none" stroke="rgb(0, 0, 0)" stroke-opacity="1.0" stroke-linecap="round" stroke-linejoin="round"/>
    <path d="M 57.82732391357422 103.5046615600586 C -28.70212745666504 178.39334106445312 220.173828125 143.09625244140625 149.51556396484375 152.30079650878906" stroke-width="2" fill="none" stroke="rgb(0, 0, 0)" stroke-opacity="1.0" stroke-linecap="round" stroke-linejoin="round"/>
    <path d="M 116.15450286865234 118.0662841796875 C 206.22183227539062 107.3644027709961 136.81356811523438 116.28523254394531 159.37493896484375 115.69847106933594" stroke-width="2" fill="none" stroke="rgb(0, 0, 0)" stroke-opacity="1.0" stroke-linecap="round" stroke-linejoin="round"/>
    <path d="M 107.13700866699219 75.81942749023438 C 151.67494201660156 124.0602798461914 145.48094177246094 60.78783416748047 168.72259521484375 92.60459899902344" stroke-width="2" fill="none" stroke="rgb(0, 0, 0)" stroke-opacity="1.0" stroke-linecap="round" stroke-linejoin="round"/>
    <path d="M 112.87615966796875 103.21231079101562 C 153.2885284423828 87.90033721923828 55.94935989379883 121.25545501708984 146.7188262939453 142.6104736328125" stroke-width="2" fill="none" stroke="rgb(0, 0, 0)" stroke-opacity="1.0" stroke-linecap="round" stroke-linejoin="round"/>
    <path d="M 63.303836822509766 128.93600463867188 C 82.56039428710938 136.17637634277344 30.288700103759766 130.35035705566406 123.16160583496094 146.1448516845703" stroke-width="2" fill="none" stroke="rgb(0, 0, 0)" stroke-opacity="1.0" stroke-linecap="round" stroke-linejoin="round"/>
    <path d="M 100.22496032714844 91.31729125976562 C 105.14314270019531 138.12449645996094 38.72646713256836 83.87410736083984 47.229896545410156 119.1777114868164" stroke-width="2" fill="none" stroke="rgb(0, 0, 0)" stroke-opacity="1.0" stroke-linecap="round" stroke-linejoin="round"/>
    <path d="M 150.0293731689453 108.68659210205078 C 126.21598052978516 141.6188507080078 200.46908569335938 128.8113555908203 133.32630920410156 135.17430114746094" stroke-width="2" fill="none" stroke="rgb(0, 0, 0)" stroke-opacity="1.0" stroke-linecap="round" stroke-linejoin="round"/>
    <path d="M 131.74574279785156 151.3061981201172 C 213.93572998046875 158.63856506347656 150.56790161132812 124.14179229736328 168.67506408691406 104.78849029541016" stroke-width="2" fill="none" stroke="rgb(0, 0, 0)" stroke-opacity="1.0" stroke-linecap="round" stroke-linejoin="round"/>
    <path d="M 170.81085205078125 102.06529998779297 C 199.74679565429688 15.212539672851562 153.59384155273438 100.07268524169922 171.80532836914062 82.90059661865234" stroke-width="2" fill="none" stroke="rgb(0, 0, 0)" stroke-opacity="1.0" stroke-linecap="round" stroke-linejoin="round"/>
    <path d="M 115.0421142578125 101.50233459472656 C 103.38899993896484 54.34585189819336 94.71226501464844 63.26240158081055 97.63665008544922 88.14676666259766" stroke-width="2" fill="none" stroke="rgb(0, 0, 0)" stroke-opacity="1.0" stroke-linecap="round" stroke-linejoin="round"/>
    <path d="M 99.11277770996094 152.0665740966797 C -1.8864333629608154 139.3511962890625 78.48980712890625 152.53851318359375 69.89637756347656 150.0080108642578" stroke-width="2" fill="none" stroke="rgb(0, 0, 0)" stroke-opacity="1.0" stroke-linecap="round" stroke-linejoin="round"/>
    <path d="M 67.09744262695312 137.75091552734375 C 32.17180633544922 113.49226379394531 152.2099609375 187.51417541503906 171.4879913330078 122.38810729980469" stroke-width="2" fill="none" stroke="rgb(0, 0, 0)" stroke-opacity="1.0" stroke-linecap="round" stroke-linejoin="round"/>
    <path d="M 114.79998779296875 120.00091552734375 C 173.635498046875 106.3886947631836 92.8228759765625 96.37615203857422 161.23199462890625 118.71605682373047" stroke-width="2" fill="none" stroke="rgb(0, 0, 0)" stroke-opacity="1.0" stroke-linecap="round" stroke-linejoin="round"/>
    <path d="M 155.67279052734375 123.22845458984375 C 71.15872955322266 114.64909362792969 141.96218872070312 109.94245910644531 107.4085693359375 106.10015869140625" stroke-width="2" fill="none" stroke="rgb(0, 0, 0)" stroke-opacity="1.0" stroke-linecap="round" stroke-linejoin="round"/>
  </g>
</svg>
