<?xml version="1.0" ?>
<svg xmlns="http://www.w3.org/2000/svg" version="1.1" width="224" height="224">
  <defs/>
  <g>
    <path d="M 75.30471801757812 151.8595733642578 C 2.470146656036377 119.56975555419922 88.34506225585938 77.85503387451172 102.81181335449219 130.37095642089844" stroke-width="2" fill="none" stroke="rgb(0, 0, 0)" stroke-opacity="1.0" stroke-linecap="round" stroke-linejoin="round"/>
    <path d="M 144.92539978027344 140.51014709472656 C 228.65786743164062 144.94004821777344 105.74734497070312 129.82400512695312 108.49429321289062 130.98858642578125" stroke-width="2" fill="none" stroke="rgb(0, 0, 0)" stroke-opacity="1.0" stroke-linecap="round" stroke-linejoin="round"/>
    <path d="M 66.845947265625 144.53013610839844 C 14.539780616760254 118.75852966308594 89.89448547363281 153.66220092773438 140.11883544921875 152.34593200683594" stroke-width="2" fill="none" stroke="rgb(0, 0, 0)" stroke-opacity="1.0" stroke-linecap="round" stroke-linejoin="round"/>
    <path d="M 180.8992919921875 105.01129150390625 C 168.87130737304688 132.94369506835938 177.68606567382812 80.61428833007812 164.9507598876953 130.21946716308594" stroke-width="2" fill="none" stroke="rgb(0, 0, 0)" stroke-opacity="1.0" stroke-linecap="round" stroke-linejoin="round"/>
    <path d="M 103.08100891113281 76.98600769042969 C 125.12211608886719 111.91360473632812 121.95985412597656 75.5257339477539 144.81419372558594 95.49937438964844" stroke-width="2" fill="none" stroke="rgb(0, 0, 0)" stroke-opacity="1.0" stroke-linecap="round" stroke-linejoin="round"/>
    <path d="M 100.2052230834961 128.6699981689453 C 23.207515716552734 122.89059448242188 109.1213150024414 129.4169921875 54.52732849121094 117.2148666381836" stroke-width="2" fill="none" stroke="rgb(0, 0, 0)" stroke-opacity="1.0" stroke-linecap="round" stroke-linejoin="round"/>
    <path d="M 123.39005279541016 129.1588897705078 C 99.49409484863281 97.2079849243164 147.35243225097656 78.49876403808594 107.16424560546875 116.22364044189453" stroke-width="2" fill="none" stroke="rgb(0, 0, 0)" stroke-opacity="1.0" stroke-linecap="round" stroke-linejoin="round"/>
    <path d="M 94.25809478759766 153.72178649902344 C 106.15399169921875 155.0501251220703 -2.0943918228149414 160.65982055664062 64.4327392578125 99.09068298339844" stroke-width="2" fill="none" stroke="rgb(0, 0, 0)" stroke-opacity="1.0" stroke-linecap="round" stroke-linejoin="round"/>
    <path d="M 172.86195373535156 92.57076263427734 C 139.81637573242188 93.6413803100586 192.1765899658203 129.3416748046875 178.69090270996094 143.26248168945312" stroke-width="2" fill="none" stroke="rgb(0, 0, 0)" stroke-opacity="1.0" stroke-linecap="round" stroke-linejoin="round"/>
    <path d="M 128.9197540283203 119.18690490722656 C 214.15768432617188 127.09800720214844 103.48847198486328 127.95342254638672 163.4421844482422 122.84770202636719" stroke-width="2" fill="none" stroke="rgb(0, 0, 0)" stroke-opacity="1.0" stroke-linecap="round" stroke-linejoin="round"/>
    <path d="M 182.4304656982422 68.06102752685547 C 180.8483428955078 57.6822395324707 174.5887908935547 97.12810516357422 147.64845275878906 86.94845581054688" stroke-width="2" fill="none" stroke="rgb(0, 0, 0)" stroke-opacity="1.0" stroke-linecap="round" stroke-linejoin="round"/>
    <path d="M 179.87892150878906 151.0938262939453 C 175.8985595703125 174.34451293945312 59.95600128173828 112.63373565673828 88.06348419189453 131.66249084472656" stroke-width="2" fill="none" stroke="rgb(0, 0, 0)" stroke-opacity="1.0" stroke-linecap="round" stroke-linejoin="round"/>
    <path d="M 139.24639892578125 147.45265197753906 C 16.399871826171875 138.62034606933594 216.81300354003906 186.33221435546875 176.28070068359375 135.81463623046875" stroke-width="2" fill="none" stroke="rgb(0, 0, 0)" stroke-opacity="1.0" stroke-linecap="round" stroke-linejoin="round"/>
    <path d="M 131.6039581298828 122.06346130371094 C 189.295166015625 108.40280151367188 124.36304473876953 121.77879333496094 167.8225555419922 131.07559204101562" stroke-width="2" fill="none" stroke="rgb(0, 0, 0)" stroke-opacity="1.0" stroke-linecap="round" stroke-linejoin="round"/>
    <path d="M 158.0100555419922 106.6884536743164 C 142.07591247558594 88.76956939697266 184.36776733398438 141.59934997558594 183.59417724609375 63.476043701171875" stroke-width="2" fill="none" stroke="rgb(0, 0, 0)" stroke-opacity="1.0" stroke-linecap="round" stroke-linejoin="round"/>
    <path d="M 175.4166259765625 136.4971923828125 C 149.2815399169922 125.80606842041016 192.7487030029297 123.1328353881836 151.2066650390625 135.41383361816406" stroke-width="2" fill="none" stroke="rgb(0, 0, 0)" stroke-opacity="1.0" stroke-linecap="round" stroke-linejoin="round"/>
  </g>
</svg>
