<?xml version="1.0" ?>
<svg xmlns="http://www.w3.org/2000/svg" version="1.1" width="224" height="224">
  <defs/>
  <g>
    <path d="M 60.068687438964844 151.41734313964844 C 1.494235634803772 125.0249252319336 105.88021087646484 61.718624114990234 110.9203872680664 119.53653717041016" stroke-width="2" fill="none" stroke="rgb(0, 0, 0)" stroke-opacity="1.0" stroke-linecap="round" stroke-linejoin="round"/>
    <path d="M 165.7688751220703 147.35202026367188 C 207.05154418945312 140.87149047851562 103.3075942993164 148.14599609375 134.45481872558594 108.40110778808594" stroke-width="2" fill="none" stroke="rgb(0, 0, 0)" stroke-opacity="1.0" stroke-linecap="round" stroke-linejoin="round"/>
    <path d="M 74.7910385131836 133.40237426757812 C -2.249234676361084 123.95854949951172 255.63734436035156 184.1223907470703 154.53712463378906 114.87307739257812" stroke-width="2" fill="none" stroke="rgb(0, 0, 0)" stroke-opacity="1.0" stroke-linecap="round" stroke-linejoin="round"/>
    <path d="M 122.35796356201172 111.4160385131836 C 192.2147979736328 98.34495544433594 107.08368682861328 93.23528289794922 172.4813690185547 104.76715087890625" stroke-width="2" fill="none" stroke="rgb(0, 0, 0)" stroke-opacity="1.0" stroke-linecap="round" stroke-linejoin="round"/>
    <path d="M 106.07962799072266 71.97818756103516 C 115.94727325439453 103.27455139160156 128.0167999267578 63.063873291015625 147.52259826660156 104.91819763183594" stroke-width="2" fill="none" stroke="rgb(0, 0, 0)" stroke-opacity="1.0" stroke-linecap="round" stroke-linejoin="round"/>
    <path d="M 106.82131958007812 97.51766204833984 C 77.13147735595703 99.43915557861328 113.7042007446289 122.17705535888672 104.4809799194336 80.0215835571289" stroke-width="2" fill="none" stroke="rgb(0, 0, 0)" stroke-opacity="1.0" stroke-linecap="round" stroke-linejoin="round"/>
    <path d="M 144.8600616455078 118.23994445800781 C 113.64463806152344 108.60922241210938 180.16448974609375 132.4550323486328 114.48928833007812 113.16669464111328" stroke-width="2" fill="none" stroke="rgb(0, 0, 0)" stroke-opacity="1.0" stroke-linecap="round" stroke-linejoin="round"/>
    <path d="M 134.18930053710938 152.7465057373047 C 151.91387939453125 161.82054138183594 6.779032230377197 163.05026245117188 53.074459075927734 109.02947998046875" stroke-width="2" fill="none" stroke="rgb(0, 0, 0)" stroke-opacity="1.0" stroke-linecap="round" stroke-linejoin="round"/>
    <path d="M 152.94509887695312 127.29685974121094 C 110.78865814208984 134.74855041503906 186.4060821533203 128.619384765625 145.1484375 131.09796142578125" stroke-width="2" fill="none" stroke="rgb(0, 0, 0)" stroke-opacity="1.0" stroke-linecap="round" stroke-linejoin="round"/>
    <path d="M 121.08320617675781 133.1595001220703 C 196.12240600585938 136.6761932373047 116.57205963134766 125.36396026611328 154.81056213378906 122.91643524169922" stroke-width="2" fill="none" stroke="rgb(0, 0, 0)" stroke-opacity="1.0" stroke-linecap="round" stroke-linejoin="round"/>
    <path d="M 172.40293884277344 78.51356506347656 C 189.08148193359375 36.72473907470703 165.7792510986328 99.3257064819336 147.6871337890625 93.36749267578125" stroke-width="2" fill="none" stroke="rgb(0, 0, 0)" stroke-opacity="1.0" stroke-linecap="round" stroke-linejoin="round"/>
    <path d="M 122.5620346069336 155.83909606933594 C 152.55966186523438 163.10850524902344 58.233177185058594 138.56777954101562 97.24653625488281 139.814697265625" stroke-width="2" fill="none" stroke="rgb(0, 0, 0)" stroke-opacity="1.0" stroke-linecap="round" stroke-linejoin="round"/>
    <path d="M 76.22976684570312 155.54396057128906 C -27.935136795043945 119.69290161132812 165.2619171142578 167.03416442871094 164.71620178222656 149.89849853515625" stroke-width="2" fill="none" stroke="rgb(0, 0, 0)" stroke-opacity="1.0" stroke-linecap="round" stroke-linejoin="round"/>
    <path d="M 139.8429412841797 145.3748321533203 C 124.90872955322266 145.2065887451172 191.1256103515625 148.75672912597656 160.30784606933594 108.29721069335938" stroke-width="2" fill="none" stroke="rgb(0, 0, 0)" stroke-opacity="1.0" stroke-linecap="round" stroke-linejoin="round"/>
    <path d="M 160.17413330078125 122.32189178466797 C 128.88848876953125 106.48382568359375 184.13735961914062 139.01947021484375 182.71446228027344 66.47559356689453" stroke-width="2" fill="none" stroke="rgb(0, 0, 0)" stroke-opacity="1.0" stroke-linecap="round" stroke-linejoin="round"/>
    <path d="M 179.3704071044922 145.20126342773438 C 148.87432861328125 140.41404724121094 201.3310089111328 60.78525924682617 158.40472412109375 93.28543853759766" stroke-width="2" fill="none" stroke="rgb(0, 0, 0)" stroke-opacity="1.0" stroke-linecap="round" stroke-linejoin="round"/>
  </g>
</svg>
