<?xml version="1.0" ?>
<svg xmlns="http://www.w3.org/2000/svg" version="1.1" width="224" height="224">
  <defs/>
  <g>
    <path d="M 82.12767028808594 154.50621032714844 C 41.08372497558594 143.56884765625 52.54772186279297 115.51471710205078 43.59211349487305 142.53042602539062" stroke-width="2" fill="none" stroke="rgb(0, 0, 0)" stroke-opacity="1.0" stroke-linecap="round" stroke-linejoin="round"/>
    <path d="M 91.68815612792969 119.33448791503906 C 130.00314331054688 115.9870376586914 74.1688461303711 161.4896697998047 157.4182586669922 142.87315368652344" stroke-width="2" fill="none" stroke="rgb(0, 0, 0)" stroke-opacity="1.0" stroke-linecap="round" stroke-linejoin="round"/>
    <path d="M 62.94332504272461 99.6782455444336 C -35.381656646728516 168.59268188476562 264.9148254394531 143.62380981445312 139.60231018066406 143.27011108398438" stroke-width="2" fill="none" stroke="rgb(0, 0, 0)" stroke-opacity="1.0" stroke-linecap="round" stroke-linejoin="round"/>
    <path d="M 125.0582275390625 104.88391876220703 C 183.1173553466797 141.93124389648438 119.29332733154297 128.49783325195312 157.06996154785156 131.90423583984375" stroke-width="2" fill="none" stroke="rgb(0, 0, 0)" stroke-opacity="1.0" stroke-linecap="round" stroke-linejoin="round"/>
    <path d="M 99.86589050292969 73.37732696533203 C 110.2625503540039 87.73149871826172 146.2112274169922 67.21546173095703 141.2881317138672 88.7911148071289" stroke-width="2" fill="none" stroke="rgb(0, 0, 0)" stroke-opacity="1.0" stroke-linecap="round" stroke-linejoin="round"/>
    <path d="M 137.15609741210938 128.17845153808594 C 178.36224365234375 130.8336639404297 147.89501953125 104.85745239257812 156.27357482910156 120.17664337158203" stroke-width="2" fill="none" stroke="rgb(0, 0, 0)" stroke-opacity="1.0" stroke-linecap="round" stroke-linejoin="round"/>
    <path d="M 129.40660095214844 112.55805969238281 C 191.7125244140625 93.24591827392578 108.52078247070312 117.20999145507812 127.73412322998047 128.86109924316406" stroke-width="2" fill="none" stroke="rgb(0, 0, 0)" stroke-opacity="1.0" stroke-linecap="round" stroke-linejoin="round"/>
    <path d="M 100.92803192138672 71.5450439453125 C 144.32398986816406 129.42178344726562 63.29521942138672 75.14122009277344 64.53517150878906 115.18098449707031" stroke-width="2" fill="none" stroke="rgb(0, 0, 0)" stroke-opacity="1.0" stroke-linecap="round" stroke-linejoin="round"/>
    <path d="M 155.56353759765625 117.00828552246094 C 176.80039978027344 112.28687286376953 115.03995513916016 128.90187072753906 167.1897735595703 120.85418701171875" stroke-width="2" fill="none" stroke="rgb(0, 0, 0)" stroke-opacity="1.0" stroke-linecap="round" stroke-linejoin="round"/>
    <path d="M 103.74905395507812 103.71637725830078 C 208.322265625 145.41148376464844 138.810791015625 108.19902038574219 148.48605346679688 129.9735107421875" stroke-width="2" fill="none" stroke="rgb(0, 0, 0)" stroke-opacity="1.0" stroke-linecap="round" stroke-linejoin="round"/>
    <path d="M 171.2373809814453 115.06315612792969 C 205.67221069335938 11.701072692871094 164.30494689941406 103.8231430053711 147.3983154296875 81.1484146118164" stroke-width="2" fill="none" stroke="rgb(0, 0, 0)" stroke-opacity="1.0" stroke-linecap="round" stroke-linejoin="round"/>
    <path d="M 110.43441772460938 76.61664581298828 C 137.53451538085938 88.6919937133789 96.8441390991211 81.46060943603516 113.06796264648438 111.38493347167969" stroke-width="2" fill="none" stroke="rgb(0, 0, 0)" stroke-opacity="1.0" stroke-linecap="round" stroke-linejoin="round"/>
    <path d="M 92.01408386230469 153.5745086669922 C -2.1818201541900635 119.10871124267578 90.64559173583984 160.70606994628906 121.75273895263672 157.98297119140625" stroke-width="2" fill="none" stroke="rgb(0, 0, 0)" stroke-opacity="1.0" stroke-linecap="round" stroke-linejoin="round"/>
    <path d="M 83.17323303222656 131.59982299804688 C 73.52698516845703 146.2324981689453 194.5252227783203 174.7752227783203 170.21377563476562 136.32093811035156" stroke-width="2" fill="none" stroke="rgb(0, 0, 0)" stroke-opacity="1.0" stroke-linecap="round" stroke-linejoin="round"/>
    <path d="M 156.96624755859375 95.89454650878906 C 177.25328063964844 97.21942901611328 144.88421630859375 123.94779968261719 178.3413543701172 90.6010971069336" stroke-width="2" fill="none" stroke="rgb(0, 0, 0)" stroke-opacity="1.0" stroke-linecap="round" stroke-linejoin="round"/>
    <path d="M 126.7374038696289 103.03411865234375 C 109.01895141601562 125.39763641357422 191.00765991210938 81.78941345214844 167.6565704345703 138.5637969970703" stroke-width="2" fill="none" stroke="rgb(0, 0, 0)" stroke-opacity="1.0" stroke-linecap="round" stroke-linejoin="round"/>
  </g>
</svg>
