<?xml version="1.0" ?>
<svg xmlns="http://www.w3.org/2000/svg" version="1.1" width="224" height="224">
  <defs/>
  <g>
    <path d="M 109.97799682617188 155.15940856933594 C 11.957422256469727 160.1044158935547 47.409629821777344 115.6164321899414 43.25050735473633 130.25711059570312" stroke-width="2" fill="none" stroke="rgb(0, 0, 0)" stroke-opacity="1.0" stroke-linecap="round" stroke-linejoin="round"/>
    <path d="M 73.48778533935547 102.13770294189453 C 168.74244689941406 127.07624816894531 49.72014617919922 118.63738250732422 163.04354858398438 129.43280029296875" stroke-width="2" fill="none" stroke="rgb(0, 0, 0)" stroke-opacity="1.0" stroke-linecap="round" stroke-linejoin="round"/>
    <path d="M 49.474735260009766 120.31625366210938 C 9.274450302124023 141.0419464111328 231.7379608154297 195.29052734375 159.08580017089844 103.67134857177734" stroke-width="2" fill="none" stroke="rgb(0, 0, 0)" stroke-opacity="1.0" stroke-linecap="round" stroke-linejoin="round"/>
    <path d="M 129.08392333984375 130.25547790527344 C 190.88748168945312 132.93057250976562 85.61729431152344 117.03620147705078 146.30494689941406 122.58979797363281" stroke-width="2" fill="none" stroke="rgb(0, 0, 0)" stroke-opacity="1.0" stroke-linecap="round" stroke-linejoin="round"/>
    <path d="M 107.6917953491211 66.44198608398438 C 124.77278137207031 93.01970672607422 132.9930877685547 57.46088790893555 143.91583251953125 85.44129180908203" stroke-width="2" fill="none" stroke="rgb(0, 0, 0)" stroke-opacity="1.0" stroke-linecap="round" stroke-linejoin="round"/>
    <path d="M 105.15399932861328 102.67033386230469 C 128.4898223876953 133.2508087158203 90.70740509033203 111.77955627441406 119.84111022949219 87.44378662109375" stroke-width="2" fill="none" stroke="rgb(0, 0, 0)" stroke-opacity="1.0" stroke-linecap="round" stroke-linejoin="round"/>
    <path d="M 155.46975708007812 121.2831802368164 C 141.94081115722656 95.5840835571289 168.04354858398438 172.2848358154297 105.85401153564453 124.15265655517578" stroke-width="2" fill="none" stroke="rgb(0, 0, 0)" stroke-opacity="1.0" stroke-linecap="round" stroke-linejoin="round"/>
    <path d="M 117.46698760986328 75.47593688964844 C 127.87738037109375 141.98219299316406 42.75448226928711 64.96734619140625 45.138648986816406 131.4434356689453" stroke-width="2" fill="none" stroke="rgb(0, 0, 0)" stroke-opacity="1.0" stroke-linecap="round" stroke-linejoin="round"/>
    <path d="M 129.25941467285156 116.77484130859375 C 106.5718765258789 144.44187927246094 184.07351684570312 99.57999420166016 156.8035430908203 129.50672912597656" stroke-width="2" fill="none" stroke="rgb(0, 0, 0)" stroke-opacity="1.0" stroke-linecap="round" stroke-linejoin="round"/>
    <path d="M 77.4499282836914 137.31906127929688 C 187.70846557617188 151.04898071289062 89.0114517211914 140.58631896972656 116.85443115234375 123.67066955566406" stroke-width="2" fill="none" stroke="rgb(0, 0, 0)" stroke-opacity="1.0" stroke-linecap="round" stroke-linejoin="round"/>
    <path d="M 164.5394744873047 120.18798065185547 C 217.0182647705078 10.555259704589844 160.73277282714844 92.42708587646484 155.59857177734375 83.87132263183594" stroke-width="2" fill="none" stroke="rgb(0, 0, 0)" stroke-opacity="1.0" stroke-linecap="round" stroke-linejoin="round"/>
    <path d="M 126.08157348632812 115.01143646240234 C 156.8838653564453 100.55220794677734 88.47147369384766 127.66105651855469 99.41183471679688 115.31591796875" stroke-width="2" fill="none" stroke="rgb(0, 0, 0)" stroke-opacity="1.0" stroke-linecap="round" stroke-linejoin="round"/>
    <path d="M 101.36228942871094 157.5786590576172 C 53.92485046386719 142.38607788085938 95.22425079345703 147.6873321533203 165.1669464111328 137.859619140625" stroke-width="2" fill="none" stroke="rgb(0, 0, 0)" stroke-opacity="1.0" stroke-linecap="round" stroke-linejoin="round"/>
    <path d="M 148.31130981445312 134.4930419921875 C 83.63510131835938 117.53430938720703 197.24771118164062 135.7685089111328 125.6019287109375 145.457763671875" stroke-width="2" fill="none" stroke="rgb(0, 0, 0)" stroke-opacity="1.0" stroke-linecap="round" stroke-linejoin="round"/>
    <path d="M 174.27793884277344 100.7829360961914 C 180.7482452392578 67.97665405273438 194.0023651123047 119.12471008300781 151.5120086669922 94.57634735107422" stroke-width="2" fill="none" stroke="rgb(0, 0, 0)" stroke-opacity="1.0" stroke-linecap="round" stroke-linejoin="round"/>
    <path d="M 107.4017562866211 131.60926818847656 C 190.6354522705078 178.53468322753906 185.11697387695312 124.99586486816406 153.39874267578125 147.40548706054688" stroke-width="2" fill="none" stroke="rgb(0, 0, 0)" stroke-opacity="1.0" stroke-linecap="round" stroke-linejoin="round"/>
  </g>
</svg>
