<?xml version="1.0" ?>
<svg xmlns="http://www.w3.org/2000/svg" version="1.1" width="224" height="224">
  <defs/>
  <g>
    <path d="M 121.23175048828125 141.7637939453125 C 48.23941421508789 139.54029846191406 59.506622314453125 115.25906372070312 69.50386810302734 131.5927734375" stroke-width="2" fill="none" stroke="rgb(0, 0, 0)" stroke-opacity="1.0" stroke-linecap="round" stroke-linejoin="round"/>
    <path d="M 92.43301391601562 110.46553039550781 C 136.16697692871094 113.57643127441406 72.2951431274414 142.68167114257812 158.67315673828125 141.3628387451172" stroke-width="2" fill="none" stroke="rgb(0, 0, 0)" stroke-opacity="1.0" stroke-linecap="round" stroke-linejoin="round"/>
    <path d="M 56.666133880615234 101.6613540649414 C -35.21599578857422 182.80947875976562 243.18162536621094 150.88502502441406 121.47040557861328 147.67385864257812" stroke-width="2" fill="none" stroke="rgb(0, 0, 0)" stroke-opacity="1.0" stroke-linecap="round" stroke-linejoin="round"/>
    <path d="M 155.12026977539062 105.94988250732422 C 181.1907958984375 119.26187896728516 127.45349884033203 95.98129272460938 142.72723388671875 111.68145751953125" stroke-width="2" fill="none" stroke="rgb(0, 0, 0)" stroke-opacity="1.0" stroke-linecap="round" stroke-linejoin="round"/>
    <path d="M 111.04794311523438 71.45298767089844 C 132.05931091308594 97.7015151977539 120.08451843261719 75.02867126464844 145.61233520507812 91.09193420410156" stroke-width="2" fill="none" stroke="rgb(0, 0, 0)" stroke-opacity="1.0" stroke-linecap="round" stroke-linejoin="round"/>
    <path d="M 150.2728271484375 122.22242736816406 C 166.52647399902344 135.55430603027344 93.98450469970703 114.2447509765625 144.81051635742188 122.51702880859375" stroke-width="2" fill="none" stroke="rgb(0, 0, 0)" stroke-opacity="1.0" stroke-linecap="round" stroke-linejoin="round"/>
    <path d="M 127.95561218261719 115.92003631591797 C 177.38124084472656 106.32119750976562 58.851009368896484 153.4737091064453 155.59449768066406 147.47409057617188" stroke-width="2" fill="none" stroke="rgb(0, 0, 0)" stroke-opacity="1.0" stroke-linecap="round" stroke-linejoin="round"/>
    <path d="M 98.95580291748047 70.28160095214844 C 121.53165435791016 127.82860565185547 51.557594299316406 75.93902587890625 46.35648727416992 120.67314910888672" stroke-width="2" fill="none" stroke="rgb(0, 0, 0)" stroke-opacity="1.0" stroke-linecap="round" stroke-linejoin="round"/>
    <path d="M 130.6875457763672 117.55091094970703 C 169.1661376953125 128.47683715820312 120.75279998779297 131.0142059326172 150.9538116455078 130.9126739501953" stroke-width="2" fill="none" stroke="rgb(0, 0, 0)" stroke-opacity="1.0" stroke-linecap="round" stroke-linejoin="round"/>
    <path d="M 128.64132690429688 124.07086944580078 C 190.29603576660156 129.93698120117188 126.98271179199219 87.06767272949219 150.8397216796875 85.85404968261719" stroke-width="2" fill="none" stroke="rgb(0, 0, 0)" stroke-opacity="1.0" stroke-linecap="round" stroke-linejoin="round"/>
    <path d="M 169.6631622314453 116.16574096679688 C 198.65122985839844 -0.33685964345932007 164.7234649658203 100.1051025390625 151.08677673339844 91.11566925048828" stroke-width="2" fill="none" stroke="rgb(0, 0, 0)" stroke-opacity="1.0" stroke-linecap="round" stroke-linejoin="round"/>
    <path d="M 101.04434967041016 77.15556335449219 C 122.95675659179688 73.95270538330078 79.10509490966797 77.00645446777344 111.09053039550781 106.91192626953125" stroke-width="2" fill="none" stroke="rgb(0, 0, 0)" stroke-opacity="1.0" stroke-linecap="round" stroke-linejoin="round"/>
    <path d="M 74.85293579101562 154.08456420898438 C -6.371648788452148 121.19971466064453 84.59432220458984 154.88186645507812 115.56266784667969 147.81114196777344" stroke-width="2" fill="none" stroke="rgb(0, 0, 0)" stroke-opacity="1.0" stroke-linecap="round" stroke-linejoin="round"/>
    <path d="M 97.28125762939453 140.27487182617188 C 65.33116149902344 144.45443725585938 206.24026489257812 184.084716796875 182.03907775878906 131.08607482910156" stroke-width="2" fill="none" stroke="rgb(0, 0, 0)" stroke-opacity="1.0" stroke-linecap="round" stroke-linejoin="round"/>
    <path d="M 146.8569793701172 93.32005310058594 C 165.95339965820312 94.6781997680664 149.9613037109375 125.06851196289062 179.57334899902344 97.17383575439453" stroke-width="2" fill="none" stroke="rgb(0, 0, 0)" stroke-opacity="1.0" stroke-linecap="round" stroke-linejoin="round"/>
    <path d="M 129.27908325195312 111.89588165283203 C 88.28239440917969 120.44940948486328 179.15879821777344 80.33482360839844 168.3982696533203 132.3415985107422" stroke-width="2" fill="none" stroke="rgb(0, 0, 0)" stroke-opacity="1.0" stroke-linecap="round" stroke-linejoin="round"/>
  </g>
</svg>
