<?xml version="1.0" ?>
<svg xmlns="http://www.w3.org/2000/svg" version="1.1" width="224" height="224">
  <defs/>
  <g>
    <path d="M 129.35205078125 148.60491943359375 C 26.24473762512207 156.41604614257812 36.803218841552734 126.53507995605469 51.5355224609375 151.11349487304688" stroke-width="2" fill="none" stroke="rgb(0, 0, 0)" stroke-opacity="1.0" stroke-linecap="round" stroke-linejoin="round"/>
    <path d="M 58.61813735961914 102.49483489990234 C 178.2047119140625 82.25261688232422 74.02045440673828 109.72795867919922 160.31195068359375 113.16187286376953" stroke-width="2" fill="none" stroke="rgb(0, 0, 0)" stroke-opacity="1.0" stroke-linecap="round" stroke-linejoin="round"/>
    <path d="M 45.816654205322266 115.8917236328125 C 5.607292652130127 161.6398162841797 248.31228637695312 189.1145782470703 152.8412628173828 105.75212097167969" stroke-width="2" fill="none" stroke="rgb(0, 0, 0)" stroke-opacity="1.0" stroke-linecap="round" stroke-linejoin="round"/>
    <path d="M 133.63352966308594 119.87149047851562 C 172.01612854003906 104.73797607421875 89.88395690917969 130.71054077148438 155.54270935058594 115.4245834350586" stroke-width="2" fill="none" stroke="rgb(0, 0, 0)" stroke-opacity="1.0" stroke-linecap="round" stroke-linejoin="round"/>
    <path d="M 96.74657440185547 73.77018737792969 C 124.49373626708984 107.21355438232422 102.4972915649414 65.49144744873047 155.97769165039062 94.49980926513672" stroke-width="2" fill="none" stroke="rgb(0, 0, 0)" stroke-opacity="1.0" stroke-linecap="round" stroke-linejoin="round"/>
    <path d="M 119.14619445800781 112.03013610839844 C 165.05079650878906 97.80335235595703 111.19310760498047 156.36083984375 140.08212280273438 121.17572021484375" stroke-width="2" fill="none" stroke="rgb(0, 0, 0)" stroke-opacity="1.0" stroke-linecap="round" stroke-linejoin="round"/>
    <path d="M 124.09149169921875 126.99772644042969 C 161.5918426513672 139.0609893798828 146.9371795654297 148.64797973632812 98.11563873291016 140.7156524658203" stroke-width="2" fill="none" stroke="rgb(0, 0, 0)" stroke-opacity="1.0" stroke-linecap="round" stroke-linejoin="round"/>
    <path d="M 98.5802001953125 78.05667877197266 C 116.05323791503906 146.85984802246094 54.79103469848633 53.533119201660156 49.2997932434082 121.54702758789062" stroke-width="2" fill="none" stroke="rgb(0, 0, 0)" stroke-opacity="1.0" stroke-linecap="round" stroke-linejoin="round"/>
    <path d="M 159.33572387695312 116.7283706665039 C 138.72853088378906 131.90684509277344 155.2080535888672 108.97341918945312 158.05433654785156 126.98704528808594" stroke-width="2" fill="none" stroke="rgb(0, 0, 0)" stroke-opacity="1.0" stroke-linecap="round" stroke-linejoin="round"/>
    <path d="M 48.243370056152344 146.2566680908203 C 233.6828155517578 157.7642364501953 128.94374084472656 139.7989959716797 139.39218139648438 157.9700927734375" stroke-width="2" fill="none" stroke="rgb(0, 0, 0)" stroke-opacity="1.0" stroke-linecap="round" stroke-linejoin="round"/>
    <path d="M 165.9436798095703 128.42977905273438 C 205.31201171875 2.9107394218444824 162.7280731201172 93.80879211425781 154.4561767578125 85.88785552978516" stroke-width="2" fill="none" stroke="rgb(0, 0, 0)" stroke-opacity="1.0" stroke-linecap="round" stroke-linejoin="round"/>
    <path d="M 105.77975463867188 132.1704864501953 C 131.07484436035156 122.60800170898438 93.09565734863281 117.65495300292969 112.72325134277344 100.49661254882812" stroke-width="2" fill="none" stroke="rgb(0, 0, 0)" stroke-opacity="1.0" stroke-linecap="round" stroke-linejoin="round"/>
    <path d="M 78.42022705078125 126.26451873779297 C 39.7311897277832 112.0824203491211 151.9853515625 164.4788055419922 162.9569854736328 145.75682067871094" stroke-width="2" fill="none" stroke="rgb(0, 0, 0)" stroke-opacity="1.0" stroke-linecap="round" stroke-linejoin="round"/>
    <path d="M 99.68036651611328 124.79588317871094 C 68.3994369506836 131.87008666992188 206.94540405273438 147.76197814941406 127.9731216430664 145.16702270507812" stroke-width="2" fill="none" stroke="rgb(0, 0, 0)" stroke-opacity="1.0" stroke-linecap="round" stroke-linejoin="round"/>
    <path d="M 172.3292999267578 94.35978698730469 C 170.5853729248047 52.75777816772461 191.87623596191406 114.89110565185547 153.24842834472656 108.48377227783203" stroke-width="2" fill="none" stroke="rgb(0, 0, 0)" stroke-opacity="1.0" stroke-linecap="round" stroke-linejoin="round"/>
    <path d="M 131.58529663085938 109.59945678710938 C 139.93380737304688 173.37535095214844 171.13755798339844 98.13323974609375 169.53927612304688 124.18841552734375" stroke-width="2" fill="none" stroke="rgb(0, 0, 0)" stroke-opacity="1.0" stroke-linecap="round" stroke-linejoin="round"/>
  </g>
</svg>
