<?xml version="1.0" ?>
<svg xmlns="http://www.w3.org/2000/svg" version="1.1" width="224" height="224">
  <defs/>
  <g>
    <path d="M 58.39298629760742 156.02734375 C 10.729183197021484 135.55650329589844 90.03740692138672 59.944908142089844 103.58778381347656 114.50830841064453" stroke-width="2" fill="none" stroke="rgb(0, 0, 0)" stroke-opacity="1.0" stroke-linecap="round" stroke-linejoin="round"/>
    <path d="M 150.11087036132812 136.64486694335938 C 141.85765075683594 143.48947143554688 19.09527587890625 108.11615753173828 140.23377990722656 118.1020278930664" stroke-width="2" fill="none" stroke="rgb(0, 0, 0)" stroke-opacity="1.0" stroke-linecap="round" stroke-linejoin="round"/>
    <path d="M 48.84884262084961 133.6977081298828 C 13.170663833618164 141.05821228027344 240.21127319335938 186.35235595703125 162.7818145751953 113.62893676757812" stroke-width="2" fill="none" stroke="rgb(0, 0, 0)" stroke-opacity="1.0" stroke-linecap="round" stroke-linejoin="round"/>
    <path d="M 155.7693634033203 123.60263061523438 C 180.0262908935547 108.76703643798828 136.16989135742188 100.41934967041016 165.77490234375 102.75628662109375" stroke-width="2" fill="none" stroke="rgb(0, 0, 0)" stroke-opacity="1.0" stroke-linecap="round" stroke-linejoin="round"/>
    <path d="M 99.50273895263672 68.2889633178711 C 119.1109619140625 84.39771270751953 112.22478485107422 52.782257080078125 129.17327880859375 80.9938735961914" stroke-width="2" fill="none" stroke="rgb(0, 0, 0)" stroke-opacity="1.0" stroke-linecap="round" stroke-linejoin="round"/>
    <path d="M 106.70387268066406 74.04144287109375 C 102.22234344482422 89.96436309814453 109.09602355957031 99.25215148925781 100.03620147705078 70.80421447753906" stroke-width="2" fill="none" stroke="rgb(0, 0, 0)" stroke-opacity="1.0" stroke-linecap="round" stroke-linejoin="round"/>
    <path d="M 145.08932495117188 131.50155639648438 C 111.36204528808594 116.60225677490234 198.75363159179688 135.0022430419922 81.54749298095703 104.70729064941406" stroke-width="2" fill="none" stroke="rgb(0, 0, 0)" stroke-opacity="1.0" stroke-linecap="round" stroke-linejoin="round"/>
    <path d="M 62.41935348510742 141.4547882080078 C 188.78285217285156 171.13833618164062 3.5508506298065186 139.11436462402344 57.036537170410156 107.17810821533203" stroke-width="2" fill="none" stroke="rgb(0, 0, 0)" stroke-opacity="1.0" stroke-linecap="round" stroke-linejoin="round"/>
    <path d="M 160.33053588867188 126.435791015625 C 87.33367919921875 128.28524780273438 196.47341918945312 139.9057159423828 130.83753967285156 128.45431518554688" stroke-width="2" fill="none" stroke="rgb(0, 0, 0)" stroke-opacity="1.0" stroke-linecap="round" stroke-linejoin="round"/>
    <path d="M 107.98139190673828 115.14110565185547 C 161.5769500732422 94.34170532226562 86.91633605957031 100.31947326660156 150.4226837158203 131.4184112548828" stroke-width="2" fill="none" stroke="rgb(0, 0, 0)" stroke-opacity="1.0" stroke-linecap="round" stroke-linejoin="round"/>
    <path d="M 177.52365112304688 86.8062515258789 C 196.35919189453125 18.755949020385742 168.71713256835938 113.05773162841797 127.17754364013672 87.15998840332031" stroke-width="2" fill="none" stroke="rgb(0, 0, 0)" stroke-opacity="1.0" stroke-linecap="round" stroke-linejoin="round"/>
    <path d="M 173.3876190185547 152.4916229248047 C 204.77462768554688 131.5364532470703 97.90807342529297 160.66627502441406 116.25112915039062 117.59613800048828" stroke-width="2" fill="none" stroke="rgb(0, 0, 0)" stroke-opacity="1.0" stroke-linecap="round" stroke-linejoin="round"/>
    <path d="M 112.24649810791016 137.2203826904297 C -12.106289863586426 110.15049743652344 171.85369873046875 170.02838134765625 142.3553924560547 149.3773956298828" stroke-width="2" fill="none" stroke="rgb(0, 0, 0)" stroke-opacity="1.0" stroke-linecap="round" stroke-linejoin="round"/>
    <path d="M 164.36654663085938 130.60845947265625 C 137.5964813232422 108.34871673583984 177.8253631591797 137.58555603027344 173.94577026367188 125.71180725097656" stroke-width="2" fill="none" stroke="rgb(0, 0, 0)" stroke-opacity="1.0" stroke-linecap="round" stroke-linejoin="round"/>
    <path d="M 170.31155395507812 110.05484771728516 C 117.23600006103516 96.21472930908203 171.94674682617188 129.35240173339844 174.092529296875 71.27613830566406" stroke-width="2" fill="none" stroke="rgb(0, 0, 0)" stroke-opacity="1.0" stroke-linecap="round" stroke-linejoin="round"/>
    <path d="M 167.08734130859375 133.71939086914062 C 170.55645751953125 131.36572265625 180.35842895507812 92.57347106933594 149.77154541015625 88.54833984375" stroke-width="2" fill="none" stroke="rgb(0, 0, 0)" stroke-opacity="1.0" stroke-linecap="round" stroke-linejoin="round"/>
  </g>
</svg>
