<?xml version="1.0" ?>
<svg xmlns="http://www.w3.org/2000/svg" version="1.1" width="224" height="224">
  <defs/>
  <g>
    <path d="M 103.94353485107422 104.54297637939453 C 88.91539764404297 96.56635284423828 63.46375274658203 96.64389038085938 104.91053771972656 92.82401275634766" stroke-width="2" fill="none" stroke="rgb(0, 0, 0)" stroke-opacity="1.0" stroke-linecap="round" stroke-linejoin="round"/>
    <path d="M 134.79588317871094 155.51853942871094 C 106.82054901123047 155.26564025878906 85.97755432128906 156.74290466308594 77.49744415283203 129.8887939453125" stroke-width="2" fill="none" stroke="rgb(0, 0, 0)" stroke-opacity="1.0" stroke-linecap="round" stroke-linejoin="round"/>
    <path d="M 139.7924041748047 148.8575439453125 C 92.02471160888672 137.7603302001953 111.84976959228516 151.7442626953125 131.34103393554688 141.41494750976562" stroke-width="2" fill="none" stroke="rgb(0, 0, 0)" stroke-opacity="1.0" stroke-linecap="round" stroke-linejoin="round"/>
    <path d="M 135.74024963378906 126.81523132324219 C 139.3617401123047 133.46221923828125 160.30836486816406 124.11772155761719 137.57835388183594 127.40404510498047" stroke-width="2" fill="none" stroke="rgb(0, 0, 0)" stroke-opacity="1.0" stroke-linecap="round" stroke-linejoin="round"/>
    <path d="M 110.99983978271484 100.49014282226562 C 120.6576156616211 100.5251693725586 113.53500366210938 77.05235290527344 151.41786193847656 96.09698486328125" stroke-width="2" fill="none" stroke="rgb(0, 0, 0)" stroke-opacity="1.0" stroke-linecap="round" stroke-linejoin="round"/>
    <path d="M 102.80651092529297 74.297607421875 C 103.40494537353516 101.47698211669922 116.03488159179688 135.2028045654297 109.2293701171875 94.07783508300781" stroke-width="2" fill="none" stroke="rgb(0, 0, 0)" stroke-opacity="1.0" stroke-linecap="round" stroke-linejoin="round"/>
    <path d="M 103.359619140625 75.86954498291016 C 110.45025634765625 94.35587310791016 127.68059539794922 93.5694808959961 114.83554077148438 95.86585235595703" stroke-width="2" fill="none" stroke="rgb(0, 0, 0)" stroke-opacity="1.0" stroke-linecap="round" stroke-linejoin="round"/>
    <path d="M 65.27909088134766 140.15809631347656 C 78.6874008178711 152.90406799316406 18.962203979492188 147.68246459960938 51.08693313598633 106.45487976074219" stroke-width="2" fill="none" stroke="rgb(0, 0, 0)" stroke-opacity="1.0" stroke-linecap="round" stroke-linejoin="round"/>
    <path d="M 130.06765747070312 129.90884399414062 C 148.2466278076172 132.72994995117188 149.92007446289062 121.4036636352539 137.61598205566406 126.41954040527344" stroke-width="2" fill="none" stroke="rgb(0, 0, 0)" stroke-opacity="1.0" stroke-linecap="round" stroke-linejoin="round"/>
    <path d="M 119.05860137939453 114.1666488647461 C 139.40235900878906 110.05235290527344 121.11983489990234 115.8161392211914 120.73722076416016 112.53571319580078" stroke-width="2" fill="none" stroke="rgb(0, 0, 0)" stroke-opacity="1.0" stroke-linecap="round" stroke-linejoin="round"/>
    <path d="M 185.7855224609375 69.29009246826172 C 178.47308349609375 72.55006408691406 181.52511596679688 74.878662109375 154.1811065673828 97.06788635253906" stroke-width="2" fill="none" stroke="rgb(0, 0, 0)" stroke-opacity="1.0" stroke-linecap="round" stroke-linejoin="round"/>
    <path d="M 177.8964080810547 142.93875122070312 C 171.90235900878906 154.44253540039062 154.45005798339844 152.20716857910156 130.27413940429688 151.8050994873047" stroke-width="2" fill="none" stroke="rgb(0, 0, 0)" stroke-opacity="1.0" stroke-linecap="round" stroke-linejoin="round"/>
    <path d="M 54.04129409790039 142.53961181640625 C 90.6957778930664 153.38284301757812 99.6929702758789 153.71435546875 88.56182098388672 152.45059204101562" stroke-width="2" fill="none" stroke="rgb(0, 0, 0)" stroke-opacity="1.0" stroke-linecap="round" stroke-linejoin="round"/>
    <path d="M 104.21505737304688 101.0831069946289 C 105.527099609375 95.1602783203125 106.2800064086914 71.50080871582031 127.78008270263672 94.54940032958984" stroke-width="2" fill="none" stroke="rgb(0, 0, 0)" stroke-opacity="1.0" stroke-linecap="round" stroke-linejoin="round"/>
    <path d="M 162.29275512695312 119.27098083496094 C 171.37989807128906 98.62706756591797 184.47691345214844 103.33250427246094 182.90185546875 70.56986236572266" stroke-width="2" fill="none" stroke="rgb(0, 0, 0)" stroke-opacity="1.0" stroke-linecap="round" stroke-linejoin="round"/>
    <path d="M 53.43193817138672 105.50464630126953 C 96.6091537475586 103.42359924316406 75.31758117675781 96.50362396240234 78.84927368164062 105.72002410888672" stroke-width="2" fill="none" stroke="rgb(0, 0, 0)" stroke-opacity="1.0" stroke-linecap="round" stroke-linejoin="round"/>
  </g>
</svg>
