<?xml version="1.0" ?>
<svg xmlns="http://www.w3.org/2000/svg" version="1.1" width="224" height="224">
  <defs/>
  <g>
    <path d="M 59.13072967529297 153.72750854492188 C -1.5877430438995361 128.7622833251953 115.47560119628906 59.519569396972656 116.12126922607422 113.63655853271484" stroke-width="2" fill="none" stroke="rgb(0, 0, 0)" stroke-opacity="1.0" stroke-linecap="round" stroke-linejoin="round"/>
    <path d="M 158.95103454589844 136.20339965820312 C 226.6892852783203 150.7605438232422 88.7766342163086 142.15867614746094 104.11202239990234 125.66403198242188" stroke-width="2" fill="none" stroke="rgb(0, 0, 0)" stroke-opacity="1.0" stroke-linecap="round" stroke-linejoin="round"/>
    <path d="M 95.0383529663086 138.42576599121094 C -10.824291229248047 126.6115493774414 241.94235229492188 175.5364227294922 144.12319946289062 121.83307647705078" stroke-width="2" fill="none" stroke="rgb(0, 0, 0)" stroke-opacity="1.0" stroke-linecap="round" stroke-linejoin="round"/>
    <path d="M 123.97865295410156 115.6278076171875 C 161.31686401367188 114.064697265625 93.22063446044922 105.14447021484375 162.11273193359375 112.06775665283203" stroke-width="2" fill="none" stroke="rgb(0, 0, 0)" stroke-opacity="1.0" stroke-linecap="round" stroke-linejoin="round"/>
    <path d="M 99.15646362304688 71.8581314086914 C 101.90310668945312 104.71012115478516 148.4100799560547 69.44483184814453 157.94818115234375 96.80086517333984" stroke-width="2" fill="none" stroke="rgb(0, 0, 0)" stroke-opacity="1.0" stroke-linecap="round" stroke-linejoin="round"/>
    <path d="M 124.85630798339844 96.11154174804688 C 60.48583984375 91.94110870361328 107.44944763183594 111.76908874511719 100.56857299804688 80.41832733154297" stroke-width="2" fill="none" stroke="rgb(0, 0, 0)" stroke-opacity="1.0" stroke-linecap="round" stroke-linejoin="round"/>
    <path d="M 123.96585083007812 130.78927612304688 C 117.06658935546875 105.2242660522461 167.3764190673828 145.1459197998047 111.36164093017578 107.2348403930664" stroke-width="2" fill="none" stroke="rgb(0, 0, 0)" stroke-opacity="1.0" stroke-linecap="round" stroke-linejoin="round"/>
    <path d="M 157.22837829589844 160.7234649658203 C 150.29818725585938 159.61175537109375 10.374210357666016 171.12814331054688 56.042667388916016 106.8193359375" stroke-width="2" fill="none" stroke="rgb(0, 0, 0)" stroke-opacity="1.0" stroke-linecap="round" stroke-linejoin="round"/>
    <path d="M 148.4683074951172 119.85660552978516 C 111.50727844238281 129.55538940429688 187.6662139892578 131.3212432861328 157.365966796875 125.42403411865234" stroke-width="2" fill="none" stroke="rgb(0, 0, 0)" stroke-opacity="1.0" stroke-linecap="round" stroke-linejoin="round"/>
    <path d="M 123.48204803466797 120.43892669677734 C 188.1275177001953 131.8743133544922 112.80625915527344 134.7542266845703 147.2255401611328 121.16304779052734" stroke-width="2" fill="none" stroke="rgb(0, 0, 0)" stroke-opacity="1.0" stroke-linecap="round" stroke-linejoin="round"/>
    <path d="M 183.19912719726562 73.46501159667969 C 184.9838409423828 40.213138580322266 166.78103637695312 102.4682388305664 153.43240356445312 87.78140258789062" stroke-width="2" fill="none" stroke="rgb(0, 0, 0)" stroke-opacity="1.0" stroke-linecap="round" stroke-linejoin="round"/>
    <path d="M 138.18194580078125 141.28564453125 C 170.30343627929688 159.14501953125 69.02564239501953 130.8640594482422 82.9173812866211 127.35657501220703" stroke-width="2" fill="none" stroke="rgb(0, 0, 0)" stroke-opacity="1.0" stroke-linecap="round" stroke-linejoin="round"/>
    <path d="M 85.96624755859375 156.59881591796875 C -21.92184066772461 111.68071746826172 158.25015258789062 170.8685302734375 151.23228454589844 147.61944580078125" stroke-width="2" fill="none" stroke="rgb(0, 0, 0)" stroke-opacity="1.0" stroke-linecap="round" stroke-linejoin="round"/>
    <path d="M 146.14938354492188 128.97265625 C 120.27082061767578 129.6221466064453 188.97808837890625 135.56719970703125 152.5429229736328 105.5987319946289" stroke-width="2" fill="none" stroke="rgb(0, 0, 0)" stroke-opacity="1.0" stroke-linecap="round" stroke-linejoin="round"/>
    <path d="M 161.9239044189453 109.13845825195312 C 135.9935302734375 102.79814147949219 174.570556640625 140.4136962890625 183.66209411621094 73.701416015625" stroke-width="2" fill="none" stroke="rgb(0, 0, 0)" stroke-opacity="1.0" stroke-linecap="round" stroke-linejoin="round"/>
    <path d="M 154.02664184570312 145.41078186035156 C 154.28135681152344 157.1945343017578 196.5563507080078 70.41020202636719 163.03318786621094 99.20625305175781" stroke-width="2" fill="none" stroke="rgb(0, 0, 0)" stroke-opacity="1.0" stroke-linecap="round" stroke-linejoin="round"/>
  </g>
</svg>
