<?xml version="1.0" ?>
<svg xmlns="http://www.w3.org/2000/svg" version="1.1" width="224" height="224">
  <defs/>
  <g>
    <path d="M 58.92879104614258 151.22239685058594 C 11.866971969604492 134.40957641601562 89.31830596923828 58.49178695678711 97.67813873291016 116.15489196777344" stroke-width="2" fill="none" stroke="rgb(0, 0, 0)" stroke-opacity="1.0" stroke-linecap="round" stroke-linejoin="round"/>
    <path d="M 151.9460906982422 143.99305725097656 C 150.22105407714844 153.8894805908203 35.79208755493164 108.98304748535156 145.0234832763672 124.80402374267578" stroke-width="2" fill="none" stroke="rgb(0, 0, 0)" stroke-opacity="1.0" stroke-linecap="round" stroke-linejoin="round"/>
    <path d="M 57.43696594238281 137.0789794921875 C 8.736248016357422 145.45474243164062 232.63233947753906 188.74026489257812 162.48501586914062 114.07335662841797" stroke-width="2" fill="none" stroke="rgb(0, 0, 0)" stroke-opacity="1.0" stroke-linecap="round" stroke-linejoin="round"/>
    <path d="M 153.21287536621094 123.79598236083984 C 190.1464385986328 103.5000991821289 141.72280883789062 100.75694274902344 170.71005249023438 105.14495086669922" stroke-width="2" fill="none" stroke="rgb(0, 0, 0)" stroke-opacity="1.0" stroke-linecap="round" stroke-linejoin="round"/>
    <path d="M 95.91357421875 67.91121673583984 C 111.24176788330078 82.83321380615234 114.75333404541016 55.85493850708008 131.82679748535156 86.63043975830078" stroke-width="2" fill="none" stroke="rgb(0, 0, 0)" stroke-opacity="1.0" stroke-linecap="round" stroke-linejoin="round"/>
    <path d="M 114.16366577148438 76.49169921875 C 105.70921325683594 89.19547271728516 112.75090789794922 95.83531188964844 105.20612335205078 72.8228988647461" stroke-width="2" fill="none" stroke="rgb(0, 0, 0)" stroke-opacity="1.0" stroke-linecap="round" stroke-linejoin="round"/>
    <path d="M 143.613525390625 136.36917114257812 C 111.92219543457031 115.44722747802734 198.9159393310547 134.79934692382812 80.7887954711914 107.24250030517578" stroke-width="2" fill="none" stroke="rgb(0, 0, 0)" stroke-opacity="1.0" stroke-linecap="round" stroke-linejoin="round"/>
    <path d="M 66.00606536865234 144.4908447265625 C 187.91099548339844 172.1671905517578 3.654726505279541 139.9951934814453 58.188720703125 108.61863708496094" stroke-width="2" fill="none" stroke="rgb(0, 0, 0)" stroke-opacity="1.0" stroke-linecap="round" stroke-linejoin="round"/>
    <path d="M 168.58692932128906 127.64322662353516 C 87.8602066040039 126.0978775024414 186.9788818359375 140.42515563964844 127.71382141113281 126.59033966064453" stroke-width="2" fill="none" stroke="rgb(0, 0, 0)" stroke-opacity="1.0" stroke-linecap="round" stroke-linejoin="round"/>
    <path d="M 107.41304016113281 116.46649932861328 C 160.68856811523438 91.25540161132812 84.98374938964844 102.40463256835938 146.2158203125 133.90061950683594" stroke-width="2" fill="none" stroke="rgb(0, 0, 0)" stroke-opacity="1.0" stroke-linecap="round" stroke-linejoin="round"/>
    <path d="M 175.53904724121094 87.40999603271484 C 195.43104553222656 15.256600379943848 161.8861083984375 109.4208755493164 129.09014892578125 85.71593475341797" stroke-width="2" fill="none" stroke="rgb(0, 0, 0)" stroke-opacity="1.0" stroke-linecap="round" stroke-linejoin="round"/>
    <path d="M 170.76083374023438 156.59730529785156 C 210.42367553710938 136.26182556152344 98.6120834350586 158.11485290527344 121.22203826904297 113.98735809326172" stroke-width="2" fill="none" stroke="rgb(0, 0, 0)" stroke-opacity="1.0" stroke-linecap="round" stroke-linejoin="round"/>
    <path d="M 107.96427154541016 138.1289520263672 C -9.025742530822754 105.8351058959961 176.96292114257812 166.71923828125 134.42254638671875 154.06796264648438" stroke-width="2" fill="none" stroke="rgb(0, 0, 0)" stroke-opacity="1.0" stroke-linecap="round" stroke-linejoin="round"/>
    <path d="M 165.6407470703125 128.3140869140625 C 138.00912475585938 113.69681549072266 175.63461303710938 141.94874572753906 172.4473114013672 125.4325180053711" stroke-width="2" fill="none" stroke="rgb(0, 0, 0)" stroke-opacity="1.0" stroke-linecap="round" stroke-linejoin="round"/>
    <path d="M 164.9259490966797 109.61959075927734 C 114.34777069091797 95.77074432373047 170.2874298095703 132.3363037109375 171.2428741455078 71.34112548828125" stroke-width="2" fill="none" stroke="rgb(0, 0, 0)" stroke-opacity="1.0" stroke-linecap="round" stroke-linejoin="round"/>
    <path d="M 173.70872497558594 121.790283203125 C 167.06649780273438 124.78500366210938 181.26673889160156 92.17935180664062 149.25184631347656 86.2865982055664" stroke-width="2" fill="none" stroke="rgb(0, 0, 0)" stroke-opacity="1.0" stroke-linecap="round" stroke-linejoin="round"/>
  </g>
</svg>
