<?xml version="1.0" ?>
<svg xmlns="http://www.w3.org/2000/svg" version="1.1" width="224" height="224">
  <defs/>
  <g>
    <path d="M 136.09078979492188 154.64517211914062 C 106.66561126708984 151.1304168701172 93.79219818115234 117.09463500976562 96.99057006835938 130.15597534179688" stroke-width="2" fill="none" stroke="rgb(0, 0, 0)" stroke-opacity="1.0" stroke-linecap="round" stroke-linejoin="round"/>
    <path d="M 88.69544219970703 117.5765151977539 C 140.65589904785156 118.0781478881836 69.16813659667969 142.98330688476562 156.91192626953125 138.69351196289062" stroke-width="2" fill="none" stroke="rgb(0, 0, 0)" stroke-opacity="1.0" stroke-linecap="round" stroke-linejoin="round"/>
    <path d="M 63.405601501464844 103.87073516845703 C -30.5118408203125 176.2808837890625 210.84848022460938 156.56436157226562 171.63046264648438 151.4409637451172" stroke-width="2" fill="none" stroke="rgb(0, 0, 0)" stroke-opacity="1.0" stroke-linecap="round" stroke-linejoin="round"/>
    <path d="M 143.80972290039062 129.6294403076172 C 199.3758544921875 120.23357391357422 131.3255157470703 100.3333511352539 169.0675811767578 110.56035614013672" stroke-width="2" fill="none" stroke="rgb(0, 0, 0)" stroke-opacity="1.0" stroke-linecap="round" stroke-linejoin="round"/>
    <path d="M 105.21369171142578 69.44027709960938 C 151.653564453125 105.91466522216797 131.77540588378906 66.7222900390625 163.21414184570312 85.65897369384766" stroke-width="2" fill="none" stroke="rgb(0, 0, 0)" stroke-opacity="1.0" stroke-linecap="round" stroke-linejoin="round"/>
    <path d="M 126.15876007080078 111.31757354736328 C 167.1016387939453 96.45513916015625 61.93107986450195 120.76203155517578 136.73727416992188 150.17762756347656" stroke-width="2" fill="none" stroke="rgb(0, 0, 0)" stroke-opacity="1.0" stroke-linecap="round" stroke-linejoin="round"/>
    <path d="M 57.58976745605469 111.29013061523438 C 96.89580535888672 102.57037353515625 43.0035400390625 93.405517578125 150.44369506835938 115.55939483642578" stroke-width="2" fill="none" stroke="rgb(0, 0, 0)" stroke-opacity="1.0" stroke-linecap="round" stroke-linejoin="round"/>
    <path d="M 110.25311279296875 72.15470123291016 C 128.65640258789062 116.51295471191406 43.388729095458984 76.6017074584961 50.14554214477539 118.09923553466797" stroke-width="2" fill="none" stroke="rgb(0, 0, 0)" stroke-opacity="1.0" stroke-linecap="round" stroke-linejoin="round"/>
    <path d="M 159.1001739501953 126.47960662841797 C 132.04898071289062 122.50475311279297 179.51278686523438 100.3938217163086 140.4610595703125 129.47909545898438" stroke-width="2" fill="none" stroke="rgb(0, 0, 0)" stroke-opacity="1.0" stroke-linecap="round" stroke-linejoin="round"/>
    <path d="M 155.68807983398438 144.3123321533203 C 204.703369140625 141.4434814453125 138.68423461914062 140.8748779296875 178.62405395507812 97.28987884521484" stroke-width="2" fill="none" stroke="rgb(0, 0, 0)" stroke-opacity="1.0" stroke-linecap="round" stroke-linejoin="round"/>
    <path d="M 174.8441619873047 97.06938934326172 C 197.69610595703125 24.864221572875977 162.34617614746094 93.91149139404297 160.44554138183594 86.34194946289062" stroke-width="2" fill="none" stroke="rgb(0, 0, 0)" stroke-opacity="1.0" stroke-linecap="round" stroke-linejoin="round"/>
    <path d="M 115.88922882080078 116.43985748291016 C 85.28436279296875 83.64087677001953 119.92900848388672 86.90819549560547 105.7214126586914 102.30237579345703" stroke-width="2" fill="none" stroke="rgb(0, 0, 0)" stroke-opacity="1.0" stroke-linecap="round" stroke-linejoin="round"/>
    <path d="M 109.21853637695312 141.80813598632812 C 35.698814392089844 118.063720703125 91.90458679199219 138.03720092773438 141.11207580566406 140.55612182617188" stroke-width="2" fill="none" stroke="rgb(0, 0, 0)" stroke-opacity="1.0" stroke-linecap="round" stroke-linejoin="round"/>
    <path d="M 58.89155960083008 138.53675842285156 C 15.651470184326172 128.28921508789062 161.05563354492188 185.04734802246094 170.87355041503906 129.8961181640625" stroke-width="2" fill="none" stroke="rgb(0, 0, 0)" stroke-opacity="1.0" stroke-linecap="round" stroke-linejoin="round"/>
    <path d="M 111.90584564208984 115.37151336669922 C 183.25425720214844 103.30668640136719 87.10399627685547 89.44621276855469 155.56651306152344 120.45809173583984" stroke-width="2" fill="none" stroke="rgb(0, 0, 0)" stroke-opacity="1.0" stroke-linecap="round" stroke-linejoin="round"/>
    <path d="M 163.87991333007812 116.02045440673828 C 88.70780181884766 124.34288787841797 162.79348754882812 112.39584350585938 131.87525939941406 119.68633270263672" stroke-width="2" fill="none" stroke="rgb(0, 0, 0)" stroke-opacity="1.0" stroke-linecap="round" stroke-linejoin="round"/>
  </g>
</svg>
