<?xml version="1.0" ?>
<svg xmlns="http://www.w3.org/2000/svg" version="1.1" width="224" height="224">
  <defs/>
  <g>
    <path d="M 98.73046875 134.42750549316406 C 34.66066360473633 136.4281768798828 41.822532653808594 90.86188507080078 104.96939086914062 91.5108871459961" stroke-width="2" fill="none" stroke="rgb(0, 0, 0)" stroke-opacity="1.0" stroke-linecap="round" stroke-linejoin="round"/>
    <path d="M 129.40798950195312 151.08189392089844 C 146.05551147460938 166.61708068847656 81.9485092163086 152.5045928955078 70.44668579101562 142.093505859375" stroke-width="2" fill="none" stroke="rgb(0, 0, 0)" stroke-opacity="1.0" stroke-linecap="round" stroke-linejoin="round"/>
    <path d="M 141.62301635742188 142.2811737060547 C 65.84429168701172 111.8797836303711 122.376220703125 146.6729278564453 157.3231964111328 142.7582244873047" stroke-width="2" fill="none" stroke="rgb(0, 0, 0)" stroke-opacity="1.0" stroke-linecap="round" stroke-linejoin="round"/>
    <path d="M 163.84524536132812 107.50713348388672 C 125.01765441894531 124.42452239990234 183.41229248046875 105.73196411132812 155.6114501953125 128.6519775390625" stroke-width="2" fill="none" stroke="rgb(0, 0, 0)" stroke-opacity="1.0" stroke-linecap="round" stroke-linejoin="round"/>
    <path d="M 100.01123809814453 71.90562438964844 C 124.62293243408203 105.75025177001953 173.9359588623047 61.41707992553711 171.5524139404297 103.69961547851562" stroke-width="2" fill="none" stroke="rgb(0, 0, 0)" stroke-opacity="1.0" stroke-linecap="round" stroke-linejoin="round"/>
    <path d="M 109.3662109375 109.5716323852539 C 116.1831283569336 82.24649810791016 137.0341339111328 101.18069458007812 103.167724609375 86.49787902832031" stroke-width="2" fill="none" stroke="rgb(0, 0, 0)" stroke-opacity="1.0" stroke-linecap="round" stroke-linejoin="round"/>
    <path d="M 110.36573028564453 91.10124206542969 C 90.3901138305664 123.75794219970703 155.89547729492188 103.99900817871094 110.36367797851562 118.11837768554688" stroke-width="2" fill="none" stroke="rgb(0, 0, 0)" stroke-opacity="1.0" stroke-linecap="round" stroke-linejoin="round"/>
    <path d="M 124.15481567382812 155.9775390625 C 109.07707214355469 146.42308044433594 3.1011462211608887 164.935791015625 61.92831802368164 100.39703369140625" stroke-width="2" fill="none" stroke="rgb(0, 0, 0)" stroke-opacity="1.0" stroke-linecap="round" stroke-linejoin="round"/>
    <path d="M 145.6948699951172 130.0757598876953 C 119.79730987548828 127.5599136352539 175.40863037109375 136.4600830078125 127.12730407714844 133.35626220703125" stroke-width="2" fill="none" stroke="rgb(0, 0, 0)" stroke-opacity="1.0" stroke-linecap="round" stroke-linejoin="round"/>
    <path d="M 130.51856994628906 103.67581939697266 C 180.35423278808594 103.6026611328125 137.2376251220703 126.88713073730469 147.24644470214844 97.8093032836914" stroke-width="2" fill="none" stroke="rgb(0, 0, 0)" stroke-opacity="1.0" stroke-linecap="round" stroke-linejoin="round"/>
    <path d="M 188.88172912597656 67.86505126953125 C 176.12551879882812 58.281410217285156 165.21519470214844 107.13351440429688 140.1161651611328 83.17383575439453" stroke-width="2" fill="none" stroke="rgb(0, 0, 0)" stroke-opacity="1.0" stroke-linecap="round" stroke-linejoin="round"/>
    <path d="M 170.63198852539062 130.44851684570312 C 178.50811767578125 157.58880615234375 117.72553253173828 159.005615234375 119.2791976928711 156.6652374267578" stroke-width="2" fill="none" stroke="rgb(0, 0, 0)" stroke-opacity="1.0" stroke-linecap="round" stroke-linejoin="round"/>
    <path d="M 60.65017318725586 138.275634765625 C 47.99618148803711 143.86865234375 190.45040893554688 144.38912963867188 152.71726989746094 144.47483825683594" stroke-width="2" fill="none" stroke="rgb(0, 0, 0)" stroke-opacity="1.0" stroke-linecap="round" stroke-linejoin="round"/>
    <path d="M 112.20980072021484 122.0885009765625 C 118.71024322509766 102.07054138183594 81.21431732177734 69.64999389648438 114.3742904663086 88.75689697265625" stroke-width="2" fill="none" stroke="rgb(0, 0, 0)" stroke-opacity="1.0" stroke-linecap="round" stroke-linejoin="round"/>
    <path d="M 167.84454345703125 113.7806396484375 C 171.69374084472656 80.64038848876953 182.18161010742188 112.55538177490234 184.1346435546875 69.26994323730469" stroke-width="2" fill="none" stroke="rgb(0, 0, 0)" stroke-opacity="1.0" stroke-linecap="round" stroke-linejoin="round"/>
    <path d="M 56.22086715698242 110.21066284179688 C 92.58952331542969 104.26725769042969 90.33375549316406 135.52664184570312 89.92117309570312 112.64554595947266" stroke-width="2" fill="none" stroke="rgb(0, 0, 0)" stroke-opacity="1.0" stroke-linecap="round" stroke-linejoin="round"/>
  </g>
</svg>
