<?xml version="1.0" ?>
<svg xmlns="http://www.w3.org/2000/svg" version="1.1" width="224" height="224">
  <defs/>
  <g>
    <path d="M 69.07642364501953 151.01980590820312 C 8.605375289916992 148.9489288330078 72.0972671508789 56.48276901245117 106.83916473388672 123.58643341064453" stroke-width="2" fill="none" stroke="rgb(0, 0, 0)" stroke-opacity="1.0" stroke-linecap="round" stroke-linejoin="round"/>
    <path d="M 140.3876953125 106.75361633300781 C 190.56195068359375 107.43109893798828 42.80388641357422 117.36311340332031 128.89987182617188 141.5371551513672" stroke-width="2" fill="none" stroke="rgb(0, 0, 0)" stroke-opacity="1.0" stroke-linecap="round" stroke-linejoin="round"/>
    <path d="M 49.944313049316406 114.2295913696289 C -3.9415454864501953 157.8480682373047 220.46502685546875 175.54795837402344 169.5686492919922 119.58505249023438" stroke-width="2" fill="none" stroke="rgb(0, 0, 0)" stroke-opacity="1.0" stroke-linecap="round" stroke-linejoin="round"/>
    <path d="M 139.7899169921875 113.07693481445312 C 179.282470703125 121.09529113769531 112.3338394165039 117.80998229980469 156.8021697998047 124.61030578613281" stroke-width="2" fill="none" stroke="rgb(0, 0, 0)" stroke-opacity="1.0" stroke-linecap="round" stroke-linejoin="round"/>
    <path d="M 111.87427520751953 64.97026824951172 C 145.5267791748047 103.23601531982422 134.37513732910156 65.84033966064453 164.0769500732422 84.12890625" stroke-width="2" fill="none" stroke="rgb(0, 0, 0)" stroke-opacity="1.0" stroke-linecap="round" stroke-linejoin="round"/>
    <path d="M 88.9767074584961 96.03370666503906 C 111.2508773803711 71.86544036865234 91.76234436035156 74.20926666259766 95.87027740478516 94.78777313232422" stroke-width="2" fill="none" stroke="rgb(0, 0, 0)" stroke-opacity="1.0" stroke-linecap="round" stroke-linejoin="round"/>
    <path d="M 108.12230682373047 141.42813110351562 C 75.07704162597656 98.4678955078125 170.3424530029297 149.3341064453125 58.741825103759766 127.23355102539062" stroke-width="2" fill="none" stroke="rgb(0, 0, 0)" stroke-opacity="1.0" stroke-linecap="round" stroke-linejoin="round"/>
    <path d="M 83.05728912353516 114.98336029052734 C 195.62547302246094 145.83584594726562 -13.975203514099121 118.3628921508789 59.376914978027344 141.8148651123047" stroke-width="2" fill="none" stroke="rgb(0, 0, 0)" stroke-opacity="1.0" stroke-linecap="round" stroke-linejoin="round"/>
    <path d="M 159.23648071289062 138.10772705078125 C 68.47663879394531 136.95684814453125 144.05686950683594 124.6413803100586 112.09381866455078 113.80105590820312" stroke-width="2" fill="none" stroke="rgb(0, 0, 0)" stroke-opacity="1.0" stroke-linecap="round" stroke-linejoin="round"/>
    <path d="M 151.95529174804688 130.99330139160156 C 183.66741943359375 104.42853546142578 119.39581298828125 122.05532836914062 151.57420349121094 127.44773864746094" stroke-width="2" fill="none" stroke="rgb(0, 0, 0)" stroke-opacity="1.0" stroke-linecap="round" stroke-linejoin="round"/>
    <path d="M 177.8558807373047 96.6464614868164 C 192.4376983642578 16.638999938964844 165.904541015625 102.15174865722656 160.08059692382812 95.04056549072266" stroke-width="2" fill="none" stroke="rgb(0, 0, 0)" stroke-opacity="1.0" stroke-linecap="round" stroke-linejoin="round"/>
    <path d="M 169.6888885498047 134.4246368408203 C 154.8815460205078 136.4986572265625 88.03899383544922 184.22496032714844 94.5579605102539 78.14710235595703" stroke-width="2" fill="none" stroke="rgb(0, 0, 0)" stroke-opacity="1.0" stroke-linecap="round" stroke-linejoin="round"/>
    <path d="M 68.02301025390625 129.95620727539062 C 18.070411682128906 114.34835052490234 123.18293762207031 159.05458068847656 137.25918579101562 151.5742950439453" stroke-width="2" fill="none" stroke="rgb(0, 0, 0)" stroke-opacity="1.0" stroke-linecap="round" stroke-linejoin="round"/>
    <path d="M 118.94389343261719 148.78628540039062 C 144.5560760498047 141.0582733154297 188.56707763671875 145.00686645507812 173.43006896972656 153.7808074951172" stroke-width="2" fill="none" stroke="rgb(0, 0, 0)" stroke-opacity="1.0" stroke-linecap="round" stroke-linejoin="round"/>
    <path d="M 172.98265075683594 118.89043426513672 C 163.40126037597656 64.6603012084961 171.68299865722656 117.44172668457031 177.48809814453125 98.67902374267578" stroke-width="2" fill="none" stroke="rgb(0, 0, 0)" stroke-opacity="1.0" stroke-linecap="round" stroke-linejoin="round"/>
    <path d="M 104.85889434814453 122.781005859375 C 169.07212829589844 162.13922119140625 122.0681381225586 108.77832794189453 140.892822265625 144.54421997070312" stroke-width="2" fill="none" stroke="rgb(0, 0, 0)" stroke-opacity="1.0" stroke-linecap="round" stroke-linejoin="round"/>
  </g>
</svg>
