<?xml version="1.0" ?>
<svg xmlns="http://www.w3.org/2000/svg" version="1.1" width="224" height="224">
  <defs/>
  <g>
    <path d="M 64.95938110351562 148.29574584960938 C 7.657434463500977 129.2251434326172 96.85911560058594 56.33776092529297 113.21908569335938 119.99040222167969" stroke-width="2" fill="none" stroke="rgb(0, 0, 0)" stroke-opacity="1.0" stroke-linecap="round" stroke-linejoin="round"/>
    <path d="M 140.064208984375 117.5721664428711 C 192.14747619628906 113.76264190673828 35.352928161621094 93.07332611083984 120.47885131835938 133.88681030273438" stroke-width="2" fill="none" stroke="rgb(0, 0, 0)" stroke-opacity="1.0" stroke-linecap="round" stroke-linejoin="round"/>
    <path d="M 45.93745040893555 128.81027221679688 C 6.786601543426514 148.0206756591797 228.25633239746094 190.24905395507812 159.903564453125 123.71380615234375" stroke-width="2" fill="none" stroke="rgb(0, 0, 0)" stroke-opacity="1.0" stroke-linecap="round" stroke-linejoin="round"/>
    <path d="M 140.80726623535156 122.4283676147461 C 177.92527770996094 123.33910369873047 109.6274642944336 120.77745056152344 149.04391479492188 114.72664642333984" stroke-width="2" fill="none" stroke="rgb(0, 0, 0)" stroke-opacity="1.0" stroke-linecap="round" stroke-linejoin="round"/>
    <path d="M 100.11851501464844 66.68052673339844 C 118.38064575195312 90.72565460205078 117.13280487060547 55.62955093383789 141.55039978027344 84.5221176147461" stroke-width="2" fill="none" stroke="rgb(0, 0, 0)" stroke-opacity="1.0" stroke-linecap="round" stroke-linejoin="round"/>
    <path d="M 101.39252471923828 73.5044174194336 C 110.05961608886719 107.87727355957031 92.710693359375 99.68875122070312 104.5841064453125 91.63086700439453" stroke-width="2" fill="none" stroke="rgb(0, 0, 0)" stroke-opacity="1.0" stroke-linecap="round" stroke-linejoin="round"/>
    <path d="M 134.02523803710938 130.1829376220703 C 83.15692138671875 108.08267974853516 184.47984313964844 144.96849060058594 59.71791076660156 111.2385025024414" stroke-width="2" fill="none" stroke="rgb(0, 0, 0)" stroke-opacity="1.0" stroke-linecap="round" stroke-linejoin="round"/>
    <path d="M 80.75879669189453 139.2718505859375 C 183.84739685058594 172.2994384765625 -5.573231220245361 143.84262084960938 55.94880676269531 106.71659088134766" stroke-width="2" fill="none" stroke="rgb(0, 0, 0)" stroke-opacity="1.0" stroke-linecap="round" stroke-linejoin="round"/>
    <path d="M 151.8497772216797 130.43572998046875 C 92.48369598388672 131.56903076171875 189.8690948486328 146.3123321533203 124.94649505615234 140.51025390625" stroke-width="2" fill="none" stroke="rgb(0, 0, 0)" stroke-opacity="1.0" stroke-linecap="round" stroke-linejoin="round"/>
    <path d="M 120.55835723876953 116.60208892822266 C 199.46778869628906 98.36123657226562 80.224853515625 103.00566101074219 146.5485382080078 140.71197509765625" stroke-width="2" fill="none" stroke="rgb(0, 0, 0)" stroke-opacity="1.0" stroke-linecap="round" stroke-linejoin="round"/>
    <path d="M 182.16702270507812 93.63921356201172 C 196.65390014648438 14.836372375488281 171.524658203125 106.52090454101562 140.0664520263672 81.93917083740234" stroke-width="2" fill="none" stroke="rgb(0, 0, 0)" stroke-opacity="1.0" stroke-linecap="round" stroke-linejoin="round"/>
    <path d="M 166.0513458251953 151.6614227294922 C 185.01760864257812 131.192626953125 74.17633056640625 158.6800079345703 114.34471130371094 99.80400085449219" stroke-width="2" fill="none" stroke="rgb(0, 0, 0)" stroke-opacity="1.0" stroke-linecap="round" stroke-linejoin="round"/>
    <path d="M 89.05514526367188 139.8931427001953 C 2.942516803741455 111.71221923828125 159.88336181640625 166.09524536132812 162.82977294921875 145.20437622070312" stroke-width="2" fill="none" stroke="rgb(0, 0, 0)" stroke-opacity="1.0" stroke-linecap="round" stroke-linejoin="round"/>
    <path d="M 137.8675079345703 149.82652282714844 C 133.66909790039062 154.7345733642578 173.85928344726562 161.62445068359375 189.35972595214844 151.01583862304688" stroke-width="2" fill="none" stroke="rgb(0, 0, 0)" stroke-opacity="1.0" stroke-linecap="round" stroke-linejoin="round"/>
    <path d="M 160.21507263183594 108.18179321289062 C 143.65359497070312 96.3334732055664 165.35809326171875 129.3914337158203 177.031494140625 77.24774169921875" stroke-width="2" fill="none" stroke="rgb(0, 0, 0)" stroke-opacity="1.0" stroke-linecap="round" stroke-linejoin="round"/>
    <path d="M 158.0561065673828 120.14603424072266 C 170.45289611816406 129.88345336914062 169.76583862304688 90.1941909790039 155.92919921875 98.76178741455078" stroke-width="2" fill="none" stroke="rgb(0, 0, 0)" stroke-opacity="1.0" stroke-linecap="round" stroke-linejoin="round"/>
  </g>
</svg>
