<?xml version="1.0" ?>
<svg xmlns="http://www.w3.org/2000/svg" version="1.1" width="224" height="224">
  <defs/>
  <g>
    <path d="M 70.26416015625 145.79638671875 C 3.879183769226074 125.49988555908203 94.55375671386719 63.12522888183594 103.50489044189453 118.52622985839844" stroke-width="2" fill="none" stroke="rgb(0, 0, 0)" stroke-opacity="1.0" stroke-linecap="round" stroke-linejoin="round"/>
    <path d="M 116.37023162841797 141.47097778320312 C 208.59385681152344 142.61514282226562 96.95696258544922 143.30625915527344 137.1630096435547 134.4038543701172" stroke-width="2" fill="none" stroke="rgb(0, 0, 0)" stroke-opacity="1.0" stroke-linecap="round" stroke-linejoin="round"/>
    <path d="M 116.86170196533203 149.34466552734375 C -8.941020011901855 126.89305114746094 73.7945556640625 159.74620056152344 107.94282531738281 160.7948455810547" stroke-width="2" fill="none" stroke="rgb(0, 0, 0)" stroke-opacity="1.0" stroke-linecap="round" stroke-linejoin="round"/>
    <path d="M 161.6404266357422 102.69343566894531 C 157.46865844726562 140.19093322753906 132.1059112548828 95.2802505493164 156.9427490234375 122.7398452758789" stroke-width="2" fill="none" stroke="rgb(0, 0, 0)" stroke-opacity="1.0" stroke-linecap="round" stroke-linejoin="round"/>
    <path d="M 99.00387573242188 72.38719940185547 C 103.68812561035156 102.04168701171875 133.10372924804688 67.08032989501953 148.24713134765625 95.81688690185547" stroke-width="2" fill="none" stroke="rgb(0, 0, 0)" stroke-opacity="1.0" stroke-linecap="round" stroke-linejoin="round"/>
    <path d="M 91.21105194091797 106.97831726074219 C -3.094090700149536 108.47660064697266 92.93338012695312 119.031005859375 52.21127700805664 115.14334869384766" stroke-width="2" fill="none" stroke="rgb(0, 0, 0)" stroke-opacity="1.0" stroke-linecap="round" stroke-linejoin="round"/>
    <path d="M 113.254638671875 130.03524780273438 C 85.08605194091797 73.6270980834961 135.5426788330078 74.55148315429688 102.47198486328125 109.22980499267578" stroke-width="2" fill="none" stroke="rgb(0, 0, 0)" stroke-opacity="1.0" stroke-linecap="round" stroke-linejoin="round"/>
    <path d="M 95.38457489013672 157.8169403076172 C 102.28041076660156 161.22381591796875 -8.544763565063477 153.69570922851562 69.90010833740234 108.43868255615234" stroke-width="2" fill="none" stroke="rgb(0, 0, 0)" stroke-opacity="1.0" stroke-linecap="round" stroke-linejoin="round"/>
    <path d="M 163.5905303955078 82.63236999511719 C 118.01924133300781 90.09830474853516 194.89077758789062 123.84687805175781 168.02767944335938 146.41717529296875" stroke-width="2" fill="none" stroke="rgb(0, 0, 0)" stroke-opacity="1.0" stroke-linecap="round" stroke-linejoin="round"/>
    <path d="M 130.78810119628906 120.76495361328125 C 185.11917114257812 141.8704071044922 88.1054916381836 119.89620208740234 165.24607849121094 126.90924835205078" stroke-width="2" fill="none" stroke="rgb(0, 0, 0)" stroke-opacity="1.0" stroke-linecap="round" stroke-linejoin="round"/>
    <path d="M 179.8636932373047 70.24418640136719 C 174.85174560546875 58.14041519165039 164.52984619140625 96.6478271484375 147.28038024902344 86.84297943115234" stroke-width="2" fill="none" stroke="rgb(0, 0, 0)" stroke-opacity="1.0" stroke-linecap="round" stroke-linejoin="round"/>
    <path d="M 177.01377868652344 139.16305541992188 C 166.1423797607422 162.39183044433594 58.31155014038086 104.41060638427734 88.03466033935547 123.28186798095703" stroke-width="2" fill="none" stroke="rgb(0, 0, 0)" stroke-opacity="1.0" stroke-linecap="round" stroke-linejoin="round"/>
    <path d="M 162.06085205078125 152.03834533691406 C -23.411775588989258 137.8897705078125 218.44326782226562 183.24949645996094 179.40049743652344 133.09349060058594" stroke-width="2" fill="none" stroke="rgb(0, 0, 0)" stroke-opacity="1.0" stroke-linecap="round" stroke-linejoin="round"/>
    <path d="M 123.27645111083984 111.77973175048828 C 198.47879028320312 104.35228729248047 156.13694763183594 131.5389862060547 178.17201232910156 108.30067443847656" stroke-width="2" fill="none" stroke="rgb(0, 0, 0)" stroke-opacity="1.0" stroke-linecap="round" stroke-linejoin="round"/>
    <path d="M 144.34231567382812 108.2365951538086 C 147.085205078125 77.90770721435547 177.13473510742188 131.8738250732422 178.60997009277344 68.8896713256836" stroke-width="2" fill="none" stroke="rgb(0, 0, 0)" stroke-opacity="1.0" stroke-linecap="round" stroke-linejoin="round"/>
    <path d="M 173.40216064453125 122.66024017333984 C 149.7914276123047 133.21656799316406 203.848876953125 98.77731323242188 145.19171142578125 117.28629302978516" stroke-width="2" fill="none" stroke="rgb(0, 0, 0)" stroke-opacity="1.0" stroke-linecap="round" stroke-linejoin="round"/>
  </g>
</svg>
