<?xml version="1.0" ?>
<svg xmlns="http://www.w3.org/2000/svg" version="1.1" width="224" height="224">
  <defs/>
  <g>
    <path d="M 150.7495574951172 147.45010375976562 C 109.5881118774414 149.41680908203125 81.31315612792969 120.55513763427734 97.16631317138672 137.635986328125" stroke-width="2" fill="none" stroke="rgb(0, 0, 0)" stroke-opacity="1.0" stroke-linecap="round" stroke-linejoin="round"/>
    <path d="M 91.96578979492188 126.20416259765625 C 148.13424682617188 117.2143325805664 77.10382843017578 149.5305633544922 150.8255157470703 138.54649353027344" stroke-width="2" fill="none" stroke="rgb(0, 0, 0)" stroke-opacity="1.0" stroke-linecap="round" stroke-linejoin="round"/>
    <path d="M 64.14786529541016 100.68319702148438 C -20.529722213745117 179.0096893310547 208.19480895996094 154.93417358398438 155.76927185058594 143.04965209960938" stroke-width="2" fill="none" stroke="rgb(0, 0, 0)" stroke-opacity="1.0" stroke-linecap="round" stroke-linejoin="round"/>
    <path d="M 130.50474548339844 130.31129455566406 C 207.19960021972656 132.7834930419922 121.03411865234375 102.16912078857422 158.31227111816406 110.46007537841797" stroke-width="2" fill="none" stroke="rgb(0, 0, 0)" stroke-opacity="1.0" stroke-linecap="round" stroke-linejoin="round"/>
    <path d="M 95.56004333496094 72.76309204101562 C 147.06736755371094 116.86090087890625 130.9236297607422 76.72899627685547 161.7370147705078 101.48265838623047" stroke-width="2" fill="none" stroke="rgb(0, 0, 0)" stroke-opacity="1.0" stroke-linecap="round" stroke-linejoin="round"/>
    <path d="M 123.22876739501953 110.62191009521484 C 166.78724670410156 91.34568786621094 67.90821075439453 122.03533172607422 144.159423828125 143.8175048828125" stroke-width="2" fill="none" stroke="rgb(0, 0, 0)" stroke-opacity="1.0" stroke-linecap="round" stroke-linejoin="round"/>
    <path d="M 66.55410766601562 107.11530303955078 C 100.98863220214844 100.54723358154297 39.64020919799805 99.76380157470703 133.56552124023438 114.55320739746094" stroke-width="2" fill="none" stroke="rgb(0, 0, 0)" stroke-opacity="1.0" stroke-linecap="round" stroke-linejoin="round"/>
    <path d="M 97.11577606201172 71.0327377319336 C 131.24508666992188 118.62455749511719 50.26504898071289 67.13285827636719 48.76191329956055 121.52821350097656" stroke-width="2" fill="none" stroke="rgb(0, 0, 0)" stroke-opacity="1.0" stroke-linecap="round" stroke-linejoin="round"/>
    <path d="M 160.82431030273438 133.97628784179688 C 128.15574645996094 133.17056274414062 183.48135375976562 115.02738189697266 148.4945526123047 124.64777374267578" stroke-width="2" fill="none" stroke="rgb(0, 0, 0)" stroke-opacity="1.0" stroke-linecap="round" stroke-linejoin="round"/>
    <path d="M 140.9698944091797 152.66580200195312 C 208.30462646484375 149.59228515625 142.15989685058594 134.29702758789062 182.89964294433594 95.72484588623047" stroke-width="2" fill="none" stroke="rgb(0, 0, 0)" stroke-opacity="1.0" stroke-linecap="round" stroke-linejoin="round"/>
    <path d="M 181.09693908691406 98.85919189453125 C 198.88050842285156 24.514171600341797 168.01388549804688 101.66454315185547 158.28765869140625 87.17567443847656" stroke-width="2" fill="none" stroke="rgb(0, 0, 0)" stroke-opacity="1.0" stroke-linecap="round" stroke-linejoin="round"/>
    <path d="M 113.45524597167969 121.27771759033203 C 81.62492370605469 75.22796630859375 107.65557861328125 79.05135345458984 106.35359191894531 92.73399353027344" stroke-width="2" fill="none" stroke="rgb(0, 0, 0)" stroke-opacity="1.0" stroke-linecap="round" stroke-linejoin="round"/>
    <path d="M 99.97102355957031 155.28170776367188 C 3.7629168033599854 138.05043029785156 79.72554779052734 145.81491088867188 122.4804458618164 153.97067260742188" stroke-width="2" fill="none" stroke="rgb(0, 0, 0)" stroke-opacity="1.0" stroke-linecap="round" stroke-linejoin="round"/>
    <path d="M 57.3860969543457 137.95803833007812 C 22.40812110900879 120.39537811279297 178.06988525390625 183.044921875 182.010986328125 139.0897979736328" stroke-width="2" fill="none" stroke="rgb(0, 0, 0)" stroke-opacity="1.0" stroke-linecap="round" stroke-linejoin="round"/>
    <path d="M 117.6241455078125 111.16268920898438 C 174.47593688964844 118.86589813232422 67.89913177490234 95.50799560546875 163.0623016357422 125.80965423583984" stroke-width="2" fill="none" stroke="rgb(0, 0, 0)" stroke-opacity="1.0" stroke-linecap="round" stroke-linejoin="round"/>
    <path d="M 164.55445861816406 116.82391357421875 C 88.3924560546875 130.45582580566406 153.50765991210938 117.38768005371094 126.36767578125 123.75824737548828" stroke-width="2" fill="none" stroke="rgb(0, 0, 0)" stroke-opacity="1.0" stroke-linecap="round" stroke-linejoin="round"/>
  </g>
</svg>
