<?xml version="1.0" ?>
<svg xmlns="http://www.w3.org/2000/svg" version="1.1" width="224" height="224">
  <defs/>
  <g>
    <path d="M 80.15371704101562 150.14842224121094 C 30.631126403808594 154.53273010253906 42.101829528808594 121.87352752685547 77.87478637695312 144.8383026123047" stroke-width="2" fill="none" stroke="rgb(0, 0, 0)" stroke-opacity="1.0" stroke-linecap="round" stroke-linejoin="round"/>
    <path d="M 87.43640899658203 113.3026351928711 C 119.31763458251953 119.8419418334961 71.81802368164062 130.0056610107422 125.34034729003906 155.41981506347656" stroke-width="2" fill="none" stroke="rgb(0, 0, 0)" stroke-opacity="1.0" stroke-linecap="round" stroke-linejoin="round"/>
    <path d="M 54.99706268310547 113.1870346069336 C -9.01495361328125 166.91917419433594 252.19264221191406 170.46945190429688 131.26243591308594 126.22886657714844" stroke-width="2" fill="none" stroke="rgb(0, 0, 0)" stroke-opacity="1.0" stroke-linecap="round" stroke-linejoin="round"/>
    <path d="M 116.56205749511719 124.97410583496094 C 184.83856201171875 134.48171997070312 73.7726821899414 122.65826416015625 157.01051330566406 128.34652709960938" stroke-width="2" fill="none" stroke="rgb(0, 0, 0)" stroke-opacity="1.0" stroke-linecap="round" stroke-linejoin="round"/>
    <path d="M 105.58772277832031 76.6348876953125 C 152.47540283203125 115.07904052734375 134.05569458007812 72.20270538330078 162.2880401611328 95.32271575927734" stroke-width="2" fill="none" stroke="rgb(0, 0, 0)" stroke-opacity="1.0" stroke-linecap="round" stroke-linejoin="round"/>
    <path d="M 108.32337951660156 123.88072967529297 C 168.4122772216797 119.29554748535156 92.79667663574219 110.13119506835938 131.57943725585938 120.08467102050781" stroke-width="2" fill="none" stroke="rgb(0, 0, 0)" stroke-opacity="1.0" stroke-linecap="round" stroke-linejoin="round"/>
    <path d="M 118.84747314453125 118.99866485595703 C 158.64779663085938 107.419921875 93.20789337158203 105.73641967773438 133.9795684814453 120.8778076171875" stroke-width="2" fill="none" stroke="rgb(0, 0, 0)" stroke-opacity="1.0" stroke-linecap="round" stroke-linejoin="round"/>
    <path d="M 106.4627685546875 71.94752502441406 C 129.8060760498047 125.83268737792969 49.0465087890625 75.35394287109375 52.97380828857422 119.69488525390625" stroke-width="2" fill="none" stroke="rgb(0, 0, 0)" stroke-opacity="1.0" stroke-linecap="round" stroke-linejoin="round"/>
    <path d="M 147.7548065185547 111.16609954833984 C 156.26416015625 126.37483978271484 114.55680084228516 123.97221374511719 165.8979034423828 113.69357299804688" stroke-width="2" fill="none" stroke="rgb(0, 0, 0)" stroke-opacity="1.0" stroke-linecap="round" stroke-linejoin="round"/>
    <path d="M 78.99273681640625 132.3935089111328 C 251.4759063720703 154.5842742919922 138.79124450683594 148.89820861816406 121.35528564453125 144.39260864257812" stroke-width="2" fill="none" stroke="rgb(0, 0, 0)" stroke-opacity="1.0" stroke-linecap="round" stroke-linejoin="round"/>
    <path d="M 158.22251892089844 130.09994506835938 C 199.02096557617188 36.476898193359375 185.09922790527344 102.536865234375 154.83941650390625 92.2978515625" stroke-width="2" fill="none" stroke="rgb(0, 0, 0)" stroke-opacity="1.0" stroke-linecap="round" stroke-linejoin="round"/>
    <path d="M 91.4319076538086 100.44863891601562 C 118.40715789794922 119.02733612060547 74.71692657470703 113.36250305175781 118.86087799072266 91.76923370361328" stroke-width="2" fill="none" stroke="rgb(0, 0, 0)" stroke-opacity="1.0" stroke-linecap="round" stroke-linejoin="round"/>
    <path d="M 64.87921905517578 148.9340362548828 C 22.41254425048828 115.5418930053711 124.9325180053711 173.1945037841797 153.850830078125 152.0794219970703" stroke-width="2" fill="none" stroke="rgb(0, 0, 0)" stroke-opacity="1.0" stroke-linecap="round" stroke-linejoin="round"/>
    <path d="M 85.72684478759766 144.04977416992188 C 62.4381217956543 147.05783081054688 210.02207946777344 169.65322875976562 171.4501495361328 140.21572875976562" stroke-width="2" fill="none" stroke="rgb(0, 0, 0)" stroke-opacity="1.0" stroke-linecap="round" stroke-linejoin="round"/>
    <path d="M 161.70330810546875 85.45860290527344 C 214.80368041992188 27.5777645111084 160.95223999023438 133.9852294921875 157.07839965820312 97.783935546875" stroke-width="2" fill="none" stroke="rgb(0, 0, 0)" stroke-opacity="1.0" stroke-linecap="round" stroke-linejoin="round"/>
    <path d="M 101.87210083007812 116.59950256347656 C 138.3135223388672 170.91342163085938 182.94332885742188 111.51683807373047 137.3787384033203 111.186767578125" stroke-width="2" fill="none" stroke="rgb(0, 0, 0)" stroke-opacity="1.0" stroke-linecap="round" stroke-linejoin="round"/>
  </g>
</svg>
