<?xml version="1.0" ?>
<svg xmlns="http://www.w3.org/2000/svg" version="1.1" width="224" height="224">
  <defs/>
  <g>
    <path d="M 85.56551361083984 152.5548095703125 C 44.63801574707031 134.38211059570312 25.81770896911621 130.84156799316406 50.75818634033203 149.60752868652344" stroke-width="2" fill="none" stroke="rgb(0, 0, 0)" stroke-opacity="1.0" stroke-linecap="round" stroke-linejoin="round"/>
    <path d="M 87.02485656738281 115.06998443603516 C 127.27758026123047 107.26319885253906 73.70729064941406 139.95822143554688 141.63235473632812 139.70065307617188" stroke-width="2" fill="none" stroke="rgb(0, 0, 0)" stroke-opacity="1.0" stroke-linecap="round" stroke-linejoin="round"/>
    <path d="M 64.07086181640625 98.3021469116211 C -30.111114501953125 171.7329864501953 262.8541564941406 150.98587036132812 145.03604125976562 147.210205078125" stroke-width="2" fill="none" stroke="rgb(0, 0, 0)" stroke-opacity="1.0" stroke-linecap="round" stroke-linejoin="round"/>
    <path d="M 119.759521484375 126.5907974243164 C 187.69105529785156 144.38217163085938 138.14822387695312 142.0130615234375 169.2238311767578 134.20254516601562" stroke-width="2" fill="none" stroke="rgb(0, 0, 0)" stroke-opacity="1.0" stroke-linecap="round" stroke-linejoin="round"/>
    <path d="M 103.14016723632812 70.88835906982422 C 130.80831909179688 102.85012817382812 142.0406951904297 74.58750915527344 160.41038513183594 91.85680389404297" stroke-width="2" fill="none" stroke="rgb(0, 0, 0)" stroke-opacity="1.0" stroke-linecap="round" stroke-linejoin="round"/>
    <path d="M 117.00274658203125 120.06710052490234 C 163.23068237304688 114.05831146240234 129.51707458496094 108.8480224609375 157.23780822753906 126.73021697998047" stroke-width="2" fill="none" stroke="rgb(0, 0, 0)" stroke-opacity="1.0" stroke-linecap="round" stroke-linejoin="round"/>
    <path d="M 124.42500305175781 115.94264221191406 C 164.37339782714844 99.81861877441406 74.2508316040039 120.44015502929688 138.48495483398438 136.7784423828125" stroke-width="2" fill="none" stroke="rgb(0, 0, 0)" stroke-opacity="1.0" stroke-linecap="round" stroke-linejoin="round"/>
    <path d="M 94.61833953857422 70.7050552368164 C 119.81700897216797 124.59056091308594 60.33867263793945 79.54047393798828 57.838043212890625 111.29966735839844" stroke-width="2" fill="none" stroke="rgb(0, 0, 0)" stroke-opacity="1.0" stroke-linecap="round" stroke-linejoin="round"/>
    <path d="M 146.97592163085938 101.16321563720703 C 191.0834197998047 111.04283905029297 113.00879669189453 135.37277221679688 151.962158203125 115.82754516601562" stroke-width="2" fill="none" stroke="rgb(0, 0, 0)" stroke-opacity="1.0" stroke-linecap="round" stroke-linejoin="round"/>
    <path d="M 96.96551513671875 118.77336883544922 C 226.861083984375 144.46826171875 153.9878387451172 94.88887023925781 149.81190490722656 126.35816955566406" stroke-width="2" fill="none" stroke="rgb(0, 0, 0)" stroke-opacity="1.0" stroke-linecap="round" stroke-linejoin="round"/>
    <path d="M 169.28485107421875 121.31316375732422 C 213.86135864257812 3.2843284606933594 170.80892944335938 99.03266906738281 157.2518310546875 87.41487884521484" stroke-width="2" fill="none" stroke="rgb(0, 0, 0)" stroke-opacity="1.0" stroke-linecap="round" stroke-linejoin="round"/>
    <path d="M 119.60186767578125 87.49030303955078 C 134.3659210205078 91.41328430175781 119.94477081298828 99.8273696899414 128.96315002441406 87.3414535522461" stroke-width="2" fill="none" stroke="rgb(0, 0, 0)" stroke-opacity="1.0" stroke-linecap="round" stroke-linejoin="round"/>
    <path d="M 91.83415985107422 148.230224609375 C 5.765798091888428 134.83218383789062 103.0970458984375 165.82948303222656 150.28189086914062 145.71673583984375" stroke-width="2" fill="none" stroke="rgb(0, 0, 0)" stroke-opacity="1.0" stroke-linecap="round" stroke-linejoin="round"/>
    <path d="M 70.1166763305664 131.93832397460938 C 90.29522705078125 141.3056182861328 197.52780151367188 176.56504821777344 175.1548614501953 120.4801025390625" stroke-width="2" fill="none" stroke="rgb(0, 0, 0)" stroke-opacity="1.0" stroke-linecap="round" stroke-linejoin="round"/>
    <path d="M 166.93307495117188 93.6406021118164 C 211.81982421875 54.05944061279297 166.06797790527344 132.91763305664062 167.67010498046875 99.31946563720703" stroke-width="2" fill="none" stroke="rgb(0, 0, 0)" stroke-opacity="1.0" stroke-linecap="round" stroke-linejoin="round"/>
    <path d="M 115.4217758178711 101.07100677490234 C 115.21473693847656 129.2332305908203 193.26597595214844 104.03887939453125 140.3759002685547 134.34457397460938" stroke-width="2" fill="none" stroke="rgb(0, 0, 0)" stroke-opacity="1.0" stroke-linecap="round" stroke-linejoin="round"/>
  </g>
</svg>
