<?xml version="1.0" ?>
<svg xmlns="http://www.w3.org/2000/svg" version="1.1" width="224" height="224">
  <defs/>
  <g>
    <path d="M 60.54277420043945 150.88258361816406 C 4.427029609680176 126.1519775390625 108.51433563232422 56.68470001220703 116.23247528076172 125.1866683959961" stroke-width="2" fill="none" stroke="rgb(0, 0, 0)" stroke-opacity="1.0" stroke-linecap="round" stroke-linejoin="round"/>
    <path d="M 186.56393432617188 138.9645538330078 C 193.9633331298828 155.6940460205078 84.0164566040039 148.39761352539062 144.3170928955078 114.89532470703125" stroke-width="2" fill="none" stroke="rgb(0, 0, 0)" stroke-opacity="1.0" stroke-linecap="round" stroke-linejoin="round"/>
    <path d="M 97.40091705322266 138.1547393798828 C 48.01995849609375 119.5383071899414 240.06822204589844 198.04476928710938 151.26022338867188 119.45246887207031" stroke-width="2" fill="none" stroke="rgb(0, 0, 0)" stroke-opacity="1.0" stroke-linecap="round" stroke-linejoin="round"/>
    <path d="M 160.68759155273438 104.42030334472656 C 191.3380889892578 115.8166275024414 120.273193359375 105.39413452148438 155.25726318359375 107.5365982055664" stroke-width="2" fill="none" stroke="rgb(0, 0, 0)" stroke-opacity="1.0" stroke-linecap="round" stroke-linejoin="round"/>
    <path d="M 101.90880584716797 69.0748519897461 C 118.3255386352539 98.51929473876953 121.01052856445312 64.61927032470703 140.06837463378906 92.12187194824219" stroke-width="2" fill="none" stroke="rgb(0, 0, 0)" stroke-opacity="1.0" stroke-linecap="round" stroke-linejoin="round"/>
    <path d="M 113.15709686279297 91.01421356201172 C 89.31248474121094 92.51334381103516 117.35946655273438 121.14069366455078 111.56329345703125 80.60377502441406" stroke-width="2" fill="none" stroke="rgb(0, 0, 0)" stroke-opacity="1.0" stroke-linecap="round" stroke-linejoin="round"/>
    <path d="M 138.9803466796875 121.07022094726562 C 102.16427612304688 92.05435943603516 177.59518432617188 115.78179168701172 85.68487548828125 103.19973754882812" stroke-width="2" fill="none" stroke="rgb(0, 0, 0)" stroke-opacity="1.0" stroke-linecap="round" stroke-linejoin="round"/>
    <path d="M 106.78339385986328 155.00753784179688 C 162.46212768554688 159.84315490722656 14.778846740722656 142.45755004882812 55.977474212646484 105.65830993652344" stroke-width="2" fill="none" stroke="rgb(0, 0, 0)" stroke-opacity="1.0" stroke-linecap="round" stroke-linejoin="round"/>
    <path d="M 159.8343505859375 126.4448013305664 C 120.79948425292969 129.54136657714844 182.9671173095703 124.35633850097656 151.9033966064453 115.86212921142578" stroke-width="2" fill="none" stroke="rgb(0, 0, 0)" stroke-opacity="1.0" stroke-linecap="round" stroke-linejoin="round"/>
    <path d="M 124.43304443359375 111.95996856689453 C 205.5873565673828 130.5042724609375 113.45729064941406 119.1236572265625 164.18502807617188 121.84624481201172" stroke-width="2" fill="none" stroke="rgb(0, 0, 0)" stroke-opacity="1.0" stroke-linecap="round" stroke-linejoin="round"/>
    <path d="M 171.80189514160156 84.18932342529297 C 202.4466094970703 22.50328826904297 167.30479431152344 102.51617431640625 149.520751953125 87.05916595458984" stroke-width="2" fill="none" stroke="rgb(0, 0, 0)" stroke-opacity="1.0" stroke-linecap="round" stroke-linejoin="round"/>
    <path d="M 135.4318084716797 130.8638153076172 C 202.92391967773438 148.7473907470703 85.15074920654297 114.08673095703125 124.7839584350586 112.50254821777344" stroke-width="2" fill="none" stroke="rgb(0, 0, 0)" stroke-opacity="1.0" stroke-linecap="round" stroke-linejoin="round"/>
    <path d="M 95.90496063232422 156.787109375 C -44.720726013183594 124.96586608886719 175.06309509277344 153.08425903320312 164.34689331054688 136.0115966796875" stroke-width="2" fill="none" stroke="rgb(0, 0, 0)" stroke-opacity="1.0" stroke-linecap="round" stroke-linejoin="round"/>
    <path d="M 159.0115203857422 140.80763244628906 C 130.6169891357422 141.0796661376953 178.98365783691406 146.89366149902344 171.83819580078125 107.23382568359375" stroke-width="2" fill="none" stroke="rgb(0, 0, 0)" stroke-opacity="1.0" stroke-linecap="round" stroke-linejoin="round"/>
    <path d="M 156.21646118164062 127.93486022949219 C 115.04071044921875 104.04772186279297 191.24806213378906 135.26368713378906 186.15977478027344 60.485286712646484" stroke-width="2" fill="none" stroke="rgb(0, 0, 0)" stroke-opacity="1.0" stroke-linecap="round" stroke-linejoin="round"/>
    <path d="M 171.1934356689453 147.88946533203125 C 159.54739379882812 152.61602783203125 193.12416076660156 75.8153076171875 158.8885955810547 87.7345199584961" stroke-width="2" fill="none" stroke="rgb(0, 0, 0)" stroke-opacity="1.0" stroke-linecap="round" stroke-linejoin="round"/>
  </g>
</svg>
