<?xml version="1.0" ?>
<svg xmlns="http://www.w3.org/2000/svg" version="1.1" width="224" height="224">
  <defs/>
  <g>
    <path d="M 100.68192291259766 102.96908569335938 C 86.92984771728516 102.89495849609375 80.89649963378906 101.60169982910156 92.13758087158203 105.82616424560547" stroke-width="2" fill="none" stroke="rgb(0, 0, 0)" stroke-opacity="1.0" stroke-linecap="round" stroke-linejoin="round"/>
    <path d="M 123.788818359375 145.80667114257812 C 107.91675567626953 148.7216796875 103.61017608642578 150.20672607421875 90.30780792236328 139.29800415039062" stroke-width="2" fill="none" stroke="rgb(0, 0, 0)" stroke-opacity="1.0" stroke-linecap="round" stroke-linejoin="round"/>
    <path d="M 127.6501693725586 133.81761169433594 C 124.63803100585938 129.5933837890625 121.03022003173828 136.93865966796875 132.97425842285156 134.57962036132812" stroke-width="2" fill="none" stroke="rgb(0, 0, 0)" stroke-opacity="1.0" stroke-linecap="round" stroke-linejoin="round"/>
    <path d="M 132.7368927001953 116.05915069580078 C 146.3651123046875 113.61471557617188 164.2488555908203 117.36505889892578 138.45193481445312 122.39623260498047" stroke-width="2" fill="none" stroke="rgb(0, 0, 0)" stroke-opacity="1.0" stroke-linecap="round" stroke-linejoin="round"/>
    <path d="M 122.99217224121094 100.42233276367188 C 131.25686645507812 98.38639831542969 131.0569610595703 91.3625259399414 130.1324920654297 84.25724792480469" stroke-width="2" fill="none" stroke="rgb(0, 0, 0)" stroke-opacity="1.0" stroke-linecap="round" stroke-linejoin="round"/>
    <path d="M 129.95266723632812 78.92650604248047 C 115.4942855834961 95.74933624267578 125.0071792602539 114.01827239990234 124.36244201660156 96.17578887939453" stroke-width="2" fill="none" stroke="rgb(0, 0, 0)" stroke-opacity="1.0" stroke-linecap="round" stroke-linejoin="round"/>
    <path d="M 105.41511535644531 73.65457916259766 C 109.15835571289062 97.94136810302734 126.3823013305664 95.64468383789062 110.4261474609375 81.2102279663086" stroke-width="2" fill="none" stroke="rgb(0, 0, 0)" stroke-opacity="1.0" stroke-linecap="round" stroke-linejoin="round"/>
    <path d="M 66.7707748413086 140.62791442871094 C 66.20655059814453 146.46185302734375 53.997276306152344 142.92369079589844 52.07822799682617 131.91635131835938" stroke-width="2" fill="none" stroke="rgb(0, 0, 0)" stroke-opacity="1.0" stroke-linecap="round" stroke-linejoin="round"/>
    <path d="M 141.9408416748047 118.3036880493164 C 138.37191772460938 109.2253646850586 154.12942504882812 113.43807983398438 141.37783813476562 117.92897033691406" stroke-width="2" fill="none" stroke="rgb(0, 0, 0)" stroke-opacity="1.0" stroke-linecap="round" stroke-linejoin="round"/>
    <path d="M 127.53015899658203 132.0355224609375 C 127.28893280029297 129.66334533691406 118.38105010986328 134.01014709472656 112.48939514160156 123.99449920654297" stroke-width="2" fill="none" stroke="rgb(0, 0, 0)" stroke-opacity="1.0" stroke-linecap="round" stroke-linejoin="round"/>
    <path d="M 170.99755859375 64.02542877197266 C 176.65281677246094 73.07229614257812 185.90325927734375 77.12398529052734 177.7296600341797 91.33618927001953" stroke-width="2" fill="none" stroke="rgb(0, 0, 0)" stroke-opacity="1.0" stroke-linecap="round" stroke-linejoin="round"/>
    <path d="M 187.95335388183594 149.90635681152344 C 172.99661254882812 147.39137268066406 166.29299926757812 146.12521362304688 150.62681579589844 160.26708984375" stroke-width="2" fill="none" stroke="rgb(0, 0, 0)" stroke-opacity="1.0" stroke-linecap="round" stroke-linejoin="round"/>
    <path d="M 63.61503219604492 144.59365844726562 C 85.35343933105469 146.76513671875 90.20629119873047 148.50975036621094 97.97095489501953 146.54928588867188" stroke-width="2" fill="none" stroke="rgb(0, 0, 0)" stroke-opacity="1.0" stroke-linecap="round" stroke-linejoin="round"/>
    <path d="M 111.24132537841797 105.65164947509766 C 104.39793395996094 98.76866149902344 108.41082000732422 73.3975601196289 121.89439392089844 91.61419677734375" stroke-width="2" fill="none" stroke="rgb(0, 0, 0)" stroke-opacity="1.0" stroke-linecap="round" stroke-linejoin="round"/>
    <path d="M 177.79095458984375 102.941162109375 C 176.7145538330078 103.70929718017578 185.12344360351562 98.6495590209961 181.57308959960938 82.12271118164062" stroke-width="2" fill="none" stroke="rgb(0, 0, 0)" stroke-opacity="1.0" stroke-linecap="round" stroke-linejoin="round"/>
    <path d="M 72.59555053710938 98.89049530029297 C 88.70854187011719 105.73686981201172 83.52819061279297 91.77613067626953 62.20299530029297 97.2852783203125" stroke-width="2" fill="none" stroke="rgb(0, 0, 0)" stroke-opacity="1.0" stroke-linecap="round" stroke-linejoin="round"/>
  </g>
</svg>
