<?xml version="1.0" ?>
<svg xmlns="http://www.w3.org/2000/svg" version="1.1" width="224" height="224">
  <defs/>
  <g>
    <path d="M 163.3970947265625 147.47674560546875 C 60.753841400146484 156.73007202148438 71.88968658447266 144.49566650390625 77.71977996826172 152.61009216308594" stroke-width="2" fill="none" stroke="rgb(0, 0, 0)" stroke-opacity="1.0" stroke-linecap="round" stroke-linejoin="round"/>
    <path d="M 98.12310028076172 96.87008666992188 C 141.47764587402344 94.3736572265625 80.59330749511719 139.86228942871094 168.42550659179688 124.4373550415039" stroke-width="2" fill="none" stroke="rgb(0, 0, 0)" stroke-opacity="1.0" stroke-linecap="round" stroke-linejoin="round"/>
    <path d="M 59.284751892089844 104.54875183105469 C -20.241281509399414 182.329833984375 242.36448669433594 121.0824966430664 153.3502960205078 152.7871551513672" stroke-width="2" fill="none" stroke="rgb(0, 0, 0)" stroke-opacity="1.0" stroke-linecap="round" stroke-linejoin="round"/>
    <path d="M 152.37603759765625 105.82048797607422 C 188.91578674316406 109.27978515625 133.59548950195312 110.48197174072266 147.76083374023438 92.46904754638672" stroke-width="2" fill="none" stroke="rgb(0, 0, 0)" stroke-opacity="1.0" stroke-linecap="round" stroke-linejoin="round"/>
    <path d="M 98.35187530517578 69.28689575195312 C 126.14884185791016 107.5079345703125 111.7748031616211 63.498748779296875 147.9361572265625 98.02348327636719" stroke-width="2" fill="none" stroke="rgb(0, 0, 0)" stroke-opacity="1.0" stroke-linecap="round" stroke-linejoin="round"/>
    <path d="M 133.83160400390625 120.90226745605469 C 181.666748046875 122.92777252197266 104.87006378173828 111.6047592163086 136.03781127929688 129.88815307617188" stroke-width="2" fill="none" stroke="rgb(0, 0, 0)" stroke-opacity="1.0" stroke-linecap="round" stroke-linejoin="round"/>
    <path d="M 128.45338439941406 122.50901794433594 C 156.97842407226562 98.1911849975586 72.34821319580078 128.74856567382812 133.72726440429688 141.43885803222656" stroke-width="2" fill="none" stroke="rgb(0, 0, 0)" stroke-opacity="1.0" stroke-linecap="round" stroke-linejoin="round"/>
    <path d="M 101.5082015991211 84.64572143554688 C 113.66837310791016 122.9927749633789 53.35094451904297 79.98641967773438 50.40656661987305 121.09367370605469" stroke-width="2" fill="none" stroke="rgb(0, 0, 0)" stroke-opacity="1.0" stroke-linecap="round" stroke-linejoin="round"/>
    <path d="M 159.34591674804688 123.05268096923828 C 190.57723999023438 120.96942138671875 146.2499542236328 135.9145965576172 177.70838928222656 124.35923767089844" stroke-width="2" fill="none" stroke="rgb(0, 0, 0)" stroke-opacity="1.0" stroke-linecap="round" stroke-linejoin="round"/>
    <path d="M 131.30868530273438 137.7401580810547 C 217.21389770507812 141.30606079101562 137.91929626464844 100.4374771118164 157.6092071533203 121.29418182373047" stroke-width="2" fill="none" stroke="rgb(0, 0, 0)" stroke-opacity="1.0" stroke-linecap="round" stroke-linejoin="round"/>
    <path d="M 172.16592407226562 114.7400131225586 C 208.03958129882812 3.6712517738342285 167.6979522705078 89.57322692871094 143.759521484375 87.02828216552734" stroke-width="2" fill="none" stroke="rgb(0, 0, 0)" stroke-opacity="1.0" stroke-linecap="round" stroke-linejoin="round"/>
    <path d="M 105.39793395996094 109.33153533935547 C 127.2746353149414 86.27450561523438 100.66539001464844 90.96690368652344 118.09158325195312 110.04298400878906" stroke-width="2" fill="none" stroke="rgb(0, 0, 0)" stroke-opacity="1.0" stroke-linecap="round" stroke-linejoin="round"/>
    <path d="M 107.53849029541016 154.85549926757812 C 3.6572964191436768 137.24794006347656 83.00576782226562 150.88748168945312 81.8676986694336 153.11154174804688" stroke-width="2" fill="none" stroke="rgb(0, 0, 0)" stroke-opacity="1.0" stroke-linecap="round" stroke-linejoin="round"/>
    <path d="M 91.85078430175781 129.34841918945312 C 66.28398895263672 109.38025665283203 198.3123321533203 182.76881408691406 174.4342803955078 126.50911712646484" stroke-width="2" fill="none" stroke="rgb(0, 0, 0)" stroke-opacity="1.0" stroke-linecap="round" stroke-linejoin="round"/>
    <path d="M 170.23297119140625 88.08782958984375 C 199.4271240234375 122.73014068603516 142.52310180664062 113.14668273925781 182.06509399414062 90.72046661376953" stroke-width="2" fill="none" stroke="rgb(0, 0, 0)" stroke-opacity="1.0" stroke-linecap="round" stroke-linejoin="round"/>
    <path d="M 143.97454833984375 122.44929504394531 C 100.19981384277344 104.6162109375 178.9774627685547 94.04241943359375 147.31312561035156 133.77392578125" stroke-width="2" fill="none" stroke="rgb(0, 0, 0)" stroke-opacity="1.0" stroke-linecap="round" stroke-linejoin="round"/>
  </g>
</svg>
