<?xml version="1.0" ?>
<svg xmlns="http://www.w3.org/2000/svg" version="1.1" width="224" height="224">
  <defs/>
  <g>
    <path d="M 105.24891662597656 91.13593292236328 C 73.7772445678711 94.65138244628906 66.59933471679688 103.02305603027344 98.78547668457031 113.8080825805664" stroke-width="2" fill="none" stroke="rgb(0, 0, 0)" stroke-opacity="1.0" stroke-linecap="round" stroke-linejoin="round"/>
    <path d="M 130.73797607421875 153.1903839111328 C 112.58919525146484 153.7952880859375 100.52733612060547 151.2627716064453 78.5006332397461 147.95559692382812" stroke-width="2" fill="none" stroke="rgb(0, 0, 0)" stroke-opacity="1.0" stroke-linecap="round" stroke-linejoin="round"/>
    <path d="M 127.8417739868164 138.30902099609375 C 124.62710571289062 129.57664489746094 115.26242065429688 139.68690490722656 149.59896850585938 139.423095703125" stroke-width="2" fill="none" stroke="rgb(0, 0, 0)" stroke-opacity="1.0" stroke-linecap="round" stroke-linejoin="round"/>
    <path d="M 136.15367126464844 109.7940673828125 C 152.0231475830078 129.51513671875 172.20965576171875 114.19178009033203 131.26182556152344 117.79875183105469" stroke-width="2" fill="none" stroke="rgb(0, 0, 0)" stroke-opacity="1.0" stroke-linecap="round" stroke-linejoin="round"/>
    <path d="M 123.83704376220703 104.74795532226562 C 140.4278106689453 99.43767547607422 121.86238861083984 70.5122299194336 160.73065185546875 85.21566772460938" stroke-width="2" fill="none" stroke="rgb(0, 0, 0)" stroke-opacity="1.0" stroke-linecap="round" stroke-linejoin="round"/>
    <path d="M 137.5698699951172 99.04887390136719 C 108.14596557617188 98.22286224365234 110.36407470703125 113.79051208496094 128.06826782226562 109.13816833496094" stroke-width="2" fill="none" stroke="rgb(0, 0, 0)" stroke-opacity="1.0" stroke-linecap="round" stroke-linejoin="round"/>
    <path d="M 104.79400634765625 70.08948516845703 C 114.25897979736328 99.13025665283203 135.82826232910156 103.46153259277344 108.43590545654297 81.75611114501953" stroke-width="2" fill="none" stroke="rgb(0, 0, 0)" stroke-opacity="1.0" stroke-linecap="round" stroke-linejoin="round"/>
    <path d="M 77.26435089111328 151.93861389160156 C 62.011207580566406 147.76239013671875 29.102481842041016 147.34359741210938 48.480079650878906 107.85511016845703" stroke-width="2" fill="none" stroke="rgb(0, 0, 0)" stroke-opacity="1.0" stroke-linecap="round" stroke-linejoin="round"/>
    <path d="M 145.07473754882812 120.03561401367188 C 147.17758178710938 131.26829528808594 174.72802734375 117.61797332763672 134.47970581054688 110.6530532836914" stroke-width="2" fill="none" stroke="rgb(0, 0, 0)" stroke-opacity="1.0" stroke-linecap="round" stroke-linejoin="round"/>
    <path d="M 116.94842529296875 122.521240234375 C 134.07846069335938 120.63992309570312 113.09312438964844 133.0462188720703 115.32819366455078 110.47840881347656" stroke-width="2" fill="none" stroke="rgb(0, 0, 0)" stroke-opacity="1.0" stroke-linecap="round" stroke-linejoin="round"/>
    <path d="M 162.37631225585938 86.26566314697266 C 176.58734130859375 67.84334564208984 196.20547485351562 70.85150146484375 179.58993530273438 99.06896209716797" stroke-width="2" fill="none" stroke="rgb(0, 0, 0)" stroke-opacity="1.0" stroke-linecap="round" stroke-linejoin="round"/>
    <path d="M 175.7233123779297 141.26419067382812 C 160.6016845703125 151.82748413085938 165.20750427246094 146.2003173828125 133.58848571777344 152.7882537841797" stroke-width="2" fill="none" stroke="rgb(0, 0, 0)" stroke-opacity="1.0" stroke-linecap="round" stroke-linejoin="round"/>
    <path d="M 63.382484436035156 137.1490020751953 C 63.092933654785156 153.2151641845703 89.01673126220703 154.01576232910156 110.15235137939453 147.66773986816406" stroke-width="2" fill="none" stroke="rgb(0, 0, 0)" stroke-opacity="1.0" stroke-linecap="round" stroke-linejoin="round"/>
    <path d="M 108.15380859375 103.82791900634766 C 108.62467956542969 84.46640014648438 99.1313705444336 70.13025665283203 133.13333129882812 87.0953369140625" stroke-width="2" fill="none" stroke="rgb(0, 0, 0)" stroke-opacity="1.0" stroke-linecap="round" stroke-linejoin="round"/>
    <path d="M 165.11151123046875 120.32955932617188 C 170.6190643310547 102.09796905517578 183.50936889648438 92.36602783203125 182.46823120117188 64.1212387084961" stroke-width="2" fill="none" stroke="rgb(0, 0, 0)" stroke-opacity="1.0" stroke-linecap="round" stroke-linejoin="round"/>
    <path d="M 71.28511810302734 102.1830062866211 C 92.1480712890625 104.20709228515625 71.83074188232422 88.85918426513672 49.401580810546875 110.20564270019531" stroke-width="2" fill="none" stroke="rgb(0, 0, 0)" stroke-opacity="1.0" stroke-linecap="round" stroke-linejoin="round"/>
  </g>
</svg>
