<?xml version="1.0" ?>
<svg xmlns="http://www.w3.org/2000/svg" version="1.1" width="224" height="224">
  <defs/>
  <g>
    <path d="M 113.4503402709961 147.47413635253906 C 3.3947718143463135 162.712890625 61.11304473876953 91.30204010009766 63.74115753173828 117.60588073730469" stroke-width="2" fill="none" stroke="rgb(0, 0, 0)" stroke-opacity="1.0" stroke-linecap="round" stroke-linejoin="round"/>
    <path d="M 91.66905975341797 125.8074722290039 C 170.00465393066406 130.4536590576172 72.41791534423828 115.06367492675781 155.05531311035156 127.73490142822266" stroke-width="2" fill="none" stroke="rgb(0, 0, 0)" stroke-opacity="1.0" stroke-linecap="round" stroke-linejoin="round"/>
    <path d="M 60.305301666259766 102.7385482788086 C -0.6167948842048645 155.34616088867188 258.79278564453125 183.02894592285156 144.9708709716797 116.53548431396484" stroke-width="2" fill="none" stroke="rgb(0, 0, 0)" stroke-opacity="1.0" stroke-linecap="round" stroke-linejoin="round"/>
    <path d="M 148.94525146484375 121.02775573730469 C 186.50595092773438 109.70390319824219 126.65277099609375 119.73406219482422 153.55322265625 123.7788314819336" stroke-width="2" fill="none" stroke="rgb(0, 0, 0)" stroke-opacity="1.0" stroke-linecap="round" stroke-linejoin="round"/>
    <path d="M 109.64322662353516 67.49243927001953 C 134.9310302734375 107.70805358886719 138.6256103515625 66.49325561523438 160.12332153320312 96.94174194335938" stroke-width="2" fill="none" stroke="rgb(0, 0, 0)" stroke-opacity="1.0" stroke-linecap="round" stroke-linejoin="round"/>
    <path d="M 104.12651824951172 122.18766784667969 C 124.940673828125 95.32514953613281 82.47410583496094 110.74386596679688 141.51171875 103.3141860961914" stroke-width="2" fill="none" stroke="rgb(0, 0, 0)" stroke-opacity="1.0" stroke-linecap="round" stroke-linejoin="round"/>
    <path d="M 134.32847595214844 107.85515594482422 C 107.07373046875 84.44232940673828 120.87564086914062 122.17290496826172 94.6895523071289 104.12822723388672" stroke-width="2" fill="none" stroke="rgb(0, 0, 0)" stroke-opacity="1.0" stroke-linecap="round" stroke-linejoin="round"/>
    <path d="M 103.94984436035156 75.07233428955078 C 127.62748718261719 123.96123504638672 63.056949615478516 67.91447448730469 40.607967376708984 122.98980712890625" stroke-width="2" fill="none" stroke="rgb(0, 0, 0)" stroke-opacity="1.0" stroke-linecap="round" stroke-linejoin="round"/>
    <path d="M 134.808349609375 117.45611572265625 C 91.886962890625 138.212646484375 164.67567443847656 102.34424591064453 119.3658218383789 119.32791137695312" stroke-width="2" fill="none" stroke="rgb(0, 0, 0)" stroke-opacity="1.0" stroke-linecap="round" stroke-linejoin="round"/>
    <path d="M 96.21593475341797 127.38128662109375 C 149.45852661132812 151.72300720214844 73.23883819580078 133.6990509033203 119.04176330566406 119.02855682373047" stroke-width="2" fill="none" stroke="rgb(0, 0, 0)" stroke-opacity="1.0" stroke-linecap="round" stroke-linejoin="round"/>
    <path d="M 167.8328399658203 107.22874450683594 C 209.6197509765625 13.44002914428711 159.6649932861328 98.3290023803711 158.7510986328125 83.67687225341797" stroke-width="2" fill="none" stroke="rgb(0, 0, 0)" stroke-opacity="1.0" stroke-linecap="round" stroke-linejoin="round"/>
    <path d="M 162.7004852294922 103.1645736694336 C 184.20086669921875 159.5489501953125 80.05048370361328 129.44154357910156 107.14364624023438 80.12989044189453" stroke-width="2" fill="none" stroke="rgb(0, 0, 0)" stroke-opacity="1.0" stroke-linecap="round" stroke-linejoin="round"/>
    <path d="M 80.53388214111328 134.94821166992188 C 23.075298309326172 120.15542602539062 88.60962677001953 161.8372344970703 112.83138275146484 154.62998962402344" stroke-width="2" fill="none" stroke="rgb(0, 0, 0)" stroke-opacity="1.0" stroke-linecap="round" stroke-linejoin="round"/>
    <path d="M 173.45310974121094 138.61474609375 C 90.77788543701172 132.27145385742188 157.39599609375 117.30362701416016 145.4967803955078 141.87001037597656" stroke-width="2" fill="none" stroke="rgb(0, 0, 0)" stroke-opacity="1.0" stroke-linecap="round" stroke-linejoin="round"/>
    <path d="M 180.1437225341797 66.9178695678711 C 179.40359497070312 66.63446044921875 184.93675231933594 112.38816833496094 150.32806396484375 100.5748291015625" stroke-width="2" fill="none" stroke="rgb(0, 0, 0)" stroke-opacity="1.0" stroke-linecap="round" stroke-linejoin="round"/>
    <path d="M 68.30179595947266 130.96560668945312 C 183.61026000976562 142.9718780517578 165.1173553466797 130.5287628173828 114.56560516357422 118.18388366699219" stroke-width="2" fill="none" stroke="rgb(0, 0, 0)" stroke-opacity="1.0" stroke-linecap="round" stroke-linejoin="round"/>
  </g>
</svg>
