<?xml version="1.0" ?>
<svg xmlns="http://www.w3.org/2000/svg" version="1.1" width="224" height="224">
  <defs/>
  <g>
    <path d="M 60.66621017456055 146.83255004882812 C 5.94354772567749 137.33795166015625 81.0441665649414 68.42546081542969 107.05716705322266 125.29631805419922" stroke-width="2" fill="none" stroke="rgb(0, 0, 0)" stroke-opacity="1.0" stroke-linecap="round" stroke-linejoin="round"/>
    <path d="M 155.446533203125 136.38206481933594 C 199.81690979003906 144.37789916992188 64.84331512451172 127.81351470947266 70.4162826538086 127.15290069580078" stroke-width="2" fill="none" stroke="rgb(0, 0, 0)" stroke-opacity="1.0" stroke-linecap="round" stroke-linejoin="round"/>
    <path d="M 56.82404708862305 140.78115844726562 C 13.150782585144043 119.0848617553711 79.24369812011719 155.68861389160156 135.9427490234375 151.06689453125" stroke-width="2" fill="none" stroke="rgb(0, 0, 0)" stroke-opacity="1.0" stroke-linecap="round" stroke-linejoin="round"/>
    <path d="M 163.3986358642578 103.06063079833984 C 180.69778442382812 111.79011535644531 180.5917205810547 75.09733581542969 168.59767150878906 128.7655029296875" stroke-width="2" fill="none" stroke="rgb(0, 0, 0)" stroke-opacity="1.0" stroke-linecap="round" stroke-linejoin="round"/>
    <path d="M 112.46541595458984 77.20465850830078 C 115.02991485595703 110.17121124267578 161.58641052246094 51.80923080444336 159.31997680664062 107.66938781738281" stroke-width="2" fill="none" stroke="rgb(0, 0, 0)" stroke-opacity="1.0" stroke-linecap="round" stroke-linejoin="round"/>
    <path d="M 96.29114532470703 133.19544982910156 C 12.072854042053223 98.5094223022461 105.83601379394531 122.43875885009766 59.44915008544922 117.2994155883789" stroke-width="2" fill="none" stroke="rgb(0, 0, 0)" stroke-opacity="1.0" stroke-linecap="round" stroke-linejoin="round"/>
    <path d="M 132.3655548095703 127.68795776367188 C 79.33416748046875 96.63713073730469 144.0923614501953 74.58904266357422 98.412353515625 108.43053436279297" stroke-width="2" fill="none" stroke="rgb(0, 0, 0)" stroke-opacity="1.0" stroke-linecap="round" stroke-linejoin="round"/>
    <path d="M 127.26654815673828 161.0878143310547 C 107.16055297851562 159.72923278808594 1.4076957702636719 165.5958709716797 59.63481903076172 101.33259582519531" stroke-width="2" fill="none" stroke="rgb(0, 0, 0)" stroke-opacity="1.0" stroke-linecap="round" stroke-linejoin="round"/>
    <path d="M 170.3267059326172 96.3515853881836 C 131.9499053955078 99.30500793457031 202.75555419921875 115.84988403320312 149.6502227783203 129.51412963867188" stroke-width="2" fill="none" stroke="rgb(0, 0, 0)" stroke-opacity="1.0" stroke-linecap="round" stroke-linejoin="round"/>
    <path d="M 115.86701202392578 117.40869140625 C 217.65370178222656 113.40906524658203 106.97215270996094 120.98641204833984 169.7328338623047 122.28190612792969" stroke-width="2" fill="none" stroke="rgb(0, 0, 0)" stroke-opacity="1.0" stroke-linecap="round" stroke-linejoin="round"/>
    <path d="M 189.50755310058594 65.71355438232422 C 173.340576171875 57.6289176940918 167.68994140625 101.97630310058594 145.22488403320312 86.77236938476562" stroke-width="2" fill="none" stroke="rgb(0, 0, 0)" stroke-opacity="1.0" stroke-linecap="round" stroke-linejoin="round"/>
    <path d="M 174.75440979003906 139.37498474121094 C 181.40228271484375 161.8199005126953 53.485321044921875 112.9394302368164 94.6707992553711 129.13455200195312" stroke-width="2" fill="none" stroke="rgb(0, 0, 0)" stroke-opacity="1.0" stroke-linecap="round" stroke-linejoin="round"/>
    <path d="M 136.15301513671875 148.34861755371094 C 59.50910568237305 147.8824005126953 227.2998046875 167.8362579345703 165.66270446777344 135.15872192382812" stroke-width="2" fill="none" stroke="rgb(0, 0, 0)" stroke-opacity="1.0" stroke-linecap="round" stroke-linejoin="round"/>
    <path d="M 134.6369171142578 108.43766021728516 C 169.1610870361328 114.0539321899414 109.01512145996094 96.6588134765625 156.91946411132812 119.100830078125" stroke-width="2" fill="none" stroke="rgb(0, 0, 0)" stroke-opacity="1.0" stroke-linecap="round" stroke-linejoin="round"/>
    <path d="M 159.02516174316406 94.04651641845703 C 127.97377014160156 78.80146026611328 186.33319091796875 122.21269989013672 181.29837036132812 67.73383331298828" stroke-width="2" fill="none" stroke="rgb(0, 0, 0)" stroke-opacity="1.0" stroke-linecap="round" stroke-linejoin="round"/>
    <path d="M 160.13059997558594 116.44628143310547 C 85.53287506103516 115.62590026855469 197.81390380859375 122.5181884765625 137.403076171875 123.52980041503906" stroke-width="2" fill="none" stroke="rgb(0, 0, 0)" stroke-opacity="1.0" stroke-linecap="round" stroke-linejoin="round"/>
  </g>
</svg>
