<?xml version="1.0" ?>
<svg xmlns="http://www.w3.org/2000/svg" version="1.1" width="224" height="224">
  <defs/>
  <g>
    <path d="M 77.180908203125 147.11282348632812 C 40.136009216308594 142.4344940185547 50.01570510864258 117.73371887207031 82.27471160888672 138.71243286132812" stroke-width="2" fill="none" stroke="rgb(0, 0, 0)" stroke-opacity="1.0" stroke-linecap="round" stroke-linejoin="round"/>
    <path d="M 89.15422821044922 116.850341796875 C 124.25894165039062 108.42684936523438 80.17488098144531 130.46182250976562 122.60822296142578 154.81495666503906" stroke-width="2" fill="none" stroke="rgb(0, 0, 0)" stroke-opacity="1.0" stroke-linecap="round" stroke-linejoin="round"/>
    <path d="M 53.624752044677734 110.25129699707031 C -24.407264709472656 168.1608428955078 261.1692810058594 161.46371459960938 136.12791442871094 139.49000549316406" stroke-width="2" fill="none" stroke="rgb(0, 0, 0)" stroke-opacity="1.0" stroke-linecap="round" stroke-linejoin="round"/>
    <path d="M 113.02498626708984 128.66802978515625 C 177.22219848632812 138.94752502441406 68.72065734863281 131.5826873779297 160.13999938964844 130.67657470703125" stroke-width="2" fill="none" stroke="rgb(0, 0, 0)" stroke-opacity="1.0" stroke-linecap="round" stroke-linejoin="round"/>
    <path d="M 111.79317474365234 71.20197296142578 C 143.23162841796875 101.15338134765625 137.88168334960938 63.28825378417969 159.3681640625 91.13164520263672" stroke-width="2" fill="none" stroke="rgb(0, 0, 0)" stroke-opacity="1.0" stroke-linecap="round" stroke-linejoin="round"/>
    <path d="M 107.4527359008789 117.262939453125 C 163.42111206054688 116.18870544433594 90.96406555175781 110.99755096435547 131.4357452392578 117.1047134399414" stroke-width="2" fill="none" stroke="rgb(0, 0, 0)" stroke-opacity="1.0" stroke-linecap="round" stroke-linejoin="round"/>
    <path d="M 112.13106536865234 109.87821197509766 C 147.3802032470703 104.49176788330078 72.44584655761719 117.36711120605469 133.03887939453125 120.16106414794922" stroke-width="2" fill="none" stroke="rgb(0, 0, 0)" stroke-opacity="1.0" stroke-linecap="round" stroke-linejoin="round"/>
    <path d="M 106.71045684814453 73.01203918457031 C 115.37525939941406 126.09319305419922 53.21908187866211 79.0594711303711 55.484134674072266 120.82310485839844" stroke-width="2" fill="none" stroke="rgb(0, 0, 0)" stroke-opacity="1.0" stroke-linecap="round" stroke-linejoin="round"/>
    <path d="M 155.3573760986328 116.91238403320312 C 159.1378173828125 122.54399871826172 115.76006317138672 111.13705444335938 155.77847290039062 124.06427001953125" stroke-width="2" fill="none" stroke="rgb(0, 0, 0)" stroke-opacity="1.0" stroke-linecap="round" stroke-linejoin="round"/>
    <path d="M 74.42328643798828 137.3646240234375 C 226.16049194335938 168.2442169189453 124.56352233886719 135.68142700195312 119.65315246582031 132.9414825439453" stroke-width="2" fill="none" stroke="rgb(0, 0, 0)" stroke-opacity="1.0" stroke-linecap="round" stroke-linejoin="round"/>
    <path d="M 166.58596801757812 116.8153076171875 C 196.57000732421875 35.96242141723633 181.28616333007812 110.43699645996094 162.69412231445312 98.28845977783203" stroke-width="2" fill="none" stroke="rgb(0, 0, 0)" stroke-opacity="1.0" stroke-linecap="round" stroke-linejoin="round"/>
    <path d="M 102.20851135253906 96.91064453125 C 116.63435363769531 105.136474609375 83.9063491821289 103.7143325805664 113.19379425048828 79.18360900878906" stroke-width="2" fill="none" stroke="rgb(0, 0, 0)" stroke-opacity="1.0" stroke-linecap="round" stroke-linejoin="round"/>
    <path d="M 66.71129608154297 150.07766723632812 C 6.8647894859313965 115.11871337890625 117.29268646240234 173.1999053955078 151.1132049560547 152.76744079589844" stroke-width="2" fill="none" stroke="rgb(0, 0, 0)" stroke-opacity="1.0" stroke-linecap="round" stroke-linejoin="round"/>
    <path d="M 91.79975891113281 149.87596130371094 C 62.330318450927734 150.51535034179688 190.33335876464844 171.99827575683594 177.08778381347656 129.0889892578125" stroke-width="2" fill="none" stroke="rgb(0, 0, 0)" stroke-opacity="1.0" stroke-linecap="round" stroke-linejoin="round"/>
    <path d="M 162.71617126464844 85.1639633178711 C 212.82162475585938 12.996138572692871 163.51332092285156 149.24798583984375 160.7397918701172 104.68856811523438" stroke-width="2" fill="none" stroke="rgb(0, 0, 0)" stroke-opacity="1.0" stroke-linecap="round" stroke-linejoin="round"/>
    <path d="M 108.14320373535156 107.72893524169922 C 131.4771728515625 172.14498901367188 162.36453247070312 124.25868225097656 135.63731384277344 127.30066680908203" stroke-width="2" fill="none" stroke="rgb(0, 0, 0)" stroke-opacity="1.0" stroke-linecap="round" stroke-linejoin="round"/>
  </g>
</svg>
