<?xml version="1.0" ?>
<svg xmlns="http://www.w3.org/2000/svg" version="1.1" width="224" height="224">
  <defs/>
  <g>
    <path d="M 77.3537826538086 140.809814453125 C -16.126190185546875 130.23590087890625 108.46399688720703 52.21712112426758 109.93734741210938 132.14356994628906" stroke-width="2" fill="none" stroke="rgb(0, 0, 0)" stroke-opacity="1.0" stroke-linecap="round" stroke-linejoin="round"/>
    <path d="M 124.49501037597656 157.9573974609375 C 201.37892150878906 157.23912048339844 59.605987548828125 158.73260498046875 123.13811492919922 102.85352325439453" stroke-width="2" fill="none" stroke="rgb(0, 0, 0)" stroke-opacity="1.0" stroke-linecap="round" stroke-linejoin="round"/>
    <path d="M 147.02545166015625 142.9342498779297 C 69.03958892822266 153.00413513183594 217.19357299804688 164.01278686523438 152.3169708251953 138.15203857421875" stroke-width="2" fill="none" stroke="rgb(0, 0, 0)" stroke-opacity="1.0" stroke-linecap="round" stroke-linejoin="round"/>
    <path d="M 127.11225128173828 112.68614196777344 C 157.9621124267578 121.56596374511719 91.24193572998047 125.06797790527344 141.43458557128906 120.64398193359375" stroke-width="2" fill="none" stroke="rgb(0, 0, 0)" stroke-opacity="1.0" stroke-linecap="round" stroke-linejoin="round"/>
    <path d="M 103.83821868896484 72.17639923095703 C 117.00679779052734 103.55648803710938 138.2083282470703 70.87310028076172 150.91416931152344 95.44735717773438" stroke-width="2" fill="none" stroke="rgb(0, 0, 0)" stroke-opacity="1.0" stroke-linecap="round" stroke-linejoin="round"/>
    <path d="M 79.66126251220703 105.32487487792969 C 4.413052558898926 105.18311309814453 107.48260498046875 127.67057800292969 70.45146179199219 113.8846664428711" stroke-width="2" fill="none" stroke="rgb(0, 0, 0)" stroke-opacity="1.0" stroke-linecap="round" stroke-linejoin="round"/>
    <path d="M 118.7530746459961 92.69499206542969 C 79.76220703125 46.24882507324219 110.78421020507812 108.6839370727539 88.5149917602539 106.49961853027344" stroke-width="2" fill="none" stroke="rgb(0, 0, 0)" stroke-opacity="1.0" stroke-linecap="round" stroke-linejoin="round"/>
    <path d="M 142.74168395996094 154.2228546142578 C 129.74798583984375 160.95391845703125 -3.182832717895508 165.65582275390625 52.18023681640625 110.25028228759766" stroke-width="2" fill="none" stroke="rgb(0, 0, 0)" stroke-opacity="1.0" stroke-linecap="round" stroke-linejoin="round"/>
    <path d="M 144.43824768066406 125.54461669921875 C 90.42599487304688 120.85342407226562 174.70668029785156 120.44795989990234 134.90696716308594 128.12643432617188" stroke-width="2" fill="none" stroke="rgb(0, 0, 0)" stroke-opacity="1.0" stroke-linecap="round" stroke-linejoin="round"/>
    <path d="M 119.00382995605469 113.84201049804688 C 182.75613403320312 105.3052749633789 107.64566040039062 126.9552993774414 156.33065795898438 116.10686492919922" stroke-width="2" fill="none" stroke="rgb(0, 0, 0)" stroke-opacity="1.0" stroke-linecap="round" stroke-linejoin="round"/>
    <path d="M 183.81300354003906 65.16857147216797 C 178.87603759765625 58.24226379394531 166.7552947998047 99.31184387207031 148.63632202148438 85.6755142211914" stroke-width="2" fill="none" stroke="rgb(0, 0, 0)" stroke-opacity="1.0" stroke-linecap="round" stroke-linejoin="round"/>
    <path d="M 168.69508361816406 139.4171905517578 C 144.7960968017578 156.5631561279297 39.72400665283203 122.33487701416016 85.8734359741211 136.77215576171875" stroke-width="2" fill="none" stroke="rgb(0, 0, 0)" stroke-opacity="1.0" stroke-linecap="round" stroke-linejoin="round"/>
    <path d="M 113.0293197631836 152.6752166748047 C -11.090476036071777 115.46504211425781 207.083984375 187.733642578125 181.56466674804688 134.2239532470703" stroke-width="2" fill="none" stroke="rgb(0, 0, 0)" stroke-opacity="1.0" stroke-linecap="round" stroke-linejoin="round"/>
    <path d="M 108.5501708984375 110.41265869140625 C 146.29043579101562 111.39478302001953 158.2958221435547 139.34793090820312 159.6433563232422 117.0277099609375" stroke-width="2" fill="none" stroke="rgb(0, 0, 0)" stroke-opacity="1.0" stroke-linecap="round" stroke-linejoin="round"/>
    <path d="M 167.08938598632812 125.90200805664062 C 137.0291290283203 76.43193054199219 168.48416137695312 132.11221313476562 181.72308349609375 68.87662506103516" stroke-width="2" fill="none" stroke="rgb(0, 0, 0)" stroke-opacity="1.0" stroke-linecap="round" stroke-linejoin="round"/>
    <path d="M 142.41847229003906 130.7996063232422 C 106.9677734375 139.60597229003906 198.02891540527344 100.81170654296875 161.62164306640625 93.32959747314453" stroke-width="2" fill="none" stroke="rgb(0, 0, 0)" stroke-opacity="1.0" stroke-linecap="round" stroke-linejoin="round"/>
  </g>
</svg>
