<?xml version="1.0" ?>
<svg xmlns="http://www.w3.org/2000/svg" version="1.1" width="224" height="224">
  <defs/>
  <g>
    <path d="M 62.798011779785156 153.16400146484375 C -0.34049689769744873 129.00326538085938 106.79120635986328 64.92198181152344 110.55538940429688 122.84648895263672" stroke-width="2" fill="none" stroke="rgb(0, 0, 0)" stroke-opacity="1.0" stroke-linecap="round" stroke-linejoin="round"/>
    <path d="M 163.224365234375 142.40103149414062 C 211.3626708984375 147.3433074951172 101.23628234863281 142.6830291748047 123.35587310791016 115.30742645263672" stroke-width="2" fill="none" stroke="rgb(0, 0, 0)" stroke-opacity="1.0" stroke-linecap="round" stroke-linejoin="round"/>
    <path d="M 77.22464752197266 120.80868530273438 C 2.8850927352905273 114.12884521484375 247.3902130126953 183.0808868408203 142.5908660888672 122.34797668457031" stroke-width="2" fill="none" stroke="rgb(0, 0, 0)" stroke-opacity="1.0" stroke-linecap="round" stroke-linejoin="round"/>
    <path d="M 128.5015411376953 120.98152923583984 C 171.33685302734375 111.4939956665039 82.63720703125 103.1185073852539 165.400146484375 112.41893005371094" stroke-width="2" fill="none" stroke="rgb(0, 0, 0)" stroke-opacity="1.0" stroke-linecap="round" stroke-linejoin="round"/>
    <path d="M 100.9125747680664 69.89545440673828 C 114.6141128540039 107.41551208496094 146.7672882080078 73.89839935302734 155.08148193359375 102.17984771728516" stroke-width="2" fill="none" stroke="rgb(0, 0, 0)" stroke-opacity="1.0" stroke-linecap="round" stroke-linejoin="round"/>
    <path d="M 121.30290222167969 95.13510131835938 C 75.3531265258789 103.79774475097656 109.15326690673828 119.31524658203125 99.72225952148438 78.06586456298828" stroke-width="2" fill="none" stroke="rgb(0, 0, 0)" stroke-opacity="1.0" stroke-linecap="round" stroke-linejoin="round"/>
    <path d="M 137.99789428710938 120.98196411132812 C 117.60774230957031 116.02325439453125 178.86598205566406 138.58096313476562 112.66876220703125 115.43661499023438" stroke-width="2" fill="none" stroke="rgb(0, 0, 0)" stroke-opacity="1.0" stroke-linecap="round" stroke-linejoin="round"/>
    <path d="M 142.42575073242188 156.5937957763672 C 154.2941436767578 158.04965209960938 6.762817859649658 161.91636657714844 53.752532958984375 109.11139678955078" stroke-width="2" fill="none" stroke="rgb(0, 0, 0)" stroke-opacity="1.0" stroke-linecap="round" stroke-linejoin="round"/>
    <path d="M 155.4154815673828 132.6981201171875 C 115.6806869506836 132.45962524414062 189.01426696777344 124.672119140625 152.85525512695312 126.27880859375" stroke-width="2" fill="none" stroke="rgb(0, 0, 0)" stroke-opacity="1.0" stroke-linecap="round" stroke-linejoin="round"/>
    <path d="M 123.1836166381836 136.08131408691406 C 184.61065673828125 131.91151428222656 107.00527954101562 133.9271697998047 146.6630096435547 124.12425994873047" stroke-width="2" fill="none" stroke="rgb(0, 0, 0)" stroke-opacity="1.0" stroke-linecap="round" stroke-linejoin="round"/>
    <path d="M 186.68011474609375 68.65045928955078 C 188.0912628173828 33.477943420410156 166.50146484375 98.69091796875 146.37074279785156 91.88687133789062" stroke-width="2" fill="none" stroke="rgb(0, 0, 0)" stroke-opacity="1.0" stroke-linecap="round" stroke-linejoin="round"/>
    <path d="M 120.67093658447266 142.5337371826172 C 163.46258544921875 156.7224578857422 70.28734588623047 125.87398529052734 106.46717071533203 129.4445037841797" stroke-width="2" fill="none" stroke="rgb(0, 0, 0)" stroke-opacity="1.0" stroke-linecap="round" stroke-linejoin="round"/>
    <path d="M 81.40253448486328 150.59767150878906 C -29.410568237304688 123.29486083984375 163.84251403808594 165.41380310058594 159.5235595703125 140.86866760253906" stroke-width="2" fill="none" stroke="rgb(0, 0, 0)" stroke-opacity="1.0" stroke-linecap="round" stroke-linejoin="round"/>
    <path d="M 145.7313995361328 145.26377868652344 C 133.15464782714844 142.77301025390625 202.55862426757812 152.5215606689453 155.1157684326172 111.73588562011719" stroke-width="2" fill="none" stroke="rgb(0, 0, 0)" stroke-opacity="1.0" stroke-linecap="round" stroke-linejoin="round"/>
    <path d="M 161.907958984375 117.76817321777344 C 134.694580078125 106.58824920654297 169.6360321044922 143.33314514160156 184.40069580078125 73.16532135009766" stroke-width="2" fill="none" stroke="rgb(0, 0, 0)" stroke-opacity="1.0" stroke-linecap="round" stroke-linejoin="round"/>
    <path d="M 157.25982666015625 145.9566192626953 C 148.9824981689453 152.56639099121094 201.97866821289062 72.82678985595703 158.28927612304688 101.25665283203125" stroke-width="2" fill="none" stroke="rgb(0, 0, 0)" stroke-opacity="1.0" stroke-linecap="round" stroke-linejoin="round"/>
  </g>
</svg>
