<?xml version="1.0" ?>
<svg xmlns="http://www.w3.org/2000/svg" version="1.1" width="224" height="224">
  <defs/>
  <g>
    <path d="M 81.55168914794922 147.64447021484375 C -17.28162384033203 127.3884506225586 105.59054565429688 54.259403228759766 106.484130859375 126.61492156982422" stroke-width="2" fill="none" stroke="rgb(0, 0, 0)" stroke-opacity="1.0" stroke-linecap="round" stroke-linejoin="round"/>
    <path d="M 118.6718521118164 150.75485229492188 C 206.85934448242188 154.27276611328125 56.531803131103516 153.65928649902344 120.11891174316406 106.07172393798828" stroke-width="2" fill="none" stroke="rgb(0, 0, 0)" stroke-opacity="1.0" stroke-linecap="round" stroke-linejoin="round"/>
    <path d="M 133.04164123535156 152.57640075683594 C 53.82708740234375 138.33021545410156 210.2593994140625 160.90760803222656 166.586181640625 139.45216369628906" stroke-width="2" fill="none" stroke="rgb(0, 0, 0)" stroke-opacity="1.0" stroke-linecap="round" stroke-linejoin="round"/>
    <path d="M 109.59689331054688 112.68579864501953 C 149.50213623046875 119.78166198730469 98.4544906616211 126.86080169677734 151.83270263671875 114.69672393798828" stroke-width="2" fill="none" stroke="rgb(0, 0, 0)" stroke-opacity="1.0" stroke-linecap="round" stroke-linejoin="round"/>
    <path d="M 99.72605895996094 78.45907592773438 C 116.94052124023438 110.55166625976562 133.8074951171875 70.15718078613281 151.542724609375 97.83783721923828" stroke-width="2" fill="none" stroke="rgb(0, 0, 0)" stroke-opacity="1.0" stroke-linecap="round" stroke-linejoin="round"/>
    <path d="M 75.05380249023438 127.7499008178711 C 10.614815711975098 107.05260467529297 113.94002532958984 127.20826721191406 59.106529235839844 121.13360595703125" stroke-width="2" fill="none" stroke="rgb(0, 0, 0)" stroke-opacity="1.0" stroke-linecap="round" stroke-linejoin="round"/>
    <path d="M 111.35615539550781 80.00654602050781 C 87.64229583740234 48.75712203979492 116.38690948486328 107.92232513427734 92.6485366821289 116.63656616210938" stroke-width="2" fill="none" stroke="rgb(0, 0, 0)" stroke-opacity="1.0" stroke-linecap="round" stroke-linejoin="round"/>
    <path d="M 136.82565307617188 152.66421508789062 C 118.47248077392578 148.67556762695312 -7.0618815422058105 168.29078674316406 51.601531982421875 110.02256774902344" stroke-width="2" fill="none" stroke="rgb(0, 0, 0)" stroke-opacity="1.0" stroke-linecap="round" stroke-linejoin="round"/>
    <path d="M 141.6045684814453 113.49317169189453 C 100.65222930908203 137.06130981445312 174.83238220214844 129.2537841796875 152.4013671875 135.5106658935547" stroke-width="2" fill="none" stroke="rgb(0, 0, 0)" stroke-opacity="1.0" stroke-linecap="round" stroke-linejoin="round"/>
    <path d="M 127.26058959960938 118.3978500366211 C 203.31228637695312 121.39977264404297 127.1382064819336 135.97998046875 159.48941040039062 122.1081314086914" stroke-width="2" fill="none" stroke="rgb(0, 0, 0)" stroke-opacity="1.0" stroke-linecap="round" stroke-linejoin="round"/>
    <path d="M 180.7602996826172 67.57540130615234 C 184.2017822265625 50.4967041015625 162.79432678222656 99.43810272216797 148.03121948242188 89.59724426269531" stroke-width="2" fill="none" stroke="rgb(0, 0, 0)" stroke-opacity="1.0" stroke-linecap="round" stroke-linejoin="round"/>
    <path d="M 173.0552215576172 134.82237243652344 C 150.427001953125 156.13455200195312 25.27051544189453 116.11653900146484 53.03756332397461 139.91842651367188" stroke-width="2" fill="none" stroke="rgb(0, 0, 0)" stroke-opacity="1.0" stroke-linecap="round" stroke-linejoin="round"/>
    <path d="M 136.413330078125 154.2803497314453 C -22.057567596435547 116.07501220703125 220.05609130859375 186.00523376464844 167.23959350585938 125.81088256835938" stroke-width="2" fill="none" stroke="rgb(0, 0, 0)" stroke-opacity="1.0" stroke-linecap="round" stroke-linejoin="round"/>
    <path d="M 110.46834564208984 110.66192626953125 C 161.04574584960938 101.59477996826172 148.08848571777344 148.11705017089844 171.49203491210938 110.26239776611328" stroke-width="2" fill="none" stroke="rgb(0, 0, 0)" stroke-opacity="1.0" stroke-linecap="round" stroke-linejoin="round"/>
    <path d="M 165.29798889160156 119.42706298828125 C 152.2751007080078 79.38819885253906 171.95762634277344 135.62774658203125 179.39430236816406 73.14372253417969" stroke-width="2" fill="none" stroke="rgb(0, 0, 0)" stroke-opacity="1.0" stroke-linecap="round" stroke-linejoin="round"/>
    <path d="M 154.2914276123047 134.0557098388672 C 115.77021026611328 141.03453063964844 206.77906799316406 106.573486328125 142.59852600097656 101.03797149658203" stroke-width="2" fill="none" stroke="rgb(0, 0, 0)" stroke-opacity="1.0" stroke-linecap="round" stroke-linejoin="round"/>
  </g>
</svg>
