<?xml version="1.0" ?>
<svg xmlns="http://www.w3.org/2000/svg" version="1.1" width="224" height="224">
  <defs/>
  <g>
    <path d="M 77.75445556640625 151.96539306640625 C -3.3947386741638184 154.92454528808594 74.93331146240234 52.96223831176758 118.51204681396484 116.3930892944336" stroke-width="2" fill="none" stroke="rgb(0, 0, 0)" stroke-opacity="1.0" stroke-linecap="round" stroke-linejoin="round"/>
    <path d="M 152.183837890625 109.29952239990234 C 194.2040252685547 109.35476684570312 45.97677993774414 117.70755004882812 123.85983276367188 121.05073547363281" stroke-width="2" fill="none" stroke="rgb(0, 0, 0)" stroke-opacity="1.0" stroke-linecap="round" stroke-linejoin="round"/>
    <path d="M 53.98069763183594 111.71637725830078 C 3.1590158939361572 155.97015380859375 235.1953125 186.4077911376953 165.5128631591797 120.9603271484375" stroke-width="2" fill="none" stroke="rgb(0, 0, 0)" stroke-opacity="1.0" stroke-linecap="round" stroke-linejoin="round"/>
    <path d="M 117.12329864501953 105.45233154296875 C 205.06019592285156 116.55065155029297 136.16371154785156 122.50138854980469 162.8492889404297 128.2809295654297" stroke-width="2" fill="none" stroke="rgb(0, 0, 0)" stroke-opacity="1.0" stroke-linecap="round" stroke-linejoin="round"/>
    <path d="M 104.8625259399414 71.45201110839844 C 144.4506072998047 112.43997955322266 123.7031021118164 66.48258209228516 160.50323486328125 89.6199722290039" stroke-width="2" fill="none" stroke="rgb(0, 0, 0)" stroke-opacity="1.0" stroke-linecap="round" stroke-linejoin="round"/>
    <path d="M 87.47962188720703 92.32991027832031 C 104.0811767578125 67.86106872558594 94.86497497558594 75.08477020263672 95.74019622802734 102.44825744628906" stroke-width="2" fill="none" stroke="rgb(0, 0, 0)" stroke-opacity="1.0" stroke-linecap="round" stroke-linejoin="round"/>
    <path d="M 117.22770690917969 138.49679565429688 C 78.1626968383789 114.47372436523438 174.74339294433594 155.42391967773438 64.63784790039062 118.21261596679688" stroke-width="2" fill="none" stroke="rgb(0, 0, 0)" stroke-opacity="1.0" stroke-linecap="round" stroke-linejoin="round"/>
    <path d="M 96.99523162841797 106.70230865478516 C 179.25372314453125 151.9059600830078 -13.33646011352539 114.34004974365234 55.776615142822266 145.76437377929688" stroke-width="2" fill="none" stroke="rgb(0, 0, 0)" stroke-opacity="1.0" stroke-linecap="round" stroke-linejoin="round"/>
    <path d="M 173.24594116210938 141.48193359375 C 56.34627151489258 143.7427978515625 142.5962371826172 122.4681625366211 88.44384765625 110.04658508300781" stroke-width="2" fill="none" stroke="rgb(0, 0, 0)" stroke-opacity="1.0" stroke-linecap="round" stroke-linejoin="round"/>
    <path d="M 149.17044067382812 122.54261016845703 C 184.74986267089844 119.6583251953125 121.21073913574219 129.18704223632812 154.5485382080078 137.9303741455078" stroke-width="2" fill="none" stroke="rgb(0, 0, 0)" stroke-opacity="1.0" stroke-linecap="round" stroke-linejoin="round"/>
    <path d="M 179.27572631835938 99.61238861083984 C 204.2881622314453 12.814051628112793 163.3914337158203 95.00337219238281 164.33726501464844 80.46064758300781" stroke-width="2" fill="none" stroke="rgb(0, 0, 0)" stroke-opacity="1.0" stroke-linecap="round" stroke-linejoin="round"/>
    <path d="M 173.37973022460938 123.70951843261719 C 185.57553100585938 135.71653747558594 120.64803314208984 173.1538848876953 103.49649810791016 79.33519744873047" stroke-width="2" fill="none" stroke="rgb(0, 0, 0)" stroke-opacity="1.0" stroke-linecap="round" stroke-linejoin="round"/>
    <path d="M 63.879669189453125 135.24217224121094 C 27.85497283935547 117.19674682617188 111.30457305908203 161.48045349121094 148.4022674560547 154.32208251953125" stroke-width="2" fill="none" stroke="rgb(0, 0, 0)" stroke-opacity="1.0" stroke-linecap="round" stroke-linejoin="round"/>
    <path d="M 150.63307189941406 145.45957946777344 C 143.29248046875 156.2706298828125 185.43789672851562 150.57469177246094 170.55972290039062 153.68096923828125" stroke-width="2" fill="none" stroke="rgb(0, 0, 0)" stroke-opacity="1.0" stroke-linecap="round" stroke-linejoin="round"/>
    <path d="M 168.56027221679688 128.1735076904297 C 186.31292724609375 94.46295928955078 146.16070556640625 129.193115234375 178.24893188476562 99.59193420410156" stroke-width="2" fill="none" stroke="rgb(0, 0, 0)" stroke-opacity="1.0" stroke-linecap="round" stroke-linejoin="round"/>
    <path d="M 103.54271697998047 116.9511489868164 C 161.77142333984375 156.48912048339844 124.31535339355469 111.37464141845703 133.06605529785156 151.51712036132812" stroke-width="2" fill="none" stroke="rgb(0, 0, 0)" stroke-opacity="1.0" stroke-linecap="round" stroke-linejoin="round"/>
  </g>
</svg>
