<?xml version="1.0" ?>
<svg xmlns="http://www.w3.org/2000/svg" version="1.1" width="224" height="224">
  <defs/>
  <g>
    <path d="M 63.371726989746094 147.7108917236328 C 14.870381355285645 131.38832092285156 91.79387664794922 55.741004943847656 108.24494934082031 120.81855010986328" stroke-width="2" fill="none" stroke="rgb(0, 0, 0)" stroke-opacity="1.0" stroke-linecap="round" stroke-linejoin="round"/>
    <path d="M 145.87582397460938 123.24249267578125 C 185.96070861816406 121.19005584716797 40.48193359375 96.78367614746094 124.86370086669922 127.23677825927734" stroke-width="2" fill="none" stroke="rgb(0, 0, 0)" stroke-opacity="1.0" stroke-linecap="round" stroke-linejoin="round"/>
    <path d="M 47.006465911865234 129.8271942138672 C 10.244492530822754 149.2216796875 231.22467041015625 193.72561645507812 159.8683319091797 113.7857894897461" stroke-width="2" fill="none" stroke="rgb(0, 0, 0)" stroke-opacity="1.0" stroke-linecap="round" stroke-linejoin="round"/>
    <path d="M 134.6623077392578 116.10579681396484 C 177.42300415039062 104.6523208618164 102.75064849853516 116.94615936279297 148.4619598388672 119.92923736572266" stroke-width="2" fill="none" stroke="rgb(0, 0, 0)" stroke-opacity="1.0" stroke-linecap="round" stroke-linejoin="round"/>
    <path d="M 97.6730728149414 72.32604217529297 C 112.13818359375 96.60635375976562 117.93883514404297 58.06349182128906 132.9851837158203 89.32647705078125" stroke-width="2" fill="none" stroke="rgb(0, 0, 0)" stroke-opacity="1.0" stroke-linecap="round" stroke-linejoin="round"/>
    <path d="M 102.81229400634766 75.53377532958984 C 111.2904052734375 107.7336196899414 99.13467407226562 99.40771484375 105.3218994140625 88.95834350585938" stroke-width="2" fill="none" stroke="rgb(0, 0, 0)" stroke-opacity="1.0" stroke-linecap="round" stroke-linejoin="round"/>
    <path d="M 143.9230194091797 132.58056640625 C 85.13397216796875 116.70903015136719 181.0767822265625 150.4116973876953 64.16777801513672 115.23319244384766" stroke-width="2" fill="none" stroke="rgb(0, 0, 0)" stroke-opacity="1.0" stroke-linecap="round" stroke-linejoin="round"/>
    <path d="M 70.70367431640625 127.81391906738281 C 166.8775177001953 165.88412475585938 -4.956565856933594 133.08668518066406 57.02946472167969 108.22216796875" stroke-width="2" fill="none" stroke="rgb(0, 0, 0)" stroke-opacity="1.0" stroke-linecap="round" stroke-linejoin="round"/>
    <path d="M 154.17938232421875 126.62614440917969 C 97.91917419433594 129.67893981933594 199.55381774902344 147.70310974121094 133.1883087158203 140.52113342285156" stroke-width="2" fill="none" stroke="rgb(0, 0, 0)" stroke-opacity="1.0" stroke-linecap="round" stroke-linejoin="round"/>
    <path d="M 114.42491149902344 116.81218719482422 C 204.50953674316406 97.63121795654297 81.842529296875 107.95076751708984 139.33773803710938 135.4875030517578" stroke-width="2" fill="none" stroke="rgb(0, 0, 0)" stroke-opacity="1.0" stroke-linecap="round" stroke-linejoin="round"/>
    <path d="M 176.89759826660156 86.51556396484375 C 191.66323852539062 9.717145919799805 164.03311157226562 105.50335693359375 133.2939453125 84.60047149658203" stroke-width="2" fill="none" stroke="rgb(0, 0, 0)" stroke-opacity="1.0" stroke-linecap="round" stroke-linejoin="round"/>
    <path d="M 190.1939239501953 148.3590545654297 C 191.47061157226562 127.41729736328125 74.28876495361328 163.6541290283203 118.0451431274414 101.71257019042969" stroke-width="2" fill="none" stroke="rgb(0, 0, 0)" stroke-opacity="1.0" stroke-linecap="round" stroke-linejoin="round"/>
    <path d="M 111.99349212646484 131.5712432861328 C 17.195371627807617 112.92972564697266 160.2761688232422 170.63525390625 143.33831787109375 147.90524291992188" stroke-width="2" fill="none" stroke="rgb(0, 0, 0)" stroke-opacity="1.0" stroke-linecap="round" stroke-linejoin="round"/>
    <path d="M 144.35055541992188 145.8229522705078 C 133.49740600585938 150.2812042236328 174.80780029296875 162.76585388183594 187.08226013183594 139.31808471679688" stroke-width="2" fill="none" stroke="rgb(0, 0, 0)" stroke-opacity="1.0" stroke-linecap="round" stroke-linejoin="round"/>
    <path d="M 163.57879638671875 108.79446411132812 C 132.0581817626953 85.94497680664062 161.249267578125 127.85868835449219 175.5979766845703 74.73322296142578" stroke-width="2" fill="none" stroke="rgb(0, 0, 0)" stroke-opacity="1.0" stroke-linecap="round" stroke-linejoin="round"/>
    <path d="M 154.32476806640625 116.56919860839844 C 164.34425354003906 128.01205444335938 175.3831024169922 84.11227416992188 157.94970703125 89.080078125" stroke-width="2" fill="none" stroke="rgb(0, 0, 0)" stroke-opacity="1.0" stroke-linecap="round" stroke-linejoin="round"/>
  </g>
</svg>
