<?xml version="1.0" ?>
<svg xmlns="http://www.w3.org/2000/svg" version="1.1" width="224" height="224">
  <defs/>
  <g>
    <path d="M 107.75735473632812 127.8214111328125 C 42.392696380615234 133.3829345703125 26.847253799438477 90.1305923461914 110.23631286621094 95.29896545410156" stroke-width="2" fill="none" stroke="rgb(0, 0, 0)" stroke-opacity="1.0" stroke-linecap="round" stroke-linejoin="round"/>
    <path d="M 125.05726623535156 158.04171752929688 C 122.53711700439453 150.79046630859375 79.45864868164062 154.95742797851562 75.97794342041016 142.9219970703125" stroke-width="2" fill="none" stroke="rgb(0, 0, 0)" stroke-opacity="1.0" stroke-linecap="round" stroke-linejoin="round"/>
    <path d="M 145.74310302734375 141.51629638671875 C 39.37514877319336 128.71681213378906 112.51534271240234 143.43951416015625 168.63453674316406 145.67005920410156" stroke-width="2" fill="none" stroke="rgb(0, 0, 0)" stroke-opacity="1.0" stroke-linecap="round" stroke-linejoin="round"/>
    <path d="M 171.9644317626953 114.99383544921875 C 148.0438995361328 129.18075561523438 187.7749786376953 119.17789459228516 156.4841766357422 134.8314666748047" stroke-width="2" fill="none" stroke="rgb(0, 0, 0)" stroke-opacity="1.0" stroke-linecap="round" stroke-linejoin="round"/>
    <path d="M 114.26041412353516 103.7338638305664 C 94.75569915771484 110.43390655517578 139.08909606933594 71.68994140625 163.99952697753906 104.99424743652344" stroke-width="2" fill="none" stroke="rgb(0, 0, 0)" stroke-opacity="1.0" stroke-linecap="round" stroke-linejoin="round"/>
    <path d="M 107.97349548339844 101.77488708496094 C 106.60102081298828 86.8935317993164 125.6910400390625 112.06925964355469 101.61139678955078 88.42512512207031" stroke-width="2" fill="none" stroke="rgb(0, 0, 0)" stroke-opacity="1.0" stroke-linecap="round" stroke-linejoin="round"/>
    <path d="M 102.88397216796875 69.27149200439453 C 118.86418914794922 91.02991485595703 160.05838012695312 99.74800109863281 131.20750427246094 104.04070281982422" stroke-width="2" fill="none" stroke="rgb(0, 0, 0)" stroke-opacity="1.0" stroke-linecap="round" stroke-linejoin="round"/>
    <path d="M 83.78446960449219 153.27523803710938 C 106.22309112548828 152.52914428710938 -2.3884284496307373 158.5555419921875 69.33343505859375 98.18138122558594" stroke-width="2" fill="none" stroke="rgb(0, 0, 0)" stroke-opacity="1.0" stroke-linecap="round" stroke-linejoin="round"/>
    <path d="M 111.95330047607422 118.30207061767578 C 102.80488586425781 142.4485626220703 168.699951171875 132.76426696777344 137.5626678466797 129.85186767578125" stroke-width="2" fill="none" stroke="rgb(0, 0, 0)" stroke-opacity="1.0" stroke-linecap="round" stroke-linejoin="round"/>
    <path d="M 130.5330047607422 115.10714721679688 C 191.55511474609375 112.46129608154297 118.96595001220703 133.58306884765625 144.9536590576172 94.1648178100586" stroke-width="2" fill="none" stroke="rgb(0, 0, 0)" stroke-opacity="1.0" stroke-linecap="round" stroke-linejoin="round"/>
    <path d="M 185.1533966064453 63.726966857910156 C 160.7733154296875 73.1501235961914 174.90599060058594 91.00239562988281 146.3308868408203 92.03105926513672" stroke-width="2" fill="none" stroke="rgb(0, 0, 0)" stroke-opacity="1.0" stroke-linecap="round" stroke-linejoin="round"/>
    <path d="M 178.6501007080078 143.7760009765625 C 182.89599609375 153.02438354492188 147.3910369873047 155.9729461669922 114.56021881103516 153.37612915039062" stroke-width="2" fill="none" stroke="rgb(0, 0, 0)" stroke-opacity="1.0" stroke-linecap="round" stroke-linejoin="round"/>
    <path d="M 64.0168685913086 136.4446563720703 C 70.7544174194336 151.53369140625 153.41514587402344 155.81907653808594 124.7433090209961 152.05885314941406" stroke-width="2" fill="none" stroke="rgb(0, 0, 0)" stroke-opacity="1.0" stroke-linecap="round" stroke-linejoin="round"/>
    <path d="M 110.38896179199219 102.53275299072266 C 103.89851379394531 78.1943130493164 91.5160140991211 63.754913330078125 111.77910614013672 105.47147369384766" stroke-width="2" fill="none" stroke="rgb(0, 0, 0)" stroke-opacity="1.0" stroke-linecap="round" stroke-linejoin="round"/>
    <path d="M 170.65170288085938 121.99495697021484 C 167.92672729492188 80.2984390258789 170.51797485351562 134.5148468017578 181.4523162841797 67.87812042236328" stroke-width="2" fill="none" stroke="rgb(0, 0, 0)" stroke-opacity="1.0" stroke-linecap="round" stroke-linejoin="round"/>
    <path d="M 58.64789581298828 109.87855529785156 C 102.49231719970703 102.72554779052734 83.37017822265625 132.15782165527344 94.07630920410156 111.14285278320312" stroke-width="2" fill="none" stroke="rgb(0, 0, 0)" stroke-opacity="1.0" stroke-linecap="round" stroke-linejoin="round"/>
  </g>
</svg>
