<?xml version="1.0" ?>
<svg xmlns="http://www.w3.org/2000/svg" version="1.1" width="224" height="224">
  <defs/>
  <g>
    <path d="M 79.140380859375 150.79888916015625 C 40.842918395996094 153.90933227539062 37.44191360473633 124.13054656982422 70.92993927001953 146.96173095703125" stroke-width="2" fill="none" stroke="rgb(0, 0, 0)" stroke-opacity="1.0" stroke-linecap="round" stroke-linejoin="round"/>
    <path d="M 99.8278579711914 99.12769317626953 C 124.25630950927734 122.9434585571289 76.88961029052734 128.75177001953125 130.97543334960938 159.092529296875" stroke-width="2" fill="none" stroke="rgb(0, 0, 0)" stroke-opacity="1.0" stroke-linecap="round" stroke-linejoin="round"/>
    <path d="M 48.21802520751953 114.11892700195312 C -7.672693252563477 160.99896240234375 262.1563415527344 176.0127410888672 140.7191925048828 126.82088470458984" stroke-width="2" fill="none" stroke="rgb(0, 0, 0)" stroke-opacity="1.0" stroke-linecap="round" stroke-linejoin="round"/>
    <path d="M 138.6501007080078 124.5549545288086 C 182.0457763671875 123.16900634765625 62.13254165649414 122.2473373413086 167.39723205566406 133.02146911621094" stroke-width="2" fill="none" stroke="rgb(0, 0, 0)" stroke-opacity="1.0" stroke-linecap="round" stroke-linejoin="round"/>
    <path d="M 106.8735122680664 71.36991882324219 C 148.16815185546875 117.55194091796875 139.759033203125 70.26229095458984 162.94029235839844 91.45071411132812" stroke-width="2" fill="none" stroke="rgb(0, 0, 0)" stroke-opacity="1.0" stroke-linecap="round" stroke-linejoin="round"/>
    <path d="M 111.84973907470703 112.83930206298828 C 168.51475524902344 119.59351348876953 99.53205871582031 110.09553527832031 133.89210510253906 114.0135498046875" stroke-width="2" fill="none" stroke="rgb(0, 0, 0)" stroke-opacity="1.0" stroke-linecap="round" stroke-linejoin="round"/>
    <path d="M 127.89559173583984 126.72821044921875 C 158.79852294921875 115.17410278320312 106.7842788696289 109.2633056640625 129.93133544921875 115.23989868164062" stroke-width="2" fill="none" stroke="rgb(0, 0, 0)" stroke-opacity="1.0" stroke-linecap="round" stroke-linejoin="round"/>
    <path d="M 104.73658752441406 66.64885711669922 C 133.6819610595703 120.27394104003906 43.321197509765625 62.406471252441406 43.60307693481445 133.40780639648438" stroke-width="2" fill="none" stroke="rgb(0, 0, 0)" stroke-opacity="1.0" stroke-linecap="round" stroke-linejoin="round"/>
    <path d="M 154.716796875 117.79828643798828 C 167.90316772460938 123.26017761230469 122.98472595214844 113.47543334960938 159.23846435546875 117.1151351928711" stroke-width="2" fill="none" stroke="rgb(0, 0, 0)" stroke-opacity="1.0" stroke-linecap="round" stroke-linejoin="round"/>
    <path d="M 89.10108184814453 123.75306701660156 C 245.76988220214844 149.59556579589844 131.857421875 159.2690887451172 131.71595764160156 151.32623291015625" stroke-width="2" fill="none" stroke="rgb(0, 0, 0)" stroke-opacity="1.0" stroke-linecap="round" stroke-linejoin="round"/>
    <path d="M 159.9268035888672 131.08126831054688 C 201.49172973632812 34.608917236328125 176.20297241210938 98.60163116455078 157.61984252929688 90.1305923461914" stroke-width="2" fill="none" stroke="rgb(0, 0, 0)" stroke-opacity="1.0" stroke-linecap="round" stroke-linejoin="round"/>
    <path d="M 87.06011962890625 98.11697387695312 C 115.02973937988281 108.18028259277344 76.18563079833984 112.70085144042969 116.60147094726562 84.58352661132812" stroke-width="2" fill="none" stroke="rgb(0, 0, 0)" stroke-opacity="1.0" stroke-linecap="round" stroke-linejoin="round"/>
    <path d="M 57.44918441772461 143.41204833984375 C 25.430835723876953 109.04839324951172 132.15399169921875 168.64862060546875 149.99037170410156 156.35325622558594" stroke-width="2" fill="none" stroke="rgb(0, 0, 0)" stroke-opacity="1.0" stroke-linecap="round" stroke-linejoin="round"/>
    <path d="M 83.57069396972656 144.63351440429688 C 60.45907211303711 139.6943359375 209.5689239501953 158.37075805664062 164.82106018066406 141.76617431640625" stroke-width="2" fill="none" stroke="rgb(0, 0, 0)" stroke-opacity="1.0" stroke-linecap="round" stroke-linejoin="round"/>
    <path d="M 160.48751831054688 84.13792419433594 C 212.30047607421875 27.31020736694336 166.4173583984375 137.687744140625 163.01739501953125 95.56914520263672" stroke-width="2" fill="none" stroke="rgb(0, 0, 0)" stroke-opacity="1.0" stroke-linecap="round" stroke-linejoin="round"/>
    <path d="M 104.56358337402344 116.66429901123047 C 149.60032653808594 172.59376525878906 189.52935791015625 106.22478485107422 145.49110412597656 103.16567993164062" stroke-width="2" fill="none" stroke="rgb(0, 0, 0)" stroke-opacity="1.0" stroke-linecap="round" stroke-linejoin="round"/>
  </g>
</svg>
