<?xml version="1.0" ?>
<svg xmlns="http://www.w3.org/2000/svg" version="1.1" width="224" height="224">
  <defs/>
  <g>
    <path d="M 76.39120483398438 149.4915313720703 C 46.40388488769531 137.64736938476562 31.6079044342041 132.72354125976562 54.42741775512695 148.48680114746094" stroke-width="2" fill="none" stroke="rgb(0, 0, 0)" stroke-opacity="1.0" stroke-linecap="round" stroke-linejoin="round"/>
    <path d="M 85.62358856201172 112.40827178955078 C 133.61817932128906 100.45516204833984 77.68795013427734 132.65219116210938 140.13092041015625 131.11114501953125" stroke-width="2" fill="none" stroke="rgb(0, 0, 0)" stroke-opacity="1.0" stroke-linecap="round" stroke-linejoin="round"/>
    <path d="M 62.0673713684082 104.93912506103516 C -36.138057708740234 178.923095703125 262.16204833984375 159.78475952148438 144.46595764160156 151.2944793701172" stroke-width="2" fill="none" stroke="rgb(0, 0, 0)" stroke-opacity="1.0" stroke-linecap="round" stroke-linejoin="round"/>
    <path d="M 126.51105499267578 127.3360366821289 C 196.95266723632812 132.4908447265625 138.8269500732422 138.9944610595703 158.43666076660156 134.65252685546875" stroke-width="2" fill="none" stroke="rgb(0, 0, 0)" stroke-opacity="1.0" stroke-linecap="round" stroke-linejoin="round"/>
    <path d="M 106.1988754272461 71.10639953613281 C 120.52700805664062 109.16492462158203 144.2550048828125 69.07634735107422 157.363037109375 96.14857482910156" stroke-width="2" fill="none" stroke="rgb(0, 0, 0)" stroke-opacity="1.0" stroke-linecap="round" stroke-linejoin="round"/>
    <path d="M 125.18435668945312 116.5726089477539 C 171.70913696289062 116.37062072753906 140.72491455078125 108.61161041259766 163.83279418945312 125.1737289428711" stroke-width="2" fill="none" stroke="rgb(0, 0, 0)" stroke-opacity="1.0" stroke-linecap="round" stroke-linejoin="round"/>
    <path d="M 127.0750503540039 118.5803451538086 C 174.13363647460938 95.97528839111328 92.37626647949219 116.74327850341797 141.86207580566406 130.23695373535156" stroke-width="2" fill="none" stroke="rgb(0, 0, 0)" stroke-opacity="1.0" stroke-linecap="round" stroke-linejoin="round"/>
    <path d="M 106.28732299804688 71.14556884765625 C 125.92317962646484 125.79426574707031 61.272605895996094 79.25699615478516 54.42772674560547 111.06333923339844" stroke-width="2" fill="none" stroke="rgb(0, 0, 0)" stroke-opacity="1.0" stroke-linecap="round" stroke-linejoin="round"/>
    <path d="M 150.54759216308594 104.74195861816406 C 183.678466796875 110.54827117919922 104.92121887207031 129.86375427246094 156.0303497314453 114.00638580322266" stroke-width="2" fill="none" stroke="rgb(0, 0, 0)" stroke-opacity="1.0" stroke-linecap="round" stroke-linejoin="round"/>
    <path d="M 99.56121063232422 114.81330871582031 C 224.6717071533203 138.2449493408203 151.7597198486328 84.72838592529297 158.02288818359375 121.57398223876953" stroke-width="2" fill="none" stroke="rgb(0, 0, 0)" stroke-opacity="1.0" stroke-linecap="round" stroke-linejoin="round"/>
    <path d="M 165.20623779296875 120.19282531738281 C 204.30238342285156 5.52955436706543 164.06661987304688 99.87383270263672 149.94921875 88.42394256591797" stroke-width="2" fill="none" stroke="rgb(0, 0, 0)" stroke-opacity="1.0" stroke-linecap="round" stroke-linejoin="round"/>
    <path d="M 118.16484832763672 84.9316635131836 C 131.45388793945312 89.45336151123047 116.58602142333984 100.62845611572266 122.15664672851562 90.31614685058594" stroke-width="2" fill="none" stroke="rgb(0, 0, 0)" stroke-opacity="1.0" stroke-linecap="round" stroke-linejoin="round"/>
    <path d="M 96.69035339355469 146.56468200683594 C 6.674251079559326 135.84437561035156 96.67451477050781 164.7926025390625 139.83872985839844 145.40774536132812" stroke-width="2" fill="none" stroke="rgb(0, 0, 0)" stroke-opacity="1.0" stroke-linecap="round" stroke-linejoin="round"/>
    <path d="M 70.69146728515625 131.364501953125 C 87.34718322753906 142.66848754882812 198.44631958007812 177.6374969482422 177.65501403808594 123.09803771972656" stroke-width="2" fill="none" stroke="rgb(0, 0, 0)" stroke-opacity="1.0" stroke-linecap="round" stroke-linejoin="round"/>
    <path d="M 164.66787719726562 98.2222900390625 C 202.25411987304688 68.65216064453125 164.84967041015625 137.3250732421875 167.32379150390625 102.55376434326172" stroke-width="2" fill="none" stroke="rgb(0, 0, 0)" stroke-opacity="1.0" stroke-linecap="round" stroke-linejoin="round"/>
    <path d="M 113.00757598876953 100.15745544433594 C 107.5883560180664 126.86248016357422 199.60153198242188 106.62433624267578 147.21006774902344 130.86813354492188" stroke-width="2" fill="none" stroke="rgb(0, 0, 0)" stroke-opacity="1.0" stroke-linecap="round" stroke-linejoin="round"/>
  </g>
</svg>
