<?xml version="1.0" ?>
<svg xmlns="http://www.w3.org/2000/svg" version="1.1" width="224" height="224">
  <defs/>
  <g>
    <path d="M 148.53518676757812 144.79164123535156 C 71.8063735961914 132.14706420898438 49.168495178222656 137.7188262939453 47.634090423583984 120.63282012939453" stroke-width="2" fill="none" stroke="rgb(0, 0, 0)" stroke-opacity="1.0" stroke-linecap="round" stroke-linejoin="round"/>
    <path d="M 63.28919982910156 104.04132843017578 C 162.3163299560547 94.37503051757812 73.36776733398438 142.29783630371094 141.83489990234375 136.1944580078125" stroke-width="2" fill="none" stroke="rgb(0, 0, 0)" stroke-opacity="1.0" stroke-linecap="round" stroke-linejoin="round"/>
    <path d="M 55.756046295166016 105.93927001953125 C -17.840909957885742 172.96932983398438 239.37191772460938 156.60679626464844 154.27479553222656 145.41819763183594" stroke-width="2" fill="none" stroke="rgb(0, 0, 0)" stroke-opacity="1.0" stroke-linecap="round" stroke-linejoin="round"/>
    <path d="M 112.69144439697266 109.91352844238281 C 206.0174102783203 105.47408294677734 131.76275634765625 90.67574310302734 169.08717346191406 86.40272521972656" stroke-width="2" fill="none" stroke="rgb(0, 0, 0)" stroke-opacity="1.0" stroke-linecap="round" stroke-linejoin="round"/>
    <path d="M 103.22634887695312 75.22432708740234 C 129.37911987304688 100.3052749633789 134.7889862060547 64.73958587646484 154.23501586914062 83.85968017578125" stroke-width="2" fill="none" stroke="rgb(0, 0, 0)" stroke-opacity="1.0" stroke-linecap="round" stroke-linejoin="round"/>
    <path d="M 104.39445495605469 111.85923767089844 C 156.77786254882812 81.8033676147461 76.06137084960938 111.78089904785156 133.78123474121094 113.27690887451172" stroke-width="2" fill="none" stroke="rgb(0, 0, 0)" stroke-opacity="1.0" stroke-linecap="round" stroke-linejoin="round"/>
    <path d="M 76.92169952392578 126.56842803955078 C 76.5400390625 103.29994201660156 55.39950180053711 115.20995330810547 122.4275131225586 151.578857421875" stroke-width="2" fill="none" stroke="rgb(0, 0, 0)" stroke-opacity="1.0" stroke-linecap="round" stroke-linejoin="round"/>
    <path d="M 106.88874816894531 90.93265533447266 C 109.43682861328125 126.6766357421875 43.73319625854492 67.71347045898438 52.592647552490234 140.1133575439453" stroke-width="2" fill="none" stroke="rgb(0, 0, 0)" stroke-opacity="1.0" stroke-linecap="round" stroke-linejoin="round"/>
    <path d="M 148.7996368408203 121.98697662353516 C 123.97769927978516 129.96153259277344 174.8929901123047 124.50411987304688 137.15711975097656 104.83218383789062" stroke-width="2" fill="none" stroke="rgb(0, 0, 0)" stroke-opacity="1.0" stroke-linecap="round" stroke-linejoin="round"/>
    <path d="M 139.69741821289062 156.87896728515625 C 223.844482421875 160.97560119628906 135.99224853515625 129.62831115722656 169.6914825439453 103.36979675292969" stroke-width="2" fill="none" stroke="rgb(0, 0, 0)" stroke-opacity="1.0" stroke-linecap="round" stroke-linejoin="round"/>
    <path d="M 168.52601623535156 104.97474670410156 C 205.75900268554688 17.406497955322266 167.6826934814453 98.11229705810547 153.8714599609375 80.66096496582031" stroke-width="2" fill="none" stroke="rgb(0, 0, 0)" stroke-opacity="1.0" stroke-linecap="round" stroke-linejoin="round"/>
    <path d="M 99.02765655517578 102.8644790649414 C 107.20230102539062 66.0985336303711 90.79996490478516 105.21294403076172 108.95096588134766 80.34894561767578" stroke-width="2" fill="none" stroke="rgb(0, 0, 0)" stroke-opacity="1.0" stroke-linecap="round" stroke-linejoin="round"/>
    <path d="M 92.66227722167969 151.34857177734375 C -2.8576037883758545 115.58927917480469 81.47994232177734 149.78707885742188 110.82501983642578 156.42872619628906" stroke-width="2" fill="none" stroke="rgb(0, 0, 0)" stroke-opacity="1.0" stroke-linecap="round" stroke-linejoin="round"/>
    <path d="M 63.462989807128906 126.3822021484375 C 29.143712997436523 117.29553985595703 178.21542358398438 191.68377685546875 176.1204071044922 139.39613342285156" stroke-width="2" fill="none" stroke="rgb(0, 0, 0)" stroke-opacity="1.0" stroke-linecap="round" stroke-linejoin="round"/>
    <path d="M 128.2032012939453 121.15009307861328 C 174.32887268066406 102.90005493164062 120.18461608886719 92.96034240722656 162.36822509765625 114.70558166503906" stroke-width="2" fill="none" stroke="rgb(0, 0, 0)" stroke-opacity="1.0" stroke-linecap="round" stroke-linejoin="round"/>
    <path d="M 163.38284301757812 114.09539794921875 C 80.97990417480469 121.72760009765625 167.77047729492188 128.38218688964844 114.26409149169922 115.14287567138672" stroke-width="2" fill="none" stroke="rgb(0, 0, 0)" stroke-opacity="1.0" stroke-linecap="round" stroke-linejoin="round"/>
  </g>
</svg>
