<?xml version="1.0" ?>
<svg xmlns="http://www.w3.org/2000/svg" version="1.1" width="224" height="224">
  <defs/>
  <g>
    <path d="M 62.95111083984375 141.710693359375 C 16.041101455688477 138.97032165527344 81.71257781982422 61.79853057861328 103.40269470214844 124.85660552978516" stroke-width="2" fill="none" stroke="rgb(0, 0, 0)" stroke-opacity="1.0" stroke-linecap="round" stroke-linejoin="round"/>
    <path d="M 151.24859619140625 133.7652587890625 C 205.32460021972656 143.29910278320312 64.687744140625 128.79437255859375 69.37590789794922 128.48712158203125" stroke-width="2" fill="none" stroke="rgb(0, 0, 0)" stroke-opacity="1.0" stroke-linecap="round" stroke-linejoin="round"/>
    <path d="M 59.65595245361328 133.758056640625 C 17.384628295898438 112.61712646484375 83.54422760009766 154.1385040283203 134.9080352783203 154.63284301757812" stroke-width="2" fill="none" stroke="rgb(0, 0, 0)" stroke-opacity="1.0" stroke-linecap="round" stroke-linejoin="round"/>
    <path d="M 162.80567932128906 106.42696380615234 C 172.83580017089844 118.1740951538086 175.77024841308594 72.91171264648438 162.73004150390625 130.69015502929688" stroke-width="2" fill="none" stroke="rgb(0, 0, 0)" stroke-opacity="1.0" stroke-linecap="round" stroke-linejoin="round"/>
    <path d="M 101.05098724365234 75.60367584228516 C 104.9791030883789 112.57878875732422 165.34019470214844 58.308258056640625 162.70179748535156 107.43643951416016" stroke-width="2" fill="none" stroke="rgb(0, 0, 0)" stroke-opacity="1.0" stroke-linecap="round" stroke-linejoin="round"/>
    <path d="M 92.14200592041016 135.21182250976562 C 24.744489669799805 115.3257064819336 111.78009796142578 131.35935974121094 56.12523651123047 117.91429138183594" stroke-width="2" fill="none" stroke="rgb(0, 0, 0)" stroke-opacity="1.0" stroke-linecap="round" stroke-linejoin="round"/>
    <path d="M 130.85479736328125 119.69465637207031 C 73.27354431152344 87.54756927490234 131.02061462402344 64.28801727294922 97.89129638671875 112.30760192871094" stroke-width="2" fill="none" stroke="rgb(0, 0, 0)" stroke-opacity="1.0" stroke-linecap="round" stroke-linejoin="round"/>
    <path d="M 109.92115020751953 157.76675415039062 C 104.23020935058594 152.0467529296875 -9.54531192779541 160.89205932617188 60.026004791259766 106.23750305175781" stroke-width="2" fill="none" stroke="rgb(0, 0, 0)" stroke-opacity="1.0" stroke-linecap="round" stroke-linejoin="round"/>
    <path d="M 174.2550048828125 98.01689147949219 C 135.37921142578125 105.65360260009766 202.5113983154297 116.42255401611328 134.18063354492188 127.81060791015625" stroke-width="2" fill="none" stroke="rgb(0, 0, 0)" stroke-opacity="1.0" stroke-linecap="round" stroke-linejoin="round"/>
    <path d="M 111.5519790649414 111.35711669921875 C 205.7300567626953 117.1033706665039 101.83612060546875 113.73616027832031 170.64430236816406 124.69994354248047" stroke-width="2" fill="none" stroke="rgb(0, 0, 0)" stroke-opacity="1.0" stroke-linecap="round" stroke-linejoin="round"/>
    <path d="M 186.6378631591797 63.13410186767578 C 173.0955352783203 57.21747589111328 160.5570068359375 95.26123046875 142.08230590820312 84.69060516357422" stroke-width="2" fill="none" stroke="rgb(0, 0, 0)" stroke-opacity="1.0" stroke-linecap="round" stroke-linejoin="round"/>
    <path d="M 177.72776794433594 146.56695556640625 C 179.16082763671875 165.63929748535156 46.78178405761719 115.6966323852539 92.05067443847656 137.10296630859375" stroke-width="2" fill="none" stroke="rgb(0, 0, 0)" stroke-opacity="1.0" stroke-linecap="round" stroke-linejoin="round"/>
    <path d="M 139.30987548828125 151.80699157714844 C 57.61763000488281 144.5736846923828 224.1156463623047 164.98390197753906 167.5717315673828 129.52574157714844" stroke-width="2" fill="none" stroke="rgb(0, 0, 0)" stroke-opacity="1.0" stroke-linecap="round" stroke-linejoin="round"/>
    <path d="M 136.1222686767578 111.93030548095703 C 165.633544921875 120.42324829101562 111.94710540771484 95.3952407836914 156.21815490722656 122.8877182006836" stroke-width="2" fill="none" stroke="rgb(0, 0, 0)" stroke-opacity="1.0" stroke-linecap="round" stroke-linejoin="round"/>
    <path d="M 162.0652313232422 96.94198608398438 C 126.32843780517578 82.46709442138672 184.09593200683594 120.86883544921875 186.5703582763672 66.68985748291016" stroke-width="2" fill="none" stroke="rgb(0, 0, 0)" stroke-opacity="1.0" stroke-linecap="round" stroke-linejoin="round"/>
    <path d="M 159.0048370361328 111.55397033691406 C 83.2898178100586 122.4150161743164 177.175048828125 142.96505737304688 133.37139892578125 127.69905853271484" stroke-width="2" fill="none" stroke="rgb(0, 0, 0)" stroke-opacity="1.0" stroke-linecap="round" stroke-linejoin="round"/>
  </g>
</svg>
