<?xml version="1.0" ?>
<svg xmlns="http://www.w3.org/2000/svg" version="1.1" width="224" height="224">
  <defs/>
  <g>
    <path d="M 60.563133239746094 150.07232666015625 C 1.9575079679489136 138.6108856201172 94.33499908447266 51.00872039794922 121.2138671875 124.11756896972656" stroke-width="2" fill="none" stroke="rgb(0, 0, 0)" stroke-opacity="1.0" stroke-linecap="round" stroke-linejoin="round"/>
    <path d="M 137.80618286132812 121.0532455444336 C 184.615234375 115.32151794433594 33.99489974975586 97.54296875 124.15228271484375 131.06649780273438" stroke-width="2" fill="none" stroke="rgb(0, 0, 0)" stroke-opacity="1.0" stroke-linecap="round" stroke-linejoin="round"/>
    <path d="M 50.0987663269043 129.19056701660156 C 3.884382724761963 146.2308807373047 223.63052368164062 179.24978637695312 167.50550842285156 125.029296875" stroke-width="2" fill="none" stroke="rgb(0, 0, 0)" stroke-opacity="1.0" stroke-linecap="round" stroke-linejoin="round"/>
    <path d="M 135.9791259765625 125.54459381103516 C 168.307861328125 120.92229461669922 103.63739776611328 119.86160278320312 160.67274475097656 117.72679138183594" stroke-width="2" fill="none" stroke="rgb(0, 0, 0)" stroke-opacity="1.0" stroke-linecap="round" stroke-linejoin="round"/>
    <path d="M 97.02362823486328 66.79576873779297 C 119.46662139892578 94.179443359375 109.50816345214844 64.76998901367188 133.8130645751953 86.4110107421875" stroke-width="2" fill="none" stroke="rgb(0, 0, 0)" stroke-opacity="1.0" stroke-linecap="round" stroke-linejoin="round"/>
    <path d="M 95.94896697998047 80.09751892089844 C 105.3625259399414 106.62419891357422 96.2947769165039 91.46693420410156 101.40152740478516 74.42214965820312" stroke-width="2" fill="none" stroke="rgb(0, 0, 0)" stroke-opacity="1.0" stroke-linecap="round" stroke-linejoin="round"/>
    <path d="M 125.66455841064453 123.8967056274414 C 84.2869644165039 102.73089599609375 190.93763732910156 145.0785675048828 51.45022964477539 111.20915222167969" stroke-width="2" fill="none" stroke="rgb(0, 0, 0)" stroke-opacity="1.0" stroke-linecap="round" stroke-linejoin="round"/>
    <path d="M 90.50910186767578 139.82260131835938 C 187.78851318359375 174.0702667236328 -13.449618339538574 154.9300994873047 57.46825408935547 109.72552490234375" stroke-width="2" fill="none" stroke="rgb(0, 0, 0)" stroke-opacity="1.0" stroke-linecap="round" stroke-linejoin="round"/>
    <path d="M 155.58786010742188 136.08651733398438 C 99.24537658691406 135.75624084472656 195.02294921875 132.1920623779297 136.52102661132812 125.16410064697266" stroke-width="2" fill="none" stroke="rgb(0, 0, 0)" stroke-opacity="1.0" stroke-linecap="round" stroke-linejoin="round"/>
    <path d="M 134.47976684570312 103.5666275024414 C 196.35116577148438 94.31217956542969 69.26496124267578 121.38278198242188 143.75311279296875 137.87823486328125" stroke-width="2" fill="none" stroke="rgb(0, 0, 0)" stroke-opacity="1.0" stroke-linecap="round" stroke-linejoin="round"/>
    <path d="M 182.39527893066406 91.72342681884766 C 194.7943115234375 25.57724380493164 160.8711700439453 96.81161499023438 149.33685302734375 86.30620574951172" stroke-width="2" fill="none" stroke="rgb(0, 0, 0)" stroke-opacity="1.0" stroke-linecap="round" stroke-linejoin="round"/>
    <path d="M 176.1439666748047 148.68357849121094 C 172.5032501220703 133.2051239013672 77.74498748779297 164.3221893310547 111.11988067626953 97.87362670898438" stroke-width="2" fill="none" stroke="rgb(0, 0, 0)" stroke-opacity="1.0" stroke-linecap="round" stroke-linejoin="round"/>
    <path d="M 88.4881591796875 140.33082580566406 C 11.658286094665527 110.2890625 149.7772216796875 167.02870178222656 157.81678771972656 153.9501953125" stroke-width="2" fill="none" stroke="rgb(0, 0, 0)" stroke-opacity="1.0" stroke-linecap="round" stroke-linejoin="round"/>
    <path d="M 125.63007354736328 154.9419403076172 C 127.81068420410156 149.97085571289062 164.3085174560547 147.30052185058594 167.00772094726562 137.3697967529297" stroke-width="2" fill="none" stroke="rgb(0, 0, 0)" stroke-opacity="1.0" stroke-linecap="round" stroke-linejoin="round"/>
    <path d="M 156.8706817626953 114.49906158447266 C 136.60023498535156 98.64703369140625 160.219970703125 136.0747833251953 172.3822784423828 84.88249206542969" stroke-width="2" fill="none" stroke="rgb(0, 0, 0)" stroke-opacity="1.0" stroke-linecap="round" stroke-linejoin="round"/>
    <path d="M 159.64907836914062 135.3271484375 C 173.51454162597656 130.90431213378906 167.01461791992188 94.10802459716797 151.71878051757812 107.74764251708984" stroke-width="2" fill="none" stroke="rgb(0, 0, 0)" stroke-opacity="1.0" stroke-linecap="round" stroke-linejoin="round"/>
  </g>
</svg>
