<?xml version="1.0" ?>
<svg xmlns="http://www.w3.org/2000/svg" version="1.1" width="224" height="224">
  <defs/>
  <g>
    <path d="M 65.96683502197266 149.32894897460938 C -1.8063125610351562 128.51524353027344 104.2342300415039 56.55750274658203 114.97637176513672 121.44284057617188" stroke-width="2" fill="none" stroke="rgb(0, 0, 0)" stroke-opacity="1.0" stroke-linecap="round" stroke-linejoin="round"/>
    <path d="M 160.80592346191406 143.87747192382812 C 186.55630493164062 154.71421813964844 84.28108215332031 146.3739776611328 135.732177734375 118.96278381347656" stroke-width="2" fill="none" stroke="rgb(0, 0, 0)" stroke-opacity="1.0" stroke-linecap="round" stroke-linejoin="round"/>
    <path d="M 100.8575210571289 133.5318145751953 C 42.32997512817383 126.03801727294922 225.54534912109375 197.2329864501953 160.95281982421875 108.93547058105469" stroke-width="2" fill="none" stroke="rgb(0, 0, 0)" stroke-opacity="1.0" stroke-linecap="round" stroke-linejoin="round"/>
    <path d="M 163.3170623779297 100.98149108886719 C 192.36380004882812 105.28414154052734 133.8729705810547 97.80036926269531 164.94451904296875 98.26626586914062" stroke-width="2" fill="none" stroke="rgb(0, 0, 0)" stroke-opacity="1.0" stroke-linecap="round" stroke-linejoin="round"/>
    <path d="M 106.18104553222656 68.7284927368164 C 125.13220977783203 91.47994232177734 111.57843017578125 64.37372589111328 137.06060791015625 83.00870513916016" stroke-width="2" fill="none" stroke="rgb(0, 0, 0)" stroke-opacity="1.0" stroke-linecap="round" stroke-linejoin="round"/>
    <path d="M 106.830078125 93.78057098388672 C 93.8260498046875 94.63856506347656 105.49732208251953 109.16468811035156 107.65476989746094 79.36866760253906" stroke-width="2" fill="none" stroke="rgb(0, 0, 0)" stroke-opacity="1.0" stroke-linecap="round" stroke-linejoin="round"/>
    <path d="M 131.8226318359375 121.491943359375 C 107.52069854736328 94.44698333740234 177.58425903320312 118.24881744384766 91.04125213623047 101.56146240234375" stroke-width="2" fill="none" stroke="rgb(0, 0, 0)" stroke-opacity="1.0" stroke-linecap="round" stroke-linejoin="round"/>
    <path d="M 94.0975112915039 152.05064392089844 C 171.8759765625 160.6877899169922 19.931560516357422 139.26333618164062 58.57597351074219 101.11981201171875" stroke-width="2" fill="none" stroke="rgb(0, 0, 0)" stroke-opacity="1.0" stroke-linecap="round" stroke-linejoin="round"/>
    <path d="M 152.182861328125 120.7515640258789 C 119.69988250732422 122.24248504638672 179.4449005126953 119.9070816040039 140.169189453125 115.0185775756836" stroke-width="2" fill="none" stroke="rgb(0, 0, 0)" stroke-opacity="1.0" stroke-linecap="round" stroke-linejoin="round"/>
    <path d="M 128.7667999267578 116.6978988647461 C 203.68707275390625 121.63890075683594 113.96151733398438 121.09799194335938 162.57766723632812 135.28492736816406" stroke-width="2" fill="none" stroke="rgb(0, 0, 0)" stroke-opacity="1.0" stroke-linecap="round" stroke-linejoin="round"/>
    <path d="M 170.46658325195312 80.74738311767578 C 197.47671508789062 21.592716217041016 163.603271484375 99.09571838378906 142.29505920410156 84.08898162841797" stroke-width="2" fill="none" stroke="rgb(0, 0, 0)" stroke-opacity="1.0" stroke-linecap="round" stroke-linejoin="round"/>
    <path d="M 137.88107299804688 132.43605041503906 C 200.39828491210938 145.242919921875 84.5226821899414 117.35541534423828 123.89385986328125 113.43362426757812" stroke-width="2" fill="none" stroke="rgb(0, 0, 0)" stroke-opacity="1.0" stroke-linecap="round" stroke-linejoin="round"/>
    <path d="M 103.42730712890625 155.8417510986328 C -51.84111022949219 119.02413940429688 172.49403381347656 153.5047607421875 166.0295867919922 149.11534118652344" stroke-width="2" fill="none" stroke="rgb(0, 0, 0)" stroke-opacity="1.0" stroke-linecap="round" stroke-linejoin="round"/>
    <path d="M 153.81613159179688 141.15267944335938 C 123.39613342285156 139.09597778320312 170.6857147216797 146.5098419189453 170.73733520507812 109.80705261230469" stroke-width="2" fill="none" stroke="rgb(0, 0, 0)" stroke-opacity="1.0" stroke-linecap="round" stroke-linejoin="round"/>
    <path d="M 155.1956329345703 124.695556640625 C 118.31542205810547 113.53837585449219 191.45834350585938 141.91940307617188 184.2421112060547 64.1531753540039" stroke-width="2" fill="none" stroke="rgb(0, 0, 0)" stroke-opacity="1.0" stroke-linecap="round" stroke-linejoin="round"/>
    <path d="M 173.509765625 145.87364196777344 C 154.12237548828125 148.32925415039062 188.1163330078125 73.4152603149414 154.92892456054688 85.26453399658203" stroke-width="2" fill="none" stroke="rgb(0, 0, 0)" stroke-opacity="1.0" stroke-linecap="round" stroke-linejoin="round"/>
  </g>
</svg>
