<?xml version="1.0" ?>
<svg xmlns="http://www.w3.org/2000/svg" version="1.1" width="224" height="224">
  <defs/>
  <g>
    <path d="M 62.50209045410156 147.6339569091797 C 1.1070879697799683 129.6270294189453 76.2947998046875 51.15654754638672 118.76300048828125 132.8097686767578" stroke-width="2" fill="none" stroke="rgb(0, 0, 0)" stroke-opacity="1.0" stroke-linecap="round" stroke-linejoin="round"/>
    <path d="M 142.29452514648438 104.899658203125 C 179.183349609375 108.96775817871094 10.6299409866333 92.67230987548828 122.64496612548828 124.11004638671875" stroke-width="2" fill="none" stroke="rgb(0, 0, 0)" stroke-opacity="1.0" stroke-linecap="round" stroke-linejoin="round"/>
    <path d="M 54.11951446533203 136.56707763671875 C 8.426032066345215 146.13796997070312 227.39483642578125 181.84353637695312 162.89096069335938 135.2884521484375" stroke-width="2" fill="none" stroke="rgb(0, 0, 0)" stroke-opacity="1.0" stroke-linecap="round" stroke-linejoin="round"/>
    <path d="M 142.6039581298828 126.38977813720703 C 169.2154541015625 112.54813385009766 110.32072448730469 115.4726333618164 159.70162963867188 121.93318176269531" stroke-width="2" fill="none" stroke="rgb(0, 0, 0)" stroke-opacity="1.0" stroke-linecap="round" stroke-linejoin="round"/>
    <path d="M 96.1281509399414 69.47552490234375 C 123.10506439208984 96.6949462890625 119.38262939453125 58.464561462402344 136.72854614257812 83.66497039794922" stroke-width="2" fill="none" stroke="rgb(0, 0, 0)" stroke-opacity="1.0" stroke-linecap="round" stroke-linejoin="round"/>
    <path d="M 102.36299896240234 80.87165069580078 C 108.01148986816406 99.94027709960938 98.33606719970703 85.13695526123047 106.1475830078125 77.98729705810547" stroke-width="2" fill="none" stroke="rgb(0, 0, 0)" stroke-opacity="1.0" stroke-linecap="round" stroke-linejoin="round"/>
    <path d="M 130.12997436523438 115.90385437011719 C 80.491455078125 97.75663757324219 191.8450469970703 153.25924682617188 49.58393096923828 127.2138442993164" stroke-width="2" fill="none" stroke="rgb(0, 0, 0)" stroke-opacity="1.0" stroke-linecap="round" stroke-linejoin="round"/>
    <path d="M 86.82217407226562 139.87042236328125 C 181.87086486816406 166.07455444335938 -19.629350662231445 160.4541473388672 53.69678497314453 109.88075256347656" stroke-width="2" fill="none" stroke="rgb(0, 0, 0)" stroke-opacity="1.0" stroke-linecap="round" stroke-linejoin="round"/>
    <path d="M 160.96278381347656 122.92174530029297 C 83.54390716552734 122.6103286743164 187.3023223876953 134.15167236328125 138.45468139648438 136.97203063964844" stroke-width="2" fill="none" stroke="rgb(0, 0, 0)" stroke-opacity="1.0" stroke-linecap="round" stroke-linejoin="round"/>
    <path d="M 136.8516387939453 104.7425765991211 C 174.8571014404297 99.35609436035156 74.96685791015625 119.61280059814453 136.3941650390625 143.90072631835938" stroke-width="2" fill="none" stroke="rgb(0, 0, 0)" stroke-opacity="1.0" stroke-linecap="round" stroke-linejoin="round"/>
    <path d="M 184.34417724609375 87.08407592773438 C 191.2711944580078 32.0420036315918 164.360107421875 100.8475112915039 146.22116088867188 88.79113006591797" stroke-width="2" fill="none" stroke="rgb(0, 0, 0)" stroke-opacity="1.0" stroke-linecap="round" stroke-linejoin="round"/>
    <path d="M 172.09877014160156 147.75196838378906 C 176.28335571289062 135.79818725585938 79.60267639160156 166.4732666015625 102.3553237915039 90.24207305908203" stroke-width="2" fill="none" stroke="rgb(0, 0, 0)" stroke-opacity="1.0" stroke-linecap="round" stroke-linejoin="round"/>
    <path d="M 57.8244514465332 139.3788604736328 C 23.597274780273438 110.76329803466797 151.4993438720703 164.55992126464844 156.27056884765625 152.47555541992188" stroke-width="2" fill="none" stroke="rgb(0, 0, 0)" stroke-opacity="1.0" stroke-linecap="round" stroke-linejoin="round"/>
    <path d="M 113.5479507446289 152.05995178222656 C 136.83229064941406 150.71238708496094 169.7490234375 161.38966369628906 167.55691528320312 160.45016479492188" stroke-width="2" fill="none" stroke="rgb(0, 0, 0)" stroke-opacity="1.0" stroke-linecap="round" stroke-linejoin="round"/>
    <path d="M 168.44325256347656 117.0635757446289 C 164.65431213378906 79.75843048095703 164.2847442626953 126.10952758789062 177.8201141357422 84.75616455078125" stroke-width="2" fill="none" stroke="rgb(0, 0, 0)" stroke-opacity="1.0" stroke-linecap="round" stroke-linejoin="round"/>
    <path d="M 150.92575073242188 144.10816955566406 C 177.44667053222656 138.79315185546875 167.78118896484375 104.94412231445312 160.99990844726562 128.05418395996094" stroke-width="2" fill="none" stroke="rgb(0, 0, 0)" stroke-opacity="1.0" stroke-linecap="round" stroke-linejoin="round"/>
  </g>
</svg>
