<?xml version="1.0" ?>
<svg xmlns="http://www.w3.org/2000/svg" version="1.1" width="224" height="224">
  <defs/>
  <g>
    <path d="M 93.12388610839844 155.04478454589844 C 3.65783429145813 162.15066528320312 62.18539810180664 99.82652282714844 52.304141998291016 119.0553970336914" stroke-width="2" fill="none" stroke="rgb(0, 0, 0)" stroke-opacity="1.0" stroke-linecap="round" stroke-linejoin="round"/>
    <path d="M 90.52957916259766 101.28581237792969 C 164.50619506835938 106.21803283691406 68.09461212158203 108.05086517333984 148.4027862548828 127.7596206665039" stroke-width="2" fill="none" stroke="rgb(0, 0, 0)" stroke-opacity="1.0" stroke-linecap="round" stroke-linejoin="round"/>
    <path d="M 51.812034606933594 105.22296142578125 C -6.6975226402282715 155.7957763671875 251.11073303222656 186.95298767089844 148.71359252929688 101.94010162353516" stroke-width="2" fill="none" stroke="rgb(0, 0, 0)" stroke-opacity="1.0" stroke-linecap="round" stroke-linejoin="round"/>
    <path d="M 138.59600830078125 109.81256866455078 C 157.45455932617188 106.8957748413086 101.67469787597656 104.99195098876953 164.10153198242188 106.2914810180664" stroke-width="2" fill="none" stroke="rgb(0, 0, 0)" stroke-opacity="1.0" stroke-linecap="round" stroke-linejoin="round"/>
    <path d="M 97.79754638671875 72.03746032714844 C 133.4461212158203 100.89776611328125 122.59359741210938 62.59840393066406 150.44598388671875 85.55990600585938" stroke-width="2" fill="none" stroke="rgb(0, 0, 0)" stroke-opacity="1.0" stroke-linecap="round" stroke-linejoin="round"/>
    <path d="M 107.93655395507812 105.94559478759766 C 137.07797241210938 103.94794464111328 88.5936050415039 110.13616943359375 120.33889770507812 102.54621887207031" stroke-width="2" fill="none" stroke="rgb(0, 0, 0)" stroke-opacity="1.0" stroke-linecap="round" stroke-linejoin="round"/>
    <path d="M 110.72492980957031 125.56559753417969 C 96.4649887084961 90.24790954589844 114.7124252319336 116.79724884033203 113.67466735839844 109.83381652832031" stroke-width="2" fill="none" stroke="rgb(0, 0, 0)" stroke-opacity="1.0" stroke-linecap="round" stroke-linejoin="round"/>
    <path d="M 99.77223205566406 68.2835922241211 C 130.07318115234375 121.78067016601562 52.535919189453125 69.44873809814453 42.41840362548828 122.67023468017578" stroke-width="2" fill="none" stroke="rgb(0, 0, 0)" stroke-opacity="1.0" stroke-linecap="round" stroke-linejoin="round"/>
    <path d="M 136.8618927001953 113.82041931152344 C 81.32324981689453 126.5743179321289 166.36212158203125 106.50572204589844 116.37031555175781 115.51112365722656" stroke-width="2" fill="none" stroke="rgb(0, 0, 0)" stroke-opacity="1.0" stroke-linecap="round" stroke-linejoin="round"/>
    <path d="M 96.90409088134766 127.89484405517578 C 132.58688354492188 149.86526489257812 92.71784973144531 140.07687377929688 124.82965850830078 109.97544860839844" stroke-width="2" fill="none" stroke="rgb(0, 0, 0)" stroke-opacity="1.0" stroke-linecap="round" stroke-linejoin="round"/>
    <path d="M 165.4866943359375 124.73233795166016 C 216.13291931152344 5.774331092834473 156.6468963623047 89.5926742553711 146.67922973632812 84.58462524414062" stroke-width="2" fill="none" stroke="rgb(0, 0, 0)" stroke-opacity="1.0" stroke-linecap="round" stroke-linejoin="round"/>
    <path d="M 123.48564910888672 110.25859069824219 C 152.32794189453125 122.70982360839844 84.72749328613281 109.36699676513672 111.01370239257812 85.23152923583984" stroke-width="2" fill="none" stroke="rgb(0, 0, 0)" stroke-opacity="1.0" stroke-linecap="round" stroke-linejoin="round"/>
    <path d="M 54.988216400146484 143.72605895996094 C 53.885108947753906 115.91194915771484 108.89332580566406 146.95095825195312 137.1164093017578 136.3290557861328" stroke-width="2" fill="none" stroke="rgb(0, 0, 0)" stroke-opacity="1.0" stroke-linecap="round" stroke-linejoin="round"/>
    <path d="M 176.2593231201172 139.33737182617188 C 114.97190856933594 134.85157775878906 178.89410400390625 107.13607788085938 130.20567321777344 131.50823974609375" stroke-width="2" fill="none" stroke="rgb(0, 0, 0)" stroke-opacity="1.0" stroke-linecap="round" stroke-linejoin="round"/>
    <path d="M 176.203857421875 96.20048522949219 C 172.25054931640625 71.22236633300781 179.63804626464844 113.7784194946289 147.5834503173828 95.30471801757812" stroke-width="2" fill="none" stroke="rgb(0, 0, 0)" stroke-opacity="1.0" stroke-linecap="round" stroke-linejoin="round"/>
    <path d="M 71.58831024169922 141.9639129638672 C 213.54345703125 161.21873474121094 187.56341552734375 118.1552505493164 117.77147674560547 123.3656234741211" stroke-width="2" fill="none" stroke="rgb(0, 0, 0)" stroke-opacity="1.0" stroke-linecap="round" stroke-linejoin="round"/>
  </g>
</svg>
