<?xml version="1.0" ?>
<svg xmlns="http://www.w3.org/2000/svg" version="1.1" width="224" height="224">
  <defs/>
  <g>
    <path d="M 69.10455322265625 150.2991943359375 C 43.217891693115234 137.94212341308594 45.63426208496094 119.11290740966797 73.5362777709961 147.27281188964844" stroke-width="2" fill="none" stroke="rgb(0, 0, 0)" stroke-opacity="1.0" stroke-linecap="round" stroke-linejoin="round"/>
    <path d="M 88.8243637084961 120.3169174194336 C 129.47499084472656 118.44268798828125 81.150146484375 134.6065216064453 128.34039306640625 152.11770629882812" stroke-width="2" fill="none" stroke="rgb(0, 0, 0)" stroke-opacity="1.0" stroke-linecap="round" stroke-linejoin="round"/>
    <path d="M 59.133426666259766 106.34794616699219 C -19.64437484741211 159.14707946777344 264.31927490234375 158.77606201171875 134.5863800048828 149.131591796875" stroke-width="2" fill="none" stroke="rgb(0, 0, 0)" stroke-opacity="1.0" stroke-linecap="round" stroke-linejoin="round"/>
    <path d="M 112.8934326171875 121.86029815673828 C 173.18382263183594 138.2450408935547 70.22193145751953 134.35523986816406 160.0013427734375 133.25347900390625" stroke-width="2" fill="none" stroke="rgb(0, 0, 0)" stroke-opacity="1.0" stroke-linecap="round" stroke-linejoin="round"/>
    <path d="M 108.108154296875 78.8291244506836 C 145.351806640625 111.05569458007812 145.45404052734375 73.2259750366211 160.58335876464844 95.00869750976562" stroke-width="2" fill="none" stroke="rgb(0, 0, 0)" stroke-opacity="1.0" stroke-linecap="round" stroke-linejoin="round"/>
    <path d="M 103.80282592773438 117.18016815185547 C 172.52224731445312 121.16792297363281 94.91197967529297 111.95111846923828 127.9565200805664 121.03397369384766" stroke-width="2" fill="none" stroke="rgb(0, 0, 0)" stroke-opacity="1.0" stroke-linecap="round" stroke-linejoin="round"/>
    <path d="M 112.9772720336914 112.42089080810547 C 147.3179473876953 106.51022338867188 82.78755950927734 120.66996765136719 134.34922790527344 113.9276351928711" stroke-width="2" fill="none" stroke="rgb(0, 0, 0)" stroke-opacity="1.0" stroke-linecap="round" stroke-linejoin="round"/>
    <path d="M 106.93368530273438 69.888916015625 C 125.97181701660156 120.88300323486328 54.06533432006836 67.90161895751953 48.81756591796875 118.81208801269531" stroke-width="2" fill="none" stroke="rgb(0, 0, 0)" stroke-opacity="1.0" stroke-linecap="round" stroke-linejoin="round"/>
    <path d="M 142.90188598632812 121.54415893554688 C 165.5743865966797 123.68901824951172 121.5123291015625 114.03752899169922 154.02706909179688 120.76959991455078" stroke-width="2" fill="none" stroke="rgb(0, 0, 0)" stroke-opacity="1.0" stroke-linecap="round" stroke-linejoin="round"/>
    <path d="M 79.38030242919922 137.90538024902344 C 231.6200714111328 159.84877014160156 130.03236389160156 127.40983581542969 118.9764633178711 127.14200592041016" stroke-width="2" fill="none" stroke="rgb(0, 0, 0)" stroke-opacity="1.0" stroke-linecap="round" stroke-linejoin="round"/>
    <path d="M 161.0592498779297 126.980712890625 C 203.23904418945312 45.52562713623047 177.55593872070312 110.23758697509766 160.43136596679688 105.58406066894531" stroke-width="2" fill="none" stroke="rgb(0, 0, 0)" stroke-opacity="1.0" stroke-linecap="round" stroke-linejoin="round"/>
    <path d="M 100.30612182617188 95.99351501464844 C 114.06890869140625 112.13774871826172 89.13511657714844 111.76539611816406 122.15119934082031 88.44850158691406" stroke-width="2" fill="none" stroke="rgb(0, 0, 0)" stroke-opacity="1.0" stroke-linecap="round" stroke-linejoin="round"/>
    <path d="M 81.0216293334961 154.6481475830078 C -1.1519134044647217 122.0762710571289 109.68769836425781 173.453125 148.53921508789062 150.0125274658203" stroke-width="2" fill="none" stroke="rgb(0, 0, 0)" stroke-opacity="1.0" stroke-linecap="round" stroke-linejoin="round"/>
    <path d="M 93.85722351074219 154.12124633789062 C 60.213531494140625 151.57025146484375 182.75465393066406 168.7244873046875 178.51278686523438 125.09795379638672" stroke-width="2" fill="none" stroke="rgb(0, 0, 0)" stroke-opacity="1.0" stroke-linecap="round" stroke-linejoin="round"/>
    <path d="M 160.7617645263672 92.9951400756836 C 217.8408966064453 17.43011474609375 158.6957550048828 147.57968139648438 156.6297607421875 109.65851593017578" stroke-width="2" fill="none" stroke="rgb(0, 0, 0)" stroke-opacity="1.0" stroke-linecap="round" stroke-linejoin="round"/>
    <path d="M 102.95294952392578 104.69607543945312 C 126.47344207763672 159.27069091796875 154.62399291992188 108.37763214111328 140.0232696533203 136.09889221191406" stroke-width="2" fill="none" stroke="rgb(0, 0, 0)" stroke-opacity="1.0" stroke-linecap="round" stroke-linejoin="round"/>
  </g>
</svg>
