<?xml version="1.0" ?>
<svg xmlns="http://www.w3.org/2000/svg" version="1.1" width="224" height="224">
  <defs/>
  <g>
    <path d="M 97.59197998046875 161.9620819091797 C 17.0313720703125 156.31797790527344 49.57585906982422 106.04975128173828 47.08843994140625 129.23468017578125" stroke-width="2" fill="none" stroke="rgb(0, 0, 0)" stroke-opacity="1.0" stroke-linecap="round" stroke-linejoin="round"/>
    <path d="M 63.9309196472168 104.18804168701172 C 164.29086303710938 128.45379638671875 46.33095169067383 117.76624298095703 162.6514434814453 120.72726440429688" stroke-width="2" fill="none" stroke="rgb(0, 0, 0)" stroke-opacity="1.0" stroke-linecap="round" stroke-linejoin="round"/>
    <path d="M 55.427589416503906 133.9796142578125 C 1.8744488954544067 152.19329833984375 233.73046875 191.1194305419922 163.48304748535156 102.85321807861328" stroke-width="2" fill="none" stroke="rgb(0, 0, 0)" stroke-opacity="1.0" stroke-linecap="round" stroke-linejoin="round"/>
    <path d="M 119.5015869140625 132.82699584960938 C 182.77700805664062 139.82408142089844 81.89702606201172 124.36836242675781 156.3523712158203 132.95172119140625" stroke-width="2" fill="none" stroke="rgb(0, 0, 0)" stroke-opacity="1.0" stroke-linecap="round" stroke-linejoin="round"/>
    <path d="M 100.6579360961914 69.29437255859375 C 122.6697998046875 94.31378936767578 127.07171630859375 61.45771026611328 149.54713439941406 80.08888244628906" stroke-width="2" fill="none" stroke="rgb(0, 0, 0)" stroke-opacity="1.0" stroke-linecap="round" stroke-linejoin="round"/>
    <path d="M 102.56150817871094 109.72633361816406 C 129.8302001953125 123.0767822265625 71.0014419555664 115.86157989501953 113.23282623291016 86.49626922607422" stroke-width="2" fill="none" stroke="rgb(0, 0, 0)" stroke-opacity="1.0" stroke-linecap="round" stroke-linejoin="round"/>
    <path d="M 149.35350036621094 121.80896759033203 C 129.2091827392578 101.77571105957031 163.92196655273438 160.9270477294922 99.9278335571289 123.8741683959961" stroke-width="2" fill="none" stroke="rgb(0, 0, 0)" stroke-opacity="1.0" stroke-linecap="round" stroke-linejoin="round"/>
    <path d="M 103.1588134765625 66.5007553100586 C 117.33821105957031 137.78150939941406 33.68278121948242 58.31632614135742 39.727394104003906 143.32595825195312" stroke-width="2" fill="none" stroke="rgb(0, 0, 0)" stroke-opacity="1.0" stroke-linecap="round" stroke-linejoin="round"/>
    <path d="M 130.24990844726562 124.29611206054688 C 92.8736572265625 146.36459350585938 186.21046447753906 105.58631134033203 151.5409698486328 127.249755859375" stroke-width="2" fill="none" stroke="rgb(0, 0, 0)" stroke-opacity="1.0" stroke-linecap="round" stroke-linejoin="round"/>
    <path d="M 71.35848999023438 133.4303436279297 C 182.87734985351562 173.87689208984375 90.5019302368164 149.8623046875 112.91617584228516 118.77790832519531" stroke-width="2" fill="none" stroke="rgb(0, 0, 0)" stroke-opacity="1.0" stroke-linecap="round" stroke-linejoin="round"/>
    <path d="M 163.73321533203125 113.19380950927734 C 218.19007873535156 2.8197760581970215 155.9629669189453 94.90748596191406 148.73773193359375 79.82249450683594" stroke-width="2" fill="none" stroke="rgb(0, 0, 0)" stroke-opacity="1.0" stroke-linecap="round" stroke-linejoin="round"/>
    <path d="M 118.96831512451172 114.69413757324219 C 157.81253051757812 104.46812438964844 84.15122985839844 132.54473876953125 96.72919464111328 116.92340850830078" stroke-width="2" fill="none" stroke="rgb(0, 0, 0)" stroke-opacity="1.0" stroke-linecap="round" stroke-linejoin="round"/>
    <path d="M 91.46485900878906 157.20204162597656 C 50.15229415893555 140.93470764160156 95.2149887084961 147.55018615722656 163.0937042236328 152.21551513671875" stroke-width="2" fill="none" stroke="rgb(0, 0, 0)" stroke-opacity="1.0" stroke-linecap="round" stroke-linejoin="round"/>
    <path d="M 149.46694946289062 148.2800750732422 C 83.41993713378906 108.66429138183594 198.0956573486328 133.8306884765625 120.35065460205078 151.78453063964844" stroke-width="2" fill="none" stroke="rgb(0, 0, 0)" stroke-opacity="1.0" stroke-linecap="round" stroke-linejoin="round"/>
    <path d="M 171.2334442138672 90.34014129638672 C 173.24771118164062 56.85667419433594 174.77940368652344 105.83635711669922 156.76309204101562 96.77659606933594" stroke-width="2" fill="none" stroke="rgb(0, 0, 0)" stroke-opacity="1.0" stroke-linecap="round" stroke-linejoin="round"/>
    <path d="M 75.92127990722656 149.98300170898438 C 193.6132049560547 178.1165008544922 195.7000732421875 119.7366714477539 156.4222869873047 139.9532470703125" stroke-width="2" fill="none" stroke="rgb(0, 0, 0)" stroke-opacity="1.0" stroke-linecap="round" stroke-linejoin="round"/>
  </g>
</svg>
