<?xml version="1.0" ?>
<svg xmlns="http://www.w3.org/2000/svg" version="1.1" width="224" height="224">
  <defs/>
  <g>
    <path d="M 59.05409622192383 149.36412048339844 C -0.6788644194602966 134.41888427734375 99.16304779052734 56.13523483276367 118.39478302001953 120.61432647705078" stroke-width="2" fill="none" stroke="rgb(0, 0, 0)" stroke-opacity="1.0" stroke-linecap="round" stroke-linejoin="round"/>
    <path d="M 143.60308837890625 123.359375 C 190.56613159179688 115.27811431884766 31.261106491088867 94.22711944580078 120.6842269897461 130.18524169921875" stroke-width="2" fill="none" stroke="rgb(0, 0, 0)" stroke-opacity="1.0" stroke-linecap="round" stroke-linejoin="round"/>
    <path d="M 50.03959655761719 136.05322265625 C 4.908219814300537 147.2129364013672 218.68368530273438 181.26290893554688 161.40501403808594 130.17189025878906" stroke-width="2" fill="none" stroke="rgb(0, 0, 0)" stroke-opacity="1.0" stroke-linecap="round" stroke-linejoin="round"/>
    <path d="M 138.36431884765625 120.85519409179688 C 178.64511108398438 120.19159698486328 120.01384735107422 120.93624114990234 148.2924346923828 116.02426147460938" stroke-width="2" fill="none" stroke="rgb(0, 0, 0)" stroke-opacity="1.0" stroke-linecap="round" stroke-linejoin="round"/>
    <path d="M 94.44072723388672 70.08809661865234 C 122.3720932006836 88.48372650146484 109.6989517211914 61.803627014160156 137.87179565429688 81.3392105102539" stroke-width="2" fill="none" stroke="rgb(0, 0, 0)" stroke-opacity="1.0" stroke-linecap="round" stroke-linejoin="round"/>
    <path d="M 101.02515411376953 72.30963897705078 C 104.64151000976562 108.77792358398438 91.2031478881836 96.65401458740234 104.68960571289062 86.93427276611328" stroke-width="2" fill="none" stroke="rgb(0, 0, 0)" stroke-opacity="1.0" stroke-linecap="round" stroke-linejoin="round"/>
    <path d="M 118.56536102294922 136.49337768554688 C 77.92684936523438 110.86315155029297 189.67332458496094 146.54466247558594 52.96929931640625 115.28782653808594" stroke-width="2" fill="none" stroke="rgb(0, 0, 0)" stroke-opacity="1.0" stroke-linecap="round" stroke-linejoin="round"/>
    <path d="M 72.59245300292969 141.41429138183594 C 181.89234924316406 173.1876983642578 -4.903872489929199 148.1688690185547 56.43234634399414 107.91002655029297" stroke-width="2" fill="none" stroke="rgb(0, 0, 0)" stroke-opacity="1.0" stroke-linecap="round" stroke-linejoin="round"/>
    <path d="M 142.8456573486328 132.38270568847656 C 89.69284057617188 132.37135314941406 191.15310668945312 135.95152282714844 129.1023712158203 129.5937957763672" stroke-width="2" fill="none" stroke="rgb(0, 0, 0)" stroke-opacity="1.0" stroke-linecap="round" stroke-linejoin="round"/>
    <path d="M 120.18468475341797 109.63323974609375 C 196.57630920410156 100.43881225585938 70.46421813964844 111.5423812866211 141.4447021484375 145.59585571289062" stroke-width="2" fill="none" stroke="rgb(0, 0, 0)" stroke-opacity="1.0" stroke-linecap="round" stroke-linejoin="round"/>
    <path d="M 183.18809509277344 91.60396575927734 C 191.733642578125 12.57489013671875 162.70849609375 99.41804504394531 144.4173583984375 81.13511657714844" stroke-width="2" fill="none" stroke="rgb(0, 0, 0)" stroke-opacity="1.0" stroke-linecap="round" stroke-linejoin="round"/>
    <path d="M 169.6273651123047 154.6771240234375 C 178.42208862304688 142.4134063720703 77.64625549316406 168.12599182128906 110.52421569824219 101.1917724609375" stroke-width="2" fill="none" stroke="rgb(0, 0, 0)" stroke-opacity="1.0" stroke-linecap="round" stroke-linejoin="round"/>
    <path d="M 84.63004302978516 132.3763885498047 C 6.662201881408691 105.47119903564453 153.4947052001953 165.73757934570312 157.83934020996094 146.56097412109375" stroke-width="2" fill="none" stroke="rgb(0, 0, 0)" stroke-opacity="1.0" stroke-linecap="round" stroke-linejoin="round"/>
    <path d="M 131.96176147460938 155.8130340576172 C 129.60256958007812 156.8092803955078 171.6815643310547 158.4210968017578 173.3024444580078 140.7736053466797" stroke-width="2" fill="none" stroke="rgb(0, 0, 0)" stroke-opacity="1.0" stroke-linecap="round" stroke-linejoin="round"/>
    <path d="M 161.73114013671875 113.40218353271484 C 140.65989685058594 104.93089294433594 164.72119140625 136.2850341796875 174.69161987304688 77.55188751220703" stroke-width="2" fill="none" stroke="rgb(0, 0, 0)" stroke-opacity="1.0" stroke-linecap="round" stroke-linejoin="round"/>
    <path d="M 157.08755493164062 123.8486557006836 C 167.11669921875 128.1235809326172 168.23069763183594 96.843994140625 152.6156768798828 102.49110412597656" stroke-width="2" fill="none" stroke="rgb(0, 0, 0)" stroke-opacity="1.0" stroke-linecap="round" stroke-linejoin="round"/>
  </g>
</svg>
