<?xml version="1.0" ?>
<svg xmlns="http://www.w3.org/2000/svg" version="1.1" width="224" height="224">
  <defs/>
  <g>
    <path d="M 65.32241821289062 139.69505310058594 C 17.35808753967285 134.810546875 86.08405303955078 56.04686737060547 100.32996368408203 124.2197265625" stroke-width="2" fill="none" stroke="rgb(0, 0, 0)" stroke-opacity="1.0" stroke-linecap="round" stroke-linejoin="round"/>
    <path d="M 150.9245147705078 137.98739624023438 C 207.48602294921875 147.02195739746094 64.56024932861328 130.99610900878906 65.23395538330078 128.7251434326172" stroke-width="2" fill="none" stroke="rgb(0, 0, 0)" stroke-opacity="1.0" stroke-linecap="round" stroke-linejoin="round"/>
    <path d="M 62.35763168334961 132.43846130371094 C 16.465538024902344 114.81908416748047 78.90736389160156 159.53274536132812 133.9407958984375 153.51112365722656" stroke-width="2" fill="none" stroke="rgb(0, 0, 0)" stroke-opacity="1.0" stroke-linecap="round" stroke-linejoin="round"/>
    <path d="M 160.6725616455078 107.24501037597656 C 168.91136169433594 118.1883544921875 178.61456298828125 72.36521911621094 164.325439453125 128.8065643310547" stroke-width="2" fill="none" stroke="rgb(0, 0, 0)" stroke-opacity="1.0" stroke-linecap="round" stroke-linejoin="round"/>
    <path d="M 102.80040740966797 73.29696655273438 C 105.58660888671875 115.68014526367188 167.7838134765625 59.37754821777344 170.2490234375 109.44989776611328" stroke-width="2" fill="none" stroke="rgb(0, 0, 0)" stroke-opacity="1.0" stroke-linecap="round" stroke-linejoin="round"/>
    <path d="M 98.30632019042969 132.30284118652344 C 26.173349380493164 110.0959243774414 112.46185302734375 123.62122344970703 58.95919418334961 112.35856628417969" stroke-width="2" fill="none" stroke="rgb(0, 0, 0)" stroke-opacity="1.0" stroke-linecap="round" stroke-linejoin="round"/>
    <path d="M 131.45504760742188 120.93462371826172 C 74.10186004638672 82.9395980834961 129.47386169433594 60.71062088012695 107.14070892333984 113.1423110961914" stroke-width="2" fill="none" stroke="rgb(0, 0, 0)" stroke-opacity="1.0" stroke-linecap="round" stroke-linejoin="round"/>
    <path d="M 103.72258758544922 160.58250427246094 C 105.6517333984375 153.8777313232422 -6.828664302825928 163.99697875976562 58.428619384765625 101.89781188964844" stroke-width="2" fill="none" stroke="rgb(0, 0, 0)" stroke-opacity="1.0" stroke-linecap="round" stroke-linejoin="round"/>
    <path d="M 170.59976196289062 97.44009399414062 C 135.94456481933594 106.64073944091797 205.73927307128906 118.8494644165039 138.6084747314453 129.33056640625" stroke-width="2" fill="none" stroke="rgb(0, 0, 0)" stroke-opacity="1.0" stroke-linecap="round" stroke-linejoin="round"/>
    <path d="M 115.61974334716797 112.66827392578125 C 211.96377563476562 117.61968994140625 102.84261322021484 119.24273681640625 172.43838500976562 131.33627319335938" stroke-width="2" fill="none" stroke="rgb(0, 0, 0)" stroke-opacity="1.0" stroke-linecap="round" stroke-linejoin="round"/>
    <path d="M 188.81471252441406 60.578487396240234 C 174.04977416992188 58.98558044433594 161.9796905517578 105.97531127929688 141.81741333007812 89.34159851074219" stroke-width="2" fill="none" stroke="rgb(0, 0, 0)" stroke-opacity="1.0" stroke-linecap="round" stroke-linejoin="round"/>
    <path d="M 177.77166748046875 146.8632354736328 C 180.379150390625 165.65794372558594 50.16340637207031 115.36211395263672 91.79216766357422 137.0343475341797" stroke-width="2" fill="none" stroke="rgb(0, 0, 0)" stroke-opacity="1.0" stroke-linecap="round" stroke-linejoin="round"/>
    <path d="M 140.6273193359375 154.01495361328125 C 57.734886169433594 147.92140197753906 224.25677490234375 168.07752990722656 165.0376739501953 129.6455841064453" stroke-width="2" fill="none" stroke="rgb(0, 0, 0)" stroke-opacity="1.0" stroke-linecap="round" stroke-linejoin="round"/>
    <path d="M 137.5053253173828 114.56085968017578 C 165.90504455566406 125.26893615722656 117.42977142333984 97.77908325195312 151.73008728027344 119.64117431640625" stroke-width="2" fill="none" stroke="rgb(0, 0, 0)" stroke-opacity="1.0" stroke-linecap="round" stroke-linejoin="round"/>
    <path d="M 162.39866638183594 100.52991485595703 C 123.39765167236328 87.6441879272461 183.18380737304688 122.20330047607422 183.33294677734375 65.436767578125" stroke-width="2" fill="none" stroke="rgb(0, 0, 0)" stroke-opacity="1.0" stroke-linecap="round" stroke-linejoin="round"/>
    <path d="M 155.7728271484375 112.90438842773438 C 91.55477905273438 126.39244079589844 174.13751220703125 137.47784423828125 133.42027282714844 125.63945770263672" stroke-width="2" fill="none" stroke="rgb(0, 0, 0)" stroke-opacity="1.0" stroke-linecap="round" stroke-linejoin="round"/>
  </g>
</svg>
