<?xml version="1.0" ?>
<svg xmlns="http://www.w3.org/2000/svg" version="1.1" width="224" height="224">
  <defs/>
  <g>
    <path d="M 66.1805419921875 156.0375518798828 C 10.418408393859863 149.49508666992188 71.85530090332031 63.481449127197266 110.02774047851562 120.05999755859375" stroke-width="2" fill="none" stroke="rgb(0, 0, 0)" stroke-opacity="1.0" stroke-linecap="round" stroke-linejoin="round"/>
    <path d="M 125.43138885498047 110.13179779052734 C 196.0667724609375 121.4162368774414 22.13438606262207 118.86576080322266 119.09097290039062 128.3387451171875" stroke-width="2" fill="none" stroke="rgb(0, 0, 0)" stroke-opacity="1.0" stroke-linecap="round" stroke-linejoin="round"/>
    <path d="M 51.224388122558594 119.91462707519531 C 0.9962334632873535 152.0100860595703 229.84817504882812 187.1357421875 159.76992797851562 111.45450592041016" stroke-width="2" fill="none" stroke="rgb(0, 0, 0)" stroke-opacity="1.0" stroke-linecap="round" stroke-linejoin="round"/>
    <path d="M 134.7386932373047 136.40089416503906 C 171.92645263671875 127.88634490966797 106.27262115478516 128.05322265625 133.7658233642578 118.29373168945312" stroke-width="2" fill="none" stroke="rgb(0, 0, 0)" stroke-opacity="1.0" stroke-linecap="round" stroke-linejoin="round"/>
    <path d="M 101.13414764404297 72.30147552490234 C 114.69676208496094 117.70706176757812 136.65122985839844 72.026611328125 155.09033203125 96.41890716552734" stroke-width="2" fill="none" stroke="rgb(0, 0, 0)" stroke-opacity="1.0" stroke-linecap="round" stroke-linejoin="round"/>
    <path d="M 92.3228530883789 97.47172546386719 C 103.3855209350586 64.32781219482422 108.60974884033203 74.79408264160156 93.64535522460938 86.27857971191406" stroke-width="2" fill="none" stroke="rgb(0, 0, 0)" stroke-opacity="1.0" stroke-linecap="round" stroke-linejoin="round"/>
    <path d="M 110.98201751708984 134.6842041015625 C 48.35361099243164 89.80272674560547 164.0369415283203 150.89950561523438 60.19683837890625 142.22584533691406" stroke-width="2" fill="none" stroke="rgb(0, 0, 0)" stroke-opacity="1.0" stroke-linecap="round" stroke-linejoin="round"/>
    <path d="M 93.34416961669922 120.1415023803711 C 216.45555114746094 151.54339599609375 -9.869649887084961 143.30068969726562 61.27992248535156 137.1979217529297" stroke-width="2" fill="none" stroke="rgb(0, 0, 0)" stroke-opacity="1.0" stroke-linecap="round" stroke-linejoin="round"/>
    <path d="M 156.50270080566406 127.65093231201172 C 76.99885559082031 123.85868072509766 177.6105194091797 134.1891632080078 129.08724975585938 115.74938201904297" stroke-width="2" fill="none" stroke="rgb(0, 0, 0)" stroke-opacity="1.0" stroke-linecap="round" stroke-linejoin="round"/>
    <path d="M 137.7159881591797 121.8944091796875 C 193.98573303222656 89.98194122314453 90.83991241455078 127.20618438720703 150.28802490234375 133.6429443359375" stroke-width="2" fill="none" stroke="rgb(0, 0, 0)" stroke-opacity="1.0" stroke-linecap="round" stroke-linejoin="round"/>
    <path d="M 175.8032684326172 94.64759063720703 C 196.44253540039062 23.70446014404297 163.05421447753906 100.25190734863281 154.4712677001953 89.46878051757812" stroke-width="2" fill="none" stroke="rgb(0, 0, 0)" stroke-opacity="1.0" stroke-linecap="round" stroke-linejoin="round"/>
    <path d="M 153.8398895263672 140.8256072998047 C 163.9677276611328 139.11538696289062 87.54093170166016 175.96527099609375 102.53614044189453 73.6695327758789" stroke-width="2" fill="none" stroke="rgb(0, 0, 0)" stroke-opacity="1.0" stroke-linecap="round" stroke-linejoin="round"/>
    <path d="M 52.64190673828125 137.37646484375 C 11.860795974731445 103.6546630859375 139.50587463378906 154.7373046875 148.8674774169922 135.8572235107422" stroke-width="2" fill="none" stroke="rgb(0, 0, 0)" stroke-opacity="1.0" stroke-linecap="round" stroke-linejoin="round"/>
    <path d="M 121.46992492675781 160.43104553222656 C 143.43106079101562 146.5545654296875 197.3360595703125 157.7394256591797 178.7235107421875 134.6824493408203" stroke-width="2" fill="none" stroke="rgb(0, 0, 0)" stroke-opacity="1.0" stroke-linecap="round" stroke-linejoin="round"/>
    <path d="M 166.89398193359375 124.82111358642578 C 164.81204223632812 64.63020324707031 156.00469970703125 129.32260131835938 174.02015686035156 93.60597229003906" stroke-width="2" fill="none" stroke="rgb(0, 0, 0)" stroke-opacity="1.0" stroke-linecap="round" stroke-linejoin="round"/>
    <path d="M 106.43230438232422 128.83290100097656 C 167.7989044189453 153.6094970703125 149.0355682373047 112.51556396484375 157.57601928710938 134.60250854492188" stroke-width="2" fill="none" stroke="rgb(0, 0, 0)" stroke-opacity="1.0" stroke-linecap="round" stroke-linejoin="round"/>
  </g>
</svg>
