<?xml version="1.0" ?>
<svg xmlns="http://www.w3.org/2000/svg" version="1.1" width="224" height="224">
  <defs/>
  <g>
    <path d="M 62.74979782104492 153.59173583984375 C -5.9721245765686035 129.86737060546875 107.45530700683594 69.72307586669922 98.14077758789062 123.33607482910156" stroke-width="2" fill="none" stroke="rgb(0, 0, 0)" stroke-opacity="1.0" stroke-linecap="round" stroke-linejoin="round"/>
    <path d="M 118.60881805419922 130.4128875732422 C 201.2352294921875 136.115234375 87.91887664794922 145.1320037841797 117.01730346679688 110.02527618408203" stroke-width="2" fill="none" stroke="rgb(0, 0, 0)" stroke-opacity="1.0" stroke-linecap="round" stroke-linejoin="round"/>
    <path d="M 134.14068603515625 138.60897827148438 C 20.441476821899414 115.37492370605469 124.14766693115234 137.3634796142578 142.10165405273438 146.1703338623047" stroke-width="2" fill="none" stroke="rgb(0, 0, 0)" stroke-opacity="1.0" stroke-linecap="round" stroke-linejoin="round"/>
    <path d="M 136.86680603027344 106.33843231201172 C 145.72821044921875 126.0276870727539 109.9345932006836 93.36711120605469 155.52200317382812 125.59577178955078" stroke-width="2" fill="none" stroke="rgb(0, 0, 0)" stroke-opacity="1.0" stroke-linecap="round" stroke-linejoin="round"/>
    <path d="M 99.91999053955078 75.85930633544922 C 105.4079360961914 110.44014739990234 151.28421020507812 63.6187858581543 151.8272705078125 107.49223327636719" stroke-width="2" fill="none" stroke="rgb(0, 0, 0)" stroke-opacity="1.0" stroke-linecap="round" stroke-linejoin="round"/>
    <path d="M 85.89309692382812 110.70683288574219 C 16.6175594329834 88.45943450927734 119.17253875732422 111.30120086669922 54.198055267333984 111.15214538574219" stroke-width="2" fill="none" stroke="rgb(0, 0, 0)" stroke-opacity="1.0" stroke-linecap="round" stroke-linejoin="round"/>
    <path d="M 119.52680969238281 105.35618591308594 C 90.0408706665039 86.12828063964844 138.32376098632812 93.64604187011719 96.4091567993164 113.11600494384766" stroke-width="2" fill="none" stroke="rgb(0, 0, 0)" stroke-opacity="1.0" stroke-linecap="round" stroke-linejoin="round"/>
    <path d="M 94.94351959228516 153.1750030517578 C 114.06783294677734 154.66383361816406 -3.0083322525024414 151.26397705078125 61.62418746948242 99.55947875976562" stroke-width="2" fill="none" stroke="rgb(0, 0, 0)" stroke-opacity="1.0" stroke-linecap="round" stroke-linejoin="round"/>
    <path d="M 151.82504272460938 102.1443862915039 C 121.0279312133789 84.85713958740234 182.2902374267578 106.2120361328125 162.55715942382812 129.1967010498047" stroke-width="2" fill="none" stroke="rgb(0, 0, 0)" stroke-opacity="1.0" stroke-linecap="round" stroke-linejoin="round"/>
    <path d="M 146.74520874023438 109.86894226074219 C 171.2257843017578 110.26782989501953 98.48743438720703 124.59381866455078 162.532958984375 117.7837142944336" stroke-width="2" fill="none" stroke="rgb(0, 0, 0)" stroke-opacity="1.0" stroke-linecap="round" stroke-linejoin="round"/>
    <path d="M 184.41712951660156 67.27915954589844 C 167.6305389404297 65.3060073852539 164.43661499023438 91.38711547851562 149.35662841796875 84.68058776855469" stroke-width="2" fill="none" stroke="rgb(0, 0, 0)" stroke-opacity="1.0" stroke-linecap="round" stroke-linejoin="round"/>
    <path d="M 172.7832794189453 141.59024047851562 C 146.1879425048828 165.99551391601562 61.899471282958984 92.52992248535156 70.19146728515625 113.34204864501953" stroke-width="2" fill="none" stroke="rgb(0, 0, 0)" stroke-opacity="1.0" stroke-linecap="round" stroke-linejoin="round"/>
    <path d="M 154.01425170898438 157.62794494628906 C -32.312320709228516 135.6599578857422 219.36782836914062 182.27584838867188 167.4979705810547 134.64175415039062" stroke-width="2" fill="none" stroke="rgb(0, 0, 0)" stroke-opacity="1.0" stroke-linecap="round" stroke-linejoin="round"/>
    <path d="M 113.49691772460938 114.54195404052734 C 188.7309112548828 109.92218780517578 143.1834259033203 138.1731414794922 172.46527099609375 101.3022689819336" stroke-width="2" fill="none" stroke="rgb(0, 0, 0)" stroke-opacity="1.0" stroke-linecap="round" stroke-linejoin="round"/>
    <path d="M 146.84896850585938 115.31999969482422 C 159.2604217529297 92.49127197265625 177.4815216064453 130.57965087890625 181.34034729003906 68.44532775878906" stroke-width="2" fill="none" stroke="rgb(0, 0, 0)" stroke-opacity="1.0" stroke-linecap="round" stroke-linejoin="round"/>
    <path d="M 157.70947265625 117.60948944091797 C 126.57402038574219 145.01255798339844 175.39337158203125 101.32330322265625 146.18017578125 124.51978302001953" stroke-width="2" fill="none" stroke="rgb(0, 0, 0)" stroke-opacity="1.0" stroke-linecap="round" stroke-linejoin="round"/>
  </g>
</svg>
