<?xml version="1.0" ?>
<svg xmlns="http://www.w3.org/2000/svg" version="1.1" width="224" height="224">
  <defs/>
  <g>
    <path d="M 81.04350280761719 157.50421142578125 C 2.8050458431243896 119.42333221435547 80.14300537109375 80.11760711669922 109.8284683227539 131.0498046875" stroke-width="2" fill="none" stroke="rgb(0, 0, 0)" stroke-opacity="1.0" stroke-linecap="round" stroke-linejoin="round"/>
    <path d="M 133.5377197265625 145.3816680908203 C 215.95579528808594 147.88514709472656 101.01380157470703 132.9591522216797 105.37763214111328 128.71270751953125" stroke-width="2" fill="none" stroke="rgb(0, 0, 0)" stroke-opacity="1.0" stroke-linecap="round" stroke-linejoin="round"/>
    <path d="M 60.720542907714844 143.78013610839844 C 12.165096282958984 124.71430969238281 86.71913146972656 152.76303100585938 146.20167541503906 160.2245635986328" stroke-width="2" fill="none" stroke="rgb(0, 0, 0)" stroke-opacity="1.0" stroke-linecap="round" stroke-linejoin="round"/>
    <path d="M 177.74989318847656 107.64408111572266 C 176.93382263183594 131.59295654296875 180.04188537597656 80.22696685791016 164.02369689941406 132.66246032714844" stroke-width="2" fill="none" stroke="rgb(0, 0, 0)" stroke-opacity="1.0" stroke-linecap="round" stroke-linejoin="round"/>
    <path d="M 103.37374114990234 71.69971466064453 C 118.19722747802734 113.31543731689453 127.04496765136719 74.98809051513672 142.70730590820312 96.7892074584961" stroke-width="2" fill="none" stroke="rgb(0, 0, 0)" stroke-opacity="1.0" stroke-linecap="round" stroke-linejoin="round"/>
    <path d="M 96.9919662475586 128.2938232421875 C 24.610376358032227 114.92086029052734 104.40840148925781 122.299072265625 59.66944885253906 106.78630828857422" stroke-width="2" fill="none" stroke="rgb(0, 0, 0)" stroke-opacity="1.0" stroke-linecap="round" stroke-linejoin="round"/>
    <path d="M 118.56149291992188 133.2020263671875 C 94.16372680664062 103.24745178222656 150.06369018554688 80.12693786621094 102.90991973876953 118.1968994140625" stroke-width="2" fill="none" stroke="rgb(0, 0, 0)" stroke-opacity="1.0" stroke-linecap="round" stroke-linejoin="round"/>
    <path d="M 100.36429595947266 160.8035430908203 C 113.11261749267578 158.0146484375 6.523494720458984 160.12574768066406 69.18983459472656 98.05440521240234" stroke-width="2" fill="none" stroke="rgb(0, 0, 0)" stroke-opacity="1.0" stroke-linecap="round" stroke-linejoin="round"/>
    <path d="M 180.12557983398438 91.66873168945312 C 142.06143188476562 89.64830780029297 189.7772674560547 127.43119812011719 168.0186767578125 138.96835327148438" stroke-width="2" fill="none" stroke="rgb(0, 0, 0)" stroke-opacity="1.0" stroke-linecap="round" stroke-linejoin="round"/>
    <path d="M 134.09832763671875 115.67338562011719 C 230.7003936767578 126.52445983886719 110.58451843261719 131.9984588623047 154.87112426757812 122.7589111328125" stroke-width="2" fill="none" stroke="rgb(0, 0, 0)" stroke-opacity="1.0" stroke-linecap="round" stroke-linejoin="round"/>
    <path d="M 187.44366455078125 71.23466491699219 C 177.64544677734375 60.965702056884766 169.614501953125 102.77082824707031 146.84344482421875 93.75206756591797" stroke-width="2" fill="none" stroke="rgb(0, 0, 0)" stroke-opacity="1.0" stroke-linecap="round" stroke-linejoin="round"/>
    <path d="M 179.2339630126953 144.76707458496094 C 181.4100799560547 165.27682495117188 59.681915283203125 116.87833404541016 97.338134765625 135.43821716308594" stroke-width="2" fill="none" stroke="rgb(0, 0, 0)" stroke-opacity="1.0" stroke-linecap="round" stroke-linejoin="round"/>
    <path d="M 148.95260620117188 138.78077697753906 C 36.65277099609375 137.4495849609375 223.4483184814453 175.36253356933594 171.69676208496094 131.13133239746094" stroke-width="2" fill="none" stroke="rgb(0, 0, 0)" stroke-opacity="1.0" stroke-linecap="round" stroke-linejoin="round"/>
    <path d="M 133.6713409423828 118.73407745361328 C 194.91824340820312 110.27691650390625 128.04066467285156 119.92398834228516 173.80247497558594 129.44447326660156" stroke-width="2" fill="none" stroke="rgb(0, 0, 0)" stroke-opacity="1.0" stroke-linecap="round" stroke-linejoin="round"/>
    <path d="M 162.2277069091797 106.8179702758789 C 138.27613830566406 90.87545776367188 189.64886474609375 141.1107177734375 183.94210815429688 72.3405532836914" stroke-width="2" fill="none" stroke="rgb(0, 0, 0)" stroke-opacity="1.0" stroke-linecap="round" stroke-linejoin="round"/>
    <path d="M 171.97857666015625 132.69252014160156 C 149.1476287841797 122.445068359375 196.1652069091797 121.14646911621094 150.8734130859375 140.3067626953125" stroke-width="2" fill="none" stroke="rgb(0, 0, 0)" stroke-opacity="1.0" stroke-linecap="round" stroke-linejoin="round"/>
  </g>
</svg>
