<?xml version="1.0" ?>
<svg xmlns="http://www.w3.org/2000/svg" version="1.1" width="224" height="224">
  <defs/>
  <g>
    <path d="M 106.86845397949219 156.41195678710938 C 5.00453519821167 166.48468017578125 59.04257583618164 100.09825134277344 49.13744354248047 127.3968276977539" stroke-width="2" fill="none" stroke="rgb(0, 0, 0)" stroke-opacity="1.0" stroke-linecap="round" stroke-linejoin="round"/>
    <path d="M 94.26422882080078 114.6253662109375 C 181.62474060058594 122.8591537475586 62.65422439575195 117.3847885131836 141.15138244628906 134.7120361328125" stroke-width="2" fill="none" stroke="rgb(0, 0, 0)" stroke-opacity="1.0" stroke-linecap="round" stroke-linejoin="round"/>
    <path d="M 52.884517669677734 117.17628479003906 C -10.300067901611328 148.5080108642578 263.7293395996094 181.9989013671875 142.1432647705078 105.75091552734375" stroke-width="2" fill="none" stroke="rgb(0, 0, 0)" stroke-opacity="1.0" stroke-linecap="round" stroke-linejoin="round"/>
    <path d="M 152.18675231933594 120.78145599365234 C 176.89639282226562 105.63081359863281 107.67290496826172 117.45498657226562 162.46971130371094 108.7388916015625" stroke-width="2" fill="none" stroke="rgb(0, 0, 0)" stroke-opacity="1.0" stroke-linecap="round" stroke-linejoin="round"/>
    <path d="M 105.54873657226562 70.71330261230469 C 136.36578369140625 98.83678436279297 128.3732452392578 57.92308044433594 155.05703735351562 91.90959930419922" stroke-width="2" fill="none" stroke="rgb(0, 0, 0)" stroke-opacity="1.0" stroke-linecap="round" stroke-linejoin="round"/>
    <path d="M 111.0481948852539 113.15457153320312 C 135.90679931640625 98.39514923095703 87.11483001708984 104.81159973144531 132.84483337402344 100.67826080322266" stroke-width="2" fill="none" stroke="rgb(0, 0, 0)" stroke-opacity="1.0" stroke-linecap="round" stroke-linejoin="round"/>
    <path d="M 133.3917236328125 109.02345275878906 C 105.87305450439453 88.86553192138672 129.28924560546875 118.69320678710938 105.5745620727539 102.39082336425781" stroke-width="2" fill="none" stroke="rgb(0, 0, 0)" stroke-opacity="1.0" stroke-linecap="round" stroke-linejoin="round"/>
    <path d="M 97.88336944580078 74.13634490966797 C 122.28591918945312 118.56073760986328 42.872684478759766 72.92195892333984 43.57954788208008 123.87731170654297" stroke-width="2" fill="none" stroke="rgb(0, 0, 0)" stroke-opacity="1.0" stroke-linecap="round" stroke-linejoin="round"/>
    <path d="M 138.14743041992188 117.91232299804688 C 85.72279357910156 135.82200622558594 167.86985778808594 87.801513671875 113.62359619140625 116.63644409179688" stroke-width="2" fill="none" stroke="rgb(0, 0, 0)" stroke-opacity="1.0" stroke-linecap="round" stroke-linejoin="round"/>
    <path d="M 95.98881530761719 129.6094512939453 C 140.7015838623047 158.32569885253906 95.1900634765625 140.8661651611328 104.65260314941406 105.49054718017578" stroke-width="2" fill="none" stroke="rgb(0, 0, 0)" stroke-opacity="1.0" stroke-linecap="round" stroke-linejoin="round"/>
    <path d="M 168.429931640625 106.1122055053711 C 219.40245056152344 13.19232177734375 166.1785430908203 94.96002197265625 154.2583770751953 82.38314819335938" stroke-width="2" fill="none" stroke="rgb(0, 0, 0)" stroke-opacity="1.0" stroke-linecap="round" stroke-linejoin="round"/>
    <path d="M 142.83058166503906 106.17169189453125 C 163.55361938476562 135.41268920898438 86.24046325683594 111.3592529296875 108.08647155761719 79.5510482788086" stroke-width="2" fill="none" stroke="rgb(0, 0, 0)" stroke-opacity="1.0" stroke-linecap="round" stroke-linejoin="round"/>
    <path d="M 76.63346862792969 133.5596923828125 C 49.491844177246094 122.23480987548828 96.85177612304688 164.09197998046875 128.88870239257812 149.47808837890625" stroke-width="2" fill="none" stroke="rgb(0, 0, 0)" stroke-opacity="1.0" stroke-linecap="round" stroke-linejoin="round"/>
    <path d="M 164.6219024658203 130.8071746826172 C 101.81685638427734 142.53033447265625 171.89710998535156 125.68125915527344 136.05137634277344 135.97398376464844" stroke-width="2" fill="none" stroke="rgb(0, 0, 0)" stroke-opacity="1.0" stroke-linecap="round" stroke-linejoin="round"/>
    <path d="M 178.81512451171875 82.39459991455078 C 173.4509735107422 76.13706970214844 185.6002655029297 105.75820922851562 154.238037109375 95.100341796875" stroke-width="2" fill="none" stroke="rgb(0, 0, 0)" stroke-opacity="1.0" stroke-linecap="round" stroke-linejoin="round"/>
    <path d="M 62.55522918701172 139.77984619140625 C 211.96214294433594 149.28070068359375 188.83660888671875 129.74041748046875 122.38810729980469 123.08455657958984" stroke-width="2" fill="none" stroke="rgb(0, 0, 0)" stroke-opacity="1.0" stroke-linecap="round" stroke-linejoin="round"/>
  </g>
</svg>
