<?xml version="1.0" ?>
<svg xmlns="http://www.w3.org/2000/svg" version="1.1" width="224" height="224">
  <defs/>
  <g>
    <path d="M 63.75537872314453 153.01268005371094 C -4.258253574371338 117.45680236816406 95.42915344238281 63.8656005859375 119.44313049316406 116.88005065917969" stroke-width="2" fill="none" stroke="rgb(0, 0, 0)" stroke-opacity="1.0" stroke-linecap="round" stroke-linejoin="round"/>
    <path d="M 127.27543640136719 143.01138305664062 C 204.6632537841797 143.33912658691406 94.34132385253906 135.7277069091797 137.60520935058594 135.78419494628906" stroke-width="2" fill="none" stroke="rgb(0, 0, 0)" stroke-opacity="1.0" stroke-linecap="round" stroke-linejoin="round"/>
    <path d="M 110.91697692871094 145.31692504882812 C 13.569551467895508 126.95548248291016 94.1219253540039 150.38722229003906 117.15340423583984 156.8939208984375" stroke-width="2" fill="none" stroke="rgb(0, 0, 0)" stroke-opacity="1.0" stroke-linecap="round" stroke-linejoin="round"/>
    <path d="M 158.17559814453125 104.52080535888672 C 156.5646514892578 139.54788208007812 143.64598083496094 107.40139770507812 153.10630798339844 122.42662048339844" stroke-width="2" fill="none" stroke="rgb(0, 0, 0)" stroke-opacity="1.0" stroke-linecap="round" stroke-linejoin="round"/>
    <path d="M 109.75532531738281 73.56663513183594 C 121.11202239990234 106.60609436035156 134.18756103515625 70.50670623779297 149.46641540527344 96.66865539550781" stroke-width="2" fill="none" stroke="rgb(0, 0, 0)" stroke-opacity="1.0" stroke-linecap="round" stroke-linejoin="round"/>
    <path d="M 85.5435562133789 94.12324523925781 C 3.757779836654663 101.44457244873047 89.81038665771484 103.59681701660156 53.09165573120117 102.6809310913086" stroke-width="2" fill="none" stroke="rgb(0, 0, 0)" stroke-opacity="1.0" stroke-linecap="round" stroke-linejoin="round"/>
    <path d="M 119.43592071533203 130.05628967285156 C 102.61185455322266 84.31421661376953 144.4482879638672 75.04059600830078 94.61451721191406 96.09293365478516" stroke-width="2" fill="none" stroke="rgb(0, 0, 0)" stroke-opacity="1.0" stroke-linecap="round" stroke-linejoin="round"/>
    <path d="M 93.413330078125 157.05364990234375 C 104.05799102783203 154.49053955078125 -8.68739128112793 152.60768127441406 61.40714645385742 106.3569564819336" stroke-width="2" fill="none" stroke="rgb(0, 0, 0)" stroke-opacity="1.0" stroke-linecap="round" stroke-linejoin="round"/>
    <path d="M 165.06036376953125 84.61793518066406 C 116.201416015625 99.59246826171875 190.57217407226562 123.22956848144531 171.29489135742188 142.853515625" stroke-width="2" fill="none" stroke="rgb(0, 0, 0)" stroke-opacity="1.0" stroke-linecap="round" stroke-linejoin="round"/>
    <path d="M 131.25698852539062 115.45997619628906 C 184.03445434570312 136.98606872558594 98.17848205566406 123.32061004638672 170.69117736816406 125.9901123046875" stroke-width="2" fill="none" stroke="rgb(0, 0, 0)" stroke-opacity="1.0" stroke-linecap="round" stroke-linejoin="round"/>
    <path d="M 180.01303100585938 68.35311126708984 C 173.18893432617188 56.669918060302734 169.2583770751953 97.03682708740234 145.2408447265625 91.37159729003906" stroke-width="2" fill="none" stroke="rgb(0, 0, 0)" stroke-opacity="1.0" stroke-linecap="round" stroke-linejoin="round"/>
    <path d="M 174.8181915283203 138.377685546875 C 166.99635314941406 166.46878051757812 58.90793991088867 109.9820556640625 89.62146759033203 130.51388549804688" stroke-width="2" fill="none" stroke="rgb(0, 0, 0)" stroke-opacity="1.0" stroke-linecap="round" stroke-linejoin="round"/>
    <path d="M 160.71580505371094 151.20626831054688 C -16.394235610961914 142.7635955810547 220.60557556152344 187.20846557617188 176.6835174560547 139.60292053222656" stroke-width="2" fill="none" stroke="rgb(0, 0, 0)" stroke-opacity="1.0" stroke-linecap="round" stroke-linejoin="round"/>
    <path d="M 125.64158630371094 120.85839080810547 C 204.97584533691406 110.76862335205078 146.30899047851562 128.2356414794922 171.69680786132812 111.0545654296875" stroke-width="2" fill="none" stroke="rgb(0, 0, 0)" stroke-opacity="1.0" stroke-linecap="round" stroke-linejoin="round"/>
    <path d="M 141.15634155273438 107.72389221191406 C 155.83206176757812 80.11029815673828 175.44898986816406 136.44992065429688 181.56121826171875 64.3714599609375" stroke-width="2" fill="none" stroke="rgb(0, 0, 0)" stroke-opacity="1.0" stroke-linecap="round" stroke-linejoin="round"/>
    <path d="M 173.1543426513672 120.82766723632812 C 147.5337677001953 134.1521759033203 199.2957763671875 112.2756118774414 151.2877960205078 115.72416687011719" stroke-width="2" fill="none" stroke="rgb(0, 0, 0)" stroke-opacity="1.0" stroke-linecap="round" stroke-linejoin="round"/>
  </g>
</svg>
