<?xml version="1.0" ?>
<svg xmlns="http://www.w3.org/2000/svg" version="1.1" width="224" height="224">
  <defs/>
  <g>
    <path d="M 60.23231887817383 145.5003662109375 C 13.312996864318848 135.7892608642578 93.93614959716797 59.03333282470703 108.0550765991211 109.45841979980469" stroke-width="2" fill="none" stroke="rgb(0, 0, 0)" stroke-opacity="1.0" stroke-linecap="round" stroke-linejoin="round"/>
    <path d="M 145.7752685546875 135.8821258544922 C 151.8316192626953 135.64932250976562 23.885013580322266 106.69783782958984 138.86196899414062 118.90084075927734" stroke-width="2" fill="none" stroke="rgb(0, 0, 0)" stroke-opacity="1.0" stroke-linecap="round" stroke-linejoin="round"/>
    <path d="M 48.426551818847656 139.21475219726562 C 14.17292594909668 141.78968811035156 235.0674285888672 188.50856018066406 159.36097717285156 114.16812133789062" stroke-width="2" fill="none" stroke="rgb(0, 0, 0)" stroke-opacity="1.0" stroke-linecap="round" stroke-linejoin="round"/>
    <path d="M 152.18307495117188 120.55812072753906 C 178.92823791503906 112.601806640625 130.09898376464844 106.01001739501953 163.84059143066406 108.39102172851562" stroke-width="2" fill="none" stroke="rgb(0, 0, 0)" stroke-opacity="1.0" stroke-linecap="round" stroke-linejoin="round"/>
    <path d="M 95.03472137451172 71.7243881225586 C 111.19735717773438 84.80841064453125 111.02359008789062 58.893680572509766 130.56141662597656 90.47911071777344" stroke-width="2" fill="none" stroke="rgb(0, 0, 0)" stroke-opacity="1.0" stroke-linecap="round" stroke-linejoin="round"/>
    <path d="M 107.09394073486328 79.26261138916016 C 87.5712890625 90.33056640625 109.94286346435547 95.94945526123047 96.39618682861328 73.04059600830078" stroke-width="2" fill="none" stroke="rgb(0, 0, 0)" stroke-opacity="1.0" stroke-linecap="round" stroke-linejoin="round"/>
    <path d="M 143.96319580078125 125.16060638427734 C 106.5202865600586 116.37702941894531 199.29685974121094 133.25596618652344 79.99127960205078 104.73211669921875" stroke-width="2" fill="none" stroke="rgb(0, 0, 0)" stroke-opacity="1.0" stroke-linecap="round" stroke-linejoin="round"/>
    <path d="M 52.055843353271484 145.94467163085938 C 186.03248596191406 173.0679473876953 -1.104474663734436 138.3401336669922 56.56829071044922 108.02737426757812" stroke-width="2" fill="none" stroke="rgb(0, 0, 0)" stroke-opacity="1.0" stroke-linecap="round" stroke-linejoin="round"/>
    <path d="M 154.72703552246094 131.95619201660156 C 88.86516571044922 124.41320037841797 195.6657257080078 139.22215270996094 133.37417602539062 130.32301330566406" stroke-width="2" fill="none" stroke="rgb(0, 0, 0)" stroke-opacity="1.0" stroke-linecap="round" stroke-linejoin="round"/>
    <path d="M 109.8370361328125 118.6218032836914 C 158.27769470214844 104.32148742675781 86.00796508789062 104.26299285888672 154.0113525390625 135.62216186523438" stroke-width="2" fill="none" stroke="rgb(0, 0, 0)" stroke-opacity="1.0" stroke-linecap="round" stroke-linejoin="round"/>
    <path d="M 177.06434631347656 87.35167694091797 C 192.40902709960938 16.837923049926758 169.8291778564453 116.65144348144531 125.8072738647461 84.57465362548828" stroke-width="2" fill="none" stroke="rgb(0, 0, 0)" stroke-opacity="1.0" stroke-linecap="round" stroke-linejoin="round"/>
    <path d="M 173.69192504882812 153.13385009765625 C 196.01150512695312 133.60284423828125 100.26823425292969 170.49070739746094 118.20584106445312 114.049560546875" stroke-width="2" fill="none" stroke="rgb(0, 0, 0)" stroke-opacity="1.0" stroke-linecap="round" stroke-linejoin="round"/>
    <path d="M 110.82246398925781 136.9498748779297 C -5.33211612701416 109.61013793945312 169.1044464111328 173.67843627929688 147.42823791503906 150.62815856933594" stroke-width="2" fill="none" stroke="rgb(0, 0, 0)" stroke-opacity="1.0" stroke-linecap="round" stroke-linejoin="round"/>
    <path d="M 164.1533966064453 133.30105590820312 C 137.8545379638672 104.87115478515625 178.85264587402344 135.6663360595703 175.09756469726562 132.75169372558594" stroke-width="2" fill="none" stroke="rgb(0, 0, 0)" stroke-opacity="1.0" stroke-linecap="round" stroke-linejoin="round"/>
    <path d="M 164.08555603027344 112.39153289794922 C 109.15680694580078 100.3167495727539 165.14767456054688 134.06851196289062 173.328857421875 73.15631866455078" stroke-width="2" fill="none" stroke="rgb(0, 0, 0)" stroke-opacity="1.0" stroke-linecap="round" stroke-linejoin="round"/>
    <path d="M 153.0572052001953 129.56654357910156 C 165.78713989257812 125.24102020263672 180.04937744140625 86.1975326538086 147.57998657226562 89.96861267089844" stroke-width="2" fill="none" stroke="rgb(0, 0, 0)" stroke-opacity="1.0" stroke-linecap="round" stroke-linejoin="round"/>
  </g>
</svg>
