<?xml version="1.0" ?>
<svg xmlns="http://www.w3.org/2000/svg" version="1.1" width="224" height="224">
  <defs/>
  <g>
    <path d="M 62.97124099731445 140.86312866210938 C 1.3896442651748657 120.97119903564453 105.06090545654297 59.54256820678711 118.19406127929688 125.81758117675781" stroke-width="2" fill="none" stroke="rgb(0, 0, 0)" stroke-opacity="1.0" stroke-linecap="round" stroke-linejoin="round"/>
    <path d="M 162.78273010253906 140.71202087402344 C 191.08441162109375 145.96835327148438 74.6176986694336 147.79917907714844 142.1048583984375 117.22517395019531" stroke-width="2" fill="none" stroke="rgb(0, 0, 0)" stroke-opacity="1.0" stroke-linecap="round" stroke-linejoin="round"/>
    <path d="M 80.9775390625 140.03271484375 C 19.18092155456543 126.19635772705078 246.5421142578125 194.2126007080078 163.63499450683594 107.55034637451172" stroke-width="2" fill="none" stroke="rgb(0, 0, 0)" stroke-opacity="1.0" stroke-linecap="round" stroke-linejoin="round"/>
    <path d="M 130.3999481201172 95.91236877441406 C 182.50213623046875 105.42855834960938 111.95557403564453 107.66597747802734 168.4791717529297 104.5290298461914" stroke-width="2" fill="none" stroke="rgb(0, 0, 0)" stroke-opacity="1.0" stroke-linecap="round" stroke-linejoin="round"/>
    <path d="M 107.97535705566406 69.84909057617188 C 114.04696655273438 90.91961669921875 123.93677520751953 57.46281051635742 136.8814239501953 97.017578125" stroke-width="2" fill="none" stroke="rgb(0, 0, 0)" stroke-opacity="1.0" stroke-linecap="round" stroke-linejoin="round"/>
    <path d="M 113.28479766845703 94.65603637695312 C 86.35276794433594 100.8051528930664 110.16935729980469 132.97421264648438 111.40978240966797 77.06375885009766" stroke-width="2" fill="none" stroke="rgb(0, 0, 0)" stroke-opacity="1.0" stroke-linecap="round" stroke-linejoin="round"/>
    <path d="M 133.65176391601562 126.02385711669922 C 112.59149932861328 95.09331512451172 187.9338836669922 122.0377426147461 97.42671203613281 121.91320037841797" stroke-width="2" fill="none" stroke="rgb(0, 0, 0)" stroke-opacity="1.0" stroke-linecap="round" stroke-linejoin="round"/>
    <path d="M 124.52600860595703 155.99095153808594 C 156.16156005859375 157.61679077148438 9.651487350463867 163.6297607421875 47.714500427246094 114.51524353027344" stroke-width="2" fill="none" stroke="rgb(0, 0, 0)" stroke-opacity="1.0" stroke-linecap="round" stroke-linejoin="round"/>
    <path d="M 164.76531982421875 119.7862319946289 C 130.2236328125 137.24559020996094 183.2654571533203 124.26272583007812 150.70516967773438 125.82498931884766" stroke-width="2" fill="none" stroke="rgb(0, 0, 0)" stroke-opacity="1.0" stroke-linecap="round" stroke-linejoin="round"/>
    <path d="M 117.4216079711914 125.24769592285156 C 211.59727478027344 133.0607452392578 119.34932708740234 118.8321304321289 167.56382751464844 115.564453125" stroke-width="2" fill="none" stroke="rgb(0, 0, 0)" stroke-opacity="1.0" stroke-linecap="round" stroke-linejoin="round"/>
    <path d="M 173.76483154296875 73.57865905761719 C 202.04310607910156 28.450407028198242 170.46482849121094 101.07454681396484 140.46023559570312 82.20677185058594" stroke-width="2" fill="none" stroke="rgb(0, 0, 0)" stroke-opacity="1.0" stroke-linecap="round" stroke-linejoin="round"/>
    <path d="M 130.2632293701172 157.25723266601562 C 190.2717742919922 155.44015502929688 84.3973159790039 115.93130493164062 115.19056701660156 132.79966735839844" stroke-width="2" fill="none" stroke="rgb(0, 0, 0)" stroke-opacity="1.0" stroke-linecap="round" stroke-linejoin="round"/>
    <path d="M 78.11849975585938 158.66864013671875 C -31.546430587768555 122.25613403320312 174.0073699951172 154.06402587890625 171.64498901367188 149.7476806640625" stroke-width="2" fill="none" stroke="rgb(0, 0, 0)" stroke-opacity="1.0" stroke-linecap="round" stroke-linejoin="round"/>
    <path d="M 145.6231689453125 133.0703125 C 127.43177032470703 132.39402770996094 188.6529998779297 143.5915985107422 172.4121856689453 108.59842681884766" stroke-width="2" fill="none" stroke="rgb(0, 0, 0)" stroke-opacity="1.0" stroke-linecap="round" stroke-linejoin="round"/>
    <path d="M 160.2824249267578 117.50437927246094 C 127.84806823730469 111.65057373046875 176.09959411621094 145.0406951904297 186.97438049316406 65.61662292480469" stroke-width="2" fill="none" stroke="rgb(0, 0, 0)" stroke-opacity="1.0" stroke-linecap="round" stroke-linejoin="round"/>
    <path d="M 173.0091552734375 148.9687042236328 C 152.28341674804688 142.38055419921875 204.4037628173828 70.2168197631836 153.066162109375 89.36034393310547" stroke-width="2" fill="none" stroke="rgb(0, 0, 0)" stroke-opacity="1.0" stroke-linecap="round" stroke-linejoin="round"/>
  </g>
</svg>
