<?xml version="1.0" ?>
<svg xmlns="http://www.w3.org/2000/svg" version="1.1" width="224" height="224">
  <defs/>
  <g>
    <path d="M 82.20297241210938 145.92034912109375 C -20.437816619873047 129.31356811523438 110.6147689819336 59.358516693115234 112.17960357666016 129.0710906982422" stroke-width="2" fill="none" stroke="rgb(0, 0, 0)" stroke-opacity="1.0" stroke-linecap="round" stroke-linejoin="round"/>
    <path d="M 112.2451400756836 154.24720764160156 C 194.2739715576172 166.08738708496094 46.38947296142578 157.6658935546875 120.68588256835938 106.50018310546875" stroke-width="2" fill="none" stroke="rgb(0, 0, 0)" stroke-opacity="1.0" stroke-linecap="round" stroke-linejoin="round"/>
    <path d="M 131.4070281982422 149.1964111328125 C 52.97182083129883 143.54916381835938 209.27346801757812 161.5564422607422 163.41339111328125 139.55441284179688" stroke-width="2" fill="none" stroke="rgb(0, 0, 0)" stroke-opacity="1.0" stroke-linecap="round" stroke-linejoin="round"/>
    <path d="M 114.52195739746094 107.0512466430664 C 150.36077880859375 114.79924011230469 96.73187255859375 127.58094024658203 145.11814880371094 112.87269592285156" stroke-width="2" fill="none" stroke="rgb(0, 0, 0)" stroke-opacity="1.0" stroke-linecap="round" stroke-linejoin="round"/>
    <path d="M 103.476318359375 69.39031982421875 C 119.04463195800781 107.10525512695312 138.42724609375 64.33393096923828 155.79087829589844 95.31440734863281" stroke-width="2" fill="none" stroke="rgb(0, 0, 0)" stroke-opacity="1.0" stroke-linecap="round" stroke-linejoin="round"/>
    <path d="M 80.83011627197266 119.72726440429688 C 8.221001625061035 106.58394622802734 106.28885650634766 130.56275939941406 68.5471420288086 120.87859344482422" stroke-width="2" fill="none" stroke="rgb(0, 0, 0)" stroke-opacity="1.0" stroke-linecap="round" stroke-linejoin="round"/>
    <path d="M 108.28278350830078 81.69706726074219 C 84.3182373046875 52.82545471191406 115.22991180419922 107.36763763427734 92.23892211914062 111.22793579101562" stroke-width="2" fill="none" stroke="rgb(0, 0, 0)" stroke-opacity="1.0" stroke-linecap="round" stroke-linejoin="round"/>
    <path d="M 132.06309509277344 153.4354705810547 C 123.9002914428711 154.67282104492188 -2.1947474479675293 169.1248321533203 53.62984848022461 107.81906127929688" stroke-width="2" fill="none" stroke="rgb(0, 0, 0)" stroke-opacity="1.0" stroke-linecap="round" stroke-linejoin="round"/>
    <path d="M 146.3819122314453 110.26618957519531 C 101.80215454101562 141.62020874023438 175.2802276611328 125.15878295898438 153.93275451660156 133.9388885498047" stroke-width="2" fill="none" stroke="rgb(0, 0, 0)" stroke-opacity="1.0" stroke-linecap="round" stroke-linejoin="round"/>
    <path d="M 126.15583801269531 117.9130859375 C 204.00155639648438 110.70589447021484 123.68385314941406 133.53648376464844 152.6608123779297 121.41165924072266" stroke-width="2" fill="none" stroke="rgb(0, 0, 0)" stroke-opacity="1.0" stroke-linecap="round" stroke-linejoin="round"/>
    <path d="M 185.0721435546875 69.65545654296875 C 188.02793884277344 52.74993133544922 160.51332092285156 96.97267150878906 146.6265411376953 88.5320053100586" stroke-width="2" fill="none" stroke="rgb(0, 0, 0)" stroke-opacity="1.0" stroke-linecap="round" stroke-linejoin="round"/>
    <path d="M 170.02774047851562 138.3539276123047 C 152.1537322998047 152.56295776367188 23.96700096130371 112.49332427978516 51.98366928100586 136.42623901367188" stroke-width="2" fill="none" stroke="rgb(0, 0, 0)" stroke-opacity="1.0" stroke-linecap="round" stroke-linejoin="round"/>
    <path d="M 131.8216094970703 151.4737548828125 C -20.385881423950195 115.26219177246094 219.82391357421875 186.7221221923828 164.97988891601562 130.9841766357422" stroke-width="2" fill="none" stroke="rgb(0, 0, 0)" stroke-opacity="1.0" stroke-linecap="round" stroke-linejoin="round"/>
    <path d="M 109.81205749511719 111.77180480957031 C 162.3875274658203 98.59980010986328 143.63804626464844 144.04196166992188 167.9729461669922 114.23204803466797" stroke-width="2" fill="none" stroke="rgb(0, 0, 0)" stroke-opacity="1.0" stroke-linecap="round" stroke-linejoin="round"/>
    <path d="M 164.0272979736328 126.3543701171875 C 140.42401123046875 84.27455139160156 169.61453247070312 136.42092895507812 180.30726623535156 72.26470947265625" stroke-width="2" fill="none" stroke="rgb(0, 0, 0)" stroke-opacity="1.0" stroke-linecap="round" stroke-linejoin="round"/>
    <path d="M 154.83741760253906 133.0493927001953 C 120.50281524658203 148.8204345703125 208.47743225097656 101.85919189453125 144.2041473388672 96.48426055908203" stroke-width="2" fill="none" stroke="rgb(0, 0, 0)" stroke-opacity="1.0" stroke-linecap="round" stroke-linejoin="round"/>
  </g>
</svg>
