<?xml version="1.0" ?>
<svg xmlns="http://www.w3.org/2000/svg" version="1.1" width="224" height="224">
  <defs/>
  <g>
    <path d="M 140.8630828857422 139.1688232421875 C 68.66619873046875 136.17514038085938 62.889625549316406 142.8266143798828 47.70438003540039 119.3664779663086" stroke-width="2" fill="none" stroke="rgb(0, 0, 0)" stroke-opacity="1.0" stroke-linecap="round" stroke-linejoin="round"/>
    <path d="M 62.44964599609375 103.66421508789062 C 169.97616577148438 98.68182373046875 74.1865463256836 144.67869567871094 152.66400146484375 138.83590698242188" stroke-width="2" fill="none" stroke="rgb(0, 0, 0)" stroke-opacity="1.0" stroke-linecap="round" stroke-linejoin="round"/>
    <path d="M 56.48176574707031 109.882568359375 C -27.334476470947266 172.6983642578125 230.5804443359375 151.1605682373047 153.14210510253906 155.69525146484375" stroke-width="2" fill="none" stroke="rgb(0, 0, 0)" stroke-opacity="1.0" stroke-linecap="round" stroke-linejoin="round"/>
    <path d="M 114.97655487060547 115.49252319335938 C 212.47618103027344 111.35559844970703 128.8826904296875 92.94072723388672 171.16258239746094 96.16836547851562" stroke-width="2" fill="none" stroke="rgb(0, 0, 0)" stroke-opacity="1.0" stroke-linecap="round" stroke-linejoin="round"/>
    <path d="M 106.29327392578125 69.467529296875 C 137.8966064453125 102.34907531738281 133.43719482421875 66.72823333740234 154.8257293701172 90.20758819580078" stroke-width="2" fill="none" stroke="rgb(0, 0, 0)" stroke-opacity="1.0" stroke-linecap="round" stroke-linejoin="round"/>
    <path d="M 103.10635375976562 100.6634292602539 C 147.7772216796875 73.15428161621094 67.69564056396484 115.17655944824219 139.54298400878906 118.42106628417969" stroke-width="2" fill="none" stroke="rgb(0, 0, 0)" stroke-opacity="1.0" stroke-linecap="round" stroke-linejoin="round"/>
    <path d="M 81.95402526855469 127.20082092285156 C 94.76089477539062 110.18740844726562 57.67108917236328 117.9161376953125 120.07738494873047 147.9282989501953" stroke-width="2" fill="none" stroke="rgb(0, 0, 0)" stroke-opacity="1.0" stroke-linecap="round" stroke-linejoin="round"/>
    <path d="M 97.3311767578125 84.79193878173828 C 110.1780776977539 125.9006118774414 40.068016052246094 70.42342376708984 46.92889404296875 143.59957885742188" stroke-width="2" fill="none" stroke="rgb(0, 0, 0)" stroke-opacity="1.0" stroke-linecap="round" stroke-linejoin="round"/>
    <path d="M 152.1137237548828 127.19232940673828 C 129.10269165039062 131.49673461914062 206.9412078857422 131.14781188964844 126.38629913330078 108.24342346191406" stroke-width="2" fill="none" stroke="rgb(0, 0, 0)" stroke-opacity="1.0" stroke-linecap="round" stroke-linejoin="round"/>
    <path d="M 136.38528442382812 155.0177001953125 C 220.1688995361328 154.33203125 141.65731811523438 136.63674926757812 173.609619140625 113.0238265991211" stroke-width="2" fill="none" stroke="rgb(0, 0, 0)" stroke-opacity="1.0" stroke-linecap="round" stroke-linejoin="round"/>
    <path d="M 170.66859436035156 104.90887451171875 C 214.4265594482422 19.63905906677246 161.20819091796875 93.80496978759766 154.4636993408203 83.24151611328125" stroke-width="2" fill="none" stroke="rgb(0, 0, 0)" stroke-opacity="1.0" stroke-linecap="round" stroke-linejoin="round"/>
    <path d="M 111.43840026855469 99.53821563720703 C 112.89257049560547 54.11103057861328 84.3133544921875 104.65714263916016 98.16011047363281 73.15609741210938" stroke-width="2" fill="none" stroke="rgb(0, 0, 0)" stroke-opacity="1.0" stroke-linecap="round" stroke-linejoin="round"/>
    <path d="M 90.88148498535156 146.9215087890625 C -7.117560386657715 120.04012298583984 68.48017883300781 160.93563842773438 87.69811248779297 161.493408203125" stroke-width="2" fill="none" stroke="rgb(0, 0, 0)" stroke-opacity="1.0" stroke-linecap="round" stroke-linejoin="round"/>
    <path d="M 65.18404388427734 129.7428436279297 C 24.741153717041016 123.19049835205078 172.6737060546875 191.6762237548828 174.25750732421875 132.09852600097656" stroke-width="2" fill="none" stroke="rgb(0, 0, 0)" stroke-opacity="1.0" stroke-linecap="round" stroke-linejoin="round"/>
    <path d="M 126.5707778930664 117.15007781982422 C 173.87306213378906 105.32162475585938 119.27934265136719 103.5225830078125 161.30270385742188 116.20403289794922" stroke-width="2" fill="none" stroke="rgb(0, 0, 0)" stroke-opacity="1.0" stroke-linecap="round" stroke-linejoin="round"/>
    <path d="M 159.61012268066406 119.5606918334961 C 84.26667785644531 122.25794219970703 171.96942138671875 135.20053100585938 125.52902221679688 110.18405151367188" stroke-width="2" fill="none" stroke="rgb(0, 0, 0)" stroke-opacity="1.0" stroke-linecap="round" stroke-linejoin="round"/>
  </g>
</svg>
