<?xml version="1.0" ?>
<svg xmlns="http://www.w3.org/2000/svg" version="1.1" width="224" height="224">
  <defs/>
  <g>
    <path d="M 116.72903442382812 156.5879364013672 C 25.422801971435547 148.47462463378906 53.092777252197266 137.1945037841797 71.44811248779297 146.21347045898438" stroke-width="2" fill="none" stroke="rgb(0, 0, 0)" stroke-opacity="1.0" stroke-linecap="round" stroke-linejoin="round"/>
    <path d="M 80.0750503540039 103.86168670654297 C 144.0977020263672 103.24714660644531 57.715763092041016 128.4681854248047 149.51148986816406 118.12845611572266" stroke-width="2" fill="none" stroke="rgb(0, 0, 0)" stroke-opacity="1.0" stroke-linecap="round" stroke-linejoin="round"/>
    <path d="M 40.26369857788086 121.4736328125 C 2.277848958969116 152.89024353027344 247.94354248046875 191.43434143066406 152.71820068359375 101.94114685058594" stroke-width="2" fill="none" stroke="rgb(0, 0, 0)" stroke-opacity="1.0" stroke-linecap="round" stroke-linejoin="round"/>
    <path d="M 133.82638549804688 120.43739318847656 C 189.51309204101562 105.40904235839844 97.81442260742188 107.47881317138672 160.7225341796875 117.05890655517578" stroke-width="2" fill="none" stroke="rgb(0, 0, 0)" stroke-opacity="1.0" stroke-linecap="round" stroke-linejoin="round"/>
    <path d="M 101.9532241821289 77.05909729003906 C 136.7045440673828 107.03253173828125 132.4642791748047 74.81959533691406 153.95652770996094 92.04144287109375" stroke-width="2" fill="none" stroke="rgb(0, 0, 0)" stroke-opacity="1.0" stroke-linecap="round" stroke-linejoin="round"/>
    <path d="M 114.18789672851562 113.8722152709961 C 138.27536010742188 118.12382507324219 90.42672729492188 105.7123794555664 120.58100891113281 88.43229675292969" stroke-width="2" fill="none" stroke="rgb(0, 0, 0)" stroke-opacity="1.0" stroke-linecap="round" stroke-linejoin="round"/>
    <path d="M 117.64615631103516 126.44732666015625 C 155.19125366210938 100.2629165649414 153.41529846191406 156.04684448242188 98.74114990234375 125.24727630615234" stroke-width="2" fill="none" stroke="rgb(0, 0, 0)" stroke-opacity="1.0" stroke-linecap="round" stroke-linejoin="round"/>
    <path d="M 104.94439697265625 68.35043334960938 C 127.98072052001953 127.18807220458984 38.5618782043457 58.55508804321289 52.229469299316406 138.20408630371094" stroke-width="2" fill="none" stroke="rgb(0, 0, 0)" stroke-opacity="1.0" stroke-linecap="round" stroke-linejoin="round"/>
    <path d="M 160.88340759277344 129.56509399414062 C 128.0525360107422 128.9843292236328 193.5672607421875 87.2791976928711 161.20802307128906 126.00862121582031" stroke-width="2" fill="none" stroke="rgb(0, 0, 0)" stroke-opacity="1.0" stroke-linecap="round" stroke-linejoin="round"/>
    <path d="M 69.73802947998047 143.01351928710938 C 238.66299438476562 159.47679138183594 126.2737045288086 123.83524322509766 135.50634765625 127.53034210205078" stroke-width="2" fill="none" stroke="rgb(0, 0, 0)" stroke-opacity="1.0" stroke-linecap="round" stroke-linejoin="round"/>
    <path d="M 166.17434692382812 113.21603393554688 C 208.57183837890625 17.002168655395508 157.35189819335938 94.1507568359375 157.05258178710938 85.82192993164062" stroke-width="2" fill="none" stroke="rgb(0, 0, 0)" stroke-opacity="1.0" stroke-linecap="round" stroke-linejoin="round"/>
    <path d="M 110.04893493652344 103.2834701538086 C 123.46173095703125 75.77578735351562 78.42971801757812 112.97544860839844 92.37714385986328 104.76210021972656" stroke-width="2" fill="none" stroke="rgb(0, 0, 0)" stroke-opacity="1.0" stroke-linecap="round" stroke-linejoin="round"/>
    <path d="M 89.67826080322266 135.57601928710938 C 43.936988830566406 112.305419921875 102.8273696899414 145.7108154296875 170.66693115234375 136.14871215820312" stroke-width="2" fill="none" stroke="rgb(0, 0, 0)" stroke-opacity="1.0" stroke-linecap="round" stroke-linejoin="round"/>
    <path d="M 151.2989501953125 136.41697692871094 C 94.09197235107422 129.44451904296875 218.70164489746094 142.3943634033203 123.38935852050781 133.6536407470703" stroke-width="2" fill="none" stroke="rgb(0, 0, 0)" stroke-opacity="1.0" stroke-linecap="round" stroke-linejoin="round"/>
    <path d="M 169.09141540527344 110.4105453491211 C 142.3374481201172 110.09367370605469 187.7793731689453 127.02700805664062 131.32359313964844 119.17137908935547" stroke-width="2" fill="none" stroke="rgb(0, 0, 0)" stroke-opacity="1.0" stroke-linecap="round" stroke-linejoin="round"/>
    <path d="M 110.99959564208984 119.28321075439453 C 186.17868041992188 184.61122131347656 172.88623046875 120.46845245361328 176.00099182128906 147.96212768554688" stroke-width="2" fill="none" stroke="rgb(0, 0, 0)" stroke-opacity="1.0" stroke-linecap="round" stroke-linejoin="round"/>
  </g>
</svg>
