<?xml version="1.0" ?>
<svg xmlns="http://www.w3.org/2000/svg" version="1.1" width="224" height="224">
  <defs/>
  <g>
    <path d="M 139.92068481445312 132.89022827148438 C 73.44391632080078 134.9794464111328 70.83905029296875 138.71917724609375 51.4687614440918 115.74919128417969" stroke-width="2" fill="none" stroke="rgb(0, 0, 0)" stroke-opacity="1.0" stroke-linecap="round" stroke-linejoin="round"/>
    <path d="M 62.23605728149414 104.70936584472656 C 166.18284606933594 96.3272476196289 67.09664916992188 144.41961669921875 153.09901428222656 148.98289489746094" stroke-width="2" fill="none" stroke="rgb(0, 0, 0)" stroke-opacity="1.0" stroke-linecap="round" stroke-linejoin="round"/>
    <path d="M 62.283607482910156 106.33206939697266 C -19.650842666625977 169.510009765625 233.2477264404297 148.15594482421875 153.99050903320312 153.16624450683594" stroke-width="2" fill="none" stroke="rgb(0, 0, 0)" stroke-opacity="1.0" stroke-linecap="round" stroke-linejoin="round"/>
    <path d="M 112.23738098144531 122.19463348388672 C 208.13275146484375 117.19050598144531 124.011474609375 92.41468048095703 170.3791961669922 96.0985336303711" stroke-width="2" fill="none" stroke="rgb(0, 0, 0)" stroke-opacity="1.0" stroke-linecap="round" stroke-linejoin="round"/>
    <path d="M 104.31219482421875 69.76355743408203 C 135.41552734375 101.68829345703125 133.7052001953125 62.649681091308594 159.33795166015625 90.19754028320312" stroke-width="2" fill="none" stroke="rgb(0, 0, 0)" stroke-opacity="1.0" stroke-linecap="round" stroke-linejoin="round"/>
    <path d="M 102.63031768798828 94.46498107910156 C 136.16123962402344 66.8687744140625 63.542396545410156 115.20633697509766 130.45115661621094 111.5969009399414" stroke-width="2" fill="none" stroke="rgb(0, 0, 0)" stroke-opacity="1.0" stroke-linecap="round" stroke-linejoin="round"/>
    <path d="M 81.08336639404297 126.22303771972656 C 94.50790405273438 118.96426391601562 54.85890579223633 119.01885986328125 129.01185607910156 144.19802856445312" stroke-width="2" fill="none" stroke="rgb(0, 0, 0)" stroke-opacity="1.0" stroke-linecap="round" stroke-linejoin="round"/>
    <path d="M 94.68151092529297 80.76519775390625 C 102.85366821289062 124.05713653564453 35.45676803588867 61.797035217285156 46.613319396972656 137.96998596191406" stroke-width="2" fill="none" stroke="rgb(0, 0, 0)" stroke-opacity="1.0" stroke-linecap="round" stroke-linejoin="round"/>
    <path d="M 157.82809448242188 118.27200317382812 C 123.93502044677734 138.86572265625 204.40003967285156 130.67613220214844 118.6705551147461 120.1971206665039" stroke-width="2" fill="none" stroke="rgb(0, 0, 0)" stroke-opacity="1.0" stroke-linecap="round" stroke-linejoin="round"/>
    <path d="M 133.86317443847656 154.30999755859375 C 216.8273162841797 157.40248107910156 146.37803649902344 131.4445037841797 168.04847717285156 105.76292419433594" stroke-width="2" fill="none" stroke="rgb(0, 0, 0)" stroke-opacity="1.0" stroke-linecap="round" stroke-linejoin="round"/>
    <path d="M 169.2419891357422 97.64480590820312 C 206.62123107910156 21.05600929260254 159.7064208984375 95.20415496826172 152.38705444335938 80.96593475341797" stroke-width="2" fill="none" stroke="rgb(0, 0, 0)" stroke-opacity="1.0" stroke-linecap="round" stroke-linejoin="round"/>
    <path d="M 106.53841400146484 104.5835189819336 C 107.9078369140625 51.23851776123047 83.37420654296875 100.31660461425781 103.02029418945312 77.47551727294922" stroke-width="2" fill="none" stroke="rgb(0, 0, 0)" stroke-opacity="1.0" stroke-linecap="round" stroke-linejoin="round"/>
    <path d="M 95.55264282226562 146.9678955078125 C -0.9012220501899719 123.86481475830078 70.73072814941406 162.73416137695312 83.28124237060547 161.22303771972656" stroke-width="2" fill="none" stroke="rgb(0, 0, 0)" stroke-opacity="1.0" stroke-linecap="round" stroke-linejoin="round"/>
    <path d="M 63.609867095947266 129.5819091796875 C 31.892108917236328 120.04584503173828 175.0648651123047 188.91348266601562 169.51747131347656 133.3251953125" stroke-width="2" fill="none" stroke="rgb(0, 0, 0)" stroke-opacity="1.0" stroke-linecap="round" stroke-linejoin="round"/>
    <path d="M 129.6984100341797 123.48045349121094 C 168.40310668945312 111.56858825683594 114.52879333496094 107.47012329101562 159.62599182128906 121.6246109008789" stroke-width="2" fill="none" stroke="rgb(0, 0, 0)" stroke-opacity="1.0" stroke-linecap="round" stroke-linejoin="round"/>
    <path d="M 160.86151123046875 122.40827178955078 C 85.54661560058594 126.80850219726562 158.9831085205078 138.59423828125 121.27406311035156 112.2837142944336" stroke-width="2" fill="none" stroke="rgb(0, 0, 0)" stroke-opacity="1.0" stroke-linecap="round" stroke-linejoin="round"/>
  </g>
</svg>
