<?xml version="1.0" ?>
<svg xmlns="http://www.w3.org/2000/svg" version="1.1" width="224" height="224">
  <defs/>
  <g>
    <path d="M 108.37287902832031 156.45306396484375 C -2.896677017211914 160.75645446777344 69.11266326904297 81.32698059082031 81.48714447021484 102.25544738769531" stroke-width="2" fill="none" stroke="rgb(0, 0, 0)" stroke-opacity="1.0" stroke-linecap="round" stroke-linejoin="round"/>
    <path d="M 119.02719116210938 121.06782531738281 C 164.27757263183594 114.60814666748047 74.07049560546875 131.504638671875 138.40223693847656 128.66258239746094" stroke-width="2" fill="none" stroke="rgb(0, 0, 0)" stroke-opacity="1.0" stroke-linecap="round" stroke-linejoin="round"/>
    <path d="M 63.12372589111328 99.41825866699219 C -1.0151982307434082 153.63394165039062 248.49075317382812 183.93211364746094 146.63186645507812 117.75040435791016" stroke-width="2" fill="none" stroke="rgb(0, 0, 0)" stroke-opacity="1.0" stroke-linecap="round" stroke-linejoin="round"/>
    <path d="M 149.484619140625 125.00875091552734 C 191.91336059570312 126.84707641601562 126.0273666381836 104.1330795288086 154.1201171875 121.59701538085938" stroke-width="2" fill="none" stroke="rgb(0, 0, 0)" stroke-opacity="1.0" stroke-linecap="round" stroke-linejoin="round"/>
    <path d="M 111.26950073242188 77.30291748046875 C 112.83102416992188 103.24923706054688 137.9459991455078 74.35546875 136.7545623779297 108.68179321289062" stroke-width="2" fill="none" stroke="rgb(0, 0, 0)" stroke-opacity="1.0" stroke-linecap="round" stroke-linejoin="round"/>
    <path d="M 125.79411315917969 131.42005920410156 C 161.4305877685547 98.8766860961914 107.93035125732422 127.9896240234375 114.45294952392578 114.21613311767578" stroke-width="2" fill="none" stroke="rgb(0, 0, 0)" stroke-opacity="1.0" stroke-linecap="round" stroke-linejoin="round"/>
    <path d="M 105.30323028564453 112.85253143310547 C 56.08953857421875 109.63021850585938 121.33236694335938 112.86103057861328 71.2582778930664 99.4659423828125" stroke-width="2" fill="none" stroke="rgb(0, 0, 0)" stroke-opacity="1.0" stroke-linecap="round" stroke-linejoin="round"/>
    <path d="M 98.11891174316406 70.44798278808594 C 130.9535675048828 121.156005859375 47.56577682495117 65.23072814941406 52.04979705810547 126.90816497802734" stroke-width="2" fill="none" stroke="rgb(0, 0, 0)" stroke-opacity="1.0" stroke-linecap="round" stroke-linejoin="round"/>
    <path d="M 144.6676483154297 140.37335205078125 C 74.10810852050781 159.97154235839844 133.96070861816406 99.4066162109375 97.56904602050781 123.70327758789062" stroke-width="2" fill="none" stroke="rgb(0, 0, 0)" stroke-opacity="1.0" stroke-linecap="round" stroke-linejoin="round"/>
    <path d="M 122.87002563476562 113.34646606445312 C 146.1962890625 126.01347351074219 78.64168548583984 113.95184326171875 130.190673828125 130.04957580566406" stroke-width="2" fill="none" stroke="rgb(0, 0, 0)" stroke-opacity="1.0" stroke-linecap="round" stroke-linejoin="round"/>
    <path d="M 170.96133422851562 124.36058044433594 C 204.81082153320312 4.29008150100708 167.6106414794922 111.57770538330078 137.20738220214844 96.1021957397461" stroke-width="2" fill="none" stroke="rgb(0, 0, 0)" stroke-opacity="1.0" stroke-linecap="round" stroke-linejoin="round"/>
    <path d="M 163.6844482421875 104.51889038085938 C 215.28024291992188 165.89361572265625 69.16636657714844 140.65399169921875 112.84883117675781 90.05061340332031" stroke-width="2" fill="none" stroke="rgb(0, 0, 0)" stroke-opacity="1.0" stroke-linecap="round" stroke-linejoin="round"/>
    <path d="M 76.78126525878906 149.31849670410156 C 25.526805877685547 131.73207092285156 82.92321014404297 157.5193328857422 131.4683837890625 155.43775939941406" stroke-width="2" fill="none" stroke="rgb(0, 0, 0)" stroke-opacity="1.0" stroke-linecap="round" stroke-linejoin="round"/>
    <path d="M 165.8260498046875 151.00350952148438 C 101.4176025390625 152.57901000976562 125.52010345458984 149.36911010742188 145.03445434570312 138.50985717773438" stroke-width="2" fill="none" stroke="rgb(0, 0, 0)" stroke-opacity="1.0" stroke-linecap="round" stroke-linejoin="round"/>
    <path d="M 181.15206909179688 98.8395004272461 C 183.14364624023438 70.86400604248047 164.3915557861328 129.184326171875 154.44589233398438 98.74652099609375" stroke-width="2" fill="none" stroke="rgb(0, 0, 0)" stroke-opacity="1.0" stroke-linecap="round" stroke-linejoin="round"/>
    <path d="M 64.92171478271484 138.33372497558594 C 154.8836212158203 148.60931396484375 136.70547485351562 125.04478454589844 146.48890686035156 140.1826934814453" stroke-width="2" fill="none" stroke="rgb(0, 0, 0)" stroke-opacity="1.0" stroke-linecap="round" stroke-linejoin="round"/>
  </g>
</svg>
