<?xml version="1.0" ?>
<svg xmlns="http://www.w3.org/2000/svg" version="1.1" width="224" height="224">
  <defs/>
  <g>
    <path d="M 79.29450225830078 150.4239501953125 C 20.211320877075195 128.2422332763672 47.580562591552734 56.599403381347656 122.08656311035156 123.81088256835938" stroke-width="2" fill="none" stroke="rgb(0, 0, 0)" stroke-opacity="1.0" stroke-linecap="round" stroke-linejoin="round"/>
    <path d="M 172.84400939941406 142.58763122558594 C 200.65399169921875 145.9756317138672 47.134300231933594 149.2771453857422 46.81875228881836 143.70391845703125" stroke-width="2" fill="none" stroke="rgb(0, 0, 0)" stroke-opacity="1.0" stroke-linecap="round" stroke-linejoin="round"/>
    <path d="M 64.5970687866211 115.97197723388672 C 8.738880157470703 110.23164367675781 96.61151123046875 156.78611755371094 138.78651428222656 153.25180053710938" stroke-width="2" fill="none" stroke="rgb(0, 0, 0)" stroke-opacity="1.0" stroke-linecap="round" stroke-linejoin="round"/>
    <path d="M 172.01516723632812 106.61939239501953 C 161.8498992919922 95.70008850097656 189.972412109375 92.31350708007812 160.9987030029297 121.02294158935547" stroke-width="2" fill="none" stroke="rgb(0, 0, 0)" stroke-opacity="1.0" stroke-linecap="round" stroke-linejoin="round"/>
    <path d="M 98.835693359375 73.78223419189453 C 118.95011901855469 108.02314758300781 160.76707458496094 53.501243591308594 170.38482666015625 105.29240417480469" stroke-width="2" fill="none" stroke="rgb(0, 0, 0)" stroke-opacity="1.0" stroke-linecap="round" stroke-linejoin="round"/>
    <path d="M 120.56909942626953 121.3723373413086 C 72.7297134399414 60.79738235473633 122.68697357177734 106.81480407714844 88.169677734375 107.861083984375" stroke-width="2" fill="none" stroke="rgb(0, 0, 0)" stroke-opacity="1.0" stroke-linecap="round" stroke-linejoin="round"/>
    <path d="M 105.73826599121094 142.7677764892578 C 67.0372543334961 112.35724639892578 165.4474334716797 98.47384643554688 78.51069641113281 103.92994689941406" stroke-width="2" fill="none" stroke="rgb(0, 0, 0)" stroke-opacity="1.0" stroke-linecap="round" stroke-linejoin="round"/>
    <path d="M 152.77203369140625 158.8213348388672 C 113.85913848876953 155.15533447265625 -0.6442970633506775 165.4473419189453 54.27299880981445 97.04875183105469" stroke-width="2" fill="none" stroke="rgb(0, 0, 0)" stroke-opacity="1.0" stroke-linecap="round" stroke-linejoin="round"/>
    <path d="M 147.34677124023438 106.37137603759766 C 121.69749450683594 97.71544647216797 193.63467407226562 109.13671875 142.66432189941406 103.79642486572266" stroke-width="2" fill="none" stroke="rgb(0, 0, 0)" stroke-opacity="1.0" stroke-linecap="round" stroke-linejoin="round"/>
    <path d="M 127.68689727783203 111.60125732421875 C 158.61795043945312 107.8626937866211 86.9098129272461 127.19776916503906 123.28460693359375 119.8352279663086" stroke-width="2" fill="none" stroke="rgb(0, 0, 0)" stroke-opacity="1.0" stroke-linecap="round" stroke-linejoin="round"/>
    <path d="M 181.19012451171875 67.08171844482422 C 171.61819458007812 59.135337829589844 169.29464721679688 100.94749450683594 143.68809509277344 84.13739013671875" stroke-width="2" fill="none" stroke="rgb(0, 0, 0)" stroke-opacity="1.0" stroke-linecap="round" stroke-linejoin="round"/>
    <path d="M 181.5994415283203 143.16729736328125 C 185.92831420898438 164.38209533691406 114.35466766357422 166.1141357421875 155.33213806152344 155.39503479003906" stroke-width="2" fill="none" stroke="rgb(0, 0, 0)" stroke-opacity="1.0" stroke-linecap="round" stroke-linejoin="round"/>
    <path d="M 95.07746887207031 106.93467712402344 C 96.07400512695312 135.038330078125 201.87469482421875 132.7912139892578 161.95248413085938 128.12559509277344" stroke-width="2" fill="none" stroke="rgb(0, 0, 0)" stroke-opacity="1.0" stroke-linecap="round" stroke-linejoin="round"/>
    <path d="M 90.08417510986328 103.05498504638672 C 139.11410522460938 105.46278381347656 102.5619888305664 90.34828186035156 120.73968505859375 116.06855773925781" stroke-width="2" fill="none" stroke="rgb(0, 0, 0)" stroke-opacity="1.0" stroke-linecap="round" stroke-linejoin="round"/>
    <path d="M 169.88568115234375 120.00640106201172 C 175.46002197265625 79.37032318115234 179.77845764160156 124.3992691040039 185.6239471435547 62.30929183959961" stroke-width="2" fill="none" stroke="rgb(0, 0, 0)" stroke-opacity="1.0" stroke-linecap="round" stroke-linejoin="round"/>
    <path d="M 104.10032653808594 125.8391342163086 C 80.51617431640625 107.65467834472656 138.94822692871094 110.98080444335938 113.03706359863281 125.65541076660156" stroke-width="2" fill="none" stroke="rgb(0, 0, 0)" stroke-opacity="1.0" stroke-linecap="round" stroke-linejoin="round"/>
  </g>
</svg>
