<?xml version="1.0" ?>
<svg xmlns="http://www.w3.org/2000/svg" version="1.1" width="224" height="224">
  <defs/>
  <g>
    <path d="M 71.54432678222656 150.32154846191406 C 5.687580585479736 136.7799072265625 86.50597381591797 67.86668395996094 112.17435455322266 126.06871032714844" stroke-width="2" fill="none" stroke="rgb(0, 0, 0)" stroke-opacity="1.0" stroke-linecap="round" stroke-linejoin="round"/>
    <path d="M 138.58970642089844 134.43528747558594 C 199.37783813476562 143.5495147705078 61.41421890258789 130.0976104736328 69.00566101074219 126.95565032958984" stroke-width="2" fill="none" stroke="rgb(0, 0, 0)" stroke-opacity="1.0" stroke-linecap="round" stroke-linejoin="round"/>
    <path d="M 68.8618392944336 142.700439453125 C 6.450547218322754 126.50814819335938 78.11275482177734 150.9769744873047 132.6845245361328 154.28921508789062" stroke-width="2" fill="none" stroke="rgb(0, 0, 0)" stroke-opacity="1.0" stroke-linecap="round" stroke-linejoin="round"/>
    <path d="M 169.53175354003906 95.44010162353516 C 187.66734313964844 122.39100646972656 177.64120483398438 82.21228790283203 165.60403442382812 139.65817260742188" stroke-width="2" fill="none" stroke="rgb(0, 0, 0)" stroke-opacity="1.0" stroke-linecap="round" stroke-linejoin="round"/>
    <path d="M 101.3011474609375 76.85899353027344 C 105.42676544189453 118.60015106201172 141.00682067871094 75.55756378173828 137.9586944580078 108.90209197998047" stroke-width="2" fill="none" stroke="rgb(0, 0, 0)" stroke-opacity="1.0" stroke-linecap="round" stroke-linejoin="round"/>
    <path d="M 90.57465362548828 136.93142700195312 C 21.13448143005371 107.0302734375 114.19536590576172 130.781005859375 46.114524841308594 127.21846008300781" stroke-width="2" fill="none" stroke="rgb(0, 0, 0)" stroke-opacity="1.0" stroke-linecap="round" stroke-linejoin="round"/>
    <path d="M 122.04669952392578 139.4862823486328 C 70.31050872802734 95.59961700439453 133.26016235351562 71.51026916503906 104.03270721435547 117.57071685791016" stroke-width="2" fill="none" stroke="rgb(0, 0, 0)" stroke-opacity="1.0" stroke-linecap="round" stroke-linejoin="round"/>
    <path d="M 121.95612335205078 158.13916015625 C 108.75939178466797 156.66888427734375 -0.08225278556346893 160.38592529296875 65.73380279541016 104.95255279541016" stroke-width="2" fill="none" stroke="rgb(0, 0, 0)" stroke-opacity="1.0" stroke-linecap="round" stroke-linejoin="round"/>
    <path d="M 179.66107177734375 91.25399780273438 C 145.36341857910156 97.2811279296875 197.31744384765625 121.74899291992188 158.92701721191406 138.81324768066406" stroke-width="2" fill="none" stroke="rgb(0, 0, 0)" stroke-opacity="1.0" stroke-linecap="round" stroke-linejoin="round"/>
    <path d="M 123.08026123046875 125.45295715332031 C 224.2838592529297 116.38805389404297 113.15048217773438 127.41686248779297 166.1223907470703 129.5348663330078" stroke-width="2" fill="none" stroke="rgb(0, 0, 0)" stroke-opacity="1.0" stroke-linecap="round" stroke-linejoin="round"/>
    <path d="M 181.09425354003906 66.52653503417969 C 175.98538208007812 54.00385284423828 162.74658203125 97.15348052978516 139.65879821777344 92.1265869140625" stroke-width="2" fill="none" stroke="rgb(0, 0, 0)" stroke-opacity="1.0" stroke-linecap="round" stroke-linejoin="round"/>
    <path d="M 175.7715606689453 149.1868133544922 C 172.60194396972656 178.8436737060547 65.73678588867188 123.77352142333984 101.48046875 131.8228302001953" stroke-width="2" fill="none" stroke="rgb(0, 0, 0)" stroke-opacity="1.0" stroke-linecap="round" stroke-linejoin="round"/>
    <path d="M 143.3528289794922 155.51443481445312 C 53.88566207885742 143.9578857421875 217.82310485839844 167.091064453125 168.8338623046875 128.74087524414062" stroke-width="2" fill="none" stroke="rgb(0, 0, 0)" stroke-opacity="1.0" stroke-linecap="round" stroke-linejoin="round"/>
    <path d="M 122.92581939697266 118.22415924072266 C 164.53958129882812 117.4438247680664 83.47803497314453 112.45521545410156 157.0272674560547 129.20590209960938" stroke-width="2" fill="none" stroke="rgb(0, 0, 0)" stroke-opacity="1.0" stroke-linecap="round" stroke-linejoin="round"/>
    <path d="M 162.2889862060547 98.0436782836914 C 128.92550659179688 90.38938903808594 183.23773193359375 134.96707153320312 183.2314910888672 64.76726531982422" stroke-width="2" fill="none" stroke="rgb(0, 0, 0)" stroke-opacity="1.0" stroke-linecap="round" stroke-linejoin="round"/>
    <path d="M 153.04556274414062 130.43875122070312 C 110.50981140136719 114.71836853027344 188.6594696044922 110.04601287841797 140.77516174316406 132.9793701171875" stroke-width="2" fill="none" stroke="rgb(0, 0, 0)" stroke-opacity="1.0" stroke-linecap="round" stroke-linejoin="round"/>
  </g>
</svg>
