<?xml version="1.0" ?>
<svg xmlns="http://www.w3.org/2000/svg" version="1.1" width="224" height="224">
  <defs/>
  <g>
    <path d="M 64.00951385498047 150.08993530273438 C 0.7856045961380005 124.40222930908203 104.04419708251953 51.46501541137695 123.91864013671875 117.15619659423828" stroke-width="2" fill="none" stroke="rgb(0, 0, 0)" stroke-opacity="1.0" stroke-linecap="round" stroke-linejoin="round"/>
    <path d="M 154.9788818359375 151.96856689453125 C 188.75360107421875 164.8993682861328 91.24453735351562 146.50836181640625 143.20542907714844 123.72132110595703" stroke-width="2" fill="none" stroke="rgb(0, 0, 0)" stroke-opacity="1.0" stroke-linecap="round" stroke-linejoin="round"/>
    <path d="M 85.51373291015625 153.0384979248047 C 28.893428802490234 131.81175231933594 222.67568969726562 194.59854125976562 162.94273376464844 99.41707611083984" stroke-width="2" fill="none" stroke="rgb(0, 0, 0)" stroke-opacity="1.0" stroke-linecap="round" stroke-linejoin="round"/>
    <path d="M 152.3235321044922 111.74649810791016 C 186.7450714111328 112.40489959716797 132.53646850585938 118.95327758789062 159.80557250976562 114.60485076904297" stroke-width="2" fill="none" stroke="rgb(0, 0, 0)" stroke-opacity="1.0" stroke-linecap="round" stroke-linejoin="round"/>
    <path d="M 102.3483657836914 68.22542572021484 C 116.55770111083984 84.15007781982422 124.94609069824219 57.000404357910156 139.27658081054688 73.77622985839844" stroke-width="2" fill="none" stroke="rgb(0, 0, 0)" stroke-opacity="1.0" stroke-linecap="round" stroke-linejoin="round"/>
    <path d="M 107.3760757446289 85.01582336425781 C 96.02841186523438 85.4564437866211 107.34141540527344 106.02954864501953 110.10508728027344 73.32907104492188" stroke-width="2" fill="none" stroke="rgb(0, 0, 0)" stroke-opacity="1.0" stroke-linecap="round" stroke-linejoin="round"/>
    <path d="M 128.99749755859375 132.04371643066406 C 94.53311157226562 103.33609008789062 190.07571411132812 108.10826873779297 104.58831787109375 103.03800201416016" stroke-width="2" fill="none" stroke="rgb(0, 0, 0)" stroke-opacity="1.0" stroke-linecap="round" stroke-linejoin="round"/>
    <path d="M 92.52394104003906 144.6314239501953 C 180.57171630859375 156.2671356201172 13.49732780456543 136.42958068847656 53.704933166503906 106.96733856201172" stroke-width="2" fill="none" stroke="rgb(0, 0, 0)" stroke-opacity="1.0" stroke-linecap="round" stroke-linejoin="round"/>
    <path d="M 159.17800903320312 133.7445068359375 C 125.36246490478516 132.29478454589844 179.28341674804688 124.23979949951172 143.24371337890625 129.06887817382812" stroke-width="2" fill="none" stroke="rgb(0, 0, 0)" stroke-opacity="1.0" stroke-linecap="round" stroke-linejoin="round"/>
    <path d="M 127.84516906738281 112.24678802490234 C 188.0860137939453 131.72886657714844 105.31590270996094 130.8485565185547 154.56956481933594 133.71400451660156" stroke-width="2" fill="none" stroke="rgb(0, 0, 0)" stroke-opacity="1.0" stroke-linecap="round" stroke-linejoin="round"/>
    <path d="M 169.7004852294922 81.78755950927734 C 209.0258026123047 15.231064796447754 155.4031982421875 90.65861511230469 136.17434692382812 74.09373474121094" stroke-width="2" fill="none" stroke="rgb(0, 0, 0)" stroke-opacity="1.0" stroke-linecap="round" stroke-linejoin="round"/>
    <path d="M 139.1115264892578 117.29191589355469 C 205.18609619140625 138.81980895996094 91.39698791503906 126.34323120117188 125.08782958984375 127.97537231445312" stroke-width="2" fill="none" stroke="rgb(0, 0, 0)" stroke-opacity="1.0" stroke-linecap="round" stroke-linejoin="round"/>
    <path d="M 104.95059967041016 147.41073608398438 C -58.990379333496094 124.40544128417969 160.07005310058594 157.67245483398438 167.55418395996094 139.9427490234375" stroke-width="2" fill="none" stroke="rgb(0, 0, 0)" stroke-opacity="1.0" stroke-linecap="round" stroke-linejoin="round"/>
    <path d="M 153.92623901367188 130.7706298828125 C 121.52835845947266 131.64576721191406 168.55039978027344 150.4300079345703 169.92520141601562 113.1210708618164" stroke-width="2" fill="none" stroke="rgb(0, 0, 0)" stroke-opacity="1.0" stroke-linecap="round" stroke-linejoin="round"/>
    <path d="M 143.27247619628906 128.62960815429688 C 106.65081024169922 105.83426666259766 185.14111328125 143.4870147705078 182.12136840820312 75.83476257324219" stroke-width="2" fill="none" stroke="rgb(0, 0, 0)" stroke-opacity="1.0" stroke-linecap="round" stroke-linejoin="round"/>
    <path d="M 182.13523864746094 143.9783935546875 C 156.78652954101562 136.25465393066406 187.16246032714844 78.45918273925781 162.86721801757812 79.316650390625" stroke-width="2" fill="none" stroke="rgb(0, 0, 0)" stroke-opacity="1.0" stroke-linecap="round" stroke-linejoin="round"/>
  </g>
</svg>
