<?xml version="1.0" ?>
<svg xmlns="http://www.w3.org/2000/svg" version="1.1" width="224" height="224">
  <defs/>
  <g>
    <path d="M 94.046630859375 152.0485382080078 C -0.24714674055576324 156.55445861816406 53.61879348754883 95.26166534423828 50.12618637084961 119.46775817871094" stroke-width="2" fill="none" stroke="rgb(0, 0, 0)" stroke-opacity="1.0" stroke-linecap="round" stroke-linejoin="round"/>
    <path d="M 80.13517761230469 108.8364028930664 C 164.8207244873047 109.86640167236328 69.73812866210938 111.76817321777344 149.03424072265625 128.28448486328125" stroke-width="2" fill="none" stroke="rgb(0, 0, 0)" stroke-opacity="1.0" stroke-linecap="round" stroke-linejoin="round"/>
    <path d="M 49.46330642700195 102.66561126708984 C -7.883713245391846 157.25799560546875 255.70162963867188 186.6121826171875 149.4091796875 99.00743103027344" stroke-width="2" fill="none" stroke="rgb(0, 0, 0)" stroke-opacity="1.0" stroke-linecap="round" stroke-linejoin="round"/>
    <path d="M 138.85964965820312 115.01882934570312 C 168.40646362304688 103.65670776367188 104.37000274658203 105.18494415283203 166.4943084716797 104.4989242553711" stroke-width="2" fill="none" stroke="rgb(0, 0, 0)" stroke-opacity="1.0" stroke-linecap="round" stroke-linejoin="round"/>
    <path d="M 95.73970794677734 68.21418762207031 C 132.00828552246094 100.85891723632812 124.54354095458984 58.5306282043457 152.60125732421875 82.83856964111328" stroke-width="2" fill="none" stroke="rgb(0, 0, 0)" stroke-opacity="1.0" stroke-linecap="round" stroke-linejoin="round"/>
    <path d="M 108.63817596435547 110.10204315185547 C 135.72744750976562 104.50736236572266 87.84231567382812 110.04619598388672 120.86553955078125 101.3762435913086" stroke-width="2" fill="none" stroke="rgb(0, 0, 0)" stroke-opacity="1.0" stroke-linecap="round" stroke-linejoin="round"/>
    <path d="M 112.56806945800781 124.74456787109375 C 93.6587142944336 92.729248046875 116.62195587158203 119.21520233154297 116.93785095214844 111.1858901977539" stroke-width="2" fill="none" stroke="rgb(0, 0, 0)" stroke-opacity="1.0" stroke-linecap="round" stroke-linejoin="round"/>
    <path d="M 97.10904693603516 71.98800659179688 C 125.34920501708984 120.62561798095703 51.56770324707031 66.33677673339844 42.81815719604492 120.4708480834961" stroke-width="2" fill="none" stroke="rgb(0, 0, 0)" stroke-opacity="1.0" stroke-linecap="round" stroke-linejoin="round"/>
    <path d="M 132.27439880371094 116.69390106201172 C 85.4168472290039 127.98787689208984 172.37347412109375 103.37232971191406 111.24156951904297 112.7490005493164" stroke-width="2" fill="none" stroke="rgb(0, 0, 0)" stroke-opacity="1.0" stroke-linecap="round" stroke-linejoin="round"/>
    <path d="M 98.44041442871094 125.3099594116211 C 132.99905395507812 150.46005249023438 94.13410949707031 141.85931396484375 118.61168670654297 102.7755355834961" stroke-width="2" fill="none" stroke="rgb(0, 0, 0)" stroke-opacity="1.0" stroke-linecap="round" stroke-linejoin="round"/>
    <path d="M 166.69235229492188 114.19280242919922 C 216.15516662597656 4.939976215362549 160.8759307861328 90.34325408935547 150.8448944091797 86.38439178466797" stroke-width="2" fill="none" stroke="rgb(0, 0, 0)" stroke-opacity="1.0" stroke-linecap="round" stroke-linejoin="round"/>
    <path d="M 123.48699188232422 105.82205200195312 C 155.2849884033203 120.71846771240234 90.35543823242188 106.40628051757812 107.3846435546875 79.4481201171875" stroke-width="2" fill="none" stroke="rgb(0, 0, 0)" stroke-opacity="1.0" stroke-linecap="round" stroke-linejoin="round"/>
    <path d="M 54.77814483642578 140.44984436035156 C 54.525657653808594 112.67835998535156 103.09370422363281 156.27206420898438 139.63900756835938 142.88497924804688" stroke-width="2" fill="none" stroke="rgb(0, 0, 0)" stroke-opacity="1.0" stroke-linecap="round" stroke-linejoin="round"/>
    <path d="M 173.0162811279297 140.04159545898438 C 119.39002990722656 129.73089599609375 181.72122192382812 111.20116424560547 132.4382781982422 134.0019073486328" stroke-width="2" fill="none" stroke="rgb(0, 0, 0)" stroke-opacity="1.0" stroke-linecap="round" stroke-linejoin="round"/>
    <path d="M 181.96449279785156 91.97642517089844 C 175.427001953125 70.57380676269531 181.9512939453125 102.829833984375 150.26510620117188 93.70561218261719" stroke-width="2" fill="none" stroke="rgb(0, 0, 0)" stroke-opacity="1.0" stroke-linecap="round" stroke-linejoin="round"/>
    <path d="M 66.46696472167969 146.75732421875 C 218.96810913085938 164.65440368652344 195.61036682128906 118.5247802734375 122.67656707763672 115.27011108398438" stroke-width="2" fill="none" stroke="rgb(0, 0, 0)" stroke-opacity="1.0" stroke-linecap="round" stroke-linejoin="round"/>
  </g>
</svg>
