<?xml version="1.0" ?>
<svg xmlns="http://www.w3.org/2000/svg" version="1.1" width="224" height="224">
  <defs/>
  <g>
    <path d="M 73.02427673339844 151.93746948242188 C 33.943626403808594 143.29051208496094 51.249088287353516 122.53148651123047 53.62429428100586 138.91273498535156" stroke-width="2" fill="none" stroke="rgb(0, 0, 0)" stroke-opacity="1.0" stroke-linecap="round" stroke-linejoin="round"/>
    <path d="M 84.74114990234375 118.51163482666016 C 127.27450561523438 113.49335479736328 71.52371215820312 151.49020385742188 158.64947509765625 149.6461181640625" stroke-width="2" fill="none" stroke="rgb(0, 0, 0)" stroke-opacity="1.0" stroke-linecap="round" stroke-linejoin="round"/>
    <path d="M 66.09053039550781 102.91383361816406 C -34.819026947021484 181.19308471679688 257.77667236328125 139.3281707763672 140.1395721435547 136.5679473876953" stroke-width="2" fill="none" stroke="rgb(0, 0, 0)" stroke-opacity="1.0" stroke-linecap="round" stroke-linejoin="round"/>
    <path d="M 119.36674499511719 106.96711730957031 C 170.95535278320312 145.10780334472656 124.13887786865234 128.55238342285156 148.92039489746094 130.78329467773438" stroke-width="2" fill="none" stroke="rgb(0, 0, 0)" stroke-opacity="1.0" stroke-linecap="round" stroke-linejoin="round"/>
    <path d="M 112.41065216064453 72.79034423828125 C 109.8299331665039 103.15870666503906 139.94155883789062 73.73285675048828 149.1521453857422 100.75513458251953" stroke-width="2" fill="none" stroke="rgb(0, 0, 0)" stroke-opacity="1.0" stroke-linecap="round" stroke-linejoin="round"/>
    <path d="M 134.15402221679688 123.57827758789062 C 170.98129272460938 129.90325927734375 148.45191955566406 98.92552185058594 163.2909698486328 117.66374206542969" stroke-width="2" fill="none" stroke="rgb(0, 0, 0)" stroke-opacity="1.0" stroke-linecap="round" stroke-linejoin="round"/>
    <path d="M 123.91239929199219 120.48162078857422 C 178.94874572753906 104.66105651855469 88.12621307373047 117.94023132324219 134.76622009277344 134.91029357910156" stroke-width="2" fill="none" stroke="rgb(0, 0, 0)" stroke-opacity="1.0" stroke-linecap="round" stroke-linejoin="round"/>
    <path d="M 102.80461120605469 70.32340240478516 C 137.09873962402344 138.2449951171875 57.3276252746582 84.37641143798828 61.78055191040039 115.2958984375" stroke-width="2" fill="none" stroke="rgb(0, 0, 0)" stroke-opacity="1.0" stroke-linecap="round" stroke-linejoin="round"/>
    <path d="M 152.08006286621094 111.66676330566406 C 179.5389862060547 115.29537963867188 115.99665832519531 132.21246337890625 170.84910583496094 118.41191864013672" stroke-width="2" fill="none" stroke="rgb(0, 0, 0)" stroke-opacity="1.0" stroke-linecap="round" stroke-linejoin="round"/>
    <path d="M 96.75214385986328 107.41541290283203 C 207.9314727783203 149.64358520507812 141.405517578125 106.44742584228516 147.23309326171875 133.26939392089844" stroke-width="2" fill="none" stroke="rgb(0, 0, 0)" stroke-opacity="1.0" stroke-linecap="round" stroke-linejoin="round"/>
    <path d="M 171.58030700683594 117.9296646118164 C 208.26214599609375 7.561725616455078 171.1796417236328 104.66073608398438 144.4154510498047 91.00189971923828" stroke-width="2" fill="none" stroke="rgb(0, 0, 0)" stroke-opacity="1.0" stroke-linecap="round" stroke-linejoin="round"/>
    <path d="M 107.6507568359375 74.56168365478516 C 131.34304809570312 92.63101959228516 98.7953109741211 81.5269546508789 119.28412628173828 111.26387023925781" stroke-width="2" fill="none" stroke="rgb(0, 0, 0)" stroke-opacity="1.0" stroke-linecap="round" stroke-linejoin="round"/>
    <path d="M 98.86203002929688 144.5482940673828 C -9.65536880493164 122.49935150146484 78.9893798828125 163.6363067626953 123.23114013671875 153.743408203125" stroke-width="2" fill="none" stroke="rgb(0, 0, 0)" stroke-opacity="1.0" stroke-linecap="round" stroke-linejoin="round"/>
    <path d="M 71.91735076904297 134.22976684570312 C 75.16295623779297 145.73458862304688 188.18626403808594 176.82997131347656 180.9143524169922 135.92218017578125" stroke-width="2" fill="none" stroke="rgb(0, 0, 0)" stroke-opacity="1.0" stroke-linecap="round" stroke-linejoin="round"/>
    <path d="M 150.0331268310547 99.11226654052734 C 180.15017700195312 89.06957244873047 147.75131225585938 124.8646240234375 182.86328125 94.50537872314453" stroke-width="2" fill="none" stroke="rgb(0, 0, 0)" stroke-opacity="1.0" stroke-linecap="round" stroke-linejoin="round"/>
    <path d="M 129.68882751464844 106.21224975585938 C 114.62667083740234 130.7946319580078 191.06028747558594 97.12255096435547 163.963623046875 140.28457641601562" stroke-width="2" fill="none" stroke="rgb(0, 0, 0)" stroke-opacity="1.0" stroke-linecap="round" stroke-linejoin="round"/>
  </g>
</svg>
