<?xml version="1.0" ?>
<svg xmlns="http://www.w3.org/2000/svg" version="1.1" width="224" height="224">
  <defs/>
  <g>
    <path d="M 147.72955322265625 150.1459503173828 C 63.724544525146484 163.0876007080078 68.91065979003906 144.0362091064453 52.342674255371094 140.72068786621094" stroke-width="2" fill="none" stroke="rgb(0, 0, 0)" stroke-opacity="1.0" stroke-linecap="round" stroke-linejoin="round"/>
    <path d="M 92.08403778076172 107.04427337646484 C 126.7242431640625 107.2568588256836 67.40874481201172 130.05638122558594 167.29978942871094 119.14364624023438" stroke-width="2" fill="none" stroke="rgb(0, 0, 0)" stroke-opacity="1.0" stroke-linecap="round" stroke-linejoin="round"/>
    <path d="M 63.16136932373047 106.5692367553711 C -17.182817459106445 174.61404418945312 230.72813415527344 124.17169952392578 144.3057098388672 146.50486755371094" stroke-width="2" fill="none" stroke="rgb(0, 0, 0)" stroke-opacity="1.0" stroke-linecap="round" stroke-linejoin="round"/>
    <path d="M 159.9317626953125 94.76837921142578 C 188.94467163085938 103.85140228271484 145.8857421875 113.77318572998047 148.72555541992188 96.20286560058594" stroke-width="2" fill="none" stroke="rgb(0, 0, 0)" stroke-opacity="1.0" stroke-linecap="round" stroke-linejoin="round"/>
    <path d="M 99.30516815185547 69.93419647216797 C 125.9385757446289 101.74203491210938 110.88875579833984 64.98318481445312 145.3885955810547 87.023681640625" stroke-width="2" fill="none" stroke="rgb(0, 0, 0)" stroke-opacity="1.0" stroke-linecap="round" stroke-linejoin="round"/>
    <path d="M 121.69893646240234 120.86190032958984 C 162.0692138671875 100.04840850830078 90.570068359375 111.79296112060547 133.86549377441406 121.39015197753906" stroke-width="2" fill="none" stroke="rgb(0, 0, 0)" stroke-opacity="1.0" stroke-linecap="round" stroke-linejoin="round"/>
    <path d="M 119.5018081665039 122.73358154296875 C 137.03648376464844 105.63621520996094 83.44599151611328 138.89158630371094 157.3613739013672 133.7285919189453" stroke-width="2" fill="none" stroke="rgb(0, 0, 0)" stroke-opacity="1.0" stroke-linecap="round" stroke-linejoin="round"/>
    <path d="M 101.08332061767578 69.96697235107422 C 116.70370483398438 130.24493408203125 55.55893325805664 72.78551483154297 57.73013687133789 118.90856170654297" stroke-width="2" fill="none" stroke="rgb(0, 0, 0)" stroke-opacity="1.0" stroke-linecap="round" stroke-linejoin="round"/>
    <path d="M 165.91915893554688 128.3405303955078 C 189.90362548828125 105.33304595947266 158.19454956054688 111.3042984008789 170.1892547607422 123.89189910888672" stroke-width="2" fill="none" stroke="rgb(0, 0, 0)" stroke-opacity="1.0" stroke-linecap="round" stroke-linejoin="round"/>
    <path d="M 129.3813934326172 156.3585968017578 C 233.79421997070312 150.58555603027344 133.75428771972656 110.7587661743164 161.6540069580078 129.9311981201172" stroke-width="2" fill="none" stroke="rgb(0, 0, 0)" stroke-opacity="1.0" stroke-linecap="round" stroke-linejoin="round"/>
    <path d="M 169.76168823242188 116.01460266113281 C 212.84205627441406 8.993080139160156 167.2156982421875 102.782958984375 143.29542541503906 87.67630767822266" stroke-width="2" fill="none" stroke="rgb(0, 0, 0)" stroke-opacity="1.0" stroke-linecap="round" stroke-linejoin="round"/>
    <path d="M 102.39984130859375 93.75228881835938 C 131.0791015625 73.32442474365234 102.38941192626953 100.96686553955078 115.427001953125 113.29412078857422" stroke-width="2" fill="none" stroke="rgb(0, 0, 0)" stroke-opacity="1.0" stroke-linecap="round" stroke-linejoin="round"/>
    <path d="M 120.90675354003906 158.4763946533203 C -0.43064722418785095 128.37588500976562 78.73381042480469 159.89993286132812 77.0648422241211 151.54339599609375" stroke-width="2" fill="none" stroke="rgb(0, 0, 0)" stroke-opacity="1.0" stroke-linecap="round" stroke-linejoin="round"/>
    <path d="M 80.43961334228516 134.4626922607422 C 44.25071716308594 113.15802764892578 193.1809539794922 184.4884490966797 175.97813415527344 141.57569885253906" stroke-width="2" fill="none" stroke="rgb(0, 0, 0)" stroke-opacity="1.0" stroke-linecap="round" stroke-linejoin="round"/>
    <path d="M 181.08267211914062 87.97309875488281 C 188.3252716064453 111.86978912353516 141.56410217285156 112.7419662475586 159.6990509033203 102.12933349609375" stroke-width="2" fill="none" stroke="rgb(0, 0, 0)" stroke-opacity="1.0" stroke-linecap="round" stroke-linejoin="round"/>
    <path d="M 147.06874084472656 109.63866424560547 C 87.98001861572266 115.4000473022461 170.99403381347656 108.03331756591797 130.24111938476562 126.996337890625" stroke-width="2" fill="none" stroke="rgb(0, 0, 0)" stroke-opacity="1.0" stroke-linecap="round" stroke-linejoin="round"/>
  </g>
</svg>
