<?xml version="1.0" ?>
<svg xmlns="http://www.w3.org/2000/svg" version="1.1" width="224" height="224">
  <defs/>
  <g>
    <path d="M 84.18817901611328 148.39654541015625 C -20.2799072265625 124.3169174194336 110.98046875 55.247562408447266 110.47943115234375 126.18936157226562" stroke-width="2" fill="none" stroke="rgb(0, 0, 0)" stroke-opacity="1.0" stroke-linecap="round" stroke-linejoin="round"/>
    <path d="M 126.08142852783203 151.29583740234375 C 197.3283233642578 159.5878143310547 50.766075134277344 157.8353271484375 121.14871215820312 103.32217407226562" stroke-width="2" fill="none" stroke="rgb(0, 0, 0)" stroke-opacity="1.0" stroke-linecap="round" stroke-linejoin="round"/>
    <path d="M 133.51385498046875 143.20504760742188 C 58.063228607177734 150.12857055664062 223.03050231933594 160.10336303710938 157.81094360351562 143.30178833007812" stroke-width="2" fill="none" stroke="rgb(0, 0, 0)" stroke-opacity="1.0" stroke-linecap="round" stroke-linejoin="round"/>
    <path d="M 123.40718841552734 114.80831146240234 C 150.19918823242188 122.34821319580078 94.36347198486328 129.61740112304688 145.74072265625 110.1505126953125" stroke-width="2" fill="none" stroke="rgb(0, 0, 0)" stroke-opacity="1.0" stroke-linecap="round" stroke-linejoin="round"/>
    <path d="M 104.02294921875 73.98859405517578 C 117.0557632446289 108.873291015625 144.5854949951172 65.03704071044922 154.77981567382812 93.01319885253906" stroke-width="2" fill="none" stroke="rgb(0, 0, 0)" stroke-opacity="1.0" stroke-linecap="round" stroke-linejoin="round"/>
    <path d="M 78.79910278320312 99.71047973632812 C 0.8172805905342102 98.44525909423828 90.76909637451172 126.81441497802734 60.59583282470703 112.38423156738281" stroke-width="2" fill="none" stroke="rgb(0, 0, 0)" stroke-opacity="1.0" stroke-linecap="round" stroke-linejoin="round"/>
    <path d="M 110.76883697509766 83.67554473876953 C 79.5362319946289 41.33513641357422 108.53866577148438 103.50729370117188 90.96128845214844 95.5486831665039" stroke-width="2" fill="none" stroke="rgb(0, 0, 0)" stroke-opacity="1.0" stroke-linecap="round" stroke-linejoin="round"/>
    <path d="M 132.61636352539062 152.359130859375 C 129.75392150878906 151.65402221679688 -2.5592832565307617 158.73626708984375 54.26529312133789 108.80377197265625" stroke-width="2" fill="none" stroke="rgb(0, 0, 0)" stroke-opacity="1.0" stroke-linecap="round" stroke-linejoin="round"/>
    <path d="M 143.6126251220703 120.77790069580078 C 97.71550750732422 129.98834228515625 173.25791931152344 128.0772705078125 143.9310302734375 135.2294921875" stroke-width="2" fill="none" stroke="rgb(0, 0, 0)" stroke-opacity="1.0" stroke-linecap="round" stroke-linejoin="round"/>
    <path d="M 122.83425903320312 113.48484802246094 C 195.5328826904297 109.9068374633789 118.02950286865234 132.08143615722656 159.05328369140625 123.57454681396484" stroke-width="2" fill="none" stroke="rgb(0, 0, 0)" stroke-opacity="1.0" stroke-linecap="round" stroke-linejoin="round"/>
    <path d="M 186.04966735839844 65.2303466796875 C 185.06301879882812 52.59108352661133 158.5590362548828 98.84989166259766 146.1824188232422 84.87037658691406" stroke-width="2" fill="none" stroke="rgb(0, 0, 0)" stroke-opacity="1.0" stroke-linecap="round" stroke-linejoin="round"/>
    <path d="M 158.9505615234375 144.86984252929688 C 149.1143341064453 154.9408416748047 30.181486129760742 114.88842010498047 74.28264617919922 137.9702911376953" stroke-width="2" fill="none" stroke="rgb(0, 0, 0)" stroke-opacity="1.0" stroke-linecap="round" stroke-linejoin="round"/>
    <path d="M 118.90882873535156 150.87823486328125 C -17.325265884399414 116.82373046875 223.7501220703125 187.8007049560547 173.51991271972656 128.8089141845703" stroke-width="2" fill="none" stroke="rgb(0, 0, 0)" stroke-opacity="1.0" stroke-linecap="round" stroke-linejoin="round"/>
    <path d="M 108.18551635742188 112.05130004882812 C 154.1604766845703 103.52351379394531 146.68563842773438 139.06378173828125 152.96327209472656 112.6812744140625" stroke-width="2" fill="none" stroke="rgb(0, 0, 0)" stroke-opacity="1.0" stroke-linecap="round" stroke-linejoin="round"/>
    <path d="M 161.75729370117188 132.5353546142578 C 145.51992797851562 75.73028564453125 166.9452362060547 130.12716674804688 181.9118194580078 67.2090072631836" stroke-width="2" fill="none" stroke="rgb(0, 0, 0)" stroke-opacity="1.0" stroke-linecap="round" stroke-linejoin="round"/>
    <path d="M 151.14866638183594 129.8392333984375 C 115.08516693115234 148.43760681152344 194.84942626953125 102.95228576660156 145.69564819335938 100.87346649169922" stroke-width="2" fill="none" stroke="rgb(0, 0, 0)" stroke-opacity="1.0" stroke-linecap="round" stroke-linejoin="round"/>
  </g>
</svg>
