<?xml version="1.0" ?>
<svg xmlns="http://www.w3.org/2000/svg" version="1.1" width="224" height="224">
  <defs/>
  <g>
    <path d="M 76.77828979492188 141.67872619628906 C 36.320682525634766 138.4791717529297 24.165449142456055 127.82305145263672 70.14908599853516 151.95700073242188" stroke-width="2" fill="none" stroke="rgb(0, 0, 0)" stroke-opacity="1.0" stroke-linecap="round" stroke-linejoin="round"/>
    <path d="M 89.6076431274414 113.03846740722656 C 134.24276733398438 106.52719116210938 87.9431381225586 139.0293426513672 131.1256103515625 147.62716674804688" stroke-width="2" fill="none" stroke="rgb(0, 0, 0)" stroke-opacity="1.0" stroke-linecap="round" stroke-linejoin="round"/>
    <path d="M 59.8809814453125 100.49528503417969 C -20.83417320251465 162.38975524902344 258.7171630859375 143.97738647460938 143.5016326904297 144.06402587890625" stroke-width="2" fill="none" stroke="rgb(0, 0, 0)" stroke-opacity="1.0" stroke-linecap="round" stroke-linejoin="round"/>
    <path d="M 110.46812438964844 117.8338623046875 C 193.53099060058594 135.71783447265625 99.46287536621094 125.93648529052734 163.37786865234375 118.3687515258789" stroke-width="2" fill="none" stroke="rgb(0, 0, 0)" stroke-opacity="1.0" stroke-linecap="round" stroke-linejoin="round"/>
    <path d="M 107.70413208007812 73.82225036621094 C 123.2389907836914 98.25743103027344 139.15658569335938 68.81393432617188 149.96151733398438 95.48985290527344" stroke-width="2" fill="none" stroke="rgb(0, 0, 0)" stroke-opacity="1.0" stroke-linecap="round" stroke-linejoin="round"/>
    <path d="M 100.49040985107422 130.5290985107422 C 160.56295776367188 115.07360076904297 107.1529312133789 101.2001724243164 132.71774291992188 129.0535125732422" stroke-width="2" fill="none" stroke="rgb(0, 0, 0)" stroke-opacity="1.0" stroke-linecap="round" stroke-linejoin="round"/>
    <path d="M 123.03316497802734 121.13829803466797 C 156.93695068359375 106.95658874511719 82.8245620727539 123.31414794921875 149.59352111816406 126.82778930664062" stroke-width="2" fill="none" stroke="rgb(0, 0, 0)" stroke-opacity="1.0" stroke-linecap="round" stroke-linejoin="round"/>
    <path d="M 97.7907485961914 72.88190460205078 C 127.47132110595703 127.7770767211914 50.179561614990234 73.10216522216797 52.6379280090332 115.56604766845703" stroke-width="2" fill="none" stroke="rgb(0, 0, 0)" stroke-opacity="1.0" stroke-linecap="round" stroke-linejoin="round"/>
    <path d="M 152.56271362304688 106.90691375732422 C 181.794189453125 118.65367889404297 127.62151336669922 113.6532974243164 163.29452514648438 108.78776550292969" stroke-width="2" fill="none" stroke="rgb(0, 0, 0)" stroke-opacity="1.0" stroke-linecap="round" stroke-linejoin="round"/>
    <path d="M 98.86197662353516 120.00515747070312 C 225.51893615722656 154.9810791015625 143.1597900390625 100.33509826660156 125.12625122070312 112.12834930419922" stroke-width="2" fill="none" stroke="rgb(0, 0, 0)" stroke-opacity="1.0" stroke-linecap="round" stroke-linejoin="round"/>
    <path d="M 164.69215393066406 120.92423248291016 C 205.8887939453125 0.00711175799369812 175.81869506835938 93.99752044677734 146.8066864013672 87.49784088134766" stroke-width="2" fill="none" stroke="rgb(0, 0, 0)" stroke-opacity="1.0" stroke-linecap="round" stroke-linejoin="round"/>
    <path d="M 111.16439056396484 98.79354095458984 C 126.93923950195312 130.77783203125 102.4063949584961 108.71194458007812 123.86449432373047 94.14350891113281" stroke-width="2" fill="none" stroke="rgb(0, 0, 0)" stroke-opacity="1.0" stroke-linecap="round" stroke-linejoin="round"/>
    <path d="M 87.11833953857422 152.0726776123047 C -17.320329666137695 125.50394439697266 91.39161682128906 170.2141571044922 143.9406280517578 148.6116180419922" stroke-width="2" fill="none" stroke="rgb(0, 0, 0)" stroke-opacity="1.0" stroke-linecap="round" stroke-linejoin="round"/>
    <path d="M 74.45333099365234 135.01145935058594 C 75.35994720458984 145.4982452392578 190.65277099609375 175.3286895751953 180.58009338378906 126.9543685913086" stroke-width="2" fill="none" stroke="rgb(0, 0, 0)" stroke-opacity="1.0" stroke-linecap="round" stroke-linejoin="round"/>
    <path d="M 160.5597686767578 98.26397705078125 C 210.9403839111328 53.60020065307617 162.2747344970703 136.0870819091797 163.62510681152344 91.9150390625" stroke-width="2" fill="none" stroke="rgb(0, 0, 0)" stroke-opacity="1.0" stroke-linecap="round" stroke-linejoin="round"/>
    <path d="M 102.75398254394531 110.13506317138672 C 126.44345092773438 147.34165954589844 167.69085693359375 101.54754638671875 139.00352478027344 136.87742614746094" stroke-width="2" fill="none" stroke="rgb(0, 0, 0)" stroke-opacity="1.0" stroke-linecap="round" stroke-linejoin="round"/>
  </g>
</svg>
