<?xml version="1.0" ?>
<svg xmlns="http://www.w3.org/2000/svg" version="1.1" width="224" height="224">
  <defs/>
  <g>
    <path d="M 61.483314514160156 152.42759704589844 C 9.465191841125488 131.04930114746094 90.46662902832031 56.527244567871094 111.65682983398438 122.35556030273438" stroke-width="2" fill="none" stroke="rgb(0, 0, 0)" stroke-opacity="1.0" stroke-linecap="round" stroke-linejoin="round"/>
    <path d="M 142.0559844970703 127.07113647460938 C 189.5635223388672 121.03380584716797 36.58089828491211 94.59668731689453 120.46794891357422 130.77378845214844" stroke-width="2" fill="none" stroke="rgb(0, 0, 0)" stroke-opacity="1.0" stroke-linecap="round" stroke-linejoin="round"/>
    <path d="M 43.116554260253906 131.80413818359375 C 5.464690685272217 148.81468200683594 229.5989990234375 192.6937255859375 159.67420959472656 115.6217269897461" stroke-width="2" fill="none" stroke="rgb(0, 0, 0)" stroke-opacity="1.0" stroke-linecap="round" stroke-linejoin="round"/>
    <path d="M 141.04885864257812 117.47733306884766 C 183.01016235351562 112.60982513427734 112.68254089355469 114.41089630126953 149.72659301757812 118.5640869140625" stroke-width="2" fill="none" stroke="rgb(0, 0, 0)" stroke-opacity="1.0" stroke-linecap="round" stroke-linejoin="round"/>
    <path d="M 95.22148895263672 73.25218200683594 C 116.41444396972656 91.48759460449219 117.53060913085938 63.528106689453125 141.40194702148438 87.271240234375" stroke-width="2" fill="none" stroke="rgb(0, 0, 0)" stroke-opacity="1.0" stroke-linecap="round" stroke-linejoin="round"/>
    <path d="M 99.82979583740234 72.71867370605469 C 101.96739959716797 107.56453704833984 92.24163055419922 97.39210510253906 105.26038360595703 89.78303527832031" stroke-width="2" fill="none" stroke="rgb(0, 0, 0)" stroke-opacity="1.0" stroke-linecap="round" stroke-linejoin="round"/>
    <path d="M 144.4971466064453 128.42430114746094 C 82.6528549194336 112.3893814086914 182.6739044189453 145.22802734375 65.40583801269531 114.40328216552734" stroke-width="2" fill="none" stroke="rgb(0, 0, 0)" stroke-opacity="1.0" stroke-linecap="round" stroke-linejoin="round"/>
    <path d="M 76.74420928955078 134.84124755859375 C 172.771728515625 168.83251953125 -8.441145896911621 142.9518585205078 56.5388069152832 111.65301513671875" stroke-width="2" fill="none" stroke="rgb(0, 0, 0)" stroke-opacity="1.0" stroke-linecap="round" stroke-linejoin="round"/>
    <path d="M 148.5931396484375 128.3635711669922 C 99.42546081542969 131.49502563476562 195.5575408935547 147.318603515625 131.7793426513672 143.6782684326172" stroke-width="2" fill="none" stroke="rgb(0, 0, 0)" stroke-opacity="1.0" stroke-linecap="round" stroke-linejoin="round"/>
    <path d="M 120.2199935913086 115.31520080566406 C 198.54730224609375 103.16859436035156 81.42627716064453 107.76561737060547 144.12831115722656 135.78688049316406" stroke-width="2" fill="none" stroke="rgb(0, 0, 0)" stroke-opacity="1.0" stroke-linecap="round" stroke-linejoin="round"/>
    <path d="M 179.89620971679688 90.50184631347656 C 192.5217742919922 8.922438621520996 169.19931030273438 105.81124114990234 132.0941162109375 83.72206115722656" stroke-width="2" fill="none" stroke="rgb(0, 0, 0)" stroke-opacity="1.0" stroke-linecap="round" stroke-linejoin="round"/>
    <path d="M 171.7462615966797 152.02235412597656 C 189.5345458984375 132.45425415039062 74.388916015625 161.92449951171875 114.61763000488281 106.91064453125" stroke-width="2" fill="none" stroke="rgb(0, 0, 0)" stroke-opacity="1.0" stroke-linecap="round" stroke-linejoin="round"/>
    <path d="M 97.68359375 129.59371948242188 C 4.777185440063477 110.95780181884766 156.5495147705078 173.60992431640625 158.9987335205078 150.25961303710938" stroke-width="2" fill="none" stroke="rgb(0, 0, 0)" stroke-opacity="1.0" stroke-linecap="round" stroke-linejoin="round"/>
    <path d="M 145.5400390625 147.20068359375 C 136.7303466796875 149.72361755371094 176.4246063232422 161.9454803466797 176.6998291015625 136.4282684326172" stroke-width="2" fill="none" stroke="rgb(0, 0, 0)" stroke-opacity="1.0" stroke-linecap="round" stroke-linejoin="round"/>
    <path d="M 167.047607421875 106.08142852783203 C 145.1020965576172 92.86890411376953 168.12249755859375 132.93222045898438 174.23480224609375 79.52790069580078" stroke-width="2" fill="none" stroke="rgb(0, 0, 0)" stroke-opacity="1.0" stroke-linecap="round" stroke-linejoin="round"/>
    <path d="M 150.87425231933594 123.26610565185547 C 169.4060821533203 128.2625274658203 172.64344787597656 87.2786636352539 156.0111846923828 91.36962127685547" stroke-width="2" fill="none" stroke="rgb(0, 0, 0)" stroke-opacity="1.0" stroke-linecap="round" stroke-linejoin="round"/>
  </g>
</svg>
