<?xml version="1.0" ?>
<svg xmlns="http://www.w3.org/2000/svg" version="1.1" width="224" height="224">
  <defs/>
  <g>
    <path d="M 85.40457153320312 146.146728515625 C 32.8982048034668 147.04641723632812 39.39604187011719 124.78834533691406 74.9059829711914 149.77218627929688" stroke-width="2" fill="none" stroke="rgb(0, 0, 0)" stroke-opacity="1.0" stroke-linecap="round" stroke-linejoin="round"/>
    <path d="M 84.49344635009766 115.2127685546875 C 119.68612670898438 116.93219757080078 79.3546371459961 133.74090576171875 120.95244598388672 156.4176483154297" stroke-width="2" fill="none" stroke="rgb(0, 0, 0)" stroke-opacity="1.0" stroke-linecap="round" stroke-linejoin="round"/>
    <path d="M 60.984344482421875 106.84521484375 C -12.266419410705566 166.80853271484375 262.3370056152344 162.14085388183594 136.31259155273438 134.05543518066406" stroke-width="2" fill="none" stroke="rgb(0, 0, 0)" stroke-opacity="1.0" stroke-linecap="round" stroke-linejoin="round"/>
    <path d="M 116.87931823730469 121.81314086914062 C 181.75253295898438 135.83213806152344 70.915283203125 127.87294006347656 163.75819396972656 127.48542785644531" stroke-width="2" fill="none" stroke="rgb(0, 0, 0)" stroke-opacity="1.0" stroke-linecap="round" stroke-linejoin="round"/>
    <path d="M 116.25991821289062 72.95924377441406 C 143.60302734375 113.21644592285156 135.89813232421875 75.10688781738281 161.28114318847656 96.78746032714844" stroke-width="2" fill="none" stroke="rgb(0, 0, 0)" stroke-opacity="1.0" stroke-linecap="round" stroke-linejoin="round"/>
    <path d="M 110.70458221435547 126.88554382324219 C 167.3152313232422 119.0394287109375 94.2413101196289 111.25619506835938 132.44297790527344 121.40850067138672" stroke-width="2" fill="none" stroke="rgb(0, 0, 0)" stroke-opacity="1.0" stroke-linecap="round" stroke-linejoin="round"/>
    <path d="M 114.20631408691406 109.43544006347656 C 153.46017456054688 103.6158676147461 76.62621307373047 117.70732116699219 127.45574188232422 132.74688720703125" stroke-width="2" fill="none" stroke="rgb(0, 0, 0)" stroke-opacity="1.0" stroke-linecap="round" stroke-linejoin="round"/>
    <path d="M 103.13722229003906 71.13298034667969 C 119.72599029541016 124.0174331665039 49.682350158691406 78.37255859375 48.782955169677734 120.6663818359375" stroke-width="2" fill="none" stroke="rgb(0, 0, 0)" stroke-opacity="1.0" stroke-linecap="round" stroke-linejoin="round"/>
    <path d="M 153.64071655273438 114.61390686035156 C 156.34791564941406 126.7936019897461 116.67832946777344 130.4632568359375 162.8829803466797 129.05227661132812" stroke-width="2" fill="none" stroke="rgb(0, 0, 0)" stroke-opacity="1.0" stroke-linecap="round" stroke-linejoin="round"/>
    <path d="M 77.7967758178711 135.5057373046875 C 230.986328125 159.00857543945312 130.52285766601562 129.70089721679688 116.09181213378906 127.03961944580078" stroke-width="2" fill="none" stroke="rgb(0, 0, 0)" stroke-opacity="1.0" stroke-linecap="round" stroke-linejoin="round"/>
    <path d="M 166.5073699951172 120.6860580444336 C 199.48033142089844 35.222164154052734 185.93301391601562 108.37380981445312 156.46029663085938 102.64848327636719" stroke-width="2" fill="none" stroke="rgb(0, 0, 0)" stroke-opacity="1.0" stroke-linecap="round" stroke-linejoin="round"/>
    <path d="M 97.59452056884766 97.43144989013672 C 117.27253723144531 109.80957794189453 87.76780700683594 108.36612701416016 114.07574462890625 79.71560668945312" stroke-width="2" fill="none" stroke="rgb(0, 0, 0)" stroke-opacity="1.0" stroke-linecap="round" stroke-linejoin="round"/>
    <path d="M 62.71501541137695 147.7742156982422 C 16.127748489379883 109.6686019897461 125.1862564086914 165.7710418701172 146.6210479736328 142.72938537597656" stroke-width="2" fill="none" stroke="rgb(0, 0, 0)" stroke-opacity="1.0" stroke-linecap="round" stroke-linejoin="round"/>
    <path d="M 86.66119384765625 147.92718505859375 C 62.2659797668457 152.3848114013672 187.30621337890625 177.16610717773438 187.09693908691406 128.4697265625" stroke-width="2" fill="none" stroke="rgb(0, 0, 0)" stroke-opacity="1.0" stroke-linecap="round" stroke-linejoin="round"/>
    <path d="M 158.472412109375 88.55071258544922 C 214.19728088378906 24.706222534179688 164.9073944091797 143.6075897216797 159.39793395996094 101.41830444335938" stroke-width="2" fill="none" stroke="rgb(0, 0, 0)" stroke-opacity="1.0" stroke-linecap="round" stroke-linejoin="round"/>
    <path d="M 102.85305786132812 113.55110931396484 C 137.84803771972656 169.26278686523438 174.39263916015625 116.80110931396484 141.0357666015625 117.1346664428711" stroke-width="2" fill="none" stroke="rgb(0, 0, 0)" stroke-opacity="1.0" stroke-linecap="round" stroke-linejoin="round"/>
  </g>
</svg>
