<?xml version="1.0" ?>
<svg xmlns="http://www.w3.org/2000/svg" version="1.1" width="224" height="224">
  <defs/>
  <g>
    <path d="M 107.71038818359375 156.56781005859375 C -9.45988655090332 154.19517517089844 63.39906692504883 78.53736114501953 94.06954193115234 123.63822174072266" stroke-width="2" fill="none" stroke="rgb(0, 0, 0)" stroke-opacity="1.0" stroke-linecap="round" stroke-linejoin="round"/>
    <path d="M 108.0116958618164 120.08647155761719 C 164.817626953125 117.06684875488281 72.45402526855469 137.1982421875 143.13232421875 122.72997283935547" stroke-width="2" fill="none" stroke="rgb(0, 0, 0)" stroke-opacity="1.0" stroke-linecap="round" stroke-linejoin="round"/>
    <path d="M 53.542449951171875 104.82948303222656 C 1.386492133140564 159.7672576904297 244.9748992919922 183.4056396484375 160.56564331054688 118.14412689208984" stroke-width="2" fill="none" stroke="rgb(0, 0, 0)" stroke-opacity="1.0" stroke-linecap="round" stroke-linejoin="round"/>
    <path d="M 137.07896423339844 126.07829284667969 C 199.79493713378906 140.39828491210938 138.34649658203125 111.4188003540039 159.89073181152344 128.8785858154297" stroke-width="2" fill="none" stroke="rgb(0, 0, 0)" stroke-opacity="1.0" stroke-linecap="round" stroke-linejoin="round"/>
    <path d="M 110.10061645507812 69.60588836669922 C 119.0545883178711 110.9154281616211 150.19656372070312 68.82433319091797 154.37901306152344 98.76502227783203" stroke-width="2" fill="none" stroke="rgb(0, 0, 0)" stroke-opacity="1.0" stroke-linecap="round" stroke-linejoin="round"/>
    <path d="M 109.7234878540039 122.17076873779297 C 141.68801879882812 92.76885223388672 118.0048828125 135.9354705810547 95.05687713623047 108.61905670166016" stroke-width="2" fill="none" stroke="rgb(0, 0, 0)" stroke-opacity="1.0" stroke-linecap="round" stroke-linejoin="round"/>
    <path d="M 114.4925537109375 95.42393493652344 C 50.52151107788086 91.38742065429688 149.229248046875 110.25008392333984 82.43507385253906 98.93093872070312" stroke-width="2" fill="none" stroke="rgb(0, 0, 0)" stroke-opacity="1.0" stroke-linecap="round" stroke-linejoin="round"/>
    <path d="M 107.7563247680664 80.81693267822266 C 114.37132263183594 110.23851776123047 33.04891586303711 62.13798141479492 54.440731048583984 147.61070251464844" stroke-width="2" fill="none" stroke="rgb(0, 0, 0)" stroke-opacity="1.0" stroke-linecap="round" stroke-linejoin="round"/>
    <path d="M 144.46881103515625 133.2280731201172 C 71.01203918457031 155.78048706054688 135.41810607910156 101.88604736328125 95.10723876953125 116.25887298583984" stroke-width="2" fill="none" stroke="rgb(0, 0, 0)" stroke-opacity="1.0" stroke-linecap="round" stroke-linejoin="round"/>
    <path d="M 115.77561950683594 111.7309341430664 C 149.31590270996094 144.45484924316406 88.34049987792969 118.13056945800781 130.8628387451172 126.4267578125" stroke-width="2" fill="none" stroke="rgb(0, 0, 0)" stroke-opacity="1.0" stroke-linecap="round" stroke-linejoin="round"/>
    <path d="M 169.11448669433594 120.71842956542969 C 205.25601196289062 7.376232147216797 166.3793182373047 95.0702896118164 152.47625732421875 87.28803253173828" stroke-width="2" fill="none" stroke="rgb(0, 0, 0)" stroke-opacity="1.0" stroke-linecap="round" stroke-linejoin="round"/>
    <path d="M 154.78668212890625 110.44937133789062 C 201.93869018554688 151.18978881835938 76.06906127929688 148.3644561767578 116.83186340332031 89.57262420654297" stroke-width="2" fill="none" stroke="rgb(0, 0, 0)" stroke-opacity="1.0" stroke-linecap="round" stroke-linejoin="round"/>
    <path d="M 71.60475158691406 149.7301483154297 C 23.651653289794922 135.83274841308594 80.75227355957031 151.5769500732422 154.955078125 156.9100799560547" stroke-width="2" fill="none" stroke="rgb(0, 0, 0)" stroke-opacity="1.0" stroke-linecap="round" stroke-linejoin="round"/>
    <path d="M 169.5185546875 148.90011596679688 C 127.27825927734375 152.54937744140625 139.5169677734375 152.10086059570312 150.322998046875 152.14227294921875" stroke-width="2" fill="none" stroke="rgb(0, 0, 0)" stroke-opacity="1.0" stroke-linecap="round" stroke-linejoin="round"/>
    <path d="M 178.3805694580078 105.61402893066406 C 186.54562377929688 76.81665802001953 149.14328002929688 122.3488540649414 174.0619354248047 107.8745346069336" stroke-width="2" fill="none" stroke="rgb(0, 0, 0)" stroke-opacity="1.0" stroke-linecap="round" stroke-linejoin="round"/>
    <path d="M 74.25263214111328 135.7582550048828 C 154.47015380859375 162.81198120117188 143.86541748046875 138.66802978515625 141.48399353027344 147.46475219726562" stroke-width="2" fill="none" stroke="rgb(0, 0, 0)" stroke-opacity="1.0" stroke-linecap="round" stroke-linejoin="round"/>
  </g>
</svg>
