<?xml version="1.0" ?>
<svg xmlns="http://www.w3.org/2000/svg" version="1.1" width="224" height="224">
  <defs/>
  <g>
    <path d="M 95.43328857421875 153.15538024902344 C -5.336002826690674 170.95420837402344 70.84904479980469 76.04964447021484 80.49346160888672 109.04383087158203" stroke-width="2" fill="none" stroke="rgb(0, 0, 0)" stroke-opacity="1.0" stroke-linecap="round" stroke-linejoin="round"/>
    <path d="M 108.40228271484375 118.41959381103516 C 147.50868225097656 111.85765838623047 65.19622802734375 129.0011444091797 142.8642120361328 127.84027099609375" stroke-width="2" fill="none" stroke="rgb(0, 0, 0)" stroke-opacity="1.0" stroke-linecap="round" stroke-linejoin="round"/>
    <path d="M 61.85487747192383 106.06147003173828 C 3.170234441757202 153.4423828125 243.71392822265625 187.32687377929688 157.18211364746094 106.7266845703125" stroke-width="2" fill="none" stroke="rgb(0, 0, 0)" stroke-opacity="1.0" stroke-linecap="round" stroke-linejoin="round"/>
    <path d="M 153.54673767089844 126.99419403076172 C 202.5699462890625 132.4899444580078 132.7453155517578 112.2389144897461 157.5821990966797 126.24475860595703" stroke-width="2" fill="none" stroke="rgb(0, 0, 0)" stroke-opacity="1.0" stroke-linecap="round" stroke-linejoin="round"/>
    <path d="M 108.96812438964844 78.51998901367188 C 118.12864685058594 111.21224975585938 141.08566284179688 80.45901489257812 134.0887451171875 109.72787475585938" stroke-width="2" fill="none" stroke="rgb(0, 0, 0)" stroke-opacity="1.0" stroke-linecap="round" stroke-linejoin="round"/>
    <path d="M 114.15642547607422 127.40328979492188 C 144.472412109375 100.24703216552734 113.31898498535156 133.9768829345703 103.93028259277344 115.93958282470703" stroke-width="2" fill="none" stroke="rgb(0, 0, 0)" stroke-opacity="1.0" stroke-linecap="round" stroke-linejoin="round"/>
    <path d="M 105.46464538574219 107.84757995605469 C 47.952579498291016 106.69506072998047 136.48861694335938 110.28632354736328 85.92436981201172 97.25597381591797" stroke-width="2" fill="none" stroke="rgb(0, 0, 0)" stroke-opacity="1.0" stroke-linecap="round" stroke-linejoin="round"/>
    <path d="M 100.62578582763672 73.31452941894531 C 124.93470001220703 116.85614013671875 44.441776275634766 62.738040924072266 56.951656341552734 134.15869140625" stroke-width="2" fill="none" stroke="rgb(0, 0, 0)" stroke-opacity="1.0" stroke-linecap="round" stroke-linejoin="round"/>
    <path d="M 145.6993408203125 138.9700469970703 C 72.17385864257812 162.2216033935547 128.00697326660156 98.27316284179688 92.13459014892578 121.66254425048828" stroke-width="2" fill="none" stroke="rgb(0, 0, 0)" stroke-opacity="1.0" stroke-linecap="round" stroke-linejoin="round"/>
    <path d="M 116.46636962890625 115.1211166381836 C 155.7485809326172 134.7178955078125 86.97407531738281 119.06002807617188 128.3657684326172 130.48245239257812" stroke-width="2" fill="none" stroke="rgb(0, 0, 0)" stroke-opacity="1.0" stroke-linecap="round" stroke-linejoin="round"/>
    <path d="M 169.75469970703125 125.7677001953125 C 205.30491638183594 6.649128437042236 168.1094512939453 106.30177307128906 139.4950714111328 95.18592834472656" stroke-width="2" fill="none" stroke="rgb(0, 0, 0)" stroke-opacity="1.0" stroke-linecap="round" stroke-linejoin="round"/>
    <path d="M 150.54908752441406 106.52716827392578 C 209.30398559570312 152.55824279785156 69.23759460449219 138.88885498046875 108.61174774169922 85.79926300048828" stroke-width="2" fill="none" stroke="rgb(0, 0, 0)" stroke-opacity="1.0" stroke-linecap="round" stroke-linejoin="round"/>
    <path d="M 66.65812683105469 152.26947021484375 C 24.951231002807617 137.8811492919922 79.92434692382812 159.98779296875 125.4203872680664 154.29832458496094" stroke-width="2" fill="none" stroke="rgb(0, 0, 0)" stroke-opacity="1.0" stroke-linecap="round" stroke-linejoin="round"/>
    <path d="M 169.35240173339844 149.36195373535156 C 113.07514953613281 147.5854949951172 132.21551513671875 147.229248046875 148.02639770507812 146.7523193359375" stroke-width="2" fill="none" stroke="rgb(0, 0, 0)" stroke-opacity="1.0" stroke-linecap="round" stroke-linejoin="round"/>
    <path d="M 185.69029235839844 102.81419372558594 C 184.91799926757812 86.90581512451172 151.9101104736328 131.07969665527344 169.94273376464844 106.00519561767578" stroke-width="2" fill="none" stroke="rgb(0, 0, 0)" stroke-opacity="1.0" stroke-linecap="round" stroke-linejoin="round"/>
    <path d="M 71.39140319824219 136.91554260253906 C 149.67904663085938 164.5010528564453 135.81394958496094 133.81735229492188 149.36032104492188 144.68545532226562" stroke-width="2" fill="none" stroke="rgb(0, 0, 0)" stroke-opacity="1.0" stroke-linecap="round" stroke-linejoin="round"/>
  </g>
</svg>
