<?xml version="1.0" ?>
<svg xmlns="http://www.w3.org/2000/svg" version="1.1" width="224" height="224">
  <defs/>
  <g>
    <path d="M 68.50858306884766 147.45968627929688 C -6.962766647338867 143.43133544921875 101.24324035644531 56.7413215637207 104.7318115234375 134.07595825195312" stroke-width="2" fill="none" stroke="rgb(0, 0, 0)" stroke-opacity="1.0" stroke-linecap="round" stroke-linejoin="round"/>
    <path d="M 151.01846313476562 143.71051025390625 C 222.5026092529297 145.15321350097656 78.71414184570312 155.16104125976562 124.37654113769531 122.42543029785156" stroke-width="2" fill="none" stroke="rgb(0, 0, 0)" stroke-opacity="1.0" stroke-linecap="round" stroke-linejoin="round"/>
    <path d="M 116.20262145996094 131.35833740234375 C 33.40512466430664 131.3123321533203 227.64024353027344 186.55372619628906 165.08912658691406 117.08494567871094" stroke-width="2" fill="none" stroke="rgb(0, 0, 0)" stroke-opacity="1.0" stroke-linecap="round" stroke-linejoin="round"/>
    <path d="M 134.93141174316406 103.5286865234375 C 174.53688049316406 106.28904724121094 99.37350463867188 115.22847747802734 166.2262725830078 105.62844848632812" stroke-width="2" fill="none" stroke="rgb(0, 0, 0)" stroke-opacity="1.0" stroke-linecap="round" stroke-linejoin="round"/>
    <path d="M 101.74382781982422 72.62271881103516 C 117.50990295410156 115.71776580810547 138.41188049316406 73.97624969482422 153.97645568847656 99.71505737304688" stroke-width="2" fill="none" stroke="rgb(0, 0, 0)" stroke-opacity="1.0" stroke-linecap="round" stroke-linejoin="round"/>
    <path d="M 108.54706573486328 89.36515045166016 C 59.48395538330078 109.75605010986328 118.98885345458984 107.7682113647461 112.11865997314453 90.87614440917969" stroke-width="2" fill="none" stroke="rgb(0, 0, 0)" stroke-opacity="1.0" stroke-linecap="round" stroke-linejoin="round"/>
    <path d="M 103.19123077392578 123.94581604003906 C 107.46957397460938 58.11936569213867 151.87954711914062 118.4219970703125 117.75943756103516 89.6238784790039" stroke-width="2" fill="none" stroke="rgb(0, 0, 0)" stroke-opacity="1.0" stroke-linecap="round" stroke-linejoin="round"/>
    <path d="M 159.18026733398438 153.30032348632812 C 135.07725524902344 147.4940948486328 8.05939769744873 166.91590881347656 52.29453659057617 109.76734924316406" stroke-width="2" fill="none" stroke="rgb(0, 0, 0)" stroke-opacity="1.0" stroke-linecap="round" stroke-linejoin="round"/>
    <path d="M 141.77110290527344 123.41438293457031 C 105.57535552978516 128.8355712890625 195.841552734375 130.91639709472656 139.01278686523438 120.70907592773438" stroke-width="2" fill="none" stroke="rgb(0, 0, 0)" stroke-opacity="1.0" stroke-linecap="round" stroke-linejoin="round"/>
    <path d="M 140.00462341308594 130.41529846191406 C 166.0331573486328 119.1224365234375 112.97547149658203 133.0699920654297 143.84912109375 117.16175842285156" stroke-width="2" fill="none" stroke="rgb(0, 0, 0)" stroke-opacity="1.0" stroke-linecap="round" stroke-linejoin="round"/>
    <path d="M 188.38613891601562 69.121826171875 C 181.56527709960938 56.02328872680664 165.21609497070312 99.01367950439453 145.5045928955078 91.54002380371094" stroke-width="2" fill="none" stroke="rgb(0, 0, 0)" stroke-opacity="1.0" stroke-linecap="round" stroke-linejoin="round"/>
    <path d="M 145.64361572265625 128.42552185058594 C 170.4097900390625 150.9724884033203 48.58510208129883 116.50282287597656 88.39045715332031 118.2762222290039" stroke-width="2" fill="none" stroke="rgb(0, 0, 0)" stroke-opacity="1.0" stroke-linecap="round" stroke-linejoin="round"/>
    <path d="M 101.0511245727539 144.31106567382812 C -19.582897186279297 104.6392593383789 187.77908325195312 158.83282470703125 166.860107421875 142.70765686035156" stroke-width="2" fill="none" stroke="rgb(0, 0, 0)" stroke-opacity="1.0" stroke-linecap="round" stroke-linejoin="round"/>
    <path d="M 112.1247787475586 122.5333023071289 C 148.06126403808594 116.78388214111328 176.4147491455078 141.74778747558594 153.64108276367188 106.50212860107422" stroke-width="2" fill="none" stroke="rgb(0, 0, 0)" stroke-opacity="1.0" stroke-linecap="round" stroke-linejoin="round"/>
    <path d="M 168.59786987304688 119.1304702758789 C 132.51856994628906 89.38321685791016 177.73480224609375 156.02822875976562 185.08737182617188 75.0186996459961" stroke-width="2" fill="none" stroke="rgb(0, 0, 0)" stroke-opacity="1.0" stroke-linecap="round" stroke-linejoin="round"/>
    <path d="M 154.84841918945312 129.88009643554688 C 135.20762634277344 160.837158203125 204.68226623535156 78.73072052001953 171.17141723632812 101.11801147460938" stroke-width="2" fill="none" stroke="rgb(0, 0, 0)" stroke-opacity="1.0" stroke-linecap="round" stroke-linejoin="round"/>
  </g>
</svg>
