<?xml version="1.0" ?>
<svg xmlns="http://www.w3.org/2000/svg" version="1.1" width="224" height="224">
  <defs/>
  <g>
    <path d="M 85.39408874511719 143.31216430664062 C 19.062191009521484 129.4159698486328 45.5438117980957 60.32176208496094 123.7235336303711 118.09716033935547" stroke-width="2" fill="none" stroke="rgb(0, 0, 0)" stroke-opacity="1.0" stroke-linecap="round" stroke-linejoin="round"/>
    <path d="M 169.4073028564453 133.52456665039062 C 195.16909790039062 144.4813995361328 47.28956604003906 138.16940307617188 47.11254119873047 142.0572509765625" stroke-width="2" fill="none" stroke="rgb(0, 0, 0)" stroke-opacity="1.0" stroke-linecap="round" stroke-linejoin="round"/>
    <path d="M 74.09867095947266 120.89615631103516 C 8.279435157775879 116.38157653808594 97.18212890625 155.73866271972656 126.40898132324219 150.88534545898438" stroke-width="2" fill="none" stroke="rgb(0, 0, 0)" stroke-opacity="1.0" stroke-linecap="round" stroke-linejoin="round"/>
    <path d="M 166.1103973388672 107.43563842773438 C 150.4171600341797 92.50286865234375 189.17552185058594 87.82479858398438 161.03500366210938 112.84022521972656" stroke-width="2" fill="none" stroke="rgb(0, 0, 0)" stroke-opacity="1.0" stroke-linecap="round" stroke-linejoin="round"/>
    <path d="M 88.04205322265625 77.34591674804688 C 121.42608642578125 116.24906921386719 158.65817260742188 58.557891845703125 167.04147338867188 104.04478454589844" stroke-width="2" fill="none" stroke="rgb(0, 0, 0)" stroke-opacity="1.0" stroke-linecap="round" stroke-linejoin="round"/>
    <path d="M 118.04812622070312 116.30526733398438 C 68.82296752929688 68.40409851074219 125.17495727539062 107.04789733886719 77.23379516601562 99.37203216552734" stroke-width="2" fill="none" stroke="rgb(0, 0, 0)" stroke-opacity="1.0" stroke-linecap="round" stroke-linejoin="round"/>
    <path d="M 110.35103607177734 145.2731475830078 C 70.06367492675781 110.17254638671875 166.99098205566406 97.42675018310547 79.1747817993164 101.5962142944336" stroke-width="2" fill="none" stroke="rgb(0, 0, 0)" stroke-opacity="1.0" stroke-linecap="round" stroke-linejoin="round"/>
    <path d="M 150.13710021972656 151.3769989013672 C 109.24254608154297 147.01844787597656 -2.1088433265686035 168.02264404296875 61.76528549194336 104.48395538330078" stroke-width="2" fill="none" stroke="rgb(0, 0, 0)" stroke-opacity="1.0" stroke-linecap="round" stroke-linejoin="round"/>
    <path d="M 150.75335693359375 113.41057586669922 C 117.28226470947266 98.96279907226562 187.67984008789062 111.20967864990234 139.035888671875 108.12825775146484" stroke-width="2" fill="none" stroke="rgb(0, 0, 0)" stroke-opacity="1.0" stroke-linecap="round" stroke-linejoin="round"/>
    <path d="M 137.05517578125 116.91255950927734 C 183.3402557373047 124.30387115478516 102.30707550048828 129.43922424316406 135.86276245117188 118.57930755615234" stroke-width="2" fill="none" stroke="rgb(0, 0, 0)" stroke-opacity="1.0" stroke-linecap="round" stroke-linejoin="round"/>
    <path d="M 184.60488891601562 63.68008804321289 C 170.893310546875 59.84346008300781 161.77622985839844 105.6195297241211 140.7965087890625 87.2363052368164" stroke-width="2" fill="none" stroke="rgb(0, 0, 0)" stroke-opacity="1.0" stroke-linecap="round" stroke-linejoin="round"/>
    <path d="M 182.18173217773438 143.59678649902344 C 180.87464904785156 156.25152587890625 102.98699188232422 156.81021118164062 154.73736572265625 156.83409118652344" stroke-width="2" fill="none" stroke="rgb(0, 0, 0)" stroke-opacity="1.0" stroke-linecap="round" stroke-linejoin="round"/>
    <path d="M 83.69474029541016 113.38267517089844 C 95.30005645751953 134.30426025390625 193.06536865234375 131.6322479248047 159.44195556640625 121.23536682128906" stroke-width="2" fill="none" stroke="rgb(0, 0, 0)" stroke-opacity="1.0" stroke-linecap="round" stroke-linejoin="round"/>
    <path d="M 88.3045425415039 103.31521606445312 C 133.80517578125 103.60082244873047 104.12984466552734 87.9210433959961 110.6785659790039 122.89768981933594" stroke-width="2" fill="none" stroke="rgb(0, 0, 0)" stroke-opacity="1.0" stroke-linecap="round" stroke-linejoin="round"/>
    <path d="M 165.44961547851562 125.96198272705078 C 172.68020629882812 74.74462890625 182.15480041503906 118.87904357910156 182.81297302246094 65.552490234375" stroke-width="2" fill="none" stroke="rgb(0, 0, 0)" stroke-opacity="1.0" stroke-linecap="round" stroke-linejoin="round"/>
    <path d="M 117.61280059814453 115.52458190917969 C 88.8755874633789 110.12098693847656 145.99081420898438 118.41728973388672 110.48738098144531 115.31971740722656" stroke-width="2" fill="none" stroke="rgb(0, 0, 0)" stroke-opacity="1.0" stroke-linecap="round" stroke-linejoin="round"/>
  </g>
</svg>
