<?xml version="1.0" ?>
<svg xmlns="http://www.w3.org/2000/svg" version="1.1" width="224" height="224">
  <defs/>
  <g>
    <path d="M 94.23316192626953 153.96661376953125 C -18.144487380981445 156.91917419433594 77.6296615600586 49.86985397338867 116.34236907958984 112.50504302978516" stroke-width="2" fill="none" stroke="rgb(0, 0, 0)" stroke-opacity="1.0" stroke-linecap="round" stroke-linejoin="round"/>
    <path d="M 126.36991119384766 103.93883514404297 C 175.7682342529297 98.53746795654297 60.39328384399414 126.74227142333984 105.62216186523438 121.86844635009766" stroke-width="2" fill="none" stroke="rgb(0, 0, 0)" stroke-opacity="1.0" stroke-linecap="round" stroke-linejoin="round"/>
    <path d="M 52.36683654785156 123.1655502319336 C -11.74425983428955 161.883056640625 233.999267578125 170.8580780029297 165.7458038330078 129.9836883544922" stroke-width="2" fill="none" stroke="rgb(0, 0, 0)" stroke-opacity="1.0" stroke-linecap="round" stroke-linejoin="round"/>
    <path d="M 121.48811340332031 109.03152465820312 C 195.72183227539062 128.56446838378906 104.01679992675781 110.47850799560547 146.42514038085938 124.2907485961914" stroke-width="2" fill="none" stroke="rgb(0, 0, 0)" stroke-opacity="1.0" stroke-linecap="round" stroke-linejoin="round"/>
    <path d="M 108.30717468261719 66.76695251464844 C 120.34709930419922 110.40272521972656 143.40682983398438 64.01802062988281 154.63687133789062 103.1054916381836" stroke-width="2" fill="none" stroke="rgb(0, 0, 0)" stroke-opacity="1.0" stroke-linecap="round" stroke-linejoin="round"/>
    <path d="M 105.38325500488281 109.00067901611328 C 123.63079071044922 95.1433334350586 118.66785430908203 104.41971588134766 106.69831848144531 122.25717163085938" stroke-width="2" fill="none" stroke="rgb(0, 0, 0)" stroke-opacity="1.0" stroke-linecap="round" stroke-linejoin="round"/>
    <path d="M 101.8244857788086 130.19964599609375 C 37.70807647705078 96.95856475830078 171.74533081054688 157.73245239257812 57.50996398925781 113.27909088134766" stroke-width="2" fill="none" stroke="rgb(0, 0, 0)" stroke-opacity="1.0" stroke-linecap="round" stroke-linejoin="round"/>
    <path d="M 96.3751220703125 95.93925476074219 C 154.9358673095703 117.2117919921875 9.41415786743164 74.17976379394531 51.93970489501953 146.41943359375" stroke-width="2" fill="none" stroke="rgb(0, 0, 0)" stroke-opacity="1.0" stroke-linecap="round" stroke-linejoin="round"/>
    <path d="M 153.5441436767578 143.28945922851562 C 69.7190170288086 132.65733337402344 157.3419647216797 113.51484680175781 84.45092010498047 114.03832244873047" stroke-width="2" fill="none" stroke="rgb(0, 0, 0)" stroke-opacity="1.0" stroke-linecap="round" stroke-linejoin="round"/>
    <path d="M 137.0875701904297 128.77734375 C 168.9905548095703 119.32957458496094 108.00572204589844 115.05025482177734 159.89585876464844 130.4272003173828" stroke-width="2" fill="none" stroke="rgb(0, 0, 0)" stroke-opacity="1.0" stroke-linecap="round" stroke-linejoin="round"/>
    <path d="M 175.89418029785156 99.1439437866211 C 198.76348876953125 17.86180305480957 162.2757568359375 98.93142700195312 148.0784149169922 86.49172973632812" stroke-width="2" fill="none" stroke="rgb(0, 0, 0)" stroke-opacity="1.0" stroke-linecap="round" stroke-linejoin="round"/>
    <path d="M 162.7506103515625 124.81800079345703 C 179.82640075683594 121.28976440429688 94.42888641357422 151.6803436279297 109.23162841796875 79.54117584228516" stroke-width="2" fill="none" stroke="rgb(0, 0, 0)" stroke-opacity="1.0" stroke-linecap="round" stroke-linejoin="round"/>
    <path d="M 86.80036926269531 140.9261474609375 C 36.958953857421875 114.51573181152344 92.19580078125 155.4383087158203 152.35848999023438 148.51551818847656" stroke-width="2" fill="none" stroke="rgb(0, 0, 0)" stroke-opacity="1.0" stroke-linecap="round" stroke-linejoin="round"/>
    <path d="M 173.2861785888672 143.25267028808594 C 135.6721649169922 134.09823608398438 172.2638702392578 143.35121154785156 176.54917907714844 145.4057159423828" stroke-width="2" fill="none" stroke="rgb(0, 0, 0)" stroke-opacity="1.0" stroke-linecap="round" stroke-linejoin="round"/>
    <path d="M 160.12527465820312 131.65908813476562 C 170.81065368652344 78.23197937011719 146.3123779296875 136.9916534423828 168.95335388183594 103.00332641601562" stroke-width="2" fill="none" stroke="rgb(0, 0, 0)" stroke-opacity="1.0" stroke-linecap="round" stroke-linejoin="round"/>
    <path d="M 98.73988342285156 120.59928131103516 C 140.71075439453125 164.3557586669922 121.88386535644531 136.56727600097656 145.6736602783203 139.38694763183594" stroke-width="2" fill="none" stroke="rgb(0, 0, 0)" stroke-opacity="1.0" stroke-linecap="round" stroke-linejoin="round"/>
  </g>
</svg>
