<?xml version="1.0" ?>
<svg xmlns="http://www.w3.org/2000/svg" version="1.1" width="224" height="224">
  <defs/>
  <g>
    <path d="M 94.51173400878906 135.43995666503906 C 48.75255584716797 131.47503662109375 29.544797897338867 94.3764877319336 113.72416687011719 95.5650863647461" stroke-width="2" fill="none" stroke="rgb(0, 0, 0)" stroke-opacity="1.0" stroke-linecap="round" stroke-linejoin="round"/>
    <path d="M 121.88165283203125 152.52291870117188 C 123.26314544677734 147.78941345214844 77.6947021484375 149.85353088378906 72.71918487548828 138.12100219726562" stroke-width="2" fill="none" stroke="rgb(0, 0, 0)" stroke-opacity="1.0" stroke-linecap="round" stroke-linejoin="round"/>
    <path d="M 151.3311004638672 129.48097229003906 C 46.94926071166992 122.47746276855469 114.75672912597656 146.38638305664062 168.9690399169922 147.29013061523438" stroke-width="2" fill="none" stroke="rgb(0, 0, 0)" stroke-opacity="1.0" stroke-linecap="round" stroke-linejoin="round"/>
    <path d="M 166.876220703125 118.20838165283203 C 146.38694763183594 137.69967651367188 190.03500366210938 122.21407318115234 149.01931762695312 124.61329650878906" stroke-width="2" fill="none" stroke="rgb(0, 0, 0)" stroke-opacity="1.0" stroke-linecap="round" stroke-linejoin="round"/>
    <path d="M 116.15673828125 100.92539978027344 C 94.80062866210938 113.2976303100586 135.0687713623047 69.92012786865234 165.4246826171875 98.93482971191406" stroke-width="2" fill="none" stroke="rgb(0, 0, 0)" stroke-opacity="1.0" stroke-linecap="round" stroke-linejoin="round"/>
    <path d="M 106.45413208007812 91.12796783447266 C 105.58842468261719 75.52493286132812 126.92267608642578 108.86795806884766 103.88187408447266 79.48147583007812" stroke-width="2" fill="none" stroke="rgb(0, 0, 0)" stroke-opacity="1.0" stroke-linecap="round" stroke-linejoin="round"/>
    <path d="M 102.5333023071289 68.74168395996094 C 113.2836685180664 96.79088592529297 157.19815063476562 90.94620513916016 126.77889251708984 107.65786743164062" stroke-width="2" fill="none" stroke="rgb(0, 0, 0)" stroke-opacity="1.0" stroke-linecap="round" stroke-linejoin="round"/>
    <path d="M 81.50068664550781 143.53317260742188 C 108.25859832763672 150.35211181640625 1.5671926736831665 157.0115966796875 67.78333282470703 99.43924713134766" stroke-width="2" fill="none" stroke="rgb(0, 0, 0)" stroke-opacity="1.0" stroke-linecap="round" stroke-linejoin="round"/>
    <path d="M 115.0458755493164 117.35228729248047 C 99.23297882080078 146.26121520996094 164.34413146972656 139.15965270996094 127.92816162109375 127.87191009521484" stroke-width="2" fill="none" stroke="rgb(0, 0, 0)" stroke-opacity="1.0" stroke-linecap="round" stroke-linejoin="round"/>
    <path d="M 135.2313232421875 114.4483413696289 C 192.6493682861328 111.60735321044922 130.27403259277344 132.61585998535156 144.93914794921875 91.4274673461914" stroke-width="2" fill="none" stroke="rgb(0, 0, 0)" stroke-opacity="1.0" stroke-linecap="round" stroke-linejoin="round"/>
    <path d="M 184.2014617919922 63.13224411010742 C 161.54942321777344 76.56517028808594 178.3282012939453 97.99713134765625 147.0859832763672 89.16492462158203" stroke-width="2" fill="none" stroke="rgb(0, 0, 0)" stroke-opacity="1.0" stroke-linecap="round" stroke-linejoin="round"/>
    <path d="M 173.81875610351562 141.50588989257812 C 176.03851318359375 150.96363830566406 146.8975067138672 161.49232482910156 119.03023529052734 156.43295288085938" stroke-width="2" fill="none" stroke="rgb(0, 0, 0)" stroke-opacity="1.0" stroke-linecap="round" stroke-linejoin="round"/>
    <path d="M 56.97935104370117 139.81040954589844 C 56.21244430541992 157.53233337402344 147.5952911376953 154.75828552246094 127.14055633544922 151.6471710205078" stroke-width="2" fill="none" stroke="rgb(0, 0, 0)" stroke-opacity="1.0" stroke-linecap="round" stroke-linejoin="round"/>
    <path d="M 111.12510681152344 90.50376892089844 C 108.32604217529297 55.74280548095703 91.85816192626953 55.43991470336914 114.53923034667969 100.99127197265625" stroke-width="2" fill="none" stroke="rgb(0, 0, 0)" stroke-opacity="1.0" stroke-linecap="round" stroke-linejoin="round"/>
    <path d="M 168.84243774414062 115.35406494140625 C 164.8430633544922 82.7475357055664 170.93145751953125 139.4822998046875 180.0018310546875 66.8875732421875" stroke-width="2" fill="none" stroke="rgb(0, 0, 0)" stroke-opacity="1.0" stroke-linecap="round" stroke-linejoin="round"/>
    <path d="M 66.42818450927734 106.05558776855469 C 111.79611206054688 100.421142578125 97.48921966552734 131.388427734375 103.25464630126953 109.24923706054688" stroke-width="2" fill="none" stroke="rgb(0, 0, 0)" stroke-opacity="1.0" stroke-linecap="round" stroke-linejoin="round"/>
  </g>
</svg>
