<?xml version="1.0" ?>
<svg xmlns="http://www.w3.org/2000/svg" version="1.1" width="224" height="224">
  <defs/>
  <g>
    <path d="M 144.07534790039062 151.15231323242188 C 64.9500961303711 150.0128173828125 54.56264114379883 143.72158813476562 45.99198532104492 127.27556610107422" stroke-width="2" fill="none" stroke="rgb(0, 0, 0)" stroke-opacity="1.0" stroke-linecap="round" stroke-linejoin="round"/>
    <path d="M 89.38904571533203 108.4885025024414 C 134.06996154785156 95.42991638183594 65.1505355834961 128.6275634765625 158.32119750976562 119.670654296875" stroke-width="2" fill="none" stroke="rgb(0, 0, 0)" stroke-opacity="1.0" stroke-linecap="round" stroke-linejoin="round"/>
    <path d="M 57.77577209472656 101.12936401367188 C -18.44715118408203 172.89569091796875 232.5740509033203 117.14762115478516 153.41233825683594 146.5765380859375" stroke-width="2" fill="none" stroke="rgb(0, 0, 0)" stroke-opacity="1.0" stroke-linecap="round" stroke-linejoin="round"/>
    <path d="M 148.2636260986328 104.2990493774414 C 180.9167022705078 105.00519561767578 147.74298095703125 117.6596450805664 144.4423370361328 92.187255859375" stroke-width="2" fill="none" stroke="rgb(0, 0, 0)" stroke-opacity="1.0" stroke-linecap="round" stroke-linejoin="round"/>
    <path d="M 98.41586303710938 71.84236145019531 C 124.43106842041016 98.47269439697266 116.29866790771484 65.9419174194336 146.18209838867188 85.10594177246094" stroke-width="2" fill="none" stroke="rgb(0, 0, 0)" stroke-opacity="1.0" stroke-linecap="round" stroke-linejoin="round"/>
    <path d="M 117.7222900390625 112.95030212402344 C 168.5279541015625 96.08499908447266 87.84803009033203 106.32221221923828 129.60220336914062 115.59025573730469" stroke-width="2" fill="none" stroke="rgb(0, 0, 0)" stroke-opacity="1.0" stroke-linecap="round" stroke-linejoin="round"/>
    <path d="M 130.97154235839844 125.15029907226562 C 115.18641662597656 103.49275970458984 77.17084503173828 137.46546936035156 142.64926147460938 135.4757537841797" stroke-width="2" fill="none" stroke="rgb(0, 0, 0)" stroke-opacity="1.0" stroke-linecap="round" stroke-linejoin="round"/>
    <path d="M 98.7527084350586 67.90479278564453 C 124.4234619140625 134.3870391845703 56.12915802001953 68.89783477783203 51.737430572509766 112.77702331542969" stroke-width="2" fill="none" stroke="rgb(0, 0, 0)" stroke-opacity="1.0" stroke-linecap="round" stroke-linejoin="round"/>
    <path d="M 155.0070343017578 128.293212890625 C 180.15235900878906 116.48175811767578 144.62513732910156 108.98455810546875 158.5601806640625 127.86843872070312" stroke-width="2" fill="none" stroke="rgb(0, 0, 0)" stroke-opacity="1.0" stroke-linecap="round" stroke-linejoin="round"/>
    <path d="M 130.3677520751953 154.3958740234375 C 224.31988525390625 152.21795654296875 125.3912582397461 109.48604583740234 157.60519409179688 125.22894287109375" stroke-width="2" fill="none" stroke="rgb(0, 0, 0)" stroke-opacity="1.0" stroke-linecap="round" stroke-linejoin="round"/>
    <path d="M 169.35992431640625 112.97879791259766 C 200.32920837402344 -1.1861611604690552 160.27577209472656 97.47604370117188 144.88226318359375 87.4297103881836" stroke-width="2" fill="none" stroke="rgb(0, 0, 0)" stroke-opacity="1.0" stroke-linecap="round" stroke-linejoin="round"/>
    <path d="M 108.42691040039062 92.64546203613281 C 128.29896545410156 67.29180908203125 87.84099578857422 85.64361572265625 110.75398254394531 99.81143951416016" stroke-width="2" fill="none" stroke="rgb(0, 0, 0)" stroke-opacity="1.0" stroke-linecap="round" stroke-linejoin="round"/>
    <path d="M 120.01829528808594 153.03512573242188 C 15.095352172851562 125.15320587158203 105.68048858642578 145.32395935058594 77.28140258789062 145.43695068359375" stroke-width="2" fill="none" stroke="rgb(0, 0, 0)" stroke-opacity="1.0" stroke-linecap="round" stroke-linejoin="round"/>
    <path d="M 89.36339569091797 133.4817352294922 C 44.81052017211914 107.29861450195312 191.781005859375 175.57382202148438 178.19171142578125 131.00982666015625" stroke-width="2" fill="none" stroke="rgb(0, 0, 0)" stroke-opacity="1.0" stroke-linecap="round" stroke-linejoin="round"/>
    <path d="M 173.11582946777344 97.88818359375 C 187.96607971191406 124.63784790039062 128.87857055664062 113.50897979736328 157.9620361328125 122.48221588134766" stroke-width="2" fill="none" stroke="rgb(0, 0, 0)" stroke-opacity="1.0" stroke-linecap="round" stroke-linejoin="round"/>
    <path d="M 131.50096130371094 117.48584747314453 C 89.52526092529297 121.95394897460938 164.7684326171875 103.01172637939453 118.21366882324219 125.5307846069336" stroke-width="2" fill="none" stroke="rgb(0, 0, 0)" stroke-opacity="1.0" stroke-linecap="round" stroke-linejoin="round"/>
  </g>
</svg>
