<?xml version="1.0" ?>
<svg xmlns="http://www.w3.org/2000/svg" version="1.1" width="224" height="224">
  <defs/>
  <g>
    <path d="M 106.63459014892578 154.9027862548828 C 14.03311538696289 155.7501220703125 50.042640686035156 115.75605773925781 45.02604675292969 132.98538208007812" stroke-width="2" fill="none" stroke="rgb(0, 0, 0)" stroke-opacity="1.0" stroke-linecap="round" stroke-linejoin="round"/>
    <path d="M 55.14619445800781 110.08406066894531 C 159.19972229003906 128.0922393798828 44.129066467285156 117.6107406616211 159.9151611328125 122.54308319091797" stroke-width="2" fill="none" stroke="rgb(0, 0, 0)" stroke-opacity="1.0" stroke-linecap="round" stroke-linejoin="round"/>
    <path d="M 50.33793640136719 126.02880096435547 C 2.696579694747925 148.65640258789062 231.17547607421875 194.40882873535156 162.08509826660156 106.46769714355469" stroke-width="2" fill="none" stroke="rgb(0, 0, 0)" stroke-opacity="1.0" stroke-linecap="round" stroke-linejoin="round"/>
    <path d="M 121.36079406738281 133.4538116455078 C 189.4364776611328 133.76882934570312 82.77009582519531 120.64533233642578 155.82196044921875 134.44479370117188" stroke-width="2" fill="none" stroke="rgb(0, 0, 0)" stroke-opacity="1.0" stroke-linecap="round" stroke-linejoin="round"/>
    <path d="M 99.8358154296875 71.20896911621094 C 123.39494323730469 98.09405517578125 125.67839050292969 60.24900436401367 146.9418487548828 81.01972961425781" stroke-width="2" fill="none" stroke="rgb(0, 0, 0)" stroke-opacity="1.0" stroke-linecap="round" stroke-linejoin="round"/>
    <path d="M 107.68925476074219 105.69998931884766 C 137.80667114257812 120.82207489013672 85.1434555053711 111.77755737304688 115.2928466796875 87.30168151855469" stroke-width="2" fill="none" stroke="rgb(0, 0, 0)" stroke-opacity="1.0" stroke-linecap="round" stroke-linejoin="round"/>
    <path d="M 151.43589782714844 119.6573715209961 C 135.97927856445312 102.8849105834961 170.22079467773438 169.67550659179688 106.47783660888672 119.20352172851562" stroke-width="2" fill="none" stroke="rgb(0, 0, 0)" stroke-opacity="1.0" stroke-linecap="round" stroke-linejoin="round"/>
    <path d="M 106.22334289550781 80.68559265136719 C 123.54006958007812 151.63796997070312 35.73495864868164 67.66941833496094 43.62409591674805 140.46466064453125" stroke-width="2" fill="none" stroke="rgb(0, 0, 0)" stroke-opacity="1.0" stroke-linecap="round" stroke-linejoin="round"/>
    <path d="M 138.71824645996094 124.47515106201172 C 94.50648498535156 150.14682006835938 187.83790588378906 107.43435668945312 154.8456268310547 126.5797119140625" stroke-width="2" fill="none" stroke="rgb(0, 0, 0)" stroke-opacity="1.0" stroke-linecap="round" stroke-linejoin="round"/>
    <path d="M 71.75629425048828 132.60946655273438 C 185.1146697998047 171.7718963623047 92.17456817626953 144.14491271972656 114.22417449951172 120.9669418334961" stroke-width="2" fill="none" stroke="rgb(0, 0, 0)" stroke-opacity="1.0" stroke-linecap="round" stroke-linejoin="round"/>
    <path d="M 163.40065002441406 115.49781799316406 C 208.66285705566406 5.287937641143799 152.26873779296875 91.15886688232422 157.78387451171875 80.69593811035156" stroke-width="2" fill="none" stroke="rgb(0, 0, 0)" stroke-opacity="1.0" stroke-linecap="round" stroke-linejoin="round"/>
    <path d="M 121.40618133544922 110.65283966064453 C 154.84832763671875 106.014892578125 86.01971435546875 131.6771240234375 98.20985412597656 116.30156707763672" stroke-width="2" fill="none" stroke="rgb(0, 0, 0)" stroke-opacity="1.0" stroke-linecap="round" stroke-linejoin="round"/>
    <path d="M 98.19570922851562 152.35202026367188 C 55.94025802612305 141.60879516601562 95.30436706542969 148.37600708007812 168.64039611816406 144.7662353515625" stroke-width="2" fill="none" stroke="rgb(0, 0, 0)" stroke-opacity="1.0" stroke-linecap="round" stroke-linejoin="round"/>
    <path d="M 150.42227172851562 144.0691375732422 C 84.41670989990234 108.19803619384766 197.61695861816406 132.8817901611328 126.40838623046875 152.62716674804688" stroke-width="2" fill="none" stroke="rgb(0, 0, 0)" stroke-opacity="1.0" stroke-linecap="round" stroke-linejoin="round"/>
    <path d="M 175.71543884277344 89.98356628417969 C 174.8483123779297 54.18351364135742 180.2695770263672 103.82947540283203 148.77442932128906 88.7977294921875" stroke-width="2" fill="none" stroke="rgb(0, 0, 0)" stroke-opacity="1.0" stroke-linecap="round" stroke-linejoin="round"/>
    <path d="M 87.70076751708984 138.4717559814453 C 196.82077026367188 176.12733459472656 190.95191955566406 125.64832305908203 154.2960662841797 142.0685577392578" stroke-width="2" fill="none" stroke="rgb(0, 0, 0)" stroke-opacity="1.0" stroke-linecap="round" stroke-linejoin="round"/>
  </g>
</svg>
