<?xml version="1.0" ?>
<svg xmlns="http://www.w3.org/2000/svg" version="1.1" width="224" height="224">
  <defs/>
  <g>
    <path d="M 154.96543884277344 146.98231506347656 C 72.44053649902344 134.48133850097656 47.55744552612305 140.33248901367188 46.26579284667969 121.7826156616211" stroke-width="2" fill="none" stroke="rgb(0, 0, 0)" stroke-opacity="1.0" stroke-linecap="round" stroke-linejoin="round"/>
    <path d="M 68.7843246459961 103.5213623046875 C 156.9231414794922 95.5164794921875 63.53290939331055 140.38510131835938 145.32681274414062 135.3163299560547" stroke-width="2" fill="none" stroke="rgb(0, 0, 0)" stroke-opacity="1.0" stroke-linecap="round" stroke-linejoin="round"/>
    <path d="M 56.925228118896484 113.59426879882812 C -25.927993774414062 172.55712890625 231.3831024169922 156.2279510498047 156.441162109375 141.73338317871094" stroke-width="2" fill="none" stroke="rgb(0, 0, 0)" stroke-opacity="1.0" stroke-linecap="round" stroke-linejoin="round"/>
    <path d="M 110.03718566894531 111.2732925415039 C 204.29135131835938 108.8357925415039 116.3416976928711 93.9688949584961 162.57119750976562 101.75181579589844" stroke-width="2" fill="none" stroke="rgb(0, 0, 0)" stroke-opacity="1.0" stroke-linecap="round" stroke-linejoin="round"/>
    <path d="M 100.61534118652344 73.3719253540039 C 123.82064056396484 100.6640625 126.60867309570312 66.26848602294922 151.48715209960938 93.61056518554688" stroke-width="2" fill="none" stroke="rgb(0, 0, 0)" stroke-opacity="1.0" stroke-linecap="round" stroke-linejoin="round"/>
    <path d="M 109.89413452148438 121.24830627441406 C 169.64022827148438 87.61380004882812 77.99112701416016 119.93689727783203 118.35556030273438 119.65123748779297" stroke-width="2" fill="none" stroke="rgb(0, 0, 0)" stroke-opacity="1.0" stroke-linecap="round" stroke-linejoin="round"/>
    <path d="M 88.74590301513672 125.59805297851562 C 96.48152160644531 103.4966812133789 69.77922821044922 115.04415893554688 119.31892395019531 152.89109802246094" stroke-width="2" fill="none" stroke="rgb(0, 0, 0)" stroke-opacity="1.0" stroke-linecap="round" stroke-linejoin="round"/>
    <path d="M 110.26930236816406 93.07775115966797 C 107.73030853271484 126.72382354736328 53.83651351928711 72.15424346923828 40.71653366088867 138.2061767578125" stroke-width="2" fill="none" stroke="rgb(0, 0, 0)" stroke-opacity="1.0" stroke-linecap="round" stroke-linejoin="round"/>
    <path d="M 143.68719482421875 125.04761505126953 C 123.45283508300781 122.5087661743164 168.57583618164062 129.17861938476562 121.28388977050781 113.87528991699219" stroke-width="2" fill="none" stroke="rgb(0, 0, 0)" stroke-opacity="1.0" stroke-linecap="round" stroke-linejoin="round"/>
    <path d="M 135.3027801513672 157.57493591308594 C 218.2032470703125 159.5844268798828 138.58921813964844 124.70649719238281 171.1664581298828 111.35069274902344" stroke-width="2" fill="none" stroke="rgb(0, 0, 0)" stroke-opacity="1.0" stroke-linecap="round" stroke-linejoin="round"/>
    <path d="M 173.72158813476562 107.36148834228516 C 205.25433349609375 21.259326934814453 159.71348571777344 98.66590881347656 150.7815704345703 88.49111938476562" stroke-width="2" fill="none" stroke="rgb(0, 0, 0)" stroke-opacity="1.0" stroke-linecap="round" stroke-linejoin="round"/>
    <path d="M 101.5127182006836 92.04630279541016 C 106.83866882324219 63.10817337036133 100.22701263427734 104.0651626586914 111.85393524169922 83.23267364501953" stroke-width="2" fill="none" stroke="rgb(0, 0, 0)" stroke-opacity="1.0" stroke-linecap="round" stroke-linejoin="round"/>
    <path d="M 92.93724822998047 151.02346801757812 C 2.5920395851135254 109.02188110351562 85.82839965820312 142.7917938232422 109.43233489990234 146.3975830078125" stroke-width="2" fill="none" stroke="rgb(0, 0, 0)" stroke-opacity="1.0" stroke-linecap="round" stroke-linejoin="round"/>
    <path d="M 80.41065216064453 124.6179428100586 C 37.61227035522461 110.47393798828125 186.26670837402344 182.913330078125 176.6756134033203 132.74510192871094" stroke-width="2" fill="none" stroke="rgb(0, 0, 0)" stroke-opacity="1.0" stroke-linecap="round" stroke-linejoin="round"/>
    <path d="M 131.87339782714844 123.2958755493164 C 163.32415771484375 94.47821044921875 115.52904510498047 95.41270446777344 162.54733276367188 114.24149322509766" stroke-width="2" fill="none" stroke="rgb(0, 0, 0)" stroke-opacity="1.0" stroke-linecap="round" stroke-linejoin="round"/>
    <path d="M 157.29652404785156 123.55290985107422 C 89.25818634033203 126.64028930664062 176.82064819335938 124.43834686279297 119.60570526123047 113.60050201416016" stroke-width="2" fill="none" stroke="rgb(0, 0, 0)" stroke-opacity="1.0" stroke-linecap="round" stroke-linejoin="round"/>
  </g>
</svg>
