<?xml version="1.0" ?>
<svg xmlns="http://www.w3.org/2000/svg" version="1.1" width="224" height="224">
  <defs/>
  <g>
    <path d="M 76.78665161132812 151.34046936035156 C -7.707127571105957 155.1074676513672 75.63602447509766 46.93275451660156 112.63339233398438 117.60971069335938" stroke-width="2" fill="none" stroke="rgb(0, 0, 0)" stroke-opacity="1.0" stroke-linecap="round" stroke-linejoin="round"/>
    <path d="M 135.350341796875 118.3697280883789 C 190.59951782226562 109.49394226074219 52.44032287597656 125.13504028320312 107.46676635742188 132.64117431640625" stroke-width="2" fill="none" stroke="rgb(0, 0, 0)" stroke-opacity="1.0" stroke-linecap="round" stroke-linejoin="round"/>
    <path d="M 52.64665603637695 110.29943084716797 C -15.766420364379883 164.68716430664062 223.57205200195312 180.72488403320312 169.57687377929688 140.17796325683594" stroke-width="2" fill="none" stroke="rgb(0, 0, 0)" stroke-opacity="1.0" stroke-linecap="round" stroke-linejoin="round"/>
    <path d="M 134.06936645507812 116.89498901367188 C 195.4254150390625 133.3665313720703 113.09314727783203 113.31183624267578 152.75257873535156 125.81793212890625" stroke-width="2" fill="none" stroke="rgb(0, 0, 0)" stroke-opacity="1.0" stroke-linecap="round" stroke-linejoin="round"/>
    <path d="M 101.2394027709961 70.1999282836914 C 136.63311767578125 112.62734985351562 142.63046264648438 61.03329086303711 161.60891723632812 96.81627655029297" stroke-width="2" fill="none" stroke="rgb(0, 0, 0)" stroke-opacity="1.0" stroke-linecap="round" stroke-linejoin="round"/>
    <path d="M 90.92317962646484 92.21367645263672 C 117.69144439697266 76.34429931640625 111.28874206542969 75.83982849121094 96.44007110595703 114.27320861816406" stroke-width="2" fill="none" stroke="rgb(0, 0, 0)" stroke-opacity="1.0" stroke-linecap="round" stroke-linejoin="round"/>
    <path d="M 104.06631469726562 142.5509033203125 C 43.85050582885742 100.30535125732422 171.0745849609375 150.4602508544922 66.2391357421875 111.36985778808594" stroke-width="2" fill="none" stroke="rgb(0, 0, 0)" stroke-opacity="1.0" stroke-linecap="round" stroke-linejoin="round"/>
    <path d="M 96.5158462524414 97.58263397216797 C 161.2753448486328 136.37692260742188 -14.175481796264648 88.74717712402344 47.11148452758789 150.2664031982422" stroke-width="2" fill="none" stroke="rgb(0, 0, 0)" stroke-opacity="1.0" stroke-linecap="round" stroke-linejoin="round"/>
    <path d="M 166.71072387695312 140.9310302734375 C 63.17324447631836 130.9332275390625 169.37380981445312 107.08203125 94.54053497314453 109.45623779296875" stroke-width="2" fill="none" stroke="rgb(0, 0, 0)" stroke-opacity="1.0" stroke-linecap="round" stroke-linejoin="round"/>
    <path d="M 141.90782165527344 130.0416259765625 C 174.9365234375 127.7786636352539 117.85030364990234 127.7907485961914 149.89671325683594 131.11203002929688" stroke-width="2" fill="none" stroke="rgb(0, 0, 0)" stroke-opacity="1.0" stroke-linecap="round" stroke-linejoin="round"/>
    <path d="M 176.99220275878906 96.33605194091797 C 199.8443145751953 16.169511795043945 165.91140747070312 93.91886138916016 159.23997497558594 79.6542739868164" stroke-width="2" fill="none" stroke="rgb(0, 0, 0)" stroke-opacity="1.0" stroke-linecap="round" stroke-linejoin="round"/>
    <path d="M 165.83990478515625 123.9992446899414 C 177.6747589111328 137.2658233642578 106.69307708740234 172.76596069335938 105.49588775634766 80.75093078613281" stroke-width="2" fill="none" stroke="rgb(0, 0, 0)" stroke-opacity="1.0" stroke-linecap="round" stroke-linejoin="round"/>
    <path d="M 68.24800109863281 137.24615478515625 C 32.348209381103516 119.32115936279297 90.86705017089844 165.96011352539062 159.0787811279297 155.78245544433594" stroke-width="2" fill="none" stroke="rgb(0, 0, 0)" stroke-opacity="1.0" stroke-linecap="round" stroke-linejoin="round"/>
    <path d="M 169.1387939453125 148.25804138183594 C 145.65084838867188 154.67575073242188 183.1853790283203 144.16929626464844 174.9874725341797 145.6466064453125" stroke-width="2" fill="none" stroke="rgb(0, 0, 0)" stroke-opacity="1.0" stroke-linecap="round" stroke-linejoin="round"/>
    <path d="M 164.38827514648438 131.4747772216797 C 172.4618377685547 80.563232421875 147.11773681640625 130.0061798095703 175.06053161621094 98.61595916748047" stroke-width="2" fill="none" stroke="rgb(0, 0, 0)" stroke-opacity="1.0" stroke-linecap="round" stroke-linejoin="round"/>
    <path d="M 104.13043212890625 117.17431640625 C 157.04953002929688 160.88914489746094 124.29925537109375 113.03679656982422 132.19418334960938 147.19552612304688" stroke-width="2" fill="none" stroke="rgb(0, 0, 0)" stroke-opacity="1.0" stroke-linecap="round" stroke-linejoin="round"/>
  </g>
</svg>
