<?xml version="1.0" ?>
<svg xmlns="http://www.w3.org/2000/svg" version="1.1" width="224" height="224">
  <defs/>
  <g>
    <path d="M 95.96981048583984 130.94480895996094 C 58.28334045410156 117.83919525146484 26.54458999633789 87.17921447753906 115.98587036132812 94.86882019042969" stroke-width="2" fill="none" stroke="rgb(0, 0, 0)" stroke-opacity="1.0" stroke-linecap="round" stroke-linejoin="round"/>
    <path d="M 131.81004333496094 152.58990478515625 C 122.38688659667969 148.25540161132812 86.93084716796875 144.09298706054688 66.13650512695312 135.15257263183594" stroke-width="2" fill="none" stroke="rgb(0, 0, 0)" stroke-opacity="1.0" stroke-linecap="round" stroke-linejoin="round"/>
    <path d="M 151.00502014160156 141.07847595214844 C 51.958683013916016 123.97758483886719 119.46188354492188 142.14266967773438 157.4110107421875 145.9731903076172" stroke-width="2" fill="none" stroke="rgb(0, 0, 0)" stroke-opacity="1.0" stroke-linecap="round" stroke-linejoin="round"/>
    <path d="M 172.3486785888672 118.76881408691406 C 148.75511169433594 144.68955993652344 187.78936767578125 131.37623596191406 143.8475341796875 131.82614135742188" stroke-width="2" fill="none" stroke="rgb(0, 0, 0)" stroke-opacity="1.0" stroke-linecap="round" stroke-linejoin="round"/>
    <path d="M 99.79974365234375 107.32405853271484 C 107.51702117919922 125.91841125488281 131.51675415039062 61.77642822265625 157.74900817871094 109.78950500488281" stroke-width="2" fill="none" stroke="rgb(0, 0, 0)" stroke-opacity="1.0" stroke-linecap="round" stroke-linejoin="round"/>
    <path d="M 101.37474060058594 69.6822738647461 C 102.0343017578125 94.57962036132812 123.22779846191406 119.3509521484375 109.919677734375 85.52245330810547" stroke-width="2" fill="none" stroke="rgb(0, 0, 0)" stroke-opacity="1.0" stroke-linecap="round" stroke-linejoin="round"/>
    <path d="M 104.76020050048828 70.97291564941406 C 112.1573486328125 93.0709457397461 142.7257843017578 87.04999542236328 126.06440734863281 115.20519256591797" stroke-width="2" fill="none" stroke="rgb(0, 0, 0)" stroke-opacity="1.0" stroke-linecap="round" stroke-linejoin="round"/>
    <path d="M 80.79456329345703 144.12039184570312 C 99.79943084716797 152.75738525390625 -0.17860206961631775 156.3761749267578 65.50745391845703 98.04642486572266" stroke-width="2" fill="none" stroke="rgb(0, 0, 0)" stroke-opacity="1.0" stroke-linecap="round" stroke-linejoin="round"/>
    <path d="M 106.32518768310547 107.058349609375 C 90.40662384033203 136.2454376220703 157.38946533203125 126.95681762695312 118.75431823730469 131.12783813476562" stroke-width="2" fill="none" stroke="rgb(0, 0, 0)" stroke-opacity="1.0" stroke-linecap="round" stroke-linejoin="round"/>
    <path d="M 122.96781158447266 111.66924285888672 C 150.287353515625 93.82096862792969 127.54720306396484 123.40345001220703 138.34658813476562 92.45564270019531" stroke-width="2" fill="none" stroke="rgb(0, 0, 0)" stroke-opacity="1.0" stroke-linecap="round" stroke-linejoin="round"/>
    <path d="M 184.09005737304688 67.11725616455078 C 161.4316864013672 76.9022445678711 168.9891815185547 97.4604263305664 145.5775909423828 90.79579162597656" stroke-width="2" fill="none" stroke="rgb(0, 0, 0)" stroke-opacity="1.0" stroke-linecap="round" stroke-linejoin="round"/>
    <path d="M 175.48147583007812 145.40040588378906 C 180.05145263671875 153.2138671875 158.6721954345703 156.88258361816406 117.06825256347656 154.18362426757812" stroke-width="2" fill="none" stroke="rgb(0, 0, 0)" stroke-opacity="1.0" stroke-linecap="round" stroke-linejoin="round"/>
    <path d="M 55.678836822509766 145.96426391601562 C 70.56493377685547 155.8809051513672 152.1224822998047 157.1219024658203 122.12804412841797 149.48403930664062" stroke-width="2" fill="none" stroke="rgb(0, 0, 0)" stroke-opacity="1.0" stroke-linecap="round" stroke-linejoin="round"/>
    <path d="M 98.37532806396484 95.61510467529297 C 113.49746704101562 82.1073226928711 91.03874969482422 72.74058532714844 127.95491790771484 91.95404052734375" stroke-width="2" fill="none" stroke="rgb(0, 0, 0)" stroke-opacity="1.0" stroke-linecap="round" stroke-linejoin="round"/>
    <path d="M 166.9303436279297 127.39327239990234 C 161.57308959960938 93.55577850341797 173.43443298339844 137.14772033691406 185.2353515625 70.2382583618164" stroke-width="2" fill="none" stroke="rgb(0, 0, 0)" stroke-opacity="1.0" stroke-linecap="round" stroke-linejoin="round"/>
    <path d="M 54.62037658691406 110.56979370117188 C 97.45979309082031 102.98184967041016 77.39016723632812 129.7660675048828 80.94189453125 111.73401641845703" stroke-width="2" fill="none" stroke="rgb(0, 0, 0)" stroke-opacity="1.0" stroke-linecap="round" stroke-linejoin="round"/>
  </g>
</svg>
