<?xml version="1.0" ?>
<svg xmlns="http://www.w3.org/2000/svg" version="1.1" width="224" height="224">
  <defs/>
  <g>
    <path d="M 101.45745086669922 130.0311279296875 C 65.7849349975586 110.91888427734375 29.99016761779785 92.7325668334961 122.76942443847656 94.7608642578125" stroke-width="2" fill="none" stroke="rgb(0, 0, 0)" stroke-opacity="1.0" stroke-linecap="round" stroke-linejoin="round"/>
    <path d="M 131.75869750976562 158.77584838867188 C 116.60735321044922 153.95144653320312 83.39196014404297 149.8227081298828 73.01056671142578 137.20387268066406" stroke-width="2" fill="none" stroke="rgb(0, 0, 0)" stroke-opacity="1.0" stroke-linecap="round" stroke-linejoin="round"/>
    <path d="M 147.77142333984375 140.50234985351562 C 47.36315155029297 122.93611907958984 115.92149353027344 143.95993041992188 161.65760803222656 150.17367553710938" stroke-width="2" fill="none" stroke="rgb(0, 0, 0)" stroke-opacity="1.0" stroke-linecap="round" stroke-linejoin="round"/>
    <path d="M 170.15765380859375 118.15011596679688 C 145.1091766357422 141.1169891357422 187.06593322753906 135.9307861328125 144.07540893554688 135.14353942871094" stroke-width="2" fill="none" stroke="rgb(0, 0, 0)" stroke-opacity="1.0" stroke-linecap="round" stroke-linejoin="round"/>
    <path d="M 104.96125030517578 105.16453552246094 C 106.88864135742188 124.31446075439453 132.47702026367188 63.81441116333008 155.8767852783203 107.2816390991211" stroke-width="2" fill="none" stroke="rgb(0, 0, 0)" stroke-opacity="1.0" stroke-linecap="round" stroke-linejoin="round"/>
    <path d="M 106.14035034179688 67.77647399902344 C 101.78787994384766 95.0713119506836 120.71810913085938 123.14710998535156 106.46681213378906 83.40320587158203" stroke-width="2" fill="none" stroke="rgb(0, 0, 0)" stroke-opacity="1.0" stroke-linecap="round" stroke-linejoin="round"/>
    <path d="M 101.96571350097656 75.66576385498047 C 109.97875213623047 98.09187316894531 146.48654174804688 89.3831558227539 125.1629867553711 108.46345520019531" stroke-width="2" fill="none" stroke="rgb(0, 0, 0)" stroke-opacity="1.0" stroke-linecap="round" stroke-linejoin="round"/>
    <path d="M 81.55836486816406 150.1509246826172 C 103.36737060546875 151.52261352539062 -0.3406441807746887 158.7417449951172 65.52574157714844 99.34786987304688" stroke-width="2" fill="none" stroke="rgb(0, 0, 0)" stroke-opacity="1.0" stroke-linecap="round" stroke-linejoin="round"/>
    <path d="M 110.96881866455078 105.85110473632812 C 98.9450454711914 137.34437561035156 163.88760375976562 124.14205169677734 119.24755096435547 131.90243530273438" stroke-width="2" fill="none" stroke="rgb(0, 0, 0)" stroke-opacity="1.0" stroke-linecap="round" stroke-linejoin="round"/>
    <path d="M 120.41791534423828 107.62785339355469 C 157.86245727539062 103.19229888916016 126.12012481689453 122.43291473388672 130.0231475830078 91.5543212890625" stroke-width="2" fill="none" stroke="rgb(0, 0, 0)" stroke-opacity="1.0" stroke-linecap="round" stroke-linejoin="round"/>
    <path d="M 180.0493621826172 64.39508056640625 C 159.52964782714844 80.79141235351562 169.6292724609375 99.64093017578125 139.975341796875 96.0550537109375" stroke-width="2" fill="none" stroke="rgb(0, 0, 0)" stroke-opacity="1.0" stroke-linecap="round" stroke-linejoin="round"/>
    <path d="M 174.4751434326172 144.2760467529297 C 180.77243041992188 155.24005126953125 159.1361541748047 159.60067749023438 118.85651397705078 153.69287109375" stroke-width="2" fill="none" stroke="rgb(0, 0, 0)" stroke-opacity="1.0" stroke-linecap="round" stroke-linejoin="round"/>
    <path d="M 51.42176055908203 146.5686798095703 C 68.78369140625 157.069580078125 151.19215393066406 158.67591857910156 121.93558502197266 153.0860595703125" stroke-width="2" fill="none" stroke="rgb(0, 0, 0)" stroke-opacity="1.0" stroke-linecap="round" stroke-linejoin="round"/>
    <path d="M 96.82147216796875 95.82417297363281 C 106.62934875488281 73.0244140625 93.26168060302734 64.57884216308594 124.05355834960938 93.25753021240234" stroke-width="2" fill="none" stroke="rgb(0, 0, 0)" stroke-opacity="1.0" stroke-linecap="round" stroke-linejoin="round"/>
    <path d="M 165.84820556640625 121.07164001464844 C 159.79884338378906 88.1052474975586 173.43453979492188 142.54556274414062 179.4623260498047 65.05309295654297" stroke-width="2" fill="none" stroke="rgb(0, 0, 0)" stroke-opacity="1.0" stroke-linecap="round" stroke-linejoin="round"/>
    <path d="M 59.26568603515625 108.59684753417969 C 105.85362243652344 97.65641784667969 84.27735900878906 130.4785614013672 85.83331298828125 117.07656860351562" stroke-width="2" fill="none" stroke="rgb(0, 0, 0)" stroke-opacity="1.0" stroke-linecap="round" stroke-linejoin="round"/>
  </g>
</svg>
