<?xml version="1.0" ?>
<svg xmlns="http://www.w3.org/2000/svg" version="1.1" width="224" height="224">
  <defs/>
  <g>
    <path d="M 76.66567993164062 153.19540405273438 C -3.755985736846924 158.93894958496094 75.26498413085938 49.72416687011719 116.34645080566406 120.18153381347656" stroke-width="2" fill="none" stroke="rgb(0, 0, 0)" stroke-opacity="1.0" stroke-linecap="round" stroke-linejoin="round"/>
    <path d="M 142.55308532714844 105.14924621582031 C 193.2900390625 106.44694519042969 51.26427459716797 118.66949462890625 130.87893676757812 129.5529022216797" stroke-width="2" fill="none" stroke="rgb(0, 0, 0)" stroke-opacity="1.0" stroke-linecap="round" stroke-linejoin="round"/>
    <path d="M 53.006343841552734 113.12386322021484 C -5.079256057739258 155.22540283203125 227.50152587890625 184.66795349121094 167.80775451660156 127.1865005493164" stroke-width="2" fill="none" stroke="rgb(0, 0, 0)" stroke-opacity="1.0" stroke-linecap="round" stroke-linejoin="round"/>
    <path d="M 126.43299865722656 109.41291046142578 C 202.04550170898438 120.25860595703125 130.9759063720703 124.51200103759766 159.7998046875 128.79595947265625" stroke-width="2" fill="none" stroke="rgb(0, 0, 0)" stroke-opacity="1.0" stroke-linecap="round" stroke-linejoin="round"/>
    <path d="M 102.36852264404297 72.53836059570312 C 147.7367706298828 124.82450103759766 145.65628051757812 76.58324432373047 169.76002502441406 94.1122817993164" stroke-width="2" fill="none" stroke="rgb(0, 0, 0)" stroke-opacity="1.0" stroke-linecap="round" stroke-linejoin="round"/>
    <path d="M 100.55447387695312 99.38893127441406 C 115.0379867553711 78.5822525024414 106.82379913330078 77.05745697021484 107.41813659667969 104.62683868408203" stroke-width="2" fill="none" stroke="rgb(0, 0, 0)" stroke-opacity="1.0" stroke-linecap="round" stroke-linejoin="round"/>
    <path d="M 117.40805053710938 139.21109008789062 C 78.43547058105469 112.7450942993164 180.9765167236328 155.06423950195312 65.25594329833984 116.86090087890625" stroke-width="2" fill="none" stroke="rgb(0, 0, 0)" stroke-opacity="1.0" stroke-linecap="round" stroke-linejoin="round"/>
    <path d="M 105.43414306640625 103.88692474365234 C 169.9168701171875 148.99810791015625 -12.645650863647461 108.10284423828125 59.226829528808594 143.51348876953125" stroke-width="2" fill="none" stroke="rgb(0, 0, 0)" stroke-opacity="1.0" stroke-linecap="round" stroke-linejoin="round"/>
    <path d="M 173.78184509277344 143.8478546142578 C 61.46200180053711 147.69485473632812 153.48780822753906 117.2679443359375 89.31120300292969 109.45990753173828" stroke-width="2" fill="none" stroke="rgb(0, 0, 0)" stroke-opacity="1.0" stroke-linecap="round" stroke-linejoin="round"/>
    <path d="M 143.43356323242188 123.2614974975586 C 192.2342529296875 129.1078338623047 131.4262237548828 131.28379821777344 164.7327117919922 131.39723205566406" stroke-width="2" fill="none" stroke="rgb(0, 0, 0)" stroke-opacity="1.0" stroke-linecap="round" stroke-linejoin="round"/>
    <path d="M 175.01492309570312 99.52330017089844 C 199.92462158203125 19.473735809326172 161.66543579101562 98.87014770507812 165.42462158203125 84.10443878173828" stroke-width="2" fill="none" stroke="rgb(0, 0, 0)" stroke-opacity="1.0" stroke-linecap="round" stroke-linejoin="round"/>
    <path d="M 167.48130798339844 125.68211364746094 C 174.7246551513672 131.18345642089844 110.20772552490234 173.9163360595703 106.54337310791016 85.95630645751953" stroke-width="2" fill="none" stroke="rgb(0, 0, 0)" stroke-opacity="1.0" stroke-linecap="round" stroke-linejoin="round"/>
    <path d="M 72.3107681274414 128.7257080078125 C 29.362857818603516 117.90841674804688 96.99805450439453 161.52162170410156 148.08139038085938 150.69192504882812" stroke-width="2" fill="none" stroke="rgb(0, 0, 0)" stroke-opacity="1.0" stroke-linecap="round" stroke-linejoin="round"/>
    <path d="M 162.35662841796875 148.30715942382812 C 147.35740661621094 157.10995483398438 189.44447326660156 148.4296875 175.6963653564453 151.3621826171875" stroke-width="2" fill="none" stroke="rgb(0, 0, 0)" stroke-opacity="1.0" stroke-linecap="round" stroke-linejoin="round"/>
    <path d="M 165.90487670898438 129.96353149414062 C 177.5876922607422 86.39983367919922 148.0546112060547 130.93272399902344 179.13185119628906 101.6054458618164" stroke-width="2" fill="none" stroke="rgb(0, 0, 0)" stroke-opacity="1.0" stroke-linecap="round" stroke-linejoin="round"/>
    <path d="M 105.16476440429688 114.90897369384766 C 159.05018615722656 159.57591247558594 128.24624633789062 114.48768615722656 135.37814331054688 147.18722534179688" stroke-width="2" fill="none" stroke="rgb(0, 0, 0)" stroke-opacity="1.0" stroke-linecap="round" stroke-linejoin="round"/>
  </g>
</svg>
