<?xml version="1.0" ?>
<svg xmlns="http://www.w3.org/2000/svg" version="1.1" width="224" height="224">
  <defs/>
  <g>
    <path d="M 72.79369354248047 104.89112091064453 C 41.6273307800293 98.27142333984375 92.74049377441406 70.95697784423828 54.07936477661133 110.63626098632812" stroke-width="2" fill="none" stroke="rgb(0, 0, 0)" stroke-opacity="1.0" stroke-linecap="round" stroke-linejoin="round"/>
    <path d="M 164.9602813720703 142.29336547851562 C 126.73914337158203 150.42869567871094 104.30529022216797 163.9258575439453 72.16197204589844 138.8630828857422" stroke-width="2" fill="none" stroke="rgb(0, 0, 0)" stroke-opacity="1.0" stroke-linecap="round" stroke-linejoin="round"/>
    <path d="M 168.65374755859375 138.45021057128906 C 75.36518096923828 131.8515625 85.18771362304688 164.7588653564453 131.9198760986328 124.04566955566406" stroke-width="2" fill="none" stroke="rgb(0, 0, 0)" stroke-opacity="1.0" stroke-linecap="round" stroke-linejoin="round"/>
    <path d="M 172.24169921875 121.65367889404297 C 169.88893127441406 153.2144775390625 166.5174102783203 94.04713439941406 175.75405883789062 130.06932067871094" stroke-width="2" fill="none" stroke="rgb(0, 0, 0)" stroke-opacity="1.0" stroke-linecap="round" stroke-linejoin="round"/>
    <path d="M 140.94418334960938 108.47845458984375 C 78.89851379394531 101.77023315429688 151.8203582763672 133.2978515625 110.74322509765625 58.2094841003418" stroke-width="2" fill="none" stroke="rgb(0, 0, 0)" stroke-opacity="1.0" stroke-linecap="round" stroke-linejoin="round"/>
    <path d="M 108.50962829589844 56.99640655517578 C 81.7505111694336 131.90675354003906 126.70807647705078 117.4843521118164 90.57469940185547 99.95536041259766" stroke-width="2" fill="none" stroke="rgb(0, 0, 0)" stroke-opacity="1.0" stroke-linecap="round" stroke-linejoin="round"/>
    <path d="M 43.55408477783203 126.85789489746094 C 30.825735092163086 159.6500244140625 131.30252075195312 151.7605743408203 105.92108917236328 159.2337646484375" stroke-width="2" fill="none" stroke="rgb(0, 0, 0)" stroke-opacity="1.0" stroke-linecap="round" stroke-linejoin="round"/>
    <path d="M 136.3851318359375 146.62557983398438 C 175.47279357910156 152.39825439453125 147.50213623046875 146.4499053955078 104.2370376586914 154.5633087158203" stroke-width="2" fill="none" stroke="rgb(0, 0, 0)" stroke-opacity="1.0" stroke-linecap="round" stroke-linejoin="round"/>
    <path d="M 132.91964721679688 123.56902313232422 C 145.21885681152344 147.22044372558594 122.75910949707031 133.80003356933594 122.38916778564453 148.1214141845703" stroke-width="2" fill="none" stroke="rgb(0, 0, 0)" stroke-opacity="1.0" stroke-linecap="round" stroke-linejoin="round"/>
    <path d="M 177.40562438964844 63.938194274902344 C 159.3201141357422 114.96025848388672 144.798095703125 84.60570526123047 151.83082580566406 79.13520050048828" stroke-width="2" fill="none" stroke="rgb(0, 0, 0)" stroke-opacity="1.0" stroke-linecap="round" stroke-linejoin="round"/>
    <path d="M 149.26620483398438 117.87332153320312 C 186.0224151611328 114.35956573486328 174.0125274658203 148.59983825683594 146.7230682373047 130.38711547851562" stroke-width="2" fill="none" stroke="rgb(0, 0, 0)" stroke-opacity="1.0" stroke-linecap="round" stroke-linejoin="round"/>
    <path d="M 89.46562194824219 132.81179809570312 C 88.25920104980469 123.91510772705078 56.00041198730469 130.22311401367188 90.21145629882812 124.97115325927734" stroke-width="2" fill="none" stroke="rgb(0, 0, 0)" stroke-opacity="1.0" stroke-linecap="round" stroke-linejoin="round"/>
    <path d="M 102.81546020507812 131.5903778076172 C 111.57256317138672 120.36489868164062 118.02293395996094 129.20030212402344 110.78204345703125 65.89566040039062" stroke-width="2" fill="none" stroke="rgb(0, 0, 0)" stroke-opacity="1.0" stroke-linecap="round" stroke-linejoin="round"/>
    <path d="M 149.58450317382812 145.4073028564453 C 193.62452697753906 155.11752319335938 169.04811096191406 140.2042999267578 133.85887145996094 81.7614517211914" stroke-width="2" fill="none" stroke="rgb(0, 0, 0)" stroke-opacity="1.0" stroke-linecap="round" stroke-linejoin="round"/>
    <path d="M 52.24617385864258 69.774169921875 C 86.46463012695312 111.08617401123047 43.717567443847656 83.57841491699219 95.31959533691406 85.08370208740234" stroke-width="2" fill="none" stroke="rgb(0, 0, 0)" stroke-opacity="1.0" stroke-linecap="round" stroke-linejoin="round"/>
    <path d="M 60.515811920166016 75.21576690673828 C 49.28302764892578 162.11175537109375 62.878089904785156 119.78529357910156 54.10688781738281 124.74372100830078" stroke-width="2" fill="none" stroke="rgb(0, 0, 0)" stroke-opacity="1.0" stroke-linecap="round" stroke-linejoin="round"/>
  </g>
</svg>
