<?xml version="1.0" ?>
<svg xmlns="http://www.w3.org/2000/svg" version="1.1" width="224" height="224">
  <defs/>
  <g>
    <path d="M 71.19827270507812 107.55867004394531 C 46.85177230834961 119.17491912841797 93.7981948852539 102.57127380371094 63.2110710144043 116.11103820800781" stroke-width="2" fill="none" stroke="rgb(0, 0, 0)" stroke-opacity="1.0" stroke-linecap="round" stroke-linejoin="round"/>
    <path d="M 157.81231689453125 150.4261932373047 C 105.15156555175781 146.53392028808594 109.68634033203125 155.15151977539062 85.55805206298828 148.9199981689453" stroke-width="2" fill="none" stroke="rgb(0, 0, 0)" stroke-opacity="1.0" stroke-linecap="round" stroke-linejoin="round"/>
    <path d="M 156.34793090820312 133.63088989257812 C 97.1559829711914 124.80023193359375 96.49079132080078 157.05186462402344 127.36491394042969 127.42971801757812" stroke-width="2" fill="none" stroke="rgb(0, 0, 0)" stroke-opacity="1.0" stroke-linecap="round" stroke-linejoin="round"/>
    <path d="M 160.64100646972656 143.196533203125 C 199.97938537597656 147.2498016357422 171.47332763671875 114.69593048095703 176.85708618164062 120.23062133789062" stroke-width="2" fill="none" stroke="rgb(0, 0, 0)" stroke-opacity="1.0" stroke-linecap="round" stroke-linejoin="round"/>
    <path d="M 136.64830017089844 110.25813293457031 C 136.4268035888672 113.20562744140625 127.67723083496094 80.59810638427734 103.11524963378906 63.33000183105469" stroke-width="2" fill="none" stroke="rgb(0, 0, 0)" stroke-opacity="1.0" stroke-linecap="round" stroke-linejoin="round"/>
    <path d="M 101.35606384277344 70.31719970703125 C 84.44115447998047 134.9958038330078 111.61500549316406 113.16625213623047 81.73614501953125 106.38531494140625" stroke-width="2" fill="none" stroke="rgb(0, 0, 0)" stroke-opacity="1.0" stroke-linecap="round" stroke-linejoin="round"/>
    <path d="M 40.46354293823242 134.4873809814453 C 28.862266540527344 154.33233642578125 103.65772247314453 157.3568115234375 93.49278259277344 144.1068572998047" stroke-width="2" fill="none" stroke="rgb(0, 0, 0)" stroke-opacity="1.0" stroke-linecap="round" stroke-linejoin="round"/>
    <path d="M 155.8953094482422 130.57562255859375 C 157.0550994873047 154.80323791503906 160.9023895263672 129.68492126464844 112.16937255859375 148.3845672607422" stroke-width="2" fill="none" stroke="rgb(0, 0, 0)" stroke-opacity="1.0" stroke-linecap="round" stroke-linejoin="round"/>
    <path d="M 121.14604187011719 129.49972534179688 C 163.7480010986328 142.35598754882812 132.3510284423828 132.44683837890625 111.58208465576172 136.2680206298828" stroke-width="2" fill="none" stroke="rgb(0, 0, 0)" stroke-opacity="1.0" stroke-linecap="round" stroke-linejoin="round"/>
    <path d="M 186.38992309570312 69.10445404052734 C 167.85446166992188 121.22560119628906 169.1594696044922 126.77412414550781 167.3473358154297 65.08924865722656" stroke-width="2" fill="none" stroke="rgb(0, 0, 0)" stroke-opacity="1.0" stroke-linecap="round" stroke-linejoin="round"/>
    <path d="M 155.65809631347656 110.36602783203125 C 181.65052795410156 110.4982681274414 192.86415100097656 141.45425415039062 166.8680419921875 148.62368774414062" stroke-width="2" fill="none" stroke="rgb(0, 0, 0)" stroke-opacity="1.0" stroke-linecap="round" stroke-linejoin="round"/>
    <path d="M 78.09786987304688 139.94122314453125 C 51.679786682128906 125.07035827636719 38.69874572753906 124.74951171875 84.3901138305664 128.7540740966797" stroke-width="2" fill="none" stroke="rgb(0, 0, 0)" stroke-opacity="1.0" stroke-linecap="round" stroke-linejoin="round"/>
    <path d="M 103.67398071289062 122.41027069091797 C 125.236572265625 105.68145751953125 126.80982971191406 111.39559936523438 101.22400665283203 65.19422912597656" stroke-width="2" fill="none" stroke="rgb(0, 0, 0)" stroke-opacity="1.0" stroke-linecap="round" stroke-linejoin="round"/>
    <path d="M 185.2266845703125 135.28897094726562 C 206.43963623046875 119.63703918457031 190.935791015625 111.26412963867188 171.885986328125 73.53421783447266" stroke-width="2" fill="none" stroke="rgb(0, 0, 0)" stroke-opacity="1.0" stroke-linecap="round" stroke-linejoin="round"/>
    <path d="M 76.6174087524414 68.7688217163086 C 64.7524185180664 85.10323333740234 77.04681396484375 86.93807983398438 73.55278778076172 89.02032470703125" stroke-width="2" fill="none" stroke="rgb(0, 0, 0)" stroke-opacity="1.0" stroke-linecap="round" stroke-linejoin="round"/>
    <path d="M 67.04431915283203 77.9783935546875 C 35.728858947753906 127.56587219238281 61.81267547607422 97.17266082763672 56.1279411315918 133.461669921875" stroke-width="2" fill="none" stroke="rgb(0, 0, 0)" stroke-opacity="1.0" stroke-linecap="round" stroke-linejoin="round"/>
  </g>
</svg>
