<?xml version="1.0" ?>
<svg xmlns="http://www.w3.org/2000/svg" version="1.1" width="224" height="224">
  <defs/>
  <g>
    <path d="M 85.02149200439453 120.33563995361328 C 54.68326187133789 137.2728271484375 104.64958190917969 118.32233428955078 82.00810241699219 126.69766998291016" stroke-width="2" fill="none" stroke="rgb(0, 0, 0)" stroke-opacity="1.0" stroke-linecap="round" stroke-linejoin="round"/>
    <path d="M 156.39447021484375 150.26527404785156 C 108.33858489990234 146.5767059326172 102.93303680419922 158.62193298339844 85.2157974243164 155.5659637451172" stroke-width="2" fill="none" stroke="rgb(0, 0, 0)" stroke-opacity="1.0" stroke-linecap="round" stroke-linejoin="round"/>
    <path d="M 145.4529571533203 129.62738037109375 C 116.4358139038086 120.72008514404297 86.5797348022461 149.60084533691406 115.24847412109375 122.13387298583984" stroke-width="2" fill="none" stroke="rgb(0, 0, 0)" stroke-opacity="1.0" stroke-linecap="round" stroke-linejoin="round"/>
    <path d="M 150.1592254638672 150.83485412597656 C 174.888671875 136.46246337890625 166.29290771484375 106.75147247314453 164.3199005126953 144.8639678955078" stroke-width="2" fill="none" stroke="rgb(0, 0, 0)" stroke-opacity="1.0" stroke-linecap="round" stroke-linejoin="round"/>
    <path d="M 142.7166748046875 112.68778991699219 C 138.439697265625 102.303955078125 129.11502075195312 85.63285064697266 101.96636199951172 65.82186889648438" stroke-width="2" fill="none" stroke="rgb(0, 0, 0)" stroke-opacity="1.0" stroke-linecap="round" stroke-linejoin="round"/>
    <path d="M 102.27330017089844 68.42525482177734 C 95.3180923461914 94.10714721679688 109.476318359375 107.91554260253906 106.80103302001953 119.39948272705078" stroke-width="2" fill="none" stroke="rgb(0, 0, 0)" stroke-opacity="1.0" stroke-linecap="round" stroke-linejoin="round"/>
    <path d="M 51.353126525878906 141.97479248046875 C 65.36481475830078 154.89956665039062 98.16374206542969 150.7657012939453 97.03370666503906 143.17901611328125" stroke-width="2" fill="none" stroke="rgb(0, 0, 0)" stroke-opacity="1.0" stroke-linecap="round" stroke-linejoin="round"/>
    <path d="M 165.5909423828125 119.15673065185547 C 132.35011291503906 138.47715759277344 150.1014404296875 118.64444732666016 118.50856018066406 137.36778259277344" stroke-width="2" fill="none" stroke="rgb(0, 0, 0)" stroke-opacity="1.0" stroke-linecap="round" stroke-linejoin="round"/>
    <path d="M 115.48136138916016 142.75357055664062 C 168.6724853515625 152.6305694580078 142.96046447753906 122.94287109375 107.53155517578125 143.07489013671875" stroke-width="2" fill="none" stroke="rgb(0, 0, 0)" stroke-opacity="1.0" stroke-linecap="round" stroke-linejoin="round"/>
    <path d="M 188.08656311035156 61.714263916015625 C 186.07229614257812 102.86495971679688 184.0035858154297 106.64899444580078 172.18873596191406 67.77410125732422" stroke-width="2" fill="none" stroke="rgb(0, 0, 0)" stroke-opacity="1.0" stroke-linecap="round" stroke-linejoin="round"/>
    <path d="M 172.56375122070312 136.64915466308594 C 169.33322143554688 148.74623107910156 199.81378173828125 149.73338317871094 178.731201171875 153.46603393554688" stroke-width="2" fill="none" stroke="rgb(0, 0, 0)" stroke-opacity="1.0" stroke-linecap="round" stroke-linejoin="round"/>
    <path d="M 72.0483169555664 146.14146423339844 C 54.33796691894531 126.66679382324219 38.54435729980469 121.95426940917969 81.05009460449219 127.19070434570312" stroke-width="2" fill="none" stroke="rgb(0, 0, 0)" stroke-opacity="1.0" stroke-linecap="round" stroke-linejoin="round"/>
    <path d="M 101.30538940429688 115.5691146850586 C 124.40913391113281 90.66624450683594 113.6484146118164 107.02030181884766 103.92890930175781 76.17070770263672" stroke-width="2" fill="none" stroke="rgb(0, 0, 0)" stroke-opacity="1.0" stroke-linecap="round" stroke-linejoin="round"/>
    <path d="M 175.3243408203125 126.68463897705078 C 184.92478942871094 100.22905731201172 179.9513397216797 103.24288940429688 164.01412963867188 69.90699005126953" stroke-width="2" fill="none" stroke="rgb(0, 0, 0)" stroke-opacity="1.0" stroke-linecap="round" stroke-linejoin="round"/>
    <path d="M 78.10806274414062 65.1216049194336 C 76.9154052734375 100.52430725097656 72.33341979980469 100.83241271972656 75.03821563720703 83.13922882080078" stroke-width="2" fill="none" stroke="rgb(0, 0, 0)" stroke-opacity="1.0" stroke-linecap="round" stroke-linejoin="round"/>
    <path d="M 70.36198425292969 107.440185546875 C 43.60177230834961 134.6522216796875 60.60061264038086 107.83857727050781 65.29548645019531 128.49913024902344" stroke-width="2" fill="none" stroke="rgb(0, 0, 0)" stroke-opacity="1.0" stroke-linecap="round" stroke-linejoin="round"/>
  </g>
</svg>
