<?xml version="1.0" ?>
<svg xmlns="http://www.w3.org/2000/svg" version="1.1" width="224" height="224">
  <defs/>
  <g>
    <path d="M 87.76239776611328 114.33232879638672 C 67.35391235351562 124.6004409790039 97.50758361816406 107.94126892089844 98.53868103027344 122.79342651367188" stroke-width="2" fill="none" stroke="rgb(0, 0, 0)" stroke-opacity="1.0" stroke-linecap="round" stroke-linejoin="round"/>
    <path d="M 146.90892028808594 156.4647216796875 C 109.02311706542969 151.40147399902344 104.3817367553711 154.85775756835938 89.51206970214844 151.9578857421875" stroke-width="2" fill="none" stroke="rgb(0, 0, 0)" stroke-opacity="1.0" stroke-linecap="round" stroke-linejoin="round"/>
    <path d="M 136.73927307128906 124.66740417480469 C 122.94989776611328 124.78787231445312 99.84957122802734 140.38876342773438 111.1127700805664 127.76631164550781" stroke-width="2" fill="none" stroke="rgb(0, 0, 0)" stroke-opacity="1.0" stroke-linecap="round" stroke-linejoin="round"/>
    <path d="M 155.851318359375 145.8947296142578 C 178.31817626953125 135.96823120117188 165.2351531982422 122.87775421142578 172.2021026611328 133.0273895263672" stroke-width="2" fill="none" stroke="rgb(0, 0, 0)" stroke-opacity="1.0" stroke-linecap="round" stroke-linejoin="round"/>
    <path d="M 135.36557006835938 115.65725708007812 C 137.14122009277344 107.00444793701172 127.193115234375 86.86044311523438 113.00948333740234 68.58370208740234" stroke-width="2" fill="none" stroke="rgb(0, 0, 0)" stroke-opacity="1.0" stroke-linecap="round" stroke-linejoin="round"/>
    <path d="M 110.36724853515625 67.82980346679688 C 99.36480712890625 95.72664642333984 103.84386444091797 108.87334442138672 102.3923110961914 114.67207336425781" stroke-width="2" fill="none" stroke="rgb(0, 0, 0)" stroke-opacity="1.0" stroke-linecap="round" stroke-linejoin="round"/>
    <path d="M 57.19581604003906 140.7672882080078 C 69.75727081298828 157.54676818847656 99.53423309326172 156.78201293945312 97.4688949584961 140.52716064453125" stroke-width="2" fill="none" stroke="rgb(0, 0, 0)" stroke-opacity="1.0" stroke-linecap="round" stroke-linejoin="round"/>
    <path d="M 157.73426818847656 124.35296630859375 C 133.46331787109375 143.61514282226562 139.7109375 120.34143829345703 118.88465881347656 132.24365234375" stroke-width="2" fill="none" stroke="rgb(0, 0, 0)" stroke-opacity="1.0" stroke-linecap="round" stroke-linejoin="round"/>
    <path d="M 107.71963500976562 132.9248046875 C 152.6817626953125 146.500244140625 128.92950439453125 130.99423217773438 102.61569213867188 135.32916259765625" stroke-width="2" fill="none" stroke="rgb(0, 0, 0)" stroke-opacity="1.0" stroke-linecap="round" stroke-linejoin="round"/>
    <path d="M 179.5001983642578 66.9991683959961 C 174.29161071777344 95.47867584228516 179.62806701660156 93.9085922241211 171.06289672851562 62.031410217285156" stroke-width="2" fill="none" stroke="rgb(0, 0, 0)" stroke-opacity="1.0" stroke-linecap="round" stroke-linejoin="round"/>
    <path d="M 175.7538604736328 135.97215270996094 C 176.3935546875 153.38291931152344 190.86878967285156 148.6383819580078 186.12741088867188 171.2180938720703" stroke-width="2" fill="none" stroke="rgb(0, 0, 0)" stroke-opacity="1.0" stroke-linecap="round" stroke-linejoin="round"/>
    <path d="M 69.47447967529297 143.8815155029297 C 58.279762268066406 134.00518798828125 49.48335266113281 133.5197296142578 76.43903350830078 134.89273071289062" stroke-width="2" fill="none" stroke="rgb(0, 0, 0)" stroke-opacity="1.0" stroke-linecap="round" stroke-linejoin="round"/>
    <path d="M 109.34696960449219 114.27130889892578 C 134.94467163085938 98.28939056396484 118.69364166259766 86.49427032470703 116.47147369384766 71.20834350585938" stroke-width="2" fill="none" stroke="rgb(0, 0, 0)" stroke-opacity="1.0" stroke-linecap="round" stroke-linejoin="round"/>
    <path d="M 173.00473022460938 120.75750732421875 C 180.65969848632812 93.32102966308594 165.9083709716797 108.93887329101562 157.51834106445312 71.94564056396484" stroke-width="2" fill="none" stroke="rgb(0, 0, 0)" stroke-opacity="1.0" stroke-linecap="round" stroke-linejoin="round"/>
    <path d="M 76.55836486816406 77.04940032958984 C 71.4366226196289 95.39524841308594 69.48933410644531 98.1424560546875 75.39889526367188 84.43525695800781" stroke-width="2" fill="none" stroke="rgb(0, 0, 0)" stroke-opacity="1.0" stroke-linecap="round" stroke-linejoin="round"/>
    <path d="M 63.937198638916016 119.0464859008789 C 53.59013748168945 108.84481811523438 58.951297760009766 105.06879425048828 57.778411865234375 126.89762115478516" stroke-width="2" fill="none" stroke="rgb(0, 0, 0)" stroke-opacity="1.0" stroke-linecap="round" stroke-linejoin="round"/>
  </g>
</svg>
