<?xml version="1.0" ?>
<svg xmlns="http://www.w3.org/2000/svg" version="1.1" width="224" height="224">
  <defs/>
  <g>
    <path d="M 105.69403076171875 116.5989761352539 C 98.76512908935547 98.57799530029297 97.84815216064453 102.87389373779297 116.77581787109375 110.798828125" stroke-width="2" fill="none" stroke="rgb(0, 0, 0)" stroke-opacity="1.0" stroke-linecap="round" stroke-linejoin="round"/>
    <path d="M 163.21510314941406 152.4250946044922 C 123.19910430908203 148.52699279785156 101.45347595214844 160.89491271972656 98.28280639648438 146.63613891601562" stroke-width="2" fill="none" stroke="rgb(0, 0, 0)" stroke-opacity="1.0" stroke-linecap="round" stroke-linejoin="round"/>
    <path d="M 146.97642517089844 143.44393920898438 C 140.6779022216797 141.09042358398438 137.32754516601562 148.30616760253906 118.81787109375 140.0558319091797" stroke-width="2" fill="none" stroke="rgb(0, 0, 0)" stroke-opacity="1.0" stroke-linecap="round" stroke-linejoin="round"/>
    <path d="M 185.91905212402344 91.40022277832031 C 152.94192504882812 126.4068832397461 154.8983612060547 104.62754821777344 144.86692810058594 115.16503143310547" stroke-width="2" fill="none" stroke="rgb(0, 0, 0)" stroke-opacity="1.0" stroke-linecap="round" stroke-linejoin="round"/>
    <path d="M 138.9781951904297 98.0897445678711 C 134.21185302734375 109.30160522460938 121.4269790649414 90.81517028808594 101.13861846923828 67.90960693359375" stroke-width="2" fill="none" stroke="rgb(0, 0, 0)" stroke-opacity="1.0" stroke-linecap="round" stroke-linejoin="round"/>
    <path d="M 98.5724868774414 70.29295349121094 C 89.2419662475586 86.77912902832031 98.82626342773438 126.79986572265625 97.81804656982422 120.5184097290039" stroke-width="2" fill="none" stroke="rgb(0, 0, 0)" stroke-opacity="1.0" stroke-linecap="round" stroke-linejoin="round"/>
    <path d="M 39.26803207397461 129.86886596679688 C 38.05644989013672 156.0614471435547 121.47245788574219 163.72647094726562 94.38550567626953 145.1320037841797" stroke-width="2" fill="none" stroke="rgb(0, 0, 0)" stroke-opacity="1.0" stroke-linecap="round" stroke-linejoin="round"/>
    <path d="M 152.33712768554688 127.60887145996094 C 189.56163024902344 119.31240844726562 157.34939575195312 84.03350830078125 127.51304626464844 103.80821990966797" stroke-width="2" fill="none" stroke="rgb(0, 0, 0)" stroke-opacity="1.0" stroke-linecap="round" stroke-linejoin="round"/>
    <path d="M 112.2542953491211 131.29464721679688 C 122.93009948730469 110.61522674560547 110.72461700439453 120.37789916992188 108.36083221435547 133.46661376953125" stroke-width="2" fill="none" stroke="rgb(0, 0, 0)" stroke-opacity="1.0" stroke-linecap="round" stroke-linejoin="round"/>
    <path d="M 181.6427459716797 83.86637115478516 C 177.5889892578125 105.68433380126953 191.6286163330078 99.33148193359375 188.13766479492188 68.7203369140625" stroke-width="2" fill="none" stroke="rgb(0, 0, 0)" stroke-opacity="1.0" stroke-linecap="round" stroke-linejoin="round"/>
    <path d="M 155.98208618164062 122.4151611328125 C 173.8047637939453 136.59771728515625 182.69056701660156 141.0386199951172 155.0497589111328 137.16920471191406" stroke-width="2" fill="none" stroke="rgb(0, 0, 0)" stroke-opacity="1.0" stroke-linecap="round" stroke-linejoin="round"/>
    <path d="M 76.3784408569336 143.51202392578125 C 47.243492126464844 148.49224853515625 47.476924896240234 131.87777709960938 78.57672882080078 143.74752807617188" stroke-width="2" fill="none" stroke="rgb(0, 0, 0)" stroke-opacity="1.0" stroke-linecap="round" stroke-linejoin="round"/>
    <path d="M 136.46250915527344 125.31771850585938 C 120.63150787353516 113.83503723144531 111.78630828857422 152.87611389160156 100.1085205078125 70.46028137207031" stroke-width="2" fill="none" stroke="rgb(0, 0, 0)" stroke-opacity="1.0" stroke-linecap="round" stroke-linejoin="round"/>
    <path d="M 166.80984497070312 147.47129821777344 C 186.0098419189453 84.2639389038086 176.2970428466797 69.48199462890625 184.80918884277344 84.5690689086914" stroke-width="2" fill="none" stroke="rgb(0, 0, 0)" stroke-opacity="1.0" stroke-linecap="round" stroke-linejoin="round"/>
    <path d="M 79.16349029541016 85.7763671875 C 91.09329223632812 87.66676330566406 84.03980255126953 101.82162475585938 88.22775268554688 88.76597595214844" stroke-width="2" fill="none" stroke="rgb(0, 0, 0)" stroke-opacity="1.0" stroke-linecap="round" stroke-linejoin="round"/>
    <path d="M 85.12261962890625 110.75592803955078 C 44.51121139526367 113.25028228759766 52.34199523925781 104.65062713623047 43.06129837036133 140.78004455566406" stroke-width="2" fill="none" stroke="rgb(0, 0, 0)" stroke-opacity="1.0" stroke-linecap="round" stroke-linejoin="round"/>
  </g>
</svg>
