<?xml version="1.0" ?>
<svg xmlns="http://www.w3.org/2000/svg" version="1.1" width="224" height="224">
  <defs/>
  <g>
    <path d="M 99.48851013183594 111.08135986328125 C 80.11559295654297 114.71476745605469 93.68779754638672 106.65269470214844 106.08021545410156 112.04029846191406" stroke-width="2" fill="none" stroke="rgb(0, 0, 0)" stroke-opacity="1.0" stroke-linecap="round" stroke-linejoin="round"/>
    <path d="M 139.66839599609375 156.40969848632812 C 114.0274887084961 147.05886840820312 118.44480895996094 159.96925354003906 96.25650024414062 147.00392150878906" stroke-width="2" fill="none" stroke="rgb(0, 0, 0)" stroke-opacity="1.0" stroke-linecap="round" stroke-linejoin="round"/>
    <path d="M 130.1378173828125 126.76814270019531 C 127.43724060058594 124.56470489501953 126.79179382324219 125.05772399902344 113.26056671142578 129.37779235839844" stroke-width="2" fill="none" stroke="rgb(0, 0, 0)" stroke-opacity="1.0" stroke-linecap="round" stroke-linejoin="round"/>
    <path d="M 161.6265106201172 114.65637969970703 C 151.50340270996094 119.37793731689453 159.7754669189453 117.98617553710938 155.84869384765625 123.9998550415039" stroke-width="2" fill="none" stroke="rgb(0, 0, 0)" stroke-opacity="1.0" stroke-linecap="round" stroke-linejoin="round"/>
    <path d="M 127.40818786621094 114.4104232788086 C 132.65048217773438 103.54939270019531 122.7562484741211 87.7732162475586 114.07858276367188 72.2588882446289" stroke-width="2" fill="none" stroke="rgb(0, 0, 0)" stroke-opacity="1.0" stroke-linecap="round" stroke-linejoin="round"/>
    <path d="M 113.43949890136719 75.66670227050781 C 108.453125 98.06059265136719 111.566650390625 107.55876159667969 111.0949478149414 115.89781188964844" stroke-width="2" fill="none" stroke="rgb(0, 0, 0)" stroke-opacity="1.0" stroke-linecap="round" stroke-linejoin="round"/>
    <path d="M 48.55839920043945 145.2411346435547 C 57.034820556640625 156.53298950195312 91.44974517822266 157.77125549316406 109.55857849121094 146.1759490966797" stroke-width="2" fill="none" stroke="rgb(0, 0, 0)" stroke-opacity="1.0" stroke-linecap="round" stroke-linejoin="round"/>
    <path d="M 155.550048828125 130.53196716308594 C 150.76669311523438 115.423583984375 141.73841857910156 105.12567138671875 126.37290954589844 112.21026611328125" stroke-width="2" fill="none" stroke="rgb(0, 0, 0)" stroke-opacity="1.0" stroke-linecap="round" stroke-linejoin="round"/>
    <path d="M 109.580078125 136.85354614257812 C 145.81167602539062 126.97473907470703 130.0133056640625 114.27123260498047 107.28617858886719 132.68031311035156" stroke-width="2" fill="none" stroke="rgb(0, 0, 0)" stroke-opacity="1.0" stroke-linecap="round" stroke-linejoin="round"/>
    <path d="M 182.9968719482422 83.40670013427734 C 180.75323486328125 107.56848907470703 187.48472595214844 97.20816040039062 177.38108825683594 55.31904220581055" stroke-width="2" fill="none" stroke="rgb(0, 0, 0)" stroke-opacity="1.0" stroke-linecap="round" stroke-linejoin="round"/>
    <path d="M 159.29849243164062 129.95082092285156 C 169.85574340820312 151.28179931640625 175.501953125 142.61294555664062 170.20785522460938 158.69674682617188" stroke-width="2" fill="none" stroke="rgb(0, 0, 0)" stroke-opacity="1.0" stroke-linecap="round" stroke-linejoin="round"/>
    <path d="M 72.52999114990234 148.760498046875 C 49.38597869873047 149.53375244140625 40.860172271728516 140.07427978515625 76.85636138916016 144.337158203125" stroke-width="2" fill="none" stroke="rgb(0, 0, 0)" stroke-opacity="1.0" stroke-linecap="round" stroke-linejoin="round"/>
    <path d="M 128.6361083984375 115.61494445800781 C 120.91454315185547 122.91865539550781 117.41380310058594 103.59646606445312 114.11397552490234 71.48966217041016" stroke-width="2" fill="none" stroke="rgb(0, 0, 0)" stroke-opacity="1.0" stroke-linecap="round" stroke-linejoin="round"/>
    <path d="M 170.84100341796875 123.73888397216797 C 191.53892517089844 91.40299224853516 185.17922973632812 72.70706939697266 182.9821014404297 85.5761489868164" stroke-width="2" fill="none" stroke="rgb(0, 0, 0)" stroke-opacity="1.0" stroke-linecap="round" stroke-linejoin="round"/>
    <path d="M 78.24767303466797 74.34668731689453 C 79.20954895019531 104.17786407470703 77.42583465576172 114.38053894042969 89.00373077392578 78.00053405761719" stroke-width="2" fill="none" stroke="rgb(0, 0, 0)" stroke-opacity="1.0" stroke-linecap="round" stroke-linejoin="round"/>
    <path d="M 60.20497512817383 98.10726165771484 C 46.47903060913086 114.97177124023438 58.73937225341797 108.25978088378906 51.5822868347168 129.61285400390625" stroke-width="2" fill="none" stroke="rgb(0, 0, 0)" stroke-opacity="1.0" stroke-linecap="round" stroke-linejoin="round"/>
  </g>
</svg>
