<?xml version="1.0" ?>
<svg xmlns="http://www.w3.org/2000/svg" version="1.1" width="224" height="224">
  <defs/>
  <g>
    <path d="M 68.8617935180664 106.23139953613281 C 120.81201934814453 136.43829345703125 77.27067565917969 105.9970932006836 66.20628356933594 95.98937225341797" stroke-width="3.0" fill="none" stroke="rgb(0, 0, 0)" stroke-opacity="1.0" stroke-linecap="round" stroke-linejoin="round"/>
    <path d="M 139.05320739746094 198.35096740722656 C 201.21554565429688 219.44448852539062 169.4874725341797 202.8029327392578 151.3421173095703 178.96600341796875" stroke-width="3.0" fill="none" stroke="rgb(0, 0, 0)" stroke-opacity="1.0" stroke-linecap="round" stroke-linejoin="round"/>
    <path d="M 108.68450927734375 178.03121948242188 C 167.83377075195312 176.8589630126953 103.19452667236328 105.26678466796875 102.79653930664062 173.31634521484375" stroke-width="3.0" fill="none" stroke="rgb(0, 0, 0)" stroke-opacity="1.0" stroke-linecap="round" stroke-linejoin="round"/>
    <path d="M 148.98687744140625 108.47607421875 C 99.67880249023438 91.74114990234375 127.98223114013672 120.87218475341797 126.91546630859375 101.04737091064453" stroke-width="3.0" fill="none" stroke="rgb(0, 0, 0)" stroke-opacity="1.0" stroke-linecap="round" stroke-linejoin="round"/>
    <path d="M 89.19403839111328 59.0195426940918 C 56.416080474853516 65.28474426269531 85.08567810058594 43.61460876464844 97.29429626464844 39.64625549316406" stroke-width="3.0" fill="none" stroke="rgb(0, 0, 0)" stroke-opacity="1.0" stroke-linecap="round" stroke-linejoin="round"/>
    <path d="M 79.34423828125 25.190269470214844 C 107.8554458618164 55.23553466796875 82.36388397216797 48.26374435424805 74.17417907714844 62.56622314453125" stroke-width="3.0" fill="none" stroke="rgb(0, 0, 0)" stroke-opacity="1.0" stroke-linecap="round" stroke-linejoin="round"/>
    <path d="M 169.1970977783203 143.3365478515625 C 190.3043975830078 194.79702758789062 173.48318481445312 144.75827026367188 141.12542724609375 159.68240356445312" stroke-width="3.0" fill="none" stroke="rgb(0, 0, 0)" stroke-opacity="1.0" stroke-linecap="round" stroke-linejoin="round"/>
    <path d="M 81.43064880371094 128.50128173828125 C 90.87710571289062 121.69869232177734 68.07041931152344 126.55892181396484 66.30224609375 103.91519927978516" stroke-width="3.0" fill="none" stroke="rgb(0, 0, 0)" stroke-opacity="1.0" stroke-linecap="round" stroke-linejoin="round"/>
    <path d="M 111.1454849243164 162.6973419189453 C 146.21437072753906 173.1845245361328 118.91577911376953 123.48224639892578 94.58081817626953 181.8234405517578" stroke-width="3.0" fill="none" stroke="rgb(0, 0, 0)" stroke-opacity="1.0" stroke-linecap="round" stroke-linejoin="round"/>
    <path d="M 76.603271484375 27.947988510131836 C 89.88172912597656 53.458656311035156 89.95594787597656 32.11083984375 75.88836669921875 46.072574615478516" stroke-width="3.0" fill="none" stroke="rgb(0, 0, 0)" stroke-opacity="1.0" stroke-linecap="round" stroke-linejoin="round"/>
    <path d="M 85.57867431640625 204.04750061035156 C 197.11553955078125 192.70689392089844 124.59934997558594 182.04458618164062 164.6468048095703 201.5438690185547" stroke-width="3.0" fill="none" stroke="rgb(0, 0, 0)" stroke-opacity="1.0" stroke-linecap="round" stroke-linejoin="round"/>
    <path d="M 170.04742431640625 201.89569091796875 C 200.5513916015625 152.62680053710938 147.62997436523438 139.34945678710938 138.2357635498047 155.77552795410156" stroke-width="3.0" fill="none" stroke="rgb(0, 0, 0)" stroke-opacity="1.0" stroke-linecap="round" stroke-linejoin="round"/>
    <path d="M 108.66454315185547 76.75769805908203 C 77.41888427734375 62.720458984375 161.1260986328125 54.12571334838867 98.64889526367188 89.94879913330078" stroke-width="3.0" fill="none" stroke="rgb(0, 0, 0)" stroke-opacity="1.0" stroke-linecap="round" stroke-linejoin="round"/>
    <path d="M 79.25696563720703 73.66162109375 C 106.01107025146484 64.34033966064453 62.163997650146484 52.800418853759766 66.58059692382812 102.26428985595703" stroke-width="3.0" fill="none" stroke="rgb(0, 0, 0)" stroke-opacity="1.0" stroke-linecap="round" stroke-linejoin="round"/>
    <path d="M 103.73817443847656 46.91644287109375 C 126.76203155517578 72.10784912109375 135.607421875 61.060794830322266 100.47525024414062 40.00533676147461" stroke-width="3.0" fill="none" stroke="rgb(0, 0, 0)" stroke-opacity="1.0" stroke-linecap="round" stroke-linejoin="round"/>
    <path d="M 104.107666015625 92.75593566894531 C 70.66431427001953 99.44781494140625 75.75396728515625 78.3127670288086 72.5028076171875 83.54299926757812" stroke-width="3.0" fill="none" stroke="rgb(0, 0, 0)" stroke-opacity="1.0" stroke-linecap="round" stroke-linejoin="round"/>
    <path d="M 121.60037994384766 89.48774719238281 C 123.62471771240234 99.55384063720703 171.67994689941406 108.2343978881836 179.78944396972656 156.56686401367188" stroke-width="3.0" fill="none" stroke="rgb(0, 0, 0)" stroke-opacity="1.0" stroke-linecap="round" stroke-linejoin="round"/>
    <path d="M 124.70344543457031 97.1800308227539 C 120.52395629882812 133.567138671875 131.2443084716797 111.29619598388672 111.3867416381836 59.8676643371582" stroke-width="3.0" fill="none" stroke="rgb(0, 0, 0)" stroke-opacity="1.0" stroke-linecap="round" stroke-linejoin="round"/>
    <path d="M 75.25102996826172 74.62639617919922 C 107.42927551269531 111.4458999633789 137.61415100097656 81.19044494628906 107.17130279541016 71.24810791015625" stroke-width="3.0" fill="none" stroke="rgb(0, 0, 0)" stroke-opacity="1.0" stroke-linecap="round" stroke-linejoin="round"/>
    <path d="M 67.5168685913086 104.99028015136719 C 88.8204574584961 178.0410614013672 122.82888793945312 170.3624725341797 81.82918548583984 132.36328125" stroke-width="3.0" fill="none" stroke="rgb(0, 0, 0)" stroke-opacity="1.0" stroke-linecap="round" stroke-linejoin="round"/>
    <path d="M 92.80943298339844 74.2414779663086 C 118.44363403320312 82.32056427001953 66.82693481445312 98.6148910522461 99.43042755126953 43.575645446777344" stroke-width="3.0" fill="none" stroke="rgb(0, 0, 0)" stroke-opacity="1.0" stroke-linecap="round" stroke-linejoin="round"/>
    <path d="M 114.86356353759766 84.14335632324219 C 138.5624237060547 94.2690658569336 75.87772369384766 113.80101776123047 71.44153594970703 89.73058319091797" stroke-width="3.0" fill="none" stroke="rgb(0, 0, 0)" stroke-opacity="1.0" stroke-linecap="round" stroke-linejoin="round"/>
    <path d="M 87.6557388305664 95.59761810302734 C 106.21589660644531 72.24691009521484 72.95219421386719 138.36866760253906 78.08995819091797 118.91069793701172" stroke-width="3.0" fill="none" stroke="rgb(0, 0, 0)" stroke-opacity="1.0" stroke-linecap="round" stroke-linejoin="round"/>
    <path d="M 91.61673736572266 110.98435974121094 C 145.21803283691406 87.96739196777344 131.94281005859375 104.7841796875 102.89432525634766 127.98114776611328" stroke-width="3.0" fill="none" stroke="rgb(0, 0, 0)" stroke-opacity="1.0" stroke-linecap="round" stroke-linejoin="round"/>
    <path d="M 157.76296997070312 123.30396270751953 C 193.60372924804688 171.75827026367188 156.85862731933594 121.90294647216797 133.23193359375 153.19598388671875" stroke-width="3.0" fill="none" stroke="rgb(0, 0, 0)" stroke-opacity="1.0" stroke-linecap="round" stroke-linejoin="round"/>
    <path d="M 121.3818130493164 57.300193786621094 C 126.68425750732422 54.39535903930664 120.87169647216797 93.45499420166016 121.75271606445312 27.26268196105957" stroke-width="3.0" fill="none" stroke="rgb(0, 0, 0)" stroke-opacity="1.0" stroke-linecap="round" stroke-linejoin="round"/>
    <path d="M 129.45765686035156 145.54989624023438 C 141.7656707763672 94.59394073486328 70.18010711669922 116.46217346191406 102.6954574584961 140.7647705078125" stroke-width="3.0" fill="none" stroke="rgb(0, 0, 0)" stroke-opacity="1.0" stroke-linecap="round" stroke-linejoin="round"/>
    <path d="M 123.68020629882812 104.71395874023438 C 80.30619049072266 115.17455291748047 74.57752227783203 128.8500518798828 105.4881820678711 213.01145935058594" stroke-width="3.0" fill="none" stroke="rgb(0, 0, 0)" stroke-opacity="1.0" stroke-linecap="round" stroke-linejoin="round"/>
    <path d="M 121.04930877685547 26.3090763092041 C 97.13028717041016 54.25524139404297 112.02581024169922 40.47346115112305 123.3707504272461 45.57198715209961" stroke-width="3.0" fill="none" stroke="rgb(0, 0, 0)" stroke-opacity="1.0" stroke-linecap="round" stroke-linejoin="round"/>
    <path d="M 104.6919174194336 142.47589111328125 C 123.07441711425781 114.90460968017578 140.7137451171875 172.0828399658203 128.7653350830078 102.24279022216797" stroke-width="3.0" fill="none" stroke="rgb(0, 0, 0)" stroke-opacity="1.0" stroke-linecap="round" stroke-linejoin="round"/>
    <path d="M 107.23583984375 55.175418853759766 C 90.4438247680664 98.34693145751953 90.28995513916016 70.19932556152344 104.33191680908203 48.05696487426758" stroke-width="3.0" fill="none" stroke="rgb(0, 0, 0)" stroke-opacity="1.0" stroke-linecap="round" stroke-linejoin="round"/>
    <path d="M 73.9173583984375 69.86337280273438 C 79.43155670166016 36.0567626953125 66.23748779296875 19.665912628173828 77.35565185546875 24.515291213989258" stroke-width="3.0" fill="none" stroke="rgb(0, 0, 0)" stroke-opacity="1.0" stroke-linecap="round" stroke-linejoin="round"/>
  </g>
</svg>
