<?xml version="1.0" ?>
<svg xmlns="http://www.w3.org/2000/svg" version="1.1" width="224" height="224">
  <defs/>
  <g>
    <path d="M 83.39871215820312 125.8724594116211 C 58.0460090637207 137.30389404296875 107.26569366455078 121.1268310546875 85.95854949951172 131.5851593017578" stroke-width="2" fill="none" stroke="rgb(0, 0, 0)" stroke-opacity="1.0" stroke-linecap="round" stroke-linejoin="round"/>
    <path d="M 123.40953063964844 140.0215301513672 C 235.80728149414062 150.5471954345703 180.9049072265625 161.25306701660156 88.37931060791016 156.44911193847656" stroke-width="2" fill="none" stroke="rgb(0, 0, 0)" stroke-opacity="1.0" stroke-linecap="round" stroke-linejoin="round"/>
    <path d="M 106.22034454345703 139.69981384277344 C 109.42511749267578 102.98790740966797 92.85140991210938 176.03123474121094 116.41127014160156 116.1245346069336" stroke-width="2" fill="none" stroke="rgb(0, 0, 0)" stroke-opacity="1.0" stroke-linecap="round" stroke-linejoin="round"/>
    <path d="M 119.05794525146484 138.2999267578125 C 147.02732849121094 130.78353881835938 99.67825317382812 129.94686889648438 128.8887176513672 121.98945617675781" stroke-width="2" fill="none" stroke="rgb(0, 0, 0)" stroke-opacity="1.0" stroke-linecap="round" stroke-linejoin="round"/>
    <path d="M 126.8121109008789 118.4605941772461 C 142.2848358154297 98.55506134033203 139.2639923095703 97.83283996582031 101.81941986083984 67.69964599609375" stroke-width="2" fill="none" stroke="rgb(0, 0, 0)" stroke-opacity="1.0" stroke-linecap="round" stroke-linejoin="round"/>
    <path d="M 101.62445068359375 67.77609252929688 C 89.44124603271484 75.1369400024414 107.08893585205078 123.66681671142578 98.02359008789062 99.42849731445312" stroke-width="2" fill="none" stroke="rgb(0, 0, 0)" stroke-opacity="1.0" stroke-linecap="round" stroke-linejoin="round"/>
    <path d="M 43.597999572753906 139.7626953125 C 69.74774932861328 166.50144958496094 123.42826843261719 173.48252868652344 129.56298828125 131.06927490234375" stroke-width="2" fill="none" stroke="rgb(0, 0, 0)" stroke-opacity="1.0" stroke-linecap="round" stroke-linejoin="round"/>
    <path d="M 175.6874542236328 149.80628967285156 C 157.2123260498047 118.53484344482422 115.12265014648438 180.60047912597656 110.07129669189453 109.33314514160156" stroke-width="2" fill="none" stroke="rgb(0, 0, 0)" stroke-opacity="1.0" stroke-linecap="round" stroke-linejoin="round"/>
    <path d="M 101.74156188964844 135.613525390625 C 104.82530975341797 112.00424194335938 118.7774429321289 156.26344299316406 98.68380737304688 130.34352111816406" stroke-width="2" fill="none" stroke="rgb(0, 0, 0)" stroke-opacity="1.0" stroke-linecap="round" stroke-linejoin="round"/>
    <path d="M 176.4445343017578 88.5241470336914 C 137.99989318847656 74.24860382080078 182.13401794433594 85.70783996582031 118.12659454345703 81.66404724121094" stroke-width="2" fill="none" stroke="rgb(0, 0, 0)" stroke-opacity="1.0" stroke-linecap="round" stroke-linejoin="round"/>
    <path d="M 143.6354522705078 141.27456665039062 C 96.35370635986328 120.58063507080078 211.471923828125 141.363037109375 176.787841796875 131.49700927734375" stroke-width="2" fill="none" stroke="rgb(0, 0, 0)" stroke-opacity="1.0" stroke-linecap="round" stroke-linejoin="round"/>
    <path d="M 96.74308013916016 151.08694458007812 C 63.65167236328125 135.23590087890625 115.34270477294922 156.8617706298828 86.421142578125 154.5373992919922" stroke-width="2" fill="none" stroke="rgb(0, 0, 0)" stroke-opacity="1.0" stroke-linecap="round" stroke-linejoin="round"/>
    <path d="M 120.78567504882812 111.24884796142578 C 172.53282165527344 66.8862533569336 147.89501953125 118.36225128173828 103.51863861083984 73.30291748046875" stroke-width="2" fill="none" stroke="rgb(0, 0, 0)" stroke-opacity="1.0" stroke-linecap="round" stroke-linejoin="round"/>
    <path d="M 168.20228576660156 98.42732238769531 C 191.8285675048828 103.4293212890625 129.10215759277344 80.24633026123047 175.69400024414062 90.2321548461914" stroke-width="2" fill="none" stroke="rgb(0, 0, 0)" stroke-opacity="1.0" stroke-linecap="round" stroke-linejoin="round"/>
    <path d="M 68.3457260131836 120.15402221679688 C 61.01906967163086 101.56047058105469 69.90312957763672 95.38220977783203 91.59983825683594 91.68669128417969" stroke-width="2" fill="none" stroke="rgb(0, 0, 0)" stroke-opacity="1.0" stroke-linecap="round" stroke-linejoin="round"/>
    <path d="M 71.65715789794922 97.02310943603516 C 64.22465515136719 117.14800262451172 41.8424072265625 95.74512481689453 36.1224365234375 135.2030487060547" stroke-width="2" fill="none" stroke="rgb(0, 0, 0)" stroke-opacity="1.0" stroke-linecap="round" stroke-linejoin="round"/>
  </g>
</svg>
