<?xml version="1.0" ?>
<svg xmlns="http://www.w3.org/2000/svg" version="1.1" width="224" height="224">
  <defs/>
  <g>
    <path d="M 88.14635467529297 124.46615600585938 C 57.753684997558594 136.6555938720703 115.61285400390625 123.03826904296875 86.3742446899414 133.30601501464844" stroke-width="2" fill="none" stroke="rgb(0, 0, 0)" stroke-opacity="1.0" stroke-linecap="round" stroke-linejoin="round"/>
    <path d="M 118.33114624023438 146.41717529296875 C 236.40330505371094 146.8054962158203 177.9150390625 159.17892456054688 89.3145980834961 156.2198028564453" stroke-width="2" fill="none" stroke="rgb(0, 0, 0)" stroke-opacity="1.0" stroke-linecap="round" stroke-linejoin="round"/>
    <path d="M 104.15380096435547 139.9508056640625 C 110.34898376464844 106.0174789428711 88.08236694335938 173.7158203125 116.59822845458984 117.8076171875" stroke-width="2" fill="none" stroke="rgb(0, 0, 0)" stroke-opacity="1.0" stroke-linecap="round" stroke-linejoin="round"/>
    <path d="M 117.80201721191406 139.4626922607422 C 151.7314910888672 135.37908935546875 97.50447082519531 133.3699951171875 128.5583038330078 125.98926544189453" stroke-width="2" fill="none" stroke="rgb(0, 0, 0)" stroke-opacity="1.0" stroke-linecap="round" stroke-linejoin="round"/>
    <path d="M 126.68368530273438 122.06273651123047 C 146.40316772460938 98.78541564941406 139.71453857421875 99.87004852294922 101.38312530517578 70.62349700927734" stroke-width="2" fill="none" stroke="rgb(0, 0, 0)" stroke-opacity="1.0" stroke-linecap="round" stroke-linejoin="round"/>
    <path d="M 99.22059631347656 69.53504943847656 C 89.46463012695312 80.01062774658203 108.79285430908203 123.43171691894531 103.02560424804688 93.46040344238281" stroke-width="2" fill="none" stroke="rgb(0, 0, 0)" stroke-opacity="1.0" stroke-linecap="round" stroke-linejoin="round"/>
    <path d="M 42.53873062133789 139.39279174804688 C 68.27582550048828 166.36602783203125 121.82809448242188 172.61981201171875 121.09745025634766 132.35057067871094" stroke-width="2" fill="none" stroke="rgb(0, 0, 0)" stroke-opacity="1.0" stroke-linecap="round" stroke-linejoin="round"/>
    <path d="M 174.44223022460938 151.63937377929688 C 158.46580505371094 118.22166442871094 110.09500885009766 178.25283813476562 111.70868682861328 110.20087432861328" stroke-width="2" fill="none" stroke="rgb(0, 0, 0)" stroke-opacity="1.0" stroke-linecap="round" stroke-linejoin="round"/>
    <path d="M 100.82291412353516 135.61087036132812 C 108.62841033935547 113.5028076171875 110.17467498779297 157.84597778320312 98.92668914794922 133.819580078125" stroke-width="2" fill="none" stroke="rgb(0, 0, 0)" stroke-opacity="1.0" stroke-linecap="round" stroke-linejoin="round"/>
    <path d="M 172.73098754882812 90.90167236328125 C 134.22621154785156 79.73331451416016 182.2405242919922 87.27064514160156 127.69722747802734 87.99907684326172" stroke-width="2" fill="none" stroke="rgb(0, 0, 0)" stroke-opacity="1.0" stroke-linecap="round" stroke-linejoin="round"/>
    <path d="M 141.9619598388672 143.48696899414062 C 92.01544952392578 120.2509765625 205.64849853515625 142.59744262695312 170.7288360595703 132.01974487304688" stroke-width="2" fill="none" stroke="rgb(0, 0, 0)" stroke-opacity="1.0" stroke-linecap="round" stroke-linejoin="round"/>
    <path d="M 96.9493637084961 151.1250457763672 C 71.71240997314453 133.73828125 125.21057891845703 154.77098083496094 84.12239074707031 152.41488647460938" stroke-width="2" fill="none" stroke="rgb(0, 0, 0)" stroke-opacity="1.0" stroke-linecap="round" stroke-linejoin="round"/>
    <path d="M 121.98797607421875 113.88124084472656 C 174.17459106445312 83.22894287109375 137.4928741455078 130.41375732421875 104.70310974121094 72.75608825683594" stroke-width="2" fill="none" stroke="rgb(0, 0, 0)" stroke-opacity="1.0" stroke-linecap="round" stroke-linejoin="round"/>
    <path d="M 167.48287963867188 99.6229248046875 C 189.73257446289062 99.39754486083984 131.8040008544922 89.17591857910156 172.0247039794922 93.61498260498047" stroke-width="2" fill="none" stroke="rgb(0, 0, 0)" stroke-opacity="1.0" stroke-linecap="round" stroke-linejoin="round"/>
    <path d="M 70.99934387207031 118.389404296875 C 64.69528198242188 101.66687774658203 71.3936767578125 95.55947875976562 90.99340057373047 95.43270111083984" stroke-width="2" fill="none" stroke="rgb(0, 0, 0)" stroke-opacity="1.0" stroke-linecap="round" stroke-linejoin="round"/>
    <path d="M 73.58142852783203 97.12611389160156 C 63.69942092895508 119.89710998535156 42.847904205322266 92.30091094970703 35.701026916503906 133.64865112304688" stroke-width="2" fill="none" stroke="rgb(0, 0, 0)" stroke-opacity="1.0" stroke-linecap="round" stroke-linejoin="round"/>
  </g>
</svg>
