<?xml version="1.0" ?>
<svg xmlns="http://www.w3.org/2000/svg" version="1.1" width="224" height="224">
  <defs/>
  <g>
    <path d="M 80.9947280883789 124.21172332763672 C 64.85279846191406 131.92698669433594 104.54354095458984 118.69857788085938 82.23641204833984 130.974609375" stroke-width="2" fill="none" stroke="rgb(0, 0, 0)" stroke-opacity="1.0" stroke-linecap="round" stroke-linejoin="round"/>
    <path d="M 119.7426528930664 142.552490234375 C 214.70138549804688 145.591796875 156.23638916015625 147.7974853515625 80.40449523925781 154.29269409179688" stroke-width="2" fill="none" stroke="rgb(0, 0, 0)" stroke-opacity="1.0" stroke-linecap="round" stroke-linejoin="round"/>
    <path d="M 97.68860626220703 138.38873291015625 C 105.42720031738281 113.8802490234375 75.56806945800781 170.10302734375 114.98873138427734 122.26985168457031" stroke-width="2" fill="none" stroke="rgb(0, 0, 0)" stroke-opacity="1.0" stroke-linecap="round" stroke-linejoin="round"/>
    <path d="M 122.83513641357422 124.54753112792969 C 139.96217346191406 139.0223388671875 93.81645202636719 128.20208740234375 131.32220458984375 125.43497467041016" stroke-width="2" fill="none" stroke="rgb(0, 0, 0)" stroke-opacity="1.0" stroke-linecap="round" stroke-linejoin="round"/>
    <path d="M 126.23301696777344 120.60001373291016 C 145.1785125732422 102.05552673339844 147.35986328125 89.15625 104.70932006835938 66.9487533569336" stroke-width="2" fill="none" stroke="rgb(0, 0, 0)" stroke-opacity="1.0" stroke-linecap="round" stroke-linejoin="round"/>
    <path d="M 104.91431427001953 70.9804458618164 C 99.54686737060547 72.30985260009766 125.17963409423828 118.05619812011719 113.65583801269531 98.89679718017578" stroke-width="2" fill="none" stroke="rgb(0, 0, 0)" stroke-opacity="1.0" stroke-linecap="round" stroke-linejoin="round"/>
    <path d="M 38.940799713134766 126.92327117919922 C 71.97838592529297 175.14048767089844 124.3685302734375 157.76651000976562 113.60001373291016 132.9535369873047" stroke-width="2" fill="none" stroke="rgb(0, 0, 0)" stroke-opacity="1.0" stroke-linecap="round" stroke-linejoin="round"/>
    <path d="M 170.90272521972656 143.97027587890625 C 148.2892303466797 114.87896728515625 103.7000503540039 176.05282592773438 112.49012756347656 115.17598724365234" stroke-width="2" fill="none" stroke="rgb(0, 0, 0)" stroke-opacity="1.0" stroke-linecap="round" stroke-linejoin="round"/>
    <path d="M 92.97738647460938 136.14064025878906 C 101.92745971679688 118.4271011352539 104.56974029541016 160.41915893554688 91.48961639404297 133.89602661132812" stroke-width="2" fill="none" stroke="rgb(0, 0, 0)" stroke-opacity="1.0" stroke-linecap="round" stroke-linejoin="round"/>
    <path d="M 176.6850128173828 85.26222229003906 C 123.03414154052734 80.33380126953125 190.82598876953125 85.59115600585938 134.57949829101562 81.00389099121094" stroke-width="2" fill="none" stroke="rgb(0, 0, 0)" stroke-opacity="1.0" stroke-linecap="round" stroke-linejoin="round"/>
    <path d="M 167.7152557373047 148.1609344482422 C 114.56727600097656 126.64094543457031 206.41000366210938 151.95082092285156 173.2115478515625 133.69961547851562" stroke-width="2" fill="none" stroke="rgb(0, 0, 0)" stroke-opacity="1.0" stroke-linecap="round" stroke-linejoin="round"/>
    <path d="M 100.48479461669922 153.57327270507812 C 60.712833404541016 136.8031463623047 129.3987274169922 156.6735382080078 89.01971435546875 148.71533203125" stroke-width="2" fill="none" stroke="rgb(0, 0, 0)" stroke-opacity="1.0" stroke-linecap="round" stroke-linejoin="round"/>
    <path d="M 120.30595397949219 113.34767150878906 C 160.77218627929688 73.36984252929688 164.7288055419922 121.67793273925781 110.78148651123047 70.61437225341797" stroke-width="2" fill="none" stroke="rgb(0, 0, 0)" stroke-opacity="1.0" stroke-linecap="round" stroke-linejoin="round"/>
    <path d="M 174.79888916015625 114.1998291015625 C 182.756591796875 94.31978607177734 143.59640502929688 85.19155883789062 176.44137573242188 103.94979858398438" stroke-width="2" fill="none" stroke="rgb(0, 0, 0)" stroke-opacity="1.0" stroke-linecap="round" stroke-linejoin="round"/>
    <path d="M 66.90725708007812 117.90936279296875 C 63.00359344482422 85.14191436767578 73.28886413574219 105.7995834350586 83.81742095947266 85.02462768554688" stroke-width="2" fill="none" stroke="rgb(0, 0, 0)" stroke-opacity="1.0" stroke-linecap="round" stroke-linejoin="round"/>
    <path d="M 89.0043716430664 77.17858123779297 C 64.76904296875 141.28976440429688 37.47509765625 81.13019561767578 44.54081344604492 137.8686065673828" stroke-width="2" fill="none" stroke="rgb(0, 0, 0)" stroke-opacity="1.0" stroke-linecap="round" stroke-linejoin="round"/>
  </g>
</svg>
