<?xml version="1.0" ?>
<svg xmlns="http://www.w3.org/2000/svg" version="1.1" width="224" height="224">
  <defs/>
  <g>
    <path d="M 84.07405090332031 123.89863586425781 C 57.61273956298828 136.2567138671875 103.6247787475586 121.62849426269531 79.21894073486328 132.32904052734375" stroke-width="2" fill="none" stroke="rgb(0, 0, 0)" stroke-opacity="1.0" stroke-linecap="round" stroke-linejoin="round"/>
    <path d="M 124.79950714111328 134.05104064941406 C 237.85787963867188 142.18551635742188 179.44740295410156 159.42247009277344 85.94380950927734 154.07313537597656" stroke-width="2" fill="none" stroke="rgb(0, 0, 0)" stroke-opacity="1.0" stroke-linecap="round" stroke-linejoin="round"/>
    <path d="M 100.1573486328125 136.68310546875 C 99.5468521118164 105.02018737792969 82.37364196777344 158.18368530273438 114.17462921142578 120.7963638305664" stroke-width="2" fill="none" stroke="rgb(0, 0, 0)" stroke-opacity="1.0" stroke-linecap="round" stroke-linejoin="round"/>
    <path d="M 131.35401916503906 130.48976135253906 C 144.42872619628906 123.6402359008789 140.0737762451172 129.58880615234375 125.59720611572266 127.49406433105469" stroke-width="2" fill="none" stroke="rgb(0, 0, 0)" stroke-opacity="1.0" stroke-linecap="round" stroke-linejoin="round"/>
    <path d="M 124.55174255371094 121.11144256591797 C 137.54893493652344 102.3736572265625 133.35418701171875 98.3318099975586 98.85600280761719 73.7676010131836" stroke-width="2" fill="none" stroke="rgb(0, 0, 0)" stroke-opacity="1.0" stroke-linecap="round" stroke-linejoin="round"/>
    <path d="M 99.76695251464844 69.24958801269531 C 94.66080474853516 84.0374984741211 109.94178771972656 97.48224639892578 107.04656982421875 110.36526489257812" stroke-width="2" fill="none" stroke="rgb(0, 0, 0)" stroke-opacity="1.0" stroke-linecap="round" stroke-linejoin="round"/>
    <path d="M 39.0911865234375 129.1980743408203 C 52.04695510864258 172.0777587890625 126.0204086303711 143.98094177246094 107.54844665527344 133.0167236328125" stroke-width="2" fill="none" stroke="rgb(0, 0, 0)" stroke-opacity="1.0" stroke-linecap="round" stroke-linejoin="round"/>
    <path d="M 168.25091552734375 151.72731018066406 C 156.02178955078125 125.00157165527344 102.04655456542969 173.53408813476562 109.76773071289062 120.21929168701172" stroke-width="2" fill="none" stroke="rgb(0, 0, 0)" stroke-opacity="1.0" stroke-linecap="round" stroke-linejoin="round"/>
    <path d="M 98.40751647949219 134.4607391357422 C 100.51345825195312 118.04327392578125 108.03849029541016 140.4181365966797 91.92056274414062 129.9615020751953" stroke-width="2" fill="none" stroke="rgb(0, 0, 0)" stroke-opacity="1.0" stroke-linecap="round" stroke-linejoin="round"/>
    <path d="M 180.01722717285156 86.3274154663086 C 113.04907989501953 79.11514282226562 180.8765106201172 90.90645599365234 124.85818481445312 82.51886749267578" stroke-width="2" fill="none" stroke="rgb(0, 0, 0)" stroke-opacity="1.0" stroke-linecap="round" stroke-linejoin="round"/>
    <path d="M 163.14952087402344 150.71372985839844 C 133.03477478027344 128.86085510253906 195.30384826660156 164.49510192871094 180.05995178222656 147.43405151367188" stroke-width="2" fill="none" stroke="rgb(0, 0, 0)" stroke-opacity="1.0" stroke-linecap="round" stroke-linejoin="round"/>
    <path d="M 97.5870590209961 153.48931884765625 C 52.852230072021484 126.50130462646484 124.58992767333984 150.62753295898438 85.70048522949219 145.7851104736328" stroke-width="2" fill="none" stroke="rgb(0, 0, 0)" stroke-opacity="1.0" stroke-linecap="round" stroke-linejoin="round"/>
    <path d="M 114.76530456542969 112.67682647705078 C 137.27798461914062 85.94561767578125 165.58334350585938 127.73924255371094 102.55400085449219 65.37776184082031" stroke-width="2" fill="none" stroke="rgb(0, 0, 0)" stroke-opacity="1.0" stroke-linecap="round" stroke-linejoin="round"/>
    <path d="M 177.20579528808594 106.84383392333984 C 191.89988708496094 79.6973648071289 153.1558380126953 83.52792358398438 180.71298217773438 92.03221130371094" stroke-width="2" fill="none" stroke="rgb(0, 0, 0)" stroke-opacity="1.0" stroke-linecap="round" stroke-linejoin="round"/>
    <path d="M 68.25371551513672 124.0797119140625 C 53.129737854003906 82.45499420166016 82.71566009521484 131.33441162109375 70.770263671875 98.29106140136719" stroke-width="2" fill="none" stroke="rgb(0, 0, 0)" stroke-opacity="1.0" stroke-linecap="round" stroke-linejoin="round"/>
    <path d="M 80.73847198486328 77.40913391113281 C 56.7833137512207 143.53591918945312 52.290794372558594 89.39187622070312 40.20133972167969 137.86660766601562" stroke-width="2" fill="none" stroke="rgb(0, 0, 0)" stroke-opacity="1.0" stroke-linecap="round" stroke-linejoin="round"/>
  </g>
</svg>
