<?xml version="1.0" ?>
<svg xmlns="http://www.w3.org/2000/svg" version="1.1" width="224" height="224">
  <defs/>
  <g>
    <path d="M 88.84043884277344 128.96864318847656 C 60.43527603149414 137.2988739013672 116.46400451660156 127.92192077636719 79.2815933227539 131.6112060546875" stroke-width="2" fill="none" stroke="rgb(0, 0, 0)" stroke-opacity="1.0" stroke-linecap="round" stroke-linejoin="round"/>
    <path d="M 118.18353271484375 132.58204650878906 C 202.99078369140625 140.6704864501953 197.64093017578125 159.90147399902344 111.97840881347656 145.79791259765625" stroke-width="2" fill="none" stroke="rgb(0, 0, 0)" stroke-opacity="1.0" stroke-linecap="round" stroke-linejoin="round"/>
    <path d="M 110.90736389160156 129.89920043945312 C 91.50885009765625 116.47509002685547 115.72816467285156 167.73143005371094 113.49669647216797 106.08557891845703" stroke-width="2" fill="none" stroke="rgb(0, 0, 0)" stroke-opacity="1.0" stroke-linecap="round" stroke-linejoin="round"/>
    <path d="M 117.52274322509766 138.94850158691406 C 168.47230529785156 102.94640350341797 108.030517578125 122.28292083740234 131.66221618652344 114.18869018554688" stroke-width="2" fill="none" stroke="rgb(0, 0, 0)" stroke-opacity="1.0" stroke-linecap="round" stroke-linejoin="round"/>
    <path d="M 142.7569580078125 111.63750457763672 C 148.13381958007812 97.08125305175781 133.91209411621094 98.15694427490234 99.32298278808594 69.8489990234375" stroke-width="2" fill="none" stroke="rgb(0, 0, 0)" stroke-opacity="1.0" stroke-linecap="round" stroke-linejoin="round"/>
    <path d="M 98.57994079589844 68.1289291381836 C 93.19361877441406 77.0190200805664 115.48973846435547 115.35506439208984 101.31930541992188 97.93826293945312" stroke-width="2" fill="none" stroke="rgb(0, 0, 0)" stroke-opacity="1.0" stroke-linecap="round" stroke-linejoin="round"/>
    <path d="M 49.16877365112305 135.20181274414062 C 34.147457122802734 155.19622802734375 135.3277130126953 161.14987182617188 123.02324676513672 143.28616333007812" stroke-width="2" fill="none" stroke="rgb(0, 0, 0)" stroke-opacity="1.0" stroke-linecap="round" stroke-linejoin="round"/>
    <path d="M 166.09426879882812 153.8301544189453 C 118.09339904785156 119.92919158935547 137.35914611816406 165.1675262451172 106.71992492675781 113.90270233154297" stroke-width="2" fill="none" stroke="rgb(0, 0, 0)" stroke-opacity="1.0" stroke-linecap="round" stroke-linejoin="round"/>
    <path d="M 111.40237426757812 135.6805419921875 C 92.04410552978516 110.6185302734375 125.76490020751953 164.17364501953125 100.31883239746094 132.51632690429688" stroke-width="2" fill="none" stroke="rgb(0, 0, 0)" stroke-opacity="1.0" stroke-linecap="round" stroke-linejoin="round"/>
    <path d="M 194.5671844482422 68.2846450805664 C 149.0862579345703 72.49219512939453 187.9325714111328 90.1250228881836 141.72119140625 102.3932876586914" stroke-width="2" fill="none" stroke="rgb(0, 0, 0)" stroke-opacity="1.0" stroke-linecap="round" stroke-linejoin="round"/>
    <path d="M 131.77642822265625 118.31804656982422 C 91.12245178222656 112.25823974609375 186.98814392089844 107.55741882324219 152.57794189453125 119.78235626220703" stroke-width="2" fill="none" stroke="rgb(0, 0, 0)" stroke-opacity="1.0" stroke-linecap="round" stroke-linejoin="round"/>
    <path d="M 93.80699920654297 153.470458984375 C 38.712982177734375 135.05555725097656 153.73509216308594 162.65289306640625 63.33344268798828 144.7677459716797" stroke-width="2" fill="none" stroke="rgb(0, 0, 0)" stroke-opacity="1.0" stroke-linecap="round" stroke-linejoin="round"/>
    <path d="M 152.3389892578125 114.45685577392578 C 238.38307189941406 23.933658599853516 134.79254150390625 122.6899642944336 109.04631805419922 77.62767028808594" stroke-width="2" fill="none" stroke="rgb(0, 0, 0)" stroke-opacity="1.0" stroke-linecap="round" stroke-linejoin="round"/>
    <path d="M 196.9695281982422 73.40461730957031 C 228.9739227294922 70.82536315917969 153.4386749267578 69.11759948730469 205.83480834960938 69.03504943847656" stroke-width="2" fill="none" stroke="rgb(0, 0, 0)" stroke-opacity="1.0" stroke-linecap="round" stroke-linejoin="round"/>
    <path d="M 70.09256744384766 121.1772689819336 C 45.07562255859375 106.77271270751953 57.83256912231445 94.63900756835938 93.3606948852539 93.87873077392578" stroke-width="2" fill="none" stroke="rgb(0, 0, 0)" stroke-opacity="1.0" stroke-linecap="round" stroke-linejoin="round"/>
    <path d="M 71.6182861328125 97.58891296386719 C 51.16905212402344 116.76673889160156 48.64905548095703 87.34313201904297 33.20493698120117 136.3671417236328" stroke-width="2" fill="none" stroke="rgb(0, 0, 0)" stroke-opacity="1.0" stroke-linecap="round" stroke-linejoin="round"/>
  </g>
</svg>
