<?xml version="1.0" ?>
<svg xmlns="http://www.w3.org/2000/svg" version="1.1" width="224" height="224">
  <defs/>
  <g>
    <path d="M 88.25057983398438 127.606689453125 C 59.39323043823242 137.22311401367188 118.41921997070312 132.34471130371094 82.91261291503906 129.9595184326172" stroke-width="2" fill="none" stroke="rgb(0, 0, 0)" stroke-opacity="1.0" stroke-linecap="round" stroke-linejoin="round"/>
    <path d="M 120.15847778320312 134.37081909179688 C 196.122802734375 135.65191650390625 195.0684356689453 159.16737365722656 114.71936798095703 149.52430725097656" stroke-width="2" fill="none" stroke="rgb(0, 0, 0)" stroke-opacity="1.0" stroke-linecap="round" stroke-linejoin="round"/>
    <path d="M 110.53193664550781 131.29660034179688 C 92.02356719970703 104.16502380371094 117.52975463867188 163.2779998779297 116.86891174316406 102.47765350341797" stroke-width="2" fill="none" stroke="rgb(0, 0, 0)" stroke-opacity="1.0" stroke-linecap="round" stroke-linejoin="round"/>
    <path d="M 120.83478546142578 138.5209503173828 C 159.7283477783203 109.90890502929688 98.77682495117188 129.53497314453125 133.95602416992188 123.81389617919922" stroke-width="2" fill="none" stroke="rgb(0, 0, 0)" stroke-opacity="1.0" stroke-linecap="round" stroke-linejoin="round"/>
    <path d="M 134.26190185546875 110.74336242675781 C 159.13096618652344 105.67571258544922 138.03305053710938 92.31609344482422 101.0468978881836 66.26297760009766" stroke-width="2" fill="none" stroke="rgb(0, 0, 0)" stroke-opacity="1.0" stroke-linecap="round" stroke-linejoin="round"/>
    <path d="M 101.88884735107422 66.25708770751953 C 92.19402313232422 74.82402801513672 112.5884780883789 111.0305404663086 108.64045715332031 95.70926666259766" stroke-width="2" fill="none" stroke="rgb(0, 0, 0)" stroke-opacity="1.0" stroke-linecap="round" stroke-linejoin="round"/>
    <path d="M 43.3344841003418 133.9144287109375 C 30.946414947509766 156.31365966796875 132.5964813232422 160.26132202148438 129.27879333496094 142.64430236816406" stroke-width="2" fill="none" stroke="rgb(0, 0, 0)" stroke-opacity="1.0" stroke-linecap="round" stroke-linejoin="round"/>
    <path d="M 170.35670471191406 153.22662353515625 C 143.7337188720703 124.81137084960938 142.27113342285156 178.48663330078125 108.81747436523438 106.40855407714844" stroke-width="2" fill="none" stroke="rgb(0, 0, 0)" stroke-opacity="1.0" stroke-linecap="round" stroke-linejoin="round"/>
    <path d="M 114.00294494628906 130.7115020751953 C 94.85649108886719 101.36103820800781 128.19752502441406 158.10264587402344 102.74160766601562 130.9602508544922" stroke-width="2" fill="none" stroke="rgb(0, 0, 0)" stroke-opacity="1.0" stroke-linecap="round" stroke-linejoin="round"/>
    <path d="M 188.2456512451172 68.92465209960938 C 143.15782165527344 83.09392547607422 175.64096069335938 102.84840393066406 132.72325134277344 103.60066223144531" stroke-width="2" fill="none" stroke="rgb(0, 0, 0)" stroke-opacity="1.0" stroke-linecap="round" stroke-linejoin="round"/>
    <path d="M 135.00503540039062 128.6551971435547 C 97.03340148925781 113.09365844726562 194.54449462890625 109.80078125 149.7873077392578 110.52674102783203" stroke-width="2" fill="none" stroke="rgb(0, 0, 0)" stroke-opacity="1.0" stroke-linecap="round" stroke-linejoin="round"/>
    <path d="M 104.22405242919922 153.7577362060547 C 54.93186569213867 133.57748413085938 154.0344696044922 166.04135131835938 69.71769714355469 133.36288452148438" stroke-width="2" fill="none" stroke="rgb(0, 0, 0)" stroke-opacity="1.0" stroke-linecap="round" stroke-linejoin="round"/>
    <path d="M 146.58712768554688 122.81857299804688 C 239.36221313476562 8.70689868927002 125.48634338378906 117.12236785888672 113.57340240478516 74.9926528930664" stroke-width="2" fill="none" stroke="rgb(0, 0, 0)" stroke-opacity="1.0" stroke-linecap="round" stroke-linejoin="round"/>
    <path d="M 198.12779235839844 72.42485046386719 C 220.06007385253906 71.0285415649414 164.52374267578125 62.614810943603516 210.1369171142578 74.5488052368164" stroke-width="2" fill="none" stroke="rgb(0, 0, 0)" stroke-opacity="1.0" stroke-linecap="round" stroke-linejoin="round"/>
    <path d="M 60.91811752319336 126.79146575927734 C 51.2973747253418 113.3560562133789 65.76163482666016 94.54608917236328 96.02735900878906 90.16146087646484" stroke-width="2" fill="none" stroke="rgb(0, 0, 0)" stroke-opacity="1.0" stroke-linecap="round" stroke-linejoin="round"/>
    <path d="M 71.83226013183594 97.11196899414062 C 58.225547790527344 125.00128936767578 50.423675537109375 94.34406280517578 40.900028228759766 136.60438537597656" stroke-width="2" fill="none" stroke="rgb(0, 0, 0)" stroke-opacity="1.0" stroke-linecap="round" stroke-linejoin="round"/>
  </g>
</svg>
