<?xml version="1.0" ?>
<svg xmlns="http://www.w3.org/2000/svg" version="1.1" width="224" height="224">
  <defs/>
  <g>
    <path d="M 92.15744018554688 121.88996124267578 C 70.04454803466797 133.23890686035156 110.54689025878906 122.80390167236328 84.3319091796875 124.13066101074219" stroke-width="2" fill="none" stroke="rgb(0, 0, 0)" stroke-opacity="1.0" stroke-linecap="round" stroke-linejoin="round"/>
    <path d="M 110.61752319335938 143.48251342773438 C 234.7596435546875 136.2969207763672 193.87567138671875 161.48927307128906 103.32427215576172 144.9042205810547" stroke-width="2" fill="none" stroke="rgb(0, 0, 0)" stroke-opacity="1.0" stroke-linecap="round" stroke-linejoin="round"/>
    <path d="M 108.76471710205078 129.58241271972656 C 99.04461669921875 104.1427993774414 93.4074935913086 159.61032104492188 114.4172592163086 111.61965942382812" stroke-width="2" fill="none" stroke="rgb(0, 0, 0)" stroke-opacity="1.0" stroke-linecap="round" stroke-linejoin="round"/>
    <path d="M 114.9690933227539 137.3055877685547 C 138.20797729492188 130.5943603515625 98.44120788574219 132.28875732421875 120.85431671142578 128.05499267578125" stroke-width="2" fill="none" stroke="rgb(0, 0, 0)" stroke-opacity="1.0" stroke-linecap="round" stroke-linejoin="round"/>
    <path d="M 121.04655456542969 116.66478729248047 C 135.72193908691406 108.35431671142578 127.73474884033203 103.89718627929688 103.18518829345703 67.56906127929688" stroke-width="2" fill="none" stroke="rgb(0, 0, 0)" stroke-opacity="1.0" stroke-linecap="round" stroke-linejoin="round"/>
    <path d="M 99.8224105834961 66.80086517333984 C 88.2579116821289 85.62946319580078 111.66603088378906 120.01139831542969 98.65016174316406 96.28245544433594" stroke-width="2" fill="none" stroke="rgb(0, 0, 0)" stroke-opacity="1.0" stroke-linecap="round" stroke-linejoin="round"/>
    <path d="M 44.28156280517578 135.34837341308594 C 45.45073699951172 155.223388671875 130.97683715820312 162.00631713867188 125.2208251953125 140.7374267578125" stroke-width="2" fill="none" stroke="rgb(0, 0, 0)" stroke-opacity="1.0" stroke-linecap="round" stroke-linejoin="round"/>
    <path d="M 173.67942810058594 146.93345642089844 C 150.00592041015625 112.88383483886719 116.64361572265625 166.04832458496094 106.6636962890625 110.42160034179688" stroke-width="2" fill="none" stroke="rgb(0, 0, 0)" stroke-opacity="1.0" stroke-linecap="round" stroke-linejoin="round"/>
    <path d="M 107.49042510986328 130.723876953125 C 99.31021881103516 107.16187286376953 110.45843505859375 149.43582153320312 101.79723358154297 127.24728393554688" stroke-width="2" fill="none" stroke="rgb(0, 0, 0)" stroke-opacity="1.0" stroke-linecap="round" stroke-linejoin="round"/>
    <path d="M 176.99264526367188 76.50577545166016 C 121.05352783203125 79.518310546875 170.78282165527344 85.27079010009766 118.72509002685547 93.24341583251953" stroke-width="2" fill="none" stroke="rgb(0, 0, 0)" stroke-opacity="1.0" stroke-linecap="round" stroke-linejoin="round"/>
    <path d="M 139.9080047607422 126.88847351074219 C 93.5606689453125 108.60550689697266 206.68072509765625 127.66033935546875 169.17367553710938 121.26277923583984" stroke-width="2" fill="none" stroke="rgb(0, 0, 0)" stroke-opacity="1.0" stroke-linecap="round" stroke-linejoin="round"/>
    <path d="M 96.57388305664062 151.999267578125 C 52.01587677001953 127.52825164794922 132.23556518554688 166.3965606689453 83.84343719482422 154.66140747070312" stroke-width="2" fill="none" stroke="rgb(0, 0, 0)" stroke-opacity="1.0" stroke-linecap="round" stroke-linejoin="round"/>
    <path d="M 119.78228759765625 104.82398223876953 C 177.22900390625 56.7354621887207 133.147705078125 107.74627685546875 100.4601058959961 68.2344970703125" stroke-width="2" fill="none" stroke="rgb(0, 0, 0)" stroke-opacity="1.0" stroke-linecap="round" stroke-linejoin="round"/>
    <path d="M 171.41055297851562 76.35028839111328 C 200.571044921875 93.71932983398438 136.57635498046875 61.3076057434082 175.86141967773438 82.88402557373047" stroke-width="2" fill="none" stroke="rgb(0, 0, 0)" stroke-opacity="1.0" stroke-linecap="round" stroke-linejoin="round"/>
    <path d="M 63.78648376464844 123.06405639648438 C 54.95872497558594 106.28289031982422 65.4897232055664 95.01333618164062 88.48162078857422 94.49701690673828" stroke-width="2" fill="none" stroke="rgb(0, 0, 0)" stroke-opacity="1.0" stroke-linecap="round" stroke-linejoin="round"/>
    <path d="M 72.48030090332031 100.64385223388672 C 55.680355072021484 118.38040924072266 38.04301071166992 94.78917694091797 31.19232940673828 135.6874237060547" stroke-width="2" fill="none" stroke="rgb(0, 0, 0)" stroke-opacity="1.0" stroke-linecap="round" stroke-linejoin="round"/>
  </g>
</svg>
