<?xml version="1.0" ?>
<svg xmlns="http://www.w3.org/2000/svg" version="1.1" width="224" height="224">
  <defs/>
  <g>
    <path d="M 86.22906494140625 120.50735473632812 C 64.16905975341797 135.1543426513672 118.0312728881836 126.60462951660156 75.90631866455078 123.963134765625" stroke-width="2" fill="none" stroke="rgb(0, 0, 0)" stroke-opacity="1.0" stroke-linecap="round" stroke-linejoin="round"/>
    <path d="M 126.67070007324219 138.62985229492188 C 220.8992156982422 137.7744598388672 199.072509765625 167.25148010253906 108.17051696777344 142.66799926757812" stroke-width="2" fill="none" stroke="rgb(0, 0, 0)" stroke-opacity="1.0" stroke-linecap="round" stroke-linejoin="round"/>
    <path d="M 105.86538696289062 131.62783813476562 C 91.76191711425781 105.32173919677734 107.18009185791016 161.36419677734375 111.73977661132812 113.20964050292969" stroke-width="2" fill="none" stroke="rgb(0, 0, 0)" stroke-opacity="1.0" stroke-linecap="round" stroke-linejoin="round"/>
    <path d="M 111.46515655517578 141.5714874267578 C 144.04855346679688 126.94336700439453 108.30653381347656 127.85429382324219 125.38572692871094 126.11196899414062" stroke-width="2" fill="none" stroke="rgb(0, 0, 0)" stroke-opacity="1.0" stroke-linecap="round" stroke-linejoin="round"/>
    <path d="M 125.6490707397461 110.6998519897461 C 147.11143493652344 97.76560974121094 132.89634704589844 97.26239013671875 101.51253509521484 64.73369598388672" stroke-width="2" fill="none" stroke="rgb(0, 0, 0)" stroke-opacity="1.0" stroke-linecap="round" stroke-linejoin="round"/>
    <path d="M 99.31958770751953 64.80892944335938 C 89.28509521484375 83.24137878417969 111.9341812133789 116.32681274414062 97.38909912109375 97.20368957519531" stroke-width="2" fill="none" stroke="rgb(0, 0, 0)" stroke-opacity="1.0" stroke-linecap="round" stroke-linejoin="round"/>
    <path d="M 43.30097198486328 138.8512725830078 C 40.0265007019043 155.6280975341797 131.6759033203125 154.6332550048828 125.20474243164062 141.00929260253906" stroke-width="2" fill="none" stroke="rgb(0, 0, 0)" stroke-opacity="1.0" stroke-linecap="round" stroke-linejoin="round"/>
    <path d="M 172.80184936523438 145.33998107910156 C 149.47994995117188 116.96807861328125 127.3659439086914 157.0018310546875 107.13452911376953 112.58167266845703" stroke-width="2" fill="none" stroke="rgb(0, 0, 0)" stroke-opacity="1.0" stroke-linecap="round" stroke-linejoin="round"/>
    <path d="M 110.050537109375 128.57684326171875 C 99.535888671875 105.62126922607422 115.16069030761719 152.8332977294922 102.5972900390625 124.8196029663086" stroke-width="2" fill="none" stroke="rgb(0, 0, 0)" stroke-opacity="1.0" stroke-linecap="round" stroke-linejoin="round"/>
    <path d="M 186.53018188476562 67.55522155761719 C 118.18246459960938 80.20087432861328 175.98265075683594 84.44790649414062 117.50492095947266 101.31100463867188" stroke-width="2" fill="none" stroke="rgb(0, 0, 0)" stroke-opacity="1.0" stroke-linecap="round" stroke-linejoin="round"/>
    <path d="M 135.8743896484375 128.9794921875 C 87.57498931884766 105.87403106689453 203.28993225097656 121.21056365966797 162.6259765625 113.4304428100586" stroke-width="2" fill="none" stroke="rgb(0, 0, 0)" stroke-opacity="1.0" stroke-linecap="round" stroke-linejoin="round"/>
    <path d="M 96.72565460205078 144.94754028320312 C 51.608219146728516 123.54997253417969 142.83641052246094 170.90098571777344 75.53963470458984 149.3538055419922" stroke-width="2" fill="none" stroke="rgb(0, 0, 0)" stroke-opacity="1.0" stroke-linecap="round" stroke-linejoin="round"/>
    <path d="M 122.92440795898438 105.36094665527344 C 181.35333251953125 52.70326614379883 123.80966186523438 113.18144989013672 105.2331314086914 67.57838439941406" stroke-width="2" fill="none" stroke="rgb(0, 0, 0)" stroke-opacity="1.0" stroke-linecap="round" stroke-linejoin="round"/>
    <path d="M 177.6260528564453 67.11638641357422 C 208.54531860351562 86.43604278564453 136.72525024414062 67.0224380493164 184.0264129638672 79.96500396728516" stroke-width="2" fill="none" stroke="rgb(0, 0, 0)" stroke-opacity="1.0" stroke-linecap="round" stroke-linejoin="round"/>
    <path d="M 63.61368942260742 117.66793823242188 C 59.201576232910156 104.14976501464844 65.94561004638672 96.51701354980469 90.09075164794922 93.5711441040039" stroke-width="2" fill="none" stroke="rgb(0, 0, 0)" stroke-opacity="1.0" stroke-linecap="round" stroke-linejoin="round"/>
    <path d="M 71.10767364501953 97.0289535522461 C 53.67258071899414 116.2814712524414 47.798545837402344 93.43345642089844 37.417724609375 131.9035186767578" stroke-width="2" fill="none" stroke="rgb(0, 0, 0)" stroke-opacity="1.0" stroke-linecap="round" stroke-linejoin="round"/>
  </g>
</svg>
