<?xml version="1.0" ?>
<svg xmlns="http://www.w3.org/2000/svg" version="1.1" width="224" height="224">
  <defs/>
  <g>
    <path d="M 89.45006561279297 111.21905517578125 C 45.19635009765625 120.02690124511719 104.25672912597656 112.28707885742188 86.22801971435547 121.20964050292969" stroke-width="2" fill="none" stroke="rgb(0, 0, 0)" stroke-opacity="1.0" stroke-linecap="round" stroke-linejoin="round"/>
    <path d="M 127.41687774658203 145.4339599609375 C 170.18411254882812 140.59170532226562 139.87049865722656 153.0894775390625 89.6257553100586 149.3824920654297" stroke-width="2" fill="none" stroke="rgb(0, 0, 0)" stroke-opacity="1.0" stroke-linecap="round" stroke-linejoin="round"/>
    <path d="M 131.81076049804688 129.81072998046875 C 100.62162017822266 109.80247497558594 100.986083984375 142.3420867919922 129.77708435058594 127.51519012451172" stroke-width="2" fill="none" stroke="rgb(0, 0, 0)" stroke-opacity="1.0" stroke-linecap="round" stroke-linejoin="round"/>
    <path d="M 138.23355102539062 123.48490142822266 C 181.6151580810547 125.98877716064453 173.35195922851562 122.45001983642578 130.97462463378906 121.04573822021484" stroke-width="2" fill="none" stroke="rgb(0, 0, 0)" stroke-opacity="1.0" stroke-linecap="round" stroke-linejoin="round"/>
    <path d="M 130.56024169921875 115.41893005371094 C 134.28121948242188 89.27911376953125 128.68040466308594 88.08393096923828 120.9620132446289 72.61067962646484" stroke-width="2" fill="none" stroke="rgb(0, 0, 0)" stroke-opacity="1.0" stroke-linecap="round" stroke-linejoin="round"/>
    <path d="M 115.24632263183594 72.04364776611328 C 106.34054565429688 88.88192749023438 100.96110534667969 90.90033721923828 95.22918701171875 105.72471618652344" stroke-width="2" fill="none" stroke="rgb(0, 0, 0)" stroke-opacity="1.0" stroke-linecap="round" stroke-linejoin="round"/>
    <path d="M 49.97694778442383 151.0233612060547 C 74.61386108398438 161.83892822265625 102.19639587402344 151.02783203125 103.72705078125 144.14425659179688" stroke-width="2" fill="none" stroke="rgb(0, 0, 0)" stroke-opacity="1.0" stroke-linecap="round" stroke-linejoin="round"/>
    <path d="M 173.15780639648438 144.462646484375 C 152.415771484375 119.04707336425781 136.80435180664062 150.40945434570312 104.94200897216797 111.55178833007812" stroke-width="2" fill="none" stroke="rgb(0, 0, 0)" stroke-opacity="1.0" stroke-linecap="round" stroke-linejoin="round"/>
    <path d="M 103.01238250732422 130.16305541992188 C 118.90556335449219 118.16336822509766 113.3742904663086 146.98524475097656 106.7105941772461 130.58447265625" stroke-width="2" fill="none" stroke="rgb(0, 0, 0)" stroke-opacity="1.0" stroke-linecap="round" stroke-linejoin="round"/>
    <path d="M 188.1863250732422 81.11848449707031 C 160.9049072265625 64.1634750366211 167.4176788330078 85.31919860839844 136.62867736816406 87.00259399414062" stroke-width="2" fill="none" stroke="rgb(0, 0, 0)" stroke-opacity="1.0" stroke-linecap="round" stroke-linejoin="round"/>
    <path d="M 172.0662384033203 150.108642578125 C 147.404296875 132.3104248046875 169.01844787597656 156.77069091796875 174.92242431640625 149.15737915039062" stroke-width="2" fill="none" stroke="rgb(0, 0, 0)" stroke-opacity="1.0" stroke-linecap="round" stroke-linejoin="round"/>
    <path d="M 80.19145202636719 140.17417907714844 C 70.94779968261719 137.150390625 60.86457061767578 125.1031723022461 77.0037612915039 132.66758728027344" stroke-width="2" fill="none" stroke="rgb(0, 0, 0)" stroke-opacity="1.0" stroke-linecap="round" stroke-linejoin="round"/>
    <path d="M 122.28358459472656 118.68534088134766 C 133.50743103027344 106.1863784790039 115.22764587402344 109.18073272705078 117.34465789794922 70.87655639648438" stroke-width="2" fill="none" stroke="rgb(0, 0, 0)" stroke-opacity="1.0" stroke-linecap="round" stroke-linejoin="round"/>
    <path d="M 185.0579071044922 95.10584259033203 C 192.035888671875 85.46078491210938 188.2493438720703 86.96600341796875 181.7923583984375 98.39303588867188" stroke-width="2" fill="none" stroke="rgb(0, 0, 0)" stroke-opacity="1.0" stroke-linecap="round" stroke-linejoin="round"/>
    <path d="M 68.47246551513672 109.78981018066406 C 54.26308059692383 92.64094543457031 65.03604125976562 100.16999816894531 51.70014190673828 93.69645690917969" stroke-width="2" fill="none" stroke="rgb(0, 0, 0)" stroke-opacity="1.0" stroke-linecap="round" stroke-linejoin="round"/>
    <path d="M 54.5116081237793 98.03545379638672 C 64.4203872680664 141.6085968017578 54.34827423095703 103.05597686767578 56.99283981323242 131.5299530029297" stroke-width="2" fill="none" stroke="rgb(0, 0, 0)" stroke-opacity="1.0" stroke-linecap="round" stroke-linejoin="round"/>
  </g>
</svg>
