<?xml version="1.0" ?>
<svg xmlns="http://www.w3.org/2000/svg" version="1.1" width="224" height="224">
  <defs/>
  <g>
    <path d="M 82.4581298828125 121.18000030517578 C 56.48236083984375 134.71356201171875 106.19039916992188 120.2985610961914 81.6880874633789 130.64224243164062" stroke-width="2" fill="none" stroke="rgb(0, 0, 0)" stroke-opacity="1.0" stroke-linecap="round" stroke-linejoin="round"/>
    <path d="M 121.44954681396484 133.1424560546875 C 241.9761505126953 143.2810516357422 184.34194946289062 158.3300323486328 84.4375228881836 149.79872131347656" stroke-width="2" fill="none" stroke="rgb(0, 0, 0)" stroke-opacity="1.0" stroke-linecap="round" stroke-linejoin="round"/>
    <path d="M 101.93206024169922 135.32070922851562 C 108.6674575805664 108.0322265625 85.60480499267578 157.42225646972656 114.15492248535156 122.97300720214844" stroke-width="2" fill="none" stroke="rgb(0, 0, 0)" stroke-opacity="1.0" stroke-linecap="round" stroke-linejoin="round"/>
    <path d="M 126.37472534179688 124.11491394042969 C 148.87722778320312 124.42847442626953 144.79103088378906 125.1963119506836 128.7307586669922 119.35408020019531" stroke-width="2" fill="none" stroke="rgb(0, 0, 0)" stroke-opacity="1.0" stroke-linecap="round" stroke-linejoin="round"/>
    <path d="M 120.44499969482422 118.13119506835938 C 141.6306610107422 100.76341247558594 137.1535186767578 94.11515808105469 103.4350814819336 68.26385498046875" stroke-width="2" fill="none" stroke="rgb(0, 0, 0)" stroke-opacity="1.0" stroke-linecap="round" stroke-linejoin="round"/>
    <path d="M 99.92134857177734 70.86748504638672 C 93.1273422241211 86.9238510131836 109.0063705444336 94.90474700927734 104.1072769165039 107.14706420898438" stroke-width="2" fill="none" stroke="rgb(0, 0, 0)" stroke-opacity="1.0" stroke-linecap="round" stroke-linejoin="round"/>
    <path d="M 41.6278076171875 130.67710876464844 C 54.826560974121094 183.9730682373047 133.5303192138672 149.5868682861328 115.26031494140625 133.18797302246094" stroke-width="2" fill="none" stroke="rgb(0, 0, 0)" stroke-opacity="1.0" stroke-linecap="round" stroke-linejoin="round"/>
    <path d="M 173.52500915527344 148.87188720703125 C 156.3504638671875 122.72384643554688 101.76438903808594 176.1970672607422 112.676513671875 118.80157470703125" stroke-width="2" fill="none" stroke="rgb(0, 0, 0)" stroke-opacity="1.0" stroke-linecap="round" stroke-linejoin="round"/>
    <path d="M 101.60894012451172 132.547607421875 C 102.45783233642578 116.69509887695312 109.78689575195312 141.29354858398438 96.66889953613281 128.7007598876953" stroke-width="2" fill="none" stroke="rgb(0, 0, 0)" stroke-opacity="1.0" stroke-linecap="round" stroke-linejoin="round"/>
    <path d="M 179.27365112304688 84.79261779785156 C 113.04850006103516 83.0071029663086 179.65321350097656 88.03675842285156 128.98794555664062 86.27871704101562" stroke-width="2" fill="none" stroke="rgb(0, 0, 0)" stroke-opacity="1.0" stroke-linecap="round" stroke-linejoin="round"/>
    <path d="M 165.91094970703125 148.4949493408203 C 126.25511169433594 133.2238311767578 194.42115783691406 163.2350616455078 177.86045837402344 150.82810974121094" stroke-width="2" fill="none" stroke="rgb(0, 0, 0)" stroke-opacity="1.0" stroke-linecap="round" stroke-linejoin="round"/>
    <path d="M 100.34535217285156 152.92047119140625 C 50.57465744018555 127.6954574584961 120.57215881347656 148.5660400390625 86.53240203857422 145.44117736816406" stroke-width="2" fill="none" stroke="rgb(0, 0, 0)" stroke-opacity="1.0" stroke-linecap="round" stroke-linejoin="round"/>
    <path d="M 112.85965728759766 110.6944808959961 C 140.96749877929688 79.03280639648438 166.45216369628906 122.42253875732422 97.39297485351562 70.05762481689453" stroke-width="2" fill="none" stroke="rgb(0, 0, 0)" stroke-opacity="1.0" stroke-linecap="round" stroke-linejoin="round"/>
    <path d="M 174.98509216308594 107.83358001708984 C 193.61398315429688 82.23285675048828 153.14352416992188 86.11840057373047 179.90655517578125 92.01447296142578" stroke-width="2" fill="none" stroke="rgb(0, 0, 0)" stroke-opacity="1.0" stroke-linecap="round" stroke-linejoin="round"/>
    <path d="M 69.24043273925781 123.50814056396484 C 44.56344985961914 86.94145202636719 72.91178894042969 122.42642211914062 67.95475769042969 93.68840026855469" stroke-width="2" fill="none" stroke="rgb(0, 0, 0)" stroke-opacity="1.0" stroke-linecap="round" stroke-linejoin="round"/>
    <path d="M 80.24179077148438 73.64093017578125 C 49.966896057128906 144.6566925048828 47.76545333862305 85.1438980102539 42.21764373779297 136.8638458251953" stroke-width="2" fill="none" stroke="rgb(0, 0, 0)" stroke-opacity="1.0" stroke-linecap="round" stroke-linejoin="round"/>
  </g>
</svg>
