<?xml version="1.0" ?>
<svg xmlns="http://www.w3.org/2000/svg" version="1.1" width="224" height="224">
  <defs/>
  <g>
    <path d="M 83.9333724975586 120.52040100097656 C 56.531978607177734 130.5823974609375 105.29615783691406 124.26376342773438 82.26656341552734 130.4547882080078" stroke-width="2" fill="none" stroke="rgb(0, 0, 0)" stroke-opacity="1.0" stroke-linecap="round" stroke-linejoin="round"/>
    <path d="M 124.79528045654297 132.2626953125 C 232.315185546875 146.32830810546875 176.92428588867188 162.77056884765625 82.35394287109375 145.93202209472656" stroke-width="2" fill="none" stroke="rgb(0, 0, 0)" stroke-opacity="1.0" stroke-linecap="round" stroke-linejoin="round"/>
    <path d="M 104.35780334472656 133.81654357910156 C 107.4148941040039 105.9205551147461 93.09180450439453 151.04762268066406 115.93017578125 121.4572982788086" stroke-width="2" fill="none" stroke="rgb(0, 0, 0)" stroke-opacity="1.0" stroke-linecap="round" stroke-linejoin="round"/>
    <path d="M 129.45260620117188 119.97411346435547 C 148.49661254882812 124.40018463134766 153.9343719482422 125.19226837158203 127.2083511352539 121.32484436035156" stroke-width="2" fill="none" stroke="rgb(0, 0, 0)" stroke-opacity="1.0" stroke-linecap="round" stroke-linejoin="round"/>
    <path d="M 123.49555206298828 119.2176284790039 C 135.1125030517578 103.1902847290039 131.63645935058594 98.58646392822266 101.24565124511719 68.61619567871094" stroke-width="2" fill="none" stroke="rgb(0, 0, 0)" stroke-opacity="1.0" stroke-linecap="round" stroke-linejoin="round"/>
    <path d="M 99.31466674804688 69.10610961914062 C 93.22916412353516 85.41053771972656 105.80998229980469 95.90760803222656 106.71070861816406 107.25847625732422" stroke-width="2" fill="none" stroke="rgb(0, 0, 0)" stroke-opacity="1.0" stroke-linecap="round" stroke-linejoin="round"/>
    <path d="M 42.18142318725586 130.57064819335938 C 47.497798919677734 177.51434326171875 142.6634979248047 141.1519012451172 114.26367950439453 136.23944091796875" stroke-width="2" fill="none" stroke="rgb(0, 0, 0)" stroke-opacity="1.0" stroke-linecap="round" stroke-linejoin="round"/>
    <path d="M 170.91981506347656 150.03199768066406 C 150.97518920898438 124.29094696044922 105.5637435913086 173.75201416015625 112.102294921875 115.6938705444336" stroke-width="2" fill="none" stroke="rgb(0, 0, 0)" stroke-opacity="1.0" stroke-linecap="round" stroke-linejoin="round"/>
    <path d="M 98.53108215332031 128.5065155029297 C 114.2925796508789 115.01461029052734 104.25797271728516 150.6611328125 99.46402740478516 124.55895233154297" stroke-width="2" fill="none" stroke="rgb(0, 0, 0)" stroke-opacity="1.0" stroke-linecap="round" stroke-linejoin="round"/>
    <path d="M 177.57070922851562 76.18386840820312 C 130.43572998046875 74.91737365722656 181.39187622070312 86.9864730834961 123.83103942871094 83.28923797607422" stroke-width="2" fill="none" stroke="rgb(0, 0, 0)" stroke-opacity="1.0" stroke-linecap="round" stroke-linejoin="round"/>
    <path d="M 158.5660858154297 151.051025390625 C 137.1518096923828 139.49066162109375 197.21444702148438 168.041748046875 184.7512969970703 158.6188201904297" stroke-width="2" fill="none" stroke="rgb(0, 0, 0)" stroke-opacity="1.0" stroke-linecap="round" stroke-linejoin="round"/>
    <path d="M 97.51734161376953 153.96824645996094 C 63.097591400146484 139.03773498535156 118.67472839355469 149.30238342285156 93.26677703857422 139.65591430664062" stroke-width="2" fill="none" stroke="rgb(0, 0, 0)" stroke-opacity="1.0" stroke-linecap="round" stroke-linejoin="round"/>
    <path d="M 115.40591430664062 109.00154876708984 C 137.9916534423828 97.32064819335938 163.76296997070312 116.77591705322266 103.02611541748047 68.41007995605469" stroke-width="2" fill="none" stroke="rgb(0, 0, 0)" stroke-opacity="1.0" stroke-linecap="round" stroke-linejoin="round"/>
    <path d="M 178.53497314453125 97.94613647460938 C 192.293701171875 71.46320343017578 164.96812438964844 69.49871826171875 185.6848602294922 88.93941497802734" stroke-width="2" fill="none" stroke="rgb(0, 0, 0)" stroke-opacity="1.0" stroke-linecap="round" stroke-linejoin="round"/>
    <path d="M 70.5207290649414 118.87847900390625 C 53.277835845947266 92.17932891845703 67.58364868164062 115.25230407714844 66.48023223876953 95.28807830810547" stroke-width="2" fill="none" stroke="rgb(0, 0, 0)" stroke-opacity="1.0" stroke-linecap="round" stroke-linejoin="round"/>
    <path d="M 76.67542266845703 82.05121612548828 C 45.10560989379883 139.57278442382812 57.21641159057617 90.26293182373047 43.31377410888672 142.85348510742188" stroke-width="2" fill="none" stroke="rgb(0, 0, 0)" stroke-opacity="1.0" stroke-linecap="round" stroke-linejoin="round"/>
  </g>
</svg>
