<?xml version="1.0" ?>
<svg xmlns="http://www.w3.org/2000/svg" version="1.1" width="224" height="224">
  <defs/>
  <g>
    <path d="M 76.41414642333984 126.66499328613281 C 57.25794219970703 136.3607635498047 105.83702087402344 121.65550994873047 75.80218505859375 134.9947967529297" stroke-width="2" fill="none" stroke="rgb(0, 0, 0)" stroke-opacity="1.0" stroke-linecap="round" stroke-linejoin="round"/>
    <path d="M 123.01509094238281 140.11126708984375 C 234.87757873535156 149.077880859375 175.38233947753906 159.66217041015625 79.2987060546875 157.4600372314453" stroke-width="2" fill="none" stroke="rgb(0, 0, 0)" stroke-opacity="1.0" stroke-linecap="round" stroke-linejoin="round"/>
    <path d="M 96.9946517944336 141.1555938720703 C 102.73304748535156 114.07064056396484 78.08553314208984 181.9991455078125 116.42794799804688 121.97936248779297" stroke-width="2" fill="none" stroke="rgb(0, 0, 0)" stroke-opacity="1.0" stroke-linecap="round" stroke-linejoin="round"/>
    <path d="M 126.45111846923828 133.97286987304688 C 170.27178955078125 137.67813110351562 79.82404327392578 134.5305938720703 136.13389587402344 132.59396362304688" stroke-width="2" fill="none" stroke="rgb(0, 0, 0)" stroke-opacity="1.0" stroke-linecap="round" stroke-linejoin="round"/>
    <path d="M 124.21378326416016 120.93907165527344 C 142.29930114746094 107.27499389648438 141.77029418945312 92.55593872070312 103.53266143798828 65.73906707763672" stroke-width="2" fill="none" stroke="rgb(0, 0, 0)" stroke-opacity="1.0" stroke-linecap="round" stroke-linejoin="round"/>
    <path d="M 100.91507720947266 67.60513305664062 C 93.36077117919922 76.11534118652344 122.15540313720703 121.74186706542969 104.8716812133789 97.00741577148438" stroke-width="2" fill="none" stroke="rgb(0, 0, 0)" stroke-opacity="1.0" stroke-linecap="round" stroke-linejoin="round"/>
    <path d="M 39.27912902832031 137.0898895263672 C 63.45051956176758 176.77581787109375 123.88323211669922 166.1015625 116.87944030761719 132.11874389648438" stroke-width="2" fill="none" stroke="rgb(0, 0, 0)" stroke-opacity="1.0" stroke-linecap="round" stroke-linejoin="round"/>
    <path d="M 177.21170043945312 149.677001953125 C 143.61900329589844 114.37947845458984 107.9558334350586 172.7771453857422 105.3819580078125 117.18438720703125" stroke-width="2" fill="none" stroke="rgb(0, 0, 0)" stroke-opacity="1.0" stroke-linecap="round" stroke-linejoin="round"/>
    <path d="M 91.66346740722656 140.1901397705078 C 100.45088958740234 121.03068542480469 104.38682556152344 161.92031860351562 91.65966033935547 135.33255004882812" stroke-width="2" fill="none" stroke="rgb(0, 0, 0)" stroke-opacity="1.0" stroke-linecap="round" stroke-linejoin="round"/>
    <path d="M 177.19883728027344 89.4179458618164 C 123.59618377685547 89.3084945678711 190.15501403808594 88.8733901977539 129.51939392089844 87.82069396972656" stroke-width="2" fill="none" stroke="rgb(0, 0, 0)" stroke-opacity="1.0" stroke-linecap="round" stroke-linejoin="round"/>
    <path d="M 155.496826171875 150.22572326660156 C 100.06370544433594 132.00946044921875 204.6495361328125 152.66534423828125 177.6936492919922 139.37010192871094" stroke-width="2" fill="none" stroke="rgb(0, 0, 0)" stroke-opacity="1.0" stroke-linecap="round" stroke-linejoin="round"/>
    <path d="M 92.04058837890625 155.66525268554688 C 50.38112258911133 135.0205078125 118.45845031738281 158.7792510986328 81.31138610839844 151.2711181640625" stroke-width="2" fill="none" stroke="rgb(0, 0, 0)" stroke-opacity="1.0" stroke-linecap="round" stroke-linejoin="round"/>
    <path d="M 118.13785552978516 112.65789031982422 C 165.39486694335938 70.91388702392578 161.3185577392578 125.66061401367188 110.0473403930664 72.42704010009766" stroke-width="2" fill="none" stroke="rgb(0, 0, 0)" stroke-opacity="1.0" stroke-linecap="round" stroke-linejoin="round"/>
    <path d="M 184.7460174560547 113.31183624267578 C 182.9569091796875 102.4365234375 139.3769073486328 85.44790649414062 175.82044982910156 105.52428436279297" stroke-width="2" fill="none" stroke="rgb(0, 0, 0)" stroke-opacity="1.0" stroke-linecap="round" stroke-linejoin="round"/>
    <path d="M 64.19023132324219 122.25007629394531 C 70.92634582519531 92.75901794433594 82.20915222167969 97.23052978515625 88.065185546875 85.41248321533203" stroke-width="2" fill="none" stroke="rgb(0, 0, 0)" stroke-opacity="1.0" stroke-linecap="round" stroke-linejoin="round"/>
    <path d="M 83.33094787597656 88.6163558959961 C 71.92521667480469 140.5117645263672 41.75861358642578 89.97393035888672 35.19189453125 127.49279022216797" stroke-width="2" fill="none" stroke="rgb(0, 0, 0)" stroke-opacity="1.0" stroke-linecap="round" stroke-linejoin="round"/>
  </g>
</svg>
