<?xml version="1.0" ?>
<svg xmlns="http://www.w3.org/2000/svg" version="1.1" width="224" height="224">
  <defs/>
  <g>
    <path d="M 91.17005920410156 112.27461242675781 C 62.22297668457031 118.73280334472656 103.32087707519531 114.13764190673828 85.1108169555664 118.83607482910156" stroke-width="2" fill="none" stroke="rgb(0, 0, 0)" stroke-opacity="1.0" stroke-linecap="round" stroke-linejoin="round"/>
    <path d="M 128.1150665283203 143.15919494628906 C 232.47706604003906 148.33676147460938 182.8062744140625 163.762451171875 84.86421203613281 144.32275390625" stroke-width="2" fill="none" stroke="rgb(0, 0, 0)" stroke-opacity="1.0" stroke-linecap="round" stroke-linejoin="round"/>
    <path d="M 101.52352142333984 135.13572692871094 C 102.39446258544922 103.606689453125 90.1218490600586 151.08670043945312 116.0427474975586 117.91544342041016" stroke-width="2" fill="none" stroke="rgb(0, 0, 0)" stroke-opacity="1.0" stroke-linecap="round" stroke-linejoin="round"/>
    <path d="M 125.87638092041016 121.96710205078125 C 175.24606323242188 123.18102264404297 169.42868041992188 124.29972076416016 125.88630676269531 126.09939575195312" stroke-width="2" fill="none" stroke="rgb(0, 0, 0)" stroke-opacity="1.0" stroke-linecap="round" stroke-linejoin="round"/>
    <path d="M 121.90543365478516 115.60767364501953 C 136.5253448486328 86.70549774169922 142.17161560058594 97.1909408569336 106.17295837402344 64.83296966552734" stroke-width="2" fill="none" stroke="rgb(0, 0, 0)" stroke-opacity="1.0" stroke-linecap="round" stroke-linejoin="round"/>
    <path d="M 104.0634536743164 66.10603332519531 C 96.33428192138672 90.04505920410156 107.1834945678711 93.4552001953125 100.87649536132812 106.68721008300781" stroke-width="2" fill="none" stroke="rgb(0, 0, 0)" stroke-opacity="1.0" stroke-linecap="round" stroke-linejoin="round"/>
    <path d="M 44.26944351196289 142.91453552246094 C 55.35839080810547 171.82330322265625 132.2613983154297 135.8820343017578 99.06139373779297 143.35784912109375" stroke-width="2" fill="none" stroke="rgb(0, 0, 0)" stroke-opacity="1.0" stroke-linecap="round" stroke-linejoin="round"/>
    <path d="M 174.30917358398438 145.4090576171875 C 137.7615203857422 118.30196380615234 127.79338073730469 164.17257690429688 106.0376205444336 117.99136352539062" stroke-width="2" fill="none" stroke="rgb(0, 0, 0)" stroke-opacity="1.0" stroke-linecap="round" stroke-linejoin="round"/>
    <path d="M 94.92086029052734 129.4573516845703 C 118.66160583496094 116.9062728881836 104.16703796386719 145.18463134765625 91.96109008789062 128.96951293945312" stroke-width="2" fill="none" stroke="rgb(0, 0, 0)" stroke-opacity="1.0" stroke-linecap="round" stroke-linejoin="round"/>
    <path d="M 180.5132598876953 82.03970336914062 C 149.98562622070312 71.83024597167969 188.4669647216797 88.51985931396484 134.68374633789062 84.62793731689453" stroke-width="2" fill="none" stroke="rgb(0, 0, 0)" stroke-opacity="1.0" stroke-linecap="round" stroke-linejoin="round"/>
    <path d="M 167.0710906982422 151.88096618652344 C 148.04615783691406 131.4630126953125 196.5027618408203 171.3421630859375 188.6835479736328 151.96798706054688" stroke-width="2" fill="none" stroke="rgb(0, 0, 0)" stroke-opacity="1.0" stroke-linecap="round" stroke-linejoin="round"/>
    <path d="M 83.33525085449219 138.87759399414062 C 79.52233123779297 135.5210723876953 95.06011199951172 149.6735382080078 84.5694351196289 135.4585418701172" stroke-width="2" fill="none" stroke="rgb(0, 0, 0)" stroke-opacity="1.0" stroke-linecap="round" stroke-linejoin="round"/>
    <path d="M 111.31659698486328 111.53372955322266 C 130.2816619873047 94.15159606933594 133.1161346435547 111.53759765625 106.96822357177734 66.68402862548828" stroke-width="2" fill="none" stroke="rgb(0, 0, 0)" stroke-opacity="1.0" stroke-linecap="round" stroke-linejoin="round"/>
    <path d="M 175.32186889648438 103.16425323486328 C 189.59603881835938 88.07363891601562 178.5367889404297 63.280067443847656 181.34312438964844 95.44957733154297" stroke-width="2" fill="none" stroke="rgb(0, 0, 0)" stroke-opacity="1.0" stroke-linecap="round" stroke-linejoin="round"/>
    <path d="M 71.80402374267578 113.97311401367188 C 51.88185501098633 105.58018493652344 75.1486587524414 113.37596893310547 46.39647674560547 93.55313873291016" stroke-width="2" fill="none" stroke="rgb(0, 0, 0)" stroke-opacity="1.0" stroke-linecap="round" stroke-linejoin="round"/>
    <path d="M 48.5852165222168 90.28298950195312 C 52.245304107666016 151.365478515625 62.76762771606445 96.28155517578125 41.42196273803711 133.9315185546875" stroke-width="2" fill="none" stroke="rgb(0, 0, 0)" stroke-opacity="1.0" stroke-linecap="round" stroke-linejoin="round"/>
  </g>
</svg>
