<?xml version="1.0" ?>
<svg xmlns="http://www.w3.org/2000/svg" version="1.1" width="224" height="224">
  <defs/>
  <g>
    <path d="M 87.87910461425781 128.7566375732422 C 56.52091598510742 138.43975830078125 114.36572265625 127.86962890625 81.80988311767578 126.685791015625" stroke-width="2" fill="none" stroke="rgb(0, 0, 0)" stroke-opacity="1.0" stroke-linecap="round" stroke-linejoin="round"/>
    <path d="M 128.37701416015625 137.9898223876953 C 194.235595703125 133.65904235839844 194.32748413085938 163.59010314941406 110.17202758789062 150.9755096435547" stroke-width="2" fill="none" stroke="rgb(0, 0, 0)" stroke-opacity="1.0" stroke-linecap="round" stroke-linejoin="round"/>
    <path d="M 109.83147430419922 132.5026092529297 C 89.01438903808594 104.94815826416016 118.25262451171875 166.91650390625 112.87654876708984 103.25800323486328" stroke-width="2" fill="none" stroke="rgb(0, 0, 0)" stroke-opacity="1.0" stroke-linecap="round" stroke-linejoin="round"/>
    <path d="M 117.28721618652344 142.27149963378906 C 160.42626953125 116.10623168945312 95.55760192871094 133.5489044189453 135.27288818359375 121.1444320678711" stroke-width="2" fill="none" stroke="rgb(0, 0, 0)" stroke-opacity="1.0" stroke-linecap="round" stroke-linejoin="round"/>
    <path d="M 129.05613708496094 105.01049041748047 C 158.95692443847656 117.69673156738281 135.3430633544922 95.57376861572266 99.56626892089844 71.27217864990234" stroke-width="2" fill="none" stroke="rgb(0, 0, 0)" stroke-opacity="1.0" stroke-linecap="round" stroke-linejoin="round"/>
    <path d="M 99.4593505859375 67.38616180419922 C 94.66033935546875 78.33580017089844 112.20390319824219 107.22823333740234 108.37676239013672 96.81877136230469" stroke-width="2" fill="none" stroke="rgb(0, 0, 0)" stroke-opacity="1.0" stroke-linecap="round" stroke-linejoin="round"/>
    <path d="M 49.599910736083984 134.74168395996094 C 35.35349655151367 152.61143493652344 134.38583374023438 164.993896484375 124.64344787597656 140.63583374023438" stroke-width="2" fill="none" stroke="rgb(0, 0, 0)" stroke-opacity="1.0" stroke-linecap="round" stroke-linejoin="round"/>
    <path d="M 166.55966186523438 153.2698516845703 C 139.43978881835938 126.70264434814453 143.9205322265625 176.2754364013672 100.71940612792969 107.66141510009766" stroke-width="2" fill="none" stroke="rgb(0, 0, 0)" stroke-opacity="1.0" stroke-linecap="round" stroke-linejoin="round"/>
    <path d="M 112.41885375976562 132.39076232910156 C 93.71057891845703 103.10371398925781 125.58763885498047 162.33758544921875 100.18865203857422 127.98041534423828" stroke-width="2" fill="none" stroke="rgb(0, 0, 0)" stroke-opacity="1.0" stroke-linecap="round" stroke-linejoin="round"/>
    <path d="M 192.19049072265625 69.02185821533203 C 136.71290588378906 84.0694351196289 179.80654907226562 109.22464752197266 129.4778594970703 101.51925659179688" stroke-width="2" fill="none" stroke="rgb(0, 0, 0)" stroke-opacity="1.0" stroke-linecap="round" stroke-linejoin="round"/>
    <path d="M 132.73220825195312 125.94514465332031 C 95.25823211669922 115.31356811523438 194.9141845703125 110.24423217773438 151.8656768798828 108.00994873046875" stroke-width="2" fill="none" stroke="rgb(0, 0, 0)" stroke-opacity="1.0" stroke-linecap="round" stroke-linejoin="round"/>
    <path d="M 103.8789291381836 153.68699645996094 C 57.790523529052734 135.54061889648438 157.97869873046875 164.7554168701172 62.485816955566406 132.31492614746094" stroke-width="2" fill="none" stroke="rgb(0, 0, 0)" stroke-opacity="1.0" stroke-linecap="round" stroke-linejoin="round"/>
    <path d="M 144.91485595703125 117.8466567993164 C 241.733154296875 13.409884452819824 126.39518737792969 120.32171630859375 114.26765441894531 79.27461242675781" stroke-width="2" fill="none" stroke="rgb(0, 0, 0)" stroke-opacity="1.0" stroke-linecap="round" stroke-linejoin="round"/>
    <path d="M 199.2954864501953 76.65299224853516 C 216.88465881347656 73.41735076904297 171.67005920410156 60.10902786254883 207.63552856445312 76.87701416015625" stroke-width="2" fill="none" stroke="rgb(0, 0, 0)" stroke-opacity="1.0" stroke-linecap="round" stroke-linejoin="round"/>
    <path d="M 57.291568756103516 120.97473907470703 C 49.337703704833984 112.68584442138672 64.88465118408203 91.38862609863281 94.71737670898438 91.71632385253906" stroke-width="2" fill="none" stroke="rgb(0, 0, 0)" stroke-opacity="1.0" stroke-linecap="round" stroke-linejoin="round"/>
    <path d="M 67.50920867919922 98.32974243164062 C 57.84568786621094 124.5296859741211 41.65641403198242 96.13783264160156 32.750892639160156 133.72579956054688" stroke-width="2" fill="none" stroke="rgb(0, 0, 0)" stroke-opacity="1.0" stroke-linecap="round" stroke-linejoin="round"/>
  </g>
</svg>
