<?xml version="1.0" ?>
<svg xmlns="http://www.w3.org/2000/svg" version="1.1" width="224" height="224">
  <defs/>
  <g>
    <path d="M 85.93436431884766 86.28904724121094 C 85.80110931396484 85.91527557373047 86.13772583007812 86.0532455444336 85.9661636352539 86.20013427734375" stroke-width="3.0" fill="none" stroke="rgb(0, 0, 0)" stroke-opacity="1.0" stroke-linecap="round" stroke-linejoin="round"/>
    <path d="M 168.88243103027344 199.30667114257812 C 170.00819396972656 193.76040649414062 167.6988525390625 205.5657501220703 169.75418090820312 202.45103454589844" stroke-width="3.0" fill="none" stroke="rgb(0, 0, 0)" stroke-opacity="1.0" stroke-linecap="round" stroke-linejoin="round"/>
    <path d="M 114.71288299560547 133.9123992919922 C 116.78617858886719 134.08998107910156 117.25430297851562 134.1291961669922 118.54532623291016 133.9306182861328" stroke-width="3.0" fill="none" stroke="rgb(0, 0, 0)" stroke-opacity="1.0" stroke-linecap="round" stroke-linejoin="round"/>
    <path d="M 145.58132934570312 107.0689697265625 C 145.81021118164062 106.97283172607422 147.4461212158203 107.14981079101562 146.3635711669922 106.82941436767578" stroke-width="3.0" fill="none" stroke="rgb(0, 0, 0)" stroke-opacity="1.0" stroke-linecap="round" stroke-linejoin="round"/>
    <path d="M 92.20109558105469 48.19679641723633 C 93.20319366455078 48.34946823120117 93.33555603027344 52.006351470947266 93.15276336669922 44.599300384521484" stroke-width="3.0" fill="none" stroke="rgb(0, 0, 0)" stroke-opacity="1.0" stroke-linecap="round" stroke-linejoin="round"/>
    <path d="M 92.55894470214844 48.925323486328125 C 92.61349487304688 50.743465423583984 93.48320770263672 43.26394271850586 92.88400268554688 48.71870040893555" stroke-width="3.0" fill="none" stroke="rgb(0, 0, 0)" stroke-opacity="1.0" stroke-linecap="round" stroke-linejoin="round"/>
    <path d="M 179.07180786132812 175.8458251953125 C 177.50997924804688 178.92288208007812 179.66647338867188 178.83595275878906 178.8616485595703 166.24607849121094" stroke-width="3.0" fill="none" stroke="rgb(0, 0, 0)" stroke-opacity="1.0" stroke-linecap="round" stroke-linejoin="round"/>
    <path d="M 74.13462829589844 117.1888198852539 C 74.43846893310547 118.29647827148438 73.82920837402344 116.36968231201172 73.9029769897461 116.87379455566406" stroke-width="3.0" fill="none" stroke="rgb(0, 0, 0)" stroke-opacity="1.0" stroke-linecap="round" stroke-linejoin="round"/>
    <path d="M 116.2132339477539 134.0354461669922 C 115.42205810546875 133.35763549804688 108.68546295166016 135.04339599609375 114.77010345458984 133.69210815429688" stroke-width="3.0" fill="none" stroke="rgb(0, 0, 0)" stroke-opacity="1.0" stroke-linecap="round" stroke-linejoin="round"/>
    <path d="M 77.15436553955078 29.223180770874023 C 77.52571868896484 53.12493896484375 72.33013916015625 42.47434616088867 80.93158721923828 43.28739547729492" stroke-width="3.0" fill="none" stroke="rgb(0, 0, 0)" stroke-opacity="1.0" stroke-linecap="round" stroke-linejoin="round"/>
    <path d="M 141.96946716308594 197.96328735351562 C 158.63401794433594 204.65829467773438 146.64279174804688 197.9346160888672 156.9362335205078 200.88450622558594" stroke-width="3.0" fill="none" stroke="rgb(0, 0, 0)" stroke-opacity="1.0" stroke-linecap="round" stroke-linejoin="round"/>
    <path d="M 179.66293334960938 170.54513549804688 C 177.2200927734375 158.4435577392578 183.90870666503906 146.59568786621094 156.81056213378906 114.93704223632812" stroke-width="3.0" fill="none" stroke="rgb(0, 0, 0)" stroke-opacity="1.0" stroke-linecap="round" stroke-linejoin="round"/>
    <path d="M 122.3107681274414 63.70149230957031 C 111.09561920166016 66.3667221069336 126.74213409423828 67.81624603271484 119.01506042480469 47.919124603271484" stroke-width="3.0" fill="none" stroke="rgb(0, 0, 0)" stroke-opacity="1.0" stroke-linecap="round" stroke-linejoin="round"/>
    <path d="M 88.98054504394531 60.597076416015625 C 81.46531677246094 55.403656005859375 94.32317352294922 57.049686431884766 78.41785430908203 60.02952575683594" stroke-width="3.0" fill="none" stroke="rgb(0, 0, 0)" stroke-opacity="1.0" stroke-linecap="round" stroke-linejoin="round"/>
    <path d="M 102.45523834228516 45.9760627746582 C 101.31800842285156 60.05105972290039 104.65567779541016 51.01940155029297 103.51176452636719 54.18597412109375" stroke-width="3.0" fill="none" stroke="rgb(0, 0, 0)" stroke-opacity="1.0" stroke-linecap="round" stroke-linejoin="round"/>
    <path d="M 77.3631820678711 70.19196319580078 C 77.36883544921875 69.83139038085938 76.80567932128906 69.87186431884766 82.01881408691406 70.33494567871094" stroke-width="3.0" fill="none" stroke="rgb(0, 0, 0)" stroke-opacity="1.0" stroke-linecap="round" stroke-linejoin="round"/>
    <path d="M 135.4020233154297 100.3887939453125 C 150.62652587890625 108.9271469116211 147.88743591308594 108.50341796875 146.83090209960938 107.26910400390625" stroke-width="3.0" fill="none" stroke="rgb(0, 0, 0)" stroke-opacity="1.0" stroke-linecap="round" stroke-linejoin="round"/>
    <path d="M 123.77469635009766 90.64997100830078 C 125.20816802978516 94.28801727294922 128.8055877685547 95.73910522460938 127.90812683105469 95.94660949707031" stroke-width="3.0" fill="none" stroke="rgb(0, 0, 0)" stroke-opacity="1.0" stroke-linecap="round" stroke-linejoin="round"/>
    <path d="M 96.57144165039062 73.4463119506836 C 100.36632537841797 67.2147445678711 94.74998474121094 69.9864501953125 97.37248229980469 74.53580474853516" stroke-width="3.0" fill="none" stroke="rgb(0, 0, 0)" stroke-opacity="1.0" stroke-linecap="round" stroke-linejoin="round"/>
    <path d="M 89.85088348388672 131.3623046875 C 85.66519927978516 136.93373107910156 93.13924407958984 128.73764038085938 87.59778594970703 124.90000915527344" stroke-width="3.0" fill="none" stroke="rgb(0, 0, 0)" stroke-opacity="1.0" stroke-linecap="round" stroke-linejoin="round"/>
    <path d="M 103.62664794921875 51.783878326416016 C 102.81942749023438 51.37606430053711 103.81813049316406 50.76522445678711 103.0667953491211 53.70906448364258" stroke-width="3.0" fill="none" stroke="rgb(0, 0, 0)" stroke-opacity="1.0" stroke-linecap="round" stroke-linejoin="round"/>
    <path d="M 97.56462097167969 71.44403839111328 C 98.7807846069336 67.51160430908203 97.77403259277344 72.28959655761719 97.12989044189453 71.76554870605469" stroke-width="3.0" fill="none" stroke="rgb(0, 0, 0)" stroke-opacity="1.0" stroke-linecap="round" stroke-linejoin="round"/>
    <path d="M 78.1114501953125 102.96884155273438 C 78.18248748779297 103.61128997802734 80.58942413330078 101.18318939208984 79.46669006347656 102.33257293701172" stroke-width="3.0" fill="none" stroke="rgb(0, 0, 0)" stroke-opacity="1.0" stroke-linecap="round" stroke-linejoin="round"/>
    <path d="M 121.75920867919922 104.98458862304688 C 121.69483947753906 104.86351013183594 122.26604461669922 104.99182891845703 121.1972885131836 104.9246597290039" stroke-width="3.0" fill="none" stroke="rgb(0, 0, 0)" stroke-opacity="1.0" stroke-linecap="round" stroke-linejoin="round"/>
    <path d="M 158.2879180908203 152.39236450195312 C 159.076904296875 152.82196044921875 158.25686645507812 151.69139099121094 156.58355712890625 151.78326416015625" stroke-width="3.0" fill="none" stroke="rgb(0, 0, 0)" stroke-opacity="1.0" stroke-linecap="round" stroke-linejoin="round"/>
    <path d="M 121.66622924804688 61.60221481323242 C 119.66826629638672 79.03258514404297 125.4292984008789 55.28315734863281 108.95040130615234 62.66334533691406" stroke-width="3.0" fill="none" stroke="rgb(0, 0, 0)" stroke-opacity="1.0" stroke-linecap="round" stroke-linejoin="round"/>
    <path d="M 107.11323547363281 121.79602813720703 C 103.32213592529297 122.82605743408203 103.9421157836914 124.35084533691406 105.41493225097656 122.34481811523438" stroke-width="3.0" fill="none" stroke="rgb(0, 0, 0)" stroke-opacity="1.0" stroke-linecap="round" stroke-linejoin="round"/>
    <path d="M 90.27011108398438 128.29476928710938 C 89.42893981933594 131.83518981933594 90.74494171142578 133.97000122070312 90.0193862915039 130.82815551757812" stroke-width="3.0" fill="none" stroke="rgb(0, 0, 0)" stroke-opacity="1.0" stroke-linecap="round" stroke-linejoin="round"/>
    <path d="M 121.84842681884766 31.016977310180664 C 122.3709487915039 60.18703842163086 119.25146484375 32.20518493652344 116.62580108642578 40.07127380371094" stroke-width="3.0" fill="none" stroke="rgb(0, 0, 0)" stroke-opacity="1.0" stroke-linecap="round" stroke-linejoin="round"/>
    <path d="M 119.04771423339844 120.443359375 C 118.44419860839844 119.83267974853516 118.66153717041016 120.15888214111328 118.74221801757812 120.48223114013672" stroke-width="3.0" fill="none" stroke="rgb(0, 0, 0)" stroke-opacity="1.0" stroke-linecap="round" stroke-linejoin="round"/>
    <path d="M 102.9209213256836 53.55475616455078 C 100.64815521240234 49.515159606933594 102.43883514404297 52.19290542602539 103.2414779663086 51.359317779541016" stroke-width="3.0" fill="none" stroke="rgb(0, 0, 0)" stroke-opacity="1.0" stroke-linecap="round" stroke-linejoin="round"/>
    <path d="M 76.72199249267578 51.11354064941406 C 78.1346435546875 43.82712173461914 84.66130065917969 34.38866424560547 78.50298309326172 30.566001892089844" stroke-width="3.0" fill="none" stroke="rgb(0, 0, 0)" stroke-opacity="1.0" stroke-linecap="round" stroke-linejoin="round"/>
  </g>
</svg>
