<?xml version="1.0" ?>
<svg xmlns="http://www.w3.org/2000/svg" version="1.1" width="224" height="224">
  <defs/>
  <g>
    <path d="M 133.9769744873047 94.57628631591797 C 134.60614013671875 94.78763580322266 133.60037231445312 94.54840087890625 134.12722778320312 94.31476593017578" stroke-width="3.0" fill="none" stroke="rgb(0, 0, 0)" stroke-opacity="1.0" stroke-linecap="round" stroke-linejoin="round"/>
    <path d="M 167.46435546875 135.03196716308594 C 163.5770721435547 135.7836151123047 171.52169799804688 134.74002075195312 169.08287048339844 135.33840942382812" stroke-width="3.0" fill="none" stroke="rgb(0, 0, 0)" stroke-opacity="1.0" stroke-linecap="round" stroke-linejoin="round"/>
    <path d="M 83.00616455078125 140.8223419189453 C 83.4405288696289 124.895751953125 80.57567596435547 129.64524841308594 82.40780639648438 119.88614654541016" stroke-width="3.0" fill="none" stroke="rgb(0, 0, 0)" stroke-opacity="1.0" stroke-linecap="round" stroke-linejoin="round"/>
    <path d="M 105.0058364868164 117.13127136230469 C 105.35003662109375 117.3111572265625 104.61133575439453 117.13720703125 105.0833969116211 117.0708999633789" stroke-width="3.0" fill="none" stroke="rgb(0, 0, 0)" stroke-opacity="1.0" stroke-linecap="round" stroke-linejoin="round"/>
    <path d="M 163.9307861328125 78.07481384277344 C 164.44869995117188 80.90550231933594 163.88589477539062 81.07913208007812 164.3658905029297 80.55943298339844" stroke-width="3.0" fill="none" stroke="rgb(0, 0, 0)" stroke-opacity="1.0" stroke-linecap="round" stroke-linejoin="round"/>
    <path d="M 129.96646118164062 63.561614990234375 C 129.65870666503906 64.0993881225586 129.4410400390625 63.47126007080078 129.40098571777344 63.78107833862305" stroke-width="3.0" fill="none" stroke="rgb(0, 0, 0)" stroke-opacity="1.0" stroke-linecap="round" stroke-linejoin="round"/>
    <path d="M 133.04266357421875 142.9711151123047 C 131.11776733398438 143.20814514160156 136.9852294921875 142.7636260986328 136.70315551757812 141.88351440429688" stroke-width="3.0" fill="none" stroke="rgb(0, 0, 0)" stroke-opacity="1.0" stroke-linecap="round" stroke-linejoin="round"/>
    <path d="M 122.6595687866211 114.83486938476562 C 122.77357482910156 114.79438781738281 122.7372817993164 116.3343505859375 122.68781280517578 115.18147277832031" stroke-width="3.0" fill="none" stroke="rgb(0, 0, 0)" stroke-opacity="1.0" stroke-linecap="round" stroke-linejoin="round"/>
    <path d="M 81.86557006835938 122.44043731689453 C 82.52577209472656 125.46037292480469 81.06370544433594 136.76568603515625 82.00557708740234 133.47373962402344" stroke-width="3.0" fill="none" stroke="rgb(0, 0, 0)" stroke-opacity="1.0" stroke-linecap="round" stroke-linejoin="round"/>
    <path d="M 135.07846069335938 53.11149978637695 C 135.1162109375 52.860836029052734 134.6223907470703 53.1282844543457 135.0044403076172 53.16739273071289" stroke-width="3.0" fill="none" stroke="rgb(0, 0, 0)" stroke-opacity="1.0" stroke-linecap="round" stroke-linejoin="round"/>
    <path d="M 85.32424926757812 149.0335693359375 C 98.05288696289062 149.03961181640625 100.16100311279297 150.38214111328125 89.74199676513672 144.8674774169922" stroke-width="3.0" fill="none" stroke="rgb(0, 0, 0)" stroke-opacity="1.0" stroke-linecap="round" stroke-linejoin="round"/>
    <path d="M 137.26235961914062 141.9718780517578 C 139.72720336914062 140.75830078125 143.06787109375 139.8355712890625 141.8979949951172 143.01617431640625" stroke-width="3.0" fill="none" stroke="rgb(0, 0, 0)" stroke-opacity="1.0" stroke-linecap="round" stroke-linejoin="round"/>
    <path d="M 163.88150024414062 78.45812225341797 C 163.55422973632812 75.58934020996094 164.28616333007812 83.91757202148438 164.18862915039062 79.82469177246094" stroke-width="3.0" fill="none" stroke="rgb(0, 0, 0)" stroke-opacity="1.0" stroke-linecap="round" stroke-linejoin="round"/>
    <path d="M 164.6218719482422 80.73694610595703 C 165.6719970703125 80.8011703491211 164.33514404296875 79.56169891357422 164.03939819335938 80.65647888183594" stroke-width="3.0" fill="none" stroke="rgb(0, 0, 0)" stroke-opacity="1.0" stroke-linecap="round" stroke-linejoin="round"/>
    <path d="M 181.94265747070312 71.65957641601562 C 182.39266967773438 72.12799835205078 182.02932739257812 71.78861999511719 182.66372680664062 72.54431915283203" stroke-width="3.0" fill="none" stroke="rgb(0, 0, 0)" stroke-opacity="1.0" stroke-linecap="round" stroke-linejoin="round"/>
    <path d="M 174.0139617919922 84.21935272216797 C 173.91351318359375 84.63795471191406 173.95057678222656 84.03146362304688 174.09962463378906 84.14104461669922" stroke-width="3.0" fill="none" stroke="rgb(0, 0, 0)" stroke-opacity="1.0" stroke-linecap="round" stroke-linejoin="round"/>
  </g>
</svg>
