<?xml version="1.0" ?>
<svg xmlns="http://www.w3.org/2000/svg" version="1.1" width="224" height="224">
  <defs/>
  <g>
    <path d="M 87.46221923828125 125.56221008300781 C 102.5462417602539 143.37542724609375 74.15025329589844 110.95226287841797 63.761722564697266 127.09164428710938" stroke-width="2" fill="none" stroke="rgb(0, 0, 0)" stroke-opacity="1.0" stroke-linecap="round" stroke-linejoin="round"/>
    <path d="M 111.70120239257812 150.53244018554688 C 61.25290298461914 111.55806732177734 189.98580932617188 108.71232604980469 130.6513671875 108.35159301757812" stroke-width="2" fill="none" stroke="rgb(0, 0, 0)" stroke-opacity="1.0" stroke-linecap="round" stroke-linejoin="round"/>
    <path d="M 147.0986785888672 129.71197509765625 C 214.86122131347656 138.2189483642578 77.39729309082031 147.5015411376953 74.56275939941406 107.58534240722656" stroke-width="2" fill="none" stroke="rgb(0, 0, 0)" stroke-opacity="1.0" stroke-linecap="round" stroke-linejoin="round"/>
    <path d="M 45.937129974365234 144.69729614257812 C 205.6548309326172 163.220947265625 174.19970703125 159.7093963623047 171.51419067382812 92.63633728027344" stroke-width="2" fill="none" stroke="rgb(0, 0, 0)" stroke-opacity="1.0" stroke-linecap="round" stroke-linejoin="round"/>
    <path d="M 187.24366760253906 63.8454704284668 C 176.78378295898438 60.46295166015625 162.72056579589844 99.38484191894531 130.74293518066406 95.03657531738281" stroke-width="2" fill="none" stroke="rgb(0, 0, 0)" stroke-opacity="1.0" stroke-linecap="round" stroke-linejoin="round"/>
    <path d="M 124.5954360961914 111.75076293945312 C 216.75120544433594 122.46537780761719 41.387420654296875 101.55653381347656 146.04066467285156 129.67108154296875" stroke-width="2" fill="none" stroke="rgb(0, 0, 0)" stroke-opacity="1.0" stroke-linecap="round" stroke-linejoin="round"/>
    <path d="M 48.178131103515625 108.22859191894531 C 24.64784812927246 169.30465698242188 100.09979248046875 147.4099578857422 130.31924438476562 147.7443389892578" stroke-width="2" fill="none" stroke="rgb(0, 0, 0)" stroke-opacity="1.0" stroke-linecap="round" stroke-linejoin="round"/>
    <path d="M 150.89080810546875 111.22632598876953 C 44.31095886230469 104.60214233398438 163.61151123046875 102.4618911743164 107.95330047607422 112.23207092285156" stroke-width="2" fill="none" stroke="rgb(0, 0, 0)" stroke-opacity="1.0" stroke-linecap="round" stroke-linejoin="round"/>
    <path d="M 108.35087585449219 111.98876953125 C 141.65577697753906 116.82823181152344 163.06948852539062 117.775634765625 103.05895233154297 119.93647766113281" stroke-width="2" fill="none" stroke="rgb(0, 0, 0)" stroke-opacity="1.0" stroke-linecap="round" stroke-linejoin="round"/>
    <path d="M 180.29856872558594 77.35079193115234 C 161.62127685546875 130.28785705566406 120.52967834472656 64.10602569580078 160.17970275878906 104.60880279541016" stroke-width="2" fill="none" stroke="rgb(0, 0, 0)" stroke-opacity="1.0" stroke-linecap="round" stroke-linejoin="round"/>
    <path d="M 149.09812927246094 154.24124145507812 C 21.887897491455078 147.7263641357422 83.50325012207031 137.08157348632812 99.94038391113281 149.72940063476562" stroke-width="2" fill="none" stroke="rgb(0, 0, 0)" stroke-opacity="1.0" stroke-linecap="round" stroke-linejoin="round"/>
    <path d="M 97.64508819580078 95.76753997802734 C 37.31294250488281 91.66816711425781 56.722476959228516 109.29210662841797 39.58909225463867 117.39468383789062" stroke-width="2" fill="none" stroke="rgb(0, 0, 0)" stroke-opacity="1.0" stroke-linecap="round" stroke-linejoin="round"/>
    <path d="M 147.28050231933594 82.75704193115234 C 96.77567291259766 63.58196258544922 118.84223175048828 114.29212188720703 100.4217529296875 58.80350112915039" stroke-width="2" fill="none" stroke="rgb(0, 0, 0)" stroke-opacity="1.0" stroke-linecap="round" stroke-linejoin="round"/>
    <path d="M 189.4624786376953 59.27739715576172 C 169.01220703125 171.28797912597656 90.37507629394531 111.64582824707031 142.30210876464844 137.21820068359375" stroke-width="2" fill="none" stroke="rgb(0, 0, 0)" stroke-opacity="1.0" stroke-linecap="round" stroke-linejoin="round"/>
    <path d="M 116.6231460571289 81.56450653076172 C 74.01331329345703 15.307059288024902 99.57686614990234 125.85462951660156 94.24287414550781 106.68452453613281" stroke-width="2" fill="none" stroke="rgb(0, 0, 0)" stroke-opacity="1.0" stroke-linecap="round" stroke-linejoin="round"/>
    <path d="M 52.5857048034668 128.82730102539062 C 39.88214111328125 123.74079132080078 44.92377471923828 114.8361587524414 47.892818450927734 109.0650405883789" stroke-width="2" fill="none" stroke="rgb(0, 0, 0)" stroke-opacity="1.0" stroke-linecap="round" stroke-linejoin="round"/>
  </g>
</svg>
