<?xml version="1.0" ?>
<svg xmlns="http://www.w3.org/2000/svg" version="1.1" width="224" height="224">
  <defs/>
  <g>
    <path d="M 84.10681915283203 127.67170715332031 C 97.86901092529297 141.9174041748047 72.0262680053711 104.74713897705078 63.68699645996094 122.4776840209961" stroke-width="2" fill="none" stroke="rgb(0, 0, 0)" stroke-opacity="1.0" stroke-linecap="round" stroke-linejoin="round"/>
    <path d="M 107.3267822265625 149.13470458984375 C 56.068763732910156 113.72227478027344 186.23545837402344 110.56547546386719 126.1500473022461 109.55595397949219" stroke-width="2" fill="none" stroke="rgb(0, 0, 0)" stroke-opacity="1.0" stroke-linecap="round" stroke-linejoin="round"/>
    <path d="M 150.59515380859375 132.31234741210938 C 208.1090545654297 128.29896545410156 74.9915542602539 148.65830993652344 74.9986343383789 114.51420593261719" stroke-width="2" fill="none" stroke="rgb(0, 0, 0)" stroke-opacity="1.0" stroke-linecap="round" stroke-linejoin="round"/>
    <path d="M 51.725860595703125 138.31057739257812 C 208.52230834960938 159.97608947753906 176.16554260253906 155.4407196044922 171.80401611328125 95.35865783691406" stroke-width="2" fill="none" stroke="rgb(0, 0, 0)" stroke-opacity="1.0" stroke-linecap="round" stroke-linejoin="round"/>
    <path d="M 188.13925170898438 59.0693473815918 C 177.48370361328125 61.146507263183594 160.0476837158203 96.05854034423828 135.28228759765625 86.74128723144531" stroke-width="2" fill="none" stroke="rgb(0, 0, 0)" stroke-opacity="1.0" stroke-linecap="round" stroke-linejoin="round"/>
    <path d="M 129.15296936035156 113.23518371582031 C 215.2845916748047 123.8082504272461 32.793846130371094 105.52505493164062 142.483154296875 128.40069580078125" stroke-width="2" fill="none" stroke="rgb(0, 0, 0)" stroke-opacity="1.0" stroke-linecap="round" stroke-linejoin="round"/>
    <path d="M 47.816959381103516 105.84424591064453 C 16.430578231811523 168.6732635498047 97.95601654052734 146.29861450195312 133.2742462158203 149.16720581054688" stroke-width="2" fill="none" stroke="rgb(0, 0, 0)" stroke-opacity="1.0" stroke-linecap="round" stroke-linejoin="round"/>
    <path d="M 147.13624572753906 111.14881896972656 C 44.85173034667969 106.35231018066406 161.89146423339844 102.10607147216797 103.41053009033203 109.05992889404297" stroke-width="2" fill="none" stroke="rgb(0, 0, 0)" stroke-opacity="1.0" stroke-linecap="round" stroke-linejoin="round"/>
    <path d="M 112.10781860351562 113.98043060302734 C 145.87855529785156 118.20398712158203 165.63851928710938 125.89521026611328 104.79488372802734 114.80467224121094" stroke-width="2" fill="none" stroke="rgb(0, 0, 0)" stroke-opacity="1.0" stroke-linecap="round" stroke-linejoin="round"/>
    <path d="M 181.49000549316406 78.56096649169922 C 166.15647888183594 129.7742919921875 126.78251647949219 60.748653411865234 154.2002716064453 110.47464752197266" stroke-width="2" fill="none" stroke="rgb(0, 0, 0)" stroke-opacity="1.0" stroke-linecap="round" stroke-linejoin="round"/>
    <path d="M 157.09555053710938 149.6640167236328 C 26.614768981933594 145.26589965820312 84.18099975585938 140.84893798828125 100.13909912109375 155.6212615966797" stroke-width="2" fill="none" stroke="rgb(0, 0, 0)" stroke-opacity="1.0" stroke-linecap="round" stroke-linejoin="round"/>
    <path d="M 88.34871673583984 95.84635162353516 C 35.77952194213867 93.54261016845703 54.277374267578125 108.51261138916016 40.392173767089844 121.04863739013672" stroke-width="2" fill="none" stroke="rgb(0, 0, 0)" stroke-opacity="1.0" stroke-linecap="round" stroke-linejoin="round"/>
    <path d="M 148.7896270751953 81.06773376464844 C 90.11390686035156 63.25336456298828 116.15830993652344 117.15758514404297 96.61589813232422 67.66828155517578" stroke-width="2" fill="none" stroke="rgb(0, 0, 0)" stroke-opacity="1.0" stroke-linecap="round" stroke-linejoin="round"/>
    <path d="M 190.0560302734375 66.19982147216797 C 177.47109985351562 175.7045440673828 92.82861328125 113.1144790649414 142.90260314941406 136.2319793701172" stroke-width="2" fill="none" stroke="rgb(0, 0, 0)" stroke-opacity="1.0" stroke-linecap="round" stroke-linejoin="round"/>
    <path d="M 113.99581146240234 82.16133117675781 C 66.06478118896484 17.832027435302734 97.15194702148438 122.37805938720703 94.65766906738281 98.58544921875" stroke-width="2" fill="none" stroke="rgb(0, 0, 0)" stroke-opacity="1.0" stroke-linecap="round" stroke-linejoin="round"/>
    <path d="M 50.95131301879883 136.3263702392578 C 33.696773529052734 126.30357360839844 39.269615173339844 115.41181182861328 46.123111724853516 108.66124725341797" stroke-width="2" fill="none" stroke="rgb(0, 0, 0)" stroke-opacity="1.0" stroke-linecap="round" stroke-linejoin="round"/>
  </g>
</svg>
