<?xml version="1.0" ?>
<svg xmlns="http://www.w3.org/2000/svg" version="1.1" width="224" height="224">
  <defs/>
  <g>
    <path d="M 63.67265319824219 146.2517852783203 C 160.11439514160156 173.475830078125 60.29214859008789 170.60438537597656 62.137107849121094 126.88801574707031" stroke-width="2" fill="none" stroke="rgb(0, 0, 0)" stroke-opacity="1.0" stroke-linecap="round" stroke-linejoin="round"/>
    <path d="M 119.52008056640625 162.1919403076172 C 41.34628677368164 140.9905548095703 169.45162963867188 166.13400268554688 160.78204345703125 136.72216796875" stroke-width="2" fill="none" stroke="rgb(0, 0, 0)" stroke-opacity="1.0" stroke-linecap="round" stroke-linejoin="round"/>
    <path d="M 87.08880615234375 123.0011215209961 C 127.5307388305664 127.51905822753906 28.709810256958008 129.72848510742188 162.67974853515625 133.84841918945312" stroke-width="2" fill="none" stroke="rgb(0, 0, 0)" stroke-opacity="1.0" stroke-linecap="round" stroke-linejoin="round"/>
    <path d="M 72.22513580322266 176.0198211669922 C 232.54869079589844 179.1517791748047 142.6691131591797 123.86045837402344 160.40200805664062 136.250732421875" stroke-width="2" fill="none" stroke="rgb(0, 0, 0)" stroke-opacity="1.0" stroke-linecap="round" stroke-linejoin="round"/>
    <path d="M 183.9093780517578 59.75749588012695 C 172.9651641845703 59.65768051147461 152.18472290039062 128.0155487060547 112.43621826171875 80.87059783935547" stroke-width="2" fill="none" stroke="rgb(0, 0, 0)" stroke-opacity="1.0" stroke-linecap="round" stroke-linejoin="round"/>
    <path d="M 135.86705017089844 140.23379516601562 C 191.58206176757812 141.76644897460938 55.51527404785156 125.09564208984375 108.36290740966797 128.90916442871094" stroke-width="2" fill="none" stroke="rgb(0, 0, 0)" stroke-opacity="1.0" stroke-linecap="round" stroke-linejoin="round"/>
    <path d="M 43.332801818847656 124.3531265258789 C 1.6578198671340942 193.6687774658203 216.9886932373047 167.09730529785156 165.89549255371094 125.67959594726562" stroke-width="2" fill="none" stroke="rgb(0, 0, 0)" stroke-opacity="1.0" stroke-linecap="round" stroke-linejoin="round"/>
    <path d="M 155.3915557861328 120.98497772216797 C 146.1748504638672 62.546810150146484 151.88209533691406 134.49688720703125 185.0885467529297 73.74346160888672" stroke-width="2" fill="none" stroke="rgb(0, 0, 0)" stroke-opacity="1.0" stroke-linecap="round" stroke-linejoin="round"/>
    <path d="M 116.90892791748047 123.05058288574219 C 205.17352294921875 119.53402709960938 75.49961853027344 137.81385803222656 126.94386291503906 135.94161987304688" stroke-width="2" fill="none" stroke="rgb(0, 0, 0)" stroke-opacity="1.0" stroke-linecap="round" stroke-linejoin="round"/>
    <path d="M 184.28697204589844 62.624366760253906 C 165.90411376953125 154.2982177734375 158.68057250976562 71.51888275146484 117.84104919433594 101.11921691894531" stroke-width="2" fill="none" stroke="rgb(0, 0, 0)" stroke-opacity="1.0" stroke-linecap="round" stroke-linejoin="round"/>
    <path d="M 177.44412231445312 143.5543670654297 C 161.6858673095703 161.11807250976562 178.7141571044922 157.98631286621094 155.27313232421875 153.6145782470703" stroke-width="2" fill="none" stroke="rgb(0, 0, 0)" stroke-opacity="1.0" stroke-linecap="round" stroke-linejoin="round"/>
    <path d="M 118.96356201171875 103.14268493652344 C 82.3683853149414 19.89629364013672 92.65657043457031 127.1173324584961 91.68818664550781 96.19795989990234" stroke-width="2" fill="none" stroke="rgb(0, 0, 0)" stroke-opacity="1.0" stroke-linecap="round" stroke-linejoin="round"/>
    <path d="M 117.1201400756836 137.02806091308594 C 166.4536590576172 158.55401611328125 192.2570343017578 128.86590576171875 118.70177459716797 130.81578063964844" stroke-width="2" fill="none" stroke="rgb(0, 0, 0)" stroke-opacity="1.0" stroke-linecap="round" stroke-linejoin="round"/>
    <path d="M 175.73959350585938 91.28743743896484 C 170.470947265625 182.10040283203125 89.330810546875 96.51091003417969 145.80735778808594 129.01351928710938" stroke-width="2" fill="none" stroke="rgb(0, 0, 0)" stroke-opacity="1.0" stroke-linecap="round" stroke-linejoin="round"/>
    <path d="M 105.01219940185547 142.53457641601562 C 110.951416015625 107.94831085205078 79.44676208496094 142.28062438964844 98.81730651855469 94.52317810058594" stroke-width="2" fill="none" stroke="rgb(0, 0, 0)" stroke-opacity="1.0" stroke-linecap="round" stroke-linejoin="round"/>
    <path d="M 47.48884963989258 140.85841369628906 C 36.260108947753906 120.01451110839844 41.83869934082031 95.94268035888672 96.6370620727539 103.00678253173828" stroke-width="2" fill="none" stroke="rgb(0, 0, 0)" stroke-opacity="1.0" stroke-linecap="round" stroke-linejoin="round"/>
  </g>
</svg>
