<?xml version="1.0" ?>
<svg xmlns="http://www.w3.org/2000/svg" version="1.1" width="224" height="224">
  <defs/>
  <g>
    <path d="M 83.29794311523438 118.64205932617188 C 181.76406860351562 132.5102996826172 49.467350006103516 130.54722595214844 132.6913299560547 145.6909942626953" stroke-width="2" fill="none" stroke="rgb(0, 0, 0)" stroke-opacity="1.0" stroke-linecap="round" stroke-linejoin="round"/>
    <path d="M 120.46460723876953 112.92103576660156 C 57.48786163330078 116.78578186035156 161.5538787841797 107.6603012084961 77.87330627441406 104.98841857910156" stroke-width="2" fill="none" stroke="rgb(0, 0, 0)" stroke-opacity="1.0" stroke-linecap="round" stroke-linejoin="round"/>
    <path d="M 115.09073638916016 108.39007568359375 C 60.53273010253906 139.42774963378906 73.01175689697266 110.8684310913086 148.1316375732422 138.38729858398438" stroke-width="2" fill="none" stroke="rgb(0, 0, 0)" stroke-opacity="1.0" stroke-linecap="round" stroke-linejoin="round"/>
    <path d="M 54.84830093383789 139.11917114257812 C 244.9508819580078 194.05238342285156 152.74964904785156 110.02394104003906 174.24179077148438 88.11602783203125" stroke-width="2" fill="none" stroke="rgb(0, 0, 0)" stroke-opacity="1.0" stroke-linecap="round" stroke-linejoin="round"/>
    <path d="M 144.06436157226562 114.9930191040039 C 96.49662017822266 97.3948745727539 194.93638610839844 127.8843002319336 133.09341430664062 91.58123016357422" stroke-width="2" fill="none" stroke="rgb(0, 0, 0)" stroke-opacity="1.0" stroke-linecap="round" stroke-linejoin="round"/>
    <path d="M 99.63996124267578 144.70791625976562 C 170.99952697753906 127.59513854980469 38.14749526977539 109.54182434082031 138.91665649414062 143.9935760498047" stroke-width="2" fill="none" stroke="rgb(0, 0, 0)" stroke-opacity="1.0" stroke-linecap="round" stroke-linejoin="round"/>
    <path d="M 88.91517639160156 85.1185073852539 C -10.266865730285645 89.3114013671875 80.3423080444336 182.96405029296875 51.55526351928711 131.87307739257812" stroke-width="2" fill="none" stroke="rgb(0, 0, 0)" stroke-opacity="1.0" stroke-linecap="round" stroke-linejoin="round"/>
    <path d="M 167.40499877929688 105.0042495727539 C 215.96554565429688 -9.887165069580078 129.4352264404297 128.6938018798828 172.4478759765625 85.33180236816406" stroke-width="2" fill="none" stroke="rgb(0, 0, 0)" stroke-opacity="1.0" stroke-linecap="round" stroke-linejoin="round"/>
    <path d="M 147.33665466308594 158.31546020507812 C 53.07600402832031 163.4483184814453 26.281858444213867 116.24533081054688 143.77565002441406 123.91307830810547" stroke-width="2" fill="none" stroke="rgb(0, 0, 0)" stroke-opacity="1.0" stroke-linecap="round" stroke-linejoin="round"/>
    <path d="M 163.3953857421875 71.96346282958984 C 107.78892517089844 121.08780670166016 107.19768524169922 61.65300750732422 100.74346923828125 59.15367889404297" stroke-width="2" fill="none" stroke="rgb(0, 0, 0)" stroke-opacity="1.0" stroke-linecap="round" stroke-linejoin="round"/>
    <path d="M 86.77034759521484 122.67108154296875 C 43.0550422668457 153.4847869873047 122.50167083740234 141.3536834716797 153.4488525390625 148.04977416992188" stroke-width="2" fill="none" stroke="rgb(0, 0, 0)" stroke-opacity="1.0" stroke-linecap="round" stroke-linejoin="round"/>
    <path d="M 95.29786682128906 87.76017761230469 C 99.3027572631836 11.388028144836426 124.88689422607422 95.6125717163086 124.71903991699219 116.26309967041016" stroke-width="2" fill="none" stroke="rgb(0, 0, 0)" stroke-opacity="1.0" stroke-linecap="round" stroke-linejoin="round"/>
    <path d="M 47.73886489868164 151.66786193847656 C 149.9331512451172 168.12069702148438 188.9243927001953 146.68801879882812 115.89751434326172 163.0594482421875" stroke-width="2" fill="none" stroke="rgb(0, 0, 0)" stroke-opacity="1.0" stroke-linecap="round" stroke-linejoin="round"/>
    <path d="M 155.9146270751953 122.34738159179688 C 146.11875915527344 142.71051025390625 190.7412567138672 103.00501251220703 185.8768768310547 62.10564041137695" stroke-width="2" fill="none" stroke="rgb(0, 0, 0)" stroke-opacity="1.0" stroke-linecap="round" stroke-linejoin="round"/>
    <path d="M 81.9645767211914 133.02671813964844 C 146.9381561279297 134.029541015625 156.92787170410156 147.25564575195312 129.26856994628906 122.25578308105469" stroke-width="2" fill="none" stroke="rgb(0, 0, 0)" stroke-opacity="1.0" stroke-linecap="round" stroke-linejoin="round"/>
    <path d="M 79.4937744140625 105.82254791259766 C 69.59558868408203 150.06884765625 82.51100158691406 89.97064971923828 95.27068328857422 88.33277130126953" stroke-width="2" fill="none" stroke="rgb(0, 0, 0)" stroke-opacity="1.0" stroke-linecap="round" stroke-linejoin="round"/>
  </g>
</svg>
