<?xml version="1.0" ?>
<svg xmlns="http://www.w3.org/2000/svg" version="1.1" width="224" height="224">
  <defs/>
  <g>
    <path d="M 70.66304016113281 128.85888671875 C 25.976430892944336 128.6179656982422 95.87374114990234 66.12991333007812 99.10723876953125 128.40274047851562" stroke-width="2" fill="none" stroke="rgb(0, 0, 0)" stroke-opacity="1.0" stroke-linecap="round" stroke-linejoin="round"/>
    <path d="M 134.5283966064453 153.7172393798828 C 64.26199340820312 100.2599868774414 162.7375030517578 127.27403259277344 106.38226318359375 124.26675415039062" stroke-width="2" fill="none" stroke="rgb(0, 0, 0)" stroke-opacity="1.0" stroke-linecap="round" stroke-linejoin="round"/>
    <path d="M 148.593505859375 106.5004653930664 C 216.48294067382812 142.386962890625 72.44098663330078 154.83897399902344 121.5890884399414 116.75165557861328" stroke-width="2" fill="none" stroke="rgb(0, 0, 0)" stroke-opacity="1.0" stroke-linecap="round" stroke-linejoin="round"/>
    <path d="M 48.30221939086914 149.2063446044922 C 179.94078063964844 187.0249786376953 167.97715759277344 163.8917694091797 160.4916534423828 90.51927947998047" stroke-width="2" fill="none" stroke="rgb(0, 0, 0)" stroke-opacity="1.0" stroke-linecap="round" stroke-linejoin="round"/>
    <path d="M 190.2139434814453 55.537269592285156 C 171.68519592285156 44.1765022277832 145.14999389648438 115.52616882324219 118.48487854003906 64.06066131591797" stroke-width="2" fill="none" stroke="rgb(0, 0, 0)" stroke-opacity="1.0" stroke-linecap="round" stroke-linejoin="round"/>
    <path d="M 113.50952911376953 130.22666931152344 C 130.33836364746094 129.90115356445312 125.2753677368164 116.64484405517578 107.19829559326172 121.49148559570312" stroke-width="2" fill="none" stroke="rgb(0, 0, 0)" stroke-opacity="1.0" stroke-linecap="round" stroke-linejoin="round"/>
    <path d="M 53.11356735229492 109.55252838134766 C 19.031057357788086 155.55642700195312 89.42376708984375 152.8365478515625 165.17037963867188 159.3017120361328" stroke-width="2" fill="none" stroke="rgb(0, 0, 0)" stroke-opacity="1.0" stroke-linecap="round" stroke-linejoin="round"/>
    <path d="M 141.2202606201172 133.785400390625 C 98.69546508789062 126.75920867919922 218.07901000976562 116.44801330566406 111.27664184570312 124.35014343261719" stroke-width="2" fill="none" stroke="rgb(0, 0, 0)" stroke-opacity="1.0" stroke-linecap="round" stroke-linejoin="round"/>
    <path d="M 126.1534652709961 150.5123748779297 C 98.96371459960938 154.72669982910156 128.07907104492188 141.247802734375 59.34973907470703 140.6540069580078" stroke-width="2" fill="none" stroke="rgb(0, 0, 0)" stroke-opacity="1.0" stroke-linecap="round" stroke-linejoin="round"/>
    <path d="M 184.44900512695312 58.52092361450195 C 159.7327880859375 113.10839080810547 125.52156066894531 88.70442199707031 169.74142456054688 65.4398193359375" stroke-width="2" fill="none" stroke="rgb(0, 0, 0)" stroke-opacity="1.0" stroke-linecap="round" stroke-linejoin="round"/>
    <path d="M 152.98036193847656 129.48199462890625 C 111.13434600830078 128.20472717285156 135.40634155273438 122.44345092773438 159.7316131591797 127.94175720214844" stroke-width="2" fill="none" stroke="rgb(0, 0, 0)" stroke-opacity="1.0" stroke-linecap="round" stroke-linejoin="round"/>
    <path d="M 62.20352554321289 107.8563003540039 C 48.13711166381836 124.35507202148438 8.351876258850098 153.45484924316406 99.80359649658203 161.40875244140625" stroke-width="2" fill="none" stroke="rgb(0, 0, 0)" stroke-opacity="1.0" stroke-linecap="round" stroke-linejoin="round"/>
    <path d="M 129.02586364746094 104.69326782226562 C 108.3203125 103.64793395996094 131.17625427246094 109.99964904785156 113.00004577636719 57.85243225097656" stroke-width="2" fill="none" stroke="rgb(0, 0, 0)" stroke-opacity="1.0" stroke-linecap="round" stroke-linejoin="round"/>
    <path d="M 184.23895263671875 54.593753814697266 C 184.2667236328125 98.80033111572266 129.7568817138672 150.2841339111328 149.41001892089844 119.37506866455078" stroke-width="2" fill="none" stroke="rgb(0, 0, 0)" stroke-opacity="1.0" stroke-linecap="round" stroke-linejoin="round"/>
    <path d="M 119.10673522949219 46.28903579711914 C 95.4072265625 44.96636199951172 100.08026123046875 146.0942840576172 97.58563232421875 106.11466979980469" stroke-width="2" fill="none" stroke="rgb(0, 0, 0)" stroke-opacity="1.0" stroke-linecap="round" stroke-linejoin="round"/>
    <path d="M 58.1397819519043 125.28881072998047 C 39.593753814697266 79.88397216796875 87.45882415771484 107.33264923095703 94.36288452148438 98.170654296875" stroke-width="2" fill="none" stroke="rgb(0, 0, 0)" stroke-opacity="1.0" stroke-linecap="round" stroke-linejoin="round"/>
  </g>
</svg>
