<?xml version="1.0" ?>
<svg xmlns="http://www.w3.org/2000/svg" version="1.1" width="224" height="224">
  <defs/>
  <g>
    <path d="M 59.268272399902344 150.29510498046875 C 159.4353485107422 163.3247833251953 26.3514461517334 126.96322631835938 44.760807037353516 131.88238525390625" stroke-width="2" fill="none" stroke="rgb(0, 0, 0)" stroke-opacity="1.0" stroke-linecap="round" stroke-linejoin="round"/>
    <path d="M 122.52217102050781 111.50366973876953 C 76.59872436523438 124.58314514160156 203.9042510986328 118.40135955810547 114.9945297241211 113.82196807861328" stroke-width="2" fill="none" stroke="rgb(0, 0, 0)" stroke-opacity="1.0" stroke-linecap="round" stroke-linejoin="round"/>
    <path d="M 153.39505004882812 138.16659545898438 C 214.6859893798828 113.9665298461914 112.37615203857422 90.80201721191406 135.51023864746094 108.57030487060547" stroke-width="2" fill="none" stroke="rgb(0, 0, 0)" stroke-opacity="1.0" stroke-linecap="round" stroke-linejoin="round"/>
    <path d="M 50.55348205566406 145.6088409423828 C 244.0265655517578 185.40003967285156 140.0751953125 131.47186279296875 181.37815856933594 110.04229736328125" stroke-width="2" fill="none" stroke="rgb(0, 0, 0)" stroke-opacity="1.0" stroke-linecap="round" stroke-linejoin="round"/>
    <path d="M 189.28065490722656 59.64653396606445 C 170.85763549804688 60.4112548828125 143.57073974609375 130.64988708496094 106.00894165039062 68.77832794189453" stroke-width="2" fill="none" stroke="rgb(0, 0, 0)" stroke-opacity="1.0" stroke-linecap="round" stroke-linejoin="round"/>
    <path d="M 124.85702514648438 124.80391693115234 C 213.81263732910156 153.3222198486328 33.51229476928711 119.56389617919922 157.75100708007812 131.11842346191406" stroke-width="2" fill="none" stroke="rgb(0, 0, 0)" stroke-opacity="1.0" stroke-linecap="round" stroke-linejoin="round"/>
    <path d="M 54.7690315246582 114.80712127685547 C 5.297680854797363 167.29881286621094 180.81434631347656 170.43356323242188 108.31005859375 149.81678771972656" stroke-width="2" fill="none" stroke="rgb(0, 0, 0)" stroke-opacity="1.0" stroke-linecap="round" stroke-linejoin="round"/>
    <path d="M 159.71983337402344 118.3102035522461 C 135.5564727783203 113.67431640625 186.69317626953125 151.3522186279297 157.98748779296875 100.22687530517578" stroke-width="2" fill="none" stroke="rgb(0, 0, 0)" stroke-opacity="1.0" stroke-linecap="round" stroke-linejoin="round"/>
    <path d="M 112.7032241821289 114.28466796875 C 168.6057891845703 119.99353790283203 95.35194396972656 110.57905578613281 132.9922332763672 113.44853973388672" stroke-width="2" fill="none" stroke="rgb(0, 0, 0)" stroke-opacity="1.0" stroke-linecap="round" stroke-linejoin="round"/>
    <path d="M 182.84982299804688 66.89014434814453 C 158.993896484375 124.86775970458984 162.70706176757812 102.53032684326172 150.59548950195312 104.53514862060547" stroke-width="2" fill="none" stroke="rgb(0, 0, 0)" stroke-opacity="1.0" stroke-linecap="round" stroke-linejoin="round"/>
    <path d="M 156.1836700439453 128.56808471679688 C 100.05873107910156 114.59941864013672 137.572998046875 134.69204711914062 156.44491577148438 124.53199005126953" stroke-width="2" fill="none" stroke="rgb(0, 0, 0)" stroke-opacity="1.0" stroke-linecap="round" stroke-linejoin="round"/>
    <path d="M 102.30426025390625 66.38605499267578 C 90.69808197021484 94.21514892578125 103.12165832519531 113.02825164794922 104.72041320800781 141.99481201171875" stroke-width="2" fill="none" stroke="rgb(0, 0, 0)" stroke-opacity="1.0" stroke-linecap="round" stroke-linejoin="round"/>
    <path d="M 84.25355529785156 132.05166625976562 C 107.38904571533203 118.77682495117188 89.28807067871094 156.4959716796875 109.99443817138672 97.63053894042969" stroke-width="2" fill="none" stroke="rgb(0, 0, 0)" stroke-opacity="1.0" stroke-linecap="round" stroke-linejoin="round"/>
    <path d="M 190.75511169433594 62.48429870605469 C 190.31118774414062 152.25076293945312 119.1608657836914 138.87928771972656 166.9324188232422 153.439208984375" stroke-width="2" fill="none" stroke="rgb(0, 0, 0)" stroke-opacity="1.0" stroke-linecap="round" stroke-linejoin="round"/>
    <path d="M 106.07354736328125 112.91294860839844 C 81.73294067382812 72.68768310546875 125.4532699584961 131.12893676757812 94.39514923095703 102.8044204711914" stroke-width="2" fill="none" stroke="rgb(0, 0, 0)" stroke-opacity="1.0" stroke-linecap="round" stroke-linejoin="round"/>
    <path d="M 59.83584213256836 112.39549255371094 C 41.566349029541016 130.33245849609375 37.74203109741211 83.48936462402344 93.8028793334961 93.53389739990234" stroke-width="2" fill="none" stroke="rgb(0, 0, 0)" stroke-opacity="1.0" stroke-linecap="round" stroke-linejoin="round"/>
  </g>
</svg>
