<?xml version="1.0" ?>
<svg xmlns="http://www.w3.org/2000/svg" version="1.1" width="224" height="224">
  <defs/>
  <g>
    <path d="M 38.9974250793457 138.75698852539062 C 105.84716796875 143.8874053955078 57.24601364135742 146.05068969726562 65.81060028076172 136.03382873535156" stroke-width="2" fill="none" stroke="rgb(0, 0, 0)" stroke-opacity="1.0" stroke-linecap="round" stroke-linejoin="round"/>
    <path d="M 107.72865295410156 134.84310913085938 C 85.77706909179688 89.1129150390625 180.67857360839844 111.56531524658203 113.99994659423828 116.62431335449219" stroke-width="2" fill="none" stroke="rgb(0, 0, 0)" stroke-opacity="1.0" stroke-linecap="round" stroke-linejoin="round"/>
    <path d="M 138.35589599609375 126.37385559082031 C 204.42593383789062 103.37303924560547 108.27513122558594 136.90151977539062 103.74494171142578 96.2642593383789" stroke-width="2" fill="none" stroke="rgb(0, 0, 0)" stroke-opacity="1.0" stroke-linecap="round" stroke-linejoin="round"/>
    <path d="M 85.07315063476562 134.57949829101562 C 236.2586212158203 179.19444274902344 147.2673797607422 113.21125793457031 169.92466735839844 98.85276794433594" stroke-width="2" fill="none" stroke="rgb(0, 0, 0)" stroke-opacity="1.0" stroke-linecap="round" stroke-linejoin="round"/>
    <path d="M 189.74395751953125 55.64395523071289 C 171.82501220703125 49.29414749145508 163.85260009765625 83.93518829345703 140.15078735351562 83.87777709960938" stroke-width="2" fill="none" stroke="rgb(0, 0, 0)" stroke-opacity="1.0" stroke-linecap="round" stroke-linejoin="round"/>
    <path d="M 152.12327575683594 115.88087463378906 C 235.93679809570312 137.90200805664062 32.03616714477539 108.94341278076172 145.9078826904297 136.86474609375" stroke-width="2" fill="none" stroke="rgb(0, 0, 0)" stroke-opacity="1.0" stroke-linecap="round" stroke-linejoin="round"/>
    <path d="M 53.42963409423828 114.40105438232422 C -6.1676025390625 160.8080596923828 114.1371078491211 160.82142639160156 162.74200439453125 150.84814453125" stroke-width="2" fill="none" stroke="rgb(0, 0, 0)" stroke-opacity="1.0" stroke-linecap="round" stroke-linejoin="round"/>
    <path d="M 159.84457397460938 121.1314697265625 C 103.82022857666016 96.44534301757812 230.09140014648438 103.6380615234375 134.24703979492188 129.5415802001953" stroke-width="2" fill="none" stroke="rgb(0, 0, 0)" stroke-opacity="1.0" stroke-linecap="round" stroke-linejoin="round"/>
    <path d="M 109.74980163574219 113.25898742675781 C 135.5277099609375 113.59022521972656 150.94544982910156 102.3126449584961 113.80146789550781 116.78944396972656" stroke-width="2" fill="none" stroke="rgb(0, 0, 0)" stroke-opacity="1.0" stroke-linecap="round" stroke-linejoin="round"/>
    <path d="M 182.4117431640625 74.74014282226562 C 176.12149047851562 125.1449203491211 138.6108856201172 56.0952262878418 171.84539794921875 99.59657287597656" stroke-width="2" fill="none" stroke="rgb(0, 0, 0)" stroke-opacity="1.0" stroke-linecap="round" stroke-linejoin="round"/>
    <path d="M 131.1016387939453 156.63644409179688 C 34.70722579956055 140.88165283203125 100.81462097167969 140.1895751953125 105.6890640258789 150.45037841796875" stroke-width="2" fill="none" stroke="rgb(0, 0, 0)" stroke-opacity="1.0" stroke-linecap="round" stroke-linejoin="round"/>
    <path d="M 104.58883666992188 98.84931182861328 C 50.633506774902344 82.8925552368164 49.81419372558594 118.9054183959961 56.64790344238281 119.46098327636719" stroke-width="2" fill="none" stroke="rgb(0, 0, 0)" stroke-opacity="1.0" stroke-linecap="round" stroke-linejoin="round"/>
    <path d="M 137.88320922851562 91.47089385986328 C 125.86701202392578 67.71392822265625 123.02548217773438 98.10249328613281 109.55150604248047 55.96894454956055" stroke-width="2" fill="none" stroke="rgb(0, 0, 0)" stroke-opacity="1.0" stroke-linecap="round" stroke-linejoin="round"/>
    <path d="M 189.04115295410156 58.76591110229492 C 186.9755401611328 188.05616760253906 132.92037963867188 99.80204010009766 163.38150024414062 118.24876403808594" stroke-width="2" fill="none" stroke="rgb(0, 0, 0)" stroke-opacity="1.0" stroke-linecap="round" stroke-linejoin="round"/>
    <path d="M 120.1936264038086 79.01600646972656 C 92.92139434814453 17.754133224487305 101.57523345947266 120.03853607177734 108.20274353027344 94.02035522460938" stroke-width="2" fill="none" stroke="rgb(0, 0, 0)" stroke-opacity="1.0" stroke-linecap="round" stroke-linejoin="round"/>
    <path d="M 39.94419860839844 122.73711395263672 C 40.482662200927734 116.32014465332031 40.33369827270508 101.85995483398438 56.793739318847656 95.9849624633789" stroke-width="2" fill="none" stroke="rgb(0, 0, 0)" stroke-opacity="1.0" stroke-linecap="round" stroke-linejoin="round"/>
  </g>
</svg>
