<?xml version="1.0" ?>
<svg xmlns="http://www.w3.org/2000/svg" version="1.1" width="224" height="224">
  <defs/>
  <g>
    <path d="M 64.1119384765625 100.09806060791016 C 30.124454498291016 115.7183837890625 101.78565979003906 97.38497924804688 87.04603576660156 130.5661163330078" stroke-width="2" fill="none" stroke="rgb(0, 0, 0)" stroke-opacity="1.0" stroke-linecap="round" stroke-linejoin="round"/>
    <path d="M 127.03314208984375 125.16255187988281 C 49.667903900146484 110.0665054321289 121.31166076660156 135.51109313964844 91.10148620605469 113.8006820678711" stroke-width="2" fill="none" stroke="rgb(0, 0, 0)" stroke-opacity="1.0" stroke-linecap="round" stroke-linejoin="round"/>
    <path d="M 133.49786376953125 131.1191864013672 C 251.0435791015625 151.19216918945312 84.44303894042969 171.41957092285156 119.11206817626953 114.65042877197266" stroke-width="2" fill="none" stroke="rgb(0, 0, 0)" stroke-opacity="1.0" stroke-linecap="round" stroke-linejoin="round"/>
    <path d="M 42.598514556884766 141.11448669433594 C 208.38343811035156 169.14170837402344 182.5691680908203 169.68885803222656 160.15460205078125 102.35356903076172" stroke-width="2" fill="none" stroke="rgb(0, 0, 0)" stroke-opacity="1.0" stroke-linecap="round" stroke-linejoin="round"/>
    <path d="M 190.04153442382812 62.26491928100586 C 169.76632690429688 65.44441223144531 175.71975708007812 99.90706634521484 131.8701171875 88.13613891601562" stroke-width="2" fill="none" stroke="rgb(0, 0, 0)" stroke-opacity="1.0" stroke-linecap="round" stroke-linejoin="round"/>
    <path d="M 127.5008773803711 114.92791748046875 C 183.1161346435547 139.4767608642578 95.63334655761719 121.88395690917969 150.29888916015625 136.60372924804688" stroke-width="2" fill="none" stroke="rgb(0, 0, 0)" stroke-opacity="1.0" stroke-linecap="round" stroke-linejoin="round"/>
    <path d="M 55.873233795166016 103.46397399902344 C 7.170042514801025 167.86566162109375 82.57794189453125 152.8390655517578 136.1737518310547 159.90023803710938" stroke-width="2" fill="none" stroke="rgb(0, 0, 0)" stroke-opacity="1.0" stroke-linecap="round" stroke-linejoin="round"/>
    <path d="M 149.23123168945312 120.47740173339844 C 60.85649108886719 118.95906829833984 224.53363037109375 123.76573181152344 108.60918426513672 140.6829833984375" stroke-width="2" fill="none" stroke="rgb(0, 0, 0)" stroke-opacity="1.0" stroke-linecap="round" stroke-linejoin="round"/>
    <path d="M 101.14527893066406 146.66510009765625 C 53.86397171020508 129.5408172607422 97.9222183227539 148.3913116455078 67.0843734741211 124.25347137451172" stroke-width="2" fill="none" stroke="rgb(0, 0, 0)" stroke-opacity="1.0" stroke-linecap="round" stroke-linejoin="round"/>
    <path d="M 186.87554931640625 66.33859252929688 C 163.80264282226562 107.77806854248047 152.45355224609375 95.00708770751953 173.01776123046875 94.72137451171875" stroke-width="2" fill="none" stroke="rgb(0, 0, 0)" stroke-opacity="1.0" stroke-linecap="round" stroke-linejoin="round"/>
    <path d="M 168.18296813964844 143.03839111328125 C 66.71343231201172 124.26564025878906 97.52291107177734 147.06246948242188 114.29178619384766 158.5699005126953" stroke-width="2" fill="none" stroke="rgb(0, 0, 0)" stroke-opacity="1.0" stroke-linecap="round" stroke-linejoin="round"/>
    <path d="M 96.98766326904297 93.3519515991211 C 42.951351165771484 93.3952865600586 75.02631378173828 132.01841735839844 67.15834045410156 112.41947937011719" stroke-width="2" fill="none" stroke="rgb(0, 0, 0)" stroke-opacity="1.0" stroke-linecap="round" stroke-linejoin="round"/>
    <path d="M 156.51181030273438 105.6832504272461 C 96.19475555419922 56.40986251831055 143.33511352539062 138.70445251464844 113.85718536376953 59.43536376953125" stroke-width="2" fill="none" stroke="rgb(0, 0, 0)" stroke-opacity="1.0" stroke-linecap="round" stroke-linejoin="round"/>
    <path d="M 185.43663024902344 63.74797058105469 C 182.83236694335938 128.96017456054688 147.11611938476562 130.26719665527344 167.40841674804688 110.02552032470703" stroke-width="2" fill="none" stroke="rgb(0, 0, 0)" stroke-opacity="1.0" stroke-linecap="round" stroke-linejoin="round"/>
    <path d="M 132.79583740234375 86.75894165039062 C 88.47529602050781 14.059142112731934 112.8465805053711 115.39507293701172 101.1352310180664 94.43769073486328" stroke-width="2" fill="none" stroke="rgb(0, 0, 0)" stroke-opacity="1.0" stroke-linecap="round" stroke-linejoin="round"/>
    <path d="M 52.50771713256836 118.56303405761719 C 47.26847457885742 98.12881469726562 73.77127075195312 104.8726577758789 71.27228546142578 104.13121032714844" stroke-width="2" fill="none" stroke="rgb(0, 0, 0)" stroke-opacity="1.0" stroke-linecap="round" stroke-linejoin="round"/>
  </g>
</svg>
