<?xml version="1.0" ?>
<svg xmlns="http://www.w3.org/2000/svg" version="1.1" width="224" height="224">
  <defs/>
  <g>
    <path d="M 88.18626403808594 123.28971099853516 C 86.19428253173828 142.3289337158203 66.37089538574219 130.0216827392578 59.348751068115234 134.1138458251953" stroke-width="2" fill="none" stroke="rgb(0, 0, 0)" stroke-opacity="1.0" stroke-linecap="round" stroke-linejoin="round"/>
    <path d="M 112.9414291381836 148.2599334716797 C 67.73870849609375 117.47445678710938 183.68011474609375 113.13725280761719 136.42897033691406 100.70111846923828" stroke-width="2" fill="none" stroke="rgb(0, 0, 0)" stroke-opacity="1.0" stroke-linecap="round" stroke-linejoin="round"/>
    <path d="M 152.7779083251953 122.26093292236328 C 222.23876953125 145.4196014404297 77.62590026855469 159.10958862304688 85.79173278808594 113.62614440917969" stroke-width="2" fill="none" stroke="rgb(0, 0, 0)" stroke-opacity="1.0" stroke-linecap="round" stroke-linejoin="round"/>
    <path d="M 42.27337646484375 145.1665496826172 C 202.53248596191406 163.96788024902344 175.0409698486328 162.6710205078125 161.3224334716797 93.65107727050781" stroke-width="2" fill="none" stroke="rgb(0, 0, 0)" stroke-opacity="1.0" stroke-linecap="round" stroke-linejoin="round"/>
    <path d="M 189.23622131347656 62.360931396484375 C 179.33631896972656 62.45994186401367 160.37916564941406 93.87183380126953 128.98495483398438 83.98522186279297" stroke-width="2" fill="none" stroke="rgb(0, 0, 0)" stroke-opacity="1.0" stroke-linecap="round" stroke-linejoin="round"/>
    <path d="M 132.27276611328125 110.91665649414062 C 212.7322235107422 126.22102355957031 60.86021041870117 92.63434600830078 162.03721618652344 128.71775817871094" stroke-width="2" fill="none" stroke="rgb(0, 0, 0)" stroke-opacity="1.0" stroke-linecap="round" stroke-linejoin="round"/>
    <path d="M 42.26033020019531 107.83672332763672 C 15.891003608703613 161.64120483398438 100.44185638427734 147.90811157226562 132.9279022216797 156.495849609375" stroke-width="2" fill="none" stroke="rgb(0, 0, 0)" stroke-opacity="1.0" stroke-linecap="round" stroke-linejoin="round"/>
    <path d="M 145.6515350341797 118.8956298828125 C 48.737430572509766 97.16101837158203 152.20558166503906 104.69206237792969 102.19161224365234 108.70730590820312" stroke-width="2" fill="none" stroke="rgb(0, 0, 0)" stroke-opacity="1.0" stroke-linecap="round" stroke-linejoin="round"/>
    <path d="M 108.34288787841797 121.98619079589844 C 146.6471405029297 129.84547424316406 176.30088806152344 116.3113021850586 108.84962463378906 121.1292724609375" stroke-width="2" fill="none" stroke="rgb(0, 0, 0)" stroke-opacity="1.0" stroke-linecap="round" stroke-linejoin="round"/>
    <path d="M 176.71226501464844 76.77651977539062 C 163.47247314453125 123.34661865234375 119.44825744628906 57.931392669677734 168.15892028808594 107.55863189697266" stroke-width="2" fill="none" stroke="rgb(0, 0, 0)" stroke-opacity="1.0" stroke-linecap="round" stroke-linejoin="round"/>
    <path d="M 151.1713409423828 157.15371704101562 C 36.50958251953125 137.15707397460938 94.0411605834961 128.353515625 98.80487060546875 141.5863494873047" stroke-width="2" fill="none" stroke="rgb(0, 0, 0)" stroke-opacity="1.0" stroke-linecap="round" stroke-linejoin="round"/>
    <path d="M 88.2247085571289 96.4962387084961 C 40.08289337158203 88.10961151123047 56.61629867553711 107.11302185058594 41.217559814453125 110.32561492919922" stroke-width="2" fill="none" stroke="rgb(0, 0, 0)" stroke-opacity="1.0" stroke-linecap="round" stroke-linejoin="round"/>
    <path d="M 149.52218627929688 79.08552551269531 C 91.32209014892578 60.210933685302734 112.66604614257812 114.52754211425781 105.7322998046875 62.67793655395508" stroke-width="2" fill="none" stroke="rgb(0, 0, 0)" stroke-opacity="1.0" stroke-linecap="round" stroke-linejoin="round"/>
    <path d="M 188.50936889648438 60.202735900878906 C 166.91290283203125 171.73085021972656 107.23981475830078 114.46184539794922 151.91429138183594 134.91748046875" stroke-width="2" fill="none" stroke="rgb(0, 0, 0)" stroke-opacity="1.0" stroke-linecap="round" stroke-linejoin="round"/>
    <path d="M 127.16558837890625 76.86897277832031 C 80.20641326904297 12.38431453704834 98.48780822753906 125.04203033447266 87.44911193847656 96.24552154541016" stroke-width="2" fill="none" stroke="rgb(0, 0, 0)" stroke-opacity="1.0" stroke-linecap="round" stroke-linejoin="round"/>
    <path d="M 52.95149230957031 125.06352233886719 C 44.79461669921875 113.88265991210938 35.171531677246094 106.35639190673828 44.68181610107422 108.19741821289062" stroke-width="2" fill="none" stroke="rgb(0, 0, 0)" stroke-opacity="1.0" stroke-linecap="round" stroke-linejoin="round"/>
  </g>
</svg>
