<?xml version="1.0" ?>
<svg xmlns="http://www.w3.org/2000/svg" version="1.1" width="224" height="224">
  <defs/>
  <g>
    <path d="M 96.88311767578125 111.94194793701172 C 53.4574089050293 131.5115966796875 103.75115203857422 87.39830017089844 86.07240295410156 114.63590240478516" stroke-width="2" fill="none" stroke="rgb(0, 0, 0)" stroke-opacity="1.0" stroke-linecap="round" stroke-linejoin="round"/>
    <path d="M 105.60358428955078 134.45758056640625 C 35.4219856262207 109.42481231689453 99.6004867553711 149.4126434326172 102.00453186035156 109.46755981445312" stroke-width="2" fill="none" stroke="rgb(0, 0, 0)" stroke-opacity="1.0" stroke-linecap="round" stroke-linejoin="round"/>
    <path d="M 133.83058166503906 122.17637634277344 C 232.18820190429688 159.23471069335938 75.95317077636719 171.77322387695312 98.9485092163086 91.236572265625" stroke-width="2" fill="none" stroke="rgb(0, 0, 0)" stroke-opacity="1.0" stroke-linecap="round" stroke-linejoin="round"/>
    <path d="M 40.290714263916016 143.37069702148438 C 185.2980194091797 188.11647033691406 166.71084594726562 179.3056640625 157.3463897705078 100.80804443359375" stroke-width="2" fill="none" stroke="rgb(0, 0, 0)" stroke-opacity="1.0" stroke-linecap="round" stroke-linejoin="round"/>
    <path d="M 183.4555206298828 57.12653350830078 C 163.4989013671875 60.14353561401367 163.60739135742188 99.62183380126953 117.8211898803711 82.87012481689453" stroke-width="2" fill="none" stroke="rgb(0, 0, 0)" stroke-opacity="1.0" stroke-linecap="round" stroke-linejoin="round"/>
    <path d="M 116.07598114013672 120.07394409179688 C 135.20404052734375 131.70970153808594 116.75045776367188 126.04656982421875 139.400634765625 119.94440460205078" stroke-width="2" fill="none" stroke="rgb(0, 0, 0)" stroke-opacity="1.0" stroke-linecap="round" stroke-linejoin="round"/>
    <path d="M 56.70234680175781 98.35245513916016 C 16.558523178100586 163.36251831054688 91.9545669555664 151.78207397460938 120.40553283691406 157.6121826171875" stroke-width="2" fill="none" stroke="rgb(0, 0, 0)" stroke-opacity="1.0" stroke-linecap="round" stroke-linejoin="round"/>
    <path d="M 149.50546264648438 119.27308654785156 C 83.943115234375 117.87345123291016 239.93441772460938 135.83126831054688 85.0553207397461 129.1820831298828" stroke-width="2" fill="none" stroke="rgb(0, 0, 0)" stroke-opacity="1.0" stroke-linecap="round" stroke-linejoin="round"/>
    <path d="M 97.5541000366211 153.448486328125 C 25.094133377075195 126.91607666015625 74.09213256835938 146.59298706054688 54.582027435302734 134.0232391357422" stroke-width="2" fill="none" stroke="rgb(0, 0, 0)" stroke-opacity="1.0" stroke-linecap="round" stroke-linejoin="round"/>
    <path d="M 176.53060913085938 58.952457427978516 C 162.13905334472656 110.1194076538086 153.77914428710938 95.63286590576172 175.0911407470703 81.56967163085938" stroke-width="2" fill="none" stroke="rgb(0, 0, 0)" stroke-opacity="1.0" stroke-linecap="round" stroke-linejoin="round"/>
    <path d="M 170.0926971435547 141.99691772460938 C 81.88394927978516 140.3867950439453 110.2802505493164 141.95433044433594 154.49337768554688 155.96119689941406" stroke-width="2" fill="none" stroke="rgb(0, 0, 0)" stroke-opacity="1.0" stroke-linecap="round" stroke-linejoin="round"/>
    <path d="M 84.51891326904297 88.52550506591797 C 40.98554229736328 110.2636947631836 68.3037338256836 157.47787475585938 50.88114929199219 132.5379180908203" stroke-width="2" fill="none" stroke="rgb(0, 0, 0)" stroke-opacity="1.0" stroke-linecap="round" stroke-linejoin="round"/>
    <path d="M 163.97091674804688 107.09446716308594 C 106.73121643066406 58.52222442626953 113.47655487060547 148.27284240722656 100.451171875 69.04622650146484" stroke-width="2" fill="none" stroke="rgb(0, 0, 0)" stroke-opacity="1.0" stroke-linecap="round" stroke-linejoin="round"/>
    <path d="M 178.23876953125 58.89779281616211 C 177.6502227783203 136.8549346923828 118.7529296875 144.39271545410156 149.42965698242188 121.34385681152344" stroke-width="2" fill="none" stroke="rgb(0, 0, 0)" stroke-opacity="1.0" stroke-linecap="round" stroke-linejoin="round"/>
    <path d="M 118.06817626953125 88.38812255859375 C 83.32521057128906 19.745386123657227 80.23133850097656 142.70840454101562 94.82772827148438 104.58993530273438" stroke-width="2" fill="none" stroke="rgb(0, 0, 0)" stroke-opacity="1.0" stroke-linecap="round" stroke-linejoin="round"/>
    <path d="M 65.96749114990234 137.0643768310547 C 41.51784133911133 95.11293029785156 70.46943664550781 108.30630493164062 98.03289031982422 106.57836151123047" stroke-width="2" fill="none" stroke="rgb(0, 0, 0)" stroke-opacity="1.0" stroke-linecap="round" stroke-linejoin="round"/>
  </g>
</svg>
