<?xml version="1.0" ?>
<svg xmlns="http://www.w3.org/2000/svg" version="1.1" width="224" height="224">
  <defs/>
  <g>
    <path d="M 76.1034927368164 104.0604019165039 C 44.69639587402344 113.07866668701172 113.72891235351562 84.0042495727539 91.0823974609375 116.98713684082031" stroke-width="2" fill="none" stroke="rgb(0, 0, 0)" stroke-opacity="1.0" stroke-linecap="round" stroke-linejoin="round"/>
    <path d="M 139.6074981689453 135.83604431152344 C 79.6014404296875 97.60018157958984 133.3024444580078 136.47637939453125 105.10314178466797 120.9914779663086" stroke-width="2" fill="none" stroke="rgb(0, 0, 0)" stroke-opacity="1.0" stroke-linecap="round" stroke-linejoin="round"/>
    <path d="M 126.27198028564453 124.63308715820312 C 250.67630004882812 147.3090362548828 87.15423583984375 168.65609741210938 125.83980560302734 108.4891357421875" stroke-width="2" fill="none" stroke="rgb(0, 0, 0)" stroke-opacity="1.0" stroke-linecap="round" stroke-linejoin="round"/>
    <path d="M 47.65171813964844 152.14077758789062 C 198.9969482421875 181.9560089111328 175.58091735839844 172.5440673828125 160.0906219482422 101.58026885986328" stroke-width="2" fill="none" stroke="rgb(0, 0, 0)" stroke-opacity="1.0" stroke-linecap="round" stroke-linejoin="round"/>
    <path d="M 182.46270751953125 62.91679382324219 C 169.54885864257812 62.23678970336914 168.69204711914062 101.71382141113281 123.50315856933594 89.17587280273438" stroke-width="2" fill="none" stroke="rgb(0, 0, 0)" stroke-opacity="1.0" stroke-linecap="round" stroke-linejoin="round"/>
    <path d="M 121.40520477294922 132.0668182373047 C 161.0345916748047 120.3255844116211 70.90589904785156 145.8160858154297 134.36329650878906 144.22457885742188" stroke-width="2" fill="none" stroke="rgb(0, 0, 0)" stroke-opacity="1.0" stroke-linecap="round" stroke-linejoin="round"/>
    <path d="M 47.70762252807617 104.71402740478516 C 2.4280290603637695 159.3052978515625 83.05094909667969 158.9593048095703 124.31695556640625 161.7624053955078" stroke-width="2" fill="none" stroke="rgb(0, 0, 0)" stroke-opacity="1.0" stroke-linecap="round" stroke-linejoin="round"/>
    <path d="M 146.34896850585938 125.43404388427734 C 58.900856018066406 132.2126922607422 219.2050323486328 134.91842651367188 119.94061279296875 138.13156127929688" stroke-width="2" fill="none" stroke="rgb(0, 0, 0)" stroke-opacity="1.0" stroke-linecap="round" stroke-linejoin="round"/>
    <path d="M 93.50463104248047 140.1017303466797 C 62.69480514526367 139.2635040283203 105.13473510742188 152.7732391357422 67.8409194946289 129.38124084472656" stroke-width="2" fill="none" stroke="rgb(0, 0, 0)" stroke-opacity="1.0" stroke-linecap="round" stroke-linejoin="round"/>
    <path d="M 179.45384216308594 62.39632797241211 C 165.13121032714844 109.99492645263672 143.02468872070312 105.58136749267578 175.13436889648438 107.1358871459961" stroke-width="2" fill="none" stroke="rgb(0, 0, 0)" stroke-opacity="1.0" stroke-linecap="round" stroke-linejoin="round"/>
    <path d="M 169.30247497558594 150.71670532226562 C 51.944915771484375 133.93893432617188 86.46842193603516 138.29559326171875 103.21961212158203 144.71192932128906" stroke-width="2" fill="none" stroke="rgb(0, 0, 0)" stroke-opacity="1.0" stroke-linecap="round" stroke-linejoin="round"/>
    <path d="M 116.09935760498047 102.3480224609375 C 33.60750198364258 94.9911880493164 63.295799255371094 146.23202514648438 54.31099319458008 106.88189697265625" stroke-width="2" fill="none" stroke="rgb(0, 0, 0)" stroke-opacity="1.0" stroke-linecap="round" stroke-linejoin="round"/>
    <path d="M 163.61781311035156 115.2470474243164 C 120.80619049072266 71.7606201171875 145.33013916015625 142.0257568359375 111.75534057617188 69.02033233642578" stroke-width="2" fill="none" stroke="rgb(0, 0, 0)" stroke-opacity="1.0" stroke-linecap="round" stroke-linejoin="round"/>
    <path d="M 184.0410614013672 62.55696105957031 C 179.18092346191406 127.79912567138672 147.7735137939453 132.52748107910156 164.04165649414062 120.71013641357422" stroke-width="2" fill="none" stroke="rgb(0, 0, 0)" stroke-opacity="1.0" stroke-linecap="round" stroke-linejoin="round"/>
    <path d="M 124.5482177734375 93.62086486816406 C 94.10667419433594 24.39457130432129 118.18977355957031 112.28338623046875 105.76871490478516 99.33831024169922" stroke-width="2" fill="none" stroke="rgb(0, 0, 0)" stroke-opacity="1.0" stroke-linecap="round" stroke-linejoin="round"/>
    <path d="M 46.07457733154297 111.01288604736328 C 49.50288772583008 96.14512634277344 77.4564208984375 104.9283447265625 93.6309585571289 102.87913513183594" stroke-width="2" fill="none" stroke="rgb(0, 0, 0)" stroke-opacity="1.0" stroke-linecap="round" stroke-linejoin="round"/>
  </g>
</svg>
