<?xml version="1.0" ?>
<svg xmlns="http://www.w3.org/2000/svg" version="1.1" width="224" height="224">
  <defs/>
  <g>
    <path d="M 81.60603332519531 134.87521362304688 C 112.9404067993164 139.5369873046875 73.58717346191406 104.07953643798828 61.41991424560547 122.0472412109375" stroke-width="2" fill="none" stroke="rgb(0, 0, 0)" stroke-opacity="1.0" stroke-linecap="round" stroke-linejoin="round"/>
    <path d="M 109.53248596191406 149.1313934326172 C 59.114192962646484 119.47928619384766 183.81703186035156 110.8986587524414 126.4453353881836 113.85057067871094" stroke-width="2" fill="none" stroke="rgb(0, 0, 0)" stroke-opacity="1.0" stroke-linecap="round" stroke-linejoin="round"/>
    <path d="M 151.4400177001953 128.6641082763672 C 208.83847045898438 124.88591766357422 76.00675201416016 144.4084014892578 74.81703186035156 107.59944152832031" stroke-width="2" fill="none" stroke="rgb(0, 0, 0)" stroke-opacity="1.0" stroke-linecap="round" stroke-linejoin="round"/>
    <path d="M 50.024925231933594 143.40089416503906 C 212.27366638183594 161.9488983154297 170.50428771972656 160.50296020507812 164.97802734375 108.78277587890625" stroke-width="2" fill="none" stroke="rgb(0, 0, 0)" stroke-opacity="1.0" stroke-linecap="round" stroke-linejoin="round"/>
    <path d="M 184.37118530273438 57.46436309814453 C 173.84393310546875 58.50956344604492 158.3056182861328 95.24119567871094 136.44334411621094 85.82833862304688" stroke-width="2" fill="none" stroke="rgb(0, 0, 0)" stroke-opacity="1.0" stroke-linecap="round" stroke-linejoin="round"/>
    <path d="M 122.80890655517578 130.5089874267578 C 215.17691040039062 131.54217529296875 37.73389434814453 111.13146209716797 148.27017211914062 123.43682861328125" stroke-width="2" fill="none" stroke="rgb(0, 0, 0)" stroke-opacity="1.0" stroke-linecap="round" stroke-linejoin="round"/>
    <path d="M 47.52863693237305 101.40121459960938 C 16.777652740478516 166.62713623046875 102.72758483886719 149.82382202148438 131.65283203125 149.9989013671875" stroke-width="2" fill="none" stroke="rgb(0, 0, 0)" stroke-opacity="1.0" stroke-linecap="round" stroke-linejoin="round"/>
    <path d="M 142.48077392578125 115.98056030273438 C 36.990020751953125 111.5541763305664 158.8020477294922 100.42120361328125 106.2020492553711 111.96952056884766" stroke-width="2" fill="none" stroke="rgb(0, 0, 0)" stroke-opacity="1.0" stroke-linecap="round" stroke-linejoin="round"/>
    <path d="M 107.49224853515625 110.81678009033203 C 136.30335998535156 119.68553924560547 156.9781494140625 123.91375732421875 99.50167083740234 112.79302978515625" stroke-width="2" fill="none" stroke="rgb(0, 0, 0)" stroke-opacity="1.0" stroke-linecap="round" stroke-linejoin="round"/>
    <path d="M 175.501953125 75.84185791015625 C 165.54879760742188 129.96435546875 135.0159912109375 52.54561996459961 165.35113525390625 107.54451751708984" stroke-width="2" fill="none" stroke="rgb(0, 0, 0)" stroke-opacity="1.0" stroke-linecap="round" stroke-linejoin="round"/>
    <path d="M 156.69068908691406 148.35397338867188 C 26.102127075195312 143.51272583007812 80.06031036376953 148.26541137695312 86.27183532714844 153.25485229492188" stroke-width="2" fill="none" stroke="rgb(0, 0, 0)" stroke-opacity="1.0" stroke-linecap="round" stroke-linejoin="round"/>
    <path d="M 90.23255920410156 90.2657699584961 C 34.18468475341797 92.77169036865234 50.26163101196289 110.2125244140625 37.24049377441406 117.93840026855469" stroke-width="2" fill="none" stroke="rgb(0, 0, 0)" stroke-opacity="1.0" stroke-linecap="round" stroke-linejoin="round"/>
    <path d="M 152.2276153564453 80.91883850097656 C 92.90342712402344 65.36680603027344 122.71512603759766 115.54608154296875 102.78665161132812 59.68959045410156" stroke-width="2" fill="none" stroke="rgb(0, 0, 0)" stroke-opacity="1.0" stroke-linecap="round" stroke-linejoin="round"/>
    <path d="M 187.02783203125 59.64646911621094 C 170.08238220214844 175.03736877441406 90.63296508789062 117.47789764404297 140.1472930908203 142.42861938476562" stroke-width="2" fill="none" stroke="rgb(0, 0, 0)" stroke-opacity="1.0" stroke-linecap="round" stroke-linejoin="round"/>
    <path d="M 117.56769561767578 79.14588928222656 C 75.21536254882812 16.51310157775879 104.34782409667969 120.1011734008789 98.75968170166016 92.36820983886719" stroke-width="2" fill="none" stroke="rgb(0, 0, 0)" stroke-opacity="1.0" stroke-linecap="round" stroke-linejoin="round"/>
    <path d="M 50.204593658447266 126.22663116455078 C 26.312519073486328 132.4028778076172 37.865516662597656 119.14013671875 47.60818862915039 110.17001342773438" stroke-width="2" fill="none" stroke="rgb(0, 0, 0)" stroke-opacity="1.0" stroke-linecap="round" stroke-linejoin="round"/>
  </g>
</svg>
