<?xml version="1.0" ?>
<svg xmlns="http://www.w3.org/2000/svg" version="1.1" width="224" height="224">
  <defs/>
  <g>
    <path d="M 72.4913330078125 139.33319091796875 C 171.14710998535156 175.97605895996094 37.165401458740234 157.68739318847656 47.991050720214844 141.35552978515625" stroke-width="2" fill="none" stroke="rgb(0, 0, 0)" stroke-opacity="1.0" stroke-linecap="round" stroke-linejoin="round"/>
    <path d="M 165.2636260986328 161.04360961914062 C 32.345760345458984 150.77249145507812 191.74407958984375 167.17877197265625 173.97157287597656 153.4049072265625" stroke-width="2" fill="none" stroke="rgb(0, 0, 0)" stroke-opacity="1.0" stroke-linecap="round" stroke-linejoin="round"/>
    <path d="M 117.96265411376953 128.81871032714844 C 161.0771942138672 108.14474487304688 48.43663024902344 121.96798706054688 163.43272399902344 121.24860382080078" stroke-width="2" fill="none" stroke="rgb(0, 0, 0)" stroke-opacity="1.0" stroke-linecap="round" stroke-linejoin="round"/>
    <path d="M 45.380950927734375 147.42295837402344 C 242.76934814453125 193.91184997558594 150.41152954101562 114.25682067871094 176.87158203125 113.97157287597656" stroke-width="2" fill="none" stroke="rgb(0, 0, 0)" stroke-opacity="1.0" stroke-linecap="round" stroke-linejoin="round"/>
    <path d="M 183.858642578125 59.35818862915039 C 167.4781494140625 53.83909225463867 147.8730926513672 124.00333404541016 110.74333953857422 70.34394073486328" stroke-width="2" fill="none" stroke="rgb(0, 0, 0)" stroke-opacity="1.0" stroke-linecap="round" stroke-linejoin="round"/>
    <path d="M 145.6778564453125 129.52743530273438 C 190.0876922607422 138.7842559814453 127.3128662109375 119.62725067138672 150.64208984375 134.19534301757812" stroke-width="2" fill="none" stroke="rgb(0, 0, 0)" stroke-opacity="1.0" stroke-linecap="round" stroke-linejoin="round"/>
    <path d="M 57.38608932495117 114.39602661132812 C -14.571964263916016 164.60360717773438 192.50701904296875 156.95834350585938 176.13026428222656 137.1998748779297" stroke-width="2" fill="none" stroke="rgb(0, 0, 0)" stroke-opacity="1.0" stroke-linecap="round" stroke-linejoin="round"/>
    <path d="M 172.4645233154297 108.20377349853516 C 169.3679656982422 65.35630798339844 156.29685974121094 132.76441955566406 187.3057098388672 56.37858963012695" stroke-width="2" fill="none" stroke="rgb(0, 0, 0)" stroke-opacity="1.0" stroke-linecap="round" stroke-linejoin="round"/>
    <path d="M 146.9281768798828 131.8984832763672 C 164.56788635253906 122.50601196289062 109.69916534423828 115.06885528564453 149.72621154785156 137.65663146972656" stroke-width="2" fill="none" stroke="rgb(0, 0, 0)" stroke-opacity="1.0" stroke-linecap="round" stroke-linejoin="round"/>
    <path d="M 183.2787628173828 80.73921966552734 C 165.3739013671875 137.77186584472656 164.73939514160156 93.87242889404297 132.0747528076172 104.92176055908203" stroke-width="2" fill="none" stroke="rgb(0, 0, 0)" stroke-opacity="1.0" stroke-linecap="round" stroke-linejoin="round"/>
    <path d="M 167.9427490234375 134.55984497070312 C 147.1646270751953 141.02792358398438 192.43650817871094 120.84996795654297 142.0407257080078 116.15785217285156" stroke-width="2" fill="none" stroke="rgb(0, 0, 0)" stroke-opacity="1.0" stroke-linecap="round" stroke-linejoin="round"/>
    <path d="M 124.49571228027344 92.95939636230469 C 86.41253662109375 15.270084381103516 95.6550521850586 126.46357727050781 110.00634765625 105.84807586669922" stroke-width="2" fill="none" stroke="rgb(0, 0, 0)" stroke-opacity="1.0" stroke-linecap="round" stroke-linejoin="round"/>
    <path d="M 112.1611099243164 135.64590454101562 C 186.9744873046875 141.34390258789062 208.04345703125 155.6781768798828 111.90818786621094 143.1969757080078" stroke-width="2" fill="none" stroke="rgb(0, 0, 0)" stroke-opacity="1.0" stroke-linecap="round" stroke-linejoin="round"/>
    <path d="M 195.90830993652344 64.66600799560547 C 192.5658721923828 179.58004760742188 121.7612533569336 120.68946838378906 153.81260681152344 133.16542053222656" stroke-width="2" fill="none" stroke="rgb(0, 0, 0)" stroke-opacity="1.0" stroke-linecap="round" stroke-linejoin="round"/>
    <path d="M 99.19160461425781 135.8208770751953 C 88.96772766113281 82.06201171875 97.39710998535156 145.58355712890625 104.70157623291016 108.67072296142578" stroke-width="2" fill="none" stroke="rgb(0, 0, 0)" stroke-opacity="1.0" stroke-linecap="round" stroke-linejoin="round"/>
    <path d="M 43.450469970703125 117.0318374633789 C 54.13175964355469 101.36981964111328 40.29279708862305 96.7297134399414 94.78084564208984 95.50447082519531" stroke-width="2" fill="none" stroke="rgb(0, 0, 0)" stroke-opacity="1.0" stroke-linecap="round" stroke-linejoin="round"/>
  </g>
</svg>
