<?xml version="1.0" ?>
<svg xmlns="http://www.w3.org/2000/svg" version="1.1" width="224" height="224">
  <defs/>
  <g>
    <path d="M 76.39198303222656 146.00904846191406 C 163.59774780273438 152.60784912109375 66.70467376708984 156.30441284179688 75.77534484863281 129.1001434326172" stroke-width="2" fill="none" stroke="rgb(0, 0, 0)" stroke-opacity="1.0" stroke-linecap="round" stroke-linejoin="round"/>
    <path d="M 159.77757263183594 129.90475463867188 C 138.8737030029297 109.04781341552734 246.54150390625 138.6821746826172 79.74620056152344 136.5132598876953" stroke-width="2" fill="none" stroke="rgb(0, 0, 0)" stroke-opacity="1.0" stroke-linecap="round" stroke-linejoin="round"/>
    <path d="M 122.88959503173828 127.38296508789062 C 192.76356506347656 122.64328002929688 55.8914680480957 107.80535125732422 163.55516052246094 143.9099578857422" stroke-width="2" fill="none" stroke="rgb(0, 0, 0)" stroke-opacity="1.0" stroke-linecap="round" stroke-linejoin="round"/>
    <path d="M 60.35029220581055 142.4324951171875 C 218.7216339111328 185.7359161376953 156.40272521972656 97.98469543457031 174.13865661621094 134.5931854248047" stroke-width="2" fill="none" stroke="rgb(0, 0, 0)" stroke-opacity="1.0" stroke-linecap="round" stroke-linejoin="round"/>
    <path d="M 171.24398803710938 76.39068603515625 C 142.76698303222656 104.23914337158203 177.94520568847656 88.83489227294922 109.44373321533203 101.29767608642578" stroke-width="2" fill="none" stroke="rgb(0, 0, 0)" stroke-opacity="1.0" stroke-linecap="round" stroke-linejoin="round"/>
    <path d="M 127.36666870117188 150.76788330078125 C 171.71334838867188 147.79188537597656 48.97871017456055 137.58770751953125 164.9137725830078 145.44070434570312" stroke-width="2" fill="none" stroke="rgb(0, 0, 0)" stroke-opacity="1.0" stroke-linecap="round" stroke-linejoin="round"/>
    <path d="M 42.91170120239258 111.03997039794922 C -5.712409019470215 179.8431396484375 175.7655487060547 142.84121704101562 171.7644500732422 143.15489196777344" stroke-width="2" fill="none" stroke="rgb(0, 0, 0)" stroke-opacity="1.0" stroke-linecap="round" stroke-linejoin="round"/>
    <path d="M 165.7504119873047 151.3545379638672 C 217.83499145507812 -25.44563102722168 152.09205627441406 116.01571655273438 155.41790771484375 99.71916198730469" stroke-width="2" fill="none" stroke="rgb(0, 0, 0)" stroke-opacity="1.0" stroke-linecap="round" stroke-linejoin="round"/>
    <path d="M 101.97642517089844 100.77835845947266 C 129.0526580810547 155.5626983642578 66.06600189208984 120.60973358154297 143.95339965820312 126.2935791015625" stroke-width="2" fill="none" stroke="rgb(0, 0, 0)" stroke-opacity="1.0" stroke-linecap="round" stroke-linejoin="round"/>
    <path d="M 179.71282958984375 67.1039047241211 C 166.95423889160156 160.23663330078125 101.48394775390625 67.2890396118164 103.93232727050781 69.67262268066406" stroke-width="2" fill="none" stroke="rgb(0, 0, 0)" stroke-opacity="1.0" stroke-linecap="round" stroke-linejoin="round"/>
    <path d="M 162.64466857910156 106.51461029052734 C 176.11903381347656 125.86808013916016 190.585205078125 147.27293395996094 145.61441040039062 139.16000366210938" stroke-width="2" fill="none" stroke="rgb(0, 0, 0)" stroke-opacity="1.0" stroke-linecap="round" stroke-linejoin="round"/>
    <path d="M 95.62809753417969 105.31982421875 C 101.28269958496094 -15.677508354187012 105.39665222167969 132.3620147705078 118.7842025756836 95.33551025390625" stroke-width="2" fill="none" stroke="rgb(0, 0, 0)" stroke-opacity="1.0" stroke-linecap="round" stroke-linejoin="round"/>
    <path d="M 66.64334106445312 155.12957763671875 C 116.10235595703125 166.4130401611328 119.79541778564453 141.8035430908203 86.36127471923828 136.9529266357422" stroke-width="2" fill="none" stroke="rgb(0, 0, 0)" stroke-opacity="1.0" stroke-linecap="round" stroke-linejoin="round"/>
    <path d="M 183.52182006835938 93.8016128540039 C 153.77088928222656 151.481201171875 176.73544311523438 66.57703399658203 170.90267944335938 99.99024200439453" stroke-width="2" fill="none" stroke="rgb(0, 0, 0)" stroke-opacity="1.0" stroke-linecap="round" stroke-linejoin="round"/>
    <path d="M 123.59574127197266 157.95562744140625 C 232.95846557617188 160.26394653320312 114.96692657470703 135.78675842285156 110.57403564453125 149.61907958984375" stroke-width="2" fill="none" stroke="rgb(0, 0, 0)" stroke-opacity="1.0" stroke-linecap="round" stroke-linejoin="round"/>
    <path d="M 42.186885833740234 112.63294982910156 C 58.78872299194336 112.56574249267578 34.82556915283203 88.43643188476562 95.32879638671875 95.15972900390625" stroke-width="2" fill="none" stroke="rgb(0, 0, 0)" stroke-opacity="1.0" stroke-linecap="round" stroke-linejoin="round"/>
  </g>
</svg>
