<?xml version="1.0" ?>
<svg xmlns="http://www.w3.org/2000/svg" version="1.1" width="224" height="224">
  <defs/>
  <g>
    <path d="M 74.06548309326172 146.82200622558594 C 161.20864868164062 159.41802978515625 57.11668014526367 149.69500732421875 66.66999816894531 121.19833374023438" stroke-width="2" fill="none" stroke="rgb(0, 0, 0)" stroke-opacity="1.0" stroke-linecap="round" stroke-linejoin="round"/>
    <path d="M 118.48371124267578 161.4434814453125 C 36.19683074951172 138.57334899902344 198.0897216796875 174.9916229248047 172.5973663330078 151.92189025878906" stroke-width="2" fill="none" stroke="rgb(0, 0, 0)" stroke-opacity="1.0" stroke-linecap="round" stroke-linejoin="round"/>
    <path d="M 77.36038208007812 127.48748016357422 C 96.59042358398438 126.0918197631836 26.291555404663086 118.77275085449219 153.32699584960938 128.03839111328125" stroke-width="2" fill="none" stroke="rgb(0, 0, 0)" stroke-opacity="1.0" stroke-linecap="round" stroke-linejoin="round"/>
    <path d="M 47.64529800415039 161.00869750976562 C 236.597412109375 175.88087463378906 149.52638244628906 113.63337707519531 168.6722869873047 127.71517181396484" stroke-width="2" fill="none" stroke="rgb(0, 0, 0)" stroke-opacity="1.0" stroke-linecap="round" stroke-linejoin="round"/>
    <path d="M 191.6321258544922 57.97846603393555 C 167.34646606445312 49.78023910522461 150.33099365234375 114.62554931640625 114.51466369628906 72.89376068115234" stroke-width="2" fill="none" stroke="rgb(0, 0, 0)" stroke-opacity="1.0" stroke-linecap="round" stroke-linejoin="round"/>
    <path d="M 144.54449462890625 134.6151580810547 C 199.576416015625 133.58544921875 62.03736877441406 130.11712646484375 131.92613220214844 141.7233428955078" stroke-width="2" fill="none" stroke="rgb(0, 0, 0)" stroke-opacity="1.0" stroke-linecap="round" stroke-linejoin="round"/>
    <path d="M 46.22538757324219 114.77023315429688 C 3.374053716659546 185.58380126953125 220.69577026367188 153.97422790527344 177.13697814941406 125.32318878173828" stroke-width="2" fill="none" stroke="rgb(0, 0, 0)" stroke-opacity="1.0" stroke-linecap="round" stroke-linejoin="round"/>
    <path d="M 168.59246826171875 120.22154235839844 C 153.18191528320312 57.765071868896484 156.50991821289062 129.45152282714844 183.00869750976562 57.44078063964844" stroke-width="2" fill="none" stroke="rgb(0, 0, 0)" stroke-opacity="1.0" stroke-linecap="round" stroke-linejoin="round"/>
    <path d="M 130.72340393066406 125.7295913696289 C 190.63729858398438 113.82135772705078 69.92730712890625 119.03168487548828 131.97511291503906 132.03082275390625" stroke-width="2" fill="none" stroke="rgb(0, 0, 0)" stroke-opacity="1.0" stroke-linecap="round" stroke-linejoin="round"/>
    <path d="M 192.0996856689453 60.14630126953125 C 176.2632293701172 159.9000701904297 154.28858947753906 77.49507904052734 130.2412872314453 95.75867462158203" stroke-width="2" fill="none" stroke="rgb(0, 0, 0)" stroke-opacity="1.0" stroke-linecap="round" stroke-linejoin="round"/>
    <path d="M 176.57530212402344 147.57708740234375 C 173.14503479003906 153.8365936279297 185.93185424804688 146.61814880371094 134.9254150390625 153.44232177734375" stroke-width="2" fill="none" stroke="rgb(0, 0, 0)" stroke-opacity="1.0" stroke-linecap="round" stroke-linejoin="round"/>
    <path d="M 119.28546905517578 98.53851318359375 C 87.19392395019531 17.733726501464844 105.2050552368164 120.11727142333984 108.6656494140625 96.54293823242188" stroke-width="2" fill="none" stroke="rgb(0, 0, 0)" stroke-opacity="1.0" stroke-linecap="round" stroke-linejoin="round"/>
    <path d="M 106.11473846435547 146.42681884765625 C 188.5157928466797 154.3374481201172 214.75741577148438 133.1912384033203 121.47134399414062 116.05489349365234" stroke-width="2" fill="none" stroke="rgb(0, 0, 0)" stroke-opacity="1.0" stroke-linecap="round" stroke-linejoin="round"/>
    <path d="M 182.90066528320312 71.23126983642578 C 181.4585723876953 176.1204071044922 89.5452651977539 94.88945007324219 157.8453826904297 122.36634826660156" stroke-width="2" fill="none" stroke="rgb(0, 0, 0)" stroke-opacity="1.0" stroke-linecap="round" stroke-linejoin="round"/>
    <path d="M 101.64104461669922 129.18507385253906 C 102.35751342773438 89.29576110839844 92.56097412109375 141.26173400878906 110.65027618408203 95.762451171875" stroke-width="2" fill="none" stroke="rgb(0, 0, 0)" stroke-opacity="1.0" stroke-linecap="round" stroke-linejoin="round"/>
    <path d="M 50.28699493408203 129.07449340820312 C 48.143760681152344 106.39352416992188 35.23408889770508 80.89594268798828 102.96269989013672 90.68165588378906" stroke-width="2" fill="none" stroke="rgb(0, 0, 0)" stroke-opacity="1.0" stroke-linecap="round" stroke-linejoin="round"/>
  </g>
</svg>
