<?xml version="1.0" ?>
<svg xmlns="http://www.w3.org/2000/svg" version="1.1" width="224" height="224">
  <defs/>
  <g>
    <path d="M 56.901092529296875 149.81414794921875 C 158.2714080810547 163.72735595703125 24.183008193969727 129.57603454589844 48.70607376098633 132.58982849121094" stroke-width="2" fill="none" stroke="rgb(0, 0, 0)" stroke-opacity="1.0" stroke-linecap="round" stroke-linejoin="round"/>
    <path d="M 131.58358764648438 108.92060852050781 C 74.37995147705078 123.90606689453125 200.96495056152344 115.10550689697266 120.42725372314453 113.79493713378906" stroke-width="2" fill="none" stroke="rgb(0, 0, 0)" stroke-opacity="1.0" stroke-linecap="round" stroke-linejoin="round"/>
    <path d="M 146.80763244628906 140.18336486816406 C 212.51145935058594 114.7937240600586 109.27393341064453 94.35542297363281 129.7316436767578 104.189453125" stroke-width="2" fill="none" stroke="rgb(0, 0, 0)" stroke-opacity="1.0" stroke-linecap="round" stroke-linejoin="round"/>
    <path d="M 50.873348236083984 147.85012817382812 C 246.6919403076172 184.15586853027344 143.6759796142578 127.61461639404297 179.61074829101562 116.20857238769531" stroke-width="2" fill="none" stroke="rgb(0, 0, 0)" stroke-opacity="1.0" stroke-linecap="round" stroke-linejoin="round"/>
    <path d="M 186.14303588867188 63.62466049194336 C 165.88128662109375 57.48359680175781 143.09107971191406 132.77593994140625 107.37075805664062 65.85885620117188" stroke-width="2" fill="none" stroke="rgb(0, 0, 0)" stroke-opacity="1.0" stroke-linecap="round" stroke-linejoin="round"/>
    <path d="M 123.19144439697266 126.90438842773438 C 217.9769287109375 155.9132537841797 36.18887710571289 124.71228790283203 150.7529296875 136.39266967773438" stroke-width="2" fill="none" stroke="rgb(0, 0, 0)" stroke-opacity="1.0" stroke-linecap="round" stroke-linejoin="round"/>
    <path d="M 57.57645034790039 118.40251159667969 C 11.711282730102539 167.407470703125 194.5491943359375 175.1804656982422 119.69564056396484 150.92518615722656" stroke-width="2" fill="none" stroke="rgb(0, 0, 0)" stroke-opacity="1.0" stroke-linecap="round" stroke-linejoin="round"/>
    <path d="M 160.58944702148438 121.98307037353516 C 130.61463928222656 112.00749206542969 184.2755889892578 143.52215576171875 155.6473846435547 94.70133209228516" stroke-width="2" fill="none" stroke="rgb(0, 0, 0)" stroke-opacity="1.0" stroke-linecap="round" stroke-linejoin="round"/>
    <path d="M 115.75399017333984 115.02136993408203 C 171.20907592773438 128.5047149658203 95.63031005859375 117.95221710205078 143.0172576904297 114.83588409423828" stroke-width="2" fill="none" stroke="rgb(0, 0, 0)" stroke-opacity="1.0" stroke-linecap="round" stroke-linejoin="round"/>
    <path d="M 185.12208557128906 64.04792022705078 C 169.54872131347656 125.27078247070312 163.75660705566406 99.22100830078125 153.33224487304688 99.77098083496094" stroke-width="2" fill="none" stroke="rgb(0, 0, 0)" stroke-opacity="1.0" stroke-linecap="round" stroke-linejoin="round"/>
    <path d="M 148.05429077148438 127.62291717529297 C 95.77259063720703 108.78364562988281 128.3892364501953 136.90411376953125 151.57899475097656 129.89254760742188" stroke-width="2" fill="none" stroke="rgb(0, 0, 0)" stroke-opacity="1.0" stroke-linecap="round" stroke-linejoin="round"/>
    <path d="M 99.96277618408203 66.56388092041016 C 92.35099792480469 87.75250244140625 108.6562271118164 110.57199096679688 103.68570709228516 135.95631408691406" stroke-width="2" fill="none" stroke="rgb(0, 0, 0)" stroke-opacity="1.0" stroke-linecap="round" stroke-linejoin="round"/>
    <path d="M 90.55786895751953 131.34913635253906 C 106.56558990478516 110.02580261230469 89.59587097167969 150.92056274414062 108.93940734863281 99.57743072509766" stroke-width="2" fill="none" stroke="rgb(0, 0, 0)" stroke-opacity="1.0" stroke-linecap="round" stroke-linejoin="round"/>
    <path d="M 186.23121643066406 65.10652923583984 C 190.70452880859375 150.82232666015625 115.0947036743164 146.58868408203125 164.81675720214844 153.09068298339844" stroke-width="2" fill="none" stroke="rgb(0, 0, 0)" stroke-opacity="1.0" stroke-linecap="round" stroke-linejoin="round"/>
    <path d="M 101.28797912597656 117.35941314697266 C 78.59185028076172 77.43833923339844 127.20982360839844 128.10797119140625 101.8140869140625 97.64360046386719" stroke-width="2" fill="none" stroke="rgb(0, 0, 0)" stroke-opacity="1.0" stroke-linecap="round" stroke-linejoin="round"/>
    <path d="M 62.095645904541016 115.18766021728516 C 54.87346649169922 127.0927505493164 45.60600662231445 80.70985412597656 93.14500427246094 87.97418212890625" stroke-width="2" fill="none" stroke="rgb(0, 0, 0)" stroke-opacity="1.0" stroke-linecap="round" stroke-linejoin="round"/>
  </g>
</svg>
