<?xml version="1.0" ?>
<svg xmlns="http://www.w3.org/2000/svg" version="1.1" width="224" height="224">
  <defs/>
  <g>
    <path d="M 97.65798950195312 127.1043472290039 C 249.40382385253906 163.23544311523438 104.90243530273438 131.9471893310547 115.89791107177734 140.9121856689453" stroke-width="2" fill="none" stroke="rgb(0, 0, 0)" stroke-opacity="1.0" stroke-linecap="round" stroke-linejoin="round"/>
    <path d="M 158.4871826171875 137.15185546875 C 49.826473236083984 131.2283172607422 222.13729858398438 133.1731414794922 132.18101501464844 127.23978424072266" stroke-width="2" fill="none" stroke="rgb(0, 0, 0)" stroke-opacity="1.0" stroke-linecap="round" stroke-linejoin="round"/>
    <path d="M 123.27545928955078 78.66401672363281 C 156.5049591064453 141.37728881835938 120.00794219970703 82.1641845703125 164.31512451171875 118.09419250488281" stroke-width="2" fill="none" stroke="rgb(0, 0, 0)" stroke-opacity="1.0" stroke-linecap="round" stroke-linejoin="round"/>
    <path d="M 61.150901794433594 145.28675842285156 C 223.74325561523438 207.46914672851562 173.8137664794922 68.97765350341797 131.61630249023438 93.90901947021484" stroke-width="2" fill="none" stroke="rgb(0, 0, 0)" stroke-opacity="1.0" stroke-linecap="round" stroke-linejoin="round"/>
    <path d="M 153.19851684570312 129.71315002441406 C 113.52300262451172 122.10557556152344 204.7876434326172 105.14806365966797 148.01846313476562 116.65826416015625" stroke-width="2" fill="none" stroke="rgb(0, 0, 0)" stroke-opacity="1.0" stroke-linecap="round" stroke-linejoin="round"/>
    <path d="M 126.17359924316406 131.7860107421875 C 186.43507385253906 121.44782257080078 77.18049621582031 118.29390716552734 169.86709594726562 142.12696838378906" stroke-width="2" fill="none" stroke="rgb(0, 0, 0)" stroke-opacity="1.0" stroke-linecap="round" stroke-linejoin="round"/>
    <path d="M 48.00078201293945 108.4569091796875 C 4.312675476074219 167.658935546875 172.27000427246094 169.2415771484375 105.04637908935547 145.87962341308594" stroke-width="2" fill="none" stroke="rgb(0, 0, 0)" stroke-opacity="1.0" stroke-linecap="round" stroke-linejoin="round"/>
    <path d="M 174.6871795654297 86.79829406738281 C 197.1263885498047 1.0667650699615479 141.5035858154297 123.14204406738281 156.75025939941406 88.29317474365234" stroke-width="2" fill="none" stroke="rgb(0, 0, 0)" stroke-opacity="1.0" stroke-linecap="round" stroke-linejoin="round"/>
    <path d="M 148.02252197265625 132.07188415527344 C 129.11181640625 145.18515014648438 113.25346374511719 107.25585174560547 149.30462646484375 141.27381896972656" stroke-width="2" fill="none" stroke="rgb(0, 0, 0)" stroke-opacity="1.0" stroke-linecap="round" stroke-linejoin="round"/>
    <path d="M 163.26429748535156 70.15440368652344 C 120.29606628417969 107.43073272705078 115.67584991455078 59.76025390625 109.25206756591797 61.40381622314453" stroke-width="2" fill="none" stroke="rgb(0, 0, 0)" stroke-opacity="1.0" stroke-linecap="round" stroke-linejoin="round"/>
    <path d="M 110.22171783447266 139.898193359375 C 138.1138916015625 149.7999267578125 166.13768005371094 146.74095153808594 162.3460693359375 127.5879135131836" stroke-width="2" fill="none" stroke="rgb(0, 0, 0)" stroke-opacity="1.0" stroke-linecap="round" stroke-linejoin="round"/>
    <path d="M 94.13866424560547 89.00961303710938 C 101.83135986328125 -6.650838851928711 125.63798522949219 120.46015930175781 101.36817932128906 114.27763366699219" stroke-width="2" fill="none" stroke="rgb(0, 0, 0)" stroke-opacity="1.0" stroke-linecap="round" stroke-linejoin="round"/>
    <path d="M 52.31002426147461 155.24713134765625 C 182.6454620361328 187.44163513183594 175.47726440429688 162.7871856689453 100.68049621582031 142.2333221435547" stroke-width="2" fill="none" stroke="rgb(0, 0, 0)" stroke-opacity="1.0" stroke-linecap="round" stroke-linejoin="round"/>
    <path d="M 162.47344970703125 157.40525817871094 C 161.8544158935547 103.85614013671875 191.9148712158203 99.17611694335938 180.86219787597656 51.708587646484375" stroke-width="2" fill="none" stroke="rgb(0, 0, 0)" stroke-opacity="1.0" stroke-linecap="round" stroke-linejoin="round"/>
    <path d="M 107.5947265625 132.34657287597656 C 198.5255889892578 158.6453094482422 172.13221740722656 146.5875701904297 137.88259887695312 139.44459533691406" stroke-width="2" fill="none" stroke="rgb(0, 0, 0)" stroke-opacity="1.0" stroke-linecap="round" stroke-linejoin="round"/>
    <path d="M 50.095603942871094 114.20381927490234 C 53.65217971801758 123.05754852294922 38.7513542175293 76.26594543457031 97.99221801757812 90.18408966064453" stroke-width="2" fill="none" stroke="rgb(0, 0, 0)" stroke-opacity="1.0" stroke-linecap="round" stroke-linejoin="round"/>
  </g>
</svg>
