<?xml version="1.0" ?>
<svg xmlns="http://www.w3.org/2000/svg" version="1.1" width="224" height="224">
  <defs/>
  <g>
    <path d="M 47.084659576416016 137.8858184814453 C 169.5307159423828 155.05694580078125 68.23551940917969 166.3532257080078 61.96238708496094 136.3686065673828" stroke-width="2" fill="none" stroke="rgb(0, 0, 0)" stroke-opacity="1.0" stroke-linecap="round" stroke-linejoin="round"/>
    <path d="M 121.450439453125 141.45388793945312 C 59.61857604980469 118.52845764160156 172.08489990234375 143.93653869628906 154.10569763183594 128.01113891601562" stroke-width="2" fill="none" stroke="rgb(0, 0, 0)" stroke-opacity="1.0" stroke-linecap="round" stroke-linejoin="round"/>
    <path d="M 102.13558959960938 121.08460998535156 C 150.04270935058594 121.95933532714844 28.06340789794922 126.8944320678711 146.039306640625 128.83135986328125" stroke-width="2" fill="none" stroke="rgb(0, 0, 0)" stroke-opacity="1.0" stroke-linecap="round" stroke-linejoin="round"/>
    <path d="M 69.20294189453125 156.54100036621094 C 225.6226348876953 166.79727172851562 132.48854064941406 132.17514038085938 152.77430725097656 146.86770629882812" stroke-width="2" fill="none" stroke="rgb(0, 0, 0)" stroke-opacity="1.0" stroke-linecap="round" stroke-linejoin="round"/>
    <path d="M 181.94305419921875 60.502113342285156 C 172.46707153320312 45.7053337097168 136.71730041503906 119.2544174194336 104.4721450805664 74.31729125976562" stroke-width="2" fill="none" stroke="rgb(0, 0, 0)" stroke-opacity="1.0" stroke-linecap="round" stroke-linejoin="round"/>
    <path d="M 131.91583251953125 137.7889862060547 C 197.30770874023438 136.55596923828125 61.3388671875 120.61151885986328 113.6135025024414 124.28396606445312" stroke-width="2" fill="none" stroke="rgb(0, 0, 0)" stroke-opacity="1.0" stroke-linecap="round" stroke-linejoin="round"/>
    <path d="M 48.89951705932617 122.40287780761719 C -0.13805386424064636 175.3202667236328 225.95440673828125 166.8753204345703 169.075439453125 126.45093536376953" stroke-width="2" fill="none" stroke="rgb(0, 0, 0)" stroke-opacity="1.0" stroke-linecap="round" stroke-linejoin="round"/>
    <path d="M 160.15542602539062 129.86895751953125 C 152.44677734375 54.405029296875 153.85194396972656 127.83374786376953 174.10540771484375 73.34416961669922" stroke-width="2" fill="none" stroke="rgb(0, 0, 0)" stroke-opacity="1.0" stroke-linecap="round" stroke-linejoin="round"/>
    <path d="M 130.06332397460938 106.63522338867188 C 195.2168731689453 117.5645751953125 99.39820861816406 137.40118408203125 144.23831176757812 134.40203857421875" stroke-width="2" fill="none" stroke="rgb(0, 0, 0)" stroke-opacity="1.0" stroke-linecap="round" stroke-linejoin="round"/>
    <path d="M 182.88307189941406 64.22203826904297 C 157.60406494140625 157.4331817626953 164.59967041015625 72.29341125488281 117.54051208496094 92.40486145019531" stroke-width="2" fill="none" stroke="rgb(0, 0, 0)" stroke-opacity="1.0" stroke-linecap="round" stroke-linejoin="round"/>
    <path d="M 154.96011352539062 123.47103118896484 C 167.76724243164062 156.046875 183.66734313964844 145.80825805664062 135.85440063476562 146.9302520751953" stroke-width="2" fill="none" stroke="rgb(0, 0, 0)" stroke-opacity="1.0" stroke-linecap="round" stroke-linejoin="round"/>
    <path d="M 109.83625793457031 98.55035400390625 C 89.60735321044922 29.64141273498535 96.28653717041016 127.32295227050781 93.75759887695312 92.75202178955078" stroke-width="2" fill="none" stroke="rgb(0, 0, 0)" stroke-opacity="1.0" stroke-linecap="round" stroke-linejoin="round"/>
    <path d="M 125.91918182373047 134.72349548339844 C 147.14356994628906 158.73985290527344 181.66737365722656 112.17130279541016 135.35702514648438 120.99466705322266" stroke-width="2" fill="none" stroke="rgb(0, 0, 0)" stroke-opacity="1.0" stroke-linecap="round" stroke-linejoin="round"/>
    <path d="M 175.63450622558594 94.06714630126953 C 178.3910675048828 185.9178924560547 102.4347915649414 89.5772476196289 141.8583221435547 135.05043029785156" stroke-width="2" fill="none" stroke="rgb(0, 0, 0)" stroke-opacity="1.0" stroke-linecap="round" stroke-linejoin="round"/>
    <path d="M 95.0135498046875 135.31712341308594 C 95.49608612060547 94.1378173828125 78.92562103271484 129.1419219970703 103.18895721435547 102.4045639038086" stroke-width="2" fill="none" stroke="rgb(0, 0, 0)" stroke-opacity="1.0" stroke-linecap="round" stroke-linejoin="round"/>
    <path d="M 45.121280670166016 129.33775329589844 C 46.60343551635742 116.90408325195312 42.27680587768555 98.18961334228516 86.36421203613281 111.6972885131836" stroke-width="2" fill="none" stroke="rgb(0, 0, 0)" stroke-opacity="1.0" stroke-linecap="round" stroke-linejoin="round"/>
  </g>
</svg>
