<?xml version="1.0" ?>
<svg xmlns="http://www.w3.org/2000/svg" version="1.1" width="224" height="224">
  <defs/>
  <g>
    <path d="M 94.2990493774414 129.6565704345703 C 206.7291259765625 165.89041137695312 125.08840942382812 123.08080291748047 157.68898010253906 136.1705780029297" stroke-width="2" fill="none" stroke="rgb(0, 0, 0)" stroke-opacity="1.0" stroke-linecap="round" stroke-linejoin="round"/>
    <path d="M 154.45822143554688 150.67637634277344 C 104.106201171875 134.15994262695312 236.47256469726562 138.20364379882812 113.00383758544922 129.92181396484375" stroke-width="2" fill="none" stroke="rgb(0, 0, 0)" stroke-opacity="1.0" stroke-linecap="round" stroke-linejoin="round"/>
    <path d="M 99.95450592041016 116.47138977050781 C 148.60826110839844 138.89022827148438 56.76007080078125 115.8076400756836 142.4545135498047 123.95761108398438" stroke-width="2" fill="none" stroke="rgb(0, 0, 0)" stroke-opacity="1.0" stroke-linecap="round" stroke-linejoin="round"/>
    <path d="M 59.102352142333984 147.0222930908203 C 217.23736572265625 191.72622680664062 162.80740356445312 121.9663314819336 172.45799255371094 121.53691864013672" stroke-width="2" fill="none" stroke="rgb(0, 0, 0)" stroke-opacity="1.0" stroke-linecap="round" stroke-linejoin="round"/>
    <path d="M 182.77944946289062 102.40054321289062 C 155.7604522705078 133.90652465820312 187.20822143554688 87.030517578125 129.5819091796875 99.2543716430664" stroke-width="2" fill="none" stroke="rgb(0, 0, 0)" stroke-opacity="1.0" stroke-linecap="round" stroke-linejoin="round"/>
    <path d="M 174.1306915283203 143.6128387451172 C 187.75001525878906 180.7509002685547 86.0965805053711 104.23296356201172 138.73582458496094 130.71810913085938" stroke-width="2" fill="none" stroke="rgb(0, 0, 0)" stroke-opacity="1.0" stroke-linecap="round" stroke-linejoin="round"/>
    <path d="M 52.11918640136719 112.17066192626953 C -11.813769340515137 177.61502075195312 169.51112365722656 157.48133850097656 86.50264739990234 149.05654907226562" stroke-width="2" fill="none" stroke="rgb(0, 0, 0)" stroke-opacity="1.0" stroke-linecap="round" stroke-linejoin="round"/>
    <path d="M 172.8328094482422 142.37530517578125 C 213.52032470703125 -29.701492309570312 137.9063720703125 109.29097747802734 152.61383056640625 93.37830352783203" stroke-width="2" fill="none" stroke="rgb(0, 0, 0)" stroke-opacity="1.0" stroke-linecap="round" stroke-linejoin="round"/>
    <path d="M 111.83492279052734 97.29779052734375 C 107.18928527832031 155.39840698242188 104.9505615234375 94.16362762451172 142.29681396484375 114.02347564697266" stroke-width="2" fill="none" stroke="rgb(0, 0, 0)" stroke-opacity="1.0" stroke-linecap="round" stroke-linejoin="round"/>
    <path d="M 181.87225341796875 54.3007926940918 C 136.7965850830078 142.4671630859375 101.60527038574219 49.86897277832031 98.58995056152344 69.13170623779297" stroke-width="2" fill="none" stroke="rgb(0, 0, 0)" stroke-opacity="1.0" stroke-linecap="round" stroke-linejoin="round"/>
    <path d="M 143.94859313964844 137.12591552734375 C 176.3599853515625 133.35488891601562 178.3660888671875 168.3354034423828 152.19944763183594 153.787353515625" stroke-width="2" fill="none" stroke="rgb(0, 0, 0)" stroke-opacity="1.0" stroke-linecap="round" stroke-linejoin="round"/>
    <path d="M 92.02912139892578 103.1559066772461 C 101.44715118408203 18.02204132080078 101.1289291381836 130.99609375 113.45018768310547 95.70430755615234" stroke-width="2" fill="none" stroke="rgb(0, 0, 0)" stroke-opacity="1.0" stroke-linecap="round" stroke-linejoin="round"/>
    <path d="M 79.05715942382812 134.25181579589844 C 201.6291046142578 165.0658721923828 194.27996826171875 156.73265075683594 108.31255340576172 122.87361907958984" stroke-width="2" fill="none" stroke="rgb(0, 0, 0)" stroke-opacity="1.0" stroke-linecap="round" stroke-linejoin="round"/>
    <path d="M 175.12643432617188 120.79534149169922 C 150.13633728027344 103.39566802978516 179.35263061523438 102.69188690185547 178.53665161132812 68.9608154296875" stroke-width="2" fill="none" stroke="rgb(0, 0, 0)" stroke-opacity="1.0" stroke-linecap="round" stroke-linejoin="round"/>
    <path d="M 115.80699920654297 141.04542541503906 C 214.9048309326172 144.39881896972656 144.96658325195312 95.72895050048828 87.90666198730469 124.66287231445312" stroke-width="2" fill="none" stroke="rgb(0, 0, 0)" stroke-opacity="1.0" stroke-linecap="round" stroke-linejoin="round"/>
    <path d="M 55.462039947509766 104.8242416381836 C 57.7110481262207 120.9864730834961 47.405906677246094 89.19561767578125 90.01805114746094 96.79108428955078" stroke-width="2" fill="none" stroke="rgb(0, 0, 0)" stroke-opacity="1.0" stroke-linecap="round" stroke-linejoin="round"/>
  </g>
</svg>
