<?xml version="1.0" ?>
<svg xmlns="http://www.w3.org/2000/svg" version="1.1" width="224" height="224">
  <defs/>
  <g>
    <path d="M 114.45690155029297 131.18136596679688 C 217.71112060546875 160.63568115234375 100.15857696533203 140.7519989013672 133.00758361816406 149.27667236328125" stroke-width="2" fill="none" stroke="rgb(0, 0, 0)" stroke-opacity="1.0" stroke-linecap="round" stroke-linejoin="round"/>
    <path d="M 169.22335815429688 153.55047607421875 C 92.8213882446289 134.86868286132812 250.92990112304688 144.7010040283203 128.4720001220703 134.55320739746094" stroke-width="2" fill="none" stroke="rgb(0, 0, 0)" stroke-opacity="1.0" stroke-linecap="round" stroke-linejoin="round"/>
    <path d="M 102.16896057128906 111.7001724243164 C 114.4717788696289 157.68719482421875 105.11124420166016 94.31971740722656 152.35635375976562 108.16427612304688" stroke-width="2" fill="none" stroke="rgb(0, 0, 0)" stroke-opacity="1.0" stroke-linecap="round" stroke-linejoin="round"/>
    <path d="M 61.79628372192383 145.81829833984375 C 232.32899475097656 211.9568634033203 183.04617309570312 115.0162124633789 150.00341796875 131.07386779785156" stroke-width="2" fill="none" stroke="rgb(0, 0, 0)" stroke-opacity="1.0" stroke-linecap="round" stroke-linejoin="round"/>
    <path d="M 170.56980895996094 114.15138244628906 C 153.80625915527344 105.11924743652344 229.4971923828125 98.194091796875 120.27571105957031 92.01313018798828" stroke-width="2" fill="none" stroke="rgb(0, 0, 0)" stroke-opacity="1.0" stroke-linecap="round" stroke-linejoin="round"/>
    <path d="M 162.84742736816406 105.38249969482422 C 206.28663635253906 147.70584106445312 78.2629623413086 116.90922546386719 170.67149353027344 129.57196044921875" stroke-width="2" fill="none" stroke="rgb(0, 0, 0)" stroke-opacity="1.0" stroke-linecap="round" stroke-linejoin="round"/>
    <path d="M 54.2929573059082 110.04286193847656 C -16.223085403442383 180.04469299316406 194.39157104492188 174.42666625976562 95.12647247314453 144.02597045898438" stroke-width="2" fill="none" stroke="rgb(0, 0, 0)" stroke-opacity="1.0" stroke-linecap="round" stroke-linejoin="round"/>
    <path d="M 180.0869903564453 112.80622100830078 C 203.02755737304688 -8.698217391967773 148.08609008789062 122.66868591308594 166.28872680664062 86.0316390991211" stroke-width="2" fill="none" stroke="rgb(0, 0, 0)" stroke-opacity="1.0" stroke-linecap="round" stroke-linejoin="round"/>
    <path d="M 124.47334289550781 115.60570526123047 C 120.4516372680664 175.73158264160156 117.13478088378906 91.99198913574219 152.67408752441406 134.13409423828125" stroke-width="2" fill="none" stroke="rgb(0, 0, 0)" stroke-opacity="1.0" stroke-linecap="round" stroke-linejoin="round"/>
    <path d="M 174.873779296875 78.62666320800781 C 118.59436798095703 148.61802673339844 115.90471649169922 64.58002471923828 102.4032974243164 65.9804916381836" stroke-width="2" fill="none" stroke="rgb(0, 0, 0)" stroke-opacity="1.0" stroke-linecap="round" stroke-linejoin="round"/>
    <path d="M 123.11412811279297 153.3015594482422 C 155.34097290039062 145.1383056640625 194.08078002929688 150.50799560546875 165.97535705566406 151.24366760253906" stroke-width="2" fill="none" stroke="rgb(0, 0, 0)" stroke-opacity="1.0" stroke-linecap="round" stroke-linejoin="round"/>
    <path d="M 94.0357894897461 107.55107116699219 C 100.79866790771484 11.661887168884277 113.84071350097656 115.57584381103516 116.43074035644531 103.04821014404297" stroke-width="2" fill="none" stroke="rgb(0, 0, 0)" stroke-opacity="1.0" stroke-linecap="round" stroke-linejoin="round"/>
    <path d="M 46.69608688354492 142.23277282714844 C 216.95684814453125 168.25906372070312 203.3505096435547 162.8682098388672 125.99238586425781 137.5275421142578" stroke-width="2" fill="none" stroke="rgb(0, 0, 0)" stroke-opacity="1.0" stroke-linecap="round" stroke-linejoin="round"/>
    <path d="M 182.7841033935547 136.18856811523438 C 176.37026977539062 97.09027099609375 205.37567138671875 137.13131713867188 189.14004516601562 69.20195770263672" stroke-width="2" fill="none" stroke="rgb(0, 0, 0)" stroke-opacity="1.0" stroke-linecap="round" stroke-linejoin="round"/>
    <path d="M 84.2770767211914 136.9178466796875 C 185.50596618652344 148.76104736328125 148.96827697753906 132.1238250732422 117.64735412597656 135.70314025878906" stroke-width="2" fill="none" stroke="rgb(0, 0, 0)" stroke-opacity="1.0" stroke-linecap="round" stroke-linejoin="round"/>
    <path d="M 59.09743118286133 126.12641906738281 C 48.392520904541016 134.7186737060547 49.20820617675781 88.09912109375 91.80886840820312 100.51871490478516" stroke-width="2" fill="none" stroke="rgb(0, 0, 0)" stroke-opacity="1.0" stroke-linecap="round" stroke-linejoin="round"/>
  </g>
</svg>
