<?xml version="1.0" ?>
<svg xmlns="http://www.w3.org/2000/svg" version="1.1" width="224" height="224">
  <defs/>
  <g>
    <path d="M 105.78217315673828 113.8496322631836 C 201.16531372070312 140.48944091796875 61.12486267089844 130.4002227783203 147.9583740234375 144.506103515625" stroke-width="2" fill="none" stroke="rgb(0, 0, 0)" stroke-opacity="1.0" stroke-linecap="round" stroke-linejoin="round"/>
    <path d="M 141.76429748535156 143.04901123046875 C 36.399757385253906 118.99111938476562 177.69631958007812 124.06466674804688 110.59467315673828 116.13977813720703" stroke-width="2" fill="none" stroke="rgb(0, 0, 0)" stroke-opacity="1.0" stroke-linecap="round" stroke-linejoin="round"/>
    <path d="M 109.14799499511719 98.74269104003906 C 114.45941925048828 137.23667907714844 126.73050689697266 110.124267578125 156.435791015625 139.13449096679688" stroke-width="2" fill="none" stroke="rgb(0, 0, 0)" stroke-opacity="1.0" stroke-linecap="round" stroke-linejoin="round"/>
    <path d="M 77.15442657470703 131.07337951660156 C 230.66395568847656 222.98934936523438 186.05764770507812 67.70890045166016 143.28504943847656 91.81289672851562" stroke-width="2" fill="none" stroke="rgb(0, 0, 0)" stroke-opacity="1.0" stroke-linecap="round" stroke-linejoin="round"/>
    <path d="M 159.2725830078125 124.45604705810547 C 108.7246322631836 116.11488342285156 202.15399169921875 126.9007797241211 148.76348876953125 111.41281127929688" stroke-width="2" fill="none" stroke="rgb(0, 0, 0)" stroke-opacity="1.0" stroke-linecap="round" stroke-linejoin="round"/>
    <path d="M 119.07771301269531 124.45316314697266 C 156.50433349609375 117.73155212402344 36.59397506713867 124.61854553222656 133.2073516845703 115.20870971679688" stroke-width="2" fill="none" stroke="rgb(0, 0, 0)" stroke-opacity="1.0" stroke-linecap="round" stroke-linejoin="round"/>
    <path d="M 68.85466766357422 102.13468933105469 C -24.516056060791016 165.1602020263672 145.02734375 139.97079467773438 84.37786865234375 144.66932678222656" stroke-width="2" fill="none" stroke="rgb(0, 0, 0)" stroke-opacity="1.0" stroke-linecap="round" stroke-linejoin="round"/>
    <path d="M 176.78248596191406 85.77873229980469 C 207.05284118652344 -26.250858306884766 145.4099578857422 123.6485824584961 169.62863159179688 80.36219024658203" stroke-width="2" fill="none" stroke="rgb(0, 0, 0)" stroke-opacity="1.0" stroke-linecap="round" stroke-linejoin="round"/>
    <path d="M 160.73593139648438 165.78907775878906 C 84.4498062133789 158.84112548828125 66.489013671875 129.34255981445312 160.61569213867188 133.6858673095703" stroke-width="2" fill="none" stroke="rgb(0, 0, 0)" stroke-opacity="1.0" stroke-linecap="round" stroke-linejoin="round"/>
    <path d="M 164.6030731201172 77.25856018066406 C 127.38687896728516 110.02051544189453 120.82929992675781 53.48225402832031 100.55944061279297 50.189998626708984" stroke-width="2" fill="none" stroke="rgb(0, 0, 0)" stroke-opacity="1.0" stroke-linecap="round" stroke-linejoin="round"/>
    <path d="M 62.345272064208984 108.48918914794922 C 29.732324600219727 176.02471923828125 133.1712646484375 146.61102294921875 155.74867248535156 154.9801025390625" stroke-width="2" fill="none" stroke="rgb(0, 0, 0)" stroke-opacity="1.0" stroke-linecap="round" stroke-linejoin="round"/>
    <path d="M 95.43799591064453 88.93670654296875 C 97.74300384521484 -10.727065086364746 106.36449432373047 112.22664642333984 130.09800720214844 92.4172134399414" stroke-width="2" fill="none" stroke="rgb(0, 0, 0)" stroke-opacity="1.0" stroke-linecap="round" stroke-linejoin="round"/>
    <path d="M 41.87717056274414 140.36129760742188 C 197.28985595703125 158.40138244628906 200.21282958984375 159.9513702392578 68.3240737915039 154.04566955566406" stroke-width="2" fill="none" stroke="rgb(0, 0, 0)" stroke-opacity="1.0" stroke-linecap="round" stroke-linejoin="round"/>
    <path d="M 172.92149353027344 155.00381469726562 C 162.9263153076172 123.90400695800781 201.64358520507812 106.12275695800781 186.22463989257812 45.2349739074707" stroke-width="2" fill="none" stroke="rgb(0, 0, 0)" stroke-opacity="1.0" stroke-linecap="round" stroke-linejoin="round"/>
    <path d="M 100.89205169677734 129.02471923828125 C 197.63433837890625 129.2694091796875 178.74327087402344 155.18556213378906 111.30027770996094 154.33673095703125" stroke-width="2" fill="none" stroke="rgb(0, 0, 0)" stroke-opacity="1.0" stroke-linecap="round" stroke-linejoin="round"/>
    <path d="M 97.50791931152344 90.92840576171875 C 106.70756530761719 148.16009521484375 91.71565246582031 97.07300567626953 132.56887817382812 111.65863037109375" stroke-width="2" fill="none" stroke="rgb(0, 0, 0)" stroke-opacity="1.0" stroke-linecap="round" stroke-linejoin="round"/>
  </g>
</svg>
