<?xml version="1.0" ?>
<svg xmlns="http://www.w3.org/2000/svg" version="1.1" width="224" height="224">
  <defs/>
  <g>
    <path d="M 55.74968338012695 140.13796997070312 C 9.601570129394531 118.56439971923828 97.39519500732422 73.03548431396484 96.09069061279297 128.87472534179688" stroke-width="2" fill="none" stroke="rgb(0, 0, 0)" stroke-opacity="1.0" stroke-linecap="round" stroke-linejoin="round"/>
    <path d="M 138.66685485839844 139.25865173339844 C 107.65293884277344 138.2342071533203 109.7156982421875 137.0955810546875 46.03365707397461 129.6513671875" stroke-width="2" fill="none" stroke="rgb(0, 0, 0)" stroke-opacity="1.0" stroke-linecap="round" stroke-linejoin="round"/>
    <path d="M 110.36137390136719 121.27369689941406 C 184.01687622070312 124.52495574951172 52.43156433105469 119.84646606445312 137.96429443359375 124.89617156982422" stroke-width="2" fill="none" stroke="rgb(0, 0, 0)" stroke-opacity="1.0" stroke-linecap="round" stroke-linejoin="round"/>
    <path d="M 86.90607452392578 143.9973907470703 C 183.67242431640625 164.50172424316406 152.2846221923828 165.37326049804688 162.48934936523438 112.82295227050781" stroke-width="2" fill="none" stroke="rgb(0, 0, 0)" stroke-opacity="1.0" stroke-linecap="round" stroke-linejoin="round"/>
    <path d="M 132.882568359375 100.69610595703125 C 190.4107666015625 65.56287384033203 127.41780090332031 108.53700256347656 113.67560577392578 71.99879455566406" stroke-width="2" fill="none" stroke="rgb(0, 0, 0)" stroke-opacity="1.0" stroke-linecap="round" stroke-linejoin="round"/>
    <path d="M 117.4524917602539 115.20594787597656 C 148.2337188720703 104.1857681274414 130.05938720703125 144.24114990234375 109.41996002197266 122.9495849609375" stroke-width="2" fill="none" stroke="rgb(0, 0, 0)" stroke-opacity="1.0" stroke-linecap="round" stroke-linejoin="round"/>
    <path d="M 44.66642761230469 109.7447509765625 C 19.365325927734375 153.98587036132812 87.09459686279297 162.55303955078125 155.16259765625 159.28981018066406" stroke-width="2" fill="none" stroke="rgb(0, 0, 0)" stroke-opacity="1.0" stroke-linecap="round" stroke-linejoin="round"/>
    <path d="M 151.81663513183594 119.08696746826172 C 122.67176055908203 123.81742095947266 197.9855194091797 128.36622619628906 108.86661529541016 126.5354232788086" stroke-width="2" fill="none" stroke="rgb(0, 0, 0)" stroke-opacity="1.0" stroke-linecap="round" stroke-linejoin="round"/>
    <path d="M 153.53729248046875 159.96595764160156 C 96.80061340332031 154.05233764648438 108.9774169921875 137.45664978027344 83.93922424316406 127.01637268066406" stroke-width="2" fill="none" stroke="rgb(0, 0, 0)" stroke-opacity="1.0" stroke-linecap="round" stroke-linejoin="round"/>
    <path d="M 176.4016876220703 60.36564254760742 C 157.6876983642578 115.2926254272461 120.33979034423828 107.7266616821289 179.486328125 57.25108337402344" stroke-width="2" fill="none" stroke="rgb(0, 0, 0)" stroke-opacity="1.0" stroke-linecap="round" stroke-linejoin="round"/>
    <path d="M 153.41165161132812 98.9297866821289 C 161.5152587890625 138.89306640625 193.27024841308594 164.56243896484375 151.24044799804688 159.75930786132812" stroke-width="2" fill="none" stroke="rgb(0, 0, 0)" stroke-opacity="1.0" stroke-linecap="round" stroke-linejoin="round"/>
    <path d="M 72.66960144042969 148.98733520507812 C 24.58622169494629 140.73008728027344 27.49941062927246 119.35052490234375 99.85212707519531 157.1048126220703" stroke-width="2" fill="none" stroke="rgb(0, 0, 0)" stroke-opacity="1.0" stroke-linecap="round" stroke-linejoin="round"/>
    <path d="M 112.7015609741211 107.8437728881836 C 146.84519958496094 114.58819580078125 102.271728515625 98.91722869873047 110.14997863769531 68.81359100341797" stroke-width="2" fill="none" stroke="rgb(0, 0, 0)" stroke-opacity="1.0" stroke-linecap="round" stroke-linejoin="round"/>
    <path d="M 181.2062225341797 59.324066162109375 C 183.12905883789062 84.4468765258789 165.85272216796875 105.03801727294922 162.98495483398438 123.7252197265625" stroke-width="2" fill="none" stroke="rgb(0, 0, 0)" stroke-opacity="1.0" stroke-linecap="round" stroke-linejoin="round"/>
    <path d="M 109.01593017578125 66.63555908203125 C 82.13069152832031 80.07125854492188 99.56204223632812 139.6846466064453 103.67439270019531 80.89514923095703" stroke-width="2" fill="none" stroke="rgb(0, 0, 0)" stroke-opacity="1.0" stroke-linecap="round" stroke-linejoin="round"/>
    <path d="M 39.07600402832031 140.99595642089844 C 36.222721099853516 101.61151885986328 54.02306365966797 116.366455078125 63.24884796142578 112.81525421142578" stroke-width="2" fill="none" stroke="rgb(0, 0, 0)" stroke-opacity="1.0" stroke-linecap="round" stroke-linejoin="round"/>
  </g>
</svg>
