<?xml version="1.0" ?>
<svg xmlns="http://www.w3.org/2000/svg" version="1.1" width="224" height="224">
  <defs/>
  <g>
    <path d="M 76.47421264648438 105.91155242919922 C 48.77211380004883 131.00015258789062 113.9614486694336 81.92656707763672 113.26319122314453 132.6909942626953" stroke-width="2" fill="none" stroke="rgb(0, 0, 0)" stroke-opacity="1.0" stroke-linecap="round" stroke-linejoin="round"/>
    <path d="M 92.36754608154297 120.72195434570312 C 35.269432067871094 114.88705444335938 114.13604736328125 146.1399688720703 98.7445068359375 107.73434448242188" stroke-width="2" fill="none" stroke="rgb(0, 0, 0)" stroke-opacity="1.0" stroke-linecap="round" stroke-linejoin="round"/>
    <path d="M 136.96957397460938 112.91913604736328 C 246.3174285888672 153.84886169433594 74.79279327392578 158.68617248535156 105.76036834716797 85.35163116455078" stroke-width="2" fill="none" stroke="rgb(0, 0, 0)" stroke-opacity="1.0" stroke-linecap="round" stroke-linejoin="round"/>
    <path d="M 49.914207458496094 145.19741821289062 C 189.85166931152344 172.46083068847656 180.063232421875 156.5572052001953 164.17462158203125 100.65313720703125" stroke-width="2" fill="none" stroke="rgb(0, 0, 0)" stroke-opacity="1.0" stroke-linecap="round" stroke-linejoin="round"/>
    <path d="M 181.8046875 58.69029998779297 C 176.26239013671875 43.82888412475586 159.7639923095703 104.92471313476562 118.20467376708984 82.56758880615234" stroke-width="2" fill="none" stroke="rgb(0, 0, 0)" stroke-opacity="1.0" stroke-linecap="round" stroke-linejoin="round"/>
    <path d="M 122.53656005859375 119.56160736083984 C 136.72389221191406 125.31749725341797 126.57069396972656 117.36088562011719 125.79906463623047 117.28292083740234" stroke-width="2" fill="none" stroke="rgb(0, 0, 0)" stroke-opacity="1.0" stroke-linecap="round" stroke-linejoin="round"/>
    <path d="M 51.09482192993164 103.61397552490234 C 3.062288999557495 166.9124298095703 68.80648803710938 166.0380859375 136.76536560058594 185.41368103027344" stroke-width="2" fill="none" stroke="rgb(0, 0, 0)" stroke-opacity="1.0" stroke-linecap="round" stroke-linejoin="round"/>
    <path d="M 153.34996032714844 113.61225891113281 C 95.034423828125 106.93840026855469 233.19931030273438 126.70513153076172 86.30347442626953 116.92134857177734" stroke-width="2" fill="none" stroke="rgb(0, 0, 0)" stroke-opacity="1.0" stroke-linecap="round" stroke-linejoin="round"/>
    <path d="M 99.6596450805664 147.74964904785156 C 23.841293334960938 120.23977661132812 72.24348449707031 135.21202087402344 60.80390930175781 130.92742919921875" stroke-width="2" fill="none" stroke="rgb(0, 0, 0)" stroke-opacity="1.0" stroke-linecap="round" stroke-linejoin="round"/>
    <path d="M 180.3991241455078 52.773895263671875 C 163.77471923828125 108.8712158203125 148.6483154296875 103.17388153076172 176.5420379638672 80.26268768310547" stroke-width="2" fill="none" stroke="rgb(0, 0, 0)" stroke-opacity="1.0" stroke-linecap="round" stroke-linejoin="round"/>
    <path d="M 160.80593872070312 141.84994506835938 C 100.37850189208984 134.40664672851562 129.8693389892578 122.2639389038086 142.7320556640625 144.36907958984375" stroke-width="2" fill="none" stroke="rgb(0, 0, 0)" stroke-opacity="1.0" stroke-linecap="round" stroke-linejoin="round"/>
    <path d="M 81.79412841796875 97.05132293701172 C 46.27696990966797 106.2371826171875 46.271053314208984 156.603271484375 61.50801467895508 130.1460723876953" stroke-width="2" fill="none" stroke="rgb(0, 0, 0)" stroke-opacity="1.0" stroke-linecap="round" stroke-linejoin="round"/>
    <path d="M 155.24501037597656 92.79736328125 C 119.38763427734375 58.401458740234375 114.97187805175781 134.9486541748047 97.39091491699219 69.37989807128906" stroke-width="2" fill="none" stroke="rgb(0, 0, 0)" stroke-opacity="1.0" stroke-linecap="round" stroke-linejoin="round"/>
    <path d="M 184.1058807373047 54.994476318359375 C 187.35202026367188 117.92659759521484 127.76107025146484 140.25257873535156 161.7015838623047 125.75935363769531" stroke-width="2" fill="none" stroke="rgb(0, 0, 0)" stroke-opacity="1.0" stroke-linecap="round" stroke-linejoin="round"/>
    <path d="M 113.093505859375 80.59233093261719 C 79.83219909667969 34.05509948730469 80.28561401367188 146.0623779296875 108.99836730957031 101.77685546875" stroke-width="2" fill="none" stroke="rgb(0, 0, 0)" stroke-opacity="1.0" stroke-linecap="round" stroke-linejoin="round"/>
    <path d="M 48.61310577392578 135.21771240234375 C 35.2017822265625 86.03739929199219 66.72309112548828 107.42636108398438 92.93838500976562 111.08167266845703" stroke-width="2" fill="none" stroke="rgb(0, 0, 0)" stroke-opacity="1.0" stroke-linecap="round" stroke-linejoin="round"/>
  </g>
</svg>
