<?xml version="1.0" ?>
<svg xmlns="http://www.w3.org/2000/svg" version="1.1" width="224" height="224">
  <defs/>
  <g>
    <path d="M 51.094913482666016 143.05384826660156 C 158.873046875 160.46737670898438 54.22574996948242 158.390380859375 71.25234985351562 115.54064178466797" stroke-width="2" fill="none" stroke="rgb(0, 0, 0)" stroke-opacity="1.0" stroke-linecap="round" stroke-linejoin="round"/>
    <path d="M 146.8639373779297 125.54907989501953 C 109.02328491210938 107.08723449707031 201.61875915527344 127.64480590820312 97.23930358886719 124.052490234375" stroke-width="2" fill="none" stroke="rgb(0, 0, 0)" stroke-opacity="1.0" stroke-linecap="round" stroke-linejoin="round"/>
    <path d="M 93.02019500732422 126.468994140625 C 161.74732971191406 132.37403869628906 16.258766174316406 111.47992706298828 143.64036560058594 143.64785766601562" stroke-width="2" fill="none" stroke="rgb(0, 0, 0)" stroke-opacity="1.0" stroke-linecap="round" stroke-linejoin="round"/>
    <path d="M 84.17913818359375 146.54855346679688 C 222.76559448242188 190.83889770507812 170.75770568847656 101.05413055419922 181.86663818359375 124.2282943725586" stroke-width="2" fill="none" stroke="rgb(0, 0, 0)" stroke-opacity="1.0" stroke-linecap="round" stroke-linejoin="round"/>
    <path d="M 183.7716064453125 61.589290618896484 C 162.4918975830078 65.4582290649414 156.26748657226562 98.4982681274414 129.59942626953125 91.03068542480469" stroke-width="2" fill="none" stroke="rgb(0, 0, 0)" stroke-opacity="1.0" stroke-linecap="round" stroke-linejoin="round"/>
    <path d="M 129.3451385498047 143.21983337402344 C 211.8228759765625 139.2413787841797 65.21600341796875 147.97328186035156 154.26856994628906 151.4591827392578" stroke-width="2" fill="none" stroke="rgb(0, 0, 0)" stroke-opacity="1.0" stroke-linecap="round" stroke-linejoin="round"/>
    <path d="M 53.171669006347656 108.03376007080078 C -4.240056991577148 182.23995971679688 197.26036071777344 168.82473754882812 160.95413208007812 138.5292205810547" stroke-width="2" fill="none" stroke="rgb(0, 0, 0)" stroke-opacity="1.0" stroke-linecap="round" stroke-linejoin="round"/>
    <path d="M 169.70448303222656 123.17762756347656 C 223.17562866210938 -9.354704856872559 140.56614685058594 128.35971069335938 159.834716796875 109.65222930908203" stroke-width="2" fill="none" stroke="rgb(0, 0, 0)" stroke-opacity="1.0" stroke-linecap="round" stroke-linejoin="round"/>
    <path d="M 106.55650329589844 105.08743286132812 C 146.83973693847656 153.17735290527344 37.424217224121094 133.8516387939453 119.56141662597656 134.51812744140625" stroke-width="2" fill="none" stroke="rgb(0, 0, 0)" stroke-opacity="1.0" stroke-linecap="round" stroke-linejoin="round"/>
    <path d="M 179.9246368408203 65.66815948486328 C 165.2383575439453 157.88792419433594 115.7073745727539 71.75057220458984 103.07015228271484 63.30833053588867" stroke-width="2" fill="none" stroke="rgb(0, 0, 0)" stroke-opacity="1.0" stroke-linecap="round" stroke-linejoin="round"/>
    <path d="M 191.6413116455078 135.68154907226562 C 194.46324157714844 156.22030639648438 188.6558380126953 164.0601043701172 121.37669372558594 160.04898071289062" stroke-width="2" fill="none" stroke="rgb(0, 0, 0)" stroke-opacity="1.0" stroke-linecap="round" stroke-linejoin="round"/>
    <path d="M 117.12532806396484 139.44857788085938 C 91.9546127319336 -0.4067537188529968 100.52426147460938 118.23876953125 96.47664642333984 99.56246185302734" stroke-width="2" fill="none" stroke="rgb(0, 0, 0)" stroke-opacity="1.0" stroke-linecap="round" stroke-linejoin="round"/>
    <path d="M 89.99095153808594 145.03610229492188 C 129.27854919433594 150.64071655273438 132.31300354003906 129.7444610595703 91.58292388916016 129.92996215820312" stroke-width="2" fill="none" stroke="rgb(0, 0, 0)" stroke-opacity="1.0" stroke-linecap="round" stroke-linejoin="round"/>
    <path d="M 173.96307373046875 90.09031677246094 C 188.76107788085938 181.78028869628906 149.57440185546875 91.38186645507812 173.1663818359375 125.12638854980469" stroke-width="2" fill="none" stroke="rgb(0, 0, 0)" stroke-opacity="1.0" stroke-linecap="round" stroke-linejoin="round"/>
    <path d="M 101.8055648803711 134.17242431640625 C 114.14381408691406 119.94752502441406 93.1025161743164 172.80462646484375 127.31478118896484 114.13280487060547" stroke-width="2" fill="none" stroke="rgb(0, 0, 0)" stroke-opacity="1.0" stroke-linecap="round" stroke-linejoin="round"/>
    <path d="M 66.11308288574219 151.99452209472656 C 39.78511428833008 129.8689422607422 31.10150909423828 87.856689453125 94.58619689941406 95.99886322021484" stroke-width="2" fill="none" stroke="rgb(0, 0, 0)" stroke-opacity="1.0" stroke-linecap="round" stroke-linejoin="round"/>
  </g>
</svg>
