<?xml version="1.0" ?>
<svg xmlns="http://www.w3.org/2000/svg" version="1.1" width="224" height="224">
  <defs/>
  <g>
    <path d="M 74.2125473022461 118.68435668945312 C 54.918212890625 120.7132568359375 73.55359649658203 121.39044952392578 83.75997161865234 125.6750259399414" stroke-width="2" fill="none" stroke="rgb(0, 0, 0)" stroke-opacity="1.0" stroke-linecap="round" stroke-linejoin="round"/>
    <path d="M 127.24484252929688 150.6453094482422 C 66.87660217285156 132.11929321289062 174.5172119140625 105.0243148803711 116.91458892822266 117.59870147705078" stroke-width="2" fill="none" stroke="rgb(0, 0, 0)" stroke-opacity="1.0" stroke-linecap="round" stroke-linejoin="round"/>
    <path d="M 139.7260284423828 128.13352966308594 C 207.14828491210938 137.01351928710938 74.31990051269531 168.82456970214844 112.16593933105469 104.6618881225586" stroke-width="2" fill="none" stroke="rgb(0, 0, 0)" stroke-opacity="1.0" stroke-linecap="round" stroke-linejoin="round"/>
    <path d="M 45.0980339050293 146.07540893554688 C 184.9281005859375 175.23678588867188 170.05374145507812 159.13995361328125 173.06576538085938 97.86982727050781" stroke-width="2" fill="none" stroke="rgb(0, 0, 0)" stroke-opacity="1.0" stroke-linecap="round" stroke-linejoin="round"/>
    <path d="M 182.5405731201172 62.953529357910156 C 173.58721923828125 61.211448669433594 165.76698303222656 92.4129867553711 141.6668701171875 87.231201171875" stroke-width="2" fill="none" stroke="rgb(0, 0, 0)" stroke-opacity="1.0" stroke-linecap="round" stroke-linejoin="round"/>
    <path d="M 137.528564453125 135.5408172607422 C 213.57861328125 126.8751220703125 39.629920959472656 112.46324157714844 150.49417114257812 131.3815460205078" stroke-width="2" fill="none" stroke="rgb(0, 0, 0)" stroke-opacity="1.0" stroke-linecap="round" stroke-linejoin="round"/>
    <path d="M 41.169715881347656 108.88378143310547 C 10.429658889770508 157.5184326171875 103.4430160522461 152.6049041748047 130.40614318847656 155.30764770507812" stroke-width="2" fill="none" stroke="rgb(0, 0, 0)" stroke-opacity="1.0" stroke-linecap="round" stroke-linejoin="round"/>
    <path d="M 135.33071899414062 125.49271392822266 C 59.374359130859375 96.91661834716797 173.3184814453125 112.02539825439453 134.078857421875 104.29827117919922" stroke-width="2" fill="none" stroke="rgb(0, 0, 0)" stroke-opacity="1.0" stroke-linecap="round" stroke-linejoin="round"/>
    <path d="M 134.96633911132812 121.61170959472656 C 115.11819458007812 102.79187774658203 149.77761840820312 142.23135375976562 119.0777816772461 121.19035339355469" stroke-width="2" fill="none" stroke="rgb(0, 0, 0)" stroke-opacity="1.0" stroke-linecap="round" stroke-linejoin="round"/>
    <path d="M 185.87351989746094 60.364959716796875 C 164.53050231933594 116.3927993774414 125.07976531982422 112.70143127441406 167.17410278320312 115.87069702148438" stroke-width="2" fill="none" stroke="rgb(0, 0, 0)" stroke-opacity="1.0" stroke-linecap="round" stroke-linejoin="round"/>
    <path d="M 159.52293395996094 145.50213623046875 C 40.67576217651367 132.05673217773438 81.41170501708984 106.56224822998047 111.56951904296875 131.93228149414062" stroke-width="2" fill="none" stroke="rgb(0, 0, 0)" stroke-opacity="1.0" stroke-linecap="round" stroke-linejoin="round"/>
    <path d="M 97.92739868164062 88.71511840820312 C 36.015052795410156 87.52338409423828 53.3337287902832 120.97821044921875 50.82003402709961 114.4214096069336" stroke-width="2" fill="none" stroke="rgb(0, 0, 0)" stroke-opacity="1.0" stroke-linecap="round" stroke-linejoin="round"/>
    <path d="M 153.8065643310547 100.5293960571289 C 114.43109893798828 62.34434127807617 131.2823944091797 109.35037994384766 103.30433654785156 71.85980224609375" stroke-width="2" fill="none" stroke="rgb(0, 0, 0)" stroke-opacity="1.0" stroke-linecap="round" stroke-linejoin="round"/>
    <path d="M 183.3390350341797 57.36963653564453 C 172.09751892089844 144.3331756591797 131.9987335205078 94.53756713867188 158.46475219726562 124.39173126220703" stroke-width="2" fill="none" stroke="rgb(0, 0, 0)" stroke-opacity="1.0" stroke-linecap="round" stroke-linejoin="round"/>
    <path d="M 116.29356384277344 91.48656463623047 C 79.79582214355469 23.40754508972168 105.28772735595703 126.25006866455078 107.20780181884766 116.01648712158203" stroke-width="2" fill="none" stroke="rgb(0, 0, 0)" stroke-opacity="1.0" stroke-linecap="round" stroke-linejoin="round"/>
    <path d="M 39.91999053955078 116.21376037597656 C 42.136924743652344 123.58760833740234 36.35478973388672 109.26289367675781 58.92898178100586 107.62152862548828" stroke-width="2" fill="none" stroke="rgb(0, 0, 0)" stroke-opacity="1.0" stroke-linecap="round" stroke-linejoin="round"/>
  </g>
</svg>
