<?xml version="1.0" ?>
<svg xmlns="http://www.w3.org/2000/svg" version="1.1" width="224" height="224">
  <defs/>
  <g>
    <path d="M 45.69244384765625 149.96861267089844 C 169.57687377929688 164.18275451660156 66.69697570800781 149.24880981445312 76.97731018066406 121.03418731689453" stroke-width="2" fill="none" stroke="rgb(0, 0, 0)" stroke-opacity="1.0" stroke-linecap="round" stroke-linejoin="round"/>
    <path d="M 117.38130187988281 122.11665344238281 C 68.04667663574219 120.11370849609375 181.83108520507812 120.53755187988281 104.35828399658203 109.68111419677734" stroke-width="2" fill="none" stroke="rgb(0, 0, 0)" stroke-opacity="1.0" stroke-linecap="round" stroke-linejoin="round"/>
    <path d="M 109.98269653320312 139.60595703125 C 150.0318603515625 111.48211669921875 16.13767433166504 110.29756164550781 157.19154357910156 147.70413208007812" stroke-width="2" fill="none" stroke="rgb(0, 0, 0)" stroke-opacity="1.0" stroke-linecap="round" stroke-linejoin="round"/>
    <path d="M 95.36963653564453 164.51718139648438 C 216.4674530029297 187.32373046875 173.36170959472656 101.11543273925781 141.01678466796875 117.93853759765625" stroke-width="2" fill="none" stroke="rgb(0, 0, 0)" stroke-opacity="1.0" stroke-linecap="round" stroke-linejoin="round"/>
    <path d="M 185.01637268066406 62.22175598144531 C 172.22361755371094 51.74364471435547 164.38880920410156 101.75260925292969 114.21379089355469 88.34082794189453" stroke-width="2" fill="none" stroke="rgb(0, 0, 0)" stroke-opacity="1.0" stroke-linecap="round" stroke-linejoin="round"/>
    <path d="M 127.84481048583984 139.9629669189453 C 224.46791076660156 133.91561889648438 71.81009674072266 140.45790100097656 138.0753631591797 135.33648681640625" stroke-width="2" fill="none" stroke="rgb(0, 0, 0)" stroke-opacity="1.0" stroke-linecap="round" stroke-linejoin="round"/>
    <path d="M 47.164310455322266 118.15349578857422 C -6.160140037536621 190.04933166503906 186.34771728515625 162.82943725585938 176.99278259277344 129.11785888671875" stroke-width="2" fill="none" stroke="rgb(0, 0, 0)" stroke-opacity="1.0" stroke-linecap="round" stroke-linejoin="round"/>
    <path d="M 164.67625427246094 119.93885803222656 C 194.06813049316406 52.169620513916016 130.16452026367188 107.07017517089844 171.20758056640625 96.50639343261719" stroke-width="2" fill="none" stroke="rgb(0, 0, 0)" stroke-opacity="1.0" stroke-linecap="round" stroke-linejoin="round"/>
    <path d="M 90.2948226928711 128.20425415039062 C 155.36129760742188 150.2126922607422 36.56574630737305 121.25383758544922 116.36225891113281 124.88740539550781" stroke-width="2" fill="none" stroke="rgb(0, 0, 0)" stroke-opacity="1.0" stroke-linecap="round" stroke-linejoin="round"/>
    <path d="M 183.34835815429688 62.140438079833984 C 152.75454711914062 136.24420166015625 117.75077056884766 70.07563018798828 105.37730407714844 63.15144729614258" stroke-width="2" fill="none" stroke="rgb(0, 0, 0)" stroke-opacity="1.0" stroke-linecap="round" stroke-linejoin="round"/>
    <path d="M 164.8561553955078 132.82501220703125 C 203.8086395263672 149.45590209960938 190.11703491210938 167.797607421875 115.7479019165039 147.7837677001953" stroke-width="2" fill="none" stroke="rgb(0, 0, 0)" stroke-opacity="1.0" stroke-linecap="round" stroke-linejoin="round"/>
    <path d="M 123.12443542480469 122.20042419433594 C 89.44672393798828 18.617088317871094 104.58878326416016 127.80975341796875 99.40216064453125 86.96390533447266" stroke-width="2" fill="none" stroke="rgb(0, 0, 0)" stroke-opacity="1.0" stroke-linecap="round" stroke-linejoin="round"/>
    <path d="M 109.476806640625 137.9313507080078 C 120.65790557861328 136.2514190673828 119.89173889160156 108.75471496582031 97.34976959228516 129.80303955078125" stroke-width="2" fill="none" stroke="rgb(0, 0, 0)" stroke-opacity="1.0" stroke-linecap="round" stroke-linejoin="round"/>
    <path d="M 185.78895568847656 62.756221771240234 C 171.2816162109375 151.2255859375 151.203857421875 68.09058380126953 171.2955322265625 121.64877319335938" stroke-width="2" fill="none" stroke="rgb(0, 0, 0)" stroke-opacity="1.0" stroke-linecap="round" stroke-linejoin="round"/>
    <path d="M 111.66316223144531 135.0996856689453 C 129.4033660888672 103.65526580810547 92.79745483398438 160.6079559326172 119.84697723388672 111.01930236816406" stroke-width="2" fill="none" stroke="rgb(0, 0, 0)" stroke-opacity="1.0" stroke-linecap="round" stroke-linejoin="round"/>
    <path d="M 47.081607818603516 137.9325714111328 C 46.37647247314453 126.62712097167969 41.64850616455078 91.07844543457031 100.56118774414062 94.46424102783203" stroke-width="2" fill="none" stroke="rgb(0, 0, 0)" stroke-opacity="1.0" stroke-linecap="round" stroke-linejoin="round"/>
  </g>
</svg>
