<?xml version="1.0" ?>
<svg xmlns="http://www.w3.org/2000/svg" version="1.1" width="224" height="224">
  <defs/>
  <g>
    <path d="M 73.5218276977539 147.67752075195312 C 163.87098693847656 153.62442016601562 67.61224365234375 156.27450561523438 76.46601104736328 125.8026351928711" stroke-width="2" fill="none" stroke="rgb(0, 0, 0)" stroke-opacity="1.0" stroke-linecap="round" stroke-linejoin="round"/>
    <path d="M 163.07008361816406 130.01527404785156 C 146.94386291503906 108.94444274902344 246.98008728027344 139.36354064941406 87.63742065429688 132.49234008789062" stroke-width="2" fill="none" stroke="rgb(0, 0, 0)" stroke-opacity="1.0" stroke-linecap="round" stroke-linejoin="round"/>
    <path d="M 131.12106323242188 127.50138092041016 C 191.2316131591797 119.63935852050781 54.32905960083008 104.61184692382812 165.22003173828125 142.0694122314453" stroke-width="2" fill="none" stroke="rgb(0, 0, 0)" stroke-opacity="1.0" stroke-linecap="round" stroke-linejoin="round"/>
    <path d="M 70.45236206054688 143.20956420898438 C 219.00564575195312 180.55490112304688 158.46241760253906 94.1634750366211 178.14173889160156 129.26304626464844" stroke-width="2" fill="none" stroke="rgb(0, 0, 0)" stroke-opacity="1.0" stroke-linecap="round" stroke-linejoin="round"/>
    <path d="M 174.2248992919922 77.52542877197266 C 137.5836181640625 106.21221160888672 177.66839599609375 94.5456314086914 117.87638092041016 100.79319763183594" stroke-width="2" fill="none" stroke="rgb(0, 0, 0)" stroke-opacity="1.0" stroke-linecap="round" stroke-linejoin="round"/>
    <path d="M 121.22766876220703 152.07534790039062 C 166.95240783691406 151.31211853027344 44.402427673339844 134.9545440673828 161.3020782470703 149.60394287109375" stroke-width="2" fill="none" stroke="rgb(0, 0, 0)" stroke-opacity="1.0" stroke-linecap="round" stroke-linejoin="round"/>
    <path d="M 43.624271392822266 113.59920501708984 C -5.79103422164917 178.4004669189453 177.7138671875 144.84765625 168.08868408203125 137.2568817138672" stroke-width="2" fill="none" stroke="rgb(0, 0, 0)" stroke-opacity="1.0" stroke-linecap="round" stroke-linejoin="round"/>
    <path d="M 171.89389038085938 149.2474822998047 C 216.4718475341797 -27.742650985717773 148.68264770507812 113.36958312988281 163.22508239746094 105.43653106689453" stroke-width="2" fill="none" stroke="rgb(0, 0, 0)" stroke-opacity="1.0" stroke-linecap="round" stroke-linejoin="round"/>
    <path d="M 100.3760986328125 106.08836364746094 C 129.57835388183594 154.91021728515625 68.69352722167969 117.3235092163086 146.90121459960938 119.09661865234375" stroke-width="2" fill="none" stroke="rgb(0, 0, 0)" stroke-opacity="1.0" stroke-linecap="round" stroke-linejoin="round"/>
    <path d="M 177.40020751953125 62.55104446411133 C 167.54006958007812 154.78890991210938 106.253662109375 61.32183837890625 106.54456329345703 66.92159271240234" stroke-width="2" fill="none" stroke="rgb(0, 0, 0)" stroke-opacity="1.0" stroke-linecap="round" stroke-linejoin="round"/>
    <path d="M 163.46253967285156 105.47724914550781 C 173.44017028808594 123.14085388183594 182.7850799560547 145.52418518066406 144.04025268554688 135.85366821289062" stroke-width="2" fill="none" stroke="rgb(0, 0, 0)" stroke-opacity="1.0" stroke-linecap="round" stroke-linejoin="round"/>
    <path d="M 93.34979248046875 104.82330322265625 C 102.9848861694336 -8.337396621704102 105.191650390625 136.58958435058594 117.55635070800781 100.50540924072266" stroke-width="2" fill="none" stroke="rgb(0, 0, 0)" stroke-opacity="1.0" stroke-linecap="round" stroke-linejoin="round"/>
    <path d="M 64.8104248046875 144.0283203125 C 115.51416015625 157.1155242919922 114.36054229736328 144.79042053222656 79.4343032836914 137.82589721679688" stroke-width="2" fill="none" stroke="rgb(0, 0, 0)" stroke-opacity="1.0" stroke-linecap="round" stroke-linejoin="round"/>
    <path d="M 182.31370544433594 91.23217010498047 C 150.50779724121094 144.6193389892578 167.89077758789062 62.72216033935547 170.73602294921875 93.90296173095703" stroke-width="2" fill="none" stroke="rgb(0, 0, 0)" stroke-opacity="1.0" stroke-linecap="round" stroke-linejoin="round"/>
    <path d="M 122.66656494140625 153.08082580566406 C 232.48240661621094 159.33705139160156 113.9320068359375 140.53903198242188 108.58149719238281 149.17599487304688" stroke-width="2" fill="none" stroke="rgb(0, 0, 0)" stroke-opacity="1.0" stroke-linecap="round" stroke-linejoin="round"/>
    <path d="M 40.311668395996094 114.5330810546875 C 62.25192642211914 118.98839569091797 35.61655807495117 97.0282974243164 89.506103515625 105.22928619384766" stroke-width="2" fill="none" stroke="rgb(0, 0, 0)" stroke-opacity="1.0" stroke-linecap="round" stroke-linejoin="round"/>
  </g>
</svg>
