<?xml version="1.0" ?>
<svg xmlns="http://www.w3.org/2000/svg" version="1.1" width="224" height="224">
  <defs/>
  <g>
    <path d="M 64.56444549560547 138.55262756347656 C 154.3535614013672 160.9491424560547 56.26700210571289 161.40760803222656 47.449378967285156 133.65074157714844" stroke-width="2" fill="none" stroke="rgb(0, 0, 0)" stroke-opacity="1.0" stroke-linecap="round" stroke-linejoin="round"/>
    <path d="M 146.74673461914062 128.1663055419922 C 76.7609634399414 113.91807556152344 175.5742645263672 116.98889923095703 149.29408264160156 131.99139404296875" stroke-width="2" fill="none" stroke="rgb(0, 0, 0)" stroke-opacity="1.0" stroke-linecap="round" stroke-linejoin="round"/>
    <path d="M 159.13400268554688 125.8151626586914 C 204.21144104003906 103.21993255615234 59.79030227661133 145.0260467529297 68.24040222167969 122.41105651855469" stroke-width="2" fill="none" stroke="rgb(0, 0, 0)" stroke-opacity="1.0" stroke-linecap="round" stroke-linejoin="round"/>
    <path d="M 78.76934814453125 161.1808624267578 C 238.4838409423828 192.54092407226562 161.07144165039062 119.90638732910156 182.65274047851562 100.97408294677734" stroke-width="2" fill="none" stroke="rgb(0, 0, 0)" stroke-opacity="1.0" stroke-linecap="round" stroke-linejoin="round"/>
    <path d="M 183.430419921875 48.51824188232422 C 159.63153076171875 48.12321090698242 157.84230041503906 102.61241912841797 127.08123016357422 79.73848724365234" stroke-width="2" fill="none" stroke="rgb(0, 0, 0)" stroke-opacity="1.0" stroke-linecap="round" stroke-linejoin="round"/>
    <path d="M 158.59439086914062 120.8019027709961 C 236.69125366210938 136.6530303955078 61.8514518737793 96.385009765625 150.8366241455078 124.97923278808594" stroke-width="2" fill="none" stroke="rgb(0, 0, 0)" stroke-opacity="1.0" stroke-linecap="round" stroke-linejoin="round"/>
    <path d="M 50.68943786621094 130.31396484375 C 22.36629295349121 160.2802734375 134.60682678222656 144.5690460205078 172.9066619873047 148.0113983154297" stroke-width="2" fill="none" stroke="rgb(0, 0, 0)" stroke-opacity="1.0" stroke-linecap="round" stroke-linejoin="round"/>
    <path d="M 175.69602966308594 104.83912658691406 C 128.99143981933594 102.17564392089844 207.8947296142578 85.1647720336914 171.3822479248047 134.03709411621094" stroke-width="2" fill="none" stroke="rgb(0, 0, 0)" stroke-opacity="1.0" stroke-linecap="round" stroke-linejoin="round"/>
    <path d="M 125.88790893554688 107.79026794433594 C 152.28231811523438 102.58761596679688 127.07096862792969 93.76634216308594 116.13003540039062 106.43833923339844" stroke-width="2" fill="none" stroke="rgb(0, 0, 0)" stroke-opacity="1.0" stroke-linecap="round" stroke-linejoin="round"/>
    <path d="M 188.8734893798828 57.797969818115234 C 180.77232360839844 120.91690826416016 167.4657745361328 53.41716003417969 175.05087280273438 105.0156021118164" stroke-width="2" fill="none" stroke="rgb(0, 0, 0)" stroke-opacity="1.0" stroke-linecap="round" stroke-linejoin="round"/>
    <path d="M 160.00534057617188 123.1745376586914 C 68.3486328125 121.14839172363281 137.48683166503906 142.43418884277344 158.20848083496094 138.93443298339844" stroke-width="2" fill="none" stroke="rgb(0, 0, 0)" stroke-opacity="1.0" stroke-linecap="round" stroke-linejoin="round"/>
    <path d="M 112.45263671875 105.84491729736328 C 94.19357299804688 84.07678985595703 102.07301330566406 99.01171875 97.79801940917969 116.26104736328125" stroke-width="2" fill="none" stroke="rgb(0, 0, 0)" stroke-opacity="1.0" stroke-linecap="round" stroke-linejoin="round"/>
    <path d="M 107.4739761352539 114.5866470336914 C 115.45389556884766 77.07215881347656 117.2382583618164 132.83029174804688 106.01946258544922 66.32440948486328" stroke-width="2" fill="none" stroke="rgb(0, 0, 0)" stroke-opacity="1.0" stroke-linecap="round" stroke-linejoin="round"/>
    <path d="M 186.2211151123047 48.20275115966797 C 203.063720703125 168.62313842773438 141.6123046875 106.17605590820312 166.19143676757812 110.84085083007812" stroke-width="2" fill="none" stroke="rgb(0, 0, 0)" stroke-opacity="1.0" stroke-linecap="round" stroke-linejoin="round"/>
    <path d="M 124.5999755859375 91.65498352050781 C 82.08609771728516 24.882022857666016 104.85567474365234 108.1622085571289 116.73854064941406 121.76602935791016" stroke-width="2" fill="none" stroke="rgb(0, 0, 0)" stroke-opacity="1.0" stroke-linecap="round" stroke-linejoin="round"/>
    <path d="M 56.909420013427734 146.35238647460938 C 37.728736877441406 131.1071014404297 41.11172866821289 82.89906311035156 96.59497833251953 84.03252410888672" stroke-width="2" fill="none" stroke="rgb(0, 0, 0)" stroke-opacity="1.0" stroke-linecap="round" stroke-linejoin="round"/>
  </g>
</svg>
