<?xml version="1.0" ?>
<svg xmlns="http://www.w3.org/2000/svg" version="1.1" width="224" height="224">
  <defs/>
  <g>
    <path d="M 61.76767349243164 136.6517791748047 C 122.57662200927734 146.39561462402344 78.47696685791016 110.97688293457031 60.05801773071289 125.99935913085938" stroke-width="2" fill="none" stroke="rgb(0, 0, 0)" stroke-opacity="1.0" stroke-linecap="round" stroke-linejoin="round"/>
    <path d="M 110.8678207397461 137.10101318359375 C 60.1651611328125 106.93640899658203 173.8823699951172 121.48725891113281 113.20176696777344 114.08492279052734" stroke-width="2" fill="none" stroke="rgb(0, 0, 0)" stroke-opacity="1.0" stroke-linecap="round" stroke-linejoin="round"/>
    <path d="M 150.34219360351562 129.45750427246094 C 179.59080505371094 119.74113464355469 71.5147705078125 161.33993530273438 81.841796875 105.20951843261719" stroke-width="2" fill="none" stroke="rgb(0, 0, 0)" stroke-opacity="1.0" stroke-linecap="round" stroke-linejoin="round"/>
    <path d="M 77.98499298095703 137.79867553710938 C 221.1330108642578 175.46517944335938 169.90878295898438 131.96633911132812 168.7800750732422 100.92324829101562" stroke-width="2" fill="none" stroke="rgb(0, 0, 0)" stroke-opacity="1.0" stroke-linecap="round" stroke-linejoin="round"/>
    <path d="M 182.75990295410156 60.35128402709961 C 180.79635620117188 55.3517951965332 155.58363342285156 89.80221557617188 151.1785125732422 79.97917938232422" stroke-width="2" fill="none" stroke="rgb(0, 0, 0)" stroke-opacity="1.0" stroke-linecap="round" stroke-linejoin="round"/>
    <path d="M 110.79505157470703 108.27224731445312 C 213.9156951904297 112.51102447509766 29.03357696533203 104.13929748535156 154.86721801757812 116.82750701904297" stroke-width="2" fill="none" stroke="rgb(0, 0, 0)" stroke-opacity="1.0" stroke-linecap="round" stroke-linejoin="round"/>
    <path d="M 53.199398040771484 111.30221557617188 C -1.4123408794403076 166.11865234375 104.5129165649414 155.7704315185547 151.1529998779297 146.59725952148438" stroke-width="2" fill="none" stroke="rgb(0, 0, 0)" stroke-opacity="1.0" stroke-linecap="round" stroke-linejoin="round"/>
    <path d="M 169.72979736328125 132.17710876464844 C 85.65296173095703 121.54654693603516 215.10296630859375 101.24864196777344 105.14725494384766 110.9166259765625" stroke-width="2" fill="none" stroke="rgb(0, 0, 0)" stroke-opacity="1.0" stroke-linecap="round" stroke-linejoin="round"/>
    <path d="M 109.63896942138672 113.3099365234375 C 142.5544891357422 136.27346801757812 172.67979431152344 98.09971618652344 104.9709243774414 115.0648193359375" stroke-width="2" fill="none" stroke="rgb(0, 0, 0)" stroke-opacity="1.0" stroke-linecap="round" stroke-linejoin="round"/>
    <path d="M 178.0487823486328 65.87653350830078 C 157.1078643798828 134.1646270751953 142.235595703125 57.47817611694336 160.61953735351562 107.4789810180664" stroke-width="2" fill="none" stroke="rgb(0, 0, 0)" stroke-opacity="1.0" stroke-linecap="round" stroke-linejoin="round"/>
    <path d="M 159.8756561279297 143.61175537109375 C 22.190092086791992 154.44650268554688 66.46683502197266 133.52845764160156 90.6422348022461 146.5442352294922" stroke-width="2" fill="none" stroke="rgb(0, 0, 0)" stroke-opacity="1.0" stroke-linecap="round" stroke-linejoin="round"/>
    <path d="M 96.66268920898438 89.80634307861328 C 25.6253719329834 94.0024185180664 50.89900588989258 125.06035614013672 44.85089111328125 114.13188934326172" stroke-width="2" fill="none" stroke="rgb(0, 0, 0)" stroke-opacity="1.0" stroke-linecap="round" stroke-linejoin="round"/>
    <path d="M 146.02438354492188 97.59439849853516 C 120.7918701171875 67.23133850097656 136.69906616210938 103.34295654296875 106.2764663696289 61.585479736328125" stroke-width="2" fill="none" stroke="rgb(0, 0, 0)" stroke-opacity="1.0" stroke-linecap="round" stroke-linejoin="round"/>
    <path d="M 184.05584716796875 64.28308868408203 C 172.7248992919922 174.21035766601562 90.58771514892578 128.04525756835938 150.72427368164062 143.19873046875" stroke-width="2" fill="none" stroke="rgb(0, 0, 0)" stroke-opacity="1.0" stroke-linecap="round" stroke-linejoin="round"/>
    <path d="M 109.8036117553711 92.1931381225586 C 99.48167419433594 18.914613723754883 94.91848754882812 127.78063201904297 103.94750213623047 97.55192565917969" stroke-width="2" fill="none" stroke="rgb(0, 0, 0)" stroke-opacity="1.0" stroke-linecap="round" stroke-linejoin="round"/>
    <path d="M 63.96524429321289 125.87447357177734 C 58.16387939453125 108.46830749511719 26.287195205688477 121.2540054321289 43.671451568603516 124.96038818359375" stroke-width="2" fill="none" stroke="rgb(0, 0, 0)" stroke-opacity="1.0" stroke-linecap="round" stroke-linejoin="round"/>
  </g>
</svg>
