<?xml version="1.0" ?>
<svg xmlns="http://www.w3.org/2000/svg" version="1.1" width="224" height="224">
  <defs/>
  <g>
    <path d="M 70.19966888427734 104.96392059326172 C 36.51174545288086 109.50420379638672 81.04610443115234 100.0400390625 84.0723876953125 124.37704467773438" stroke-width="2" fill="none" stroke="rgb(0, 0, 0)" stroke-opacity="1.0" stroke-linecap="round" stroke-linejoin="round"/>
    <path d="M 136.94293212890625 131.16064453125 C 74.48910522460938 110.53569030761719 166.68943786621094 118.67294311523438 112.24114990234375 122.98347473144531" stroke-width="2" fill="none" stroke="rgb(0, 0, 0)" stroke-opacity="1.0" stroke-linecap="round" stroke-linejoin="round"/>
    <path d="M 145.9974822998047 122.41136169433594 C 203.48681640625 134.9044952392578 82.68415832519531 179.555908203125 113.83699035644531 108.49710845947266" stroke-width="2" fill="none" stroke="rgb(0, 0, 0)" stroke-opacity="1.0" stroke-linecap="round" stroke-linejoin="round"/>
    <path d="M 42.33921432495117 146.68414306640625 C 207.22720336914062 186.6050567626953 188.0714111328125 181.51869201660156 168.96875 110.81976318359375" stroke-width="2" fill="none" stroke="rgb(0, 0, 0)" stroke-opacity="1.0" stroke-linecap="round" stroke-linejoin="round"/>
    <path d="M 189.80624389648438 64.26502990722656 C 172.70184326171875 60.969390869140625 165.32949829101562 98.10789489746094 124.51456451416016 83.28022766113281" stroke-width="2" fill="none" stroke="rgb(0, 0, 0)" stroke-opacity="1.0" stroke-linecap="round" stroke-linejoin="round"/>
    <path d="M 130.418701171875 128.6304473876953 C 169.11700439453125 125.1275405883789 54.94309997558594 147.96749877929688 142.27285766601562 157.71432495117188" stroke-width="2" fill="none" stroke="rgb(0, 0, 0)" stroke-opacity="1.0" stroke-linecap="round" stroke-linejoin="round"/>
    <path d="M 65.33316040039062 117.92561340332031 C 18.377132415771484 166.3928985595703 95.86481475830078 154.16656494140625 109.85559844970703 165.7030029296875" stroke-width="2" fill="none" stroke="rgb(0, 0, 0)" stroke-opacity="1.0" stroke-linecap="round" stroke-linejoin="round"/>
    <path d="M 134.87892150878906 126.31757354736328 C 57.43875503540039 143.41651916503906 228.88587951660156 145.20672607421875 118.25556182861328 134.69029235839844" stroke-width="2" fill="none" stroke="rgb(0, 0, 0)" stroke-opacity="1.0" stroke-linecap="round" stroke-linejoin="round"/>
    <path d="M 86.26895141601562 140.5838623046875 C 107.19650268554688 138.49256896972656 135.64100646972656 158.54319763183594 76.3743896484375 146.19903564453125" stroke-width="2" fill="none" stroke="rgb(0, 0, 0)" stroke-opacity="1.0" stroke-linecap="round" stroke-linejoin="round"/>
    <path d="M 186.76092529296875 65.08287811279297 C 167.31300354003906 108.4741439819336 143.94505310058594 102.08716583251953 170.9329833984375 101.24051666259766" stroke-width="2" fill="none" stroke="rgb(0, 0, 0)" stroke-opacity="1.0" stroke-linecap="round" stroke-linejoin="round"/>
    <path d="M 165.6404571533203 145.22601318359375 C 71.63619995117188 109.77776336669922 117.4320297241211 113.1851577758789 129.34588623046875 132.3087615966797" stroke-width="2" fill="none" stroke="rgb(0, 0, 0)" stroke-opacity="1.0" stroke-linecap="round" stroke-linejoin="round"/>
    <path d="M 115.00688934326172 94.70890808105469 C 32.740055084228516 83.80979919433594 54.94987106323242 134.205810546875 53.67069625854492 116.57569122314453" stroke-width="2" fill="none" stroke="rgb(0, 0, 0)" stroke-opacity="1.0" stroke-linecap="round" stroke-linejoin="round"/>
    <path d="M 160.0956268310547 106.07569122314453 C 124.0726547241211 69.35197448730469 117.5896987915039 143.44093322753906 101.36341094970703 78.1131591796875" stroke-width="2" fill="none" stroke="rgb(0, 0, 0)" stroke-opacity="1.0" stroke-linecap="round" stroke-linejoin="round"/>
    <path d="M 191.1416778564453 65.13172912597656 C 185.84793090820312 157.66925048828125 128.58319091796875 114.83939361572266 157.8416748046875 123.2589111328125" stroke-width="2" fill="none" stroke="rgb(0, 0, 0)" stroke-opacity="1.0" stroke-linecap="round" stroke-linejoin="round"/>
    <path d="M 126.98793029785156 94.93716430664062 C 79.71885681152344 35.27567672729492 114.79427337646484 104.72330474853516 104.51332092285156 107.07122039794922" stroke-width="2" fill="none" stroke="rgb(0, 0, 0)" stroke-opacity="1.0" stroke-linecap="round" stroke-linejoin="round"/>
    <path d="M 61.340267181396484 114.19100189208984 C 56.1191520690918 95.86551666259766 82.78588104248047 104.15424346923828 99.29681396484375 109.40377044677734" stroke-width="2" fill="none" stroke="rgb(0, 0, 0)" stroke-opacity="1.0" stroke-linecap="round" stroke-linejoin="round"/>
  </g>
</svg>
