<?xml version="1.0" ?>
<svg xmlns="http://www.w3.org/2000/svg" version="1.1" width="224" height="224">
  <defs/>
  <g>
    <path d="M 93.75169372558594 127.40628051757812 C 250.9541778564453 167.8842315673828 107.84058380126953 138.8142852783203 108.54679107666016 143.9136199951172" stroke-width="2" fill="none" stroke="rgb(0, 0, 0)" stroke-opacity="1.0" stroke-linecap="round" stroke-linejoin="round"/>
    <path d="M 169.83688354492188 148.015380859375 C 83.06096649169922 146.42605590820312 236.35401916503906 161.23289489746094 109.7676773071289 139.0806427001953" stroke-width="2" fill="none" stroke="rgb(0, 0, 0)" stroke-opacity="1.0" stroke-linecap="round" stroke-linejoin="round"/>
    <path d="M 111.95401763916016 89.91448211669922 C 140.7862091064453 156.8166961669922 104.0141830444336 87.36693572998047 161.58531188964844 114.85960388183594" stroke-width="2" fill="none" stroke="rgb(0, 0, 0)" stroke-opacity="1.0" stroke-linecap="round" stroke-linejoin="round"/>
    <path d="M 69.29950714111328 140.79464721679688 C 241.25399780273438 212.80880737304688 181.9679412841797 76.650146484375 129.27532958984375 96.1489028930664" stroke-width="2" fill="none" stroke="rgb(0, 0, 0)" stroke-opacity="1.0" stroke-linecap="round" stroke-linejoin="round"/>
    <path d="M 175.2903594970703 127.32588958740234 C 154.18348693847656 101.60088348388672 223.12611389160156 101.19831085205078 137.5370330810547 106.53059387207031" stroke-width="2" fill="none" stroke="rgb(0, 0, 0)" stroke-opacity="1.0" stroke-linecap="round" stroke-linejoin="round"/>
    <path d="M 140.91275024414062 124.01976776123047 C 197.45452880859375 141.4877166748047 63.72943878173828 121.53952026367188 148.2641143798828 140.9246826171875" stroke-width="2" fill="none" stroke="rgb(0, 0, 0)" stroke-opacity="1.0" stroke-linecap="round" stroke-linejoin="round"/>
    <path d="M 46.41548538208008 111.0368423461914 C -12.622748374938965 175.5124053955078 194.32765197753906 169.50965881347656 87.84896850585938 142.1839141845703" stroke-width="2" fill="none" stroke="rgb(0, 0, 0)" stroke-opacity="1.0" stroke-linecap="round" stroke-linejoin="round"/>
    <path d="M 171.52842712402344 94.59912872314453 C 201.69070434570312 -4.17534875869751 147.73867797851562 122.79326629638672 157.54937744140625 91.55535125732422" stroke-width="2" fill="none" stroke="rgb(0, 0, 0)" stroke-opacity="1.0" stroke-linecap="round" stroke-linejoin="round"/>
    <path d="M 157.44284057617188 135.91563415527344 C 147.2112579345703 145.99366760253906 127.6125717163086 114.72147369384766 148.77330017089844 144.10888671875" stroke-width="2" fill="none" stroke="rgb(0, 0, 0)" stroke-opacity="1.0" stroke-linecap="round" stroke-linejoin="round"/>
    <path d="M 165.5348663330078 71.03263092041016 C 128.6938934326172 105.10144805908203 121.57691955566406 45.4442253112793 105.79427337646484 57.50074768066406" stroke-width="2" fill="none" stroke="rgb(0, 0, 0)" stroke-opacity="1.0" stroke-linecap="round" stroke-linejoin="round"/>
    <path d="M 117.30467224121094 140.5810089111328 C 150.5204315185547 139.113525390625 181.70098876953125 149.53482055664062 177.3327178955078 155.37542724609375" stroke-width="2" fill="none" stroke="rgb(0, 0, 0)" stroke-opacity="1.0" stroke-linecap="round" stroke-linejoin="round"/>
    <path d="M 97.23248291015625 101.74546813964844 C 100.96907806396484 8.680137634277344 116.95166015625 117.33627319335938 112.96200561523438 98.00666046142578" stroke-width="2" fill="none" stroke="rgb(0, 0, 0)" stroke-opacity="1.0" stroke-linecap="round" stroke-linejoin="round"/>
    <path d="M 49.37108612060547 141.81483459472656 C 202.71566772460938 172.2710418701172 190.86428833007812 150.76058959960938 121.25984191894531 140.64920043945312" stroke-width="2" fill="none" stroke="rgb(0, 0, 0)" stroke-opacity="1.0" stroke-linecap="round" stroke-linejoin="round"/>
    <path d="M 169.5606689453125 157.9666290283203 C 170.24813842773438 122.91127014160156 195.72726440429688 118.68101501464844 182.19065856933594 69.41460418701172" stroke-width="2" fill="none" stroke="rgb(0, 0, 0)" stroke-opacity="1.0" stroke-linecap="round" stroke-linejoin="round"/>
    <path d="M 101.49458312988281 144.6350860595703 C 198.8462677001953 140.12466430664062 175.64036560058594 125.8978271484375 130.85955810546875 143.79461669921875" stroke-width="2" fill="none" stroke="rgb(0, 0, 0)" stroke-opacity="1.0" stroke-linecap="round" stroke-linejoin="round"/>
    <path d="M 43.34571075439453 114.07255554199219 C 41.344322204589844 124.5206069946289 45.18017578125 80.22026824951172 107.06853485107422 95.4887466430664" stroke-width="2" fill="none" stroke="rgb(0, 0, 0)" stroke-opacity="1.0" stroke-linecap="round" stroke-linejoin="round"/>
  </g>
</svg>
