<?xml version="1.0" ?>
<svg xmlns="http://www.w3.org/2000/svg" version="1.1" width="224" height="224">
  <defs/>
  <g>
    <path d="M 81.77222442626953 140.04464721679688 C 195.07618713378906 186.59181213378906 67.12593078613281 168.55516052246094 48.01322937011719 142.9483642578125" stroke-width="2" fill="none" stroke="rgb(0, 0, 0)" stroke-opacity="1.0" stroke-linecap="round" stroke-linejoin="round"/>
    <path d="M 163.5345916748047 150.567138671875 C 27.16324234008789 150.82952880859375 187.3767852783203 165.51239013671875 183.64358520507812 143.7821502685547" stroke-width="2" fill="none" stroke="rgb(0, 0, 0)" stroke-opacity="1.0" stroke-linecap="round" stroke-linejoin="round"/>
    <path d="M 113.18921661376953 132.4200897216797 C 157.7520294189453 113.86881256103516 63.11127471923828 133.73641967773438 154.83058166503906 136.15956115722656" stroke-width="2" fill="none" stroke="rgb(0, 0, 0)" stroke-opacity="1.0" stroke-linecap="round" stroke-linejoin="round"/>
    <path d="M 53.767822265625 142.54168701171875 C 263.56280517578125 204.7324981689453 157.37184143066406 127.5711898803711 180.09637451171875 109.14755249023438" stroke-width="2" fill="none" stroke="rgb(0, 0, 0)" stroke-opacity="1.0" stroke-linecap="round" stroke-linejoin="round"/>
    <path d="M 184.15020751953125 61.24384689331055 C 165.7581787109375 54.875885009765625 153.36863708496094 128.0857391357422 107.40999603271484 76.19273376464844" stroke-width="2" fill="none" stroke="rgb(0, 0, 0)" stroke-opacity="1.0" stroke-linecap="round" stroke-linejoin="round"/>
    <path d="M 135.0402374267578 126.24738311767578 C 205.7450714111328 132.31300354003906 154.45164489746094 110.13945770263672 158.21334838867188 135.39596557617188" stroke-width="2" fill="none" stroke="rgb(0, 0, 0)" stroke-opacity="1.0" stroke-linecap="round" stroke-linejoin="round"/>
    <path d="M 56.844364166259766 109.05098724365234 C -0.3279864490032196 168.6780242919922 181.49215698242188 158.07379150390625 165.76641845703125 137.5805206298828" stroke-width="2" fill="none" stroke="rgb(0, 0, 0)" stroke-opacity="1.0" stroke-linecap="round" stroke-linejoin="round"/>
    <path d="M 166.35800170898438 117.48922729492188 C 163.6048126220703 67.54946899414062 158.01708984375 135.79220581054688 179.72496032714844 62.955814361572266" stroke-width="2" fill="none" stroke="rgb(0, 0, 0)" stroke-opacity="1.0" stroke-linecap="round" stroke-linejoin="round"/>
    <path d="M 148.4376678466797 138.11114501953125 C 177.68312072753906 118.4168930053711 110.06702423095703 126.11749267578125 149.88919067382812 136.80911254882812" stroke-width="2" fill="none" stroke="rgb(0, 0, 0)" stroke-opacity="1.0" stroke-linecap="round" stroke-linejoin="round"/>
    <path d="M 175.82400512695312 84.69869995117188 C 158.04183959960938 139.93972778320312 164.04371643066406 92.07291412353516 129.02804565429688 104.63693237304688" stroke-width="2" fill="none" stroke="rgb(0, 0, 0)" stroke-opacity="1.0" stroke-linecap="round" stroke-linejoin="round"/>
    <path d="M 165.35926818847656 142.4632110595703 C 156.37106323242188 139.9640350341797 213.1131134033203 144.85462951660156 146.80963134765625 120.40918731689453" stroke-width="2" fill="none" stroke="rgb(0, 0, 0)" stroke-opacity="1.0" stroke-linecap="round" stroke-linejoin="round"/>
    <path d="M 121.1088638305664 95.91961669921875 C 72.99327087402344 27.405960083007812 109.10584259033203 121.2394790649414 115.14493560791016 103.489013671875" stroke-width="2" fill="none" stroke="rgb(0, 0, 0)" stroke-opacity="1.0" stroke-linecap="round" stroke-linejoin="round"/>
    <path d="M 120.64897918701172 139.8160858154297 C 180.64959716796875 149.2684326171875 207.38739013671875 162.04727172851562 119.39205932617188 147.87135314941406" stroke-width="2" fill="none" stroke="rgb(0, 0, 0)" stroke-opacity="1.0" stroke-linecap="round" stroke-linejoin="round"/>
    <path d="M 184.4739227294922 63.92413330078125 C 179.77137756347656 173.3516387939453 108.13043212890625 112.8350830078125 154.7919464111328 124.59271240234375" stroke-width="2" fill="none" stroke="rgb(0, 0, 0)" stroke-opacity="1.0" stroke-linecap="round" stroke-linejoin="round"/>
    <path d="M 106.6295394897461 148.46282958984375 C 106.47962188720703 83.8683853149414 88.2969970703125 142.55010986328125 106.5542221069336 104.77436828613281" stroke-width="2" fill="none" stroke="rgb(0, 0, 0)" stroke-opacity="1.0" stroke-linecap="round" stroke-linejoin="round"/>
    <path d="M 59.048423767089844 108.09231567382812 C 76.59444427490234 111.38529205322266 54.112369537353516 93.02874755859375 103.74928283691406 98.37286376953125" stroke-width="2" fill="none" stroke="rgb(0, 0, 0)" stroke-opacity="1.0" stroke-linecap="round" stroke-linejoin="round"/>
  </g>
</svg>
