<?xml version="1.0" ?>
<svg xmlns="http://www.w3.org/2000/svg" version="1.1" width="224" height="224">
  <defs/>
  <g>
    <path d="M 92.11337280273438 116.85256958007812 C 217.8758544921875 151.7455291748047 88.14680480957031 120.38310241699219 145.2325897216797 140.21990966796875" stroke-width="2" fill="none" stroke="rgb(0, 0, 0)" stroke-opacity="1.0" stroke-linecap="round" stroke-linejoin="round"/>
    <path d="M 119.10786437988281 164.19390869140625 C 62.29352569580078 146.6385498046875 238.81199645996094 130.5890655517578 103.53565979003906 127.48635864257812" stroke-width="2" fill="none" stroke="rgb(0, 0, 0)" stroke-opacity="1.0" stroke-linecap="round" stroke-linejoin="round"/>
    <path d="M 106.15837097167969 94.01587677001953 C 76.27886962890625 149.9671630859375 112.82915496826172 73.8017578125 135.0926971435547 143.7605743408203" stroke-width="2" fill="none" stroke="rgb(0, 0, 0)" stroke-opacity="1.0" stroke-linecap="round" stroke-linejoin="round"/>
    <path d="M 66.57913970947266 142.57789611816406 C 227.17149353027344 220.08511352539062 166.2863006591797 82.55040740966797 162.114013671875 96.58847045898438" stroke-width="2" fill="none" stroke="rgb(0, 0, 0)" stroke-opacity="1.0" stroke-linecap="round" stroke-linejoin="round"/>
    <path d="M 151.5852813720703 110.93299102783203 C 100.23944854736328 117.05331420898438 204.87562561035156 126.91775512695312 135.96800231933594 103.96107482910156" stroke-width="2" fill="none" stroke="rgb(0, 0, 0)" stroke-opacity="1.0" stroke-linecap="round" stroke-linejoin="round"/>
    <path d="M 105.23237609863281 130.3645477294922 C 144.4010009765625 135.223876953125 39.178043365478516 120.26589965820312 138.318115234375 125.48330688476562" stroke-width="2" fill="none" stroke="rgb(0, 0, 0)" stroke-opacity="1.0" stroke-linecap="round" stroke-linejoin="round"/>
    <path d="M 83.64581298828125 103.24893951416016 C -0.48833978176116943 145.4214324951172 100.72885131835938 156.50881958007812 52.62519073486328 134.1893310546875" stroke-width="2" fill="none" stroke="rgb(0, 0, 0)" stroke-opacity="1.0" stroke-linecap="round" stroke-linejoin="round"/>
    <path d="M 162.6834716796875 88.71395111083984 C 202.91603088378906 -16.209300994873047 136.73948669433594 125.55148315429688 163.23971557617188 72.45405578613281" stroke-width="2" fill="none" stroke="rgb(0, 0, 0)" stroke-opacity="1.0" stroke-linecap="round" stroke-linejoin="round"/>
    <path d="M 169.16311645507812 154.3312530517578 C 82.19133758544922 147.07247924804688 50.45014953613281 119.84762573242188 147.36575317382812 127.76583862304688" stroke-width="2" fill="none" stroke="rgb(0, 0, 0)" stroke-opacity="1.0" stroke-linecap="round" stroke-linejoin="round"/>
    <path d="M 166.079833984375 67.6156234741211 C 113.39684295654297 115.04421997070312 125.87956237792969 63.41584396362305 99.96865844726562 60.44422912597656" stroke-width="2" fill="none" stroke="rgb(0, 0, 0)" stroke-opacity="1.0" stroke-linecap="round" stroke-linejoin="round"/>
    <path d="M 65.23402404785156 116.09725189208984 C 43.19529342651367 155.51686096191406 126.74586486816406 132.13502502441406 162.3249053955078 153.3679962158203" stroke-width="2" fill="none" stroke="rgb(0, 0, 0)" stroke-opacity="1.0" stroke-linecap="round" stroke-linejoin="round"/>
    <path d="M 95.01911163330078 97.08480834960938 C 97.5855712890625 16.900238037109375 98.3154067993164 104.1709213256836 118.7269287109375 95.83058166503906" stroke-width="2" fill="none" stroke="rgb(0, 0, 0)" stroke-opacity="1.0" stroke-linecap="round" stroke-linejoin="round"/>
    <path d="M 43.086326599121094 137.99969482421875 C 172.8178253173828 151.30746459960938 179.87779235839844 142.05178833007812 95.55390167236328 147.1748809814453" stroke-width="2" fill="none" stroke="rgb(0, 0, 0)" stroke-opacity="1.0" stroke-linecap="round" stroke-linejoin="round"/>
    <path d="M 156.69725036621094 142.44711303710938 C 146.77500915527344 117.7901840209961 185.9701690673828 103.07889556884766 176.87950134277344 52.6970329284668" stroke-width="2" fill="none" stroke="rgb(0, 0, 0)" stroke-opacity="1.0" stroke-linecap="round" stroke-linejoin="round"/>
    <path d="M 101.16716003417969 122.29950714111328 C 155.565185546875 128.4408416748047 152.7733917236328 149.43923950195312 133.7818603515625 121.43167114257812" stroke-width="2" fill="none" stroke="rgb(0, 0, 0)" stroke-opacity="1.0" stroke-linecap="round" stroke-linejoin="round"/>
    <path d="M 71.83429718017578 105.11395263671875 C 82.55882263183594 183.5881805419922 88.67233276367188 103.36836242675781 124.29202270507812 118.77397155761719" stroke-width="2" fill="none" stroke="rgb(0, 0, 0)" stroke-opacity="1.0" stroke-linecap="round" stroke-linejoin="round"/>
  </g>
</svg>
