<?xml version="1.0" ?>
<svg xmlns="http://www.w3.org/2000/svg" version="1.1" width="224" height="224">
  <defs/>
  <g>
    <path d="M 76.3001708984375 140.2686004638672 C 173.9190216064453 152.2052001953125 54.26409149169922 145.93722534179688 38.258018493652344 137.54998779296875" stroke-width="2" fill="none" stroke="rgb(0, 0, 0)" stroke-opacity="1.0" stroke-linecap="round" stroke-linejoin="round"/>
    <path d="M 144.17079162597656 113.37973022460938 C 69.77717590332031 109.03716278076172 191.38119506835938 134.60707092285156 134.16941833496094 127.44197082519531" stroke-width="2" fill="none" stroke="rgb(0, 0, 0)" stroke-opacity="1.0" stroke-linecap="round" stroke-linejoin="round"/>
    <path d="M 153.51365661621094 110.61019134521484 C 199.33555603027344 99.55467987060547 66.25982666015625 151.1470184326172 66.42405700683594 122.5894546508789" stroke-width="2" fill="none" stroke="rgb(0, 0, 0)" stroke-opacity="1.0" stroke-linecap="round" stroke-linejoin="round"/>
    <path d="M 67.99981689453125 150.17564392089844 C 230.7428436279297 189.71473693847656 134.57162475585938 114.67932891845703 175.63461303710938 93.5434341430664" stroke-width="2" fill="none" stroke="rgb(0, 0, 0)" stroke-opacity="1.0" stroke-linecap="round" stroke-linejoin="round"/>
    <path d="M 180.9252166748047 53.60121154785156 C 164.34230041503906 50.42703628540039 155.7008056640625 108.51192474365234 117.26445007324219 74.15365600585938" stroke-width="2" fill="none" stroke="rgb(0, 0, 0)" stroke-opacity="1.0" stroke-linecap="round" stroke-linejoin="round"/>
    <path d="M 132.4907989501953 122.3377914428711 C 207.76280212402344 130.34613037109375 52.44573974609375 96.71050262451172 165.15115356445312 120.29747772216797" stroke-width="2" fill="none" stroke="rgb(0, 0, 0)" stroke-opacity="1.0" stroke-linecap="round" stroke-linejoin="round"/>
    <path d="M 46.15530014038086 115.41194915771484 C 5.6235151290893555 176.22181701660156 116.39031982421875 153.43125915527344 139.02212524414062 156.93307495117188" stroke-width="2" fill="none" stroke="rgb(0, 0, 0)" stroke-opacity="1.0" stroke-linecap="round" stroke-linejoin="round"/>
    <path d="M 158.80918884277344 101.89020538330078 C 117.81279754638672 93.7562255859375 185.3850555419922 93.49295806884766 169.59481811523438 127.52436828613281" stroke-width="2" fill="none" stroke="rgb(0, 0, 0)" stroke-opacity="1.0" stroke-linecap="round" stroke-linejoin="round"/>
    <path d="M 126.94009399414062 109.9594497680664 C 166.6678466796875 115.7332992553711 133.85194396972656 98.25431060791016 122.64895629882812 107.5241928100586" stroke-width="2" fill="none" stroke="rgb(0, 0, 0)" stroke-opacity="1.0" stroke-linecap="round" stroke-linejoin="round"/>
    <path d="M 178.44058227539062 55.63214874267578 C 164.58160400390625 115.3989486694336 156.67330932617188 61.83924102783203 169.94253540039062 96.98047637939453" stroke-width="2" fill="none" stroke="rgb(0, 0, 0)" stroke-opacity="1.0" stroke-linecap="round" stroke-linejoin="round"/>
    <path d="M 165.82968139648438 115.78006744384766 C 79.05049896240234 119.19734191894531 121.11882781982422 148.45193481445312 154.75985717773438 147.1669464111328" stroke-width="2" fill="none" stroke="rgb(0, 0, 0)" stroke-opacity="1.0" stroke-linecap="round" stroke-linejoin="round"/>
    <path d="M 117.96029663085938 85.62397766113281 C 91.18344116210938 78.12644958496094 115.65471649169922 92.80521392822266 107.15048217773438 120.6364517211914" stroke-width="2" fill="none" stroke="rgb(0, 0, 0)" stroke-opacity="1.0" stroke-linecap="round" stroke-linejoin="round"/>
    <path d="M 104.49063110351562 120.52685546875 C 128.55735778808594 67.0771713256836 112.9854736328125 132.60736083984375 99.42264556884766 77.46595764160156" stroke-width="2" fill="none" stroke="rgb(0, 0, 0)" stroke-opacity="1.0" stroke-linecap="round" stroke-linejoin="round"/>
    <path d="M 181.66624450683594 56.655818939208984 C 170.81414794921875 163.201171875 143.42578125 126.10700225830078 163.93373107910156 134.3184814453125" stroke-width="2" fill="none" stroke="rgb(0, 0, 0)" stroke-opacity="1.0" stroke-linecap="round" stroke-linejoin="round"/>
    <path d="M 121.13231658935547 96.13481903076172 C 79.6220474243164 10.430557250976562 93.74413299560547 107.84129333496094 105.41207885742188 117.66072082519531" stroke-width="2" fill="none" stroke="rgb(0, 0, 0)" stroke-opacity="1.0" stroke-linecap="round" stroke-linejoin="round"/>
    <path d="M 69.2302017211914 118.4469985961914 C 38.09646224975586 136.3721923828125 34.481571197509766 81.8531494140625 96.70899963378906 107.50104522705078" stroke-width="2" fill="none" stroke="rgb(0, 0, 0)" stroke-opacity="1.0" stroke-linecap="round" stroke-linejoin="round"/>
  </g>
</svg>
