<?xml version="1.0" ?>
<svg xmlns="http://www.w3.org/2000/svg" version="1.1" width="224" height="224">
  <defs/>
  <g>
    <path d="M 77.12278747558594 148.81761169433594 C 173.30044555664062 152.36343383789062 64.63663482666016 162.48379516601562 75.75386810302734 128.44998168945312" stroke-width="2" fill="none" stroke="rgb(0, 0, 0)" stroke-opacity="1.0" stroke-linecap="round" stroke-linejoin="round"/>
    <path d="M 170.137939453125 120.22838592529297 C 142.61953735351562 116.73331451416016 242.6602325439453 151.30690002441406 90.45526123046875 131.297119140625" stroke-width="2" fill="none" stroke="rgb(0, 0, 0)" stroke-opacity="1.0" stroke-linecap="round" stroke-linejoin="round"/>
    <path d="M 107.31232452392578 135.37368774414062 C 161.56536865234375 123.43892669677734 46.57826232910156 105.64378356933594 163.08517456054688 151.1826171875" stroke-width="2" fill="none" stroke="rgb(0, 0, 0)" stroke-opacity="1.0" stroke-linecap="round" stroke-linejoin="round"/>
    <path d="M 84.21000671386719 147.25906372070312 C 232.44677734375 183.00831604003906 162.77781677246094 108.8478775024414 176.1333770751953 125.41654968261719" stroke-width="2" fill="none" stroke="rgb(0, 0, 0)" stroke-opacity="1.0" stroke-linecap="round" stroke-linejoin="round"/>
    <path d="M 171.53622436523438 64.38056945800781 C 130.15328979492188 106.4067611694336 176.44834899902344 86.92095947265625 110.19367218017578 99.04788970947266" stroke-width="2" fill="none" stroke="rgb(0, 0, 0)" stroke-opacity="1.0" stroke-linecap="round" stroke-linejoin="round"/>
    <path d="M 142.62745666503906 147.63442993164062 C 144.1818084716797 146.4273681640625 3.2081563472747803 125.73009490966797 158.64842224121094 131.92408752441406" stroke-width="2" fill="none" stroke="rgb(0, 0, 0)" stroke-opacity="1.0" stroke-linecap="round" stroke-linejoin="round"/>
    <path d="M 46.60996627807617 112.87559509277344 C 10.577508926391602 173.16221618652344 169.9011993408203 147.08863830566406 132.42776489257812 136.8272247314453" stroke-width="2" fill="none" stroke="rgb(0, 0, 0)" stroke-opacity="1.0" stroke-linecap="round" stroke-linejoin="round"/>
    <path d="M 171.94448852539062 149.6640167236328 C 205.67788696289062 -34.5163688659668 158.1646270751953 116.18785095214844 166.9573516845703 112.19860076904297" stroke-width="2" fill="none" stroke="rgb(0, 0, 0)" stroke-opacity="1.0" stroke-linecap="round" stroke-linejoin="round"/>
    <path d="M 93.81082153320312 102.36788940429688 C 117.41325378417969 147.9474334716797 58.633094787597656 114.75466918945312 133.81614685058594 126.04528045654297" stroke-width="2" fill="none" stroke="rgb(0, 0, 0)" stroke-opacity="1.0" stroke-linecap="round" stroke-linejoin="round"/>
    <path d="M 165.49302673339844 72.6041259765625 C 152.2748565673828 152.59658813476562 105.94984436035156 63.22264099121094 105.79786682128906 65.53894805908203" stroke-width="2" fill="none" stroke="rgb(0, 0, 0)" stroke-opacity="1.0" stroke-linecap="round" stroke-linejoin="round"/>
    <path d="M 153.38633728027344 101.71781158447266 C 181.40879821777344 116.1333999633789 179.48968505859375 161.2632293701172 130.83438110351562 153.602294921875" stroke-width="2" fill="none" stroke="rgb(0, 0, 0)" stroke-opacity="1.0" stroke-linecap="round" stroke-linejoin="round"/>
    <path d="M 91.81326293945312 105.41011810302734 C 104.19468688964844 -10.085992813110352 111.83978271484375 127.59813690185547 107.83833312988281 91.33377838134766" stroke-width="2" fill="none" stroke="rgb(0, 0, 0)" stroke-opacity="1.0" stroke-linecap="round" stroke-linejoin="round"/>
    <path d="M 94.32339477539062 125.97257232666016 C 132.5222930908203 147.34706115722656 120.3175277709961 151.3566436767578 87.03056335449219 140.34640502929688" stroke-width="2" fill="none" stroke="rgb(0, 0, 0)" stroke-opacity="1.0" stroke-linecap="round" stroke-linejoin="round"/>
    <path d="M 179.06809997558594 91.4140625 C 161.31593322753906 134.02377319335938 177.2179718017578 60.68289566040039 172.83016967773438 90.32644653320312" stroke-width="2" fill="none" stroke="rgb(0, 0, 0)" stroke-opacity="1.0" stroke-linecap="round" stroke-linejoin="round"/>
    <path d="M 123.73750305175781 147.36817932128906 C 224.880615234375 153.79965209960938 108.39643096923828 135.42990112304688 109.67633056640625 125.33417510986328" stroke-width="2" fill="none" stroke="rgb(0, 0, 0)" stroke-opacity="1.0" stroke-linecap="round" stroke-linejoin="round"/>
    <path d="M 47.85691452026367 107.07197570800781 C 57.29594421386719 120.8732681274414 31.722305297851562 88.56502532958984 93.20064544677734 90.80474090576172" stroke-width="2" fill="none" stroke="rgb(0, 0, 0)" stroke-opacity="1.0" stroke-linecap="round" stroke-linejoin="round"/>
  </g>
</svg>
