<?xml version="1.0" ?>
<svg xmlns="http://www.w3.org/2000/svg" version="1.1" width="224" height="224">
  <defs/>
  <g>
    <path d="M 40.793785095214844 139.98985290527344 C 110.1549301147461 153.16445922851562 53.58954620361328 147.7153778076172 64.11613464355469 119.67972564697266" stroke-width="2" fill="none" stroke="rgb(0, 0, 0)" stroke-opacity="1.0" stroke-linecap="round" stroke-linejoin="round"/>
    <path d="M 125.86502838134766 134.9483184814453 C 85.25928497314453 101.81900787353516 173.87890625 132.4771270751953 115.3275146484375 117.47550201416016" stroke-width="2" fill="none" stroke="rgb(0, 0, 0)" stroke-opacity="1.0" stroke-linecap="round" stroke-linejoin="round"/>
    <path d="M 149.7320098876953 116.09780883789062 C 199.41531372070312 115.62288665771484 78.91773986816406 137.0254669189453 74.8909683227539 106.43234252929688" stroke-width="2" fill="none" stroke="rgb(0, 0, 0)" stroke-opacity="1.0" stroke-linecap="round" stroke-linejoin="round"/>
    <path d="M 82.39794158935547 130.88856506347656 C 243.2686309814453 182.08004760742188 143.45834350585938 122.4902114868164 175.59152221679688 94.017333984375" stroke-width="2" fill="none" stroke="rgb(0, 0, 0)" stroke-opacity="1.0" stroke-linecap="round" stroke-linejoin="round"/>
    <path d="M 182.4808807373047 61.79206848144531 C 179.24244689941406 49.395729064941406 160.07089233398438 100.63653564453125 122.42823791503906 85.21920013427734" stroke-width="2" fill="none" stroke="rgb(0, 0, 0)" stroke-opacity="1.0" stroke-linecap="round" stroke-linejoin="round"/>
    <path d="M 146.81646728515625 121.17009735107422 C 219.15318298339844 151.15513610839844 38.98126983642578 103.88177490234375 127.38831329345703 128.05653381347656" stroke-width="2" fill="none" stroke="rgb(0, 0, 0)" stroke-opacity="1.0" stroke-linecap="round" stroke-linejoin="round"/>
    <path d="M 44.72075271606445 103.93638610839844 C -0.6617233157157898 156.6842803955078 132.446044921875 165.77342224121094 168.9855194091797 156.02711486816406" stroke-width="2" fill="none" stroke="rgb(0, 0, 0)" stroke-opacity="1.0" stroke-linecap="round" stroke-linejoin="round"/>
    <path d="M 168.52647399902344 101.4993667602539 C 106.4979019165039 95.55062866210938 209.75401306152344 97.41001892089844 134.71127319335938 132.09458923339844" stroke-width="2" fill="none" stroke="rgb(0, 0, 0)" stroke-opacity="1.0" stroke-linecap="round" stroke-linejoin="round"/>
    <path d="M 114.11599731445312 112.2233657836914 C 155.14895629882812 132.32293701171875 147.9856719970703 104.96357727050781 117.19763946533203 120.69171905517578" stroke-width="2" fill="none" stroke="rgb(0, 0, 0)" stroke-opacity="1.0" stroke-linecap="round" stroke-linejoin="round"/>
    <path d="M 182.01695251464844 61.01731872558594 C 163.54698181152344 125.64928436279297 135.47938537597656 68.83961486816406 164.56248474121094 98.31390380859375" stroke-width="2" fill="none" stroke="rgb(0, 0, 0)" stroke-opacity="1.0" stroke-linecap="round" stroke-linejoin="round"/>
    <path d="M 136.8502960205078 136.36178588867188 C 35.79795837402344 132.0326385498047 98.84713745117188 146.32701110839844 109.29894256591797 142.2501678466797" stroke-width="2" fill="none" stroke="rgb(0, 0, 0)" stroke-opacity="1.0" stroke-linecap="round" stroke-linejoin="round"/>
    <path d="M 99.29108428955078 92.4696273803711 C 53.21369171142578 92.2266616821289 54.24184036254883 110.37879943847656 64.43257141113281 94.43125915527344" stroke-width="2" fill="none" stroke="rgb(0, 0, 0)" stroke-opacity="1.0" stroke-linecap="round" stroke-linejoin="round"/>
    <path d="M 114.95454406738281 91.02776336669922 C 129.3280029296875 80.41166687011719 122.38725280761719 104.91683959960938 104.96427154541016 68.42719268798828" stroke-width="2" fill="none" stroke="rgb(0, 0, 0)" stroke-opacity="1.0" stroke-linecap="round" stroke-linejoin="round"/>
    <path d="M 186.47604370117188 66.37155151367188 C 179.05441284179688 174.39236450195312 115.42445373535156 102.70344543457031 168.65234375 120.13470458984375" stroke-width="2" fill="none" stroke="rgb(0, 0, 0)" stroke-opacity="1.0" stroke-linecap="round" stroke-linejoin="round"/>
    <path d="M 112.97447967529297 79.5079116821289 C 86.44925689697266 34.830867767333984 105.57500457763672 118.8740463256836 104.89105987548828 94.40015411376953" stroke-width="2" fill="none" stroke="rgb(0, 0, 0)" stroke-opacity="1.0" stroke-linecap="round" stroke-linejoin="round"/>
    <path d="M 31.641958236694336 134.78564453125 C 21.965621948242188 111.5523452758789 36.085750579833984 86.64916229248047 82.89043426513672 96.3516845703125" stroke-width="2" fill="none" stroke="rgb(0, 0, 0)" stroke-opacity="1.0" stroke-linecap="round" stroke-linejoin="round"/>
  </g>
</svg>
