<?xml version="1.0" ?>
<svg xmlns="http://www.w3.org/2000/svg" version="1.1" width="224" height="224">
  <defs/>
  <g>
    <path d="M 70.9822998046875 96.22168731689453 C 25.866649627685547 124.44822692871094 104.27507781982422 101.02916717529297 90.039306640625 127.10957336425781" stroke-width="2" fill="none" stroke="rgb(0, 0, 0)" stroke-opacity="1.0" stroke-linecap="round" stroke-linejoin="round"/>
    <path d="M 124.57473754882812 126.6960220336914 C 45.655670166015625 111.0643081665039 113.05169677734375 133.20272827148438 76.46654510498047 117.70606994628906" stroke-width="2" fill="none" stroke="rgb(0, 0, 0)" stroke-opacity="1.0" stroke-linecap="round" stroke-linejoin="round"/>
    <path d="M 135.46372985839844 128.01832580566406 C 250.26502990722656 145.0687713623047 84.90626525878906 164.99688720703125 105.03682708740234 100.04036712646484" stroke-width="2" fill="none" stroke="rgb(0, 0, 0)" stroke-opacity="1.0" stroke-linecap="round" stroke-linejoin="round"/>
    <path d="M 48.34408950805664 143.91334533691406 C 205.2362518310547 177.67930603027344 184.47512817382812 170.10784912109375 159.81735229492188 105.06315612792969" stroke-width="2" fill="none" stroke="rgb(0, 0, 0)" stroke-opacity="1.0" stroke-linecap="round" stroke-linejoin="round"/>
    <path d="M 186.604736328125 62.37858963012695 C 168.30796813964844 66.8512954711914 175.6125030517578 97.11180114746094 130.4702606201172 86.23192596435547" stroke-width="2" fill="none" stroke="rgb(0, 0, 0)" stroke-opacity="1.0" stroke-linecap="round" stroke-linejoin="round"/>
    <path d="M 130.78372192382812 112.27344512939453 C 190.3502960205078 149.06483459472656 102.47160339355469 130.3452911376953 149.1341094970703 134.1454620361328" stroke-width="2" fill="none" stroke="rgb(0, 0, 0)" stroke-opacity="1.0" stroke-linecap="round" stroke-linejoin="round"/>
    <path d="M 56.230220794677734 104.9663314819336 C 9.421667098999023 168.90548706054688 84.72187042236328 159.9088134765625 119.46719360351562 162.79776000976562" stroke-width="2" fill="none" stroke="rgb(0, 0, 0)" stroke-opacity="1.0" stroke-linecap="round" stroke-linejoin="round"/>
    <path d="M 152.63548278808594 118.01373291015625 C 65.00941467285156 115.84918212890625 230.60577392578125 125.7655258178711 109.83377838134766 133.20584106445312" stroke-width="2" fill="none" stroke="rgb(0, 0, 0)" stroke-opacity="1.0" stroke-linecap="round" stroke-linejoin="round"/>
    <path d="M 98.46728515625 142.00994873046875 C 40.47980499267578 124.74683380126953 83.32596588134766 149.5955352783203 42.00405502319336 135.19528198242188" stroke-width="2" fill="none" stroke="rgb(0, 0, 0)" stroke-opacity="1.0" stroke-linecap="round" stroke-linejoin="round"/>
    <path d="M 187.41212463378906 62.1634407043457 C 167.53848266601562 112.43507385253906 155.8438262939453 99.71263885498047 176.84951782226562 99.10912322998047" stroke-width="2" fill="none" stroke="rgb(0, 0, 0)" stroke-opacity="1.0" stroke-linecap="round" stroke-linejoin="round"/>
    <path d="M 157.7115936279297 153.75486755371094 C 64.08281707763672 139.35105895996094 93.68827056884766 152.5333251953125 120.56974029541016 162.49203491210938" stroke-width="2" fill="none" stroke="rgb(0, 0, 0)" stroke-opacity="1.0" stroke-linecap="round" stroke-linejoin="round"/>
    <path d="M 97.1963119506836 95.00041961669922 C 30.86896324157715 90.91942596435547 68.808837890625 130.99267578125 59.08576202392578 118.9229965209961" stroke-width="2" fill="none" stroke="rgb(0, 0, 0)" stroke-opacity="1.0" stroke-linecap="round" stroke-linejoin="round"/>
    <path d="M 171.56430053710938 106.26299285888672 C 98.53204345703125 52.5814323425293 126.96149444580078 145.85958862304688 110.04996490478516 76.30805206298828" stroke-width="2" fill="none" stroke="rgb(0, 0, 0)" stroke-opacity="1.0" stroke-linecap="round" stroke-linejoin="round"/>
    <path d="M 188.88644409179688 62.84966278076172 C 187.3477783203125 129.74705505371094 148.89263916015625 135.9280242919922 167.47340393066406 114.04989624023438" stroke-width="2" fill="none" stroke="rgb(0, 0, 0)" stroke-opacity="1.0" stroke-linecap="round" stroke-linejoin="round"/>
    <path d="M 121.66546630859375 94.29444885253906 C 88.10346221923828 21.156503677368164 118.55870056152344 127.65377807617188 103.68678283691406 91.72728729248047" stroke-width="2" fill="none" stroke="rgb(0, 0, 0)" stroke-opacity="1.0" stroke-linecap="round" stroke-linejoin="round"/>
    <path d="M 58.75566101074219 121.62919616699219 C 51.76173782348633 96.61113739013672 73.64728546142578 97.29630279541016 73.45537567138672 95.21819305419922" stroke-width="2" fill="none" stroke="rgb(0, 0, 0)" stroke-opacity="1.0" stroke-linecap="round" stroke-linejoin="round"/>
  </g>
</svg>
