<?xml version="1.0" ?>
<svg xmlns="http://www.w3.org/2000/svg" version="1.1" width="224" height="224">
  <defs/>
  <g>
    <path d="M 71.51498413085938 155.02066040039062 C 158.26930236816406 162.8647918701172 30.07912254333496 155.69915771484375 49.392372131347656 98.66673278808594" stroke-width="2" fill="none" stroke="rgb(0, 0, 0)" stroke-opacity="1.0" stroke-linecap="round" stroke-linejoin="round"/>
    <path d="M 164.47036743164062 113.04998779296875 C 123.06009674072266 111.03596496582031 254.02926635742188 134.19522094726562 88.05912017822266 142.23716735839844" stroke-width="2" fill="none" stroke="rgb(0, 0, 0)" stroke-opacity="1.0" stroke-linecap="round" stroke-linejoin="round"/>
    <path d="M 100.57608795166016 141.6355743408203 C 172.2223358154297 133.24176025390625 17.79916763305664 104.39965057373047 155.0428924560547 149.26608276367188" stroke-width="2" fill="none" stroke="rgb(0, 0, 0)" stroke-opacity="1.0" stroke-linecap="round" stroke-linejoin="round"/>
    <path d="M 69.1251220703125 150.8451690673828 C 232.22987365722656 189.9879913330078 151.62704467773438 129.8263397216797 160.6445770263672 134.76316833496094" stroke-width="2" fill="none" stroke="rgb(0, 0, 0)" stroke-opacity="1.0" stroke-linecap="round" stroke-linejoin="round"/>
    <path d="M 183.63522338867188 62.44749450683594 C 159.2372283935547 108.43103790283203 181.8502197265625 92.21572875976562 129.1665496826172 101.46512603759766" stroke-width="2" fill="none" stroke="rgb(0, 0, 0)" stroke-opacity="1.0" stroke-linecap="round" stroke-linejoin="round"/>
    <path d="M 134.5441436767578 147.69207763671875 C 199.51414489746094 151.38986206054688 99.33798217773438 156.44895935058594 171.4479217529297 144.93911743164062" stroke-width="2" fill="none" stroke="rgb(0, 0, 0)" stroke-opacity="1.0" stroke-linecap="round" stroke-linejoin="round"/>
    <path d="M 45.29103469848633 105.56187438964844 C -7.857828617095947 180.55148315429688 178.83535766601562 144.76907348632812 169.13243103027344 134.94097900390625" stroke-width="2" fill="none" stroke="rgb(0, 0, 0)" stroke-opacity="1.0" stroke-linecap="round" stroke-linejoin="round"/>
    <path d="M 177.54989624023438 141.01548767089844 C 228.81517028808594 -21.23270034790039 140.5143585205078 117.36414337158203 145.36752319335938 101.53939056396484" stroke-width="2" fill="none" stroke="rgb(0, 0, 0)" stroke-opacity="1.0" stroke-linecap="round" stroke-linejoin="round"/>
    <path d="M 92.51068878173828 115.64527130126953 C 161.3607940673828 146.19512939453125 29.380630493164062 124.82341766357422 111.7684097290039 129.6934051513672" stroke-width="2" fill="none" stroke="rgb(0, 0, 0)" stroke-opacity="1.0" stroke-linecap="round" stroke-linejoin="round"/>
    <path d="M 187.95140075683594 58.08613204956055 C 185.67283630371094 165.78680419921875 111.96195983886719 70.17760467529297 108.07796478271484 70.35862731933594" stroke-width="2" fill="none" stroke="rgb(0, 0, 0)" stroke-opacity="1.0" stroke-linecap="round" stroke-linejoin="round"/>
    <path d="M 136.422607421875 131.0402374267578 C 156.59629821777344 127.50904846191406 162.23402404785156 133.62635803222656 135.5843505859375 131.2185821533203" stroke-width="2" fill="none" stroke="rgb(0, 0, 0)" stroke-opacity="1.0" stroke-linecap="round" stroke-linejoin="round"/>
    <path d="M 121.89193725585938 135.1704864501953 C 86.91129302978516 -5.058099746704102 91.134765625 134.9995880126953 119.85321044921875 99.7752914428711" stroke-width="2" fill="none" stroke="rgb(0, 0, 0)" stroke-opacity="1.0" stroke-linecap="round" stroke-linejoin="round"/>
    <path d="M 82.5782699584961 149.53536987304688 C 125.13719177246094 161.2169189453125 113.81287384033203 144.21205139160156 89.00074768066406 146.7244110107422" stroke-width="2" fill="none" stroke="rgb(0, 0, 0)" stroke-opacity="1.0" stroke-linecap="round" stroke-linejoin="round"/>
    <path d="M 185.25965881347656 110.47754669189453 C 157.06570434570312 156.36659240722656 176.22499084472656 64.35259246826172 187.2034454345703 135.63552856445312" stroke-width="2" fill="none" stroke="rgb(0, 0, 0)" stroke-opacity="1.0" stroke-linecap="round" stroke-linejoin="round"/>
    <path d="M 87.34427642822266 153.696533203125 C 160.53810119628906 161.8402557373047 102.53334045410156 164.37521362304688 122.11225128173828 114.66939544677734" stroke-width="2" fill="none" stroke="rgb(0, 0, 0)" stroke-opacity="1.0" stroke-linecap="round" stroke-linejoin="round"/>
    <path d="M 36.61675262451172 124.74451446533203 C 41.74369812011719 118.76811218261719 29.65083885192871 91.9723892211914 97.45452880859375 86.44072723388672" stroke-width="2" fill="none" stroke="rgb(0, 0, 0)" stroke-opacity="1.0" stroke-linecap="round" stroke-linejoin="round"/>
  </g>
</svg>
