<?xml version="1.0" ?>
<svg xmlns="http://www.w3.org/2000/svg" version="1.1" width="224" height="224">
  <defs/>
  <g>
    <path d="M 91.2393569946289 115.6794204711914 C 42.112815856933594 132.86761474609375 75.0584716796875 98.27912139892578 98.17410278320312 107.49392700195312" stroke-width="2" fill="none" stroke="rgb(0, 0, 0)" stroke-opacity="1.0" stroke-linecap="round" stroke-linejoin="round"/>
    <path d="M 126.92782592773438 136.08657836914062 C 114.19757843017578 135.63272094726562 132.5484619140625 136.3035888671875 110.421875 135.45846557617188" stroke-width="2" fill="none" stroke="rgb(0, 0, 0)" stroke-opacity="1.0" stroke-linecap="round" stroke-linejoin="round"/>
    <path d="M 140.10760498046875 115.15165710449219 C 142.80642700195312 121.82991027832031 104.53153991699219 116.15647888183594 126.94813537597656 104.2413101196289" stroke-width="2" fill="none" stroke="rgb(0, 0, 0)" stroke-opacity="1.0" stroke-linecap="round" stroke-linejoin="round"/>
    <path d="M 111.84241485595703 138.2699737548828 C 154.4839630126953 151.69212341308594 167.47491455078125 139.1905059814453 169.35842895507812 116.28038787841797" stroke-width="2" fill="none" stroke="rgb(0, 0, 0)" stroke-opacity="1.0" stroke-linecap="round" stroke-linejoin="round"/>
    <path d="M 130.9203643798828 98.5914077758789 C 171.68338012695312 101.7341537475586 142.03860473632812 98.16525268554688 106.238037109375 70.6324462890625" stroke-width="2" fill="none" stroke="rgb(0, 0, 0)" stroke-opacity="1.0" stroke-linecap="round" stroke-linejoin="round"/>
    <path d="M 108.72740936279297 103.80389404296875 C 134.66954040527344 101.51097106933594 121.46636199951172 106.52356719970703 109.69906616210938 111.75365447998047" stroke-width="2" fill="none" stroke="rgb(0, 0, 0)" stroke-opacity="1.0" stroke-linecap="round" stroke-linejoin="round"/>
    <path d="M 42.31401824951172 139.05174255371094 C 42.50208282470703 148.36581420898438 79.69380187988281 153.68243408203125 152.68563842773438 152.180419921875" stroke-width="2" fill="none" stroke="rgb(0, 0, 0)" stroke-opacity="1.0" stroke-linecap="round" stroke-linejoin="round"/>
    <path d="M 156.2954559326172 112.55924987792969 C 162.3695068359375 154.30760192871094 148.67193603515625 105.22928619384766 122.68016052246094 119.84430694580078" stroke-width="2" fill="none" stroke="rgb(0, 0, 0)" stroke-opacity="1.0" stroke-linecap="round" stroke-linejoin="round"/>
    <path d="M 156.62734985351562 133.37416076660156 C 135.5753173828125 138.33599853515625 123.18560028076172 145.2797393798828 80.4998779296875 136.9120635986328" stroke-width="2" fill="none" stroke="rgb(0, 0, 0)" stroke-opacity="1.0" stroke-linecap="round" stroke-linejoin="round"/>
    <path d="M 177.4261474609375 68.61616516113281 C 166.0922393798828 124.23246765136719 118.1369400024414 119.44329833984375 179.8956756591797 62.64650344848633" stroke-width="2" fill="none" stroke="rgb(0, 0, 0)" stroke-opacity="1.0" stroke-linecap="round" stroke-linejoin="round"/>
    <path d="M 175.37619018554688 110.53607177734375 C 180.09207153320312 136.90672302246094 185.9456024169922 145.59103393554688 167.98179626464844 151.50845336914062" stroke-width="2" fill="none" stroke="rgb(0, 0, 0)" stroke-opacity="1.0" stroke-linecap="round" stroke-linejoin="round"/>
    <path d="M 67.09180450439453 143.8098907470703 C 34.99655532836914 135.91819763183594 27.749391555786133 132.90623474121094 74.99022674560547 147.42259216308594" stroke-width="2" fill="none" stroke="rgb(0, 0, 0)" stroke-opacity="1.0" stroke-linecap="round" stroke-linejoin="round"/>
    <path d="M 114.77239990234375 108.1473388671875 C 119.91583251953125 95.254150390625 107.33363342285156 99.47510528564453 97.63800048828125 66.53282165527344" stroke-width="2" fill="none" stroke="rgb(0, 0, 0)" stroke-opacity="1.0" stroke-linecap="round" stroke-linejoin="round"/>
    <path d="M 180.2709197998047 59.65754699707031 C 195.56207275390625 113.04242706298828 199.86724853515625 110.50318908691406 182.6082763671875 134.3570556640625" stroke-width="2" fill="none" stroke="rgb(0, 0, 0)" stroke-opacity="1.0" stroke-linecap="round" stroke-linejoin="round"/>
    <path d="M 96.27325439453125 64.79932403564453 C 67.91017150878906 102.4374008178711 84.54264831542969 129.48968505859375 92.3503189086914 85.40072631835938" stroke-width="2" fill="none" stroke="rgb(0, 0, 0)" stroke-opacity="1.0" stroke-linecap="round" stroke-linejoin="round"/>
    <path d="M 44.62338638305664 145.6505126953125 C 39.242919921875 130.9550323486328 44.93009948730469 123.80109405517578 40.57172393798828 135.8221435546875" stroke-width="2" fill="none" stroke="rgb(0, 0, 0)" stroke-opacity="1.0" stroke-linecap="round" stroke-linejoin="round"/>
  </g>
</svg>
