<?xml version="1.0" ?>
<svg xmlns="http://www.w3.org/2000/svg" version="1.1" width="224" height="224">
  <defs/>
  <g>
    <path d="M 68.58464813232422 129.05723571777344 C 11.59468936920166 110.43182373046875 108.92660522460938 84.90830993652344 103.78607177734375 128.110107421875" stroke-width="2" fill="none" stroke="rgb(0, 0, 0)" stroke-opacity="1.0" stroke-linecap="round" stroke-linejoin="round"/>
    <path d="M 143.0977325439453 138.21229553222656 C 110.11956024169922 127.95223999023438 119.32119750976562 127.76525115966797 54.52344512939453 125.46475982666016" stroke-width="2" fill="none" stroke="rgb(0, 0, 0)" stroke-opacity="1.0" stroke-linecap="round" stroke-linejoin="round"/>
    <path d="M 117.50051879882812 110.0208511352539 C 182.28648376464844 118.67452239990234 69.15047454833984 119.67724609375 139.56173706054688 112.05010986328125" stroke-width="2" fill="none" stroke="rgb(0, 0, 0)" stroke-opacity="1.0" stroke-linecap="round" stroke-linejoin="round"/>
    <path d="M 104.61549377441406 154.71876525878906 C 209.05409240722656 154.97119140625 176.8677215576172 167.42294311523438 170.38153076171875 92.1463851928711" stroke-width="2" fill="none" stroke="rgb(0, 0, 0)" stroke-opacity="1.0" stroke-linecap="round" stroke-linejoin="round"/>
    <path d="M 133.1415252685547 87.44994354248047 C 188.2915802001953 84.2139892578125 129.40463256835938 101.55497741699219 116.38228607177734 63.480186462402344" stroke-width="2" fill="none" stroke="rgb(0, 0, 0)" stroke-opacity="1.0" stroke-linecap="round" stroke-linejoin="round"/>
    <path d="M 119.53218841552734 115.55462646484375 C 146.52145385742188 96.68098449707031 142.43736267089844 135.82147216796875 119.35846710205078 113.77403259277344" stroke-width="2" fill="none" stroke="rgb(0, 0, 0)" stroke-opacity="1.0" stroke-linecap="round" stroke-linejoin="round"/>
    <path d="M 54.71644592285156 112.85438537597656 C 13.284422874450684 146.39691162109375 97.89965057373047 139.9217987060547 157.3455047607422 148.71263122558594" stroke-width="2" fill="none" stroke="rgb(0, 0, 0)" stroke-opacity="1.0" stroke-linecap="round" stroke-linejoin="round"/>
    <path d="M 162.3530731201172 110.47649383544922 C 110.17194366455078 102.86859893798828 215.37139892578125 130.63099670410156 123.8691635131836 131.64492797851562" stroke-width="2" fill="none" stroke="rgb(0, 0, 0)" stroke-opacity="1.0" stroke-linecap="round" stroke-linejoin="round"/>
    <path d="M 157.46011352539062 156.160400390625 C 93.16376495361328 150.29823303222656 110.21089935302734 130.32772827148438 85.55257415771484 131.68971252441406" stroke-width="2" fill="none" stroke="rgb(0, 0, 0)" stroke-opacity="1.0" stroke-linecap="round" stroke-linejoin="round"/>
    <path d="M 187.7392578125 59.499183654785156 C 162.84068298339844 114.46991729736328 125.80218505859375 101.86125183105469 181.6205596923828 58.312767028808594" stroke-width="2" fill="none" stroke="rgb(0, 0, 0)" stroke-opacity="1.0" stroke-linecap="round" stroke-linejoin="round"/>
    <path d="M 152.12344360351562 146.95631408691406 C 180.86468505859375 139.2831268310547 195.69021606445312 160.7769317626953 164.721923828125 153.35084533691406" stroke-width="2" fill="none" stroke="rgb(0, 0, 0)" stroke-opacity="1.0" stroke-linecap="round" stroke-linejoin="round"/>
    <path d="M 71.81730651855469 133.6339569091797 C 38.00348663330078 133.97671508789062 21.536365509033203 139.620849609375 79.70929718017578 160.91746520996094" stroke-width="2" fill="none" stroke="rgb(0, 0, 0)" stroke-opacity="1.0" stroke-linecap="round" stroke-linejoin="round"/>
    <path d="M 107.081298828125 98.68800354003906 C 133.80618286132812 81.77361297607422 105.9933853149414 115.16314697265625 104.11465454101562 73.72452545166016" stroke-width="2" fill="none" stroke="rgb(0, 0, 0)" stroke-opacity="1.0" stroke-linecap="round" stroke-linejoin="round"/>
    <path d="M 187.7042999267578 58.846824645996094 C 183.78929138183594 83.4238052368164 165.47537231445312 138.59323120117188 154.171630859375 110.69314575195312" stroke-width="2" fill="none" stroke="rgb(0, 0, 0)" stroke-opacity="1.0" stroke-linecap="round" stroke-linejoin="round"/>
    <path d="M 111.75643920898438 64.4657211303711 C 86.72477722167969 53.863643646240234 94.13591766357422 137.5830841064453 103.44447326660156 90.41545104980469" stroke-width="2" fill="none" stroke="rgb(0, 0, 0)" stroke-opacity="1.0" stroke-linecap="round" stroke-linejoin="round"/>
    <path d="M 40.96699142456055 139.98495483398438 C 45.40587615966797 99.99657440185547 76.18407440185547 105.6998519897461 63.50436782836914 110.06798553466797" stroke-width="2" fill="none" stroke="rgb(0, 0, 0)" stroke-opacity="1.0" stroke-linecap="round" stroke-linejoin="round"/>
  </g>
</svg>
