<?xml version="1.0" ?>
<svg xmlns="http://www.w3.org/2000/svg" version="1.1" width="224" height="224">
  <defs/>
  <g>
    <path d="M 73.19404602050781 128.95115661621094 C 31.006349563598633 134.0654296875 99.19931030273438 77.70454406738281 93.40795135498047 131.94625854492188" stroke-width="2" fill="none" stroke="rgb(0, 0, 0)" stroke-opacity="1.0" stroke-linecap="round" stroke-linejoin="round"/>
    <path d="M 150.1614532470703 134.57513427734375 C 76.26242065429688 139.45506286621094 141.0013427734375 151.0769805908203 97.83750915527344 149.6042938232422" stroke-width="2" fill="none" stroke="rgb(0, 0, 0)" stroke-opacity="1.0" stroke-linecap="round" stroke-linejoin="round"/>
    <path d="M 120.69344329833984 114.18327331542969 C 183.15733337402344 137.5220947265625 72.43466186523438 131.5289764404297 132.9399871826172 109.49185943603516" stroke-width="2" fill="none" stroke="rgb(0, 0, 0)" stroke-opacity="1.0" stroke-linecap="round" stroke-linejoin="round"/>
    <path d="M 88.65939331054688 131.1276397705078 C 181.2924346923828 180.73097229003906 170.91664123535156 152.7036895751953 160.53407287597656 97.57418060302734" stroke-width="2" fill="none" stroke="rgb(0, 0, 0)" stroke-opacity="1.0" stroke-linecap="round" stroke-linejoin="round"/>
    <path d="M 164.5466766357422 70.63642120361328 C 184.16656494140625 65.0947494506836 133.92144775390625 117.60684204101562 110.75102996826172 75.87991333007812" stroke-width="2" fill="none" stroke="rgb(0, 0, 0)" stroke-opacity="1.0" stroke-linecap="round" stroke-linejoin="round"/>
    <path d="M 113.0256118774414 118.825927734375 C 143.8084259033203 105.61448669433594 133.04425048828125 109.84659576416016 113.74575805664062 109.74232482910156" stroke-width="2" fill="none" stroke="rgb(0, 0, 0)" stroke-opacity="1.0" stroke-linecap="round" stroke-linejoin="round"/>
    <path d="M 68.42013549804688 118.6376724243164 C 22.46982765197754 145.52978515625 97.3397445678711 155.69204711914062 139.6800079345703 158.41761779785156" stroke-width="2" fill="none" stroke="rgb(0, 0, 0)" stroke-opacity="1.0" stroke-linecap="round" stroke-linejoin="round"/>
    <path d="M 142.84886169433594 131.80606079101562 C 107.21441650390625 108.70838928222656 216.61727905273438 113.58806610107422 113.53903198242188 120.18052673339844" stroke-width="2" fill="none" stroke="rgb(0, 0, 0)" stroke-opacity="1.0" stroke-linecap="round" stroke-linejoin="round"/>
    <path d="M 152.29800415039062 157.52928161621094 C 92.92607116699219 156.8749237060547 117.08342742919922 147.8555908203125 47.95649337768555 143.94151306152344" stroke-width="2" fill="none" stroke="rgb(0, 0, 0)" stroke-opacity="1.0" stroke-linecap="round" stroke-linejoin="round"/>
    <path d="M 184.6605682373047 59.470703125 C 167.1636199951172 118.0898666381836 129.20069885253906 97.0140151977539 181.56027221679688 61.651100158691406" stroke-width="2" fill="none" stroke="rgb(0, 0, 0)" stroke-opacity="1.0" stroke-linecap="round" stroke-linejoin="round"/>
    <path d="M 164.21896362304688 119.0057144165039 C 131.90086364746094 91.97718811035156 145.234375 128.0635223388672 155.40480041503906 113.12958526611328" stroke-width="2" fill="none" stroke="rgb(0, 0, 0)" stroke-opacity="1.0" stroke-linecap="round" stroke-linejoin="round"/>
    <path d="M 61.60405731201172 125.1110610961914 C 48.72575759887695 130.37518310546875 8.060159683227539 148.06912231445312 112.6992416381836 154.46131896972656" stroke-width="2" fill="none" stroke="rgb(0, 0, 0)" stroke-opacity="1.0" stroke-linecap="round" stroke-linejoin="round"/>
    <path d="M 109.45712280273438 108.48429107666016 C 115.28624725341797 97.64086151123047 125.90294647216797 119.16265106201172 107.00531768798828 73.09557342529297" stroke-width="2" fill="none" stroke="rgb(0, 0, 0)" stroke-opacity="1.0" stroke-linecap="round" stroke-linejoin="round"/>
    <path d="M 184.34512329101562 64.76969909667969 C 187.6170196533203 97.45661926269531 130.82958984375 150.04241943359375 165.5580596923828 121.54883575439453" stroke-width="2" fill="none" stroke="rgb(0, 0, 0)" stroke-opacity="1.0" stroke-linecap="round" stroke-linejoin="round"/>
    <path d="M 106.93912506103516 72.76409912109375 C 92.27322387695312 53.074832916259766 89.62908172607422 141.15771484375 100.02742767333984 106.79261779785156" stroke-width="2" fill="none" stroke="rgb(0, 0, 0)" stroke-opacity="1.0" stroke-linecap="round" stroke-linejoin="round"/>
    <path d="M 45.279685974121094 131.366455078125 C 28.598526000976562 88.4972152709961 79.96602630615234 108.95990753173828 90.73989868164062 99.433837890625" stroke-width="2" fill="none" stroke="rgb(0, 0, 0)" stroke-opacity="1.0" stroke-linecap="round" stroke-linejoin="round"/>
  </g>
</svg>
