<?xml version="1.0" ?>
<svg xmlns="http://www.w3.org/2000/svg" version="1.1" width="224" height="224">
  <defs/>
  <g>
    <path d="M 51.58553695678711 129.70790100097656 C 5.083549976348877 120.77369689941406 93.89620208740234 74.34904479980469 89.9020767211914 127.31754302978516" stroke-width="2" fill="none" stroke="rgb(0, 0, 0)" stroke-opacity="1.0" stroke-linecap="round" stroke-linejoin="round"/>
    <path d="M 150.95899963378906 142.10195922851562 C 105.90211486816406 124.59453582763672 120.28172302246094 153.73130798339844 87.06788635253906 129.40127563476562" stroke-width="2" fill="none" stroke="rgb(0, 0, 0)" stroke-opacity="1.0" stroke-linecap="round" stroke-linejoin="round"/>
    <path d="M 100.42589569091797 109.7925033569336 C 166.3461151123047 119.0167007446289 74.95181274414062 112.91838836669922 122.0751953125 122.02569580078125" stroke-width="2" fill="none" stroke="rgb(0, 0, 0)" stroke-opacity="1.0" stroke-linecap="round" stroke-linejoin="round"/>
    <path d="M 100.2725601196289 143.62448120117188 C 193.64854431152344 155.78347778320312 175.5419921875 162.49391174316406 177.4094696044922 118.65829467773438" stroke-width="2" fill="none" stroke="rgb(0, 0, 0)" stroke-opacity="1.0" stroke-linecap="round" stroke-linejoin="round"/>
    <path d="M 144.79441833496094 106.85926055908203 C 184.7393798828125 80.33048248291016 152.46133422851562 122.0506820678711 106.14745330810547 68.28272247314453" stroke-width="2" fill="none" stroke="rgb(0, 0, 0)" stroke-opacity="1.0" stroke-linecap="round" stroke-linejoin="round"/>
    <path d="M 122.18643951416016 107.41083526611328 C 140.07911682128906 106.22511291503906 129.21304321289062 122.33495330810547 102.34258270263672 118.23649597167969" stroke-width="2" fill="none" stroke="rgb(0, 0, 0)" stroke-opacity="1.0" stroke-linecap="round" stroke-linejoin="round"/>
    <path d="M 49.417510986328125 106.46968078613281 C 16.628398895263672 153.20233154296875 84.70856475830078 162.85313415527344 167.80421447753906 158.41908264160156" stroke-width="2" fill="none" stroke="rgb(0, 0, 0)" stroke-opacity="1.0" stroke-linecap="round" stroke-linejoin="round"/>
    <path d="M 150.264404296875 125.35447692871094 C 116.37521362304688 141.89198303222656 167.7696075439453 104.41071319580078 103.20954895019531 116.903076171875" stroke-width="2" fill="none" stroke="rgb(0, 0, 0)" stroke-opacity="1.0" stroke-linecap="round" stroke-linejoin="round"/>
    <path d="M 154.2818145751953 145.2628631591797 C 105.40807342529297 143.31683349609375 107.74504852294922 133.08909606933594 80.08016967773438 131.03854370117188" stroke-width="2" fill="none" stroke="rgb(0, 0, 0)" stroke-opacity="1.0" stroke-linecap="round" stroke-linejoin="round"/>
    <path d="M 184.95713806152344 61.80670928955078 C 168.4730224609375 133.04212951660156 111.59723663330078 121.83419036865234 184.9053955078125 60.530189514160156" stroke-width="2" fill="none" stroke="rgb(0, 0, 0)" stroke-opacity="1.0" stroke-linecap="round" stroke-linejoin="round"/>
    <path d="M 167.64979553222656 102.3424072265625 C 165.91041564941406 124.1653823852539 182.65682983398438 138.8563690185547 167.18490600585938 146.38116455078125" stroke-width="2" fill="none" stroke="rgb(0, 0, 0)" stroke-opacity="1.0" stroke-linecap="round" stroke-linejoin="round"/>
    <path d="M 65.85980987548828 149.03590393066406 C 45.26062774658203 147.43418884277344 38.77727127075195 139.8556365966797 106.2445068359375 153.67955017089844" stroke-width="2" fill="none" stroke="rgb(0, 0, 0)" stroke-opacity="1.0" stroke-linecap="round" stroke-linejoin="round"/>
    <path d="M 104.19476318359375 110.87452697753906 C 119.45923614501953 103.12107849121094 98.76085662841797 97.82393646240234 99.05970001220703 66.86437225341797" stroke-width="2" fill="none" stroke="rgb(0, 0, 0)" stroke-opacity="1.0" stroke-linecap="round" stroke-linejoin="round"/>
    <path d="M 188.42196655273438 61.80025863647461 C 190.4922637939453 92.05256652832031 172.35968017578125 100.23361206054688 166.1713409423828 129.1581573486328" stroke-width="2" fill="none" stroke="rgb(0, 0, 0)" stroke-opacity="1.0" stroke-linecap="round" stroke-linejoin="round"/>
    <path d="M 100.0041275024414 67.80172729492188 C 70.22911071777344 100.220703125 88.24147033691406 144.8049774169922 97.14762878417969 66.47785949707031" stroke-width="2" fill="none" stroke="rgb(0, 0, 0)" stroke-opacity="1.0" stroke-linecap="round" stroke-linejoin="round"/>
    <path d="M 38.74821853637695 145.8109893798828 C 31.69285011291504 114.45037078857422 42.986289978027344 123.28398895263672 67.97108459472656 125.73174285888672" stroke-width="2" fill="none" stroke="rgb(0, 0, 0)" stroke-opacity="1.0" stroke-linecap="round" stroke-linejoin="round"/>
  </g>
</svg>
