<?xml version="1.0" ?>
<svg xmlns="http://www.w3.org/2000/svg" version="1.1" width="224" height="224">
  <defs/>
  <g>
    <path d="M 52.30802536010742 163.94168090820312 C 140.13841247558594 184.5246124267578 53.99837112426758 180.0980224609375 69.19715881347656 147.2668914794922" stroke-width="2" fill="none" stroke="rgb(0, 0, 0)" stroke-opacity="1.0" stroke-linecap="round" stroke-linejoin="round"/>
    <path d="M 125.47344970703125 130.1531524658203 C 73.02545928955078 124.37857818603516 175.2601776123047 145.21331787109375 135.19583129882812 126.01272583007812" stroke-width="2" fill="none" stroke="rgb(0, 0, 0)" stroke-opacity="1.0" stroke-linecap="round" stroke-linejoin="round"/>
    <path d="M 118.25496673583984 126.84477996826172 C 169.16880798339844 125.39288330078125 54.16605758666992 143.38763427734375 147.27757263183594 127.25346374511719" stroke-width="2" fill="none" stroke="rgb(0, 0, 0)" stroke-opacity="1.0" stroke-linecap="round" stroke-linejoin="round"/>
    <path d="M 75.0988540649414 160.46047973632812 C 215.79971313476562 185.88648986816406 127.93940734863281 123.60340118408203 143.18276977539062 137.10348510742188" stroke-width="2" fill="none" stroke="rgb(0, 0, 0)" stroke-opacity="1.0" stroke-linecap="round" stroke-linejoin="round"/>
    <path d="M 186.2239532470703 56.39668655395508 C 167.0495147705078 47.003623962402344 151.6783447265625 120.6136703491211 108.52298736572266 61.98638916015625" stroke-width="2" fill="none" stroke="rgb(0, 0, 0)" stroke-opacity="1.0" stroke-linecap="round" stroke-linejoin="round"/>
    <path d="M 146.09312438964844 149.1883087158203 C 206.4216766357422 150.41586303710938 58.63697814941406 132.05882263183594 119.50999450683594 123.8845443725586" stroke-width="2" fill="none" stroke="rgb(0, 0, 0)" stroke-opacity="1.0" stroke-linecap="round" stroke-linejoin="round"/>
    <path d="M 53.746986389160156 132.66273498535156 C 16.069530487060547 186.6516571044922 221.39654541015625 198.18038940429688 173.5419921875 129.8194122314453" stroke-width="2" fill="none" stroke="rgb(0, 0, 0)" stroke-opacity="1.0" stroke-linecap="round" stroke-linejoin="round"/>
    <path d="M 169.1754150390625 140.68768310546875 C 178.5009765625 48.28335189819336 149.0900115966797 119.68731689453125 174.55455017089844 68.48185729980469" stroke-width="2" fill="none" stroke="rgb(0, 0, 0)" stroke-opacity="1.0" stroke-linecap="round" stroke-linejoin="round"/>
    <path d="M 133.54281616210938 121.31629180908203 C 180.39781188964844 116.55523681640625 89.9085464477539 138.88735961914062 140.0986785888672 142.39102172851562" stroke-width="2" fill="none" stroke="rgb(0, 0, 0)" stroke-opacity="1.0" stroke-linecap="round" stroke-linejoin="round"/>
    <path d="M 188.82717895507812 58.85483932495117 C 160.03189086914062 156.06298828125 167.77334594726562 55.87055587768555 122.01567840576172 83.83259582519531" stroke-width="2" fill="none" stroke="rgb(0, 0, 0)" stroke-opacity="1.0" stroke-linecap="round" stroke-linejoin="round"/>
    <path d="M 163.6258544921875 98.01129913330078 C 181.45790100097656 143.0550994873047 182.17234802246094 150.68045043945312 111.41268920898438 153.73500061035156" stroke-width="2" fill="none" stroke="rgb(0, 0, 0)" stroke-opacity="1.0" stroke-linecap="round" stroke-linejoin="round"/>
    <path d="M 109.55998229980469 106.01661682128906 C 90.20951080322266 15.891035079956055 104.09463500976562 119.08433532714844 99.0139389038086 82.1733169555664" stroke-width="2" fill="none" stroke="rgb(0, 0, 0)" stroke-opacity="1.0" stroke-linecap="round" stroke-linejoin="round"/>
    <path d="M 109.92707061767578 129.6680908203125 C 121.12642669677734 157.66448974609375 173.56687927246094 122.11106872558594 120.98805236816406 136.21121215820312" stroke-width="2" fill="none" stroke="rgb(0, 0, 0)" stroke-opacity="1.0" stroke-linecap="round" stroke-linejoin="round"/>
    <path d="M 184.74510192871094 84.33357238769531 C 171.531005859375 173.2537841796875 142.29949951171875 70.63996887207031 165.30441284179688 127.57278442382812" stroke-width="2" fill="none" stroke="rgb(0, 0, 0)" stroke-opacity="1.0" stroke-linecap="round" stroke-linejoin="round"/>
    <path d="M 109.22179412841797 136.7512664794922 C 110.15666198730469 86.88549041748047 87.05224609375 143.49244689941406 119.6350326538086 98.79096984863281" stroke-width="2" fill="none" stroke="rgb(0, 0, 0)" stroke-opacity="1.0" stroke-linecap="round" stroke-linejoin="round"/>
    <path d="M 57.56135559082031 136.14337158203125 C 49.21543502807617 127.52786254882812 49.121124267578125 105.0601806640625 88.95831298828125 106.93914794921875" stroke-width="2" fill="none" stroke="rgb(0, 0, 0)" stroke-opacity="1.0" stroke-linecap="round" stroke-linejoin="round"/>
  </g>
</svg>
