<?xml version="1.0" ?>
<svg xmlns="http://www.w3.org/2000/svg" version="1.1" width="224" height="224">
  <defs/>
  <g>
    <path d="M 83.54547119140625 124.42874908447266 C 205.16690063476562 146.6107177734375 85.95630645751953 137.9204864501953 119.72224426269531 136.91920471191406" stroke-width="2" fill="none" stroke="rgb(0, 0, 0)" stroke-opacity="1.0" stroke-linecap="round" stroke-linejoin="round"/>
    <path d="M 164.03347778320312 129.0706329345703 C 115.37178039550781 113.95364379882812 223.46392822265625 120.01777648925781 92.5595932006836 127.51622009277344" stroke-width="2" fill="none" stroke="rgb(0, 0, 0)" stroke-opacity="1.0" stroke-linecap="round" stroke-linejoin="round"/>
    <path d="M 85.65089416503906 133.6954803466797 C 130.84104919433594 146.52862548828125 36.552833557128906 129.10256958007812 153.39927673339844 148.85269165039062" stroke-width="2" fill="none" stroke="rgb(0, 0, 0)" stroke-opacity="1.0" stroke-linecap="round" stroke-linejoin="round"/>
    <path d="M 53.21879577636719 148.55386352539062 C 220.3376007080078 191.08026123046875 152.85923767089844 143.53195190429688 165.5679473876953 122.75466918945312" stroke-width="2" fill="none" stroke="rgb(0, 0, 0)" stroke-opacity="1.0" stroke-linecap="round" stroke-linejoin="round"/>
    <path d="M 170.35618591308594 74.58191680908203 C 126.01468658447266 119.40227508544922 181.77352905273438 83.13506317138672 109.31629180908203 103.55878448486328" stroke-width="2" fill="none" stroke="rgb(0, 0, 0)" stroke-opacity="1.0" stroke-linecap="round" stroke-linejoin="round"/>
    <path d="M 195.85031127929688 135.21029663085938 C 182.50637817382812 186.2649383544922 35.1068115234375 127.15834045410156 134.87391662597656 145.26974487304688" stroke-width="2" fill="none" stroke="rgb(0, 0, 0)" stroke-opacity="1.0" stroke-linecap="round" stroke-linejoin="round"/>
    <path d="M 62.7684440612793 122.81156921386719 C -1.9586617946624756 168.49732971191406 156.23016357421875 145.4689483642578 102.14533233642578 158.5865936279297" stroke-width="2" fill="none" stroke="rgb(0, 0, 0)" stroke-opacity="1.0" stroke-linecap="round" stroke-linejoin="round"/>
    <path d="M 167.34495544433594 139.3201904296875 C 220.01968383789062 -17.52558708190918 140.9502716064453 110.4341812133789 173.05130004882812 92.58663177490234" stroke-width="2" fill="none" stroke="rgb(0, 0, 0)" stroke-opacity="1.0" stroke-linecap="round" stroke-linejoin="round"/>
    <path d="M 111.60445404052734 103.91883850097656 C 97.84163665771484 150.3555145263672 108.75613403320312 110.2166976928711 133.63319396972656 118.00843048095703" stroke-width="2" fill="none" stroke="rgb(0, 0, 0)" stroke-opacity="1.0" stroke-linecap="round" stroke-linejoin="round"/>
    <path d="M 180.16868591308594 64.75531005859375 C 164.03761291503906 150.78799438476562 111.42080688476562 67.62531280517578 109.10398864746094 66.26422119140625" stroke-width="2" fill="none" stroke="rgb(0, 0, 0)" stroke-opacity="1.0" stroke-linecap="round" stroke-linejoin="round"/>
    <path d="M 152.65052795410156 94.45124053955078 C 187.4242706298828 102.60444641113281 189.25181579589844 165.5475311279297 162.0204315185547 157.42800903320312" stroke-width="2" fill="none" stroke="rgb(0, 0, 0)" stroke-opacity="1.0" stroke-linecap="round" stroke-linejoin="round"/>
    <path d="M 101.54163360595703 105.58614349365234 C 92.20295715332031 9.614755630493164 118.33019256591797 123.35258483886719 124.73872375488281 98.72212982177734" stroke-width="2" fill="none" stroke="rgb(0, 0, 0)" stroke-opacity="1.0" stroke-linecap="round" stroke-linejoin="round"/>
    <path d="M 51.649986267089844 151.27565002441406 C 164.43643188476562 170.7957763671875 167.930908203125 138.24569702148438 105.40977478027344 130.82049560546875" stroke-width="2" fill="none" stroke="rgb(0, 0, 0)" stroke-opacity="1.0" stroke-linecap="round" stroke-linejoin="round"/>
    <path d="M 175.02261352539062 92.0496597290039 C 160.89071655273438 132.67234802246094 195.14346313476562 91.99454498291016 185.16323852539062 79.03738403320312" stroke-width="2" fill="none" stroke="rgb(0, 0, 0)" stroke-opacity="1.0" stroke-linecap="round" stroke-linejoin="round"/>
    <path d="M 115.79381561279297 117.49065399169922 C 217.8974151611328 150.20315551757812 109.86431121826172 129.49935913085938 83.81395721435547 131.24253845214844" stroke-width="2" fill="none" stroke="rgb(0, 0, 0)" stroke-opacity="1.0" stroke-linecap="round" stroke-linejoin="round"/>
    <path d="M 55.04922866821289 126.99077606201172 C 60.58842086791992 131.6464385986328 50.481319427490234 86.9222640991211 97.00225067138672 92.95516204833984" stroke-width="2" fill="none" stroke="rgb(0, 0, 0)" stroke-opacity="1.0" stroke-linecap="round" stroke-linejoin="round"/>
  </g>
</svg>
