<?xml version="1.0" ?>
<svg xmlns="http://www.w3.org/2000/svg" version="1.1" width="224" height="224">
  <defs/>
  <g>
    <path d="M 93.94690704345703 123.70037078857422 C 104.29661560058594 147.0030059814453 76.28544616699219 124.05743408203125 58.07270431518555 133.77015686035156" stroke-width="2" fill="none" stroke="rgb(0, 0, 0)" stroke-opacity="1.0" stroke-linecap="round" stroke-linejoin="round"/>
    <path d="M 109.58592987060547 146.752685546875 C 60.99763870239258 108.837646484375 191.1520538330078 107.01789093017578 131.3339385986328 107.1580810546875" stroke-width="2" fill="none" stroke="rgb(0, 0, 0)" stroke-opacity="1.0" stroke-linecap="round" stroke-linejoin="round"/>
    <path d="M 150.55868530273438 124.3324966430664 C 219.05734252929688 141.31643676757812 74.89157104492188 151.95751953125 76.87110137939453 113.5396499633789" stroke-width="2" fill="none" stroke="rgb(0, 0, 0)" stroke-opacity="1.0" stroke-linecap="round" stroke-linejoin="round"/>
    <path d="M 46.70909881591797 148.32847595214844 C 210.31495666503906 168.23326110839844 178.465087890625 167.98199462890625 162.52235412597656 95.5730972290039" stroke-width="2" fill="none" stroke="rgb(0, 0, 0)" stroke-opacity="1.0" stroke-linecap="round" stroke-linejoin="round"/>
    <path d="M 189.12454223632812 63.830963134765625 C 178.6644287109375 62.413089752197266 163.77996826171875 97.08171081542969 133.36666870117188 95.27986145019531" stroke-width="2" fill="none" stroke="rgb(0, 0, 0)" stroke-opacity="1.0" stroke-linecap="round" stroke-linejoin="round"/>
    <path d="M 131.3021240234375 106.39434051513672 C 210.9686279296875 130.4228057861328 48.63973617553711 99.97574615478516 153.1274871826172 126.95842742919922" stroke-width="2" fill="none" stroke="rgb(0, 0, 0)" stroke-opacity="1.0" stroke-linecap="round" stroke-linejoin="round"/>
    <path d="M 41.47288513183594 111.74137878417969 C 12.54263973236084 163.72642517089844 96.32759094238281 145.70187377929688 133.72055053710938 155.3389129638672" stroke-width="2" fill="none" stroke="rgb(0, 0, 0)" stroke-opacity="1.0" stroke-linecap="round" stroke-linejoin="round"/>
    <path d="M 153.60003662109375 114.84727478027344 C 46.45084762573242 102.36600494384766 158.65904235839844 100.02110290527344 105.64248657226562 109.94007873535156" stroke-width="2" fill="none" stroke="rgb(0, 0, 0)" stroke-opacity="1.0" stroke-linecap="round" stroke-linejoin="round"/>
    <path d="M 106.7087631225586 111.79967498779297 C 137.04571533203125 121.58087921142578 160.8367919921875 115.59626007080078 102.30426788330078 117.97369384765625" stroke-width="2" fill="none" stroke="rgb(0, 0, 0)" stroke-opacity="1.0" stroke-linecap="round" stroke-linejoin="round"/>
    <path d="M 179.00448608398438 75.45054626464844 C 161.3251953125 129.7986602783203 119.16860961914062 63.176639556884766 162.45492553710938 105.79471588134766" stroke-width="2" fill="none" stroke="rgb(0, 0, 0)" stroke-opacity="1.0" stroke-linecap="round" stroke-linejoin="round"/>
    <path d="M 141.28311157226562 157.94505310058594 C 17.470354080200195 148.9835662841797 79.24486541748047 144.4019775390625 102.93846893310547 144.08692932128906" stroke-width="2" fill="none" stroke="rgb(0, 0, 0)" stroke-opacity="1.0" stroke-linecap="round" stroke-linejoin="round"/>
    <path d="M 93.47349548339844 94.87946319580078 C 37.7504768371582 92.67830657958984 54.50696563720703 104.08737182617188 40.11638641357422 111.31703186035156" stroke-width="2" fill="none" stroke="rgb(0, 0, 0)" stroke-opacity="1.0" stroke-linecap="round" stroke-linejoin="round"/>
    <path d="M 148.94290161132812 71.88206481933594 C 86.85693359375 54.31928634643555 113.46685028076172 110.643310546875 101.18644714355469 57.98968505859375" stroke-width="2" fill="none" stroke="rgb(0, 0, 0)" stroke-opacity="1.0" stroke-linecap="round" stroke-linejoin="round"/>
    <path d="M 190.7035675048828 61.68128204345703 C 170.03533935546875 174.29136657714844 102.51228332519531 115.71273803710938 146.18988037109375 135.4766845703125" stroke-width="2" fill="none" stroke="rgb(0, 0, 0)" stroke-opacity="1.0" stroke-linecap="round" stroke-linejoin="round"/>
    <path d="M 122.83120727539062 71.86370849609375 C 86.9418716430664 13.351301193237305 107.989990234375 125.38456726074219 97.76585388183594 96.90406799316406" stroke-width="2" fill="none" stroke="rgb(0, 0, 0)" stroke-opacity="1.0" stroke-linecap="round" stroke-linejoin="round"/>
    <path d="M 48.855323791503906 126.87977600097656 C 33.824581146240234 124.08602905273438 37.89089584350586 113.96202850341797 46.71889114379883 107.0486831665039" stroke-width="2" fill="none" stroke="rgb(0, 0, 0)" stroke-opacity="1.0" stroke-linecap="round" stroke-linejoin="round"/>
  </g>
</svg>
