<?xml version="1.0" ?>
<svg xmlns="http://www.w3.org/2000/svg" version="1.1" width="224" height="224">
  <defs/>
  <g>
    <path d="M 85.09423065185547 149.7466278076172 C 217.0699920654297 170.4632568359375 120.69813537597656 151.34193420410156 155.5305938720703 157.19744873046875" stroke-width="2" fill="none" stroke="rgb(0, 0, 0)" stroke-opacity="1.0" stroke-linecap="round" stroke-linejoin="round"/>
    <path d="M 178.06690979003906 144.59609985351562 C 128.74085998535156 124.32914733886719 256.6929626464844 156.94540405273438 113.93476867675781 148.36521911621094" stroke-width="2" fill="none" stroke="rgb(0, 0, 0)" stroke-opacity="1.0" stroke-linecap="round" stroke-linejoin="round"/>
    <path d="M 100.4676513671875 102.7864990234375 C 128.6697540283203 135.45864868164062 79.82888793945312 93.85948944091797 149.48114013671875 107.16256713867188" stroke-width="2" fill="none" stroke="rgb(0, 0, 0)" stroke-opacity="1.0" stroke-linecap="round" stroke-linejoin="round"/>
    <path d="M 57.32862854003906 147.33163452148438 C 237.8278045654297 197.89852905273438 170.5720977783203 136.68496704101562 181.00828552246094 109.3775405883789" stroke-width="2" fill="none" stroke="rgb(0, 0, 0)" stroke-opacity="1.0" stroke-linecap="round" stroke-linejoin="round"/>
    <path d="M 169.7592010498047 114.98294830322266 C 162.22256469726562 101.75196838378906 219.1488800048828 87.72675323486328 128.48109436035156 88.14138793945312" stroke-width="2" fill="none" stroke="rgb(0, 0, 0)" stroke-opacity="1.0" stroke-linecap="round" stroke-linejoin="round"/>
    <path d="M 154.94642639160156 114.61284637451172 C 182.7076873779297 146.68214416503906 68.84717559814453 113.61466979980469 168.66697692871094 122.1705093383789" stroke-width="2" fill="none" stroke="rgb(0, 0, 0)" stroke-opacity="1.0" stroke-linecap="round" stroke-linejoin="round"/>
    <path d="M 55.88651657104492 98.28305053710938 C -9.538627624511719 174.83302307128906 189.0171356201172 167.39324951171875 86.73536682128906 127.6247329711914" stroke-width="2" fill="none" stroke="rgb(0, 0, 0)" stroke-opacity="1.0" stroke-linecap="round" stroke-linejoin="round"/>
    <path d="M 179.1456756591797 115.99311065673828 C 220.5487823486328 -18.11337661743164 136.0699920654297 116.08024597167969 171.2550506591797 107.30465698242188" stroke-width="2" fill="none" stroke="rgb(0, 0, 0)" stroke-opacity="1.0" stroke-linecap="round" stroke-linejoin="round"/>
    <path d="M 114.8433837890625 96.70708465576172 C 97.41080474853516 164.1821746826172 120.53720092773438 85.46355438232422 157.4251251220703 114.03748321533203" stroke-width="2" fill="none" stroke="rgb(0, 0, 0)" stroke-opacity="1.0" stroke-linecap="round" stroke-linejoin="round"/>
    <path d="M 176.69236755371094 65.72952270507812 C 125.75142669677734 140.36265563964844 114.99567413330078 48.05545425415039 104.32807159423828 56.7662353515625" stroke-width="2" fill="none" stroke="rgb(0, 0, 0)" stroke-opacity="1.0" stroke-linecap="round" stroke-linejoin="round"/>
    <path d="M 137.8662872314453 127.45065307617188 C 170.65191650390625 119.73475646972656 189.72923278808594 177.56390380859375 162.0520782470703 166.17822265625" stroke-width="2" fill="none" stroke="rgb(0, 0, 0)" stroke-opacity="1.0" stroke-linecap="round" stroke-linejoin="round"/>
    <path d="M 99.38629150390625 94.63217163085938 C 103.14501953125 3.525810480117798 127.093017578125 111.1136703491211 124.51392364501953 95.64486694335938" stroke-width="2" fill="none" stroke="rgb(0, 0, 0)" stroke-opacity="1.0" stroke-linecap="round" stroke-linejoin="round"/>
    <path d="M 63.27824020385742 138.9571533203125 C 214.44058227539062 158.4815216064453 206.1326141357422 147.21157836914062 101.56599426269531 127.17475128173828" stroke-width="2" fill="none" stroke="rgb(0, 0, 0)" stroke-opacity="1.0" stroke-linecap="round" stroke-linejoin="round"/>
    <path d="M 180.4545135498047 127.69160461425781 C 164.9858856201172 101.91427612304688 216.448486328125 142.58103942871094 194.93136596679688 70.58867645263672" stroke-width="2" fill="none" stroke="rgb(0, 0, 0)" stroke-opacity="1.0" stroke-linecap="round" stroke-linejoin="round"/>
    <path d="M 104.21803283691406 141.322509765625 C 172.88912963867188 140.6499786376953 147.80381774902344 101.23025512695312 127.76920318603516 139.20187377929688" stroke-width="2" fill="none" stroke="rgb(0, 0, 0)" stroke-opacity="1.0" stroke-linecap="round" stroke-linejoin="round"/>
    <path d="M 60.50971221923828 98.29608154296875 C 61.878761291503906 112.11425018310547 54.24905776977539 85.65753936767578 98.6315689086914 98.33271789550781" stroke-width="2" fill="none" stroke="rgb(0, 0, 0)" stroke-opacity="1.0" stroke-linecap="round" stroke-linejoin="round"/>
  </g>
</svg>
