<?xml version="1.0" ?>
<svg xmlns="http://www.w3.org/2000/svg" version="1.1" width="224" height="224">
  <defs/>
  <g>
    <path d="M 79.47528076171875 106.63819885253906 C 49.71498489379883 128.11036682128906 120.71137237548828 79.11807250976562 106.07688903808594 126.79025268554688" stroke-width="2" fill="none" stroke="rgb(0, 0, 0)" stroke-opacity="1.0" stroke-linecap="round" stroke-linejoin="round"/>
    <path d="M 100.318115234375 127.74687957763672 C 21.066356658935547 104.01634216308594 109.31076049804688 131.65478515625 98.12054443359375 108.9599838256836" stroke-width="2" fill="none" stroke="rgb(0, 0, 0)" stroke-opacity="1.0" stroke-linecap="round" stroke-linejoin="round"/>
    <path d="M 127.03742218017578 116.1019287109375 C 250.07232666015625 149.49526977539062 77.64752197265625 160.52220153808594 92.96094512939453 91.537109375" stroke-width="2" fill="none" stroke="rgb(0, 0, 0)" stroke-opacity="1.0" stroke-linecap="round" stroke-linejoin="round"/>
    <path d="M 38.615989685058594 151.63877868652344 C 206.3505096435547 172.090576171875 180.7312469482422 171.41050720214844 158.29373168945312 107.1054458618164" stroke-width="2" fill="none" stroke="rgb(0, 0, 0)" stroke-opacity="1.0" stroke-linecap="round" stroke-linejoin="round"/>
    <path d="M 184.3182373046875 58.394126892089844 C 170.00672912597656 52.50737380981445 159.66366577148438 105.02002716064453 112.48192596435547 90.8857421875" stroke-width="2" fill="none" stroke="rgb(0, 0, 0)" stroke-opacity="1.0" stroke-linecap="round" stroke-linejoin="round"/>
    <path d="M 118.11209869384766 127.10188293457031 C 131.7707977294922 136.2194366455078 112.12808990478516 129.37698364257812 122.59503173828125 127.28121948242188" stroke-width="2" fill="none" stroke="rgb(0, 0, 0)" stroke-opacity="1.0" stroke-linecap="round" stroke-linejoin="round"/>
    <path d="M 55.50895309448242 104.85108184814453 C 11.092206954956055 163.62460327148438 83.86417388916016 155.4744415283203 129.95115661621094 165.6836700439453" stroke-width="2" fill="none" stroke="rgb(0, 0, 0)" stroke-opacity="1.0" stroke-linecap="round" stroke-linejoin="round"/>
    <path d="M 154.20301818847656 124.03793334960938 C 81.38257598876953 123.40229797363281 214.32408142089844 127.08682250976562 80.31013488769531 127.14862060546875" stroke-width="2" fill="none" stroke="rgb(0, 0, 0)" stroke-opacity="1.0" stroke-linecap="round" stroke-linejoin="round"/>
    <path d="M 92.81626892089844 149.5365753173828 C 27.966690063476562 113.67169952392578 70.99158477783203 138.63255310058594 57.864200592041016 129.1595458984375" stroke-width="2" fill="none" stroke="rgb(0, 0, 0)" stroke-opacity="1.0" stroke-linecap="round" stroke-linejoin="round"/>
    <path d="M 179.44784545898438 58.46199417114258 C 165.83546447753906 110.32051086425781 150.0728759765625 96.0959701538086 172.49453735351562 74.88386535644531" stroke-width="2" fill="none" stroke="rgb(0, 0, 0)" stroke-opacity="1.0" stroke-linecap="round" stroke-linejoin="round"/>
    <path d="M 150.04054260253906 152.4979705810547 C 98.83259582519531 139.89169311523438 131.49790954589844 132.5981903076172 154.0120849609375 137.50091552734375" stroke-width="2" fill="none" stroke="rgb(0, 0, 0)" stroke-opacity="1.0" stroke-linecap="round" stroke-linejoin="round"/>
    <path d="M 79.95252227783203 88.37380981445312 C 51.2297248840332 94.0909194946289 66.2407455444336 146.6951446533203 58.15033721923828 125.14746856689453" stroke-width="2" fill="none" stroke="rgb(0, 0, 0)" stroke-opacity="1.0" stroke-linecap="round" stroke-linejoin="round"/>
    <path d="M 154.33311462402344 94.85364532470703 C 109.4796142578125 62.65928649902344 118.40705108642578 140.40354919433594 100.72142791748047 70.15370178222656" stroke-width="2" fill="none" stroke="rgb(0, 0, 0)" stroke-opacity="1.0" stroke-linecap="round" stroke-linejoin="round"/>
    <path d="M 179.04312133789062 65.35124969482422 C 183.72906494140625 127.55565643310547 122.91022491455078 142.73944091796875 159.86367797851562 128.9657745361328" stroke-width="2" fill="none" stroke="rgb(0, 0, 0)" stroke-opacity="1.0" stroke-linecap="round" stroke-linejoin="round"/>
    <path d="M 112.09872436523438 85.40418243408203 C 86.62339782714844 28.2369384765625 84.54902648925781 145.603271484375 110.31561279296875 105.0189437866211" stroke-width="2" fill="none" stroke="rgb(0, 0, 0)" stroke-opacity="1.0" stroke-linecap="round" stroke-linejoin="round"/>
    <path d="M 59.1329231262207 129.359619140625 C 41.12983322143555 88.05137634277344 78.51536560058594 98.89876556396484 106.6652603149414 104.22854614257812" stroke-width="2" fill="none" stroke="rgb(0, 0, 0)" stroke-opacity="1.0" stroke-linecap="round" stroke-linejoin="round"/>
  </g>
</svg>
