<?xml version="1.0" ?>
<svg xmlns="http://www.w3.org/2000/svg" version="1.1" width="224" height="224">
  <defs/>
  <g>
    <path d="M 100.35709381103516 107.54522705078125 C 165.636962890625 117.81635284423828 0.6349453330039978 140.27938842773438 125.69317626953125 133.12400817871094" stroke-width="2" fill="none" stroke="rgb(0, 0, 0)" stroke-opacity="1.0" stroke-linecap="round" stroke-linejoin="round"/>
    <path d="M 104.26934814453125 108.5455322265625 C 41.22865676879883 133.90408325195312 160.4496612548828 126.192138671875 91.46085357666016 146.60401916503906" stroke-width="2" fill="none" stroke="rgb(0, 0, 0)" stroke-opacity="1.0" stroke-linecap="round" stroke-linejoin="round"/>
    <path d="M 117.62702941894531 128.4431610107422 C 41.338218688964844 139.32943725585938 71.93712615966797 96.40278625488281 151.9620819091797 144.72769165039062" stroke-width="2" fill="none" stroke="rgb(0, 0, 0)" stroke-opacity="1.0" stroke-linecap="round" stroke-linejoin="round"/>
    <path d="M 43.98605728149414 144.53457641601562 C 244.54901123046875 210.4981231689453 152.58712768554688 104.26350402832031 151.2766876220703 100.50861358642578" stroke-width="2" fill="none" stroke="rgb(0, 0, 0)" stroke-opacity="1.0" stroke-linecap="round" stroke-linejoin="round"/>
    <path d="M 145.08248901367188 117.08930969238281 C 106.23048400878906 107.4577865600586 171.2222900390625 157.7093505859375 159.74351501464844 112.530029296875" stroke-width="2" fill="none" stroke="rgb(0, 0, 0)" stroke-opacity="1.0" stroke-linecap="round" stroke-linejoin="round"/>
    <path d="M 120.2489242553711 130.13133239746094 C 175.43186950683594 138.32318115234375 3.175443172454834 107.10108947753906 130.7858428955078 139.63002014160156" stroke-width="2" fill="none" stroke="rgb(0, 0, 0)" stroke-opacity="1.0" stroke-linecap="round" stroke-linejoin="round"/>
    <path d="M 91.82756805419922 87.27275085449219 C -3.317885398864746 89.12055969238281 83.57467651367188 179.530029296875 43.08775329589844 134.40975952148438" stroke-width="2" fill="none" stroke="rgb(0, 0, 0)" stroke-opacity="1.0" stroke-linecap="round" stroke-linejoin="round"/>
    <path d="M 165.26754760742188 106.5961685180664 C 216.5729522705078 -21.674339294433594 124.42786407470703 136.162109375 174.26211547851562 91.79546356201172" stroke-width="2" fill="none" stroke="rgb(0, 0, 0)" stroke-opacity="1.0" stroke-linecap="round" stroke-linejoin="round"/>
    <path d="M 154.5705108642578 164.9055938720703 C 50.46436309814453 170.6674346923828 36.9045295715332 113.75137329101562 131.05148315429688 134.52191162109375" stroke-width="2" fill="none" stroke="rgb(0, 0, 0)" stroke-opacity="1.0" stroke-linecap="round" stroke-linejoin="round"/>
    <path d="M 159.38430786132812 82.58023071289062 C 106.79582214355469 105.7704849243164 115.03636932373047 65.55050659179688 97.35806274414062 64.29080963134766" stroke-width="2" fill="none" stroke="rgb(0, 0, 0)" stroke-opacity="1.0" stroke-linecap="round" stroke-linejoin="round"/>
    <path d="M 104.2699966430664 153.2954864501953 C 16.45537757873535 140.83644104003906 106.8865966796875 142.71900939941406 159.14894104003906 151.143798828125" stroke-width="2" fill="none" stroke="rgb(0, 0, 0)" stroke-opacity="1.0" stroke-linecap="round" stroke-linejoin="round"/>
    <path d="M 97.80966186523438 110.2203140258789 C 95.8745346069336 19.098804473876953 105.78080749511719 131.21340942382812 119.15736389160156 131.8493194580078" stroke-width="2" fill="none" stroke="rgb(0, 0, 0)" stroke-opacity="1.0" stroke-linecap="round" stroke-linejoin="round"/>
    <path d="M 71.78582000732422 130.9245147705078 C 148.0093536376953 148.14755249023438 158.25027465820312 142.90365600585938 109.54621124267578 147.4800262451172" stroke-width="2" fill="none" stroke="rgb(0, 0, 0)" stroke-opacity="1.0" stroke-linecap="round" stroke-linejoin="round"/>
    <path d="M 172.37857055664062 142.5030975341797 C 146.87290954589844 159.80209350585938 197.31300354003906 106.88763427734375 184.67681884765625 55.05707931518555" stroke-width="2" fill="none" stroke="rgb(0, 0, 0)" stroke-opacity="1.0" stroke-linecap="round" stroke-linejoin="round"/>
    <path d="M 88.75367736816406 124.72969055175781 C 148.39234924316406 105.98799133300781 168.93373107910156 130.61175537109375 133.68133544921875 118.6761703491211" stroke-width="2" fill="none" stroke="rgb(0, 0, 0)" stroke-opacity="1.0" stroke-linecap="round" stroke-linejoin="round"/>
    <path d="M 64.52954864501953 114.11299133300781 C 51.024742126464844 164.0861053466797 118.52421569824219 117.96208953857422 124.54686737060547 99.11424255371094" stroke-width="2" fill="none" stroke="rgb(0, 0, 0)" stroke-opacity="1.0" stroke-linecap="round" stroke-linejoin="round"/>
  </g>
</svg>
