<?xml version="1.0" ?>
<svg xmlns="http://www.w3.org/2000/svg" version="1.1" width="224" height="224">
  <defs/>
  <g>
    <path d="M 52.3077278137207 136.092529296875 C 142.15892028808594 162.6129608154297 86.55406188964844 157.865478515625 77.62165832519531 132.23182678222656" stroke-width="2" fill="none" stroke="rgb(0, 0, 0)" stroke-opacity="1.0" stroke-linecap="round" stroke-linejoin="round"/>
    <path d="M 125.690185546875 118.29203033447266 C 74.62487030029297 103.34210968017578 193.83863830566406 122.33538818359375 133.56016540527344 113.23108673095703" stroke-width="2" fill="none" stroke="rgb(0, 0, 0)" stroke-opacity="1.0" stroke-linecap="round" stroke-linejoin="round"/>
    <path d="M 112.01058959960938 141.97137451171875 C 162.10549926757812 119.89913940429688 44.67174530029297 145.48074340820312 143.81748962402344 132.59506225585938" stroke-width="2" fill="none" stroke="rgb(0, 0, 0)" stroke-opacity="1.0" stroke-linecap="round" stroke-linejoin="round"/>
    <path d="M 108.5448226928711 144.6986083984375 C 232.44943237304688 177.67413330078125 148.345458984375 102.55060577392578 148.97996520996094 136.88287353515625" stroke-width="2" fill="none" stroke="rgb(0, 0, 0)" stroke-opacity="1.0" stroke-linecap="round" stroke-linejoin="round"/>
    <path d="M 181.3580780029297 58.658390045166016 C 170.54490661621094 55.43486404418945 151.33221435546875 120.88765716552734 114.41854095458984 72.93268585205078" stroke-width="2" fill="none" stroke="rgb(0, 0, 0)" stroke-opacity="1.0" stroke-linecap="round" stroke-linejoin="round"/>
    <path d="M 134.78321838378906 153.20343017578125 C 194.94741821289062 140.79127502441406 39.82829666137695 130.67495727539062 125.82115936279297 118.29042053222656" stroke-width="2" fill="none" stroke="rgb(0, 0, 0)" stroke-opacity="1.0" stroke-linecap="round" stroke-linejoin="round"/>
    <path d="M 53.14979553222656 115.17057800292969 C -8.122064590454102 180.59976196289062 205.99365234375 187.6977081298828 174.7564239501953 135.5057830810547" stroke-width="2" fill="none" stroke="rgb(0, 0, 0)" stroke-opacity="1.0" stroke-linecap="round" stroke-linejoin="round"/>
    <path d="M 163.91563415527344 128.31549072265625 C 192.5193328857422 38.875755310058594 148.1047821044922 114.03146362304688 176.07130432128906 75.07492065429688" stroke-width="2" fill="none" stroke="rgb(0, 0, 0)" stroke-opacity="1.0" stroke-linecap="round" stroke-linejoin="round"/>
    <path d="M 130.14065551757812 113.65435791015625 C 164.57273864746094 115.68871307373047 38.05302429199219 135.64605712890625 117.5660400390625 141.24302673339844" stroke-width="2" fill="none" stroke="rgb(0, 0, 0)" stroke-opacity="1.0" stroke-linecap="round" stroke-linejoin="round"/>
    <path d="M 178.20651245117188 62.196044921875 C 147.97821044921875 148.94976806640625 131.03196716308594 81.843505859375 111.23194122314453 64.6038818359375" stroke-width="2" fill="none" stroke="rgb(0, 0, 0)" stroke-opacity="1.0" stroke-linecap="round" stroke-linejoin="round"/>
    <path d="M 157.71731567382812 106.35992431640625 C 177.83721923828125 149.84620666503906 172.8144073486328 156.16282653808594 115.04998016357422 132.89401245117188" stroke-width="2" fill="none" stroke="rgb(0, 0, 0)" stroke-opacity="1.0" stroke-linecap="round" stroke-linejoin="round"/>
    <path d="M 119.91508483886719 96.9706802368164 C 93.7674331665039 24.14095115661621 109.72117614746094 120.30635833740234 105.26716613769531 78.17530059814453" stroke-width="2" fill="none" stroke="rgb(0, 0, 0)" stroke-opacity="1.0" stroke-linecap="round" stroke-linejoin="round"/>
    <path d="M 108.33544921875 134.8473358154297 C 110.72354125976562 159.9026641845703 146.47625732421875 120.75662231445312 95.02947235107422 128.18234252929688" stroke-width="2" fill="none" stroke="rgb(0, 0, 0)" stroke-opacity="1.0" stroke-linecap="round" stroke-linejoin="round"/>
    <path d="M 185.46485900878906 62.4471321105957 C 175.3157958984375 157.33912658691406 154.376953125 60.14037322998047 171.26101684570312 118.1960678100586" stroke-width="2" fill="none" stroke="rgb(0, 0, 0)" stroke-opacity="1.0" stroke-linecap="round" stroke-linejoin="round"/>
    <path d="M 90.79998016357422 147.52670288085938 C 101.5220718383789 71.56443786621094 71.9371109008789 155.5125274658203 107.49628448486328 89.87777709960938" stroke-width="2" fill="none" stroke="rgb(0, 0, 0)" stroke-opacity="1.0" stroke-linecap="round" stroke-linejoin="round"/>
    <path d="M 55.85850143432617 120.6702651977539 C 48.66926574707031 120.63027954101562 47.542259216308594 88.76592254638672 94.85597229003906 108.8482894897461" stroke-width="2" fill="none" stroke="rgb(0, 0, 0)" stroke-opacity="1.0" stroke-linecap="round" stroke-linejoin="round"/>
  </g>
</svg>
