<?xml version="1.0" ?>
<svg xmlns="http://www.w3.org/2000/svg" version="1.1" width="224" height="224">
  <defs/>
  <g>
    <path d="M 72.13617706298828 103.97169494628906 C 42.19503402709961 105.42279052734375 82.4138412475586 95.50138854980469 84.30899810791016 125.6858139038086" stroke-width="2" fill="none" stroke="rgb(0, 0, 0)" stroke-opacity="1.0" stroke-linecap="round" stroke-linejoin="round"/>
    <path d="M 131.88803100585938 136.48434448242188 C 72.49668884277344 115.23976135253906 162.6009063720703 108.34099578857422 110.74468994140625 115.91187286376953" stroke-width="2" fill="none" stroke="rgb(0, 0, 0)" stroke-opacity="1.0" stroke-linecap="round" stroke-linejoin="round"/>
    <path d="M 149.98941040039062 123.63062286376953 C 199.1688690185547 135.00912475585938 92.09581756591797 178.8618621826172 128.61956787109375 111.10112762451172" stroke-width="2" fill="none" stroke="rgb(0, 0, 0)" stroke-opacity="1.0" stroke-linecap="round" stroke-linejoin="round"/>
    <path d="M 57.681541442871094 144.95025634765625 C 204.7194366455078 188.99647521972656 190.43136596679688 177.69615173339844 169.74053955078125 112.09107208251953" stroke-width="2" fill="none" stroke="rgb(0, 0, 0)" stroke-opacity="1.0" stroke-linecap="round" stroke-linejoin="round"/>
    <path d="M 181.0336456298828 66.99272918701172 C 170.4269561767578 59.99242401123047 167.922119140625 97.27262878417969 141.23968505859375 79.49100494384766" stroke-width="2" fill="none" stroke="rgb(0, 0, 0)" stroke-opacity="1.0" stroke-linecap="round" stroke-linejoin="round"/>
    <path d="M 127.8441162109375 133.53341674804688 C 169.2853240966797 129.5135498046875 54.48570251464844 146.25466918945312 145.81663513183594 158.2451171875" stroke-width="2" fill="none" stroke="rgb(0, 0, 0)" stroke-opacity="1.0" stroke-linecap="round" stroke-linejoin="round"/>
    <path d="M 58.7850227355957 118.80748748779297 C 21.784046173095703 162.71759033203125 105.88082885742188 152.68377685546875 112.5459976196289 163.65773010253906" stroke-width="2" fill="none" stroke="rgb(0, 0, 0)" stroke-opacity="1.0" stroke-linecap="round" stroke-linejoin="round"/>
    <path d="M 138.29637145996094 130.39434814453125 C 56.53477096557617 134.7273406982422 227.6161346435547 144.0132293701172 118.4981918334961 133.62826538085938" stroke-width="2" fill="none" stroke="rgb(0, 0, 0)" stroke-opacity="1.0" stroke-linecap="round" stroke-linejoin="round"/>
    <path d="M 91.29224395751953 136.24876403808594 C 117.72733306884766 136.3489227294922 143.88555908203125 160.21939086914062 72.4613037109375 144.55364990234375" stroke-width="2" fill="none" stroke="rgb(0, 0, 0)" stroke-opacity="1.0" stroke-linecap="round" stroke-linejoin="round"/>
    <path d="M 184.86135864257812 66.50675201416016 C 171.30807495117188 117.35352325439453 147.3577880859375 109.6957778930664 175.6903839111328 99.0770263671875" stroke-width="2" fill="none" stroke="rgb(0, 0, 0)" stroke-opacity="1.0" stroke-linecap="round" stroke-linejoin="round"/>
    <path d="M 169.47158813476562 149.3410186767578 C 80.99220275878906 106.90148162841797 116.07878875732422 119.28780364990234 129.1522674560547 138.7005157470703" stroke-width="2" fill="none" stroke="rgb(0, 0, 0)" stroke-opacity="1.0" stroke-linecap="round" stroke-linejoin="round"/>
    <path d="M 105.63004302978516 92.73889923095703 C 32.95797348022461 82.78189086914062 54.621585845947266 136.1131134033203 50.43400573730469 116.11672973632812" stroke-width="2" fill="none" stroke="rgb(0, 0, 0)" stroke-opacity="1.0" stroke-linecap="round" stroke-linejoin="round"/>
    <path d="M 156.18399047851562 104.20509338378906 C 115.31187438964844 65.37549591064453 113.2082748413086 131.8775177001953 101.14064025878906 78.3102798461914" stroke-width="2" fill="none" stroke="rgb(0, 0, 0)" stroke-opacity="1.0" stroke-linecap="round" stroke-linejoin="round"/>
    <path d="M 184.56564331054688 64.42240142822266 C 176.67506408691406 159.09225463867188 124.32606506347656 116.82510375976562 161.32205200195312 122.85315704345703" stroke-width="2" fill="none" stroke="rgb(0, 0, 0)" stroke-opacity="1.0" stroke-linecap="round" stroke-linejoin="round"/>
    <path d="M 123.08134460449219 96.44277954101562 C 81.29304504394531 29.51445770263672 106.62519073486328 108.1424560546875 97.44405364990234 114.50736999511719" stroke-width="2" fill="none" stroke="rgb(0, 0, 0)" stroke-opacity="1.0" stroke-linecap="round" stroke-linejoin="round"/>
    <path d="M 61.67684555053711 113.3475112915039 C 52.925018310546875 98.31958770751953 84.02110290527344 105.02486419677734 99.84566497802734 115.79212951660156" stroke-width="2" fill="none" stroke="rgb(0, 0, 0)" stroke-opacity="1.0" stroke-linecap="round" stroke-linejoin="round"/>
  </g>
</svg>
