<?xml version="1.0" ?>
<svg xmlns="http://www.w3.org/2000/svg" version="1.1" width="224" height="224">
  <defs/>
  <g>
    <path d="M 78.70446014404297 141.45428466796875 C 174.34548950195312 160.46636962890625 52.22010040283203 154.83627319335938 52.55970001220703 126.21024322509766" stroke-width="2" fill="none" stroke="rgb(0, 0, 0)" stroke-opacity="1.0" stroke-linecap="round" stroke-linejoin="round"/>
    <path d="M 129.64759826660156 161.20962524414062 C 16.300613403320312 155.6615447998047 172.88543701171875 184.55050659179688 172.00804138183594 150.0346221923828" stroke-width="2" fill="none" stroke="rgb(0, 0, 0)" stroke-opacity="1.0" stroke-linecap="round" stroke-linejoin="round"/>
    <path d="M 88.48231506347656 132.33868408203125 C 117.38129425048828 119.16400909423828 35.01544189453125 127.8587875366211 159.80081176757812 123.12799835205078" stroke-width="2" fill="none" stroke="rgb(0, 0, 0)" stroke-opacity="1.0" stroke-linecap="round" stroke-linejoin="round"/>
    <path d="M 42.04902267456055 150.90615844726562 C 238.8883514404297 189.31405639648438 157.09420776367188 112.4118423461914 182.40162658691406 122.29898071289062" stroke-width="2" fill="none" stroke="rgb(0, 0, 0)" stroke-opacity="1.0" stroke-linecap="round" stroke-linejoin="round"/>
    <path d="M 186.99484252929688 63.90956115722656 C 174.75393676757812 62.86188888549805 159.993408203125 114.6243896484375 111.72145080566406 67.8074722290039" stroke-width="2" fill="none" stroke="rgb(0, 0, 0)" stroke-opacity="1.0" stroke-linecap="round" stroke-linejoin="round"/>
    <path d="M 131.1884307861328 125.26953125 C 195.28907775878906 131.4928436279297 61.54154968261719 129.23658752441406 122.6144027709961 140.84619140625" stroke-width="2" fill="none" stroke="rgb(0, 0, 0)" stroke-opacity="1.0" stroke-linecap="round" stroke-linejoin="round"/>
    <path d="M 47.458168029785156 111.57064819335938 C 1.250156044960022 170.71275329589844 196.47714233398438 140.27890014648438 138.6439208984375 122.94903564453125" stroke-width="2" fill="none" stroke="rgb(0, 0, 0)" stroke-opacity="1.0" stroke-linecap="round" stroke-linejoin="round"/>
    <path d="M 165.50509643554688 125.58795928955078 C 149.777587890625 72.82860565185547 148.58204650878906 136.5406036376953 185.5483856201172 64.08760070800781" stroke-width="2" fill="none" stroke="rgb(0, 0, 0)" stroke-opacity="1.0" stroke-linecap="round" stroke-linejoin="round"/>
    <path d="M 138.48399353027344 127.888916015625 C 184.659912109375 110.4737548828125 89.75887298583984 112.61002349853516 146.3820037841797 129.1156463623047" stroke-width="2" fill="none" stroke="rgb(0, 0, 0)" stroke-opacity="1.0" stroke-linecap="round" stroke-linejoin="round"/>
    <path d="M 189.9136962890625 63.39057159423828 C 170.0298309326172 142.7881317138672 161.2740936279297 81.16149139404297 129.31649780273438 102.6110610961914" stroke-width="2" fill="none" stroke="rgb(0, 0, 0)" stroke-opacity="1.0" stroke-linecap="round" stroke-linejoin="round"/>
    <path d="M 175.1871337890625 135.3514404296875 C 163.94833374023438 145.1235809326172 191.44297790527344 142.82955932617188 138.62403869628906 151.3104705810547" stroke-width="2" fill="none" stroke="rgb(0, 0, 0)" stroke-opacity="1.0" stroke-linecap="round" stroke-linejoin="round"/>
    <path d="M 127.44255065917969 83.7755355834961 C 83.53746032714844 5.530109882354736 94.84078216552734 99.67189025878906 113.8995132446289 106.82498168945312" stroke-width="2" fill="none" stroke="rgb(0, 0, 0)" stroke-opacity="1.0" stroke-linecap="round" stroke-linejoin="round"/>
    <path d="M 112.5274887084961 143.35707092285156 C 183.98580932617188 141.52627563476562 196.96640014648438 160.70855712890625 122.50847625732422 126.78592681884766" stroke-width="2" fill="none" stroke="rgb(0, 0, 0)" stroke-opacity="1.0" stroke-linecap="round" stroke-linejoin="round"/>
    <path d="M 192.5786590576172 73.05017852783203 C 195.3815155029297 197.13156127929688 88.02122497558594 112.205322265625 156.0140380859375 125.28190612792969" stroke-width="2" fill="none" stroke="rgb(0, 0, 0)" stroke-opacity="1.0" stroke-linecap="round" stroke-linejoin="round"/>
    <path d="M 102.36111450195312 131.09701538085938 C 106.20771026611328 95.6016845703125 104.53977966308594 145.24496459960938 115.01277160644531 98.37064361572266" stroke-width="2" fill="none" stroke="rgb(0, 0, 0)" stroke-opacity="1.0" stroke-linecap="round" stroke-linejoin="round"/>
    <path d="M 37.51744842529297 129.9402618408203 C 51.80840301513672 102.4931869506836 28.376066207885742 90.16815185546875 104.33267211914062 95.01725006103516" stroke-width="2" fill="none" stroke="rgb(0, 0, 0)" stroke-opacity="1.0" stroke-linecap="round" stroke-linejoin="round"/>
  </g>
</svg>
