<?xml version="1.0" ?>
<svg xmlns="http://www.w3.org/2000/svg" version="1.1" width="224" height="224">
  <defs/>
  <g>
    <path d="M 94.2015609741211 113.25052642822266 C 213.54196166992188 151.5326385498047 72.6591796875 121.39728546142578 146.0842742919922 128.78289794921875" stroke-width="2" fill="none" stroke="rgb(0, 0, 0)" stroke-opacity="1.0" stroke-linecap="round" stroke-linejoin="round"/>
    <path d="M 148.88075256347656 139.90953063964844 C 37.58091735839844 115.2250747680664 184.98818969726562 115.47676849365234 112.16193389892578 125.18510437011719" stroke-width="2" fill="none" stroke="rgb(0, 0, 0)" stroke-opacity="1.0" stroke-linecap="round" stroke-linejoin="round"/>
    <path d="M 122.05240631103516 102.77071380615234 C 135.45059204101562 162.5841064453125 139.08567810058594 111.95893859863281 157.120849609375 135.9562225341797" stroke-width="2" fill="none" stroke="rgb(0, 0, 0)" stroke-opacity="1.0" stroke-linecap="round" stroke-linejoin="round"/>
    <path d="M 79.5975112915039 127.9020004272461 C 225.2942657470703 206.01585388183594 177.5709686279297 72.29203796386719 137.73292541503906 86.83325958251953" stroke-width="2" fill="none" stroke="rgb(0, 0, 0)" stroke-opacity="1.0" stroke-linecap="round" stroke-linejoin="round"/>
    <path d="M 166.7847900390625 118.44943237304688 C 116.45279693603516 92.59123229980469 205.25489807128906 112.15157318115234 135.41017150878906 104.62532806396484" stroke-width="2" fill="none" stroke="rgb(0, 0, 0)" stroke-opacity="1.0" stroke-linecap="round" stroke-linejoin="round"/>
    <path d="M 136.385009765625 125.79178619384766 C 176.11965942382812 116.18942260742188 52.798770904541016 132.87071228027344 147.71739196777344 140.92031860351562" stroke-width="2" fill="none" stroke="rgb(0, 0, 0)" stroke-opacity="1.0" stroke-linecap="round" stroke-linejoin="round"/>
    <path d="M 71.54889678955078 100.39958190917969 C -15.292387962341309 168.01052856445312 152.6658172607422 146.2257080078125 92.19105529785156 141.90457153320312" stroke-width="2" fill="none" stroke="rgb(0, 0, 0)" stroke-opacity="1.0" stroke-linecap="round" stroke-linejoin="round"/>
    <path d="M 169.2904815673828 101.43250274658203 C 208.142333984375 -19.816059112548828 140.98956298828125 124.23802947998047 161.7561798095703 82.5941390991211" stroke-width="2" fill="none" stroke="rgb(0, 0, 0)" stroke-opacity="1.0" stroke-linecap="round" stroke-linejoin="round"/>
    <path d="M 158.16310119628906 144.75537109375 C 91.29330444335938 131.37283325195312 67.75977325439453 106.64802551269531 157.64244079589844 131.93692016601562" stroke-width="2" fill="none" stroke="rgb(0, 0, 0)" stroke-opacity="1.0" stroke-linecap="round" stroke-linejoin="round"/>
    <path d="M 168.1845703125 73.11676788330078 C 129.19003295898438 106.69490051269531 115.30226135253906 57.27672576904297 103.13368225097656 59.43893051147461" stroke-width="2" fill="none" stroke="rgb(0, 0, 0)" stroke-opacity="1.0" stroke-linecap="round" stroke-linejoin="round"/>
    <path d="M 67.75607299804688 110.51644134521484 C 54.51544189453125 164.4668731689453 149.6943359375 155.8163299560547 149.03509521484375 151.997314453125" stroke-width="2" fill="none" stroke="rgb(0, 0, 0)" stroke-opacity="1.0" stroke-linecap="round" stroke-linejoin="round"/>
    <path d="M 99.75334930419922 98.27137756347656 C 97.85968017578125 4.096161365509033 106.59799194335938 128.53538513183594 129.95469665527344 94.87376403808594" stroke-width="2" fill="none" stroke="rgb(0, 0, 0)" stroke-opacity="1.0" stroke-linecap="round" stroke-linejoin="round"/>
    <path d="M 58.79676818847656 146.8599853515625 C 203.378173828125 154.06472778320312 206.8152313232422 159.53152465820312 51.724403381347656 158.60865783691406" stroke-width="2" fill="none" stroke="rgb(0, 0, 0)" stroke-opacity="1.0" stroke-linecap="round" stroke-linejoin="round"/>
    <path d="M 173.02015686035156 145.46766662597656 C 158.150390625 124.30055236816406 192.10340881347656 113.50695037841797 184.3300323486328 56.497169494628906" stroke-width="2" fill="none" stroke="rgb(0, 0, 0)" stroke-opacity="1.0" stroke-linecap="round" stroke-linejoin="round"/>
    <path d="M 100.53043365478516 123.2684097290039 C 174.8249053955078 136.7307891845703 160.47239685058594 141.0028076171875 121.07638549804688 138.53187561035156" stroke-width="2" fill="none" stroke="rgb(0, 0, 0)" stroke-opacity="1.0" stroke-linecap="round" stroke-linejoin="round"/>
    <path d="M 87.72931671142578 88.50276947021484 C 104.91390228271484 137.32315063476562 79.74774932861328 101.27404022216797 121.69950866699219 106.51995849609375" stroke-width="2" fill="none" stroke="rgb(0, 0, 0)" stroke-opacity="1.0" stroke-linecap="round" stroke-linejoin="round"/>
  </g>
</svg>
