<?xml version="1.0" ?>
<svg xmlns="http://www.w3.org/2000/svg" version="1.1" width="224" height="224">
  <defs/>
  <g>
    <path d="M 76.6240005493164 101.7750244140625 C 37.84498977661133 111.62747192382812 101.1826171875 91.26730346679688 87.44448852539062 125.36270904541016" stroke-width="2" fill="none" stroke="rgb(0, 0, 0)" stroke-opacity="1.0" stroke-linecap="round" stroke-linejoin="round"/>
    <path d="M 144.3971405029297 138.0384521484375 C 79.57225799560547 96.49315643310547 135.2657928466797 134.9986572265625 108.99040222167969 119.48072814941406" stroke-width="2" fill="none" stroke="rgb(0, 0, 0)" stroke-opacity="1.0" stroke-linecap="round" stroke-linejoin="round"/>
    <path d="M 124.15415954589844 121.59827423095703 C 234.62294006347656 148.18283081054688 74.63480377197266 165.10055541992188 123.82333374023438 108.08316040039062" stroke-width="2" fill="none" stroke="rgb(0, 0, 0)" stroke-opacity="1.0" stroke-linecap="round" stroke-linejoin="round"/>
    <path d="M 42.95212936401367 143.62701416015625 C 187.4516143798828 180.4336395263672 169.2592315673828 166.1308135986328 158.95794677734375 100.9521255493164" stroke-width="2" fill="none" stroke="rgb(0, 0, 0)" stroke-opacity="1.0" stroke-linecap="round" stroke-linejoin="round"/>
    <path d="M 180.5662841796875 63.7448844909668 C 165.08493041992188 60.455936431884766 162.88851928710938 102.59490966796875 122.08629608154297 89.72196197509766" stroke-width="2" fill="none" stroke="rgb(0, 0, 0)" stroke-opacity="1.0" stroke-linecap="round" stroke-linejoin="round"/>
    <path d="M 123.23992919921875 129.792236328125 C 169.6680145263672 126.17938232421875 76.59285736083984 144.08238220214844 140.3146209716797 141.16444396972656" stroke-width="2" fill="none" stroke="rgb(0, 0, 0)" stroke-opacity="1.0" stroke-linecap="round" stroke-linejoin="round"/>
    <path d="M 52.08426284790039 105.88081359863281 C 7.921180725097656 160.90322875976562 83.4336929321289 145.9940185546875 120.19190216064453 152.83265686035156" stroke-width="2" fill="none" stroke="rgb(0, 0, 0)" stroke-opacity="1.0" stroke-linecap="round" stroke-linejoin="round"/>
    <path d="M 149.81893920898438 121.45844268798828 C 58.885074615478516 134.2933807373047 223.0288848876953 137.15481567382812 125.49923706054688 136.3878631591797" stroke-width="2" fill="none" stroke="rgb(0, 0, 0)" stroke-opacity="1.0" stroke-linecap="round" stroke-linejoin="round"/>
    <path d="M 87.8268814086914 145.48509216308594 C 56.716522216796875 136.5922393798828 95.85189056396484 158.67047119140625 66.9544448852539 134.52369689941406" stroke-width="2" fill="none" stroke="rgb(0, 0, 0)" stroke-opacity="1.0" stroke-linecap="round" stroke-linejoin="round"/>
    <path d="M 179.1669464111328 63.384456634521484 C 168.93576049804688 115.89746856689453 145.77105712890625 104.37330627441406 169.7518310546875 101.40262603759766" stroke-width="2" fill="none" stroke="rgb(0, 0, 0)" stroke-opacity="1.0" stroke-linecap="round" stroke-linejoin="round"/>
    <path d="M 163.69459533691406 147.26724243164062 C 53.89085388183594 133.06045532226562 93.10693359375 132.48175048828125 111.03933715820312 142.7666473388672" stroke-width="2" fill="none" stroke="rgb(0, 0, 0)" stroke-opacity="1.0" stroke-linecap="round" stroke-linejoin="round"/>
    <path d="M 112.92314147949219 101.03492736816406 C 34.44343948364258 88.89608001708984 61.87300491333008 139.90383911132812 52.196285247802734 114.3488540649414" stroke-width="2" fill="none" stroke="rgb(0, 0, 0)" stroke-opacity="1.0" stroke-linecap="round" stroke-linejoin="round"/>
    <path d="M 163.21275329589844 117.23692321777344 C 120.5127944946289 75.43567657470703 138.9102020263672 142.8180389404297 107.63914489746094 67.10382843017578" stroke-width="2" fill="none" stroke="rgb(0, 0, 0)" stroke-opacity="1.0" stroke-linecap="round" stroke-linejoin="round"/>
    <path d="M 179.6901092529297 66.79779815673828 C 180.72596740722656 129.9152374267578 145.8546142578125 133.91339111328125 159.2701416015625 123.25018310546875" stroke-width="2" fill="none" stroke="rgb(0, 0, 0)" stroke-opacity="1.0" stroke-linecap="round" stroke-linejoin="round"/>
    <path d="M 122.62653350830078 93.4262466430664 C 88.80459594726562 26.211742401123047 105.16895294189453 109.87556457519531 97.21219635009766 98.74868774414062" stroke-width="2" fill="none" stroke="rgb(0, 0, 0)" stroke-opacity="1.0" stroke-linecap="round" stroke-linejoin="round"/>
    <path d="M 46.19293212890625 121.57860565185547 C 51.20737075805664 96.20946502685547 81.28773498535156 100.01731872558594 96.35273742675781 99.82333374023438" stroke-width="2" fill="none" stroke="rgb(0, 0, 0)" stroke-opacity="1.0" stroke-linecap="round" stroke-linejoin="round"/>
  </g>
</svg>
