<?xml version="1.0" ?>
<svg xmlns="http://www.w3.org/2000/svg" version="1.1" width="224" height="224">
  <defs/>
  <g>
    <path d="M 72.90985107421875 137.2700958251953 C 149.89279174804688 175.3422393798828 54.36723709106445 170.1141815185547 63.33818817138672 122.46846008300781" stroke-width="2" fill="none" stroke="rgb(0, 0, 0)" stroke-opacity="1.0" stroke-linecap="round" stroke-linejoin="round"/>
    <path d="M 116.6616439819336 162.9158935546875 C 45.35123062133789 136.70046997070312 179.7512969970703 164.26351928710938 166.0426788330078 139.0977783203125" stroke-width="2" fill="none" stroke="rgb(0, 0, 0)" stroke-opacity="1.0" stroke-linecap="round" stroke-linejoin="round"/>
    <path d="M 86.77517700195312 122.08063507080078 C 129.35240173339844 131.54856872558594 31.808008193969727 130.1525421142578 158.59298706054688 136.93243408203125" stroke-width="2" fill="none" stroke="rgb(0, 0, 0)" stroke-opacity="1.0" stroke-linecap="round" stroke-linejoin="round"/>
    <path d="M 69.70285034179688 174.03244018554688 C 235.39950561523438 179.2806854248047 144.98056030273438 123.10549926757812 161.98887634277344 134.00936889648438" stroke-width="2" fill="none" stroke="rgb(0, 0, 0)" stroke-opacity="1.0" stroke-linecap="round" stroke-linejoin="round"/>
    <path d="M 184.7823944091797 62.656288146972656 C 175.69737243652344 60.7387809753418 144.4823760986328 123.71170806884766 109.91632080078125 83.02159118652344" stroke-width="2" fill="none" stroke="rgb(0, 0, 0)" stroke-opacity="1.0" stroke-linecap="round" stroke-linejoin="round"/>
    <path d="M 154.81776428222656 139.12408447265625 C 206.26622009277344 131.1512908935547 62.06169128417969 120.82125854492188 108.27105712890625 131.74166870117188" stroke-width="2" fill="none" stroke="rgb(0, 0, 0)" stroke-opacity="1.0" stroke-linecap="round" stroke-linejoin="round"/>
    <path d="M 46.724002838134766 125.44456481933594 C -1.536273717880249 191.3697967529297 216.18653869628906 163.87664794921875 170.4788818359375 125.21734619140625" stroke-width="2" fill="none" stroke="rgb(0, 0, 0)" stroke-opacity="1.0" stroke-linecap="round" stroke-linejoin="round"/>
    <path d="M 159.2515411376953 121.05238342285156 C 150.74241638183594 58.71872329711914 147.22909545898438 128.1259307861328 178.5269012451172 68.57144927978516" stroke-width="2" fill="none" stroke="rgb(0, 0, 0)" stroke-opacity="1.0" stroke-linecap="round" stroke-linejoin="round"/>
    <path d="M 117.3320083618164 125.85498809814453 C 200.9657745361328 126.37662506103516 74.80419158935547 134.54367065429688 136.06224060058594 138.57205200195312" stroke-width="2" fill="none" stroke="rgb(0, 0, 0)" stroke-opacity="1.0" stroke-linecap="round" stroke-linejoin="round"/>
    <path d="M 186.03146362304688 63.592140197753906 C 163.21778869628906 152.97767639160156 156.37136840820312 76.16923522949219 123.1256103515625 100.0831527709961" stroke-width="2" fill="none" stroke="rgb(0, 0, 0)" stroke-opacity="1.0" stroke-linecap="round" stroke-linejoin="round"/>
    <path d="M 177.3584442138672 139.80482482910156 C 172.7230682373047 157.6014404296875 187.13580322265625 154.41366577148438 150.7054443359375 155.0699462890625" stroke-width="2" fill="none" stroke="rgb(0, 0, 0)" stroke-opacity="1.0" stroke-linecap="round" stroke-linejoin="round"/>
    <path d="M 118.59272003173828 101.28557586669922 C 83.78121185302734 18.897947311401367 101.2713851928711 122.84436798095703 95.94049835205078 94.78771209716797" stroke-width="2" fill="none" stroke="rgb(0, 0, 0)" stroke-opacity="1.0" stroke-linecap="round" stroke-linejoin="round"/>
    <path d="M 116.219970703125 139.4700927734375 C 177.06332397460938 158.39942932128906 198.19869995117188 137.0154571533203 115.50680541992188 126.4655532836914" stroke-width="2" fill="none" stroke="rgb(0, 0, 0)" stroke-opacity="1.0" stroke-linecap="round" stroke-linejoin="round"/>
    <path d="M 170.04737854003906 88.18566131591797 C 173.21485900878906 182.5287322998047 84.79354858398438 98.81885528564453 148.6739959716797 131.34152221679688" stroke-width="2" fill="none" stroke="rgb(0, 0, 0)" stroke-opacity="1.0" stroke-linecap="round" stroke-linejoin="round"/>
    <path d="M 107.01719665527344 136.23257446289062 C 111.20657348632812 92.80137634277344 83.57064819335938 147.1705322265625 102.586669921875 98.5368423461914" stroke-width="2" fill="none" stroke="rgb(0, 0, 0)" stroke-opacity="1.0" stroke-linecap="round" stroke-linejoin="round"/>
    <path d="M 49.08799362182617 139.93569946289062 C 35.368865966796875 116.16979217529297 39.919898986816406 91.31570434570312 94.2200927734375 98.2876205444336" stroke-width="2" fill="none" stroke="rgb(0, 0, 0)" stroke-opacity="1.0" stroke-linecap="round" stroke-linejoin="round"/>
  </g>
</svg>
