<?xml version="1.0" ?>
<svg xmlns="http://www.w3.org/2000/svg" version="1.1" width="224" height="224">
  <defs/>
  <g>
    <path d="M 63.33638381958008 130.10617065429688 C 91.38504791259766 152.38607788085938 42.64494705200195 140.0519561767578 59.70164489746094 125.71276092529297" stroke-width="2" fill="none" stroke="rgb(0, 0, 0)" stroke-opacity="1.0" stroke-linecap="round" stroke-linejoin="round"/>
    <path d="M 147.103759765625 119.4040756225586 C 46.419429779052734 124.89311218261719 208.3121795654297 166.0355682373047 157.0520477294922 160.49359130859375" stroke-width="2" fill="none" stroke="rgb(0, 0, 0)" stroke-opacity="1.0" stroke-linecap="round" stroke-linejoin="round"/>
    <path d="M 119.53086853027344 121.19715881347656 C 201.3680877685547 110.7117691040039 88.62663269042969 142.84034729003906 157.60662841796875 131.4338836669922" stroke-width="2" fill="none" stroke="rgb(0, 0, 0)" stroke-opacity="1.0" stroke-linecap="round" stroke-linejoin="round"/>
    <path d="M 64.10057830810547 136.55093383789062 C 231.47132873535156 205.2101593017578 147.91482543945312 113.29596710205078 168.16629028320312 81.60712432861328" stroke-width="2" fill="none" stroke="rgb(0, 0, 0)" stroke-opacity="1.0" stroke-linecap="round" stroke-linejoin="round"/>
    <path d="M 181.42904663085938 63.40636444091797 C 175.80255126953125 41.59495544433594 146.62347412109375 122.70088195800781 112.04888916015625 65.77857208251953" stroke-width="2" fill="none" stroke="rgb(0, 0, 0)" stroke-opacity="1.0" stroke-linecap="round" stroke-linejoin="round"/>
    <path d="M 122.01696014404297 126.13789367675781 C 220.7686004638672 123.13136291503906 121.4513931274414 97.16459655761719 164.7711944580078 115.1281509399414" stroke-width="2" fill="none" stroke="rgb(0, 0, 0)" stroke-opacity="1.0" stroke-linecap="round" stroke-linejoin="round"/>
    <path d="M 52.405513763427734 102.37471008300781 C -10.851306915283203 167.27218627929688 174.81591796875 138.32168579101562 172.79678344726562 147.2093963623047" stroke-width="2" fill="none" stroke="rgb(0, 0, 0)" stroke-opacity="1.0" stroke-linecap="round" stroke-linejoin="round"/>
    <path d="M 170.0507354736328 108.6888198852539 C 158.8444061279297 77.6049575805664 171.73306274414062 134.36302185058594 178.77899169921875 61.50107192993164" stroke-width="2" fill="none" stroke="rgb(0, 0, 0)" stroke-opacity="1.0" stroke-linecap="round" stroke-linejoin="round"/>
    <path d="M 140.39122009277344 117.35231018066406 C 201.04864501953125 119.52204895019531 96.76303100585938 123.40216064453125 158.31576538085938 129.6396026611328" stroke-width="2" fill="none" stroke="rgb(0, 0, 0)" stroke-opacity="1.0" stroke-linecap="round" stroke-linejoin="round"/>
    <path d="M 173.33154296875 66.05545806884766 C 157.65052795410156 114.57984924316406 144.09996032714844 92.1548080444336 144.4852294921875 90.62730407714844" stroke-width="2" fill="none" stroke="rgb(0, 0, 0)" stroke-opacity="1.0" stroke-linecap="round" stroke-linejoin="round"/>
    <path d="M 150.87750244140625 119.80098724365234 C 115.11781311035156 131.33831787109375 192.28233337402344 145.44674682617188 119.93363189697266 120.40431213378906" stroke-width="2" fill="none" stroke="rgb(0, 0, 0)" stroke-opacity="1.0" stroke-linecap="round" stroke-linejoin="round"/>
    <path d="M 117.45660400390625 100.19480895996094 C 89.31932830810547 16.676002502441406 92.45989227294922 120.76188659667969 93.72618865966797 88.75337982177734" stroke-width="2" fill="none" stroke="rgb(0, 0, 0)" stroke-opacity="1.0" stroke-linecap="round" stroke-linejoin="round"/>
    <path d="M 122.30084991455078 118.49300384521484 C 178.7410430908203 114.68209838867188 203.4854736328125 172.2360382080078 117.1494140625 152.28598022460938" stroke-width="2" fill="none" stroke="rgb(0, 0, 0)" stroke-opacity="1.0" stroke-linecap="round" stroke-linejoin="round"/>
    <path d="M 182.46823120117188 61.77970886230469 C 187.99710083007812 182.39390563964844 96.54039001464844 117.39039611816406 126.03015899658203 138.5858612060547" stroke-width="2" fill="none" stroke="rgb(0, 0, 0)" stroke-opacity="1.0" stroke-linecap="round" stroke-linejoin="round"/>
    <path d="M 110.27510070800781 144.3338165283203 C 106.68963623046875 80.77861022949219 103.02117156982422 147.72093200683594 117.5871353149414 99.1715316772461" stroke-width="2" fill="none" stroke="rgb(0, 0, 0)" stroke-opacity="1.0" stroke-linecap="round" stroke-linejoin="round"/>
    <path d="M 46.6825065612793 98.99507141113281 C 48.51498031616211 115.97806549072266 50.941741943359375 83.21124267578125 94.43022155761719 94.63104248046875" stroke-width="2" fill="none" stroke="rgb(0, 0, 0)" stroke-opacity="1.0" stroke-linecap="round" stroke-linejoin="round"/>
  </g>
</svg>
