<?xml version="1.0" ?>
<svg xmlns="http://www.w3.org/2000/svg" version="1.1" width="224" height="224">
  <defs/>
  <g>
    <path d="M 36.331722259521484 140.34979248046875 C 103.85174560546875 154.78289794921875 56.79352569580078 146.11549377441406 70.68778228759766 126.50936889648438" stroke-width="2" fill="none" stroke="rgb(0, 0, 0)" stroke-opacity="1.0" stroke-linecap="round" stroke-linejoin="round"/>
    <path d="M 112.5234375 134.1639862060547 C 90.09555053710938 100.74481964111328 176.04574584960938 128.3884735107422 109.40975189208984 119.8666763305664" stroke-width="2" fill="none" stroke="rgb(0, 0, 0)" stroke-opacity="1.0" stroke-linecap="round" stroke-linejoin="round"/>
    <path d="M 153.08689880371094 116.24850463867188 C 193.23648071289062 110.29035186767578 76.79530334472656 139.3634796142578 83.49159240722656 125.37254333496094" stroke-width="2" fill="none" stroke="rgb(0, 0, 0)" stroke-opacity="1.0" stroke-linecap="round" stroke-linejoin="round"/>
    <path d="M 92.85028839111328 133.2476806640625 C 229.7587890625 185.07345581054688 141.23406982421875 115.03943634033203 174.9065704345703 90.11072540283203" stroke-width="2" fill="none" stroke="rgb(0, 0, 0)" stroke-opacity="1.0" stroke-linecap="round" stroke-linejoin="round"/>
    <path d="M 181.42184448242188 56.926570892333984 C 173.5114288330078 45.89776611328125 160.47003173828125 99.00747680664062 131.42913818359375 88.16239166259766" stroke-width="2" fill="none" stroke="rgb(0, 0, 0)" stroke-opacity="1.0" stroke-linecap="round" stroke-linejoin="round"/>
    <path d="M 143.3520965576172 122.58737182617188 C 223.1480712890625 146.4563751220703 43.39188766479492 97.42534637451172 141.03717041015625 126.13221740722656" stroke-width="2" fill="none" stroke="rgb(0, 0, 0)" stroke-opacity="1.0" stroke-linecap="round" stroke-linejoin="round"/>
    <path d="M 42.66635513305664 98.73018646240234 C 1.5658190250396729 157.1427459716797 129.7214813232422 168.87217712402344 170.53311157226562 154.84368896484375" stroke-width="2" fill="none" stroke="rgb(0, 0, 0)" stroke-opacity="1.0" stroke-linecap="round" stroke-linejoin="round"/>
    <path d="M 167.2138214111328 104.06461334228516 C 105.32291412353516 103.55116271972656 225.59921264648438 103.10667419433594 130.81019592285156 137.02017211914062" stroke-width="2" fill="none" stroke="rgb(0, 0, 0)" stroke-opacity="1.0" stroke-linecap="round" stroke-linejoin="round"/>
    <path d="M 106.20480346679688 111.00872802734375 C 145.9563751220703 122.92078399658203 136.62989807128906 96.2082748413086 101.56295013427734 118.68089294433594" stroke-width="2" fill="none" stroke="rgb(0, 0, 0)" stroke-opacity="1.0" stroke-linecap="round" stroke-linejoin="round"/>
    <path d="M 181.10545349121094 64.94889068603516 C 170.6094207763672 117.82554626464844 131.40403747558594 62.535560607910156 170.54469299316406 103.82762145996094" stroke-width="2" fill="none" stroke="rgb(0, 0, 0)" stroke-opacity="1.0" stroke-linecap="round" stroke-linejoin="round"/>
    <path d="M 136.4727325439453 149.88792419433594 C 30.401233673095703 149.1654052734375 98.78329467773438 147.76905822753906 107.4489974975586 148.41201782226562" stroke-width="2" fill="none" stroke="rgb(0, 0, 0)" stroke-opacity="1.0" stroke-linecap="round" stroke-linejoin="round"/>
    <path d="M 97.32679748535156 91.95123291015625 C 48.23024368286133 88.73224639892578 51.39837646484375 108.11812591552734 65.73931121826172 95.65119171142578" stroke-width="2" fill="none" stroke="rgb(0, 0, 0)" stroke-opacity="1.0" stroke-linecap="round" stroke-linejoin="round"/>
    <path d="M 127.4518814086914 99.1605453491211 C 135.55459594726562 82.4955062866211 122.6117935180664 104.96671295166016 103.01639556884766 60.93764114379883" stroke-width="2" fill="none" stroke="rgb(0, 0, 0)" stroke-opacity="1.0" stroke-linecap="round" stroke-linejoin="round"/>
    <path d="M 180.39797973632812 57.01947784423828 C 177.45997619628906 176.32620239257812 120.93144989013672 91.52835083007812 165.8256378173828 115.298095703125" stroke-width="2" fill="none" stroke="rgb(0, 0, 0)" stroke-opacity="1.0" stroke-linecap="round" stroke-linejoin="round"/>
    <path d="M 117.06008911132812 80.77562713623047 C 85.57662963867188 34.73612594604492 104.42533111572266 123.10832214355469 102.5048828125 93.34351348876953" stroke-width="2" fill="none" stroke="rgb(0, 0, 0)" stroke-opacity="1.0" stroke-linecap="round" stroke-linejoin="round"/>
    <path d="M 56.25031661987305 135.35606384277344 C 43.488704681396484 106.45555877685547 43.01375198364258 80.89788818359375 77.21118927001953 108.95899963378906" stroke-width="2" fill="none" stroke="rgb(0, 0, 0)" stroke-opacity="1.0" stroke-linecap="round" stroke-linejoin="round"/>
  </g>
</svg>
