<?xml version="1.0" ?>
<svg xmlns="http://www.w3.org/2000/svg" version="1.1" width="224" height="224">
  <defs/>
  <g>
    <path d="M 92.9249267578125 115.46659088134766 C 45.769222259521484 118.83935546875 70.64514923095703 99.56648254394531 91.49058532714844 109.07173919677734" stroke-width="2" fill="none" stroke="rgb(0, 0, 0)" stroke-opacity="1.0" stroke-linecap="round" stroke-linejoin="round"/>
    <path d="M 126.44481658935547 136.38719177246094 C 114.40113830566406 132.094970703125 129.27296447753906 128.78500366210938 108.62281799316406 131.49371337890625" stroke-width="2" fill="none" stroke="rgb(0, 0, 0)" stroke-opacity="1.0" stroke-linecap="round" stroke-linejoin="round"/>
    <path d="M 130.99862670898438 117.42945861816406 C 134.76007080078125 121.40135955810547 105.05538177490234 114.74192810058594 122.65034484863281 109.61479949951172" stroke-width="2" fill="none" stroke="rgb(0, 0, 0)" stroke-opacity="1.0" stroke-linecap="round" stroke-linejoin="round"/>
    <path d="M 114.37908935546875 135.7867889404297 C 145.54541015625 131.03883361816406 150.52017211914062 125.838134765625 156.0541534423828 108.32363891601562" stroke-width="2" fill="none" stroke="rgb(0, 0, 0)" stroke-opacity="1.0" stroke-linecap="round" stroke-linejoin="round"/>
    <path d="M 129.5401153564453 99.21765899658203 C 156.65066528320312 103.7642593383789 134.11480712890625 97.88472747802734 103.80450439453125 67.56298065185547" stroke-width="2" fill="none" stroke="rgb(0, 0, 0)" stroke-opacity="1.0" stroke-linecap="round" stroke-linejoin="round"/>
    <path d="M 107.2618179321289 114.47509002685547 C 116.2392349243164 106.50796508789062 106.97882843017578 112.02664184570312 112.94319152832031 99.98129272460938" stroke-width="2" fill="none" stroke="rgb(0, 0, 0)" stroke-opacity="1.0" stroke-linecap="round" stroke-linejoin="round"/>
    <path d="M 37.66411209106445 137.40887451171875 C 45.22868728637695 146.74913024902344 79.74803161621094 142.1705322265625 133.52023315429688 142.234619140625" stroke-width="2" fill="none" stroke="rgb(0, 0, 0)" stroke-opacity="1.0" stroke-linecap="round" stroke-linejoin="round"/>
    <path d="M 148.47532653808594 113.47528076171875 C 155.41915893554688 139.79933166503906 141.18788146972656 103.52288818359375 117.70864868164062 118.19288635253906" stroke-width="2" fill="none" stroke="rgb(0, 0, 0)" stroke-opacity="1.0" stroke-linecap="round" stroke-linejoin="round"/>
    <path d="M 154.91537475585938 137.19210815429688 C 138.45579528808594 134.1167755126953 133.3704071044922 137.4491729736328 90.42912292480469 138.57901000976562" stroke-width="2" fill="none" stroke="rgb(0, 0, 0)" stroke-opacity="1.0" stroke-linecap="round" stroke-linejoin="round"/>
    <path d="M 177.39329528808594 67.03720092773438 C 162.1914825439453 118.32015228271484 122.53528594970703 119.47112274169922 177.25901794433594 64.34274291992188" stroke-width="2" fill="none" stroke="rgb(0, 0, 0)" stroke-opacity="1.0" stroke-linecap="round" stroke-linejoin="round"/>
    <path d="M 173.75820922851562 117.25008392333984 C 181.9142303466797 137.41810607910156 181.26763916015625 141.75360107421875 171.6444091796875 147.0542449951172" stroke-width="2" fill="none" stroke="rgb(0, 0, 0)" stroke-opacity="1.0" stroke-linecap="round" stroke-linejoin="round"/>
    <path d="M 75.06266784667969 138.71507263183594 C 35.707542419433594 138.02793884277344 33.90349197387695 127.04593658447266 70.43766021728516 151.7283477783203" stroke-width="2" fill="none" stroke="rgb(0, 0, 0)" stroke-opacity="1.0" stroke-linecap="round" stroke-linejoin="round"/>
    <path d="M 111.79385375976562 104.27361297607422 C 122.0686264038086 98.74394989013672 100.5823745727539 111.40313720703125 104.9815902709961 67.53046417236328" stroke-width="2" fill="none" stroke="rgb(0, 0, 0)" stroke-opacity="1.0" stroke-linecap="round" stroke-linejoin="round"/>
    <path d="M 176.7463836669922 63.28304672241211 C 184.3634490966797 94.10586547851562 174.58560180664062 94.74433135986328 163.88316345214844 124.36772155761719" stroke-width="2" fill="none" stroke="rgb(0, 0, 0)" stroke-opacity="1.0" stroke-linecap="round" stroke-linejoin="round"/>
    <path d="M 89.38983917236328 66.34286499023438 C 68.86666107177734 93.3147964477539 77.74683380126953 109.1657485961914 79.04422760009766 79.94690704345703" stroke-width="2" fill="none" stroke="rgb(0, 0, 0)" stroke-opacity="1.0" stroke-linecap="round" stroke-linejoin="round"/>
    <path d="M 44.991634368896484 136.01052856445312 C 37.36521911621094 125.64608001708984 43.7178840637207 115.12571716308594 36.71379470825195 134.3495330810547" stroke-width="2" fill="none" stroke="rgb(0, 0, 0)" stroke-opacity="1.0" stroke-linecap="round" stroke-linejoin="round"/>
  </g>
</svg>
