<?xml version="1.0" ?>
<svg xmlns="http://www.w3.org/2000/svg" version="1.1" width="224" height="224">
  <defs/>
  <g>
    <path d="M 69.59759521484375 155.98043823242188 C 152.3794708251953 173.07383728027344 29.710132598876953 122.45711517333984 54.773109436035156 133.031005859375" stroke-width="2" fill="none" stroke="rgb(0, 0, 0)" stroke-opacity="1.0" stroke-linecap="round" stroke-linejoin="round"/>
    <path d="M 127.78448486328125 104.33325958251953 C 53.902156829833984 130.89877319335938 181.73533630371094 123.40264892578125 119.91108703613281 119.58982849121094" stroke-width="2" fill="none" stroke="rgb(0, 0, 0)" stroke-opacity="1.0" stroke-linecap="round" stroke-linejoin="round"/>
    <path d="M 147.75241088867188 148.43328857421875 C 215.38531494140625 115.5865249633789 116.85530090332031 94.76510620117188 144.6776885986328 106.11238098144531" stroke-width="2" fill="none" stroke="rgb(0, 0, 0)" stroke-opacity="1.0" stroke-linecap="round" stroke-linejoin="round"/>
    <path d="M 52.604732513427734 139.26759338378906 C 253.38943481445312 172.3186492919922 145.48007202148438 126.95386505126953 174.93283081054688 106.4242172241211" stroke-width="2" fill="none" stroke="rgb(0, 0, 0)" stroke-opacity="1.0" stroke-linecap="round" stroke-linejoin="round"/>
    <path d="M 183.3765411376953 56.523826599121094 C 167.91127014160156 51.00048065185547 141.05189514160156 126.73204040527344 101.92214965820312 64.22216033935547" stroke-width="2" fill="none" stroke="rgb(0, 0, 0)" stroke-opacity="1.0" stroke-linecap="round" stroke-linejoin="round"/>
    <path d="M 113.92430114746094 131.83448791503906 C 220.82571411132812 146.6576690673828 40.40630340576172 116.32563781738281 146.12762451171875 131.01828002929688" stroke-width="2" fill="none" stroke="rgb(0, 0, 0)" stroke-opacity="1.0" stroke-linecap="round" stroke-linejoin="round"/>
    <path d="M 52.47107696533203 108.8536376953125 C 1.7055094242095947 172.27865600585938 189.36953735351562 172.05264282226562 115.03904724121094 140.96441650390625" stroke-width="2" fill="none" stroke="rgb(0, 0, 0)" stroke-opacity="1.0" stroke-linecap="round" stroke-linejoin="round"/>
    <path d="M 147.27720642089844 128.3717498779297 C 143.29051208496094 102.54851531982422 178.74513244628906 144.8770294189453 155.54905700683594 96.54689025878906" stroke-width="2" fill="none" stroke="rgb(0, 0, 0)" stroke-opacity="1.0" stroke-linecap="round" stroke-linejoin="round"/>
    <path d="M 125.89615631103516 113.815673828125 C 177.1563720703125 130.15994262695312 92.35294342041016 119.5528564453125 134.5229949951172 123.60394287109375" stroke-width="2" fill="none" stroke="rgb(0, 0, 0)" stroke-opacity="1.0" stroke-linecap="round" stroke-linejoin="round"/>
    <path d="M 182.60382080078125 56.780311584472656 C 154.61703491210938 113.6632080078125 167.87075805664062 85.22247314453125 147.2454833984375 85.11478424072266" stroke-width="2" fill="none" stroke="rgb(0, 0, 0)" stroke-opacity="1.0" stroke-linecap="round" stroke-linejoin="round"/>
    <path d="M 146.85565185546875 125.5233383178711 C 96.97947692871094 101.0760498046875 127.55807495117188 128.562744140625 150.3760986328125 120.57592010498047" stroke-width="2" fill="none" stroke="rgb(0, 0, 0)" stroke-opacity="1.0" stroke-linecap="round" stroke-linejoin="round"/>
    <path d="M 97.70159149169922 65.31586456298828 C 84.10022735595703 74.20635986328125 112.5976791381836 109.69451141357422 97.32305145263672 137.2814483642578" stroke-width="2" fill="none" stroke="rgb(0, 0, 0)" stroke-opacity="1.0" stroke-linecap="round" stroke-linejoin="round"/>
    <path d="M 81.95574188232422 121.74930572509766 C 99.56312561035156 125.121337890625 81.47879791259766 155.88658142089844 112.5843505859375 94.81983947753906" stroke-width="2" fill="none" stroke="rgb(0, 0, 0)" stroke-opacity="1.0" stroke-linecap="round" stroke-linejoin="round"/>
    <path d="M 182.2420196533203 61.0157356262207 C 185.38717651367188 139.21690368652344 99.22135925292969 128.83082580566406 147.9823455810547 140.90814208984375" stroke-width="2" fill="none" stroke="rgb(0, 0, 0)" stroke-opacity="1.0" stroke-linecap="round" stroke-linejoin="round"/>
    <path d="M 113.6483383178711 112.65807342529297 C 84.8122329711914 80.78791809082031 124.81095123291016 134.73654174804688 98.84564208984375 96.05038452148438" stroke-width="2" fill="none" stroke="rgb(0, 0, 0)" stroke-opacity="1.0" stroke-linecap="round" stroke-linejoin="round"/>
    <path d="M 61.40520095825195 118.31105041503906 C 50.83012390136719 122.88477325439453 37.26315689086914 87.51091003417969 101.7726058959961 100.86249542236328" stroke-width="2" fill="none" stroke="rgb(0, 0, 0)" stroke-opacity="1.0" stroke-linecap="round" stroke-linejoin="round"/>
  </g>
</svg>
