<?xml version="1.0" ?>
<svg xmlns="http://www.w3.org/2000/svg" version="1.1" width="224" height="224">
  <defs/>
  <g>
    <path d="M 80.24324035644531 134.83250427246094 C 79.7748031616211 162.7211151123047 24.29228973388672 143.46841430664062 42.785804748535156 119.83894348144531" stroke-width="2" fill="none" stroke="rgb(0, 0, 0)" stroke-opacity="1.0" stroke-linecap="round" stroke-linejoin="round"/>
    <path d="M 147.67420959472656 125.51529693603516 C 46.45602035522461 139.60841369628906 210.86764526367188 154.32862854003906 139.74708557128906 145.98936462402344" stroke-width="2" fill="none" stroke="rgb(0, 0, 0)" stroke-opacity="1.0" stroke-linecap="round" stroke-linejoin="round"/>
    <path d="M 121.86474609375 115.55735778808594 C 199.3115997314453 115.66597747802734 83.98770904541016 122.56251525878906 148.92572021484375 124.04325866699219" stroke-width="2" fill="none" stroke="rgb(0, 0, 0)" stroke-opacity="1.0" stroke-linecap="round" stroke-linejoin="round"/>
    <path d="M 77.22808837890625 136.58203125 C 224.36407470703125 196.87965393066406 139.5218963623047 108.67567443847656 166.44955444335938 87.36600494384766" stroke-width="2" fill="none" stroke="rgb(0, 0, 0)" stroke-opacity="1.0" stroke-linecap="round" stroke-linejoin="round"/>
    <path d="M 186.77708435058594 51.17351531982422 C 182.83619689941406 37.29924392700195 145.1266326904297 116.11697387695312 112.44904327392578 61.17750930786133" stroke-width="2" fill="none" stroke="rgb(0, 0, 0)" stroke-opacity="1.0" stroke-linecap="round" stroke-linejoin="round"/>
    <path d="M 125.81483459472656 119.30420684814453 C 221.27867126464844 116.79676055908203 105.27505493164062 101.41609954833984 169.90667724609375 111.6259536743164" stroke-width="2" fill="none" stroke="rgb(0, 0, 0)" stroke-opacity="1.0" stroke-linecap="round" stroke-linejoin="round"/>
    <path d="M 54.71953582763672 99.34162139892578 C -14.694442749023438 171.51234436035156 173.64822387695312 143.91543579101562 141.7522735595703 157.12478637695312" stroke-width="2" fill="none" stroke="rgb(0, 0, 0)" stroke-opacity="1.0" stroke-linecap="round" stroke-linejoin="round"/>
    <path d="M 169.5160675048828 110.08173370361328 C 143.7073974609375 71.22793579101562 170.49720764160156 122.23099517822266 180.88113403320312 77.18502044677734" stroke-width="2" fill="none" stroke="rgb(0, 0, 0)" stroke-opacity="1.0" stroke-linecap="round" stroke-linejoin="round"/>
    <path d="M 132.62831115722656 108.2711410522461 C 173.00816345214844 122.45559692382812 79.7874755859375 121.61719512939453 147.5240020751953 125.32200622558594" stroke-width="2" fill="none" stroke="rgb(0, 0, 0)" stroke-opacity="1.0" stroke-linecap="round" stroke-linejoin="round"/>
    <path d="M 185.5389404296875 57.36530685424805 C 154.53915405273438 107.8164291381836 155.5133514404297 82.86296081542969 142.9222412109375 80.4715576171875" stroke-width="2" fill="none" stroke="rgb(0, 0, 0)" stroke-opacity="1.0" stroke-linecap="round" stroke-linejoin="round"/>
    <path d="M 156.19979858398438 109.54684448242188 C 106.36763000488281 123.2560043334961 200.48062133789062 131.37759399414062 120.42293548583984 129.2663116455078" stroke-width="2" fill="none" stroke="rgb(0, 0, 0)" stroke-opacity="1.0" stroke-linecap="round" stroke-linejoin="round"/>
    <path d="M 135.2965850830078 75.60226440429688 C 78.86119842529297 10.57194995880127 120.01158142089844 121.29915618896484 116.44489288330078 94.80975341796875" stroke-width="2" fill="none" stroke="rgb(0, 0, 0)" stroke-opacity="1.0" stroke-linecap="round" stroke-linejoin="round"/>
    <path d="M 117.17304229736328 117.57498168945312 C 169.61131286621094 121.8312759399414 188.73919677734375 157.80491638183594 94.396240234375 141.2965545654297" stroke-width="2" fill="none" stroke="rgb(0, 0, 0)" stroke-opacity="1.0" stroke-linecap="round" stroke-linejoin="round"/>
    <path d="M 187.6642303466797 48.39417266845703 C 173.09515380859375 165.85328674316406 83.9059066772461 129.52947998046875 123.62681579589844 115.17259979248047" stroke-width="2" fill="none" stroke="rgb(0, 0, 0)" stroke-opacity="1.0" stroke-linecap="round" stroke-linejoin="round"/>
    <path d="M 116.5728988647461 137.36781311035156 C 102.40280151367188 85.48565673828125 101.39432525634766 143.79017639160156 118.35099792480469 93.72992706298828" stroke-width="2" fill="none" stroke="rgb(0, 0, 0)" stroke-opacity="1.0" stroke-linecap="round" stroke-linejoin="round"/>
    <path d="M 86.78690338134766 106.02532196044922 C 37.76200866699219 112.0948486328125 55.133731842041016 81.62674713134766 102.46924591064453 85.22982025146484" stroke-width="2" fill="none" stroke="rgb(0, 0, 0)" stroke-opacity="1.0" stroke-linecap="round" stroke-linejoin="round"/>
  </g>
</svg>
