<?xml version="1.0" ?>
<svg xmlns="http://www.w3.org/2000/svg" version="1.1" width="224" height="224">
  <defs/>
  <g>
    <path d="M 100.86922454833984 119.29515075683594 C 198.2437744140625 141.1806182861328 88.01642608642578 107.31489562988281 154.9171905517578 128.7201690673828" stroke-width="2" fill="none" stroke="rgb(0, 0, 0)" stroke-opacity="1.0" stroke-linecap="round" stroke-linejoin="round"/>
    <path d="M 150.58349609375 139.80873107910156 C 59.632774353027344 128.0697784423828 200.97738647460938 133.3445281982422 106.14593505859375 125.48053741455078" stroke-width="2" fill="none" stroke="rgb(0, 0, 0)" stroke-opacity="1.0" stroke-linecap="round" stroke-linejoin="round"/>
    <path d="M 108.41349792480469 92.81761169433594 C 81.88106536865234 158.46047973632812 124.91742706298828 76.3197021484375 142.33560180664062 129.03759765625" stroke-width="2" fill="none" stroke="rgb(0, 0, 0)" stroke-opacity="1.0" stroke-linecap="round" stroke-linejoin="round"/>
    <path d="M 78.5188980102539 131.3677520751953 C 220.73191833496094 206.19522094726562 176.84283447265625 42.11722946166992 159.51400756835938 83.3237075805664" stroke-width="2" fill="none" stroke="rgb(0, 0, 0)" stroke-opacity="1.0" stroke-linecap="round" stroke-linejoin="round"/>
    <path d="M 157.22596740722656 120.77969360351562 C 113.20162200927734 110.03877258300781 197.18370056152344 116.35579681396484 148.95321655273438 106.28313446044922" stroke-width="2" fill="none" stroke="rgb(0, 0, 0)" stroke-opacity="1.0" stroke-linecap="round" stroke-linejoin="round"/>
    <path d="M 111.44813537597656 116.9783935546875 C 172.30084228515625 106.89844512939453 53.97340393066406 118.54898834228516 124.50585174560547 116.34131622314453" stroke-width="2" fill="none" stroke="rgb(0, 0, 0)" stroke-opacity="1.0" stroke-linecap="round" stroke-linejoin="round"/>
    <path d="M 72.66609191894531 91.78672790527344 C -20.515689849853516 165.7093505859375 106.69550323486328 156.02426147460938 37.172027587890625 137.56106567382812" stroke-width="2" fill="none" stroke="rgb(0, 0, 0)" stroke-opacity="1.0" stroke-linecap="round" stroke-linejoin="round"/>
    <path d="M 180.8841552734375 98.30390167236328 C 202.93020629882812 -15.861802101135254 154.04348754882812 131.36294555664062 174.01856994628906 86.29609680175781" stroke-width="2" fill="none" stroke="rgb(0, 0, 0)" stroke-opacity="1.0" stroke-linecap="round" stroke-linejoin="round"/>
    <path d="M 146.31272888183594 163.52867126464844 C 87.41618347167969 143.05596923828125 59.98427200317383 114.10352325439453 159.8929443359375 127.8473129272461" stroke-width="2" fill="none" stroke="rgb(0, 0, 0)" stroke-opacity="1.0" stroke-linecap="round" stroke-linejoin="round"/>
    <path d="M 152.96424865722656 78.49671936035156 C 125.74697875976562 101.29627227783203 118.16708374023438 41.175228118896484 102.2846908569336 36.457054138183594" stroke-width="2" fill="none" stroke="rgb(0, 0, 0)" stroke-opacity="1.0" stroke-linecap="round" stroke-linejoin="round"/>
    <path d="M 71.29511260986328 102.47671508789062 C 49.3118896484375 163.2435760498047 141.56051635742188 134.2992706298828 151.1727752685547 149.4027099609375" stroke-width="2" fill="none" stroke="rgb(0, 0, 0)" stroke-opacity="1.0" stroke-linecap="round" stroke-linejoin="round"/>
    <path d="M 90.78623962402344 97.06328582763672 C 99.39463806152344 -15.863213539123535 102.11812591552734 91.1473617553711 115.05604553222656 90.5011215209961" stroke-width="2" fill="none" stroke="rgb(0, 0, 0)" stroke-opacity="1.0" stroke-linecap="round" stroke-linejoin="round"/>
    <path d="M 42.35482406616211 149.73818969726562 C 180.266845703125 164.4525146484375 181.53651428222656 161.43443298339844 98.75242614746094 155.3535919189453" stroke-width="2" fill="none" stroke="rgb(0, 0, 0)" stroke-opacity="1.0" stroke-linecap="round" stroke-linejoin="round"/>
    <path d="M 171.31832885742188 138.80638122558594 C 160.60682678222656 124.94025421142578 203.52174377441406 104.03363037109375 187.045654296875 52.521087646484375" stroke-width="2" fill="none" stroke="rgb(0, 0, 0)" stroke-opacity="1.0" stroke-linecap="round" stroke-linejoin="round"/>
    <path d="M 116.4581298828125 114.54841613769531 C 201.96405029296875 113.64387512207031 186.29515075683594 169.09072875976562 148.06761169433594 139.8648681640625" stroke-width="2" fill="none" stroke="rgb(0, 0, 0)" stroke-opacity="1.0" stroke-linecap="round" stroke-linejoin="round"/>
    <path d="M 91.52882385253906 72.13976287841797 C 101.56095123291016 146.5867919921875 86.82282257080078 86.45076751708984 134.4984893798828 105.4632797241211" stroke-width="2" fill="none" stroke="rgb(0, 0, 0)" stroke-opacity="1.0" stroke-linecap="round" stroke-linejoin="round"/>
  </g>
</svg>
