<?xml version="1.0" ?>
<svg xmlns="http://www.w3.org/2000/svg" version="1.1" width="224" height="224">
  <defs/>
  <g>
    <path d="M 57.972591400146484 114.187744140625 C 4.584720134735107 118.2662124633789 91.36347961425781 79.52722930908203 92.28223419189453 122.85527038574219" stroke-width="2" fill="none" stroke="rgb(0, 0, 0)" stroke-opacity="1.0" stroke-linecap="round" stroke-linejoin="round"/>
    <path d="M 158.36679077148438 136.5125732421875 C 111.4352798461914 132.14088439941406 131.11988830566406 149.2566680908203 95.8565444946289 126.54608154296875" stroke-width="2" fill="none" stroke="rgb(0, 0, 0)" stroke-opacity="1.0" stroke-linecap="round" stroke-linejoin="round"/>
    <path d="M 101.01485443115234 102.58533477783203 C 163.0365753173828 117.15272521972656 81.10202026367188 109.47240447998047 129.086181640625 115.66290283203125" stroke-width="2" fill="none" stroke="rgb(0, 0, 0)" stroke-opacity="1.0" stroke-linecap="round" stroke-linejoin="round"/>
    <path d="M 113.04105377197266 144.94815063476562 C 190.67538452148438 162.21580505371094 170.90565490722656 165.22103881835938 176.91490173339844 111.45773315429688" stroke-width="2" fill="none" stroke="rgb(0, 0, 0)" stroke-opacity="1.0" stroke-linecap="round" stroke-linejoin="round"/>
    <path d="M 138.5945281982422 93.31759643554688 C 179.79734802246094 72.90438842773438 153.12054443359375 121.00955963134766 109.4853744506836 60.769832611083984" stroke-width="2" fill="none" stroke="rgb(0, 0, 0)" stroke-opacity="1.0" stroke-linecap="round" stroke-linejoin="round"/>
    <path d="M 121.14085388183594 102.89969635009766 C 135.18324279785156 96.2763442993164 126.48681640625 128.19058227539062 102.14837646484375 110.961181640625" stroke-width="2" fill="none" stroke="rgb(0, 0, 0)" stroke-opacity="1.0" stroke-linecap="round" stroke-linejoin="round"/>
    <path d="M 46.00019836425781 108.58275604248047 C 12.244976997375488 157.46597290039062 78.8123779296875 162.03775024414062 165.81466674804688 159.28506469726562" stroke-width="2" fill="none" stroke="rgb(0, 0, 0)" stroke-opacity="1.0" stroke-linecap="round" stroke-linejoin="round"/>
    <path d="M 142.50128173828125 109.59009552001953 C 121.86961364746094 141.8009796142578 169.07249450683594 95.73829650878906 103.12351989746094 113.04476165771484" stroke-width="2" fill="none" stroke="rgb(0, 0, 0)" stroke-opacity="1.0" stroke-linecap="round" stroke-linejoin="round"/>
    <path d="M 138.04446411132812 140.93099975585938 C 115.69255828857422 136.6131591796875 109.91569519042969 132.60049438476562 81.37422180175781 130.7805633544922" stroke-width="2" fill="none" stroke="rgb(0, 0, 0)" stroke-opacity="1.0" stroke-linecap="round" stroke-linejoin="round"/>
    <path d="M 184.36590576171875 64.3353271484375 C 172.18527221679688 135.23707580566406 117.95596313476562 121.72543334960938 186.9833221435547 63.73746109008789" stroke-width="2" fill="none" stroke="rgb(0, 0, 0)" stroke-opacity="1.0" stroke-linecap="round" stroke-linejoin="round"/>
    <path d="M 164.34310913085938 108.27632904052734 C 163.5601043701172 134.02487182617188 184.681884765625 141.92022705078125 160.0452423095703 147.32296752929688" stroke-width="2" fill="none" stroke="rgb(0, 0, 0)" stroke-opacity="1.0" stroke-linecap="round" stroke-linejoin="round"/>
    <path d="M 73.4176254272461 141.95208740234375 C 55.23468780517578 142.3434600830078 42.75159454345703 136.93997192382812 112.04581451416016 154.7738800048828" stroke-width="2" fill="none" stroke="rgb(0, 0, 0)" stroke-opacity="1.0" stroke-linecap="round" stroke-linejoin="round"/>
    <path d="M 100.73355102539062 104.88167572021484 C 120.64726257324219 98.20553588867188 97.47821807861328 104.6205825805664 96.36717224121094 63.67586898803711" stroke-width="2" fill="none" stroke="rgb(0, 0, 0)" stroke-opacity="1.0" stroke-linecap="round" stroke-linejoin="round"/>
    <path d="M 188.14498901367188 62.70615768432617 C 190.5885009765625 89.39750671386719 178.21002197265625 100.8397445678711 166.72352600097656 127.76171112060547" stroke-width="2" fill="none" stroke="rgb(0, 0, 0)" stroke-opacity="1.0" stroke-linecap="round" stroke-linejoin="round"/>
    <path d="M 96.02964782714844 63.833187103271484 C 67.73532104492188 95.59742736816406 93.51518249511719 143.98109436035156 95.94556427001953 64.68001556396484" stroke-width="2" fill="none" stroke="rgb(0, 0, 0)" stroke-opacity="1.0" stroke-linecap="round" stroke-linejoin="round"/>
    <path d="M 38.18330764770508 143.67922973632812 C 32.52786636352539 122.10000610351562 44.389713287353516 132.86904907226562 58.3346061706543 133.91171264648438" stroke-width="2" fill="none" stroke="rgb(0, 0, 0)" stroke-opacity="1.0" stroke-linecap="round" stroke-linejoin="round"/>
  </g>
</svg>
