<?xml version="1.0" ?>
<svg xmlns="http://www.w3.org/2000/svg" version="1.1" width="224" height="224">
  <defs/>
  <g>
    <path d="M 66.37879180908203 138.45448303222656 C 63.720638275146484 163.08587646484375 19.210535049438477 140.57887268066406 38.89867401123047 120.54195404052734" stroke-width="2" fill="none" stroke="rgb(0, 0, 0)" stroke-opacity="1.0" stroke-linecap="round" stroke-linejoin="round"/>
    <path d="M 146.82640075683594 118.6187515258789 C 49.57270050048828 144.85028076171875 213.16375732421875 146.58999633789062 142.71636962890625 144.7707061767578" stroke-width="2" fill="none" stroke="rgb(0, 0, 0)" stroke-opacity="1.0" stroke-linecap="round" stroke-linejoin="round"/>
    <path d="M 130.44081115722656 112.56266784667969 C 200.511474609375 115.29967498779297 87.19667053222656 118.24659729003906 144.26185607910156 130.537353515625" stroke-width="2" fill="none" stroke="rgb(0, 0, 0)" stroke-opacity="1.0" stroke-linecap="round" stroke-linejoin="round"/>
    <path d="M 76.13691711425781 140.95498657226562 C 232.95803833007812 193.82350158691406 149.10508728027344 117.05221557617188 181.925048828125 84.96307373046875" stroke-width="2" fill="none" stroke="rgb(0, 0, 0)" stroke-opacity="1.0" stroke-linecap="round" stroke-linejoin="round"/>
    <path d="M 184.0675506591797 48.83607482910156 C 179.9013671875 34.555660247802734 142.01466369628906 120.59846496582031 111.16584777832031 64.8897933959961" stroke-width="2" fill="none" stroke="rgb(0, 0, 0)" stroke-opacity="1.0" stroke-linecap="round" stroke-linejoin="round"/>
    <path d="M 129.36746215820312 113.90375518798828 C 219.73959350585938 123.395263671875 100.19091796875 107.27989959716797 172.34652709960938 105.12305450439453" stroke-width="2" fill="none" stroke="rgb(0, 0, 0)" stroke-opacity="1.0" stroke-linecap="round" stroke-linejoin="round"/>
    <path d="M 55.27346420288086 99.17596435546875 C -12.57309627532959 179.42544555664062 174.27381896972656 149.57237243652344 150.90518188476562 158.19947814941406" stroke-width="2" fill="none" stroke="rgb(0, 0, 0)" stroke-opacity="1.0" stroke-linecap="round" stroke-linejoin="round"/>
    <path d="M 170.30914306640625 112.37435913085938 C 150.4040069580078 76.1509780883789 167.410888671875 115.56138610839844 176.440185546875 72.03479766845703" stroke-width="2" fill="none" stroke="rgb(0, 0, 0)" stroke-opacity="1.0" stroke-linecap="round" stroke-linejoin="round"/>
    <path d="M 125.49419403076172 107.2363052368164 C 179.95877075195312 124.30242156982422 95.5424575805664 110.58491516113281 146.46421813964844 120.2413101196289" stroke-width="2" fill="none" stroke="rgb(0, 0, 0)" stroke-opacity="1.0" stroke-linecap="round" stroke-linejoin="round"/>
    <path d="M 182.61117553710938 48.51697540283203 C 154.0126495361328 109.67982482910156 157.9067840576172 72.60601043701172 142.6515655517578 83.30464172363281" stroke-width="2" fill="none" stroke="rgb(0, 0, 0)" stroke-opacity="1.0" stroke-linecap="round" stroke-linejoin="round"/>
    <path d="M 153.58827209472656 110.59225463867188 C 103.23015594482422 127.9578628540039 200.34962463378906 128.76937866210938 122.7765121459961 123.73161315917969" stroke-width="2" fill="none" stroke="rgb(0, 0, 0)" stroke-opacity="1.0" stroke-linecap="round" stroke-linejoin="round"/>
    <path d="M 135.9502716064453 80.04627990722656 C 71.30122375488281 22.092376708984375 119.09144592285156 118.9592514038086 109.15897369384766 94.98594665527344" stroke-width="2" fill="none" stroke="rgb(0, 0, 0)" stroke-opacity="1.0" stroke-linecap="round" stroke-linejoin="round"/>
    <path d="M 113.84353637695312 127.90969848632812 C 176.52867126464844 133.50482177734375 199.4315185546875 154.78575134277344 90.91520690917969 141.0595245361328" stroke-width="2" fill="none" stroke="rgb(0, 0, 0)" stroke-opacity="1.0" stroke-linecap="round" stroke-linejoin="round"/>
    <path d="M 184.6874237060547 49.28911590576172 C 174.4405975341797 176.31224060058594 88.16609954833984 137.5398406982422 121.12552642822266 114.47100830078125" stroke-width="2" fill="none" stroke="rgb(0, 0, 0)" stroke-opacity="1.0" stroke-linecap="round" stroke-linejoin="round"/>
    <path d="M 114.15255737304688 138.57981872558594 C 98.60420227050781 83.94038391113281 117.8821029663086 129.4216766357422 124.36469268798828 97.21549224853516" stroke-width="2" fill="none" stroke="rgb(0, 0, 0)" stroke-opacity="1.0" stroke-linecap="round" stroke-linejoin="round"/>
    <path d="M 72.46928405761719 111.45851135253906 C 44.655521392822266 107.99864959716797 56.04151916503906 74.46184539794922 106.76795959472656 88.9844970703125" stroke-width="2" fill="none" stroke="rgb(0, 0, 0)" stroke-opacity="1.0" stroke-linecap="round" stroke-linejoin="round"/>
  </g>
</svg>
