<?xml version="1.0" ?>
<svg xmlns="http://www.w3.org/2000/svg" version="1.1" width="224" height="224">
  <defs/>
  <g>
    <path d="M 95.494140625 119.1214599609375 C 197.24769592285156 138.2006378173828 70.33612823486328 126.060302734375 148.98570251464844 129.1099090576172" stroke-width="2" fill="none" stroke="rgb(0, 0, 0)" stroke-opacity="1.0" stroke-linecap="round" stroke-linejoin="round"/>
    <path d="M 164.25025939941406 139.15065002441406 C 59.784393310546875 124.73275756835938 201.15609741210938 125.1794662475586 112.00582122802734 124.43069458007812" stroke-width="2" fill="none" stroke="rgb(0, 0, 0)" stroke-opacity="1.0" stroke-linecap="round" stroke-linejoin="round"/>
    <path d="M 115.35350036621094 98.53982543945312 C 93.14810943603516 149.74591064453125 129.89634704589844 85.64234924316406 150.30889892578125 135.28146362304688" stroke-width="2" fill="none" stroke="rgb(0, 0, 0)" stroke-opacity="1.0" stroke-linecap="round" stroke-linejoin="round"/>
    <path d="M 78.41596984863281 127.35790252685547 C 215.50128173828125 204.69570922851562 178.95632934570312 51.34415054321289 140.320556640625 82.14801788330078" stroke-width="2" fill="none" stroke="rgb(0, 0, 0)" stroke-opacity="1.0" stroke-linecap="round" stroke-linejoin="round"/>
    <path d="M 162.71136474609375 120.45061492919922 C 114.03739929199219 113.70223236083984 197.20579528808594 118.0352783203125 151.2231903076172 110.43312072753906" stroke-width="2" fill="none" stroke="rgb(0, 0, 0)" stroke-opacity="1.0" stroke-linecap="round" stroke-linejoin="round"/>
    <path d="M 116.58682250976562 119.82965850830078 C 165.1912078857422 113.5316390991211 43.24224090576172 121.94290924072266 124.66918182373047 119.05780029296875" stroke-width="2" fill="none" stroke="rgb(0, 0, 0)" stroke-opacity="1.0" stroke-linecap="round" stroke-linejoin="round"/>
    <path d="M 75.40204620361328 95.13043975830078 C -19.135149002075195 164.2163543701172 144.45904541015625 146.1780242919922 81.26822662353516 135.75750732421875" stroke-width="2" fill="none" stroke="rgb(0, 0, 0)" stroke-opacity="1.0" stroke-linecap="round" stroke-linejoin="round"/>
    <path d="M 175.7102508544922 98.05709075927734 C 207.4965057373047 -8.145940780639648 141.81581115722656 128.5179901123047 176.70960998535156 76.02660369873047" stroke-width="2" fill="none" stroke="rgb(0, 0, 0)" stroke-opacity="1.0" stroke-linecap="round" stroke-linejoin="round"/>
    <path d="M 158.46566772460938 158.65711975097656 C 102.96221923828125 137.07293701171875 72.5425033569336 117.5951919555664 155.70420837402344 136.94737243652344" stroke-width="2" fill="none" stroke="rgb(0, 0, 0)" stroke-opacity="1.0" stroke-linecap="round" stroke-linejoin="round"/>
    <path d="M 147.123046875 87.2555160522461 C 116.60325622558594 106.32005310058594 117.03717803955078 41.496341705322266 101.94960021972656 44.08772277832031" stroke-width="2" fill="none" stroke="rgb(0, 0, 0)" stroke-opacity="1.0" stroke-linecap="round" stroke-linejoin="round"/>
    <path d="M 64.85726928710938 105.22284698486328 C 33.51515197753906 173.76158142089844 135.4510955810547 140.88067626953125 161.9596405029297 152.0088348388672" stroke-width="2" fill="none" stroke="rgb(0, 0, 0)" stroke-opacity="1.0" stroke-linecap="round" stroke-linejoin="round"/>
    <path d="M 92.31385040283203 99.8807373046875 C 103.69414520263672 -4.6900835037231445 104.3552017211914 98.87789154052734 117.60762786865234 90.85496520996094" stroke-width="2" fill="none" stroke="rgb(0, 0, 0)" stroke-opacity="1.0" stroke-linecap="round" stroke-linejoin="round"/>
    <path d="M 40.35252380371094 141.13400268554688 C 193.71153259277344 156.83384704589844 191.61932373046875 170.78335571289062 89.72767639160156 159.0543212890625" stroke-width="2" fill="none" stroke="rgb(0, 0, 0)" stroke-opacity="1.0" stroke-linecap="round" stroke-linejoin="round"/>
    <path d="M 168.78012084960938 158.4531707763672 C 162.9106903076172 129.13043212890625 195.68319702148438 99.95380401611328 183.58438110351562 61.70009231567383" stroke-width="2" fill="none" stroke="rgb(0, 0, 0)" stroke-opacity="1.0" stroke-linecap="round" stroke-linejoin="round"/>
    <path d="M 110.80567932128906 120.01334381103516 C 208.0722198486328 128.75453186035156 192.8453826904297 172.31410217285156 111.79888153076172 163.55093383789062" stroke-width="2" fill="none" stroke="rgb(0, 0, 0)" stroke-opacity="1.0" stroke-linecap="round" stroke-linejoin="round"/>
    <path d="M 100.82743072509766 84.34284973144531 C 112.89384460449219 153.54478454589844 95.33245849609375 93.35489654541016 132.73439025878906 108.8955078125" stroke-width="2" fill="none" stroke="rgb(0, 0, 0)" stroke-opacity="1.0" stroke-linecap="round" stroke-linejoin="round"/>
  </g>
</svg>
