<?xml version="1.0" ?>
<svg xmlns="http://www.w3.org/2000/svg" version="1.1" width="224" height="224">
  <defs/>
  <g>
    <path d="M 50.29396057128906 136.82455444335938 C 17.146154403686523 121.15422821044922 98.5053939819336 69.18719482421875 84.48837280273438 129.77603149414062" stroke-width="2" fill="none" stroke="rgb(0, 0, 0)" stroke-opacity="1.0" stroke-linecap="round" stroke-linejoin="round"/>
    <path d="M 152.8588104248047 137.20777893066406 C 109.37517547607422 121.40934753417969 113.42158508300781 159.93397521972656 77.85541534423828 134.80613708496094" stroke-width="2" fill="none" stroke="rgb(0, 0, 0)" stroke-opacity="1.0" stroke-linecap="round" stroke-linejoin="round"/>
    <path d="M 98.14044189453125 115.63928985595703 C 171.25753784179688 120.42778015136719 76.69055938720703 118.8836441040039 128.12074279785156 123.20745849609375" stroke-width="2" fill="none" stroke="rgb(0, 0, 0)" stroke-opacity="1.0" stroke-linecap="round" stroke-linejoin="round"/>
    <path d="M 101.27243041992188 141.4322967529297 C 182.8438262939453 162.11172485351562 164.05874633789062 165.6756134033203 161.72454833984375 117.6474609375" stroke-width="2" fill="none" stroke="rgb(0, 0, 0)" stroke-opacity="1.0" stroke-linecap="round" stroke-linejoin="round"/>
    <path d="M 142.76309204101562 105.33794403076172 C 183.77462768554688 78.05896759033203 143.44593811035156 124.40618896484375 105.23738861083984 70.006103515625" stroke-width="2" fill="none" stroke="rgb(0, 0, 0)" stroke-opacity="1.0" stroke-linecap="round" stroke-linejoin="round"/>
    <path d="M 120.35995483398438 106.82481384277344 C 142.60316467285156 106.35430145263672 133.45895385742188 126.2545394897461 106.53328704833984 115.91374206542969" stroke-width="2" fill="none" stroke="rgb(0, 0, 0)" stroke-opacity="1.0" stroke-linecap="round" stroke-linejoin="round"/>
    <path d="M 43.68668746948242 109.98493957519531 C 7.874499797821045 152.36068725585938 83.27429962158203 170.9867706298828 167.47792053222656 164.4454345703125" stroke-width="2" fill="none" stroke="rgb(0, 0, 0)" stroke-opacity="1.0" stroke-linecap="round" stroke-linejoin="round"/>
    <path d="M 153.6060333251953 122.7396469116211 C 116.40787506103516 130.00047302246094 164.25721740722656 109.3556900024414 98.8353042602539 117.21147155761719" stroke-width="2" fill="none" stroke="rgb(0, 0, 0)" stroke-opacity="1.0" stroke-linecap="round" stroke-linejoin="round"/>
    <path d="M 152.0936279296875 148.13438415527344 C 108.65805053710938 144.9114990234375 120.09039306640625 129.63291931152344 84.88150024414062 128.62420654296875" stroke-width="2" fill="none" stroke="rgb(0, 0, 0)" stroke-opacity="1.0" stroke-linecap="round" stroke-linejoin="round"/>
    <path d="M 182.8866424560547 60.70843505859375 C 171.33497619628906 126.9475326538086 119.1891098022461 115.99434661865234 185.793212890625 59.361331939697266" stroke-width="2" fill="none" stroke="rgb(0, 0, 0)" stroke-opacity="1.0" stroke-linecap="round" stroke-linejoin="round"/>
    <path d="M 156.73011779785156 105.67736053466797 C 157.09275817871094 129.0802001953125 186.28652954101562 136.3151092529297 172.90908813476562 151.2201385498047" stroke-width="2" fill="none" stroke="rgb(0, 0, 0)" stroke-opacity="1.0" stroke-linecap="round" stroke-linejoin="round"/>
    <path d="M 71.2145004272461 160.48318481445312 C 39.92471694946289 150.18399047851562 35.060508728027344 139.6963653564453 99.37747192382812 156.52162170410156" stroke-width="2" fill="none" stroke="rgb(0, 0, 0)" stroke-opacity="1.0" stroke-linecap="round" stroke-linejoin="round"/>
    <path d="M 98.05499267578125 109.05635833740234 C 128.13800048828125 102.26178741455078 101.3742446899414 94.25602722167969 103.57950592041016 69.93324279785156" stroke-width="2" fill="none" stroke="rgb(0, 0, 0)" stroke-opacity="1.0" stroke-linecap="round" stroke-linejoin="round"/>
    <path d="M 183.37652587890625 58.41074752807617 C 185.9875030517578 95.02362060546875 171.0959014892578 100.9465560913086 160.015380859375 130.7089080810547" stroke-width="2" fill="none" stroke="rgb(0, 0, 0)" stroke-opacity="1.0" stroke-linecap="round" stroke-linejoin="round"/>
    <path d="M 103.62106323242188 67.77909851074219 C 72.03791046142578 94.06729888916016 89.2425765991211 135.69760131835938 97.55669403076172 69.99410247802734" stroke-width="2" fill="none" stroke="rgb(0, 0, 0)" stroke-opacity="1.0" stroke-linecap="round" stroke-linejoin="round"/>
    <path d="M 37.46638107299805 146.9969940185547 C 34.34656524658203 110.68031311035156 40.06804656982422 125.1290054321289 59.46396255493164 125.09646606445312" stroke-width="2" fill="none" stroke="rgb(0, 0, 0)" stroke-opacity="1.0" stroke-linecap="round" stroke-linejoin="round"/>
  </g>
</svg>
