<?xml version="1.0" ?>
<svg xmlns="http://www.w3.org/2000/svg" version="1.1" width="224" height="224">
  <defs/>
  <g>
    <path d="M 47.78716278076172 142.6429901123047 C 157.7201385498047 162.35646057128906 52.941551208496094 159.67910766601562 72.01570129394531 123.07427215576172" stroke-width="2" fill="none" stroke="rgb(0, 0, 0)" stroke-opacity="1.0" stroke-linecap="round" stroke-linejoin="round"/>
    <path d="M 145.2804718017578 128.32176208496094 C 96.0232162475586 113.3663330078125 194.89476013183594 122.71528625488281 106.4123764038086 121.1939926147461" stroke-width="2" fill="none" stroke="rgb(0, 0, 0)" stroke-opacity="1.0" stroke-linecap="round" stroke-linejoin="round"/>
    <path d="M 90.60665130615234 121.00686645507812 C 167.69215393066406 127.66864776611328 31.167686462402344 111.56771850585938 145.01361083984375 148.6643829345703" stroke-width="2" fill="none" stroke="rgb(0, 0, 0)" stroke-opacity="1.0" stroke-linecap="round" stroke-linejoin="round"/>
    <path d="M 78.92159271240234 145.3108673095703 C 223.24169921875 189.5641632080078 177.00657653808594 94.59244537353516 177.55252075195312 124.56463623046875" stroke-width="2" fill="none" stroke="rgb(0, 0, 0)" stroke-opacity="1.0" stroke-linecap="round" stroke-linejoin="round"/>
    <path d="M 186.82269287109375 49.22194290161133 C 178.89663696289062 67.65046691894531 179.7872314453125 102.43038940429688 129.1838836669922 96.31964874267578" stroke-width="2" fill="none" stroke="rgb(0, 0, 0)" stroke-opacity="1.0" stroke-linecap="round" stroke-linejoin="round"/>
    <path d="M 127.5006103515625 143.85472106933594 C 223.74359130859375 129.6170654296875 66.38906860351562 137.2267303466797 157.84083557128906 140.52688598632812" stroke-width="2" fill="none" stroke="rgb(0, 0, 0)" stroke-opacity="1.0" stroke-linecap="round" stroke-linejoin="round"/>
    <path d="M 51.423179626464844 105.54550170898438 C -6.254083633422852 182.48072814941406 199.03985595703125 168.85824584960938 167.20533752441406 129.4034423828125" stroke-width="2" fill="none" stroke="rgb(0, 0, 0)" stroke-opacity="1.0" stroke-linecap="round" stroke-linejoin="round"/>
    <path d="M 177.3763427734375 127.9249038696289 C 224.08648681640625 -25.45692253112793 134.07017517089844 102.05547332763672 161.2584686279297 98.92724609375" stroke-width="2" fill="none" stroke="rgb(0, 0, 0)" stroke-opacity="1.0" stroke-linecap="round" stroke-linejoin="round"/>
    <path d="M 106.62344360351562 104.7387924194336 C 147.92291259765625 145.18646240234375 33.01222610473633 124.35179901123047 118.6637191772461 126.470458984375" stroke-width="2" fill="none" stroke="rgb(0, 0, 0)" stroke-opacity="1.0" stroke-linecap="round" stroke-linejoin="round"/>
    <path d="M 177.0958251953125 65.55792236328125 C 158.9003448486328 158.91746520996094 115.14207458496094 73.63906860351562 98.77792358398438 67.6888656616211" stroke-width="2" fill="none" stroke="rgb(0, 0, 0)" stroke-opacity="1.0" stroke-linecap="round" stroke-linejoin="round"/>
    <path d="M 189.56283569335938 140.92726135253906 C 194.9533233642578 147.86891174316406 184.0167236328125 155.4623260498047 125.68851470947266 148.71339416503906" stroke-width="2" fill="none" stroke="rgb(0, 0, 0)" stroke-opacity="1.0" stroke-linecap="round" stroke-linejoin="round"/>
    <path d="M 122.6865463256836 130.55531311035156 C 93.90814208984375 0.4564199447631836 99.54278564453125 115.2168960571289 99.37444305419922 91.9317398071289" stroke-width="2" fill="none" stroke="rgb(0, 0, 0)" stroke-opacity="1.0" stroke-linecap="round" stroke-linejoin="round"/>
    <path d="M 82.19652557373047 139.21653747558594 C 132.1391143798828 154.80929565429688 132.9740753173828 139.9642791748047 94.7569808959961 143.48094177246094" stroke-width="2" fill="none" stroke="rgb(0, 0, 0)" stroke-opacity="1.0" stroke-linecap="round" stroke-linejoin="round"/>
    <path d="M 177.1726531982422 86.60136413574219 C 195.57411193847656 166.34059143066406 156.06121826171875 77.69049835205078 158.61895751953125 121.61772155761719" stroke-width="2" fill="none" stroke="rgb(0, 0, 0)" stroke-opacity="1.0" stroke-linecap="round" stroke-linejoin="round"/>
    <path d="M 103.27750396728516 125.09757232666016 C 107.22509765625 104.80238342285156 85.31112670898438 160.00912475585938 129.1922149658203 111.68873596191406" stroke-width="2" fill="none" stroke="rgb(0, 0, 0)" stroke-opacity="1.0" stroke-linecap="round" stroke-linejoin="round"/>
    <path d="M 68.75774383544922 144.82806396484375 C 51.16454315185547 116.19144439697266 33.875877380371094 87.12910461425781 92.97880554199219 91.6378402709961" stroke-width="2" fill="none" stroke="rgb(0, 0, 0)" stroke-opacity="1.0" stroke-linecap="round" stroke-linejoin="round"/>
  </g>
</svg>
