<?xml version="1.0" ?>
<svg xmlns="http://www.w3.org/2000/svg" version="1.1" width="224" height="224">
  <defs/>
  <g>
    <path d="M 44.18714141845703 132.14234924316406 C 111.22394561767578 144.48451232910156 65.02522277832031 145.51319885253906 60.03768539428711 126.27398681640625" stroke-width="2" fill="none" stroke="rgb(0, 0, 0)" stroke-opacity="1.0" stroke-linecap="round" stroke-linejoin="round"/>
    <path d="M 102.80279541015625 135.24807739257812 C 82.01160430908203 91.53963470458984 164.60772705078125 120.21637725830078 102.08837890625 117.75096130371094" stroke-width="2" fill="none" stroke="rgb(0, 0, 0)" stroke-opacity="1.0" stroke-linecap="round" stroke-linejoin="round"/>
    <path d="M 131.88645935058594 112.92122650146484 C 200.2479248046875 111.99014282226562 88.87779235839844 135.8554229736328 84.950927734375 103.83583068847656" stroke-width="2" fill="none" stroke="rgb(0, 0, 0)" stroke-opacity="1.0" stroke-linecap="round" stroke-linejoin="round"/>
    <path d="M 88.83454895019531 131.14501953125 C 228.2101593017578 183.3628387451172 139.717041015625 109.78937530517578 170.29196166992188 80.7156753540039" stroke-width="2" fill="none" stroke="rgb(0, 0, 0)" stroke-opacity="1.0" stroke-linecap="round" stroke-linejoin="round"/>
    <path d="M 181.8762664794922 52.649024963378906 C 176.06512451171875 47.60161209106445 163.87545776367188 98.34306335449219 127.04391479492188 86.62586975097656" stroke-width="2" fill="none" stroke="rgb(0, 0, 0)" stroke-opacity="1.0" stroke-linecap="round" stroke-linejoin="round"/>
    <path d="M 141.65399169921875 111.14344024658203 C 232.5044403076172 141.7985076904297 33.9116096496582 109.58604431152344 142.10411071777344 136.60389709472656" stroke-width="2" fill="none" stroke="rgb(0, 0, 0)" stroke-opacity="1.0" stroke-linecap="round" stroke-linejoin="round"/>
    <path d="M 51.89472961425781 111.02250671386719 C 6.5666093826293945 140.697509765625 135.62278747558594 149.55810546875 151.9834442138672 150.316162109375" stroke-width="2" fill="none" stroke="rgb(0, 0, 0)" stroke-opacity="1.0" stroke-linecap="round" stroke-linejoin="round"/>
    <path d="M 157.8766326904297 114.70103454589844 C 95.6388168334961 96.78231048583984 215.88819885253906 106.57343292236328 114.30223846435547 125.14507293701172" stroke-width="2" fill="none" stroke="rgb(0, 0, 0)" stroke-opacity="1.0" stroke-linecap="round" stroke-linejoin="round"/>
    <path d="M 105.40037536621094 108.31316375732422 C 124.69026947021484 112.5797119140625 135.02267456054688 100.98580932617188 109.72917938232422 106.59272003173828" stroke-width="2" fill="none" stroke="rgb(0, 0, 0)" stroke-opacity="1.0" stroke-linecap="round" stroke-linejoin="round"/>
    <path d="M 176.74954223632812 72.70787048339844 C 159.38003540039062 116.0468978881836 135.67991638183594 58.257789611816406 166.709228515625 107.59996032714844" stroke-width="2" fill="none" stroke="rgb(0, 0, 0)" stroke-opacity="1.0" stroke-linecap="round" stroke-linejoin="round"/>
    <path d="M 133.68028259277344 146.98992919921875 C 37.228240966796875 146.59814453125 102.2481918334961 146.3074951171875 117.39680480957031 150.67742919921875" stroke-width="2" fill="none" stroke="rgb(0, 0, 0)" stroke-opacity="1.0" stroke-linecap="round" stroke-linejoin="round"/>
    <path d="M 93.93084716796875 90.90984344482422 C 41.49952697753906 88.57404327392578 30.1312198638916 121.95596313476562 41.383296966552734 103.01585388183594" stroke-width="2" fill="none" stroke="rgb(0, 0, 0)" stroke-opacity="1.0" stroke-linecap="round" stroke-linejoin="round"/>
    <path d="M 136.30967712402344 86.87162017822266 C 120.20659637451172 73.42451477050781 121.51317596435547 90.71746826171875 105.43729400634766 63.95427322387695" stroke-width="2" fill="none" stroke="rgb(0, 0, 0)" stroke-opacity="1.0" stroke-linecap="round" stroke-linejoin="round"/>
    <path d="M 183.7415008544922 49.67422866821289 C 164.72796630859375 185.98997497558594 85.96929931640625 97.16175842285156 142.4163055419922 122.67788696289062" stroke-width="2" fill="none" stroke="rgb(0, 0, 0)" stroke-opacity="1.0" stroke-linecap="round" stroke-linejoin="round"/>
    <path d="M 114.69642639160156 83.2758560180664 C 92.7764892578125 27.89212989807129 106.0787124633789 119.83950805664062 103.4509048461914 89.99752807617188" stroke-width="2" fill="none" stroke="rgb(0, 0, 0)" stroke-opacity="1.0" stroke-linecap="round" stroke-linejoin="round"/>
    <path d="M 40.725975036621094 126.41873931884766 C 56.846893310546875 107.88623809814453 46.04317092895508 90.14130401611328 68.38504028320312 114.39421081542969" stroke-width="2" fill="none" stroke="rgb(0, 0, 0)" stroke-opacity="1.0" stroke-linecap="round" stroke-linejoin="round"/>
  </g>
</svg>
