<?xml version="1.0" ?>
<svg xmlns="http://www.w3.org/2000/svg" version="1.1" width="224" height="224">
  <defs/>
  <g>
    <path d="M 39.14729690551758 146.89210510253906 C 150.04074096679688 174.29261779785156 53.02198028564453 162.52157592773438 70.49486541748047 118.45330047607422" stroke-width="2" fill="none" stroke="rgb(0, 0, 0)" stroke-opacity="1.0" stroke-linecap="round" stroke-linejoin="round"/>
    <path d="M 150.1474609375 127.33885192871094 C 102.08260345458984 117.1695785522461 209.63658142089844 130.01531982421875 112.49140930175781 139.50222778320312" stroke-width="2" fill="none" stroke="rgb(0, 0, 0)" stroke-opacity="1.0" stroke-linecap="round" stroke-linejoin="round"/>
    <path d="M 89.78335571289062 119.39264678955078 C 159.9969482421875 122.9115219116211 23.660804748535156 106.04955291748047 149.26756286621094 143.4771270751953" stroke-width="2" fill="none" stroke="rgb(0, 0, 0)" stroke-opacity="1.0" stroke-linecap="round" stroke-linejoin="round"/>
    <path d="M 80.27554321289062 144.29092407226562 C 212.7813720703125 188.13482666015625 161.15257263183594 96.37039947509766 166.22305297851562 128.11001586914062" stroke-width="2" fill="none" stroke="rgb(0, 0, 0)" stroke-opacity="1.0" stroke-linecap="round" stroke-linejoin="round"/>
    <path d="M 177.99960327148438 51.49261474609375 C 171.20281982421875 60.77606964111328 175.98605346679688 99.15925598144531 128.6963653564453 91.0427017211914" stroke-width="2" fill="none" stroke="rgb(0, 0, 0)" stroke-opacity="1.0" stroke-linecap="round" stroke-linejoin="round"/>
    <path d="M 132.69390869140625 145.36370849609375 C 225.2654266357422 124.6026611328125 63.51832580566406 133.7632293701172 158.74578857421875 139.3473358154297" stroke-width="2" fill="none" stroke="rgb(0, 0, 0)" stroke-opacity="1.0" stroke-linecap="round" stroke-linejoin="round"/>
    <path d="M 50.66753387451172 105.58634948730469 C -3.477726697921753 181.0602264404297 202.14617919921875 169.45767211914062 181.28286743164062 126.57421875" stroke-width="2" fill="none" stroke="rgb(0, 0, 0)" stroke-opacity="1.0" stroke-linecap="round" stroke-linejoin="round"/>
    <path d="M 169.10202026367188 123.19743347167969 C 215.0903778076172 -9.649287223815918 126.19837951660156 104.64154815673828 156.67752075195312 93.06187438964844" stroke-width="2" fill="none" stroke="rgb(0, 0, 0)" stroke-opacity="1.0" stroke-linecap="round" stroke-linejoin="round"/>
    <path d="M 104.16919708251953 106.05439758300781 C 142.4481201171875 139.2577362060547 28.980945587158203 118.80982971191406 120.72384643554688 127.6524658203125" stroke-width="2" fill="none" stroke="rgb(0, 0, 0)" stroke-opacity="1.0" stroke-linecap="round" stroke-linejoin="round"/>
    <path d="M 172.6068878173828 63.864070892333984 C 156.7161865234375 158.90618896484375 116.33804321289062 74.16002655029297 97.20356750488281 64.98602294921875" stroke-width="2" fill="none" stroke="rgb(0, 0, 0)" stroke-opacity="1.0" stroke-linecap="round" stroke-linejoin="round"/>
    <path d="M 192.8500518798828 138.94183349609375 C 198.03514099121094 145.46185302734375 184.23941040039062 153.3704071044922 137.71246337890625 146.58729553222656" stroke-width="2" fill="none" stroke="rgb(0, 0, 0)" stroke-opacity="1.0" stroke-linecap="round" stroke-linejoin="round"/>
    <path d="M 115.65091705322266 135.40635681152344 C 83.2143783569336 3.794644355773926 96.47588348388672 114.37310791015625 99.23634338378906 93.22503662109375" stroke-width="2" fill="none" stroke="rgb(0, 0, 0)" stroke-opacity="1.0" stroke-linecap="round" stroke-linejoin="round"/>
    <path d="M 83.28860473632812 136.04954528808594 C 131.47482299804688 146.25282287597656 131.02349853515625 135.55026245117188 92.11628723144531 141.0494384765625" stroke-width="2" fill="none" stroke="rgb(0, 0, 0)" stroke-opacity="1.0" stroke-linecap="round" stroke-linejoin="round"/>
    <path d="M 176.7959442138672 80.5498275756836 C 187.7257080078125 162.4075927734375 163.99542236328125 77.80741119384766 170.70449829101562 125.34529876708984" stroke-width="2" fill="none" stroke="rgb(0, 0, 0)" stroke-opacity="1.0" stroke-linecap="round" stroke-linejoin="round"/>
    <path d="M 105.59706115722656 126.74506378173828 C 105.06963348388672 107.2863540649414 78.83098602294922 157.9387664794922 120.344482421875 98.50690460205078" stroke-width="2" fill="none" stroke="rgb(0, 0, 0)" stroke-opacity="1.0" stroke-linecap="round" stroke-linejoin="round"/>
    <path d="M 70.8033218383789 146.52362060546875 C 53.28981018066406 109.63551330566406 31.415666580200195 86.56883239746094 95.65678405761719 88.73291015625" stroke-width="2" fill="none" stroke="rgb(0, 0, 0)" stroke-opacity="1.0" stroke-linecap="round" stroke-linejoin="round"/>
  </g>
</svg>
