<?xml version="1.0" ?>
<svg xmlns="http://www.w3.org/2000/svg" version="1.1" width="224" height="224">
  <defs/>
  <g>
    <path d="M 99.73664093017578 144.54257202148438 C 193.3309326171875 155.59568786621094 70.45387268066406 149.5123291015625 94.5580062866211 152.85626220703125" stroke-width="2" fill="none" stroke="rgb(0, 0, 0)" stroke-opacity="1.0" stroke-linecap="round" stroke-linejoin="round"/>
    <path d="M 155.8522186279297 134.21163940429688 C 116.44802856445312 126.48899841308594 224.81494140625 141.02362060546875 80.8523178100586 132.81787109375" stroke-width="2" fill="none" stroke="rgb(0, 0, 0)" stroke-opacity="1.0" stroke-linecap="round" stroke-linejoin="round"/>
    <path d="M 88.41890716552734 139.3367156982422 C 157.39230346679688 133.23300170898438 43.94135665893555 109.22206115722656 163.58364868164062 147.59312438964844" stroke-width="2" fill="none" stroke="rgb(0, 0, 0)" stroke-opacity="1.0" stroke-linecap="round" stroke-linejoin="round"/>
    <path d="M 79.59130096435547 133.007568359375 C 238.84024047851562 182.85775756835938 152.63934326171875 128.69302368164062 176.59274291992188 126.82654571533203" stroke-width="2" fill="none" stroke="rgb(0, 0, 0)" stroke-opacity="1.0" stroke-linecap="round" stroke-linejoin="round"/>
    <path d="M 175.4075469970703 65.81538391113281 C 132.36036682128906 110.48895263671875 180.00042724609375 80.37474060058594 121.87425231933594 92.82429504394531" stroke-width="2" fill="none" stroke="rgb(0, 0, 0)" stroke-opacity="1.0" stroke-linecap="round" stroke-linejoin="round"/>
    <path d="M 152.1152801513672 115.41311645507812 C 166.41116333007812 158.3870849609375 16.109302520751953 144.07337951660156 166.810791015625 139.1080322265625" stroke-width="2" fill="none" stroke="rgb(0, 0, 0)" stroke-opacity="1.0" stroke-linecap="round" stroke-linejoin="round"/>
    <path d="M 63.552650451660156 98.8663558959961 C -2.0814430713653564 172.21347045898438 160.6699676513672 156.02993774414062 97.26864624023438 160.19168090820312" stroke-width="2" fill="none" stroke="rgb(0, 0, 0)" stroke-opacity="1.0" stroke-linecap="round" stroke-linejoin="round"/>
    <path d="M 172.41757202148438 121.3162612915039 C 210.9765625 -21.679946899414062 146.4758758544922 119.34302520751953 167.09295654296875 107.78775024414062" stroke-width="2" fill="none" stroke="rgb(0, 0, 0)" stroke-opacity="1.0" stroke-linecap="round" stroke-linejoin="round"/>
    <path d="M 104.7677993774414 104.73548126220703 C 127.4859848022461 142.18423461914062 63.09251403808594 111.29389953613281 147.2483367919922 123.14241027832031" stroke-width="2" fill="none" stroke="rgb(0, 0, 0)" stroke-opacity="1.0" stroke-linecap="round" stroke-linejoin="round"/>
    <path d="M 176.2471923828125 74.67234802246094 C 165.4997100830078 140.58441162109375 106.1828384399414 68.07473754882812 101.41600036621094 65.29247283935547" stroke-width="2" fill="none" stroke="rgb(0, 0, 0)" stroke-opacity="1.0" stroke-linecap="round" stroke-linejoin="round"/>
    <path d="M 180.76255798339844 100.25273132324219 C 189.1257781982422 113.83151245117188 184.04002380371094 163.18235778808594 146.41107177734375 159.0665740966797" stroke-width="2" fill="none" stroke="rgb(0, 0, 0)" stroke-opacity="1.0" stroke-linecap="round" stroke-linejoin="round"/>
    <path d="M 92.48339080810547 100.8336410522461 C 97.38352966308594 -2.4049105644226074 115.80216217041016 133.47434997558594 110.95832061767578 96.32710266113281" stroke-width="2" fill="none" stroke="rgb(0, 0, 0)" stroke-opacity="1.0" stroke-linecap="round" stroke-linejoin="round"/>
    <path d="M 82.48208618164062 151.78414916992188 C 175.79110717773438 149.38876342773438 160.3700714111328 146.91525268554688 100.88164520263672 124.62840270996094" stroke-width="2" fill="none" stroke="rgb(0, 0, 0)" stroke-opacity="1.0" stroke-linecap="round" stroke-linejoin="round"/>
    <path d="M 165.4092559814453 86.13243865966797 C 151.78977966308594 125.5333023071289 182.18052673339844 71.81660461425781 174.58218383789062 92.84713745117188" stroke-width="2" fill="none" stroke="rgb(0, 0, 0)" stroke-opacity="1.0" stroke-linecap="round" stroke-linejoin="round"/>
    <path d="M 127.74613189697266 139.99974060058594 C 222.30795288085938 152.3184051513672 118.8717041015625 129.1326141357422 97.95294952392578 143.33682250976562" stroke-width="2" fill="none" stroke="rgb(0, 0, 0)" stroke-opacity="1.0" stroke-linecap="round" stroke-linejoin="round"/>
    <path d="M 53.73802185058594 112.75553894042969 C 68.5915756225586 113.63672637939453 44.067901611328125 91.38426971435547 92.31526947021484 93.53797149658203" stroke-width="2" fill="none" stroke="rgb(0, 0, 0)" stroke-opacity="1.0" stroke-linecap="round" stroke-linejoin="round"/>
  </g>
</svg>
