<?xml version="1.0" ?>
<svg xmlns="http://www.w3.org/2000/svg" version="1.1" width="224" height="224">
  <defs/>
  <g>
    <path d="M 62.34263229370117 152.1217803955078 C 160.51766967773438 169.15292358398438 50.61060333251953 135.8570098876953 67.96881866455078 110.52505493164062" stroke-width="2" fill="none" stroke="rgb(0, 0, 0)" stroke-opacity="1.0" stroke-linecap="round" stroke-linejoin="round"/>
    <path d="M 149.65542602539062 125.94841003417969 C 96.2547607421875 125.80640411376953 250.5321044921875 158.06248474121094 91.82758331298828 140.61122131347656" stroke-width="2" fill="none" stroke="rgb(0, 0, 0)" stroke-opacity="1.0" stroke-linecap="round" stroke-linejoin="round"/>
    <path d="M 101.93568420410156 135.25250244140625 C 167.29034423828125 125.20523071289062 13.399733543395996 109.63146209716797 159.06484985351562 145.76182556152344" stroke-width="2" fill="none" stroke="rgb(0, 0, 0)" stroke-opacity="1.0" stroke-linecap="round" stroke-linejoin="round"/>
    <path d="M 55.55379104614258 147.60659790039062 C 232.931640625 182.15428161621094 158.53317260742188 123.30464935302734 152.4319610595703 146.1816864013672" stroke-width="2" fill="none" stroke="rgb(0, 0, 0)" stroke-opacity="1.0" stroke-linecap="round" stroke-linejoin="round"/>
    <path d="M 184.60621643066406 56.72416305541992 C 151.87518310546875 110.32585144042969 189.48727416992188 86.5571517944336 123.02838897705078 94.86688995361328" stroke-width="2" fill="none" stroke="rgb(0, 0, 0)" stroke-opacity="1.0" stroke-linecap="round" stroke-linejoin="round"/>
    <path d="M 120.44027709960938 142.4343719482422 C 165.95944213867188 148.64089965820312 81.64063262939453 152.42135620117188 156.21420288085938 147.06260681152344" stroke-width="2" fill="none" stroke="rgb(0, 0, 0)" stroke-opacity="1.0" stroke-linecap="round" stroke-linejoin="round"/>
    <path d="M 49.88798141479492 110.43309783935547 C -11.848944664001465 192.46060180664062 174.2987518310547 149.10838317871094 162.02528381347656 136.32232666015625" stroke-width="2" fill="none" stroke="rgb(0, 0, 0)" stroke-opacity="1.0" stroke-linecap="round" stroke-linejoin="round"/>
    <path d="M 174.1540069580078 151.5874481201172 C 217.03701782226562 -24.28223991394043 137.57693481445312 115.53485870361328 146.78749084472656 93.9959945678711" stroke-width="2" fill="none" stroke="rgb(0, 0, 0)" stroke-opacity="1.0" stroke-linecap="round" stroke-linejoin="round"/>
    <path d="M 107.29303741455078 106.68287658691406 C 161.55905151367188 151.9785614013672 39.70033645629883 118.76069641113281 132.41390991210938 120.53690338134766" stroke-width="2" fill="none" stroke="rgb(0, 0, 0)" stroke-opacity="1.0" stroke-linecap="round" stroke-linejoin="round"/>
    <path d="M 184.70065307617188 63.209228515625 C 176.24765014648438 160.04759216308594 111.12130737304688 66.7698974609375 103.81583404541016 64.912841796875" stroke-width="2" fill="none" stroke="rgb(0, 0, 0)" stroke-opacity="1.0" stroke-linecap="round" stroke-linejoin="round"/>
    <path d="M 158.49168395996094 103.23180389404297 C 166.9750518798828 118.50019836425781 173.3812713623047 142.38888549804688 145.54885864257812 140.93724060058594" stroke-width="2" fill="none" stroke="rgb(0, 0, 0)" stroke-opacity="1.0" stroke-linecap="round" stroke-linejoin="round"/>
    <path d="M 81.41463470458984 140.19818115234375 C 91.00401306152344 -12.123563766479492 97.8083267211914 124.27916717529297 122.88589477539062 94.109130859375" stroke-width="2" fill="none" stroke="rgb(0, 0, 0)" stroke-opacity="1.0" stroke-linecap="round" stroke-linejoin="round"/>
    <path d="M 74.47344207763672 139.69627380371094 C 111.82904052734375 161.55531311035156 109.64643096923828 153.05064392089844 82.52091217041016 145.67042541503906" stroke-width="2" fill="none" stroke="rgb(0, 0, 0)" stroke-opacity="1.0" stroke-linecap="round" stroke-linejoin="round"/>
    <path d="M 185.24937438964844 90.4248275756836 C 147.51112365722656 162.08831787109375 170.7821044921875 65.3531494140625 166.36776733398438 129.5575714111328" stroke-width="2" fill="none" stroke="rgb(0, 0, 0)" stroke-opacity="1.0" stroke-linecap="round" stroke-linejoin="round"/>
    <path d="M 91.9549331665039 142.13528442382812 C 212.21046447753906 161.3861083984375 106.46238708496094 149.1879119873047 121.55023193359375 134.3893280029297" stroke-width="2" fill="none" stroke="rgb(0, 0, 0)" stroke-opacity="1.0" stroke-linecap="round" stroke-linejoin="round"/>
    <path d="M 46.52873611450195 132.18438720703125 C 56.839046478271484 113.19232177734375 31.89463996887207 90.77877807617188 94.9520034790039 93.18390655517578" stroke-width="2" fill="none" stroke="rgb(0, 0, 0)" stroke-opacity="1.0" stroke-linecap="round" stroke-linejoin="round"/>
  </g>
</svg>
