<?xml version="1.0" ?>
<svg xmlns="http://www.w3.org/2000/svg" version="1.1" width="224" height="224">
  <defs/>
  <g>
    <path d="M 87.55831146240234 137.15692138671875 C 252.60025024414062 171.81683349609375 103.95972442626953 155.7902374267578 103.1215591430664 155.76661682128906" stroke-width="2" fill="none" stroke="rgb(0, 0, 0)" stroke-opacity="1.0" stroke-linecap="round" stroke-linejoin="round"/>
    <path d="M 172.1544647216797 140.1942138671875 C 83.60879516601562 132.37271118164062 239.19635009765625 150.80316162109375 124.35813903808594 134.2929229736328" stroke-width="2" fill="none" stroke="rgb(0, 0, 0)" stroke-opacity="1.0" stroke-linecap="round" stroke-linejoin="round"/>
    <path d="M 110.67955017089844 89.87683868408203 C 140.41725158691406 161.77635192871094 110.7086181640625 94.53230285644531 162.20851135253906 108.28816986083984" stroke-width="2" fill="none" stroke="rgb(0, 0, 0)" stroke-opacity="1.0" stroke-linecap="round" stroke-linejoin="round"/>
    <path d="M 70.47820281982422 147.8881378173828 C 245.6563262939453 219.9982147216797 190.33428955078125 71.97217559814453 132.26010131835938 87.3256607055664" stroke-width="2" fill="none" stroke="rgb(0, 0, 0)" stroke-opacity="1.0" stroke-linecap="round" stroke-linejoin="round"/>
    <path d="M 172.61349487304688 126.17295837402344 C 153.38006591796875 105.06187438964844 222.177490234375 109.40382385253906 130.88772583007812 108.27725982666016" stroke-width="2" fill="none" stroke="rgb(0, 0, 0)" stroke-opacity="1.0" stroke-linecap="round" stroke-linejoin="round"/>
    <path d="M 141.94949340820312 119.63215637207031 C 197.75706481933594 135.63209533691406 71.45687103271484 120.29935455322266 153.5195770263672 143.10829162597656" stroke-width="2" fill="none" stroke="rgb(0, 0, 0)" stroke-opacity="1.0" stroke-linecap="round" stroke-linejoin="round"/>
    <path d="M 43.49674987792969 109.96367645263672 C -15.525245666503906 176.41497802734375 199.5808868408203 166.0268096923828 94.44017028808594 133.4796600341797" stroke-width="2" fill="none" stroke="rgb(0, 0, 0)" stroke-opacity="1.0" stroke-linecap="round" stroke-linejoin="round"/>
    <path d="M 174.28860473632812 91.06400299072266 C 200.770751953125 -11.239593505859375 147.9143829345703 119.84037780761719 154.02389526367188 89.31208801269531" stroke-width="2" fill="none" stroke="rgb(0, 0, 0)" stroke-opacity="1.0" stroke-linecap="round" stroke-linejoin="round"/>
    <path d="M 156.1302947998047 131.12484741210938 C 145.72792053222656 145.8664093017578 123.73746490478516 117.19991302490234 152.33251953125 142.78338623046875" stroke-width="2" fill="none" stroke="rgb(0, 0, 0)" stroke-opacity="1.0" stroke-linecap="round" stroke-linejoin="round"/>
    <path d="M 166.6208953857422 76.07044219970703 C 119.71101379394531 111.71436309814453 119.41093444824219 54.25194549560547 108.0217514038086 66.74201202392578" stroke-width="2" fill="none" stroke="rgb(0, 0, 0)" stroke-opacity="1.0" stroke-linecap="round" stroke-linejoin="round"/>
    <path d="M 115.34619903564453 139.44686889648438 C 146.1708526611328 146.72779846191406 176.3559112548828 161.1267852783203 173.84744262695312 155.81216430664062" stroke-width="2" fill="none" stroke="rgb(0, 0, 0)" stroke-opacity="1.0" stroke-linecap="round" stroke-linejoin="round"/>
    <path d="M 93.5401382446289 97.7477035522461 C 101.94379425048828 15.752469062805176 117.70359802246094 121.82244873046875 111.46422576904297 99.85777282714844" stroke-width="2" fill="none" stroke="rgb(0, 0, 0)" stroke-opacity="1.0" stroke-linecap="round" stroke-linejoin="round"/>
    <path d="M 50.03965377807617 139.90335083007812 C 220.44076538085938 166.9893341064453 208.88088989257812 144.08062744140625 127.34708404541016 131.7986602783203" stroke-width="2" fill="none" stroke="rgb(0, 0, 0)" stroke-opacity="1.0" stroke-linecap="round" stroke-linejoin="round"/>
    <path d="M 177.61849975585938 154.42242431640625 C 164.38192749023438 116.52611541748047 195.33738708496094 112.71951293945312 184.24526977539062 65.34548950195312" stroke-width="2" fill="none" stroke="rgb(0, 0, 0)" stroke-opacity="1.0" stroke-linecap="round" stroke-linejoin="round"/>
    <path d="M 95.92408752441406 137.34320068359375 C 200.11959838867188 141.0707550048828 174.50790405273438 123.54080963134766 128.22512817382812 136.93812561035156" stroke-width="2" fill="none" stroke="rgb(0, 0, 0)" stroke-opacity="1.0" stroke-linecap="round" stroke-linejoin="round"/>
    <path d="M 55.173118591308594 117.68862915039062 C 43.32001495361328 123.02947235107422 42.8720703125 82.35618591308594 96.37128448486328 96.38262939453125" stroke-width="2" fill="none" stroke="rgb(0, 0, 0)" stroke-opacity="1.0" stroke-linecap="round" stroke-linejoin="round"/>
  </g>
</svg>
