<?xml version="1.0" ?>
<svg xmlns="http://www.w3.org/2000/svg" version="1.1" width="224" height="224">
  <defs/>
  <g>
    <path d="M 100.51993560791016 131.11062622070312 C 207.57794189453125 167.3608856201172 113.0995864868164 138.4662628173828 143.0432586669922 156.22784423828125" stroke-width="2" fill="none" stroke="rgb(0, 0, 0)" stroke-opacity="1.0" stroke-linecap="round" stroke-linejoin="round"/>
    <path d="M 173.9414520263672 160.65280151367188 C 105.2111587524414 149.2127227783203 247.75387573242188 159.61703491210938 122.94080352783203 135.9545135498047" stroke-width="2" fill="none" stroke="rgb(0, 0, 0)" stroke-opacity="1.0" stroke-linecap="round" stroke-linejoin="round"/>
    <path d="M 100.11803436279297 107.70230865478516 C 113.9695816040039 150.04843139648438 103.62296295166016 89.36860656738281 148.2967987060547 95.1640625" stroke-width="2" fill="none" stroke="rgb(0, 0, 0)" stroke-opacity="1.0" stroke-linecap="round" stroke-linejoin="round"/>
    <path d="M 67.62228393554688 146.75985717773438 C 236.900390625 207.73130798339844 176.37881469726562 132.10194396972656 157.15576171875 119.14778137207031" stroke-width="2" fill="none" stroke="rgb(0, 0, 0)" stroke-opacity="1.0" stroke-linecap="round" stroke-linejoin="round"/>
    <path d="M 177.12196350097656 122.28382110595703 C 149.61964416503906 100.21865844726562 224.87188720703125 97.4951400756836 127.17620849609375 97.12569427490234" stroke-width="2" fill="none" stroke="rgb(0, 0, 0)" stroke-opacity="1.0" stroke-linecap="round" stroke-linejoin="round"/>
    <path d="M 153.81373596191406 104.16189575195312 C 196.3127899169922 156.29054260253906 86.85087585449219 130.5698699951172 174.33172607421875 129.17921447753906" stroke-width="2" fill="none" stroke="rgb(0, 0, 0)" stroke-opacity="1.0" stroke-linecap="round" stroke-linejoin="round"/>
    <path d="M 56.700523376464844 102.74064636230469 C -18.283777236938477 162.04429626464844 204.0761260986328 169.12353515625 88.17572021484375 132.97097778320312" stroke-width="2" fill="none" stroke="rgb(0, 0, 0)" stroke-opacity="1.0" stroke-linecap="round" stroke-linejoin="round"/>
    <path d="M 178.6929931640625 104.0052719116211 C 208.3447265625 -19.690446853637695 147.6999053955078 126.09565734863281 166.48886108398438 96.5588607788086" stroke-width="2" fill="none" stroke="rgb(0, 0, 0)" stroke-opacity="1.0" stroke-linecap="round" stroke-linejoin="round"/>
    <path d="M 125.49661254882812 107.15386962890625 C 116.40242767333984 182.4879608154297 116.63370513916016 98.57213592529297 161.3291473388672 132.3211212158203" stroke-width="2" fill="none" stroke="rgb(0, 0, 0)" stroke-opacity="1.0" stroke-linecap="round" stroke-linejoin="round"/>
    <path d="M 170.5714111328125 67.7093505859375 C 122.57154846191406 137.7943572998047 110.78580474853516 57.53607940673828 99.5044174194336 70.63748168945312" stroke-width="2" fill="none" stroke="rgb(0, 0, 0)" stroke-opacity="1.0" stroke-linecap="round" stroke-linejoin="round"/>
    <path d="M 123.3656005859375 127.35066986083984 C 156.28050231933594 136.6031951904297 189.40615844726562 161.40106201171875 165.29090881347656 151.5874786376953" stroke-width="2" fill="none" stroke="rgb(0, 0, 0)" stroke-opacity="1.0" stroke-linecap="round" stroke-linejoin="round"/>
    <path d="M 94.35893249511719 113.8045425415039 C 96.82169342041016 16.23134422302246 110.51039123535156 130.16258239746094 114.1483154296875 106.85074615478516" stroke-width="2" fill="none" stroke="rgb(0, 0, 0)" stroke-opacity="1.0" stroke-linecap="round" stroke-linejoin="round"/>
    <path d="M 50.192283630371094 153.00851440429688 C 207.60337829589844 165.6636505126953 203.07713317871094 147.5167694091797 125.81114196777344 147.69161987304688" stroke-width="2" fill="none" stroke="rgb(0, 0, 0)" stroke-opacity="1.0" stroke-linecap="round" stroke-linejoin="round"/>
    <path d="M 186.63330078125 140.3543701171875 C 184.7036590576172 101.81597900390625 209.24929809570312 137.458251953125 187.41622924804688 57.83601760864258" stroke-width="2" fill="none" stroke="rgb(0, 0, 0)" stroke-opacity="1.0" stroke-linecap="round" stroke-linejoin="round"/>
    <path d="M 103.66960144042969 134.7595672607422 C 174.2397918701172 139.11439514160156 144.91064453125 119.01715850830078 140.98757934570312 138.6023406982422" stroke-width="2" fill="none" stroke="rgb(0, 0, 0)" stroke-opacity="1.0" stroke-linecap="round" stroke-linejoin="round"/>
    <path d="M 70.03813934326172 115.6329116821289 C 50.560546875 115.66793823242188 48.92807388305664 88.99618530273438 95.66545867919922 98.67523193359375" stroke-width="2" fill="none" stroke="rgb(0, 0, 0)" stroke-opacity="1.0" stroke-linecap="round" stroke-linejoin="round"/>
  </g>
</svg>
