<?xml version="1.0" ?>
<svg xmlns="http://www.w3.org/2000/svg" version="1.1" width="224" height="224">
  <defs/>
  <g>
    <path d="M 95.04736328125 110.3743667602539 C 80.24988555908203 104.13838958740234 87.55864715576172 103.6622314453125 97.19667053222656 107.2440414428711" stroke-width="2" fill="none" stroke="rgb(0, 0, 0)" stroke-opacity="1.0" stroke-linecap="round" stroke-linejoin="round"/>
    <path d="M 119.19340515136719 151.73544311523438 C 113.80876159667969 136.53526306152344 126.17806243896484 137.3743438720703 109.0182113647461 138.84669494628906" stroke-width="2" fill="none" stroke="rgb(0, 0, 0)" stroke-opacity="1.0" stroke-linecap="round" stroke-linejoin="round"/>
    <path d="M 140.19219970703125 122.69537353515625 C 124.95623016357422 126.66067504882812 119.60105895996094 129.36888122558594 116.28984832763672 125.34931182861328" stroke-width="2" fill="none" stroke="rgb(0, 0, 0)" stroke-opacity="1.0" stroke-linecap="round" stroke-linejoin="round"/>
    <path d="M 137.2227783203125 122.26042175292969 C 142.95611572265625 113.81986236572266 158.5027313232422 120.6733169555664 158.5324249267578 114.98809814453125" stroke-width="2" fill="none" stroke="rgb(0, 0, 0)" stroke-opacity="1.0" stroke-linecap="round" stroke-linejoin="round"/>
    <path d="M 118.71426391601562 100.81526184082031 C 128.13162231445312 99.61872863769531 126.79222869873047 80.64666748046875 115.94795989990234 73.61460876464844" stroke-width="2" fill="none" stroke="rgb(0, 0, 0)" stroke-opacity="1.0" stroke-linecap="round" stroke-linejoin="round"/>
    <path d="M 112.2265625 100.21366119384766 C 116.64073181152344 83.56879425048828 108.72660827636719 103.78903198242188 111.51146697998047 104.80320739746094" stroke-width="2" fill="none" stroke="rgb(0, 0, 0)" stroke-opacity="1.0" stroke-linecap="round" stroke-linejoin="round"/>
    <path d="M 55.72666931152344 129.3365478515625 C 69.20907592773438 148.209228515625 82.5832748413086 147.53237915039062 106.042236328125 145.93222045898438" stroke-width="2" fill="none" stroke="rgb(0, 0, 0)" stroke-opacity="1.0" stroke-linecap="round" stroke-linejoin="round"/>
    <path d="M 155.2445068359375 119.00970458984375 C 145.5723114013672 130.65118408203125 141.8571014404297 108.41896057128906 114.58202362060547 114.28195190429688" stroke-width="2" fill="none" stroke="rgb(0, 0, 0)" stroke-opacity="1.0" stroke-linecap="round" stroke-linejoin="round"/>
    <path d="M 132.0372772216797 129.19854736328125 C 128.23155212402344 133.56494140625 125.76750183105469 131.23394775390625 96.50466918945312 127.03836059570312" stroke-width="2" fill="none" stroke="rgb(0, 0, 0)" stroke-opacity="1.0" stroke-linecap="round" stroke-linejoin="round"/>
    <path d="M 176.45864868164062 75.23356628417969 C 170.93907165527344 88.45685577392578 158.7801513671875 93.09678649902344 171.18194580078125 70.76883697509766" stroke-width="2" fill="none" stroke="rgb(0, 0, 0)" stroke-opacity="1.0" stroke-linecap="round" stroke-linejoin="round"/>
    <path d="M 168.1151580810547 133.36788940429688 C 178.5447235107422 148.7499542236328 178.77207946777344 149.7251739501953 181.97845458984375 163.84820556640625" stroke-width="2" fill="none" stroke="rgb(0, 0, 0)" stroke-opacity="1.0" stroke-linecap="round" stroke-linejoin="round"/>
    <path d="M 71.94898223876953 144.53160095214844 C 55.117576599121094 144.81802368164062 57.526161193847656 134.94200134277344 77.30332946777344 144.406982421875" stroke-width="2" fill="none" stroke="rgb(0, 0, 0)" stroke-opacity="1.0" stroke-linecap="round" stroke-linejoin="round"/>
    <path d="M 117.21488189697266 105.30184173583984 C 127.1978988647461 106.36378479003906 116.93768310546875 99.5771484375 114.02127075195312 73.65785217285156" stroke-width="2" fill="none" stroke="rgb(0, 0, 0)" stroke-opacity="1.0" stroke-linecap="round" stroke-linejoin="round"/>
    <path d="M 179.02650451660156 93.9952621459961 C 180.02386474609375 101.43284606933594 170.5074005126953 95.14704132080078 173.62442016601562 105.32804870605469" stroke-width="2" fill="none" stroke="rgb(0, 0, 0)" stroke-opacity="1.0" stroke-linecap="round" stroke-linejoin="round"/>
    <path d="M 72.80565643310547 82.20925903320312 C 81.01375579833984 93.34022521972656 75.2336196899414 91.62265014648438 78.34822845458984 84.13662719726562" stroke-width="2" fill="none" stroke="rgb(0, 0, 0)" stroke-opacity="1.0" stroke-linecap="round" stroke-linejoin="round"/>
    <path d="M 41.77614974975586 101.91390991210938 C 44.3254280090332 106.07125091552734 49.38438415527344 98.97183990478516 43.49802017211914 117.59632873535156" stroke-width="2" fill="none" stroke="rgb(0, 0, 0)" stroke-opacity="1.0" stroke-linecap="round" stroke-linejoin="round"/>
  </g>
</svg>
