<?xml version="1.0" ?>
<svg xmlns="http://www.w3.org/2000/svg" version="1.1" width="224" height="224">
  <defs/>
  <g>
    <path d="M 68.07843017578125 104.80380249023438 C 33.912994384765625 114.62078857421875 90.76194763183594 95.53449249267578 77.3620376586914 127.6175537109375" stroke-width="2" fill="none" stroke="rgb(0, 0, 0)" stroke-opacity="1.0" stroke-linecap="round" stroke-linejoin="round"/>
    <path d="M 138.7839813232422 112.16825103759766 C 71.4075927734375 111.25987243652344 121.17972564697266 141.59654235839844 90.74722290039062 125.2861328125" stroke-width="2" fill="none" stroke="rgb(0, 0, 0)" stroke-opacity="1.0" stroke-linecap="round" stroke-linejoin="round"/>
    <path d="M 131.10655212402344 127.74089813232422 C 253.99818420410156 147.92767333984375 86.931640625 165.6581573486328 123.94023132324219 104.55284881591797" stroke-width="2" fill="none" stroke="rgb(0, 0, 0)" stroke-opacity="1.0" stroke-linecap="round" stroke-linejoin="round"/>
    <path d="M 52.58903121948242 142.2903594970703 C 206.0198974609375 162.78245544433594 179.8114776611328 163.57601928710938 159.71742248535156 108.03846740722656" stroke-width="2" fill="none" stroke="rgb(0, 0, 0)" stroke-opacity="1.0" stroke-linecap="round" stroke-linejoin="round"/>
    <path d="M 186.30833435058594 64.23771667480469 C 164.5324249267578 55.72133255004883 179.63302612304688 92.8900375366211 128.28428649902344 87.3322982788086" stroke-width="2" fill="none" stroke="rgb(0, 0, 0)" stroke-opacity="1.0" stroke-linecap="round" stroke-linejoin="round"/>
    <path d="M 129.6188507080078 115.74687957763672 C 183.4566650390625 129.43353271484375 90.36690521240234 134.22618103027344 151.25262451171875 135.81222534179688" stroke-width="2" fill="none" stroke="rgb(0, 0, 0)" stroke-opacity="1.0" stroke-linecap="round" stroke-linejoin="round"/>
    <path d="M 60.96446228027344 110.39979553222656 C 9.398883819580078 167.8693389892578 82.46937561035156 161.71534729003906 128.6945343017578 166.30235290527344" stroke-width="2" fill="none" stroke="rgb(0, 0, 0)" stroke-opacity="1.0" stroke-linecap="round" stroke-linejoin="round"/>
    <path d="M 151.48086547851562 116.12641143798828 C 49.81657791137695 124.04503631591797 200.6719207763672 123.04210662841797 110.18814086914062 138.9972381591797" stroke-width="2" fill="none" stroke="rgb(0, 0, 0)" stroke-opacity="1.0" stroke-linecap="round" stroke-linejoin="round"/>
    <path d="M 95.19044494628906 145.2059783935547 C 52.14662170410156 132.19451904296875 84.77796173095703 150.46640014648438 80.04657745361328 126.11589813232422" stroke-width="2" fill="none" stroke="rgb(0, 0, 0)" stroke-opacity="1.0" stroke-linecap="round" stroke-linejoin="round"/>
    <path d="M 183.28016662597656 63.875885009765625 C 168.88937377929688 114.11128234863281 151.74267578125 100.92799377441406 173.8413848876953 103.9111328125" stroke-width="2" fill="none" stroke="rgb(0, 0, 0)" stroke-opacity="1.0" stroke-linecap="round" stroke-linejoin="round"/>
    <path d="M 161.72348022460938 145.4059295654297 C 66.95255279541016 126.08734130859375 99.84735107421875 146.10121154785156 107.00862884521484 149.00994873046875" stroke-width="2" fill="none" stroke="rgb(0, 0, 0)" stroke-opacity="1.0" stroke-linecap="round" stroke-linejoin="round"/>
    <path d="M 104.3929672241211 92.94437408447266 C 44.15470886230469 84.95616912841797 67.78986358642578 143.99185180664062 61.996177673339844 106.35413360595703" stroke-width="2" fill="none" stroke="rgb(0, 0, 0)" stroke-opacity="1.0" stroke-linecap="round" stroke-linejoin="round"/>
    <path d="M 165.5614013671875 99.45053100585938 C 121.27689361572266 62.9432258605957 146.452392578125 140.14686584472656 110.25413513183594 63.90784454345703" stroke-width="2" fill="none" stroke="rgb(0, 0, 0)" stroke-opacity="1.0" stroke-linecap="round" stroke-linejoin="round"/>
    <path d="M 182.754638671875 63.95365524291992 C 183.1293182373047 137.2921905517578 149.70108032226562 133.14694213867188 166.85906982421875 110.17332458496094" stroke-width="2" fill="none" stroke="rgb(0, 0, 0)" stroke-opacity="1.0" stroke-linecap="round" stroke-linejoin="round"/>
    <path d="M 130.48526000976562 87.2158203125 C 86.68299102783203 19.59256935119629 103.39871215820312 116.386474609375 104.12235260009766 97.47301483154297" stroke-width="2" fill="none" stroke="rgb(0, 0, 0)" stroke-opacity="1.0" stroke-linecap="round" stroke-linejoin="round"/>
    <path d="M 48.74690628051758 129.88743591308594 C 63.849430084228516 96.97554779052734 86.732421875 104.40863037109375 83.82942962646484 114.81608581542969" stroke-width="2" fill="none" stroke="rgb(0, 0, 0)" stroke-opacity="1.0" stroke-linecap="round" stroke-linejoin="round"/>
  </g>
</svg>
