<?xml version="1.0" ?>
<svg xmlns="http://www.w3.org/2000/svg" version="1.1" width="224" height="224">
  <defs/>
  <g>
    <path d="M 72.25750732421875 128.94715881347656 C 19.20367431640625 105.53425598144531 102.71282958984375 73.28546142578125 99.94546508789062 126.45243072509766" stroke-width="2" fill="none" stroke="rgb(0, 0, 0)" stroke-opacity="1.0" stroke-linecap="round" stroke-linejoin="round"/>
    <path d="M 152.13462829589844 138.8279571533203 C 115.58953094482422 123.49469757080078 119.05785369873047 127.2424545288086 56.963069915771484 116.73855590820312" stroke-width="2" fill="none" stroke="rgb(0, 0, 0)" stroke-opacity="1.0" stroke-linecap="round" stroke-linejoin="round"/>
    <path d="M 120.34577941894531 116.03425598144531 C 187.94293212890625 116.27550506591797 70.41069793701172 112.24150848388672 143.0797882080078 104.83211517333984" stroke-width="2" fill="none" stroke="rgb(0, 0, 0)" stroke-opacity="1.0" stroke-linecap="round" stroke-linejoin="round"/>
    <path d="M 92.76043701171875 150.7986297607422 C 200.05421447753906 167.620361328125 178.1908416748047 174.05690002441406 173.0526885986328 97.61564636230469" stroke-width="2" fill="none" stroke="rgb(0, 0, 0)" stroke-opacity="1.0" stroke-linecap="round" stroke-linejoin="round"/>
    <path d="M 133.26051330566406 91.271728515625 C 182.8927764892578 79.91748809814453 122.84195709228516 105.07600402832031 108.50563049316406 71.17044830322266" stroke-width="2" fill="none" stroke="rgb(0, 0, 0)" stroke-opacity="1.0" stroke-linecap="round" stroke-linejoin="round"/>
    <path d="M 123.97379302978516 118.36499786376953 C 145.65675354003906 97.9884262084961 148.1045379638672 138.7259063720703 118.56417083740234 110.51205444335938" stroke-width="2" fill="none" stroke="rgb(0, 0, 0)" stroke-opacity="1.0" stroke-linecap="round" stroke-linejoin="round"/>
    <path d="M 50.36403274536133 106.720703125 C 18.088768005371094 151.1418914794922 96.76364135742188 149.43252563476562 148.22129821777344 150.62184143066406" stroke-width="2" fill="none" stroke="rgb(0, 0, 0)" stroke-opacity="1.0" stroke-linecap="round" stroke-linejoin="round"/>
    <path d="M 168.33360290527344 112.84466552734375 C 117.04551696777344 107.66620635986328 220.6226806640625 130.6120147705078 125.95105743408203 130.32363891601562" stroke-width="2" fill="none" stroke="rgb(0, 0, 0)" stroke-opacity="1.0" stroke-linecap="round" stroke-linejoin="round"/>
    <path d="M 159.00433349609375 148.10195922851562 C 100.25871276855469 150.76097106933594 108.48981475830078 135.28237915039062 84.3003158569336 129.79893493652344" stroke-width="2" fill="none" stroke="rgb(0, 0, 0)" stroke-opacity="1.0" stroke-linecap="round" stroke-linejoin="round"/>
    <path d="M 179.74237060546875 63.59882736206055 C 164.24476623535156 114.86555480957031 127.76978302001953 104.42350006103516 181.6421661376953 62.78702926635742" stroke-width="2" fill="none" stroke="rgb(0, 0, 0)" stroke-opacity="1.0" stroke-linecap="round" stroke-linejoin="round"/>
    <path d="M 153.5939178466797 107.67521667480469 C 171.71401977539062 132.3316192626953 189.13027954101562 159.36468505859375 160.9254913330078 147.35125732421875" stroke-width="2" fill="none" stroke="rgb(0, 0, 0)" stroke-opacity="1.0" stroke-linecap="round" stroke-linejoin="round"/>
    <path d="M 72.92012023925781 141.54623413085938 C 30.0533447265625 145.88906860351562 27.234237670898438 127.60243225097656 101.08692932128906 154.6998291015625" stroke-width="2" fill="none" stroke="rgb(0, 0, 0)" stroke-opacity="1.0" stroke-linecap="round" stroke-linejoin="round"/>
    <path d="M 108.350830078125 98.75975799560547 C 132.6867218017578 81.17772674560547 100.9273681640625 121.59666442871094 101.10132598876953 78.42796325683594" stroke-width="2" fill="none" stroke="rgb(0, 0, 0)" stroke-opacity="1.0" stroke-linecap="round" stroke-linejoin="round"/>
    <path d="M 182.63565063476562 63.8521842956543 C 184.10238647460938 83.24517822265625 167.0721893310547 134.88992309570312 148.18692016601562 117.14697265625" stroke-width="2" fill="none" stroke="rgb(0, 0, 0)" stroke-opacity="1.0" stroke-linecap="round" stroke-linejoin="round"/>
    <path d="M 105.47295379638672 72.39794921875 C 84.73357391357422 66.25825500488281 98.20117950439453 143.9342498779297 104.42733764648438 95.49622344970703" stroke-width="2" fill="none" stroke="rgb(0, 0, 0)" stroke-opacity="1.0" stroke-linecap="round" stroke-linejoin="round"/>
    <path d="M 40.7165641784668 137.77687072753906 C 43.27962875366211 95.83535766601562 69.04413604736328 106.95249938964844 73.72807312011719 107.30896759033203" stroke-width="2" fill="none" stroke="rgb(0, 0, 0)" stroke-opacity="1.0" stroke-linecap="round" stroke-linejoin="round"/>
  </g>
</svg>
