<?xml version="1.0" ?>
<svg xmlns="http://www.w3.org/2000/svg" version="1.1" width="224" height="224">
  <defs/>
  <g>
    <path d="M 49.78799057006836 131.67869567871094 C 119.48410034179688 151.63275146484375 52.99997329711914 151.7659912109375 42.135475158691406 134.17111206054688" stroke-width="2" fill="none" stroke="rgb(0, 0, 0)" stroke-opacity="1.0" stroke-linecap="round" stroke-linejoin="round"/>
    <path d="M 149.0193634033203 128.40745544433594 C 80.41437530517578 108.51244354248047 182.78582763671875 122.99567413330078 117.05142974853516 123.14448547363281" stroke-width="2" fill="none" stroke="rgb(0, 0, 0)" stroke-opacity="1.0" stroke-linecap="round" stroke-linejoin="round"/>
    <path d="M 153.6595916748047 120.69263458251953 C 208.852783203125 109.16222381591797 76.67981719970703 149.87864685058594 74.0289306640625 123.00360107421875" stroke-width="2" fill="none" stroke="rgb(0, 0, 0)" stroke-opacity="1.0" stroke-linecap="round" stroke-linejoin="round"/>
    <path d="M 84.76665496826172 143.1378936767578 C 237.61370849609375 183.2595672607422 144.58482360839844 112.84403991699219 176.46395874023438 98.46393585205078" stroke-width="2" fill="none" stroke="rgb(0, 0, 0)" stroke-opacity="1.0" stroke-linecap="round" stroke-linejoin="round"/>
    <path d="M 192.14793395996094 54.39357376098633 C 170.54454040527344 52.54072570800781 157.00856018066406 105.28168487548828 128.418701171875 83.42952728271484" stroke-width="2" fill="none" stroke="rgb(0, 0, 0)" stroke-opacity="1.0" stroke-linecap="round" stroke-linejoin="round"/>
    <path d="M 156.26766967773438 117.4847640991211 C 232.9459228515625 152.283447265625 34.13212585449219 101.59736633300781 131.2772216796875 132.4107666015625" stroke-width="2" fill="none" stroke="rgb(0, 0, 0)" stroke-opacity="1.0" stroke-linecap="round" stroke-linejoin="round"/>
    <path d="M 44.895057678222656 119.8116226196289 C 6.272055149078369 158.52774047851562 133.93719482421875 146.99050903320312 162.69479370117188 141.54962158203125" stroke-width="2" fill="none" stroke="rgb(0, 0, 0)" stroke-opacity="1.0" stroke-linecap="round" stroke-linejoin="round"/>
    <path d="M 166.6152801513672 102.79586791992188 C 121.00218200683594 101.1551284790039 206.25657653808594 95.69647216796875 155.37155151367188 133.6677703857422" stroke-width="2" fill="none" stroke="rgb(0, 0, 0)" stroke-opacity="1.0" stroke-linecap="round" stroke-linejoin="round"/>
    <path d="M 120.58645629882812 102.93551635742188 C 139.8199462890625 100.01353454589844 135.25389099121094 93.583251953125 114.17681121826172 107.38243103027344" stroke-width="2" fill="none" stroke="rgb(0, 0, 0)" stroke-opacity="1.0" stroke-linecap="round" stroke-linejoin="round"/>
    <path d="M 185.5005340576172 53.51872253417969 C 160.34634399414062 119.41710662841797 161.68907165527344 61.55148696899414 172.1614532470703 104.6030502319336" stroke-width="2" fill="none" stroke="rgb(0, 0, 0)" stroke-opacity="1.0" stroke-linecap="round" stroke-linejoin="round"/>
    <path d="M 130.8651580810547 137.0043182373047 C 54.11805725097656 133.18557739257812 122.85790252685547 130.67808532714844 139.27870178222656 142.8411407470703" stroke-width="2" fill="none" stroke="rgb(0, 0, 0)" stroke-opacity="1.0" stroke-linecap="round" stroke-linejoin="round"/>
    <path d="M 100.27764129638672 102.60406494140625 C 83.87239074707031 98.1451644897461 104.92274475097656 115.60652160644531 67.60233306884766 104.739990234375" stroke-width="2" fill="none" stroke="rgb(0, 0, 0)" stroke-opacity="1.0" stroke-linecap="round" stroke-linejoin="round"/>
    <path d="M 108.56757354736328 109.43295288085938 C 110.79081726074219 78.81896209716797 118.96443176269531 127.305419921875 99.90243530273438 72.19343566894531" stroke-width="2" fill="none" stroke="rgb(0, 0, 0)" stroke-opacity="1.0" stroke-linecap="round" stroke-linejoin="round"/>
    <path d="M 193.81918334960938 61.378143310546875 C 173.9002685546875 164.26202392578125 131.0737762451172 109.13612365722656 163.7265167236328 117.05415344238281" stroke-width="2" fill="none" stroke="rgb(0, 0, 0)" stroke-opacity="1.0" stroke-linecap="round" stroke-linejoin="round"/>
    <path d="M 120.6076889038086 91.2378921508789 C 76.02975463867188 25.020078659057617 95.5529556274414 121.07154083251953 104.08293914794922 123.20477294921875" stroke-width="2" fill="none" stroke="rgb(0, 0, 0)" stroke-opacity="1.0" stroke-linecap="round" stroke-linejoin="round"/>
    <path d="M 57.64515686035156 143.31871032714844 C 44.7269401550293 117.88037109375 44.443172454833984 91.09329986572266 89.95779418945312 100.16751861572266" stroke-width="2" fill="none" stroke="rgb(0, 0, 0)" stroke-opacity="1.0" stroke-linecap="round" stroke-linejoin="round"/>
  </g>
</svg>
