<?xml version="1.0" ?>
<svg xmlns="http://www.w3.org/2000/svg" version="1.1" width="224" height="224">
  <defs/>
  <g>
    <path d="M 68.72169494628906 121.16468811035156 C 19.672710418701172 121.18978118896484 109.51948547363281 67.57903289794922 97.46381378173828 123.31874084472656" stroke-width="2" fill="none" stroke="rgb(0, 0, 0)" stroke-opacity="1.0" stroke-linecap="round" stroke-linejoin="round"/>
    <path d="M 145.28366088867188 146.04498291015625 C 66.48723602294922 138.5354461669922 121.0470962524414 138.02085876464844 82.66947174072266 131.850830078125" stroke-width="2" fill="none" stroke="rgb(0, 0, 0)" stroke-opacity="1.0" stroke-linecap="round" stroke-linejoin="round"/>
    <path d="M 108.55035400390625 115.72146606445312 C 211.54251098632812 145.5998992919922 68.21835327148438 121.98468017578125 130.94235229492188 111.23514556884766" stroke-width="2" fill="none" stroke="rgb(0, 0, 0)" stroke-opacity="1.0" stroke-linecap="round" stroke-linejoin="round"/>
    <path d="M 107.81320190429688 144.29872131347656 C 202.39608764648438 179.11891174316406 177.72471618652344 163.42811584472656 164.5033721923828 94.86810302734375" stroke-width="2" fill="none" stroke="rgb(0, 0, 0)" stroke-opacity="1.0" stroke-linecap="round" stroke-linejoin="round"/>
    <path d="M 144.2110595703125 84.82858276367188 C 171.4110565185547 79.48037719726562 137.38345336914062 101.31217956542969 116.5887680053711 63.34598922729492" stroke-width="2" fill="none" stroke="rgb(0, 0, 0)" stroke-opacity="1.0" stroke-linecap="round" stroke-linejoin="round"/>
    <path d="M 109.65323638916016 126.79518127441406 C 140.392822265625 110.67535400390625 127.2001953125 131.1492462158203 112.9876480102539 117.61871337890625" stroke-width="2" fill="none" stroke="rgb(0, 0, 0)" stroke-opacity="1.0" stroke-linecap="round" stroke-linejoin="round"/>
    <path d="M 58.13685607910156 102.57328033447266 C 20.258411407470703 146.67623901367188 101.86528778076172 139.29774475097656 130.44107055664062 151.10325622558594" stroke-width="2" fill="none" stroke="rgb(0, 0, 0)" stroke-opacity="1.0" stroke-linecap="round" stroke-linejoin="round"/>
    <path d="M 161.2541961669922 113.08848571777344 C 105.4373550415039 109.2039794921875 226.02810668945312 124.40252685546875 111.3756332397461 122.58358001708984" stroke-width="2" fill="none" stroke="rgb(0, 0, 0)" stroke-opacity="1.0" stroke-linecap="round" stroke-linejoin="round"/>
    <path d="M 147.0354766845703 164.56866455078125 C 92.2430191040039 153.08103942871094 106.03425598144531 146.60411071777344 64.00896453857422 141.96847534179688" stroke-width="2" fill="none" stroke="rgb(0, 0, 0)" stroke-opacity="1.0" stroke-linecap="round" stroke-linejoin="round"/>
    <path d="M 183.6568603515625 58.27198028564453 C 163.63258361816406 109.43586730957031 121.50743865966797 99.21623229980469 186.08836364746094 59.399044036865234" stroke-width="2" fill="none" stroke="rgb(0, 0, 0)" stroke-opacity="1.0" stroke-linecap="round" stroke-linejoin="round"/>
    <path d="M 165.851318359375 139.69937133789062 C 165.86048889160156 86.68233489990234 191.18524169921875 161.7151641845703 170.49803161621094 138.81832885742188" stroke-width="2" fill="none" stroke="rgb(0, 0, 0)" stroke-opacity="1.0" stroke-linecap="round" stroke-linejoin="round"/>
    <path d="M 44.418617248535156 123.75682067871094 C 45.714473724365234 124.95172882080078 14.828883171081543 149.34661865234375 84.47595977783203 158.7845458984375" stroke-width="2" fill="none" stroke="rgb(0, 0, 0)" stroke-opacity="1.0" stroke-linecap="round" stroke-linejoin="round"/>
    <path d="M 110.31916046142578 99.13699340820312 C 124.8132553100586 85.5616226196289 111.92082977294922 115.0263900756836 107.65730285644531 65.73494720458984" stroke-width="2" fill="none" stroke="rgb(0, 0, 0)" stroke-opacity="1.0" stroke-linecap="round" stroke-linejoin="round"/>
    <path d="M 186.23870849609375 56.2966423034668 C 185.13597106933594 88.39427185058594 142.63392639160156 146.9711456298828 152.79638671875 110.0223388671875" stroke-width="2" fill="none" stroke="rgb(0, 0, 0)" stroke-opacity="1.0" stroke-linecap="round" stroke-linejoin="round"/>
    <path d="M 114.93927001953125 61.88802719116211 C 88.61518096923828 57.08528137207031 99.77225494384766 132.82351684570312 111.1004638671875 97.86060333251953" stroke-width="2" fill="none" stroke="rgb(0, 0, 0)" stroke-opacity="1.0" stroke-linecap="round" stroke-linejoin="round"/>
    <path d="M 49.1829719543457 136.40615844726562 C 36.01053237915039 92.37383270263672 81.06749725341797 98.80886840820312 81.37894439697266 111.26451873779297" stroke-width="2" fill="none" stroke="rgb(0, 0, 0)" stroke-opacity="1.0" stroke-linecap="round" stroke-linejoin="round"/>
  </g>
</svg>
