<?xml version="1.0" ?>
<svg xmlns="http://www.w3.org/2000/svg" version="1.1" width="224" height="224">
  <defs/>
  <g>
    <path d="M 95.7887954711914 114.57622528076172 C 222.126220703125 153.536376953125 90.31376647949219 125.96553039550781 140.1846160888672 145.96665954589844" stroke-width="2" fill="none" stroke="rgb(0, 0, 0)" stroke-opacity="1.0" stroke-linecap="round" stroke-linejoin="round"/>
    <path d="M 110.74734497070312 158.35958862304688 C 54.905696868896484 151.33633422851562 232.27154541015625 127.23511505126953 101.65304565429688 128.12710571289062" stroke-width="2" fill="none" stroke="rgb(0, 0, 0)" stroke-opacity="1.0" stroke-linecap="round" stroke-linejoin="round"/>
    <path d="M 117.44249725341797 99.34651947021484 C 78.50691223144531 154.832275390625 118.81502532958984 77.53131103515625 133.3789520263672 142.9738311767578" stroke-width="2" fill="none" stroke="rgb(0, 0, 0)" stroke-opacity="1.0" stroke-linecap="round" stroke-linejoin="round"/>
    <path d="M 65.96759796142578 138.7245635986328 C 224.63990783691406 213.692138671875 162.53912353515625 79.10303497314453 155.7664794921875 95.68632507324219" stroke-width="2" fill="none" stroke="rgb(0, 0, 0)" stroke-opacity="1.0" stroke-linecap="round" stroke-linejoin="round"/>
    <path d="M 145.96678161621094 112.65629577636719 C 104.41817474365234 121.30044555664062 207.73704528808594 126.61326599121094 136.95266723632812 100.31878662109375" stroke-width="2" fill="none" stroke="rgb(0, 0, 0)" stroke-opacity="1.0" stroke-linecap="round" stroke-linejoin="round"/>
    <path d="M 101.77298736572266 132.35504150390625 C 148.15000915527344 131.16390991210938 45.20195007324219 114.17581939697266 146.76133728027344 122.08615112304688" stroke-width="2" fill="none" stroke="rgb(0, 0, 0)" stroke-opacity="1.0" stroke-linecap="round" stroke-linejoin="round"/>
    <path d="M 84.73909759521484 99.32299041748047 C -4.199934959411621 140.8162078857422 99.73088836669922 154.83616638183594 56.19387435913086 131.11676025390625" stroke-width="2" fill="none" stroke="rgb(0, 0, 0)" stroke-opacity="1.0" stroke-linecap="round" stroke-linejoin="round"/>
    <path d="M 163.10421752929688 97.83473205566406 C 200.5989227294922 -15.286386489868164 135.26699829101562 125.13716125488281 161.0599365234375 66.09773254394531" stroke-width="2" fill="none" stroke="rgb(0, 0, 0)" stroke-opacity="1.0" stroke-linecap="round" stroke-linejoin="round"/>
    <path d="M 166.16490173339844 155.7647705078125 C 77.88568878173828 146.5639190673828 44.512535095214844 118.32382202148438 147.9342041015625 128.61375427246094" stroke-width="2" fill="none" stroke="rgb(0, 0, 0)" stroke-opacity="1.0" stroke-linecap="round" stroke-linejoin="round"/>
    <path d="M 162.83641052246094 69.32003021240234 C 112.62547302246094 115.22066497802734 120.74028015136719 65.97291564941406 100.15714263916016 57.9338493347168" stroke-width="2" fill="none" stroke="rgb(0, 0, 0)" stroke-opacity="1.0" stroke-linecap="round" stroke-linejoin="round"/>
    <path d="M 70.50545501708984 117.85313415527344 C 45.813785552978516 164.15411376953125 129.94418334960938 132.42030334472656 161.1493377685547 155.4542236328125" stroke-width="2" fill="none" stroke="rgb(0, 0, 0)" stroke-opacity="1.0" stroke-linecap="round" stroke-linejoin="round"/>
    <path d="M 92.21456909179688 97.90399932861328 C 98.14602661132812 14.169519424438477 108.08251953125 101.82058715820312 118.48491668701172 98.87843322753906" stroke-width="2" fill="none" stroke="rgb(0, 0, 0)" stroke-opacity="1.0" stroke-linecap="round" stroke-linejoin="round"/>
    <path d="M 48.961971282958984 141.4509735107422 C 172.1916961669922 153.1534881591797 179.26052856445312 147.4436492919922 97.47892761230469 147.0514678955078" stroke-width="2" fill="none" stroke="rgb(0, 0, 0)" stroke-opacity="1.0" stroke-linecap="round" stroke-linejoin="round"/>
    <path d="M 161.17295837402344 140.9186553955078 C 155.58489990234375 123.77269744873047 190.7043914794922 104.6094741821289 177.75331115722656 61.93596649169922" stroke-width="2" fill="none" stroke="rgb(0, 0, 0)" stroke-opacity="1.0" stroke-linecap="round" stroke-linejoin="round"/>
    <path d="M 97.4299545288086 116.07640075683594 C 155.25735473632812 129.71434020996094 160.10943603515625 146.6903839111328 132.515869140625 123.73238372802734" stroke-width="2" fill="none" stroke="rgb(0, 0, 0)" stroke-opacity="1.0" stroke-linecap="round" stroke-linejoin="round"/>
    <path d="M 74.42740631103516 105.09554290771484 C 85.98528289794922 181.07864379882812 91.40885925292969 101.54292297363281 118.07454681396484 120.23731231689453" stroke-width="2" fill="none" stroke="rgb(0, 0, 0)" stroke-opacity="1.0" stroke-linecap="round" stroke-linejoin="round"/>
  </g>
</svg>
