<?xml version="1.0" ?>
<svg xmlns="http://www.w3.org/2000/svg" version="1.1" width="224" height="224">
  <defs/>
  <g>
    <path d="M 40.14999771118164 147.25595092773438 C 143.0854949951172 168.4690704345703 68.52861785888672 148.22021484375 77.36796569824219 119.3931884765625" stroke-width="2" fill="none" stroke="rgb(0, 0, 0)" stroke-opacity="1.0" stroke-linecap="round" stroke-linejoin="round"/>
    <path d="M 128.87403869628906 121.75646209716797 C 59.708457946777344 117.75228881835938 166.5315399169922 127.9228286743164 93.47389221191406 125.98541259765625" stroke-width="2" fill="none" stroke="rgb(0, 0, 0)" stroke-opacity="1.0" stroke-linecap="round" stroke-linejoin="round"/>
    <path d="M 107.38227081298828 135.00621032714844 C 160.90940856933594 115.26094818115234 24.228992462158203 114.14904022216797 162.73377990722656 141.7920379638672" stroke-width="2" fill="none" stroke="rgb(0, 0, 0)" stroke-opacity="1.0" stroke-linecap="round" stroke-linejoin="round"/>
    <path d="M 96.51522064208984 158.6578826904297 C 212.126220703125 180.05145263671875 175.26446533203125 107.183349609375 146.42376708984375 115.75813293457031" stroke-width="2" fill="none" stroke="rgb(0, 0, 0)" stroke-opacity="1.0" stroke-linecap="round" stroke-linejoin="round"/>
    <path d="M 189.93325805664062 61.97804641723633 C 173.13246154785156 57.425872802734375 161.5357208251953 114.01802825927734 117.5169677734375 99.6431884765625" stroke-width="2" fill="none" stroke="rgb(0, 0, 0)" stroke-opacity="1.0" stroke-linecap="round" stroke-linejoin="round"/>
    <path d="M 120.95452117919922 141.04495239257812 C 218.2291259765625 141.6872100830078 64.20947265625 141.57530212402344 145.156005859375 135.37037658691406" stroke-width="2" fill="none" stroke="rgb(0, 0, 0)" stroke-opacity="1.0" stroke-linecap="round" stroke-linejoin="round"/>
    <path d="M 51.94013595581055 106.32844543457031 C 1.3843698501586914 169.6767120361328 199.50450134277344 159.73916625976562 175.61724853515625 124.10661315917969" stroke-width="2" fill="none" stroke="rgb(0, 0, 0)" stroke-opacity="1.0" stroke-linecap="round" stroke-linejoin="round"/>
    <path d="M 163.50418090820312 126.61312866210938 C 200.61862182617188 46.26289367675781 149.69203186035156 119.71619415283203 166.86236572265625 97.75157165527344" stroke-width="2" fill="none" stroke="rgb(0, 0, 0)" stroke-opacity="1.0" stroke-linecap="round" stroke-linejoin="round"/>
    <path d="M 96.87993621826172 135.021484375 C 152.00209045410156 141.02920532226562 34.99904251098633 117.08792114257812 113.45161437988281 131.51243591308594" stroke-width="2" fill="none" stroke="rgb(0, 0, 0)" stroke-opacity="1.0" stroke-linecap="round" stroke-linejoin="round"/>
    <path d="M 185.32278442382812 62.298057556152344 C 163.68751525878906 138.39598083496094 121.1120376586914 74.31847381591797 106.21906280517578 71.6812515258789" stroke-width="2" fill="none" stroke="rgb(0, 0, 0)" stroke-opacity="1.0" stroke-linecap="round" stroke-linejoin="round"/>
    <path d="M 155.2401123046875 129.6018829345703 C 196.98086547851562 141.10702514648438 178.12271118164062 167.07493591308594 117.50692749023438 148.31129455566406" stroke-width="2" fill="none" stroke="rgb(0, 0, 0)" stroke-opacity="1.0" stroke-linecap="round" stroke-linejoin="round"/>
    <path d="M 130.09158325195312 119.74715423583984 C 92.05162811279297 13.69774055480957 98.1218032836914 121.20116424560547 101.48030090332031 91.71280670166016" stroke-width="2" fill="none" stroke="rgb(0, 0, 0)" stroke-opacity="1.0" stroke-linecap="round" stroke-linejoin="round"/>
    <path d="M 107.03762817382812 132.54409790039062 C 115.79417419433594 130.21197509765625 114.5567398071289 104.6739730834961 83.92085266113281 125.68820190429688" stroke-width="2" fill="none" stroke="rgb(0, 0, 0)" stroke-opacity="1.0" stroke-linecap="round" stroke-linejoin="round"/>
    <path d="M 185.36215209960938 64.20220184326172 C 179.19691467285156 155.35679626464844 143.13446044921875 69.69886779785156 169.9677734375 117.98074340820312" stroke-width="2" fill="none" stroke="rgb(0, 0, 0)" stroke-opacity="1.0" stroke-linecap="round" stroke-linejoin="round"/>
    <path d="M 117.73213958740234 134.1361846923828 C 118.6447982788086 97.50238800048828 89.45532989501953 157.6861572265625 127.61248016357422 123.31076049804688" stroke-width="2" fill="none" stroke="rgb(0, 0, 0)" stroke-opacity="1.0" stroke-linecap="round" stroke-linejoin="round"/>
    <path d="M 60.09511947631836 132.04429626464844 C 50.348289489746094 113.89830780029297 34.501564025878906 83.66873931884766 97.2099380493164 85.42082977294922" stroke-width="2" fill="none" stroke="rgb(0, 0, 0)" stroke-opacity="1.0" stroke-linecap="round" stroke-linejoin="round"/>
  </g>
</svg>
