<?xml version="1.0" ?>
<svg xmlns="http://www.w3.org/2000/svg" version="1.1" width="224" height="224">
  <defs/>
  <g>
    <path d="M 73.29227447509766 117.5511245727539 C 25.24020767211914 120.44569396972656 82.365234375 69.21072387695312 102.18628692626953 123.33419799804688" stroke-width="2" fill="none" stroke="rgb(0, 0, 0)" stroke-opacity="1.0" stroke-linecap="round" stroke-linejoin="round"/>
    <path d="M 147.10231018066406 136.8979034423828 C 57.31231689453125 124.2736587524414 160.3235321044922 150.3114013671875 124.97503662109375 135.13426208496094" stroke-width="2" fill="none" stroke="rgb(0, 0, 0)" stroke-opacity="1.0" stroke-linecap="round" stroke-linejoin="round"/>
    <path d="M 134.71197509765625 113.71514892578125 C 193.06866455078125 135.4253692626953 74.11041259765625 134.92547607421875 128.40774536132812 109.41946411132812" stroke-width="2" fill="none" stroke="rgb(0, 0, 0)" stroke-opacity="1.0" stroke-linecap="round" stroke-linejoin="round"/>
    <path d="M 64.44412231445312 133.27154541015625 C 180.76963806152344 172.66403198242188 180.7454071044922 138.0059356689453 159.74388122558594 94.9035415649414" stroke-width="2" fill="none" stroke="rgb(0, 0, 0)" stroke-opacity="1.0" stroke-linecap="round" stroke-linejoin="round"/>
    <path d="M 184.43702697753906 58.94220733642578 C 184.93418884277344 49.49886703491211 137.5594940185547 117.1371078491211 112.43708801269531 71.42576599121094" stroke-width="2" fill="none" stroke="rgb(0, 0, 0)" stroke-opacity="1.0" stroke-linecap="round" stroke-linejoin="round"/>
    <path d="M 116.41951751708984 117.4937973022461 C 145.63760375976562 111.62567138671875 135.07003784179688 105.10023498535156 123.09144592285156 108.28404235839844" stroke-width="2" fill="none" stroke="rgb(0, 0, 0)" stroke-opacity="1.0" stroke-linecap="round" stroke-linejoin="round"/>
    <path d="M 56.62648010253906 110.33060455322266 C 29.223920822143555 138.0215301513672 105.33243560791016 145.41436767578125 162.08360290527344 151.8881378173828" stroke-width="2" fill="none" stroke="rgb(0, 0, 0)" stroke-opacity="1.0" stroke-linecap="round" stroke-linejoin="round"/>
    <path d="M 147.025390625 123.33612060546875 C 105.34537506103516 119.13500213623047 220.60179138183594 115.45260620117188 108.05122375488281 114.58212280273438" stroke-width="2" fill="none" stroke="rgb(0, 0, 0)" stroke-opacity="1.0" stroke-linecap="round" stroke-linejoin="round"/>
    <path d="M 144.83924865722656 148.9309539794922 C 92.55548858642578 153.60272216796875 130.22427368164062 130.10116577148438 51.83085250854492 137.06283569335938" stroke-width="2" fill="none" stroke="rgb(0, 0, 0)" stroke-opacity="1.0" stroke-linecap="round" stroke-linejoin="round"/>
    <path d="M 178.9109344482422 66.194091796875 C 163.27716064453125 115.94459533691406 127.37353515625 91.56632232666016 182.08425903320312 62.980812072753906" stroke-width="2" fill="none" stroke="rgb(0, 0, 0)" stroke-opacity="1.0" stroke-linecap="round" stroke-linejoin="round"/>
    <path d="M 161.4727020263672 118.31320190429688 C 125.35044860839844 101.7140884399414 139.9039306640625 121.3444595336914 153.48236083984375 127.97872924804688" stroke-width="2" fill="none" stroke="rgb(0, 0, 0)" stroke-opacity="1.0" stroke-linecap="round" stroke-linejoin="round"/>
    <path d="M 58.83290481567383 112.39697265625 C 54.14733123779297 129.489501953125 11.012657165527344 143.2074737548828 109.82627868652344 147.5316925048828" stroke-width="2" fill="none" stroke="rgb(0, 0, 0)" stroke-opacity="1.0" stroke-linecap="round" stroke-linejoin="round"/>
    <path d="M 114.22300720214844 104.7553482055664 C 110.15230560302734 96.81429290771484 123.42835235595703 118.9360580444336 111.42127227783203 75.91526794433594" stroke-width="2" fill="none" stroke="rgb(0, 0, 0)" stroke-opacity="1.0" stroke-linecap="round" stroke-linejoin="round"/>
    <path d="M 185.26806640625 59.67460632324219 C 186.69845581054688 99.70509338378906 128.1783447265625 148.27455139160156 163.44288635253906 121.67591094970703" stroke-width="2" fill="none" stroke="rgb(0, 0, 0)" stroke-opacity="1.0" stroke-linecap="round" stroke-linejoin="round"/>
    <path d="M 115.44351959228516 65.59963989257812 C 85.64197540283203 52.52799987792969 89.19558715820312 155.094482421875 99.92701721191406 113.27900695800781" stroke-width="2" fill="none" stroke="rgb(0, 0, 0)" stroke-opacity="1.0" stroke-linecap="round" stroke-linejoin="round"/>
    <path d="M 48.49637985229492 140.54066467285156 C 44.32575988769531 76.85224151611328 85.30567169189453 93.26222229003906 94.66692352294922 86.45684051513672" stroke-width="2" fill="none" stroke="rgb(0, 0, 0)" stroke-opacity="1.0" stroke-linecap="round" stroke-linejoin="round"/>
  </g>
</svg>
