<?xml version="1.0" ?>
<svg xmlns="http://www.w3.org/2000/svg" version="1.1" width="224" height="224">
  <defs/>
  <g>
    <path d="M 87.13826751708984 107.66425323486328 C 160.4443359375 117.6904067993164 -3.070711374282837 136.7029266357422 120.55943298339844 133.0531005859375" stroke-width="2" fill="none" stroke="rgb(0, 0, 0)" stroke-opacity="1.0" stroke-linecap="round" stroke-linejoin="round"/>
    <path d="M 107.62930297851562 111.03709411621094 C 38.287479400634766 136.86033630371094 166.08006286621094 134.04750061035156 88.85884857177734 142.33120727539062" stroke-width="2" fill="none" stroke="rgb(0, 0, 0)" stroke-opacity="1.0" stroke-linecap="round" stroke-linejoin="round"/>
    <path d="M 113.84101104736328 133.1407470703125 C 33.41694259643555 151.87356567382812 64.49726104736328 100.75758361816406 139.55419921875 147.2657012939453" stroke-width="2" fill="none" stroke="rgb(0, 0, 0)" stroke-opacity="1.0" stroke-linecap="round" stroke-linejoin="round"/>
    <path d="M 47.36714553833008 145.27059936523438 C 251.16819763183594 207.62564086914062 155.14578247070312 109.65155029296875 150.9158172607422 106.93113708496094" stroke-width="2" fill="none" stroke="rgb(0, 0, 0)" stroke-opacity="1.0" stroke-linecap="round" stroke-linejoin="round"/>
    <path d="M 142.94125366210938 121.9038314819336 C 103.10347747802734 107.18104553222656 180.07049560546875 146.05496215820312 145.15313720703125 117.0457992553711" stroke-width="2" fill="none" stroke="rgb(0, 0, 0)" stroke-opacity="1.0" stroke-linecap="round" stroke-linejoin="round"/>
    <path d="M 120.4156265258789 134.75819396972656 C 175.7233428955078 132.25294494628906 5.294654369354248 98.76045227050781 137.7194366455078 130.74517822265625" stroke-width="2" fill="none" stroke="rgb(0, 0, 0)" stroke-opacity="1.0" stroke-linecap="round" stroke-linejoin="round"/>
    <path d="M 96.7697982788086 94.36553192138672 C 4.594369411468506 94.4134521484375 89.75746154785156 185.88418579101562 35.528167724609375 136.06861877441406" stroke-width="2" fill="none" stroke="rgb(0, 0, 0)" stroke-opacity="1.0" stroke-linecap="round" stroke-linejoin="round"/>
    <path d="M 169.0127716064453 112.5995101928711 C 208.46267700195312 -12.659584999084473 120.2225570678711 135.36293029785156 170.02931213378906 90.39640808105469" stroke-width="2" fill="none" stroke="rgb(0, 0, 0)" stroke-opacity="1.0" stroke-linecap="round" stroke-linejoin="round"/>
    <path d="M 145.94418334960938 164.75289916992188 C 42.88935470581055 175.0570526123047 31.31938362121582 112.08562469482422 131.80538940429688 129.38446044921875" stroke-width="2" fill="none" stroke="rgb(0, 0, 0)" stroke-opacity="1.0" stroke-linecap="round" stroke-linejoin="round"/>
    <path d="M 165.32791137695312 78.97024536132812 C 110.0055923461914 99.85939025878906 120.33293914794922 61.18311309814453 102.9293212890625 67.50022888183594" stroke-width="2" fill="none" stroke="rgb(0, 0, 0)" stroke-opacity="1.0" stroke-linecap="round" stroke-linejoin="round"/>
    <path d="M 99.97394561767578 157.65158081054688 C 15.930424690246582 145.13491821289062 102.55803680419922 152.51779174804688 156.2252655029297 154.49290466308594" stroke-width="2" fill="none" stroke="rgb(0, 0, 0)" stroke-opacity="1.0" stroke-linecap="round" stroke-linejoin="round"/>
    <path d="M 98.52136993408203 109.43785858154297 C 96.881103515625 16.902568817138672 109.33731842041016 126.73033905029297 122.50316619873047 136.49708557128906" stroke-width="2" fill="none" stroke="rgb(0, 0, 0)" stroke-opacity="1.0" stroke-linecap="round" stroke-linejoin="round"/>
    <path d="M 75.12674713134766 132.37863159179688 C 148.8763885498047 144.63912963867188 158.7366485595703 133.85708618164062 111.40100860595703 148.3408203125" stroke-width="2" fill="none" stroke="rgb(0, 0, 0)" stroke-opacity="1.0" stroke-linecap="round" stroke-linejoin="round"/>
    <path d="M 161.2994384765625 142.89768981933594 C 142.3878936767578 156.1576690673828 193.7781219482422 106.71684265136719 180.36849975585938 58.955657958984375" stroke-width="2" fill="none" stroke="rgb(0, 0, 0)" stroke-opacity="1.0" stroke-linecap="round" stroke-linejoin="round"/>
    <path d="M 76.94290161132812 124.23397064208984 C 148.51646423339844 111.66165161132812 172.847412109375 135.58619689941406 139.99642944335938 121.87297058105469" stroke-width="2" fill="none" stroke="rgb(0, 0, 0)" stroke-opacity="1.0" stroke-linecap="round" stroke-linejoin="round"/>
    <path d="M 67.10750579833984 113.4239730834961 C 51.150299072265625 162.28895568847656 105.96875762939453 106.44805145263672 114.9921875 95.18704223632812" stroke-width="2" fill="none" stroke="rgb(0, 0, 0)" stroke-opacity="1.0" stroke-linecap="round" stroke-linejoin="round"/>
  </g>
</svg>
