<?xml version="1.0" ?>
<svg xmlns="http://www.w3.org/2000/svg" version="1.1" width="224" height="224">
  <defs/>
  <g>
    <path d="M 82.93659210205078 112.03363800048828 C 146.1345977783203 109.70164489746094 -20.588838577270508 137.41641235351562 136.54336547851562 138.21450805664062" stroke-width="2" fill="none" stroke="rgb(0, 0, 0)" stroke-opacity="1.0" stroke-linecap="round" stroke-linejoin="round"/>
    <path d="M 117.29712677001953 123.00540924072266 C 60.36247634887695 143.6571502685547 208.7974090576172 127.92832946777344 94.62879943847656 121.57011413574219" stroke-width="2" fill="none" stroke="rgb(0, 0, 0)" stroke-opacity="1.0" stroke-linecap="round" stroke-linejoin="round"/>
    <path d="M 135.53627014160156 142.77850341796875 C 54.08266830444336 130.92066955566406 69.03336334228516 118.89826202392578 147.67361450195312 143.4724884033203" stroke-width="2" fill="none" stroke="rgb(0, 0, 0)" stroke-opacity="1.0" stroke-linecap="round" stroke-linejoin="round"/>
    <path d="M 53.812530517578125 140.76699829101562 C 236.284912109375 213.95217895507812 170.56512451171875 59.486934661865234 129.69107055664062 99.35733795166016" stroke-width="2" fill="none" stroke="rgb(0, 0, 0)" stroke-opacity="1.0" stroke-linecap="round" stroke-linejoin="round"/>
    <path d="M 161.05438232421875 128.8599853515625 C 133.93734741210938 123.16619110107422 171.38864135742188 157.64678955078125 169.15603637695312 92.90483856201172" stroke-width="2" fill="none" stroke="rgb(0, 0, 0)" stroke-opacity="1.0" stroke-linecap="round" stroke-linejoin="round"/>
    <path d="M 120.77183532714844 121.55000305175781 C 180.02137756347656 153.72752380371094 8.225081443786621 101.59779357910156 137.12098693847656 122.2068862915039" stroke-width="2" fill="none" stroke="rgb(0, 0, 0)" stroke-opacity="1.0" stroke-linecap="round" stroke-linejoin="round"/>
    <path d="M 94.93013763427734 99.43023681640625 C 1.5584313869476318 91.3653335571289 69.90740203857422 174.25453186035156 44.816097259521484 119.10671997070312" stroke-width="2" fill="none" stroke="rgb(0, 0, 0)" stroke-opacity="1.0" stroke-linecap="round" stroke-linejoin="round"/>
    <path d="M 171.04986572265625 106.35025024414062 C 214.8304443359375 -18.611175537109375 128.27024841308594 153.02011108398438 165.30259704589844 80.6747817993164" stroke-width="2" fill="none" stroke="rgb(0, 0, 0)" stroke-opacity="1.0" stroke-linecap="round" stroke-linejoin="round"/>
    <path d="M 147.2189178466797 144.93862915039062 C 24.37302589416504 158.5750274658203 -0.08787514269351959 118.97855377197266 110.55612182617188 153.72608947753906" stroke-width="2" fill="none" stroke="rgb(0, 0, 0)" stroke-opacity="1.0" stroke-linecap="round" stroke-linejoin="round"/>
    <path d="M 160.31668090820312 80.43836212158203 C 122.21922302246094 88.79637908935547 128.00331115722656 64.77123260498047 108.02494812011719 63.26728057861328" stroke-width="2" fill="none" stroke="rgb(0, 0, 0)" stroke-opacity="1.0" stroke-linecap="round" stroke-linejoin="round"/>
    <path d="M 96.41403198242188 144.91009521484375 C 11.711949348449707 140.12481689453125 108.78218841552734 161.38919067382812 166.2714385986328 150.26837158203125" stroke-width="2" fill="none" stroke="rgb(0, 0, 0)" stroke-opacity="1.0" stroke-linecap="round" stroke-linejoin="round"/>
    <path d="M 81.11863708496094 98.16120147705078 C 109.05330657958984 8.665947914123535 98.7530517578125 123.41121673583984 119.09017944335938 117.71564483642578" stroke-width="2" fill="none" stroke="rgb(0, 0, 0)" stroke-opacity="1.0" stroke-linecap="round" stroke-linejoin="round"/>
    <path d="M 64.1309585571289 140.66151428222656 C 164.2045440673828 145.35841369628906 192.60498046875 163.68016052246094 127.61956787109375 153.4136505126953" stroke-width="2" fill="none" stroke="rgb(0, 0, 0)" stroke-opacity="1.0" stroke-linecap="round" stroke-linejoin="round"/>
    <path d="M 164.68661499023438 149.73312377929688 C 151.75198364257812 135.36843872070312 200.91470336914062 116.98503875732422 183.30648803710938 60.99811935424805" stroke-width="2" fill="none" stroke="rgb(0, 0, 0)" stroke-opacity="1.0" stroke-linecap="round" stroke-linejoin="round"/>
    <path d="M 86.23831939697266 132.00047302246094 C 171.11514282226562 97.98310852050781 173.95120239257812 130.61793518066406 142.63284301757812 118.16279602050781" stroke-width="2" fill="none" stroke="rgb(0, 0, 0)" stroke-opacity="1.0" stroke-linecap="round" stroke-linejoin="round"/>
    <path d="M 38.67485046386719 111.51758575439453 C 13.948587417602539 172.63392639160156 147.3818817138672 137.6743927001953 105.07439422607422 82.08245086669922" stroke-width="2" fill="none" stroke="rgb(0, 0, 0)" stroke-opacity="1.0" stroke-linecap="round" stroke-linejoin="round"/>
  </g>
</svg>
