<?xml version="1.0" ?>
<svg xmlns="http://www.w3.org/2000/svg" version="1.1" width="224" height="224">
  <defs/>
  <g>
    <path d="M 104.50171661376953 125.72940826416016 C 248.05386352539062 161.28094482421875 100.39897918701172 135.5167999267578 127.13705444335938 140.83309936523438" stroke-width="2" fill="none" stroke="rgb(0, 0, 0)" stroke-opacity="1.0" stroke-linecap="round" stroke-linejoin="round"/>
    <path d="M 159.9262237548828 142.56210327148438 C 43.682464599609375 118.6323471069336 218.37869262695312 128.00404357910156 120.70467376708984 126.7752914428711" stroke-width="2" fill="none" stroke="rgb(0, 0, 0)" stroke-opacity="1.0" stroke-linecap="round" stroke-linejoin="round"/>
    <path d="M 121.15943145751953 84.3311767578125 C 143.4542236328125 146.28060913085938 111.25052642822266 85.39091491699219 154.17373657226562 122.3568344116211" stroke-width="2" fill="none" stroke="rgb(0, 0, 0)" stroke-opacity="1.0" stroke-linecap="round" stroke-linejoin="round"/>
    <path d="M 76.16102600097656 135.07545471191406 C 229.3507080078125 210.75746154785156 174.125244140625 68.64733123779297 129.65431213378906 89.64706420898438" stroke-width="2" fill="none" stroke="rgb(0, 0, 0)" stroke-opacity="1.0" stroke-linecap="round" stroke-linejoin="round"/>
    <path d="M 157.6245880126953 116.41401672363281 C 112.13658905029297 105.28025817871094 199.5959930419922 107.42576599121094 144.48243713378906 115.63196563720703" stroke-width="2" fill="none" stroke="rgb(0, 0, 0)" stroke-opacity="1.0" stroke-linecap="round" stroke-linejoin="round"/>
    <path d="M 118.62639617919922 135.91009521484375 C 166.21983337402344 120.51103210449219 74.4166488647461 110.97987365722656 175.39134216308594 147.98899841308594" stroke-width="2" fill="none" stroke="rgb(0, 0, 0)" stroke-opacity="1.0" stroke-linecap="round" stroke-linejoin="round"/>
    <path d="M 50.54893112182617 108.81788635253906 C 3.689133405685425 164.11737060546875 168.02085876464844 156.15762329101562 101.66984558105469 157.19491577148438" stroke-width="2" fill="none" stroke="rgb(0, 0, 0)" stroke-opacity="1.0" stroke-linecap="round" stroke-linejoin="round"/>
    <path d="M 161.15968322753906 93.60535430908203 C 192.1617431640625 -6.387819766998291 133.80125427246094 116.97564697265625 153.60035705566406 72.50904083251953" stroke-width="2" fill="none" stroke="rgb(0, 0, 0)" stroke-opacity="1.0" stroke-linecap="round" stroke-linejoin="round"/>
    <path d="M 149.9989013671875 126.91119384765625 C 117.7590103149414 147.144287109375 102.11689758300781 114.7780990600586 156.5258331298828 130.61590576171875" stroke-width="2" fill="none" stroke="rgb(0, 0, 0)" stroke-opacity="1.0" stroke-linecap="round" stroke-linejoin="round"/>
    <path d="M 164.55337524414062 68.22366333007812 C 115.25457000732422 110.40879821777344 116.42134094238281 64.31676483154297 101.63078308105469 68.52928161621094" stroke-width="2" fill="none" stroke="rgb(0, 0, 0)" stroke-opacity="1.0" stroke-linecap="round" stroke-linejoin="round"/>
    <path d="M 101.50863647460938 128.26004028320312 C 121.73062133789062 158.6570587158203 183.20335388183594 147.60067749023438 162.64488220214844 130.98974609375" stroke-width="2" fill="none" stroke="rgb(0, 0, 0)" stroke-opacity="1.0" stroke-linecap="round" stroke-linejoin="round"/>
    <path d="M 97.00439453125 106.6696548461914 C 95.19839477539062 22.921607971191406 117.7063980102539 124.93634796142578 106.68399047851562 107.431884765625" stroke-width="2" fill="none" stroke="rgb(0, 0, 0)" stroke-opacity="1.0" stroke-linecap="round" stroke-linejoin="round"/>
    <path d="M 43.99912643432617 152.21925354003906 C 160.44781494140625 176.9973907470703 163.03213500976562 149.94149780273438 90.26659393310547 145.875" stroke-width="2" fill="none" stroke="rgb(0, 0, 0)" stroke-opacity="1.0" stroke-linecap="round" stroke-linejoin="round"/>
    <path d="M 165.14430236816406 145.22206115722656 C 161.4658660888672 108.87320709228516 183.82936096191406 104.66156768798828 171.70877075195312 55.46569061279297" stroke-width="2" fill="none" stroke="rgb(0, 0, 0)" stroke-opacity="1.0" stroke-linecap="round" stroke-linejoin="round"/>
    <path d="M 117.0169677734375 133.97906494140625 C 187.73631286621094 155.73316955566406 160.93006896972656 143.2089080810547 129.87725830078125 135.4967041015625" stroke-width="2" fill="none" stroke="rgb(0, 0, 0)" stroke-opacity="1.0" stroke-linecap="round" stroke-linejoin="round"/>
    <path d="M 49.39838409423828 107.60619354248047 C 52.6265869140625 131.25238037109375 42.79801559448242 86.6015853881836 96.45327758789062 96.55068969726562" stroke-width="2" fill="none" stroke="rgb(0, 0, 0)" stroke-opacity="1.0" stroke-linecap="round" stroke-linejoin="round"/>
  </g>
</svg>
