<?xml version="1.0" ?>
<svg xmlns="http://www.w3.org/2000/svg" version="1.1" width="224" height="224">
  <defs/>
  <g>
    <path d="M 62.37754821777344 153.45947265625 C 157.32118225097656 173.3134307861328 25.524700164794922 131.50880432128906 38.236663818359375 130.37013244628906" stroke-width="2" fill="none" stroke="rgb(0, 0, 0)" stroke-opacity="1.0" stroke-linecap="round" stroke-linejoin="round"/>
    <path d="M 133.01022338867188 111.0370101928711 C 77.1158676147461 119.28962707519531 205.52279663085938 123.15846252441406 111.97643280029297 127.25896453857422" stroke-width="2" fill="none" stroke="rgb(0, 0, 0)" stroke-opacity="1.0" stroke-linecap="round" stroke-linejoin="round"/>
    <path d="M 156.07492065429688 142.18759155273438 C 205.23081970214844 120.99737548828125 104.20074462890625 96.23097229003906 133.3582763671875 106.66910552978516" stroke-width="2" fill="none" stroke="rgb(0, 0, 0)" stroke-opacity="1.0" stroke-linecap="round" stroke-linejoin="round"/>
    <path d="M 48.65446472167969 148.93093872070312 C 248.2120361328125 178.83282470703125 140.2136993408203 123.0346450805664 181.4730224609375 110.37986755371094" stroke-width="2" fill="none" stroke="rgb(0, 0, 0)" stroke-opacity="1.0" stroke-linecap="round" stroke-linejoin="round"/>
    <path d="M 183.6409149169922 57.117279052734375 C 174.64114379882812 56.9159049987793 157.00582885742188 124.7276840209961 107.7540512084961 58.56234359741211" stroke-width="2" fill="none" stroke="rgb(0, 0, 0)" stroke-opacity="1.0" stroke-linecap="round" stroke-linejoin="round"/>
    <path d="M 113.96271514892578 129.46092224121094 C 201.90869140625 159.30532836914062 28.377349853515625 120.9151840209961 159.15090942382812 127.32952117919922" stroke-width="2" fill="none" stroke="rgb(0, 0, 0)" stroke-opacity="1.0" stroke-linecap="round" stroke-linejoin="round"/>
    <path d="M 52.40293502807617 113.54443359375 C 0.4443392753601074 172.39369201660156 157.63504028320312 167.26254272460938 93.88963317871094 142.1851043701172" stroke-width="2" fill="none" stroke="rgb(0, 0, 0)" stroke-opacity="1.0" stroke-linecap="round" stroke-linejoin="round"/>
    <path d="M 161.0895233154297 122.99964141845703 C 139.42019653320312 108.92401885986328 178.05967712402344 145.4916229248047 151.693115234375 104.96449279785156" stroke-width="2" fill="none" stroke="rgb(0, 0, 0)" stroke-opacity="1.0" stroke-linecap="round" stroke-linejoin="round"/>
    <path d="M 115.70079803466797 128.5059051513672 C 169.23899841308594 127.59986114501953 86.72272491455078 115.81647491455078 133.5015869140625 115.1501693725586" stroke-width="2" fill="none" stroke="rgb(0, 0, 0)" stroke-opacity="1.0" stroke-linecap="round" stroke-linejoin="round"/>
    <path d="M 178.30873107910156 71.39691162109375 C 150.84365844726562 124.28729248046875 167.01296997070312 94.74674224853516 150.67962646484375 104.99043273925781" stroke-width="2" fill="none" stroke="rgb(0, 0, 0)" stroke-opacity="1.0" stroke-linecap="round" stroke-linejoin="round"/>
    <path d="M 159.49490356445312 118.64879608154297 C 102.00153350830078 121.63481140136719 132.76702880859375 132.02012634277344 155.63571166992188 119.37208557128906" stroke-width="2" fill="none" stroke="rgb(0, 0, 0)" stroke-opacity="1.0" stroke-linecap="round" stroke-linejoin="round"/>
    <path d="M 103.7147216796875 69.64429473876953 C 80.52632141113281 103.0618896484375 106.09901428222656 113.45323181152344 112.08738708496094 133.41162109375" stroke-width="2" fill="none" stroke="rgb(0, 0, 0)" stroke-opacity="1.0" stroke-linecap="round" stroke-linejoin="round"/>
    <path d="M 87.08729553222656 132.2367401123047 C 108.16435241699219 107.25167846679688 96.52306365966797 151.83294677734375 108.05426788330078 91.6583480834961" stroke-width="2" fill="none" stroke="rgb(0, 0, 0)" stroke-opacity="1.0" stroke-linecap="round" stroke-linejoin="round"/>
    <path d="M 185.52056884765625 59.10813522338867 C 182.17007446289062 161.1639862060547 115.65524291992188 153.87310791015625 164.22206115722656 162.34326171875" stroke-width="2" fill="none" stroke="rgb(0, 0, 0)" stroke-opacity="1.0" stroke-linecap="round" stroke-linejoin="round"/>
    <path d="M 111.96509552001953 116.17196655273438 C 86.16180419921875 67.40657806396484 127.76347351074219 138.7898712158203 90.08690643310547 123.07943725585938" stroke-width="2" fill="none" stroke="rgb(0, 0, 0)" stroke-opacity="1.0" stroke-linecap="round" stroke-linejoin="round"/>
    <path d="M 52.39935302734375 122.2593994140625 C 40.672786712646484 122.76959991455078 34.25750732421875 86.64505767822266 93.99752807617188 99.29743194580078" stroke-width="2" fill="none" stroke="rgb(0, 0, 0)" stroke-opacity="1.0" stroke-linecap="round" stroke-linejoin="round"/>
  </g>
</svg>
