<?xml version="1.0" ?>
<svg xmlns="http://www.w3.org/2000/svg" version="1.1" width="224" height="224">
  <defs/>
  <g>
    <path d="M 72.31243896484375 118.9659194946289 C 92.45477294921875 136.1483917236328 68.96985626220703 106.63278198242188 56.22584533691406 116.76622772216797" stroke-width="2" fill="none" stroke="rgb(0, 0, 0)" stroke-opacity="1.0" stroke-linecap="round" stroke-linejoin="round"/>
    <path d="M 106.5536117553711 143.34213256835938 C 52.5721321105957 113.62931060791016 178.60084533691406 122.22005462646484 127.39888000488281 108.8233871459961" stroke-width="2" fill="none" stroke="rgb(0, 0, 0)" stroke-opacity="1.0" stroke-linecap="round" stroke-linejoin="round"/>
    <path d="M 149.1971893310547 127.90047454833984 C 196.5720672607422 129.75730895996094 79.42818450927734 155.26219177246094 90.84657287597656 109.31267547607422" stroke-width="2" fill="none" stroke="rgb(0, 0, 0)" stroke-opacity="1.0" stroke-linecap="round" stroke-linejoin="round"/>
    <path d="M 73.56681060791016 135.62562561035156 C 212.6652374267578 171.53530883789062 153.64163208007812 145.69229125976562 169.9846649169922 108.67024993896484" stroke-width="2" fill="none" stroke="rgb(0, 0, 0)" stroke-opacity="1.0" stroke-linecap="round" stroke-linejoin="round"/>
    <path d="M 183.31748962402344 64.4642562866211 C 175.8357696533203 54.55431365966797 164.1161651611328 85.0096435546875 150.60443115234375 81.89976501464844" stroke-width="2" fill="none" stroke="rgb(0, 0, 0)" stroke-opacity="1.0" stroke-linecap="round" stroke-linejoin="round"/>
    <path d="M 117.3877182006836 111.35357666015625 C 234.7451171875 118.54911804199219 32.254512786865234 112.60299682617188 144.76202392578125 120.97949981689453" stroke-width="2" fill="none" stroke="rgb(0, 0, 0)" stroke-opacity="1.0" stroke-linecap="round" stroke-linejoin="round"/>
    <path d="M 46.93661880493164 105.10514831542969 C -8.629907608032227 154.95333862304688 102.4015884399414 146.92486572265625 146.34927368164062 149.48776245117188" stroke-width="2" fill="none" stroke="rgb(0, 0, 0)" stroke-opacity="1.0" stroke-linecap="round" stroke-linejoin="round"/>
    <path d="M 147.23826599121094 120.89193725585938 C 41.33985137939453 129.44708251953125 183.8135528564453 95.49575805664062 103.64075469970703 110.6138916015625" stroke-width="2" fill="none" stroke="rgb(0, 0, 0)" stroke-opacity="1.0" stroke-linecap="round" stroke-linejoin="round"/>
    <path d="M 106.29131317138672 106.3540267944336 C 131.97219848632812 141.86810302734375 165.93258666992188 117.18601989746094 105.9770736694336 119.56562805175781" stroke-width="2" fill="none" stroke="rgb(0, 0, 0)" stroke-opacity="1.0" stroke-linecap="round" stroke-linejoin="round"/>
    <path d="M 183.76219177246094 65.65467071533203 C 156.40989685058594 143.80979919433594 145.0824737548828 67.10828399658203 162.0091552734375 114.09785461425781" stroke-width="2" fill="none" stroke="rgb(0, 0, 0)" stroke-opacity="1.0" stroke-linecap="round" stroke-linejoin="round"/>
    <path d="M 152.741455078125 141.53219604492188 C 39.43480682373047 144.23580932617188 82.9903564453125 147.2602081298828 90.75476837158203 147.06265258789062" stroke-width="2" fill="none" stroke="rgb(0, 0, 0)" stroke-opacity="1.0" stroke-linecap="round" stroke-linejoin="round"/>
    <path d="M 96.55184173583984 95.46971893310547 C 25.824182510375977 92.16075897216797 61.099857330322266 112.22261047363281 34.71329879760742 117.6220474243164" stroke-width="2" fill="none" stroke="rgb(0, 0, 0)" stroke-opacity="1.0" stroke-linecap="round" stroke-linejoin="round"/>
    <path d="M 154.7662353515625 91.25239562988281 C 117.08755493164062 66.54069519042969 139.663818359375 103.53439331054688 106.38660430908203 64.62582397460938" stroke-width="2" fill="none" stroke="rgb(0, 0, 0)" stroke-opacity="1.0" stroke-linecap="round" stroke-linejoin="round"/>
    <path d="M 184.18826293945312 62.665382385253906 C 170.36817932128906 181.79188537597656 106.02973937988281 124.88932800292969 150.3129425048828 140.69532775878906" stroke-width="2" fill="none" stroke="rgb(0, 0, 0)" stroke-opacity="1.0" stroke-linecap="round" stroke-linejoin="round"/>
    <path d="M 114.3093490600586 100.18417358398438 C 91.02783966064453 14.217061996459961 94.15023803710938 126.85108184814453 98.12613677978516 97.10424041748047" stroke-width="2" fill="none" stroke="rgb(0, 0, 0)" stroke-opacity="1.0" stroke-linecap="round" stroke-linejoin="round"/>
    <path d="M 43.56671905517578 116.725341796875 C 51.754852294921875 118.83126068115234 35.23851776123047 118.6865234375 46.06500244140625 113.15242767333984" stroke-width="2" fill="none" stroke="rgb(0, 0, 0)" stroke-opacity="1.0" stroke-linecap="round" stroke-linejoin="round"/>
  </g>
</svg>
