<?xml version="1.0" ?>
<svg xmlns="http://www.w3.org/2000/svg" version="1.1" width="224" height="224">
  <defs/>
  <g>
    <path d="M 40.66584014892578 149.7338104248047 C 137.8831024169922 165.68280029296875 73.87358093261719 165.09933471679688 69.61397552490234 136.9290771484375" stroke-width="2" fill="none" stroke="rgb(0, 0, 0)" stroke-opacity="1.0" stroke-linecap="round" stroke-linejoin="round"/>
    <path d="M 117.73991394042969 123.21683502197266 C 70.0866470336914 98.69135284423828 177.56777954101562 114.78701782226562 125.5094223022461 110.74031829833984" stroke-width="2" fill="none" stroke="rgb(0, 0, 0)" stroke-opacity="1.0" stroke-linecap="round" stroke-linejoin="round"/>
    <path d="M 98.36031341552734 140.68272399902344 C 147.83721923828125 121.5556411743164 33.37006759643555 150.25466918945312 152.73324584960938 148.20433044433594" stroke-width="2" fill="none" stroke="rgb(0, 0, 0)" stroke-opacity="1.0" stroke-linecap="round" stroke-linejoin="round"/>
    <path d="M 112.88027954101562 152.08587646484375 C 231.92417907714844 184.12867736816406 144.66578674316406 111.40118408203125 139.45347595214844 138.11572265625" stroke-width="2" fill="none" stroke="rgb(0, 0, 0)" stroke-opacity="1.0" stroke-linecap="round" stroke-linejoin="round"/>
    <path d="M 187.33201599121094 60.836299896240234 C 163.74998474121094 54.761802673339844 157.30130004882812 121.22798919677734 117.6449966430664 71.96891784667969" stroke-width="2" fill="none" stroke="rgb(0, 0, 0)" stroke-opacity="1.0" stroke-linecap="round" stroke-linejoin="round"/>
    <path d="M 131.405517578125 142.75279235839844 C 200.0628662109375 133.22076416015625 43.17940139770508 138.18833923339844 133.24954223632812 120.5952377319336" stroke-width="2" fill="none" stroke="rgb(0, 0, 0)" stroke-opacity="1.0" stroke-linecap="round" stroke-linejoin="round"/>
    <path d="M 50.951942443847656 116.58478546142578 C -11.631768226623535 176.40611267089844 205.0144500732422 185.30433654785156 161.8527374267578 147.49307250976562" stroke-width="2" fill="none" stroke="rgb(0, 0, 0)" stroke-opacity="1.0" stroke-linecap="round" stroke-linejoin="round"/>
    <path d="M 162.44607543945312 138.05850219726562 C 192.02647399902344 34.94507598876953 154.38766479492188 116.16802978515625 177.6082000732422 77.88819122314453" stroke-width="2" fill="none" stroke="rgb(0, 0, 0)" stroke-opacity="1.0" stroke-linecap="round" stroke-linejoin="round"/>
    <path d="M 129.61715698242188 131.34573364257812 C 164.4921417236328 117.49067687988281 43.503597259521484 132.0173797607422 117.76410675048828 130.66505432128906" stroke-width="2" fill="none" stroke="rgb(0, 0, 0)" stroke-opacity="1.0" stroke-linecap="round" stroke-linejoin="round"/>
    <path d="M 185.01687622070312 58.700286865234375 C 152.58396911621094 146.06689453125 118.88232421875 84.38826751708984 101.34747314453125 66.6281509399414" stroke-width="2" fill="none" stroke="rgb(0, 0, 0)" stroke-opacity="1.0" stroke-linecap="round" stroke-linejoin="round"/>
    <path d="M 150.62417602539062 119.94342803955078 C 175.59765625 139.94998168945312 172.34207153320312 145.8694305419922 111.0227279663086 131.2951202392578" stroke-width="2" fill="none" stroke="rgb(0, 0, 0)" stroke-opacity="1.0" stroke-linecap="round" stroke-linejoin="round"/>
    <path d="M 119.89030456542969 103.4331283569336 C 88.02427673339844 10.642413139343262 100.62948608398438 107.73470306396484 98.49215698242188 77.45716857910156" stroke-width="2" fill="none" stroke="rgb(0, 0, 0)" stroke-opacity="1.0" stroke-linecap="round" stroke-linejoin="round"/>
    <path d="M 94.84913635253906 129.22972106933594 C 101.10645294189453 154.52589416503906 136.9890899658203 115.55726623535156 93.93284606933594 123.48747253417969" stroke-width="2" fill="none" stroke="rgb(0, 0, 0)" stroke-opacity="1.0" stroke-linecap="round" stroke-linejoin="round"/>
    <path d="M 187.2475128173828 61.792381286621094 C 175.78892517089844 157.28826904296875 142.3910369873047 64.7688980102539 174.87435913085938 115.29969787597656" stroke-width="2" fill="none" stroke="rgb(0, 0, 0)" stroke-opacity="1.0" stroke-linecap="round" stroke-linejoin="round"/>
    <path d="M 87.64391326904297 147.28036499023438 C 109.3654556274414 76.64828491210938 75.8509750366211 160.13165283203125 97.14453125 92.80797576904297" stroke-width="2" fill="none" stroke="rgb(0, 0, 0)" stroke-opacity="1.0" stroke-linecap="round" stroke-linejoin="round"/>
    <path d="M 48.831092834472656 122.53802490234375 C 49.38106155395508 126.19940948486328 49.60273361206055 89.39900207519531 92.93624877929688 104.07576751708984" stroke-width="2" fill="none" stroke="rgb(0, 0, 0)" stroke-opacity="1.0" stroke-linecap="round" stroke-linejoin="round"/>
  </g>
</svg>
