<?xml version="1.0" ?>
<svg xmlns="http://www.w3.org/2000/svg" version="1.1" width="224" height="224">
  <defs/>
  <g>
    <path d="M 90.53713989257812 137.018798828125 C 88.9874267578125 165.52365112304688 28.596275329589844 147.4046173095703 48.50233459472656 123.41565704345703" stroke-width="2" fill="none" stroke="rgb(0, 0, 0)" stroke-opacity="1.0" stroke-linecap="round" stroke-linejoin="round"/>
    <path d="M 150.51600646972656 122.1611557006836 C 49.88666915893555 133.04083251953125 213.0995330810547 153.7333221435547 140.8646697998047 140.32720947265625" stroke-width="2" fill="none" stroke="rgb(0, 0, 0)" stroke-opacity="1.0" stroke-linecap="round" stroke-linejoin="round"/>
    <path d="M 120.18111419677734 115.41292572021484 C 200.7010040283203 113.5450439453125 83.52812194824219 114.7513656616211 153.3924102783203 121.53728485107422" stroke-width="2" fill="none" stroke="rgb(0, 0, 0)" stroke-opacity="1.0" stroke-linecap="round" stroke-linejoin="round"/>
    <path d="M 81.4103775024414 138.15316772460938 C 225.85902404785156 201.95358276367188 148.27203369140625 105.59663391113281 173.15016174316406 81.87715911865234" stroke-width="2" fill="none" stroke="rgb(0, 0, 0)" stroke-opacity="1.0" stroke-linecap="round" stroke-linejoin="round"/>
    <path d="M 192.9422149658203 50.826080322265625 C 179.5514678955078 25.25826072692871 141.2026824951172 97.72588348388672 114.28970336914062 52.08496856689453" stroke-width="2" fill="none" stroke="rgb(0, 0, 0)" stroke-opacity="1.0" stroke-linecap="round" stroke-linejoin="round"/>
    <path d="M 119.86849975585938 119.88211059570312 C 218.01126098632812 121.81900024414062 104.11793518066406 99.0359878540039 165.6978302001953 111.81544494628906" stroke-width="2" fill="none" stroke="rgb(0, 0, 0)" stroke-opacity="1.0" stroke-linecap="round" stroke-linejoin="round"/>
    <path d="M 54.145782470703125 91.28610229492188 C -14.342201232910156 166.36868286132812 179.35531616210938 146.79415893554688 152.40304565429688 153.78250122070312" stroke-width="2" fill="none" stroke="rgb(0, 0, 0)" stroke-opacity="1.0" stroke-linecap="round" stroke-linejoin="round"/>
    <path d="M 171.93817138671875 105.37813568115234 C 144.88014221191406 70.15811920166016 172.17127990722656 121.43748474121094 185.95660400390625 78.91832733154297" stroke-width="2" fill="none" stroke="rgb(0, 0, 0)" stroke-opacity="1.0" stroke-linecap="round" stroke-linejoin="round"/>
    <path d="M 129.5340118408203 107.08053588867188 C 166.5550079345703 124.59951782226562 86.52067565917969 123.61781311035156 153.8787078857422 126.53857421875" stroke-width="2" fill="none" stroke="rgb(0, 0, 0)" stroke-opacity="1.0" stroke-linecap="round" stroke-linejoin="round"/>
    <path d="M 188.32464599609375 56.815185546875 C 167.977783203125 107.30070495605469 162.43663024902344 79.80225372314453 143.95774841308594 81.39196014404297" stroke-width="2" fill="none" stroke="rgb(0, 0, 0)" stroke-opacity="1.0" stroke-linecap="round" stroke-linejoin="round"/>
    <path d="M 155.6270751953125 111.4542465209961 C 107.73377227783203 125.93185424804688 199.98916625976562 130.17645263671875 123.31391906738281 121.13642883300781" stroke-width="2" fill="none" stroke="rgb(0, 0, 0)" stroke-opacity="1.0" stroke-linecap="round" stroke-linejoin="round"/>
    <path d="M 120.53720092773438 80.70287322998047 C 74.9696044921875 9.201725959777832 113.98097229003906 124.11921691894531 104.62726593017578 99.88720703125" stroke-width="2" fill="none" stroke="rgb(0, 0, 0)" stroke-opacity="1.0" stroke-linecap="round" stroke-linejoin="round"/>
    <path d="M 124.43307495117188 113.88842010498047 C 184.58718872070312 118.78959655761719 200.22410583496094 146.6956787109375 96.8966064453125 136.92486572265625" stroke-width="2" fill="none" stroke="rgb(0, 0, 0)" stroke-opacity="1.0" stroke-linecap="round" stroke-linejoin="round"/>
    <path d="M 192.0332794189453 49.546630859375 C 175.68063354492188 164.84400939941406 79.62589263916016 126.8491439819336 120.8222427368164 113.62918090820312" stroke-width="2" fill="none" stroke="rgb(0, 0, 0)" stroke-opacity="1.0" stroke-linecap="round" stroke-linejoin="round"/>
    <path d="M 119.72840118408203 134.48733520507812 C 106.61547088623047 80.17030334472656 109.01081848144531 143.88487243652344 121.89533996582031 89.97945404052734" stroke-width="2" fill="none" stroke="rgb(0, 0, 0)" stroke-opacity="1.0" stroke-linecap="round" stroke-linejoin="round"/>
    <path d="M 85.81110382080078 100.11052703857422 C 33.26179122924805 105.6976089477539 52.09674835205078 77.3764419555664 94.76324462890625 83.24002838134766" stroke-width="2" fill="none" stroke="rgb(0, 0, 0)" stroke-opacity="1.0" stroke-linecap="round" stroke-linejoin="round"/>
  </g>
</svg>
