<?xml version="1.0" ?>
<svg xmlns="http://www.w3.org/2000/svg" version="1.1" width="224" height="224">
  <defs/>
  <g>
    <path d="M 92.97020721435547 131.94041442871094 C 195.5451202392578 171.89260864257812 117.61215209960938 127.71168518066406 151.48899841308594 140.4606170654297" stroke-width="2" fill="none" stroke="rgb(0, 0, 0)" stroke-opacity="1.0" stroke-linecap="round" stroke-linejoin="round"/>
    <path d="M 155.81813049316406 149.61431884765625 C 104.20345306396484 135.50596618652344 235.47647094726562 140.2731475830078 106.24742889404297 133.13839721679688" stroke-width="2" fill="none" stroke="rgb(0, 0, 0)" stroke-opacity="1.0" stroke-linecap="round" stroke-linejoin="round"/>
    <path d="M 98.38446807861328 118.08192443847656 C 152.1540985107422 138.71511840820312 57.52022171020508 114.64208221435547 142.33108520507812 126.50435638427734" stroke-width="2" fill="none" stroke="rgb(0, 0, 0)" stroke-opacity="1.0" stroke-linecap="round" stroke-linejoin="round"/>
    <path d="M 56.41832733154297 152.05288696289062 C 215.21543884277344 198.4167022705078 166.4495849609375 124.91094970703125 174.22714233398438 115.65144348144531" stroke-width="2" fill="none" stroke="rgb(0, 0, 0)" stroke-opacity="1.0" stroke-linecap="round" stroke-linejoin="round"/>
    <path d="M 185.1790771484375 93.58892822265625 C 149.40304565429688 125.98553466796875 177.59230041503906 89.11781311035156 122.2648696899414 97.67779541015625" stroke-width="2" fill="none" stroke="rgb(0, 0, 0)" stroke-opacity="1.0" stroke-linecap="round" stroke-linejoin="round"/>
    <path d="M 185.3682098388672 148.8248291015625 C 195.576904296875 185.61773681640625 86.05953979492188 104.74971771240234 140.6973876953125 124.37858581542969" stroke-width="2" fill="none" stroke="rgb(0, 0, 0)" stroke-opacity="1.0" stroke-linecap="round" stroke-linejoin="round"/>
    <path d="M 47.724117279052734 107.3085708618164 C -13.060014724731445 174.11880493164062 161.6725616455078 155.38873291015625 89.26097106933594 142.99551391601562" stroke-width="2" fill="none" stroke="rgb(0, 0, 0)" stroke-opacity="1.0" stroke-linecap="round" stroke-linejoin="round"/>
    <path d="M 174.3781280517578 150.3446807861328 C 214.70965576171875 -26.604915618896484 142.5717010498047 113.65245056152344 155.82598876953125 94.59327697753906" stroke-width="2" fill="none" stroke="rgb(0, 0, 0)" stroke-opacity="1.0" stroke-linecap="round" stroke-linejoin="round"/>
    <path d="M 109.69564056396484 103.8835678100586 C 108.96249389648438 155.4202880859375 104.16638946533203 97.7039794921875 139.99252319335938 118.92121887207031" stroke-width="2" fill="none" stroke="rgb(0, 0, 0)" stroke-opacity="1.0" stroke-linecap="round" stroke-linejoin="round"/>
    <path d="M 182.9826202392578 58.401432037353516 C 142.10244750976562 131.35101318359375 105.81069946289062 44.000343322753906 95.21368408203125 67.7127456665039" stroke-width="2" fill="none" stroke="rgb(0, 0, 0)" stroke-opacity="1.0" stroke-linecap="round" stroke-linejoin="round"/>
    <path d="M 150.03880310058594 143.213134765625 C 175.5941925048828 127.76824188232422 173.57762145996094 170.2261199951172 148.44952392578125 160.01824951171875" stroke-width="2" fill="none" stroke="rgb(0, 0, 0)" stroke-opacity="1.0" stroke-linecap="round" stroke-linejoin="round"/>
    <path d="M 92.82376098632812 104.64102935791016 C 101.41806030273438 26.427772521972656 99.81544494628906 127.87875366210938 111.18147277832031 90.47638702392578" stroke-width="2" fill="none" stroke="rgb(0, 0, 0)" stroke-opacity="1.0" stroke-linecap="round" stroke-linejoin="round"/>
    <path d="M 63.853736877441406 137.7001495361328 C 201.0711212158203 170.90843200683594 196.77565002441406 157.78477478027344 106.46915435791016 126.40843200683594" stroke-width="2" fill="none" stroke="rgb(0, 0, 0)" stroke-opacity="1.0" stroke-linecap="round" stroke-linejoin="round"/>
    <path d="M 173.72100830078125 117.99657440185547 C 148.9527587890625 113.92451477050781 176.0375213623047 103.94058990478516 178.2750244140625 66.2793197631836" stroke-width="2" fill="none" stroke="rgb(0, 0, 0)" stroke-opacity="1.0" stroke-linecap="round" stroke-linejoin="round"/>
    <path d="M 119.30333709716797 136.5900115966797 C 215.3709716796875 150.90625 140.35348510742188 103.20185852050781 95.66180419921875 134.7000732421875" stroke-width="2" fill="none" stroke="rgb(0, 0, 0)" stroke-opacity="1.0" stroke-linecap="round" stroke-linejoin="round"/>
    <path d="M 54.75655746459961 106.82470703125 C 58.76338577270508 120.43761444091797 46.40795135498047 90.04685974121094 92.72752380371094 97.06571960449219" stroke-width="2" fill="none" stroke="rgb(0, 0, 0)" stroke-opacity="1.0" stroke-linecap="round" stroke-linejoin="round"/>
  </g>
</svg>
