<?xml version="1.0" ?>
<svg xmlns="http://www.w3.org/2000/svg" version="1.1" width="224" height="224">
  <defs/>
  <g>
    <path d="M 56.91630172729492 140.08010864257812 C 137.3436279296875 159.42984008789062 53.01987838745117 163.44444274902344 43.579524993896484 140.555419921875" stroke-width="2" fill="none" stroke="rgb(0, 0, 0)" stroke-opacity="1.0" stroke-linecap="round" stroke-linejoin="round"/>
    <path d="M 148.2156982421875 123.5328369140625 C 79.33689880371094 113.59627532958984 192.26266479492188 123.8530044555664 130.36038208007812 126.22334289550781" stroke-width="2" fill="none" stroke="rgb(0, 0, 0)" stroke-opacity="1.0" stroke-linecap="round" stroke-linejoin="round"/>
    <path d="M 153.42088317871094 118.79186248779297 C 202.50979614257812 106.82937622070312 70.65335845947266 152.15248107910156 69.28788757324219 133.41107177734375" stroke-width="2" fill="none" stroke="rgb(0, 0, 0)" stroke-opacity="1.0" stroke-linecap="round" stroke-linejoin="round"/>
    <path d="M 91.49752044677734 133.81930541992188 C 239.16131591796875 173.96485900878906 143.1376953125 107.77055358886719 181.31686401367188 98.57884216308594" stroke-width="2" fill="none" stroke="rgb(0, 0, 0)" stroke-opacity="1.0" stroke-linecap="round" stroke-linejoin="round"/>
    <path d="M 188.53640747070312 53.30794143676758 C 167.92135620117188 47.484352111816406 153.79425048828125 99.30025482177734 122.08053588867188 84.9875717163086" stroke-width="2" fill="none" stroke="rgb(0, 0, 0)" stroke-opacity="1.0" stroke-linecap="round" stroke-linejoin="round"/>
    <path d="M 153.0638885498047 121.44483184814453 C 236.5947265625 140.04270935058594 60.214820861816406 87.3311996459961 142.4608917236328 139.5301971435547" stroke-width="2" fill="none" stroke="rgb(0, 0, 0)" stroke-opacity="1.0" stroke-linecap="round" stroke-linejoin="round"/>
    <path d="M 46.83512878417969 112.90313720703125 C 17.362327575683594 150.900390625 142.44580078125 147.4433135986328 162.59400939941406 140.1721954345703" stroke-width="2" fill="none" stroke="rgb(0, 0, 0)" stroke-opacity="1.0" stroke-linecap="round" stroke-linejoin="round"/>
    <path d="M 171.0261993408203 106.9428939819336 C 118.99488830566406 104.85535430908203 204.55856323242188 104.16224670410156 158.6851348876953 138.27688598632812" stroke-width="2" fill="none" stroke="rgb(0, 0, 0)" stroke-opacity="1.0" stroke-linecap="round" stroke-linejoin="round"/>
    <path d="M 126.19922637939453 105.41336822509766 C 150.52001953125 111.14666748046875 129.6582794189453 96.03265380859375 120.53221130371094 107.77942657470703" stroke-width="2" fill="none" stroke="rgb(0, 0, 0)" stroke-opacity="1.0" stroke-linecap="round" stroke-linejoin="round"/>
    <path d="M 185.81674194335938 56.87698745727539 C 167.44041442871094 121.6676254272461 153.4892120361328 62.99198913574219 171.31619262695312 96.93953704833984" stroke-width="2" fill="none" stroke="rgb(0, 0, 0)" stroke-opacity="1.0" stroke-linecap="round" stroke-linejoin="round"/>
    <path d="M 148.15989685058594 130.90647888183594 C 56.15264892578125 129.6129608154297 131.171142578125 131.28118896484375 138.60765075683594 134.8651580810547" stroke-width="2" fill="none" stroke="rgb(0, 0, 0)" stroke-opacity="1.0" stroke-linecap="round" stroke-linejoin="round"/>
    <path d="M 105.38773345947266 109.7939224243164 C 76.2002944946289 96.63463592529297 90.47901153564453 117.52832794189453 80.51028442382812 124.02638244628906" stroke-width="2" fill="none" stroke="rgb(0, 0, 0)" stroke-opacity="1.0" stroke-linecap="round" stroke-linejoin="round"/>
    <path d="M 119.4293441772461 115.89715576171875 C 118.90201568603516 75.39588165283203 115.95635223388672 127.00138092041016 99.1126937866211 69.5827407836914" stroke-width="2" fill="none" stroke="rgb(0, 0, 0)" stroke-opacity="1.0" stroke-linecap="round" stroke-linejoin="round"/>
    <path d="M 193.50326538085938 55.058189392089844 C 181.68809509277344 168.1482391357422 132.4774932861328 107.90888214111328 164.80636596679688 112.67327880859375" stroke-width="2" fill="none" stroke="rgb(0, 0, 0)" stroke-opacity="1.0" stroke-linecap="round" stroke-linejoin="round"/>
    <path d="M 124.34285736083984 89.3821029663086 C 74.50762176513672 33.50107955932617 93.66415405273438 118.09507751464844 99.44062805175781 118.34052276611328" stroke-width="2" fill="none" stroke="rgb(0, 0, 0)" stroke-opacity="1.0" stroke-linecap="round" stroke-linejoin="round"/>
    <path d="M 48.233558654785156 149.39808654785156 C 37.51554870605469 126.43448638916016 45.42241668701172 89.04995727539062 92.4415054321289 95.79594421386719" stroke-width="2" fill="none" stroke="rgb(0, 0, 0)" stroke-opacity="1.0" stroke-linecap="round" stroke-linejoin="round"/>
  </g>
</svg>
