<?xml version="1.0" ?>
<svg xmlns="http://www.w3.org/2000/svg" version="1.1" width="224" height="224">
  <defs/>
  <g>
    <path d="M 76.40731811523438 110.4734115600586 C 33.74308776855469 112.15589904785156 79.33623504638672 101.81420135498047 82.04061126708984 122.86277770996094" stroke-width="2" fill="none" stroke="rgb(0, 0, 0)" stroke-opacity="1.0" stroke-linecap="round" stroke-linejoin="round"/>
    <path d="M 135.62973022460938 132.88299560546875 C 76.58309173583984 109.29535675048828 158.1907958984375 127.03447723388672 109.9387435913086 122.30223846435547" stroke-width="2" fill="none" stroke="rgb(0, 0, 0)" stroke-opacity="1.0" stroke-linecap="round" stroke-linejoin="round"/>
    <path d="M 144.49989318847656 120.24087524414062 C 206.45126342773438 129.60153198242188 76.0516128540039 175.44615173339844 106.54743194580078 104.68256378173828" stroke-width="2" fill="none" stroke="rgb(0, 0, 0)" stroke-opacity="1.0" stroke-linecap="round" stroke-linejoin="round"/>
    <path d="M 44.05421829223633 146.96688842773438 C 205.71168518066406 181.63372802734375 186.06854248046875 176.19473266601562 167.48089599609375 112.87773895263672" stroke-width="2" fill="none" stroke="rgb(0, 0, 0)" stroke-opacity="1.0" stroke-linecap="round" stroke-linejoin="round"/>
    <path d="M 183.95510864257812 57.43006134033203 C 170.63385009765625 58.379791259765625 166.08718872070312 96.34596252441406 122.65233612060547 82.42334747314453" stroke-width="2" fill="none" stroke="rgb(0, 0, 0)" stroke-opacity="1.0" stroke-linecap="round" stroke-linejoin="round"/>
    <path d="M 131.28866577148438 126.35601043701172 C 166.2247772216797 118.68943786621094 64.62335968017578 145.18505859375 150.32711791992188 158.57530212402344" stroke-width="2" fill="none" stroke="rgb(0, 0, 0)" stroke-opacity="1.0" stroke-linecap="round" stroke-linejoin="round"/>
    <path d="M 56.85396194458008 107.15838623046875 C 9.526581764221191 163.35914611816406 88.97835540771484 147.0418243408203 109.0196304321289 160.96202087402344" stroke-width="2" fill="none" stroke="rgb(0, 0, 0)" stroke-opacity="1.0" stroke-linecap="round" stroke-linejoin="round"/>
    <path d="M 138.6302490234375 122.80570220947266 C 63.67041778564453 141.3306427001953 224.98931884765625 147.34262084960938 116.14060974121094 132.79063415527344" stroke-width="2" fill="none" stroke="rgb(0, 0, 0)" stroke-opacity="1.0" stroke-linecap="round" stroke-linejoin="round"/>
    <path d="M 84.95265197753906 147.64263916015625 C 101.90538024902344 141.841552734375 130.14036560058594 152.6913604736328 78.66848754882812 142.5548858642578" stroke-width="2" fill="none" stroke="rgb(0, 0, 0)" stroke-opacity="1.0" stroke-linecap="round" stroke-linejoin="round"/>
    <path d="M 182.69273376464844 64.5495834350586 C 167.42503356933594 107.8276596069336 144.08139038085938 97.2776870727539 173.08444213867188 106.65743255615234" stroke-width="2" fill="none" stroke="rgb(0, 0, 0)" stroke-opacity="1.0" stroke-linecap="round" stroke-linejoin="round"/>
    <path d="M 169.06298828125 147.05886840820312 C 62.43572235107422 116.57384490966797 109.34806060791016 115.58609008789062 125.99996185302734 136.2415008544922" stroke-width="2" fill="none" stroke="rgb(0, 0, 0)" stroke-opacity="1.0" stroke-linecap="round" stroke-linejoin="round"/>
    <path d="M 114.15117645263672 98.99015045166016 C 35.00731658935547 91.3053970336914 60.4843635559082 141.63235473632812 54.8940315246582 114.69380187988281" stroke-width="2" fill="none" stroke="rgb(0, 0, 0)" stroke-opacity="1.0" stroke-linecap="round" stroke-linejoin="round"/>
    <path d="M 163.5516357421875 106.09332275390625 C 126.92084503173828 69.88176727294922 123.16949462890625 146.4475860595703 103.3196792602539 72.85568237304688" stroke-width="2" fill="none" stroke="rgb(0, 0, 0)" stroke-opacity="1.0" stroke-linecap="round" stroke-linejoin="round"/>
    <path d="M 183.79156494140625 59.90498733520508 C 182.00253295898438 142.9527130126953 129.8854217529297 117.39994812011719 154.81954956054688 120.37234497070312" stroke-width="2" fill="none" stroke="rgb(0, 0, 0)" stroke-opacity="1.0" stroke-linecap="round" stroke-linejoin="round"/>
    <path d="M 132.1859893798828 92.4864501953125 C 81.10935974121094 25.51443099975586 111.92501068115234 99.50154876708984 97.71272277832031 99.72537231445312" stroke-width="2" fill="none" stroke="rgb(0, 0, 0)" stroke-opacity="1.0" stroke-linecap="round" stroke-linejoin="round"/>
    <path d="M 58.41218566894531 123.71347045898438 C 53.84185791015625 94.56600952148438 77.89361572265625 105.31275939941406 100.98210144042969 109.85517883300781" stroke-width="2" fill="none" stroke="rgb(0, 0, 0)" stroke-opacity="1.0" stroke-linecap="round" stroke-linejoin="round"/>
  </g>
</svg>
