<?xml version="1.0" ?>
<svg xmlns="http://www.w3.org/2000/svg" version="1.1" width="224" height="224">
  <defs/>
  <g>
    <path d="M 80.02225494384766 131.013916015625 C 206.48973083496094 152.97128295898438 97.34556579589844 139.95431518554688 140.00254821777344 126.34532928466797" stroke-width="2" fill="none" stroke="rgb(0, 0, 0)" stroke-opacity="1.0" stroke-linecap="round" stroke-linejoin="round"/>
    <path d="M 163.12710571289062 137.3744354248047 C 116.48421478271484 138.79629516601562 231.9642791748047 125.0821533203125 98.11543273925781 134.0494842529297" stroke-width="2" fill="none" stroke="rgb(0, 0, 0)" stroke-opacity="1.0" stroke-linecap="round" stroke-linejoin="round"/>
    <path d="M 92.46434783935547 135.6095733642578 C 135.44444274902344 143.14297485351562 43.687294006347656 113.4000015258789 139.65036010742188 141.89111328125" stroke-width="2" fill="none" stroke="rgb(0, 0, 0)" stroke-opacity="1.0" stroke-linecap="round" stroke-linejoin="round"/>
    <path d="M 53.233158111572266 155.47669982910156 C 231.19088745117188 184.03732299804688 161.11473083496094 143.9154815673828 183.7808074951172 116.71292114257812" stroke-width="2" fill="none" stroke="rgb(0, 0, 0)" stroke-opacity="1.0" stroke-linecap="round" stroke-linejoin="round"/>
    <path d="M 177.0474395751953 76.5667495727539 C 124.03345489501953 119.20233154296875 165.36517333984375 81.97425842285156 112.51316833496094 93.86197662353516" stroke-width="2" fill="none" stroke="rgb(0, 0, 0)" stroke-opacity="1.0" stroke-linecap="round" stroke-linejoin="round"/>
    <path d="M 185.86846923828125 131.5327911376953 C 182.39083862304688 179.8540802001953 55.06820297241211 116.47083282470703 142.86058044433594 139.05918884277344" stroke-width="2" fill="none" stroke="rgb(0, 0, 0)" stroke-opacity="1.0" stroke-linecap="round" stroke-linejoin="round"/>
    <path d="M 54.51020431518555 110.13585662841797 C -2.0530123710632324 167.86216735839844 149.228271484375 142.5946044921875 92.53984832763672 143.13294982910156" stroke-width="2" fill="none" stroke="rgb(0, 0, 0)" stroke-opacity="1.0" stroke-linecap="round" stroke-linejoin="round"/>
    <path d="M 173.3060302734375 133.87939453125 C 221.8805694580078 -21.081968307495117 142.57232666015625 119.05792236328125 151.36122131347656 95.65258026123047" stroke-width="2" fill="none" stroke="rgb(0, 0, 0)" stroke-opacity="1.0" stroke-linecap="round" stroke-linejoin="round"/>
    <path d="M 120.30561065673828 106.40564727783203 C 105.57234191894531 154.8789825439453 101.87203979492188 107.3665542602539 137.7496795654297 117.67345428466797" stroke-width="2" fill="none" stroke="rgb(0, 0, 0)" stroke-opacity="1.0" stroke-linecap="round" stroke-linejoin="round"/>
    <path d="M 185.5691375732422 65.3824462890625 C 168.32119750976562 155.5274658203125 102.74246215820312 72.7182388305664 103.61499786376953 72.64707946777344" stroke-width="2" fill="none" stroke="rgb(0, 0, 0)" stroke-opacity="1.0" stroke-linecap="round" stroke-linejoin="round"/>
    <path d="M 150.60226440429688 130.344482421875 C 175.37753295898438 103.68867492675781 172.6918182373047 161.96775817871094 146.70162963867188 154.92185974121094" stroke-width="2" fill="none" stroke="rgb(0, 0, 0)" stroke-opacity="1.0" stroke-linecap="round" stroke-linejoin="round"/>
    <path d="M 96.79183959960938 101.2590103149414 C 94.01658630371094 1.3622183799743652 106.91602325439453 119.24822235107422 121.65583801269531 106.91346740722656" stroke-width="2" fill="none" stroke="rgb(0, 0, 0)" stroke-opacity="1.0" stroke-linecap="round" stroke-linejoin="round"/>
    <path d="M 44.77025604248047 150.679443359375 C 173.32550048828125 170.98951721191406 175.279296875 148.1110382080078 98.1698989868164 134.77764892578125" stroke-width="2" fill="none" stroke="rgb(0, 0, 0)" stroke-opacity="1.0" stroke-linecap="round" stroke-linejoin="round"/>
    <path d="M 176.76705932617188 102.5026626586914 C 159.61074829101562 135.19337463378906 207.88746643066406 120.46250915527344 190.4606170654297 80.27043914794922" stroke-width="2" fill="none" stroke="rgb(0, 0, 0)" stroke-opacity="1.0" stroke-linecap="round" stroke-linejoin="round"/>
    <path d="M 121.59000396728516 124.9615249633789 C 222.96484375 147.6138458251953 121.13101196289062 120.14525604248047 90.41475677490234 136.19491577148438" stroke-width="2" fill="none" stroke="rgb(0, 0, 0)" stroke-opacity="1.0" stroke-linecap="round" stroke-linejoin="round"/>
    <path d="M 62.5753059387207 120.45442199707031 C 55.025177001953125 120.2056655883789 47.34401321411133 81.4339828491211 101.40884399414062 94.50386047363281" stroke-width="2" fill="none" stroke="rgb(0, 0, 0)" stroke-opacity="1.0" stroke-linecap="round" stroke-linejoin="round"/>
  </g>
</svg>
