<?xml version="1.0" ?>
<svg xmlns="http://www.w3.org/2000/svg" version="1.1" width="224" height="224">
  <defs/>
  <g>
    <path d="M 53.65328598022461 139.20692443847656 C 110.60693359375 134.5463104248047 59.33405685424805 137.29994201660156 49.07276916503906 137.64874267578125" stroke-width="2" fill="none" stroke="rgb(0, 0, 0)" stroke-opacity="1.0" stroke-linecap="round" stroke-linejoin="round"/>
    <path d="M 111.11026000976562 140.02615356445312 C 73.79747772216797 107.97122192382812 182.03553771972656 127.27491760253906 107.14149475097656 123.98112487792969" stroke-width="2" fill="none" stroke="rgb(0, 0, 0)" stroke-opacity="1.0" stroke-linecap="round" stroke-linejoin="round"/>
    <path d="M 150.29177856445312 137.2579803466797 C 203.83236694335938 112.93234252929688 99.56914520263672 153.109130859375 91.72047424316406 102.79100799560547" stroke-width="2" fill="none" stroke="rgb(0, 0, 0)" stroke-opacity="1.0" stroke-linecap="round" stroke-linejoin="round"/>
    <path d="M 84.78468322753906 131.73500061035156 C 233.093017578125 180.1093292236328 150.92239379882812 122.85029602050781 167.958740234375 102.02186584472656" stroke-width="2" fill="none" stroke="rgb(0, 0, 0)" stroke-opacity="1.0" stroke-linecap="round" stroke-linejoin="round"/>
    <path d="M 184.92202758789062 53.09898376464844 C 176.54275512695312 46.899784088134766 161.3885040283203 80.2149429321289 148.6085968017578 78.30128479003906" stroke-width="2" fill="none" stroke="rgb(0, 0, 0)" stroke-opacity="1.0" stroke-linecap="round" stroke-linejoin="round"/>
    <path d="M 146.21580505371094 108.06721496582031 C 219.30288696289062 121.65585327148438 24.629253387451172 92.25016784667969 156.33363342285156 120.34197998046875" stroke-width="2" fill="none" stroke="rgb(0, 0, 0)" stroke-opacity="1.0" stroke-linecap="round" stroke-linejoin="round"/>
    <path d="M 47.631622314453125 98.95670318603516 C 1.860988736152649 166.27987670898438 116.11144256591797 168.4453125 156.95274353027344 159.81594848632812" stroke-width="2" fill="none" stroke="rgb(0, 0, 0)" stroke-opacity="1.0" stroke-linecap="round" stroke-linejoin="round"/>
    <path d="M 158.07223510742188 120.2491683959961 C 99.25346374511719 103.63172149658203 225.92481994628906 115.79850006103516 118.70777893066406 128.5474090576172" stroke-width="2" fill="none" stroke="rgb(0, 0, 0)" stroke-opacity="1.0" stroke-linecap="round" stroke-linejoin="round"/>
    <path d="M 107.80945587158203 111.03307342529297 C 131.38397216796875 108.32783508300781 147.24781799316406 88.4292221069336 108.0353012084961 124.86042022705078" stroke-width="2" fill="none" stroke="rgb(0, 0, 0)" stroke-opacity="1.0" stroke-linecap="round" stroke-linejoin="round"/>
    <path d="M 179.62625122070312 79.97521209716797 C 162.36831665039062 130.6261444091797 134.92628479003906 55.754085540771484 165.6072540283203 101.86922454833984" stroke-width="2" fill="none" stroke="rgb(0, 0, 0)" stroke-opacity="1.0" stroke-linecap="round" stroke-linejoin="round"/>
    <path d="M 135.55186462402344 152.67819213867188 C 48.646968841552734 135.44439697265625 75.69696044921875 139.1177215576172 109.89363861083984 155.3768310546875" stroke-width="2" fill="none" stroke="rgb(0, 0, 0)" stroke-opacity="1.0" stroke-linecap="round" stroke-linejoin="round"/>
    <path d="M 89.66960144042969 94.22795867919922 C 41.3217887878418 86.1447525024414 45.451961517333984 127.92870330810547 53.97858810424805 98.30631256103516" stroke-width="2" fill="none" stroke="rgb(0, 0, 0)" stroke-opacity="1.0" stroke-linecap="round" stroke-linejoin="round"/>
    <path d="M 145.43954467773438 85.49729919433594 C 115.10238647460938 72.47434997558594 114.5930404663086 105.7251968383789 101.13276672363281 71.13811492919922" stroke-width="2" fill="none" stroke="rgb(0, 0, 0)" stroke-opacity="1.0" stroke-linecap="round" stroke-linejoin="round"/>
    <path d="M 184.050537109375 54.64517593383789 C 177.87393188476562 185.99110412597656 105.11725616455078 109.86663055419922 156.27096557617188 107.10821533203125" stroke-width="2" fill="none" stroke="rgb(0, 0, 0)" stroke-opacity="1.0" stroke-linecap="round" stroke-linejoin="round"/>
    <path d="M 110.8479995727539 80.75363159179688 C 85.35364532470703 25.609621047973633 100.96995544433594 125.41980743408203 97.76590728759766 97.65022277832031" stroke-width="2" fill="none" stroke="rgb(0, 0, 0)" stroke-opacity="1.0" stroke-linecap="round" stroke-linejoin="round"/>
    <path d="M 57.75741958618164 124.40045928955078 C 63.12498474121094 137.2425994873047 27.40289878845215 117.8573989868164 45.41481399536133 115.90547180175781" stroke-width="2" fill="none" stroke="rgb(0, 0, 0)" stroke-opacity="1.0" stroke-linecap="round" stroke-linejoin="round"/>
  </g>
</svg>
