<?xml version="1.0" ?>
<svg xmlns="http://www.w3.org/2000/svg" version="1.1" width="224" height="224">
  <defs/>
  <g>
    <path d="M 68.62616729736328 149.01995849609375 C 178.90452575683594 164.4405059814453 42.51213073730469 133.51614379882812 50.176753997802734 140.64089965820312" stroke-width="2" fill="none" stroke="rgb(0, 0, 0)" stroke-opacity="1.0" stroke-linecap="round" stroke-linejoin="round"/>
    <path d="M 135.38551330566406 112.25981903076172 C 81.6436538696289 120.0538101196289 205.24661254882812 122.46891021728516 125.12711334228516 128.75088500976562" stroke-width="2" fill="none" stroke="rgb(0, 0, 0)" stroke-opacity="1.0" stroke-linecap="round" stroke-linejoin="round"/>
    <path d="M 121.98271179199219 123.23535919189453 C 215.9970703125 124.4740982055664 106.50359344482422 113.66021728515625 118.58016967773438 119.03392028808594" stroke-width="2" fill="none" stroke="rgb(0, 0, 0)" stroke-opacity="1.0" stroke-linecap="round" stroke-linejoin="round"/>
    <path d="M 48.689754486083984 144.31414794921875 C 251.2650146484375 187.47581481933594 140.11619567871094 115.67018127441406 185.37876892089844 113.13623809814453" stroke-width="2" fill="none" stroke="rgb(0, 0, 0)" stroke-opacity="1.0" stroke-linecap="round" stroke-linejoin="round"/>
    <path d="M 185.54147338867188 54.7828254699707 C 164.21652221679688 55.91051483154297 158.07455444335938 129.7540740966797 112.38662719726562 59.753475189208984" stroke-width="2" fill="none" stroke="rgb(0, 0, 0)" stroke-opacity="1.0" stroke-linecap="round" stroke-linejoin="round"/>
    <path d="M 119.7732925415039 135.10726928710938 C 219.66319274902344 146.3309326171875 49.74968719482422 105.8536605834961 158.33680725097656 125.36335754394531" stroke-width="2" fill="none" stroke="rgb(0, 0, 0)" stroke-opacity="1.0" stroke-linecap="round" stroke-linejoin="round"/>
    <path d="M 48.55338668823242 116.29370880126953 C 5.87859582901001 168.1837158203125 169.86741638183594 152.17620849609375 118.78288269042969 140.19610595703125" stroke-width="2" fill="none" stroke="rgb(0, 0, 0)" stroke-opacity="1.0" stroke-linecap="round" stroke-linejoin="round"/>
    <path d="M 163.54415893554688 128.71923828125 C 130.4825897216797 105.88152313232422 190.40806579589844 152.96240234375 156.73492431640625 102.44713592529297" stroke-width="2" fill="none" stroke="rgb(0, 0, 0)" stroke-opacity="1.0" stroke-linecap="round" stroke-linejoin="round"/>
    <path d="M 123.1516342163086 109.06553649902344 C 165.2445068359375 113.40328216552734 87.61418914794922 101.40816497802734 136.54776000976562 101.35076141357422" stroke-width="2" fill="none" stroke="rgb(0, 0, 0)" stroke-opacity="1.0" stroke-linecap="round" stroke-linejoin="round"/>
    <path d="M 187.18069458007812 58.58438491821289 C 162.07435607910156 134.5115203857422 165.01329040527344 103.586669921875 148.06936645507812 104.55674743652344" stroke-width="2" fill="none" stroke="rgb(0, 0, 0)" stroke-opacity="1.0" stroke-linecap="round" stroke-linejoin="round"/>
    <path d="M 155.03485107421875 115.50142669677734 C 101.92503356933594 121.23749542236328 123.30052947998047 120.36011505126953 165.40184020996094 117.55667877197266" stroke-width="2" fill="none" stroke="rgb(0, 0, 0)" stroke-opacity="1.0" stroke-linecap="round" stroke-linejoin="round"/>
    <path d="M 108.83807373046875 64.52144622802734 C 87.79940795898438 96.4552001953125 115.86615753173828 108.75028991699219 113.43263244628906 126.00407409667969" stroke-width="2" fill="none" stroke="rgb(0, 0, 0)" stroke-opacity="1.0" stroke-linecap="round" stroke-linejoin="round"/>
    <path d="M 103.17221069335938 129.87060546875 C 121.0877456665039 89.8741226196289 113.26509857177734 146.20339965820312 100.46134948730469 87.0423355102539" stroke-width="2" fill="none" stroke="rgb(0, 0, 0)" stroke-opacity="1.0" stroke-linecap="round" stroke-linejoin="round"/>
    <path d="M 189.1323699951172 61.70643997192383 C 187.893798828125 173.25384521484375 139.75006103515625 143.5482635498047 174.8246307373047 146.4665985107422" stroke-width="2" fill="none" stroke="rgb(0, 0, 0)" stroke-opacity="1.0" stroke-linecap="round" stroke-linejoin="round"/>
    <path d="M 117.9233627319336 90.7630386352539 C 92.80106353759766 45.37239456176758 130.59352111816406 133.54119873046875 91.01094818115234 121.49797821044922" stroke-width="2" fill="none" stroke="rgb(0, 0, 0)" stroke-opacity="1.0" stroke-linecap="round" stroke-linejoin="round"/>
    <path d="M 43.871891021728516 115.78423309326172 C 42.50888442993164 119.25457000732422 37.89053726196289 82.2923583984375 94.50545501708984 91.9033432006836" stroke-width="2" fill="none" stroke="rgb(0, 0, 0)" stroke-opacity="1.0" stroke-linecap="round" stroke-linejoin="round"/>
  </g>
</svg>
