<?xml version="1.0" ?>
<svg xmlns="http://www.w3.org/2000/svg" version="1.1" width="224" height="224">
  <defs/>
  <g>
    <path d="M 46.16566467285156 146.59109497070312 C 120.06090545654297 157.1103515625 12.912049293518066 139.5523223876953 53.47212600708008 149.6475067138672" stroke-width="2" fill="none" stroke="rgb(0, 0, 0)" stroke-opacity="1.0" stroke-linecap="round" stroke-linejoin="round"/>
    <path d="M 154.05404663085938 117.09307861328125 C 86.75337219238281 138.46182250976562 230.450439453125 127.02326202392578 157.6566619873047 141.27626037597656" stroke-width="2" fill="none" stroke="rgb(0, 0, 0)" stroke-opacity="1.0" stroke-linecap="round" stroke-linejoin="round"/>
    <path d="M 133.14659118652344 118.59854125976562 C 209.12547302246094 113.14573669433594 123.42390441894531 104.82605743408203 166.5794219970703 110.46867370605469" stroke-width="2" fill="none" stroke="rgb(0, 0, 0)" stroke-opacity="1.0" stroke-linecap="round" stroke-linejoin="round"/>
    <path d="M 83.26573944091797 139.2498016357422 C 245.83763122558594 187.6261749267578 153.88853454589844 102.56715393066406 179.17213439941406 116.12818908691406" stroke-width="2" fill="none" stroke="rgb(0, 0, 0)" stroke-opacity="1.0" stroke-linecap="round" stroke-linejoin="round"/>
    <path d="M 179.91848754882812 57.61091232299805 C 173.30482482910156 55.9492301940918 131.98873901367188 136.83871459960938 107.88078308105469 71.34078216552734" stroke-width="2" fill="none" stroke="rgb(0, 0, 0)" stroke-opacity="1.0" stroke-linecap="round" stroke-linejoin="round"/>
    <path d="M 129.22637939453125 117.40303802490234 C 239.364501953125 106.38712310791016 85.87654876708984 102.30296325683594 171.8585205078125 119.05590057373047" stroke-width="2" fill="none" stroke="rgb(0, 0, 0)" stroke-opacity="1.0" stroke-linecap="round" stroke-linejoin="round"/>
    <path d="M 53.9461669921875 110.67219543457031 C -18.309959411621094 184.94552612304688 180.79983520507812 148.6077423095703 127.7962875366211 155.41371154785156" stroke-width="2" fill="none" stroke="rgb(0, 0, 0)" stroke-opacity="1.0" stroke-linecap="round" stroke-linejoin="round"/>
    <path d="M 170.31765747070312 112.58812713623047 C 132.62863159179688 93.73497772216797 188.8516845703125 134.9796905517578 166.975830078125 107.74986267089844" stroke-width="2" fill="none" stroke="rgb(0, 0, 0)" stroke-opacity="1.0" stroke-linecap="round" stroke-linejoin="round"/>
    <path d="M 135.43153381347656 114.77240753173828 C 195.5695343017578 118.59198760986328 102.1352767944336 132.35687255859375 152.40699768066406 120.57915496826172" stroke-width="2" fill="none" stroke="rgb(0, 0, 0)" stroke-opacity="1.0" stroke-linecap="round" stroke-linejoin="round"/>
    <path d="M 182.7925262451172 64.03150939941406 C 161.39666748046875 130.3837890625 163.34507751464844 79.11638641357422 134.81613159179688 89.76434326171875" stroke-width="2" fill="none" stroke="rgb(0, 0, 0)" stroke-opacity="1.0" stroke-linecap="round" stroke-linejoin="round"/>
    <path d="M 158.01312255859375 125.2605972290039 C 116.0125961303711 103.4476547241211 187.92405700683594 135.09857177734375 129.1217803955078 114.39784240722656" stroke-width="2" fill="none" stroke="rgb(0, 0, 0)" stroke-opacity="1.0" stroke-linecap="round" stroke-linejoin="round"/>
    <path d="M 118.3306655883789 79.504150390625 C 78.07625579833984 36.200706481933594 112.64138793945312 117.35482788085938 110.63776397705078 129.03709411621094" stroke-width="2" fill="none" stroke="rgb(0, 0, 0)" stroke-opacity="1.0" stroke-linecap="round" stroke-linejoin="round"/>
    <path d="M 94.26788330078125 124.15518951416016 C 129.11529541015625 117.75709533691406 160.62596130371094 158.87548828125 102.55506896972656 133.5637664794922" stroke-width="2" fill="none" stroke="rgb(0, 0, 0)" stroke-opacity="1.0" stroke-linecap="round" stroke-linejoin="round"/>
    <path d="M 184.63636779785156 65.04484558105469 C 192.22482299804688 171.0902862548828 106.78202056884766 133.1326904296875 149.50608825683594 138.2449493408203" stroke-width="2" fill="none" stroke="rgb(0, 0, 0)" stroke-opacity="1.0" stroke-linecap="round" stroke-linejoin="round"/>
    <path d="M 118.31874084472656 114.75077056884766 C 87.04241180419922 78.52288818359375 132.587890625 117.03887939453125 121.21844482421875 100.28445434570312" stroke-width="2" fill="none" stroke="rgb(0, 0, 0)" stroke-opacity="1.0" stroke-linecap="round" stroke-linejoin="round"/>
    <path d="M 72.96189880371094 114.3120346069336 C 41.18067932128906 126.75364685058594 48.735374450683594 87.02566528320312 98.67528533935547 98.05984497070312" stroke-width="2" fill="none" stroke="rgb(0, 0, 0)" stroke-opacity="1.0" stroke-linecap="round" stroke-linejoin="round"/>
  </g>
</svg>
