<?xml version="1.0" ?>
<svg xmlns="http://www.w3.org/2000/svg" version="1.1" width="224" height="224">
  <defs/>
  <g>
    <path d="M 95.43623352050781 120.59532928466797 C 148.97573852539062 127.8438491821289 -3.688599109649658 140.74864196777344 117.40604400634766 161.33946228027344" stroke-width="2" fill="none" stroke="rgb(0, 0, 0)" stroke-opacity="1.0" stroke-linecap="round" stroke-linejoin="round"/>
    <path d="M 120.6275863647461 122.6864013671875 C 44.43749237060547 137.239013671875 148.10935974121094 119.46444702148438 95.45579528808594 129.1672821044922" stroke-width="2" fill="none" stroke="rgb(0, 0, 0)" stroke-opacity="1.0" stroke-linecap="round" stroke-linejoin="round"/>
    <path d="M 114.2863540649414 117.69998931884766 C 61.46298599243164 140.66639709472656 74.58551025390625 93.59417724609375 137.256591796875 139.8170928955078" stroke-width="2" fill="none" stroke="rgb(0, 0, 0)" stroke-opacity="1.0" stroke-linecap="round" stroke-linejoin="round"/>
    <path d="M 41.91139221191406 147.7080841064453 C 249.98451232910156 196.29029846191406 143.664306640625 120.72340393066406 156.25682067871094 94.40805053710938" stroke-width="2" fill="none" stroke="rgb(0, 0, 0)" stroke-opacity="1.0" stroke-linecap="round" stroke-linejoin="round"/>
    <path d="M 141.78541564941406 111.861083984375 C 118.65914154052734 93.38780212402344 182.77438354492188 125.36636352539062 152.45555114746094 98.87541198730469" stroke-width="2" fill="none" stroke="rgb(0, 0, 0)" stroke-opacity="1.0" stroke-linecap="round" stroke-linejoin="round"/>
    <path d="M 113.04788208007812 152.61082458496094 C 169.43130493164062 118.2110824584961 -1.160036563873291 98.3406753540039 128.72702026367188 157.6415557861328" stroke-width="2" fill="none" stroke="rgb(0, 0, 0)" stroke-opacity="1.0" stroke-linecap="round" stroke-linejoin="round"/>
    <path d="M 88.65306854248047 91.41511535644531 C 0.5134015083312988 102.75274658203125 81.44169616699219 191.8035125732422 36.33496856689453 133.2753143310547" stroke-width="2" fill="none" stroke="rgb(0, 0, 0)" stroke-opacity="1.0" stroke-linecap="round" stroke-linejoin="round"/>
    <path d="M 167.72836303710938 100.98509979248047 C 216.7783203125 -20.731054306030273 128.2991485595703 130.18731689453125 170.95860290527344 104.5436782836914" stroke-width="2" fill="none" stroke="rgb(0, 0, 0)" stroke-opacity="1.0" stroke-linecap="round" stroke-linejoin="round"/>
    <path d="M 147.3848114013672 152.09329223632812 C 63.52912902832031 162.0938262939453 49.27249526977539 113.82655334472656 147.21441650390625 132.43699645996094" stroke-width="2" fill="none" stroke="rgb(0, 0, 0)" stroke-opacity="1.0" stroke-linecap="round" stroke-linejoin="round"/>
    <path d="M 162.4994659423828 74.44420623779297 C 123.34808349609375 112.34940338134766 114.6126708984375 70.1591796875 102.90653228759766 65.82417297363281" stroke-width="2" fill="none" stroke="rgb(0, 0, 0)" stroke-opacity="1.0" stroke-linecap="round" stroke-linejoin="round"/>
    <path d="M 94.57799530029297 137.96070861816406 C 45.190208435058594 141.5345916748047 123.19117736816406 145.47500610351562 158.42422485351562 142.1180877685547" stroke-width="2" fill="none" stroke="rgb(0, 0, 0)" stroke-opacity="1.0" stroke-linecap="round" stroke-linejoin="round"/>
    <path d="M 86.49707794189453 107.50009155273438 C 94.87543487548828 10.25637435913086 122.17899322509766 108.59031677246094 120.2764663696289 133.13531494140625" stroke-width="2" fill="none" stroke="rgb(0, 0, 0)" stroke-opacity="1.0" stroke-linecap="round" stroke-linejoin="round"/>
    <path d="M 53.36796188354492 131.30093383789062 C 155.16346740722656 148.78646850585938 187.64572143554688 137.82313537597656 121.68678283691406 156.46351623535156" stroke-width="2" fill="none" stroke="rgb(0, 0, 0)" stroke-opacity="1.0" stroke-linecap="round" stroke-linejoin="round"/>
    <path d="M 176.65695190429688 142.80520629882812 C 143.60000610351562 159.44947814941406 199.4383544921875 117.62369537353516 182.36424255371094 66.77153778076172" stroke-width="2" fill="none" stroke="rgb(0, 0, 0)" stroke-opacity="1.0" stroke-linecap="round" stroke-linejoin="round"/>
    <path d="M 83.1031494140625 124.41770935058594 C 143.9859619140625 122.47621154785156 162.0303192138672 127.81204223632812 132.89422607421875 128.49288940429688" stroke-width="2" fill="none" stroke="rgb(0, 0, 0)" stroke-opacity="1.0" stroke-linecap="round" stroke-linejoin="round"/>
    <path d="M 78.91568756103516 107.90323638916016 C 65.45813751220703 162.82345581054688 107.58119201660156 104.24187469482422 103.71879577636719 85.84967803955078" stroke-width="2" fill="none" stroke="rgb(0, 0, 0)" stroke-opacity="1.0" stroke-linecap="round" stroke-linejoin="round"/>
  </g>
</svg>
