<?xml version="1.0" ?>
<svg xmlns="http://www.w3.org/2000/svg" version="1.1" width="224" height="224">
  <defs/>
  <g>
    <path d="M 56.38945770263672 151.760498046875 C 174.29425048828125 158.51727294921875 62.31857681274414 150.48838806152344 68.73625946044922 115.2664566040039" stroke-width="2" fill="none" stroke="rgb(0, 0, 0)" stroke-opacity="1.0" stroke-linecap="round" stroke-linejoin="round"/>
    <path d="M 144.8262176513672 119.73040771484375 C 113.33626556396484 118.71691131591797 208.93702697753906 131.0738983154297 91.02046966552734 122.33324432373047" stroke-width="2" fill="none" stroke="rgb(0, 0, 0)" stroke-opacity="1.0" stroke-linecap="round" stroke-linejoin="round"/>
    <path d="M 90.406982421875 138.72793579101562 C 158.15269470214844 150.5265655517578 14.927070617675781 114.85114288330078 137.795654296875 149.81011962890625" stroke-width="2" fill="none" stroke="rgb(0, 0, 0)" stroke-opacity="1.0" stroke-linecap="round" stroke-linejoin="round"/>
    <path d="M 78.07786560058594 153.76687622070312 C 218.3583526611328 192.1311492919922 166.1436309814453 100.93891143798828 176.27099609375 121.73751831054688" stroke-width="2" fill="none" stroke="rgb(0, 0, 0)" stroke-opacity="1.0" stroke-linecap="round" stroke-linejoin="round"/>
    <path d="M 189.25791931152344 61.52345275878906 C 163.7882843017578 72.97016143798828 165.49737548828125 108.50613403320312 122.44859313964844 94.7042465209961" stroke-width="2" fill="none" stroke="rgb(0, 0, 0)" stroke-opacity="1.0" stroke-linecap="round" stroke-linejoin="round"/>
    <path d="M 134.842041015625 140.24459838867188 C 211.06527709960938 139.24874877929688 60.977169036865234 153.81875610351562 152.9765625 148.69020080566406" stroke-width="2" fill="none" stroke="rgb(0, 0, 0)" stroke-opacity="1.0" stroke-linecap="round" stroke-linejoin="round"/>
    <path d="M 58.2650032043457 120.21858215332031 C -7.822017669677734 180.6641082763672 189.19332885742188 157.68882751464844 161.0242919921875 134.77781677246094" stroke-width="2" fill="none" stroke="rgb(0, 0, 0)" stroke-opacity="1.0" stroke-linecap="round" stroke-linejoin="round"/>
    <path d="M 176.06591796875 119.17644500732422 C 219.02847290039062 -10.62548828125 142.59561157226562 130.3236083984375 160.60911560058594 112.26830291748047" stroke-width="2" fill="none" stroke="rgb(0, 0, 0)" stroke-opacity="1.0" stroke-linecap="round" stroke-linejoin="round"/>
    <path d="M 111.78067016601562 105.306396484375 C 161.90899658203125 152.10739135742188 32.041160583496094 128.1810760498047 113.34083557128906 129.8843536376953" stroke-width="2" fill="none" stroke="rgb(0, 0, 0)" stroke-opacity="1.0" stroke-linecap="round" stroke-linejoin="round"/>
    <path d="M 183.3617706298828 65.96814727783203 C 170.7350616455078 156.32972717285156 115.50022888183594 67.93824005126953 103.6893081665039 68.01744842529297" stroke-width="2" fill="none" stroke="rgb(0, 0, 0)" stroke-opacity="1.0" stroke-linecap="round" stroke-linejoin="round"/>
    <path d="M 182.61343383789062 134.4346923828125 C 188.473388671875 148.4443359375 178.74891662597656 160.8515625 124.7459487915039 142.4049072265625" stroke-width="2" fill="none" stroke="rgb(0, 0, 0)" stroke-opacity="1.0" stroke-linecap="round" stroke-linejoin="round"/>
    <path d="M 120.96161651611328 139.55519104003906 C 86.75481414794922 0.3123091161251068 95.63524627685547 114.7034912109375 101.95073699951172 93.32495880126953" stroke-width="2" fill="none" stroke="rgb(0, 0, 0)" stroke-opacity="1.0" stroke-linecap="round" stroke-linejoin="round"/>
    <path d="M 91.28209686279297 142.16815185546875 C 125.18389892578125 156.21559143066406 128.99717712402344 115.13387298583984 93.18760681152344 121.11429595947266" stroke-width="2" fill="none" stroke="rgb(0, 0, 0)" stroke-opacity="1.0" stroke-linecap="round" stroke-linejoin="round"/>
    <path d="M 168.0321807861328 88.72459411621094 C 177.1697540283203 169.95925903320312 137.357421875 89.85992431640625 159.53956604003906 120.56769561767578" stroke-width="2" fill="none" stroke="rgb(0, 0, 0)" stroke-opacity="1.0" stroke-linecap="round" stroke-linejoin="round"/>
    <path d="M 95.9237060546875 134.9722442626953 C 116.02762603759766 117.29335021972656 90.52587127685547 164.55438232421875 126.33213806152344 115.4374771118164" stroke-width="2" fill="none" stroke="rgb(0, 0, 0)" stroke-opacity="1.0" stroke-linecap="round" stroke-linejoin="round"/>
    <path d="M 68.06239318847656 147.73133850097656 C 37.44404220581055 136.49008178710938 31.485027313232422 94.06198120117188 98.788330078125 88.62710571289062" stroke-width="2" fill="none" stroke="rgb(0, 0, 0)" stroke-opacity="1.0" stroke-linecap="round" stroke-linejoin="round"/>
  </g>
</svg>
