<?xml version="1.0" ?>
<svg xmlns="http://www.w3.org/2000/svg" version="1.1" width="224" height="224">
  <defs/>
  <g>
    <path d="M 75.34584045410156 152.71920776367188 C 175.80140686035156 152.72914123535156 65.97445678710938 154.77627563476562 78.9068832397461 128.49485778808594" stroke-width="2" fill="none" stroke="rgb(0, 0, 0)" stroke-opacity="1.0" stroke-linecap="round" stroke-linejoin="round"/>
    <path d="M 168.51068115234375 122.7851333618164 C 142.3230743408203 113.56021881103516 244.70269775390625 144.5837860107422 97.43384552001953 130.23683166503906" stroke-width="2" fill="none" stroke="rgb(0, 0, 0)" stroke-opacity="1.0" stroke-linecap="round" stroke-linejoin="round"/>
    <path d="M 111.49614715576172 139.83120727539062 C 167.88473510742188 120.93017578125 48.132774353027344 105.8335189819336 161.87396240234375 150.93421936035156" stroke-width="2" fill="none" stroke="rgb(0, 0, 0)" stroke-opacity="1.0" stroke-linecap="round" stroke-linejoin="round"/>
    <path d="M 86.76866912841797 143.76242065429688 C 233.5703582763672 181.5056915283203 169.84132385253906 101.42019653320312 179.35472106933594 124.29557800292969" stroke-width="2" fill="none" stroke="rgb(0, 0, 0)" stroke-opacity="1.0" stroke-linecap="round" stroke-linejoin="round"/>
    <path d="M 169.54798889160156 61.28400421142578 C 117.86739349365234 102.41249084472656 170.75430297851562 92.2482681274414 114.9676513671875 92.57440185546875" stroke-width="2" fill="none" stroke="rgb(0, 0, 0)" stroke-opacity="1.0" stroke-linecap="round" stroke-linejoin="round"/>
    <path d="M 139.98179626464844 151.39947509765625 C 144.21115112304688 154.66314697265625 11.949284553527832 129.2815704345703 166.9315643310547 134.5395965576172" stroke-width="2" fill="none" stroke="rgb(0, 0, 0)" stroke-opacity="1.0" stroke-linecap="round" stroke-linejoin="round"/>
    <path d="M 41.98381042480469 111.97608947753906 C 8.29050350189209 174.51678466796875 172.08688354492188 147.54666137695312 139.04208374023438 137.85745239257812" stroke-width="2" fill="none" stroke="rgb(0, 0, 0)" stroke-opacity="1.0" stroke-linecap="round" stroke-linejoin="round"/>
    <path d="M 172.42587280273438 148.732421875 C 207.53456115722656 -31.73824691772461 157.42320251464844 117.7374267578125 165.26028442382812 111.84307861328125" stroke-width="2" fill="none" stroke="rgb(0, 0, 0)" stroke-opacity="1.0" stroke-linecap="round" stroke-linejoin="round"/>
    <path d="M 98.83432006835938 96.11986541748047 C 119.15636444091797 150.3548583984375 59.06629180908203 119.6099853515625 125.41485595703125 131.7017822265625" stroke-width="2" fill="none" stroke="rgb(0, 0, 0)" stroke-opacity="1.0" stroke-linecap="round" stroke-linejoin="round"/>
    <path d="M 171.28514099121094 60.986427307128906 C 143.71963500976562 152.49856567382812 106.00910949707031 63.40220260620117 103.17938232421875 67.53966522216797" stroke-width="2" fill="none" stroke="rgb(0, 0, 0)" stroke-opacity="1.0" stroke-linecap="round" stroke-linejoin="round"/>
    <path d="M 164.56898498535156 102.68457794189453 C 191.22125244140625 117.05900573730469 187.34750366210938 156.1968994140625 129.7526092529297 151.46510314941406" stroke-width="2" fill="none" stroke="rgb(0, 0, 0)" stroke-opacity="1.0" stroke-linecap="round" stroke-linejoin="round"/>
    <path d="M 94.88967895507812 110.70620727539062 C 106.04439544677734 -1.1140027046203613 112.6701431274414 135.14405822753906 113.8031234741211 92.18321990966797" stroke-width="2" fill="none" stroke="rgb(0, 0, 0)" stroke-opacity="1.0" stroke-linecap="round" stroke-linejoin="round"/>
    <path d="M 98.21734619140625 123.46166229248047 C 122.29679870605469 142.77426147460938 108.91531372070312 150.07415771484375 82.1608657836914 142.67642211914062" stroke-width="2" fill="none" stroke="rgb(0, 0, 0)" stroke-opacity="1.0" stroke-linecap="round" stroke-linejoin="round"/>
    <path d="M 187.5670166015625 95.1993408203125 C 162.80203247070312 143.56166076660156 174.9893341064453 63.146610260009766 170.1995391845703 87.82886505126953" stroke-width="2" fill="none" stroke="rgb(0, 0, 0)" stroke-opacity="1.0" stroke-linecap="round" stroke-linejoin="round"/>
    <path d="M 122.88323211669922 148.68362426757812 C 224.4041748046875 154.7910614013672 108.3470687866211 138.070068359375 112.20404052734375 124.42274475097656" stroke-width="2" fill="none" stroke="rgb(0, 0, 0)" stroke-opacity="1.0" stroke-linecap="round" stroke-linejoin="round"/>
    <path d="M 47.94529342651367 120.83800506591797 C 63.8692626953125 124.94915008544922 37.911983489990234 86.7552490234375 96.10301971435547 92.6781234741211" stroke-width="2" fill="none" stroke="rgb(0, 0, 0)" stroke-opacity="1.0" stroke-linecap="round" stroke-linejoin="round"/>
  </g>
</svg>
