<?xml version="1.0" ?>
<svg xmlns="http://www.w3.org/2000/svg" version="1.1" width="224" height="224">
  <defs/>
  <g>
    <path d="M 76.51815032958984 134.1314239501953 C 57.0980110168457 140.5010223388672 77.81582641601562 130.29620361328125 76.85736083984375 133.7056427001953" stroke-width="2" fill="none" stroke="rgb(0, 0, 0)" stroke-opacity="1.0" stroke-linecap="round" stroke-linejoin="round"/>
    <path d="M 136.36233520507812 132.04656982421875 C 59.78776550292969 114.20001983642578 178.89804077148438 123.5888900756836 129.39810180664062 110.96643829345703" stroke-width="2" fill="none" stroke="rgb(0, 0, 0)" stroke-opacity="1.0" stroke-linecap="round" stroke-linejoin="round"/>
    <path d="M 148.9311981201172 132.61122131347656 C 231.79959106445312 148.40451049804688 79.08973693847656 170.5179443359375 98.4933090209961 103.103759765625" stroke-width="2" fill="none" stroke="rgb(0, 0, 0)" stroke-opacity="1.0" stroke-linecap="round" stroke-linejoin="round"/>
    <path d="M 50.60479736328125 140.87948608398438 C 192.95126342773438 163.30104064941406 169.4913787841797 164.15988159179688 160.79718017578125 105.08246612548828" stroke-width="2" fill="none" stroke="rgb(0, 0, 0)" stroke-opacity="1.0" stroke-linecap="round" stroke-linejoin="round"/>
    <path d="M 186.98590087890625 57.20974349975586 C 174.457763671875 62.476768493652344 163.40231323242188 101.44168853759766 142.8774871826172 86.86686706542969" stroke-width="2" fill="none" stroke="rgb(0, 0, 0)" stroke-opacity="1.0" stroke-linecap="round" stroke-linejoin="round"/>
    <path d="M 156.32388305664062 111.68921661376953 C 205.02096557617188 124.15028381347656 35.21095657348633 100.05387115478516 159.64353942871094 129.45423889160156" stroke-width="2" fill="none" stroke="rgb(0, 0, 0)" stroke-opacity="1.0" stroke-linecap="round" stroke-linejoin="round"/>
    <path d="M 44.33353805541992 118.9072494506836 C 12.820188522338867 160.95872497558594 102.6872329711914 156.5518341064453 135.1716766357422 151.01141357421875" stroke-width="2" fill="none" stroke="rgb(0, 0, 0)" stroke-opacity="1.0" stroke-linecap="round" stroke-linejoin="round"/>
    <path d="M 145.75477600097656 115.53915405273438 C 76.45829772949219 101.53169250488281 177.6739044189453 105.15390014648438 120.96174621582031 113.92436981201172" stroke-width="2" fill="none" stroke="rgb(0, 0, 0)" stroke-opacity="1.0" stroke-linecap="round" stroke-linejoin="round"/>
    <path d="M 116.09258270263672 122.48747253417969 C 138.77792358398438 117.45942687988281 167.58058166503906 107.9359359741211 115.50997161865234 115.07421112060547" stroke-width="2" fill="none" stroke="rgb(0, 0, 0)" stroke-opacity="1.0" stroke-linecap="round" stroke-linejoin="round"/>
    <path d="M 184.3023223876953 69.8561782836914 C 161.2250518798828 137.15725708007812 119.8463363647461 87.26758575439453 166.95912170410156 103.52430725097656" stroke-width="2" fill="none" stroke="rgb(0, 0, 0)" stroke-opacity="1.0" stroke-linecap="round" stroke-linejoin="round"/>
    <path d="M 155.1772918701172 155.8253631591797 C 42.96652603149414 145.00115966796875 96.24641418457031 131.42239379882812 92.66708374023438 152.1070556640625" stroke-width="2" fill="none" stroke="rgb(0, 0, 0)" stroke-opacity="1.0" stroke-linecap="round" stroke-linejoin="round"/>
    <path d="M 102.13741302490234 98.38640594482422 C 45.66259765625 94.64041137695312 66.64290618896484 129.67779541015625 49.70545196533203 116.65093994140625" stroke-width="2" fill="none" stroke="rgb(0, 0, 0)" stroke-opacity="1.0" stroke-linecap="round" stroke-linejoin="round"/>
    <path d="M 154.45741271972656 90.68875122070312 C 124.63243865966797 65.14749908447266 130.80215454101562 109.5005111694336 109.20853424072266 58.367401123046875" stroke-width="2" fill="none" stroke="rgb(0, 0, 0)" stroke-opacity="1.0" stroke-linecap="round" stroke-linejoin="round"/>
    <path d="M 186.72512817382812 57.73210144042969 C 166.50421142578125 179.33778381347656 127.77782440185547 111.01429748535156 161.68934631347656 127.4080581665039" stroke-width="2" fill="none" stroke="rgb(0, 0, 0)" stroke-opacity="1.0" stroke-linecap="round" stroke-linejoin="round"/>
    <path d="M 120.81591033935547 74.06260681152344 C 78.73186492919922 14.240972518920898 114.97277069091797 115.57837677001953 106.6244888305664 102.65504455566406" stroke-width="2" fill="none" stroke="rgb(0, 0, 0)" stroke-opacity="1.0" stroke-linecap="round" stroke-linejoin="round"/>
    <path d="M 43.24147415161133 119.10857391357422 C 44.7272834777832 135.97840881347656 39.43156814575195 114.46424865722656 61.060264587402344 122.03597259521484" stroke-width="2" fill="none" stroke="rgb(0, 0, 0)" stroke-opacity="1.0" stroke-linecap="round" stroke-linejoin="round"/>
  </g>
</svg>
