<?xml version="1.0" ?>
<svg xmlns="http://www.w3.org/2000/svg" version="1.1" width="224" height="224">
  <defs/>
  <g>
    <path d="M 46.13969039916992 139.02879333496094 C 172.2697296142578 156.3749237060547 72.1119155883789 168.9973907470703 66.75822448730469 132.5590362548828" stroke-width="2" fill="none" stroke="rgb(0, 0, 0)" stroke-opacity="1.0" stroke-linecap="round" stroke-linejoin="round"/>
    <path d="M 124.084716796875 140.1364288330078 C 63.070892333984375 111.7005615234375 156.9321746826172 143.2907257080078 140.4665069580078 129.7028350830078" stroke-width="2" fill="none" stroke="rgb(0, 0, 0)" stroke-opacity="1.0" stroke-linecap="round" stroke-linejoin="round"/>
    <path d="M 104.39087677001953 118.56426239013672 C 158.02146911621094 126.64009094238281 36.87916946411133 132.9553985595703 142.8678436279297 131.9346923828125" stroke-width="2" fill="none" stroke="rgb(0, 0, 0)" stroke-opacity="1.0" stroke-linecap="round" stroke-linejoin="round"/>
    <path d="M 70.62623596191406 157.9467315673828 C 229.65585327148438 170.01016235351562 136.33642578125 128.9888153076172 153.82174682617188 135.06675720214844" stroke-width="2" fill="none" stroke="rgb(0, 0, 0)" stroke-opacity="1.0" stroke-linecap="round" stroke-linejoin="round"/>
    <path d="M 186.25477600097656 57.72991180419922 C 174.15748596191406 47.71540832519531 145.634033203125 123.49828338623047 105.77639770507812 68.39923095703125" stroke-width="2" fill="none" stroke="rgb(0, 0, 0)" stroke-opacity="1.0" stroke-linecap="round" stroke-linejoin="round"/>
    <path d="M 135.85377502441406 136.16676330566406 C 202.6339874267578 139.28453063964844 60.4214973449707 125.19129943847656 108.75460815429688 127.25802612304688" stroke-width="2" fill="none" stroke="rgb(0, 0, 0)" stroke-opacity="1.0" stroke-linecap="round" stroke-linejoin="round"/>
    <path d="M 51.932395935058594 123.82227325439453 C -0.890344500541687 172.73394775390625 222.6690673828125 170.00372314453125 169.225830078125 128.85101318359375" stroke-width="2" fill="none" stroke="rgb(0, 0, 0)" stroke-opacity="1.0" stroke-linecap="round" stroke-linejoin="round"/>
    <path d="M 160.0730743408203 130.6125030517578 C 159.8220977783203 51.3460578918457 152.75607299804688 123.38302612304688 174.9720001220703 71.76493835449219" stroke-width="2" fill="none" stroke="rgb(0, 0, 0)" stroke-opacity="1.0" stroke-linecap="round" stroke-linejoin="round"/>
    <path d="M 130.07894897460938 117.59683990478516 C 191.5065155029297 121.48979949951172 103.86664581298828 142.77020263671875 146.7454071044922 134.57469177246094" stroke-width="2" fill="none" stroke="rgb(0, 0, 0)" stroke-opacity="1.0" stroke-linecap="round" stroke-linejoin="round"/>
    <path d="M 184.70022583007812 62.39357376098633 C 150.16651916503906 159.49893188476562 167.6475372314453 72.96412658691406 117.7218246459961 91.33976745605469" stroke-width="2" fill="none" stroke="rgb(0, 0, 0)" stroke-opacity="1.0" stroke-linecap="round" stroke-linejoin="round"/>
    <path d="M 158.0088653564453 121.79554748535156 C 159.38816833496094 161.79110717773438 172.0164031982422 152.1848602294922 137.43138122558594 148.1219940185547" stroke-width="2" fill="none" stroke="rgb(0, 0, 0)" stroke-opacity="1.0" stroke-linecap="round" stroke-linejoin="round"/>
    <path d="M 108.37224578857422 90.56285858154297 C 92.00896453857422 33.33391571044922 94.82396697998047 128.98263549804688 96.79822540283203 93.09976196289062" stroke-width="2" fill="none" stroke="rgb(0, 0, 0)" stroke-opacity="1.0" stroke-linecap="round" stroke-linejoin="round"/>
    <path d="M 128.47596740722656 130.341796875 C 139.96766662597656 157.6374053955078 172.85679626464844 114.92404174804688 129.2666015625 130.64425659179688" stroke-width="2" fill="none" stroke="rgb(0, 0, 0)" stroke-opacity="1.0" stroke-linecap="round" stroke-linejoin="round"/>
    <path d="M 176.37344360351562 92.06891632080078 C 178.98056030273438 182.05918884277344 108.44049072265625 84.80050659179688 154.31427001953125 131.04434204101562" stroke-width="2" fill="none" stroke="rgb(0, 0, 0)" stroke-opacity="1.0" stroke-linecap="round" stroke-linejoin="round"/>
    <path d="M 92.9957046508789 136.2181854248047 C 100.56158447265625 92.6098861694336 76.55029296875 124.28333282470703 102.83760833740234 100.37753295898438" stroke-width="2" fill="none" stroke="rgb(0, 0, 0)" stroke-opacity="1.0" stroke-linecap="round" stroke-linejoin="round"/>
    <path d="M 51.023193359375 132.43167114257812 C 47.67430877685547 119.97667694091797 47.27937316894531 96.23699188232422 91.95581817626953 111.61979675292969" stroke-width="2" fill="none" stroke="rgb(0, 0, 0)" stroke-opacity="1.0" stroke-linecap="round" stroke-linejoin="round"/>
  </g>
</svg>
