<?xml version="1.0" ?>
<svg xmlns="http://www.w3.org/2000/svg" version="1.1" width="224" height="224">
  <defs/>
  <g>
    <path d="M 101.5666732788086 122.49491882324219 C 196.5099639892578 144.2789764404297 81.49671173095703 115.4271240234375 155.97640991210938 127.46365356445312" stroke-width="2" fill="none" stroke="rgb(0, 0, 0)" stroke-opacity="1.0" stroke-linecap="round" stroke-linejoin="round"/>
    <path d="M 165.3614501953125 137.11685180664062 C 60.13075256347656 128.60443115234375 199.95115661621094 139.81651306152344 109.66092681884766 126.64421844482422" stroke-width="2" fill="none" stroke="rgb(0, 0, 0)" stroke-opacity="1.0" stroke-linecap="round" stroke-linejoin="round"/>
    <path d="M 112.36834716796875 87.19220733642578 C 84.4986572265625 160.7640838623047 121.70934295654297 81.15547180175781 138.91123962402344 132.76280212402344" stroke-width="2" fill="none" stroke="rgb(0, 0, 0)" stroke-opacity="1.0" stroke-linecap="round" stroke-linejoin="round"/>
    <path d="M 78.66532897949219 130.60833740234375 C 220.72763061523438 205.41909790039062 183.32894897460938 40.38528060913086 152.4679412841797 80.7114028930664" stroke-width="2" fill="none" stroke="rgb(0, 0, 0)" stroke-opacity="1.0" stroke-linecap="round" stroke-linejoin="round"/>
    <path d="M 163.75491333007812 124.35456848144531 C 121.72492218017578 111.98600006103516 194.3369903564453 111.21643829345703 154.24185180664062 106.53997039794922" stroke-width="2" fill="none" stroke="rgb(0, 0, 0)" stroke-opacity="1.0" stroke-linecap="round" stroke-linejoin="round"/>
    <path d="M 117.14326477050781 119.28034973144531 C 168.2476348876953 106.10025024414062 47.79995346069336 119.12162017822266 124.55804443359375 120.95209503173828" stroke-width="2" fill="none" stroke="rgb(0, 0, 0)" stroke-opacity="1.0" stroke-linecap="round" stroke-linejoin="round"/>
    <path d="M 77.07891845703125 92.906005859375 C -18.946361541748047 165.54591369628906 121.28578186035156 149.29762268066406 48.051231384277344 137.3291015625" stroke-width="2" fill="none" stroke="rgb(0, 0, 0)" stroke-opacity="1.0" stroke-linecap="round" stroke-linejoin="round"/>
    <path d="M 182.38499450683594 99.38623046875 C 201.97251892089844 -16.998294830322266 146.2877655029297 125.9338607788086 164.02975463867188 76.00062561035156" stroke-width="2" fill="none" stroke="rgb(0, 0, 0)" stroke-opacity="1.0" stroke-linecap="round" stroke-linejoin="round"/>
    <path d="M 151.6461181640625 156.31736755371094 C 88.32797241210938 139.65164184570312 58.865386962890625 114.77261352539062 157.27487182617188 125.47431945800781" stroke-width="2" fill="none" stroke="rgb(0, 0, 0)" stroke-opacity="1.0" stroke-linecap="round" stroke-linejoin="round"/>
    <path d="M 154.45675659179688 81.73489379882812 C 125.73615264892578 100.43080139160156 112.5048828125 43.46600341796875 97.3648910522461 39.724876403808594" stroke-width="2" fill="none" stroke="rgb(0, 0, 0)" stroke-opacity="1.0" stroke-linecap="round" stroke-linejoin="round"/>
    <path d="M 65.05499267578125 100.30168914794922 C 48.40277862548828 170.4738311767578 141.03887939453125 143.26934814453125 156.76251220703125 149.3776092529297" stroke-width="2" fill="none" stroke="rgb(0, 0, 0)" stroke-opacity="1.0" stroke-linecap="round" stroke-linejoin="round"/>
    <path d="M 87.90525817871094 104.02766418457031 C 99.29656219482422 -6.359050750732422 108.64844512939453 95.76705169677734 112.49494171142578 88.97013092041016" stroke-width="2" fill="none" stroke="rgb(0, 0, 0)" stroke-opacity="1.0" stroke-linecap="round" stroke-linejoin="round"/>
    <path d="M 42.05537414550781 146.19879150390625 C 182.17034912109375 161.8831787109375 183.52894592285156 159.0631561279297 97.90962982177734 156.7672119140625" stroke-width="2" fill="none" stroke="rgb(0, 0, 0)" stroke-opacity="1.0" stroke-linecap="round" stroke-linejoin="round"/>
    <path d="M 169.32501220703125 150.5848388671875 C 169.49578857421875 134.35870361328125 208.3303680419922 107.96183013916016 187.11358642578125 58.94621658325195" stroke-width="2" fill="none" stroke="rgb(0, 0, 0)" stroke-opacity="1.0" stroke-linecap="round" stroke-linejoin="round"/>
    <path d="M 116.89830017089844 126.5909652709961 C 203.13088989257812 118.78792572021484 184.11207580566406 169.191162109375 128.9679412841797 144.98757934570312" stroke-width="2" fill="none" stroke="rgb(0, 0, 0)" stroke-opacity="1.0" stroke-linecap="round" stroke-linejoin="round"/>
    <path d="M 92.59258270263672 72.71339416503906 C 104.51190948486328 150.06593322753906 87.9424057006836 88.72466278076172 135.02833557128906 105.5278091430664" stroke-width="2" fill="none" stroke="rgb(0, 0, 0)" stroke-opacity="1.0" stroke-linecap="round" stroke-linejoin="round"/>
  </g>
</svg>
