<?xml version="1.0" ?>
<svg xmlns="http://www.w3.org/2000/svg" version="1.1" width="224" height="224">
  <defs/>
  <g>
    <path d="M 38.49074935913086 138.06138610839844 C 107.16705322265625 158.2129669189453 52.202579498291016 148.78309631347656 66.52616119384766 127.06352233886719" stroke-width="2" fill="none" stroke="rgb(0, 0, 0)" stroke-opacity="1.0" stroke-linecap="round" stroke-linejoin="round"/>
    <path d="M 120.9843521118164 128.32882690429688 C 84.00267791748047 101.81568145751953 171.0253448486328 135.96327209472656 113.1851577758789 121.9637222290039" stroke-width="2" fill="none" stroke="rgb(0, 0, 0)" stroke-opacity="1.0" stroke-linecap="round" stroke-linejoin="round"/>
    <path d="M 147.18348693847656 114.7035903930664 C 197.62252807617188 110.13883972167969 80.86076354980469 132.04452514648438 76.57518005371094 107.10577392578125" stroke-width="2" fill="none" stroke="rgb(0, 0, 0)" stroke-opacity="1.0" stroke-linecap="round" stroke-linejoin="round"/>
    <path d="M 89.86751556396484 133.7947998046875 C 235.3169708251953 180.193115234375 141.49642944335938 116.52703857421875 173.3726806640625 89.31169891357422" stroke-width="2" fill="none" stroke="rgb(0, 0, 0)" stroke-opacity="1.0" stroke-linecap="round" stroke-linejoin="round"/>
    <path d="M 182.1840362548828 52.5208740234375 C 179.05616760253906 50.15464401245117 156.63253784179688 100.32986450195312 134.18983459472656 90.5035171508789" stroke-width="2" fill="none" stroke="rgb(0, 0, 0)" stroke-opacity="1.0" stroke-linecap="round" stroke-linejoin="round"/>
    <path d="M 140.8711700439453 122.68386840820312 C 222.8790740966797 146.81298828125 40.392337799072266 98.85893249511719 134.4346160888672 129.6253662109375" stroke-width="2" fill="none" stroke="rgb(0, 0, 0)" stroke-opacity="1.0" stroke-linecap="round" stroke-linejoin="round"/>
    <path d="M 43.61137008666992 103.9112777709961 C 1.0391998291015625 150.61131286621094 136.16944885253906 161.84664916992188 167.0033416748047 152.60220336914062" stroke-width="2" fill="none" stroke="rgb(0, 0, 0)" stroke-opacity="1.0" stroke-linecap="round" stroke-linejoin="round"/>
    <path d="M 167.13525390625 104.63501739501953 C 108.7602310180664 96.22640228271484 223.8419647216797 98.95294189453125 139.11788940429688 132.6612091064453" stroke-width="2" fill="none" stroke="rgb(0, 0, 0)" stroke-opacity="1.0" stroke-linecap="round" stroke-linejoin="round"/>
    <path d="M 108.9511489868164 106.7959213256836 C 145.66749572753906 128.66868591308594 134.1311798095703 99.3579330444336 112.87968444824219 117.50457763671875" stroke-width="2" fill="none" stroke="rgb(0, 0, 0)" stroke-opacity="1.0" stroke-linecap="round" stroke-linejoin="round"/>
    <path d="M 177.1381378173828 63.30364227294922 C 170.7003173828125 122.19671630859375 136.11038208007812 62.66318893432617 166.51284790039062 96.2061538696289" stroke-width="2" fill="none" stroke="rgb(0, 0, 0)" stroke-opacity="1.0" stroke-linecap="round" stroke-linejoin="round"/>
    <path d="M 138.71353149414062 141.4442901611328 C 33.20779037475586 135.13938903808594 101.18043518066406 139.30738830566406 103.60739135742188 146.4149169921875" stroke-width="2" fill="none" stroke="rgb(0, 0, 0)" stroke-opacity="1.0" stroke-linecap="round" stroke-linejoin="round"/>
    <path d="M 90.87032318115234 95.43489074707031 C 48.0252685546875 89.69715881347656 52.25802993774414 109.60456085205078 64.0506820678711 95.30216217041016" stroke-width="2" fill="none" stroke="rgb(0, 0, 0)" stroke-opacity="1.0" stroke-linecap="round" stroke-linejoin="round"/>
    <path d="M 117.80598449707031 92.9950942993164 C 133.4169158935547 82.3080062866211 121.83888244628906 106.49297332763672 100.30086517333984 66.20526123046875" stroke-width="2" fill="none" stroke="rgb(0, 0, 0)" stroke-opacity="1.0" stroke-linecap="round" stroke-linejoin="round"/>
    <path d="M 183.2116241455078 51.386024475097656 C 175.1031951904297 171.6734619140625 109.67427825927734 99.70858764648438 164.58265686035156 120.90558624267578" stroke-width="2" fill="none" stroke="rgb(0, 0, 0)" stroke-opacity="1.0" stroke-linecap="round" stroke-linejoin="round"/>
    <path d="M 111.6613540649414 83.65806579589844 C 84.21929931640625 38.74018859863281 109.39644622802734 118.10216522216797 103.61551666259766 97.7061538696289" stroke-width="2" fill="none" stroke="rgb(0, 0, 0)" stroke-opacity="1.0" stroke-linecap="round" stroke-linejoin="round"/>
    <path d="M 48.4183464050293 140.898193359375 C 37.791526794433594 105.9358139038086 35.029884338378906 83.66275787353516 76.72843170166016 103.4892349243164" stroke-width="2" fill="none" stroke="rgb(0, 0, 0)" stroke-opacity="1.0" stroke-linecap="round" stroke-linejoin="round"/>
  </g>
</svg>
