<?xml version="1.0" ?>
<svg xmlns="http://www.w3.org/2000/svg" version="1.1" width="224" height="224">
  <defs/>
  <g>
    <path d="M 50.75397491455078 153.05857849121094 C 159.2279052734375 167.16140747070312 64.16621398925781 162.9108428955078 75.70730590820312 121.22929382324219" stroke-width="2" fill="none" stroke="rgb(0, 0, 0)" stroke-opacity="1.0" stroke-linecap="round" stroke-linejoin="round"/>
    <path d="M 136.51528930664062 125.46471405029297 C 98.80116271972656 112.8067855834961 204.23419189453125 119.62675476074219 109.69049835205078 121.97073364257812" stroke-width="2" fill="none" stroke="rgb(0, 0, 0)" stroke-opacity="1.0" stroke-linecap="round" stroke-linejoin="round"/>
    <path d="M 101.62049102783203 125.9786605834961 C 165.5051727294922 126.32479095458984 23.436800003051758 112.39823150634766 158.31597900390625 144.4213409423828" stroke-width="2" fill="none" stroke="rgb(0, 0, 0)" stroke-opacity="1.0" stroke-linecap="round" stroke-linejoin="round"/>
    <path d="M 92.43964385986328 146.27093505859375 C 222.81777954101562 184.16531372070312 169.8834991455078 101.41728210449219 168.53155517578125 125.27700805664062" stroke-width="2" fill="none" stroke="rgb(0, 0, 0)" stroke-opacity="1.0" stroke-linecap="round" stroke-linejoin="round"/>
    <path d="M 183.4720916748047 58.909671783447266 C 177.16641235351562 61.634986877441406 175.3382568359375 104.205078125 128.13002014160156 92.51761627197266" stroke-width="2" fill="none" stroke="rgb(0, 0, 0)" stroke-opacity="1.0" stroke-linecap="round" stroke-linejoin="round"/>
    <path d="M 127.0158462524414 149.5147705078125 C 227.12020874023438 130.11985778808594 66.68246459960938 140.7852325439453 154.69435119628906 137.5000457763672" stroke-width="2" fill="none" stroke="rgb(0, 0, 0)" stroke-opacity="1.0" stroke-linecap="round" stroke-linejoin="round"/>
    <path d="M 55.158485412597656 106.4781723022461 C -1.8870782852172852 184.24221801757812 186.75465393066406 166.81124877929688 174.94602966308594 119.9446792602539" stroke-width="2" fill="none" stroke="rgb(0, 0, 0)" stroke-opacity="1.0" stroke-linecap="round" stroke-linejoin="round"/>
    <path d="M 175.5841522216797 127.8112564086914 C 215.70437622070312 7.015964031219482 123.53813934326172 105.21173095703125 163.29605102539062 94.32546997070312" stroke-width="2" fill="none" stroke="rgb(0, 0, 0)" stroke-opacity="1.0" stroke-linecap="round" stroke-linejoin="round"/>
    <path d="M 105.28357696533203 112.66262817382812 C 160.54457092285156 147.2816162109375 39.48179626464844 119.51860046386719 120.08964538574219 128.8606414794922" stroke-width="2" fill="none" stroke="rgb(0, 0, 0)" stroke-opacity="1.0" stroke-linecap="round" stroke-linejoin="round"/>
    <path d="M 178.79388427734375 70.48655700683594 C 160.59866333007812 159.80894470214844 118.02489471435547 75.04544067382812 101.89903259277344 68.94274139404297" stroke-width="2" fill="none" stroke="rgb(0, 0, 0)" stroke-opacity="1.0" stroke-linecap="round" stroke-linejoin="round"/>
    <path d="M 182.2694549560547 135.01295471191406 C 192.41380310058594 145.68734741210938 182.42420959472656 161.00271606445312 125.82318115234375 146.44769287109375" stroke-width="2" fill="none" stroke="rgb(0, 0, 0)" stroke-opacity="1.0" stroke-linecap="round" stroke-linejoin="round"/>
    <path d="M 119.20137023925781 133.1355438232422 C 89.63662719726562 7.704911708831787 99.3824234008789 117.05428314208984 98.23455047607422 100.99977111816406" stroke-width="2" fill="none" stroke="rgb(0, 0, 0)" stroke-opacity="1.0" stroke-linecap="round" stroke-linejoin="round"/>
    <path d="M 81.73990631103516 142.6591033935547 C 130.99249267578125 142.9771728515625 130.78306579589844 132.75599670410156 89.35221099853516 129.1725311279297" stroke-width="2" fill="none" stroke="rgb(0, 0, 0)" stroke-opacity="1.0" stroke-linecap="round" stroke-linejoin="round"/>
    <path d="M 183.52784729003906 63.72539138793945 C 180.92556762695312 163.58631896972656 151.44898986816406 81.6702880859375 167.69142150878906 123.15204620361328" stroke-width="2" fill="none" stroke="rgb(0, 0, 0)" stroke-opacity="1.0" stroke-linecap="round" stroke-linejoin="round"/>
    <path d="M 108.77365112304688 131.03884887695312 C 114.06891632080078 95.93267059326172 87.34554290771484 151.676025390625 132.90286254882812 111.889404296875" stroke-width="2" fill="none" stroke="rgb(0, 0, 0)" stroke-opacity="1.0" stroke-linecap="round" stroke-linejoin="round"/>
    <path d="M 57.475868225097656 139.20913696289062 C 59.11422348022461 114.31311798095703 42.85923385620117 89.30436706542969 97.50634002685547 97.48387145996094" stroke-width="2" fill="none" stroke="rgb(0, 0, 0)" stroke-opacity="1.0" stroke-linecap="round" stroke-linejoin="round"/>
  </g>
</svg>
