<?xml version="1.0" ?>
<svg xmlns="http://www.w3.org/2000/svg" version="1.1" width="224" height="224">
  <defs/>
  <g>
    <path d="M 58.86552810668945 122.6713638305664 C 28.913625717163086 137.3429718017578 98.51146697998047 78.54483032226562 99.7544937133789 119.06351470947266" stroke-width="2" fill="none" stroke="rgb(0, 0, 0)" stroke-opacity="1.0" stroke-linecap="round" stroke-linejoin="round"/>
    <path d="M 100.1752700805664 136.21041870117188 C 64.48650360107422 96.39167022705078 115.79275512695312 133.7395782470703 87.83981323242188 115.71589660644531" stroke-width="2" fill="none" stroke="rgb(0, 0, 0)" stroke-opacity="1.0" stroke-linecap="round" stroke-linejoin="round"/>
    <path d="M 126.98208618164062 114.86520385742188 C 221.80401611328125 153.1019744873047 52.51192092895508 163.62855529785156 122.17281341552734 102.71109771728516" stroke-width="2" fill="none" stroke="rgb(0, 0, 0)" stroke-opacity="1.0" stroke-linecap="round" stroke-linejoin="round"/>
    <path d="M 48.56059646606445 154.65689086914062 C 176.1611785888672 196.4129180908203 172.73968505859375 170.15728759765625 152.76637268066406 109.06327819824219" stroke-width="2" fill="none" stroke="rgb(0, 0, 0)" stroke-opacity="1.0" stroke-linecap="round" stroke-linejoin="round"/>
    <path d="M 186.89697265625 60.249141693115234 C 181.5667266845703 43.241661071777344 145.27674865722656 122.97140502929688 115.43856048583984 71.40739440917969" stroke-width="2" fill="none" stroke="rgb(0, 0, 0)" stroke-opacity="1.0" stroke-linecap="round" stroke-linejoin="round"/>
    <path d="M 109.15235137939453 137.5417022705078 C 119.68915557861328 147.90176391601562 116.2586898803711 142.12591552734375 109.81415557861328 136.28158569335938" stroke-width="2" fill="none" stroke="rgb(0, 0, 0)" stroke-opacity="1.0" stroke-linecap="round" stroke-linejoin="round"/>
    <path d="M 49.72648620605469 118.41950225830078 C 7.9767165184021 163.20260620117188 80.1668472290039 147.36834716796875 139.79183959960938 163.60153198242188" stroke-width="2" fill="none" stroke="rgb(0, 0, 0)" stroke-opacity="1.0" stroke-linecap="round" stroke-linejoin="round"/>
    <path d="M 134.63328552246094 129.7340087890625 C 78.6070327758789 122.17291259765625 229.25218200683594 117.6502685546875 102.57244110107422 120.96378326416016" stroke-width="2" fill="none" stroke="rgb(0, 0, 0)" stroke-opacity="1.0" stroke-linecap="round" stroke-linejoin="round"/>
    <path d="M 89.05525970458984 148.54258728027344 C 32.31232833862305 138.20033264160156 86.55315399169922 134.11306762695312 66.2718505859375 140.59088134765625" stroke-width="2" fill="none" stroke="rgb(0, 0, 0)" stroke-opacity="1.0" stroke-linecap="round" stroke-linejoin="round"/>
    <path d="M 180.28790283203125 64.12211608886719 C 152.69638061523438 113.87959289550781 137.68739318847656 94.9823226928711 163.67161560058594 65.34644317626953" stroke-width="2" fill="none" stroke="rgb(0, 0, 0)" stroke-opacity="1.0" stroke-linecap="round" stroke-linejoin="round"/>
    <path d="M 149.53416442871094 138.55044555664062 C 101.4035415649414 132.48159790039062 130.2052001953125 133.95773315429688 168.6256561279297 150.82061767578125" stroke-width="2" fill="none" stroke="rgb(0, 0, 0)" stroke-opacity="1.0" stroke-linecap="round" stroke-linejoin="round"/>
    <path d="M 62.83110046386719 96.9979248046875 C 37.33460998535156 106.97335052490234 12.355193138122559 150.60763549804688 65.68170166015625 129.13816833496094" stroke-width="2" fill="none" stroke="rgb(0, 0, 0)" stroke-opacity="1.0" stroke-linecap="round" stroke-linejoin="round"/>
    <path d="M 167.4970703125 95.51502227783203 C 106.13094329833984 59.01799011230469 112.44391632080078 123.52860260009766 96.81371307373047 71.84815979003906" stroke-width="2" fill="none" stroke="rgb(0, 0, 0)" stroke-opacity="1.0" stroke-linecap="round" stroke-linejoin="round"/>
    <path d="M 182.3463134765625 56.20953369140625 C 177.83331298828125 106.25057220458984 135.8062286376953 149.57379150390625 154.63270568847656 124.03838348388672" stroke-width="2" fill="none" stroke="rgb(0, 0, 0)" stroke-opacity="1.0" stroke-linecap="round" stroke-linejoin="round"/>
    <path d="M 104.98387908935547 69.77894592285156 C 94.92925262451172 32.889739990234375 97.2507095336914 149.39500427246094 125.89974212646484 97.78514099121094" stroke-width="2" fill="none" stroke="rgb(0, 0, 0)" stroke-opacity="1.0" stroke-linecap="round" stroke-linejoin="round"/>
    <path d="M 42.52167892456055 119.30645751953125 C 35.7584114074707 81.26826477050781 68.37040710449219 95.17772674560547 95.76860046386719 87.10570526123047" stroke-width="2" fill="none" stroke="rgb(0, 0, 0)" stroke-opacity="1.0" stroke-linecap="round" stroke-linejoin="round"/>
  </g>
</svg>
