<?xml version="1.0" ?>
<svg xmlns="http://www.w3.org/2000/svg" version="1.1" width="224" height="224">
  <defs/>
  <g>
    <path d="M 83.9802474975586 136.33445739746094 C 76.0614013671875 161.80392456054688 21.618865966796875 138.91123962402344 37.735313415527344 121.98037719726562" stroke-width="2" fill="none" stroke="rgb(0, 0, 0)" stroke-opacity="1.0" stroke-linecap="round" stroke-linejoin="round"/>
    <path d="M 145.97430419921875 120.7039566040039 C 44.57756423950195 141.94992065429688 209.97329711914062 153.2132568359375 142.2429962158203 146.8853759765625" stroke-width="2" fill="none" stroke="rgb(0, 0, 0)" stroke-opacity="1.0" stroke-linecap="round" stroke-linejoin="round"/>
    <path d="M 128.77783203125 114.8414535522461 C 201.33583068847656 113.89678955078125 81.43110656738281 122.9108657836914 145.2484130859375 129.79495239257812" stroke-width="2" fill="none" stroke="rgb(0, 0, 0)" stroke-opacity="1.0" stroke-linecap="round" stroke-linejoin="round"/>
    <path d="M 68.07280731201172 141.73988342285156 C 220.57644653320312 193.50283813476562 138.17147827148438 111.69483947753906 173.02224731445312 85.92852783203125" stroke-width="2" fill="none" stroke="rgb(0, 0, 0)" stroke-opacity="1.0" stroke-linecap="round" stroke-linejoin="round"/>
    <path d="M 192.4458770751953 50.26539993286133 C 179.09588623046875 33.54300308227539 141.12274169921875 115.21671295166016 112.22020721435547 60.52493667602539" stroke-width="2" fill="none" stroke="rgb(0, 0, 0)" stroke-opacity="1.0" stroke-linecap="round" stroke-linejoin="round"/>
    <path d="M 130.9317626953125 116.38494110107422 C 222.7499542236328 118.45758819580078 102.88842010498047 101.32217407226562 168.60963439941406 114.84352111816406" stroke-width="2" fill="none" stroke="rgb(0, 0, 0)" stroke-opacity="1.0" stroke-linecap="round" stroke-linejoin="round"/>
    <path d="M 47.85052490234375 94.9255142211914 C -11.078886032104492 174.0458221435547 177.41261291503906 146.79063415527344 143.329833984375 157.85302734375" stroke-width="2" fill="none" stroke="rgb(0, 0, 0)" stroke-opacity="1.0" stroke-linecap="round" stroke-linejoin="round"/>
    <path d="M 166.4513397216797 111.5810775756836 C 131.65573120117188 73.02153778076172 167.70042419433594 117.97804260253906 179.13746643066406 74.86865234375" stroke-width="2" fill="none" stroke="rgb(0, 0, 0)" stroke-opacity="1.0" stroke-linecap="round" stroke-linejoin="round"/>
    <path d="M 129.6167755126953 109.38558197021484 C 176.95008850097656 122.59783935546875 87.44331359863281 116.59037780761719 148.51638793945312 124.44583129882812" stroke-width="2" fill="none" stroke="rgb(0, 0, 0)" stroke-opacity="1.0" stroke-linecap="round" stroke-linejoin="round"/>
    <path d="M 184.83917236328125 53.709041595458984 C 153.55926513671875 105.5676498413086 157.49169921875 79.16083526611328 145.39114379882812 79.61853790283203" stroke-width="2" fill="none" stroke="rgb(0, 0, 0)" stroke-opacity="1.0" stroke-linecap="round" stroke-linejoin="round"/>
    <path d="M 157.97862243652344 114.43579864501953 C 109.57115173339844 126.13601684570312 202.48355102539062 129.3563995361328 116.76423645019531 125.22431945800781" stroke-width="2" fill="none" stroke="rgb(0, 0, 0)" stroke-opacity="1.0" stroke-linecap="round" stroke-linejoin="round"/>
    <path d="M 127.63314819335938 78.41928100585938 C 72.58808898925781 6.8782525062561035 118.1976318359375 114.36347198486328 113.62297058105469 95.44872283935547" stroke-width="2" fill="none" stroke="rgb(0, 0, 0)" stroke-opacity="1.0" stroke-linecap="round" stroke-linejoin="round"/>
    <path d="M 120.36919403076172 121.78176879882812 C 185.71051025390625 121.72180938720703 201.4486541748047 154.68670654296875 91.93815612792969 142.6527862548828" stroke-width="2" fill="none" stroke="rgb(0, 0, 0)" stroke-opacity="1.0" stroke-linecap="round" stroke-linejoin="round"/>
    <path d="M 188.4322967529297 49.593318939208984 C 175.49349975585938 172.46424865722656 81.32125854492188 136.65814208984375 115.6197509765625 115.21379089355469" stroke-width="2" fill="none" stroke="rgb(0, 0, 0)" stroke-opacity="1.0" stroke-linecap="round" stroke-linejoin="round"/>
    <path d="M 116.13299560546875 139.05545043945312 C 96.4439468383789 84.3534927368164 108.22509765625 137.05743408203125 120.70538330078125 95.15585327148438" stroke-width="2" fill="none" stroke="rgb(0, 0, 0)" stroke-opacity="1.0" stroke-linecap="round" stroke-linejoin="round"/>
    <path d="M 72.73287963867188 107.109375 C 40.77573776245117 107.89325714111328 52.446285247802734 81.3260726928711 106.15203094482422 87.71680450439453" stroke-width="2" fill="none" stroke="rgb(0, 0, 0)" stroke-opacity="1.0" stroke-linecap="round" stroke-linejoin="round"/>
  </g>
</svg>
