<?xml version="1.0" ?>
<svg xmlns="http://www.w3.org/2000/svg" version="1.1" width="224" height="224">
  <defs/>
  <g>
    <path d="M 59.37845993041992 139.47596740722656 C 18.56077003479004 119.10326385498047 95.89503479003906 68.1191635131836 84.16447448730469 126.70075988769531" stroke-width="2" fill="none" stroke="rgb(0, 0, 0)" stroke-opacity="1.0" stroke-linecap="round" stroke-linejoin="round"/>
    <path d="M 151.8262939453125 140.84072875976562 C 113.34561920166016 132.4121551513672 112.37484741210938 165.4250030517578 70.35548400878906 132.8115234375" stroke-width="2" fill="none" stroke="rgb(0, 0, 0)" stroke-opacity="1.0" stroke-linecap="round" stroke-linejoin="round"/>
    <path d="M 100.95886993408203 114.07182312011719 C 176.28689575195312 121.21985626220703 74.30379486083984 120.12681579589844 122.7578353881836 127.28760528564453" stroke-width="2" fill="none" stroke="rgb(0, 0, 0)" stroke-opacity="1.0" stroke-linecap="round" stroke-linejoin="round"/>
    <path d="M 108.1425552368164 143.83457946777344 C 178.3080291748047 157.7918243408203 158.6260986328125 159.9939422607422 162.7864990234375 120.45584869384766" stroke-width="2" fill="none" stroke="rgb(0, 0, 0)" stroke-opacity="1.0" stroke-linecap="round" stroke-linejoin="round"/>
    <path d="M 149.69471740722656 110.49327087402344 C 180.96083068847656 65.44027709960938 135.8771209716797 116.98380279541016 106.64171600341797 68.29655456542969" stroke-width="2" fill="none" stroke="rgb(0, 0, 0)" stroke-opacity="1.0" stroke-linecap="round" stroke-linejoin="round"/>
    <path d="M 118.99849700927734 106.72309875488281 C 142.5800323486328 105.37477111816406 133.3438262939453 133.71507263183594 108.85587310791016 114.02230834960938" stroke-width="2" fill="none" stroke="rgb(0, 0, 0)" stroke-opacity="1.0" stroke-linecap="round" stroke-linejoin="round"/>
    <path d="M 48.38148498535156 114.21826934814453 C 9.749059677124023 150.06861877441406 87.56536102294922 171.15618896484375 170.05650329589844 166.5640411376953" stroke-width="2" fill="none" stroke="rgb(0, 0, 0)" stroke-opacity="1.0" stroke-linecap="round" stroke-linejoin="round"/>
    <path d="M 151.55184936523438 121.60736083984375 C 121.10665130615234 133.00595092773438 168.14280700683594 106.0191650390625 97.860595703125 119.50264739990234" stroke-width="2" fill="none" stroke="rgb(0, 0, 0)" stroke-opacity="1.0" stroke-linecap="round" stroke-linejoin="round"/>
    <path d="M 150.4650421142578 154.1383819580078 C 99.58177185058594 150.19442749023438 112.05018615722656 135.73526000976562 80.09927368164062 136.3721466064453" stroke-width="2" fill="none" stroke="rgb(0, 0, 0)" stroke-opacity="1.0" stroke-linecap="round" stroke-linejoin="round"/>
    <path d="M 183.98899841308594 61.56362533569336 C 171.2262420654297 130.12060546875 122.1173324584961 117.54668426513672 182.11578369140625 60.554874420166016" stroke-width="2" fill="none" stroke="rgb(0, 0, 0)" stroke-opacity="1.0" stroke-linecap="round" stroke-linejoin="round"/>
    <path d="M 166.78857421875 104.59066772460938 C 159.48793029785156 132.2691650390625 186.06068420410156 132.58621215820312 169.54641723632812 156.1416473388672" stroke-width="2" fill="none" stroke="rgb(0, 0, 0)" stroke-opacity="1.0" stroke-linecap="round" stroke-linejoin="round"/>
    <path d="M 69.92132568359375 156.2212677001953 C 37.19430923461914 149.2397918701172 28.087068557739258 145.8479766845703 105.04243469238281 155.8599853515625" stroke-width="2" fill="none" stroke="rgb(0, 0, 0)" stroke-opacity="1.0" stroke-linecap="round" stroke-linejoin="round"/>
    <path d="M 98.6748275756836 105.84944152832031 C 125.6504135131836 110.49056243896484 98.87479400634766 95.4159927368164 102.35038757324219 67.59243774414062" stroke-width="2" fill="none" stroke="rgb(0, 0, 0)" stroke-opacity="1.0" stroke-linecap="round" stroke-linejoin="round"/>
    <path d="M 185.1029510498047 60.86140060424805 C 188.89019775390625 94.67591094970703 175.0398406982422 106.36360168457031 163.3828582763672 133.59959411621094" stroke-width="2" fill="none" stroke="rgb(0, 0, 0)" stroke-opacity="1.0" stroke-linecap="round" stroke-linejoin="round"/>
    <path d="M 99.61355590820312 67.16353607177734 C 69.30247497558594 94.20974731445312 79.323974609375 135.01011657714844 97.02825164794922 74.75910186767578" stroke-width="2" fill="none" stroke="rgb(0, 0, 0)" stroke-opacity="1.0" stroke-linecap="round" stroke-linejoin="round"/>
    <path d="M 46.333866119384766 148.7992401123047 C 31.942461013793945 112.04407501220703 41.452667236328125 129.95799255371094 61.914119720458984 124.27483367919922" stroke-width="2" fill="none" stroke="rgb(0, 0, 0)" stroke-opacity="1.0" stroke-linecap="round" stroke-linejoin="round"/>
  </g>
</svg>
