<?xml version="1.0" ?>
<svg xmlns="http://www.w3.org/2000/svg" version="1.1" width="224" height="224">
  <defs/>
  <g>
    <path d="M 42.350250244140625 125.9461441040039 C 74.963134765625 84.57035827636719 63.07691955566406 96.51383209228516 90.28308868408203 94.74345397949219" stroke-width="2" fill="none" stroke="rgb(0, 0, 0)" stroke-opacity="1.0" stroke-linecap="round" stroke-linejoin="round"/>
    <path d="M 41.95928955078125 139.4784698486328 C 127.82225799560547 179.03741455078125 171.31591796875 135.65785217285156 139.63499450683594 140.58827209472656" stroke-width="2" fill="none" stroke="rgb(0, 0, 0)" stroke-opacity="1.0" stroke-linecap="round" stroke-linejoin="round"/>
    <path d="M 155.3381805419922 130.09146118164062 C 80.72406768798828 95.37420654296875 141.57273864746094 162.5353240966797 104.80084991455078 87.96156311035156" stroke-width="2" fill="none" stroke="rgb(0, 0, 0)" stroke-opacity="1.0" stroke-linecap="round" stroke-linejoin="round"/>
    <path d="M 165.33265686035156 138.61151123046875 C 139.53033447265625 98.52030944824219 184.32980346679688 132.84239196777344 151.26319885253906 127.10823059082031" stroke-width="2" fill="none" stroke="rgb(0, 0, 0)" stroke-opacity="1.0" stroke-linecap="round" stroke-linejoin="round"/>
    <path d="M 137.44078063964844 105.80621337890625 C 113.27381134033203 121.40442657470703 158.6663360595703 59.7445182800293 170.25469970703125 100.28849792480469" stroke-width="2" fill="none" stroke="rgb(0, 0, 0)" stroke-opacity="1.0" stroke-linecap="round" stroke-linejoin="round"/>
    <path d="M 171.00436401367188 86.58287048339844 C 86.71492004394531 84.97636413574219 144.77684020996094 93.423095703125 135.54444885253906 87.97067260742188" stroke-width="2" fill="none" stroke="rgb(0, 0, 0)" stroke-opacity="1.0" stroke-linecap="round" stroke-linejoin="round"/>
    <path d="M 103.25466918945312 81.58332824707031 C 114.96318817138672 144.89585876464844 157.86141967773438 123.69207763671875 107.18743133544922 88.2647933959961" stroke-width="2" fill="none" stroke="rgb(0, 0, 0)" stroke-opacity="1.0" stroke-linecap="round" stroke-linejoin="round"/>
    <path d="M 110.60409545898438 149.92501831054688 C 100.45082092285156 129.9151611328125 39.218055725097656 155.3162841796875 44.86526107788086 130.21795654296875" stroke-width="2" fill="none" stroke="rgb(0, 0, 0)" stroke-opacity="1.0" stroke-linecap="round" stroke-linejoin="round"/>
    <path d="M 168.25494384765625 121.96406555175781 C 188.6338348388672 127.85211944580078 132.4603729248047 109.83734130859375 153.60562133789062 133.79928588867188" stroke-width="2" fill="none" stroke="rgb(0, 0, 0)" stroke-opacity="1.0" stroke-linecap="round" stroke-linejoin="round"/>
    <path d="M 146.85641479492188 115.5304183959961 C 171.8650665283203 114.43594360351562 125.90233612060547 107.19366455078125 155.4042510986328 110.16363525390625" stroke-width="2" fill="none" stroke="rgb(0, 0, 0)" stroke-opacity="1.0" stroke-linecap="round" stroke-linejoin="round"/>
    <path d="M 164.6949005126953 92.57691955566406 C 193.44049072265625 51.458160400390625 185.82669067382812 60.77304458618164 156.52188110351562 89.80399322509766" stroke-width="2" fill="none" stroke="rgb(0, 0, 0)" stroke-opacity="1.0" stroke-linecap="round" stroke-linejoin="round"/>
    <path d="M 175.3118438720703 149.70277404785156 C 137.9156036376953 157.8894500732422 194.74749755859375 82.03315734863281 155.26922607421875 133.91847229003906" stroke-width="2" fill="none" stroke="rgb(0, 0, 0)" stroke-opacity="1.0" stroke-linecap="round" stroke-linejoin="round"/>
    <path d="M 70.11697387695312 132.8246612548828 C 88.81297302246094 153.54698181152344 85.12413787841797 133.5664520263672 150.00975036621094 153.02882385253906" stroke-width="2" fill="none" stroke="rgb(0, 0, 0)" stroke-opacity="1.0" stroke-linecap="round" stroke-linejoin="round"/>
    <path d="M 156.1110076904297 132.47705078125 C 81.0693130493164 81.03660583496094 86.60026550292969 51.240360260009766 126.9754638671875 87.82941436767578" stroke-width="2" fill="none" stroke="rgb(0, 0, 0)" stroke-opacity="1.0" stroke-linecap="round" stroke-linejoin="round"/>
    <path d="M 167.6444091796875 109.5362319946289 C 157.6822967529297 92.63875579833984 171.0657196044922 145.22732543945312 182.65359497070312 63.65830993652344" stroke-width="2" fill="none" stroke="rgb(0, 0, 0)" stroke-opacity="1.0" stroke-linecap="round" stroke-linejoin="round"/>
    <path d="M 73.02854919433594 110.03960418701172 C 56.641273498535156 97.28512573242188 11.413592338562012 141.67369079589844 68.6749496459961 103.87089538574219" stroke-width="2" fill="none" stroke="rgb(0, 0, 0)" stroke-opacity="1.0" stroke-linecap="round" stroke-linejoin="round"/>
  </g>
</svg>
