<?xml version="1.0" ?>
<svg xmlns="http://www.w3.org/2000/svg" version="1.1" width="224" height="224">
  <defs/>
  <g>
    <path d="M 38.39173889160156 126.91484069824219 C 63.431068420410156 115.4388656616211 31.64794921875 86.76170349121094 112.90928649902344 96.67047119140625" stroke-width="2" fill="none" stroke="rgb(0, 0, 0)" stroke-opacity="1.0" stroke-linecap="round" stroke-linejoin="round"/>
    <path d="M 85.27263641357422 150.56680297851562 C 193.7845458984375 135.40602111816406 163.3831329345703 172.7224578857422 136.78831481933594 156.1902618408203" stroke-width="2" fill="none" stroke="rgb(0, 0, 0)" stroke-opacity="1.0" stroke-linecap="round" stroke-linejoin="round"/>
    <path d="M 135.81390380859375 105.31584167480469 C 96.06151580810547 99.0453109741211 152.51666259765625 110.39152526855469 118.61705780029297 110.82135772705078" stroke-width="2" fill="none" stroke="rgb(0, 0, 0)" stroke-opacity="1.0" stroke-linecap="round" stroke-linejoin="round"/>
    <path d="M 144.12425231933594 96.3270034790039 C 157.4993133544922 113.2815170288086 116.0068359375 80.71990203857422 163.52432250976562 103.48127746582031" stroke-width="2" fill="none" stroke="rgb(0, 0, 0)" stroke-opacity="1.0" stroke-linecap="round" stroke-linejoin="round"/>
    <path d="M 126.13184356689453 88.29145050048828 C 124.94303131103516 99.02117919921875 69.14761352539062 20.242267608642578 119.51390075683594 119.0734634399414" stroke-width="2" fill="none" stroke="rgb(0, 0, 0)" stroke-opacity="1.0" stroke-linecap="round" stroke-linejoin="round"/>
    <path d="M 134.27439880371094 80.71026611328125 C 86.11341857910156 87.61370086669922 176.72265625 95.17096710205078 172.79689025878906 81.02916717529297" stroke-width="2" fill="none" stroke="rgb(0, 0, 0)" stroke-opacity="1.0" stroke-linecap="round" stroke-linejoin="round"/>
    <path d="M 141.67514038085938 113.31273651123047 C 85.64640045166016 123.77497100830078 158.92239379882812 125.55328369140625 128.1997528076172 102.21419525146484" stroke-width="2" fill="none" stroke="rgb(0, 0, 0)" stroke-opacity="1.0" stroke-linecap="round" stroke-linejoin="round"/>
    <path d="M 89.37271881103516 149.64686584472656 C 258.1515808105469 149.39866638183594 -36.78477478027344 176.84715270996094 59.74689483642578 110.35308074951172" stroke-width="2" fill="none" stroke="rgb(0, 0, 0)" stroke-opacity="1.0" stroke-linecap="round" stroke-linejoin="round"/>
    <path d="M 180.7315673828125 134.25791931152344 C 225.83497619628906 154.55653381347656 45.80774688720703 88.62154388427734 131.51951599121094 114.14092254638672" stroke-width="2" fill="none" stroke="rgb(0, 0, 0)" stroke-opacity="1.0" stroke-linecap="round" stroke-linejoin="round"/>
    <path d="M 170.944580078125 128.36343383789062 C 198.03919982910156 118.37043762207031 122.55901336669922 160.413818359375 140.82424926757812 110.4942626953125" stroke-width="2" fill="none" stroke="rgb(0, 0, 0)" stroke-opacity="1.0" stroke-linecap="round" stroke-linejoin="round"/>
    <path d="M 153.5812225341797 85.31275939941406 C 222.0297393798828 18.99547576904297 151.7748260498047 111.64968872070312 158.14210510253906 91.8081283569336" stroke-width="2" fill="none" stroke="rgb(0, 0, 0)" stroke-opacity="1.0" stroke-linecap="round" stroke-linejoin="round"/>
    <path d="M 157.37625122070312 156.53961181640625 C 128.57421875 164.1586151123047 166.21507263183594 157.66561889648438 121.68365478515625 156.4407196044922" stroke-width="2" fill="none" stroke="rgb(0, 0, 0)" stroke-opacity="1.0" stroke-linecap="round" stroke-linejoin="round"/>
    <path d="M 101.4952621459961 114.32013702392578 C 165.58226013183594 165.1132354736328 68.33684539794922 106.7137680053711 134.8443603515625 114.72125244140625" stroke-width="2" fill="none" stroke="rgb(0, 0, 0)" stroke-opacity="1.0" stroke-linecap="round" stroke-linejoin="round"/>
    <path d="M 133.44482421875 101.48959350585938 C 103.14308166503906 152.84686279296875 104.11109924316406 45.536563873291016 109.29463195800781 99.5731201171875" stroke-width="2" fill="none" stroke="rgb(0, 0, 0)" stroke-opacity="1.0" stroke-linecap="round" stroke-linejoin="round"/>
    <path d="M 165.98544311523438 113.13748931884766 C 126.62908935546875 107.98062133789062 175.3275604248047 138.5238494873047 183.03306579589844 60.517478942871094" stroke-width="2" fill="none" stroke="rgb(0, 0, 0)" stroke-opacity="1.0" stroke-linecap="round" stroke-linejoin="round"/>
    <path d="M 65.5035400390625 138.53646850585938 C 76.80667114257812 151.6930694580078 55.19280242919922 138.0402374267578 86.54032897949219 154.70223999023438" stroke-width="2" fill="none" stroke="rgb(0, 0, 0)" stroke-opacity="1.0" stroke-linecap="round" stroke-linejoin="round"/>
  </g>
</svg>
