<?xml version="1.0" ?>
<svg xmlns="http://www.w3.org/2000/svg" version="1.1" width="224" height="224">
  <defs/>
  <g>
    <path d="M 42.84553146362305 126.01216125488281 C 71.59944915771484 84.9113998413086 83.59090423583984 96.8944320678711 96.0650405883789 94.88990783691406" stroke-width="2" fill="none" stroke="rgb(0, 0, 0)" stroke-opacity="1.0" stroke-linecap="round" stroke-linejoin="round"/>
    <path d="M 47.8570556640625 137.1619110107422 C 225.26300048828125 177.84695434570312 206.1959228515625 125.57395935058594 165.78787231445312 155.26019287109375" stroke-width="2" fill="none" stroke="rgb(0, 0, 0)" stroke-opacity="1.0" stroke-linecap="round" stroke-linejoin="round"/>
    <path d="M 145.62271118164062 124.33160400390625 C 115.19178771972656 113.3772201538086 183.32769775390625 154.64698791503906 122.0491943359375 117.53575134277344" stroke-width="2" fill="none" stroke="rgb(0, 0, 0)" stroke-opacity="1.0" stroke-linecap="round" stroke-linejoin="round"/>
    <path d="M 158.86227416992188 112.98506164550781 C 144.69577026367188 133.009521484375 181.6875 100.39568328857422 161.03907775878906 130.8064727783203" stroke-width="2" fill="none" stroke="rgb(0, 0, 0)" stroke-opacity="1.0" stroke-linecap="round" stroke-linejoin="round"/>
    <path d="M 131.83631896972656 113.9498062133789 C 104.19913482666016 129.9259490966797 139.4114227294922 71.33456420898438 156.46475219726562 99.31353759765625" stroke-width="2" fill="none" stroke="rgb(0, 0, 0)" stroke-opacity="1.0" stroke-linecap="round" stroke-linejoin="round"/>
    <path d="M 165.33111572265625 93.39591979980469 C 26.200469970703125 88.39557647705078 178.37060546875 125.5442123413086 107.83988189697266 93.1531982421875" stroke-width="2" fill="none" stroke="rgb(0, 0, 0)" stroke-opacity="1.0" stroke-linecap="round" stroke-linejoin="round"/>
    <path d="M 105.01953887939453 109.16329193115234 C 105.99895477294922 128.32582092285156 115.6701889038086 101.36151123046875 88.32154083251953 110.06993103027344" stroke-width="2" fill="none" stroke="rgb(0, 0, 0)" stroke-opacity="1.0" stroke-linecap="round" stroke-linejoin="round"/>
    <path d="M 46.37825012207031 131.97950744628906 C 75.36571502685547 143.21961975097656 37.55258560180664 139.74673461914062 43.23023986816406 120.21019744873047" stroke-width="2" fill="none" stroke="rgb(0, 0, 0)" stroke-opacity="1.0" stroke-linecap="round" stroke-linejoin="round"/>
    <path d="M 125.47776794433594 136.65847778320312 C 210.32379150390625 157.30223083496094 108.58592987060547 134.1190948486328 145.7411346435547 129.40560913085938" stroke-width="2" fill="none" stroke="rgb(0, 0, 0)" stroke-opacity="1.0" stroke-linecap="round" stroke-linejoin="round"/>
    <path d="M 156.58364868164062 108.2552719116211 C 195.24668884277344 124.88909912109375 90.08161163330078 115.78453826904297 129.5665283203125 122.92436218261719" stroke-width="2" fill="none" stroke="rgb(0, 0, 0)" stroke-opacity="1.0" stroke-linecap="round" stroke-linejoin="round"/>
    <path d="M 167.95652770996094 107.91910552978516 C 202.7353057861328 24.42645263671875 175.68113708496094 83.04419708251953 151.88352966308594 87.83373260498047" stroke-width="2" fill="none" stroke="rgb(0, 0, 0)" stroke-opacity="1.0" stroke-linecap="round" stroke-linejoin="round"/>
    <path d="M 152.82481384277344 157.09266662597656 C 108.67394256591797 153.05517578125 202.833251953125 155.267822265625 179.14317321777344 143.90025329589844" stroke-width="2" fill="none" stroke="rgb(0, 0, 0)" stroke-opacity="1.0" stroke-linecap="round" stroke-linejoin="round"/>
    <path d="M 93.39718627929688 122.29271697998047 C 121.0386962890625 140.42953491210938 61.21599578857422 102.599609375 113.39924621582031 142.3812255859375" stroke-width="2" fill="none" stroke="rgb(0, 0, 0)" stroke-opacity="1.0" stroke-linecap="round" stroke-linejoin="round"/>
    <path d="M 148.3241424560547 133.57269287109375 C 108.82923889160156 116.54624938964844 64.5089340209961 28.11591911315918 130.83917236328125 89.83171844482422" stroke-width="2" fill="none" stroke="rgb(0, 0, 0)" stroke-opacity="1.0" stroke-linecap="round" stroke-linejoin="round"/>
    <path d="M 148.44467163085938 115.63417053222656 C 129.24790954589844 106.90933227539062 172.96250915527344 147.6145477294922 184.29434204101562 69.64288330078125" stroke-width="2" fill="none" stroke="rgb(0, 0, 0)" stroke-opacity="1.0" stroke-linecap="round" stroke-linejoin="round"/>
    <path d="M 81.07671356201172 103.74722290039062 C 56.290523529052734 90.34559631347656 16.835803985595703 152.3903045654297 66.48286437988281 98.29068756103516" stroke-width="2" fill="none" stroke="rgb(0, 0, 0)" stroke-opacity="1.0" stroke-linecap="round" stroke-linejoin="round"/>
  </g>
</svg>
