<?xml version="1.0" ?>
<svg xmlns="http://www.w3.org/2000/svg" version="1.1" width="224" height="224">
  <defs/>
  <g>
    <path d="M 36.79850387573242 116.15638732910156 C 71.42679595947266 86.07335662841797 81.68427276611328 100.3611068725586 91.76898193359375 95.37017822265625" stroke-width="2" fill="none" stroke="rgb(0, 0, 0)" stroke-opacity="1.0" stroke-linecap="round" stroke-linejoin="round"/>
    <path d="M 43.66061019897461 135.83908081054688 C 129.35618591308594 171.96258544921875 154.73538208007812 130.99050903320312 111.02397918701172 153.9303741455078" stroke-width="2" fill="none" stroke="rgb(0, 0, 0)" stroke-opacity="1.0" stroke-linecap="round" stroke-linejoin="round"/>
    <path d="M 158.2277374267578 134.10365295410156 C 55.60421371459961 96.91222381591797 118.03251647949219 131.18597412109375 107.50401306152344 106.72926330566406" stroke-width="2" fill="none" stroke="rgb(0, 0, 0)" stroke-opacity="1.0" stroke-linecap="round" stroke-linejoin="round"/>
    <path d="M 161.53262329101562 130.78863525390625 C 133.53663635253906 108.1493148803711 170.4937744140625 113.17147064208984 150.35386657714844 118.51182556152344" stroke-width="2" fill="none" stroke="rgb(0, 0, 0)" stroke-opacity="1.0" stroke-linecap="round" stroke-linejoin="round"/>
    <path d="M 144.56878662109375 89.86144256591797 C 106.72176361083984 123.51335906982422 146.9493408203125 70.2371826171875 157.62567138671875 96.57941436767578" stroke-width="2" fill="none" stroke="rgb(0, 0, 0)" stroke-opacity="1.0" stroke-linecap="round" stroke-linejoin="round"/>
    <path d="M 168.06204223632812 90.53105163574219 C 66.3733139038086 92.07372283935547 169.79417419433594 96.22158813476562 117.35411834716797 88.70184326171875" stroke-width="2" fill="none" stroke="rgb(0, 0, 0)" stroke-opacity="1.0" stroke-linecap="round" stroke-linejoin="round"/>
    <path d="M 100.01971435546875 80.00312805175781 C 111.254150390625 123.94723510742188 144.5853271484375 117.24556732177734 112.4388198852539 92.75875854492188" stroke-width="2" fill="none" stroke="rgb(0, 0, 0)" stroke-opacity="1.0" stroke-linecap="round" stroke-linejoin="round"/>
    <path d="M 75.66578674316406 145.10472106933594 C 141.0197296142578 154.09178161621094 32.0225715637207 152.53001403808594 42.565155029296875 125.85707092285156" stroke-width="2" fill="none" stroke="rgb(0, 0, 0)" stroke-opacity="1.0" stroke-linecap="round" stroke-linejoin="round"/>
    <path d="M 130.18087768554688 122.51915740966797 C 177.66012573242188 164.15951538085938 100.81652069091797 111.729736328125 144.18505859375 132.9949493408203" stroke-width="2" fill="none" stroke="rgb(0, 0, 0)" stroke-opacity="1.0" stroke-linecap="round" stroke-linejoin="round"/>
    <path d="M 154.41921997070312 109.91162872314453 C 171.3520050048828 117.48986053466797 121.69419860839844 107.20480346679688 143.8208770751953 114.68566131591797" stroke-width="2" fill="none" stroke="rgb(0, 0, 0)" stroke-opacity="1.0" stroke-linecap="round" stroke-linejoin="round"/>
    <path d="M 169.5968475341797 106.96311950683594 C 194.60768127441406 41.617042541503906 184.6144256591797 62.30546569824219 156.9167938232422 86.87451171875" stroke-width="2" fill="none" stroke="rgb(0, 0, 0)" stroke-opacity="1.0" stroke-linecap="round" stroke-linejoin="round"/>
    <path d="M 169.8803253173828 148.70928955078125 C 122.94651794433594 151.12254333496094 191.1671905517578 98.52074432373047 134.08641052246094 136.13153076171875" stroke-width="2" fill="none" stroke="rgb(0, 0, 0)" stroke-opacity="1.0" stroke-linecap="round" stroke-linejoin="round"/>
    <path d="M 60.02920150756836 128.33106994628906 C 71.14435577392578 134.5283203125 49.447364807128906 151.54783630371094 148.5655975341797 152.0364990234375" stroke-width="2" fill="none" stroke="rgb(0, 0, 0)" stroke-opacity="1.0" stroke-linecap="round" stroke-linejoin="round"/>
    <path d="M 139.746337890625 133.4921112060547 C 95.50123596191406 101.67115783691406 76.89089965820312 37.11762237548828 126.28899383544922 95.00202178955078" stroke-width="2" fill="none" stroke="rgb(0, 0, 0)" stroke-opacity="1.0" stroke-linecap="round" stroke-linejoin="round"/>
    <path d="M 177.11065673828125 96.54060363769531 C 153.53338623046875 118.47488403320312 172.72586059570312 125.88578796386719 183.27041625976562 67.93769836425781" stroke-width="2" fill="none" stroke="rgb(0, 0, 0)" stroke-opacity="1.0" stroke-linecap="round" stroke-linejoin="round"/>
    <path d="M 76.16362762451172 106.07982635498047 C 78.5589828491211 94.69490051269531 -4.8045477867126465 109.64960479736328 62.30189895629883 101.90371704101562" stroke-width="2" fill="none" stroke="rgb(0, 0, 0)" stroke-opacity="1.0" stroke-linecap="round" stroke-linejoin="round"/>
  </g>
</svg>
