<?xml version="1.0" ?>
<svg xmlns="http://www.w3.org/2000/svg" version="1.1" width="224" height="224">
  <defs/>
  <g>
    <path d="M 35.576473236083984 127.65340423583984 C 71.03275299072266 85.48114013671875 53.6103630065918 94.7486801147461 98.7328872680664 92.54885864257812" stroke-width="2" fill="none" stroke="rgb(0, 0, 0)" stroke-opacity="1.0" stroke-linecap="round" stroke-linejoin="round"/>
    <path d="M 47.155879974365234 146.70594787597656 C 196.0576934814453 166.28335571289062 184.40625 138.52821350097656 156.29652404785156 141.0120391845703" stroke-width="2" fill="none" stroke="rgb(0, 0, 0)" stroke-opacity="1.0" stroke-linecap="round" stroke-linejoin="round"/>
    <path d="M 136.7580108642578 99.55172729492188 C 109.16846466064453 100.13655853271484 180.37855529785156 120.27601623535156 122.11344909667969 111.5691909790039" stroke-width="2" fill="none" stroke="rgb(0, 0, 0)" stroke-opacity="1.0" stroke-linecap="round" stroke-linejoin="round"/>
    <path d="M 148.7731170654297 84.32569885253906 C 151.23683166503906 103.24714660644531 167.96092224121094 52.87532043457031 151.63145446777344 120.98825073242188" stroke-width="2" fill="none" stroke="rgb(0, 0, 0)" stroke-opacity="1.0" stroke-linecap="round" stroke-linejoin="round"/>
    <path d="M 120.6585693359375 88.14991760253906 C 122.80640411376953 117.11036682128906 64.44190216064453 35.301326751708984 130.1628875732422 84.85891723632812" stroke-width="2" fill="none" stroke="rgb(0, 0, 0)" stroke-opacity="1.0" stroke-linecap="round" stroke-linejoin="round"/>
    <path d="M 146.28021240234375 79.58577728271484 C 114.4960708618164 84.62635803222656 190.06515502929688 73.5790786743164 115.09026336669922 83.32003784179688" stroke-width="2" fill="none" stroke="rgb(0, 0, 0)" stroke-opacity="1.0" stroke-linecap="round" stroke-linejoin="round"/>
    <path d="M 136.02577209472656 123.28368377685547 C 110.42366790771484 92.1142807006836 151.89987182617188 146.62684631347656 120.48361206054688 112.1506576538086" stroke-width="2" fill="none" stroke="rgb(0, 0, 0)" stroke-opacity="1.0" stroke-linecap="round" stroke-linejoin="round"/>
    <path d="M 40.98807144165039 139.34786987304688 C 73.69230651855469 153.52940368652344 28.433900833129883 147.27073669433594 42.36126708984375 123.80268096923828" stroke-width="2" fill="none" stroke="rgb(0, 0, 0)" stroke-opacity="1.0" stroke-linecap="round" stroke-linejoin="round"/>
    <path d="M 119.61536407470703 127.58963012695312 C 239.8089141845703 150.6291961669922 45.974727630615234 107.81462860107422 157.62307739257812 119.15283203125" stroke-width="2" fill="none" stroke="rgb(0, 0, 0)" stroke-opacity="1.0" stroke-linecap="round" stroke-linejoin="round"/>
    <path d="M 156.62237548828125 91.44084930419922 C 213.72921752929688 78.951416015625 105.50064849853516 125.5625228881836 142.60968017578125 105.43201446533203" stroke-width="2" fill="none" stroke="rgb(0, 0, 0)" stroke-opacity="1.0" stroke-linecap="round" stroke-linejoin="round"/>
    <path d="M 162.3750762939453 82.53398895263672 C 199.13319396972656 24.098108291625977 157.44833374023438 89.25739288330078 150.39190673828125 79.41812133789062" stroke-width="2" fill="none" stroke="rgb(0, 0, 0)" stroke-opacity="1.0" stroke-linecap="round" stroke-linejoin="round"/>
    <path d="M 167.0563507080078 153.08360290527344 C 91.14006042480469 130.76809692382812 186.76466369628906 159.97535705566406 166.6111602783203 146.77796936035156" stroke-width="2" fill="none" stroke="rgb(0, 0, 0)" stroke-opacity="1.0" stroke-linecap="round" stroke-linejoin="round"/>
    <path d="M 100.97212219238281 108.28109741210938 C 148.76499938964844 139.3595428466797 41.14801788330078 82.17216491699219 132.63490295410156 135.10086059570312" stroke-width="2" fill="none" stroke="rgb(0, 0, 0)" stroke-opacity="1.0" stroke-linecap="round" stroke-linejoin="round"/>
    <path d="M 136.52967834472656 104.69585418701172 C 116.8528060913086 153.1112823486328 69.707275390625 22.478666305541992 121.90262603759766 89.92344665527344" stroke-width="2" fill="none" stroke="rgb(0, 0, 0)" stroke-opacity="1.0" stroke-linecap="round" stroke-linejoin="round"/>
    <path d="M 159.68719482421875 109.29544067382812 C 128.6876983642578 68.16473388671875 165.25245666503906 152.80299377441406 183.94554138183594 61.267051696777344" stroke-width="2" fill="none" stroke="rgb(0, 0, 0)" stroke-opacity="1.0" stroke-linecap="round" stroke-linejoin="round"/>
    <path d="M 35.31718063354492 127.55377197265625 C 53.68876266479492 101.0226821899414 12.921862602233887 134.9258575439453 56.303382873535156 109.61786651611328" stroke-width="2" fill="none" stroke="rgb(0, 0, 0)" stroke-opacity="1.0" stroke-linecap="round" stroke-linejoin="round"/>
  </g>
</svg>
