<?xml version="1.0" ?>
<svg xmlns="http://www.w3.org/2000/svg" version="1.1" width="224" height="224">
  <defs/>
  <g>
    <path d="M 57.97331237792969 98.56147003173828 C 64.15724182128906 105.46574401855469 105.32954406738281 72.23930358886719 99.51789855957031 130.30467224121094" stroke-width="2" fill="none" stroke="rgb(0, 0, 0)" stroke-opacity="1.0" stroke-linecap="round" stroke-linejoin="round"/>
    <path d="M 133.95018005371094 146.66226196289062 C 219.7922821044922 142.88601684570312 179.46762084960938 161.98641967773438 197.64889526367188 150.6735382080078" stroke-width="2" fill="none" stroke="rgb(0, 0, 0)" stroke-opacity="1.0" stroke-linecap="round" stroke-linejoin="round"/>
    <path d="M 122.64349365234375 105.00273132324219 C 33.96930694580078 104.62566375732422 336.2661437988281 167.86131286621094 116.18614196777344 140.71339416503906" stroke-width="2" fill="none" stroke="rgb(0, 0, 0)" stroke-opacity="1.0" stroke-linecap="round" stroke-linejoin="round"/>
    <path d="M 167.48265075683594 94.83280944824219 C 182.41287231445312 107.90934753417969 118.40704345703125 85.35132598876953 162.49081420898438 86.04006958007812" stroke-width="2" fill="none" stroke="rgb(0, 0, 0)" stroke-opacity="1.0" stroke-linecap="round" stroke-linejoin="round"/>
    <path d="M 136.8231658935547 86.12338256835938 C 120.73856353759766 102.34766387939453 78.38544464111328 41.554386138916016 104.27500915527344 96.28646850585938" stroke-width="2" fill="none" stroke="rgb(0, 0, 0)" stroke-opacity="1.0" stroke-linecap="round" stroke-linejoin="round"/>
    <path d="M 124.75013732910156 88.07528686523438 C 175.6450958251953 74.69889068603516 137.99545288085938 108.77542877197266 170.16212463378906 89.01821899414062" stroke-width="2" fill="none" stroke="rgb(0, 0, 0)" stroke-opacity="1.0" stroke-linecap="round" stroke-linejoin="round"/>
    <path d="M 126.37936401367188 103.5548324584961 C 82.54317474365234 97.01263427734375 151.03077697753906 94.37319946289062 115.92223358154297 111.0486831665039" stroke-width="2" fill="none" stroke="rgb(0, 0, 0)" stroke-opacity="1.0" stroke-linecap="round" stroke-linejoin="round"/>
    <path d="M 144.08587646484375 133.6470489501953 C 267.2469177246094 140.894775390625 -27.43537139892578 192.8839111328125 61.032649993896484 99.43204498291016" stroke-width="2" fill="none" stroke="rgb(0, 0, 0)" stroke-opacity="1.0" stroke-linecap="round" stroke-linejoin="round"/>
    <path d="M 101.02449035644531 113.7384033203125 C 205.0071563720703 136.142333984375 90.29975128173828 109.26011657714844 121.95922088623047 95.44493103027344" stroke-width="2" fill="none" stroke="rgb(0, 0, 0)" stroke-opacity="1.0" stroke-linecap="round" stroke-linejoin="round"/>
    <path d="M 113.21879577636719 111.5995864868164 C 216.94818115234375 112.2129898071289 49.005287170410156 118.9616928100586 147.8254852294922 110.20740509033203" stroke-width="2" fill="none" stroke="rgb(0, 0, 0)" stroke-opacity="1.0" stroke-linecap="round" stroke-linejoin="round"/>
    <path d="M 163.6636962890625 84.24649047851562 C 231.65557861328125 15.924718856811523 128.7733612060547 150.171142578125 183.4978485107422 85.47232055664062" stroke-width="2" fill="none" stroke="rgb(0, 0, 0)" stroke-opacity="1.0" stroke-linecap="round" stroke-linejoin="round"/>
    <path d="M 166.65716552734375 142.42420959472656 C 173.5751495361328 145.1536407470703 156.32936096191406 136.87246704101562 173.63714599609375 146.68650817871094" stroke-width="2" fill="none" stroke="rgb(0, 0, 0)" stroke-opacity="1.0" stroke-linecap="round" stroke-linejoin="round"/>
    <path d="M 153.08660888671875 119.04348754882812 C 185.46038818359375 101.7852783203125 113.23554229736328 106.42301940917969 142.68618774414062 97.73649597167969" stroke-width="2" fill="none" stroke="rgb(0, 0, 0)" stroke-opacity="1.0" stroke-linecap="round" stroke-linejoin="round"/>
    <path d="M 148.36672973632812 131.6899871826172 C 179.54795837402344 164.75669860839844 46.230621337890625 23.83173179626465 114.03170776367188 92.32199096679688" stroke-width="2" fill="none" stroke="rgb(0, 0, 0)" stroke-opacity="1.0" stroke-linecap="round" stroke-linejoin="round"/>
    <path d="M 174.8697967529297 89.1513442993164 C 134.99374389648438 93.28453063964844 174.7196502685547 143.34844970703125 186.95419311523438 70.92578887939453" stroke-width="2" fill="none" stroke="rgb(0, 0, 0)" stroke-opacity="1.0" stroke-linecap="round" stroke-linejoin="round"/>
    <path d="M 160.23239135742188 150.847900390625 C 163.92112731933594 170.83599853515625 58.39918518066406 96.90049743652344 89.0223159790039 112.21369171142578" stroke-width="2" fill="none" stroke="rgb(0, 0, 0)" stroke-opacity="1.0" stroke-linecap="round" stroke-linejoin="round"/>
  </g>
</svg>
