<?xml version="1.0" ?>
<svg xmlns="http://www.w3.org/2000/svg" version="1.1" width="224" height="224">
  <defs/>
  <g>
    <path d="M 54.303466796875 104.35820770263672 C 74.5519790649414 100.62850952148438 106.66410064697266 71.0226058959961 117.19966888427734 128.77638244628906" stroke-width="2" fill="none" stroke="rgb(0, 0, 0)" stroke-opacity="1.0" stroke-linecap="round" stroke-linejoin="round"/>
    <path d="M 118.81842803955078 148.9644775390625 C 214.98194885253906 129.16299438476562 177.5605926513672 164.07623291015625 195.6190643310547 143.1559600830078" stroke-width="2" fill="none" stroke="rgb(0, 0, 0)" stroke-opacity="1.0" stroke-linecap="round" stroke-linejoin="round"/>
    <path d="M 131.98599243164062 110.62055969238281 C 53.99545669555664 115.11561584472656 338.4842834472656 157.3474578857422 124.00083923339844 143.90077209472656" stroke-width="2" fill="none" stroke="rgb(0, 0, 0)" stroke-opacity="1.0" stroke-linecap="round" stroke-linejoin="round"/>
    <path d="M 154.75357055664062 109.14620971679688 C 185.01126098632812 108.0593490600586 105.72550964355469 83.46575927734375 173.39730834960938 86.58097839355469" stroke-width="2" fill="none" stroke="rgb(0, 0, 0)" stroke-opacity="1.0" stroke-linecap="round" stroke-linejoin="round"/>
    <path d="M 134.2741241455078 83.70767974853516 C 120.5354995727539 103.08661651611328 93.36454772949219 33.54218292236328 104.91035461425781 96.11066436767578" stroke-width="2" fill="none" stroke="rgb(0, 0, 0)" stroke-opacity="1.0" stroke-linecap="round" stroke-linejoin="round"/>
    <path d="M 124.91082000732422 84.71834564208984 C 197.43722534179688 76.39016723632812 138.70428466796875 140.31344604492188 162.62269592285156 98.97760772705078" stroke-width="2" fill="none" stroke="rgb(0, 0, 0)" stroke-opacity="1.0" stroke-linecap="round" stroke-linejoin="round"/>
    <path d="M 129.68637084960938 104.52597045898438 C 104.29039764404297 101.96599578857422 152.5071563720703 86.58948516845703 115.9531021118164 104.93778228759766" stroke-width="2" fill="none" stroke="rgb(0, 0, 0)" stroke-opacity="1.0" stroke-linecap="round" stroke-linejoin="round"/>
    <path d="M 152.77520751953125 146.27780151367188 C 272.4033203125 125.73390197753906 -24.581096649169922 183.89410400390625 62.739295959472656 101.93231201171875" stroke-width="2" fill="none" stroke="rgb(0, 0, 0)" stroke-opacity="1.0" stroke-linecap="round" stroke-linejoin="round"/>
    <path d="M 122.2649917602539 110.2230224609375 C 201.56546020507812 137.762451171875 72.31147766113281 86.96350860595703 125.82298278808594 97.52591705322266" stroke-width="2" fill="none" stroke="rgb(0, 0, 0)" stroke-opacity="1.0" stroke-linecap="round" stroke-linejoin="round"/>
    <path d="M 120.08550262451172 114.34990692138672 C 210.6903839111328 116.95964813232422 57.766632080078125 120.23558807373047 150.90049743652344 113.265625" stroke-width="2" fill="none" stroke="rgb(0, 0, 0)" stroke-opacity="1.0" stroke-linecap="round" stroke-linejoin="round"/>
    <path d="M 167.49310302734375 86.22967529296875 C 226.49996948242188 7.2752885818481445 116.50497436523438 124.43360137939453 179.9337615966797 66.28511047363281" stroke-width="2" fill="none" stroke="rgb(0, 0, 0)" stroke-opacity="1.0" stroke-linecap="round" stroke-linejoin="round"/>
    <path d="M 150.90899658203125 146.63075256347656 C 162.12132263183594 140.99588012695312 139.93319702148438 154.6348114013672 153.8635711669922 145.0904998779297" stroke-width="2" fill="none" stroke="rgb(0, 0, 0)" stroke-opacity="1.0" stroke-linecap="round" stroke-linejoin="round"/>
    <path d="M 152.69505310058594 125.65554809570312 C 181.00860595703125 117.14286804199219 112.94026184082031 108.02970886230469 144.6809844970703 106.48319244384766" stroke-width="2" fill="none" stroke="rgb(0, 0, 0)" stroke-opacity="1.0" stroke-linecap="round" stroke-linejoin="round"/>
    <path d="M 136.9796905517578 119.15471649169922 C 183.3173828125 189.45326232910156 62.85418701171875 8.471101760864258 119.30376434326172 96.65275573730469" stroke-width="2" fill="none" stroke="rgb(0, 0, 0)" stroke-opacity="1.0" stroke-linecap="round" stroke-linejoin="round"/>
    <path d="M 173.37274169921875 92.57557678222656 C 140.98744201660156 94.55113220214844 177.0272674560547 127.91148376464844 185.32846069335938 65.25608825683594" stroke-width="2" fill="none" stroke="rgb(0, 0, 0)" stroke-opacity="1.0" stroke-linecap="round" stroke-linejoin="round"/>
    <path d="M 155.14691162109375 150.75271606445312 C 157.2890625 170.46910095214844 69.33331298828125 114.61837768554688 102.79370880126953 125.66284942626953" stroke-width="2" fill="none" stroke="rgb(0, 0, 0)" stroke-opacity="1.0" stroke-linecap="round" stroke-linejoin="round"/>
  </g>
</svg>
