<?xml version="1.0" ?>
<svg xmlns="http://www.w3.org/2000/svg" version="1.1" width="224" height="224">
  <defs/>
  <g>
    <path d="M 51.346229553222656 107.21435546875 C 73.83097839355469 102.30640411376953 112.39360046386719 70.69631958007812 116.59469604492188 130.01612854003906" stroke-width="2" fill="none" stroke="rgb(0, 0, 0)" stroke-opacity="1.0" stroke-linecap="round" stroke-linejoin="round"/>
    <path d="M 119.74365234375 152.67347717285156 C 217.07489013671875 134.91122436523438 194.8675994873047 167.00718688964844 206.3778076171875 155.09548950195312" stroke-width="2" fill="none" stroke="rgb(0, 0, 0)" stroke-opacity="1.0" stroke-linecap="round" stroke-linejoin="round"/>
    <path d="M 130.70144653320312 109.24642181396484 C 58.98690414428711 112.89852142333984 352.79986572265625 161.3618927001953 124.15296936035156 148.09539794921875" stroke-width="2" fill="none" stroke="rgb(0, 0, 0)" stroke-opacity="1.0" stroke-linecap="round" stroke-linejoin="round"/>
    <path d="M 153.3660430908203 100.5612564086914 C 183.32281494140625 110.2217025756836 113.73807525634766 85.90292358398438 171.6189727783203 85.38037872314453" stroke-width="2" fill="none" stroke="rgb(0, 0, 0)" stroke-opacity="1.0" stroke-linecap="round" stroke-linejoin="round"/>
    <path d="M 137.80137634277344 89.6682357788086 C 123.21063995361328 106.46936798095703 93.45440673828125 31.428001403808594 100.43378448486328 95.6652603149414" stroke-width="2" fill="none" stroke="rgb(0, 0, 0)" stroke-opacity="1.0" stroke-linecap="round" stroke-linejoin="round"/>
    <path d="M 125.17981719970703 85.81224060058594 C 196.56362915039062 82.25865173339844 136.45596313476562 137.61993408203125 166.4447479248047 98.41083526611328" stroke-width="2" fill="none" stroke="rgb(0, 0, 0)" stroke-opacity="1.0" stroke-linecap="round" stroke-linejoin="round"/>
    <path d="M 131.15402221679688 108.86389923095703 C 97.01644897460938 102.4659423828125 160.39218139648438 91.92986297607422 113.91276550292969 106.64952850341797" stroke-width="2" fill="none" stroke="rgb(0, 0, 0)" stroke-opacity="1.0" stroke-linecap="round" stroke-linejoin="round"/>
    <path d="M 153.46556091308594 138.25601196289062 C 280.8160705566406 136.6756591796875 -25.778263092041016 192.67562866210938 59.69243621826172 105.24456024169922" stroke-width="2" fill="none" stroke="rgb(0, 0, 0)" stroke-opacity="1.0" stroke-linecap="round" stroke-linejoin="round"/>
    <path d="M 118.46502685546875 112.37215423583984 C 195.6212158203125 142.80416870117188 74.34197235107422 90.83345031738281 130.2008819580078 98.37532043457031" stroke-width="2" fill="none" stroke="rgb(0, 0, 0)" stroke-opacity="1.0" stroke-linecap="round" stroke-linejoin="round"/>
    <path d="M 117.05558776855469 114.98611450195312 C 211.6750030517578 115.9339599609375 55.826026916503906 124.22190856933594 147.7168731689453 111.80408477783203" stroke-width="2" fill="none" stroke="rgb(0, 0, 0)" stroke-opacity="1.0" stroke-linecap="round" stroke-linejoin="round"/>
    <path d="M 168.325927734375 84.48442840576172 C 223.26234436035156 7.638947486877441 115.359130859375 123.7813720703125 182.3208770751953 64.92378997802734" stroke-width="2" fill="none" stroke="rgb(0, 0, 0)" stroke-opacity="1.0" stroke-linecap="round" stroke-linejoin="round"/>
    <path d="M 150.5568389892578 144.4514923095703 C 165.51210021972656 143.26724243164062 135.0425567626953 150.1399688720703 148.5277557373047 141.35049438476562" stroke-width="2" fill="none" stroke="rgb(0, 0, 0)" stroke-opacity="1.0" stroke-linecap="round" stroke-linejoin="round"/>
    <path d="M 153.060546875 126.20726013183594 C 176.26588439941406 112.07685852050781 115.96665954589844 106.81953430175781 147.47535705566406 107.04261779785156" stroke-width="2" fill="none" stroke="rgb(0, 0, 0)" stroke-opacity="1.0" stroke-linecap="round" stroke-linejoin="round"/>
    <path d="M 130.05050659179688 132.55152893066406 C 183.07896423339844 185.04568481445312 58.37883377075195 12.489234924316406 117.85218048095703 91.00043487548828" stroke-width="2" fill="none" stroke="rgb(0, 0, 0)" stroke-opacity="1.0" stroke-linecap="round" stroke-linejoin="round"/>
    <path d="M 175.69944763183594 95.86405181884766 C 138.73403930664062 102.56291961669922 178.97752380371094 131.84259033203125 183.56820678710938 63.28751754760742" stroke-width="2" fill="none" stroke="rgb(0, 0, 0)" stroke-opacity="1.0" stroke-linecap="round" stroke-linejoin="round"/>
    <path d="M 158.5109405517578 149.5612335205078 C 160.35032653808594 166.39669799804688 67.3854751586914 110.53568267822266 98.10484313964844 122.14286804199219" stroke-width="2" fill="none" stroke="rgb(0, 0, 0)" stroke-opacity="1.0" stroke-linecap="round" stroke-linejoin="round"/>
  </g>
</svg>
