<?xml version="1.0" ?>
<svg xmlns="http://www.w3.org/2000/svg" version="1.1" width="224" height="224">
  <defs/>
  <g>
    <path d="M 43.39117431640625 121.95459747314453 C 45.68758010864258 89.97396087646484 92.5558853149414 95.932861328125 95.12423706054688 94.91326141357422" stroke-width="2" fill="none" stroke="rgb(0, 0, 0)" stroke-opacity="1.0" stroke-linecap="round" stroke-linejoin="round"/>
    <path d="M 42.95223617553711 144.748291015625 C 204.991455078125 176.11842346191406 194.38238525390625 120.79470825195312 166.4250030517578 156.86631774902344" stroke-width="2" fill="none" stroke="rgb(0, 0, 0)" stroke-opacity="1.0" stroke-linecap="round" stroke-linejoin="round"/>
    <path d="M 146.04347229003906 131.97206115722656 C 96.41834259033203 98.98078918457031 145.4043731689453 149.2960205078125 112.96945190429688 121.64289855957031" stroke-width="2" fill="none" stroke="rgb(0, 0, 0)" stroke-opacity="1.0" stroke-linecap="round" stroke-linejoin="round"/>
    <path d="M 158.94805908203125 112.99400329589844 C 132.75701904296875 126.77700805664062 184.49395751953125 108.78658294677734 152.8704071044922 128.30564880371094" stroke-width="2" fill="none" stroke="rgb(0, 0, 0)" stroke-opacity="1.0" stroke-linecap="round" stroke-linejoin="round"/>
    <path d="M 141.59286499023438 108.05814361572266 C 107.33584594726562 129.17166137695312 142.8411102294922 66.4017105102539 160.6746063232422 98.92790985107422" stroke-width="2" fill="none" stroke="rgb(0, 0, 0)" stroke-opacity="1.0" stroke-linecap="round" stroke-linejoin="round"/>
    <path d="M 176.1631317138672 89.10709381103516 C 20.092443466186523 85.97699737548828 175.62245178222656 116.12532043457031 102.33194732666016 88.89990997314453" stroke-width="2" fill="none" stroke="rgb(0, 0, 0)" stroke-opacity="1.0" stroke-linecap="round" stroke-linejoin="round"/>
    <path d="M 123.5252685546875 115.82209777832031 C 110.19939422607422 141.05224609375 140.74826049804688 106.87997436523438 106.78555297851562 105.32596588134766" stroke-width="2" fill="none" stroke="rgb(0, 0, 0)" stroke-opacity="1.0" stroke-linecap="round" stroke-linejoin="round"/>
    <path d="M 50.770111083984375 140.74676513671875 C 71.82615661621094 150.80636596679688 17.911283493041992 138.970458984375 36.26283264160156 126.57447814941406" stroke-width="2" fill="none" stroke="rgb(0, 0, 0)" stroke-opacity="1.0" stroke-linecap="round" stroke-linejoin="round"/>
    <path d="M 132.4269256591797 131.48561096191406 C 195.0262908935547 154.17926025390625 99.35197448730469 128.6810760498047 143.66795349121094 125.64286804199219" stroke-width="2" fill="none" stroke="rgb(0, 0, 0)" stroke-opacity="1.0" stroke-linecap="round" stroke-linejoin="round"/>
    <path d="M 156.73277282714844 102.13493347167969 C 189.35354614257812 118.8680191040039 99.08460998535156 106.73197937011719 140.35028076171875 112.4947738647461" stroke-width="2" fill="none" stroke="rgb(0, 0, 0)" stroke-opacity="1.0" stroke-linecap="round" stroke-linejoin="round"/>
    <path d="M 167.5572052001953 115.7486801147461 C 204.0670928955078 27.080406188964844 173.42727661132812 81.07884979248047 156.53192138671875 90.9076919555664" stroke-width="2" fill="none" stroke="rgb(0, 0, 0)" stroke-opacity="1.0" stroke-linecap="round" stroke-linejoin="round"/>
    <path d="M 151.99191284179688 160.95326232910156 C 106.89212036132812 168.4392852783203 212.55496215820312 136.14422607421875 172.5220947265625 138.60618591308594" stroke-width="2" fill="none" stroke="rgb(0, 0, 0)" stroke-opacity="1.0" stroke-linecap="round" stroke-linejoin="round"/>
    <path d="M 70.49969482421875 124.63256072998047 C 96.22755432128906 140.91360473632812 51.42670440673828 133.30459594726562 134.36732482910156 152.1053466796875" stroke-width="2" fill="none" stroke="rgb(0, 0, 0)" stroke-opacity="1.0" stroke-linecap="round" stroke-linejoin="round"/>
    <path d="M 154.03793334960938 141.15357971191406 C 95.02468872070312 105.51068878173828 76.43932342529297 30.127931594848633 131.0267333984375 100.82465362548828" stroke-width="2" fill="none" stroke="rgb(0, 0, 0)" stroke-opacity="1.0" stroke-linecap="round" stroke-linejoin="round"/>
    <path d="M 152.89378356933594 110.45671081542969 C 138.48268127441406 105.84075164794922 175.91184997558594 136.8909454345703 184.7418670654297 68.53770446777344" stroke-width="2" fill="none" stroke="rgb(0, 0, 0)" stroke-opacity="1.0" stroke-linecap="round" stroke-linejoin="round"/>
    <path d="M 82.11009216308594 108.90972900390625 C 57.24574661254883 87.03821563720703 0.5136826634407043 146.56646728515625 51.69611740112305 106.25308227539062" stroke-width="2" fill="none" stroke="rgb(0, 0, 0)" stroke-opacity="1.0" stroke-linecap="round" stroke-linejoin="round"/>
  </g>
</svg>
