<?xml version="1.0" ?>
<svg xmlns="http://www.w3.org/2000/svg" version="1.1" width="224" height="224">
  <defs/>
  <g>
    <path d="M 38.58229446411133 129.5013427734375 C 61.48946762084961 114.49762725830078 28.68213653564453 86.69269561767578 110.86319732666016 96.93814086914062" stroke-width="2" fill="none" stroke="rgb(0, 0, 0)" stroke-opacity="1.0" stroke-linecap="round" stroke-linejoin="round"/>
    <path d="M 90.20941925048828 145.24176025390625 C 204.65716552734375 137.74713134765625 174.4904327392578 164.11337280273438 139.17080688476562 149.72235107421875" stroke-width="2" fill="none" stroke="rgb(0, 0, 0)" stroke-opacity="1.0" stroke-linecap="round" stroke-linejoin="round"/>
    <path d="M 123.94630432128906 99.02368927001953 C 97.6291275024414 99.57244110107422 149.60867309570312 110.23707580566406 120.45944213867188 109.11717224121094" stroke-width="2" fill="none" stroke="rgb(0, 0, 0)" stroke-opacity="1.0" stroke-linecap="round" stroke-linejoin="round"/>
    <path d="M 144.91119384765625 94.54097747802734 C 166.3144073486328 99.71887969970703 124.05790710449219 74.79581451416016 152.822998046875 97.85242462158203" stroke-width="2" fill="none" stroke="rgb(0, 0, 0)" stroke-opacity="1.0" stroke-linecap="round" stroke-linejoin="round"/>
    <path d="M 126.7291488647461 87.32535552978516 C 120.75823974609375 100.29537200927734 63.14276123046875 17.67071533203125 117.31490325927734 122.77347564697266" stroke-width="2" fill="none" stroke="rgb(0, 0, 0)" stroke-opacity="1.0" stroke-linecap="round" stroke-linejoin="round"/>
    <path d="M 132.3927001953125 83.98519134521484 C 92.24918365478516 84.66002655029297 180.70095825195312 91.8633041381836 166.41360473632812 85.30613708496094" stroke-width="2" fill="none" stroke="rgb(0, 0, 0)" stroke-opacity="1.0" stroke-linecap="round" stroke-linejoin="round"/>
    <path d="M 141.5841522216797 111.82172393798828 C 82.38170623779297 134.40167236328125 163.96615600585938 119.1270523071289 120.77485656738281 100.56349182128906" stroke-width="2" fill="none" stroke="rgb(0, 0, 0)" stroke-opacity="1.0" stroke-linecap="round" stroke-linejoin="round"/>
    <path d="M 76.70100402832031 145.3665008544922 C 249.41587829589844 154.365478515625 -34.47517776489258 182.74160766601562 56.441322326660156 107.31781005859375" stroke-width="2" fill="none" stroke="rgb(0, 0, 0)" stroke-opacity="1.0" stroke-linecap="round" stroke-linejoin="round"/>
    <path d="M 174.0534210205078 133.5458984375 C 226.2566375732422 152.98619079589844 49.23640060424805 84.50566101074219 124.12235260009766 121.41529083251953" stroke-width="2" fill="none" stroke="rgb(0, 0, 0)" stroke-opacity="1.0" stroke-linecap="round" stroke-linejoin="round"/>
    <path d="M 169.2415008544922 131.63697814941406 C 207.0872039794922 126.6935806274414 123.60411834716797 151.6590118408203 143.10984802246094 109.32227325439453" stroke-width="2" fill="none" stroke="rgb(0, 0, 0)" stroke-opacity="1.0" stroke-linecap="round" stroke-linejoin="round"/>
    <path d="M 152.55113220214844 87.70126342773438 C 220.76751708984375 22.290639877319336 143.3861541748047 109.03392791748047 140.08938598632812 93.67504119873047" stroke-width="2" fill="none" stroke="rgb(0, 0, 0)" stroke-opacity="1.0" stroke-linecap="round" stroke-linejoin="round"/>
    <path d="M 154.60252380371094 155.70787048339844 C 136.7782745361328 162.98983764648438 174.62911987304688 148.86297607421875 125.87667846679688 149.74720764160156" stroke-width="2" fill="none" stroke="rgb(0, 0, 0)" stroke-opacity="1.0" stroke-linecap="round" stroke-linejoin="round"/>
    <path d="M 100.14945220947266 114.84519958496094 C 165.2930908203125 173.14205932617188 64.00746154785156 98.7857894897461 125.76566314697266 117.86201477050781" stroke-width="2" fill="none" stroke="rgb(0, 0, 0)" stroke-opacity="1.0" stroke-linecap="round" stroke-linejoin="round"/>
    <path d="M 131.87123107910156 100.9052505493164 C 101.46733093261719 153.7847900390625 106.56807708740234 48.49567413330078 96.60055541992188 90.63082122802734" stroke-width="2" fill="none" stroke="rgb(0, 0, 0)" stroke-opacity="1.0" stroke-linecap="round" stroke-linejoin="round"/>
    <path d="M 162.5333251953125 106.7833480834961 C 123.03736114501953 97.49351501464844 170.4964141845703 132.53976440429688 183.30422973632812 63.59865188598633" stroke-width="2" fill="none" stroke="rgb(0, 0, 0)" stroke-opacity="1.0" stroke-linecap="round" stroke-linejoin="round"/>
    <path d="M 65.46813201904297 134.3939971923828 C 72.52265167236328 150.40060424804688 54.71180725097656 131.4810791015625 82.70175170898438 149.3003387451172" stroke-width="2" fill="none" stroke="rgb(0, 0, 0)" stroke-opacity="1.0" stroke-linecap="round" stroke-linejoin="round"/>
  </g>
</svg>
