<?xml version="1.0" ?>
<svg xmlns="http://www.w3.org/2000/svg" version="1.1" width="224" height="224">
  <defs/>
  <g>
    <path d="M 45.65568923950195 106.12471771240234 C 72.52030181884766 100.98243713378906 105.8111801147461 76.53362274169922 117.04389953613281 130.58685302734375" stroke-width="2" fill="none" stroke="rgb(0, 0, 0)" stroke-opacity="1.0" stroke-linecap="round" stroke-linejoin="round"/>
    <path d="M 99.53057098388672 148.63075256347656 C 215.02816772460938 131.060791015625 175.34756469726562 159.2388916015625 193.32432556152344 149.03720092773438" stroke-width="2" fill="none" stroke="rgb(0, 0, 0)" stroke-opacity="1.0" stroke-linecap="round" stroke-linejoin="round"/>
    <path d="M 132.61996459960938 106.88716125488281 C 54.260494232177734 120.01347351074219 323.1636047363281 153.7198028564453 109.34955596923828 139.61505126953125" stroke-width="2" fill="none" stroke="rgb(0, 0, 0)" stroke-opacity="1.0" stroke-linecap="round" stroke-linejoin="round"/>
    <path d="M 158.46609497070312 114.2407455444336 C 194.5525360107422 103.9434814453125 107.56964111328125 86.36154174804688 174.60621643066406 83.74254608154297" stroke-width="2" fill="none" stroke="rgb(0, 0, 0)" stroke-opacity="1.0" stroke-linecap="round" stroke-linejoin="round"/>
    <path d="M 138.21725463867188 89.34758758544922 C 120.07219696044922 98.98733520507812 87.2899398803711 38.1893196105957 93.25175476074219 92.71253967285156" stroke-width="2" fill="none" stroke="rgb(0, 0, 0)" stroke-opacity="1.0" stroke-linecap="round" stroke-linejoin="round"/>
    <path d="M 116.52104187011719 87.9447250366211 C 189.52134704589844 79.8050308227539 136.050537109375 146.13543701171875 164.3489532470703 100.7265396118164" stroke-width="2" fill="none" stroke="rgb(0, 0, 0)" stroke-opacity="1.0" stroke-linecap="round" stroke-linejoin="round"/>
    <path d="M 132.7608642578125 104.58397674560547 C 103.7879867553711 105.74003601074219 152.6822509765625 88.71502685546875 121.4816665649414 106.09358978271484" stroke-width="2" fill="none" stroke="rgb(0, 0, 0)" stroke-opacity="1.0" stroke-linecap="round" stroke-linejoin="round"/>
    <path d="M 149.79232788085938 142.6601104736328 C 255.7873992919922 119.97260284423828 -33.6425666809082 190.79864501953125 56.529151916503906 97.19123077392578" stroke-width="2" fill="none" stroke="rgb(0, 0, 0)" stroke-opacity="1.0" stroke-linecap="round" stroke-linejoin="round"/>
    <path d="M 119.67671203613281 119.1978759765625 C 196.07237243652344 130.4488525390625 65.00602722167969 98.20014953613281 128.76258850097656 107.09261322021484" stroke-width="2" fill="none" stroke="rgb(0, 0, 0)" stroke-opacity="1.0" stroke-linecap="round" stroke-linejoin="round"/>
    <path d="M 116.99637603759766 114.3246841430664 C 204.56768798828125 128.0961456298828 60.6392707824707 114.2347183227539 147.36566162109375 113.322998046875" stroke-width="2" fill="none" stroke="rgb(0, 0, 0)" stroke-opacity="1.0" stroke-linecap="round" stroke-linejoin="round"/>
    <path d="M 167.612060546875 89.9930648803711 C 225.72970581054688 11.245601654052734 119.75968933105469 129.3992156982422 175.22286987304688 70.98326110839844" stroke-width="2" fill="none" stroke="rgb(0, 0, 0)" stroke-opacity="1.0" stroke-linecap="round" stroke-linejoin="round"/>
    <path d="M 152.25531005859375 142.75161743164062 C 165.45864868164062 140.0958709716797 141.02662658691406 147.27171325683594 152.62924194335938 144.92697143554688" stroke-width="2" fill="none" stroke="rgb(0, 0, 0)" stroke-opacity="1.0" stroke-linecap="round" stroke-linejoin="round"/>
    <path d="M 143.76031494140625 133.4620361328125 C 179.60865783691406 113.36238098144531 121.59590911865234 106.62533569335938 147.18325805664062 107.71432495117188" stroke-width="2" fill="none" stroke="rgb(0, 0, 0)" stroke-opacity="1.0" stroke-linecap="round" stroke-linejoin="round"/>
    <path d="M 130.95533752441406 114.20390319824219 C 183.1233367919922 185.65921020507812 64.88179016113281 1.9931848049163818 109.4773941040039 94.3276596069336" stroke-width="2" fill="none" stroke="rgb(0, 0, 0)" stroke-opacity="1.0" stroke-linecap="round" stroke-linejoin="round"/>
    <path d="M 173.4029998779297 101.1261215209961 C 124.35195922851562 99.85785675048828 179.37411499023438 134.14060974121094 183.33059692382812 73.4389419555664" stroke-width="2" fill="none" stroke="rgb(0, 0, 0)" stroke-opacity="1.0" stroke-linecap="round" stroke-linejoin="round"/>
    <path d="M 160.18846130371094 152.19532775878906 C 169.20989990234375 169.45700073242188 58.92430877685547 118.27914428710938 95.59368133544922 130.52792358398438" stroke-width="2" fill="none" stroke="rgb(0, 0, 0)" stroke-opacity="1.0" stroke-linecap="round" stroke-linejoin="round"/>
  </g>
</svg>
