<?xml version="1.0" ?>
<svg xmlns="http://www.w3.org/2000/svg" version="1.1" width="224" height="224">
  <defs/>
  <g>
    <path d="M 62.00365447998047 99.70525360107422 C 54.861419677734375 106.6574478149414 106.59732818603516 75.66266632080078 108.00032806396484 117.6148681640625" stroke-width="2" fill="none" stroke="rgb(0, 0, 0)" stroke-opacity="1.0" stroke-linecap="round" stroke-linejoin="round"/>
    <path d="M 143.27066040039062 143.24095153808594 C 148.6419219970703 151.3953094482422 194.88259887695312 170.542236328125 178.72427368164062 153.8808135986328" stroke-width="2" fill="none" stroke="rgb(0, 0, 0)" stroke-opacity="1.0" stroke-linecap="round" stroke-linejoin="round"/>
    <path d="M 107.2529525756836 144.02967834472656 C 70.10429382324219 115.82207489013672 300.14862060546875 166.8254852294922 124.11432647705078 157.54754638671875" stroke-width="2" fill="none" stroke="rgb(0, 0, 0)" stroke-opacity="1.0" stroke-linecap="round" stroke-linejoin="round"/>
    <path d="M 143.08526611328125 108.54356384277344 C 166.24891662597656 101.88687896728516 113.254150390625 126.0474624633789 166.51023864746094 102.51985931396484" stroke-width="2" fill="none" stroke="rgb(0, 0, 0)" stroke-opacity="1.0" stroke-linecap="round" stroke-linejoin="round"/>
    <path d="M 134.40554809570312 88.43573760986328 C 115.03423309326172 97.35589599609375 88.85800170898438 39.47885513305664 101.04341125488281 96.49996948242188" stroke-width="2" fill="none" stroke="rgb(0, 0, 0)" stroke-opacity="1.0" stroke-linecap="round" stroke-linejoin="round"/>
    <path d="M 145.2809295654297 87.08887481689453 C 175.24087524414062 82.446044921875 146.96340942382812 138.87709045410156 144.69412231445312 106.84056854248047" stroke-width="2" fill="none" stroke="rgb(0, 0, 0)" stroke-opacity="1.0" stroke-linecap="round" stroke-linejoin="round"/>
    <path d="M 126.31314086914062 96.81803131103516 C 86.51129150390625 116.14569091796875 166.84014892578125 100.06612396240234 121.72787475585938 117.69961547851562" stroke-width="2" fill="none" stroke="rgb(0, 0, 0)" stroke-opacity="1.0" stroke-linecap="round" stroke-linejoin="round"/>
    <path d="M 149.86453247070312 155.27218627929688 C 250.7634735107422 147.13304138183594 -44.211181640625 192.20143127441406 67.48709869384766 97.91958618164062" stroke-width="2" fill="none" stroke="rgb(0, 0, 0)" stroke-opacity="1.0" stroke-linecap="round" stroke-linejoin="round"/>
    <path d="M 95.15681457519531 119.43077850341797 C 184.94314575195312 143.90573120117188 95.86253356933594 119.96859741210938 135.2144317626953 115.78022766113281" stroke-width="2" fill="none" stroke="rgb(0, 0, 0)" stroke-opacity="1.0" stroke-linecap="round" stroke-linejoin="round"/>
    <path d="M 115.3124008178711 105.27367401123047 C 210.80078125 137.7819366455078 -76.02828216552734 98.66494750976562 150.4986114501953 123.17412567138672" stroke-width="2" fill="none" stroke="rgb(0, 0, 0)" stroke-opacity="1.0" stroke-linecap="round" stroke-linejoin="round"/>
    <path d="M 157.46534729003906 91.5504150390625 C 225.3802032470703 16.41066551208496 139.7262725830078 143.95455932617188 168.05606079101562 106.25704193115234" stroke-width="2" fill="none" stroke="rgb(0, 0, 0)" stroke-opacity="1.0" stroke-linecap="round" stroke-linejoin="round"/>
    <path d="M 135.975341796875 151.8277587890625 C 118.84107971191406 149.41952514648438 219.51388549804688 156.03048706054688 183.3101348876953 145.3124237060547" stroke-width="2" fill="none" stroke="rgb(0, 0, 0)" stroke-opacity="1.0" stroke-linecap="round" stroke-linejoin="round"/>
    <path d="M 121.27852630615234 115.53694152832031 C 167.45106506347656 139.0615692138672 146.49440002441406 104.90116882324219 150.87330627441406 127.0434341430664" stroke-width="2" fill="none" stroke="rgb(0, 0, 0)" stroke-opacity="1.0" stroke-linecap="round" stroke-linejoin="round"/>
    <path d="M 154.57566833496094 119.26869201660156 C 147.76763916015625 157.33522033691406 71.5198974609375 20.84107780456543 111.3653564453125 96.12461853027344" stroke-width="2" fill="none" stroke="rgb(0, 0, 0)" stroke-opacity="1.0" stroke-linecap="round" stroke-linejoin="round"/>
    <path d="M 166.03085327148438 109.38055419921875 C 136.6632843017578 71.66826629638672 171.9522705078125 127.2582015991211 187.8687286376953 62.84556198120117" stroke-width="2" fill="none" stroke="rgb(0, 0, 0)" stroke-opacity="1.0" stroke-linecap="round" stroke-linejoin="round"/>
    <path d="M 129.8321533203125 138.84078979492188 C 150.3668670654297 151.97543334960938 53.2187614440918 101.36726379394531 87.36534118652344 112.56947326660156" stroke-width="2" fill="none" stroke="rgb(0, 0, 0)" stroke-opacity="1.0" stroke-linecap="round" stroke-linejoin="round"/>
  </g>
</svg>
