<?xml version="1.0" ?>
<svg xmlns="http://www.w3.org/2000/svg" version="1.1" width="224" height="224">
  <defs/>
  <g>
    <path d="M 39.84287643432617 113.66641998291016 C 63.340850830078125 108.25550842285156 41.444976806640625 88.99783325195312 102.59782409667969 96.9617691040039" stroke-width="2" fill="none" stroke="rgb(0, 0, 0)" stroke-opacity="1.0" stroke-linecap="round" stroke-linejoin="round"/>
    <path d="M 47.88851547241211 146.83506774902344 C 197.16961669921875 166.17994689941406 188.2510528564453 137.36361694335938 178.9844207763672 146.11669921875" stroke-width="2" fill="none" stroke="rgb(0, 0, 0)" stroke-opacity="1.0" stroke-linecap="round" stroke-linejoin="round"/>
    <path d="M 141.52725219726562 107.59977722167969 C 115.07423400878906 99.427490234375 180.96946716308594 128.0089111328125 118.5929183959961 108.14755249023438" stroke-width="2" fill="none" stroke="rgb(0, 0, 0)" stroke-opacity="1.0" stroke-linecap="round" stroke-linejoin="round"/>
    <path d="M 150.8255615234375 90.24105072021484 C 177.56712341308594 106.64134216308594 156.6878204345703 76.81647491455078 156.86196899414062 114.92215728759766" stroke-width="2" fill="none" stroke="rgb(0, 0, 0)" stroke-opacity="1.0" stroke-linecap="round" stroke-linejoin="round"/>
    <path d="M 123.24945831298828 99.71519470214844 C 138.78834533691406 105.80182647705078 69.74405670166016 40.613460540771484 126.1732177734375 87.62528228759766" stroke-width="2" fill="none" stroke="rgb(0, 0, 0)" stroke-opacity="1.0" stroke-linecap="round" stroke-linejoin="round"/>
    <path d="M 139.29737854003906 90.45452880859375 C 103.3543472290039 97.92306518554688 158.4989471435547 101.67806243896484 115.46161651611328 89.3204574584961" stroke-width="2" fill="none" stroke="rgb(0, 0, 0)" stroke-opacity="1.0" stroke-linecap="round" stroke-linejoin="round"/>
    <path d="M 138.80955505371094 124.94947052001953 C 97.04150390625 93.09998321533203 176.24575805664062 132.7765655517578 125.48348999023438 119.34738159179688" stroke-width="2" fill="none" stroke="rgb(0, 0, 0)" stroke-opacity="1.0" stroke-linecap="round" stroke-linejoin="round"/>
    <path d="M 94.41249084472656 136.55792236328125 C 165.3701629638672 158.25064086914062 22.168794631958008 165.55528259277344 46.23876190185547 126.45028686523438" stroke-width="2" fill="none" stroke="rgb(0, 0, 0)" stroke-opacity="1.0" stroke-linecap="round" stroke-linejoin="round"/>
    <path d="M 127.01276397705078 114.31319427490234 C 232.20559692382812 158.83949279785156 42.75043869018555 106.92719268798828 146.94244384765625 111.38203430175781" stroke-width="2" fill="none" stroke="rgb(0, 0, 0)" stroke-opacity="1.0" stroke-linecap="round" stroke-linejoin="round"/>
    <path d="M 156.7244415283203 111.83531951904297 C 194.71949768066406 85.48805236816406 123.20762634277344 156.77755737304688 142.77133178710938 112.54609680175781" stroke-width="2" fill="none" stroke="rgb(0, 0, 0)" stroke-opacity="1.0" stroke-linecap="round" stroke-linejoin="round"/>
    <path d="M 161.37557983398438 102.59519958496094 C 210.70526123046875 22.86338233947754 166.92440795898438 94.2536392211914 137.89329528808594 84.9281234741211" stroke-width="2" fill="none" stroke="rgb(0, 0, 0)" stroke-opacity="1.0" stroke-linecap="round" stroke-linejoin="round"/>
    <path d="M 170.57830810546875 144.25880432128906 C 64.09525299072266 121.82829284667969 211.6315155029297 156.173583984375 160.9498291015625 149.5478973388672" stroke-width="2" fill="none" stroke="rgb(0, 0, 0)" stroke-opacity="1.0" stroke-linecap="round" stroke-linejoin="round"/>
    <path d="M 93.46783447265625 106.35120391845703 C 144.3646240234375 151.6328125 58.42216873168945 63.2699089050293 120.45674133300781 139.72923278808594" stroke-width="2" fill="none" stroke="rgb(0, 0, 0)" stroke-opacity="1.0" stroke-linecap="round" stroke-linejoin="round"/>
    <path d="M 139.29489135742188 111.67646789550781 C 101.34294128417969 153.14756774902344 81.99261474609375 9.9624662399292 111.38632202148438 100.8114242553711" stroke-width="2" fill="none" stroke="rgb(0, 0, 0)" stroke-opacity="1.0" stroke-linecap="round" stroke-linejoin="round"/>
    <path d="M 163.622802734375 105.7975082397461 C 134.0375518798828 100.11859893798828 176.8961181640625 136.83119201660156 186.91188049316406 63.5964241027832" stroke-width="2" fill="none" stroke="rgb(0, 0, 0)" stroke-opacity="1.0" stroke-linecap="round" stroke-linejoin="round"/>
    <path d="M 32.66524124145508 102.71321105957031 C 62.71622848510742 100.56763458251953 -24.253816604614258 99.4328384399414 48.20009231567383 97.67794799804688" stroke-width="2" fill="none" stroke="rgb(0, 0, 0)" stroke-opacity="1.0" stroke-linecap="round" stroke-linejoin="round"/>
  </g>
</svg>
