<?xml version="1.0" ?>
<svg xmlns="http://www.w3.org/2000/svg" version="1.1" width="224" height="224">
  <defs/>
  <g>
    <path d="M 39.233184814453125 120.09102630615234 C 68.84564208984375 106.58250427246094 39.43617248535156 96.0703125 95.98736572265625 95.88232421875" stroke-width="2" fill="none" stroke="rgb(0, 0, 0)" stroke-opacity="1.0" stroke-linecap="round" stroke-linejoin="round"/>
    <path d="M 51.549537658691406 150.46551513671875 C 215.93698120117188 160.39913940429688 175.33706665039062 141.1522979736328 171.11036682128906 143.3854522705078" stroke-width="2" fill="none" stroke="rgb(0, 0, 0)" stroke-opacity="1.0" stroke-linecap="round" stroke-linejoin="round"/>
    <path d="M 138.98623657226562 105.00385284423828 C 117.42298126220703 98.37406158447266 167.54959106445312 124.42231750488281 119.94984436035156 117.66749572753906" stroke-width="2" fill="none" stroke="rgb(0, 0, 0)" stroke-opacity="1.0" stroke-linecap="round" stroke-linejoin="round"/>
    <path d="M 160.57534790039062 90.54670715332031 C 172.0098876953125 113.84019470214844 140.29434204101562 101.92762756347656 175.10911560058594 95.81953430175781" stroke-width="2" fill="none" stroke="rgb(0, 0, 0)" stroke-opacity="1.0" stroke-linecap="round" stroke-linejoin="round"/>
    <path d="M 144.21249389648438 94.89701843261719 C 146.4813995361328 108.98035430908203 77.390625 47.7990608215332 117.46932220458984 93.7513198852539" stroke-width="2" fill="none" stroke="rgb(0, 0, 0)" stroke-opacity="1.0" stroke-linecap="round" stroke-linejoin="round"/>
    <path d="M 126.9946060180664 93.72659301757812 C 82.67305755615234 95.70496368408203 175.63441467285156 83.97428131103516 167.73446655273438 91.39451599121094" stroke-width="2" fill="none" stroke="rgb(0, 0, 0)" stroke-opacity="1.0" stroke-linecap="round" stroke-linejoin="round"/>
    <path d="M 139.76138305664062 118.99581909179688 C 90.9277114868164 94.30382537841797 170.6536102294922 152.65359497070312 126.24787902832031 109.5115737915039" stroke-width="2" fill="none" stroke="rgb(0, 0, 0)" stroke-opacity="1.0" stroke-linecap="round" stroke-linejoin="round"/>
    <path d="M 113.22247314453125 131.54757690429688 C 218.5950164794922 154.70571899414062 -3.516035795211792 171.08265686035156 45.72455596923828 117.94679260253906" stroke-width="2" fill="none" stroke="rgb(0, 0, 0)" stroke-opacity="1.0" stroke-linecap="round" stroke-linejoin="round"/>
    <path d="M 120.7340316772461 122.21427917480469 C 225.55343627929688 153.46148681640625 66.78799438476562 111.90495300292969 139.98312377929688 110.87718200683594" stroke-width="2" fill="none" stroke="rgb(0, 0, 0)" stroke-opacity="1.0" stroke-linecap="round" stroke-linejoin="round"/>
    <path d="M 160.51234436035156 124.6231460571289 C 187.14515686035156 114.29788208007812 125.54299926757812 153.85879516601562 140.4140625 113.11668395996094" stroke-width="2" fill="none" stroke="rgb(0, 0, 0)" stroke-opacity="1.0" stroke-linecap="round" stroke-linejoin="round"/>
    <path d="M 150.02993774414062 89.82803344726562 C 218.06240844726562 19.295202255249023 171.9072723388672 95.79545593261719 156.6927947998047 89.87430572509766" stroke-width="2" fill="none" stroke="rgb(0, 0, 0)" stroke-opacity="1.0" stroke-linecap="round" stroke-linejoin="round"/>
    <path d="M 165.38841247558594 147.4500732421875 C 102.12571716308594 130.1458282470703 204.3684844970703 163.02540588378906 171.33412170410156 159.35147094726562" stroke-width="2" fill="none" stroke="rgb(0, 0, 0)" stroke-opacity="1.0" stroke-linecap="round" stroke-linejoin="round"/>
    <path d="M 81.57069396972656 118.0842056274414 C 140.2803497314453 136.073974609375 83.04991149902344 92.11200714111328 108.36880493164062 120.32119750976562" stroke-width="2" fill="none" stroke="rgb(0, 0, 0)" stroke-opacity="1.0" stroke-linecap="round" stroke-linejoin="round"/>
    <path d="M 135.2823944091797 108.89469909667969 C 102.80258178710938 144.24337768554688 81.2103042602539 8.327585220336914 112.68072509765625 104.07798767089844" stroke-width="2" fill="none" stroke="rgb(0, 0, 0)" stroke-opacity="1.0" stroke-linecap="round" stroke-linejoin="round"/>
    <path d="M 159.79554748535156 117.17627716064453 C 129.3937530517578 100.90428161621094 164.6996612548828 145.6242218017578 183.07626342773438 68.83804321289062" stroke-width="2" fill="none" stroke="rgb(0, 0, 0)" stroke-opacity="1.0" stroke-linecap="round" stroke-linejoin="round"/>
    <path d="M 54.046756744384766 124.52998352050781 C 54.41179275512695 107.98895263671875 40.972110748291016 129.41448974609375 41.8998908996582 117.3695297241211" stroke-width="2" fill="none" stroke="rgb(0, 0, 0)" stroke-opacity="1.0" stroke-linecap="round" stroke-linejoin="round"/>
  </g>
</svg>
