<?xml version="1.0" ?>
<svg xmlns="http://www.w3.org/2000/svg" version="1.1" width="224" height="224">
  <defs/>
  <g>
    <path d="M 40.882781982421875 115.3766098022461 C 75.25154113769531 88.82231140136719 87.1434326171875 100.28392028808594 88.01025390625 93.66974639892578" stroke-width="2" fill="none" stroke="rgb(0, 0, 0)" stroke-opacity="1.0" stroke-linecap="round" stroke-linejoin="round"/>
    <path d="M 38.15855407714844 141.53463745117188 C 121.93584442138672 176.8655548095703 145.88046264648438 144.69894409179688 111.1572494506836 140.76895141601562" stroke-width="2" fill="none" stroke="rgb(0, 0, 0)" stroke-opacity="1.0" stroke-linecap="round" stroke-linejoin="round"/>
    <path d="M 161.45909118652344 127.57657623291016 C 43.90026092529297 102.97277069091797 119.8459701538086 139.73646545410156 101.71308898925781 103.65579986572266" stroke-width="2" fill="none" stroke="rgb(0, 0, 0)" stroke-opacity="1.0" stroke-linecap="round" stroke-linejoin="round"/>
    <path d="M 163.83868408203125 136.882080078125 C 131.78562927246094 106.1437759399414 169.71966552734375 124.7376708984375 142.0699920654297 121.10652160644531" stroke-width="2" fill="none" stroke="rgb(0, 0, 0)" stroke-opacity="1.0" stroke-linecap="round" stroke-linejoin="round"/>
    <path d="M 136.8303985595703 98.39726257324219 C 108.35234832763672 113.40138244628906 146.34768676757812 67.93272399902344 166.3194580078125 97.7435302734375" stroke-width="2" fill="none" stroke="rgb(0, 0, 0)" stroke-opacity="1.0" stroke-linecap="round" stroke-linejoin="round"/>
    <path d="M 168.37684631347656 89.45809936523438 C 60.32328796386719 86.82010650634766 140.7118682861328 100.96552276611328 128.11549377441406 103.79823303222656" stroke-width="2" fill="none" stroke="rgb(0, 0, 0)" stroke-opacity="1.0" stroke-linecap="round" stroke-linejoin="round"/>
    <path d="M 103.38921356201172 74.7872085571289 C 107.48605346679688 134.13775634765625 162.5227508544922 108.35881805419922 105.95642852783203 82.8802261352539" stroke-width="2" fill="none" stroke="rgb(0, 0, 0)" stroke-opacity="1.0" stroke-linecap="round" stroke-linejoin="round"/>
    <path d="M 86.9188461303711 150.35296630859375 C 115.60523223876953 141.90016174316406 25.15801239013672 158.14308166503906 38.406700134277344 124.07515716552734" stroke-width="2" fill="none" stroke="rgb(0, 0, 0)" stroke-opacity="1.0" stroke-linecap="round" stroke-linejoin="round"/>
    <path d="M 135.12440490722656 124.35629272460938 C 177.05929565429688 140.8907470703125 98.06358337402344 118.30052185058594 149.33497619628906 135.23658752441406" stroke-width="2" fill="none" stroke="rgb(0, 0, 0)" stroke-opacity="1.0" stroke-linecap="round" stroke-linejoin="round"/>
    <path d="M 156.78274536132812 110.49581909179688 C 175.93374633789062 120.03858947753906 123.30363464355469 106.92298889160156 146.93434143066406 114.84172058105469" stroke-width="2" fill="none" stroke="rgb(0, 0, 0)" stroke-opacity="1.0" stroke-linecap="round" stroke-linejoin="round"/>
    <path d="M 165.1229705810547 95.9952163696289 C 200.416259765625 49.10737228393555 186.16941833496094 57.504024505615234 145.75938415527344 93.11265563964844" stroke-width="2" fill="none" stroke="rgb(0, 0, 0)" stroke-opacity="1.0" stroke-linecap="round" stroke-linejoin="round"/>
    <path d="M 177.22915649414062 150.97703552246094 C 134.57838439941406 157.0731658935547 190.29710388183594 94.17158508300781 147.36228942871094 139.1066131591797" stroke-width="2" fill="none" stroke="rgb(0, 0, 0)" stroke-opacity="1.0" stroke-linecap="round" stroke-linejoin="round"/>
    <path d="M 63.79263687133789 135.50469970703125 C 77.79121398925781 148.71156311035156 56.137245178222656 145.81024169921875 148.06719970703125 153.7667999267578" stroke-width="2" fill="none" stroke="rgb(0, 0, 0)" stroke-opacity="1.0" stroke-linecap="round" stroke-linejoin="round"/>
    <path d="M 150.9404296875 138.5211181640625 C 93.33509063720703 89.87449645996094 81.46038818359375 38.20730209350586 129.8646697998047 95.9272689819336" stroke-width="2" fill="none" stroke="rgb(0, 0, 0)" stroke-opacity="1.0" stroke-linecap="round" stroke-linejoin="round"/>
    <path d="M 177.70608520507812 109.19611358642578 C 164.14634704589844 110.21379852294922 173.88272094726562 138.38099670410156 187.70486450195312 63.86977767944336" stroke-width="2" fill="none" stroke="rgb(0, 0, 0)" stroke-opacity="1.0" stroke-linecap="round" stroke-linejoin="round"/>
    <path d="M 81.22618865966797 107.08512878417969 C 66.83747863769531 88.34729766845703 3.607020854949951 104.6886215209961 66.0765151977539 98.98755645751953" stroke-width="2" fill="none" stroke="rgb(0, 0, 0)" stroke-opacity="1.0" stroke-linecap="round" stroke-linejoin="round"/>
  </g>
</svg>
