<?xml version="1.0" ?>
<svg xmlns="http://www.w3.org/2000/svg" version="1.1" width="224" height="224">
  <defs/>
  <g>
    <path d="M 43.995914459228516 117.17529296875 C 82.9078140258789 93.42998504638672 67.47482299804688 100.59790802001953 100.7856674194336 97.1512451171875" stroke-width="2" fill="none" stroke="rgb(0, 0, 0)" stroke-opacity="1.0" stroke-linecap="round" stroke-linejoin="round"/>
    <path d="M 91.7632827758789 154.27818298339844 C 132.6018524169922 155.85855102539062 143.0263214111328 139.2382354736328 114.02120208740234 140.13650512695312" stroke-width="2" fill="none" stroke="rgb(0, 0, 0)" stroke-opacity="1.0" stroke-linecap="round" stroke-linejoin="round"/>
    <path d="M 143.1433868408203 132.32077026367188 C 70.1420669555664 87.46940612792969 112.7004623413086 130.11012268066406 108.76407623291016 103.6237564086914" stroke-width="2" fill="none" stroke="rgb(0, 0, 0)" stroke-opacity="1.0" stroke-linecap="round" stroke-linejoin="round"/>
    <path d="M 156.4872589111328 122.0880355834961 C 150.9835205078125 89.81411743164062 170.8415985107422 123.27178955078125 154.4811248779297 105.41376495361328" stroke-width="2" fill="none" stroke="rgb(0, 0, 0)" stroke-opacity="1.0" stroke-linecap="round" stroke-linejoin="round"/>
    <path d="M 128.0817108154297 108.07037353515625 C 106.38643646240234 121.08145904541016 139.32862854003906 69.36158752441406 150.91624450683594 98.89055633544922" stroke-width="2" fill="none" stroke="rgb(0, 0, 0)" stroke-opacity="1.0" stroke-linecap="round" stroke-linejoin="round"/>
    <path d="M 171.47848510742188 90.55958557128906 C 89.88593292236328 89.05687713623047 121.99240112304688 92.36914825439453 132.91171264648438 90.6360855102539" stroke-width="2" fill="none" stroke="rgb(0, 0, 0)" stroke-opacity="1.0" stroke-linecap="round" stroke-linejoin="round"/>
    <path d="M 99.6573257446289 66.98609924316406 C 129.72482299804688 131.0486602783203 135.6168212890625 94.56966400146484 98.53304290771484 73.7578353881836" stroke-width="2" fill="none" stroke="rgb(0, 0, 0)" stroke-opacity="1.0" stroke-linecap="round" stroke-linejoin="round"/>
    <path d="M 110.18608856201172 150.7696990966797 C 103.88166046142578 140.73460388183594 31.09876251220703 156.25941467285156 35.996421813964844 126.24435424804688" stroke-width="2" fill="none" stroke="rgb(0, 0, 0)" stroke-opacity="1.0" stroke-linecap="round" stroke-linejoin="round"/>
    <path d="M 150.5546112060547 130.2947235107422 C 201.63674926757812 97.1667709350586 117.63520050048828 123.99927520751953 162.57650756835938 119.90301513671875" stroke-width="2" fill="none" stroke="rgb(0, 0, 0)" stroke-opacity="1.0" stroke-linecap="round" stroke-linejoin="round"/>
    <path d="M 136.08045959472656 115.68640899658203 C 162.98077392578125 114.9501953125 119.25257873535156 111.31682586669922 139.6849822998047 109.65818786621094" stroke-width="2" fill="none" stroke="rgb(0, 0, 0)" stroke-opacity="1.0" stroke-linecap="round" stroke-linejoin="round"/>
    <path d="M 160.4645538330078 78.53599548339844 C 194.7174835205078 47.367149353027344 194.66305541992188 65.9295883178711 158.01283264160156 96.75779724121094" stroke-width="2" fill="none" stroke="rgb(0, 0, 0)" stroke-opacity="1.0" stroke-linecap="round" stroke-linejoin="round"/>
    <path d="M 177.70950317382812 148.11988830566406 C 150.3234100341797 147.0011749267578 182.81126403808594 120.85691833496094 148.96246337890625 114.9093017578125" stroke-width="2" fill="none" stroke="rgb(0, 0, 0)" stroke-opacity="1.0" stroke-linecap="round" stroke-linejoin="round"/>
    <path d="M 76.29792785644531 128.58570861816406 C 75.49161529541016 147.8623504638672 116.79012298583984 145.0433807373047 141.9464569091797 146.0796356201172" stroke-width="2" fill="none" stroke="rgb(0, 0, 0)" stroke-opacity="1.0" stroke-linecap="round" stroke-linejoin="round"/>
    <path d="M 135.95172119140625 124.90479278564453 C 77.90254974365234 80.98812866210938 92.51852416992188 54.46552658081055 133.8243865966797 91.49312591552734" stroke-width="2" fill="none" stroke="rgb(0, 0, 0)" stroke-opacity="1.0" stroke-linecap="round" stroke-linejoin="round"/>
    <path d="M 174.49147033691406 105.3289794921875 C 162.09523010253906 99.40953826904297 169.08700561523438 140.51138305664062 185.5779571533203 67.16313171386719" stroke-width="2" fill="none" stroke="rgb(0, 0, 0)" stroke-opacity="1.0" stroke-linecap="round" stroke-linejoin="round"/>
    <path d="M 81.88284301757812 104.21637725830078 C 61.04364776611328 85.8025894165039 55.56179428100586 127.71223449707031 63.930484771728516 103.72620391845703" stroke-width="2" fill="none" stroke="rgb(0, 0, 0)" stroke-opacity="1.0" stroke-linecap="round" stroke-linejoin="round"/>
  </g>
</svg>
