<?xml version="1.0" ?>
<svg xmlns="http://www.w3.org/2000/svg" version="1.1" width="224" height="224">
  <defs/>
  <g>
    <path d="M 43.506343841552734 115.79608917236328 C 79.25972747802734 90.86763763427734 98.63285064697266 102.3143081665039 93.04471588134766 93.66145324707031" stroke-width="2" fill="none" stroke="rgb(0, 0, 0)" stroke-opacity="1.0" stroke-linecap="round" stroke-linejoin="round"/>
    <path d="M 41.38914108276367 140.04232788085938 C 123.019287109375 175.5251922607422 170.3253631591797 132.7700653076172 126.21815490722656 151.8817901611328" stroke-width="2" fill="none" stroke="rgb(0, 0, 0)" stroke-opacity="1.0" stroke-linecap="round" stroke-linejoin="round"/>
    <path d="M 157.68325805664062 127.78559112548828 C 41.51744079589844 108.83769226074219 110.81745147705078 132.52732849121094 95.13936614990234 109.16395568847656" stroke-width="2" fill="none" stroke="rgb(0, 0, 0)" stroke-opacity="1.0" stroke-linecap="round" stroke-linejoin="round"/>
    <path d="M 159.94869995117188 136.16250610351562 C 132.79022216796875 96.34117889404297 161.9012908935547 122.96693420410156 145.8715362548828 118.74657440185547" stroke-width="2" fill="none" stroke="rgb(0, 0, 0)" stroke-opacity="1.0" stroke-linecap="round" stroke-linejoin="round"/>
    <path d="M 134.45030212402344 98.24982452392578 C 104.72916412353516 124.49618530273438 148.0199737548828 68.86662292480469 165.77577209472656 98.84503936767578" stroke-width="2" fill="none" stroke="rgb(0, 0, 0)" stroke-opacity="1.0" stroke-linecap="round" stroke-linejoin="round"/>
    <path d="M 170.64935302734375 89.53333282470703 C 69.76558685302734 88.9190444946289 154.399658203125 94.74588775634766 125.79041290283203 99.24903106689453" stroke-width="2" fill="none" stroke="rgb(0, 0, 0)" stroke-opacity="1.0" stroke-linecap="round" stroke-linejoin="round"/>
    <path d="M 100.9099349975586 75.91124725341797 C 110.97427368164062 131.32037353515625 157.04441833496094 114.69610595703125 106.1749496459961 94.17623138427734" stroke-width="2" fill="none" stroke="rgb(0, 0, 0)" stroke-opacity="1.0" stroke-linecap="round" stroke-linejoin="round"/>
    <path d="M 83.49673461914062 153.10337829589844 C 127.84501647949219 154.05557250976562 28.3668212890625 153.09487915039062 45.01799774169922 126.04808807373047" stroke-width="2" fill="none" stroke="rgb(0, 0, 0)" stroke-opacity="1.0" stroke-linecap="round" stroke-linejoin="round"/>
    <path d="M 135.0017547607422 120.5011978149414 C 184.49742126464844 155.92919921875 96.56376647949219 112.96417999267578 149.08741760253906 133.3818359375" stroke-width="2" fill="none" stroke="rgb(0, 0, 0)" stroke-opacity="1.0" stroke-linecap="round" stroke-linejoin="round"/>
    <path d="M 154.56524658203125 109.71576690673828 C 175.72422790527344 118.93025970458984 125.36444854736328 108.1808853149414 141.37525939941406 115.19281768798828" stroke-width="2" fill="none" stroke="rgb(0, 0, 0)" stroke-opacity="1.0" stroke-linecap="round" stroke-linejoin="round"/>
    <path d="M 165.2941131591797 94.68791961669922 C 198.61578369140625 50.34666442871094 185.02191162109375 61.0601921081543 149.0569305419922 95.70355987548828" stroke-width="2" fill="none" stroke="rgb(0, 0, 0)" stroke-opacity="1.0" stroke-linecap="round" stroke-linejoin="round"/>
    <path d="M 171.6480712890625 142.2225799560547 C 128.3488006591797 149.07821655273438 191.80276489257812 96.41485595703125 141.4762420654297 136.65655517578125" stroke-width="2" fill="none" stroke="rgb(0, 0, 0)" stroke-opacity="1.0" stroke-linecap="round" stroke-linejoin="round"/>
    <path d="M 68.39622497558594 130.80291748046875 C 82.63240814208984 138.1301727294922 56.720794677734375 153.89920043945312 144.38870239257812 157.49803161621094" stroke-width="2" fill="none" stroke="rgb(0, 0, 0)" stroke-opacity="1.0" stroke-linecap="round" stroke-linejoin="round"/>
    <path d="M 143.4755401611328 135.75982666015625 C 97.75041198730469 96.08555603027344 84.49054718017578 41.115203857421875 132.10108947753906 103.44580841064453" stroke-width="2" fill="none" stroke="rgb(0, 0, 0)" stroke-opacity="1.0" stroke-linecap="round" stroke-linejoin="round"/>
    <path d="M 178.5612335205078 100.75670623779297 C 159.32264709472656 117.0500717163086 178.5701141357422 127.00202178955078 184.4356689453125 65.66938781738281" stroke-width="2" fill="none" stroke="rgb(0, 0, 0)" stroke-opacity="1.0" stroke-linecap="round" stroke-linejoin="round"/>
    <path d="M 80.9198226928711 108.72279357910156 C 77.00457763671875 93.21097564697266 14.10570240020752 112.9384994506836 68.73541259765625 102.47721862792969" stroke-width="2" fill="none" stroke="rgb(0, 0, 0)" stroke-opacity="1.0" stroke-linecap="round" stroke-linejoin="round"/>
  </g>
</svg>
