<?xml version="1.0" ?>
<svg xmlns="http://www.w3.org/2000/svg" version="1.1" width="224" height="224">
  <defs/>
  <g>
    <path d="M 39.97882843017578 116.72898864746094 C 61.30453872680664 115.44065856933594 30.92337989807129 92.61097717285156 96.01216125488281 95.07263946533203" stroke-width="2" fill="none" stroke="rgb(0, 0, 0)" stroke-opacity="1.0" stroke-linecap="round" stroke-linejoin="round"/>
    <path d="M 125.30884552001953 138.3334197998047 C 198.1177215576172 135.70126342773438 159.84373474121094 162.85809326171875 141.10406494140625 148.589111328125" stroke-width="2" fill="none" stroke="rgb(0, 0, 0)" stroke-opacity="1.0" stroke-linecap="round" stroke-linejoin="round"/>
    <path d="M 131.33193969726562 108.21607208251953 C 110.16232299804688 96.18724822998047 177.95619201660156 132.279052734375 117.173828125 112.8906478881836" stroke-width="2" fill="none" stroke="rgb(0, 0, 0)" stroke-opacity="1.0" stroke-linecap="round" stroke-linejoin="round"/>
    <path d="M 148.3467559814453 108.21905517578125 C 189.53298950195312 103.15408325195312 119.0257568359375 105.4740219116211 161.962890625 100.24609375" stroke-width="2" fill="none" stroke="rgb(0, 0, 0)" stroke-opacity="1.0" stroke-linecap="round" stroke-linejoin="round"/>
    <path d="M 138.74240112304688 87.13676452636719 C 123.7008056640625 99.31304168701172 80.28219604492188 30.483369827270508 110.07438659667969 100.04351806640625" stroke-width="2" fill="none" stroke="rgb(0, 0, 0)" stroke-opacity="1.0" stroke-linecap="round" stroke-linejoin="round"/>
    <path d="M 124.40847778320312 94.0697021484375 C 155.06761169433594 71.76380920410156 164.31527709960938 112.50628662109375 149.0495147705078 97.62664031982422" stroke-width="2" fill="none" stroke="rgb(0, 0, 0)" stroke-opacity="1.0" stroke-linecap="round" stroke-linejoin="round"/>
    <path d="M 139.4359130859375 116.64523315429688 C 100.67671203613281 92.5584945678711 168.87261962890625 109.93230438232422 112.10138702392578 107.4193115234375" stroke-width="2" fill="none" stroke="rgb(0, 0, 0)" stroke-opacity="1.0" stroke-linecap="round" stroke-linejoin="round"/>
    <path d="M 110.9866714477539 153.34544372558594 C 241.97019958496094 136.67185974121094 -18.598424911499023 183.37380981445312 49.926055908203125 112.322265625" stroke-width="2" fill="none" stroke="rgb(0, 0, 0)" stroke-opacity="1.0" stroke-linecap="round" stroke-linejoin="round"/>
    <path d="M 170.9052734375 152.04104614257812 C 205.3052978515625 151.69204711914062 50.12309265136719 83.29354095458984 140.62158203125 118.04570007324219" stroke-width="2" fill="none" stroke="rgb(0, 0, 0)" stroke-opacity="1.0" stroke-linecap="round" stroke-linejoin="round"/>
    <path d="M 95.19597625732422 100.52753448486328 C 180.84109497070312 138.57679748535156 106.43787384033203 128.07522583007812 144.42752075195312 126.94674682617188" stroke-width="2" fill="none" stroke="rgb(0, 0, 0)" stroke-opacity="1.0" stroke-linecap="round" stroke-linejoin="round"/>
    <path d="M 165.86512756347656 103.48934173583984 C 226.84730529785156 27.399534225463867 109.85808563232422 115.44254302978516 170.5575714111328 89.1579818725586" stroke-width="2" fill="none" stroke="rgb(0, 0, 0)" stroke-opacity="1.0" stroke-linecap="round" stroke-linejoin="round"/>
    <path d="M 133.76048278808594 156.4091796875 C 141.40963745117188 158.07003784179688 164.60609436035156 146.74124145507812 45.9197998046875 143.51998901367188" stroke-width="2" fill="none" stroke="rgb(0, 0, 0)" stroke-opacity="1.0" stroke-linecap="round" stroke-linejoin="round"/>
    <path d="M 113.06727600097656 136.35028076171875 C 172.5249786376953 162.80250549316406 60.594207763671875 104.8150634765625 139.848388671875 117.40521240234375" stroke-width="2" fill="none" stroke="rgb(0, 0, 0)" stroke-opacity="1.0" stroke-linecap="round" stroke-linejoin="round"/>
    <path d="M 144.4027862548828 112.01314544677734 C 110.87614440917969 153.59420776367188 98.19832611083984 34.903472900390625 108.56045532226562 101.04893493652344" stroke-width="2" fill="none" stroke="rgb(0, 0, 0)" stroke-opacity="1.0" stroke-linecap="round" stroke-linejoin="round"/>
    <path d="M 157.8986053466797 117.32122802734375 C 133.79869079589844 117.79380798339844 170.62608337402344 138.2967071533203 183.653076171875 66.1031265258789" stroke-width="2" fill="none" stroke="rgb(0, 0, 0)" stroke-opacity="1.0" stroke-linecap="round" stroke-linejoin="round"/>
    <path d="M 81.17354583740234 128.05523681640625 C 114.44465637207031 139.03192138671875 66.3442611694336 132.47853088378906 100.16339874267578 141.9691619873047" stroke-width="2" fill="none" stroke="rgb(0, 0, 0)" stroke-opacity="1.0" stroke-linecap="round" stroke-linejoin="round"/>
  </g>
</svg>
