<?xml version="1.0" ?>
<svg xmlns="http://www.w3.org/2000/svg" version="1.1" width="224" height="224">
  <defs/>
  <g>
    <path d="M 43.74263381958008 116.26428985595703 C 62.63203048706055 107.55416107177734 34.73603057861328 93.60233306884766 101.99105834960938 95.39132690429688" stroke-width="2" fill="none" stroke="rgb(0, 0, 0)" stroke-opacity="1.0" stroke-linecap="round" stroke-linejoin="round"/>
    <path d="M 94.86884307861328 126.0329360961914 C 213.63970947265625 143.68048095703125 183.82276916503906 159.48641967773438 140.47010803222656 142.6353759765625" stroke-width="2" fill="none" stroke="rgb(0, 0, 0)" stroke-opacity="1.0" stroke-linecap="round" stroke-linejoin="round"/>
    <path d="M 118.60547637939453 104.64476776123047 C 87.14960479736328 88.93658447265625 169.2913055419922 112.55140686035156 117.03175354003906 111.00642395019531" stroke-width="2" fill="none" stroke="rgb(0, 0, 0)" stroke-opacity="1.0" stroke-linecap="round" stroke-linejoin="round"/>
    <path d="M 146.90185546875 100.78084564208984 C 190.95538330078125 109.35710144042969 124.84598541259766 104.73209381103516 170.23951721191406 102.94452667236328" stroke-width="2" fill="none" stroke="rgb(0, 0, 0)" stroke-opacity="1.0" stroke-linecap="round" stroke-linejoin="round"/>
    <path d="M 135.8460693359375 89.0904541015625 C 111.39646911621094 95.11822509765625 88.8717041015625 36.644981384277344 96.23225402832031 101.41522979736328" stroke-width="2" fill="none" stroke="rgb(0, 0, 0)" stroke-opacity="1.0" stroke-linecap="round" stroke-linejoin="round"/>
    <path d="M 138.78176879882812 85.75411987304688 C 166.2667999267578 71.71858215332031 169.9952392578125 128.79847717285156 148.17376708984375 101.40644073486328" stroke-width="2" fill="none" stroke="rgb(0, 0, 0)" stroke-opacity="1.0" stroke-linecap="round" stroke-linejoin="round"/>
    <path d="M 139.57640075683594 102.85047149658203 C 104.74784851074219 107.5306396484375 168.3116912841797 89.42530822753906 116.32225036621094 111.85452270507812" stroke-width="2" fill="none" stroke="rgb(0, 0, 0)" stroke-opacity="1.0" stroke-linecap="round" stroke-linejoin="round"/>
    <path d="M 71.38540649414062 137.50550842285156 C 214.68833923339844 165.07669067382812 -18.44257354736328 157.918701171875 56.71281814575195 106.92463684082031" stroke-width="2" fill="none" stroke="rgb(0, 0, 0)" stroke-opacity="1.0" stroke-linecap="round" stroke-linejoin="round"/>
    <path d="M 164.7044219970703 154.94747924804688 C 204.9949493408203 163.79078674316406 47.49015808105469 63.16318893432617 130.22886657714844 114.4850082397461" stroke-width="2" fill="none" stroke="rgb(0, 0, 0)" stroke-opacity="1.0" stroke-linecap="round" stroke-linejoin="round"/>
    <path d="M 99.94596862792969 129.46514892578125 C 171.665283203125 115.6927261352539 118.88609313964844 113.99217224121094 138.9330596923828 118.28499603271484" stroke-width="2" fill="none" stroke="rgb(0, 0, 0)" stroke-opacity="1.0" stroke-linecap="round" stroke-linejoin="round"/>
    <path d="M 164.58731079101562 95.03704071044922 C 235.173828125 14.933247566223145 104.90158081054688 122.40512084960938 168.11776733398438 88.38671875" stroke-width="2" fill="none" stroke="rgb(0, 0, 0)" stroke-opacity="1.0" stroke-linecap="round" stroke-linejoin="round"/>
    <path d="M 117.96821594238281 128.63613891601562 C 180.21109008789062 154.4294891357422 193.57635498046875 143.48597717285156 44.4698600769043 142.09182739257812" stroke-width="2" fill="none" stroke="rgb(0, 0, 0)" stroke-opacity="1.0" stroke-linecap="round" stroke-linejoin="round"/>
    <path d="M 118.50477600097656 121.887451171875 C 216.3342742919922 130.00103759765625 66.19269561767578 133.1527862548828 141.24855041503906 102.53337097167969" stroke-width="2" fill="none" stroke="rgb(0, 0, 0)" stroke-opacity="1.0" stroke-linecap="round" stroke-linejoin="round"/>
    <path d="M 125.64933776855469 107.6870346069336 C 120.47682189941406 127.19991302490234 70.64114379882812 22.704936981201172 120.3016357421875 95.46544647216797" stroke-width="2" fill="none" stroke="rgb(0, 0, 0)" stroke-opacity="1.0" stroke-linecap="round" stroke-linejoin="round"/>
    <path d="M 164.71116638183594 116.40497589111328 C 141.70127868652344 111.00445556640625 164.74813842773438 139.22140502929688 184.59185791015625 71.62657928466797" stroke-width="2" fill="none" stroke="rgb(0, 0, 0)" stroke-opacity="1.0" stroke-linecap="round" stroke-linejoin="round"/>
    <path d="M 89.46295166015625 107.50725555419922 C 71.76066589355469 130.88485717773438 85.57353973388672 98.27031707763672 84.98143005371094 123.84379577636719" stroke-width="2" fill="none" stroke="rgb(0, 0, 0)" stroke-opacity="1.0" stroke-linecap="round" stroke-linejoin="round"/>
  </g>
</svg>
