<?xml version="1.0" ?>
<svg xmlns="http://www.w3.org/2000/svg" version="1.1" width="224" height="224">
  <defs/>
  <g>
    <path d="M 43.687686920166016 115.54532623291016 C 61.52540969848633 114.02149200439453 32.99311828613281 89.89244842529297 101.14518737792969 95.369140625" stroke-width="2" fill="none" stroke="rgb(0, 0, 0)" stroke-opacity="1.0" stroke-linecap="round" stroke-linejoin="round"/>
    <path d="M 106.43299102783203 123.63467407226562 C 213.77557373046875 141.432373046875 181.87538146972656 166.03707885742188 149.94476318359375 139.11656188964844" stroke-width="2" fill="none" stroke="rgb(0, 0, 0)" stroke-opacity="1.0" stroke-linecap="round" stroke-linejoin="round"/>
    <path d="M 119.38643646240234 101.9493179321289 C 86.11322784423828 90.30565643310547 174.6497802734375 110.73600006103516 120.15625 114.69115447998047" stroke-width="2" fill="none" stroke="rgb(0, 0, 0)" stroke-opacity="1.0" stroke-linecap="round" stroke-linejoin="round"/>
    <path d="M 153.0511016845703 96.71200561523438 C 186.2045440673828 105.71612548828125 129.14627075195312 99.1473617553711 169.77084350585938 99.11119079589844" stroke-width="2" fill="none" stroke="rgb(0, 0, 0)" stroke-opacity="1.0" stroke-linecap="round" stroke-linejoin="round"/>
    <path d="M 135.88755798339844 84.87553405761719 C 115.07144165039062 92.47175598144531 84.7464370727539 41.45976257324219 99.77503204345703 96.81365203857422" stroke-width="2" fill="none" stroke="rgb(0, 0, 0)" stroke-opacity="1.0" stroke-linecap="round" stroke-linejoin="round"/>
    <path d="M 142.9913787841797 83.61495971679688 C 166.35995483398438 72.70816040039062 175.71353149414062 121.17053985595703 147.7298583984375 102.151611328125" stroke-width="2" fill="none" stroke="rgb(0, 0, 0)" stroke-opacity="1.0" stroke-linecap="round" stroke-linejoin="round"/>
    <path d="M 138.25762939453125 105.58213806152344 C 109.80521392822266 112.10550689697266 167.17465209960938 77.77919006347656 120.48432159423828 117.54315185546875" stroke-width="2" fill="none" stroke="rgb(0, 0, 0)" stroke-opacity="1.0" stroke-linecap="round" stroke-linejoin="round"/>
    <path d="M 83.994140625 138.68780517578125 C 221.9774169921875 162.897216796875 -15.801684379577637 160.60414123535156 53.60383987426758 104.58457946777344" stroke-width="2" fill="none" stroke="rgb(0, 0, 0)" stroke-opacity="1.0" stroke-linecap="round" stroke-linejoin="round"/>
    <path d="M 169.16720581054688 156.13710021972656 C 204.66998291015625 162.90188598632812 48.74625778198242 65.02879333496094 130.1090850830078 118.8432388305664" stroke-width="2" fill="none" stroke="rgb(0, 0, 0)" stroke-opacity="1.0" stroke-linecap="round" stroke-linejoin="round"/>
    <path d="M 100.16000366210938 126.61466217041016 C 194.53697204589844 122.21245574951172 119.99539184570312 113.78271484375 148.2274932861328 112.1866455078125" stroke-width="2" fill="none" stroke="rgb(0, 0, 0)" stroke-opacity="1.0" stroke-linecap="round" stroke-linejoin="round"/>
    <path d="M 170.34219360351562 99.2977294921875 C 225.40902709960938 10.4478178024292 114.60790252685547 114.91377258300781 170.56764221191406 78.57394409179688" stroke-width="2" fill="none" stroke="rgb(0, 0, 0)" stroke-opacity="1.0" stroke-linecap="round" stroke-linejoin="round"/>
    <path d="M 121.35137939453125 127.10067749023438 C 197.4183807373047 144.48704528808594 202.6819305419922 148.96188354492188 43.85095977783203 142.47268676757812" stroke-width="2" fill="none" stroke="rgb(0, 0, 0)" stroke-opacity="1.0" stroke-linecap="round" stroke-linejoin="round"/>
    <path d="M 120.39505004882812 119.3817367553711 C 206.91134643554688 134.79888916015625 64.37059783935547 120.52450561523438 139.17144775390625 101.06768035888672" stroke-width="2" fill="none" stroke="rgb(0, 0, 0)" stroke-opacity="1.0" stroke-linecap="round" stroke-linejoin="round"/>
    <path d="M 135.47801208496094 108.85868072509766 C 117.93439483642578 128.8966064453125 72.02629089355469 29.567564010620117 118.25057983398438 91.52317810058594" stroke-width="2" fill="none" stroke="rgb(0, 0, 0)" stroke-opacity="1.0" stroke-linecap="round" stroke-linejoin="round"/>
    <path d="M 165.93177795410156 111.92801666259766 C 153.79690551757812 104.80223083496094 164.9560546875 138.57940673828125 179.86489868164062 64.10814666748047" stroke-width="2" fill="none" stroke="rgb(0, 0, 0)" stroke-opacity="1.0" stroke-linecap="round" stroke-linejoin="round"/>
    <path d="M 97.90149688720703 106.44474029541016 C 75.09976959228516 125.99374389648438 97.65390014648438 99.24920654296875 89.40811157226562 120.83788299560547" stroke-width="2" fill="none" stroke="rgb(0, 0, 0)" stroke-opacity="1.0" stroke-linecap="round" stroke-linejoin="round"/>
  </g>
</svg>
