<?xml version="1.0" ?>
<svg xmlns="http://www.w3.org/2000/svg" version="1.1" width="224" height="224">
  <defs/>
  <g>
    <path d="M 56.008399963378906 101.83137512207031 C 78.96611022949219 104.24272918701172 105.23692321777344 72.05247497558594 118.71009826660156 129.18397521972656" stroke-width="2" fill="none" stroke="rgb(0, 0, 0)" stroke-opacity="1.0" stroke-linecap="round" stroke-linejoin="round"/>
    <path d="M 110.55424499511719 151.50936889648438 C 213.16070556640625 131.83103942871094 172.7368927001953 163.01954650878906 193.66241455078125 141.86355590820312" stroke-width="2" fill="none" stroke="rgb(0, 0, 0)" stroke-opacity="1.0" stroke-linecap="round" stroke-linejoin="round"/>
    <path d="M 134.3202362060547 109.97553253173828 C 50.68508529663086 116.5103530883789 321.2896423339844 156.80531311035156 116.5595474243164 141.4781951904297" stroke-width="2" fill="none" stroke="rgb(0, 0, 0)" stroke-opacity="1.0" stroke-linecap="round" stroke-linejoin="round"/>
    <path d="M 158.9894256591797 116.5313949584961 C 193.1465606689453 105.40150451660156 106.2881088256836 81.55695343017578 174.5739288330078 87.29811096191406" stroke-width="2" fill="none" stroke="rgb(0, 0, 0)" stroke-opacity="1.0" stroke-linecap="round" stroke-linejoin="round"/>
    <path d="M 138.04136657714844 87.09877014160156 C 120.17190551757812 99.67707061767578 91.2059097290039 34.85152816772461 98.49699401855469 94.29991912841797" stroke-width="2" fill="none" stroke="rgb(0, 0, 0)" stroke-opacity="1.0" stroke-linecap="round" stroke-linejoin="round"/>
    <path d="M 123.61864471435547 87.79174041748047 C 195.4355010986328 81.28547668457031 134.0263214111328 141.1592254638672 161.73716735839844 100.12008666992188" stroke-width="2" fill="none" stroke="rgb(0, 0, 0)" stroke-opacity="1.0" stroke-linecap="round" stroke-linejoin="round"/>
    <path d="M 134.28660583496094 107.1676025390625 C 110.31868743896484 104.19489288330078 154.69618225097656 88.60857391357422 119.23672485351562 108.65792846679688" stroke-width="2" fill="none" stroke="rgb(0, 0, 0)" stroke-opacity="1.0" stroke-linecap="round" stroke-linejoin="round"/>
    <path d="M 151.88470458984375 146.73875427246094 C 268.4893798828125 125.88954162597656 -22.727956771850586 187.79275512695312 62.343814849853516 101.98388671875" stroke-width="2" fill="none" stroke="rgb(0, 0, 0)" stroke-opacity="1.0" stroke-linecap="round" stroke-linejoin="round"/>
    <path d="M 123.16582489013672 111.45098114013672 C 199.83355712890625 137.2129364013672 75.43885803222656 94.45206451416016 128.65701293945312 101.7597427368164" stroke-width="2" fill="none" stroke="rgb(0, 0, 0)" stroke-opacity="1.0" stroke-linecap="round" stroke-linejoin="round"/>
    <path d="M 122.067138671875 115.41295623779297 C 208.72654724121094 121.58302307128906 59.081668853759766 117.42607116699219 147.3548583984375 112.91582489013672" stroke-width="2" fill="none" stroke="rgb(0, 0, 0)" stroke-opacity="1.0" stroke-linecap="round" stroke-linejoin="round"/>
    <path d="M 167.67129516601562 93.0166015625 C 231.00636291503906 11.329345703125 119.97782897949219 127.90716552734375 179.8511505126953 69.2032470703125" stroke-width="2" fill="none" stroke="rgb(0, 0, 0)" stroke-opacity="1.0" stroke-linecap="round" stroke-linejoin="round"/>
    <path d="M 150.3284149169922 146.21310424804688 C 161.67591857910156 141.76016235351562 138.16146850585938 156.30592346191406 151.7987518310547 145.51268005371094" stroke-width="2" fill="none" stroke="rgb(0, 0, 0)" stroke-opacity="1.0" stroke-linecap="round" stroke-linejoin="round"/>
    <path d="M 154.6108856201172 128.5084228515625 C 195.24276733398438 114.00879669189453 118.47625732421875 107.77043914794922 146.04603576660156 107.77925872802734" stroke-width="2" fill="none" stroke="rgb(0, 0, 0)" stroke-opacity="1.0" stroke-linecap="round" stroke-linejoin="round"/>
    <path d="M 129.6602020263672 118.34716796875 C 177.99765014648438 192.35702514648438 64.48162078857422 4.865314960479736 115.38383483886719 95.18599700927734" stroke-width="2" fill="none" stroke="rgb(0, 0, 0)" stroke-opacity="1.0" stroke-linecap="round" stroke-linejoin="round"/>
    <path d="M 171.69454956054688 99.75492858886719 C 138.202880859375 97.64039611816406 176.9412078857422 132.6226348876953 184.54698181152344 68.73031616210938" stroke-width="2" fill="none" stroke="rgb(0, 0, 0)" stroke-opacity="1.0" stroke-linecap="round" stroke-linejoin="round"/>
    <path d="M 156.47731018066406 152.74374389648438 C 163.56295776367188 167.017578125 66.51319885253906 116.98150634765625 97.71977233886719 128.68226623535156" stroke-width="2" fill="none" stroke="rgb(0, 0, 0)" stroke-opacity="1.0" stroke-linecap="round" stroke-linejoin="round"/>
  </g>
</svg>
