<?xml version="1.0" ?>
<svg xmlns="http://www.w3.org/2000/svg" version="1.1" width="224" height="224">
  <defs/>
  <g>
    <path d="M 37.98885726928711 123.43235778808594 C 63.64613342285156 120.395751953125 34.01145935058594 79.53451538085938 120.10067749023438 101.59857940673828" stroke-width="2" fill="none" stroke="rgb(0, 0, 0)" stroke-opacity="1.0" stroke-linecap="round" stroke-linejoin="round"/>
    <path d="M 76.13652801513672 137.9798126220703 C 214.30857849121094 173.19680786132812 186.62632751464844 138.59910583496094 162.09832763671875 141.87265014648438" stroke-width="2" fill="none" stroke="rgb(0, 0, 0)" stroke-opacity="1.0" stroke-linecap="round" stroke-linejoin="round"/>
    <path d="M 134.80722045898438 105.87986755371094 C 109.59403991699219 104.20381164550781 157.53273010253906 111.07432556152344 122.61140441894531 116.23057556152344" stroke-width="2" fill="none" stroke="rgb(0, 0, 0)" stroke-opacity="1.0" stroke-linecap="round" stroke-linejoin="round"/>
    <path d="M 145.35818481445312 96.23764038085938 C 166.13868713378906 119.39569091796875 116.37433624267578 92.43610382080078 165.75991821289062 106.60213470458984" stroke-width="2" fill="none" stroke="rgb(0, 0, 0)" stroke-opacity="1.0" stroke-linecap="round" stroke-linejoin="round"/>
    <path d="M 140.14764404296875 88.39292907714844 C 127.41410064697266 108.75775146484375 78.31881713867188 22.96092414855957 110.67875671386719 110.06678009033203" stroke-width="2" fill="none" stroke="rgb(0, 0, 0)" stroke-opacity="1.0" stroke-linecap="round" stroke-linejoin="round"/>
    <path d="M 118.77383422851562 97.39364624023438 C 84.6229248046875 85.14441680908203 181.6995391845703 89.89791870117188 179.95230102539062 80.72164916992188" stroke-width="2" fill="none" stroke="rgb(0, 0, 0)" stroke-opacity="1.0" stroke-linecap="round" stroke-linejoin="round"/>
    <path d="M 155.53208923339844 127.3087158203125 C 89.86189270019531 123.22314453125 175.99610900878906 141.0552520751953 125.25807189941406 109.9652328491211" stroke-width="2" fill="none" stroke="rgb(0, 0, 0)" stroke-opacity="1.0" stroke-linecap="round" stroke-linejoin="round"/>
    <path d="M 96.9667739868164 141.11289978027344 C 259.05755615234375 147.1908416748047 -37.03752899169922 178.22235107421875 59.65212631225586 108.35965728759766" stroke-width="2" fill="none" stroke="rgb(0, 0, 0)" stroke-opacity="1.0" stroke-linecap="round" stroke-linejoin="round"/>
    <path d="M 148.39649963378906 140.9333953857422 C 232.3816375732422 158.447509765625 67.99640655517578 102.21831512451172 142.75572204589844 119.55480194091797" stroke-width="2" fill="none" stroke="rgb(0, 0, 0)" stroke-opacity="1.0" stroke-linecap="round" stroke-linejoin="round"/>
    <path d="M 165.2734375 131.6778564453125 C 181.6594696044922 106.77069091796875 140.1298370361328 165.4062957763672 140.5762176513672 107.75183868408203" stroke-width="2" fill="none" stroke="rgb(0, 0, 0)" stroke-opacity="1.0" stroke-linecap="round" stroke-linejoin="round"/>
    <path d="M 158.9929962158203 93.29883575439453 C 219.47119140625 19.114215850830078 168.33351135253906 109.56891632080078 150.21713256835938 102.0930404663086" stroke-width="2" fill="none" stroke="rgb(0, 0, 0)" stroke-opacity="1.0" stroke-linecap="round" stroke-linejoin="round"/>
    <path d="M 155.08065795898438 151.67494201660156 C 133.48179626464844 162.94729614257812 182.6689453125 156.67227172851562 136.99514770507812 143.62965393066406" stroke-width="2" fill="none" stroke="rgb(0, 0, 0)" stroke-opacity="1.0" stroke-linecap="round" stroke-linejoin="round"/>
    <path d="M 94.99068450927734 100.95819854736328 C 149.86399841308594 151.02032470703125 79.7498550415039 110.71786499023438 142.78302001953125 112.30738830566406" stroke-width="2" fill="none" stroke="rgb(0, 0, 0)" stroke-opacity="1.0" stroke-linecap="round" stroke-linejoin="round"/>
    <path d="M 144.94371032714844 110.85765838623047 C 110.43452453613281 151.00314331054688 87.46209716796875 29.099918365478516 113.55679321289062 88.30628204345703" stroke-width="2" fill="none" stroke="rgb(0, 0, 0)" stroke-opacity="1.0" stroke-linecap="round" stroke-linejoin="round"/>
    <path d="M 167.83303833007812 113.40770721435547 C 132.83055114746094 102.56462860107422 171.60858154296875 136.80889892578125 186.28350830078125 69.89447784423828" stroke-width="2" fill="none" stroke="rgb(0, 0, 0)" stroke-opacity="1.0" stroke-linecap="round" stroke-linejoin="round"/>
    <path d="M 57.28333282470703 133.8544921875 C 73.60025787353516 139.24559020996094 37.288597106933594 121.47897338867188 68.19915771484375 142.85337829589844" stroke-width="2" fill="none" stroke="rgb(0, 0, 0)" stroke-opacity="1.0" stroke-linecap="round" stroke-linejoin="round"/>
  </g>
</svg>
