<?xml version="1.0" ?>
<svg xmlns="http://www.w3.org/2000/svg" version="1.1" width="224" height="224">
  <defs/>
  <g>
    <path d="M 82.05419921875 114.31831359863281 C 85.76734924316406 116.7267074584961 55.33205795288086 104.25768280029297 101.08201599121094 102.43185424804688" stroke-width="2" fill="none" stroke="rgb(0, 0, 0)" stroke-opacity="1.0" stroke-linecap="round" stroke-linejoin="round"/>
    <path d="M 104.48011016845703 151.66012573242188 C 147.1896514892578 151.12545776367188 133.7664031982422 141.83912658691406 123.2246322631836 147.02781677246094" stroke-width="2" fill="none" stroke="rgb(0, 0, 0)" stroke-opacity="1.0" stroke-linecap="round" stroke-linejoin="round"/>
    <path d="M 140.4395294189453 128.60012817382812 C 55.41777420043945 114.24114990234375 134.5554962158203 138.67019653320312 95.0691909790039 114.77161407470703" stroke-width="2" fill="none" stroke="rgb(0, 0, 0)" stroke-opacity="1.0" stroke-linecap="round" stroke-linejoin="round"/>
    <path d="M 161.69024658203125 110.08513641357422 C 129.7218780517578 92.76585388183594 192.60134887695312 113.61375427246094 144.96078491210938 112.31964874267578" stroke-width="2" fill="none" stroke="rgb(0, 0, 0)" stroke-opacity="1.0" stroke-linecap="round" stroke-linejoin="round"/>
    <path d="M 138.61724853515625 101.99073791503906 C 124.1708984375 122.58650207519531 136.80101013183594 72.4635238647461 159.50201416015625 94.21148681640625" stroke-width="2" fill="none" stroke="rgb(0, 0, 0)" stroke-opacity="1.0" stroke-linecap="round" stroke-linejoin="round"/>
    <path d="M 172.9657440185547 77.64061737060547 C 95.53630065917969 104.69601440429688 123.91584777832031 82.19852447509766 119.39642333984375 101.29832458496094" stroke-width="2" fill="none" stroke="rgb(0, 0, 0)" stroke-opacity="1.0" stroke-linecap="round" stroke-linejoin="round"/>
    <path d="M 100.31185913085938 72.01416015625 C 126.85906219482422 119.53871154785156 150.2685546875 91.8196792602539 97.4483642578125 65.76482391357422" stroke-width="2" fill="none" stroke="rgb(0, 0, 0)" stroke-opacity="1.0" stroke-linecap="round" stroke-linejoin="round"/>
    <path d="M 92.41476440429688 149.50852966308594 C 106.24933624267578 154.07705688476562 30.70025062561035 148.74557495117188 44.93715286254883 128.2627716064453" stroke-width="2" fill="none" stroke="rgb(0, 0, 0)" stroke-opacity="1.0" stroke-linecap="round" stroke-linejoin="round"/>
    <path d="M 154.62017822265625 129.6235809326172 C 197.7628936767578 96.12626647949219 146.35935974121094 107.75189208984375 166.6779327392578 117.12513732910156" stroke-width="2" fill="none" stroke="rgb(0, 0, 0)" stroke-opacity="1.0" stroke-linecap="round" stroke-linejoin="round"/>
    <path d="M 132.19766235351562 124.36759185791016 C 155.61033630371094 118.20103454589844 114.30754089355469 138.11688232421875 114.48377227783203 111.87681579589844" stroke-width="2" fill="none" stroke="rgb(0, 0, 0)" stroke-opacity="1.0" stroke-linecap="round" stroke-linejoin="round"/>
    <path d="M 184.18002319335938 62.970619201660156 C 190.04718017578125 59.10759735107422 178.5580291748047 62.28430938720703 166.49728393554688 89.53156280517578" stroke-width="2" fill="none" stroke="rgb(0, 0, 0)" stroke-opacity="1.0" stroke-linecap="round" stroke-linejoin="round"/>
    <path d="M 175.63816833496094 146.89942932128906 C 148.23719787597656 150.01023864746094 182.1504364013672 119.65160369873047 146.14796447753906 122.76522064208984" stroke-width="2" fill="none" stroke="rgb(0, 0, 0)" stroke-opacity="1.0" stroke-linecap="round" stroke-linejoin="round"/>
    <path d="M 69.15409088134766 133.35723876953125 C 68.09325408935547 153.5703125 90.96804809570312 151.08642578125 125.80084991455078 154.20297241210938" stroke-width="2" fill="none" stroke="rgb(0, 0, 0)" stroke-opacity="1.0" stroke-linecap="round" stroke-linejoin="round"/>
    <path d="M 118.716796875 112.1130599975586 C 91.2227554321289 81.73519897460938 97.56664276123047 62.968360900878906 137.2976837158203 88.30857849121094" stroke-width="2" fill="none" stroke="rgb(0, 0, 0)" stroke-opacity="1.0" stroke-linecap="round" stroke-linejoin="round"/>
    <path d="M 172.5966033935547 103.39154052734375 C 166.43136596679688 89.58123779296875 174.55999755859375 136.20655822753906 188.14920043945312 66.28950500488281" stroke-width="2" fill="none" stroke="rgb(0, 0, 0)" stroke-opacity="1.0" stroke-linecap="round" stroke-linejoin="round"/>
    <path d="M 82.90350341796875 109.77555084228516 C 53.759849548339844 103.16133880615234 63.23554611206055 108.98662567138672 43.13674545288086 122.32146453857422" stroke-width="2" fill="none" stroke="rgb(0, 0, 0)" stroke-opacity="1.0" stroke-linecap="round" stroke-linejoin="round"/>
  </g>
</svg>
