<?xml version="1.0" ?>
<svg xmlns="http://www.w3.org/2000/svg" version="1.1" width="224" height="224">
  <defs/>
  <g>
    <path d="M 47.68496322631836 118.49791717529297 C 62.07703399658203 91.38522338867188 97.12698364257812 99.63343811035156 92.59251403808594 94.418212890625" stroke-width="2" fill="none" stroke="rgb(0, 0, 0)" stroke-opacity="1.0" stroke-linecap="round" stroke-linejoin="round"/>
    <path d="M 47.242515563964844 146.43296813964844 C 206.52684020996094 180.438232421875 202.63360595703125 118.78471374511719 166.94480895996094 153.3721160888672" stroke-width="2" fill="none" stroke="rgb(0, 0, 0)" stroke-opacity="1.0" stroke-linecap="round" stroke-linejoin="round"/>
    <path d="M 149.7488250732422 115.23512268066406 C 112.2753677368164 105.56659698486328 143.55816650390625 123.61961364746094 138.6436004638672 111.20487213134766" stroke-width="2" fill="none" stroke="rgb(0, 0, 0)" stroke-opacity="1.0" stroke-linecap="round" stroke-linejoin="round"/>
    <path d="M 159.06097412109375 107.90086364746094 C 152.07769775390625 133.93211364746094 181.46566772460938 93.26070404052734 154.69891357421875 127.45967864990234" stroke-width="2" fill="none" stroke="rgb(0, 0, 0)" stroke-opacity="1.0" stroke-linecap="round" stroke-linejoin="round"/>
    <path d="M 130.81967163085938 105.73566436767578 C 109.23780822753906 120.85330963134766 134.1897735595703 73.12128448486328 149.45703125 95.65283966064453" stroke-width="2" fill="none" stroke="rgb(0, 0, 0)" stroke-opacity="1.0" stroke-linecap="round" stroke-linejoin="round"/>
    <path d="M 165.82191467285156 90.25306701660156 C 26.84258270263672 91.71895599365234 177.80625915527344 117.32476043701172 104.32061004638672 85.74276733398438" stroke-width="2" fill="none" stroke="rgb(0, 0, 0)" stroke-opacity="1.0" stroke-linecap="round" stroke-linejoin="round"/>
    <path d="M 113.77977752685547 133.35101318359375 C 106.03959655761719 130.48638916015625 117.27259063720703 106.68827819824219 87.1713638305664 108.35298919677734" stroke-width="2" fill="none" stroke="rgb(0, 0, 0)" stroke-opacity="1.0" stroke-linecap="round" stroke-linejoin="round"/>
    <path d="M 42.46946334838867 129.99090576171875 C 56.13484191894531 147.57675170898438 42.29376983642578 133.64938354492188 45.591209411621094 125.60662841796875" stroke-width="2" fill="none" stroke="rgb(0, 0, 0)" stroke-opacity="1.0" stroke-linecap="round" stroke-linejoin="round"/>
    <path d="M 118.97723388671875 139.20138549804688 C 224.51492309570312 153.01576232910156 103.27870178222656 133.6927947998047 150.18035888671875 134.8338165283203" stroke-width="2" fill="none" stroke="rgb(0, 0, 0)" stroke-opacity="1.0" stroke-linecap="round" stroke-linejoin="round"/>
    <path d="M 155.26058959960938 102.78619384765625 C 195.24908447265625 112.20024871826172 99.72320556640625 113.52083587646484 140.9290313720703 117.55054473876953" stroke-width="2" fill="none" stroke="rgb(0, 0, 0)" stroke-opacity="1.0" stroke-linecap="round" stroke-linejoin="round"/>
    <path d="M 158.544677734375 90.30029296875 C 202.478271484375 30.826154708862305 173.08824157714844 93.73749542236328 145.6338348388672 87.06226348876953" stroke-width="2" fill="none" stroke="rgb(0, 0, 0)" stroke-opacity="1.0" stroke-linecap="round" stroke-linejoin="round"/>
    <path d="M 143.05043029785156 156.98867797851562 C 112.0886001586914 144.11599731445312 189.177734375 172.42929077148438 173.26287841796875 146.4918975830078" stroke-width="2" fill="none" stroke="rgb(0, 0, 0)" stroke-opacity="1.0" stroke-linecap="round" stroke-linejoin="round"/>
    <path d="M 98.53507232666016 122.53006744384766 C 141.8115234375 154.53907775878906 79.67046356201172 107.49474334716797 120.92109680175781 143.99119567871094" stroke-width="2" fill="none" stroke="rgb(0, 0, 0)" stroke-opacity="1.0" stroke-linecap="round" stroke-linejoin="round"/>
    <path d="M 145.53720092773438 127.81922912597656 C 106.70764923095703 121.83987426757812 67.76605987548828 32.3203010559082 132.52574157714844 92.59255981445312" stroke-width="2" fill="none" stroke="rgb(0, 0, 0)" stroke-opacity="1.0" stroke-linecap="round" stroke-linejoin="round"/>
    <path d="M 151.3114776611328 108.34136199951172 C 129.5006561279297 93.4264144897461 166.58644104003906 146.5799560546875 183.66903686523438 62.61747360229492" stroke-width="2" fill="none" stroke="rgb(0, 0, 0)" stroke-opacity="1.0" stroke-linecap="round" stroke-linejoin="round"/>
    <path d="M 80.08464813232422 105.89930725097656 C 63.7436408996582 90.36518859863281 -3.904054641723633 136.61740112304688 73.49742126464844 97.37641906738281" stroke-width="2" fill="none" stroke="rgb(0, 0, 0)" stroke-opacity="1.0" stroke-linecap="round" stroke-linejoin="round"/>
  </g>
</svg>
