<?xml version="1.0" ?>
<svg xmlns="http://www.w3.org/2000/svg" version="1.1" width="224" height="224">
  <defs/>
  <g>
    <path d="M 41.4456672668457 117.22772979736328 C 73.8924331665039 85.64000701904297 73.20924377441406 98.51171112060547 96.49951171875 92.6467514038086" stroke-width="2" fill="none" stroke="rgb(0, 0, 0)" stroke-opacity="1.0" stroke-linecap="round" stroke-linejoin="round"/>
    <path d="M 53.11555480957031 149.8060760498047 C 225.91014099121094 162.39874267578125 179.8711700439453 137.55198669433594 157.3296661376953 140.7956085205078" stroke-width="2" fill="none" stroke="rgb(0, 0, 0)" stroke-opacity="1.0" stroke-linecap="round" stroke-linejoin="round"/>
    <path d="M 139.6933135986328 101.39176940917969 C 110.81808471679688 94.6775131225586 177.96353149414062 120.16534423828125 124.10509490966797 110.11798095703125" stroke-width="2" fill="none" stroke="rgb(0, 0, 0)" stroke-opacity="1.0" stroke-linecap="round" stroke-linejoin="round"/>
    <path d="M 156.24444580078125 93.38378143310547 C 143.24880981445312 138.82376098632812 176.22756958007812 84.47209167480469 157.4419708251953 115.2581787109375" stroke-width="2" fill="none" stroke="rgb(0, 0, 0)" stroke-opacity="1.0" stroke-linecap="round" stroke-linejoin="round"/>
    <path d="M 108.36173248291016 112.6023941040039 C 136.62156677246094 113.30792236328125 63.585445404052734 42.290916442871094 127.14250183105469 89.51313018798828" stroke-width="2" fill="none" stroke="rgb(0, 0, 0)" stroke-opacity="1.0" stroke-linecap="round" stroke-linejoin="round"/>
    <path d="M 139.7845001220703 83.87258911132812 C 56.265926361083984 83.7374038696289 172.65599060058594 115.9219741821289 103.46969604492188 83.1709976196289" stroke-width="2" fill="none" stroke="rgb(0, 0, 0)" stroke-opacity="1.0" stroke-linecap="round" stroke-linejoin="round"/>
    <path d="M 110.18045043945312 144.66616821289062 C 91.198486328125 104.43815612792969 114.75090789794922 146.3551483154297 115.2619400024414 114.93809509277344" stroke-width="2" fill="none" stroke="rgb(0, 0, 0)" stroke-opacity="1.0" stroke-linecap="round" stroke-linejoin="round"/>
    <path d="M 42.14222717285156 142.57591247558594 C 77.78266906738281 155.20779418945312 30.719959259033203 147.53512573242188 38.85500717163086 131.33798217773438" stroke-width="2" fill="none" stroke="rgb(0, 0, 0)" stroke-opacity="1.0" stroke-linecap="round" stroke-linejoin="round"/>
    <path d="M 123.05622100830078 122.04962921142578 C 229.54058837890625 141.88340759277344 40.794124603271484 113.10900115966797 153.98605346679688 118.66545867919922" stroke-width="2" fill="none" stroke="rgb(0, 0, 0)" stroke-opacity="1.0" stroke-linecap="round" stroke-linejoin="round"/>
    <path d="M 155.96031188964844 92.42100524902344 C 202.11256408691406 82.18209838867188 93.5745849609375 133.1766815185547 140.71717834472656 102.99453735351562" stroke-width="2" fill="none" stroke="rgb(0, 0, 0)" stroke-opacity="1.0" stroke-linecap="round" stroke-linejoin="round"/>
    <path d="M 170.66175842285156 87.55540466308594 C 211.4428253173828 23.573936462402344 165.1478729248047 99.74437713623047 145.23440551757812 82.97845458984375" stroke-width="2" fill="none" stroke="rgb(0, 0, 0)" stroke-opacity="1.0" stroke-linecap="round" stroke-linejoin="round"/>
    <path d="M 160.44386291503906 154.774169921875 C 87.02245330810547 128.49440002441406 204.75363159179688 167.04954528808594 167.21994018554688 149.0212860107422" stroke-width="2" fill="none" stroke="rgb(0, 0, 0)" stroke-opacity="1.0" stroke-linecap="round" stroke-linejoin="round"/>
    <path d="M 80.30899047851562 117.91971588134766 C 125.20929718017578 136.55145263671875 37.87009048461914 93.23948669433594 117.32783508300781 145.64382934570312" stroke-width="2" fill="none" stroke="rgb(0, 0, 0)" stroke-opacity="1.0" stroke-linecap="round" stroke-linejoin="round"/>
    <path d="M 141.20138549804688 108.12151336669922 C 124.63899230957031 146.1846160888672 60.80903244018555 16.011186599731445 127.12738037109375 84.2506103515625" stroke-width="2" fill="none" stroke="rgb(0, 0, 0)" stroke-opacity="1.0" stroke-linecap="round" stroke-linejoin="round"/>
    <path d="M 159.54640197753906 109.92585754394531 C 127.88298034667969 77.06075286865234 167.36326599121094 141.64991760253906 183.77752685546875 69.27994537353516" stroke-width="2" fill="none" stroke="rgb(0, 0, 0)" stroke-opacity="1.0" stroke-linecap="round" stroke-linejoin="round"/>
    <path d="M 44.87989044189453 122.697265625 C 62.804298400878906 98.3681640625 -11.545928001403809 102.91970825195312 71.10774993896484 105.06163024902344" stroke-width="2" fill="none" stroke="rgb(0, 0, 0)" stroke-opacity="1.0" stroke-linecap="round" stroke-linejoin="round"/>
  </g>
</svg>
