<?xml version="1.0" ?>
<svg xmlns="http://www.w3.org/2000/svg" version="1.1" width="224" height="224">
  <defs/>
  <g>
    <path d="M 32.276405334472656 124.81879425048828 C 61.276153564453125 123.21736907958984 24.48016929626465 84.26731872558594 121.62559509277344 104.23310089111328" stroke-width="2" fill="none" stroke="rgb(0, 0, 0)" stroke-opacity="1.0" stroke-linecap="round" stroke-linejoin="round"/>
    <path d="M 110.69652557373047 129.13369750976562 C 201.515625 131.28692626953125 172.61744689941406 156.5857696533203 164.63787841796875 139.9833221435547" stroke-width="2" fill="none" stroke="rgb(0, 0, 0)" stroke-opacity="1.0" stroke-linecap="round" stroke-linejoin="round"/>
    <path d="M 144.05950927734375 112.71350860595703 C 24.095890045166016 122.39337158203125 247.8295440673828 156.98670959472656 69.85747528076172 133.38021850585938" stroke-width="2" fill="none" stroke="rgb(0, 0, 0)" stroke-opacity="1.0" stroke-linecap="round" stroke-linejoin="round"/>
    <path d="M 159.58668518066406 116.25468444824219 C 196.73178100585938 97.87466430664062 126.39314270019531 85.20160675048828 163.1183624267578 108.91564178466797" stroke-width="2" fill="none" stroke="rgb(0, 0, 0)" stroke-opacity="1.0" stroke-linecap="round" stroke-linejoin="round"/>
    <path d="M 114.09911346435547 96.69280242919922 C 100.15638732910156 125.0747299194336 98.80094909667969 55.41152572631836 106.41105651855469 111.06944274902344" stroke-width="2" fill="none" stroke="rgb(0, 0, 0)" stroke-opacity="1.0" stroke-linecap="round" stroke-linejoin="round"/>
    <path d="M 130.9735870361328 82.37846374511719 C 175.96897888183594 76.77129364013672 133.3251190185547 115.20685577392578 175.18722534179688 95.0938720703125" stroke-width="2" fill="none" stroke="rgb(0, 0, 0)" stroke-opacity="1.0" stroke-linecap="round" stroke-linejoin="round"/>
    <path d="M 146.94940185546875 111.42680358886719 C 117.56560516357422 109.33060455322266 156.94412231445312 96.90975952148438 142.3523712158203 109.99183654785156" stroke-width="2" fill="none" stroke="rgb(0, 0, 0)" stroke-opacity="1.0" stroke-linecap="round" stroke-linejoin="round"/>
    <path d="M 130.6264190673828 132.3999786376953 C 329.4029235839844 123.48283386230469 -50.787288665771484 196.0441131591797 49.66318130493164 111.36441802978516" stroke-width="2" fill="none" stroke="rgb(0, 0, 0)" stroke-opacity="1.0" stroke-linecap="round" stroke-linejoin="round"/>
    <path d="M 117.3532485961914 117.88092041015625 C 203.9150390625 132.64271545410156 57.06528091430664 93.78878784179688 139.1478729248047 121.02449035644531" stroke-width="2" fill="none" stroke="rgb(0, 0, 0)" stroke-opacity="1.0" stroke-linecap="round" stroke-linejoin="round"/>
    <path d="M 137.43276977539062 112.44337463378906 C 184.0557861328125 142.7532501220703 92.9238052368164 102.84281921386719 117.41427612304688 105.13459014892578" stroke-width="2" fill="none" stroke="rgb(0, 0, 0)" stroke-opacity="1.0" stroke-linecap="round" stroke-linejoin="round"/>
    <path d="M 169.37779235839844 90.3393783569336 C 246.8529510498047 20.4011173248291 97.89105987548828 121.89288330078125 176.40798950195312 72.43047332763672" stroke-width="2" fill="none" stroke="rgb(0, 0, 0)" stroke-opacity="1.0" stroke-linecap="round" stroke-linejoin="round"/>
    <path d="M 130.87252807617188 150.97250366210938 C 157.09288024902344 150.2058868408203 162.1126708984375 128.2506561279297 133.56369018554688 153.50836181640625" stroke-width="2" fill="none" stroke="rgb(0, 0, 0)" stroke-opacity="1.0" stroke-linecap="round" stroke-linejoin="round"/>
    <path d="M 130.7342071533203 121.6664047241211 C 176.38125610351562 137.00331115722656 96.5788345336914 121.44743347167969 138.4757537841797 111.98143005371094" stroke-width="2" fill="none" stroke="rgb(0, 0, 0)" stroke-opacity="1.0" stroke-linecap="round" stroke-linejoin="round"/>
    <path d="M 90.72367095947266 103.39888763427734 C 174.08213806152344 165.42845153808594 42.430274963378906 24.358917236328125 127.59481048583984 87.97811126708984" stroke-width="2" fill="none" stroke="rgb(0, 0, 0)" stroke-opacity="1.0" stroke-linecap="round" stroke-linejoin="round"/>
    <path d="M 169.2073211669922 112.38014221191406 C 138.09912109375 103.72039031982422 173.9293212890625 132.89759826660156 185.7775115966797 72.90672302246094" stroke-width="2" fill="none" stroke="rgb(0, 0, 0)" stroke-opacity="1.0" stroke-linecap="round" stroke-linejoin="round"/>
    <path d="M 81.41683197021484 126.19847869873047 C 106.1065444946289 144.47805786132812 30.39151954650879 119.27114868164062 92.37556457519531 140.63816833496094" stroke-width="2" fill="none" stroke="rgb(0, 0, 0)" stroke-opacity="1.0" stroke-linecap="round" stroke-linejoin="round"/>
  </g>
</svg>
