<?xml version="1.0" ?>
<svg xmlns="http://www.w3.org/2000/svg" version="1.1" width="224" height="224">
  <defs/>
  <g>
    <path d="M 41.20455551147461 117.05036163330078 C 63.3830680847168 125.72628784179688 50.70994186401367 74.70600128173828 127.98240661621094 123.47140502929688" stroke-width="2" fill="none" stroke="rgb(0, 0, 0)" stroke-opacity="1.0" stroke-linecap="round" stroke-linejoin="round"/>
    <path d="M 109.32782745361328 136.02255249023438 C 202.21640014648438 143.22023010253906 159.33230590820312 160.6039276123047 166.7224578857422 152.02784729003906" stroke-width="2" fill="none" stroke="rgb(0, 0, 0)" stroke-opacity="1.0" stroke-linecap="round" stroke-linejoin="round"/>
    <path d="M 137.17861938476562 111.7353286743164 C 26.768991470336914 127.69808197021484 296.1406555175781 168.5456085205078 89.33914184570312 135.9580078125" stroke-width="2" fill="none" stroke="rgb(0, 0, 0)" stroke-opacity="1.0" stroke-linecap="round" stroke-linejoin="round"/>
    <path d="M 150.2700653076172 121.63076782226562 C 200.7155303955078 82.27974700927734 72.1181869506836 104.30313873291016 161.03050231933594 78.34337615966797" stroke-width="2" fill="none" stroke="rgb(0, 0, 0)" stroke-opacity="1.0" stroke-linecap="round" stroke-linejoin="round"/>
    <path d="M 127.34867858886719 91.7555923461914 C 113.18965911865234 105.81889343261719 93.42326354980469 24.107934951782227 101.17024993896484 100.98158264160156" stroke-width="2" fill="none" stroke="rgb(0, 0, 0)" stroke-opacity="1.0" stroke-linecap="round" stroke-linejoin="round"/>
    <path d="M 123.08367156982422 83.05500793457031 C 184.98635864257812 79.20721435546875 134.3815155029297 125.04557800292969 170.13900756835938 101.48713684082031" stroke-width="2" fill="none" stroke="rgb(0, 0, 0)" stroke-opacity="1.0" stroke-linecap="round" stroke-linejoin="round"/>
    <path d="M 150.67991638183594 96.0562973022461 C 109.7935562133789 101.86713409423828 162.39308166503906 101.6770248413086 126.90463256835938 105.79320526123047" stroke-width="2" fill="none" stroke="rgb(0, 0, 0)" stroke-opacity="1.0" stroke-linecap="round" stroke-linejoin="round"/>
    <path d="M 125.2358169555664 134.03868103027344 C 291.0969543457031 129.8515625 -32.00349426269531 194.29344177246094 51.49021911621094 110.34469604492188" stroke-width="2" fill="none" stroke="rgb(0, 0, 0)" stroke-opacity="1.0" stroke-linecap="round" stroke-linejoin="round"/>
    <path d="M 108.98638916015625 116.26512145996094 C 215.44400024414062 132.57073974609375 56.852088928222656 102.96766662597656 118.8684310913086 102.58661651611328" stroke-width="2" fill="none" stroke="rgb(0, 0, 0)" stroke-opacity="1.0" stroke-linecap="round" stroke-linejoin="round"/>
    <path d="M 130.7316131591797 108.46995544433594 C 176.29226684570312 126.37567901611328 102.71746063232422 109.66867065429688 145.7980499267578 115.32199096679688" stroke-width="2" fill="none" stroke="rgb(0, 0, 0)" stroke-opacity="1.0" stroke-linecap="round" stroke-linejoin="round"/>
    <path d="M 170.68765258789062 85.04114532470703 C 218.71006774902344 10.846673011779785 115.61234283447266 137.09716796875 178.86489868164062 68.33575439453125" stroke-width="2" fill="none" stroke="rgb(0, 0, 0)" stroke-opacity="1.0" stroke-linecap="round" stroke-linejoin="round"/>
    <path d="M 171.20753479003906 147.6902313232422 C 177.0124969482422 158.00128173828125 136.861083984375 144.54444885253906 158.1636505126953 153.10977172851562" stroke-width="2" fill="none" stroke="rgb(0, 0, 0)" stroke-opacity="1.0" stroke-linecap="round" stroke-linejoin="round"/>
    <path d="M 138.0716094970703 138.33099365234375 C 190.40980529785156 124.97323608398438 113.82337188720703 118.81363677978516 145.52359008789062 109.9707260131836" stroke-width="2" fill="none" stroke="rgb(0, 0, 0)" stroke-opacity="1.0" stroke-linecap="round" stroke-linejoin="round"/>
    <path d="M 106.90193939208984 107.6877212524414 C 169.24839782714844 175.35142517089844 44.95441436767578 20.025846481323242 126.54039764404297 84.17444610595703" stroke-width="2" fill="none" stroke="rgb(0, 0, 0)" stroke-opacity="1.0" stroke-linecap="round" stroke-linejoin="round"/>
    <path d="M 173.7734832763672 94.73151397705078 C 151.45851135253906 89.82664489746094 176.52749633789062 122.72265625 179.25083923339844 66.67634582519531" stroke-width="2" fill="none" stroke="rgb(0, 0, 0)" stroke-opacity="1.0" stroke-linecap="round" stroke-linejoin="round"/>
    <path d="M 110.5139389038086 156.5034942626953 C 141.21397399902344 177.6465301513672 1.1666810512542725 124.80632781982422 65.5509033203125 144.6746063232422" stroke-width="2" fill="none" stroke="rgb(0, 0, 0)" stroke-opacity="1.0" stroke-linecap="round" stroke-linejoin="round"/>
  </g>
</svg>
