<?xml version="1.0" ?>
<svg xmlns="http://www.w3.org/2000/svg" version="1.1" width="224" height="224">
  <defs/>
  <g>
    <path d="M 38.03821563720703 118.68399047851562 C 59.3666877746582 91.76127624511719 88.91472625732422 98.37992095947266 91.342041015625 97.28630828857422" stroke-width="2" fill="none" stroke="rgb(0, 0, 0)" stroke-opacity="1.0" stroke-linecap="round" stroke-linejoin="round"/>
    <path d="M 47.57112121582031 144.24630737304688 C 211.31517028808594 173.09629821777344 201.146728515625 120.6312026977539 166.0492706298828 154.9676971435547" stroke-width="2" fill="none" stroke="rgb(0, 0, 0)" stroke-opacity="1.0" stroke-linecap="round" stroke-linejoin="round"/>
    <path d="M 145.8928985595703 126.40328979492188 C 112.39002990722656 119.49360656738281 180.0424346923828 152.5888214111328 118.2938232421875 126.93124389648438" stroke-width="2" fill="none" stroke="rgb(0, 0, 0)" stroke-opacity="1.0" stroke-linecap="round" stroke-linejoin="round"/>
    <path d="M 159.88694763183594 107.35926818847656 C 148.12155151367188 134.9600067138672 176.78872680664062 106.95231628417969 156.38677978515625 127.85409545898438" stroke-width="2" fill="none" stroke="rgb(0, 0, 0)" stroke-opacity="1.0" stroke-linecap="round" stroke-linejoin="round"/>
    <path d="M 129.5355987548828 107.673095703125 C 107.70260620117188 124.7422103881836 138.4016876220703 73.89321899414062 153.73951721191406 100.31132507324219" stroke-width="2" fill="none" stroke="rgb(0, 0, 0)" stroke-opacity="1.0" stroke-linecap="round" stroke-linejoin="round"/>
    <path d="M 168.1224822998047 93.31366729736328 C 28.93027114868164 88.72309112548828 175.00868225097656 122.65403747558594 102.48906707763672 91.65967559814453" stroke-width="2" fill="none" stroke="rgb(0, 0, 0)" stroke-opacity="1.0" stroke-linecap="round" stroke-linejoin="round"/>
    <path d="M 107.84246063232422 112.61627960205078 C 107.17649841308594 141.76812744140625 122.1895751953125 102.4529800415039 86.9322280883789 106.43468475341797" stroke-width="2" fill="none" stroke="rgb(0, 0, 0)" stroke-opacity="1.0" stroke-linecap="round" stroke-linejoin="round"/>
    <path d="M 40.020240783691406 142.5690460205078 C 69.43058776855469 156.58465576171875 29.404556274414062 145.6531219482422 39.11936950683594 125.57263946533203" stroke-width="2" fill="none" stroke="rgb(0, 0, 0)" stroke-opacity="1.0" stroke-linecap="round" stroke-linejoin="round"/>
    <path d="M 130.3013153076172 137.13389587402344 C 209.94447326660156 151.61277770996094 111.67729187011719 129.74948120117188 145.31524658203125 129.6737518310547" stroke-width="2" fill="none" stroke="rgb(0, 0, 0)" stroke-opacity="1.0" stroke-linecap="round" stroke-linejoin="round"/>
    <path d="M 157.59469604492188 105.98251342773438 C 198.82247924804688 121.88984680175781 97.95111846923828 112.19780731201172 140.1913604736328 120.17916107177734" stroke-width="2" fill="none" stroke="rgb(0, 0, 0)" stroke-opacity="1.0" stroke-linecap="round" stroke-linejoin="round"/>
    <path d="M 170.84603881835938 118.89816284179688 C 201.968505859375 22.39375877380371 175.6324005126953 83.01427459716797 159.1548614501953 90.52558898925781" stroke-width="2" fill="none" stroke="rgb(0, 0, 0)" stroke-opacity="1.0" stroke-linecap="round" stroke-linejoin="round"/>
    <path d="M 157.0274200439453 161.3538818359375 C 109.54622650146484 153.3794403076172 201.4020233154297 148.46034240722656 181.52391052246094 148.58148193359375" stroke-width="2" fill="none" stroke="rgb(0, 0, 0)" stroke-opacity="1.0" stroke-linecap="round" stroke-linejoin="round"/>
    <path d="M 93.13124084472656 124.03057098388672 C 114.71891021728516 137.10748291015625 54.309837341308594 107.9621810913086 119.35091400146484 142.9419708251953" stroke-width="2" fill="none" stroke="rgb(0, 0, 0)" stroke-opacity="1.0" stroke-linecap="round" stroke-linejoin="round"/>
    <path d="M 142.7572021484375 137.48239135742188 C 108.03824615478516 117.0722427368164 63.39563751220703 31.19831085205078 132.27032470703125 92.26081848144531" stroke-width="2" fill="none" stroke="rgb(0, 0, 0)" stroke-opacity="1.0" stroke-linecap="round" stroke-linejoin="round"/>
    <path d="M 148.048583984375 112.40624237060547 C 132.22195434570312 106.29692077636719 179.69895935058594 143.89584350585938 186.26039123535156 69.68333435058594" stroke-width="2" fill="none" stroke="rgb(0, 0, 0)" stroke-opacity="1.0" stroke-linecap="round" stroke-linejoin="round"/>
    <path d="M 72.92198181152344 102.27098083496094 C 51.70852279663086 88.48870086669922 6.757441997528076 148.42611694335938 63.127952575683594 97.81261444091797" stroke-width="2" fill="none" stroke="rgb(0, 0, 0)" stroke-opacity="1.0" stroke-linecap="round" stroke-linejoin="round"/>
  </g>
</svg>
