<?xml version="1.0" ?>
<svg xmlns="http://www.w3.org/2000/svg" version="1.1" width="224" height="224">
  <defs/>
  <g>
    <path d="M 45.08241271972656 125.61869049072266 C 66.29911804199219 124.06605529785156 37.61908721923828 86.35735321044922 119.56768035888672 102.44971466064453" stroke-width="2" fill="none" stroke="rgb(0, 0, 0)" stroke-opacity="1.0" stroke-linecap="round" stroke-linejoin="round"/>
    <path d="M 91.30119323730469 139.32684326171875 C 209.26344299316406 164.40032958984375 187.12890625 142.10250854492188 136.52342224121094 140.0168914794922" stroke-width="2" fill="none" stroke="rgb(0, 0, 0)" stroke-opacity="1.0" stroke-linecap="round" stroke-linejoin="round"/>
    <path d="M 133.28443908691406 103.66654968261719 C 100.41703796386719 108.31520080566406 163.6905059814453 119.47543334960938 122.33013153076172 122.46186065673828" stroke-width="2" fill="none" stroke="rgb(0, 0, 0)" stroke-opacity="1.0" stroke-linecap="round" stroke-linejoin="round"/>
    <path d="M 139.98890686035156 91.90300750732422 C 153.18138122558594 119.77046966552734 120.2505111694336 80.6929931640625 167.22023010253906 103.57379150390625" stroke-width="2" fill="none" stroke="rgb(0, 0, 0)" stroke-opacity="1.0" stroke-linecap="round" stroke-linejoin="round"/>
    <path d="M 135.30540466308594 85.63492584228516 C 114.18229675292969 104.45619201660156 76.35704803466797 18.80795669555664 113.89553833007812 125.0709228515625" stroke-width="2" fill="none" stroke="rgb(0, 0, 0)" stroke-opacity="1.0" stroke-linecap="round" stroke-linejoin="round"/>
    <path d="M 115.24453735351562 96.72445678710938 C 66.98980712890625 82.44391632080078 190.43728637695312 93.81562042236328 168.9873809814453 84.97911071777344" stroke-width="2" fill="none" stroke="rgb(0, 0, 0)" stroke-opacity="1.0" stroke-linecap="round" stroke-linejoin="round"/>
    <path d="M 140.33621215820312 117.75409698486328 C 81.2046127319336 123.20516204833984 168.95950317382812 140.1029510498047 125.48072052001953 107.39239501953125" stroke-width="2" fill="none" stroke="rgb(0, 0, 0)" stroke-opacity="1.0" stroke-linecap="round" stroke-linejoin="round"/>
    <path d="M 74.01754760742188 150.7729949951172 C 250.49664306640625 148.2235870361328 -30.28667449951172 176.0167999267578 61.76942825317383 110.44248962402344" stroke-width="2" fill="none" stroke="rgb(0, 0, 0)" stroke-opacity="1.0" stroke-linecap="round" stroke-linejoin="round"/>
    <path d="M 164.568115234375 152.58074951171875 C 213.73509216308594 167.14279174804688 65.72953796386719 87.75027465820312 131.2084503173828 116.41756439208984" stroke-width="2" fill="none" stroke="rgb(0, 0, 0)" stroke-opacity="1.0" stroke-linecap="round" stroke-linejoin="round"/>
    <path d="M 164.55479431152344 126.20647430419922 C 193.85150146484375 115.26068115234375 119.21051788330078 160.81968688964844 141.0835418701172 113.74292755126953" stroke-width="2" fill="none" stroke="rgb(0, 0, 0)" stroke-opacity="1.0" stroke-linecap="round" stroke-linejoin="round"/>
    <path d="M 155.39320373535156 90.48738861083984 C 219.17138671875 24.306947708129883 152.9980010986328 108.78262329101562 156.81338500976562 96.05268096923828" stroke-width="2" fill="none" stroke="rgb(0, 0, 0)" stroke-opacity="1.0" stroke-linecap="round" stroke-linejoin="round"/>
    <path d="M 153.6794891357422 158.45230102539062 C 139.21653747558594 161.43798828125 193.55252075195312 157.82472229003906 126.26697540283203 142.20484924316406" stroke-width="2" fill="none" stroke="rgb(0, 0, 0)" stroke-opacity="1.0" stroke-linecap="round" stroke-linejoin="round"/>
    <path d="M 95.66831970214844 108.77989196777344 C 145.60289001464844 167.30947875976562 69.73503875732422 108.52650451660156 132.04820251464844 125.80270385742188" stroke-width="2" fill="none" stroke="rgb(0, 0, 0)" stroke-opacity="1.0" stroke-linecap="round" stroke-linejoin="round"/>
    <path d="M 134.6947784423828 111.2885513305664 C 108.20074462890625 146.10891723632812 82.14630126953125 36.21290969848633 111.50102233886719 100.04362487792969" stroke-width="2" fill="none" stroke="rgb(0, 0, 0)" stroke-opacity="1.0" stroke-linecap="round" stroke-linejoin="round"/>
    <path d="M 163.47813415527344 112.55049133300781 C 124.96522521972656 105.70809173583984 172.7601318359375 136.17030334472656 185.486083984375 66.14025115966797" stroke-width="2" fill="none" stroke="rgb(0, 0, 0)" stroke-opacity="1.0" stroke-linecap="round" stroke-linejoin="round"/>
    <path d="M 69.17179870605469 131.00047302246094 C 75.98519897460938 146.11660766601562 41.96016311645508 121.2082748413086 78.9598388671875 146.1929931640625" stroke-width="2" fill="none" stroke="rgb(0, 0, 0)" stroke-opacity="1.0" stroke-linecap="round" stroke-linejoin="round"/>
  </g>
</svg>
