<?xml version="1.0" ?>
<svg xmlns="http://www.w3.org/2000/svg" version="1.1" width="224" height="224">
  <defs/>
  <g>
    <path d="M 42.44829177856445 115.53608703613281 C 69.75039672851562 118.27705383300781 30.603872299194336 88.41960144042969 111.0853042602539 98.71939086914062" stroke-width="2" fill="none" stroke="rgb(0, 0, 0)" stroke-opacity="1.0" stroke-linecap="round" stroke-linejoin="round"/>
    <path d="M 115.46405029296875 131.58956909179688 C 203.5099334716797 142.9195556640625 157.97958374023438 160.15342712402344 167.42584228515625 143.94398498535156" stroke-width="2" fill="none" stroke="rgb(0, 0, 0)" stroke-opacity="1.0" stroke-linecap="round" stroke-linejoin="round"/>
    <path d="M 138.43902587890625 110.86243438720703 C 40.69639587402344 132.41970825195312 251.55441284179688 161.66363525390625 75.59449768066406 133.0836181640625" stroke-width="2" fill="none" stroke="rgb(0, 0, 0)" stroke-opacity="1.0" stroke-linecap="round" stroke-linejoin="round"/>
    <path d="M 153.74009704589844 104.67960357666016 C 182.5029296875 98.73050689697266 116.91259002685547 87.46826934814453 163.74298095703125 111.32260131835938" stroke-width="2" fill="none" stroke="rgb(0, 0, 0)" stroke-opacity="1.0" stroke-linecap="round" stroke-linejoin="round"/>
    <path d="M 118.16732788085938 97.08142852783203 C 95.7627944946289 125.32718658447266 93.97167205810547 43.97290802001953 103.91195678710938 99.02120971679688" stroke-width="2" fill="none" stroke="rgb(0, 0, 0)" stroke-opacity="1.0" stroke-linecap="round" stroke-linejoin="round"/>
    <path d="M 123.16466522216797 85.04297637939453 C 163.23822021484375 75.57562255859375 135.2067413330078 111.9879379272461 168.8447723388672 97.8670883178711" stroke-width="2" fill="none" stroke="rgb(0, 0, 0)" stroke-opacity="1.0" stroke-linecap="round" stroke-linejoin="round"/>
    <path d="M 138.26641845703125 110.00860595703125 C 118.15721130371094 110.20218658447266 153.6348419189453 106.35147857666016 132.34217834472656 106.92772674560547" stroke-width="2" fill="none" stroke="rgb(0, 0, 0)" stroke-opacity="1.0" stroke-linecap="round" stroke-linejoin="round"/>
    <path d="M 115.62210083007812 134.70248413085938 C 319.86407470703125 136.5163116455078 -44.50879669189453 184.96949768066406 56.380226135253906 106.16475677490234" stroke-width="2" fill="none" stroke="rgb(0, 0, 0)" stroke-opacity="1.0" stroke-linecap="round" stroke-linejoin="round"/>
    <path d="M 109.19613647460938 114.41289520263672 C 185.5469207763672 142.47467041015625 46.033199310302734 103.79378509521484 136.34326171875 112.49565124511719" stroke-width="2" fill="none" stroke="rgb(0, 0, 0)" stroke-opacity="1.0" stroke-linecap="round" stroke-linejoin="round"/>
    <path d="M 120.93699645996094 114.09651184082031 C 157.14710998535156 146.35105895996094 90.90679168701172 111.95771026611328 118.69855499267578 97.99212646484375" stroke-width="2" fill="none" stroke="rgb(0, 0, 0)" stroke-opacity="1.0" stroke-linecap="round" stroke-linejoin="round"/>
    <path d="M 165.44834899902344 89.20635223388672 C 233.1290283203125 19.343429565429688 97.7401123046875 123.12938690185547 172.39993286132812 70.85787963867188" stroke-width="2" fill="none" stroke="rgb(0, 0, 0)" stroke-opacity="1.0" stroke-linecap="round" stroke-linejoin="round"/>
    <path d="M 138.3440704345703 154.0828857421875 C 143.4154052734375 159.89190673828125 157.10885620117188 139.34170532226562 126.2358169555664 150.96453857421875" stroke-width="2" fill="none" stroke="rgb(0, 0, 0)" stroke-opacity="1.0" stroke-linecap="round" stroke-linejoin="round"/>
    <path d="M 127.7811508178711 121.473876953125 C 174.68734741210938 125.7468032836914 97.14327239990234 123.05238342285156 132.57655334472656 116.13247680664062" stroke-width="2" fill="none" stroke="rgb(0, 0, 0)" stroke-opacity="1.0" stroke-linecap="round" stroke-linejoin="round"/>
    <path d="M 93.55267333984375 97.07492065429688 C 156.55369567871094 172.2932586669922 47.69377136230469 16.863197326660156 126.958984375 86.2327651977539" stroke-width="2" fill="none" stroke="rgb(0, 0, 0)" stroke-opacity="1.0" stroke-linecap="round" stroke-linejoin="round"/>
    <path d="M 158.34910583496094 108.55741882324219 C 127.60511016845703 103.23770141601562 165.7000274658203 137.03924560546875 181.32369995117188 72.660400390625" stroke-width="2" fill="none" stroke="rgb(0, 0, 0)" stroke-opacity="1.0" stroke-linecap="round" stroke-linejoin="round"/>
    <path d="M 77.46121215820312 130.14710998535156 C 105.10205841064453 151.3020782470703 49.99113845825195 102.92433166503906 98.86505889892578 142.62918090820312" stroke-width="2" fill="none" stroke="rgb(0, 0, 0)" stroke-opacity="1.0" stroke-linecap="round" stroke-linejoin="round"/>
  </g>
</svg>
