<?xml version="1.0" ?>
<svg xmlns="http://www.w3.org/2000/svg" version="1.1" width="224" height="224">
  <defs/>
  <g>
    <path d="M 38.46003723144531 120.68478393554688 C 63.55635070800781 115.84085083007812 26.347959518432617 83.66716003417969 122.09696960449219 98.58025360107422" stroke-width="2" fill="none" stroke="rgb(0, 0, 0)" stroke-opacity="1.0" stroke-linecap="round" stroke-linejoin="round"/>
    <path d="M 109.69257354736328 109.46553802490234 C 192.41978454589844 145.57644653320312 166.28831481933594 163.3994598388672 179.77061462402344 148.4053192138672" stroke-width="2" fill="none" stroke="rgb(0, 0, 0)" stroke-opacity="1.0" stroke-linecap="round" stroke-linejoin="round"/>
    <path d="M 131.4657745361328 121.69196319580078 C 76.09239196777344 97.59092712402344 168.7255096435547 154.28689575195312 103.24671936035156 127.6098861694336" stroke-width="2" fill="none" stroke="rgb(0, 0, 0)" stroke-opacity="1.0" stroke-linecap="round" stroke-linejoin="round"/>
    <path d="M 155.32421875 91.85873413085938 C 212.2040557861328 103.41634368896484 112.25524139404297 99.51182556152344 162.63287353515625 104.42170715332031" stroke-width="2" fill="none" stroke="rgb(0, 0, 0)" stroke-opacity="1.0" stroke-linecap="round" stroke-linejoin="round"/>
    <path d="M 122.2736587524414 90.90778350830078 C 105.49391174316406 104.8470687866211 95.72664642333984 34.5911750793457 100.82695770263672 100.72740173339844" stroke-width="2" fill="none" stroke="rgb(0, 0, 0)" stroke-opacity="1.0" stroke-linecap="round" stroke-linejoin="round"/>
    <path d="M 130.28623962402344 88.19415283203125 C 154.3013458251953 72.05390167236328 166.6480255126953 118.40775299072266 154.94931030273438 101.69181823730469" stroke-width="2" fill="none" stroke="rgb(0, 0, 0)" stroke-opacity="1.0" stroke-linecap="round" stroke-linejoin="round"/>
    <path d="M 147.43104553222656 115.6561508178711 C 94.35077667236328 115.44842529296875 162.8625946044922 106.52984619140625 130.85801696777344 104.6038589477539" stroke-width="2" fill="none" stroke="rgb(0, 0, 0)" stroke-opacity="1.0" stroke-linecap="round" stroke-linejoin="round"/>
    <path d="M 100.85707092285156 128.98802185058594 C 260.0328674316406 140.08819580078125 -27.069072723388672 186.21717834472656 52.07260513305664 111.62434387207031" stroke-width="2" fill="none" stroke="rgb(0, 0, 0)" stroke-opacity="1.0" stroke-linecap="round" stroke-linejoin="round"/>
    <path d="M 185.36807250976562 137.134765625 C 221.66635131835938 147.19619750976562 24.23542594909668 82.42832946777344 146.94183349609375 119.18970489501953" stroke-width="2" fill="none" stroke="rgb(0, 0, 0)" stroke-opacity="1.0" stroke-linecap="round" stroke-linejoin="round"/>
    <path d="M 122.22705841064453 124.9112777709961 C 184.50869750976562 122.68923950195312 118.50552368164062 132.38616943359375 147.12295532226562 117.58853912353516" stroke-width="2" fill="none" stroke="rgb(0, 0, 0)" stroke-opacity="1.0" stroke-linecap="round" stroke-linejoin="round"/>
    <path d="M 167.93243408203125 87.77828979492188 C 226.48190307617188 20.54924201965332 107.54100036621094 120.02149963378906 172.6103515625 70.39265441894531" stroke-width="2" fill="none" stroke="rgb(0, 0, 0)" stroke-opacity="1.0" stroke-linecap="round" stroke-linejoin="round"/>
    <path d="M 146.84657287597656 140.38807678222656 C 203.9431915283203 142.88002014160156 193.25341796875 158.45562744140625 43.66697692871094 143.79730224609375" stroke-width="2" fill="none" stroke="rgb(0, 0, 0)" stroke-opacity="1.0" stroke-linecap="round" stroke-linejoin="round"/>
    <path d="M 121.48217010498047 122.12073516845703 C 239.92950439453125 130.49905395507812 82.3897476196289 120.86373901367188 133.51820373535156 117.42457580566406" stroke-width="2" fill="none" stroke="rgb(0, 0, 0)" stroke-opacity="1.0" stroke-linecap="round" stroke-linejoin="round"/>
    <path d="M 113.4923095703125 110.16075897216797 C 144.5454559326172 133.56568908691406 51.57094955444336 31.9920654296875 127.72390747070312 84.57402038574219" stroke-width="2" fill="none" stroke="rgb(0, 0, 0)" stroke-opacity="1.0" stroke-linecap="round" stroke-linejoin="round"/>
    <path d="M 175.49847412109375 91.4478988647461 C 132.59378051757812 107.43843841552734 166.05300903320312 140.53689575195312 183.40878295898438 66.40950012207031" stroke-width="2" fill="none" stroke="rgb(0, 0, 0)" stroke-opacity="1.0" stroke-linecap="round" stroke-linejoin="round"/>
    <path d="M 56.646095275878906 129.30352783203125 C 77.51614379882812 140.17771911621094 33.92927551269531 113.61628723144531 74.06385803222656 144.15122985839844" stroke-width="2" fill="none" stroke="rgb(0, 0, 0)" stroke-opacity="1.0" stroke-linecap="round" stroke-linejoin="round"/>
  </g>
</svg>
