<?xml version="1.0" ?>
<svg xmlns="http://www.w3.org/2000/svg" version="1.1" width="224" height="224">
  <defs/>
  <g>
    <path d="M 42.13032531738281 117.46955108642578 C 76.29377746582031 90.78981018066406 64.7531967163086 101.21369171142578 96.15534973144531 94.76065063476562" stroke-width="2" fill="none" stroke="rgb(0, 0, 0)" stroke-opacity="1.0" stroke-linecap="round" stroke-linejoin="round"/>
    <path d="M 93.29357147216797 151.48719787597656 C 131.99143981933594 155.68858337402344 143.57467651367188 132.71246337890625 117.01729583740234 139.26771545410156" stroke-width="2" fill="none" stroke="rgb(0, 0, 0)" stroke-opacity="1.0" stroke-linecap="round" stroke-linejoin="round"/>
    <path d="M 147.83883666992188 130.2289276123047 C 71.47532653808594 87.84034729003906 112.94926452636719 129.3032989501953 108.05340576171875 101.77454376220703" stroke-width="2" fill="none" stroke="rgb(0, 0, 0)" stroke-opacity="1.0" stroke-linecap="round" stroke-linejoin="round"/>
    <path d="M 157.12596130371094 118.56917572021484 C 156.79379272460938 89.3227767944336 175.38656616210938 122.20408630371094 154.0895538330078 105.4554672241211" stroke-width="2" fill="none" stroke="rgb(0, 0, 0)" stroke-opacity="1.0" stroke-linecap="round" stroke-linejoin="round"/>
    <path d="M 132.3734893798828 107.64183807373047 C 115.78550720214844 119.94354248046875 140.75909423828125 67.59488677978516 156.29638671875 96.27976989746094" stroke-width="2" fill="none" stroke="rgb(0, 0, 0)" stroke-opacity="1.0" stroke-linecap="round" stroke-linejoin="round"/>
    <path d="M 173.00733947753906 88.8949203491211 C 91.54850006103516 90.87845611572266 123.69174194335938 91.57727813720703 134.4477996826172 88.18655395507812" stroke-width="2" fill="none" stroke="rgb(0, 0, 0)" stroke-opacity="1.0" stroke-linecap="round" stroke-linejoin="round"/>
    <path d="M 100.71590423583984 69.8676986694336 C 129.8225860595703 131.94241333007812 146.6961669921875 91.38397979736328 99.39376831054688 67.44518280029297" stroke-width="2" fill="none" stroke="rgb(0, 0, 0)" stroke-opacity="1.0" stroke-linecap="round" stroke-linejoin="round"/>
    <path d="M 109.82522583007812 151.5526580810547 C 100.27742004394531 139.33531188964844 30.483219146728516 160.18983459472656 39.750362396240234 127.36212921142578" stroke-width="2" fill="none" stroke="rgb(0, 0, 0)" stroke-opacity="1.0" stroke-linecap="round" stroke-linejoin="round"/>
    <path d="M 153.83335876464844 129.4300537109375 C 203.19631958007812 95.20381164550781 120.82868957519531 122.80773162841797 162.18853759765625 117.7610855102539" stroke-width="2" fill="none" stroke="rgb(0, 0, 0)" stroke-opacity="1.0" stroke-linecap="round" stroke-linejoin="round"/>
    <path d="M 137.55404663085938 116.65557861328125 C 165.50381469726562 117.71981811523438 120.14568328857422 111.10559844970703 146.8000946044922 111.01515197753906" stroke-width="2" fill="none" stroke="rgb(0, 0, 0)" stroke-opacity="1.0" stroke-linecap="round" stroke-linejoin="round"/>
    <path d="M 161.6577911376953 81.31104278564453 C 190.018798828125 47.994876861572266 195.41993713378906 69.71446228027344 157.4563751220703 94.69375610351562" stroke-width="2" fill="none" stroke="rgb(0, 0, 0)" stroke-opacity="1.0" stroke-linecap="round" stroke-linejoin="round"/>
    <path d="M 175.42921447753906 147.7305450439453 C 150.9169158935547 151.93899536132812 178.79214477539062 123.40033721923828 151.71139526367188 111.62135314941406" stroke-width="2" fill="none" stroke="rgb(0, 0, 0)" stroke-opacity="1.0" stroke-linecap="round" stroke-linejoin="round"/>
    <path d="M 71.1335678100586 128.8717498779297 C 76.10604095458984 151.53758239746094 117.6452865600586 142.87149047851562 147.66055297851562 145.61325073242188" stroke-width="2" fill="none" stroke="rgb(0, 0, 0)" stroke-opacity="1.0" stroke-linecap="round" stroke-linejoin="round"/>
    <path d="M 136.82437133789062 131.1036834716797 C 80.94207000732422 75.1466064453125 95.20840454101562 50.383541107177734 132.66769409179688 89.67910766601562" stroke-width="2" fill="none" stroke="rgb(0, 0, 0)" stroke-opacity="1.0" stroke-linecap="round" stroke-linejoin="round"/>
    <path d="M 174.31109619140625 99.60211181640625 C 162.7836151123047 92.89736938476562 168.5674591064453 136.49411010742188 183.3731231689453 66.77141571044922" stroke-width="2" fill="none" stroke="rgb(0, 0, 0)" stroke-opacity="1.0" stroke-linecap="round" stroke-linejoin="round"/>
    <path d="M 87.18276977539062 103.68376922607422 C 57.17676544189453 85.97056579589844 54.54945373535156 127.30428314208984 62.75453567504883 107.3855972290039" stroke-width="2" fill="none" stroke="rgb(0, 0, 0)" stroke-opacity="1.0" stroke-linecap="round" stroke-linejoin="round"/>
  </g>
</svg>
