<?xml version="1.0" ?>
<svg xmlns="http://www.w3.org/2000/svg" version="1.1" width="224" height="224">
  <defs/>
  <g>
    <path d="M 42.477394104003906 117.72966003417969 C 60.57045364379883 117.54273986816406 33.62215042114258 89.67876434326172 110.33786010742188 104.21123504638672" stroke-width="2" fill="none" stroke="rgb(0, 0, 0)" stroke-opacity="1.0" stroke-linecap="round" stroke-linejoin="round"/>
    <path d="M 118.2744140625 118.7649917602539 C 213.03457641601562 149.20611572265625 168.16197204589844 160.12440490722656 168.1112060546875 143.6707000732422" stroke-width="2" fill="none" stroke="rgb(0, 0, 0)" stroke-opacity="1.0" stroke-linecap="round" stroke-linejoin="round"/>
    <path d="M 139.62973022460938 117.78594207763672 C 45.0192756652832 135.7884521484375 253.96116638183594 163.14256286621094 87.6767578125 128.7500457763672" stroke-width="2" fill="none" stroke="rgb(0, 0, 0)" stroke-opacity="1.0" stroke-linecap="round" stroke-linejoin="round"/>
    <path d="M 153.991943359375 121.30990600585938 C 198.2451934814453 102.32225799560547 118.96381378173828 98.24523162841797 161.01953125 112.59272003173828" stroke-width="2" fill="none" stroke="rgb(0, 0, 0)" stroke-opacity="1.0" stroke-linecap="round" stroke-linejoin="round"/>
    <path d="M 124.4786605834961 95.64405822753906 C 109.97875213623047 111.16905212402344 94.92477416992188 39.095829010009766 99.05083465576172 100.63633728027344" stroke-width="2" fill="none" stroke="rgb(0, 0, 0)" stroke-opacity="1.0" stroke-linecap="round" stroke-linejoin="round"/>
    <path d="M 127.73165893554688 83.88319396972656 C 163.87557983398438 78.22068786621094 130.3588409423828 104.6401596069336 171.27793884277344 96.31126403808594" stroke-width="2" fill="none" stroke="rgb(0, 0, 0)" stroke-opacity="1.0" stroke-linecap="round" stroke-linejoin="round"/>
    <path d="M 142.18865966796875 112.6341323852539 C 122.599853515625 114.19310760498047 166.33245849609375 106.97013854980469 130.86195373535156 104.42426300048828" stroke-width="2" fill="none" stroke="rgb(0, 0, 0)" stroke-opacity="1.0" stroke-linecap="round" stroke-linejoin="round"/>
    <path d="M 101.10673522949219 137.2889404296875 C 330.5450744628906 138.12530517578125 -39.97852325439453 183.1177520751953 55.4928092956543 112.59126281738281" stroke-width="2" fill="none" stroke="rgb(0, 0, 0)" stroke-opacity="1.0" stroke-linecap="round" stroke-linejoin="round"/>
    <path d="M 115.85333251953125 119.41069030761719 C 224.00328063964844 152.1007843017578 46.57656478881836 107.1981430053711 143.67881774902344 121.25985717773438" stroke-width="2" fill="none" stroke="rgb(0, 0, 0)" stroke-opacity="1.0" stroke-linecap="round" stroke-linejoin="round"/>
    <path d="M 114.973388671875 125.14774322509766 C 159.4557342529297 136.05262756347656 89.98869323730469 130.5187530517578 120.984619140625 109.65005493164062" stroke-width="2" fill="none" stroke="rgb(0, 0, 0)" stroke-opacity="1.0" stroke-linecap="round" stroke-linejoin="round"/>
    <path d="M 166.6348114013672 93.2646713256836 C 228.3683319091797 19.98653793334961 111.06685638427734 121.5360336303711 168.71726989746094 74.07859802246094" stroke-width="2" fill="none" stroke="rgb(0, 0, 0)" stroke-opacity="1.0" stroke-linecap="round" stroke-linejoin="round"/>
    <path d="M 158.85682678222656 152.8836212158203 C 129.115234375 148.2237548828125 202.1074676513672 150.82232666015625 103.0961685180664 148.53807067871094" stroke-width="2" fill="none" stroke="rgb(0, 0, 0)" stroke-opacity="1.0" stroke-linecap="round" stroke-linejoin="round"/>
    <path d="M 114.94502258300781 116.83797454833984 C 177.06565856933594 124.9222183227539 87.09832000732422 133.05245971679688 142.44512939453125 122.61624908447266" stroke-width="2" fill="none" stroke="rgb(0, 0, 0)" stroke-opacity="1.0" stroke-linecap="round" stroke-linejoin="round"/>
    <path d="M 96.21001434326172 95.71256256103516 C 167.4344024658203 165.45240783691406 44.239356994628906 21.563823699951172 126.22476196289062 86.30303192138672" stroke-width="2" fill="none" stroke="rgb(0, 0, 0)" stroke-opacity="1.0" stroke-linecap="round" stroke-linejoin="round"/>
    <path d="M 176.55307006835938 97.0477523803711 C 130.36558532714844 112.47615051269531 173.461181640625 133.08937072753906 179.67941284179688 71.44104766845703" stroke-width="2" fill="none" stroke="rgb(0, 0, 0)" stroke-opacity="1.0" stroke-linecap="round" stroke-linejoin="round"/>
    <path d="M 89.33210754394531 124.8949966430664 C 104.09992218017578 147.5207061767578 55.06096649169922 113.8049545288086 110.28351593017578 139.80430603027344" stroke-width="2" fill="none" stroke="rgb(0, 0, 0)" stroke-opacity="1.0" stroke-linecap="round" stroke-linejoin="round"/>
  </g>
</svg>
