<?xml version="1.0" ?>
<svg xmlns="http://www.w3.org/2000/svg" version="1.1" width="224" height="224">
  <defs/>
  <g>
    <path d="M 36.039344787597656 122.5875473022461 C 70.6834716796875 86.72900390625 68.79891967773438 106.08454132080078 92.10558319091797 99.26228332519531" stroke-width="2" fill="none" stroke="rgb(0, 0, 0)" stroke-opacity="1.0" stroke-linecap="round" stroke-linejoin="round"/>
    <path d="M 49.35421371459961 150.1668243408203 C 226.06521606445312 166.1852264404297 168.69894409179688 124.63626861572266 157.02281188964844 154.87571716308594" stroke-width="2" fill="none" stroke="rgb(0, 0, 0)" stroke-opacity="1.0" stroke-linecap="round" stroke-linejoin="round"/>
    <path d="M 145.5833282470703 110.73128509521484 C 104.80241394042969 83.49950408935547 167.23583984375 129.6433563232422 132.83175659179688 116.1011734008789" stroke-width="2" fill="none" stroke="rgb(0, 0, 0)" stroke-opacity="1.0" stroke-linecap="round" stroke-linejoin="round"/>
    <path d="M 153.61599731445312 102.4969482421875 C 144.10275268554688 140.7000732421875 184.3500518798828 76.26596069335938 153.5943145751953 123.68221282958984" stroke-width="2" fill="none" stroke="rgb(0, 0, 0)" stroke-opacity="1.0" stroke-linecap="round" stroke-linejoin="round"/>
    <path d="M 109.76399993896484 105.46005249023438 C 143.7574920654297 118.46939086914062 60.003814697265625 56.992549896240234 126.53929138183594 90.47505187988281" stroke-width="2" fill="none" stroke="rgb(0, 0, 0)" stroke-opacity="1.0" stroke-linecap="round" stroke-linejoin="round"/>
    <path d="M 148.58233642578125 87.67254638671875 C 35.23750686645508 96.14556884765625 177.888427734375 108.83570098876953 107.5025405883789 90.89688873291016" stroke-width="2" fill="none" stroke="rgb(0, 0, 0)" stroke-opacity="1.0" stroke-linecap="round" stroke-linejoin="round"/>
    <path d="M 120.12187194824219 144.8842315673828 C 99.74757385253906 128.7047882080078 123.61763000488281 122.14905548095703 97.89302062988281 108.23767852783203" stroke-width="2" fill="none" stroke="rgb(0, 0, 0)" stroke-opacity="1.0" stroke-linecap="round" stroke-linejoin="round"/>
    <path d="M 39.42123031616211 144.4331512451172 C 78.32991790771484 153.67410278320312 25.257619857788086 146.02392578125 45.74269104003906 125.9853515625" stroke-width="2" fill="none" stroke="rgb(0, 0, 0)" stroke-opacity="1.0" stroke-linecap="round" stroke-linejoin="round"/>
    <path d="M 119.58528900146484 126.10858917236328 C 233.2557830810547 134.45498657226562 58.272342681884766 119.15412139892578 143.56814575195312 122.25482177734375" stroke-width="2" fill="none" stroke="rgb(0, 0, 0)" stroke-opacity="1.0" stroke-linecap="round" stroke-linejoin="round"/>
    <path d="M 170.88287353515625 85.71974182128906 C 210.65667724609375 84.08539581298828 110.88341522216797 128.96287536621094 141.07818603515625 104.21363067626953" stroke-width="2" fill="none" stroke="rgb(0, 0, 0)" stroke-opacity="1.0" stroke-linecap="round" stroke-linejoin="round"/>
    <path d="M 154.24609375 85.39551544189453 C 214.29078674316406 27.585126876831055 163.804443359375 97.40380859375 159.1702423095703 84.99955749511719" stroke-width="2" fill="none" stroke="rgb(0, 0, 0)" stroke-opacity="1.0" stroke-linecap="round" stroke-linejoin="round"/>
    <path d="M 137.60833740234375 136.55703735351562 C 92.75148010253906 134.94154357910156 209.43321228027344 159.29966735839844 160.84983825683594 149.4437713623047" stroke-width="2" fill="none" stroke="rgb(0, 0, 0)" stroke-opacity="1.0" stroke-linecap="round" stroke-linejoin="round"/>
    <path d="M 85.07515716552734 122.83373260498047 C 125.62223815917969 132.1581268310547 47.52789306640625 104.866455078125 122.32470703125 140.78453063964844" stroke-width="2" fill="none" stroke="rgb(0, 0, 0)" stroke-opacity="1.0" stroke-linecap="round" stroke-linejoin="round"/>
    <path d="M 145.1540985107422 109.07261657714844 C 117.491943359375 151.9662628173828 68.03693389892578 25.650501251220703 116.99959564208984 84.30071258544922" stroke-width="2" fill="none" stroke="rgb(0, 0, 0)" stroke-opacity="1.0" stroke-linecap="round" stroke-linejoin="round"/>
    <path d="M 166.697998046875 96.650634765625 C 132.70364379882812 78.91937255859375 169.45208740234375 142.0289306640625 186.02713012695312 60.29469299316406" stroke-width="2" fill="none" stroke="rgb(0, 0, 0)" stroke-opacity="1.0" stroke-linecap="round" stroke-linejoin="round"/>
    <path d="M 63.68590545654297 116.96195983886719 C 68.82218170166016 96.41609191894531 -33.99549865722656 132.0272674560547 80.30720520019531 101.55777740478516" stroke-width="2" fill="none" stroke="rgb(0, 0, 0)" stroke-opacity="1.0" stroke-linecap="round" stroke-linejoin="round"/>
  </g>
</svg>
