<?xml version="1.0" ?>
<svg xmlns="http://www.w3.org/2000/svg" version="1.1" width="224" height="224">
  <defs/>
  <g>
    <path d="M 86.6969985961914 117.29569244384766 C 79.26366424560547 102.84613037109375 54.77951431274414 111.90351104736328 100.67437744140625 105.1361083984375" stroke-width="2" fill="none" stroke="rgb(0, 0, 0)" stroke-opacity="1.0" stroke-linecap="round" stroke-linejoin="round"/>
    <path d="M 109.86283874511719 148.13067626953125 C 134.11581420898438 161.90719604492188 112.85425567626953 129.16513061523438 121.14617919921875 149.55239868164062" stroke-width="2" fill="none" stroke="rgb(0, 0, 0)" stroke-opacity="1.0" stroke-linecap="round" stroke-linejoin="round"/>
    <path d="M 133.34837341308594 135.72293090820312 C 94.5646743774414 121.19261169433594 135.40191650390625 145.6604766845703 98.46650695800781 125.06074523925781" stroke-width="2" fill="none" stroke="rgb(0, 0, 0)" stroke-opacity="1.0" stroke-linecap="round" stroke-linejoin="round"/>
    <path d="M 146.0697021484375 116.74930572509766 C 123.43017578125 106.8580093383789 198.8777618408203 122.668212890625 136.7302703857422 121.97294616699219" stroke-width="2" fill="none" stroke="rgb(0, 0, 0)" stroke-opacity="1.0" stroke-linecap="round" stroke-linejoin="round"/>
    <path d="M 138.45005798339844 97.16187286376953 C 123.92407989501953 120.38251495361328 130.62545776367188 100.84625244140625 151.05516052246094 74.92113494873047" stroke-width="2" fill="none" stroke="rgb(0, 0, 0)" stroke-opacity="1.0" stroke-linecap="round" stroke-linejoin="round"/>
    <path d="M 160.1066131591797 67.33171081542969 C 102.59912872314453 82.8071060180664 126.37126159667969 115.63655090332031 115.50418853759766 105.45768737792969" stroke-width="2" fill="none" stroke="rgb(0, 0, 0)" stroke-opacity="1.0" stroke-linecap="round" stroke-linejoin="round"/>
    <path d="M 104.55496978759766 71.46836853027344 C 113.63458251953125 114.58262634277344 150.97689819335938 85.1077651977539 96.06759643554688 69.04945373535156" stroke-width="2" fill="none" stroke="rgb(0, 0, 0)" stroke-opacity="1.0" stroke-linecap="round" stroke-linejoin="round"/>
    <path d="M 91.98353576660156 143.46701049804688 C 93.50103759765625 151.40492248535156 21.09297752380371 153.62771606445312 38.10626983642578 122.34210205078125" stroke-width="2" fill="none" stroke="rgb(0, 0, 0)" stroke-opacity="1.0" stroke-linecap="round" stroke-linejoin="round"/>
    <path d="M 153.03549194335938 128.32113647460938 C 185.2113494873047 124.32874298095703 136.4658966064453 111.16494750976562 158.12063598632812 124.72846984863281" stroke-width="2" fill="none" stroke="rgb(0, 0, 0)" stroke-opacity="1.0" stroke-linecap="round" stroke-linejoin="round"/>
    <path d="M 115.65321350097656 119.45886993408203 C 139.530517578125 117.08802032470703 111.85267639160156 138.0041961669922 100.41101837158203 113.6132583618164" stroke-width="2" fill="none" stroke="rgb(0, 0, 0)" stroke-opacity="1.0" stroke-linecap="round" stroke-linejoin="round"/>
    <path d="M 168.3885040283203 65.05982971191406 C 179.65768432617188 78.46636962890625 175.79029846191406 68.60163879394531 168.7911834716797 102.36558532714844" stroke-width="2" fill="none" stroke="rgb(0, 0, 0)" stroke-opacity="1.0" stroke-linecap="round" stroke-linejoin="round"/>
    <path d="M 174.12432861328125 145.08128356933594 C 152.85018920898438 149.25997924804688 176.0815887451172 137.5686492919922 144.35507202148438 137.723388671875" stroke-width="2" fill="none" stroke="rgb(0, 0, 0)" stroke-opacity="1.0" stroke-linecap="round" stroke-linejoin="round"/>
    <path d="M 49.64365005493164 135.37510681152344 C 49.19255065917969 155.0185546875 83.42926025390625 143.18771362304688 112.71417999267578 152.0433349609375" stroke-width="2" fill="none" stroke="rgb(0, 0, 0)" stroke-opacity="1.0" stroke-linecap="round" stroke-linejoin="round"/>
    <path d="M 121.8257064819336 111.7357406616211 C 103.96861267089844 87.956298828125 104.11007690429688 83.19297790527344 134.58370971679688 91.23372650146484" stroke-width="2" fill="none" stroke="rgb(0, 0, 0)" stroke-opacity="1.0" stroke-linecap="round" stroke-linejoin="round"/>
    <path d="M 168.54501342773438 120.54378509521484 C 182.13516235351562 77.64419555664062 179.5413360595703 119.27523040771484 169.53424072265625 68.032958984375" stroke-width="2" fill="none" stroke="rgb(0, 0, 0)" stroke-opacity="1.0" stroke-linecap="round" stroke-linejoin="round"/>
    <path d="M 93.9743881225586 100.07477569580078 C 66.0788803100586 103.01734924316406 53.11783218383789 93.46624755859375 46.11383056640625 114.69612121582031" stroke-width="2" fill="none" stroke="rgb(0, 0, 0)" stroke-opacity="1.0" stroke-linecap="round" stroke-linejoin="round"/>
  </g>
</svg>
