<?xml version="1.0" ?>
<svg xmlns="http://www.w3.org/2000/svg" version="1.1" width="224" height="224">
  <defs/>
  <g>
    <path d="M 42.86676025390625 117.1046142578125 C 77.48088073730469 87.31382751464844 76.1064224243164 97.52577209472656 91.03376770019531 94.01265716552734" stroke-width="2" fill="none" stroke="rgb(0, 0, 0)" stroke-opacity="1.0" stroke-linecap="round" stroke-linejoin="round"/>
    <path d="M 52.94670104980469 146.56430053710938 C 169.9683837890625 167.71139526367188 213.14688110351562 131.6767578125 158.0198211669922 154.63211059570312" stroke-width="2" fill="none" stroke="rgb(0, 0, 0)" stroke-opacity="1.0" stroke-linecap="round" stroke-linejoin="round"/>
    <path d="M 162.34913635253906 137.459716796875 C 36.408729553222656 103.01762390136719 117.32029724121094 141.88900756835938 101.67935943603516 111.04451751708984" stroke-width="2" fill="none" stroke="rgb(0, 0, 0)" stroke-opacity="1.0" stroke-linecap="round" stroke-linejoin="round"/>
    <path d="M 156.7364959716797 135.51718139648438 C 126.5219497680664 111.30370330810547 158.7229461669922 124.60752868652344 144.0861053466797 127.96296691894531" stroke-width="2" fill="none" stroke="rgb(0, 0, 0)" stroke-opacity="1.0" stroke-linecap="round" stroke-linejoin="round"/>
    <path d="M 130.33013916015625 95.82138061523438 C 109.38322448730469 126.90193176269531 143.6239471435547 79.61986541748047 148.8458251953125 100.71754455566406" stroke-width="2" fill="none" stroke="rgb(0, 0, 0)" stroke-opacity="1.0" stroke-linecap="round" stroke-linejoin="round"/>
    <path d="M 159.40121459960938 88.3967056274414 C 51.02144241333008 99.0831298828125 190.1730499267578 108.30123138427734 119.31544494628906 83.36235046386719" stroke-width="2" fill="none" stroke="rgb(0, 0, 0)" stroke-opacity="1.0" stroke-linecap="round" stroke-linejoin="round"/>
    <path d="M 110.41136932373047 101.78630065917969 C 111.18209075927734 132.44349670410156 132.7160186767578 107.08023071289062 106.34959411621094 112.40935516357422" stroke-width="2" fill="none" stroke="rgb(0, 0, 0)" stroke-opacity="1.0" stroke-linecap="round" stroke-linejoin="round"/>
    <path d="M 41.68394088745117 141.03318786621094 C 98.85359191894531 162.297119140625 32.77619934082031 144.97271728515625 42.993927001953125 125.26577758789062" stroke-width="2" fill="none" stroke="rgb(0, 0, 0)" stroke-opacity="1.0" stroke-linecap="round" stroke-linejoin="round"/>
    <path d="M 126.52247619628906 134.8490753173828 C 175.4575653076172 170.42616271972656 88.72594451904297 102.3704833984375 142.1538848876953 138.61544799804688" stroke-width="2" fill="none" stroke="rgb(0, 0, 0)" stroke-opacity="1.0" stroke-linecap="round" stroke-linejoin="round"/>
    <path d="M 147.68569946289062 116.83375549316406 C 181.9404754638672 125.19070434570312 107.75421142578125 114.98167419433594 137.5667724609375 122.47810363769531" stroke-width="2" fill="none" stroke="rgb(0, 0, 0)" stroke-opacity="1.0" stroke-linecap="round" stroke-linejoin="round"/>
    <path d="M 161.35133361816406 124.8735580444336 C 202.43565368652344 32.04111099243164 194.1061553955078 57.672306060791016 154.48121643066406 93.65911865234375" stroke-width="2" fill="none" stroke="rgb(0, 0, 0)" stroke-opacity="1.0" stroke-linecap="round" stroke-linejoin="round"/>
    <path d="M 168.5222625732422 149.80223083496094 C 123.18090057373047 150.4741668701172 205.65438842773438 105.96623229980469 139.73744201660156 135.23121643066406" stroke-width="2" fill="none" stroke="rgb(0, 0, 0)" stroke-opacity="1.0" stroke-linecap="round" stroke-linejoin="round"/>
    <path d="M 70.94530487060547 135.30596923828125 C 85.05857849121094 142.90780639648438 54.67123031616211 149.47987365722656 167.7622833251953 154.73916625976562" stroke-width="2" fill="none" stroke="rgb(0, 0, 0)" stroke-opacity="1.0" stroke-linecap="round" stroke-linejoin="round"/>
    <path d="M 145.69790649414062 136.22906494140625 C 88.4098892211914 113.90693664550781 85.94080352783203 30.047088623046875 120.99109649658203 101.77045440673828" stroke-width="2" fill="none" stroke="rgb(0, 0, 0)" stroke-opacity="1.0" stroke-linecap="round" stroke-linejoin="round"/>
    <path d="M 175.150634765625 92.48625946044922 C 139.74200439453125 108.97614288330078 180.30345153808594 129.93995666503906 187.30935668945312 68.90009307861328" stroke-width="2" fill="none" stroke="rgb(0, 0, 0)" stroke-opacity="1.0" stroke-linecap="round" stroke-linejoin="round"/>
    <path d="M 79.36128234863281 114.46746826171875 C 71.01384735107422 102.34105682373047 -3.889610528945923 117.19644927978516 82.0235595703125 109.26983642578125" stroke-width="2" fill="none" stroke="rgb(0, 0, 0)" stroke-opacity="1.0" stroke-linecap="round" stroke-linejoin="round"/>
  </g>
</svg>
