<?xml version="1.0" ?>
<svg xmlns="http://www.w3.org/2000/svg" version="1.1" width="224" height="224">
  <defs/>
  <g>
    <path d="M 38.641361236572266 115.29722595214844 C 62.75734329223633 113.33030700683594 36.460845947265625 88.07962036132812 110.93079376220703 102.55635070800781" stroke-width="2" fill="none" stroke="rgb(0, 0, 0)" stroke-opacity="1.0" stroke-linecap="round" stroke-linejoin="round"/>
    <path d="M 113.62098693847656 122.20216369628906 C 211.999267578125 153.51206970214844 165.22494506835938 159.45852661132812 163.39161682128906 146.2519989013672" stroke-width="2" fill="none" stroke="rgb(0, 0, 0)" stroke-opacity="1.0" stroke-linecap="round" stroke-linejoin="round"/>
    <path d="M 144.84280395507812 120.35084533691406 C 44.144107818603516 131.47589111328125 254.672119140625 157.44615173339844 85.10618591308594 129.28030395507812" stroke-width="2" fill="none" stroke="rgb(0, 0, 0)" stroke-opacity="1.0" stroke-linecap="round" stroke-linejoin="round"/>
    <path d="M 153.24932861328125 118.20265197753906 C 188.3084259033203 102.91572570800781 122.55353546142578 98.7186508178711 162.80027770996094 111.78531646728516" stroke-width="2" fill="none" stroke="rgb(0, 0, 0)" stroke-opacity="1.0" stroke-linecap="round" stroke-linejoin="round"/>
    <path d="M 126.20264434814453 98.38957977294922 C 103.6913070678711 114.66722869873047 95.94952392578125 41.33247375488281 101.59798431396484 103.31977844238281" stroke-width="2" fill="none" stroke="rgb(0, 0, 0)" stroke-opacity="1.0" stroke-linecap="round" stroke-linejoin="round"/>
    <path d="M 124.08892059326172 87.46131134033203 C 169.9350128173828 76.66368865966797 133.93775939941406 105.49761199951172 172.0831298828125 96.44711303710938" stroke-width="2" fill="none" stroke="rgb(0, 0, 0)" stroke-opacity="1.0" stroke-linecap="round" stroke-linejoin="round"/>
    <path d="M 139.33743286132812 112.46137237548828 C 114.99224090576172 111.4085693359375 157.4240264892578 111.72289276123047 132.24981689453125 104.38848876953125" stroke-width="2" fill="none" stroke="rgb(0, 0, 0)" stroke-opacity="1.0" stroke-linecap="round" stroke-linejoin="round"/>
    <path d="M 102.75286102294922 137.5401153564453 C 332.8373107910156 143.28207397460938 -33.90888214111328 185.8790740966797 51.93342208862305 109.85437774658203" stroke-width="2" fill="none" stroke="rgb(0, 0, 0)" stroke-opacity="1.0" stroke-linecap="round" stroke-linejoin="round"/>
    <path d="M 125.66243743896484 118.36692810058594 C 229.55813598632812 146.231689453125 48.1541633605957 99.28533172607422 142.9677734375 117.07915496826172" stroke-width="2" fill="none" stroke="rgb(0, 0, 0)" stroke-opacity="1.0" stroke-linecap="round" stroke-linejoin="round"/>
    <path d="M 120.15159606933594 123.9305419921875 C 161.8101043701172 131.3656005859375 93.79145050048828 133.4542694091797 123.98697662353516 107.98230743408203" stroke-width="2" fill="none" stroke="rgb(0, 0, 0)" stroke-opacity="1.0" stroke-linecap="round" stroke-linejoin="round"/>
    <path d="M 165.77386474609375 91.89550018310547 C 229.75428771972656 18.464723587036133 110.30659484863281 120.97150421142578 165.4252166748047 73.9179916381836" stroke-width="2" fill="none" stroke="rgb(0, 0, 0)" stroke-opacity="1.0" stroke-linecap="round" stroke-linejoin="round"/>
    <path d="M 143.53433227539062 155.33702087402344 C 129.70761108398438 144.6602020263672 196.52987670898438 147.54676818847656 90.66071319580078 153.65147399902344" stroke-width="2" fill="none" stroke="rgb(0, 0, 0)" stroke-opacity="1.0" stroke-linecap="round" stroke-linejoin="round"/>
    <path d="M 123.19882202148438 115.70960998535156 C 184.07235717773438 118.9140625 89.30491638183594 132.9134063720703 139.2161102294922 118.8568115234375" stroke-width="2" fill="none" stroke="rgb(0, 0, 0)" stroke-opacity="1.0" stroke-linecap="round" stroke-linejoin="round"/>
    <path d="M 89.08697509765625 99.24021911621094 C 165.2230987548828 168.89524841308594 43.329063415527344 21.55263900756836 128.81101989746094 85.47894287109375" stroke-width="2" fill="none" stroke="rgb(0, 0, 0)" stroke-opacity="1.0" stroke-linecap="round" stroke-linejoin="round"/>
    <path d="M 175.4741668701172 95.16050720214844 C 127.90967559814453 113.9338607788086 171.719970703125 133.2930450439453 180.8404998779297 71.59774017333984" stroke-width="2" fill="none" stroke="rgb(0, 0, 0)" stroke-opacity="1.0" stroke-linecap="round" stroke-linejoin="round"/>
    <path d="M 87.697021484375 123.58740234375 C 100.18924713134766 149.47720336914062 54.93387222290039 114.4726333618164 106.93441772460938 139.21786499023438" stroke-width="2" fill="none" stroke="rgb(0, 0, 0)" stroke-opacity="1.0" stroke-linecap="round" stroke-linejoin="round"/>
  </g>
</svg>
