<?xml version="1.0" ?>
<svg xmlns="http://www.w3.org/2000/svg" version="1.1" width="224" height="224">
  <defs/>
  <g>
    <path d="M 45.68003463745117 128.62408447265625 C 53.26105499267578 88.41401672363281 90.96591186523438 95.47454071044922 91.09136199951172 94.76084899902344" stroke-width="2" fill="none" stroke="rgb(0, 0, 0)" stroke-opacity="1.0" stroke-linecap="round" stroke-linejoin="round"/>
    <path d="M 50.003448486328125 145.2333984375 C 202.50982666015625 169.56103515625 189.917236328125 119.41787719726562 168.6157989501953 152.62432861328125" stroke-width="2" fill="none" stroke="rgb(0, 0, 0)" stroke-opacity="1.0" stroke-linecap="round" stroke-linejoin="round"/>
    <path d="M 149.35231018066406 109.71126556396484 C 106.6494140625 102.70421600341797 171.05859375 118.77574157714844 131.59432983398438 114.99248504638672" stroke-width="2" fill="none" stroke="rgb(0, 0, 0)" stroke-opacity="1.0" stroke-linecap="round" stroke-linejoin="round"/>
    <path d="M 158.61300659179688 99.36754608154297 C 142.60731506347656 140.0072021484375 180.6115264892578 85.2287368774414 155.92359924316406 127.33142852783203" stroke-width="2" fill="none" stroke="rgb(0, 0, 0)" stroke-opacity="1.0" stroke-linecap="round" stroke-linejoin="round"/>
    <path d="M 126.64836883544922 95.32288360595703 C 95.21334838867188 108.72857666015625 146.1447296142578 67.07130432128906 149.236328125 88.89723205566406" stroke-width="2" fill="none" stroke="rgb(0, 0, 0)" stroke-opacity="1.0" stroke-linecap="round" stroke-linejoin="round"/>
    <path d="M 161.92970275878906 80.8306655883789 C 19.87639808654785 91.7209701538086 188.78541564941406 120.62908935546875 104.60995483398438 90.95344543457031" stroke-width="2" fill="none" stroke="rgb(0, 0, 0)" stroke-opacity="1.0" stroke-linecap="round" stroke-linejoin="round"/>
    <path d="M 129.91310119628906 144.23704528808594 C 103.23101806640625 140.57354736328125 124.29940795898438 111.602294921875 96.35704040527344 109.58985137939453" stroke-width="2" fill="none" stroke="rgb(0, 0, 0)" stroke-opacity="1.0" stroke-linecap="round" stroke-linejoin="round"/>
    <path d="M 32.610904693603516 135.50648498535156 C 56.74639129638672 148.62892150878906 10.19951343536377 137.10055541992188 45.15236282348633 121.13459014892578" stroke-width="2" fill="none" stroke="rgb(0, 0, 0)" stroke-opacity="1.0" stroke-linecap="round" stroke-linejoin="round"/>
    <path d="M 127.80760955810547 132.103271484375 C 231.80979919433594 161.17974853515625 78.47370147705078 123.05396270751953 148.8750457763672 131.02210998535156" stroke-width="2" fill="none" stroke="rgb(0, 0, 0)" stroke-opacity="1.0" stroke-linecap="round" stroke-linejoin="round"/>
    <path d="M 156.03099060058594 100.06266021728516 C 189.28335571289062 103.19705963134766 105.6895751953125 113.9936294555664 142.01513671875 113.9760513305664" stroke-width="2" fill="none" stroke="rgb(0, 0, 0)" stroke-opacity="1.0" stroke-linecap="round" stroke-linejoin="round"/>
    <path d="M 162.09451293945312 86.1172866821289 C 217.96841430664062 26.480159759521484 170.33987426757812 96.6662368774414 165.41856384277344 92.72173309326172" stroke-width="2" fill="none" stroke="rgb(0, 0, 0)" stroke-opacity="1.0" stroke-linecap="round" stroke-linejoin="round"/>
    <path d="M 143.5197296142578 148.37432861328125 C 96.15325164794922 126.19837188720703 175.932373046875 172.53518676757812 153.2300567626953 147.6875457763672" stroke-width="2" fill="none" stroke="rgb(0, 0, 0)" stroke-opacity="1.0" stroke-linecap="round" stroke-linejoin="round"/>
    <path d="M 83.61446380615234 130.02928161621094 C 114.3595199584961 133.1246795654297 39.75820541381836 109.39012145996094 122.22814178466797 143.54942321777344" stroke-width="2" fill="none" stroke="rgb(0, 0, 0)" stroke-opacity="1.0" stroke-linecap="round" stroke-linejoin="round"/>
    <path d="M 144.9537353515625 133.57986450195312 C 106.20116424560547 119.24907684326172 66.10200500488281 28.859668731689453 124.19660949707031 87.78157806396484" stroke-width="2" fill="none" stroke="rgb(0, 0, 0)" stroke-opacity="1.0" stroke-linecap="round" stroke-linejoin="round"/>
    <path d="M 156.13034057617188 110.39679718017578 C 131.34637451171875 73.10126495361328 161.84388732910156 156.0178985595703 186.9237518310547 68.83069610595703" stroke-width="2" fill="none" stroke="rgb(0, 0, 0)" stroke-opacity="1.0" stroke-linecap="round" stroke-linejoin="round"/>
    <path d="M 76.65689086914062 110.2808837890625 C 61.342525482177734 89.55358123779297 -13.012526512145996 168.3218231201172 66.49231719970703 100.79987335205078" stroke-width="2" fill="none" stroke="rgb(0, 0, 0)" stroke-opacity="1.0" stroke-linecap="round" stroke-linejoin="round"/>
  </g>
</svg>
