<?xml version="1.0" ?>
<svg xmlns="http://www.w3.org/2000/svg" version="1.1" width="224" height="224">
  <defs/>
  <g>
    <path d="M 43.74474334716797 122.08177947998047 C 58.06987380981445 115.75419616699219 32.71171188354492 79.5854721069336 113.3700942993164 100.5955810546875" stroke-width="2" fill="none" stroke="rgb(0, 0, 0)" stroke-opacity="1.0" stroke-linecap="round" stroke-linejoin="round"/>
    <path d="M 116.75504302978516 118.88143157958984 C 204.3264923095703 151.94285583496094 169.1096649169922 153.72547912597656 169.8411102294922 155.82229614257812" stroke-width="2" fill="none" stroke="rgb(0, 0, 0)" stroke-opacity="1.0" stroke-linecap="round" stroke-linejoin="round"/>
    <path d="M 144.08963012695312 111.94894409179688 C 36.418426513671875 125.12226104736328 251.31663513183594 155.9249267578125 83.03752899169922 127.16860961914062" stroke-width="2" fill="none" stroke="rgb(0, 0, 0)" stroke-opacity="1.0" stroke-linecap="round" stroke-linejoin="round"/>
    <path d="M 159.95260620117188 104.15333557128906 C 190.334716796875 98.70970153808594 121.88424682617188 102.57706451416016 165.0380859375 109.81945037841797" stroke-width="2" fill="none" stroke="rgb(0, 0, 0)" stroke-opacity="1.0" stroke-linecap="round" stroke-linejoin="round"/>
    <path d="M 119.33959197998047 95.55889892578125 C 104.32255554199219 102.42032623291016 87.04512786865234 28.087350845336914 101.27130126953125 103.10271453857422" stroke-width="2" fill="none" stroke="rgb(0, 0, 0)" stroke-opacity="1.0" stroke-linecap="round" stroke-linejoin="round"/>
    <path d="M 127.27254486083984 86.12947845458984 C 175.93446350097656 76.39387512207031 146.8408966064453 101.02891540527344 162.8429718017578 105.13410186767578" stroke-width="2" fill="none" stroke="rgb(0, 0, 0)" stroke-opacity="1.0" stroke-linecap="round" stroke-linejoin="round"/>
    <path d="M 143.73550415039062 115.54226684570312 C 116.56280517578125 108.91472625732422 159.55918884277344 106.17451477050781 131.9473419189453 103.37092590332031" stroke-width="2" fill="none" stroke="rgb(0, 0, 0)" stroke-opacity="1.0" stroke-linecap="round" stroke-linejoin="round"/>
    <path d="M 125.29080963134766 134.8558807373047 C 332.5285339355469 139.08482360839844 -48.239070892333984 187.9044647216797 55.60486602783203 107.82463073730469" stroke-width="2" fill="none" stroke="rgb(0, 0, 0)" stroke-opacity="1.0" stroke-linecap="round" stroke-linejoin="round"/>
    <path d="M 115.34915924072266 114.96804809570312 C 197.5374755859375 147.19346618652344 48.371063232421875 113.20072174072266 146.65782165527344 116.84967803955078" stroke-width="2" fill="none" stroke="rgb(0, 0, 0)" stroke-opacity="1.0" stroke-linecap="round" stroke-linejoin="round"/>
    <path d="M 111.66397857666016 118.20747375488281 C 167.94656372070312 137.60940551757812 89.7605972290039 121.35140991210938 120.57728576660156 110.04186248779297" stroke-width="2" fill="none" stroke="rgb(0, 0, 0)" stroke-opacity="1.0" stroke-linecap="round" stroke-linejoin="round"/>
    <path d="M 164.25929260253906 89.284423828125 C 234.91839599609375 19.656457901000977 105.37495422363281 124.72042083740234 174.21603393554688 82.19915771484375" stroke-width="2" fill="none" stroke="rgb(0, 0, 0)" stroke-opacity="1.0" stroke-linecap="round" stroke-linejoin="round"/>
    <path d="M 148.4718780517578 144.594970703125 C 174.90869140625 167.5711212158203 205.7183074951172 145.11700439453125 113.76423645019531 144.39236450195312" stroke-width="2" fill="none" stroke="rgb(0, 0, 0)" stroke-opacity="1.0" stroke-linecap="round" stroke-linejoin="round"/>
    <path d="M 131.77197265625 110.50688171386719 C 173.2873077392578 125.71332550048828 92.771240234375 127.32585906982422 143.3749542236328 120.11872100830078" stroke-width="2" fill="none" stroke="rgb(0, 0, 0)" stroke-opacity="1.0" stroke-linecap="round" stroke-linejoin="round"/>
    <path d="M 90.44263458251953 98.01470184326172 C 160.37403869628906 167.445068359375 50.78915023803711 18.551727294921875 126.71102142333984 84.13509368896484" stroke-width="2" fill="none" stroke="rgb(0, 0, 0)" stroke-opacity="1.0" stroke-linecap="round" stroke-linejoin="round"/>
    <path d="M 172.51812744140625 102.15544128417969 C 132.64633178710938 111.40534973144531 165.50173950195312 139.5563507080078 183.1895294189453 69.9589614868164" stroke-width="2" fill="none" stroke="rgb(0, 0, 0)" stroke-opacity="1.0" stroke-linecap="round" stroke-linejoin="round"/>
    <path d="M 96.77235412597656 119.05550384521484 C 122.56175994873047 144.82481384277344 71.21959686279297 98.85941314697266 106.0318374633789 137.10107421875" stroke-width="2" fill="none" stroke="rgb(0, 0, 0)" stroke-opacity="1.0" stroke-linecap="round" stroke-linejoin="round"/>
  </g>
</svg>
