<?xml version="1.0" ?>
<svg xmlns="http://www.w3.org/2000/svg" version="1.1" width="224" height="224">
  <defs/>
  <g>
    <path d="M 38.66399383544922 117.55269622802734 C 65.17452239990234 117.0445556640625 27.805814743041992 83.95938110351562 128.35409545898438 103.57579803466797" stroke-width="2" fill="none" stroke="rgb(0, 0, 0)" stroke-opacity="1.0" stroke-linecap="round" stroke-linejoin="round"/>
    <path d="M 108.4653549194336 115.7603530883789 C 208.52178955078125 152.3488006591797 171.2604522705078 160.13339233398438 176.43450927734375 150.11477661132812" stroke-width="2" fill="none" stroke="rgb(0, 0, 0)" stroke-opacity="1.0" stroke-linecap="round" stroke-linejoin="round"/>
    <path d="M 113.46640014648438 104.7254867553711 C 82.5105209350586 88.51985931396484 173.39495849609375 140.89022827148438 106.23943328857422 117.70256805419922" stroke-width="2" fill="none" stroke="rgb(0, 0, 0)" stroke-opacity="1.0" stroke-linecap="round" stroke-linejoin="round"/>
    <path d="M 149.2332763671875 108.46582794189453 C 215.16600036621094 99.27462005615234 112.96855926513672 91.14424133300781 163.65817260742188 102.2116470336914" stroke-width="2" fill="none" stroke="rgb(0, 0, 0)" stroke-opacity="1.0" stroke-linecap="round" stroke-linejoin="round"/>
    <path d="M 116.00946044921875 98.101806640625 C 108.15165710449219 100.48990631103516 93.44475555419922 44.42262649536133 97.27397918701172 93.70602416992188" stroke-width="2" fill="none" stroke="rgb(0, 0, 0)" stroke-opacity="1.0" stroke-linecap="round" stroke-linejoin="round"/>
    <path d="M 130.86569213867188 83.53682708740234 C 160.97018432617188 67.95967864990234 165.7640380859375 136.3518524169922 148.65829467773438 108.86962890625" stroke-width="2" fill="none" stroke="rgb(0, 0, 0)" stroke-opacity="1.0" stroke-linecap="round" stroke-linejoin="round"/>
    <path d="M 135.7411346435547 119.79426574707031 C 90.00138854980469 98.61787414550781 154.9593963623047 90.25614166259766 121.5545883178711 92.1142807006836" stroke-width="2" fill="none" stroke="rgb(0, 0, 0)" stroke-opacity="1.0" stroke-linecap="round" stroke-linejoin="round"/>
    <path d="M 103.74039459228516 141.5341339111328 C 263.4029235839844 159.9729766845703 -34.67132568359375 170.34642028808594 47.676536560058594 114.83514404296875" stroke-width="2" fill="none" stroke="rgb(0, 0, 0)" stroke-opacity="1.0" stroke-linecap="round" stroke-linejoin="round"/>
    <path d="M 185.84474182128906 152.73648071289062 C 219.7092742919922 140.04383850097656 28.61192512512207 79.11192321777344 140.48631286621094 116.78804016113281" stroke-width="2" fill="none" stroke="rgb(0, 0, 0)" stroke-opacity="1.0" stroke-linecap="round" stroke-linejoin="round"/>
    <path d="M 103.69967651367188 123.61042022705078 C 180.12347412109375 107.27525329589844 115.58830261230469 103.80347442626953 141.8011932373047 110.44985961914062" stroke-width="2" fill="none" stroke="rgb(0, 0, 0)" stroke-opacity="1.0" stroke-linecap="round" stroke-linejoin="round"/>
    <path d="M 165.73123168945312 89.2803726196289 C 228.16639709472656 26.11837387084961 101.46257019042969 116.78644561767578 171.20050048828125 72.06640625" stroke-width="2" fill="none" stroke="rgb(0, 0, 0)" stroke-opacity="1.0" stroke-linecap="round" stroke-linejoin="round"/>
    <path d="M 154.66644287109375 133.13075256347656 C 211.9184112548828 147.16140747070312 199.60423278808594 144.90834045410156 48.538124084472656 146.63539123535156" stroke-width="2" fill="none" stroke="rgb(0, 0, 0)" stroke-opacity="1.0" stroke-linecap="round" stroke-linejoin="round"/>
    <path d="M 102.9349594116211 120.72474670410156 C 247.8237762451172 129.42520141601562 81.51702880859375 123.80311584472656 133.8318634033203 109.85514831542969" stroke-width="2" fill="none" stroke="rgb(0, 0, 0)" stroke-opacity="1.0" stroke-linecap="round" stroke-linejoin="round"/>
    <path d="M 111.29804229736328 91.86323547363281 C 130.24008178710938 121.2988052368164 61.84748458862305 37.251651763916016 130.28268432617188 86.87956237792969" stroke-width="2" fill="none" stroke="rgb(0, 0, 0)" stroke-opacity="1.0" stroke-linecap="round" stroke-linejoin="round"/>
    <path d="M 171.99447631835938 96.82891082763672 C 132.01718139648438 105.15735626220703 163.36489868164062 143.8870849609375 185.80670166015625 61.63652420043945" stroke-width="2" fill="none" stroke="rgb(0, 0, 0)" stroke-opacity="1.0" stroke-linecap="round" stroke-linejoin="round"/>
    <path d="M 59.24662399291992 127.24053192138672 C 69.4792251586914 150.69297790527344 35.938419342041016 115.95402526855469 75.83194732666016 146.283935546875" stroke-width="2" fill="none" stroke="rgb(0, 0, 0)" stroke-opacity="1.0" stroke-linecap="round" stroke-linejoin="round"/>
  </g>
</svg>
