<?xml version="1.0" ?>
<svg xmlns="http://www.w3.org/2000/svg" version="1.1" width="224" height="224">
  <defs/>
  <g>
    <path d="M 35.417762756347656 130.70001220703125 C 62.15284729003906 122.64657592773438 29.273855209350586 81.84491729736328 121.3658676147461 100.61600494384766" stroke-width="2" fill="none" stroke="rgb(0, 0, 0)" stroke-opacity="1.0" stroke-linecap="round" stroke-linejoin="round"/>
    <path d="M 116.1828384399414 115.75759887695312 C 199.40097045898438 158.65713500976562 167.5737762451172 162.88209533691406 179.02197265625 155.47531127929688" stroke-width="2" fill="none" stroke="rgb(0, 0, 0)" stroke-opacity="1.0" stroke-linecap="round" stroke-linejoin="round"/>
    <path d="M 125.85345458984375 114.27450561523438 C 78.36888122558594 88.31315612792969 160.96200561523438 144.40411376953125 101.11071014404297 121.8245849609375" stroke-width="2" fill="none" stroke="rgb(0, 0, 0)" stroke-opacity="1.0" stroke-linecap="round" stroke-linejoin="round"/>
    <path d="M 156.13453674316406 96.25756072998047 C 201.5399169921875 110.92536163330078 112.37908935546875 96.63789367675781 162.05728149414062 108.88016510009766" stroke-width="2" fill="none" stroke="rgb(0, 0, 0)" stroke-opacity="1.0" stroke-linecap="round" stroke-linejoin="round"/>
    <path d="M 119.10088348388672 92.40022277832031 C 106.7978744506836 103.10802459716797 90.83796691894531 33.4189338684082 98.08042907714844 104.3145980834961" stroke-width="2" fill="none" stroke="rgb(0, 0, 0)" stroke-opacity="1.0" stroke-linecap="round" stroke-linejoin="round"/>
    <path d="M 127.91130828857422 85.53550720214844 C 163.24435424804688 69.44109344482422 169.00335693359375 120.9559326171875 151.67066955566406 99.4614486694336" stroke-width="2" fill="none" stroke="rgb(0, 0, 0)" stroke-opacity="1.0" stroke-linecap="round" stroke-linejoin="round"/>
    <path d="M 141.70433044433594 122.10322570800781 C 100.37957763671875 95.23543548583984 163.9263153076172 109.46172332763672 131.9637451171875 100.31023406982422" stroke-width="2" fill="none" stroke="rgb(0, 0, 0)" stroke-opacity="1.0" stroke-linecap="round" stroke-linejoin="round"/>
    <path d="M 102.27223205566406 125.28213500976562 C 272.67108154296875 153.7009735107422 -19.46308708190918 178.70040893554688 51.48054122924805 112.38238525390625" stroke-width="2" fill="none" stroke="rgb(0, 0, 0)" stroke-opacity="1.0" stroke-linecap="round" stroke-linejoin="round"/>
    <path d="M 189.1619110107422 148.43971252441406 C 219.5868682861328 149.78150939941406 27.803224563598633 84.76545715332031 143.7914276123047 118.16183471679688" stroke-width="2" fill="none" stroke="rgb(0, 0, 0)" stroke-opacity="1.0" stroke-linecap="round" stroke-linejoin="round"/>
    <path d="M 112.36491394042969 127.86017608642578 C 181.93222045898438 115.01752471923828 112.50740051269531 124.4035873413086 140.73779296875 114.25751495361328" stroke-width="2" fill="none" stroke="rgb(0, 0, 0)" stroke-opacity="1.0" stroke-linecap="round" stroke-linejoin="round"/>
    <path d="M 165.88633728027344 89.37015533447266 C 228.80694580078125 20.180551528930664 106.41557312011719 118.05655670166016 170.6972198486328 71.09359741210938" stroke-width="2" fill="none" stroke="rgb(0, 0, 0)" stroke-opacity="1.0" stroke-linecap="round" stroke-linejoin="round"/>
    <path d="M 143.5049591064453 142.71986389160156 C 208.3202362060547 152.88357543945312 195.67269897460938 164.1658477783203 41.827911376953125 144.84718322753906" stroke-width="2" fill="none" stroke="rgb(0, 0, 0)" stroke-opacity="1.0" stroke-linecap="round" stroke-linejoin="round"/>
    <path d="M 118.32696533203125 126.11995697021484 C 240.46383666992188 130.98190307617188 84.6471176147461 132.32830810546875 127.98845672607422 111.61405181884766" stroke-width="2" fill="none" stroke="rgb(0, 0, 0)" stroke-opacity="1.0" stroke-linecap="round" stroke-linejoin="round"/>
    <path d="M 108.61368560791016 96.615234375 C 132.67752075195312 125.96888732910156 58.31576919555664 30.69243621826172 127.69686126708984 84.01285552978516" stroke-width="2" fill="none" stroke="rgb(0, 0, 0)" stroke-opacity="1.0" stroke-linecap="round" stroke-linejoin="round"/>
    <path d="M 172.64166259765625 96.9158706665039 C 133.1097869873047 102.99024963378906 162.21778869628906 148.06202697753906 184.31996154785156 63.75958251953125" stroke-width="2" fill="none" stroke="rgb(0, 0, 0)" stroke-opacity="1.0" stroke-linecap="round" stroke-linejoin="round"/>
    <path d="M 62.91104507446289 131.29808044433594 C 66.64258575439453 151.93017578125 34.31196975708008 115.69385528564453 76.2157974243164 147.8178253173828" stroke-width="2" fill="none" stroke="rgb(0, 0, 0)" stroke-opacity="1.0" stroke-linecap="round" stroke-linejoin="round"/>
  </g>
</svg>
