<?xml version="1.0" ?>
<svg xmlns="http://www.w3.org/2000/svg" version="1.1" width="224" height="224">
  <defs/>
  <g>
    <path d="M 36.823734283447266 122.65888214111328 C 60.8139762878418 122.30374145507812 24.803428649902344 83.28028106689453 116.80245971679688 100.58351135253906" stroke-width="2" fill="none" stroke="rgb(0, 0, 0)" stroke-opacity="1.0" stroke-linecap="round" stroke-linejoin="round"/>
    <path d="M 121.78943634033203 114.97676849365234 C 216.4931640625 146.74749755859375 175.36875915527344 152.81396484375 172.2333526611328 145.76663208007812" stroke-width="2" fill="none" stroke="rgb(0, 0, 0)" stroke-opacity="1.0" stroke-linecap="round" stroke-linejoin="round"/>
    <path d="M 138.46141052246094 117.76376342773438 C 55.22808074951172 128.77362060546875 246.74234008789062 164.36927795410156 82.27141571044922 131.3463134765625" stroke-width="2" fill="none" stroke="rgb(0, 0, 0)" stroke-opacity="1.0" stroke-linecap="round" stroke-linejoin="round"/>
    <path d="M 154.95611572265625 117.7379379272461 C 187.9925537109375 107.56238555908203 137.04327392578125 95.90003967285156 159.4927978515625 112.82758331298828" stroke-width="2" fill="none" stroke="rgb(0, 0, 0)" stroke-opacity="1.0" stroke-linecap="round" stroke-linejoin="round"/>
    <path d="M 119.03565216064453 90.90288543701172 C 104.62810516357422 106.59756469726562 87.20259094238281 28.800554275512695 111.66345977783203 112.22531127929688" stroke-width="2" fill="none" stroke="rgb(0, 0, 0)" stroke-opacity="1.0" stroke-linecap="round" stroke-linejoin="round"/>
    <path d="M 129.04605102539062 83.15573120117188 C 169.20001220703125 72.83570861816406 138.48399353027344 103.58485412597656 166.4620361328125 94.04438781738281" stroke-width="2" fill="none" stroke="rgb(0, 0, 0)" stroke-opacity="1.0" stroke-linecap="round" stroke-linejoin="round"/>
    <path d="M 138.35057067871094 108.72521209716797 C 113.57154846191406 97.5235366821289 164.23114013671875 114.1326675415039 143.99574279785156 97.54605102539062" stroke-width="2" fill="none" stroke="rgb(0, 0, 0)" stroke-opacity="1.0" stroke-linecap="round" stroke-linejoin="round"/>
    <path d="M 121.92234802246094 136.8548126220703 C 305.725830078125 137.45584106445312 -39.77447509765625 183.18507385253906 55.182003021240234 107.77906799316406" stroke-width="2" fill="none" stroke="rgb(0, 0, 0)" stroke-opacity="1.0" stroke-linecap="round" stroke-linejoin="round"/>
    <path d="M 142.4792022705078 120.65811157226562 C 223.33154296875 145.71429443359375 36.40958023071289 94.65457916259766 135.12704467773438 114.18632507324219" stroke-width="2" fill="none" stroke="rgb(0, 0, 0)" stroke-opacity="1.0" stroke-linecap="round" stroke-linejoin="round"/>
    <path d="M 128.1896514892578 127.48721313476562 C 161.6973876953125 124.01277160644531 96.8094253540039 127.85066223144531 121.9420394897461 106.48310089111328" stroke-width="2" fill="none" stroke="rgb(0, 0, 0)" stroke-opacity="1.0" stroke-linecap="round" stroke-linejoin="round"/>
    <path d="M 166.11099243164062 88.37369537353516 C 224.50608825683594 17.550193786621094 112.1654281616211 121.07335662841797 169.81007385253906 72.98063659667969" stroke-width="2" fill="none" stroke="rgb(0, 0, 0)" stroke-opacity="1.0" stroke-linecap="round" stroke-linejoin="round"/>
    <path d="M 130.1702880859375 154.54806518554688 C 115.95732879638672 161.84657287597656 193.21583557128906 151.38876342773438 92.0611572265625 152.3431396484375" stroke-width="2" fill="none" stroke="rgb(0, 0, 0)" stroke-opacity="1.0" stroke-linecap="round" stroke-linejoin="round"/>
    <path d="M 121.51679229736328 115.01394653320312 C 174.36834716796875 113.38323974609375 84.69231414794922 127.0317611694336 137.66383361816406 109.5791244506836" stroke-width="2" fill="none" stroke="rgb(0, 0, 0)" stroke-opacity="1.0" stroke-linecap="round" stroke-linejoin="round"/>
    <path d="M 93.61450958251953 97.57947540283203 C 149.5970001220703 159.01673889160156 54.239234924316406 24.881574630737305 125.7044906616211 82.70362854003906" stroke-width="2" fill="none" stroke="rgb(0, 0, 0)" stroke-opacity="1.0" stroke-linecap="round" stroke-linejoin="round"/>
    <path d="M 170.86961364746094 95.32486724853516 C 135.35345458984375 108.23397827148438 165.8599395751953 138.0099334716797 179.7582550048828 70.49598693847656" stroke-width="2" fill="none" stroke="rgb(0, 0, 0)" stroke-opacity="1.0" stroke-linecap="round" stroke-linejoin="round"/>
    <path d="M 81.17222595214844 130.81942749023438 C 102.62495422363281 146.35752868652344 68.17862701416016 117.36701965332031 104.00381469726562 139.0914764404297" stroke-width="2" fill="none" stroke="rgb(0, 0, 0)" stroke-opacity="1.0" stroke-linecap="round" stroke-linejoin="round"/>
  </g>
</svg>
