<?xml version="1.0" ?>
<svg xmlns="http://www.w3.org/2000/svg" version="1.1" width="224" height="224">
  <defs/>
  <g>
    <path d="M 45.88726806640625 120.43806457519531 C 50.984169006347656 84.54954528808594 88.48883819580078 98.54208374023438 93.45378112792969 94.32523345947266" stroke-width="2" fill="none" stroke="rgb(0, 0, 0)" stroke-opacity="1.0" stroke-linecap="round" stroke-linejoin="round"/>
    <path d="M 45.361778259277344 144.61056518554688 C 211.6101531982422 173.986083984375 190.1387176513672 123.19015502929688 161.49647521972656 157.1305694580078" stroke-width="2" fill="none" stroke="rgb(0, 0, 0)" stroke-opacity="1.0" stroke-linecap="round" stroke-linejoin="round"/>
    <path d="M 144.2470703125 132.5882568359375 C 117.22341918945312 124.58989715576172 168.27731323242188 157.25697326660156 107.63079071044922 124.68339538574219" stroke-width="2" fill="none" stroke="rgb(0, 0, 0)" stroke-opacity="1.0" stroke-linecap="round" stroke-linejoin="round"/>
    <path d="M 152.71986389160156 115.6818618774414 C 133.38523864746094 129.16575622558594 180.3719940185547 113.4816665649414 150.25648498535156 126.69283294677734" stroke-width="2" fill="none" stroke="rgb(0, 0, 0)" stroke-opacity="1.0" stroke-linecap="round" stroke-linejoin="round"/>
    <path d="M 135.02688598632812 108.66014099121094 C 110.22872924804688 123.67644500732422 140.0342559814453 62.938751220703125 162.42234802246094 100.45600128173828" stroke-width="2" fill="none" stroke="rgb(0, 0, 0)" stroke-opacity="1.0" stroke-linecap="round" stroke-linejoin="round"/>
    <path d="M 170.56263732910156 90.1695327758789 C 22.68454360961914 85.0500259399414 175.34710693359375 120.00586700439453 103.14881134033203 89.89657592773438" stroke-width="2" fill="none" stroke="rgb(0, 0, 0)" stroke-opacity="1.0" stroke-linecap="round" stroke-linejoin="round"/>
    <path d="M 118.82257080078125 116.6265640258789 C 113.661376953125 134.88174438476562 132.1217803955078 109.80834197998047 107.96334838867188 113.7230224609375" stroke-width="2" fill="none" stroke="rgb(0, 0, 0)" stroke-opacity="1.0" stroke-linecap="round" stroke-linejoin="round"/>
    <path d="M 41.34315872192383 136.80447387695312 C 65.51719665527344 153.79124450683594 34.663944244384766 142.7925262451172 41.22336959838867 126.70499420166016" stroke-width="2" fill="none" stroke="rgb(0, 0, 0)" stroke-opacity="1.0" stroke-linecap="round" stroke-linejoin="round"/>
    <path d="M 133.70497131347656 140.20211791992188 C 206.32386779785156 151.2237091064453 105.6750717163086 126.69918823242188 143.2615966796875 129.74403381347656" stroke-width="2" fill="none" stroke="rgb(0, 0, 0)" stroke-opacity="1.0" stroke-linecap="round" stroke-linejoin="round"/>
    <path d="M 157.0530548095703 105.18754577636719 C 192.11131286621094 122.56401062011719 91.9637451171875 106.66224670410156 137.814697265625 116.22686004638672" stroke-width="2" fill="none" stroke="rgb(0, 0, 0)" stroke-opacity="1.0" stroke-linecap="round" stroke-linejoin="round"/>
    <path d="M 167.0882110595703 116.3008804321289 C 206.26010131835938 23.93651580810547 177.2040557861328 81.99462890625 156.4120635986328 88.52173614501953" stroke-width="2" fill="none" stroke="rgb(0, 0, 0)" stroke-opacity="1.0" stroke-linecap="round" stroke-linejoin="round"/>
    <path d="M 146.62841796875 151.3352813720703 C 111.2773666381836 160.38095092773438 211.87107849121094 150.22390747070312 183.86685180664062 142.1640167236328" stroke-width="2" fill="none" stroke="rgb(0, 0, 0)" stroke-opacity="1.0" stroke-linecap="round" stroke-linejoin="round"/>
    <path d="M 85.69206237792969 124.86884307861328 C 95.65558624267578 140.9163055419922 49.63499450683594 120.11660766601562 124.47059631347656 145.25979614257812" stroke-width="2" fill="none" stroke="rgb(0, 0, 0)" stroke-opacity="1.0" stroke-linecap="round" stroke-linejoin="round"/>
    <path d="M 143.5703887939453 139.5238494873047 C 99.66690063476562 117.01854705810547 67.95732116699219 21.58864974975586 133.607666015625 100.3901596069336" stroke-width="2" fill="none" stroke="rgb(0, 0, 0)" stroke-opacity="1.0" stroke-linecap="round" stroke-linejoin="round"/>
    <path d="M 150.66128540039062 111.2067642211914 C 127.26990509033203 106.00930786132812 180.2623748779297 137.3477325439453 184.72860717773438 64.12335205078125" stroke-width="2" fill="none" stroke="rgb(0, 0, 0)" stroke-opacity="1.0" stroke-linecap="round" stroke-linejoin="round"/>
    <path d="M 79.69606018066406 105.81396484375 C 65.3690185546875 86.90680694580078 5.222200393676758 146.59271240234375 72.19471740722656 102.36292266845703" stroke-width="2" fill="none" stroke="rgb(0, 0, 0)" stroke-opacity="1.0" stroke-linecap="round" stroke-linejoin="round"/>
  </g>
</svg>
