<?xml version="1.0" ?>
<svg xmlns="http://www.w3.org/2000/svg" version="1.1" width="224" height="224">
  <defs/>
  <g>
    <path d="M 43.82787322998047 113.40936279296875 C 67.16081237792969 110.82272338867188 31.630380630493164 90.37203979492188 122.67362213134766 96.56253051757812" stroke-width="2" fill="none" stroke="rgb(0, 0, 0)" stroke-opacity="1.0" stroke-linecap="round" stroke-linejoin="round"/>
    <path d="M 111.95581817626953 111.2585678100586 C 212.97991943359375 144.53085327148438 175.0184326171875 169.89129638671875 138.88211059570312 141.6763153076172" stroke-width="2" fill="none" stroke="rgb(0, 0, 0)" stroke-opacity="1.0" stroke-linecap="round" stroke-linejoin="round"/>
    <path d="M 115.02055358886719 105.21663665771484 C 97.71971893310547 79.06146240234375 171.7316131591797 131.8094482421875 115.78923797607422 123.36824035644531" stroke-width="2" fill="none" stroke="rgb(0, 0, 0)" stroke-opacity="1.0" stroke-linecap="round" stroke-linejoin="round"/>
    <path d="M 146.10821533203125 98.40948486328125 C 188.7394256591797 109.10669708251953 103.2063980102539 113.82087707519531 162.28289794921875 100.56746673583984" stroke-width="2" fill="none" stroke="rgb(0, 0, 0)" stroke-opacity="1.0" stroke-linecap="round" stroke-linejoin="round"/>
    <path d="M 133.04286193847656 88.11434936523438 C 111.77073669433594 96.61309051513672 85.83097839355469 29.46799659729004 101.64054107666016 100.41496276855469" stroke-width="2" fill="none" stroke="rgb(0, 0, 0)" stroke-opacity="1.0" stroke-linecap="round" stroke-linejoin="round"/>
    <path d="M 126.46240234375 84.95015716552734 C 160.50460815429688 66.80049133300781 177.29574584960938 125.90731811523438 152.134765625 101.1348876953125" stroke-width="2" fill="none" stroke="rgb(0, 0, 0)" stroke-opacity="1.0" stroke-linecap="round" stroke-linejoin="round"/>
    <path d="M 135.6074676513672 116.96649169921875 C 104.9742202758789 94.8084487915039 157.8448028564453 100.75603485107422 116.24015045166016 110.17440032958984" stroke-width="2" fill="none" stroke="rgb(0, 0, 0)" stroke-opacity="1.0" stroke-linecap="round" stroke-linejoin="round"/>
    <path d="M 84.64009857177734 135.3192596435547 C 220.88558959960938 160.50860595703125 -18.00468635559082 165.85845947265625 56.17058563232422 106.03842163085938" stroke-width="2" fill="none" stroke="rgb(0, 0, 0)" stroke-opacity="1.0" stroke-linecap="round" stroke-linejoin="round"/>
    <path d="M 185.1358184814453 151.03134155273438 C 216.89552307128906 154.242919921875 30.99070930480957 81.79761505126953 139.48329162597656 117.8592529296875" stroke-width="2" fill="none" stroke="rgb(0, 0, 0)" stroke-opacity="1.0" stroke-linecap="round" stroke-linejoin="round"/>
    <path d="M 101.56405639648438 125.96343994140625 C 172.8048858642578 113.4632339477539 121.21550750732422 112.4155502319336 134.38682556152344 122.66606140136719" stroke-width="2" fill="none" stroke="rgb(0, 0, 0)" stroke-opacity="1.0" stroke-linecap="round" stroke-linejoin="round"/>
    <path d="M 155.87396240234375 87.10932922363281 C 235.15994262695312 24.720355987548828 104.87739562988281 113.22972106933594 171.2051239013672 78.7757797241211" stroke-width="2" fill="none" stroke="rgb(0, 0, 0)" stroke-opacity="1.0" stroke-linecap="round" stroke-linejoin="round"/>
    <path d="M 130.2323760986328 137.9701385498047 C 197.94898986816406 156.24847412109375 197.23236083984375 142.09417724609375 45.02429962158203 144.0758056640625" stroke-width="2" fill="none" stroke="rgb(0, 0, 0)" stroke-opacity="1.0" stroke-linecap="round" stroke-linejoin="round"/>
    <path d="M 98.97998046875 124.26775360107422 C 224.9021453857422 125.8886489868164 53.80266189575195 125.39653778076172 135.14859008789062 109.55641174316406" stroke-width="2" fill="none" stroke="rgb(0, 0, 0)" stroke-opacity="1.0" stroke-linecap="round" stroke-linejoin="round"/>
    <path d="M 119.75809478759766 96.89755249023438 C 122.68067932128906 119.05426788330078 64.10440063476562 37.03578186035156 122.02912902832031 83.89128112792969" stroke-width="2" fill="none" stroke="rgb(0, 0, 0)" stroke-opacity="1.0" stroke-linecap="round" stroke-linejoin="round"/>
    <path d="M 171.08047485351562 91.54499816894531 C 136.75396728515625 111.06165313720703 160.54197692871094 139.66172790527344 180.42050170898438 71.19176483154297" stroke-width="2" fill="none" stroke="rgb(0, 0, 0)" stroke-opacity="1.0" stroke-linecap="round" stroke-linejoin="round"/>
    <path d="M 70.64360046386719 126.63467407226562 C 74.11494445800781 144.04383850097656 59.67281723022461 116.69136810302734 77.60474395751953 136.74020385742188" stroke-width="2" fill="none" stroke="rgb(0, 0, 0)" stroke-opacity="1.0" stroke-linecap="round" stroke-linejoin="round"/>
  </g>
</svg>
