<?xml version="1.0" ?>
<svg xmlns="http://www.w3.org/2000/svg" version="1.1" width="224" height="224">
  <defs/>
  <g>
    <path d="M 41.8000373840332 124.61888885498047 C 67.94676971435547 119.58358001708984 26.85550880432129 85.34870910644531 118.3233642578125 101.0140380859375" stroke-width="2" fill="none" stroke="rgb(0, 0, 0)" stroke-opacity="1.0" stroke-linecap="round" stroke-linejoin="round"/>
    <path d="M 115.09476470947266 121.99612426757812 C 201.03994750976562 153.91629028320312 162.9429473876953 154.0847930908203 164.732177734375 157.27581787109375" stroke-width="2" fill="none" stroke="rgb(0, 0, 0)" stroke-opacity="1.0" stroke-linecap="round" stroke-linejoin="round"/>
    <path d="M 137.57435607910156 114.36454772949219 C 40.212154388427734 136.97239685058594 253.05638122558594 158.32373046875 83.11141967773438 134.08370971679688" stroke-width="2" fill="none" stroke="rgb(0, 0, 0)" stroke-opacity="1.0" stroke-linecap="round" stroke-linejoin="round"/>
    <path d="M 151.42697143554688 118.35469055175781 C 185.45108032226562 107.12841796875 127.46029663085938 99.52115631103516 164.02438354492188 112.35566711425781" stroke-width="2" fill="none" stroke="rgb(0, 0, 0)" stroke-opacity="1.0" stroke-linecap="round" stroke-linejoin="round"/>
    <path d="M 126.11113739013672 99.08953857421875 C 107.10411071777344 102.11772155761719 89.31109619140625 34.00092315673828 99.3353500366211 110.69818115234375" stroke-width="2" fill="none" stroke="rgb(0, 0, 0)" stroke-opacity="1.0" stroke-linecap="round" stroke-linejoin="round"/>
    <path d="M 127.19761657714844 84.24542999267578 C 169.83349609375 79.91656494140625 135.84356689453125 100.7545166015625 169.79527282714844 96.38090515136719" stroke-width="2" fill="none" stroke="rgb(0, 0, 0)" stroke-opacity="1.0" stroke-linecap="round" stroke-linejoin="round"/>
    <path d="M 141.88829040527344 113.66886901855469 C 114.3033218383789 108.0408706665039 162.6632080078125 98.43451690673828 131.55743408203125 104.63642883300781" stroke-width="2" fill="none" stroke="rgb(0, 0, 0)" stroke-opacity="1.0" stroke-linecap="round" stroke-linejoin="round"/>
    <path d="M 111.20275115966797 139.531494140625 C 328.8771667480469 133.29205322265625 -35.73295593261719 188.20376586914062 60.865562438964844 109.57316589355469" stroke-width="2" fill="none" stroke="rgb(0, 0, 0)" stroke-opacity="1.0" stroke-linecap="round" stroke-linejoin="round"/>
    <path d="M 109.8843994140625 114.30365753173828 C 213.32217407226562 143.60205078125 44.90904998779297 107.64204406738281 144.26498413085938 118.71630096435547" stroke-width="2" fill="none" stroke="rgb(0, 0, 0)" stroke-opacity="1.0" stroke-linecap="round" stroke-linejoin="round"/>
    <path d="M 115.03948211669922 114.53124237060547 C 163.11817932128906 144.62464904785156 85.33586120605469 122.17520904541016 119.25679779052734 108.31608581542969" stroke-width="2" fill="none" stroke="rgb(0, 0, 0)" stroke-opacity="1.0" stroke-linecap="round" stroke-linejoin="round"/>
    <path d="M 168.39837646484375 91.30195617675781 C 233.5484619140625 14.749612808227539 115.28575134277344 127.29559326171875 167.96530151367188 79.59597778320312" stroke-width="2" fill="none" stroke="rgb(0, 0, 0)" stroke-opacity="1.0" stroke-linecap="round" stroke-linejoin="round"/>
    <path d="M 166.04722595214844 155.5806884765625 C 134.02032470703125 155.00247192382812 200.24642944335938 147.40457153320312 105.47551727294922 154.55274963378906" stroke-width="2" fill="none" stroke="rgb(0, 0, 0)" stroke-opacity="1.0" stroke-linecap="round" stroke-linejoin="round"/>
    <path d="M 126.8453369140625 114.77384948730469 C 187.1853790283203 122.02799224853516 85.9449234008789 129.3211669921875 139.26321411132812 122.90068817138672" stroke-width="2" fill="none" stroke="rgb(0, 0, 0)" stroke-opacity="1.0" stroke-linecap="round" stroke-linejoin="round"/>
    <path d="M 89.74752044677734 97.64424896240234 C 163.9783935546875 162.53952026367188 45.71882629394531 17.583538055419922 128.271240234375 85.01293182373047" stroke-width="2" fill="none" stroke="rgb(0, 0, 0)" stroke-opacity="1.0" stroke-linecap="round" stroke-linejoin="round"/>
    <path d="M 175.30018615722656 101.59871673583984 C 147.26171875 110.30934143066406 175.4795684814453 129.9485626220703 185.8561248779297 68.98975372314453" stroke-width="2" fill="none" stroke="rgb(0, 0, 0)" stroke-opacity="1.0" stroke-linecap="round" stroke-linejoin="round"/>
    <path d="M 87.63899993896484 126.5716552734375 C 114.08917236328125 150.0526580810547 60.309852600097656 108.3841781616211 107.25147247314453 136.46514892578125" stroke-width="2" fill="none" stroke="rgb(0, 0, 0)" stroke-opacity="1.0" stroke-linecap="round" stroke-linejoin="round"/>
  </g>
</svg>
