<?xml version="1.0" ?>
<svg xmlns="http://www.w3.org/2000/svg" version="1.1" width="224" height="224">
  <defs/>
  <g>
    <path d="M 39.1358642578125 116.83894348144531 C 64.69856262207031 107.7118148803711 27.88443374633789 92.90058898925781 102.4201889038086 97.27249908447266" stroke-width="2" fill="none" stroke="rgb(0, 0, 0)" stroke-opacity="1.0" stroke-linecap="round" stroke-linejoin="round"/>
    <path d="M 42.1788444519043 145.27737426757812 C 208.95599365234375 158.37718200683594 173.97467041015625 139.10719299316406 175.186767578125 146.0523681640625" stroke-width="2" fill="none" stroke="rgb(0, 0, 0)" stroke-opacity="1.0" stroke-linecap="round" stroke-linejoin="round"/>
    <path d="M 130.4409942626953 103.06546783447266 C 111.87751007080078 97.74888610839844 160.59213256835938 134.35205078125 120.76956939697266 115.23624420166016" stroke-width="2" fill="none" stroke="rgb(0, 0, 0)" stroke-opacity="1.0" stroke-linecap="round" stroke-linejoin="round"/>
    <path d="M 155.4709014892578 97.84504699707031 C 180.46224975585938 110.71355438232422 141.30758666992188 102.78041076660156 172.7693634033203 98.47857666015625" stroke-width="2" fill="none" stroke="rgb(0, 0, 0)" stroke-opacity="1.0" stroke-linecap="round" stroke-linejoin="round"/>
    <path d="M 140.3163299560547 93.97319793701172 C 137.8445281982422 111.24439239501953 76.72228240966797 45.13974380493164 121.76158142089844 94.1520004272461" stroke-width="2" fill="none" stroke="rgb(0, 0, 0)" stroke-opacity="1.0" stroke-linecap="round" stroke-linejoin="round"/>
    <path d="M 136.14111328125 95.202880859375 C 85.35162353515625 103.15818786621094 173.555908203125 89.4547348022461 153.01699829101562 91.30265045166016" stroke-width="2" fill="none" stroke="rgb(0, 0, 0)" stroke-opacity="1.0" stroke-linecap="round" stroke-linejoin="round"/>
    <path d="M 139.05911254882812 112.2936019897461 C 95.57439422607422 89.5656509399414 174.3822479248047 151.0083465576172 122.34276580810547 113.90817260742188" stroke-width="2" fill="none" stroke="rgb(0, 0, 0)" stroke-opacity="1.0" stroke-linecap="round" stroke-linejoin="round"/>
    <path d="M 95.41268920898438 136.5794677734375 C 202.84555053710938 158.12782287597656 0.9886878132820129 169.38803100585938 43.663795471191406 115.37889862060547" stroke-width="2" fill="none" stroke="rgb(0, 0, 0)" stroke-opacity="1.0" stroke-linecap="round" stroke-linejoin="round"/>
    <path d="M 119.69669342041016 119.56678009033203 C 227.00106811523438 163.879150390625 66.13697052001953 105.34188079833984 140.0820770263672 113.77748107910156" stroke-width="2" fill="none" stroke="rgb(0, 0, 0)" stroke-opacity="1.0" stroke-linecap="round" stroke-linejoin="round"/>
    <path d="M 147.26419067382812 117.66553497314453 C 182.04464721679688 102.84343719482422 122.1913833618164 153.23397827148438 139.44033813476562 107.92914581298828" stroke-width="2" fill="none" stroke="rgb(0, 0, 0)" stroke-opacity="1.0" stroke-linecap="round" stroke-linejoin="round"/>
    <path d="M 151.34129333496094 91.746337890625 C 208.81256103515625 19.60852813720703 167.3919677734375 93.62713623046875 146.68081665039062 91.65574645996094" stroke-width="2" fill="none" stroke="rgb(0, 0, 0)" stroke-opacity="1.0" stroke-linecap="round" stroke-linejoin="round"/>
    <path d="M 170.51815795898438 149.8081817626953 C 66.91468048095703 136.5357666015625 205.7255859375 162.57374572753906 154.3270721435547 160.7756805419922" stroke-width="2" fill="none" stroke="rgb(0, 0, 0)" stroke-opacity="1.0" stroke-linecap="round" stroke-linejoin="round"/>
    <path d="M 85.02635192871094 104.85133361816406 C 141.96202087402344 138.02511596679688 74.10102081298828 80.66462707519531 109.15165710449219 124.13957214355469" stroke-width="2" fill="none" stroke="rgb(0, 0, 0)" stroke-opacity="1.0" stroke-linecap="round" stroke-linejoin="round"/>
    <path d="M 141.70864868164062 114.26795959472656 C 99.4206314086914 146.23724365234375 83.13287353515625 11.962846755981445 116.87232971191406 101.28040313720703" stroke-width="2" fill="none" stroke="rgb(0, 0, 0)" stroke-opacity="1.0" stroke-linecap="round" stroke-linejoin="round"/>
    <path d="M 156.5381317138672 117.42835235595703 C 134.5784149169922 91.10425567626953 165.35423278808594 142.97705078125 181.90628051757812 62.81808090209961" stroke-width="2" fill="none" stroke="rgb(0, 0, 0)" stroke-opacity="1.0" stroke-linecap="round" stroke-linejoin="round"/>
    <path d="M 43.569637298583984 121.93042755126953 C 42.058982849121094 108.2431640625 25.75307273864746 118.82594299316406 40.01541519165039 115.5011978149414" stroke-width="2" fill="none" stroke="rgb(0, 0, 0)" stroke-opacity="1.0" stroke-linecap="round" stroke-linejoin="round"/>
  </g>
</svg>
