<?xml version="1.0" ?>
<svg xmlns="http://www.w3.org/2000/svg" version="1.1" width="224" height="224">
  <defs/>
  <g>
    <path d="M 37.80098342895508 131.16131591796875 C 76.9834976196289 82.820556640625 59.830726623535156 97.62525177001953 106.99873352050781 93.38695526123047" stroke-width="2" fill="none" stroke="rgb(0, 0, 0)" stroke-opacity="1.0" stroke-linecap="round" stroke-linejoin="round"/>
    <path d="M 50.09963607788086 147.84500122070312 C 194.81253051757812 165.55242919921875 184.6974334716797 137.09823608398438 154.74070739746094 145.09573364257812" stroke-width="2" fill="none" stroke="rgb(0, 0, 0)" stroke-opacity="1.0" stroke-linecap="round" stroke-linejoin="round"/>
    <path d="M 138.76907348632812 102.87733459472656 C 102.43551635742188 105.57720947265625 177.51585388183594 111.0072021484375 125.35052490234375 114.23950958251953" stroke-width="2" fill="none" stroke="rgb(0, 0, 0)" stroke-opacity="1.0" stroke-linecap="round" stroke-linejoin="round"/>
    <path d="M 159.34530639648438 86.50381469726562 C 150.9312286376953 117.8846206665039 173.6835479736328 68.37532806396484 158.0920867919922 124.7423095703125" stroke-width="2" fill="none" stroke="rgb(0, 0, 0)" stroke-opacity="1.0" stroke-linecap="round" stroke-linejoin="round"/>
    <path d="M 128.66342163085938 88.6454849243164 C 124.48184967041016 121.4090347290039 67.5460205078125 36.81940460205078 119.39370727539062 87.76425170898438" stroke-width="2" fill="none" stroke="rgb(0, 0, 0)" stroke-opacity="1.0" stroke-linecap="round" stroke-linejoin="round"/>
    <path d="M 142.07608032226562 87.2783203125 C 108.35227966308594 88.02685546875 192.06895446777344 94.4104232788086 111.74909973144531 90.44745635986328" stroke-width="2" fill="none" stroke="rgb(0, 0, 0)" stroke-opacity="1.0" stroke-linecap="round" stroke-linejoin="round"/>
    <path d="M 127.656982421875 126.2096939086914 C 104.96697998046875 95.09469604492188 143.31536865234375 148.6292724609375 116.53716278076172 116.86827850341797" stroke-width="2" fill="none" stroke="rgb(0, 0, 0)" stroke-opacity="1.0" stroke-linecap="round" stroke-linejoin="round"/>
    <path d="M 43.42619323730469 140.9611053466797 C 70.77106475830078 156.20809936523438 30.149381637573242 145.71449279785156 39.6546516418457 128.65951538085938" stroke-width="2" fill="none" stroke="rgb(0, 0, 0)" stroke-opacity="1.0" stroke-linecap="round" stroke-linejoin="round"/>
    <path d="M 116.8446273803711 127.62732696533203 C 223.1175537109375 154.48480224609375 37.24698257446289 108.28777313232422 159.0260772705078 117.5420150756836" stroke-width="2" fill="none" stroke="rgb(0, 0, 0)" stroke-opacity="1.0" stroke-linecap="round" stroke-linejoin="round"/>
    <path d="M 159.2576141357422 91.65961456298828 C 202.4606170654297 81.44770812988281 106.62928771972656 128.93319702148438 136.35142517089844 105.48894500732422" stroke-width="2" fill="none" stroke="rgb(0, 0, 0)" stroke-opacity="1.0" stroke-linecap="round" stroke-linejoin="round"/>
    <path d="M 173.0078125 85.55158233642578 C 204.8291473388672 24.88810157775879 163.09420776367188 93.01895904541016 146.78399658203125 78.97650909423828" stroke-width="2" fill="none" stroke="rgb(0, 0, 0)" stroke-opacity="1.0" stroke-linecap="round" stroke-linejoin="round"/>
    <path d="M 161.8169708251953 155.41969299316406 C 92.5912094116211 137.10865783691406 189.17453002929688 165.1492156982422 162.24264526367188 146.29983520507812" stroke-width="2" fill="none" stroke="rgb(0, 0, 0)" stroke-opacity="1.0" stroke-linecap="round" stroke-linejoin="round"/>
    <path d="M 92.20417785644531 113.9121322631836 C 150.17916870117188 137.61886596679688 45.64540481567383 81.55269622802734 128.34048461914062 134.3590087890625" stroke-width="2" fill="none" stroke="rgb(0, 0, 0)" stroke-opacity="1.0" stroke-linecap="round" stroke-linejoin="round"/>
    <path d="M 135.1086883544922 100.75679779052734 C 115.37059783935547 147.58396911621094 69.02462005615234 26.841053009033203 129.09591674804688 90.55712890625" stroke-width="2" fill="none" stroke="rgb(0, 0, 0)" stroke-opacity="1.0" stroke-linecap="round" stroke-linejoin="round"/>
    <path d="M 159.6306610107422 112.42532348632812 C 127.19660949707031 75.6882553100586 168.6244354248047 148.9871368408203 183.8871612548828 63.872833251953125" stroke-width="2" fill="none" stroke="rgb(0, 0, 0)" stroke-opacity="1.0" stroke-linecap="round" stroke-linejoin="round"/>
    <path d="M 39.61681365966797 125.29464721679688 C 59.94371795654297 106.69685363769531 10.58447265625 131.60089111328125 64.04131317138672 110.53079223632812" stroke-width="2" fill="none" stroke="rgb(0, 0, 0)" stroke-opacity="1.0" stroke-linecap="round" stroke-linejoin="round"/>
  </g>
</svg>
