<?xml version="1.0" ?>
<svg xmlns="http://www.w3.org/2000/svg" version="1.1" width="224" height="224">
  <defs/>
  <g>
    <path d="M 39.53192138671875 123.12611389160156 C 81.55013275146484 87.1043472290039 71.9048843383789 95.92588806152344 90.51172637939453 93.97634887695312" stroke-width="2" fill="none" stroke="rgb(0, 0, 0)" stroke-opacity="1.0" stroke-linecap="round" stroke-linejoin="round"/>
    <path d="M 44.225528717041016 144.49842834472656 C 128.96420288085938 177.05223083496094 166.3402862548828 138.42335510253906 125.72413635253906 137.31912231445312" stroke-width="2" fill="none" stroke="rgb(0, 0, 0)" stroke-opacity="1.0" stroke-linecap="round" stroke-linejoin="round"/>
    <path d="M 155.88348388671875 126.7784423828125 C 84.05311584472656 101.28553009033203 151.23072814941406 158.80490112304688 105.7351303100586 84.52688598632812" stroke-width="2" fill="none" stroke="rgb(0, 0, 0)" stroke-opacity="1.0" stroke-linecap="round" stroke-linejoin="round"/>
    <path d="M 164.5757598876953 142.51251220703125 C 143.6846466064453 105.19398498535156 191.95370483398438 136.14450073242188 147.02389526367188 129.18807983398438" stroke-width="2" fill="none" stroke="rgb(0, 0, 0)" stroke-opacity="1.0" stroke-linecap="round" stroke-linejoin="round"/>
    <path d="M 139.926513671875 92.72164916992188 C 115.62541961669922 121.7302017211914 159.34144592285156 59.6756477355957 171.6991424560547 101.70504760742188" stroke-width="2" fill="none" stroke="rgb(0, 0, 0)" stroke-opacity="1.0" stroke-linecap="round" stroke-linejoin="round"/>
    <path d="M 170.8714599609375 87.70670318603516 C 86.34552001953125 84.43336486816406 139.4056396484375 98.45259094238281 145.2546844482422 92.88265991210938" stroke-width="2" fill="none" stroke="rgb(0, 0, 0)" stroke-opacity="1.0" stroke-linecap="round" stroke-linejoin="round"/>
    <path d="M 101.98448181152344 78.83232116699219 C 120.56600189208984 129.30967712402344 154.752197265625 109.85420227050781 103.36215209960938 85.65753936767578" stroke-width="2" fill="none" stroke="rgb(0, 0, 0)" stroke-opacity="1.0" stroke-linecap="round" stroke-linejoin="round"/>
    <path d="M 110.96644592285156 152.24244689941406 C 94.8689193725586 133.02127075195312 32.82135009765625 155.49822998046875 39.32631301879883 130.81629943847656" stroke-width="2" fill="none" stroke="rgb(0, 0, 0)" stroke-opacity="1.0" stroke-linecap="round" stroke-linejoin="round"/>
    <path d="M 159.8497772216797 123.57363891601562 C 187.0347137451172 129.23776245117188 136.2102508544922 108.16687774658203 163.17303466796875 133.4189910888672" stroke-width="2" fill="none" stroke="rgb(0, 0, 0)" stroke-opacity="1.0" stroke-linecap="round" stroke-linejoin="round"/>
    <path d="M 147.0684814453125 116.63636779785156 C 172.78115844726562 115.2656478881836 131.63780212402344 109.9737777709961 156.17686462402344 112.43223571777344" stroke-width="2" fill="none" stroke="rgb(0, 0, 0)" stroke-opacity="1.0" stroke-linecap="round" stroke-linejoin="round"/>
    <path d="M 169.11001586914062 96.06166076660156 C 191.84359741210938 50.632171630859375 185.96824645996094 60.84181213378906 157.9589080810547 87.61431884765625" stroke-width="2" fill="none" stroke="rgb(0, 0, 0)" stroke-opacity="1.0" stroke-linecap="round" stroke-linejoin="round"/>
    <path d="M 171.7135772705078 148.0349578857422 C 141.43612670898438 158.37562561035156 188.3841552734375 81.5834732055664 152.10964965820312 133.58377075195312" stroke-width="2" fill="none" stroke="rgb(0, 0, 0)" stroke-opacity="1.0" stroke-linecap="round" stroke-linejoin="round"/>
    <path d="M 66.28849792480469 133.6407012939453 C 77.79685974121094 159.48834228515625 81.44599914550781 139.82513427734375 150.07952880859375 152.5443878173828" stroke-width="2" fill="none" stroke="rgb(0, 0, 0)" stroke-opacity="1.0" stroke-linecap="round" stroke-linejoin="round"/>
    <path d="M 153.95748901367188 133.63876342773438 C 89.42971801757812 79.71334075927734 90.56743621826172 51.81206512451172 125.01435852050781 90.66718292236328" stroke-width="2" fill="none" stroke="rgb(0, 0, 0)" stroke-opacity="1.0" stroke-linecap="round" stroke-linejoin="round"/>
    <path d="M 168.62063598632812 110.6613540649414 C 158.87008666992188 90.25363159179688 171.70230102539062 134.54244995117188 182.97714233398438 66.70032501220703" stroke-width="2" fill="none" stroke="rgb(0, 0, 0)" stroke-opacity="1.0" stroke-linecap="round" stroke-linejoin="round"/>
    <path d="M 77.53670501708984 109.76780700683594 C 52.574703216552734 96.7432861328125 6.731766700744629 136.3584442138672 71.99652099609375 99.35440826416016" stroke-width="2" fill="none" stroke="rgb(0, 0, 0)" stroke-opacity="1.0" stroke-linecap="round" stroke-linejoin="round"/>
  </g>
</svg>
