<?xml version="1.0" ?>
<svg xmlns="http://www.w3.org/2000/svg" version="1.1" width="224" height="224">
  <defs/>
  <g>
    <path d="M 45.82172775268555 123.84534454345703 C 59.867191314697266 87.11045837402344 86.02259063720703 96.53887939453125 89.78167724609375 94.68617248535156" stroke-width="2" fill="none" stroke="rgb(0, 0, 0)" stroke-opacity="1.0" stroke-linecap="round" stroke-linejoin="round"/>
    <path d="M 41.429420471191406 147.1878204345703 C 201.3895721435547 179.1248016357422 203.3028106689453 114.91139221191406 172.0201416015625 151.86036682128906" stroke-width="2" fill="none" stroke="rgb(0, 0, 0)" stroke-opacity="1.0" stroke-linecap="round" stroke-linejoin="round"/>
    <path d="M 149.98638916015625 132.73548889160156 C 86.21710968017578 101.58145904541016 143.5871124267578 153.25509643554688 117.71147918701172 121.61407470703125" stroke-width="2" fill="none" stroke="rgb(0, 0, 0)" stroke-opacity="1.0" stroke-linecap="round" stroke-linejoin="round"/>
    <path d="M 172.44705200195312 124.99342346191406 C 154.014892578125 121.9512939453125 194.1563262939453 103.59779357910156 157.94146728515625 130.5193634033203" stroke-width="2" fill="none" stroke="rgb(0, 0, 0)" stroke-opacity="1.0" stroke-linecap="round" stroke-linejoin="round"/>
    <path d="M 145.68905639648438 112.8080825805664 C 110.55643463134766 153.6359100341797 145.04800415039062 60.54686737060547 163.1090545654297 107.00758361816406" stroke-width="2" fill="none" stroke="rgb(0, 0, 0)" stroke-opacity="1.0" stroke-linecap="round" stroke-linejoin="round"/>
    <path d="M 167.7985076904297 92.08340454101562 C 24.007413864135742 81.10379028320312 195.2947540283203 125.49833679199219 99.59050750732422 74.7906494140625" stroke-width="2" fill="none" stroke="rgb(0, 0, 0)" stroke-opacity="1.0" stroke-linecap="round" stroke-linejoin="round"/>
    <path d="M 125.51490783691406 121.61315155029297 C 115.36319732666016 136.30686950683594 145.84083557128906 113.96247100830078 98.5715560913086 101.56562042236328" stroke-width="2" fill="none" stroke="rgb(0, 0, 0)" stroke-opacity="1.0" stroke-linecap="round" stroke-linejoin="round"/>
    <path d="M 40.487220764160156 140.19776916503906 C 67.6816177368164 152.386474609375 32.086669921875 145.5890655517578 40.79648208618164 132.6133575439453" stroke-width="2" fill="none" stroke="rgb(0, 0, 0)" stroke-opacity="1.0" stroke-linecap="round" stroke-linejoin="round"/>
    <path d="M 132.80149841308594 137.4676971435547 C 194.8208770751953 149.35159301757812 105.29398345947266 116.22566223144531 149.2298583984375 128.94032287597656" stroke-width="2" fill="none" stroke="rgb(0, 0, 0)" stroke-opacity="1.0" stroke-linecap="round" stroke-linejoin="round"/>
    <path d="M 155.8731689453125 111.64334869384766 C 182.92613220214844 123.84333038330078 101.1880874633789 108.84636688232422 150.8750457763672 118.70440673828125" stroke-width="2" fill="none" stroke="rgb(0, 0, 0)" stroke-opacity="1.0" stroke-linecap="round" stroke-linejoin="round"/>
    <path d="M 169.518310546875 109.78453063964844 C 207.0769500732422 33.58199691772461 177.96864318847656 78.67399597167969 156.04522705078125 88.94587707519531" stroke-width="2" fill="none" stroke="rgb(0, 0, 0)" stroke-opacity="1.0" stroke-linecap="round" stroke-linejoin="round"/>
    <path d="M 161.45640563964844 150.74420166015625 C 104.7407455444336 162.3656463623047 209.59713745117188 135.9075927734375 159.22122192382812 142.31198120117188" stroke-width="2" fill="none" stroke="rgb(0, 0, 0)" stroke-opacity="1.0" stroke-linecap="round" stroke-linejoin="round"/>
    <path d="M 67.30001068115234 125.51856231689453 C 92.11582946777344 138.83160400390625 54.60199737548828 135.34031677246094 141.9593505859375 146.059326171875" stroke-width="2" fill="none" stroke="rgb(0, 0, 0)" stroke-opacity="1.0" stroke-linecap="round" stroke-linejoin="round"/>
    <path d="M 148.55657958984375 136.34860229492188 C 95.94339752197266 103.86940002441406 80.20848083496094 22.690128326416016 136.33876037597656 104.48287963867188" stroke-width="2" fill="none" stroke="rgb(0, 0, 0)" stroke-opacity="1.0" stroke-linecap="round" stroke-linejoin="round"/>
    <path d="M 167.5355682373047 92.3523941040039 C 143.65274047851562 98.6972427368164 178.51454162597656 116.21154022216797 188.3350067138672 65.69756317138672" stroke-width="2" fill="none" stroke="rgb(0, 0, 0)" stroke-opacity="1.0" stroke-linecap="round" stroke-linejoin="round"/>
    <path d="M 78.96592712402344 106.72803497314453 C 51.82368087768555 93.10494995117188 -6.796184539794922 151.9182586669922 62.21757507324219 100.11858367919922" stroke-width="2" fill="none" stroke="rgb(0, 0, 0)" stroke-opacity="1.0" stroke-linecap="round" stroke-linejoin="round"/>
  </g>
</svg>
