<?xml version="1.0" ?>
<svg xmlns="http://www.w3.org/2000/svg" version="1.1" width="224" height="224">
  <defs/>
  <g>
    <path d="M 41.27097702026367 119.89783477783203 C 57.25114822387695 89.10758972167969 77.57215881347656 99.66377258300781 91.58648681640625 94.87067413330078" stroke-width="2" fill="none" stroke="rgb(0, 0, 0)" stroke-opacity="1.0" stroke-linecap="round" stroke-linejoin="round"/>
    <path d="M 47.81200408935547 145.4014892578125 C 199.92640686035156 173.3617706298828 200.25428771972656 120.73094177246094 165.64344787597656 155.23629760742188" stroke-width="2" fill="none" stroke="rgb(0, 0, 0)" stroke-opacity="1.0" stroke-linecap="round" stroke-linejoin="round"/>
    <path d="M 149.79063415527344 121.60183715820312 C 114.47850799560547 106.74491882324219 158.3759307861328 138.75999450683594 138.72291564941406 117.17284393310547" stroke-width="2" fill="none" stroke="rgb(0, 0, 0)" stroke-opacity="1.0" stroke-linecap="round" stroke-linejoin="round"/>
    <path d="M 159.38221740722656 114.99076843261719 C 149.2307891845703 142.747802734375 184.7601776123047 98.14580535888672 154.93060302734375 130.59864807128906" stroke-width="2" fill="none" stroke="rgb(0, 0, 0)" stroke-opacity="1.0" stroke-linecap="round" stroke-linejoin="round"/>
    <path d="M 131.8416748046875 109.06575012207031 C 109.3385009765625 123.86474609375 146.8978729248047 71.1063232421875 157.12298583984375 99.54635620117188" stroke-width="2" fill="none" stroke="rgb(0, 0, 0)" stroke-opacity="1.0" stroke-linecap="round" stroke-linejoin="round"/>
    <path d="M 167.8447723388672 91.61589050292969 C 27.690603256225586 95.70606231689453 182.89166259765625 120.78910827636719 113.63421630859375 93.03541564941406" stroke-width="2" fill="none" stroke="rgb(0, 0, 0)" stroke-opacity="1.0" stroke-linecap="round" stroke-linejoin="round"/>
    <path d="M 107.87422180175781 125.2696533203125 C 100.73234558105469 125.06487274169922 114.0303955078125 108.01000213623047 93.33319091796875 110.72220611572266" stroke-width="2" fill="none" stroke="rgb(0, 0, 0)" stroke-opacity="1.0" stroke-linecap="round" stroke-linejoin="round"/>
    <path d="M 37.92985534667969 136.20184326171875 C 63.03316879272461 155.21316528320312 32.030113220214844 142.25328063964844 38.786582946777344 128.58242797851562" stroke-width="2" fill="none" stroke="rgb(0, 0, 0)" stroke-opacity="1.0" stroke-linecap="round" stroke-linejoin="round"/>
    <path d="M 120.2899398803711 139.38287353515625 C 214.67662048339844 151.33450317382812 100.64871215820312 133.4675750732422 147.986328125 135.39102172851562" stroke-width="2" fill="none" stroke="rgb(0, 0, 0)" stroke-opacity="1.0" stroke-linecap="round" stroke-linejoin="round"/>
    <path d="M 158.0966033935547 107.95408630371094 C 195.90965270996094 120.36795043945312 101.08232879638672 116.02494049072266 146.2751007080078 127.75359344482422" stroke-width="2" fill="none" stroke="rgb(0, 0, 0)" stroke-opacity="1.0" stroke-linecap="round" stroke-linejoin="round"/>
    <path d="M 164.91014099121094 99.41983032226562 C 206.82754516601562 28.546661376953125 171.66371154785156 84.58084869384766 159.18531799316406 90.76292419433594" stroke-width="2" fill="none" stroke="rgb(0, 0, 0)" stroke-opacity="1.0" stroke-linecap="round" stroke-linejoin="round"/>
    <path d="M 155.6418914794922 156.1131134033203 C 115.92852020263672 142.2648162841797 198.5406036376953 156.40525817871094 178.4902801513672 143.6046142578125" stroke-width="2" fill="none" stroke="rgb(0, 0, 0)" stroke-opacity="1.0" stroke-linecap="round" stroke-linejoin="round"/>
    <path d="M 89.98046875 122.68661499023438 C 124.72126007080078 140.3858184814453 72.06810760498047 101.7387924194336 110.94975280761719 139.5243682861328" stroke-width="2" fill="none" stroke="rgb(0, 0, 0)" stroke-opacity="1.0" stroke-linecap="round" stroke-linejoin="round"/>
    <path d="M 147.68690490722656 132.0656280517578 C 111.73922729492188 119.15530395507812 74.2245864868164 34.22370147705078 132.7242431640625 94.98872375488281" stroke-width="2" fill="none" stroke="rgb(0, 0, 0)" stroke-opacity="1.0" stroke-linecap="round" stroke-linejoin="round"/>
    <path d="M 153.2307586669922 115.40141296386719 C 128.69741821289062 99.41859436035156 168.33154296875 150.7497100830078 184.29222106933594 68.32475280761719" stroke-width="2" fill="none" stroke="rgb(0, 0, 0)" stroke-opacity="1.0" stroke-linecap="round" stroke-linejoin="round"/>
    <path d="M 82.74340057373047 110.58721160888672 C 53.65822219848633 89.57288360595703 -3.448274612426758 133.01222229003906 69.1327896118164 97.84703063964844" stroke-width="2" fill="none" stroke="rgb(0, 0, 0)" stroke-opacity="1.0" stroke-linecap="round" stroke-linejoin="round"/>
  </g>
</svg>
