<?xml version="1.0" ?>
<svg xmlns="http://www.w3.org/2000/svg" version="1.1" width="224" height="224">
  <defs/>
  <g>
    <path d="M 49.887081146240234 111.06016540527344 C 63.69984817504883 102.50231170654297 121.59961700439453 63.870967864990234 112.5109634399414 124.46699523925781" stroke-width="2" fill="none" stroke="rgb(0, 0, 0)" stroke-opacity="1.0" stroke-linecap="round" stroke-linejoin="round"/>
    <path d="M 138.45574951171875 146.0123291015625 C 192.7668914794922 131.2259979248047 171.97059631347656 157.4260711669922 185.58294677734375 148.4353485107422" stroke-width="2" fill="none" stroke="rgb(0, 0, 0)" stroke-opacity="1.0" stroke-linecap="round" stroke-linejoin="round"/>
    <path d="M 122.82032012939453 127.93054962158203 C 62.7375602722168 112.44711303710938 309.3999938964844 172.1320037841797 116.12496948242188 144.76869201660156" stroke-width="2" fill="none" stroke="rgb(0, 0, 0)" stroke-opacity="1.0" stroke-linecap="round" stroke-linejoin="round"/>
    <path d="M 152.08477783203125 94.03038024902344 C 191.49949645996094 100.99241638183594 107.51366424560547 106.78996276855469 173.83538818359375 94.21723937988281" stroke-width="2" fill="none" stroke="rgb(0, 0, 0)" stroke-opacity="1.0" stroke-linecap="round" stroke-linejoin="round"/>
    <path d="M 139.66932678222656 83.18358612060547 C 110.28732299804688 85.64582061767578 85.61327362060547 34.37942123413086 105.0684814453125 89.30850982666016" stroke-width="2" fill="none" stroke="rgb(0, 0, 0)" stroke-opacity="1.0" stroke-linecap="round" stroke-linejoin="round"/>
    <path d="M 144.52418518066406 84.32730102539062 C 163.3177490234375 69.57857513427734 178.0442657470703 102.4605484008789 152.6148681640625 97.61393737792969" stroke-width="2" fill="none" stroke="rgb(0, 0, 0)" stroke-opacity="1.0" stroke-linecap="round" stroke-linejoin="round"/>
    <path d="M 129.20486450195312 94.93473052978516 C 91.58818054199219 105.94813537597656 154.75970458984375 97.49823760986328 113.90274810791016 106.4074935913086" stroke-width="2" fill="none" stroke="rgb(0, 0, 0)" stroke-opacity="1.0" stroke-linecap="round" stroke-linejoin="round"/>
    <path d="M 141.37098693847656 151.5008544921875 C 252.87014770507812 137.7628173828125 -17.791996002197266 190.27627563476562 63.23341751098633 96.14298248291016" stroke-width="2" fill="none" stroke="rgb(0, 0, 0)" stroke-opacity="1.0" stroke-linecap="round" stroke-linejoin="round"/>
    <path d="M 113.84996032714844 103.70631408691406 C 198.8302764892578 148.6643829345703 99.19284057617188 115.91524505615234 135.2054443359375 99.81260681152344" stroke-width="2" fill="none" stroke="rgb(0, 0, 0)" stroke-opacity="1.0" stroke-linecap="round" stroke-linejoin="round"/>
    <path d="M 112.86279296875 94.49527740478516 C 195.25880432128906 131.00257873535156 -49.60196304321289 109.8351058959961 149.06124877929688 118.62281799316406" stroke-width="2" fill="none" stroke="rgb(0, 0, 0)" stroke-opacity="1.0" stroke-linecap="round" stroke-linejoin="round"/>
    <path d="M 165.81333923339844 83.89724731445312 C 217.2911376953125 13.210881233215332 144.2095489501953 149.70811462402344 159.40771484375 114.24083709716797" stroke-width="2" fill="none" stroke="rgb(0, 0, 0)" stroke-opacity="1.0" stroke-linecap="round" stroke-linejoin="round"/>
    <path d="M 151.84742736816406 140.45645141601562 C 144.27215576171875 133.77635192871094 199.4260711669922 135.1061553955078 195.12686157226562 142.95664978027344" stroke-width="2" fill="none" stroke="rgb(0, 0, 0)" stroke-opacity="1.0" stroke-linecap="round" stroke-linejoin="round"/>
    <path d="M 130.560302734375 115.96944427490234 C 182.1316680908203 118.98226165771484 118.2629165649414 110.1960678100586 147.7470703125 111.36090087890625" stroke-width="2" fill="none" stroke="rgb(0, 0, 0)" stroke-opacity="1.0" stroke-linecap="round" stroke-linejoin="round"/>
    <path d="M 133.61544799804688 113.85740661621094 C 166.6480712890625 169.33802795410156 51.667877197265625 9.287782669067383 122.11721801757812 80.09458923339844" stroke-width="2" fill="none" stroke="rgb(0, 0, 0)" stroke-opacity="1.0" stroke-linecap="round" stroke-linejoin="round"/>
    <path d="M 175.70079040527344 86.33895874023438 C 141.42767333984375 96.55223846435547 168.4855499267578 133.2517852783203 181.7899627685547 73.80809020996094" stroke-width="2" fill="none" stroke="rgb(0, 0, 0)" stroke-opacity="1.0" stroke-linecap="round" stroke-linejoin="round"/>
    <path d="M 136.79685974121094 131.9870147705078 C 150.07781982421875 153.24700927734375 55.68513107299805 90.87142944335938 90.65959167480469 106.29700469970703" stroke-width="2" fill="none" stroke="rgb(0, 0, 0)" stroke-opacity="1.0" stroke-linecap="round" stroke-linejoin="round"/>
  </g>
</svg>
