<?xml version="1.0" ?>
<svg xmlns="http://www.w3.org/2000/svg" version="1.1" width="224" height="224">
  <defs/>
  <g>
    <path d="M 42.169639587402344 118.60565185546875 C 68.39973449707031 114.41616821289062 32.259952545166016 85.39596557617188 115.61698913574219 96.90814971923828" stroke-width="2" fill="none" stroke="rgb(0, 0, 0)" stroke-opacity="1.0" stroke-linecap="round" stroke-linejoin="round"/>
    <path d="M 124.94438934326172 141.92819213867188 C 204.88491821289062 140.79322814941406 182.1647186279297 166.56781005859375 140.85205078125 149.23019409179688" stroke-width="2" fill="none" stroke="rgb(0, 0, 0)" stroke-opacity="1.0" stroke-linecap="round" stroke-linejoin="round"/>
    <path d="M 128.8953094482422 101.3643798828125 C 98.90093231201172 109.08867645263672 168.03311157226562 101.66641998291016 122.71399688720703 107.71167755126953" stroke-width="2" fill="none" stroke="rgb(0, 0, 0)" stroke-opacity="1.0" stroke-linecap="round" stroke-linejoin="round"/>
    <path d="M 146.13040161132812 97.80548858642578 C 175.18936157226562 97.12862396240234 120.15557861328125 72.28892517089844 157.1462860107422 85.9161148071289" stroke-width="2" fill="none" stroke="rgb(0, 0, 0)" stroke-opacity="1.0" stroke-linecap="round" stroke-linejoin="round"/>
    <path d="M 125.39921569824219 83.5082015991211 C 118.9862060546875 98.513671875 71.09902954101562 14.681035041809082 117.68672180175781 117.4057388305664" stroke-width="2" fill="none" stroke="rgb(0, 0, 0)" stroke-opacity="1.0" stroke-linecap="round" stroke-linejoin="round"/>
    <path d="M 129.87765502929688 83.83732604980469 C 106.7079849243164 81.58146667480469 204.27879333496094 89.59825134277344 154.99586486816406 86.59026336669922" stroke-width="2" fill="none" stroke="rgb(0, 0, 0)" stroke-opacity="1.0" stroke-linecap="round" stroke-linejoin="round"/>
    <path d="M 137.2641143798828 112.49269104003906 C 81.14822387695312 127.1329116821289 159.867919921875 120.38677215576172 123.48872375488281 96.7327880859375" stroke-width="2" fill="none" stroke="rgb(0, 0, 0)" stroke-opacity="1.0" stroke-linecap="round" stroke-linejoin="round"/>
    <path d="M 92.14498901367188 151.56396484375 C 217.9951629638672 156.38943481445312 -29.434051513671875 173.0218963623047 59.55321502685547 108.16799926757812" stroke-width="2" fill="none" stroke="rgb(0, 0, 0)" stroke-opacity="1.0" stroke-linecap="round" stroke-linejoin="round"/>
    <path d="M 163.72735595703125 134.5068817138672 C 212.44088745117188 159.74346923828125 52.8237419128418 71.16017150878906 129.54579162597656 117.86358642578125" stroke-width="2" fill="none" stroke="rgb(0, 0, 0)" stroke-opacity="1.0" stroke-linecap="round" stroke-linejoin="round"/>
    <path d="M 165.01235961914062 137.86322021484375 C 201.2313690185547 131.57379150390625 125.7500228881836 148.91290283203125 143.41998291015625 113.73638916015625" stroke-width="2" fill="none" stroke="rgb(0, 0, 0)" stroke-opacity="1.0" stroke-linecap="round" stroke-linejoin="round"/>
    <path d="M 151.42724609375 86.93991088867188 C 226.3228302001953 33.3643913269043 138.38421630859375 113.06917572021484 154.66748046875 90.00374603271484" stroke-width="2" fill="none" stroke="rgb(0, 0, 0)" stroke-opacity="1.0" stroke-linecap="round" stroke-linejoin="round"/>
    <path d="M 158.51524353027344 155.5408172607422 C 150.5345458984375 161.39956665039062 190.4954833984375 156.4566650390625 108.3726577758789 146.19801330566406" stroke-width="2" fill="none" stroke="rgb(0, 0, 0)" stroke-opacity="1.0" stroke-linecap="round" stroke-linejoin="round"/>
    <path d="M 89.1932144165039 117.44313049316406 C 156.6380157470703 181.12351989746094 68.74230194091797 92.03923034667969 132.13949584960938 117.15604400634766" stroke-width="2" fill="none" stroke="rgb(0, 0, 0)" stroke-opacity="1.0" stroke-linecap="round" stroke-linejoin="round"/>
    <path d="M 130.98512268066406 98.865234375 C 103.46147918701172 150.0106201171875 107.21516418457031 46.15338897705078 99.232666015625 91.69478607177734" stroke-width="2" fill="none" stroke="rgb(0, 0, 0)" stroke-opacity="1.0" stroke-linecap="round" stroke-linejoin="round"/>
    <path d="M 165.3197021484375 108.75203704833984 C 121.62229919433594 92.16352081298828 170.52748107910156 135.3338623046875 184.50473022460938 63.64213562011719" stroke-width="2" fill="none" stroke="rgb(0, 0, 0)" stroke-opacity="1.0" stroke-linecap="round" stroke-linejoin="round"/>
    <path d="M 86.14104461669922 138.7687530517578 C 93.6460952758789 159.25440979003906 66.54796600341797 129.12437438964844 99.32911682128906 151.5659637451172" stroke-width="2" fill="none" stroke="rgb(0, 0, 0)" stroke-opacity="1.0" stroke-linecap="round" stroke-linejoin="round"/>
  </g>
</svg>
