<?xml version="1.0" ?>
<svg xmlns="http://www.w3.org/2000/svg" version="1.1" width="224" height="224">
  <defs/>
  <g>
    <path d="M 38.29307556152344 117.20556640625 C 68.20191192626953 111.88533782958984 32.59052658081055 88.53836822509766 115.42251586914062 98.6812973022461" stroke-width="2" fill="none" stroke="rgb(0, 0, 0)" stroke-opacity="1.0" stroke-linecap="round" stroke-linejoin="round"/>
    <path d="M 113.28240203857422 116.25833129882812 C 199.80966186523438 143.90528869628906 163.21951293945312 151.5463104248047 165.84207153320312 142.18927001953125" stroke-width="2" fill="none" stroke="rgb(0, 0, 0)" stroke-opacity="1.0" stroke-linecap="round" stroke-linejoin="round"/>
    <path d="M 148.91180419921875 116.31617736816406 C 53.11497116088867 117.43109130859375 226.15768432617188 167.8079833984375 102.2845687866211 135.8458251953125" stroke-width="2" fill="none" stroke="rgb(0, 0, 0)" stroke-opacity="1.0" stroke-linecap="round" stroke-linejoin="round"/>
    <path d="M 152.2983856201172 103.2950668334961 C 188.22503662109375 118.19705200195312 131.32217407226562 106.72674560546875 160.66116333007812 114.0307388305664" stroke-width="2" fill="none" stroke="rgb(0, 0, 0)" stroke-opacity="1.0" stroke-linecap="round" stroke-linejoin="round"/>
    <path d="M 115.5377426147461 90.47357177734375 C 110.60680389404297 104.38954162597656 91.76712799072266 35.485679626464844 97.89350891113281 97.98677825927734" stroke-width="2" fill="none" stroke="rgb(0, 0, 0)" stroke-opacity="1.0" stroke-linecap="round" stroke-linejoin="round"/>
    <path d="M 124.9175033569336 84.19219207763672 C 169.5294647216797 80.69185638427734 133.35958862304688 102.13288879394531 161.08114624023438 93.96173095703125" stroke-width="2" fill="none" stroke="rgb(0, 0, 0)" stroke-opacity="1.0" stroke-linecap="round" stroke-linejoin="round"/>
    <path d="M 148.71315002441406 109.19783020019531 C 100.23719787597656 120.6618881225586 166.55963134765625 93.24153137207031 134.23565673828125 99.93101501464844" stroke-width="2" fill="none" stroke="rgb(0, 0, 0)" stroke-opacity="1.0" stroke-linecap="round" stroke-linejoin="round"/>
    <path d="M 80.8943862915039 142.72584533691406 C 298.1517639160156 133.3842010498047 -26.82317352294922 192.8199920654297 48.75735855102539 113.20490264892578" stroke-width="2" fill="none" stroke="rgb(0, 0, 0)" stroke-opacity="1.0" stroke-linecap="round" stroke-linejoin="round"/>
    <path d="M 158.37843322753906 139.3350067138672 C 218.75221252441406 158.18020629882812 30.342517852783203 76.21577453613281 148.92868041992188 114.8333511352539" stroke-width="2" fill="none" stroke="rgb(0, 0, 0)" stroke-opacity="1.0" stroke-linecap="round" stroke-linejoin="round"/>
    <path d="M 129.1648406982422 119.30433654785156 C 176.59263610839844 120.48072052001953 103.50489807128906 115.54248046875 144.1864013671875 117.09489440917969" stroke-width="2" fill="none" stroke="rgb(0, 0, 0)" stroke-opacity="1.0" stroke-linecap="round" stroke-linejoin="round"/>
    <path d="M 163.2789306640625 86.51502227783203 C 232.6444854736328 19.003089904785156 106.80331420898438 123.1557846069336 172.09185791015625 71.01654052734375" stroke-width="2" fill="none" stroke="rgb(0, 0, 0)" stroke-opacity="1.0" stroke-linecap="round" stroke-linejoin="round"/>
    <path d="M 154.6668243408203 151.52989196777344 C 167.99789428710938 161.37530517578125 202.68295288085938 153.53445434570312 52.133155822753906 140.16738891601562" stroke-width="2" fill="none" stroke="rgb(0, 0, 0)" stroke-opacity="1.0" stroke-linecap="round" stroke-linejoin="round"/>
    <path d="M 126.33513641357422 123.64300537109375 C 192.6886444091797 117.88330841064453 99.31072998046875 140.24952697753906 150.6136474609375 124.0168685913086" stroke-width="2" fill="none" stroke="rgb(0, 0, 0)" stroke-opacity="1.0" stroke-linecap="round" stroke-linejoin="round"/>
    <path d="M 105.55740356445312 112.83849334716797 C 159.64524841308594 160.2169952392578 47.365570068359375 24.83133316040039 127.18620300292969 86.14309692382812" stroke-width="2" fill="none" stroke="rgb(0, 0, 0)" stroke-opacity="1.0" stroke-linecap="round" stroke-linejoin="round"/>
    <path d="M 172.92636108398438 94.7018051147461 C 138.61474609375 101.8275375366211 163.6349639892578 139.6730499267578 183.7057342529297 69.10281372070312" stroke-width="2" fill="none" stroke="rgb(0, 0, 0)" stroke-opacity="1.0" stroke-linecap="round" stroke-linejoin="round"/>
    <path d="M 53.17887878417969 142.7413787841797 C 90.77839660644531 131.03903198242188 26.527957916259766 132.9448699951172 100.17732238769531 149.75564575195312" stroke-width="2" fill="none" stroke="rgb(0, 0, 0)" stroke-opacity="1.0" stroke-linecap="round" stroke-linejoin="round"/>
  </g>
</svg>
