<?xml version="1.0" ?>
<svg xmlns="http://www.w3.org/2000/svg" version="1.1" width="224" height="224">
  <defs/>
  <g>
    <path d="M 53.37978744506836 102.22018432617188 C 68.14188385009766 101.73692321777344 112.11563110351562 74.47735595703125 108.60285186767578 127.38188171386719" stroke-width="2" fill="none" stroke="rgb(0, 0, 0)" stroke-opacity="1.0" stroke-linecap="round" stroke-linejoin="round"/>
    <path d="M 128.15725708007812 153.85548400878906 C 217.92593383789062 130.11215209960938 194.0655975341797 164.59678649902344 202.39523315429688 149.82943725585938" stroke-width="2" fill="none" stroke="rgb(0, 0, 0)" stroke-opacity="1.0" stroke-linecap="round" stroke-linejoin="round"/>
    <path d="M 133.29071044921875 107.23147583007812 C 56.73830795288086 105.59129333496094 336.34393310546875 156.37481689453125 118.67145538330078 146.1584014892578" stroke-width="2" fill="none" stroke="rgb(0, 0, 0)" stroke-opacity="1.0" stroke-linecap="round" stroke-linejoin="round"/>
    <path d="M 160.14088439941406 93.55882263183594 C 188.22528076171875 111.0710220336914 128.68252563476562 86.29035186767578 172.9635772705078 86.48237609863281" stroke-width="2" fill="none" stroke="rgb(0, 0, 0)" stroke-opacity="1.0" stroke-linecap="round" stroke-linejoin="round"/>
    <path d="M 139.38409423828125 86.78307342529297 C 123.76972198486328 106.00352478027344 89.87598419189453 34.34197235107422 103.26456451416016 91.71485137939453" stroke-width="2" fill="none" stroke="rgb(0, 0, 0)" stroke-opacity="1.0" stroke-linecap="round" stroke-linejoin="round"/>
    <path d="M 122.83761596679688 87.93219757080078 C 191.83236694335938 77.28565216064453 133.75807189941406 136.23057556152344 165.83212280273438 95.6376953125" stroke-width="2" fill="none" stroke="rgb(0, 0, 0)" stroke-opacity="1.0" stroke-linecap="round" stroke-linejoin="round"/>
    <path d="M 133.81936645507812 107.33829498291016 C 100.28314208984375 98.4765853881836 162.75177001953125 95.70267486572266 113.6393051147461 108.3228988647461" stroke-width="2" fill="none" stroke="rgb(0, 0, 0)" stroke-opacity="1.0" stroke-linecap="round" stroke-linejoin="round"/>
    <path d="M 153.6822052001953 134.08187866210938 C 278.70220947265625 140.09739685058594 -26.77972984313965 189.72666931152344 59.58686447143555 100.39419555664062" stroke-width="2" fill="none" stroke="rgb(0, 0, 0)" stroke-opacity="1.0" stroke-linecap="round" stroke-linejoin="round"/>
    <path d="M 121.54650115966797 113.61173248291016 C 198.6412353515625 143.44371032714844 80.80274963378906 92.13175201416016 130.6886749267578 98.0791015625" stroke-width="2" fill="none" stroke="rgb(0, 0, 0)" stroke-opacity="1.0" stroke-linecap="round" stroke-linejoin="round"/>
    <path d="M 123.01205444335938 110.22347259521484 C 211.33541870117188 104.22315979003906 56.52360153198242 119.20841979980469 152.15438842773438 107.49657440185547" stroke-width="2" fill="none" stroke="rgb(0, 0, 0)" stroke-opacity="1.0" stroke-linecap="round" stroke-linejoin="round"/>
    <path d="M 170.76834106445312 88.4862289428711 C 226.69187927246094 8.11988639831543 125.57769012451172 132.74635314941406 178.69924926757812 65.99352264404297" stroke-width="2" fill="none" stroke="rgb(0, 0, 0)" stroke-opacity="1.0" stroke-linecap="round" stroke-linejoin="round"/>
    <path d="M 156.5865020751953 144.73568725585938 C 184.10235595703125 133.17471313476562 152.08448791503906 140.11605834960938 154.60592651367188 138.7926483154297" stroke-width="2" fill="none" stroke="rgb(0, 0, 0)" stroke-opacity="1.0" stroke-linecap="round" stroke-linejoin="round"/>
    <path d="M 157.16024780273438 118.54032897949219 C 183.1229705810547 111.79561614990234 122.25041198730469 102.13602447509766 148.7836151123047 100.94437408447266" stroke-width="2" fill="none" stroke="rgb(0, 0, 0)" stroke-opacity="1.0" stroke-linecap="round" stroke-linejoin="round"/>
    <path d="M 139.89544677734375 118.93211364746094 C 185.00003051757812 175.98634338378906 59.26902389526367 11.948698043823242 115.71135711669922 89.78303527832031" stroke-width="2" fill="none" stroke="rgb(0, 0, 0)" stroke-opacity="1.0" stroke-linecap="round" stroke-linejoin="round"/>
    <path d="M 173.22108459472656 99.30949401855469 C 135.09217834472656 104.30535888671875 181.09860229492188 133.2832489013672 183.03269958496094 65.31938934326172" stroke-width="2" fill="none" stroke="rgb(0, 0, 0)" stroke-opacity="1.0" stroke-linecap="round" stroke-linejoin="round"/>
    <path d="M 161.59864807128906 153.9467010498047 C 158.45281982421875 168.96290588378906 70.18482971191406 106.63785552978516 97.635498046875 121.01239013671875" stroke-width="2" fill="none" stroke="rgb(0, 0, 0)" stroke-opacity="1.0" stroke-linecap="round" stroke-linejoin="round"/>
  </g>
</svg>
