<?xml version="1.0" ?>
<svg xmlns="http://www.w3.org/2000/svg" version="1.1" width="224" height="224">
  <defs/>
  <g>
    <path d="M 40.61831283569336 122.67850494384766 C 61.68041229248047 102.3806381225586 41.6571044921875 87.62745666503906 107.2710189819336 102.05557250976562" stroke-width="2" fill="none" stroke="rgb(0, 0, 0)" stroke-opacity="1.0" stroke-linecap="round" stroke-linejoin="round"/>
    <path d="M 48.71937942504883 148.17140197753906 C 190.4610137939453 171.89239501953125 204.25970458984375 125.75198364257812 182.3917694091797 142.77145385742188" stroke-width="2" fill="none" stroke="rgb(0, 0, 0)" stroke-opacity="1.0" stroke-linecap="round" stroke-linejoin="round"/>
    <path d="M 146.2352294921875 104.89360809326172 C 121.32640075683594 99.64517974853516 173.9439697265625 130.14208984375 127.19847106933594 109.39696502685547" stroke-width="2" fill="none" stroke="rgb(0, 0, 0)" stroke-opacity="1.0" stroke-linecap="round" stroke-linejoin="round"/>
    <path d="M 149.19570922851562 88.01866149902344 C 169.14906311035156 103.4794921875 157.4171600341797 70.576416015625 163.6669464111328 121.62335968017578" stroke-width="2" fill="none" stroke="rgb(0, 0, 0)" stroke-opacity="1.0" stroke-linecap="round" stroke-linejoin="round"/>
    <path d="M 128.12060546875 92.69755554199219 C 136.97174072265625 108.84260559082031 70.5501708984375 35.47810363769531 124.05854034423828 86.86323547363281" stroke-width="2" fill="none" stroke="rgb(0, 0, 0)" stroke-opacity="1.0" stroke-linecap="round" stroke-linejoin="round"/>
    <path d="M 134.2997589111328 89.95127868652344 C 98.32295227050781 93.81407165527344 155.06480407714844 96.45196533203125 115.72337341308594 90.59986114501953" stroke-width="2" fill="none" stroke="rgb(0, 0, 0)" stroke-opacity="1.0" stroke-linecap="round" stroke-linejoin="round"/>
    <path d="M 144.94461059570312 119.77462768554688 C 101.11398315429688 91.18783569335938 170.35928344726562 138.64340209960938 124.6557846069336 117.86627960205078" stroke-width="2" fill="none" stroke="rgb(0, 0, 0)" stroke-opacity="1.0" stroke-linecap="round" stroke-linejoin="round"/>
    <path d="M 84.531982421875 143.50958251953125 C 124.88422393798828 160.51144409179688 27.011077880859375 161.46490478515625 42.87665557861328 129.9312286376953" stroke-width="2" fill="none" stroke="rgb(0, 0, 0)" stroke-opacity="1.0" stroke-linecap="round" stroke-linejoin="round"/>
    <path d="M 120.81288146972656 124.62813568115234 C 251.54786682128906 159.18064880371094 50.377952575683594 107.73922729492188 150.0720977783203 114.59679412841797" stroke-width="2" fill="none" stroke="rgb(0, 0, 0)" stroke-opacity="1.0" stroke-linecap="round" stroke-linejoin="round"/>
    <path d="M 157.50616455078125 102.69715881347656 C 192.7408905029297 92.72891235351562 132.5938262939453 160.60519409179688 144.3663787841797 109.47914123535156" stroke-width="2" fill="none" stroke="rgb(0, 0, 0)" stroke-opacity="1.0" stroke-linecap="round" stroke-linejoin="round"/>
    <path d="M 159.7808380126953 101.48290252685547 C 207.97923278808594 30.424419403076172 164.6214599609375 94.05384826660156 140.5010223388672 89.32981872558594" stroke-width="2" fill="none" stroke="rgb(0, 0, 0)" stroke-opacity="1.0" stroke-linecap="round" stroke-linejoin="round"/>
    <path d="M 172.14385986328125 155.56387329101562 C 79.32364654541016 133.3012237548828 196.28182983398438 165.31686401367188 169.9232177734375 147.0471649169922" stroke-width="2" fill="none" stroke="rgb(0, 0, 0)" stroke-opacity="1.0" stroke-linecap="round" stroke-linejoin="round"/>
    <path d="M 92.60413360595703 110.84052276611328 C 158.9802703857422 148.6854705810547 36.441253662109375 63.029808044433594 131.02557373046875 141.54013061523438" stroke-width="2" fill="none" stroke="rgb(0, 0, 0)" stroke-opacity="1.0" stroke-linecap="round" stroke-linejoin="round"/>
    <path d="M 142.439697265625 107.51669311523438 C 106.00045776367188 153.2260284423828 76.61327362060547 12.722230911254883 125.7616195678711 99.08194732666016" stroke-width="2" fill="none" stroke="rgb(0, 0, 0)" stroke-opacity="1.0" stroke-linecap="round" stroke-linejoin="round"/>
    <path d="M 161.78921508789062 110.83167266845703 C 143.8694610595703 90.64203643798828 164.6835479736328 142.72434997558594 186.17083740234375 64.36933898925781" stroke-width="2" fill="none" stroke="rgb(0, 0, 0)" stroke-opacity="1.0" stroke-linecap="round" stroke-linejoin="round"/>
    <path d="M 28.72747039794922 119.93953704833984 C 56.79278564453125 109.81969451904297 -7.506475448608398 127.61188507080078 50.19594192504883 108.70004272460938" stroke-width="2" fill="none" stroke="rgb(0, 0, 0)" stroke-opacity="1.0" stroke-linecap="round" stroke-linejoin="round"/>
  </g>
</svg>
