<?xml version="1.0" ?>
<svg xmlns="http://www.w3.org/2000/svg" version="1.1" width="224" height="224">
  <defs/>
  <g>
    <path d="M 42.233123779296875 123.22108459472656 C 62.91286849975586 122.4639892578125 26.829702377319336 86.7676010131836 119.12033081054688 101.45397186279297" stroke-width="2" fill="none" stroke="rgb(0, 0, 0)" stroke-opacity="1.0" stroke-linecap="round" stroke-linejoin="round"/>
    <path d="M 116.45903015136719 112.03172302246094 C 198.464111328125 149.98126220703125 167.8119354248047 150.34674072265625 168.30226135253906 154.83717346191406" stroke-width="2" fill="none" stroke="rgb(0, 0, 0)" stroke-opacity="1.0" stroke-linecap="round" stroke-linejoin="round"/>
    <path d="M 133.43328857421875 113.81607818603516 C 51.13102340698242 128.5769500732422 237.68893432617188 171.14419555664062 63.25296401977539 137.44715881347656" stroke-width="2" fill="none" stroke="rgb(0, 0, 0)" stroke-opacity="1.0" stroke-linecap="round" stroke-linejoin="round"/>
    <path d="M 150.02706909179688 113.5105972290039 C 190.36734008789062 109.21013641357422 122.36482238769531 99.02525329589844 160.8803253173828 112.99854278564453" stroke-width="2" fill="none" stroke="rgb(0, 0, 0)" stroke-opacity="1.0" stroke-linecap="round" stroke-linejoin="round"/>
    <path d="M 121.09120178222656 93.51274871826172 C 102.83815002441406 112.35968780517578 92.02529907226562 30.514917373657227 105.99088287353516 111.2265396118164" stroke-width="2" fill="none" stroke="rgb(0, 0, 0)" stroke-opacity="1.0" stroke-linecap="round" stroke-linejoin="round"/>
    <path d="M 125.2170181274414 84.59044647216797 C 168.01368713378906 79.15697479248047 135.87179565429688 99.07849884033203 167.6352996826172 100.30793762207031" stroke-width="2" fill="none" stroke="rgb(0, 0, 0)" stroke-opacity="1.0" stroke-linecap="round" stroke-linejoin="round"/>
    <path d="M 136.5782928466797 109.65855407714844 C 124.53443145751953 111.48574829101562 167.3153076171875 98.61951446533203 133.80465698242188 103.3707275390625" stroke-width="2" fill="none" stroke="rgb(0, 0, 0)" stroke-opacity="1.0" stroke-linecap="round" stroke-linejoin="round"/>
    <path d="M 101.73693084716797 139.24945068359375 C 305.2807312011719 138.01678466796875 -35.339759826660156 184.67471313476562 51.00783157348633 109.0452651977539" stroke-width="2" fill="none" stroke="rgb(0, 0, 0)" stroke-opacity="1.0" stroke-linecap="round" stroke-linejoin="round"/>
    <path d="M 150.27003479003906 126.71685028076172 C 213.73231506347656 155.59197998046875 29.63852310180664 85.62097930908203 141.19406127929688 116.98799896240234" stroke-width="2" fill="none" stroke="rgb(0, 0, 0)" stroke-opacity="1.0" stroke-linecap="round" stroke-linejoin="round"/>
    <path d="M 124.35810852050781 132.22691345214844 C 171.501220703125 127.15540313720703 80.23188018798828 120.22274780273438 125.93620300292969 109.36341094970703" stroke-width="2" fill="none" stroke="rgb(0, 0, 0)" stroke-opacity="1.0" stroke-linecap="round" stroke-linejoin="round"/>
    <path d="M 161.79843139648438 93.12823486328125 C 236.605712890625 19.05463981628418 110.50724792480469 118.28401947021484 168.49671936035156 80.29052734375" stroke-width="2" fill="none" stroke="rgb(0, 0, 0)" stroke-opacity="1.0" stroke-linecap="round" stroke-linejoin="round"/>
    <path d="M 154.1097412109375 153.32252502441406 C 134.1909942626953 167.34906005859375 204.12940979003906 149.78924560546875 86.20584106445312 144.3151092529297" stroke-width="2" fill="none" stroke="rgb(0, 0, 0)" stroke-opacity="1.0" stroke-linecap="round" stroke-linejoin="round"/>
    <path d="M 113.77729797363281 113.77462005615234 C 173.73948669433594 113.85225677490234 90.79049682617188 138.4940643310547 140.5299835205078 115.81155395507812" stroke-width="2" fill="none" stroke="rgb(0, 0, 0)" stroke-opacity="1.0" stroke-linecap="round" stroke-linejoin="round"/>
    <path d="M 95.65320587158203 107.32542419433594 C 149.32379150390625 166.1197052001953 52.51582336425781 16.992141723632812 124.80235290527344 87.86898040771484" stroke-width="2" fill="none" stroke="rgb(0, 0, 0)" stroke-opacity="1.0" stroke-linecap="round" stroke-linejoin="round"/>
    <path d="M 170.66497802734375 95.65447235107422 C 128.4393310546875 113.59776306152344 163.97463989257812 144.56448364257812 182.05194091796875 69.2918930053711" stroke-width="2" fill="none" stroke="rgb(0, 0, 0)" stroke-opacity="1.0" stroke-linecap="round" stroke-linejoin="round"/>
    <path d="M 78.93504333496094 125.64114379882812 C 88.98695373535156 146.18601989746094 64.14227294921875 115.48646545410156 91.56614685058594 139.01527404785156" stroke-width="2" fill="none" stroke="rgb(0, 0, 0)" stroke-opacity="1.0" stroke-linecap="round" stroke-linejoin="round"/>
  </g>
</svg>
