<?xml version="1.0" ?>
<svg xmlns="http://www.w3.org/2000/svg" version="1.1" width="224" height="224">
  <defs/>
  <g>
    <path d="M 46.52510452270508 116.15031433105469 C 46.30936050415039 88.89047241210938 88.84972381591797 99.11329650878906 89.90338897705078 94.13284301757812" stroke-width="2" fill="none" stroke="rgb(0, 0, 0)" stroke-opacity="1.0" stroke-linecap="round" stroke-linejoin="round"/>
    <path d="M 41.28282165527344 143.11000061035156 C 200.43478393554688 182.20260620117188 186.48426818847656 116.92804718017578 164.10006713867188 150.7459716796875" stroke-width="2" fill="none" stroke="rgb(0, 0, 0)" stroke-opacity="1.0" stroke-linecap="round" stroke-linejoin="round"/>
    <path d="M 145.80870056152344 132.59153747558594 C 89.04561614990234 103.58860778808594 144.5732421875 148.038330078125 119.21049499511719 119.44171142578125" stroke-width="2" fill="none" stroke="rgb(0, 0, 0)" stroke-opacity="1.0" stroke-linecap="round" stroke-linejoin="round"/>
    <path d="M 161.5217742919922 118.09080505371094 C 134.04702758789062 120.62760925292969 178.0072784423828 110.41690826416016 153.46487426757812 122.27523803710938" stroke-width="2" fill="none" stroke="rgb(0, 0, 0)" stroke-opacity="1.0" stroke-linecap="round" stroke-linejoin="round"/>
    <path d="M 144.12210083007812 106.89400482177734 C 111.05475616455078 136.97610473632812 147.43548583984375 57.167240142822266 162.3218536376953 107.00023651123047" stroke-width="2" fill="none" stroke="rgb(0, 0, 0)" stroke-opacity="1.0" stroke-linecap="round" stroke-linejoin="round"/>
    <path d="M 167.73927307128906 87.11043548583984 C 10.15030574798584 82.50846862792969 180.6350860595703 118.6589126586914 98.92977142333984 89.65455627441406" stroke-width="2" fill="none" stroke="rgb(0, 0, 0)" stroke-opacity="1.0" stroke-linecap="round" stroke-linejoin="round"/>
    <path d="M 122.70352172851562 121.12401580810547 C 116.25296020507812 137.9952850341797 148.61463928222656 110.29322814941406 106.59634399414062 110.64698791503906" stroke-width="2" fill="none" stroke="rgb(0, 0, 0)" stroke-opacity="1.0" stroke-linecap="round" stroke-linejoin="round"/>
    <path d="M 56.940731048583984 144.7001953125 C 64.92192840576172 152.67550659179688 30.975086212158203 144.35545349121094 42.622039794921875 126.0080795288086" stroke-width="2" fill="none" stroke="rgb(0, 0, 0)" stroke-opacity="1.0" stroke-linecap="round" stroke-linejoin="round"/>
    <path d="M 134.20693969726562 131.97457885742188 C 191.3666229248047 151.2848663330078 99.5519027709961 124.9543228149414 144.97413635253906 127.70990753173828" stroke-width="2" fill="none" stroke="rgb(0, 0, 0)" stroke-opacity="1.0" stroke-linecap="round" stroke-linejoin="round"/>
    <path d="M 154.96131896972656 104.556396484375 C 182.39930725097656 115.85091400146484 93.40229034423828 106.77967834472656 148.96774291992188 112.88455200195312" stroke-width="2" fill="none" stroke="rgb(0, 0, 0)" stroke-opacity="1.0" stroke-linecap="round" stroke-linejoin="round"/>
    <path d="M 167.31982421875 110.18812561035156 C 206.3135528564453 27.346763610839844 174.25881958007812 77.96179962158203 160.16981506347656 85.60649871826172" stroke-width="2" fill="none" stroke="rgb(0, 0, 0)" stroke-opacity="1.0" stroke-linecap="round" stroke-linejoin="round"/>
    <path d="M 154.9105224609375 159.4148406982422 C 102.57918548583984 161.5512237548828 203.04441833496094 142.86268615722656 159.98240661621094 142.385986328125" stroke-width="2" fill="none" stroke="rgb(0, 0, 0)" stroke-opacity="1.0" stroke-linecap="round" stroke-linejoin="round"/>
    <path d="M 64.01261901855469 132.18267822265625 C 86.20034790039062 142.49038696289062 41.80165481567383 144.36094665527344 144.6893310546875 147.82530212402344" stroke-width="2" fill="none" stroke="rgb(0, 0, 0)" stroke-opacity="1.0" stroke-linecap="round" stroke-linejoin="round"/>
    <path d="M 150.26727294921875 140.35923767089844 C 91.23648834228516 107.57032775878906 76.42556762695312 24.15728187561035 135.74879455566406 101.72972106933594" stroke-width="2" fill="none" stroke="rgb(0, 0, 0)" stroke-opacity="1.0" stroke-linecap="round" stroke-linejoin="round"/>
    <path d="M 165.13587951660156 96.61203002929688 C 138.076904296875 93.2557144165039 179.87054443359375 119.58973693847656 184.25039672851562 66.01777648925781" stroke-width="2" fill="none" stroke="rgb(0, 0, 0)" stroke-opacity="1.0" stroke-linecap="round" stroke-linejoin="round"/>
    <path d="M 80.94182586669922 103.68751525878906 C 53.06479263305664 84.13658905029297 -8.8110933303833 138.12356567382812 52.463314056396484 100.67230224609375" stroke-width="2" fill="none" stroke="rgb(0, 0, 0)" stroke-opacity="1.0" stroke-linecap="round" stroke-linejoin="round"/>
  </g>
</svg>
