<?xml version="1.0" ?>
<svg xmlns="http://www.w3.org/2000/svg" version="1.1" width="224" height="224">
  <defs/>
  <g>
    <path d="M 41.955718994140625 123.8647232055664 C 69.25362396240234 107.81178283691406 45.783626556396484 90.96060180664062 98.39036560058594 96.57798767089844" stroke-width="2" fill="none" stroke="rgb(0, 0, 0)" stroke-opacity="1.0" stroke-linecap="round" stroke-linejoin="round"/>
    <path d="M 50.09375 147.81619262695312 C 222.48873901367188 155.0836944580078 177.1910400390625 147.56141662597656 177.4403533935547 146.1532745361328" stroke-width="2" fill="none" stroke="rgb(0, 0, 0)" stroke-opacity="1.0" stroke-linecap="round" stroke-linejoin="round"/>
    <path d="M 141.89479064941406 110.91573333740234 C 114.76305389404297 104.95158386230469 164.77920532226562 125.34544372558594 119.69934844970703 124.53138732910156" stroke-width="2" fill="none" stroke="rgb(0, 0, 0)" stroke-opacity="1.0" stroke-linecap="round" stroke-linejoin="round"/>
    <path d="M 148.61260986328125 97.1747817993164 C 183.6710662841797 118.11146545410156 134.79420471191406 105.35376739501953 169.29922485351562 103.04390716552734" stroke-width="2" fill="none" stroke="rgb(0, 0, 0)" stroke-opacity="1.0" stroke-linecap="round" stroke-linejoin="round"/>
    <path d="M 141.52761840820312 91.99406433105469 C 139.510498046875 107.3871078491211 66.04296112060547 33.9249382019043 112.19668579101562 94.12936401367188" stroke-width="2" fill="none" stroke="rgb(0, 0, 0)" stroke-opacity="1.0" stroke-linecap="round" stroke-linejoin="round"/>
    <path d="M 123.87647247314453 97.32074737548828 C 72.21939849853516 90.85047912597656 180.37289428710938 88.7756118774414 173.10308837890625 87.7847900390625" stroke-width="2" fill="none" stroke="rgb(0, 0, 0)" stroke-opacity="1.0" stroke-linecap="round" stroke-linejoin="round"/>
    <path d="M 136.55348205566406 118.14586639404297 C 91.36672973632812 95.45918273925781 178.3791046142578 146.2735595703125 117.33696746826172 116.07881927490234" stroke-width="2" fill="none" stroke="rgb(0, 0, 0)" stroke-opacity="1.0" stroke-linecap="round" stroke-linejoin="round"/>
    <path d="M 111.082763671875 131.83670043945312 C 217.56031799316406 146.60943603515625 -8.782458305358887 174.33375549316406 54.28646469116211 112.03502655029297" stroke-width="2" fill="none" stroke="rgb(0, 0, 0)" stroke-opacity="1.0" stroke-linecap="round" stroke-linejoin="round"/>
    <path d="M 113.01668548583984 122.33967590332031 C 222.44313049316406 154.13375854492188 62.852783203125 104.37955474853516 140.39346313476562 116.7813720703125" stroke-width="2" fill="none" stroke="rgb(0, 0, 0)" stroke-opacity="1.0" stroke-linecap="round" stroke-linejoin="round"/>
    <path d="M 158.12828063964844 124.92013549804688 C 185.5447540283203 115.75385284423828 117.11071014404297 148.07371520996094 141.79196166992188 111.23828887939453" stroke-width="2" fill="none" stroke="rgb(0, 0, 0)" stroke-opacity="1.0" stroke-linecap="round" stroke-linejoin="round"/>
    <path d="M 155.8380584716797 96.35326385498047 C 214.41709899902344 30.54791259765625 165.512939453125 96.5727767944336 154.40780639648438 92.30311584472656" stroke-width="2" fill="none" stroke="rgb(0, 0, 0)" stroke-opacity="1.0" stroke-linecap="round" stroke-linejoin="round"/>
    <path d="M 173.60313415527344 152.85494995117188 C 110.04573059082031 121.73058319091797 206.9845733642578 149.5529327392578 169.51731872558594 157.80174255371094" stroke-width="2" fill="none" stroke="rgb(0, 0, 0)" stroke-opacity="1.0" stroke-linecap="round" stroke-linejoin="round"/>
    <path d="M 83.35323333740234 117.8446044921875 C 127.05249786376953 140.1138458251953 68.11087799072266 104.45724487304688 103.73570251464844 123.03775024414062" stroke-width="2" fill="none" stroke="rgb(0, 0, 0)" stroke-opacity="1.0" stroke-linecap="round" stroke-linejoin="round"/>
    <path d="M 139.98947143554688 107.58577728271484 C 89.65447235107422 152.56394958496094 83.70677185058594 21.805917739868164 107.30677032470703 107.07057189941406" stroke-width="2" fill="none" stroke="rgb(0, 0, 0)" stroke-opacity="1.0" stroke-linecap="round" stroke-linejoin="round"/>
    <path d="M 161.03627014160156 116.62511444091797 C 129.07525634765625 100.25104522705078 166.1011199951172 143.6386260986328 183.28660583496094 72.3857421875" stroke-width="2" fill="none" stroke="rgb(0, 0, 0)" stroke-opacity="1.0" stroke-linecap="round" stroke-linejoin="round"/>
    <path d="M 51.576805114746094 117.39463806152344 C 74.96770477294922 103.020263671875 48.730628967285156 123.80048370361328 59.20011520385742 112.2700424194336" stroke-width="2" fill="none" stroke="rgb(0, 0, 0)" stroke-opacity="1.0" stroke-linecap="round" stroke-linejoin="round"/>
  </g>
</svg>
