<?xml version="1.0" ?>
<svg xmlns="http://www.w3.org/2000/svg" version="1.1" width="224" height="224">
  <defs/>
  <g>
    <path d="M 103.55484008789062 122.82311248779297 C 103.01152801513672 109.43586730957031 68.412109375 113.26853942871094 100.5032958984375 108.11817169189453" stroke-width="2" fill="none" stroke="rgb(0, 0, 0)" stroke-opacity="1.0" stroke-linecap="round" stroke-linejoin="round"/>
    <path d="M 95.6086196899414 154.15167236328125 C 142.3681640625 155.41954040527344 123.16485595703125 151.50088500976562 127.81243896484375 145.67660522460938" stroke-width="2" fill="none" stroke="rgb(0, 0, 0)" stroke-opacity="1.0" stroke-linecap="round" stroke-linejoin="round"/>
    <path d="M 135.87440490722656 137.8234405517578 C 102.05792999267578 134.3974609375 130.20204162597656 146.47027587890625 110.84550476074219 131.061279296875" stroke-width="2" fill="none" stroke="rgb(0, 0, 0)" stroke-opacity="1.0" stroke-linecap="round" stroke-linejoin="round"/>
    <path d="M 134.29745483398438 117.36527252197266 C 117.55713653564453 111.24239349365234 165.48165893554688 118.5199966430664 131.69552612304688 123.27387237548828" stroke-width="2" fill="none" stroke="rgb(0, 0, 0)" stroke-opacity="1.0" stroke-linecap="round" stroke-linejoin="round"/>
    <path d="M 157.9169158935547 85.66789245605469 C 135.43531799316406 85.37173461914062 158.3421173095703 77.81299591064453 117.50096893310547 73.31201934814453" stroke-width="2" fill="none" stroke="rgb(0, 0, 0)" stroke-opacity="1.0" stroke-linecap="round" stroke-linejoin="round"/>
    <path d="M 132.81008911132812 89.1141586303711 C 119.8123779296875 84.20487213134766 118.17965698242188 115.2984390258789 114.85782623291016 108.09014129638672" stroke-width="2" fill="none" stroke="rgb(0, 0, 0)" stroke-opacity="1.0" stroke-linecap="round" stroke-linejoin="round"/>
    <path d="M 101.54747772216797 68.35160827636719 C 103.80179595947266 135.32745361328125 142.97799682617188 111.96022033691406 102.24020385742188 68.36003875732422" stroke-width="2" fill="none" stroke="rgb(0, 0, 0)" stroke-opacity="1.0" stroke-linecap="round" stroke-linejoin="round"/>
    <path d="M 81.05754852294922 132.25595092773438 C 70.82089233398438 121.6786117553711 64.22724914550781 133.2885284423828 55.47374725341797 121.36544799804688" stroke-width="2" fill="none" stroke="rgb(0, 0, 0)" stroke-opacity="1.0" stroke-linecap="round" stroke-linejoin="round"/>
    <path d="M 129.15338134765625 117.37181091308594 C 146.9762725830078 132.26687622070312 138.0934600830078 106.00164031982422 137.63430786132812 125.14193725585938" stroke-width="2" fill="none" stroke="rgb(0, 0, 0)" stroke-opacity="1.0" stroke-linecap="round" stroke-linejoin="round"/>
    <path d="M 121.96187591552734 127.81180572509766 C 149.40850830078125 127.87959289550781 105.90090942382812 147.3838348388672 107.81436157226562 107.5339584350586" stroke-width="2" fill="none" stroke="rgb(0, 0, 0)" stroke-opacity="1.0" stroke-linecap="round" stroke-linejoin="round"/>
    <path d="M 184.631591796875 65.99214935302734 C 172.162841796875 85.65617370605469 185.10813903808594 68.77783966064453 160.23533630371094 89.70773315429688" stroke-width="2" fill="none" stroke="rgb(0, 0, 0)" stroke-opacity="1.0" stroke-linecap="round" stroke-linejoin="round"/>
    <path d="M 176.23362731933594 144.42669677734375 C 170.908935546875 138.34524536132812 159.21331787109375 127.26993560791016 147.9385528564453 135.98223876953125" stroke-width="2" fill="none" stroke="rgb(0, 0, 0)" stroke-opacity="1.0" stroke-linecap="round" stroke-linejoin="round"/>
    <path d="M 39.388671875 130.84527587890625 C 31.874305725097656 155.61380004882812 101.92108154296875 155.2409210205078 105.4905014038086 151.14866638183594" stroke-width="2" fill="none" stroke="rgb(0, 0, 0)" stroke-opacity="1.0" stroke-linecap="round" stroke-linejoin="round"/>
    <path d="M 120.98445129394531 116.06171417236328 C 102.8262939453125 85.44326782226562 100.96729278564453 57.58146667480469 118.42552185058594 88.95316314697266" stroke-width="2" fill="none" stroke="rgb(0, 0, 0)" stroke-opacity="1.0" stroke-linecap="round" stroke-linejoin="round"/>
    <path d="M 153.73191833496094 122.82765197753906 C 172.01443481445312 96.74369812011719 179.42218017578125 98.71605682373047 178.30819702148438 81.70756530761719" stroke-width="2" fill="none" stroke="rgb(0, 0, 0)" stroke-opacity="1.0" stroke-linecap="round" stroke-linejoin="round"/>
    <path d="M 103.44309997558594 102.19732666015625 C 53.55364990234375 102.16698455810547 62.26774215698242 99.73291015625 40.17206573486328 118.54869842529297" stroke-width="2" fill="none" stroke="rgb(0, 0, 0)" stroke-opacity="1.0" stroke-linecap="round" stroke-linejoin="round"/>
  </g>
</svg>
