<?xml version="1.0" ?>
<svg xmlns="http://www.w3.org/2000/svg" version="1.1" width="224" height="224">
  <defs/>
  <g>
    <path d="M 51.706298828125 104.89908599853516 C 70.54793548583984 107.58905792236328 106.28419494628906 70.27908325195312 102.66309356689453 131.74203491210938" stroke-width="2" fill="none" stroke="rgb(0, 0, 0)" stroke-opacity="1.0" stroke-linecap="round" stroke-linejoin="round"/>
    <path d="M 131.39208984375 146.68435668945312 C 213.34652709960938 139.64736938476562 168.72027587890625 159.39625549316406 195.4240264892578 147.4008026123047" stroke-width="2" fill="none" stroke="rgb(0, 0, 0)" stroke-opacity="1.0" stroke-linecap="round" stroke-linejoin="round"/>
    <path d="M 126.31999969482422 104.13732147216797 C 33.47018051147461 105.14573669433594 332.1728820800781 164.7816925048828 113.5741958618164 141.1083221435547" stroke-width="2" fill="none" stroke="rgb(0, 0, 0)" stroke-opacity="1.0" stroke-linecap="round" stroke-linejoin="round"/>
    <path d="M 164.67318725585938 96.99396514892578 C 181.38258361816406 110.50106048583984 115.00369262695312 86.09419250488281 159.62060546875 83.56398010253906" stroke-width="2" fill="none" stroke="rgb(0, 0, 0)" stroke-opacity="1.0" stroke-linecap="round" stroke-linejoin="round"/>
    <path d="M 130.27088928222656 84.58295440673828 C 125.06390380859375 95.89205169677734 80.11812591552734 39.79427719116211 103.7134017944336 95.60055541992188" stroke-width="2" fill="none" stroke="rgb(0, 0, 0)" stroke-opacity="1.0" stroke-linecap="round" stroke-linejoin="round"/>
    <path d="M 123.48606872558594 84.10238647460938 C 172.38343811035156 78.50328063964844 138.1016082763672 114.8092269897461 169.88380432128906 90.37547302246094" stroke-width="2" fill="none" stroke="rgb(0, 0, 0)" stroke-opacity="1.0" stroke-linecap="round" stroke-linejoin="round"/>
    <path d="M 120.98065948486328 103.70011901855469 C 83.38542175292969 107.0499496459961 151.3859100341797 98.67501068115234 114.3469467163086 112.72968292236328" stroke-width="2" fill="none" stroke="rgb(0, 0, 0)" stroke-opacity="1.0" stroke-linecap="round" stroke-linejoin="round"/>
    <path d="M 149.01959228515625 137.51467895507812 C 259.2036437988281 137.2686004638672 -31.422649383544922 191.1517791748047 56.043697357177734 101.0584716796875" stroke-width="2" fill="none" stroke="rgb(0, 0, 0)" stroke-opacity="1.0" stroke-linecap="round" stroke-linejoin="round"/>
    <path d="M 102.44248962402344 111.04644775390625 C 209.4460906982422 128.2401123046875 89.39987182617188 108.5674819946289 122.79273223876953 95.7955093383789" stroke-width="2" fill="none" stroke="rgb(0, 0, 0)" stroke-opacity="1.0" stroke-linecap="round" stroke-linejoin="round"/>
    <path d="M 110.21047973632812 110.89905548095703 C 214.22186279296875 111.37018585205078 50.85604476928711 120.01030731201172 151.6114044189453 109.78756713867188" stroke-width="2" fill="none" stroke="rgb(0, 0, 0)" stroke-opacity="1.0" stroke-linecap="round" stroke-linejoin="round"/>
    <path d="M 160.86106872558594 80.05818176269531 C 229.92620849609375 13.706246376037598 126.59537506103516 151.88038635253906 179.5230255126953 87.2509994506836" stroke-width="2" fill="none" stroke="rgb(0, 0, 0)" stroke-opacity="1.0" stroke-linecap="round" stroke-linejoin="round"/>
    <path d="M 161.42840576171875 145.07191467285156 C 174.7046661376953 149.78890991210938 163.2019805908203 136.6049041748047 174.03939819335938 145.18716430664062" stroke-width="2" fill="none" stroke="rgb(0, 0, 0)" stroke-opacity="1.0" stroke-linecap="round" stroke-linejoin="round"/>
    <path d="M 152.7288055419922 125.04692840576172 C 178.7703399658203 105.80743408203125 115.32318878173828 107.84829711914062 141.646728515625 100.32439422607422" stroke-width="2" fill="none" stroke="rgb(0, 0, 0)" stroke-opacity="1.0" stroke-linecap="round" stroke-linejoin="round"/>
    <path d="M 140.9381561279297 134.13784790039062 C 176.75216674804688 166.5784149169922 47.50901794433594 23.47029685974121 112.23165130615234 88.63365173339844" stroke-width="2" fill="none" stroke="rgb(0, 0, 0)" stroke-opacity="1.0" stroke-linecap="round" stroke-linejoin="round"/>
    <path d="M 175.15184020996094 92.93597412109375 C 131.0074005126953 96.62332153320312 167.6693115234375 145.18605041503906 184.96554565429688 68.76190948486328" stroke-width="2" fill="none" stroke="rgb(0, 0, 0)" stroke-opacity="1.0" stroke-linecap="round" stroke-linejoin="round"/>
    <path d="M 151.67579650878906 148.71615600585938 C 153.04205322265625 168.6240692138672 65.79649353027344 91.42427062988281 92.13544464111328 109.2231216430664" stroke-width="2" fill="none" stroke="rgb(0, 0, 0)" stroke-opacity="1.0" stroke-linecap="round" stroke-linejoin="round"/>
  </g>
</svg>
