<?xml version="1.0" ?>
<svg xmlns="http://www.w3.org/2000/svg" version="1.1" width="224" height="224">
  <defs/>
  <g>
    <path d="M 40.97734832763672 116.35547637939453 C 64.21622467041016 117.04275512695312 28.714685440063477 82.37493133544922 120.95040130615234 102.18354797363281" stroke-width="2" fill="none" stroke="rgb(0, 0, 0)" stroke-opacity="1.0" stroke-linecap="round" stroke-linejoin="round"/>
    <path d="M 117.65617370605469 122.6977310180664 C 203.2445526123047 148.58486938476562 164.45639038085938 159.25172424316406 162.5496368408203 155.3048095703125" stroke-width="2" fill="none" stroke="rgb(0, 0, 0)" stroke-opacity="1.0" stroke-linecap="round" stroke-linejoin="round"/>
    <path d="M 140.4208984375 115.51637268066406 C 42.985164642333984 131.3516845703125 254.05758666992188 160.04376220703125 81.89014434814453 127.08442687988281" stroke-width="2" fill="none" stroke="rgb(0, 0, 0)" stroke-opacity="1.0" stroke-linecap="round" stroke-linejoin="round"/>
    <path d="M 150.9003143310547 116.43629455566406 C 192.11990356445312 107.3350830078125 134.2644500732422 99.40039825439453 165.8861083984375 113.1076431274414" stroke-width="2" fill="none" stroke="rgb(0, 0, 0)" stroke-opacity="1.0" stroke-linecap="round" stroke-linejoin="round"/>
    <path d="M 121.23856353759766 94.98699951171875 C 105.87283325195312 104.65972137451172 90.31439208984375 33.56784439086914 102.94103240966797 105.75682830810547" stroke-width="2" fill="none" stroke="rgb(0, 0, 0)" stroke-opacity="1.0" stroke-linecap="round" stroke-linejoin="round"/>
    <path d="M 127.41584014892578 85.65386199951172 C 174.19483947753906 81.99549102783203 135.5795440673828 102.07441711425781 175.30067443847656 96.96794891357422" stroke-width="2" fill="none" stroke="rgb(0, 0, 0)" stroke-opacity="1.0" stroke-linecap="round" stroke-linejoin="round"/>
    <path d="M 142.8549041748047 115.13554382324219 C 110.5999526977539 110.56184387207031 160.20692443847656 101.64435577392578 129.56484985351562 104.11668395996094" stroke-width="2" fill="none" stroke="rgb(0, 0, 0)" stroke-opacity="1.0" stroke-linecap="round" stroke-linejoin="round"/>
    <path d="M 110.75397491455078 140.0502166748047 C 322.8162536621094 134.610595703125 -45.75432205200195 185.41246032714844 50.62702560424805 107.76507568359375" stroke-width="2" fill="none" stroke="rgb(0, 0, 0)" stroke-opacity="1.0" stroke-linecap="round" stroke-linejoin="round"/>
    <path d="M 111.07788848876953 114.80101013183594 C 215.51181030273438 149.88807678222656 46.7313232421875 111.81717681884766 141.79449462890625 120.85369110107422" stroke-width="2" fill="none" stroke="rgb(0, 0, 0)" stroke-opacity="1.0" stroke-linecap="round" stroke-linejoin="round"/>
    <path d="M 113.2668685913086 113.88568878173828 C 165.9480438232422 142.1275634765625 83.55547332763672 122.35428619384766 118.57238006591797 110.74351501464844" stroke-width="2" fill="none" stroke="rgb(0, 0, 0)" stroke-opacity="1.0" stroke-linecap="round" stroke-linejoin="round"/>
    <path d="M 168.69552612304688 92.92473602294922 C 230.2655487060547 15.367810249328613 110.81475830078125 125.05146026611328 168.77549743652344 85.11817169189453" stroke-width="2" fill="none" stroke="rgb(0, 0, 0)" stroke-opacity="1.0" stroke-linecap="round" stroke-linejoin="round"/>
    <path d="M 160.10971069335938 156.4940185546875 C 134.2783660888672 156.5895233154297 203.8070068359375 148.3902130126953 100.28956604003906 153.96849060058594" stroke-width="2" fill="none" stroke="rgb(0, 0, 0)" stroke-opacity="1.0" stroke-linecap="round" stroke-linejoin="round"/>
    <path d="M 123.1510009765625 114.82058715820312 C 187.1234588623047 126.2017822265625 88.40889739990234 129.30284118652344 139.7448272705078 115.81893157958984" stroke-width="2" fill="none" stroke="rgb(0, 0, 0)" stroke-opacity="1.0" stroke-linecap="round" stroke-linejoin="round"/>
    <path d="M 91.41070556640625 97.21773529052734 C 169.70591735839844 164.56405639648438 43.47596740722656 19.634138107299805 125.89335632324219 87.31085205078125" stroke-width="2" fill="none" stroke="rgb(0, 0, 0)" stroke-opacity="1.0" stroke-linecap="round" stroke-linejoin="round"/>
    <path d="M 177.2495880126953 97.9255142211914 C 148.02098083496094 106.46469116210938 178.08534240722656 128.0932159423828 183.89646911621094 69.74870300292969" stroke-width="2" fill="none" stroke="rgb(0, 0, 0)" stroke-opacity="1.0" stroke-linecap="round" stroke-linejoin="round"/>
    <path d="M 93.8448257446289 126.38624572753906 C 110.53350067138672 149.27655029296875 53.491546630859375 110.0496597290039 103.0584945678711 137.58682250976562" stroke-width="2" fill="none" stroke="rgb(0, 0, 0)" stroke-opacity="1.0" stroke-linecap="round" stroke-linejoin="round"/>
  </g>
</svg>
