<?xml version="1.0" ?>
<svg xmlns="http://www.w3.org/2000/svg" version="1.1" width="224" height="224">
  <defs/>
  <g>
    <path d="M 43.56821823120117 113.12455749511719 C 65.34062957763672 114.86056518554688 33.8299674987793 88.18266296386719 116.60689544677734 94.71016693115234" stroke-width="2" fill="none" stroke="rgb(0, 0, 0)" stroke-opacity="1.0" stroke-linecap="round" stroke-linejoin="round"/>
    <path d="M 118.58815002441406 124.82647705078125 C 203.8651580810547 141.90269470214844 185.41915893554688 165.80984497070312 133.67420959472656 147.20401000976562" stroke-width="2" fill="none" stroke="rgb(0, 0, 0)" stroke-opacity="1.0" stroke-linecap="round" stroke-linejoin="round"/>
    <path d="M 134.47451782226562 102.17649841308594 C 96.66336822509766 108.4427719116211 212.55328369140625 115.22067260742188 130.9090118408203 113.25346374511719" stroke-width="2" fill="none" stroke="rgb(0, 0, 0)" stroke-opacity="1.0" stroke-linecap="round" stroke-linejoin="round"/>
    <path d="M 150.911865234375 107.48961639404297 C 181.84593200683594 112.8918228149414 141.22447204589844 91.09146118164062 173.77481079101562 93.03539276123047" stroke-width="2" fill="none" stroke="rgb(0, 0, 0)" stroke-opacity="1.0" stroke-linecap="round" stroke-linejoin="round"/>
    <path d="M 130.39173889160156 90.75212097167969 C 117.75333404541016 97.3162612915039 73.76850891113281 26.12249755859375 110.44403076171875 103.75885009765625" stroke-width="2" fill="none" stroke="rgb(0, 0, 0)" stroke-opacity="1.0" stroke-linecap="round" stroke-linejoin="round"/>
    <path d="M 128.18421936035156 86.97862243652344 C 144.1195526123047 74.39979553222656 170.52825927734375 97.29828643798828 144.19178771972656 81.86886596679688" stroke-width="2" fill="none" stroke="rgb(0, 0, 0)" stroke-opacity="1.0" stroke-linecap="round" stroke-linejoin="round"/>
    <path d="M 142.63534545898438 120.45513153076172 C 99.0179443359375 103.03278350830078 166.05169677734375 144.92100524902344 132.21527099609375 104.23963928222656" stroke-width="2" fill="none" stroke="rgb(0, 0, 0)" stroke-opacity="1.0" stroke-linecap="round" stroke-linejoin="round"/>
    <path d="M 113.5886001586914 138.6709442138672 C 244.55465698242188 148.16822814941406 -21.540634155273438 175.21072387695312 54.18437194824219 110.77719116210938" stroke-width="2" fill="none" stroke="rgb(0, 0, 0)" stroke-opacity="1.0" stroke-linecap="round" stroke-linejoin="round"/>
    <path d="M 164.14552307128906 145.12307739257812 C 203.98117065429688 162.15919494628906 39.94696044921875 76.24046325683594 142.9513397216797 118.00794219970703" stroke-width="2" fill="none" stroke="rgb(0, 0, 0)" stroke-opacity="1.0" stroke-linecap="round" stroke-linejoin="round"/>
    <path d="M 154.3948974609375 138.47303771972656 C 144.99075317382812 121.623291015625 110.71210479736328 140.71278381347656 137.10243225097656 131.2004852294922" stroke-width="2" fill="none" stroke="rgb(0, 0, 0)" stroke-opacity="1.0" stroke-linecap="round" stroke-linejoin="round"/>
    <path d="M 156.47203063964844 87.54830169677734 C 236.21986389160156 14.844744682312012 130.75772094726562 127.50249481201172 174.08790588378906 100.70899963378906" stroke-width="2" fill="none" stroke="rgb(0, 0, 0)" stroke-opacity="1.0" stroke-linecap="round" stroke-linejoin="round"/>
    <path d="M 124.97474670410156 146.1995391845703 C 147.88076782226562 145.32740783691406 179.5463104248047 148.29014587402344 80.00939178466797 144.74806213378906" stroke-width="2" fill="none" stroke="rgb(0, 0, 0)" stroke-opacity="1.0" stroke-linecap="round" stroke-linejoin="round"/>
    <path d="M 97.87371063232422 112.38926696777344 C 164.99009704589844 164.78463745117188 67.52369689941406 108.25691223144531 135.46775817871094 108.2323989868164" stroke-width="2" fill="none" stroke="rgb(0, 0, 0)" stroke-opacity="1.0" stroke-linecap="round" stroke-linejoin="round"/>
    <path d="M 143.84779357910156 106.19505310058594 C 108.45706939697266 146.82073974609375 79.46271514892578 31.304840087890625 109.57524871826172 83.17294311523438" stroke-width="2" fill="none" stroke="rgb(0, 0, 0)" stroke-opacity="1.0" stroke-linecap="round" stroke-linejoin="round"/>
    <path d="M 160.99679565429688 125.85367584228516 C 131.16567993164062 117.24020385742188 168.71527099609375 145.6732635498047 185.43128967285156 69.30050659179688" stroke-width="2" fill="none" stroke="rgb(0, 0, 0)" stroke-opacity="1.0" stroke-linecap="round" stroke-linejoin="round"/>
    <path d="M 73.46175384521484 126.68605041503906 C 87.60499572753906 144.78683471679688 37.402381896972656 117.7873306274414 94.88410186767578 148.1319122314453" stroke-width="2" fill="none" stroke="rgb(0, 0, 0)" stroke-opacity="1.0" stroke-linecap="round" stroke-linejoin="round"/>
  </g>
</svg>
