<?xml version="1.0" ?>
<svg xmlns="http://www.w3.org/2000/svg" version="1.1" width="224" height="224">
  <defs/>
  <g>
    <path d="M 41.55894470214844 118.41554260253906 C 66.10322570800781 111.47784423828125 40.86398696899414 83.18685913085938 110.6907958984375 98.83736419677734" stroke-width="2" fill="none" stroke="rgb(0, 0, 0)" stroke-opacity="1.0" stroke-linecap="round" stroke-linejoin="round"/>
    <path d="M 112.29026794433594 113.72879791259766 C 202.5513458251953 134.21302795410156 167.49755859375 153.69036865234375 181.20523071289062 141.86798095703125" stroke-width="2" fill="none" stroke="rgb(0, 0, 0)" stroke-opacity="1.0" stroke-linecap="round" stroke-linejoin="round"/>
    <path d="M 137.2285614013672 115.80009460449219 C 68.96771240234375 100.71102142333984 161.67178344726562 167.82086181640625 93.47306823730469 126.93366241455078" stroke-width="2" fill="none" stroke="rgb(0, 0, 0)" stroke-opacity="1.0" stroke-linecap="round" stroke-linejoin="round"/>
    <path d="M 150.58457946777344 95.16065216064453 C 215.81283569335938 107.28446960449219 101.98233795166016 98.09268188476562 167.61163330078125 108.00809478759766" stroke-width="2" fill="none" stroke="rgb(0, 0, 0)" stroke-opacity="1.0" stroke-linecap="round" stroke-linejoin="round"/>
    <path d="M 121.01603698730469 95.82245635986328 C 106.81932830810547 106.07062530517578 89.16151428222656 37.892154693603516 98.3274917602539 94.18307495117188" stroke-width="2" fill="none" stroke="rgb(0, 0, 0)" stroke-opacity="1.0" stroke-linecap="round" stroke-linejoin="round"/>
    <path d="M 127.18177795410156 85.77190399169922 C 160.61444091796875 67.98426818847656 156.233154296875 116.54446411132812 154.99789428710938 93.58687591552734" stroke-width="2" fill="none" stroke="rgb(0, 0, 0)" stroke-opacity="1.0" stroke-linecap="round" stroke-linejoin="round"/>
    <path d="M 154.70965576171875 107.5229263305664 C 86.69317626953125 124.4164047241211 161.4085235595703 103.7553482055664 130.5374755859375 104.76512145996094" stroke-width="2" fill="none" stroke="rgb(0, 0, 0)" stroke-opacity="1.0" stroke-linecap="round" stroke-linejoin="round"/>
    <path d="M 89.728271484375 131.30335998535156 C 281.7926025390625 140.59068298339844 -24.772472381591797 193.56466674804688 50.51062774658203 112.02235412597656" stroke-width="2" fill="none" stroke="rgb(0, 0, 0)" stroke-opacity="1.0" stroke-linecap="round" stroke-linejoin="round"/>
    <path d="M 176.81617736816406 137.2676239013672 C 214.0247802734375 151.83120727539062 27.061098098754883 71.34877014160156 144.52346801757812 119.00273895263672" stroke-width="2" fill="none" stroke="rgb(0, 0, 0)" stroke-opacity="1.0" stroke-linecap="round" stroke-linejoin="round"/>
    <path d="M 124.6160659790039 130.49948120117188 C 181.5723114013672 125.45938873291016 114.92133331298828 130.17022705078125 146.2686767578125 112.79045867919922" stroke-width="2" fill="none" stroke="rgb(0, 0, 0)" stroke-opacity="1.0" stroke-linecap="round" stroke-linejoin="round"/>
    <path d="M 170.66525268554688 89.76582336425781 C 228.5322265625 25.39037322998047 106.74232482910156 123.35379028320312 173.6490020751953 76.15660858154297" stroke-width="2" fill="none" stroke="rgb(0, 0, 0)" stroke-opacity="1.0" stroke-linecap="round" stroke-linejoin="round"/>
    <path d="M 163.91455078125 140.0306854248047 C 207.08416748046875 152.1752166748047 204.15589904785156 154.17807006835938 48.23603820800781 144.0757293701172" stroke-width="2" fill="none" stroke="rgb(0, 0, 0)" stroke-opacity="1.0" stroke-linecap="round" stroke-linejoin="round"/>
    <path d="M 127.10078430175781 123.17073822021484 C 223.56878662109375 131.61026000976562 79.71598815917969 124.02716827392578 142.90933227539062 120.21833801269531" stroke-width="2" fill="none" stroke="rgb(0, 0, 0)" stroke-opacity="1.0" stroke-linecap="round" stroke-linejoin="round"/>
    <path d="M 104.35162353515625 105.5557632446289 C 142.29454040527344 136.47328186035156 49.556739807128906 28.631710052490234 123.87833404541016 85.13432312011719" stroke-width="2" fill="none" stroke="rgb(0, 0, 0)" stroke-opacity="1.0" stroke-linecap="round" stroke-linejoin="round"/>
    <path d="M 177.79029846191406 94.30374908447266 C 138.6869354248047 105.43815612792969 169.04745483398438 139.81829833984375 186.9503936767578 71.76041412353516" stroke-width="2" fill="none" stroke="rgb(0, 0, 0)" stroke-opacity="1.0" stroke-linecap="round" stroke-linejoin="round"/>
    <path d="M 53.032798767089844 133.5218048095703 C 73.78932189941406 131.74253845214844 30.73406982421875 122.03166198730469 79.56138610839844 145.5546417236328" stroke-width="2" fill="none" stroke="rgb(0, 0, 0)" stroke-opacity="1.0" stroke-linecap="round" stroke-linejoin="round"/>
  </g>
</svg>
