<?xml version="1.0" ?>
<svg xmlns="http://www.w3.org/2000/svg" version="1.1" width="224" height="224">
  <defs/>
  <g>
    <path d="M 37.62762451171875 119.2591781616211 C 63.987483978271484 117.43895721435547 22.271404266357422 84.95855712890625 120.53347778320312 99.62720489501953" stroke-width="2" fill="none" stroke="rgb(0, 0, 0)" stroke-opacity="1.0" stroke-linecap="round" stroke-linejoin="round"/>
    <path d="M 116.79757690429688 141.43429565429688 C 199.8852081298828 141.69198608398438 179.16171264648438 170.53604125976562 144.5821533203125 148.64706420898438" stroke-width="2" fill="none" stroke="rgb(0, 0, 0)" stroke-opacity="1.0" stroke-linecap="round" stroke-linejoin="round"/>
    <path d="M 134.81651306152344 103.1690902709961 C 101.01348114013672 113.28553771972656 184.51329040527344 105.29305267333984 116.15570068359375 113.42236328125" stroke-width="2" fill="none" stroke="rgb(0, 0, 0)" stroke-opacity="1.0" stroke-linecap="round" stroke-linejoin="round"/>
    <path d="M 153.25735473632812 99.33261108398438 C 185.60186767578125 108.3359146118164 126.20492553710938 76.44178009033203 161.49642944335938 92.92779541015625" stroke-width="2" fill="none" stroke="rgb(0, 0, 0)" stroke-opacity="1.0" stroke-linecap="round" stroke-linejoin="round"/>
    <path d="M 126.97852325439453 87.52397155761719 C 119.28373718261719 93.0955581665039 72.03024291992188 22.049121856689453 119.5680160522461 115.695068359375" stroke-width="2" fill="none" stroke="rgb(0, 0, 0)" stroke-opacity="1.0" stroke-linecap="round" stroke-linejoin="round"/>
    <path d="M 128.26808166503906 92.30854034423828 C 123.23229217529297 79.79698944091797 182.4309539794922 91.1343765258789 154.79100036621094 85.64604187011719" stroke-width="2" fill="none" stroke="rgb(0, 0, 0)" stroke-opacity="1.0" stroke-linecap="round" stroke-linejoin="round"/>
    <path d="M 132.8180694580078 119.2336196899414 C 86.76832580566406 125.02977752685547 172.234130859375 127.48077392578125 130.1595458984375 105.13603973388672" stroke-width="2" fill="none" stroke="rgb(0, 0, 0)" stroke-opacity="1.0" stroke-linecap="round" stroke-linejoin="round"/>
    <path d="M 105.73323059082031 140.14093017578125 C 206.92811584472656 157.79469299316406 -30.324752807617188 166.8579559326172 56.14096450805664 111.2545394897461" stroke-width="2" fill="none" stroke="rgb(0, 0, 0)" stroke-opacity="1.0" stroke-linecap="round" stroke-linejoin="round"/>
    <path d="M 161.5880126953125 128.708251953125 C 207.94273376464844 156.95936584472656 37.72932052612305 80.82071685791016 133.6821746826172 113.11272430419922" stroke-width="2" fill="none" stroke="rgb(0, 0, 0)" stroke-opacity="1.0" stroke-linecap="round" stroke-linejoin="round"/>
    <path d="M 164.8616180419922 132.23495483398438 C 177.30482482910156 128.54200744628906 93.42853546142578 143.46127319335938 145.57736206054688 115.12779235839844" stroke-width="2" fill="none" stroke="rgb(0, 0, 0)" stroke-opacity="1.0" stroke-linecap="round" stroke-linejoin="round"/>
    <path d="M 154.576171875 87.7112045288086 C 222.76046752929688 24.517122268676758 147.13096618652344 116.73572540283203 166.7106170654297 89.41036224365234" stroke-width="2" fill="none" stroke="rgb(0, 0, 0)" stroke-opacity="1.0" stroke-linecap="round" stroke-linejoin="round"/>
    <path d="M 130.18038940429688 150.0919189453125 C 136.59024047851562 153.7195587158203 171.6375274658203 147.3376007080078 119.01891326904297 148.1756134033203" stroke-width="2" fill="none" stroke="rgb(0, 0, 0)" stroke-opacity="1.0" stroke-linecap="round" stroke-linejoin="round"/>
    <path d="M 97.90857696533203 106.18077850341797 C 139.5516357421875 173.12254333496094 67.90325164794922 79.16033935546875 132.58740234375 117.54473876953125" stroke-width="2" fill="none" stroke="rgb(0, 0, 0)" stroke-opacity="1.0" stroke-linecap="round" stroke-linejoin="round"/>
    <path d="M 133.9701690673828 109.18363189697266 C 101.67753601074219 146.34461975097656 111.49790954589844 43.19186782836914 105.36103820800781 95.29430389404297" stroke-width="2" fill="none" stroke="rgb(0, 0, 0)" stroke-opacity="1.0" stroke-linecap="round" stroke-linejoin="round"/>
    <path d="M 163.48951721191406 110.30093383789062 C 132.51605224609375 102.34868621826172 162.86294555664062 144.19956970214844 184.5245361328125 66.02498626708984" stroke-width="2" fill="none" stroke="rgb(0, 0, 0)" stroke-opacity="1.0" stroke-linecap="round" stroke-linejoin="round"/>
    <path d="M 85.81732177734375 137.515625 C 102.88926696777344 152.86431884765625 54.506221771240234 130.2931671142578 99.18305969238281 144.7736053466797" stroke-width="2" fill="none" stroke="rgb(0, 0, 0)" stroke-opacity="1.0" stroke-linecap="round" stroke-linejoin="round"/>
  </g>
</svg>
