<?xml version="1.0" ?>
<svg xmlns="http://www.w3.org/2000/svg" version="1.1" width="224" height="224">
  <defs/>
  <g>
    <path d="M 50.737220764160156 101.36710357666016 C 55.00288772583008 103.10475158691406 111.43695831298828 68.572021484375 109.65076446533203 121.20262145996094" stroke-width="2" fill="none" stroke="rgb(0, 0, 0)" stroke-opacity="1.0" stroke-linecap="round" stroke-linejoin="round"/>
    <path d="M 147.75732421875 148.56321716308594 C 181.250244140625 147.16525268554688 164.17999267578125 165.01617431640625 176.9334259033203 146.89935302734375" stroke-width="2" fill="none" stroke="rgb(0, 0, 0)" stroke-opacity="1.0" stroke-linecap="round" stroke-linejoin="round"/>
    <path d="M 133.29324340820312 133.9860382080078 C 57.04157257080078 110.76351928710938 296.025390625 162.1961669921875 119.08268737792969 151.0648651123047" stroke-width="2" fill="none" stroke="rgb(0, 0, 0)" stroke-opacity="1.0" stroke-linecap="round" stroke-linejoin="round"/>
    <path d="M 148.23390197753906 105.6443862915039 C 170.95416259765625 104.0840835571289 121.16165161132812 120.18315887451172 178.98912048339844 101.72826385498047" stroke-width="2" fill="none" stroke="rgb(0, 0, 0)" stroke-opacity="1.0" stroke-linecap="round" stroke-linejoin="round"/>
    <path d="M 138.52566528320312 88.62256622314453 C 106.44245910644531 93.76207733154297 91.10111236572266 29.92405128479004 101.38617706298828 99.16753387451172" stroke-width="2" fill="none" stroke="rgb(0, 0, 0)" stroke-opacity="1.0" stroke-linecap="round" stroke-linejoin="round"/>
    <path d="M 142.4906005859375 88.33728790283203 C 154.43505859375 75.68983459472656 173.1347198486328 132.66192626953125 144.96531677246094 108.58956909179688" stroke-width="2" fill="none" stroke="rgb(0, 0, 0)" stroke-opacity="1.0" stroke-linecap="round" stroke-linejoin="round"/>
    <path d="M 124.46227264404297 93.34398651123047 C 80.55030059814453 114.16844177246094 173.88504028320312 99.50151062011719 117.72627258300781 110.57514190673828" stroke-width="2" fill="none" stroke="rgb(0, 0, 0)" stroke-opacity="1.0" stroke-linecap="round" stroke-linejoin="round"/>
    <path d="M 137.15098571777344 154.8516387939453 C 244.5534210205078 140.8287811279297 -35.734554290771484 196.3800048828125 64.32339477539062 92.83966064453125" stroke-width="2" fill="none" stroke="rgb(0, 0, 0)" stroke-opacity="1.0" stroke-linecap="round" stroke-linejoin="round"/>
    <path d="M 108.74720764160156 107.35618591308594 C 192.383056640625 144.07508850097656 101.95276641845703 119.20713806152344 129.2281036376953 108.00814819335938" stroke-width="2" fill="none" stroke="rgb(0, 0, 0)" stroke-opacity="1.0" stroke-linecap="round" stroke-linejoin="round"/>
    <path d="M 112.48039245605469 97.57146453857422 C 186.59542846679688 137.03762817382812 -71.2127456665039 103.04850006103516 153.84776306152344 119.89179229736328" stroke-width="2" fill="none" stroke="rgb(0, 0, 0)" stroke-opacity="1.0" stroke-linecap="round" stroke-linejoin="round"/>
    <path d="M 155.6360321044922 83.32556915283203 C 227.56033325195312 23.66920280456543 148.55490112304688 148.19137573242188 167.97406005859375 109.3105239868164" stroke-width="2" fill="none" stroke="rgb(0, 0, 0)" stroke-opacity="1.0" stroke-linecap="round" stroke-linejoin="round"/>
    <path d="M 146.4201202392578 133.89797973632812 C 142.38897705078125 134.50607299804688 188.96726989746094 139.50936889648438 171.4962158203125 137.94696044921875" stroke-width="2" fill="none" stroke="rgb(0, 0, 0)" stroke-opacity="1.0" stroke-linecap="round" stroke-linejoin="round"/>
    <path d="M 133.12391662597656 118.46047973632812 C 177.83580017089844 132.92129516601562 121.80155944824219 111.76130676269531 139.98336791992188 113.29492950439453" stroke-width="2" fill="none" stroke="rgb(0, 0, 0)" stroke-opacity="1.0" stroke-linecap="round" stroke-linejoin="round"/>
    <path d="M 136.23736572265625 116.32242584228516 C 163.47091674804688 167.01968383789062 50.79305648803711 25.13128662109375 125.72802734375 78.59772491455078" stroke-width="2" fill="none" stroke="rgb(0, 0, 0)" stroke-opacity="1.0" stroke-linecap="round" stroke-linejoin="round"/>
    <path d="M 169.98855590820312 92.27552032470703 C 144.33290100097656 80.94976043701172 163.99786376953125 123.50936126708984 187.57630920410156 67.07060241699219" stroke-width="2" fill="none" stroke="rgb(0, 0, 0)" stroke-opacity="1.0" stroke-linecap="round" stroke-linejoin="round"/>
    <path d="M 143.44300842285156 134.67807006835938 C 144.13583374023438 151.33291625976562 50.1822509765625 94.74861907958984 82.52787017822266 109.76155090332031" stroke-width="2" fill="none" stroke="rgb(0, 0, 0)" stroke-opacity="1.0" stroke-linecap="round" stroke-linejoin="round"/>
  </g>
</svg>
