<?xml version="1.0" ?>
<svg xmlns="http://www.w3.org/2000/svg" version="1.1" width="224" height="224">
  <defs/>
  <g>
    <path d="M 41.08183288574219 123.36720275878906 C 73.08145904541016 80.47401428222656 69.75234985351562 102.77996826171875 97.4690170288086 97.80902099609375" stroke-width="2" fill="none" stroke="rgb(0, 0, 0)" stroke-opacity="1.0" stroke-linecap="round" stroke-linejoin="round"/>
    <path d="M 50.99061965942383 150.27528381347656 C 217.29010009765625 166.80352783203125 194.4940948486328 135.91380310058594 152.5074005126953 143.5371551513672" stroke-width="2" fill="none" stroke="rgb(0, 0, 0)" stroke-opacity="1.0" stroke-linecap="round" stroke-linejoin="round"/>
    <path d="M 139.85934448242188 105.23705291748047 C 104.29185485839844 104.39978790283203 184.00619506835938 117.09530639648438 129.76951599121094 115.24922943115234" stroke-width="2" fill="none" stroke="rgb(0, 0, 0)" stroke-opacity="1.0" stroke-linecap="round" stroke-linejoin="round"/>
    <path d="M 159.7067413330078 95.94890594482422 C 151.34518432617188 144.2498016357422 182.18789672851562 81.1569595336914 159.9385223388672 128.60208129882812" stroke-width="2" fill="none" stroke="rgb(0, 0, 0)" stroke-opacity="1.0" stroke-linecap="round" stroke-linejoin="round"/>
    <path d="M 103.26180267333984 101.35286712646484 C 134.6974639892578 118.91802215576172 60.99713897705078 38.856998443603516 123.53290557861328 85.28864288330078" stroke-width="2" fill="none" stroke="rgb(0, 0, 0)" stroke-opacity="1.0" stroke-linecap="round" stroke-linejoin="round"/>
    <path d="M 143.1959228515625 85.69055938720703 C 78.17847442626953 88.51033020019531 175.18402099609375 114.30648803710938 106.95024871826172 69.89501953125" stroke-width="2" fill="none" stroke="rgb(0, 0, 0)" stroke-opacity="1.0" stroke-linecap="round" stroke-linejoin="round"/>
    <path d="M 114.37935638427734 138.3259735107422 C 100.32099914550781 101.58439636230469 137.86227416992188 157.9912109375 121.52140808105469 117.3078384399414" stroke-width="2" fill="none" stroke="rgb(0, 0, 0)" stroke-opacity="1.0" stroke-linecap="round" stroke-linejoin="round"/>
    <path d="M 36.433509826660156 141.52783203125 C 71.1338882446289 161.0650177001953 32.614356994628906 145.99937438964844 38.964351654052734 129.80087280273438" stroke-width="2" fill="none" stroke="rgb(0, 0, 0)" stroke-opacity="1.0" stroke-linecap="round" stroke-linejoin="round"/>
    <path d="M 116.67657470703125 126.48322296142578 C 218.33837890625 155.20021057128906 46.849246978759766 115.40507507324219 155.78485107421875 121.08845520019531" stroke-width="2" fill="none" stroke="rgb(0, 0, 0)" stroke-opacity="1.0" stroke-linecap="round" stroke-linejoin="round"/>
    <path d="M 160.1497039794922 85.85755157470703 C 209.6803436279297 79.52330780029297 103.85871887207031 132.01930236816406 141.67596435546875 106.6475830078125" stroke-width="2" fill="none" stroke="rgb(0, 0, 0)" stroke-opacity="1.0" stroke-linecap="round" stroke-linejoin="round"/>
    <path d="M 167.35360717773438 91.30387115478516 C 205.6678466796875 21.25596809387207 161.03533935546875 97.00489807128906 148.86044311523438 86.20045471191406" stroke-width="2" fill="none" stroke="rgb(0, 0, 0)" stroke-opacity="1.0" stroke-linecap="round" stroke-linejoin="round"/>
    <path d="M 171.9888153076172 155.46578979492188 C 84.86327362060547 139.74359130859375 204.86293029785156 169.0232696533203 162.45468139648438 147.52520751953125" stroke-width="2" fill="none" stroke="rgb(0, 0, 0)" stroke-opacity="1.0" stroke-linecap="round" stroke-linejoin="round"/>
    <path d="M 89.98712158203125 110.68824005126953 C 144.2037353515625 143.0118865966797 65.5157241821289 81.57444763183594 128.95797729492188 141.4144744873047" stroke-width="2" fill="none" stroke="rgb(0, 0, 0)" stroke-opacity="1.0" stroke-linecap="round" stroke-linejoin="round"/>
    <path d="M 138.1260986328125 104.08958435058594 C 120.4568862915039 148.11752319335938 68.64608764648438 16.696178436279297 119.95832061767578 100.21427154541016" stroke-width="2" fill="none" stroke="rgb(0, 0, 0)" stroke-opacity="1.0" stroke-linecap="round" stroke-linejoin="round"/>
    <path d="M 165.2172393798828 110.01285552978516 C 123.18289947509766 76.41157531738281 177.8130340576172 153.90281677246094 183.4266815185547 63.0882453918457" stroke-width="2" fill="none" stroke="rgb(0, 0, 0)" stroke-opacity="1.0" stroke-linecap="round" stroke-linejoin="round"/>
    <path d="M 38.89483642578125 117.12732696533203 C 59.00992202758789 102.93122863769531 14.207427024841309 123.89775848388672 59.68168640136719 108.54396057128906" stroke-width="2" fill="none" stroke="rgb(0, 0, 0)" stroke-opacity="1.0" stroke-linecap="round" stroke-linejoin="round"/>
  </g>
</svg>
