<?xml version="1.0" ?>
<svg xmlns="http://www.w3.org/2000/svg" version="1.1" width="224" height="224">
  <defs/>
  <g>
    <path d="M 54.06295394897461 103.12787628173828 C 65.67362213134766 101.02621459960938 117.82062530517578 77.19361114501953 109.23200225830078 121.27630615234375" stroke-width="2" fill="none" stroke="rgb(0, 0, 0)" stroke-opacity="1.0" stroke-linecap="round" stroke-linejoin="round"/>
    <path d="M 130.79412841796875 152.2163848876953 C 222.3015594482422 134.39454650878906 191.93629455566406 160.95001220703125 204.54342651367188 150.25550842285156" stroke-width="2" fill="none" stroke="rgb(0, 0, 0)" stroke-opacity="1.0" stroke-linecap="round" stroke-linejoin="round"/>
    <path d="M 129.05308532714844 109.87378692626953 C 51.2510871887207 109.27493286132812 339.59869384765625 154.1925048828125 119.88213348388672 145.71197509765625" stroke-width="2" fill="none" stroke="rgb(0, 0, 0)" stroke-opacity="1.0" stroke-linecap="round" stroke-linejoin="round"/>
    <path d="M 160.66012573242188 97.34883880615234 C 184.66226196289062 113.26869201660156 124.12529754638672 87.42130279541016 171.82281494140625 83.55209350585938" stroke-width="2" fill="none" stroke="rgb(0, 0, 0)" stroke-opacity="1.0" stroke-linecap="round" stroke-linejoin="round"/>
    <path d="M 141.1465606689453 86.15520477294922 C 125.42023468017578 102.65283203125 89.90532684326172 31.19295883178711 101.60636138916016 91.25617218017578" stroke-width="2" fill="none" stroke="rgb(0, 0, 0)" stroke-opacity="1.0" stroke-linecap="round" stroke-linejoin="round"/>
    <path d="M 127.46825408935547 88.13864135742188 C 190.29327392578125 74.42491912841797 137.34320068359375 140.39358520507812 164.71542358398438 99.66140747070312" stroke-width="2" fill="none" stroke="rgb(0, 0, 0)" stroke-opacity="1.0" stroke-linecap="round" stroke-linejoin="round"/>
    <path d="M 135.97775268554688 108.91499328613281 C 103.52519226074219 99.1137466430664 167.19854736328125 90.55343627929688 112.43075561523438 111.07913208007812" stroke-width="2" fill="none" stroke="rgb(0, 0, 0)" stroke-opacity="1.0" stroke-linecap="round" stroke-linejoin="round"/>
    <path d="M 163.41517639160156 134.5615997314453 C 280.5791931152344 139.69439697265625 -28.28392219543457 188.57455444335938 59.09812545776367 102.54280090332031" stroke-width="2" fill="none" stroke="rgb(0, 0, 0)" stroke-opacity="1.0" stroke-linecap="round" stroke-linejoin="round"/>
    <path d="M 120.1117935180664 117.05525970458984 C 201.92239379882812 142.25860595703125 82.2956771850586 90.50790405273438 127.36980438232422 96.00033569335938" stroke-width="2" fill="none" stroke="rgb(0, 0, 0)" stroke-opacity="1.0" stroke-linecap="round" stroke-linejoin="round"/>
    <path d="M 120.63562774658203 112.242431640625 C 207.39474487304688 108.77617645263672 61.644981384277344 122.32231903076172 146.27029418945312 110.23815155029297" stroke-width="2" fill="none" stroke="rgb(0, 0, 0)" stroke-opacity="1.0" stroke-linecap="round" stroke-linejoin="round"/>
    <path d="M 168.33201599121094 90.20243835449219 C 224.45297241210938 8.560190200805664 119.06542205810547 128.08436584472656 180.0540008544922 64.10037231445312" stroke-width="2" fill="none" stroke="rgb(0, 0, 0)" stroke-opacity="1.0" stroke-linecap="round" stroke-linejoin="round"/>
    <path d="M 157.9622802734375 138.2954559326172 C 187.06637573242188 129.2074737548828 158.88980102539062 138.8634490966797 160.59619140625 134.08094787597656" stroke-width="2" fill="none" stroke="rgb(0, 0, 0)" stroke-opacity="1.0" stroke-linecap="round" stroke-linejoin="round"/>
    <path d="M 154.76809692382812 118.69249725341797 C 176.8976593017578 106.52947998046875 127.14024353027344 94.70597076416016 154.13589477539062 100.14356231689453" stroke-width="2" fill="none" stroke="rgb(0, 0, 0)" stroke-opacity="1.0" stroke-linecap="round" stroke-linejoin="round"/>
    <path d="M 139.5980987548828 124.88483428955078 C 187.04238891601562 176.00601196289062 61.52617263793945 10.243450164794922 106.92166137695312 94.53357696533203" stroke-width="2" fill="none" stroke="rgb(0, 0, 0)" stroke-opacity="1.0" stroke-linecap="round" stroke-linejoin="round"/>
    <path d="M 170.45364379882812 98.46294403076172 C 135.98863220214844 107.05420684814453 175.69271850585938 135.62721252441406 184.60733032226562 65.57855987548828" stroke-width="2" fill="none" stroke="rgb(0, 0, 0)" stroke-opacity="1.0" stroke-linecap="round" stroke-linejoin="round"/>
    <path d="M 169.61607360839844 149.5444793701172 C 151.45013427734375 171.52362060546875 61.29359817504883 106.74202728271484 95.94257354736328 124.78108215332031" stroke-width="2" fill="none" stroke="rgb(0, 0, 0)" stroke-opacity="1.0" stroke-linecap="round" stroke-linejoin="round"/>
  </g>
</svg>
