<?xml version="1.0" ?>
<svg xmlns="http://www.w3.org/2000/svg" version="1.1" width="224" height="224">
  <defs/>
  <g>
    <path d="M 40.47334289550781 120.8929672241211 C 71.27848815917969 86.59813690185547 71.39691162109375 100.5095443725586 92.74552917480469 93.9511489868164" stroke-width="2" fill="none" stroke="rgb(0, 0, 0)" stroke-opacity="1.0" stroke-linecap="round" stroke-linejoin="round"/>
    <path d="M 47.19919204711914 147.59043884277344 C 204.31240844726562 174.37379455566406 188.3366241455078 127.77857971191406 174.18203735351562 151.45457458496094" stroke-width="2" fill="none" stroke="rgb(0, 0, 0)" stroke-opacity="1.0" stroke-linecap="round" stroke-linejoin="round"/>
    <path d="M 166.4581756591797 135.5072784423828 C 53.56587219238281 91.8569564819336 116.57637786865234 128.57476806640625 99.27305603027344 110.83631134033203" stroke-width="2" fill="none" stroke="rgb(0, 0, 0)" stroke-opacity="1.0" stroke-linecap="round" stroke-linejoin="round"/>
    <path d="M 158.09193420410156 121.03031158447266 C 132.13230895996094 113.84439849853516 179.0243682861328 115.65438079833984 151.3614501953125 118.67292022705078" stroke-width="2" fill="none" stroke="rgb(0, 0, 0)" stroke-opacity="1.0" stroke-linecap="round" stroke-linejoin="round"/>
    <path d="M 146.6681671142578 110.85118103027344 C 90.888671875 149.7359619140625 130.1175537109375 67.73095703125 156.27377319335938 99.36344146728516" stroke-width="2" fill="none" stroke="rgb(0, 0, 0)" stroke-opacity="1.0" stroke-linecap="round" stroke-linejoin="round"/>
    <path d="M 169.1527099609375 90.36625671386719 C 20.19892120361328 90.38102722167969 183.46749877929688 120.35823059082031 110.1762924194336 82.41902160644531" stroke-width="2" fill="none" stroke="rgb(0, 0, 0)" stroke-opacity="1.0" stroke-linecap="round" stroke-linejoin="round"/>
    <path d="M 122.62753295898438 118.36919403076172 C 97.966796875 124.5058364868164 119.86968231201172 100.41934967041016 102.87850952148438 80.82708740234375" stroke-width="2" fill="none" stroke="rgb(0, 0, 0)" stroke-opacity="1.0" stroke-linecap="round" stroke-linejoin="round"/>
    <path d="M 44.176856994628906 142.64515686035156 C 76.54210662841797 158.50656127929688 32.251399993896484 146.6438751220703 39.1233024597168 129.4017791748047" stroke-width="2" fill="none" stroke="rgb(0, 0, 0)" stroke-opacity="1.0" stroke-linecap="round" stroke-linejoin="round"/>
    <path d="M 137.60362243652344 124.8788070678711 C 182.17822265625 160.07980346679688 94.04988861083984 97.83698272705078 142.94081115722656 140.2899932861328" stroke-width="2" fill="none" stroke="rgb(0, 0, 0)" stroke-opacity="1.0" stroke-linecap="round" stroke-linejoin="round"/>
    <path d="M 155.0058135986328 108.5370101928711 C 178.03421020507812 117.25108337402344 99.64759826660156 107.73481750488281 139.96908569335938 120.06071472167969" stroke-width="2" fill="none" stroke="rgb(0, 0, 0)" stroke-opacity="1.0" stroke-linecap="round" stroke-linejoin="round"/>
    <path d="M 167.00021362304688 112.56690979003906 C 190.2963409423828 28.561758041381836 177.7975311279297 65.91337585449219 148.41824340820312 91.87501525878906" stroke-width="2" fill="none" stroke="rgb(0, 0, 0)" stroke-opacity="1.0" stroke-linecap="round" stroke-linejoin="round"/>
    <path d="M 163.86940002441406 157.0043182373047 C 109.11894989013672 161.9058074951172 203.87997436523438 117.89729309082031 153.30218505859375 131.49220275878906" stroke-width="2" fill="none" stroke="rgb(0, 0, 0)" stroke-opacity="1.0" stroke-linecap="round" stroke-linejoin="round"/>
    <path d="M 66.97888946533203 130.5943603515625 C 85.62953186035156 143.52235412597656 52.6795539855957 135.0513153076172 149.03021240234375 148.22935485839844" stroke-width="2" fill="none" stroke="rgb(0, 0, 0)" stroke-opacity="1.0" stroke-linecap="round" stroke-linejoin="round"/>
    <path d="M 144.4541473388672 136.68934631347656 C 96.78181457519531 110.66064453125 76.29310607910156 23.88836669921875 122.42801666259766 106.46153259277344" stroke-width="2" fill="none" stroke="rgb(0, 0, 0)" stroke-opacity="1.0" stroke-linecap="round" stroke-linejoin="round"/>
    <path d="M 175.99420166015625 94.74771118164062 C 152.29928588867188 101.06183624267578 186.45664978027344 124.1753158569336 182.9799346923828 62.19241714477539" stroke-width="2" fill="none" stroke="rgb(0, 0, 0)" stroke-opacity="1.0" stroke-linecap="round" stroke-linejoin="round"/>
    <path d="M 80.39559936523438 115.81292724609375 C 73.24175262451172 93.43096923828125 5.182507038116455 130.1173553466797 65.81831359863281 100.9984359741211" stroke-width="2" fill="none" stroke="rgb(0, 0, 0)" stroke-opacity="1.0" stroke-linecap="round" stroke-linejoin="round"/>
  </g>
</svg>
