<?xml version="1.0" ?>
<svg xmlns="http://www.w3.org/2000/svg" version="1.1" width="224" height="224">
  <defs/>
  <g>
    <path d="M 41.828304290771484 121.26359558105469 C 72.65487670898438 87.87881469726562 77.25528717041016 99.84062957763672 92.21442413330078 94.0152816772461" stroke-width="2" fill="none" stroke="rgb(0, 0, 0)" stroke-opacity="1.0" stroke-linecap="round" stroke-linejoin="round"/>
    <path d="M 49.724205017089844 140.11410522460938 C 213.32778930664062 176.12644958496094 190.9711456298828 121.98841857910156 155.541015625 152.46681213378906" stroke-width="2" fill="none" stroke="rgb(0, 0, 0)" stroke-opacity="1.0" stroke-linecap="round" stroke-linejoin="round"/>
    <path d="M 143.12142944335938 124.83477783203125 C 116.11214447021484 99.92133331298828 170.56690979003906 157.54737854003906 127.19097137451172 115.83329772949219" stroke-width="2" fill="none" stroke="rgb(0, 0, 0)" stroke-opacity="1.0" stroke-linecap="round" stroke-linejoin="round"/>
    <path d="M 158.91163635253906 110.83914184570312 C 150.00674438476562 138.7786865234375 183.6299591064453 99.75425720214844 158.85723876953125 131.28543090820312" stroke-width="2" fill="none" stroke="rgb(0, 0, 0)" stroke-opacity="1.0" stroke-linecap="round" stroke-linejoin="round"/>
    <path d="M 131.91671752929688 107.35134887695312 C 103.95670318603516 129.30294799804688 143.1156005859375 71.92788696289062 160.60044860839844 99.49970245361328" stroke-width="2" fill="none" stroke="rgb(0, 0, 0)" stroke-opacity="1.0" stroke-linecap="round" stroke-linejoin="round"/>
    <path d="M 168.36001586914062 92.29412078857422 C 27.516441345214844 93.98875427246094 185.45693969726562 122.40428161621094 107.0227279663086 91.33930969238281" stroke-width="2" fill="none" stroke="rgb(0, 0, 0)" stroke-opacity="1.0" stroke-linecap="round" stroke-linejoin="round"/>
    <path d="M 106.13521575927734 109.22159576416016 C 105.49884796142578 127.07846069335938 113.42314147949219 101.2867202758789 88.38776397705078 108.88868713378906" stroke-width="2" fill="none" stroke="rgb(0, 0, 0)" stroke-opacity="1.0" stroke-linecap="round" stroke-linejoin="round"/>
    <path d="M 43.238182067871094 130.93235778808594 C 59.02552032470703 150.56076049804688 31.79393196105957 137.80369567871094 42.05596923828125 118.78534698486328" stroke-width="2" fill="none" stroke="rgb(0, 0, 0)" stroke-opacity="1.0" stroke-linecap="round" stroke-linejoin="round"/>
    <path d="M 118.07623291015625 135.3592987060547 C 217.01004028320312 150.71080017089844 99.03535461425781 132.88345336914062 150.34222412109375 132.21034240722656" stroke-width="2" fill="none" stroke="rgb(0, 0, 0)" stroke-opacity="1.0" stroke-linecap="round" stroke-linejoin="round"/>
    <path d="M 158.42376708984375 107.13815307617188 C 205.8641815185547 122.2824935913086 84.63751983642578 115.2505111694336 136.5540313720703 125.24800109863281" stroke-width="2" fill="none" stroke="rgb(0, 0, 0)" stroke-opacity="1.0" stroke-linecap="round" stroke-linejoin="round"/>
    <path d="M 162.49264526367188 97.39305114746094 C 203.29063415527344 31.580808639526367 173.45875549316406 83.12568664550781 156.3230743408203 85.6573486328125" stroke-width="2" fill="none" stroke="rgb(0, 0, 0)" stroke-opacity="1.0" stroke-linecap="round" stroke-linejoin="round"/>
    <path d="M 151.1022186279297 155.58599853515625 C 111.56393432617188 142.41824340820312 201.3080596923828 150.86767578125 173.9169158935547 146.31585693359375" stroke-width="2" fill="none" stroke="rgb(0, 0, 0)" stroke-opacity="1.0" stroke-linecap="round" stroke-linejoin="round"/>
    <path d="M 95.63035583496094 121.70034790039062 C 125.16931915283203 142.3089599609375 67.42898559570312 105.72634887695312 110.52015686035156 135.8570098876953" stroke-width="2" fill="none" stroke="rgb(0, 0, 0)" stroke-opacity="1.0" stroke-linecap="round" stroke-linejoin="round"/>
    <path d="M 144.83526611328125 131.0424346923828 C 108.84721374511719 124.01350402832031 72.25830841064453 30.49557113647461 129.28623962402344 89.08614349365234" stroke-width="2" fill="none" stroke="rgb(0, 0, 0)" stroke-opacity="1.0" stroke-linecap="round" stroke-linejoin="round"/>
    <path d="M 150.78909301757812 113.70020294189453 C 131.5117950439453 103.30975341796875 171.81517028808594 147.8628692626953 185.52357482910156 65.03265380859375" stroke-width="2" fill="none" stroke="rgb(0, 0, 0)" stroke-opacity="1.0" stroke-linecap="round" stroke-linejoin="round"/>
    <path d="M 81.34998321533203 102.8792724609375 C 51.858646392822266 89.27253723144531 14.305431365966797 144.05453491210938 69.87029266357422 96.07151794433594" stroke-width="2" fill="none" stroke="rgb(0, 0, 0)" stroke-opacity="1.0" stroke-linecap="round" stroke-linejoin="round"/>
  </g>
</svg>
