<?xml version="1.0" ?>
<svg xmlns="http://www.w3.org/2000/svg" version="1.1" width="224" height="224">
  <defs/>
  <g>
    <path d="M 44.789886474609375 123.22791290283203 C 78.77862548828125 80.37955474853516 67.05594635009766 100.17604064941406 91.66322326660156 93.67749786376953" stroke-width="2" fill="none" stroke="rgb(0, 0, 0)" stroke-opacity="1.0" stroke-linecap="round" stroke-linejoin="round"/>
    <path d="M 55.17538833618164 149.21337890625 C 218.38052368164062 166.2943572998047 187.9830780029297 136.93321228027344 156.1439208984375 142.32986450195312" stroke-width="2" fill="none" stroke="rgb(0, 0, 0)" stroke-opacity="1.0" stroke-linecap="round" stroke-linejoin="round"/>
    <path d="M 137.85813903808594 106.11042022705078 C 105.33061218261719 104.38162994384766 176.38058471679688 124.11561584472656 130.9650421142578 115.92396545410156" stroke-width="2" fill="none" stroke="rgb(0, 0, 0)" stroke-opacity="1.0" stroke-linecap="round" stroke-linejoin="round"/>
    <path d="M 159.17349243164062 102.21669006347656 C 149.95040893554688 144.62904357910156 181.6495819091797 81.255126953125 157.93104553222656 125.08624267578125" stroke-width="2" fill="none" stroke="rgb(0, 0, 0)" stroke-opacity="1.0" stroke-linecap="round" stroke-linejoin="round"/>
    <path d="M 109.09408569335938 100.37060546875 C 139.94789123535156 111.83409881591797 65.30281829833984 41.29001235961914 127.5319595336914 88.7459716796875" stroke-width="2" fill="none" stroke="rgb(0, 0, 0)" stroke-opacity="1.0" stroke-linecap="round" stroke-linejoin="round"/>
    <path d="M 135.7787322998047 85.65794372558594 C 67.50382232666016 86.21903228759766 167.9907989501953 110.63153076171875 101.3456802368164 76.49365997314453" stroke-width="2" fill="none" stroke="rgb(0, 0, 0)" stroke-opacity="1.0" stroke-linecap="round" stroke-linejoin="round"/>
    <path d="M 115.3768539428711 140.3109130859375 C 101.9505615234375 103.67747497558594 136.20794677734375 169.6569366455078 125.5265121459961 117.7497787475586" stroke-width="2" fill="none" stroke="rgb(0, 0, 0)" stroke-opacity="1.0" stroke-linecap="round" stroke-linejoin="round"/>
    <path d="M 41.71101760864258 141.32449340820312 C 73.7772216796875 158.61849975585938 31.936384201049805 148.43624877929688 41.93320083618164 125.84996032714844" stroke-width="2" fill="none" stroke="rgb(0, 0, 0)" stroke-opacity="1.0" stroke-linecap="round" stroke-linejoin="round"/>
    <path d="M 123.34229278564453 124.57323455810547 C 220.82400512695312 154.36976623535156 55.30755615234375 117.03028106689453 156.6315155029297 125.20311737060547" stroke-width="2" fill="none" stroke="rgb(0, 0, 0)" stroke-opacity="1.0" stroke-linecap="round" stroke-linejoin="round"/>
    <path d="M 157.91693115234375 89.44342041015625 C 211.1985321044922 79.4400405883789 106.88320922851562 135.38096618652344 138.12208557128906 109.5635757446289" stroke-width="2" fill="none" stroke="rgb(0, 0, 0)" stroke-opacity="1.0" stroke-linecap="round" stroke-linejoin="round"/>
    <path d="M 170.11732482910156 90.95064544677734 C 206.992919921875 23.7808837890625 162.4799346923828 98.903564453125 143.22471618652344 87.553955078125" stroke-width="2" fill="none" stroke="rgb(0, 0, 0)" stroke-opacity="1.0" stroke-linecap="round" stroke-linejoin="round"/>
    <path d="M 170.7342071533203 156.4957275390625 C 93.80760955810547 137.38658142089844 210.32684326171875 168.60350036621094 168.90260314941406 149.0806427001953" stroke-width="2" fill="none" stroke="rgb(0, 0, 0)" stroke-opacity="1.0" stroke-linecap="round" stroke-linejoin="round"/>
    <path d="M 84.42778015136719 115.689453125 C 145.0120391845703 147.8487548828125 71.95890045166016 80.71991729736328 131.6429443359375 147.1056365966797" stroke-width="2" fill="none" stroke="rgb(0, 0, 0)" stroke-opacity="1.0" stroke-linecap="round" stroke-linejoin="round"/>
    <path d="M 136.77830505371094 105.00184631347656 C 118.66333770751953 149.1932830810547 65.1390380859375 19.76926040649414 119.43634796142578 96.84734344482422" stroke-width="2" fill="none" stroke="rgb(0, 0, 0)" stroke-opacity="1.0" stroke-linecap="round" stroke-linejoin="round"/>
    <path d="M 161.93580627441406 110.99101257324219 C 125.13822174072266 78.39971923828125 172.69573974609375 151.79461669921875 187.24920654296875 64.63096618652344" stroke-width="2" fill="none" stroke="rgb(0, 0, 0)" stroke-opacity="1.0" stroke-linecap="round" stroke-linejoin="round"/>
    <path d="M 42.13673400878906 120.59693145751953 C 66.86646270751953 104.7817153930664 19.964094161987305 119.8211898803711 64.7794189453125 109.46308135986328" stroke-width="2" fill="none" stroke="rgb(0, 0, 0)" stroke-opacity="1.0" stroke-linecap="round" stroke-linejoin="round"/>
  </g>
</svg>
