<?xml version="1.0" ?>
<svg xmlns="http://www.w3.org/2000/svg" version="1.1" width="224" height="224">
  <defs/>
  <g>
    <path d="M 38.64118957519531 115.65673065185547 C 67.86730194091797 112.31708526611328 35.9152717590332 86.47013854980469 117.47154235839844 98.68341827392578" stroke-width="2" fill="none" stroke="rgb(0, 0, 0)" stroke-opacity="1.0" stroke-linecap="round" stroke-linejoin="round"/>
    <path d="M 114.29702758789062 113.19613647460938 C 198.96878051757812 139.53219604492188 169.80474853515625 153.01983642578125 179.78150939941406 151.5592498779297" stroke-width="2" fill="none" stroke="rgb(0, 0, 0)" stroke-opacity="1.0" stroke-linecap="round" stroke-linejoin="round"/>
    <path d="M 136.38526916503906 118.38442993164062 C 71.85723114013672 103.66292572021484 162.8637237548828 163.43406677246094 92.34852600097656 124.15727233886719" stroke-width="2" fill="none" stroke="rgb(0, 0, 0)" stroke-opacity="1.0" stroke-linecap="round" stroke-linejoin="round"/>
    <path d="M 153.30764770507812 93.21326446533203 C 208.83963012695312 104.44265747070312 102.36756896972656 96.39684295654297 165.8464813232422 105.75296783447266" stroke-width="2" fill="none" stroke="rgb(0, 0, 0)" stroke-opacity="1.0" stroke-linecap="round" stroke-linejoin="round"/>
    <path d="M 124.36199188232422 94.36827087402344 C 108.53651428222656 101.94464874267578 91.26377868652344 35.543304443359375 101.59912109375 92.43965148925781" stroke-width="2" fill="none" stroke="rgb(0, 0, 0)" stroke-opacity="1.0" stroke-linecap="round" stroke-linejoin="round"/>
    <path d="M 125.86797332763672 88.87309265136719 C 158.93496704101562 69.25080871582031 158.56077575683594 118.41407775878906 156.04725646972656 93.65654754638672" stroke-width="2" fill="none" stroke="rgb(0, 0, 0)" stroke-opacity="1.0" stroke-linecap="round" stroke-linejoin="round"/>
    <path d="M 151.0067901611328 112.62968444824219 C 84.14446258544922 122.30540466308594 162.85874938964844 99.16275024414062 129.3517303466797 106.94923400878906" stroke-width="2" fill="none" stroke="rgb(0, 0, 0)" stroke-opacity="1.0" stroke-linecap="round" stroke-linejoin="round"/>
    <path d="M 89.81346893310547 127.40033721923828 C 265.437255859375 138.05531311035156 -23.166244506835938 188.7284393310547 47.999027252197266 107.64765930175781" stroke-width="2" fill="none" stroke="rgb(0, 0, 0)" stroke-opacity="1.0" stroke-linecap="round" stroke-linejoin="round"/>
    <path d="M 177.95654296875 132.92080688476562 C 219.5859832763672 145.82228088378906 25.773012161254883 74.12018585205078 147.04820251464844 120.24534606933594" stroke-width="2" fill="none" stroke="rgb(0, 0, 0)" stroke-opacity="1.0" stroke-linecap="round" stroke-linejoin="round"/>
    <path d="M 122.21263122558594 129.77032470703125 C 181.9119110107422 126.69977569580078 118.42356872558594 135.77346801757812 148.15785217285156 116.6856918334961" stroke-width="2" fill="none" stroke="rgb(0, 0, 0)" stroke-opacity="1.0" stroke-linecap="round" stroke-linejoin="round"/>
    <path d="M 170.17173767089844 87.12673950195312 C 225.48451232910156 22.19652557373047 106.32259368896484 121.21034240722656 171.3582305908203 71.12383270263672" stroke-width="2" fill="none" stroke="rgb(0, 0, 0)" stroke-opacity="1.0" stroke-linecap="round" stroke-linejoin="round"/>
    <path d="M 154.16085815429688 138.0708465576172 C 207.49642944335938 144.3988800048828 199.175048828125 157.88026428222656 43.041812896728516 143.89759826660156" stroke-width="2" fill="none" stroke="rgb(0, 0, 0)" stroke-opacity="1.0" stroke-linecap="round" stroke-linejoin="round"/>
    <path d="M 125.7304916381836 116.67073059082031 C 230.84494018554688 127.97283935546875 80.69671630859375 124.1748275756836 142.48629760742188 120.34770965576172" stroke-width="2" fill="none" stroke="rgb(0, 0, 0)" stroke-opacity="1.0" stroke-linecap="round" stroke-linejoin="round"/>
    <path d="M 107.7430191040039 106.1258544921875 C 144.5357208251953 134.26219177246094 56.27372360229492 29.475561141967773 129.06251525878906 85.50576782226562" stroke-width="2" fill="none" stroke="rgb(0, 0, 0)" stroke-opacity="1.0" stroke-linecap="round" stroke-linejoin="round"/>
    <path d="M 175.287109375 91.11296844482422 C 136.80108642578125 104.6946029663086 166.80397033691406 137.89328002929688 183.14715576171875 69.44468688964844" stroke-width="2" fill="none" stroke="rgb(0, 0, 0)" stroke-opacity="1.0" stroke-linecap="round" stroke-linejoin="round"/>
    <path d="M 55.45766830444336 135.6872100830078 C 77.7425765991211 129.647216796875 31.355281829833984 112.08592224121094 77.29268646240234 143.7543487548828" stroke-width="2" fill="none" stroke="rgb(0, 0, 0)" stroke-opacity="1.0" stroke-linecap="round" stroke-linejoin="round"/>
  </g>
</svg>
