<?xml version="1.0" ?>
<svg xmlns="http://www.w3.org/2000/svg" version="1.1" width="224" height="224">
  <defs/>
  <g>
    <path d="M 57.23817443847656 107.05484008789062 C 72.60993957519531 111.5233383178711 93.4840087890625 83.21855926513672 112.3138198852539 131.56253051757812" stroke-width="2" fill="none" stroke="rgb(0, 0, 0)" stroke-opacity="1.0" stroke-linecap="round" stroke-linejoin="round"/>
    <path d="M 107.99072265625 149.0133056640625 C 205.93310546875 125.90215301513672 171.83541870117188 160.3983917236328 171.484375 149.21351623535156" stroke-width="2" fill="none" stroke="rgb(0, 0, 0)" stroke-opacity="1.0" stroke-linecap="round" stroke-linejoin="round"/>
    <path d="M 132.9657745361328 102.0606918334961 C 26.6301326751709 118.68219757080078 308.82562255859375 151.0811309814453 101.99758911132812 138.6340789794922" stroke-width="2" fill="none" stroke="rgb(0, 0, 0)" stroke-opacity="1.0" stroke-linecap="round" stroke-linejoin="round"/>
    <path d="M 152.94119262695312 117.83802795410156 C 192.60935974121094 92.75825500488281 115.58300018310547 79.21554565429688 173.8683319091797 84.49858856201172" stroke-width="2" fill="none" stroke="rgb(0, 0, 0)" stroke-opacity="1.0" stroke-linecap="round" stroke-linejoin="round"/>
    <path d="M 134.6641082763672 85.20263671875 C 121.68233489990234 94.86347961425781 88.78762817382812 30.863195419311523 95.47563934326172 98.2407455444336" stroke-width="2" fill="none" stroke="rgb(0, 0, 0)" stroke-opacity="1.0" stroke-linecap="round" stroke-linejoin="round"/>
    <path d="M 126.9962387084961 82.5209732055664 C 181.77589416503906 74.94756317138672 132.09317016601562 123.6390609741211 171.89108276367188 98.31495666503906" stroke-width="2" fill="none" stroke="rgb(0, 0, 0)" stroke-opacity="1.0" stroke-linecap="round" stroke-linejoin="round"/>
    <path d="M 131.49769592285156 99.26184844970703 C 105.78524780273438 103.25096130371094 146.75912475585938 85.59683227539062 126.21066284179688 103.52442932128906" stroke-width="2" fill="none" stroke="rgb(0, 0, 0)" stroke-opacity="1.0" stroke-linecap="round" stroke-linejoin="round"/>
    <path d="M 147.55897521972656 144.3000946044922 C 250.4977569580078 116.15806579589844 -35.91144943237305 193.654296875 62.935707092285156 96.38324737548828" stroke-width="2" fill="none" stroke="rgb(0, 0, 0)" stroke-opacity="1.0" stroke-linecap="round" stroke-linejoin="round"/>
    <path d="M 115.54029846191406 117.59513854980469 C 206.59352111816406 124.35347747802734 65.046875 95.20732116699219 116.53290557861328 96.13285064697266" stroke-width="2" fill="none" stroke="rgb(0, 0, 0)" stroke-opacity="1.0" stroke-linecap="round" stroke-linejoin="round"/>
    <path d="M 119.03224182128906 117.28089141845703 C 198.306640625 121.725830078125 72.5526123046875 102.45057678222656 135.8031005859375 123.38045501708984" stroke-width="2" fill="none" stroke="rgb(0, 0, 0)" stroke-opacity="1.0" stroke-linecap="round" stroke-linejoin="round"/>
    <path d="M 169.8103790283203 90.18849182128906 C 223.81256103515625 18.45243263244629 111.03950500488281 133.9257354736328 173.97393798828125 72.72554016113281" stroke-width="2" fill="none" stroke="rgb(0, 0, 0)" stroke-opacity="1.0" stroke-linecap="round" stroke-linejoin="round"/>
    <path d="M 144.93621826171875 141.98573303222656 C 153.79425048828125 146.983154296875 137.0333251953125 148.09608459472656 157.2059783935547 138.95030212402344" stroke-width="2" fill="none" stroke="rgb(0, 0, 0)" stroke-opacity="1.0" stroke-linecap="round" stroke-linejoin="round"/>
    <path d="M 140.57313537597656 130.36038208007812 C 180.7976531982422 126.23682403564453 113.80480194091797 115.89221954345703 143.07275390625 110.50665283203125" stroke-width="2" fill="none" stroke="rgb(0, 0, 0)" stroke-opacity="1.0" stroke-linecap="round" stroke-linejoin="round"/>
    <path d="M 118.42234802246094 111.76594543457031 C 181.1819610595703 189.58604431152344 50.85942459106445 21.18657112121582 114.68153381347656 90.69926452636719" stroke-width="2" fill="none" stroke="rgb(0, 0, 0)" stroke-opacity="1.0" stroke-linecap="round" stroke-linejoin="round"/>
    <path d="M 168.8144989013672 94.24970245361328 C 131.52618408203125 95.88374328613281 180.29049682617188 125.84803009033203 182.46157836914062 72.73377227783203" stroke-width="2" fill="none" stroke="rgb(0, 0, 0)" stroke-opacity="1.0" stroke-linecap="round" stroke-linejoin="round"/>
    <path d="M 158.81396484375 147.84335327148438 C 188.02911376953125 160.943115234375 60.36300277709961 126.52672576904297 94.52799987792969 130.50318908691406" stroke-width="2" fill="none" stroke="rgb(0, 0, 0)" stroke-opacity="1.0" stroke-linecap="round" stroke-linejoin="round"/>
  </g>
</svg>
