<?xml version="1.0" ?>
<svg xmlns="http://www.w3.org/2000/svg" version="1.1" width="224" height="224">
  <defs/>
  <g>
    <path d="M 78.4009780883789 92.07205200195312 C 34.83843994140625 108.81243133544922 110.04491424560547 77.81826782226562 101.16563415527344 106.90863037109375" stroke-width="2" fill="none" stroke="rgb(0, 0, 0)" stroke-opacity="1.0" stroke-linecap="round" stroke-linejoin="round"/>
    <path d="M 153.31573486328125 152.5659637451172 C 163.081298828125 133.6494903564453 187.1587371826172 167.7011260986328 181.4579620361328 154.03907775878906" stroke-width="2" fill="none" stroke="rgb(0, 0, 0)" stroke-opacity="1.0" stroke-linecap="round" stroke-linejoin="round"/>
    <path d="M 123.32656860351562 138.82858276367188 C 83.09303283691406 119.77649688720703 292.6133117675781 153.73834228515625 133.3545684814453 147.95538330078125" stroke-width="2" fill="none" stroke="rgb(0, 0, 0)" stroke-opacity="1.0" stroke-linecap="round" stroke-linejoin="round"/>
    <path d="M 153.92112731933594 107.031494140625 C 191.1201934814453 107.70179748535156 127.71803283691406 100.95892333984375 155.8499755859375 111.30416107177734" stroke-width="2" fill="none" stroke="rgb(0, 0, 0)" stroke-opacity="1.0" stroke-linecap="round" stroke-linejoin="round"/>
    <path d="M 136.78660583496094 90.74646759033203 C 114.98406982421875 101.3256607055664 92.29295349121094 34.62845230102539 98.28223419189453 92.39826965332031" stroke-width="2" fill="none" stroke="rgb(0, 0, 0)" stroke-opacity="1.0" stroke-linecap="round" stroke-linejoin="round"/>
    <path d="M 147.0201416015625 89.56275939941406 C 183.0357208251953 78.33307647705078 146.71739196777344 137.4666748046875 153.74452209472656 100.9344711303711" stroke-width="2" fill="none" stroke="rgb(0, 0, 0)" stroke-opacity="1.0" stroke-linecap="round" stroke-linejoin="round"/>
    <path d="M 125.2755355834961 99.79683685302734 C 91.40985107421875 110.86083984375 175.94464111328125 106.51535034179688 126.37496948242188 114.03137969970703" stroke-width="2" fill="none" stroke="rgb(0, 0, 0)" stroke-opacity="1.0" stroke-linecap="round" stroke-linejoin="round"/>
    <path d="M 190.244384765625 156.4852752685547 C 244.3037567138672 134.23463439941406 -40.417762756347656 184.36129760742188 65.5378189086914 102.58177947998047" stroke-width="2" fill="none" stroke="rgb(0, 0, 0)" stroke-opacity="1.0" stroke-linecap="round" stroke-linejoin="round"/>
    <path d="M 108.41725158691406 110.77993774414062 C 200.6179962158203 140.37062072753906 90.29737854003906 122.71843719482422 142.3385772705078 107.8645248413086" stroke-width="2" fill="none" stroke="rgb(0, 0, 0)" stroke-opacity="1.0" stroke-linecap="round" stroke-linejoin="round"/>
    <path d="M 106.82656860351562 111.48736572265625 C 177.34854125976562 141.92471313476562 -98.56660461425781 82.39594268798828 145.201416015625 127.75203704833984" stroke-width="2" fill="none" stroke="rgb(0, 0, 0)" stroke-opacity="1.0" stroke-linecap="round" stroke-linejoin="round"/>
    <path d="M 160.56521606445312 83.98734283447266 C 235.0110321044922 15.541522979736328 138.08084106445312 144.55828857421875 167.23175048828125 116.74591064453125" stroke-width="2" fill="none" stroke="rgb(0, 0, 0)" stroke-opacity="1.0" stroke-linecap="round" stroke-linejoin="round"/>
    <path d="M 135.7772674560547 137.03082275390625 C 141.92303466796875 136.46090698242188 198.80108642578125 127.507080078125 155.1981201171875 134.7447052001953" stroke-width="2" fill="none" stroke="rgb(0, 0, 0)" stroke-opacity="1.0" stroke-linecap="round" stroke-linejoin="round"/>
    <path d="M 107.21031951904297 113.42484283447266 C 165.96644592285156 154.5179901123047 165.01734924316406 109.80030822753906 148.40768432617188 126.3311538696289" stroke-width="2" fill="none" stroke="rgb(0, 0, 0)" stroke-opacity="1.0" stroke-linecap="round" stroke-linejoin="round"/>
    <path d="M 137.21243286132812 108.7298812866211 C 140.78221130371094 148.9088134765625 73.3034896850586 12.272599220275879 114.8453598022461 96.32972717285156" stroke-width="2" fill="none" stroke="rgb(0, 0, 0)" stroke-opacity="1.0" stroke-linecap="round" stroke-linejoin="round"/>
    <path d="M 166.12396240234375 101.51007843017578 C 134.4322509765625 66.50824737548828 163.98817443847656 114.96441650390625 188.21783447265625 67.9806137084961" stroke-width="2" fill="none" stroke="rgb(0, 0, 0)" stroke-opacity="1.0" stroke-linecap="round" stroke-linejoin="round"/>
    <path d="M 139.44158935546875 134.4002685546875 C 162.31358337402344 153.5436553955078 49.61366653442383 98.62384796142578 80.86172485351562 107.5457763671875" stroke-width="2" fill="none" stroke="rgb(0, 0, 0)" stroke-opacity="1.0" stroke-linecap="round" stroke-linejoin="round"/>
  </g>
</svg>
