<?xml version="1.0" ?>
<svg xmlns="http://www.w3.org/2000/svg" version="1.1" width="224" height="224">
  <defs/>
  <g>
    <path d="M 38.32951736450195 113.77857971191406 C 75.981689453125 86.64590454101562 68.9767837524414 97.01656341552734 94.96525573730469 93.67166137695312" stroke-width="2" fill="none" stroke="rgb(0, 0, 0)" stroke-opacity="1.0" stroke-linecap="round" stroke-linejoin="round"/>
    <path d="M 52.223480224609375 144.60317993164062 C 118.60102844238281 161.3962860107422 120.94039154052734 143.67721557617188 95.18660736083984 146.42794799804688" stroke-width="2" fill="none" stroke="rgb(0, 0, 0)" stroke-opacity="1.0" stroke-linecap="round" stroke-linejoin="round"/>
    <path d="M 143.71202087402344 129.15252685546875 C 62.256103515625 99.23896789550781 134.12203979492188 147.2637481689453 105.99065399169922 90.97144317626953" stroke-width="2" fill="none" stroke="rgb(0, 0, 0)" stroke-opacity="1.0" stroke-linecap="round" stroke-linejoin="round"/>
    <path d="M 160.79090881347656 117.37532043457031 C 153.18899536132812 93.9430160522461 176.40243530273438 118.93441009521484 154.52708435058594 107.20709228515625" stroke-width="2" fill="none" stroke="rgb(0, 0, 0)" stroke-opacity="1.0" stroke-linecap="round" stroke-linejoin="round"/>
    <path d="M 128.1246337890625 103.23504638671875 C 113.0152587890625 110.18516540527344 150.53659057617188 64.74541473388672 170.89349365234375 99.88948059082031" stroke-width="2" fill="none" stroke="rgb(0, 0, 0)" stroke-opacity="1.0" stroke-linecap="round" stroke-linejoin="round"/>
    <path d="M 170.4376220703125 86.05912780761719 C 96.59139251708984 84.58625793457031 130.7220458984375 88.6494140625 134.46714782714844 90.68641662597656" stroke-width="2" fill="none" stroke="rgb(0, 0, 0)" stroke-opacity="1.0" stroke-linecap="round" stroke-linejoin="round"/>
    <path d="M 104.13282012939453 87.70526123046875 C 141.8364715576172 119.45683288574219 125.76707458496094 97.06283569335938 98.65950775146484 70.3119125366211" stroke-width="2" fill="none" stroke="rgb(0, 0, 0)" stroke-opacity="1.0" stroke-linecap="round" stroke-linejoin="round"/>
    <path d="M 88.35138702392578 155.59918212890625 C 97.37548828125 132.44642639160156 24.99020767211914 167.90895080566406 38.70627975463867 122.2890853881836" stroke-width="2" fill="none" stroke="rgb(0, 0, 0)" stroke-opacity="1.0" stroke-linecap="round" stroke-linejoin="round"/>
    <path d="M 152.5452880859375 128.87942504882812 C 199.05470275878906 102.99147033691406 115.42292785644531 129.69622802734375 159.00332641601562 122.71041107177734" stroke-width="2" fill="none" stroke="rgb(0, 0, 0)" stroke-opacity="1.0" stroke-linecap="round" stroke-linejoin="round"/>
    <path d="M 142.1717529296875 113.87638092041016 C 163.4070587158203 106.58785247802734 114.98811340332031 115.71305847167969 139.1737823486328 107.57022857666016" stroke-width="2" fill="none" stroke="rgb(0, 0, 0)" stroke-opacity="1.0" stroke-linecap="round" stroke-linejoin="round"/>
    <path d="M 159.47206115722656 81.3527603149414 C 191.6722869873047 47.8698844909668 190.15237426757812 65.08650970458984 168.74636840820312 91.9644775390625" stroke-width="2" fill="none" stroke="rgb(0, 0, 0)" stroke-opacity="1.0" stroke-linecap="round" stroke-linejoin="round"/>
    <path d="M 177.1169891357422 138.0027313232422 C 154.61985778808594 139.47467041015625 187.6629180908203 128.56687927246094 147.01007080078125 118.45515441894531" stroke-width="2" fill="none" stroke="rgb(0, 0, 0)" stroke-opacity="1.0" stroke-linecap="round" stroke-linejoin="round"/>
    <path d="M 74.4183120727539 132.58187866210938 C 94.31436920166016 148.9303436279297 99.78716278076172 138.60447692871094 142.08578491210938 143.95538330078125" stroke-width="2" fill="none" stroke="rgb(0, 0, 0)" stroke-opacity="1.0" stroke-linecap="round" stroke-linejoin="round"/>
    <path d="M 140.65599060058594 133.9019012451172 C 80.9993667602539 83.00523376464844 96.76392364501953 50.726016998291016 126.5733642578125 88.98200988769531" stroke-width="2" fill="none" stroke="rgb(0, 0, 0)" stroke-opacity="1.0" stroke-linecap="round" stroke-linejoin="round"/>
    <path d="M 177.9546356201172 105.77361297607422 C 169.3622283935547 106.71895599365234 175.09169006347656 136.8424072265625 183.65293884277344 64.95547485351562" stroke-width="2" fill="none" stroke="rgb(0, 0, 0)" stroke-opacity="1.0" stroke-linecap="round" stroke-linejoin="round"/>
    <path d="M 86.95196533203125 108.91454315185547 C 44.313011169433594 87.27157592773438 24.942228317260742 120.58385467529297 68.58184814453125 97.99288177490234" stroke-width="2" fill="none" stroke="rgb(0, 0, 0)" stroke-opacity="1.0" stroke-linecap="round" stroke-linejoin="round"/>
  </g>
</svg>
