<?xml version="1.0" ?>
<svg xmlns="http://www.w3.org/2000/svg" version="1.1" width="224" height="224">
  <defs/>
  <g>
    <path d="M 38.388771057128906 117.68174743652344 C 61.336605072021484 116.54141998291016 28.366167068481445 83.44542694091797 117.13770294189453 99.58247375488281" stroke-width="2" fill="none" stroke="rgb(0, 0, 0)" stroke-opacity="1.0" stroke-linecap="round" stroke-linejoin="round"/>
    <path d="M 114.13915252685547 114.62511444091797 C 193.36962890625 156.8272705078125 171.6927490234375 155.46188354492188 182.3580780029297 153.48265075683594" stroke-width="2" fill="none" stroke="rgb(0, 0, 0)" stroke-opacity="1.0" stroke-linecap="round" stroke-linejoin="round"/>
    <path d="M 126.40106201171875 122.23744201660156 C 73.39205932617188 94.48722076416016 151.2342987060547 150.9135284423828 107.71106719970703 128.35897827148438" stroke-width="2" fill="none" stroke="rgb(0, 0, 0)" stroke-opacity="1.0" stroke-linecap="round" stroke-linejoin="round"/>
    <path d="M 149.3100128173828 93.17451477050781 C 211.95445251464844 106.71090698242188 112.32686614990234 97.61592864990234 165.5132598876953 105.71063232421875" stroke-width="2" fill="none" stroke="rgb(0, 0, 0)" stroke-opacity="1.0" stroke-linecap="round" stroke-linejoin="round"/>
    <path d="M 117.88667297363281 91.29540252685547 C 106.21341705322266 103.37052917480469 89.49887084960938 29.19829559326172 100.52775573730469 105.21199035644531" stroke-width="2" fill="none" stroke="rgb(0, 0, 0)" stroke-opacity="1.0" stroke-linecap="round" stroke-linejoin="round"/>
    <path d="M 129.7014617919922 87.35657501220703 C 155.75462341308594 71.09357452392578 158.47958374023438 114.95197296142578 151.98863220214844 99.13526153564453" stroke-width="2" fill="none" stroke="rgb(0, 0, 0)" stroke-opacity="1.0" stroke-linecap="round" stroke-linejoin="round"/>
    <path d="M 145.37808227539062 120.23990631103516 C 96.61639404296875 101.86737060546875 163.736083984375 111.49063110351562 127.62762451171875 102.52983093261719" stroke-width="2" fill="none" stroke="rgb(0, 0, 0)" stroke-opacity="1.0" stroke-linecap="round" stroke-linejoin="round"/>
    <path d="M 102.52825164794922 125.82506561279297 C 272.3771057128906 150.18116760253906 -32.56368637084961 185.9643096923828 49.80027389526367 112.6487045288086" stroke-width="2" fill="none" stroke="rgb(0, 0, 0)" stroke-opacity="1.0" stroke-linecap="round" stroke-linejoin="round"/>
    <path d="M 190.35379028320312 146.11558532714844 C 223.44265747070312 148.8199005126953 28.887222290039062 84.70264434814453 141.824462890625 118.2833251953125" stroke-width="2" fill="none" stroke="rgb(0, 0, 0)" stroke-opacity="1.0" stroke-linecap="round" stroke-linejoin="round"/>
    <path d="M 116.75054168701172 124.76515197753906 C 184.5155029296875 119.42254638671875 115.90098571777344 125.22923278808594 147.143798828125 112.5008316040039" stroke-width="2" fill="none" stroke="rgb(0, 0, 0)" stroke-opacity="1.0" stroke-linecap="round" stroke-linejoin="round"/>
    <path d="M 164.68357849121094 87.26868438720703 C 227.77081298828125 18.59963607788086 108.05223083496094 120.2154312133789 172.78550720214844 68.58251953125" stroke-width="2" fill="none" stroke="rgb(0, 0, 0)" stroke-opacity="1.0" stroke-linecap="round" stroke-linejoin="round"/>
    <path d="M 144.88186645507812 143.20254516601562 C 213.61431884765625 145.01048278808594 195.72454833984375 165.98988342285156 45.06809997558594 144.17910766601562" stroke-width="2" fill="none" stroke="rgb(0, 0, 0)" stroke-opacity="1.0" stroke-linecap="round" stroke-linejoin="round"/>
    <path d="M 119.06804656982422 126.19441223144531 C 240.61691284179688 128.81724548339844 83.51457977294922 128.6120147705078 132.23550415039062 114.36751556396484" stroke-width="2" fill="none" stroke="rgb(0, 0, 0)" stroke-opacity="1.0" stroke-linecap="round" stroke-linejoin="round"/>
    <path d="M 109.68013763427734 98.88990783691406 C 142.87254333496094 130.30618286132812 57.91886520385742 34.145164489746094 125.11309051513672 83.39886474609375" stroke-width="2" fill="none" stroke="rgb(0, 0, 0)" stroke-opacity="1.0" stroke-linecap="round" stroke-linejoin="round"/>
    <path d="M 175.0553741455078 95.9758529663086 C 132.78404235839844 106.15631866455078 162.13340759277344 143.1121063232422 185.09884643554688 65.28032684326172" stroke-width="2" fill="none" stroke="rgb(0, 0, 0)" stroke-opacity="1.0" stroke-linecap="round" stroke-linejoin="round"/>
    <path d="M 63.80877685546875 130.56492614746094 C 72.92536163330078 148.11654663085938 41.42293167114258 108.57696533203125 76.80732727050781 145.5015411376953" stroke-width="2" fill="none" stroke="rgb(0, 0, 0)" stroke-opacity="1.0" stroke-linecap="round" stroke-linejoin="round"/>
  </g>
</svg>
