<?xml version="1.0" ?>
<svg xmlns="http://www.w3.org/2000/svg" version="1.1" width="224" height="224">
  <defs/>
  <g>
    <path d="M 38.56697463989258 127.76991271972656 C 68.63094329833984 87.43587493896484 66.01795196533203 101.00007629394531 90.30611419677734 95.83545684814453" stroke-width="2" fill="none" stroke="rgb(0, 0, 0)" stroke-opacity="1.0" stroke-linecap="round" stroke-linejoin="round"/>
    <path d="M 45.571353912353516 144.85623168945312 C 230.9468536376953 170.9812774658203 166.46041870117188 126.40576171875 161.58984375 151.2698516845703" stroke-width="2" fill="none" stroke="rgb(0, 0, 0)" stroke-opacity="1.0" stroke-linecap="round" stroke-linejoin="round"/>
    <path d="M 145.83326721191406 111.43351745605469 C 111.49764251708984 84.2005615234375 168.80636596679688 133.24537658691406 136.82530212402344 114.46138000488281" stroke-width="2" fill="none" stroke="rgb(0, 0, 0)" stroke-opacity="1.0" stroke-linecap="round" stroke-linejoin="round"/>
    <path d="M 148.0609588623047 97.79564666748047 C 151.12176513671875 144.4510498046875 179.46417236328125 74.80750274658203 155.05874633789062 114.90531921386719" stroke-width="2" fill="none" stroke="rgb(0, 0, 0)" stroke-opacity="1.0" stroke-linecap="round" stroke-linejoin="round"/>
    <path d="M 111.32499694824219 102.80667877197266 C 145.28704833984375 129.17547607421875 69.58564758300781 63.09559631347656 130.87188720703125 94.99186706542969" stroke-width="2" fill="none" stroke="rgb(0, 0, 0)" stroke-opacity="1.0" stroke-linecap="round" stroke-linejoin="round"/>
    <path d="M 156.64804077148438 86.0080337524414 C 37.951412200927734 99.32593536376953 176.3881378173828 113.64094543457031 104.3245849609375 93.65428161621094" stroke-width="2" fill="none" stroke="rgb(0, 0, 0)" stroke-opacity="1.0" stroke-linecap="round" stroke-linejoin="round"/>
    <path d="M 119.14898681640625 141.94219970703125 C 97.74549102783203 124.75559997558594 120.03182983398438 123.632568359375 100.74383544921875 110.17536926269531" stroke-width="2" fill="none" stroke="rgb(0, 0, 0)" stroke-opacity="1.0" stroke-linecap="round" stroke-linejoin="round"/>
    <path d="M 47.2000846862793 141.94557189941406 C 83.36772918701172 148.8551025390625 27.657258987426758 144.2966766357422 39.48200988769531 123.41352844238281" stroke-width="2" fill="none" stroke="rgb(0, 0, 0)" stroke-opacity="1.0" stroke-linecap="round" stroke-linejoin="round"/>
    <path d="M 123.66963958740234 121.24518585205078 C 233.41600036621094 137.09498596191406 63.962711334228516 118.7010269165039 146.4845428466797 120.4390869140625" stroke-width="2" fill="none" stroke="rgb(0, 0, 0)" stroke-opacity="1.0" stroke-linecap="round" stroke-linejoin="round"/>
    <path d="M 171.34896850585938 92.24641418457031 C 207.41722106933594 86.46099853515625 108.52299499511719 124.45899963378906 141.84129333496094 104.97614288330078" stroke-width="2" fill="none" stroke="rgb(0, 0, 0)" stroke-opacity="1.0" stroke-linecap="round" stroke-linejoin="round"/>
    <path d="M 154.3516082763672 80.46809387207031 C 213.0782928466797 21.229482650756836 162.78590393066406 98.77750396728516 160.78126525878906 87.46391296386719" stroke-width="2" fill="none" stroke="rgb(0, 0, 0)" stroke-opacity="1.0" stroke-linecap="round" stroke-linejoin="round"/>
    <path d="M 137.18605041503906 135.78338623046875 C 92.6033706665039 131.6492462158203 208.7501678466797 155.53262329101562 158.1065673828125 148.6373291015625" stroke-width="2" fill="none" stroke="rgb(0, 0, 0)" stroke-opacity="1.0" stroke-linecap="round" stroke-linejoin="round"/>
    <path d="M 83.49923706054688 127.47545623779297 C 134.33726501464844 134.81454467773438 53.87105178833008 106.77318572998047 125.05706787109375 141.68905639648438" stroke-width="2" fill="none" stroke="rgb(0, 0, 0)" stroke-opacity="1.0" stroke-linecap="round" stroke-linejoin="round"/>
    <path d="M 142.28067016601562 114.05914306640625 C 119.70982360839844 148.5290985107422 68.69599151611328 22.244953155517578 120.76785278320312 80.85631561279297" stroke-width="2" fill="none" stroke="rgb(0, 0, 0)" stroke-opacity="1.0" stroke-linecap="round" stroke-linejoin="round"/>
    <path d="M 164.14260864257812 108.43334197998047 C 126.4933090209961 78.08790588378906 167.45986938476562 142.8446807861328 183.27085876464844 58.640892028808594" stroke-width="2" fill="none" stroke="rgb(0, 0, 0)" stroke-opacity="1.0" stroke-linecap="round" stroke-linejoin="round"/>
    <path d="M 78.75000762939453 114.25399780273438 C 71.87904357910156 97.84676361083984 -38.55218505859375 139.0793914794922 77.17269134521484 107.41474151611328" stroke-width="2" fill="none" stroke="rgb(0, 0, 0)" stroke-opacity="1.0" stroke-linecap="round" stroke-linejoin="round"/>
  </g>
</svg>
