<?xml version="1.0" ?>
<svg xmlns="http://www.w3.org/2000/svg" version="1.1" width="224" height="224">
  <defs/>
  <g>
    <path d="M 29.795032501220703 127.16767883300781 C 57.26942825317383 116.51155853271484 22.875375747680664 84.25387573242188 130.6863250732422 105.0159912109375" stroke-width="2" fill="none" stroke="rgb(0, 0, 0)" stroke-opacity="1.0" stroke-linecap="round" stroke-linejoin="round"/>
    <path d="M 114.2645034790039 115.7725830078125 C 201.88717651367188 151.27789306640625 157.14044189453125 156.10385131835938 176.07736206054688 143.15264892578125" stroke-width="2" fill="none" stroke="rgb(0, 0, 0)" stroke-opacity="1.0" stroke-linecap="round" stroke-linejoin="round"/>
    <path d="M 112.5337905883789 112.16822052001953 C 76.41557312011719 94.82720184326172 167.04527282714844 145.39743041992188 110.51020812988281 118.06046295166016" stroke-width="2" fill="none" stroke="rgb(0, 0, 0)" stroke-opacity="1.0" stroke-linecap="round" stroke-linejoin="round"/>
    <path d="M 142.99105834960938 97.07422637939453 C 195.1082305908203 103.36782836914062 115.4762191772461 93.80549621582031 167.29513549804688 106.90066528320312" stroke-width="2" fill="none" stroke="rgb(0, 0, 0)" stroke-opacity="1.0" stroke-linecap="round" stroke-linejoin="round"/>
    <path d="M 117.85853576660156 95.68255615234375 C 112.13078308105469 99.52677154541016 93.70913696289062 35.31184768676758 100.40383911132812 103.05038452148438" stroke-width="2" fill="none" stroke="rgb(0, 0, 0)" stroke-opacity="1.0" stroke-linecap="round" stroke-linejoin="round"/>
    <path d="M 124.5173568725586 87.48570251464844 C 157.1114501953125 72.10199737548828 161.46981811523438 124.55491638183594 148.15748596191406 108.6333999633789" stroke-width="2" fill="none" stroke="rgb(0, 0, 0)" stroke-opacity="1.0" stroke-linecap="round" stroke-linejoin="round"/>
    <path d="M 136.1829071044922 122.11073303222656 C 84.11741638183594 101.39989471435547 158.91336059570312 95.4715576171875 124.83228302001953 95.5380859375" stroke-width="2" fill="none" stroke="rgb(0, 0, 0)" stroke-opacity="1.0" stroke-linecap="round" stroke-linejoin="round"/>
    <path d="M 98.9516830444336 126.7281723022461 C 251.76669311523438 144.6202850341797 -30.897645950317383 174.6230010986328 43.825984954833984 115.78394317626953" stroke-width="2" fill="none" stroke="rgb(0, 0, 0)" stroke-opacity="1.0" stroke-linecap="round" stroke-linejoin="round"/>
    <path d="M 183.7866668701172 152.77769470214844 C 219.1090087890625 142.80062866210938 28.03976058959961 81.2301254272461 142.17843627929688 118.37564849853516" stroke-width="2" fill="none" stroke="rgb(0, 0, 0)" stroke-opacity="1.0" stroke-linecap="round" stroke-linejoin="round"/>
    <path d="M 110.86762237548828 120.6463851928711 C 180.85694885253906 119.0571517944336 111.01952362060547 111.59136199951172 141.47805786132812 112.25989532470703" stroke-width="2" fill="none" stroke="rgb(0, 0, 0)" stroke-opacity="1.0" stroke-linecap="round" stroke-linejoin="round"/>
    <path d="M 167.0748291015625 93.42224884033203 C 228.48162841796875 34.62742233276367 100.47428131103516 119.93812561035156 172.3196258544922 73.4246597290039" stroke-width="2" fill="none" stroke="rgb(0, 0, 0)" stroke-opacity="1.0" stroke-linecap="round" stroke-linejoin="round"/>
    <path d="M 154.07899475097656 133.6140899658203 C 216.84323120117188 142.65164184570312 200.4103546142578 157.90121459960938 41.562591552734375 149.01283264160156" stroke-width="2" fill="none" stroke="rgb(0, 0, 0)" stroke-opacity="1.0" stroke-linecap="round" stroke-linejoin="round"/>
    <path d="M 111.95606994628906 124.74053955078125 C 240.8397979736328 134.37527465820312 84.6580810546875 123.93565368652344 130.9027099609375 109.2813949584961" stroke-width="2" fill="none" stroke="rgb(0, 0, 0)" stroke-opacity="1.0" stroke-linecap="round" stroke-linejoin="round"/>
    <path d="M 111.95540618896484 89.07069396972656 C 136.53321838378906 117.10089111328125 64.5294418334961 38.77223587036133 124.823486328125 84.40968322753906" stroke-width="2" fill="none" stroke="rgb(0, 0, 0)" stroke-opacity="1.0" stroke-linecap="round" stroke-linejoin="round"/>
    <path d="M 172.01400756835938 98.57365417480469 C 130.5931854248047 110.1900405883789 161.66163635253906 146.17601013183594 188.94175720214844 62.941925048828125" stroke-width="2" fill="none" stroke="rgb(0, 0, 0)" stroke-opacity="1.0" stroke-linecap="round" stroke-linejoin="round"/>
    <path d="M 50.318115234375 135.19232177734375 C 68.9483871459961 154.8719024658203 27.974578857421875 119.28793334960938 75.91682434082031 149.0302276611328" stroke-width="2" fill="none" stroke="rgb(0, 0, 0)" stroke-opacity="1.0" stroke-linecap="round" stroke-linejoin="round"/>
  </g>
</svg>
