<?xml version="1.0" ?>
<svg xmlns="http://www.w3.org/2000/svg" version="1.1" width="224" height="224">
  <defs/>
  <g>
    <path d="M 37.029518127441406 118.26065063476562 C 69.80328369140625 88.04533386230469 66.61084747314453 100.10930633544922 91.3194808959961 91.99468994140625" stroke-width="2" fill="none" stroke="rgb(0, 0, 0)" stroke-opacity="1.0" stroke-linecap="round" stroke-linejoin="round"/>
    <path d="M 44.077152252197266 149.5211181640625 C 201.72134399414062 174.3623046875 194.70652770996094 123.49134826660156 171.3330841064453 150.8468475341797" stroke-width="2" fill="none" stroke="rgb(0, 0, 0)" stroke-opacity="1.0" stroke-linecap="round" stroke-linejoin="round"/>
    <path d="M 158.06944274902344 134.1714630126953 C 44.96434020996094 102.73516845703125 102.4835205078125 129.99559020996094 86.74796295166016 117.40431213378906" stroke-width="2" fill="none" stroke="rgb(0, 0, 0)" stroke-opacity="1.0" stroke-linecap="round" stroke-linejoin="round"/>
    <path d="M 156.4574737548828 125.82489013671875 C 131.92173767089844 112.99901580810547 179.73719787597656 121.20323181152344 150.0539093017578 120.96292877197266" stroke-width="2" fill="none" stroke="rgb(0, 0, 0)" stroke-opacity="1.0" stroke-linecap="round" stroke-linejoin="round"/>
    <path d="M 142.2031707763672 114.37552642822266 C 97.49290466308594 151.27020263671875 133.71458435058594 63.731788635253906 155.87376403808594 100.60650634765625" stroke-width="2" fill="none" stroke="rgb(0, 0, 0)" stroke-opacity="1.0" stroke-linecap="round" stroke-linejoin="round"/>
    <path d="M 172.9997100830078 88.2216796875 C 35.6565055847168 93.60681915283203 185.00914001464844 113.95487213134766 107.18543243408203 88.84248352050781" stroke-width="2" fill="none" stroke="rgb(0, 0, 0)" stroke-opacity="1.0" stroke-linecap="round" stroke-linejoin="round"/>
    <path d="M 121.35967254638672 112.51756286621094 C 101.5702896118164 125.36029815673828 128.76019287109375 99.21592712402344 101.61793518066406 90.88107299804688" stroke-width="2" fill="none" stroke="rgb(0, 0, 0)" stroke-opacity="1.0" stroke-linecap="round" stroke-linejoin="round"/>
    <path d="M 37.44245529174805 141.35287475585938 C 76.98638153076172 156.7162628173828 27.11865997314453 146.8268585205078 37.1804084777832 127.36201477050781" stroke-width="2" fill="none" stroke="rgb(0, 0, 0)" stroke-opacity="1.0" stroke-linecap="round" stroke-linejoin="round"/>
    <path d="M 130.02708435058594 131.82186889648438 C 175.76397705078125 168.57322692871094 88.7918701171875 106.44937896728516 142.33448791503906 146.7120361328125" stroke-width="2" fill="none" stroke="rgb(0, 0, 0)" stroke-opacity="1.0" stroke-linecap="round" stroke-linejoin="round"/>
    <path d="M 154.05662536621094 111.06453704833984 C 179.1458740234375 125.11737823486328 99.91490936279297 109.4762191772461 142.2904510498047 118.43243408203125" stroke-width="2" fill="none" stroke="rgb(0, 0, 0)" stroke-opacity="1.0" stroke-linecap="round" stroke-linejoin="round"/>
    <path d="M 165.47242736816406 115.56681823730469 C 192.81393432617188 30.443864822387695 184.59225463867188 70.73373413085938 149.92657470703125 97.06549835205078" stroke-width="2" fill="none" stroke="rgb(0, 0, 0)" stroke-opacity="1.0" stroke-linecap="round" stroke-linejoin="round"/>
    <path d="M 168.78115844726562 143.23060607910156 C 110.28504180908203 153.2637481689453 205.69009399414062 105.0865707397461 152.56259155273438 127.78947448730469" stroke-width="2" fill="none" stroke="rgb(0, 0, 0)" stroke-opacity="1.0" stroke-linecap="round" stroke-linejoin="round"/>
    <path d="M 66.65071868896484 136.37069702148438 C 82.17807006835938 147.0966339111328 47.500118255615234 146.96888732910156 139.96142578125 160.69503784179688" stroke-width="2" fill="none" stroke="rgb(0, 0, 0)" stroke-opacity="1.0" stroke-linecap="round" stroke-linejoin="round"/>
    <path d="M 143.65774536132812 143.08001708984375 C 99.46768188476562 113.78132629394531 77.48546600341797 22.013473510742188 126.49073791503906 108.4800796508789" stroke-width="2" fill="none" stroke="rgb(0, 0, 0)" stroke-opacity="1.0" stroke-linecap="round" stroke-linejoin="round"/>
    <path d="M 176.5591583251953 96.0913314819336 C 144.68312072753906 105.78216552734375 183.81289672851562 127.86061096191406 183.8638458251953 63.24528884887695" stroke-width="2" fill="none" stroke="rgb(0, 0, 0)" stroke-opacity="1.0" stroke-linecap="round" stroke-linejoin="round"/>
    <path d="M 77.86019897460938 107.16842651367188 C 64.42752075195312 94.99884796142578 -8.75385570526123 119.21765899658203 64.85546875 100.83354187011719" stroke-width="2" fill="none" stroke="rgb(0, 0, 0)" stroke-opacity="1.0" stroke-linecap="round" stroke-linejoin="round"/>
  </g>
</svg>
