<?xml version="1.0" ?>
<svg xmlns="http://www.w3.org/2000/svg" version="1.1" width="224" height="224">
  <defs/>
  <g>
    <path d="M 44.66958236694336 120.99158477783203 C 61.17924499511719 109.42425537109375 37.9880485534668 93.88774108886719 101.2169418334961 98.06306457519531" stroke-width="2" fill="none" stroke="rgb(0, 0, 0)" stroke-opacity="1.0" stroke-linecap="round" stroke-linejoin="round"/>
    <path d="M 91.56275939941406 125.41143798828125 C 216.5328826904297 139.16226196289062 175.1657257080078 159.21414184570312 152.17367553710938 148.17173767089844" stroke-width="2" fill="none" stroke="rgb(0, 0, 0)" stroke-opacity="1.0" stroke-linecap="round" stroke-linejoin="round"/>
    <path d="M 119.62445831298828 97.67487335205078 C 81.27052307128906 90.90936279296875 166.91200256347656 126.34800720214844 113.94993591308594 112.37061309814453" stroke-width="2" fill="none" stroke="rgb(0, 0, 0)" stroke-opacity="1.0" stroke-linecap="round" stroke-linejoin="round"/>
    <path d="M 150.78016662597656 99.26423645019531 C 192.36566162109375 102.32644653320312 123.81678771972656 111.59549713134766 157.1006622314453 101.99922180175781" stroke-width="2" fill="none" stroke="rgb(0, 0, 0)" stroke-opacity="1.0" stroke-linecap="round" stroke-linejoin="round"/>
    <path d="M 133.1390380859375 84.42900085449219 C 111.61371612548828 92.0983657836914 92.20079803466797 31.43604850769043 96.9945068359375 100.25501251220703" stroke-width="2" fill="none" stroke="rgb(0, 0, 0)" stroke-opacity="1.0" stroke-linecap="round" stroke-linejoin="round"/>
    <path d="M 139.85195922851562 86.19029235839844 C 159.9264373779297 78.4923095703125 162.9815216064453 132.83978271484375 145.75318908691406 113.20723724365234" stroke-width="2" fill="none" stroke="rgb(0, 0, 0)" stroke-opacity="1.0" stroke-linecap="round" stroke-linejoin="round"/>
    <path d="M 134.50169372558594 106.53623962402344 C 103.13318634033203 102.38966369628906 171.8818817138672 93.66365051269531 112.6021957397461 113.28004455566406" stroke-width="2" fill="none" stroke="rgb(0, 0, 0)" stroke-opacity="1.0" stroke-linecap="round" stroke-linejoin="round"/>
    <path d="M 76.99105072021484 138.8082733154297 C 222.75599670410156 162.69081115722656 -18.08080291748047 159.8192596435547 59.726768493652344 114.0019760131836" stroke-width="2" fill="none" stroke="rgb(0, 0, 0)" stroke-opacity="1.0" stroke-linecap="round" stroke-linejoin="round"/>
    <path d="M 168.01742553710938 152.71804809570312 C 210.55677795410156 161.6507110595703 42.34811019897461 70.01912689208984 129.0771026611328 114.24307250976562" stroke-width="2" fill="none" stroke="rgb(0, 0, 0)" stroke-opacity="1.0" stroke-linecap="round" stroke-linejoin="round"/>
    <path d="M 91.931640625 128.6564483642578 C 167.98483276367188 120.84745788574219 119.81621551513672 105.93383026123047 140.26817321777344 112.7667236328125" stroke-width="2" fill="none" stroke="rgb(0, 0, 0)" stroke-opacity="1.0" stroke-linecap="round" stroke-linejoin="round"/>
    <path d="M 158.59561157226562 95.6980972290039 C 233.68887329101562 21.92462730407715 97.0606460571289 120.54098510742188 167.41604614257812 89.93720245361328" stroke-width="2" fill="none" stroke="rgb(0, 0, 0)" stroke-opacity="1.0" stroke-linecap="round" stroke-linejoin="round"/>
    <path d="M 119.02317810058594 120.38621520996094 C 184.99005126953125 156.04380798339844 194.32373046875 138.23934936523438 47.60228729248047 146.45608520507812" stroke-width="2" fill="none" stroke="rgb(0, 0, 0)" stroke-opacity="1.0" stroke-linecap="round" stroke-linejoin="round"/>
    <path d="M 113.05508422851562 123.45539855957031 C 224.29977416992188 127.6748275756836 67.45821380615234 132.6638946533203 135.35671997070312 102.25891876220703" stroke-width="2" fill="none" stroke="rgb(0, 0, 0)" stroke-opacity="1.0" stroke-linecap="round" stroke-linejoin="round"/>
    <path d="M 118.6845703125 101.75579833984375 C 115.42987823486328 127.0796890258789 70.30632019042969 27.241037368774414 120.64120483398438 92.3729248046875" stroke-width="2" fill="none" stroke="rgb(0, 0, 0)" stroke-opacity="1.0" stroke-linecap="round" stroke-linejoin="round"/>
    <path d="M 160.79324340820312 102.32211303710938 C 144.54019165039062 109.4447250366211 166.04177856445312 132.81240844726562 184.4967498779297 63.127384185791016" stroke-width="2" fill="none" stroke="rgb(0, 0, 0)" stroke-opacity="1.0" stroke-linecap="round" stroke-linejoin="round"/>
    <path d="M 88.72191619873047 120.09971618652344 C 66.58074951171875 142.02272033691406 76.57788848876953 115.5893325805664 78.6004867553711 134.3102264404297" stroke-width="2" fill="none" stroke="rgb(0, 0, 0)" stroke-opacity="1.0" stroke-linecap="round" stroke-linejoin="round"/>
  </g>
</svg>
