<?xml version="1.0" ?>
<svg xmlns="http://www.w3.org/2000/svg" version="1.1" width="224" height="224">
  <defs/>
  <g>
    <path d="M 64.10874938964844 98.59437561035156 C 45.44865798950195 103.99662780761719 108.7723617553711 77.19276428222656 107.69320678710938 111.59473419189453" stroke-width="2" fill="none" stroke="rgb(0, 0, 0)" stroke-opacity="1.0" stroke-linecap="round" stroke-linejoin="round"/>
    <path d="M 152.04608154296875 146.69342041015625 C 152.81724548339844 142.50103759765625 192.13319396972656 170.3218536376953 172.794677734375 150.330810546875" stroke-width="2" fill="none" stroke="rgb(0, 0, 0)" stroke-opacity="1.0" stroke-linecap="round" stroke-linejoin="round"/>
    <path d="M 101.92667388916016 134.7224884033203 C 61.572471618652344 110.11170959472656 287.1563720703125 163.99179077148438 123.44065856933594 152.3622283935547" stroke-width="2" fill="none" stroke="rgb(0, 0, 0)" stroke-opacity="1.0" stroke-linecap="round" stroke-linejoin="round"/>
    <path d="M 144.4113311767578 103.09263610839844 C 176.80813598632812 105.49650573730469 113.07061004638672 122.61463165283203 167.78622436523438 99.38407897949219" stroke-width="2" fill="none" stroke="rgb(0, 0, 0)" stroke-opacity="1.0" stroke-linecap="round" stroke-linejoin="round"/>
    <path d="M 135.0508575439453 90.00951385498047 C 112.61638641357422 100.581298828125 90.47066497802734 34.013023376464844 102.53333282470703 96.97065734863281" stroke-width="2" fill="none" stroke="rgb(0, 0, 0)" stroke-opacity="1.0" stroke-linecap="round" stroke-linejoin="round"/>
    <path d="M 140.90048217773438 85.19132232666016 C 172.02154541015625 75.97555541992188 149.49200439453125 130.213134765625 143.4602813720703 107.70784759521484" stroke-width="2" fill="none" stroke="rgb(0, 0, 0)" stroke-opacity="1.0" stroke-linecap="round" stroke-linejoin="round"/>
    <path d="M 126.90809631347656 100.99036407470703 C 80.23947143554688 122.49171447753906 168.7296600341797 98.58963775634766 124.53787231445312 114.34677124023438" stroke-width="2" fill="none" stroke="rgb(0, 0, 0)" stroke-opacity="1.0" stroke-linecap="round" stroke-linejoin="round"/>
    <path d="M 175.3973846435547 156.90728759765625 C 254.27328491210938 142.01292419433594 -45.05717086791992 185.76316833496094 67.97698974609375 96.49553680419922" stroke-width="2" fill="none" stroke="rgb(0, 0, 0)" stroke-opacity="1.0" stroke-linecap="round" stroke-linejoin="round"/>
    <path d="M 95.67064666748047 118.09075927734375 C 182.33914184570312 141.97079467773438 86.1383056640625 114.58926391601562 126.29081726074219 121.78116607666016" stroke-width="2" fill="none" stroke="rgb(0, 0, 0)" stroke-opacity="1.0" stroke-linecap="round" stroke-linejoin="round"/>
    <path d="M 112.64579010009766 104.96546173095703 C 199.58274841308594 144.12779235839844 -78.9064712524414 97.52920532226562 156.3643798828125 126.98846435546875" stroke-width="2" fill="none" stroke="rgb(0, 0, 0)" stroke-opacity="1.0" stroke-linecap="round" stroke-linejoin="round"/>
    <path d="M 156.5221405029297 84.10152435302734 C 233.9040985107422 15.927515983581543 138.60824584960938 142.57080078125 168.39736938476562 107.87664794921875" stroke-width="2" fill="none" stroke="rgb(0, 0, 0)" stroke-opacity="1.0" stroke-linecap="round" stroke-linejoin="round"/>
    <path d="M 137.20790100097656 143.5897674560547 C 130.71939086914062 134.99537658691406 196.90338134765625 142.0727081298828 180.89031982421875 140.53244018554688" stroke-width="2" fill="none" stroke="rgb(0, 0, 0)" stroke-opacity="1.0" stroke-linecap="round" stroke-linejoin="round"/>
    <path d="M 116.9263687133789 112.13072967529297 C 163.80990600585938 138.9643096923828 153.82757568359375 104.42082214355469 147.50106811523438 124.1623306274414" stroke-width="2" fill="none" stroke="rgb(0, 0, 0)" stroke-opacity="1.0" stroke-linecap="round" stroke-linejoin="round"/>
    <path d="M 150.54824829101562 119.3051528930664 C 137.57415771484375 159.59567260742188 75.14856719970703 20.796716690063477 108.1317367553711 100.3985366821289" stroke-width="2" fill="none" stroke="rgb(0, 0, 0)" stroke-opacity="1.0" stroke-linecap="round" stroke-linejoin="round"/>
    <path d="M 165.51223754882812 107.23695373535156 C 132.811279296875 65.67172241210938 174.8306121826172 125.55199432373047 184.70521545410156 65.497314453125" stroke-width="2" fill="none" stroke="rgb(0, 0, 0)" stroke-opacity="1.0" stroke-linecap="round" stroke-linejoin="round"/>
    <path d="M 127.18943786621094 139.23089599609375 C 149.4134979248047 152.50399780273438 53.4945068359375 99.94810485839844 84.74333190917969 111.2212142944336" stroke-width="2" fill="none" stroke="rgb(0, 0, 0)" stroke-opacity="1.0" stroke-linecap="round" stroke-linejoin="round"/>
  </g>
</svg>
