<?xml version="1.0" ?>
<svg xmlns="http://www.w3.org/2000/svg" version="1.1" width="224" height="224">
  <defs/>
  <g>
    <path d="M 40.57307434082031 125.43499755859375 C 64.44709777832031 119.61563873291016 31.563690185546875 87.94860076904297 119.98316192626953 104.5376205444336" stroke-width="2" fill="none" stroke="rgb(0, 0, 0)" stroke-opacity="1.0" stroke-linecap="round" stroke-linejoin="round"/>
    <path d="M 113.3156967163086 118.53511047363281 C 198.5545654296875 156.816650390625 162.8483428955078 159.58941650390625 165.0258026123047 154.50819396972656" stroke-width="2" fill="none" stroke="rgb(0, 0, 0)" stroke-opacity="1.0" stroke-linecap="round" stroke-linejoin="round"/>
    <path d="M 141.14381408691406 115.80135345458984 C 38.33311462402344 134.84124755859375 252.0080108642578 154.3273468017578 85.69457244873047 129.6261444091797" stroke-width="2" fill="none" stroke="rgb(0, 0, 0)" stroke-opacity="1.0" stroke-linecap="round" stroke-linejoin="round"/>
    <path d="M 151.87503051757812 115.63810729980469 C 181.0516815185547 104.028564453125 130.9519805908203 95.81099700927734 168.07843017578125 112.31111145019531" stroke-width="2" fill="none" stroke="rgb(0, 0, 0)" stroke-opacity="1.0" stroke-linecap="round" stroke-linejoin="round"/>
    <path d="M 119.82913970947266 95.6125259399414 C 105.41077423095703 103.41461181640625 89.60993957519531 35.37107467651367 98.49214935302734 104.0778579711914" stroke-width="2" fill="none" stroke="rgb(0, 0, 0)" stroke-opacity="1.0" stroke-linecap="round" stroke-linejoin="round"/>
    <path d="M 125.60362243652344 88.26851654052734 C 168.40870666503906 79.93618774414062 134.06494140625 102.00994873046875 166.81817626953125 96.71015167236328" stroke-width="2" fill="none" stroke="rgb(0, 0, 0)" stroke-opacity="1.0" stroke-linecap="round" stroke-linejoin="round"/>
    <path d="M 143.0777130126953 111.7296371459961 C 118.5717544555664 110.58161163330078 164.54806518554688 99.87147521972656 138.87400817871094 101.40869140625" stroke-width="2" fill="none" stroke="rgb(0, 0, 0)" stroke-opacity="1.0" stroke-linecap="round" stroke-linejoin="round"/>
    <path d="M 110.27885437011719 134.8645477294922 C 327.001953125 133.64324951171875 -45.500247955322266 190.98187255859375 56.6994743347168 114.22225952148438" stroke-width="2" fill="none" stroke="rgb(0, 0, 0)" stroke-opacity="1.0" stroke-linecap="round" stroke-linejoin="round"/>
    <path d="M 111.71697235107422 111.54798889160156 C 210.1746368408203 147.2086944580078 49.31417465209961 111.7463150024414 143.6835479736328 119.02509307861328" stroke-width="2" fill="none" stroke="rgb(0, 0, 0)" stroke-opacity="1.0" stroke-linecap="round" stroke-linejoin="round"/>
    <path d="M 112.41870880126953 113.73439025878906 C 159.42242431640625 143.62811279296875 84.59693908691406 122.41241455078125 120.54098510742188 109.98949432373047" stroke-width="2" fill="none" stroke="rgb(0, 0, 0)" stroke-opacity="1.0" stroke-linecap="round" stroke-linejoin="round"/>
    <path d="M 163.2947540283203 91.4478759765625 C 228.67840576171875 17.808746337890625 106.9779281616211 122.23165893554688 168.41378784179688 78.43516540527344" stroke-width="2" fill="none" stroke="rgb(0, 0, 0)" stroke-opacity="1.0" stroke-linecap="round" stroke-linejoin="round"/>
    <path d="M 157.40032958984375 152.4144287109375 C 130.3494110107422 160.16363525390625 192.20359802246094 149.10206604003906 100.57548522949219 146.8937225341797" stroke-width="2" fill="none" stroke="rgb(0, 0, 0)" stroke-opacity="1.0" stroke-linecap="round" stroke-linejoin="round"/>
    <path d="M 125.90894317626953 118.34770202636719 C 184.3164825439453 126.5711669921875 87.87731170654297 133.95135498046875 137.8043212890625 123.73924255371094" stroke-width="2" fill="none" stroke="rgb(0, 0, 0)" stroke-opacity="1.0" stroke-linecap="round" stroke-linejoin="round"/>
    <path d="M 92.29103088378906 99.32408905029297 C 167.28460693359375 168.8957061767578 46.203731536865234 21.22479820251465 127.39132690429688 88.97899627685547" stroke-width="2" fill="none" stroke="rgb(0, 0, 0)" stroke-opacity="1.0" stroke-linecap="round" stroke-linejoin="round"/>
    <path d="M 169.04579162597656 101.02848052978516 C 142.7869110107422 110.67627716064453 170.82827758789062 134.1444549560547 183.78524780273438 71.52945709228516" stroke-width="2" fill="none" stroke="rgb(0, 0, 0)" stroke-opacity="1.0" stroke-linecap="round" stroke-linejoin="round"/>
    <path d="M 92.52224731445312 126.87138366699219 C 118.13664245605469 151.91009521484375 61.90961837768555 109.85414123535156 106.54017639160156 136.25650024414062" stroke-width="2" fill="none" stroke="rgb(0, 0, 0)" stroke-opacity="1.0" stroke-linecap="round" stroke-linejoin="round"/>
  </g>
</svg>
