<?xml version="1.0" ?>
<svg xmlns="http://www.w3.org/2000/svg" version="1.1" width="224" height="224">
  <defs/>
  <g>
    <path d="M 44.203006744384766 119.20762634277344 C 56.07438278198242 88.6891860961914 88.4081039428711 99.48727416992188 89.92008972167969 93.1390151977539" stroke-width="2" fill="none" stroke="rgb(0, 0, 0)" stroke-opacity="1.0" stroke-linecap="round" stroke-linejoin="round"/>
    <path d="M 51.56504821777344 145.72608947753906 C 202.4923858642578 175.4600372314453 199.18984985351562 112.78775787353516 168.15151977539062 151.6920166015625" stroke-width="2" fill="none" stroke="rgb(0, 0, 0)" stroke-opacity="1.0" stroke-linecap="round" stroke-linejoin="round"/>
    <path d="M 146.25807189941406 113.8862533569336 C 117.40208435058594 104.69597625732422 146.63693237304688 126.0726089477539 135.6441650390625 108.87088775634766" stroke-width="2" fill="none" stroke="rgb(0, 0, 0)" stroke-opacity="1.0" stroke-linecap="round" stroke-linejoin="round"/>
    <path d="M 155.30963134765625 106.70650482177734 C 150.0396728515625 135.2931671142578 181.0911102294922 94.49397277832031 156.50167846679688 123.0321044921875" stroke-width="2" fill="none" stroke="rgb(0, 0, 0)" stroke-opacity="1.0" stroke-linecap="round" stroke-linejoin="round"/>
    <path d="M 131.17173767089844 100.24335479736328 C 108.70368194580078 115.7333984375 143.09307861328125 78.1198959350586 149.6365966796875 96.97708892822266" stroke-width="2" fill="none" stroke="rgb(0, 0, 0)" stroke-opacity="1.0" stroke-linecap="round" stroke-linejoin="round"/>
    <path d="M 165.9976043701172 90.97664642333984 C 26.50123405456543 92.76885986328125 183.4344024658203 125.4713134765625 108.20555114746094 93.34889221191406" stroke-width="2" fill="none" stroke="rgb(0, 0, 0)" stroke-opacity="1.0" stroke-linecap="round" stroke-linejoin="round"/>
    <path d="M 110.63673400878906 132.8740234375 C 102.95001983642578 121.65541076660156 116.36080932617188 107.30963897705078 92.92383575439453 107.36417388916016" stroke-width="2" fill="none" stroke="rgb(0, 0, 0)" stroke-opacity="1.0" stroke-linecap="round" stroke-linejoin="round"/>
    <path d="M 36.820804595947266 128.7654266357422 C 64.62337493896484 144.26510620117188 32.29096603393555 141.0044708251953 38.15696334838867 123.12873840332031" stroke-width="2" fill="none" stroke="rgb(0, 0, 0)" stroke-opacity="1.0" stroke-linecap="round" stroke-linejoin="round"/>
    <path d="M 121.54047393798828 139.421630859375 C 218.80825805664062 148.10916137695312 100.73865509033203 131.49191284179688 139.65023803710938 133.09007263183594" stroke-width="2" fill="none" stroke="rgb(0, 0, 0)" stroke-opacity="1.0" stroke-linecap="round" stroke-linejoin="round"/>
    <path d="M 157.21697998046875 100.93219757080078 C 197.9867706298828 112.99434661865234 93.18549346923828 106.87968444824219 147.8480682373047 122.918701171875" stroke-width="2" fill="none" stroke="rgb(0, 0, 0)" stroke-opacity="1.0" stroke-linecap="round" stroke-linejoin="round"/>
    <path d="M 164.95059204101562 89.42947387695312 C 208.22401428222656 34.26700210571289 169.655029296875 85.40962982177734 148.49461364746094 84.5339584350586" stroke-width="2" fill="none" stroke="rgb(0, 0, 0)" stroke-opacity="1.0" stroke-linecap="round" stroke-linejoin="round"/>
    <path d="M 166.30203247070312 153.46133422851562 C 115.84988403320312 143.7081298828125 187.03976440429688 162.40530395507812 175.5255126953125 145.47357177734375" stroke-width="2" fill="none" stroke="rgb(0, 0, 0)" stroke-opacity="1.0" stroke-linecap="round" stroke-linejoin="round"/>
    <path d="M 84.81140899658203 129.0906219482422 C 134.17483520507812 145.44505310058594 79.26851654052734 101.88992309570312 112.91957092285156 139.822998046875" stroke-width="2" fill="none" stroke="rgb(0, 0, 0)" stroke-opacity="1.0" stroke-linecap="round" stroke-linejoin="round"/>
    <path d="M 145.6344757080078 124.35533905029297 C 107.88990783691406 121.21710205078125 73.86714935302734 30.310073852539062 134.13873291015625 92.94194030761719" stroke-width="2" fill="none" stroke="rgb(0, 0, 0)" stroke-opacity="1.0" stroke-linecap="round" stroke-linejoin="round"/>
    <path d="M 149.24212646484375 106.24494934082031 C 132.00430297851562 92.4872055053711 165.73599243164062 145.49021911621094 185.37673950195312 64.22203826904297" stroke-width="2" fill="none" stroke="rgb(0, 0, 0)" stroke-opacity="1.0" stroke-linecap="round" stroke-linejoin="round"/>
    <path d="M 78.19825744628906 107.13037109375 C 58.46804428100586 89.35513305664062 -7.152863502502441 131.14735412597656 70.43329620361328 98.01100158691406" stroke-width="2" fill="none" stroke="rgb(0, 0, 0)" stroke-opacity="1.0" stroke-linecap="round" stroke-linejoin="round"/>
  </g>
</svg>
