<?xml version="1.0" ?>
<svg xmlns="http://www.w3.org/2000/svg" version="1.1" width="224" height="224">
  <defs/>
  <g>
    <path d="M 40.900169372558594 124.89116668701172 C 70.21510314941406 81.53472900390625 69.33357238769531 100.3289566040039 102.0027084350586 94.91422271728516" stroke-width="2" fill="none" stroke="rgb(0, 0, 0)" stroke-opacity="1.0" stroke-linecap="round" stroke-linejoin="round"/>
    <path d="M 45.58784484863281 149.21221923828125 C 207.78736877441406 168.9760284423828 190.7081298828125 134.1779022216797 152.8603515625 139.78857421875" stroke-width="2" fill="none" stroke="rgb(0, 0, 0)" stroke-opacity="1.0" stroke-linecap="round" stroke-linejoin="round"/>
    <path d="M 139.97140502929688 105.63255310058594 C 103.24085235595703 112.16168975830078 184.40782165527344 120.56848907470703 129.4582977294922 116.94784545898438" stroke-width="2" fill="none" stroke="rgb(0, 0, 0)" stroke-opacity="1.0" stroke-linecap="round" stroke-linejoin="round"/>
    <path d="M 161.08547973632812 97.50985717773438 C 151.43617248535156 144.2267608642578 185.72784423828125 81.21408081054688 157.65174865722656 127.37535858154297" stroke-width="2" fill="none" stroke="rgb(0, 0, 0)" stroke-opacity="1.0" stroke-linecap="round" stroke-linejoin="round"/>
    <path d="M 113.66970825195312 106.75468444824219 C 126.52163696289062 121.99561309814453 63.61738967895508 31.656564712524414 122.1934814453125 85.87409210205078" stroke-width="2" fill="none" stroke="rgb(0, 0, 0)" stroke-opacity="1.0" stroke-linecap="round" stroke-linejoin="round"/>
    <path d="M 143.67420959472656 88.54664611816406 C 87.8598403930664 92.06505584716797 193.39085388183594 108.8155746459961 102.48409271240234 84.23011016845703" stroke-width="2" fill="none" stroke="rgb(0, 0, 0)" stroke-opacity="1.0" stroke-linecap="round" stroke-linejoin="round"/>
    <path d="M 126.67278289794922 131.93161010742188 C 104.91488647460938 94.71202850341797 139.67689514160156 150.52854919433594 120.99781036376953 117.37039184570312" stroke-width="2" fill="none" stroke="rgb(0, 0, 0)" stroke-opacity="1.0" stroke-linecap="round" stroke-linejoin="round"/>
    <path d="M 37.87050247192383 147.0745849609375 C 74.46076202392578 152.1742401123047 34.16904067993164 142.49429321289062 39.506736755371094 130.4993438720703" stroke-width="2" fill="none" stroke="rgb(0, 0, 0)" stroke-opacity="1.0" stroke-linecap="round" stroke-linejoin="round"/>
    <path d="M 116.25371551513672 129.21273803710938 C 213.9886016845703 157.7800750732422 40.714027404785156 108.24267578125 158.50584411621094 125.14095306396484" stroke-width="2" fill="none" stroke="rgb(0, 0, 0)" stroke-opacity="1.0" stroke-linecap="round" stroke-linejoin="round"/>
    <path d="M 154.24746704101562 93.14949035644531 C 203.50697326660156 89.36399841308594 107.72879028320312 131.28262329101562 141.60140991210938 110.46601104736328" stroke-width="2" fill="none" stroke="rgb(0, 0, 0)" stroke-opacity="1.0" stroke-linecap="round" stroke-linejoin="round"/>
    <path d="M 169.47555541992188 86.21685028076172 C 204.2252960205078 24.69626808166504 164.59156799316406 96.32537078857422 150.00987243652344 84.80108642578125" stroke-width="2" fill="none" stroke="rgb(0, 0, 0)" stroke-opacity="1.0" stroke-linecap="round" stroke-linejoin="round"/>
    <path d="M 160.00621032714844 154.51852416992188 C 82.12084197998047 139.1324005126953 195.25802612304688 163.149169921875 165.5559844970703 147.76126098632812" stroke-width="2" fill="none" stroke="rgb(0, 0, 0)" stroke-opacity="1.0" stroke-linecap="round" stroke-linejoin="round"/>
    <path d="M 95.07221221923828 112.27427673339844 C 144.755859375 136.89588928222656 51.13168716430664 81.70743560791016 129.8709716796875 134.4737548828125" stroke-width="2" fill="none" stroke="rgb(0, 0, 0)" stroke-opacity="1.0" stroke-linecap="round" stroke-linejoin="round"/>
    <path d="M 139.137939453125 106.23915100097656 C 121.44856262207031 147.32528686523438 72.12568664550781 15.614654541015625 119.96996307373047 99.40394592285156" stroke-width="2" fill="none" stroke="rgb(0, 0, 0)" stroke-opacity="1.0" stroke-linecap="round" stroke-linejoin="round"/>
    <path d="M 162.32855224609375 113.49046325683594 C 120.70011901855469 74.10533905029297 168.9840087890625 150.59469604492188 185.5505828857422 59.16827392578125" stroke-width="2" fill="none" stroke="rgb(0, 0, 0)" stroke-opacity="1.0" stroke-linecap="round" stroke-linejoin="round"/>
    <path d="M 35.61783218383789 121.38291931152344 C 57.474647521972656 107.33777618408203 6.28794002532959 128.32032775878906 64.76728820800781 111.6817855834961" stroke-width="2" fill="none" stroke="rgb(0, 0, 0)" stroke-opacity="1.0" stroke-linecap="round" stroke-linejoin="round"/>
  </g>
</svg>
