<?xml version="1.0" ?>
<svg xmlns="http://www.w3.org/2000/svg" version="1.1" width="224" height="224">
  <defs/>
  <g>
    <path d="M 36.36874008178711 126.4967041015625 C 60.344886779785156 107.70269775390625 35.77236557006836 92.52702331542969 93.02133178710938 96.5244140625" stroke-width="2" fill="none" stroke="rgb(0, 0, 0)" stroke-opacity="1.0" stroke-linecap="round" stroke-linejoin="round"/>
    <path d="M 53.85527801513672 150.13504028320312 C 224.5194854736328 168.30189514160156 189.27699279785156 140.7615966796875 182.14529418945312 141.75845336914062" stroke-width="2" fill="none" stroke="rgb(0, 0, 0)" stroke-opacity="1.0" stroke-linecap="round" stroke-linejoin="round"/>
    <path d="M 139.28932189941406 99.92924499511719 C 115.772705078125 99.46341705322266 163.9266815185547 121.73794555664062 123.97071075439453 123.75959014892578" stroke-width="2" fill="none" stroke="rgb(0, 0, 0)" stroke-opacity="1.0" stroke-linecap="round" stroke-linejoin="round"/>
    <path d="M 148.90676879882812 97.04830169677734 C 195.3031005859375 128.08868408203125 126.87276458740234 118.16336822509766 169.92922973632812 93.8589859008789" stroke-width="2" fill="none" stroke="rgb(0, 0, 0)" stroke-opacity="1.0" stroke-linecap="round" stroke-linejoin="round"/>
    <path d="M 143.6729736328125 88.05319213867188 C 130.73973083496094 107.83547973632812 67.781494140625 28.75285530090332 112.98780059814453 92.69377136230469" stroke-width="2" fill="none" stroke="rgb(0, 0, 0)" stroke-opacity="1.0" stroke-linecap="round" stroke-linejoin="round"/>
    <path d="M 118.94880676269531 95.16853332519531 C 71.10955047607422 76.75431060791016 181.3290557861328 95.54706573486328 170.6728515625 78.48900604248047" stroke-width="2" fill="none" stroke="rgb(0, 0, 0)" stroke-opacity="1.0" stroke-linecap="round" stroke-linejoin="round"/>
    <path d="M 133.4648895263672 122.5242919921875 C 89.86229705810547 84.42427825927734 178.88609313964844 143.74134826660156 117.84124755859375 114.28800964355469" stroke-width="2" fill="none" stroke="rgb(0, 0, 0)" stroke-opacity="1.0" stroke-linecap="round" stroke-linejoin="round"/>
    <path d="M 119.19835662841797 141.67620849609375 C 239.02696228027344 152.921630859375 -30.779680252075195 180.89254760742188 56.472660064697266 102.70159912109375" stroke-width="2" fill="none" stroke="rgb(0, 0, 0)" stroke-opacity="1.0" stroke-linecap="round" stroke-linejoin="round"/>
    <path d="M 122.79689025878906 126.7921371459961 C 206.25399780273438 154.81954956054688 74.2939682006836 88.06297302246094 142.8010711669922 112.34465026855469" stroke-width="2" fill="none" stroke="rgb(0, 0, 0)" stroke-opacity="1.0" stroke-linecap="round" stroke-linejoin="round"/>
    <path d="M 158.62591552734375 117.78192138671875 C 180.44102478027344 111.97245788574219 130.0344696044922 147.49644470214844 137.8650360107422 109.08866119384766" stroke-width="2" fill="none" stroke="rgb(0, 0, 0)" stroke-opacity="1.0" stroke-linecap="round" stroke-linejoin="round"/>
    <path d="M 150.07362365722656 85.37313842773438 C 217.44607543945312 31.696083068847656 152.34112548828125 85.99779510498047 159.41455078125 94.05329895019531" stroke-width="2" fill="none" stroke="rgb(0, 0, 0)" stroke-opacity="1.0" stroke-linecap="round" stroke-linejoin="round"/>
    <path d="M 175.47093200683594 140.8899383544922 C 120.86478424072266 137.30740356445312 209.39190673828125 152.24789428710938 169.25340270996094 153.078125" stroke-width="2" fill="none" stroke="rgb(0, 0, 0)" stroke-opacity="1.0" stroke-linecap="round" stroke-linejoin="round"/>
    <path d="M 85.31301879882812 104.91134643554688 C 148.39964294433594 138.59422302246094 93.02600860595703 112.50566864013672 125.80735778808594 108.96442413330078" stroke-width="2" fill="none" stroke="rgb(0, 0, 0)" stroke-opacity="1.0" stroke-linecap="round" stroke-linejoin="round"/>
    <path d="M 137.99322509765625 105.183837890625 C 99.00153350830078 149.12144470214844 85.39815521240234 11.702339172363281 113.60748291015625 93.71685028076172" stroke-width="2" fill="none" stroke="rgb(0, 0, 0)" stroke-opacity="1.0" stroke-linecap="round" stroke-linejoin="round"/>
    <path d="M 166.18121337890625 112.22372436523438 C 125.74622344970703 100.96375274658203 169.00686645507812 138.50437927246094 185.68414306640625 66.90473937988281" stroke-width="2" fill="none" stroke="rgb(0, 0, 0)" stroke-opacity="1.0" stroke-linecap="round" stroke-linejoin="round"/>
    <path d="M 44.06182098388672 125.98308563232422 C 68.74895477294922 114.75584411621094 27.511749267578125 125.3164291381836 56.090179443359375 127.64155578613281" stroke-width="2" fill="none" stroke="rgb(0, 0, 0)" stroke-opacity="1.0" stroke-linecap="round" stroke-linejoin="round"/>
  </g>
</svg>
