<?xml version="1.0" ?>
<svg xmlns="http://www.w3.org/2000/svg" version="1.1" width="224" height="224">
  <defs/>
  <g>
    <path d="M 38.268245697021484 121.415771484375 C 67.75623321533203 115.9924087524414 28.812885284423828 87.18736267089844 115.3446044921875 104.34807586669922" stroke-width="2" fill="none" stroke="rgb(0, 0, 0)" stroke-opacity="1.0" stroke-linecap="round" stroke-linejoin="round"/>
    <path d="M 81.25953674316406 136.76316833496094 C 202.46987915039062 172.2598419189453 176.25148010253906 137.3926544189453 161.9673309326172 146.3684844970703" stroke-width="2" fill="none" stroke="rgb(0, 0, 0)" stroke-opacity="1.0" stroke-linecap="round" stroke-linejoin="round"/>
    <path d="M 134.64154052734375 108.69364166259766 C 108.99530792236328 106.58720397949219 161.88600158691406 118.32369995117188 121.25987243652344 113.59149932861328" stroke-width="2" fill="none" stroke="rgb(0, 0, 0)" stroke-opacity="1.0" stroke-linecap="round" stroke-linejoin="round"/>
    <path d="M 149.2939910888672 94.38027954101562 C 168.90672302246094 115.02515411376953 121.74756622314453 98.83003997802734 166.63438415527344 102.5448989868164" stroke-width="2" fill="none" stroke="rgb(0, 0, 0)" stroke-opacity="1.0" stroke-linecap="round" stroke-linejoin="round"/>
    <path d="M 129.91876220703125 95.9891357421875 C 129.15036010742188 109.34542083740234 74.12112426757812 24.723859786987305 107.49053192138672 103.1070327758789" stroke-width="2" fill="none" stroke="rgb(0, 0, 0)" stroke-opacity="1.0" stroke-linecap="round" stroke-linejoin="round"/>
    <path d="M 118.19334411621094 95.73814392089844 C 80.72032165527344 85.30868530273438 184.4289093017578 89.46192169189453 174.474853515625 81.14450073242188" stroke-width="2" fill="none" stroke="rgb(0, 0, 0)" stroke-opacity="1.0" stroke-linecap="round" stroke-linejoin="round"/>
    <path d="M 152.6505126953125 126.75825500488281 C 76.643310546875 116.25462341308594 173.5067138671875 141.54629516601562 124.74323272705078 114.48399353027344" stroke-width="2" fill="none" stroke="rgb(0, 0, 0)" stroke-opacity="1.0" stroke-linecap="round" stroke-linejoin="round"/>
    <path d="M 101.11216735839844 141.81381225585938 C 262.5272216796875 143.7314910888672 -38.776485443115234 179.6602325439453 56.226043701171875 114.14353942871094" stroke-width="2" fill="none" stroke="rgb(0, 0, 0)" stroke-opacity="1.0" stroke-linecap="round" stroke-linejoin="round"/>
    <path d="M 134.95143127441406 142.54080200195312 C 225.82293701171875 156.87503051757812 68.35890197753906 96.5560531616211 137.7662811279297 121.86068725585938" stroke-width="2" fill="none" stroke="rgb(0, 0, 0)" stroke-opacity="1.0" stroke-linecap="round" stroke-linejoin="round"/>
    <path d="M 158.97857666015625 127.74239349365234 C 184.71644592285156 105.19821166992188 138.80503845214844 162.168701171875 144.96337890625 112.56803131103516" stroke-width="2" fill="none" stroke="rgb(0, 0, 0)" stroke-opacity="1.0" stroke-linecap="round" stroke-linejoin="round"/>
    <path d="M 157.65060424804688 88.80508422851562 C 215.85836791992188 23.539615631103516 164.02557373046875 97.72769165039062 147.54190063476562 85.76649475097656" stroke-width="2" fill="none" stroke="rgb(0, 0, 0)" stroke-opacity="1.0" stroke-linecap="round" stroke-linejoin="round"/>
    <path d="M 155.89071655273438 154.8592529296875 C 130.29278564453125 165.14144897460938 182.12123107910156 155.82748413085938 138.36508178710938 139.21485900878906" stroke-width="2" fill="none" stroke="rgb(0, 0, 0)" stroke-opacity="1.0" stroke-linecap="round" stroke-linejoin="round"/>
    <path d="M 94.2267074584961 102.16631317138672 C 152.12664794921875 160.2053680419922 77.85674285888672 112.27967834472656 138.1201629638672 111.03925323486328" stroke-width="2" fill="none" stroke="rgb(0, 0, 0)" stroke-opacity="1.0" stroke-linecap="round" stroke-linejoin="round"/>
    <path d="M 147.573974609375 113.98274230957031 C 102.32917022705078 152.0394287109375 84.82635498046875 26.72394561767578 107.40697479248047 91.03700256347656" stroke-width="2" fill="none" stroke="rgb(0, 0, 0)" stroke-opacity="1.0" stroke-linecap="round" stroke-linejoin="round"/>
    <path d="M 163.0837860107422 114.53305053710938 C 132.6199188232422 102.68265533447266 169.960205078125 140.5428924560547 186.9821319580078 63.3170280456543" stroke-width="2" fill="none" stroke="rgb(0, 0, 0)" stroke-opacity="1.0" stroke-linecap="round" stroke-linejoin="round"/>
    <path d="M 53.309818267822266 135.26126098632812 C 76.68347930908203 137.93045043945312 33.816810607910156 126.97456359863281 68.175048828125 143.33984375" stroke-width="2" fill="none" stroke="rgb(0, 0, 0)" stroke-opacity="1.0" stroke-linecap="round" stroke-linejoin="round"/>
  </g>
</svg>
