<?xml version="1.0" ?>
<svg xmlns="http://www.w3.org/2000/svg" version="1.1" width="224" height="224">
  <defs/>
  <g>
    <path d="M 38.80460739135742 115.78221893310547 C 58.697139739990234 121.81770324707031 24.61238670349121 82.2162094116211 119.5716552734375 116.46896362304688" stroke-width="2" fill="none" stroke="rgb(0, 0, 0)" stroke-opacity="1.0" stroke-linecap="round" stroke-linejoin="round"/>
    <path d="M 117.60099792480469 136.84800720214844 C 203.83303833007812 138.59579467773438 168.11441040039062 165.95652770996094 167.79083251953125 153.58407592773438" stroke-width="2" fill="none" stroke="rgb(0, 0, 0)" stroke-opacity="1.0" stroke-linecap="round" stroke-linejoin="round"/>
    <path d="M 159.2090606689453 114.80772399902344 C 48.735801696777344 122.08382415771484 315.48150634765625 170.6656494140625 85.47467041015625 144.81689453125" stroke-width="2" fill="none" stroke="rgb(0, 0, 0)" stroke-opacity="1.0" stroke-linecap="round" stroke-linejoin="round"/>
    <path d="M 150.99510192871094 124.8669204711914 C 205.81971740722656 90.03087615966797 117.82814025878906 96.78715515136719 169.2291717529297 84.18072509765625" stroke-width="2" fill="none" stroke="rgb(0, 0, 0)" stroke-opacity="1.0" stroke-linecap="round" stroke-linejoin="round"/>
    <path d="M 126.0201644897461 96.92015838623047 C 98.82451629638672 115.88471984863281 107.46556854248047 51.441776275634766 101.7296371459961 100.0773696899414" stroke-width="2" fill="none" stroke="rgb(0, 0, 0)" stroke-opacity="1.0" stroke-linecap="round" stroke-linejoin="round"/>
    <path d="M 131.14657592773438 89.5988540649414 C 174.11415100097656 80.03836822509766 128.96768188476562 119.23491668701172 172.65573120117188 98.66950225830078" stroke-width="2" fill="none" stroke="rgb(0, 0, 0)" stroke-opacity="1.0" stroke-linecap="round" stroke-linejoin="round"/>
    <path d="M 146.0535125732422 108.90046691894531 C 117.94866180419922 106.64765930175781 177.23291015625 121.60250854492188 138.53167724609375 112.79222869873047" stroke-width="2" fill="none" stroke="rgb(0, 0, 0)" stroke-opacity="1.0" stroke-linecap="round" stroke-linejoin="round"/>
    <path d="M 123.3451919555664 141.70021057128906 C 326.00201416015625 135.5385284423828 -41.918434143066406 190.65225219726562 51.25306701660156 111.43238067626953" stroke-width="2" fill="none" stroke="rgb(0, 0, 0)" stroke-opacity="1.0" stroke-linecap="round" stroke-linejoin="round"/>
    <path d="M 114.99454498291016 112.34602355957031 C 211.1952362060547 132.79185485839844 52.877079010009766 100.89224243164062 121.76068115234375 104.52794647216797" stroke-width="2" fill="none" stroke="rgb(0, 0, 0)" stroke-opacity="1.0" stroke-linecap="round" stroke-linejoin="round"/>
    <path d="M 141.74234008789062 109.10546875 C 193.58412170410156 133.4064178466797 108.75189971923828 106.94278717041016 132.06785583496094 110.57325744628906" stroke-width="2" fill="none" stroke="rgb(0, 0, 0)" stroke-opacity="1.0" stroke-linecap="round" stroke-linejoin="round"/>
    <path d="M 174.04360961914062 94.39753723144531 C 230.26284790039062 17.58963966369629 104.83953857421875 137.55450439453125 192.6242218017578 66.57380676269531" stroke-width="2" fill="none" stroke="rgb(0, 0, 0)" stroke-opacity="1.0" stroke-linecap="round" stroke-linejoin="round"/>
    <path d="M 157.03573608398438 149.4080352783203 C 171.9865264892578 164.50381469726562 157.4695281982422 143.7616729736328 137.28140258789062 154.4136505126953" stroke-width="2" fill="none" stroke="rgb(0, 0, 0)" stroke-opacity="1.0" stroke-linecap="round" stroke-linejoin="round"/>
    <path d="M 133.56231689453125 121.51435089111328 C 191.26730346679688 135.54879760742188 142.84991455078125 125.73960876464844 161.7228240966797 107.7601318359375" stroke-width="2" fill="none" stroke="rgb(0, 0, 0)" stroke-opacity="1.0" stroke-linecap="round" stroke-linejoin="round"/>
    <path d="M 98.17396545410156 108.52075958251953 C 157.68141174316406 164.52349853515625 48.14982604980469 16.98476219177246 126.11178588867188 84.1537857055664" stroke-width="2" fill="none" stroke="rgb(0, 0, 0)" stroke-opacity="1.0" stroke-linecap="round" stroke-linejoin="round"/>
    <path d="M 168.76412963867188 108.25291442871094 C 145.18284606933594 107.01034545898438 181.6039581298828 124.37333679199219 186.76370239257812 71.61122131347656" stroke-width="2" fill="none" stroke="rgb(0, 0, 0)" stroke-opacity="1.0" stroke-linecap="round" stroke-linejoin="round"/>
    <path d="M 122.52212524414062 152.4232940673828 C 149.47459411621094 178.16270446777344 -0.2683813273906708 109.19024658203125 93.94096374511719 144.65892028808594" stroke-width="2" fill="none" stroke="rgb(0, 0, 0)" stroke-opacity="1.0" stroke-linecap="round" stroke-linejoin="round"/>
  </g>
</svg>
