<?xml version="1.0" ?>
<svg xmlns="http://www.w3.org/2000/svg" version="1.1" width="224" height="224">
  <defs/>
  <g>
    <path d="M 45.317195892333984 122.3198471069336 C 70.3212661743164 89.12055206298828 61.22568130493164 99.41925048828125 92.38390350341797 94.96488952636719" stroke-width="2" fill="none" stroke="rgb(0, 0, 0)" stroke-opacity="1.0" stroke-linecap="round" stroke-linejoin="round"/>
    <path d="M 43.65363311767578 140.54229736328125 C 121.87995910644531 174.29273986816406 157.48268127441406 139.42909240722656 123.33551788330078 139.7712860107422" stroke-width="2" fill="none" stroke="rgb(0, 0, 0)" stroke-opacity="1.0" stroke-linecap="round" stroke-linejoin="round"/>
    <path d="M 161.40576171875 133.0811309814453 C 75.38922882080078 100.4593505859375 137.86378479003906 169.1882781982422 99.22900390625 78.3292465209961" stroke-width="2" fill="none" stroke="rgb(0, 0, 0)" stroke-opacity="1.0" stroke-linecap="round" stroke-linejoin="round"/>
    <path d="M 162.96713256835938 144.22354125976562 C 146.72207641601562 104.56966400146484 186.31202697753906 129.3793487548828 147.39593505859375 123.76210021972656" stroke-width="2" fill="none" stroke="rgb(0, 0, 0)" stroke-opacity="1.0" stroke-linecap="round" stroke-linejoin="round"/>
    <path d="M 136.95599365234375 105.83638763427734 C 107.1617660522461 117.65135192871094 158.36976623535156 56.61274719238281 168.468994140625 98.1586685180664" stroke-width="2" fill="none" stroke="rgb(0, 0, 0)" stroke-opacity="1.0" stroke-linecap="round" stroke-linejoin="round"/>
    <path d="M 172.64981079101562 84.43833923339844 C 79.24192810058594 87.35345458984375 143.39773559570312 86.08189392089844 130.61322021484375 100.49610900878906" stroke-width="2" fill="none" stroke="rgb(0, 0, 0)" stroke-opacity="1.0" stroke-linecap="round" stroke-linejoin="round"/>
    <path d="M 105.39067840576172 81.39366149902344 C 106.74054718017578 135.72219848632812 150.8409881591797 124.1674575805664 107.42352294921875 90.11344909667969" stroke-width="2" fill="none" stroke="rgb(0, 0, 0)" stroke-opacity="1.0" stroke-linecap="round" stroke-linejoin="round"/>
    <path d="M 111.09290313720703 150.66421508789062 C 107.36827850341797 138.49423217773438 44.868228912353516 155.32449340820312 50.9541130065918 133.20713806152344" stroke-width="2" fill="none" stroke="rgb(0, 0, 0)" stroke-opacity="1.0" stroke-linecap="round" stroke-linejoin="round"/>
    <path d="M 169.873779296875 132.94146728515625 C 182.48402404785156 143.56631469726562 127.50757598876953 124.16314697265625 154.49026489257812 136.83633422851562" stroke-width="2" fill="none" stroke="rgb(0, 0, 0)" stroke-opacity="1.0" stroke-linecap="round" stroke-linejoin="round"/>
    <path d="M 157.55340576171875 107.75247192382812 C 178.1007537841797 118.2825698852539 130.07012939453125 103.17582702636719 151.61717224121094 113.48461151123047" stroke-width="2" fill="none" stroke="rgb(0, 0, 0)" stroke-opacity="1.0" stroke-linecap="round" stroke-linejoin="round"/>
    <path d="M 168.21994018554688 92.88522338867188 C 195.61618041992188 44.867523193359375 187.78054809570312 55.01853561401367 158.87583923339844 84.71021270751953" stroke-width="2" fill="none" stroke="rgb(0, 0, 0)" stroke-opacity="1.0" stroke-linecap="round" stroke-linejoin="round"/>
    <path d="M 170.71243286132812 157.3053436279297 C 136.44522094726562 163.9671173095703 202.99151611328125 103.19670104980469 156.176025390625 141.11746215820312" stroke-width="2" fill="none" stroke="rgb(0, 0, 0)" stroke-opacity="1.0" stroke-linecap="round" stroke-linejoin="round"/>
    <path d="M 68.36737823486328 134.84677124023438 C 83.18052673339844 154.61717224121094 77.61502838134766 139.20396423339844 146.06854248046875 155.16775512695312" stroke-width="2" fill="none" stroke="rgb(0, 0, 0)" stroke-opacity="1.0" stroke-linecap="round" stroke-linejoin="round"/>
    <path d="M 155.02838134765625 141.84376525878906 C 87.2933120727539 77.03775787353516 88.37283325195312 45.821693420410156 129.255615234375 99.11021423339844" stroke-width="2" fill="none" stroke="rgb(0, 0, 0)" stroke-opacity="1.0" stroke-linecap="round" stroke-linejoin="round"/>
    <path d="M 175.85958862304688 104.38931274414062 C 164.01414489746094 100.7770004272461 168.2732696533203 139.9590301513672 187.1831817626953 63.074405670166016" stroke-width="2" fill="none" stroke="rgb(0, 0, 0)" stroke-opacity="1.0" stroke-linecap="round" stroke-linejoin="round"/>
    <path d="M 69.16642761230469 113.36724090576172 C 49.22006607055664 96.63294982910156 -7.341465950012207 146.62445068359375 56.34750747680664 105.29115295410156" stroke-width="2" fill="none" stroke="rgb(0, 0, 0)" stroke-opacity="1.0" stroke-linecap="round" stroke-linejoin="round"/>
  </g>
</svg>
