<?xml version="1.0" ?>
<svg xmlns="http://www.w3.org/2000/svg" version="1.1" width="224" height="224">
  <defs/>
  <g>
    <path d="M 37.455997467041016 122.11543273925781 C 62.87641143798828 117.84326171875 26.31696891784668 81.82707977294922 126.33150482177734 105.27774810791016" stroke-width="2" fill="none" stroke="rgb(0, 0, 0)" stroke-opacity="1.0" stroke-linecap="round" stroke-linejoin="round"/>
    <path d="M 122.7045669555664 126.881591796875 C 205.42929077148438 135.85452270507812 171.22378540039062 161.26235961914062 164.34799194335938 144.24322509765625" stroke-width="2" fill="none" stroke="rgb(0, 0, 0)" stroke-opacity="1.0" stroke-linecap="round" stroke-linejoin="round"/>
    <path d="M 151.25563049316406 114.89728546142578 C 43.531280517578125 115.32275390625 306.34808349609375 156.98927307128906 75.734375 144.85206604003906" stroke-width="2" fill="none" stroke="rgb(0, 0, 0)" stroke-opacity="1.0" stroke-linecap="round" stroke-linejoin="round"/>
    <path d="M 151.64682006835938 122.6065444946289 C 205.40457153320312 94.30734252929688 122.87895965576172 96.82290649414062 176.6603240966797 92.22294616699219" stroke-width="2" fill="none" stroke="rgb(0, 0, 0)" stroke-opacity="1.0" stroke-linecap="round" stroke-linejoin="round"/>
    <path d="M 127.25856018066406 94.87942504882812 C 89.8285140991211 104.80386352539062 104.49549102783203 58.05894470214844 104.83324432373047 99.11915588378906" stroke-width="2" fill="none" stroke="rgb(0, 0, 0)" stroke-opacity="1.0" stroke-linecap="round" stroke-linejoin="round"/>
    <path d="M 120.07942199707031 84.48809051513672 C 180.87210083007812 70.14765167236328 140.0546875 119.28187561035156 167.8332061767578 97.59856414794922" stroke-width="2" fill="none" stroke="rgb(0, 0, 0)" stroke-opacity="1.0" stroke-linecap="round" stroke-linejoin="round"/>
    <path d="M 144.94224548339844 100.3852310180664 C 123.72875213623047 106.30962371826172 183.0696258544922 112.86658477783203 136.74583435058594 108.48352813720703" stroke-width="2" fill="none" stroke="rgb(0, 0, 0)" stroke-opacity="1.0" stroke-linecap="round" stroke-linejoin="round"/>
    <path d="M 122.29417419433594 130.76931762695312 C 339.5804443359375 126.49681091308594 -38.268314361572266 192.71441650390625 51.23339080810547 111.71770477294922" stroke-width="2" fill="none" stroke="rgb(0, 0, 0)" stroke-opacity="1.0" stroke-linecap="round" stroke-linejoin="round"/>
    <path d="M 124.37359619140625 109.49947357177734 C 212.95111083984375 127.4394302368164 50.16245651245117 95.16085052490234 135.51504516601562 110.39165496826172" stroke-width="2" fill="none" stroke="rgb(0, 0, 0)" stroke-opacity="1.0" stroke-linecap="round" stroke-linejoin="round"/>
    <path d="M 134.45062255859375 107.02481079101562 C 192.12921142578125 143.36422729492188 91.51912689208984 98.28952026367188 125.68880462646484 99.50055694580078" stroke-width="2" fill="none" stroke="rgb(0, 0, 0)" stroke-opacity="1.0" stroke-linecap="round" stroke-linejoin="round"/>
    <path d="M 168.18313598632812 89.80797576904297 C 236.75726318359375 11.96176528930664 99.71415710449219 130.1614532470703 181.1234588623047 65.49800872802734" stroke-width="2" fill="none" stroke="rgb(0, 0, 0)" stroke-opacity="1.0" stroke-linecap="round" stroke-linejoin="round"/>
    <path d="M 153.13673400878906 147.69822692871094 C 158.21266174316406 164.67498779296875 150.4201202392578 133.70013427734375 130.89468383789062 148.22689819335938" stroke-width="2" fill="none" stroke="rgb(0, 0, 0)" stroke-opacity="1.0" stroke-linecap="round" stroke-linejoin="round"/>
    <path d="M 127.02957916259766 121.9116439819336 C 196.5743408203125 138.42132568359375 120.48516082763672 111.2275161743164 150.75428771972656 111.20234680175781" stroke-width="2" fill="none" stroke="rgb(0, 0, 0)" stroke-opacity="1.0" stroke-linecap="round" stroke-linejoin="round"/>
    <path d="M 94.52409362792969 97.99404907226562 C 165.2177276611328 162.0366668701172 42.12999725341797 25.22670555114746 127.44878387451172 85.99575805664062" stroke-width="2" fill="none" stroke="rgb(0, 0, 0)" stroke-opacity="1.0" stroke-linecap="round" stroke-linejoin="round"/>
    <path d="M 176.0714569091797 104.87403869628906 C 141.29083251953125 107.85769653320312 179.41714477539062 129.7198944091797 186.3912353515625 72.08866882324219" stroke-width="2" fill="none" stroke="rgb(0, 0, 0)" stroke-opacity="1.0" stroke-linecap="round" stroke-linejoin="round"/>
    <path d="M 108.2244644165039 135.15330505371094 C 133.142333984375 168.71307373046875 8.198917388916016 109.52223205566406 102.82191467285156 152.4315948486328" stroke-width="2" fill="none" stroke="rgb(0, 0, 0)" stroke-opacity="1.0" stroke-linecap="round" stroke-linejoin="round"/>
  </g>
</svg>
