<?xml version="1.0" ?>
<svg xmlns="http://www.w3.org/2000/svg" version="1.1" width="224" height="224">
  <defs/>
  <g>
    <path d="M 37.1209831237793 123.50563049316406 C 65.67082214355469 117.48015594482422 32.20301818847656 79.71918487548828 116.37933349609375 101.21708679199219" stroke-width="2" fill="none" stroke="rgb(0, 0, 0)" stroke-opacity="1.0" stroke-linecap="round" stroke-linejoin="round"/>
    <path d="M 85.96603393554688 141.28021240234375 C 208.62533569335938 154.93994140625 181.22996520996094 145.20721435546875 137.69049072265625 138.28598022460938" stroke-width="2" fill="none" stroke="rgb(0, 0, 0)" stroke-opacity="1.0" stroke-linecap="round" stroke-linejoin="round"/>
    <path d="M 137.11538696289062 107.62144470214844 C 103.48817443847656 101.03459167480469 162.16342163085938 115.82683563232422 126.77716064453125 121.1803207397461" stroke-width="2" fill="none" stroke="rgb(0, 0, 0)" stroke-opacity="1.0" stroke-linecap="round" stroke-linejoin="round"/>
    <path d="M 147.6058807373047 90.30106353759766 C 165.96548461914062 119.59803009033203 123.95543670654297 98.21976470947266 168.68861389160156 105.3350830078125" stroke-width="2" fill="none" stroke="rgb(0, 0, 0)" stroke-opacity="1.0" stroke-linecap="round" stroke-linejoin="round"/>
    <path d="M 132.1875 93.27119445800781 C 117.04000091552734 101.26605987548828 75.91423034667969 19.137554168701172 114.89124298095703 122.01338195800781" stroke-width="2" fill="none" stroke="rgb(0, 0, 0)" stroke-opacity="1.0" stroke-linecap="round" stroke-linejoin="round"/>
    <path d="M 119.71614074707031 96.15446472167969 C 61.24094772338867 79.12384796142578 190.30325317382812 101.4471664428711 172.4768829345703 83.40001678466797" stroke-width="2" fill="none" stroke="rgb(0, 0, 0)" stroke-opacity="1.0" stroke-linecap="round" stroke-linejoin="round"/>
    <path d="M 149.4230194091797 112.51860046386719 C 83.66284942626953 124.72594451904297 177.43881225585938 135.8579864501953 124.87049865722656 109.82887268066406" stroke-width="2" fill="none" stroke="rgb(0, 0, 0)" stroke-opacity="1.0" stroke-linecap="round" stroke-linejoin="round"/>
    <path d="M 45.6065788269043 147.7389678955078 C 230.48831176757812 154.83518981933594 -35.841468811035156 175.22439575195312 56.9429817199707 107.13904571533203" stroke-width="2" fill="none" stroke="rgb(0, 0, 0)" stroke-opacity="1.0" stroke-linecap="round" stroke-linejoin="round"/>
    <path d="M 186.78073120117188 142.44651794433594 C 214.15771484375 168.54171752929688 64.22069549560547 84.02175903320312 132.16217041015625 123.93302917480469" stroke-width="2" fill="none" stroke="rgb(0, 0, 0)" stroke-opacity="1.0" stroke-linecap="round" stroke-linejoin="round"/>
    <path d="M 163.3346710205078 126.01797485351562 C 190.9100341796875 112.2397232055664 122.57768249511719 159.75701904296875 144.3136749267578 109.67417907714844" stroke-width="2" fill="none" stroke="rgb(0, 0, 0)" stroke-opacity="1.0" stroke-linecap="round" stroke-linejoin="round"/>
    <path d="M 149.58335876464844 91.46321868896484 C 221.88111877441406 23.880184173583984 154.32913208007812 106.32457733154297 158.08596801757812 96.63150024414062" stroke-width="2" fill="none" stroke="rgb(0, 0, 0)" stroke-opacity="1.0" stroke-linecap="round" stroke-linejoin="round"/>
    <path d="M 154.04148864746094 159.03211975097656 C 154.38372802734375 161.96270751953125 190.60194396972656 165.79788208007812 120.45723724365234 145.72068786621094" stroke-width="2" fill="none" stroke="rgb(0, 0, 0)" stroke-opacity="1.0" stroke-linecap="round" stroke-linejoin="round"/>
    <path d="M 97.77271270751953 106.92024993896484 C 150.2487335205078 165.32090759277344 73.3959732055664 110.25321197509766 135.05653381347656 116.82544708251953" stroke-width="2" fill="none" stroke="rgb(0, 0, 0)" stroke-opacity="1.0" stroke-linecap="round" stroke-linejoin="round"/>
    <path d="M 135.9962158203125 105.87295532226562 C 109.41374969482422 149.89352416992188 85.31510925292969 38.58556365966797 106.64517211914062 100.61376953125" stroke-width="2" fill="none" stroke="rgb(0, 0, 0)" stroke-opacity="1.0" stroke-linecap="round" stroke-linejoin="round"/>
    <path d="M 167.84259033203125 115.91387176513672 C 137.6194305419922 102.35897827148438 176.4510498046875 140.4379425048828 183.51087951660156 67.02623748779297" stroke-width="2" fill="none" stroke="rgb(0, 0, 0)" stroke-opacity="1.0" stroke-linecap="round" stroke-linejoin="round"/>
    <path d="M 62.9621696472168 130.8926544189453 C 69.9052734375 144.37432861328125 29.62425994873047 123.07977294921875 77.80784606933594 149.06520080566406" stroke-width="2" fill="none" stroke="rgb(0, 0, 0)" stroke-opacity="1.0" stroke-linecap="round" stroke-linejoin="round"/>
  </g>
</svg>
