<?xml version="1.0" ?>
<svg xmlns="http://www.w3.org/2000/svg" version="1.1" width="224" height="224">
  <defs/>
  <g>
    <path d="M 41.59132766723633 111.9009017944336 C 68.21638488769531 111.36282348632812 37.50531768798828 88.7861328125 103.95355987548828 104.87842559814453" stroke-width="2" fill="none" stroke="rgb(0, 0, 0)" stroke-opacity="1.0" stroke-linecap="round" stroke-linejoin="round"/>
    <path d="M 108.87804412841797 139.989013671875 C 186.22633361816406 134.67803955078125 157.39930725097656 169.04881286621094 151.50502014160156 151.54827880859375" stroke-width="2" fill="none" stroke="rgb(0, 0, 0)" stroke-opacity="1.0" stroke-linecap="round" stroke-linejoin="round"/>
    <path d="M 126.661865234375 107.24679565429688 C 108.32342529296875 99.82182312011719 177.47059631347656 136.13670349121094 123.251708984375 109.59614562988281" stroke-width="2" fill="none" stroke="rgb(0, 0, 0)" stroke-opacity="1.0" stroke-linecap="round" stroke-linejoin="round"/>
    <path d="M 155.80364990234375 109.74263000488281 C 184.97479248046875 112.80626678466797 128.02496337890625 102.69161987304688 169.9398956298828 106.14350128173828" stroke-width="2" fill="none" stroke="rgb(0, 0, 0)" stroke-opacity="1.0" stroke-linecap="round" stroke-linejoin="round"/>
    <path d="M 137.64427185058594 85.37480163574219 C 120.47871398925781 91.02564239501953 69.32356262207031 31.904659271240234 113.61505126953125 97.57081604003906" stroke-width="2" fill="none" stroke="rgb(0, 0, 0)" stroke-opacity="1.0" stroke-linecap="round" stroke-linejoin="round"/>
    <path d="M 128.95758056640625 93.92294311523438 C 154.9800567626953 66.11971282958984 180.25343322753906 117.85867309570312 155.42828369140625 99.1440658569336" stroke-width="2" fill="none" stroke="rgb(0, 0, 0)" stroke-opacity="1.0" stroke-linecap="round" stroke-linejoin="round"/>
    <path d="M 141.15744018554688 126.23814392089844 C 109.860107421875 80.60839080810547 166.53952026367188 118.41476440429688 116.23370361328125 106.7368392944336" stroke-width="2" fill="none" stroke="rgb(0, 0, 0)" stroke-opacity="1.0" stroke-linecap="round" stroke-linejoin="round"/>
    <path d="M 119.310302734375 152.1186981201172 C 255.0475616455078 139.73106384277344 -25.331361770629883 178.34567260742188 52.17069625854492 108.77833557128906" stroke-width="2" fill="none" stroke="rgb(0, 0, 0)" stroke-opacity="1.0" stroke-linecap="round" stroke-linejoin="round"/>
    <path d="M 165.5209503173828 151.46070861816406 C 212.7257843017578 146.80311584472656 43.589080810546875 83.15902709960938 146.0641326904297 111.24919891357422" stroke-width="2" fill="none" stroke="rgb(0, 0, 0)" stroke-opacity="1.0" stroke-linecap="round" stroke-linejoin="round"/>
    <path d="M 110.62603759765625 114.03694152832031 C 174.0922393798828 128.1219024658203 106.63262939453125 127.06197357177734 139.08795166015625 132.1643829345703" stroke-width="2" fill="none" stroke="rgb(0, 0, 0)" stroke-opacity="1.0" stroke-linecap="round" stroke-linejoin="round"/>
    <path d="M 167.8717803955078 98.38351440429688 C 237.98727416992188 18.175718307495117 114.45975494384766 110.4169921875 173.32974243164062 88.65792083740234" stroke-width="2" fill="none" stroke="rgb(0, 0, 0)" stroke-opacity="1.0" stroke-linecap="round" stroke-linejoin="round"/>
    <path d="M 126.54316711425781 150.9024658203125 C 131.83401489257812 159.7977752685547 159.99114990234375 145.1388397216797 40.10194396972656 141.76010131835938" stroke-width="2" fill="none" stroke="rgb(0, 0, 0)" stroke-opacity="1.0" stroke-linecap="round" stroke-linejoin="round"/>
    <path d="M 91.77074432373047 136.0541534423828 C 161.7574005126953 154.07310485839844 66.60772705078125 106.60274505615234 138.7579345703125 114.35628509521484" stroke-width="2" fill="none" stroke="rgb(0, 0, 0)" stroke-opacity="1.0" stroke-linecap="round" stroke-linejoin="round"/>
    <path d="M 147.52244567871094 106.6658935546875 C 107.63624572753906 148.28623962402344 95.43070220947266 30.072614669799805 106.90654754638672 99.83722686767578" stroke-width="2" fill="none" stroke="rgb(0, 0, 0)" stroke-opacity="1.0" stroke-linecap="round" stroke-linejoin="round"/>
    <path d="M 166.19497680664062 115.83346557617188 C 134.59254455566406 120.87899017333984 171.67982482910156 132.80462646484375 187.11521911621094 70.57994079589844" stroke-width="2" fill="none" stroke="rgb(0, 0, 0)" stroke-opacity="1.0" stroke-linecap="round" stroke-linejoin="round"/>
    <path d="M 68.66307067871094 130.0472412109375 C 95.98262786865234 133.05484008789062 35.26060104370117 119.65254974365234 92.44122314453125 142.40965270996094" stroke-width="2" fill="none" stroke="rgb(0, 0, 0)" stroke-opacity="1.0" stroke-linecap="round" stroke-linejoin="round"/>
  </g>
</svg>
