<?xml version="1.0" ?>
<svg xmlns="http://www.w3.org/2000/svg" version="1.1" width="224" height="224">
  <defs/>
  <g>
    <path d="M 39.620750427246094 117.54981231689453 C 65.4817123413086 121.54556274414062 29.781003952026367 86.41748046875 112.8395004272461 113.2706298828125" stroke-width="2" fill="none" stroke="rgb(0, 0, 0)" stroke-opacity="1.0" stroke-linecap="round" stroke-linejoin="round"/>
    <path d="M 133.01255798339844 129.9659423828125 C 202.86097717285156 140.44171142578125 174.84518432617188 166.4836883544922 146.83599853515625 146.89907836914062" stroke-width="2" fill="none" stroke="rgb(0, 0, 0)" stroke-opacity="1.0" stroke-linecap="round" stroke-linejoin="round"/>
    <path d="M 126.41918182373047 97.53375244140625 C 92.8456039428711 98.04568481445312 189.5268096923828 120.23799133300781 117.59391021728516 111.40730285644531" stroke-width="2" fill="none" stroke="rgb(0, 0, 0)" stroke-opacity="1.0" stroke-linecap="round" stroke-linejoin="round"/>
    <path d="M 151.96566772460938 108.60971069335938 C 181.03335571289062 108.92953491210938 141.537841796875 95.42752075195312 160.1461944580078 101.09558868408203" stroke-width="2" fill="none" stroke="rgb(0, 0, 0)" stroke-opacity="1.0" stroke-linecap="round" stroke-linejoin="round"/>
    <path d="M 132.24774169921875 86.60902404785156 C 119.68253326416016 91.27767944335938 70.02889251708984 30.818979263305664 112.46841430664062 92.89256286621094" stroke-width="2" fill="none" stroke="rgb(0, 0, 0)" stroke-opacity="1.0" stroke-linecap="round" stroke-linejoin="round"/>
    <path d="M 130.34278869628906 87.60743713378906 C 151.58840942382812 71.53803253173828 155.4177703857422 105.67807006835938 142.57374572753906 99.7033920288086" stroke-width="2" fill="none" stroke="rgb(0, 0, 0)" stroke-opacity="1.0" stroke-linecap="round" stroke-linejoin="round"/>
    <path d="M 139.83120727539062 117.57293701171875 C 84.15532684326172 80.99055480957031 176.1683807373047 136.82855224609375 124.95845031738281 104.62903594970703" stroke-width="2" fill="none" stroke="rgb(0, 0, 0)" stroke-opacity="1.0" stroke-linecap="round" stroke-linejoin="round"/>
    <path d="M 126.04637145996094 141.32174682617188 C 242.330810546875 146.35169982910156 -28.117204666137695 177.87548828125 51.980491638183594 110.46510314941406" stroke-width="2" fill="none" stroke="rgb(0, 0, 0)" stroke-opacity="1.0" stroke-linecap="round" stroke-linejoin="round"/>
    <path d="M 166.20848083496094 143.7003173828125 C 208.14527893066406 157.4460906982422 37.9815673828125 87.57674407958984 140.4696807861328 123.9078598022461" stroke-width="2" fill="none" stroke="rgb(0, 0, 0)" stroke-opacity="1.0" stroke-linecap="round" stroke-linejoin="round"/>
    <path d="M 119.16192626953125 118.5733413696289 C 166.4142303466797 115.51245880126953 113.51904296875 125.81410217285156 140.50534057617188 127.32115173339844" stroke-width="2" fill="none" stroke="rgb(0, 0, 0)" stroke-opacity="1.0" stroke-linecap="round" stroke-linejoin="round"/>
    <path d="M 150.0282440185547 88.73929595947266 C 240.3018035888672 17.161632537841797 116.04685974121094 118.20902252197266 162.95718383789062 80.0046157836914" stroke-width="2" fill="none" stroke="rgb(0, 0, 0)" stroke-opacity="1.0" stroke-linecap="round" stroke-linejoin="round"/>
    <path d="M 130.24569702148438 155.40127563476562 C 128.66990661621094 160.76016235351562 171.18373107910156 138.5155792236328 45.57815933227539 148.1744384765625" stroke-width="2" fill="none" stroke="rgb(0, 0, 0)" stroke-opacity="1.0" stroke-linecap="round" stroke-linejoin="round"/>
    <path d="M 99.89892578125 139.04525756835938 C 163.5763702392578 168.68862915039062 61.88581466674805 101.69351196289062 132.93121337890625 104.66407775878906" stroke-width="2" fill="none" stroke="rgb(0, 0, 0)" stroke-opacity="1.0" stroke-linecap="round" stroke-linejoin="round"/>
    <path d="M 141.91131591796875 106.67372131347656 C 100.38468933105469 155.41644287109375 84.96173095703125 26.789701461791992 108.70099639892578 95.2182846069336" stroke-width="2" fill="none" stroke="rgb(0, 0, 0)" stroke-opacity="1.0" stroke-linecap="round" stroke-linejoin="round"/>
    <path d="M 163.1353759765625 111.71855163574219 C 135.93568420410156 119.96177673339844 166.7920684814453 132.6888885498047 186.49533081054688 64.09183502197266" stroke-width="2" fill="none" stroke="rgb(0, 0, 0)" stroke-opacity="1.0" stroke-linecap="round" stroke-linejoin="round"/>
    <path d="M 82.23566436767578 128.94773864746094 C 89.8403091430664 142.31448364257812 47.78617477416992 117.4640121459961 104.47511291503906 149.69174194335938" stroke-width="2" fill="none" stroke="rgb(0, 0, 0)" stroke-opacity="1.0" stroke-linecap="round" stroke-linejoin="round"/>
  </g>
</svg>
