<?xml version="1.0" ?>
<svg xmlns="http://www.w3.org/2000/svg" version="1.1" width="224" height="224">
  <defs/>
  <g>
    <path d="M 39.702911376953125 115.23916625976562 C 70.45169830322266 84.56327056884766 89.78836059570312 98.7602767944336 93.61662292480469 92.62115478515625" stroke-width="2" fill="none" stroke="rgb(0, 0, 0)" stroke-opacity="1.0" stroke-linecap="round" stroke-linejoin="round"/>
    <path d="M 41.453792572021484 138.70681762695312 C 127.42779541015625 172.08042907714844 152.26480102539062 143.00698852539062 116.8350601196289 141.06338500976562" stroke-width="2" fill="none" stroke="rgb(0, 0, 0)" stroke-opacity="1.0" stroke-linecap="round" stroke-linejoin="round"/>
    <path d="M 161.6549530029297 128.3104705810547 C 41.319671630859375 102.57006072998047 123.15965270996094 129.25497436523438 106.87348937988281 109.99722290039062" stroke-width="2" fill="none" stroke="rgb(0, 0, 0)" stroke-opacity="1.0" stroke-linecap="round" stroke-linejoin="round"/>
    <path d="M 165.4502410888672 134.59619140625 C 127.5572280883789 97.57014465332031 170.41555786132812 123.96463012695312 145.94578552246094 121.02987670898438" stroke-width="2" fill="none" stroke="rgb(0, 0, 0)" stroke-opacity="1.0" stroke-linecap="round" stroke-linejoin="round"/>
    <path d="M 137.49607849121094 98.297119140625 C 108.02959442138672 120.8055191040039 152.60052490234375 71.2910385131836 169.483642578125 99.22987365722656" stroke-width="2" fill="none" stroke="rgb(0, 0, 0)" stroke-opacity="1.0" stroke-linecap="round" stroke-linejoin="round"/>
    <path d="M 170.83201599121094 89.13402557373047 C 51.5556526184082 86.02552032470703 138.98643493652344 96.90167236328125 120.95315551757812 105.17794036865234" stroke-width="2" fill="none" stroke="rgb(0, 0, 0)" stroke-opacity="1.0" stroke-linecap="round" stroke-linejoin="round"/>
    <path d="M 101.5235595703125 72.03410339355469 C 110.3946533203125 136.7104034423828 160.5553741455078 109.37205505371094 106.78950500488281 82.47245788574219" stroke-width="2" fill="none" stroke="rgb(0, 0, 0)" stroke-opacity="1.0" stroke-linecap="round" stroke-linejoin="round"/>
    <path d="M 81.33319854736328 146.24940490722656 C 116.89594268798828 145.7287139892578 26.923202514648438 161.32643127441406 39.3725700378418 125.97699737548828" stroke-width="2" fill="none" stroke="rgb(0, 0, 0)" stroke-opacity="1.0" stroke-linecap="round" stroke-linejoin="round"/>
    <path d="M 137.15765380859375 123.1658706665039 C 179.7442626953125 140.9424591064453 101.61540222167969 113.60845947265625 153.75807189941406 137.96127319335938" stroke-width="2" fill="none" stroke="rgb(0, 0, 0)" stroke-opacity="1.0" stroke-linecap="round" stroke-linejoin="round"/>
    <path d="M 155.4499969482422 109.77476501464844 C 177.19798278808594 117.22640228271484 125.96543884277344 108.18820190429688 144.49264526367188 113.94901275634766" stroke-width="2" fill="none" stroke="rgb(0, 0, 0)" stroke-opacity="1.0" stroke-linecap="round" stroke-linejoin="round"/>
    <path d="M 167.4872589111328 98.8353500366211 C 200.3995819091797 48.15491485595703 190.25070190429688 60.439144134521484 152.88766479492188 95.69708251953125" stroke-width="2" fill="none" stroke="rgb(0, 0, 0)" stroke-opacity="1.0" stroke-linecap="round" stroke-linejoin="round"/>
    <path d="M 173.38516235351562 148.76278686523438 C 134.98419189453125 156.87948608398438 191.86502075195312 96.42237091064453 142.9542236328125 133.8617706298828" stroke-width="2" fill="none" stroke="rgb(0, 0, 0)" stroke-opacity="1.0" stroke-linecap="round" stroke-linejoin="round"/>
    <path d="M 68.19591522216797 131.56919860839844 C 79.90996551513672 143.15992736816406 55.40719985961914 147.6547393798828 143.8311004638672 150.94261169433594" stroke-width="2" fill="none" stroke="rgb(0, 0, 0)" stroke-opacity="1.0" stroke-linecap="round" stroke-linejoin="round"/>
    <path d="M 148.47923278808594 134.4981689453125 C 92.48490905761719 92.28231048583984 85.36759948730469 34.00466537475586 134.71578979492188 93.34134674072266" stroke-width="2" fill="none" stroke="rgb(0, 0, 0)" stroke-opacity="1.0" stroke-linecap="round" stroke-linejoin="round"/>
    <path d="M 175.55123901367188 105.24626159667969 C 157.9027862548828 108.58766174316406 170.8875274658203 135.33786010742188 185.98324584960938 62.90770721435547" stroke-width="2" fill="none" stroke="rgb(0, 0, 0)" stroke-opacity="1.0" stroke-linecap="round" stroke-linejoin="round"/>
    <path d="M 81.03523254394531 108.30380249023438 C 67.16529083251953 91.36883544921875 5.553606033325195 109.5103988647461 63.54396438598633 99.73114013671875" stroke-width="2" fill="none" stroke="rgb(0, 0, 0)" stroke-opacity="1.0" stroke-linecap="round" stroke-linejoin="round"/>
  </g>
</svg>
