<?xml version="1.0" ?>
<svg xmlns="http://www.w3.org/2000/svg" version="1.1" width="224" height="224">
  <defs/>
  <g>
    <path d="M 88.41560363769531 112.9334487915039 C 82.168701171875 103.50947570800781 54.993019104003906 109.55525970458984 99.50218200683594 98.04047393798828" stroke-width="2" fill="none" stroke="rgb(0, 0, 0)" stroke-opacity="1.0" stroke-linecap="round" stroke-linejoin="round"/>
    <path d="M 101.67120361328125 152.5515594482422 C 139.05596923828125 153.31703186035156 122.48340606689453 130.00067138671875 120.18623352050781 152.989990234375" stroke-width="2" fill="none" stroke="rgb(0, 0, 0)" stroke-opacity="1.0" stroke-linecap="round" stroke-linejoin="round"/>
    <path d="M 136.1553955078125 138.3640899658203 C 89.57704162597656 119.52632141113281 129.53121948242188 149.26832580566406 96.93682098388672 121.80657196044922" stroke-width="2" fill="none" stroke="rgb(0, 0, 0)" stroke-opacity="1.0" stroke-linecap="round" stroke-linejoin="round"/>
    <path d="M 148.7220458984375 117.2398681640625 C 122.58364868164062 107.89946746826172 203.45159912109375 122.78438568115234 133.0059051513672 119.45455932617188" stroke-width="2" fill="none" stroke="rgb(0, 0, 0)" stroke-opacity="1.0" stroke-linecap="round" stroke-linejoin="round"/>
    <path d="M 137.92056274414062 102.64897918701172 C 124.26571655273438 110.12742614746094 131.37599182128906 97.90049743652344 151.4890594482422 73.35757446289062" stroke-width="2" fill="none" stroke="rgb(0, 0, 0)" stroke-opacity="1.0" stroke-linecap="round" stroke-linejoin="round"/>
    <path d="M 161.08978271484375 65.63626098632812 C 98.67314910888672 87.01960754394531 122.6722412109375 115.6128921508789 115.18180847167969 107.40552520751953" stroke-width="2" fill="none" stroke="rgb(0, 0, 0)" stroke-opacity="1.0" stroke-linecap="round" stroke-linejoin="round"/>
    <path d="M 102.21244049072266 71.1445541381836 C 121.37447357177734 118.0101089477539 157.08804321289062 87.95977020263672 98.05379486083984 65.77951049804688" stroke-width="2" fill="none" stroke="rgb(0, 0, 0)" stroke-opacity="1.0" stroke-linecap="round" stroke-linejoin="round"/>
    <path d="M 93.67333221435547 150.13067626953125 C 96.77491760253906 157.73870849609375 26.066423416137695 153.4061279296875 42.81882095336914 121.19469451904297" stroke-width="2" fill="none" stroke="rgb(0, 0, 0)" stroke-opacity="1.0" stroke-linecap="round" stroke-linejoin="round"/>
    <path d="M 153.88662719726562 129.12896728515625 C 184.59619140625 120.5600814819336 138.15904235839844 109.73999786376953 160.92604064941406 125.07583618164062" stroke-width="2" fill="none" stroke="rgb(0, 0, 0)" stroke-opacity="1.0" stroke-linecap="round" stroke-linejoin="round"/>
    <path d="M 114.6039047241211 120.89558410644531 C 134.2433319091797 121.86515808105469 112.79806518554688 137.65830993652344 103.49732971191406 110.39573669433594" stroke-width="2" fill="none" stroke="rgb(0, 0, 0)" stroke-opacity="1.0" stroke-linecap="round" stroke-linejoin="round"/>
    <path d="M 167.35206604003906 67.01947784423828 C 177.7836456298828 78.2701644897461 176.55482482910156 72.76305389404297 167.28924560546875 101.15247344970703" stroke-width="2" fill="none" stroke="rgb(0, 0, 0)" stroke-opacity="1.0" stroke-linecap="round" stroke-linejoin="round"/>
    <path d="M 175.53683471679688 146.83309936523438 C 149.86416625976562 145.6180877685547 177.40280151367188 134.36932373046875 144.31382751464844 136.52523803710938" stroke-width="2" fill="none" stroke="rgb(0, 0, 0)" stroke-opacity="1.0" stroke-linecap="round" stroke-linejoin="round"/>
    <path d="M 56.753971099853516 137.40379333496094 C 54.0151252746582 155.61343383789062 84.4894790649414 151.386474609375 117.3952865600586 153.80628967285156" stroke-width="2" fill="none" stroke="rgb(0, 0, 0)" stroke-opacity="1.0" stroke-linecap="round" stroke-linejoin="round"/>
    <path d="M 120.59446716308594 111.75371551513672 C 105.41655731201172 84.50251007080078 103.67745208740234 79.6063461303711 140.5051727294922 94.25698852539062" stroke-width="2" fill="none" stroke="rgb(0, 0, 0)" stroke-opacity="1.0" stroke-linecap="round" stroke-linejoin="round"/>
    <path d="M 167.03277587890625 116.29219818115234 C 181.56312561035156 80.11294555664062 176.7834930419922 122.5556411743164 171.017822265625 69.69029998779297" stroke-width="2" fill="none" stroke="rgb(0, 0, 0)" stroke-opacity="1.0" stroke-linecap="round" stroke-linejoin="round"/>
    <path d="M 93.90522766113281 98.9281005859375 C 58.17981719970703 101.92931365966797 60.5396728515625 92.60621643066406 47.49409866333008 117.22126007080078" stroke-width="2" fill="none" stroke="rgb(0, 0, 0)" stroke-opacity="1.0" stroke-linecap="round" stroke-linejoin="round"/>
  </g>
</svg>
