<?xml version="1.0" ?>
<svg xmlns="http://www.w3.org/2000/svg" version="1.1" width="224" height="224">
  <defs/>
  <g>
    <path d="M 38.043270111083984 122.1888198852539 C 68.23892974853516 81.2626953125 78.9726333618164 98.03441619873047 91.54767608642578 95.15592956542969" stroke-width="2" fill="none" stroke="rgb(0, 0, 0)" stroke-opacity="1.0" stroke-linecap="round" stroke-linejoin="round"/>
    <path d="M 52.996028900146484 143.88011169433594 C 233.78260803222656 172.27638244628906 174.14105224609375 133.847900390625 151.98167419433594 147.2874298095703" stroke-width="2" fill="none" stroke="rgb(0, 0, 0)" stroke-opacity="1.0" stroke-linecap="round" stroke-linejoin="round"/>
    <path d="M 145.2216033935547 105.57406616210938 C 101.83358001708984 85.98841857910156 175.8348388671875 128.85391235351562 129.2760467529297 112.17438507080078" stroke-width="2" fill="none" stroke="rgb(0, 0, 0)" stroke-opacity="1.0" stroke-linecap="round" stroke-linejoin="round"/>
    <path d="M 160.26998901367188 97.53168487548828 C 148.61001586914062 134.54241943359375 182.57249450683594 79.29978942871094 160.10438537597656 116.9812240600586" stroke-width="2" fill="none" stroke="rgb(0, 0, 0)" stroke-opacity="1.0" stroke-linecap="round" stroke-linejoin="round"/>
    <path d="M 111.90187072753906 102.36157989501953 C 144.68618774414062 114.20137786865234 53.712501525878906 60.125667572021484 126.01837158203125 91.69247436523438" stroke-width="2" fill="none" stroke="rgb(0, 0, 0)" stroke-opacity="1.0" stroke-linecap="round" stroke-linejoin="round"/>
    <path d="M 149.5413360595703 86.65937805175781 C 35.542057037353516 88.49256134033203 167.46139526367188 108.03776550292969 107.67628479003906 81.55821228027344" stroke-width="2" fill="none" stroke="rgb(0, 0, 0)" stroke-opacity="1.0" stroke-linecap="round" stroke-linejoin="round"/>
    <path d="M 121.5804214477539 148.03651428222656 C 92.51163482666016 116.40380859375 119.17074584960938 127.68638610839844 102.15406036376953 111.4940414428711" stroke-width="2" fill="none" stroke="rgb(0, 0, 0)" stroke-opacity="1.0" stroke-linecap="round" stroke-linejoin="round"/>
    <path d="M 43.30752182006836 136.4990997314453 C 76.63184356689453 153.47889709472656 26.194440841674805 140.00892639160156 40.0474853515625 124.70367431640625" stroke-width="2" fill="none" stroke="rgb(0, 0, 0)" stroke-opacity="1.0" stroke-linecap="round" stroke-linejoin="round"/>
    <path d="M 127.99835205078125 118.7125473022461 C 238.4494171142578 121.16522216796875 50.70498275756836 118.95375061035156 145.22683715820312 117.1000747680664" stroke-width="2" fill="none" stroke="rgb(0, 0, 0)" stroke-opacity="1.0" stroke-linecap="round" stroke-linejoin="round"/>
    <path d="M 164.3339080810547 92.8783187866211 C 202.5430908203125 77.95286560058594 104.74467468261719 125.71490478515625 141.5200653076172 103.32658386230469" stroke-width="2" fill="none" stroke="rgb(0, 0, 0)" stroke-opacity="1.0" stroke-linecap="round" stroke-linejoin="round"/>
    <path d="M 162.2308349609375 82.99064636230469 C 219.3761749267578 21.911888122558594 170.23931884765625 103.81831359863281 153.02459716796875 92.77127838134766" stroke-width="2" fill="none" stroke="rgb(0, 0, 0)" stroke-opacity="1.0" stroke-linecap="round" stroke-linejoin="round"/>
    <path d="M 147.68017578125 143.59078979492188 C 100.3115463256836 142.8809814453125 214.0529327392578 156.15255737304688 166.31593322753906 145.1649932861328" stroke-width="2" fill="none" stroke="rgb(0, 0, 0)" stroke-opacity="1.0" stroke-linecap="round" stroke-linejoin="round"/>
    <path d="M 84.625244140625 123.65428161621094 C 121.38880157470703 134.69691467285156 44.38314437866211 105.69734954833984 123.49966430664062 143.94309997558594" stroke-width="2" fill="none" stroke="rgb(0, 0, 0)" stroke-opacity="1.0" stroke-linecap="round" stroke-linejoin="round"/>
    <path d="M 146.81045532226562 107.59635925292969 C 116.397216796875 150.36984252929688 64.24911499023438 21.891645431518555 120.29228210449219 83.0965805053711" stroke-width="2" fill="none" stroke="rgb(0, 0, 0)" stroke-opacity="1.0" stroke-linecap="round" stroke-linejoin="round"/>
    <path d="M 171.2408447265625 98.70779418945312 C 127.99224090576172 85.48594665527344 175.47967529296875 145.2987518310547 185.4815216064453 66.49298858642578" stroke-width="2" fill="none" stroke="rgb(0, 0, 0)" stroke-opacity="1.0" stroke-linecap="round" stroke-linejoin="round"/>
    <path d="M 50.94499206542969 122.23100280761719 C 68.0813980102539 104.70506286621094 -20.625659942626953 124.08785247802734 69.39732360839844 112.40376281738281" stroke-width="2" fill="none" stroke="rgb(0, 0, 0)" stroke-opacity="1.0" stroke-linecap="round" stroke-linejoin="round"/>
  </g>
</svg>
