<?xml version="1.0" ?>
<svg xmlns="http://www.w3.org/2000/svg" version="1.1" width="224" height="224">
  <defs/>
  <g>
    <path d="M 38.17815017700195 119.21421813964844 C 65.05265045166016 114.45545959472656 32.040870666503906 86.95135498046875 109.98011779785156 103.6676025390625" stroke-width="2" fill="none" stroke="rgb(0, 0, 0)" stroke-opacity="1.0" stroke-linecap="round" stroke-linejoin="round"/>
    <path d="M 121.83575439453125 112.3303451538086 C 213.4401397705078 152.8077850341797 162.49905395507812 164.87644958496094 161.97244262695312 145.99562072753906" stroke-width="2" fill="none" stroke="rgb(0, 0, 0)" stroke-opacity="1.0" stroke-linecap="round" stroke-linejoin="round"/>
    <path d="M 141.84963989257812 117.85185241699219 C 43.1524772644043 132.6389923095703 249.38278198242188 164.3277587890625 83.99807739257812 127.75921630859375" stroke-width="2" fill="none" stroke="rgb(0, 0, 0)" stroke-opacity="1.0" stroke-linecap="round" stroke-linejoin="round"/>
    <path d="M 153.68136596679688 119.48387908935547 C 196.34906005859375 96.63336944580078 115.14434051513672 93.83503723144531 159.61134338378906 105.30864715576172" stroke-width="2" fill="none" stroke="rgb(0, 0, 0)" stroke-opacity="1.0" stroke-linecap="round" stroke-linejoin="round"/>
    <path d="M 121.4503402709961 96.2232666015625 C 104.91627502441406 109.18367767333984 90.49354553222656 39.3719596862793 104.54796600341797 104.44276428222656" stroke-width="2" fill="none" stroke="rgb(0, 0, 0)" stroke-opacity="1.0" stroke-linecap="round" stroke-linejoin="round"/>
    <path d="M 128.67929077148438 82.10650634765625 C 170.61627197265625 78.80445098876953 134.4314727783203 102.10442352294922 173.609619140625 101.22438049316406" stroke-width="2" fill="none" stroke="rgb(0, 0, 0)" stroke-opacity="1.0" stroke-linecap="round" stroke-linejoin="round"/>
    <path d="M 138.27919006347656 109.24041748046875 C 114.2619857788086 104.74432373046875 156.72958374023438 110.21194458007812 132.1859893798828 105.88644409179688" stroke-width="2" fill="none" stroke="rgb(0, 0, 0)" stroke-opacity="1.0" stroke-linecap="round" stroke-linejoin="round"/>
    <path d="M 99.88082122802734 136.78240966796875 C 326.99114990234375 142.46051025390625 -32.455955505371094 187.7358856201172 52.903221130371094 110.12635803222656" stroke-width="2" fill="none" stroke="rgb(0, 0, 0)" stroke-opacity="1.0" stroke-linecap="round" stroke-linejoin="round"/>
    <path d="M 123.94461059570312 118.05770874023438 C 227.9822998046875 145.7933349609375 43.20981216430664 101.02588653564453 142.79312133789062 117.46267700195312" stroke-width="2" fill="none" stroke="rgb(0, 0, 0)" stroke-opacity="1.0" stroke-linecap="round" stroke-linejoin="round"/>
    <path d="M 120.79740905761719 122.80158233642578 C 161.0040283203125 129.43746948242188 96.17147064208984 135.0714111328125 119.7831039428711 109.07991027832031" stroke-width="2" fill="none" stroke="rgb(0, 0, 0)" stroke-opacity="1.0" stroke-linecap="round" stroke-linejoin="round"/>
    <path d="M 168.8737335205078 91.50631713867188 C 227.94544982910156 17.25433349609375 112.75322723388672 122.50798797607422 168.55020141601562 76.72062683105469" stroke-width="2" fill="none" stroke="rgb(0, 0, 0)" stroke-opacity="1.0" stroke-linecap="round" stroke-linejoin="round"/>
    <path d="M 149.42665100097656 149.50836181640625 C 131.60586547851562 150.026123046875 200.22787475585938 153.018798828125 85.74895477294922 156.25808715820312" stroke-width="2" fill="none" stroke="rgb(0, 0, 0)" stroke-opacity="1.0" stroke-linecap="round" stroke-linejoin="round"/>
    <path d="M 125.79080963134766 111.3355712890625 C 181.31735229492188 115.29962158203125 87.38934326171875 131.03598022460938 136.5152587890625 115.67349243164062" stroke-width="2" fill="none" stroke="rgb(0, 0, 0)" stroke-opacity="1.0" stroke-linecap="round" stroke-linejoin="round"/>
    <path d="M 91.73662567138672 101.8047103881836 C 164.7233428955078 161.98326110839844 42.70570373535156 23.72325897216797 127.50985717773438 85.53921508789062" stroke-width="2" fill="none" stroke="rgb(0, 0, 0)" stroke-opacity="1.0" stroke-linecap="round" stroke-linejoin="round"/>
    <path d="M 171.92669677734375 97.45128631591797 C 127.0370864868164 107.86250305175781 173.4513702392578 134.8726348876953 181.63351440429688 72.20209503173828" stroke-width="2" fill="none" stroke="rgb(0, 0, 0)" stroke-opacity="1.0" stroke-linecap="round" stroke-linejoin="round"/>
    <path d="M 92.79297637939453 125.49532318115234 C 108.41122436523438 153.4373779296875 55.930110931396484 110.54536437988281 104.88282012939453 138.68115234375" stroke-width="2" fill="none" stroke="rgb(0, 0, 0)" stroke-opacity="1.0" stroke-linecap="round" stroke-linejoin="round"/>
  </g>
</svg>
