<?xml version="1.0" ?>
<svg xmlns="http://www.w3.org/2000/svg" version="1.1" width="224" height="224">
  <defs/>
  <g>
    <path d="M 40.73707580566406 124.45906066894531 C 73.6107177734375 87.13200378417969 62.87025451660156 94.9857177734375 91.99601745605469 96.10228729248047" stroke-width="2" fill="none" stroke="rgb(0, 0, 0)" stroke-opacity="1.0" stroke-linecap="round" stroke-linejoin="round"/>
    <path d="M 55.22597885131836 138.85508728027344 C 126.15921783447266 176.67405700683594 165.4175262451172 135.0013427734375 134.54039001464844 140.786376953125" stroke-width="2" fill="none" stroke="rgb(0, 0, 0)" stroke-opacity="1.0" stroke-linecap="round" stroke-linejoin="round"/>
    <path d="M 157.7232666015625 135.2239990234375 C 75.26718139648438 88.20162963867188 140.1277313232422 158.84365844726562 107.941650390625 77.17903900146484" stroke-width="2" fill="none" stroke="rgb(0, 0, 0)" stroke-opacity="1.0" stroke-linecap="round" stroke-linejoin="round"/>
    <path d="M 164.25070190429688 143.19094848632812 C 138.2455291748047 96.34072875976562 183.2665557861328 139.18211364746094 151.58419799804688 129.62319946289062" stroke-width="2" fill="none" stroke="rgb(0, 0, 0)" stroke-opacity="1.0" stroke-linecap="round" stroke-linejoin="round"/>
    <path d="M 136.90789794921875 108.31951904296875 C 107.51295471191406 123.342529296875 165.7432403564453 57.797245025634766 168.22930908203125 101.18716430664062" stroke-width="2" fill="none" stroke="rgb(0, 0, 0)" stroke-opacity="1.0" stroke-linecap="round" stroke-linejoin="round"/>
    <path d="M 172.63880920410156 87.4285659790039 C 72.78946685791016 91.76094818115234 128.17759704589844 98.79496765136719 132.57870483398438 97.77233123779297" stroke-width="2" fill="none" stroke="rgb(0, 0, 0)" stroke-opacity="1.0" stroke-linecap="round" stroke-linejoin="round"/>
    <path d="M 105.90943908691406 71.43814086914062 C 113.85820770263672 131.0848388671875 156.12506103515625 118.70233154296875 105.84869384765625 88.64886474609375" stroke-width="2" fill="none" stroke="rgb(0, 0, 0)" stroke-opacity="1.0" stroke-linecap="round" stroke-linejoin="round"/>
    <path d="M 114.32283782958984 148.38014221191406 C 101.72731018066406 134.22946166992188 35.09727478027344 153.0197296142578 45.28086471557617 131.0531005859375" stroke-width="2" fill="none" stroke="rgb(0, 0, 0)" stroke-opacity="1.0" stroke-linecap="round" stroke-linejoin="round"/>
    <path d="M 167.94598388671875 129.38040161132812 C 183.6089630126953 136.42672729492188 128.74278259277344 111.9590072631836 147.34835815429688 132.94723510742188" stroke-width="2" fill="none" stroke="rgb(0, 0, 0)" stroke-opacity="1.0" stroke-linecap="round" stroke-linejoin="round"/>
    <path d="M 147.73306274414062 110.76558685302734 C 170.28158569335938 110.05226135253906 129.9871368408203 106.770751953125 154.22116088867188 112.8413314819336" stroke-width="2" fill="none" stroke="rgb(0, 0, 0)" stroke-opacity="1.0" stroke-linecap="round" stroke-linejoin="round"/>
    <path d="M 170.78475952148438 93.801025390625 C 199.98745727539062 53.4410285949707 186.6146240234375 58.70041275024414 159.53782653808594 88.03333282470703" stroke-width="2" fill="none" stroke="rgb(0, 0, 0)" stroke-opacity="1.0" stroke-linecap="round" stroke-linejoin="round"/>
    <path d="M 175.30174255371094 149.0392303466797 C 134.8742218017578 150.67599487304688 195.9508056640625 93.33536529541016 156.0179901123047 132.6493377685547" stroke-width="2" fill="none" stroke="rgb(0, 0, 0)" stroke-opacity="1.0" stroke-linecap="round" stroke-linejoin="round"/>
    <path d="M 74.28411102294922 131.7559051513672 C 85.82144165039062 157.7557830810547 87.7105712890625 128.2959747314453 153.28890991210938 152.91024780273438" stroke-width="2" fill="none" stroke="rgb(0, 0, 0)" stroke-opacity="1.0" stroke-linecap="round" stroke-linejoin="round"/>
    <path d="M 154.66046142578125 136.31600952148438 C 83.80375671386719 74.37202453613281 89.96090698242188 41.76251220703125 132.1680145263672 87.15646362304688" stroke-width="2" fill="none" stroke="rgb(0, 0, 0)" stroke-opacity="1.0" stroke-linecap="round" stroke-linejoin="round"/>
    <path d="M 172.2875518798828 108.58016967773438 C 154.74539184570312 96.33757019042969 171.9530029296875 142.56146240234375 186.3697509765625 66.56987762451172" stroke-width="2" fill="none" stroke="rgb(0, 0, 0)" stroke-opacity="1.0" stroke-linecap="round" stroke-linejoin="round"/>
    <path d="M 75.40048217773438 108.1713638305664 C 61.05695343017578 96.47489166259766 7.849336624145508 136.2825164794922 59.599063873291016 103.35295867919922" stroke-width="2" fill="none" stroke="rgb(0, 0, 0)" stroke-opacity="1.0" stroke-linecap="round" stroke-linejoin="round"/>
  </g>
</svg>
