<?xml version="1.0" ?>
<svg xmlns="http://www.w3.org/2000/svg" version="1.1" width="224" height="224">
  <defs/>
  <g>
    <path d="M 38.96133804321289 114.8624038696289 C 71.16792297363281 84.761474609375 78.53972625732422 94.59436798095703 93.9208984375 97.25264739990234" stroke-width="2" fill="none" stroke="rgb(0, 0, 0)" stroke-opacity="1.0" stroke-linecap="round" stroke-linejoin="round"/>
    <path d="M 56.24752426147461 146.0245361328125 C 231.24806213378906 159.48631286621094 183.4165802001953 139.32139587402344 159.55296325683594 139.18975830078125" stroke-width="2" fill="none" stroke="rgb(0, 0, 0)" stroke-opacity="1.0" stroke-linecap="round" stroke-linejoin="round"/>
    <path d="M 138.0603485107422 103.869873046875 C 110.43659210205078 97.87174224853516 177.45901489257812 123.30402374267578 122.8218994140625 116.47112274169922" stroke-width="2" fill="none" stroke="rgb(0, 0, 0)" stroke-opacity="1.0" stroke-linecap="round" stroke-linejoin="round"/>
    <path d="M 155.76121520996094 97.62422180175781 C 152.69406127929688 138.59555053710938 171.33493041992188 82.02465057373047 159.03091430664062 118.28604125976562" stroke-width="2" fill="none" stroke="rgb(0, 0, 0)" stroke-opacity="1.0" stroke-linecap="round" stroke-linejoin="round"/>
    <path d="M 109.55870819091797 105.1928939819336 C 133.12149047851562 110.9747543334961 56.258056640625 49.60390090942383 120.64298248291016 88.41152954101562" stroke-width="2" fill="none" stroke="rgb(0, 0, 0)" stroke-opacity="1.0" stroke-linecap="round" stroke-linejoin="round"/>
    <path d="M 138.7681427001953 87.91947937011719 C 48.463497161865234 86.1047134399414 170.417724609375 115.12439727783203 101.96492004394531 84.84451293945312" stroke-width="2" fill="none" stroke="rgb(0, 0, 0)" stroke-opacity="1.0" stroke-linecap="round" stroke-linejoin="round"/>
    <path d="M 105.58802032470703 140.2374725341797 C 85.59627532958984 103.50627899169922 112.76717376708984 134.0162811279297 105.36726379394531 114.87527465820312" stroke-width="2" fill="none" stroke="rgb(0, 0, 0)" stroke-opacity="1.0" stroke-linecap="round" stroke-linejoin="round"/>
    <path d="M 39.65584182739258 139.53594970703125 C 78.54043579101562 153.12625122070312 30.256593704223633 148.25070190429688 38.04312515258789 130.17662048339844" stroke-width="2" fill="none" stroke="rgb(0, 0, 0)" stroke-opacity="1.0" stroke-linecap="round" stroke-linejoin="round"/>
    <path d="M 127.16806030273438 121.96367645263672 C 227.78977966308594 141.11566162109375 43.93578338623047 115.89894104003906 155.50428771972656 123.18671417236328" stroke-width="2" fill="none" stroke="rgb(0, 0, 0)" stroke-opacity="1.0" stroke-linecap="round" stroke-linejoin="round"/>
    <path d="M 157.50633239746094 90.83367156982422 C 200.7783660888672 83.17955017089844 96.23262786865234 132.5511932373047 143.71478271484375 105.91907501220703" stroke-width="2" fill="none" stroke="rgb(0, 0, 0)" stroke-opacity="1.0" stroke-linecap="round" stroke-linejoin="round"/>
    <path d="M 173.07656860351562 86.54755401611328 C 209.49017333984375 17.532426834106445 163.39361572265625 100.74818420410156 144.94190979003906 84.33810424804688" stroke-width="2" fill="none" stroke="rgb(0, 0, 0)" stroke-opacity="1.0" stroke-linecap="round" stroke-linejoin="round"/>
    <path d="M 161.02183532714844 153.86082458496094 C 87.8182373046875 130.25411987304688 202.93557739257812 167.22808837890625 169.13233947753906 151.01841735839844" stroke-width="2" fill="none" stroke="rgb(0, 0, 0)" stroke-opacity="1.0" stroke-linecap="round" stroke-linejoin="round"/>
    <path d="M 76.87870788574219 120.41490936279297 C 121.94711303710938 133.67041015625 34.317195892333984 97.09413146972656 122.97818756103516 142.19728088378906" stroke-width="2" fill="none" stroke="rgb(0, 0, 0)" stroke-opacity="1.0" stroke-linecap="round" stroke-linejoin="round"/>
    <path d="M 145.13124084472656 109.61699676513672 C 121.04185485839844 151.32501220703125 55.66173553466797 18.161394119262695 127.38665008544922 83.21556854248047" stroke-width="2" fill="none" stroke="rgb(0, 0, 0)" stroke-opacity="1.0" stroke-linecap="round" stroke-linejoin="round"/>
    <path d="M 158.0242156982422 107.62297058105469 C 125.44683074951172 77.35961151123047 166.41134643554688 141.33656311035156 182.22764587402344 70.23237609863281" stroke-width="2" fill="none" stroke="rgb(0, 0, 0)" stroke-opacity="1.0" stroke-linecap="round" stroke-linejoin="round"/>
    <path d="M 37.19303512573242 124.60293579101562 C 53.67470932006836 103.52381134033203 -13.09444808959961 111.96511840820312 63.77068328857422 110.16570281982422" stroke-width="2" fill="none" stroke="rgb(0, 0, 0)" stroke-opacity="1.0" stroke-linecap="round" stroke-linejoin="round"/>
  </g>
</svg>
