<?xml version="1.0" ?>
<svg xmlns="http://www.w3.org/2000/svg" version="1.1" width="224" height="224">
  <defs/>
  <g>
    <path d="M 47.72569274902344 110.8214340209961 C 70.92381286621094 116.58551788330078 29.670738220214844 81.9831771850586 122.2000961303711 100.29240417480469" stroke-width="2" fill="none" stroke="rgb(0, 0, 0)" stroke-opacity="1.0" stroke-linecap="round" stroke-linejoin="round"/>
    <path d="M 105.49901580810547 123.33037567138672 C 199.6230010986328 146.27235412597656 159.96641540527344 160.52682495117188 163.67626953125 153.1426239013672" stroke-width="2" fill="none" stroke="rgb(0, 0, 0)" stroke-opacity="1.0" stroke-linecap="round" stroke-linejoin="round"/>
    <path d="M 138.4757537841797 111.878662109375 C 31.924678802490234 137.24725341796875 243.46060180664062 172.41372680664062 81.16593170166016 132.50439453125" stroke-width="2" fill="none" stroke="rgb(0, 0, 0)" stroke-opacity="1.0" stroke-linecap="round" stroke-linejoin="round"/>
    <path d="M 154.9281463623047 103.32357788085938 C 184.969970703125 91.53878021240234 112.74317932128906 90.07917022705078 164.29476928710938 108.9010009765625" stroke-width="2" fill="none" stroke="rgb(0, 0, 0)" stroke-opacity="1.0" stroke-linecap="round" stroke-linejoin="round"/>
    <path d="M 125.41496276855469 99.7234878540039 C 102.53740692138672 110.80432891845703 90.50910186767578 39.86389923095703 101.01119995117188 104.24468994140625" stroke-width="2" fill="none" stroke="rgb(0, 0, 0)" stroke-opacity="1.0" stroke-linecap="round" stroke-linejoin="round"/>
    <path d="M 125.60879516601562 87.09648895263672 C 160.461669921875 81.15589141845703 136.5727996826172 108.24690246582031 166.10452270507812 103.18246459960938" stroke-width="2" fill="none" stroke="rgb(0, 0, 0)" stroke-opacity="1.0" stroke-linecap="round" stroke-linejoin="round"/>
    <path d="M 144.43682861328125 115.91747283935547 C 124.41081237792969 106.07360076904297 155.3668975830078 101.27391052246094 132.06491088867188 103.26849365234375" stroke-width="2" fill="none" stroke="rgb(0, 0, 0)" stroke-opacity="1.0" stroke-linecap="round" stroke-linejoin="round"/>
    <path d="M 130.0037078857422 140.99172973632812 C 302.9787902832031 139.57321166992188 -46.63384246826172 187.22755432128906 56.499786376953125 106.23141479492188" stroke-width="2" fill="none" stroke="rgb(0, 0, 0)" stroke-opacity="1.0" stroke-linecap="round" stroke-linejoin="round"/>
    <path d="M 111.70121765136719 110.33027648925781 C 196.3365020751953 139.32032775878906 48.93778991699219 112.40291595458984 145.7836456298828 115.30484008789062" stroke-width="2" fill="none" stroke="rgb(0, 0, 0)" stroke-opacity="1.0" stroke-linecap="round" stroke-linejoin="round"/>
    <path d="M 121.3716812133789 110.01758575439453 C 173.37547302246094 144.86752319335938 89.84148406982422 117.92096710205078 125.5931625366211 108.73261260986328" stroke-width="2" fill="none" stroke="rgb(0, 0, 0)" stroke-opacity="1.0" stroke-linecap="round" stroke-linejoin="round"/>
    <path d="M 166.3767852783203 90.52903747558594 C 232.07972717285156 18.674707412719727 97.27974700927734 120.4991226196289 162.6461181640625 73.94155883789062" stroke-width="2" fill="none" stroke="rgb(0, 0, 0)" stroke-opacity="1.0" stroke-linecap="round" stroke-linejoin="round"/>
    <path d="M 147.35052490234375 146.81617736816406 C 157.31344604492188 162.70643615722656 179.41934204101562 140.63262939453125 120.95233154296875 146.8454132080078" stroke-width="2" fill="none" stroke="rgb(0, 0, 0)" stroke-opacity="1.0" stroke-linecap="round" stroke-linejoin="round"/>
    <path d="M 133.19900512695312 108.75904846191406 C 170.89187622070312 121.29459381103516 89.94956970214844 122.68987274169922 144.91587829589844 112.24752807617188" stroke-width="2" fill="none" stroke="rgb(0, 0, 0)" stroke-opacity="1.0" stroke-linecap="round" stroke-linejoin="round"/>
    <path d="M 94.26648712158203 100.46784973144531 C 162.79327392578125 165.4251708984375 42.817501068115234 20.66320037841797 125.09400177001953 88.57734680175781" stroke-width="2" fill="none" stroke="rgb(0, 0, 0)" stroke-opacity="1.0" stroke-linecap="round" stroke-linejoin="round"/>
    <path d="M 171.98194885253906 102.85389709472656 C 133.05377197265625 113.82595825195312 168.93641662597656 138.10081481933594 183.3349151611328 71.2903823852539" stroke-width="2" fill="none" stroke="rgb(0, 0, 0)" stroke-opacity="1.0" stroke-linecap="round" stroke-linejoin="round"/>
    <path d="M 81.04749298095703 126.16862487792969 C 105.63349151611328 155.38951110839844 47.99507522583008 109.96017456054688 107.35551452636719 141.73828125" stroke-width="2" fill="none" stroke="rgb(0, 0, 0)" stroke-opacity="1.0" stroke-linecap="round" stroke-linejoin="round"/>
  </g>
</svg>
