<?xml version="1.0" ?>
<svg xmlns="http://www.w3.org/2000/svg" version="1.1" width="224" height="224">
  <defs/>
  <g>
    <path d="M 44.772300720214844 117.98674774169922 C 64.84479522705078 117.32115173339844 23.40523910522461 93.44298553466797 114.55086517333984 104.59135437011719" stroke-width="2" fill="none" stroke="rgb(0, 0, 0)" stroke-opacity="1.0" stroke-linecap="round" stroke-linejoin="round"/>
    <path d="M 112.91065216064453 126.01722717285156 C 189.0087432861328 147.8163299560547 169.61302185058594 166.0147247314453 136.05108642578125 147.2515106201172" stroke-width="2" fill="none" stroke="rgb(0, 0, 0)" stroke-opacity="1.0" stroke-linecap="round" stroke-linejoin="round"/>
    <path d="M 136.5980224609375 104.58610534667969 C 78.26676177978516 114.53419494628906 212.5659942626953 122.42739868164062 131.8194580078125 106.35870361328125" stroke-width="2" fill="none" stroke="rgb(0, 0, 0)" stroke-opacity="1.0" stroke-linecap="round" stroke-linejoin="round"/>
    <path d="M 150.27061462402344 106.7930908203125 C 179.0596923828125 108.90743255615234 133.2225341796875 90.9312973022461 168.52207946777344 93.9517593383789" stroke-width="2" fill="none" stroke="rgb(0, 0, 0)" stroke-opacity="1.0" stroke-linecap="round" stroke-linejoin="round"/>
    <path d="M 127.90837097167969 82.80512237548828 C 117.13192749023438 92.17127990722656 66.54159545898438 27.32604217529297 109.28379821777344 99.92388916015625" stroke-width="2" fill="none" stroke="rgb(0, 0, 0)" stroke-opacity="1.0" stroke-linecap="round" stroke-linejoin="round"/>
    <path d="M 124.2447738647461 91.67288208007812 C 142.95098876953125 68.01260375976562 173.12283325195312 98.3847427368164 146.87493896484375 80.59934997558594" stroke-width="2" fill="none" stroke="rgb(0, 0, 0)" stroke-opacity="1.0" stroke-linecap="round" stroke-linejoin="round"/>
    <path d="M 146.30288696289062 123.16741180419922 C 100.88168334960938 87.9736557006836 171.0842742919922 136.35304260253906 130.06558227539062 100.81536102294922" stroke-width="2" fill="none" stroke="rgb(0, 0, 0)" stroke-opacity="1.0" stroke-linecap="round" stroke-linejoin="round"/>
    <path d="M 113.0154800415039 142.47186279296875 C 230.1428680419922 147.41627502441406 -24.606361389160156 178.0094757080078 52.24789810180664 109.34370422363281" stroke-width="2" fill="none" stroke="rgb(0, 0, 0)" stroke-opacity="1.0" stroke-linecap="round" stroke-linejoin="round"/>
    <path d="M 167.0684051513672 146.3445281982422 C 207.17098999023438 161.83743286132812 27.767131805419922 89.50389099121094 142.61485290527344 119.72154235839844" stroke-width="2" fill="none" stroke="rgb(0, 0, 0)" stroke-opacity="1.0" stroke-linecap="round" stroke-linejoin="round"/>
    <path d="M 140.54627990722656 127.45835876464844 C 151.0438690185547 131.44735717773438 104.78977966308594 142.49632263183594 141.8272705078125 125.92216491699219" stroke-width="2" fill="none" stroke="rgb(0, 0, 0)" stroke-opacity="1.0" stroke-linecap="round" stroke-linejoin="round"/>
    <path d="M 151.05303955078125 84.88905334472656 C 229.10572814941406 13.87042236328125 123.17030334472656 133.16107177734375 169.31106567382812 95.90400695800781" stroke-width="2" fill="none" stroke="rgb(0, 0, 0)" stroke-opacity="1.0" stroke-linecap="round" stroke-linejoin="round"/>
    <path d="M 128.594970703125 150.64248657226562 C 139.46762084960938 149.67245483398438 175.02252197265625 151.97463989257812 69.45777130126953 151.93548583984375" stroke-width="2" fill="none" stroke="rgb(0, 0, 0)" stroke-opacity="1.0" stroke-linecap="round" stroke-linejoin="round"/>
    <path d="M 97.4471664428711 118.84784698486328 C 158.33685302734375 168.72776794433594 68.9280776977539 96.912109375 145.13372802734375 119.03626251220703" stroke-width="2" fill="none" stroke="rgb(0, 0, 0)" stroke-opacity="1.0" stroke-linecap="round" stroke-linejoin="round"/>
    <path d="M 145.63455200195312 108.03892517089844 C 97.42021179199219 158.08763122558594 67.943603515625 25.618974685668945 113.99049377441406 79.54292297363281" stroke-width="2" fill="none" stroke="rgb(0, 0, 0)" stroke-opacity="1.0" stroke-linecap="round" stroke-linejoin="round"/>
    <path d="M 164.83021545410156 121.89419555664062 C 139.02098083496094 118.3187484741211 172.57272338867188 146.1159210205078 180.1661376953125 71.13642883300781" stroke-width="2" fill="none" stroke="rgb(0, 0, 0)" stroke-opacity="1.0" stroke-linecap="round" stroke-linejoin="round"/>
    <path d="M 84.85531616210938 132.37588500976562 C 97.74742889404297 145.91160583496094 45.373016357421875 122.7235336303711 103.64920043945312 149.81846618652344" stroke-width="2" fill="none" stroke="rgb(0, 0, 0)" stroke-opacity="1.0" stroke-linecap="round" stroke-linejoin="round"/>
  </g>
</svg>
