<?xml version="1.0" ?>
<svg xmlns="http://www.w3.org/2000/svg" version="1.1" width="224" height="224">
  <defs/>
  <g>
    <path d="M 51.179931640625 121.26988983154297 C 55.07472610473633 86.46276092529297 84.16251373291016 99.04816436767578 91.25708770751953 94.96603393554688" stroke-width="2" fill="none" stroke="rgb(0, 0, 0)" stroke-opacity="1.0" stroke-linecap="round" stroke-linejoin="round"/>
    <path d="M 48.794456481933594 147.82568359375 C 205.42234802246094 172.48155212402344 202.16893005371094 120.88516235351562 168.13853454589844 154.50668334960938" stroke-width="2" fill="none" stroke="rgb(0, 0, 0)" stroke-opacity="1.0" stroke-linecap="round" stroke-linejoin="round"/>
    <path d="M 144.9657745361328 129.67601013183594 C 117.33145141601562 119.87812042236328 179.13275146484375 151.237548828125 114.33137512207031 129.7137451171875" stroke-width="2" fill="none" stroke="rgb(0, 0, 0)" stroke-opacity="1.0" stroke-linecap="round" stroke-linejoin="round"/>
    <path d="M 157.9664764404297 108.7344741821289 C 145.3445281982422 133.16197204589844 181.18344116210938 111.10814666748047 156.0919952392578 129.2058868408203" stroke-width="2" fill="none" stroke="rgb(0, 0, 0)" stroke-opacity="1.0" stroke-linecap="round" stroke-linejoin="round"/>
    <path d="M 129.0472869873047 108.47013092041016 C 105.34845733642578 128.91883850097656 138.4907989501953 72.38748168945312 153.55430603027344 99.68340301513672" stroke-width="2" fill="none" stroke="rgb(0, 0, 0)" stroke-opacity="1.0" stroke-linecap="round" stroke-linejoin="round"/>
    <path d="M 169.76966857910156 93.838623046875 C 33.460906982421875 90.30268096923828 175.89537048339844 122.57222747802734 103.56666564941406 91.71063995361328" stroke-width="2" fill="none" stroke="rgb(0, 0, 0)" stroke-opacity="1.0" stroke-linecap="round" stroke-linejoin="round"/>
    <path d="M 111.49763488769531 107.51431274414062 C 108.17774963378906 142.93548583984375 119.72338104248047 102.4787368774414 94.69451141357422 107.64141082763672" stroke-width="2" fill="none" stroke="rgb(0, 0, 0)" stroke-opacity="1.0" stroke-linecap="round" stroke-linejoin="round"/>
    <path d="M 41.18415832519531 140.3780059814453 C 68.56869506835938 158.30458068847656 31.7061824798584 143.85098266601562 37.499267578125 127.19593048095703" stroke-width="2" fill="none" stroke="rgb(0, 0, 0)" stroke-opacity="1.0" stroke-linecap="round" stroke-linejoin="round"/>
    <path d="M 127.01659393310547 139.1672821044922 C 205.95904541015625 153.31871032714844 110.85411834716797 129.8200225830078 147.30674743652344 131.70372009277344" stroke-width="2" fill="none" stroke="rgb(0, 0, 0)" stroke-opacity="1.0" stroke-linecap="round" stroke-linejoin="round"/>
    <path d="M 153.95321655273438 106.80703735351562 C 190.313232421875 124.25753784179688 105.53692626953125 108.57495880126953 135.01446533203125 119.67461395263672" stroke-width="2" fill="none" stroke="rgb(0, 0, 0)" stroke-opacity="1.0" stroke-linecap="round" stroke-linejoin="round"/>
    <path d="M 168.73233032226562 114.44755554199219 C 201.03536987304688 22.62398338317871 177.46173095703125 84.08223724365234 155.35842895507812 88.0947036743164" stroke-width="2" fill="none" stroke="rgb(0, 0, 0)" stroke-opacity="1.0" stroke-linecap="round" stroke-linejoin="round"/>
    <path d="M 153.1871795654297 156.3286895751953 C 109.17674255371094 157.4418487548828 201.53988647460938 151.98129272460938 179.35694885253906 148.9682159423828" stroke-width="2" fill="none" stroke="rgb(0, 0, 0)" stroke-opacity="1.0" stroke-linecap="round" stroke-linejoin="round"/>
    <path d="M 86.9625473022461 122.39201354980469 C 107.15582275390625 133.3630828857422 50.579490661621094 110.59008026123047 124.06991577148438 145.33937072753906" stroke-width="2" fill="none" stroke="rgb(0, 0, 0)" stroke-opacity="1.0" stroke-linecap="round" stroke-linejoin="round"/>
    <path d="M 142.25038146972656 138.14254760742188 C 109.74433135986328 117.18029022216797 66.7913589477539 32.01117706298828 134.0228729248047 94.71397399902344" stroke-width="2" fill="none" stroke="rgb(0, 0, 0)" stroke-opacity="1.0" stroke-linecap="round" stroke-linejoin="round"/>
    <path d="M 147.39645385742188 112.54647064208984 C 127.61504364013672 107.79778289794922 179.180908203125 140.15719604492188 184.6492919921875 64.48078155517578" stroke-width="2" fill="none" stroke="rgb(0, 0, 0)" stroke-opacity="1.0" stroke-linecap="round" stroke-linejoin="round"/>
    <path d="M 78.71453094482422 109.5722885131836 C 58.623294830322266 93.40933990478516 5.244935989379883 147.98907470703125 63.20036697387695 99.76610565185547" stroke-width="2" fill="none" stroke="rgb(0, 0, 0)" stroke-opacity="1.0" stroke-linecap="round" stroke-linejoin="round"/>
  </g>
</svg>
