<?xml version="1.0" ?>
<svg xmlns="http://www.w3.org/2000/svg" version="1.1" width="224" height="224">
  <defs/>
  <g>
    <path d="M 42.08224868774414 126.61656951904297 C 52.42732238769531 84.13500213623047 94.9134521484375 99.96521759033203 89.67084503173828 92.64288330078125" stroke-width="2" fill="none" stroke="rgb(0, 0, 0)" stroke-opacity="1.0" stroke-linecap="round" stroke-linejoin="round"/>
    <path d="M 52.933677673339844 148.54737854003906 C 221.57814025878906 164.10275268554688 174.75010681152344 138.20184326171875 177.44735717773438 147.75709533691406" stroke-width="2" fill="none" stroke="rgb(0, 0, 0)" stroke-opacity="1.0" stroke-linecap="round" stroke-linejoin="round"/>
    <path d="M 139.94140625 106.86477661132812 C 118.0847396850586 102.23846435546875 165.96588134765625 116.7992935180664 141.32118225097656 119.36143493652344" stroke-width="2" fill="none" stroke="rgb(0, 0, 0)" stroke-opacity="1.0" stroke-linecap="round" stroke-linejoin="round"/>
    <path d="M 155.0072479248047 95.47959899902344 C 150.826904296875 140.98443603515625 178.53221130371094 80.2313232421875 152.63343811035156 118.127685546875" stroke-width="2" fill="none" stroke="rgb(0, 0, 0)" stroke-opacity="1.0" stroke-linecap="round" stroke-linejoin="round"/>
    <path d="M 118.56935119628906 92.29064178466797 C 99.30093383789062 117.22534942626953 135.47744750976562 73.71405792236328 148.95175170898438 90.20686340332031" stroke-width="2" fill="none" stroke="rgb(0, 0, 0)" stroke-opacity="1.0" stroke-linecap="round" stroke-linejoin="round"/>
    <path d="M 171.09136962890625 84.3655776977539 C 16.768491744995117 92.03480529785156 182.89913940429688 120.36717224121094 101.38485717773438 90.7547607421875" stroke-width="2" fill="none" stroke="rgb(0, 0, 0)" stroke-opacity="1.0" stroke-linecap="round" stroke-linejoin="round"/>
    <path d="M 128.67738342285156 143.60891723632812 C 92.37835693359375 146.920654296875 120.75117492675781 114.64558410644531 101.35755157470703 111.59571075439453" stroke-width="2" fill="none" stroke="rgb(0, 0, 0)" stroke-opacity="1.0" stroke-linecap="round" stroke-linejoin="round"/>
    <path d="M 45.07957077026367 142.3987579345703 C 75.48622131347656 159.83041381835938 25.18164825439453 143.44577026367188 44.90176773071289 127.83197784423828" stroke-width="2" fill="none" stroke="rgb(0, 0, 0)" stroke-opacity="1.0" stroke-linecap="round" stroke-linejoin="round"/>
    <path d="M 121.84010314941406 121.85664367675781 C 266.6585388183594 141.52748107910156 64.44068908691406 113.905029296875 148.3366241455078 120.1734848022461" stroke-width="2" fill="none" stroke="rgb(0, 0, 0)" stroke-opacity="1.0" stroke-linecap="round" stroke-linejoin="round"/>
    <path d="M 161.84764099121094 103.75518035888672 C 194.5619659423828 98.64529418945312 106.20484161376953 118.85203552246094 139.03384399414062 108.752685546875" stroke-width="2" fill="none" stroke="rgb(0, 0, 0)" stroke-opacity="1.0" stroke-linecap="round" stroke-linejoin="round"/>
    <path d="M 160.01373291015625 90.6616439819336 C 216.79000854492188 28.224618911743164 168.17625427246094 100.3595962524414 160.87391662597656 95.41451263427734" stroke-width="2" fill="none" stroke="rgb(0, 0, 0)" stroke-opacity="1.0" stroke-linecap="round" stroke-linejoin="round"/>
    <path d="M 146.2949981689453 133.26351928710938 C 89.73247528076172 124.93434143066406 204.74766540527344 152.35850524902344 164.16302490234375 149.67478942871094" stroke-width="2" fill="none" stroke="rgb(0, 0, 0)" stroke-opacity="1.0" stroke-linecap="round" stroke-linejoin="round"/>
    <path d="M 85.88748168945312 132.87245178222656 C 113.38921356201172 131.0965576171875 45.758487701416016 110.03348541259766 124.48979187011719 147.47154235839844" stroke-width="2" fill="none" stroke="rgb(0, 0, 0)" stroke-opacity="1.0" stroke-linecap="round" stroke-linejoin="round"/>
    <path d="M 144.81263732910156 119.23432159423828 C 109.31484985351562 126.07306671142578 60.28790283203125 28.013408660888672 128.70431518554688 90.12493133544922" stroke-width="2" fill="none" stroke="rgb(0, 0, 0)" stroke-opacity="1.0" stroke-linecap="round" stroke-linejoin="round"/>
    <path d="M 154.98855590820312 104.44758605957031 C 133.7432098388672 75.30443572998047 168.30142211914062 158.46954345703125 184.5810546875 67.55728912353516" stroke-width="2" fill="none" stroke="rgb(0, 0, 0)" stroke-opacity="1.0" stroke-linecap="round" stroke-linejoin="round"/>
    <path d="M 71.57991027832031 119.58985900878906 C 63.14702606201172 96.57345581054688 -31.40753173828125 162.99179077148438 70.24459838867188 107.22140502929688" stroke-width="2" fill="none" stroke="rgb(0, 0, 0)" stroke-opacity="1.0" stroke-linecap="round" stroke-linejoin="round"/>
  </g>
</svg>
