<?xml version="1.0" ?>
<svg xmlns="http://www.w3.org/2000/svg" version="1.1" width="224" height="224">
  <defs/>
  <g>
    <path d="M 37.23108673095703 117.60103607177734 C 64.81583404541016 111.90711212158203 25.836814880371094 86.65826416015625 121.48162841796875 98.09809112548828" stroke-width="2" fill="none" stroke="rgb(0, 0, 0)" stroke-opacity="1.0" stroke-linecap="round" stroke-linejoin="round"/>
    <path d="M 99.81916809082031 121.2675552368164 C 208.91297912597656 150.1241912841797 174.20053100585938 162.97430419921875 149.3370361328125 139.80368041992188" stroke-width="2" fill="none" stroke="rgb(0, 0, 0)" stroke-opacity="1.0" stroke-linecap="round" stroke-linejoin="round"/>
    <path d="M 111.951416015625 103.85755157470703 C 97.50225830078125 80.31233215332031 176.28221130371094 141.8339080810547 111.9210205078125 120.95620727539062" stroke-width="2" fill="none" stroke="rgb(0, 0, 0)" stroke-opacity="1.0" stroke-linecap="round" stroke-linejoin="round"/>
    <path d="M 147.4539337158203 98.920166015625 C 207.07028198242188 108.60250854492188 106.22042083740234 111.1706771850586 160.574951171875 101.63619232177734" stroke-width="2" fill="none" stroke="rgb(0, 0, 0)" stroke-opacity="1.0" stroke-linecap="round" stroke-linejoin="round"/>
    <path d="M 122.54523468017578 93.53394317626953 C 107.41551971435547 101.13934326171875 86.86349487304688 34.330238342285156 95.56097412109375 101.69550323486328" stroke-width="2" fill="none" stroke="rgb(0, 0, 0)" stroke-opacity="1.0" stroke-linecap="round" stroke-linejoin="round"/>
    <path d="M 126.80757141113281 86.19888305664062 C 159.7914276123047 62.9885368347168 179.1735076904297 136.5058135986328 151.05348205566406 100.27493286132812" stroke-width="2" fill="none" stroke="rgb(0, 0, 0)" stroke-opacity="1.0" stroke-linecap="round" stroke-linejoin="round"/>
    <path d="M 128.37106323242188 120.35289764404297 C 97.79682159423828 95.8133773803711 166.8561553955078 96.87688446044922 125.92208099365234 106.64840698242188" stroke-width="2" fill="none" stroke="rgb(0, 0, 0)" stroke-opacity="1.0" stroke-linecap="round" stroke-linejoin="round"/>
    <path d="M 87.26226806640625 139.78541564941406 C 225.4088134765625 160.9981231689453 -23.19017219543457 168.1725616455078 48.88096237182617 107.17887878417969" stroke-width="2" fill="none" stroke="rgb(0, 0, 0)" stroke-opacity="1.0" stroke-linecap="round" stroke-linejoin="round"/>
    <path d="M 185.15634155273438 152.82098388671875 C 217.1487579345703 147.93626403808594 36.324710845947266 74.0724105834961 136.35926818847656 122.43370819091797" stroke-width="2" fill="none" stroke="rgb(0, 0, 0)" stroke-opacity="1.0" stroke-linecap="round" stroke-linejoin="round"/>
    <path d="M 101.51481628417969 126.2968978881836 C 181.12596130371094 121.73016357421875 134.35923767089844 111.78133392333984 150.93553161621094 124.10770416259766" stroke-width="2" fill="none" stroke="rgb(0, 0, 0)" stroke-opacity="1.0" stroke-linecap="round" stroke-linejoin="round"/>
    <path d="M 157.70538330078125 91.88243103027344 C 227.44630432128906 27.301868438720703 105.8384780883789 117.33203887939453 173.7106170654297 69.04936981201172" stroke-width="2" fill="none" stroke="rgb(0, 0, 0)" stroke-opacity="1.0" stroke-linecap="round" stroke-linejoin="round"/>
    <path d="M 152.4066619873047 136.4474639892578 C 201.08909606933594 148.94033813476562 197.70919799804688 141.2489471435547 46.014617919921875 144.56149291992188" stroke-width="2" fill="none" stroke="rgb(0, 0, 0)" stroke-opacity="1.0" stroke-linecap="round" stroke-linejoin="round"/>
    <path d="M 101.17720794677734 119.25724792480469 C 241.9848175048828 118.77494049072266 72.4356918334961 126.11235046386719 134.62646484375 111.3995361328125" stroke-width="2" fill="none" stroke="rgb(0, 0, 0)" stroke-opacity="1.0" stroke-linecap="round" stroke-linejoin="round"/>
    <path d="M 111.80267333984375 100.5276107788086 C 121.07452392578125 125.11965942382812 60.49677276611328 32.75180435180664 125.52548217773438 85.91297912597656" stroke-width="2" fill="none" stroke="rgb(0, 0, 0)" stroke-opacity="1.0" stroke-linecap="round" stroke-linejoin="round"/>
    <path d="M 167.51475524902344 94.12882232666016 C 133.51841735839844 108.74319458007812 161.17636108398438 146.11460876464844 184.18179321289062 63.638023376464844" stroke-width="2" fill="none" stroke="rgb(0, 0, 0)" stroke-opacity="1.0" stroke-linecap="round" stroke-linejoin="round"/>
    <path d="M 68.86592102050781 129.86021423339844 C 78.65274047851562 148.8976287841797 46.7053108215332 124.93303680419922 77.80555725097656 142.18475341796875" stroke-width="2" fill="none" stroke="rgb(0, 0, 0)" stroke-opacity="1.0" stroke-linecap="round" stroke-linejoin="round"/>
  </g>
</svg>
