<?xml version="1.0" ?>
<svg xmlns="http://www.w3.org/2000/svg" version="1.1" width="224" height="224">
  <defs/>
  <g>
    <path d="M 48.40656280517578 118.5648193359375 C 57.29815673828125 86.82410430908203 91.1157455444336 99.69375610351562 88.55984497070312 94.4754867553711" stroke-width="2" fill="none" stroke="rgb(0, 0, 0)" stroke-opacity="1.0" stroke-linecap="round" stroke-linejoin="round"/>
    <path d="M 47.51725769042969 146.98773193359375 C 198.42074584960938 175.6022186279297 197.00106811523438 112.70427703857422 166.95887756347656 153.5623779296875" stroke-width="2" fill="none" stroke="rgb(0, 0, 0)" stroke-opacity="1.0" stroke-linecap="round" stroke-linejoin="round"/>
    <path d="M 150.19833374023438 113.61021423339844 C 116.7452392578125 101.5311050415039 148.12071228027344 127.59756469726562 142.3099365234375 108.80980682373047" stroke-width="2" fill="none" stroke="rgb(0, 0, 0)" stroke-opacity="1.0" stroke-linecap="round" stroke-linejoin="round"/>
    <path d="M 160.38230895996094 105.66499328613281 C 152.98133850097656 134.7812957763672 181.66676330566406 94.01705932617188 156.04278564453125 124.72988891601562" stroke-width="2" fill="none" stroke="rgb(0, 0, 0)" stroke-opacity="1.0" stroke-linecap="round" stroke-linejoin="round"/>
    <path d="M 135.25112915039062 108.17376708984375 C 107.61161804199219 118.14492797851562 137.0508575439453 70.9076156616211 149.99839782714844 96.36136627197266" stroke-width="2" fill="none" stroke="rgb(0, 0, 0)" stroke-opacity="1.0" stroke-linecap="round" stroke-linejoin="round"/>
    <path d="M 166.71466064453125 91.02960205078125 C 29.030961990356445 89.58119201660156 180.07196044921875 118.65452575683594 102.37709045410156 92.14054107666016" stroke-width="2" fill="none" stroke="rgb(0, 0, 0)" stroke-opacity="1.0" stroke-linecap="round" stroke-linejoin="round"/>
    <path d="M 111.27516174316406 134.65939331054688 C 105.7878646850586 130.72840881347656 116.53569030761719 108.83470153808594 94.69482421875 109.62490844726562" stroke-width="2" fill="none" stroke="rgb(0, 0, 0)" stroke-opacity="1.0" stroke-linecap="round" stroke-linejoin="round"/>
    <path d="M 40.515987396240234 130.4002227783203 C 55.42128372192383 146.23422241210938 37.74189376831055 137.0260467529297 42.901180267333984 122.76920318603516" stroke-width="2" fill="none" stroke="rgb(0, 0, 0)" stroke-opacity="1.0" stroke-linecap="round" stroke-linejoin="round"/>
    <path d="M 123.312744140625 136.21237182617188 C 222.7088165283203 153.28106689453125 101.43452453613281 129.58116149902344 144.16079711914062 132.37828063964844" stroke-width="2" fill="none" stroke="rgb(0, 0, 0)" stroke-opacity="1.0" stroke-linecap="round" stroke-linejoin="round"/>
    <path d="M 159.1159210205078 96.86898803710938 C 204.271728515625 112.37547302246094 99.31961822509766 109.57029724121094 145.46017456054688 118.798095703125" stroke-width="2" fill="none" stroke="rgb(0, 0, 0)" stroke-opacity="1.0" stroke-linecap="round" stroke-linejoin="round"/>
    <path d="M 159.98501586914062 86.9173355102539 C 205.09205627441406 34.15205764770508 169.0266876220703 91.5513916015625 146.47256469726562 86.73323059082031" stroke-width="2" fill="none" stroke="rgb(0, 0, 0)" stroke-opacity="1.0" stroke-linecap="round" stroke-linejoin="round"/>
    <path d="M 153.18682861328125 154.16188049316406 C 115.74360656738281 139.03070068359375 188.0359344482422 166.3413543701172 173.4874725341797 145.53842163085938" stroke-width="2" fill="none" stroke="rgb(0, 0, 0)" stroke-opacity="1.0" stroke-linecap="round" stroke-linejoin="round"/>
    <path d="M 89.28366088867188 126.65044403076172 C 141.78579711914062 153.5623779296875 81.42168426513672 104.3504638671875 118.7848892211914 141.3995361328125" stroke-width="2" fill="none" stroke="rgb(0, 0, 0)" stroke-opacity="1.0" stroke-linecap="round" stroke-linejoin="round"/>
    <path d="M 145.70358276367188 123.92698669433594 C 103.25416564941406 123.76616668701172 67.41951751708984 31.674257278442383 132.3478240966797 92.82292175292969" stroke-width="2" fill="none" stroke="rgb(0, 0, 0)" stroke-opacity="1.0" stroke-linecap="round" stroke-linejoin="round"/>
    <path d="M 152.11524963378906 107.18396759033203 C 132.8496551513672 92.5179443359375 171.8086700439453 144.2919158935547 184.18191528320312 63.492977142333984" stroke-width="2" fill="none" stroke="rgb(0, 0, 0)" stroke-opacity="1.0" stroke-linecap="round" stroke-linejoin="round"/>
    <path d="M 77.40045928955078 108.73236846923828 C 65.06287384033203 87.34973907470703 -4.485804557800293 131.03363037109375 73.21895599365234 97.21409606933594" stroke-width="2" fill="none" stroke="rgb(0, 0, 0)" stroke-opacity="1.0" stroke-linecap="round" stroke-linejoin="round"/>
  </g>
</svg>
