<?xml version="1.0" ?>
<svg xmlns="http://www.w3.org/2000/svg" version="1.1" width="224" height="224">
  <defs/>
  <g>
    <path d="M 59.687442779541016 103.50999450683594 C 55.964969635009766 105.81443786621094 115.46379852294922 67.76142883300781 114.74050903320312 124.3166732788086" stroke-width="2" fill="none" stroke="rgb(0, 0, 0)" stroke-opacity="1.0" stroke-linecap="round" stroke-linejoin="round"/>
    <path d="M 142.56497192382812 156.99383544921875 C 189.7510986328125 145.03492736816406 169.02105712890625 166.38665771484375 186.1016387939453 157.50291442871094" stroke-width="2" fill="none" stroke="rgb(0, 0, 0)" stroke-opacity="1.0" stroke-linecap="round" stroke-linejoin="round"/>
    <path d="M 135.49940490722656 110.96620178222656 C 70.29280853271484 102.3708724975586 316.5425109863281 180.6698455810547 98.368896484375 143.22984313964844" stroke-width="2" fill="none" stroke="rgb(0, 0, 0)" stroke-opacity="1.0" stroke-linecap="round" stroke-linejoin="round"/>
    <path d="M 159.0161590576172 100.8465576171875 C 192.0352020263672 110.50269317626953 121.47976684570312 104.96614837646484 171.11654663085938 97.46715545654297" stroke-width="2" fill="none" stroke="rgb(0, 0, 0)" stroke-opacity="1.0" stroke-linecap="round" stroke-linejoin="round"/>
    <path d="M 141.01492309570312 77.99065399169922 C 112.7080307006836 89.84135437011719 89.16339111328125 33.398773193359375 106.23946380615234 92.92326354980469" stroke-width="2" fill="none" stroke="rgb(0, 0, 0)" stroke-opacity="1.0" stroke-linecap="round" stroke-linejoin="round"/>
    <path d="M 134.7761688232422 83.95792388916016 C 164.9590301513672 55.5209846496582 175.71656799316406 109.63300323486328 150.9413299560547 95.0283432006836" stroke-width="2" fill="none" stroke="rgb(0, 0, 0)" stroke-opacity="1.0" stroke-linecap="round" stroke-linejoin="round"/>
    <path d="M 134.7039031982422 100.32817077636719 C 90.32139587402344 120.35197448730469 131.30377197265625 102.35428619384766 115.69554138183594 113.05196380615234" stroke-width="2" fill="none" stroke="rgb(0, 0, 0)" stroke-opacity="1.0" stroke-linecap="round" stroke-linejoin="round"/>
    <path d="M 142.74610900878906 140.3737030029297 C 237.50967407226562 137.60302734375 -15.456916809082031 188.11685180664062 60.91730880737305 106.77523803710938" stroke-width="2" fill="none" stroke="rgb(0, 0, 0)" stroke-opacity="1.0" stroke-linecap="round" stroke-linejoin="round"/>
    <path d="M 114.68097686767578 111.5856704711914 C 209.02328491210938 142.74452209472656 89.34300231933594 111.4909896850586 138.01393127441406 102.5068588256836" stroke-width="2" fill="none" stroke="rgb(0, 0, 0)" stroke-opacity="1.0" stroke-linecap="round" stroke-linejoin="round"/>
    <path d="M 114.22034454345703 95.89353942871094 C 196.07691955566406 128.0726776123047 4.3280348777771 121.8787612915039 154.3127899169922 118.07909393310547" stroke-width="2" fill="none" stroke="rgb(0, 0, 0)" stroke-opacity="1.0" stroke-linecap="round" stroke-linejoin="round"/>
    <path d="M 163.1682891845703 81.09194946289062 C 224.59738159179688 11.230093955993652 123.9036865234375 158.41380310058594 168.6017303466797 92.14905548095703" stroke-width="2" fill="none" stroke="rgb(0, 0, 0)" stroke-opacity="1.0" stroke-linecap="round" stroke-linejoin="round"/>
    <path d="M 155.08021545410156 139.94833374023438 C 141.4185028076172 141.80093383789062 165.6563720703125 137.5181884765625 169.33828735351562 148.828369140625" stroke-width="2" fill="none" stroke="rgb(0, 0, 0)" stroke-opacity="1.0" stroke-linecap="round" stroke-linejoin="round"/>
    <path d="M 140.5808563232422 130.42764282226562 C 172.80963134765625 115.18730926513672 116.7757568359375 113.35041046142578 152.31932067871094 121.77761840820312" stroke-width="2" fill="none" stroke="rgb(0, 0, 0)" stroke-opacity="1.0" stroke-linecap="round" stroke-linejoin="round"/>
    <path d="M 136.91262817382812 136.38433837890625 C 182.18792724609375 157.6442108154297 45.844173431396484 21.11676025390625 121.71186065673828 84.09843444824219" stroke-width="2" fill="none" stroke="rgb(0, 0, 0)" stroke-opacity="1.0" stroke-linecap="round" stroke-linejoin="round"/>
    <path d="M 176.81838989257812 84.47005462646484 C 137.63148498535156 113.8873519897461 166.1459503173828 141.61981201171875 182.67843627929688 65.04141235351562" stroke-width="2" fill="none" stroke="rgb(0, 0, 0)" stroke-opacity="1.0" stroke-linecap="round" stroke-linejoin="round"/>
    <path d="M 118.39400482177734 128.4143524169922 C 144.0214385986328 157.63697814941406 76.82273864746094 81.88723754882812 92.82925415039062 107.03557586669922" stroke-width="2" fill="none" stroke="rgb(0, 0, 0)" stroke-opacity="1.0" stroke-linecap="round" stroke-linejoin="round"/>
  </g>
</svg>
