<?xml version="1.0" ?>
<svg xmlns="http://www.w3.org/2000/svg" version="1.1" width="224" height="224">
  <defs/>
  <g>
    <path d="M 59.27947235107422 103.16366577148438 C 74.93383026123047 103.23249816894531 99.7110824584961 77.53141784667969 113.62715148925781 132.093505859375" stroke-width="2" fill="none" stroke="rgb(0, 0, 0)" stroke-opacity="1.0" stroke-linecap="round" stroke-linejoin="round"/>
    <path d="M 103.7367172241211 151.79437255859375 C 202.29891967773438 128.3679962158203 161.790771484375 154.82626342773438 181.1979217529297 139.7573699951172" stroke-width="2" fill="none" stroke="rgb(0, 0, 0)" stroke-opacity="1.0" stroke-linecap="round" stroke-linejoin="round"/>
    <path d="M 135.45748901367188 106.31170654296875 C 36.77716064453125 120.61408996582031 309.99859619140625 148.68850708007812 98.58659362792969 140.37803649902344" stroke-width="2" fill="none" stroke="rgb(0, 0, 0)" stroke-opacity="1.0" stroke-linecap="round" stroke-linejoin="round"/>
    <path d="M 159.71463012695312 115.99552154541016 C 189.2084197998047 93.1633071899414 106.16590118408203 78.72842407226562 173.40684509277344 86.40538787841797" stroke-width="2" fill="none" stroke="rgb(0, 0, 0)" stroke-opacity="1.0" stroke-linecap="round" stroke-linejoin="round"/>
    <path d="M 135.56051635742188 87.228271484375 C 124.95755767822266 97.38813018798828 91.96903228759766 39.43474197387695 99.07391357421875 97.26526641845703" stroke-width="2" fill="none" stroke="rgb(0, 0, 0)" stroke-opacity="1.0" stroke-linecap="round" stroke-linejoin="round"/>
    <path d="M 127.0784683227539 86.9575424194336 C 187.89622497558594 78.40425872802734 136.59095764160156 139.26182556152344 168.3368377685547 102.79623413085938" stroke-width="2" fill="none" stroke="rgb(0, 0, 0)" stroke-opacity="1.0" stroke-linecap="round" stroke-linejoin="round"/>
    <path d="M 133.07403564453125 102.04422760009766 C 110.72920227050781 108.29024505615234 149.9236297607422 89.86754608154297 126.81487274169922 107.80481719970703" stroke-width="2" fill="none" stroke="rgb(0, 0, 0)" stroke-opacity="1.0" stroke-linecap="round" stroke-linejoin="round"/>
    <path d="M 147.43028259277344 145.4391326904297 C 253.60400390625 120.32662963867188 -32.25448226928711 196.1141357421875 68.97630310058594 100.50724792480469" stroke-width="2" fill="none" stroke="rgb(0, 0, 0)" stroke-opacity="1.0" stroke-linecap="round" stroke-linejoin="round"/>
    <path d="M 113.91212463378906 116.85498046875 C 206.63735961914062 124.26240539550781 64.15377807617188 98.26688385009766 116.27281188964844 103.0682601928711" stroke-width="2" fill="none" stroke="rgb(0, 0, 0)" stroke-opacity="1.0" stroke-linecap="round" stroke-linejoin="round"/>
    <path d="M 118.24445343017578 112.34351348876953 C 198.78546142578125 125.65985870361328 68.50004577636719 105.22615051269531 134.79803466796875 122.24588775634766" stroke-width="2" fill="none" stroke="rgb(0, 0, 0)" stroke-opacity="1.0" stroke-linecap="round" stroke-linejoin="round"/>
    <path d="M 169.2275848388672 88.52960968017578 C 228.55490112304688 16.62665367126465 112.5926284790039 129.396240234375 170.12216186523438 74.9426040649414" stroke-width="2" fill="none" stroke="rgb(0, 0, 0)" stroke-opacity="1.0" stroke-linecap="round" stroke-linejoin="round"/>
    <path d="M 147.6646728515625 138.60072326660156 C 156.6875762939453 145.33120727539062 136.06689453125 145.5925750732422 154.902587890625 143.6449737548828" stroke-width="2" fill="none" stroke="rgb(0, 0, 0)" stroke-opacity="1.0" stroke-linecap="round" stroke-linejoin="round"/>
    <path d="M 130.439697265625 131.2950897216797 C 177.15789794921875 116.76556396484375 116.11689758300781 112.2731704711914 147.2371826171875 110.47725677490234" stroke-width="2" fill="none" stroke="rgb(0, 0, 0)" stroke-opacity="1.0" stroke-linecap="round" stroke-linejoin="round"/>
    <path d="M 125.5125503540039 106.85545349121094 C 183.467529296875 186.7946319580078 49.23653030395508 19.34882164001465 112.95276641845703 91.23309326171875" stroke-width="2" fill="none" stroke="rgb(0, 0, 0)" stroke-opacity="1.0" stroke-linecap="round" stroke-linejoin="round"/>
    <path d="M 170.21896362304688 98.14580535888672 C 127.97412109375 96.49213409423828 179.5788116455078 124.65771484375 181.72586059570312 73.11076354980469" stroke-width="2" fill="none" stroke="rgb(0, 0, 0)" stroke-opacity="1.0" stroke-linecap="round" stroke-linejoin="round"/>
    <path d="M 162.53225708007812 151.82810974121094 C 189.36129760742188 166.77413940429688 61.66899108886719 127.24286651611328 93.79397583007812 132.79515075683594" stroke-width="2" fill="none" stroke="rgb(0, 0, 0)" stroke-opacity="1.0" stroke-linecap="round" stroke-linejoin="round"/>
  </g>
</svg>
