<?xml version="1.0" ?>
<svg xmlns="http://www.w3.org/2000/svg" version="1.1" width="224" height="224">
  <defs/>
  <g>
    <path d="M 64.81163787841797 101.37589263916016 C 89.52661895751953 94.26598358154297 62.296302795410156 98.88374328613281 95.57972717285156 96.93560028076172" stroke-width="2" fill="none" stroke="rgb(0, 0, 0)" stroke-opacity="1.0" stroke-linecap="round" stroke-linejoin="round"/>
    <path d="M 101.96068572998047 154.91128540039062 C 148.7637481689453 159.2643585205078 131.5860595703125 139.53961181640625 123.6690444946289 146.39894104003906" stroke-width="2" fill="none" stroke="rgb(0, 0, 0)" stroke-opacity="1.0" stroke-linecap="round" stroke-linejoin="round"/>
    <path d="M 143.77456665039062 130.4660186767578 C 74.84431457519531 92.61045837402344 108.29539489746094 129.49984741210938 105.4331283569336 105.94644927978516" stroke-width="2" fill="none" stroke="rgb(0, 0, 0)" stroke-opacity="1.0" stroke-linecap="round" stroke-linejoin="round"/>
    <path d="M 157.28038024902344 118.02051544189453 C 132.2980499267578 97.96520233154297 173.94229125976562 119.26556396484375 149.3560028076172 114.14798736572266" stroke-width="2" fill="none" stroke="rgb(0, 0, 0)" stroke-opacity="1.0" stroke-linecap="round" stroke-linejoin="round"/>
    <path d="M 134.80186462402344 105.75997161865234 C 121.69213104248047 118.67459106445312 145.81626892089844 70.90042114257812 161.42532348632812 100.49873352050781" stroke-width="2" fill="none" stroke="rgb(0, 0, 0)" stroke-opacity="1.0" stroke-linecap="round" stroke-linejoin="round"/>
    <path d="M 174.38697814941406 84.77289581298828 C 89.93509674072266 97.5207290649414 121.3515396118164 87.69786834716797 132.0463409423828 95.26478576660156" stroke-width="2" fill="none" stroke="rgb(0, 0, 0)" stroke-opacity="1.0" stroke-linecap="round" stroke-linejoin="round"/>
    <path d="M 102.27842712402344 73.11092376708984 C 133.54058837890625 120.11979675292969 140.00860595703125 105.09237670898438 98.01374053955078 74.74881744384766" stroke-width="2" fill="none" stroke="rgb(0, 0, 0)" stroke-opacity="1.0" stroke-linecap="round" stroke-linejoin="round"/>
    <path d="M 91.44921112060547 150.92709350585938 C 96.46610260009766 152.11996459960938 18.179285049438477 160.3018341064453 38.82307434082031 117.3476791381836" stroke-width="2" fill="none" stroke="rgb(0, 0, 0)" stroke-opacity="1.0" stroke-linecap="round" stroke-linejoin="round"/>
    <path d="M 154.5711669921875 126.54048919677734 C 192.02108764648438 89.08903503417969 128.3704833984375 118.79397583007812 165.05580139160156 114.41606140136719" stroke-width="2" fill="none" stroke="rgb(0, 0, 0)" stroke-opacity="1.0" stroke-linecap="round" stroke-linejoin="round"/>
    <path d="M 132.38343811035156 121.94306182861328 C 169.0334014892578 120.09532165527344 114.99432373046875 135.33726501464844 124.88997650146484 116.95967102050781" stroke-width="2" fill="none" stroke="rgb(0, 0, 0)" stroke-opacity="1.0" stroke-linecap="round" stroke-linejoin="round"/>
    <path d="M 176.6813201904297 71.45319366455078 C 189.22605895996094 60.14444351196289 183.76950073242188 61.81935501098633 157.88516235351562 90.6706314086914" stroke-width="2" fill="none" stroke="rgb(0, 0, 0)" stroke-opacity="1.0" stroke-linecap="round" stroke-linejoin="round"/>
    <path d="M 177.7391815185547 144.84056091308594 C 153.13619995117188 141.68356323242188 180.2571258544922 118.16886901855469 150.4743194580078 122.02406311035156" stroke-width="2" fill="none" stroke="rgb(0, 0, 0)" stroke-opacity="1.0" stroke-linecap="round" stroke-linejoin="round"/>
    <path d="M 63.54121398925781 136.10781860351562 C 73.95153045654297 158.18267822265625 89.4286880493164 154.66583251953125 141.95570373535156 146.4028778076172" stroke-width="2" fill="none" stroke="rgb(0, 0, 0)" stroke-opacity="1.0" stroke-linecap="round" stroke-linejoin="round"/>
    <path d="M 118.52276611328125 120.76495361328125 C 89.97132873535156 68.165283203125 89.07231140136719 50.61698913574219 134.3834228515625 89.98365783691406" stroke-width="2" fill="none" stroke="rgb(0, 0, 0)" stroke-opacity="1.0" stroke-linecap="round" stroke-linejoin="round"/>
    <path d="M 174.80572509765625 102.14766693115234 C 165.53131103515625 97.91997528076172 172.9373779296875 127.98410034179688 184.39370727539062 67.79961395263672" stroke-width="2" fill="none" stroke="rgb(0, 0, 0)" stroke-opacity="1.0" stroke-linecap="round" stroke-linejoin="round"/>
    <path d="M 87.05948638916016 104.54379272460938 C 47.689571380615234 89.68099212646484 52.98966598510742 113.24507141113281 37.48645782470703 122.92378234863281" stroke-width="2" fill="none" stroke="rgb(0, 0, 0)" stroke-opacity="1.0" stroke-linecap="round" stroke-linejoin="round"/>
  </g>
</svg>
