<?xml version="1.0" ?>
<svg xmlns="http://www.w3.org/2000/svg" version="1.1" width="224" height="224">
  <defs/>
  <g>
    <path d="M 36.134342193603516 127.3125228881836 C 61.364498138427734 87.72026062011719 47.5650749206543 94.76588439941406 100.9759521484375 90.65904235839844" stroke-width="2" fill="none" stroke="rgb(0, 0, 0)" stroke-opacity="1.0" stroke-linecap="round" stroke-linejoin="round"/>
    <path d="M 51.55595779418945 146.86622619628906 C 199.16973876953125 165.64669799804688 194.0707550048828 135.4224090576172 164.7312774658203 136.9504852294922" stroke-width="2" fill="none" stroke="rgb(0, 0, 0)" stroke-opacity="1.0" stroke-linecap="round" stroke-linejoin="round"/>
    <path d="M 139.8263702392578 103.27965545654297 C 108.46177673339844 98.94036865234375 178.17140197753906 124.79757690429688 121.26824951171875 111.16082000732422" stroke-width="2" fill="none" stroke="rgb(0, 0, 0)" stroke-opacity="1.0" stroke-linecap="round" stroke-linejoin="round"/>
    <path d="M 151.01995849609375 82.47924041748047 C 155.40074157714844 107.33501434326172 162.26351928710938 50.538211822509766 148.53469848632812 121.64838409423828" stroke-width="2" fill="none" stroke="rgb(0, 0, 0)" stroke-opacity="1.0" stroke-linecap="round" stroke-linejoin="round"/>
    <path d="M 126.84776306152344 86.82557678222656 C 126.89083862304688 102.89398193359375 62.604148864746094 34.5128288269043 136.05203247070312 88.62151336669922" stroke-width="2" fill="none" stroke="rgb(0, 0, 0)" stroke-opacity="1.0" stroke-linecap="round" stroke-linejoin="round"/>
    <path d="M 146.7153778076172 78.8220443725586 C 115.76873779296875 92.79463958740234 183.47329711914062 74.15328216552734 118.84110260009766 87.35897064208984" stroke-width="2" fill="none" stroke="rgb(0, 0, 0)" stroke-opacity="1.0" stroke-linecap="round" stroke-linejoin="round"/>
    <path d="M 133.3339385986328 121.71783447265625 C 109.40276336669922 93.4644775390625 156.01271057128906 140.9375457763672 124.64836883544922 117.04115295410156" stroke-width="2" fill="none" stroke="rgb(0, 0, 0)" stroke-opacity="1.0" stroke-linecap="round" stroke-linejoin="round"/>
    <path d="M 41.10430145263672 140.4476318359375 C 77.30062866210938 155.3072967529297 38.43604278564453 142.4761505126953 51.57225036621094 130.98199462890625" stroke-width="2" fill="none" stroke="rgb(0, 0, 0)" stroke-opacity="1.0" stroke-linecap="round" stroke-linejoin="round"/>
    <path d="M 113.83956146240234 126.07403564453125 C 241.17945861816406 150.09173583984375 48.90863800048828 111.11042022705078 152.55096435546875 117.94893646240234" stroke-width="2" fill="none" stroke="rgb(0, 0, 0)" stroke-opacity="1.0" stroke-linecap="round" stroke-linejoin="round"/>
    <path d="M 160.04922485351562 94.9034194946289 C 204.97837829589844 82.52955627441406 109.33029174804688 131.0205535888672 143.129150390625 110.19876861572266" stroke-width="2" fill="none" stroke="rgb(0, 0, 0)" stroke-opacity="1.0" stroke-linecap="round" stroke-linejoin="round"/>
    <path d="M 159.24380493164062 86.60784149169922 C 205.8065643310547 33.50117874145508 162.91043090820312 93.95863342285156 153.17845153808594 81.59937286376953" stroke-width="2" fill="none" stroke="rgb(0, 0, 0)" stroke-opacity="1.0" stroke-linecap="round" stroke-linejoin="round"/>
    <path d="M 159.23342895507812 151.12867736816406 C 96.85042572021484 131.43760681152344 191.0831298828125 170.81137084960938 161.73744201660156 148.5138397216797" stroke-width="2" fill="none" stroke="rgb(0, 0, 0)" stroke-opacity="1.0" stroke-linecap="round" stroke-linejoin="round"/>
    <path d="M 100.9758071899414 110.02667999267578 C 152.4863739013672 142.7391815185547 40.160030364990234 78.0225830078125 132.73141479492188 133.78268432617188" stroke-width="2" fill="none" stroke="rgb(0, 0, 0)" stroke-opacity="1.0" stroke-linecap="round" stroke-linejoin="round"/>
    <path d="M 139.0975341796875 103.47389221191406 C 113.75616455078125 151.44920349121094 76.14094543457031 14.413572311401367 116.79961395263672 95.83507537841797" stroke-width="2" fill="none" stroke="rgb(0, 0, 0)" stroke-opacity="1.0" stroke-linecap="round" stroke-linejoin="round"/>
    <path d="M 160.12533569335938 109.919189453125 C 132.5377655029297 75.84537506103516 164.68609619140625 148.96572875976562 184.0469207763672 62.335323333740234" stroke-width="2" fill="none" stroke="rgb(0, 0, 0)" stroke-opacity="1.0" stroke-linecap="round" stroke-linejoin="round"/>
    <path d="M 34.36820983886719 126.29425048828125 C 55.410770416259766 101.69246673583984 13.728864669799805 136.88743591308594 54.499637603759766 110.51066589355469" stroke-width="2" fill="none" stroke="rgb(0, 0, 0)" stroke-opacity="1.0" stroke-linecap="round" stroke-linejoin="round"/>
  </g>
</svg>
