<?xml version="1.0" ?>
<svg xmlns="http://www.w3.org/2000/svg" version="1.1" width="224" height="224">
  <defs/>
  <g>
    <path d="M 31.14116859436035 129.38917541503906 C 62.70624542236328 120.9700927734375 29.936697006225586 80.27669525146484 119.82186889648438 101.69465637207031" stroke-width="2" fill="none" stroke="rgb(0, 0, 0)" stroke-opacity="1.0" stroke-linecap="round" stroke-linejoin="round"/>
    <path d="M 113.72398376464844 120.85474395751953 C 206.34420776367188 152.7339324951172 164.54928588867188 151.69139099121094 173.59857177734375 148.86790466308594" stroke-width="2" fill="none" stroke="rgb(0, 0, 0)" stroke-opacity="1.0" stroke-linecap="round" stroke-linejoin="round"/>
    <path d="M 118.51831817626953 109.8957290649414 C 76.42596435546875 95.9774398803711 167.591796875 143.2675323486328 116.4537124633789 118.97994995117188" stroke-width="2" fill="none" stroke="rgb(0, 0, 0)" stroke-opacity="1.0" stroke-linecap="round" stroke-linejoin="round"/>
    <path d="M 146.557373046875 98.74923706054688 C 191.79066467285156 108.24423217773438 111.32350158691406 94.01248931884766 159.56784057617188 112.00726318359375" stroke-width="2" fill="none" stroke="rgb(0, 0, 0)" stroke-opacity="1.0" stroke-linecap="round" stroke-linejoin="round"/>
    <path d="M 114.42723083496094 98.06553649902344 C 103.39080810546875 103.84043884277344 89.90361785888672 36.72532272338867 99.7833023071289 105.0401840209961" stroke-width="2" fill="none" stroke="rgb(0, 0, 0)" stroke-opacity="1.0" stroke-linecap="round" stroke-linejoin="round"/>
    <path d="M 124.81847381591797 82.24415588378906 C 167.8603515625 65.61241149902344 161.93321228027344 117.38996124267578 149.6524658203125 110.82518768310547" stroke-width="2" fill="none" stroke="rgb(0, 0, 0)" stroke-opacity="1.0" stroke-linecap="round" stroke-linejoin="round"/>
    <path d="M 136.62063598632812 125.53865051269531 C 89.42317962646484 103.421142578125 162.75621032714844 103.21310424804688 131.17572021484375 100.20685577392578" stroke-width="2" fill="none" stroke="rgb(0, 0, 0)" stroke-opacity="1.0" stroke-linecap="round" stroke-linejoin="round"/>
    <path d="M 98.8701400756836 130.0103302001953 C 254.7460174560547 143.02529907226562 -26.31545066833496 172.7296600341797 46.8699836730957 116.02398681640625" stroke-width="2" fill="none" stroke="rgb(0, 0, 0)" stroke-opacity="1.0" stroke-linecap="round" stroke-linejoin="round"/>
    <path d="M 182.11131286621094 149.215576171875 C 219.39926147460938 146.57070922851562 27.44561767578125 83.40196228027344 142.23768615722656 116.93888092041016" stroke-width="2" fill="none" stroke="rgb(0, 0, 0)" stroke-opacity="1.0" stroke-linecap="round" stroke-linejoin="round"/>
    <path d="M 113.52140045166016 125.00506591796875 C 177.06951904296875 119.78030395507812 108.1254653930664 117.68213653564453 139.86585998535156 113.22803497314453" stroke-width="2" fill="none" stroke="rgb(0, 0, 0)" stroke-opacity="1.0" stroke-linecap="round" stroke-linejoin="round"/>
    <path d="M 167.5542755126953 90.74374389648438 C 229.3954620361328 27.048904418945312 104.44654846191406 121.28656768798828 168.4501190185547 68.49274444580078" stroke-width="2" fill="none" stroke="rgb(0, 0, 0)" stroke-opacity="1.0" stroke-linecap="round" stroke-linejoin="round"/>
    <path d="M 156.41546630859375 137.9392852783203 C 221.54092407226562 151.2464599609375 207.65899658203125 161.82345581054688 40.51877975463867 143.4505615234375" stroke-width="2" fill="none" stroke="rgb(0, 0, 0)" stroke-opacity="1.0" stroke-linecap="round" stroke-linejoin="round"/>
    <path d="M 115.48835754394531 122.55193328857422 C 240.84866333007812 128.0072784423828 82.58348083496094 126.96321105957031 127.0943603515625 113.89785766601562" stroke-width="2" fill="none" stroke="rgb(0, 0, 0)" stroke-opacity="1.0" stroke-linecap="round" stroke-linejoin="round"/>
    <path d="M 109.00456237792969 92.887451171875 C 136.74110412597656 116.8918685913086 62.435768127441406 37.72314453125 124.91088104248047 82.72821807861328" stroke-width="2" fill="none" stroke="rgb(0, 0, 0)" stroke-opacity="1.0" stroke-linecap="round" stroke-linejoin="round"/>
    <path d="M 168.01817321777344 100.45589447021484 C 133.82000732421875 107.34054565429688 161.3244171142578 147.23451232910156 189.00250244140625 62.61205291748047" stroke-width="2" fill="none" stroke="rgb(0, 0, 0)" stroke-opacity="1.0" stroke-linecap="round" stroke-linejoin="round"/>
    <path d="M 58.679771423339844 128.97860717773438 C 76.83828735351562 152.6681671142578 28.58634376525879 120.67382049560547 75.48490142822266 144.68893432617188" stroke-width="2" fill="none" stroke="rgb(0, 0, 0)" stroke-opacity="1.0" stroke-linecap="round" stroke-linejoin="round"/>
  </g>
</svg>
