<?xml version="1.0" ?>
<svg xmlns="http://www.w3.org/2000/svg" version="1.1" width="224" height="224">
  <defs/>
  <g>
    <path d="M 38.195926666259766 119.07032775878906 C 65.54427337646484 117.96791076660156 32.19051742553711 84.21772766113281 116.11248779296875 103.4110107421875" stroke-width="2" fill="none" stroke="rgb(0, 0, 0)" stroke-opacity="1.0" stroke-linecap="round" stroke-linejoin="round"/>
    <path d="M 120.22224426269531 118.30619049072266 C 210.79275512695312 153.30516052246094 190.91943359375 164.9115753173828 169.5171661376953 161.16407775878906" stroke-width="2" fill="none" stroke="rgb(0, 0, 0)" stroke-opacity="1.0" stroke-linecap="round" stroke-linejoin="round"/>
    <path d="M 126.71595764160156 107.13351440429688 C 52.504722595214844 134.4795379638672 225.2662353515625 180.80966186523438 96.61487579345703 139.2150115966797" stroke-width="2" fill="none" stroke="rgb(0, 0, 0)" stroke-opacity="1.0" stroke-linecap="round" stroke-linejoin="round"/>
    <path d="M 148.98931884765625 103.42796325683594 C 190.04531860351562 115.81449127197266 134.63897705078125 103.93331146240234 154.4585723876953 111.41920471191406" stroke-width="2" fill="none" stroke="rgb(0, 0, 0)" stroke-opacity="1.0" stroke-linecap="round" stroke-linejoin="round"/>
    <path d="M 121.07292938232422 93.58324432373047 C 102.98163604736328 106.49774932861328 93.10234832763672 30.599712371826172 105.33550262451172 98.58631134033203" stroke-width="2" fill="none" stroke="rgb(0, 0, 0)" stroke-opacity="1.0" stroke-linecap="round" stroke-linejoin="round"/>
    <path d="M 126.20088195800781 86.30343627929688 C 166.86253356933594 77.77877044677734 141.86033630371094 102.39581298828125 167.291748046875 97.4024429321289" stroke-width="2" fill="none" stroke="rgb(0, 0, 0)" stroke-opacity="1.0" stroke-linecap="round" stroke-linejoin="round"/>
    <path d="M 142.90673828125 118.87157440185547 C 101.90206146240234 132.2437744140625 141.0349884033203 104.40565490722656 122.69994354248047 106.99333953857422" stroke-width="2" fill="none" stroke="rgb(0, 0, 0)" stroke-opacity="1.0" stroke-linecap="round" stroke-linejoin="round"/>
    <path d="M 100.27058410644531 137.39540100097656 C 301.419189453125 133.50401306152344 -36.64829635620117 186.4913330078125 53.73617935180664 106.67522430419922" stroke-width="2" fill="none" stroke="rgb(0, 0, 0)" stroke-opacity="1.0" stroke-linecap="round" stroke-linejoin="round"/>
    <path d="M 151.17181396484375 133.54376220703125 C 217.62664794921875 149.9711456298828 21.137666702270508 81.5086898803711 141.0457000732422 127.03482055664062" stroke-width="2" fill="none" stroke="rgb(0, 0, 0)" stroke-opacity="1.0" stroke-linecap="round" stroke-linejoin="round"/>
    <path d="M 134.65003967285156 131.56143188476562 C 171.44627380371094 115.91648864746094 75.3392562866211 123.4463119506836 142.34906005859375 114.5625991821289" stroke-width="2" fill="none" stroke="rgb(0, 0, 0)" stroke-opacity="1.0" stroke-linecap="round" stroke-linejoin="round"/>
    <path d="M 162.121826171875 92.82388305664062 C 234.04090881347656 19.11029624938965 111.2264175415039 129.26129150390625 174.9110107421875 74.65017700195312" stroke-width="2" fill="none" stroke="rgb(0, 0, 0)" stroke-opacity="1.0" stroke-linecap="round" stroke-linejoin="round"/>
    <path d="M 172.93019104003906 164.8977813720703 C 166.4642333984375 174.79933166503906 232.7017822265625 152.73580932617188 82.12267303466797 142.71311950683594" stroke-width="2" fill="none" stroke="rgb(0, 0, 0)" stroke-opacity="1.0" stroke-linecap="round" stroke-linejoin="round"/>
    <path d="M 120.59025573730469 112.16463470458984 C 184.4957733154297 118.9421615600586 100.97422790527344 150.08322143554688 152.5514678955078 121.66520690917969" stroke-width="2" fill="none" stroke="rgb(0, 0, 0)" stroke-opacity="1.0" stroke-linecap="round" stroke-linejoin="round"/>
    <path d="M 107.37020111083984 110.2070541381836 C 162.90451049804688 167.7424774169922 43.5203857421875 18.037485122680664 126.41919708251953 87.13521575927734" stroke-width="2" fill="none" stroke="rgb(0, 0, 0)" stroke-opacity="1.0" stroke-linecap="round" stroke-linejoin="round"/>
    <path d="M 165.89183044433594 103.86688232421875 C 133.5789794921875 109.2501449584961 165.3753662109375 144.0395050048828 181.7677001953125 72.29695892333984" stroke-width="2" fill="none" stroke="rgb(0, 0, 0)" stroke-opacity="1.0" stroke-linecap="round" stroke-linejoin="round"/>
    <path d="M 67.38430786132812 134.92970275878906 C 92.8670883178711 141.23291015625 48.30621337890625 119.72102355957031 85.64463806152344 145.1719970703125" stroke-width="2" fill="none" stroke="rgb(0, 0, 0)" stroke-opacity="1.0" stroke-linecap="round" stroke-linejoin="round"/>
  </g>
</svg>
