<?xml version="1.0" ?>
<svg xmlns="http://www.w3.org/2000/svg" version="1.1" width="224" height="224">
  <defs/>
  <g>
    <path d="M 39.350677490234375 122.6917724609375 C 65.75426483154297 122.58100128173828 37.59370803833008 89.15922546386719 95.38935852050781 98.2919692993164" stroke-width="2" fill="none" stroke="rgb(0, 0, 0)" stroke-opacity="1.0" stroke-linecap="round" stroke-linejoin="round"/>
    <path d="M 123.13130187988281 141.7083282470703 C 186.9104461669922 138.55374145507812 153.767333984375 165.3209686279297 146.66175842285156 147.76373291015625" stroke-width="2" fill="none" stroke="rgb(0, 0, 0)" stroke-opacity="1.0" stroke-linecap="round" stroke-linejoin="round"/>
    <path d="M 132.21156311035156 109.05206298828125 C 111.89615631103516 95.69608306884766 180.62477111816406 131.4798126220703 124.45409393310547 111.24742126464844" stroke-width="2" fill="none" stroke="rgb(0, 0, 0)" stroke-opacity="1.0" stroke-linecap="round" stroke-linejoin="round"/>
    <path d="M 151.44322204589844 108.22181701660156 C 185.58139038085938 99.67741394042969 122.88983154296875 102.19489288330078 161.39064025878906 97.19728088378906" stroke-width="2" fill="none" stroke="rgb(0, 0, 0)" stroke-opacity="1.0" stroke-linecap="round" stroke-linejoin="round"/>
    <path d="M 135.60585021972656 86.993896484375 C 120.61817932128906 98.54725646972656 76.71133422851562 28.04330062866211 110.93634033203125 99.94803619384766" stroke-width="2" fill="none" stroke="rgb(0, 0, 0)" stroke-opacity="1.0" stroke-linecap="round" stroke-linejoin="round"/>
    <path d="M 122.83377838134766 89.62358856201172 C 151.7686309814453 67.3359375 168.1844024658203 114.1121826171875 154.55349731445312 100.82868194580078" stroke-width="2" fill="none" stroke="rgb(0, 0, 0)" stroke-opacity="1.0" stroke-linecap="round" stroke-linejoin="round"/>
    <path d="M 134.47166442871094 117.64913177490234 C 104.34445190429688 85.72654724121094 168.14476013183594 106.58300018310547 112.24895477294922 111.61634063720703" stroke-width="2" fill="none" stroke="rgb(0, 0, 0)" stroke-opacity="1.0" stroke-linecap="round" stroke-linejoin="round"/>
    <path d="M 110.31182861328125 153.01141357421875 C 238.34178161621094 139.154541015625 -19.564151763916016 186.6707763671875 51.2389030456543 108.92565155029297" stroke-width="2" fill="none" stroke="rgb(0, 0, 0)" stroke-opacity="1.0" stroke-linecap="round" stroke-linejoin="round"/>
    <path d="M 172.38189697265625 144.08319091796875 C 200.02056884765625 154.32928466796875 50.62805938720703 82.98789978027344 141.05911254882812 114.59707641601562" stroke-width="2" fill="none" stroke="rgb(0, 0, 0)" stroke-opacity="1.0" stroke-linecap="round" stroke-linejoin="round"/>
    <path d="M 91.80207061767578 111.93728637695312 C 172.27969360351562 142.9825897216797 108.54944610595703 120.87498474121094 146.35061645507812 126.75940704345703" stroke-width="2" fill="none" stroke="rgb(0, 0, 0)" stroke-opacity="1.0" stroke-linecap="round" stroke-linejoin="round"/>
    <path d="M 164.12496948242188 100.32671356201172 C 228.88294982910156 20.319541931152344 113.02852630615234 110.97478485107422 171.64056396484375 89.49857330322266" stroke-width="2" fill="none" stroke="rgb(0, 0, 0)" stroke-opacity="1.0" stroke-linecap="round" stroke-linejoin="round"/>
    <path d="M 129.80821228027344 156.07496643066406 C 142.89578247070312 162.52239990234375 165.50762939453125 147.99981689453125 47.47757339477539 149.8522491455078" stroke-width="2" fill="none" stroke="rgb(0, 0, 0)" stroke-opacity="1.0" stroke-linecap="round" stroke-linejoin="round"/>
    <path d="M 103.52111053466797 137.52374267578125 C 163.75631713867188 164.86550903320312 61.03545379638672 98.815185546875 139.38552856445312 117.34651947021484" stroke-width="2" fill="none" stroke="rgb(0, 0, 0)" stroke-opacity="1.0" stroke-linecap="round" stroke-linejoin="round"/>
    <path d="M 147.1329345703125 111.95500946044922 C 113.24771881103516 145.38421630859375 94.30089569091797 30.493717193603516 103.19541931152344 94.85244750976562" stroke-width="2" fill="none" stroke="rgb(0, 0, 0)" stroke-opacity="1.0" stroke-linecap="round" stroke-linejoin="round"/>
    <path d="M 158.4386444091797 117.36124420166016 C 135.6830596923828 124.83641052246094 168.75442504882812 138.22398376464844 186.2976531982422 62.653202056884766" stroke-width="2" fill="none" stroke="rgb(0, 0, 0)" stroke-opacity="1.0" stroke-linecap="round" stroke-linejoin="round"/>
    <path d="M 74.53604125976562 130.80421447753906 C 101.20942687988281 130.089111328125 46.619834899902344 123.00634002685547 92.2967529296875 142.0116729736328" stroke-width="2" fill="none" stroke="rgb(0, 0, 0)" stroke-opacity="1.0" stroke-linecap="round" stroke-linejoin="round"/>
  </g>
</svg>
