<?xml version="1.0" ?>
<svg xmlns="http://www.w3.org/2000/svg" version="1.1" width="224" height="224">
  <defs/>
  <g>
    <path d="M 66.94681549072266 99.59007263183594 C 93.76273345947266 95.9964828491211 65.55938720703125 95.0494384765625 94.95146942138672 96.79061889648438" stroke-width="2" fill="none" stroke="rgb(0, 0, 0)" stroke-opacity="1.0" stroke-linecap="round" stroke-linejoin="round"/>
    <path d="M 104.64433288574219 152.4320831298828 C 144.76290893554688 161.6034698486328 126.75308227539062 134.74163818359375 123.88287353515625 141.48399353027344" stroke-width="2" fill="none" stroke="rgb(0, 0, 0)" stroke-opacity="1.0" stroke-linecap="round" stroke-linejoin="round"/>
    <path d="M 142.9136199951172 131.30247497558594 C 70.0770263671875 93.45891571044922 112.60320281982422 133.03851318359375 106.6948013305664 106.83506774902344" stroke-width="2" fill="none" stroke="rgb(0, 0, 0)" stroke-opacity="1.0" stroke-linecap="round" stroke-linejoin="round"/>
    <path d="M 156.5967559814453 117.6552505493164 C 132.03231811523438 96.02699279785156 172.26609802246094 119.49659729003906 149.54464721679688 115.61654663085938" stroke-width="2" fill="none" stroke="rgb(0, 0, 0)" stroke-opacity="1.0" stroke-linecap="round" stroke-linejoin="round"/>
    <path d="M 138.6037139892578 106.14253997802734 C 119.53778076171875 121.25704956054688 147.21661376953125 73.08856201171875 161.37002563476562 98.32991027832031" stroke-width="2" fill="none" stroke="rgb(0, 0, 0)" stroke-opacity="1.0" stroke-linecap="round" stroke-linejoin="round"/>
    <path d="M 170.16795349121094 85.43592834472656 C 89.24759674072266 97.15406036376953 120.32059478759766 87.51876068115234 132.34097290039062 97.27079772949219" stroke-width="2" fill="none" stroke="rgb(0, 0, 0)" stroke-opacity="1.0" stroke-linecap="round" stroke-linejoin="round"/>
    <path d="M 102.88934326171875 74.96337127685547 C 134.4121551513672 121.34162139892578 139.2801513671875 108.5993881225586 99.5093002319336 73.39169311523438" stroke-width="2" fill="none" stroke="rgb(0, 0, 0)" stroke-opacity="1.0" stroke-linecap="round" stroke-linejoin="round"/>
    <path d="M 92.54975128173828 150.20452880859375 C 97.81204223632812 151.53741455078125 19.401262283325195 159.5061492919922 40.980709075927734 121.18184661865234" stroke-width="2" fill="none" stroke="rgb(0, 0, 0)" stroke-opacity="1.0" stroke-linecap="round" stroke-linejoin="round"/>
    <path d="M 154.2392120361328 128.5302276611328 C 190.11392211914062 90.35064697265625 133.05059814453125 121.39203643798828 166.5555877685547 116.04369354248047" stroke-width="2" fill="none" stroke="rgb(0, 0, 0)" stroke-opacity="1.0" stroke-linecap="round" stroke-linejoin="round"/>
    <path d="M 132.5535888671875 122.23550415039062 C 166.98416137695312 121.09070587158203 119.64461517333984 133.02479553222656 128.13035583496094 116.61151123046875" stroke-width="2" fill="none" stroke="rgb(0, 0, 0)" stroke-opacity="1.0" stroke-linecap="round" stroke-linejoin="round"/>
    <path d="M 179.9703369140625 80.52781677246094 C 185.4255828857422 53.34733963012695 185.4039764404297 61.59394073486328 160.2904052734375 90.52484893798828" stroke-width="2" fill="none" stroke="rgb(0, 0, 0)" stroke-opacity="1.0" stroke-linecap="round" stroke-linejoin="round"/>
    <path d="M 175.5428466796875 145.69644165039062 C 153.8818359375 143.48948669433594 180.79336547851562 114.43080139160156 151.514892578125 123.79299926757812" stroke-width="2" fill="none" stroke="rgb(0, 0, 0)" stroke-opacity="1.0" stroke-linecap="round" stroke-linejoin="round"/>
    <path d="M 65.8821792602539 137.42820739746094 C 76.82054138183594 155.76953125 85.99742126464844 150.3942108154297 138.23989868164062 153.4002227783203" stroke-width="2" fill="none" stroke="rgb(0, 0, 0)" stroke-opacity="1.0" stroke-linecap="round" stroke-linejoin="round"/>
    <path d="M 119.79398345947266 122.99012756347656 C 91.19538879394531 72.32534790039062 91.56292724609375 54.22079849243164 135.43576049804688 92.90930938720703" stroke-width="2" fill="none" stroke="rgb(0, 0, 0)" stroke-opacity="1.0" stroke-linecap="round" stroke-linejoin="round"/>
    <path d="M 173.6336669921875 100.92192840576172 C 163.88856506347656 94.82989501953125 172.37442016601562 129.11627197265625 181.5167999267578 66.02043914794922" stroke-width="2" fill="none" stroke="rgb(0, 0, 0)" stroke-opacity="1.0" stroke-linecap="round" stroke-linejoin="round"/>
    <path d="M 85.26422882080078 105.51737976074219 C 48.21724319458008 88.33732604980469 56.76696014404297 116.92146301269531 37.687252044677734 127.10515594482422" stroke-width="2" fill="none" stroke="rgb(0, 0, 0)" stroke-opacity="1.0" stroke-linecap="round" stroke-linejoin="round"/>
  </g>
</svg>
