<?xml version="1.0" ?>
<svg xmlns="http://www.w3.org/2000/svg" version="1.1" width="224" height="224">
  <defs/>
  <g>
    <path d="M 29.515405654907227 127.46691131591797 C 60.428680419921875 117.25479888916016 26.40159034729004 83.79528045654297 129.14120483398438 102.08869171142578" stroke-width="2" fill="none" stroke="rgb(0, 0, 0)" stroke-opacity="1.0" stroke-linecap="round" stroke-linejoin="round"/>
    <path d="M 112.95122528076172 115.46056365966797 C 210.34799194335938 150.8308563232422 170.18087768554688 151.78323364257812 182.55262756347656 142.17225646972656" stroke-width="2" fill="none" stroke="rgb(0, 0, 0)" stroke-opacity="1.0" stroke-linecap="round" stroke-linejoin="round"/>
    <path d="M 109.30928039550781 104.51589965820312 C 75.36801147460938 93.78348541259766 164.40231323242188 147.70767211914062 109.70207214355469 115.7760009765625" stroke-width="2" fill="none" stroke="rgb(0, 0, 0)" stroke-opacity="1.0" stroke-linecap="round" stroke-linejoin="round"/>
    <path d="M 144.91636657714844 101.12577819824219 C 196.07920837402344 104.97753143310547 118.14312744140625 99.24674224853516 162.40367126464844 109.9085464477539" stroke-width="2" fill="none" stroke="rgb(0, 0, 0)" stroke-opacity="1.0" stroke-linecap="round" stroke-linejoin="round"/>
    <path d="M 113.4798812866211 98.8226547241211 C 115.22882843017578 94.88735961914062 90.29546356201172 31.051115036010742 94.43551635742188 102.13729858398438" stroke-width="2" fill="none" stroke="rgb(0, 0, 0)" stroke-opacity="1.0" stroke-linecap="round" stroke-linejoin="round"/>
    <path d="M 126.53001403808594 87.35449981689453 C 161.5407257080078 74.55130004882812 172.4337921142578 130.3558349609375 148.48809814453125 110.52865600585938" stroke-width="2" fill="none" stroke="rgb(0, 0, 0)" stroke-opacity="1.0" stroke-linecap="round" stroke-linejoin="round"/>
    <path d="M 137.08505249023438 119.46858978271484 C 85.54486083984375 101.21989440917969 158.19119262695312 94.21533966064453 128.43077087402344 95.3019027709961" stroke-width="2" fill="none" stroke="rgb(0, 0, 0)" stroke-opacity="1.0" stroke-linecap="round" stroke-linejoin="round"/>
    <path d="M 102.57959747314453 130.9716339111328 C 257.5727844238281 146.68333435058594 -33.40540313720703 167.6475830078125 46.37041091918945 116.67181396484375" stroke-width="2" fill="none" stroke="rgb(0, 0, 0)" stroke-opacity="1.0" stroke-linecap="round" stroke-linejoin="round"/>
    <path d="M 181.2491912841797 154.6283416748047 C 217.9203643798828 140.66925048828125 29.932308197021484 78.53688049316406 139.47891235351562 114.83567810058594" stroke-width="2" fill="none" stroke="rgb(0, 0, 0)" stroke-opacity="1.0" stroke-linecap="round" stroke-linejoin="round"/>
    <path d="M 110.6844711303711 118.29864501953125 C 174.6141815185547 118.0036392211914 110.22863006591797 107.49492645263672 140.63059997558594 110.30123138427734" stroke-width="2" fill="none" stroke="rgb(0, 0, 0)" stroke-opacity="1.0" stroke-linecap="round" stroke-linejoin="round"/>
    <path d="M 167.07089233398438 90.95254516601562 C 224.58042907714844 35.4102897644043 101.18098449707031 121.56770324707031 175.5657958984375 75.20823669433594" stroke-width="2" fill="none" stroke="rgb(0, 0, 0)" stroke-opacity="1.0" stroke-linecap="round" stroke-linejoin="round"/>
    <path d="M 152.8460693359375 132.48699951171875 C 219.94276428222656 146.02767944335938 204.86614990234375 158.05783081054688 42.24648666381836 146.7231903076172" stroke-width="2" fill="none" stroke="rgb(0, 0, 0)" stroke-opacity="1.0" stroke-linecap="round" stroke-linejoin="round"/>
    <path d="M 111.30304718017578 125.03832244873047 C 248.33999633789062 129.8175048828125 84.7666015625 121.05457305908203 126.92550659179688 108.95246124267578" stroke-width="2" fill="none" stroke="rgb(0, 0, 0)" stroke-opacity="1.0" stroke-linecap="round" stroke-linejoin="round"/>
    <path d="M 112.0533218383789 89.83434295654297 C 133.9241943359375 114.25529479980469 57.87129592895508 35.1226692199707 125.92292785644531 86.23987579345703" stroke-width="2" fill="none" stroke="rgb(0, 0, 0)" stroke-opacity="1.0" stroke-linecap="round" stroke-linejoin="round"/>
    <path d="M 170.5728302001953 98.08077239990234 C 127.20992279052734 103.83050537109375 168.6961212158203 145.2189483642578 183.965087890625 63.95124435424805" stroke-width="2" fill="none" stroke="rgb(0, 0, 0)" stroke-opacity="1.0" stroke-linecap="round" stroke-linejoin="round"/>
    <path d="M 52.10911560058594 132.6787567138672 C 64.87345886230469 152.83506774902344 30.472274780273438 117.80401611328125 75.50232696533203 148.90785217285156" stroke-width="2" fill="none" stroke="rgb(0, 0, 0)" stroke-opacity="1.0" stroke-linecap="round" stroke-linejoin="round"/>
  </g>
</svg>
