<?xml version="1.0" ?>
<svg xmlns="http://www.w3.org/2000/svg" version="1.1" width="224" height="224">
  <defs/>
  <g>
    <path d="M 41.2077522277832 126.63746643066406 C 59.274169921875 117.21908569335938 29.234844207763672 86.95353698730469 113.25731658935547 97.10028839111328" stroke-width="2" fill="none" stroke="rgb(0, 0, 0)" stroke-opacity="1.0" stroke-linecap="round" stroke-linejoin="round"/>
    <path d="M 85.95325469970703 145.4221649169922 C 191.2249298095703 133.32801818847656 162.46170043945312 165.75596618652344 136.8532257080078 148.55838012695312" stroke-width="2" fill="none" stroke="rgb(0, 0, 0)" stroke-opacity="1.0" stroke-linecap="round" stroke-linejoin="round"/>
    <path d="M 127.35284423828125 103.6087417602539 C 99.1653823852539 96.19828033447266 147.79159545898438 109.72647094726562 118.96097564697266 110.36428833007812" stroke-width="2" fill="none" stroke="rgb(0, 0, 0)" stroke-opacity="1.0" stroke-linecap="round" stroke-linejoin="round"/>
    <path d="M 140.03628540039062 100.43180847167969 C 166.96749877929688 103.57357025146484 122.15969848632812 75.51612091064453 156.6653289794922 100.027099609375" stroke-width="2" fill="none" stroke="rgb(0, 0, 0)" stroke-opacity="1.0" stroke-linecap="round" stroke-linejoin="round"/>
    <path d="M 125.54806518554688 87.07656860351562 C 126.85595703125 95.36857604980469 65.36394500732422 17.293399810791016 118.01396942138672 120.25423431396484" stroke-width="2" fill="none" stroke="rgb(0, 0, 0)" stroke-opacity="1.0" stroke-linecap="round" stroke-linejoin="round"/>
    <path d="M 131.962158203125 83.90802001953125 C 85.75696563720703 84.02266693115234 173.87364196777344 88.94915771484375 170.33425903320312 84.07725524902344" stroke-width="2" fill="none" stroke="rgb(0, 0, 0)" stroke-opacity="1.0" stroke-linecap="round" stroke-linejoin="round"/>
    <path d="M 141.47872924804688 111.41791534423828 C 81.5831069946289 131.37716674804688 165.2907257080078 120.10707092285156 121.21223449707031 98.8626937866211" stroke-width="2" fill="none" stroke="rgb(0, 0, 0)" stroke-opacity="1.0" stroke-linecap="round" stroke-linejoin="round"/>
    <path d="M 81.61743927001953 145.72952270507812 C 253.45928955078125 148.13052368164062 -35.6705207824707 176.10227966308594 55.009185791015625 111.18305969238281" stroke-width="2" fill="none" stroke="rgb(0, 0, 0)" stroke-opacity="1.0" stroke-linecap="round" stroke-linejoin="round"/>
    <path d="M 178.94589233398438 132.41134643554688 C 226.6684112548828 151.7937469482422 47.91206741333008 83.00531005859375 124.54531860351562 117.19226837158203" stroke-width="2" fill="none" stroke="rgb(0, 0, 0)" stroke-opacity="1.0" stroke-linecap="round" stroke-linejoin="round"/>
    <path d="M 166.6906280517578 128.94586181640625 C 210.60760498046875 122.96906280517578 129.41734313964844 154.6143035888672 142.13815307617188 110.41243743896484" stroke-width="2" fill="none" stroke="rgb(0, 0, 0)" stroke-opacity="1.0" stroke-linecap="round" stroke-linejoin="round"/>
    <path d="M 150.40032958984375 87.19416809082031 C 220.76478576660156 20.816862106323242 149.18846130371094 114.30014038085938 146.98275756835938 100.40342712402344" stroke-width="2" fill="none" stroke="rgb(0, 0, 0)" stroke-opacity="1.0" stroke-linecap="round" stroke-linejoin="round"/>
    <path d="M 158.3184814453125 157.13267517089844 C 136.61595153808594 161.53170776367188 171.26126098632812 149.41455078125 127.89570617675781 154.03640747070312" stroke-width="2" fill="none" stroke="rgb(0, 0, 0)" stroke-opacity="1.0" stroke-linecap="round" stroke-linejoin="round"/>
    <path d="M 98.1264877319336 120.30474853515625 C 164.7021026611328 169.05859375 65.23480987548828 99.91349792480469 127.9513168334961 116.45392608642578" stroke-width="2" fill="none" stroke="rgb(0, 0, 0)" stroke-opacity="1.0" stroke-linecap="round" stroke-linejoin="round"/>
    <path d="M 132.44871520996094 102.16239166259766 C 107.50724792480469 154.7245330810547 106.14283752441406 49.85597610473633 101.46600341796875 95.91004180908203" stroke-width="2" fill="none" stroke="rgb(0, 0, 0)" stroke-opacity="1.0" stroke-linecap="round" stroke-linejoin="round"/>
    <path d="M 165.62962341308594 108.74710845947266 C 125.0181884765625 100.46733856201172 172.76719665527344 136.10940551757812 180.28822326660156 62.7312126159668" stroke-width="2" fill="none" stroke="rgb(0, 0, 0)" stroke-opacity="1.0" stroke-linecap="round" stroke-linejoin="round"/>
    <path d="M 62.36061096191406 134.41329956054688 C 69.59342956542969 150.05564880371094 56.577293395996094 128.57118225097656 86.10124969482422 147.9766845703125" stroke-width="2" fill="none" stroke="rgb(0, 0, 0)" stroke-opacity="1.0" stroke-linecap="round" stroke-linejoin="round"/>
  </g>
</svg>
