<?xml version="1.0" ?>
<svg xmlns="http://www.w3.org/2000/svg" version="1.1" width="224" height="224">
  <defs/>
  <g>
    <path d="M 40.14380645751953 117.53443145751953 C 73.69329833984375 115.34493255615234 31.48250961303711 88.7029037475586 117.94183349609375 96.42138671875" stroke-width="2" fill="none" stroke="rgb(0, 0, 0)" stroke-opacity="1.0" stroke-linecap="round" stroke-linejoin="round"/>
    <path d="M 116.5248031616211 136.47422790527344 C 208.71080017089844 143.4571533203125 164.76705932617188 163.54953002929688 164.86378479003906 146.97857666015625" stroke-width="2" fill="none" stroke="rgb(0, 0, 0)" stroke-opacity="1.0" stroke-linecap="round" stroke-linejoin="round"/>
    <path d="M 140.3031768798828 113.90351867675781 C 48.01510238647461 132.4217529296875 257.4161376953125 155.98472595214844 72.65058898925781 130.537109375" stroke-width="2" fill="none" stroke="rgb(0, 0, 0)" stroke-opacity="1.0" stroke-linecap="round" stroke-linejoin="round"/>
    <path d="M 156.13441467285156 102.35992431640625 C 183.4620819091797 95.771728515625 119.28498840332031 88.4800033569336 162.3413543701172 110.97077941894531" stroke-width="2" fill="none" stroke="rgb(0, 0, 0)" stroke-opacity="1.0" stroke-linecap="round" stroke-linejoin="round"/>
    <path d="M 116.55311584472656 95.68470764160156 C 96.22232818603516 128.07286071777344 98.09652709960938 51.38825607299805 109.73859405517578 99.6685791015625" stroke-width="2" fill="none" stroke="rgb(0, 0, 0)" stroke-opacity="1.0" stroke-linecap="round" stroke-linejoin="round"/>
    <path d="M 123.12613677978516 85.41172790527344 C 167.37649536132812 75.14793395996094 133.33843994140625 115.18223571777344 169.74703979492188 95.16021728515625" stroke-width="2" fill="none" stroke="rgb(0, 0, 0)" stroke-opacity="1.0" stroke-linecap="round" stroke-linejoin="round"/>
    <path d="M 138.4710235595703 112.16270446777344 C 117.68656158447266 113.35820770263672 157.72471618652344 100.8910903930664 133.35267639160156 103.80833435058594" stroke-width="2" fill="none" stroke="rgb(0, 0, 0)" stroke-opacity="1.0" stroke-linecap="round" stroke-linejoin="round"/>
    <path d="M 127.61233520507812 129.0008544921875 C 341.2732238769531 138.4645538330078 -41.61499786376953 187.68850708007812 53.48574447631836 104.02433013916016" stroke-width="2" fill="none" stroke="rgb(0, 0, 0)" stroke-opacity="1.0" stroke-linecap="round" stroke-linejoin="round"/>
    <path d="M 112.03014373779297 116.6524887084961 C 191.85093688964844 138.35794067382812 54.12110137939453 98.54365539550781 135.12393188476562 115.06389617919922" stroke-width="2" fill="none" stroke="rgb(0, 0, 0)" stroke-opacity="1.0" stroke-linecap="round" stroke-linejoin="round"/>
    <path d="M 126.11912536621094 112.90335845947266 C 152.6856689453125 151.31402587890625 83.8008804321289 116.92192840576172 120.01542663574219 97.50469207763672" stroke-width="2" fill="none" stroke="rgb(0, 0, 0)" stroke-opacity="1.0" stroke-linecap="round" stroke-linejoin="round"/>
    <path d="M 162.47280883789062 89.68424224853516 C 237.16064453125 19.42954444885254 95.9677505493164 121.44739532470703 173.44139099121094 67.70130920410156" stroke-width="2" fill="none" stroke="rgb(0, 0, 0)" stroke-opacity="1.0" stroke-linecap="round" stroke-linejoin="round"/>
    <path d="M 133.77529907226562 149.7847137451172 C 146.10801696777344 155.05191040039062 156.74830627441406 139.09779357910156 126.94593048095703 154.96377563476562" stroke-width="2" fill="none" stroke="rgb(0, 0, 0)" stroke-opacity="1.0" stroke-linecap="round" stroke-linejoin="round"/>
    <path d="M 129.12986755371094 122.16145324707031 C 177.61727905273438 125.81022644042969 93.27725982666016 126.83660125732422 140.4463348388672 116.16011047363281" stroke-width="2" fill="none" stroke="rgb(0, 0, 0)" stroke-opacity="1.0" stroke-linecap="round" stroke-linejoin="round"/>
    <path d="M 93.10629272460938 101.64134216308594 C 159.87684631347656 168.3777313232422 48.07556915283203 16.27865982055664 124.25968933105469 87.62818145751953" stroke-width="2" fill="none" stroke="rgb(0, 0, 0)" stroke-opacity="1.0" stroke-linecap="round" stroke-linejoin="round"/>
    <path d="M 163.05198669433594 113.77125549316406 C 126.73851776123047 109.5556640625 163.0602569580078 138.65113830566406 180.32435607910156 67.60059356689453" stroke-width="2" fill="none" stroke="rgb(0, 0, 0)" stroke-opacity="1.0" stroke-linecap="round" stroke-linejoin="round"/>
    <path d="M 73.69840240478516 126.7772216796875 C 107.798828125 148.12579345703125 44.42072677612305 106.48148345947266 101.41979217529297 137.90887451171875" stroke-width="2" fill="none" stroke="rgb(0, 0, 0)" stroke-opacity="1.0" stroke-linecap="round" stroke-linejoin="round"/>
  </g>
</svg>
