<?xml version="1.0" ?>
<svg xmlns="http://www.w3.org/2000/svg" version="1.1" width="224" height="224">
  <defs/>
  <g>
    <path d="M 34.89248275756836 125.71305084228516 C 62.82624053955078 105.39558410644531 40.92823028564453 91.76128387451172 96.39949798583984 95.61356353759766" stroke-width="2" fill="none" stroke="rgb(0, 0, 0)" stroke-opacity="1.0" stroke-linecap="round" stroke-linejoin="round"/>
    <path d="M 50.246456146240234 141.2350311279297 C 222.71568298339844 155.51025390625 184.46990966796875 135.9169464111328 184.47686767578125 137.53892517089844" stroke-width="2" fill="none" stroke="rgb(0, 0, 0)" stroke-opacity="1.0" stroke-linecap="round" stroke-linejoin="round"/>
    <path d="M 134.6614227294922 106.46286010742188 C 118.1835708618164 103.36581420898438 161.24122619628906 123.51654052734375 117.23526000976562 117.20878601074219" stroke-width="2" fill="none" stroke="rgb(0, 0, 0)" stroke-opacity="1.0" stroke-linecap="round" stroke-linejoin="round"/>
    <path d="M 152.62466430664062 95.66465759277344 C 190.69949340820312 123.31912231445312 132.08236694335938 107.99861145019531 172.65867614746094 95.03002166748047" stroke-width="2" fill="none" stroke="rgb(0, 0, 0)" stroke-opacity="1.0" stroke-linecap="round" stroke-linejoin="round"/>
    <path d="M 137.16781616210938 92.16757202148438 C 136.8370819091797 110.00323486328125 72.36701965332031 27.641237258911133 111.3542709350586 97.20606994628906" stroke-width="2" fill="none" stroke="rgb(0, 0, 0)" stroke-opacity="1.0" stroke-linecap="round" stroke-linejoin="round"/>
    <path d="M 116.96432495117188 104.21560668945312 C 78.11331176757812 87.7631607055664 178.80838012695312 92.47908782958984 176.49742126464844 85.1623306274414" stroke-width="2" fill="none" stroke="rgb(0, 0, 0)" stroke-opacity="1.0" stroke-linecap="round" stroke-linejoin="round"/>
    <path d="M 135.10076904296875 123.37323760986328 C 92.16566467285156 87.37045288085938 181.95982360839844 145.16932678222656 121.4432601928711 115.6585693359375" stroke-width="2" fill="none" stroke="rgb(0, 0, 0)" stroke-opacity="1.0" stroke-linecap="round" stroke-linejoin="round"/>
    <path d="M 117.72881317138672 127.35110473632812 C 228.2650909423828 154.3782196044922 -14.405881881713867 173.7950439453125 58.020164489746094 108.94058227539062" stroke-width="2" fill="none" stroke="rgb(0, 0, 0)" stroke-opacity="1.0" stroke-linecap="round" stroke-linejoin="round"/>
    <path d="M 116.55735778808594 118.54676818847656 C 224.66433715820312 155.75897216796875 69.44715118408203 95.35604095458984 141.7720947265625 113.19253540039062" stroke-width="2" fill="none" stroke="rgb(0, 0, 0)" stroke-opacity="1.0" stroke-linecap="round" stroke-linejoin="round"/>
    <path d="M 158.09519958496094 117.80459594726562 C 183.0180206298828 106.74698638916016 131.1233673095703 142.6515350341797 140.46018981933594 112.5866470336914" stroke-width="2" fill="none" stroke="rgb(0, 0, 0)" stroke-opacity="1.0" stroke-linecap="round" stroke-linejoin="round"/>
    <path d="M 153.93313598632812 92.42494201660156 C 215.26535034179688 31.94246482849121 158.1259307861328 91.54745483398438 153.9510040283203 90.39337158203125" stroke-width="2" fill="none" stroke="rgb(0, 0, 0)" stroke-opacity="1.0" stroke-linecap="round" stroke-linejoin="round"/>
    <path d="M 176.78076171875 150.86764526367188 C 107.56543731689453 128.75364685058594 212.89898681640625 146.8059844970703 171.1298370361328 152.2952117919922" stroke-width="2" fill="none" stroke="rgb(0, 0, 0)" stroke-opacity="1.0" stroke-linecap="round" stroke-linejoin="round"/>
    <path d="M 88.4887466430664 109.15486907958984 C 130.27203369140625 144.03440856933594 78.915771484375 95.36334991455078 110.77293395996094 109.01968383789062" stroke-width="2" fill="none" stroke="rgb(0, 0, 0)" stroke-opacity="1.0" stroke-linecap="round" stroke-linejoin="round"/>
    <path d="M 141.66441345214844 109.2599868774414 C 97.68023681640625 156.61642456054688 86.69390869140625 6.522082805633545 109.97266387939453 104.79785919189453" stroke-width="2" fill="none" stroke="rgb(0, 0, 0)" stroke-opacity="1.0" stroke-linecap="round" stroke-linejoin="round"/>
    <path d="M 164.477783203125 111.48802947998047 C 118.90423583984375 92.85249328613281 165.35166931152344 140.44027709960938 184.95956420898438 64.45685577392578" stroke-width="2" fill="none" stroke="rgb(0, 0, 0)" stroke-opacity="1.0" stroke-linecap="round" stroke-linejoin="round"/>
    <path d="M 47.467464447021484 120.89118194580078 C 70.39950561523438 110.06623840332031 32.62778854370117 122.67127990722656 51.244529724121094 116.80941009521484" stroke-width="2" fill="none" stroke="rgb(0, 0, 0)" stroke-opacity="1.0" stroke-linecap="round" stroke-linejoin="round"/>
  </g>
</svg>
