<?xml version="1.0" ?>
<svg xmlns="http://www.w3.org/2000/svg" version="1.1" width="224" height="224">
  <defs/>
  <g>
    <path d="M 43.37775421142578 115.1111068725586 C 74.8597640991211 88.7149658203125 72.94457244873047 100.86422729492188 90.9548568725586 96.85188293457031" stroke-width="2" fill="none" stroke="rgb(0, 0, 0)" stroke-opacity="1.0" stroke-linecap="round" stroke-linejoin="round"/>
    <path d="M 50.13806915283203 144.07345581054688 C 168.72048950195312 164.98348999023438 210.09872436523438 133.1927032470703 156.48497009277344 154.01853942871094" stroke-width="2" fill="none" stroke="rgb(0, 0, 0)" stroke-opacity="1.0" stroke-linecap="round" stroke-linejoin="round"/>
    <path d="M 158.17388916015625 139.21832275390625 C 36.02833557128906 102.43901824951172 114.20283508300781 140.3193817138672 102.41401672363281 110.45011901855469" stroke-width="2" fill="none" stroke="rgb(0, 0, 0)" stroke-opacity="1.0" stroke-linecap="round" stroke-linejoin="round"/>
    <path d="M 160.8823699951172 137.7160186767578 C 129.73641967773438 111.4757308959961 161.04490661621094 124.3453140258789 143.924560546875 127.68624114990234" stroke-width="2" fill="none" stroke="rgb(0, 0, 0)" stroke-opacity="1.0" stroke-linecap="round" stroke-linejoin="round"/>
    <path d="M 131.30430603027344 101.32701873779297 C 101.13394165039062 124.96022033691406 139.26327514648438 74.79306030273438 147.7205047607422 97.51187896728516" stroke-width="2" fill="none" stroke="rgb(0, 0, 0)" stroke-opacity="1.0" stroke-linecap="round" stroke-linejoin="round"/>
    <path d="M 157.24227905273438 87.24635314941406 C 57.49148941040039 94.68563842773438 177.6934356689453 110.41175842285156 117.0273666381836 78.86600494384766" stroke-width="2" fill="none" stroke="rgb(0, 0, 0)" stroke-opacity="1.0" stroke-linecap="round" stroke-linejoin="round"/>
    <path d="M 108.42060852050781 95.08295440673828 C 116.57977294921875 135.92144775390625 133.14389038085938 111.83845520019531 111.1645278930664 111.18708038330078" stroke-width="2" fill="none" stroke="rgb(0, 0, 0)" stroke-opacity="1.0" stroke-linecap="round" stroke-linejoin="round"/>
    <path d="M 43.09389877319336 141.99832153320312 C 100.78852081298828 157.4053497314453 30.191804885864258 145.3668975830078 44.92758560180664 124.3680648803711" stroke-width="2" fill="none" stroke="rgb(0, 0, 0)" stroke-opacity="1.0" stroke-linecap="round" stroke-linejoin="round"/>
    <path d="M 126.25817108154297 134.0430450439453 C 179.26502990722656 166.46824645996094 97.8360595703125 96.05811309814453 140.11312866210938 139.47470092773438" stroke-width="2" fill="none" stroke="rgb(0, 0, 0)" stroke-opacity="1.0" stroke-linecap="round" stroke-linejoin="round"/>
    <path d="M 151.87901306152344 117.3211441040039 C 182.5302734375 124.49706268310547 110.22747039794922 114.73230743408203 137.61932373046875 121.75978088378906" stroke-width="2" fill="none" stroke="rgb(0, 0, 0)" stroke-opacity="1.0" stroke-linecap="round" stroke-linejoin="round"/>
    <path d="M 161.75582885742188 126.71003723144531 C 204.04080200195312 35.73910903930664 195.2215118408203 60.32795333862305 156.76307678222656 89.14521789550781" stroke-width="2" fill="none" stroke="rgb(0, 0, 0)" stroke-opacity="1.0" stroke-linecap="round" stroke-linejoin="round"/>
    <path d="M 171.09521484375 145.18238830566406 C 120.5069808959961 149.1623992919922 205.45213317871094 107.28221893310547 142.87257385253906 135.96263122558594" stroke-width="2" fill="none" stroke="rgb(0, 0, 0)" stroke-opacity="1.0" stroke-linecap="round" stroke-linejoin="round"/>
    <path d="M 72.83306121826172 130.17913818359375 C 89.82666015625 136.29257202148438 60.351993560791016 151.53672790527344 168.37643432617188 151.73358154296875" stroke-width="2" fill="none" stroke="rgb(0, 0, 0)" stroke-opacity="1.0" stroke-linecap="round" stroke-linejoin="round"/>
    <path d="M 143.8500213623047 141.48472595214844 C 82.91841125488281 112.0413818359375 82.6650161743164 23.663442611694336 121.08287811279297 100.86659240722656" stroke-width="2" fill="none" stroke="rgb(0, 0, 0)" stroke-opacity="1.0" stroke-linecap="round" stroke-linejoin="round"/>
    <path d="M 173.17478942871094 91.51337432861328 C 144.11587524414062 105.05187225341797 180.75987243652344 126.08443450927734 187.02615356445312 64.5333480834961" stroke-width="2" fill="none" stroke="rgb(0, 0, 0)" stroke-opacity="1.0" stroke-linecap="round" stroke-linejoin="round"/>
    <path d="M 80.50359344482422 113.92398834228516 C 69.95963287353516 100.44991302490234 0.028607914224267006 111.576416015625 78.2841796875 106.28872680664062" stroke-width="2" fill="none" stroke="rgb(0, 0, 0)" stroke-opacity="1.0" stroke-linecap="round" stroke-linejoin="round"/>
  </g>
</svg>
