<?xml version="1.0" ?>
<svg xmlns="http://www.w3.org/2000/svg" version="1.1" width="224" height="224">
  <defs/>
  <g>
    <path d="M 40.10926818847656 116.61687469482422 C 63.61729431152344 108.69467163085938 34.051734924316406 94.34550476074219 99.23680114746094 95.34856414794922" stroke-width="2" fill="none" stroke="rgb(0, 0, 0)" stroke-opacity="1.0" stroke-linecap="round" stroke-linejoin="round"/>
    <path d="M 95.91722869873047 124.5938491821289 C 214.56573486328125 142.8894805908203 182.14805603027344 162.50982666015625 143.76425170898438 147.11375427246094" stroke-width="2" fill="none" stroke="rgb(0, 0, 0)" stroke-opacity="1.0" stroke-linecap="round" stroke-linejoin="round"/>
    <path d="M 115.87776184082031 106.53235626220703 C 81.32401275634766 89.84290313720703 169.36001586914062 116.90679931640625 108.44368743896484 112.71745300292969" stroke-width="2" fill="none" stroke="rgb(0, 0, 0)" stroke-opacity="1.0" stroke-linecap="round" stroke-linejoin="round"/>
    <path d="M 152.62750244140625 100.45249938964844 C 190.54721069335938 105.0876693725586 121.78971862792969 104.27220916748047 160.85182189941406 101.803955078125" stroke-width="2" fill="none" stroke="rgb(0, 0, 0)" stroke-opacity="1.0" stroke-linecap="round" stroke-linejoin="round"/>
    <path d="M 133.83348083496094 87.57874298095703 C 114.27616119384766 93.10240936279297 92.8235855102539 31.76691246032715 102.21380615234375 95.62284088134766" stroke-width="2" fill="none" stroke="rgb(0, 0, 0)" stroke-opacity="1.0" stroke-linecap="round" stroke-linejoin="round"/>
    <path d="M 138.05247497558594 86.73544311523438 C 163.6483612060547 76.3263931274414 167.69863891601562 123.46943664550781 151.6737518310547 103.5462646484375" stroke-width="2" fill="none" stroke="rgb(0, 0, 0)" stroke-opacity="1.0" stroke-linecap="round" stroke-linejoin="round"/>
    <path d="M 140.78585815429688 103.196533203125 C 112.24736785888672 100.51920318603516 171.29876708984375 91.25932312011719 112.66117858886719 115.05680084228516" stroke-width="2" fill="none" stroke="rgb(0, 0, 0)" stroke-opacity="1.0" stroke-linecap="round" stroke-linejoin="round"/>
    <path d="M 74.8379898071289 135.5855255126953 C 223.94236755371094 169.53042602539062 -21.660186767578125 160.17547607421875 52.25654220581055 107.19686126708984" stroke-width="2" fill="none" stroke="rgb(0, 0, 0)" stroke-opacity="1.0" stroke-linecap="round" stroke-linejoin="round"/>
    <path d="M 164.82577514648438 153.52175903320312 C 204.94293212890625 166.52357482910156 44.93400955200195 72.66926574707031 131.15301513671875 113.26415252685547" stroke-width="2" fill="none" stroke="rgb(0, 0, 0)" stroke-opacity="1.0" stroke-linecap="round" stroke-linejoin="round"/>
    <path d="M 99.86371612548828 132.9422149658203 C 173.03343200683594 121.8375244140625 124.05538177490234 113.87992858886719 140.00257873535156 114.77627563476562" stroke-width="2" fill="none" stroke="rgb(0, 0, 0)" stroke-opacity="1.0" stroke-linecap="round" stroke-linejoin="round"/>
    <path d="M 159.39405822753906 95.99151611328125 C 229.86070251464844 14.740413665771484 99.5185317993164 120.36711883544922 169.01992797851562 88.64128112792969" stroke-width="2" fill="none" stroke="rgb(0, 0, 0)" stroke-opacity="1.0" stroke-linecap="round" stroke-linejoin="round"/>
    <path d="M 118.93714904785156 118.86071014404297 C 179.90428161621094 160.18263244628906 191.85289001464844 148.44651794433594 41.90702819824219 146.20347595214844" stroke-width="2" fill="none" stroke="rgb(0, 0, 0)" stroke-opacity="1.0" stroke-linecap="round" stroke-linejoin="round"/>
    <path d="M 116.0556869506836 125.58024597167969 C 228.21180725097656 124.5478286743164 77.40376281738281 134.72000122070312 139.40550231933594 101.18314361572266" stroke-width="2" fill="none" stroke="rgb(0, 0, 0)" stroke-opacity="1.0" stroke-linecap="round" stroke-linejoin="round"/>
    <path d="M 123.10173797607422 103.43240356445312 C 122.1216812133789 125.68062591552734 70.87716674804688 23.20585060119629 122.88443756103516 90.7701644897461" stroke-width="2" fill="none" stroke="rgb(0, 0, 0)" stroke-opacity="1.0" stroke-linecap="round" stroke-linejoin="round"/>
    <path d="M 164.91647338867188 104.51628875732422 C 146.50830078125 104.09966278076172 165.16822814941406 133.32008361816406 182.1074676513672 60.34569549560547" stroke-width="2" fill="none" stroke="rgb(0, 0, 0)" stroke-opacity="1.0" stroke-linecap="round" stroke-linejoin="round"/>
    <path d="M 90.53667449951172 114.36749267578125 C 63.557403564453125 132.0028533935547 86.66513061523438 114.58882904052734 78.60958862304688 126.53007507324219" stroke-width="2" fill="none" stroke="rgb(0, 0, 0)" stroke-opacity="1.0" stroke-linecap="round" stroke-linejoin="round"/>
  </g>
</svg>
