<?xml version="1.0" ?>
<svg xmlns="http://www.w3.org/2000/svg" version="1.1" width="224" height="224">
  <defs/>
  <g>
    <path d="M 54.485015869140625 99.06121063232422 C 66.80496215820312 107.98143768310547 101.38298797607422 70.556884765625 98.3941879272461 128.95298767089844" stroke-width="2" fill="none" stroke="rgb(0, 0, 0)" stroke-opacity="1.0" stroke-linecap="round" stroke-linejoin="round"/>
    <path d="M 128.86572265625 152.2749786376953 C 212.41160583496094 137.031005859375 170.9601593017578 160.853515625 194.2598876953125 149.04339599609375" stroke-width="2" fill="none" stroke="rgb(0, 0, 0)" stroke-opacity="1.0" stroke-linecap="round" stroke-linejoin="round"/>
    <path d="M 124.64109802246094 101.02535247802734 C 35.070404052734375 106.49273681640625 333.5623474121094 168.79364013671875 110.0494384765625 139.48573303222656" stroke-width="2" fill="none" stroke="rgb(0, 0, 0)" stroke-opacity="1.0" stroke-linecap="round" stroke-linejoin="round"/>
    <path d="M 160.21961975097656 93.32683563232422 C 179.86695861816406 110.22734069824219 121.87301635742188 87.8269271850586 174.4752655029297 87.71321868896484" stroke-width="2" fill="none" stroke="rgb(0, 0, 0)" stroke-opacity="1.0" stroke-linecap="round" stroke-linejoin="round"/>
    <path d="M 126.72062683105469 83.95760345458984 C 121.10269927978516 93.4888687133789 78.97650146484375 37.36187744140625 105.23626708984375 96.95338439941406" stroke-width="2" fill="none" stroke="rgb(0, 0, 0)" stroke-opacity="1.0" stroke-linecap="round" stroke-linejoin="round"/>
    <path d="M 128.6107940673828 85.97492218017578 C 174.2409210205078 76.09188079833984 134.8011016845703 120.97509765625 169.17344665527344 96.80516815185547" stroke-width="2" fill="none" stroke="rgb(0, 0, 0)" stroke-opacity="1.0" stroke-linecap="round" stroke-linejoin="round"/>
    <path d="M 120.5583267211914 103.64151763916016 C 81.89306640625 105.312744140625 148.48681640625 102.09490966796875 114.85981750488281 112.47663116455078" stroke-width="2" fill="none" stroke="rgb(0, 0, 0)" stroke-opacity="1.0" stroke-linecap="round" stroke-linejoin="round"/>
    <path d="M 151.75161743164062 140.35650634765625 C 256.26422119140625 137.68743896484375 -24.49295997619629 193.26548767089844 57.930419921875 99.33661651611328" stroke-width="2" fill="none" stroke="rgb(0, 0, 0)" stroke-opacity="1.0" stroke-linecap="round" stroke-linejoin="round"/>
    <path d="M 104.1244888305664 109.77763366699219 C 209.58950805664062 130.77183532714844 89.38897705078125 104.539794921875 123.06731414794922 92.05393981933594" stroke-width="2" fill="none" stroke="rgb(0, 0, 0)" stroke-opacity="1.0" stroke-linecap="round" stroke-linejoin="round"/>
    <path d="M 115.2712173461914 112.30388641357422 C 222.13612365722656 116.83636474609375 49.69316101074219 123.651123046875 145.7371826171875 108.07685852050781" stroke-width="2" fill="none" stroke="rgb(0, 0, 0)" stroke-opacity="1.0" stroke-linecap="round" stroke-linejoin="round"/>
    <path d="M 162.29930114746094 83.80530548095703 C 231.08180236816406 15.915582656860352 125.13375091552734 155.91265869140625 173.0739288330078 89.55529022216797" stroke-width="2" fill="none" stroke="rgb(0, 0, 0)" stroke-opacity="1.0" stroke-linecap="round" stroke-linejoin="round"/>
    <path d="M 163.07095336914062 146.1054229736328 C 177.72613525390625 156.9869842529297 174.3172149658203 142.50155639648438 175.79733276367188 144.73692321777344" stroke-width="2" fill="none" stroke="rgb(0, 0, 0)" stroke-opacity="1.0" stroke-linecap="round" stroke-linejoin="round"/>
    <path d="M 147.72430419921875 125.34502410888672 C 177.46836853027344 105.4898452758789 116.10948944091797 103.90885162353516 141.62051391601562 101.6795883178711" stroke-width="2" fill="none" stroke="rgb(0, 0, 0)" stroke-opacity="1.0" stroke-linecap="round" stroke-linejoin="round"/>
    <path d="M 137.51290893554688 131.3330841064453 C 177.24818420410156 166.0101776123047 49.34679412841797 23.987215042114258 115.06146240234375 89.7688217163086" stroke-width="2" fill="none" stroke="rgb(0, 0, 0)" stroke-opacity="1.0" stroke-linecap="round" stroke-linejoin="round"/>
    <path d="M 173.85922241210938 95.93513488769531 C 133.0959930419922 103.29615783691406 165.27622985839844 153.7354736328125 183.89747619628906 70.32891082763672" stroke-width="2" fill="none" stroke="rgb(0, 0, 0)" stroke-opacity="1.0" stroke-linecap="round" stroke-linejoin="round"/>
    <path d="M 145.93580627441406 148.1172332763672 C 150.68812561035156 169.1072540283203 61.92634963989258 94.91968536376953 88.40431213378906 111.9564208984375" stroke-width="2" fill="none" stroke="rgb(0, 0, 0)" stroke-opacity="1.0" stroke-linecap="round" stroke-linejoin="round"/>
  </g>
</svg>
