<?xml version="1.0" ?>
<svg xmlns="http://www.w3.org/2000/svg" version="1.1" width="224" height="224">
  <defs/>
  <g>
    <path d="M 35.64625930786133 121.04113006591797 C 65.604248046875 114.79641723632812 34.76188659667969 80.44050598144531 120.11944580078125 102.1387939453125" stroke-width="2" fill="none" stroke="rgb(0, 0, 0)" stroke-opacity="1.0" stroke-linecap="round" stroke-linejoin="round"/>
    <path d="M 114.74437713623047 120.14111328125 C 207.4299774169922 144.02474975585938 173.60757446289062 149.34800720214844 175.90786743164062 145.0794219970703" stroke-width="2" fill="none" stroke="rgb(0, 0, 0)" stroke-opacity="1.0" stroke-linecap="round" stroke-linejoin="round"/>
    <path d="M 140.95791625976562 110.91000366210938 C 41.711143493652344 123.42581176757812 224.74412536621094 173.38670349121094 98.92218017578125 129.2804718017578" stroke-width="2" fill="none" stroke="rgb(0, 0, 0)" stroke-opacity="1.0" stroke-linecap="round" stroke-linejoin="round"/>
    <path d="M 150.30975341796875 104.60115051269531 C 197.23680114746094 104.31189727783203 148.4201202392578 105.32943725585938 166.53585815429688 109.58382415771484" stroke-width="2" fill="none" stroke="rgb(0, 0, 0)" stroke-opacity="1.0" stroke-linecap="round" stroke-linejoin="round"/>
    <path d="M 123.04225158691406 95.09001922607422 C 106.07266998291016 107.28549194335938 94.33316040039062 40.40531539916992 102.0487060546875 97.09038543701172" stroke-width="2" fill="none" stroke="rgb(0, 0, 0)" stroke-opacity="1.0" stroke-linecap="round" stroke-linejoin="round"/>
    <path d="M 132.95779418945312 90.21268463134766 C 166.24197387695312 82.32152557373047 136.91973876953125 104.1757583618164 170.06973266601562 96.17675018310547" stroke-width="2" fill="none" stroke="rgb(0, 0, 0)" stroke-opacity="1.0" stroke-linecap="round" stroke-linejoin="round"/>
    <path d="M 143.9754638671875 110.1288070678711 C 95.699951171875 131.80714416503906 160.5703582763672 103.82940673828125 127.80706024169922 104.55793762207031" stroke-width="2" fill="none" stroke="rgb(0, 0, 0)" stroke-opacity="1.0" stroke-linecap="round" stroke-linejoin="round"/>
    <path d="M 90.91255187988281 142.61708068847656 C 305.8086242675781 137.67979431152344 -28.74059295654297 192.331298828125 48.32477569580078 109.17302703857422" stroke-width="2" fill="none" stroke="rgb(0, 0, 0)" stroke-opacity="1.0" stroke-linecap="round" stroke-linejoin="round"/>
    <path d="M 163.7423095703125 130.2808074951172 C 218.50735473632812 155.90652465820312 31.244585037231445 83.9731216430664 148.6717529296875 120.67973327636719" stroke-width="2" fill="none" stroke="rgb(0, 0, 0)" stroke-opacity="1.0" stroke-linecap="round" stroke-linejoin="round"/>
    <path d="M 134.09307861328125 132.54620361328125 C 172.95721435546875 128.33348083496094 84.27130126953125 130.2876739501953 141.3807830810547 116.53629302978516" stroke-width="2" fill="none" stroke="rgb(0, 0, 0)" stroke-opacity="1.0" stroke-linecap="round" stroke-linejoin="round"/>
    <path d="M 167.28883361816406 92.78845977783203 C 235.18917846679688 14.644247055053711 112.22957611083984 127.91083526611328 175.29989624023438 73.8597183227539" stroke-width="2" fill="none" stroke="rgb(0, 0, 0)" stroke-opacity="1.0" stroke-linecap="round" stroke-linejoin="round"/>
    <path d="M 161.4002227783203 155.23043823242188 C 156.69662475585938 157.08692932128906 205.68173217773438 154.43946838378906 73.03136444091797 146.0552520751953" stroke-width="2" fill="none" stroke="rgb(0, 0, 0)" stroke-opacity="1.0" stroke-linecap="round" stroke-linejoin="round"/>
    <path d="M 129.17694091796875 120.93153381347656 C 183.4462432861328 111.45849609375 109.25238800048828 153.30923461914062 154.28561401367188 118.49423217773438" stroke-width="2" fill="none" stroke="rgb(0, 0, 0)" stroke-opacity="1.0" stroke-linecap="round" stroke-linejoin="round"/>
    <path d="M 99.75447845458984 113.01467895507812 C 158.73440551757812 169.41473388671875 47.65263748168945 16.658838272094727 127.52024841308594 86.89733123779297" stroke-width="2" fill="none" stroke="rgb(0, 0, 0)" stroke-opacity="1.0" stroke-linecap="round" stroke-linejoin="round"/>
    <path d="M 169.84494018554688 96.05604553222656 C 135.36843872070312 108.8331298828125 169.13217163085938 147.8678436279297 185.3926239013672 67.05982971191406" stroke-width="2" fill="none" stroke="rgb(0, 0, 0)" stroke-opacity="1.0" stroke-linecap="round" stroke-linejoin="round"/>
    <path d="M 64.9167709350586 137.83982849121094 C 112.58650970458984 139.9962158203125 52.8916130065918 124.64246368408203 91.14144897460938 142.2131805419922" stroke-width="2" fill="none" stroke="rgb(0, 0, 0)" stroke-opacity="1.0" stroke-linecap="round" stroke-linejoin="round"/>
  </g>
</svg>
