<?xml version="1.0" ?>
<svg xmlns="http://www.w3.org/2000/svg" version="1.1" width="224" height="224">
  <defs/>
  <g>
    <path d="M 50.117671966552734 114.03787994384766 C 70.90071105957031 113.48062896728516 33.199337005615234 93.99002075195312 119.40048217773438 94.71829986572266" stroke-width="2" fill="none" stroke="rgb(0, 0, 0)" stroke-opacity="1.0" stroke-linecap="round" stroke-linejoin="round"/>
    <path d="M 102.0820541381836 123.55461120605469 C 219.9330596923828 142.28726196289062 175.40655517578125 169.1765899658203 152.3812255859375 139.8852081298828" stroke-width="2" fill="none" stroke="rgb(0, 0, 0)" stroke-opacity="1.0" stroke-linecap="round" stroke-linejoin="round"/>
    <path d="M 116.56961059570312 104.6998519897461 C 94.11847686767578 87.25332641601562 174.67283630371094 133.646484375 117.49714660644531 119.91372680664062" stroke-width="2" fill="none" stroke="rgb(0, 0, 0)" stroke-opacity="1.0" stroke-linecap="round" stroke-linejoin="round"/>
    <path d="M 148.1511688232422 100.86702728271484 C 190.6067657470703 104.34779357910156 107.7754898071289 112.39907836914062 169.6066436767578 100.55058288574219" stroke-width="2" fill="none" stroke="rgb(0, 0, 0)" stroke-opacity="1.0" stroke-linecap="round" stroke-linejoin="round"/>
    <path d="M 135.057861328125 86.9881591796875 C 115.67237854003906 94.49325561523438 86.84471893310547 37.66465759277344 101.23087310791016 98.85449981689453" stroke-width="2" fill="none" stroke="rgb(0, 0, 0)" stroke-opacity="1.0" stroke-linecap="round" stroke-linejoin="round"/>
    <path d="M 129.3043975830078 82.11177825927734 C 155.82301330566406 74.73294830322266 174.11729431152344 128.75294494628906 144.23269653320312 114.20465087890625" stroke-width="2" fill="none" stroke="rgb(0, 0, 0)" stroke-opacity="1.0" stroke-linecap="round" stroke-linejoin="round"/>
    <path d="M 133.6173858642578 116.72820281982422 C 106.67220306396484 94.84416961669922 161.5457763671875 104.52196502685547 117.5260238647461 113.6446533203125" stroke-width="2" fill="none" stroke="rgb(0, 0, 0)" stroke-opacity="1.0" stroke-linecap="round" stroke-linejoin="round"/>
    <path d="M 79.40445709228516 137.1857147216797 C 226.9796905517578 157.6719512939453 -17.586971282958984 164.38351440429688 58.513336181640625 107.88048553466797" stroke-width="2" fill="none" stroke="rgb(0, 0, 0)" stroke-opacity="1.0" stroke-linecap="round" stroke-linejoin="round"/>
    <path d="M 183.5217742919922 148.84103393554688 C 218.06512451171875 153.29246520996094 35.43489456176758 76.79607391357422 136.56121826171875 120.38306427001953" stroke-width="2" fill="none" stroke="rgb(0, 0, 0)" stroke-opacity="1.0" stroke-linecap="round" stroke-linejoin="round"/>
    <path d="M 95.49266052246094 129.93045043945312 C 172.3726348876953 114.61246490478516 119.46282958984375 106.88223266601562 137.45960998535156 115.52368927001953" stroke-width="2" fill="none" stroke="rgb(0, 0, 0)" stroke-opacity="1.0" stroke-linecap="round" stroke-linejoin="round"/>
    <path d="M 158.25701904296875 88.04998779296875 C 236.50338745117188 24.739151000976562 98.41484832763672 107.58158874511719 168.09298706054688 80.11685943603516" stroke-width="2" fill="none" stroke="rgb(0, 0, 0)" stroke-opacity="1.0" stroke-linecap="round" stroke-linejoin="round"/>
    <path d="M 132.4926300048828 122.37858581542969 C 206.36508178710938 152.46017456054688 201.97938537597656 148.90309143066406 46.578125 144.27000427246094" stroke-width="2" fill="none" stroke="rgb(0, 0, 0)" stroke-opacity="1.0" stroke-linecap="round" stroke-linejoin="round"/>
    <path d="M 103.69941711425781 125.30075073242188 C 227.38864135742188 122.31689453125 64.6497802734375 125.94645690917969 136.61477661132812 105.28704833984375" stroke-width="2" fill="none" stroke="rgb(0, 0, 0)" stroke-opacity="1.0" stroke-linecap="round" stroke-linejoin="round"/>
    <path d="M 115.9142837524414 100.27706909179688 C 124.28363037109375 120.34103393554688 69.34636688232422 34.98353958129883 121.55797576904297 84.53366088867188" stroke-width="2" fill="none" stroke="rgb(0, 0, 0)" stroke-opacity="1.0" stroke-linecap="round" stroke-linejoin="round"/>
    <path d="M 167.11363220214844 94.23532104492188 C 136.66085815429688 102.31914520263672 165.02635192871094 131.85768127441406 178.7066192626953 73.70442962646484" stroke-width="2" fill="none" stroke="rgb(0, 0, 0)" stroke-opacity="1.0" stroke-linecap="round" stroke-linejoin="round"/>
    <path d="M 75.1269760131836 121.111328125 C 65.0404052734375 141.6865234375 69.92694854736328 113.95824432373047 76.8003158569336 133.79222106933594" stroke-width="2" fill="none" stroke="rgb(0, 0, 0)" stroke-opacity="1.0" stroke-linecap="round" stroke-linejoin="round"/>
  </g>
</svg>
