<?xml version="1.0" ?>
<svg xmlns="http://www.w3.org/2000/svg" version="1.1" width="224" height="224">
  <defs/>
  <g>
    <path d="M 43.58639144897461 115.81460571289062 C 59.20866012573242 115.15096282958984 32.97184753417969 87.71894073486328 104.43720245361328 91.49271392822266" stroke-width="2" fill="none" stroke="rgb(0, 0, 0)" stroke-opacity="1.0" stroke-linecap="round" stroke-linejoin="round"/>
    <path d="M 103.1675033569336 124.98638916015625 C 214.7633819580078 144.3115692138672 188.935302734375 165.6323699951172 144.53709411621094 150.30270385742188" stroke-width="2" fill="none" stroke="rgb(0, 0, 0)" stroke-opacity="1.0" stroke-linecap="round" stroke-linejoin="round"/>
    <path d="M 118.04141235351562 111.14192199707031 C 76.91915130615234 93.65546417236328 175.6277618408203 115.59516906738281 120.96015930175781 117.3221664428711" stroke-width="2" fill="none" stroke="rgb(0, 0, 0)" stroke-opacity="1.0" stroke-linecap="round" stroke-linejoin="round"/>
    <path d="M 148.4989471435547 99.98793029785156 C 164.93849182128906 111.0031967163086 123.06743621826172 101.84646606445312 164.79367065429688 99.6274642944336" stroke-width="2" fill="none" stroke="rgb(0, 0, 0)" stroke-opacity="1.0" stroke-linecap="round" stroke-linejoin="round"/>
    <path d="M 133.7117156982422 88.9631576538086 C 119.86502838134766 98.8778305053711 86.05654907226562 29.874574661254883 103.96932983398438 101.1088638305664" stroke-width="2" fill="none" stroke="rgb(0, 0, 0)" stroke-opacity="1.0" stroke-linecap="round" stroke-linejoin="round"/>
    <path d="M 141.52645874023438 81.97855377197266 C 153.78091430664062 74.81906127929688 174.4271697998047 120.51221466064453 148.87220764160156 98.72862243652344" stroke-width="2" fill="none" stroke="rgb(0, 0, 0)" stroke-opacity="1.0" stroke-linecap="round" stroke-linejoin="round"/>
    <path d="M 132.98316955566406 102.07026672363281 C 103.9616928100586 112.54289245605469 160.20948791503906 85.08414459228516 126.91291046142578 121.0813217163086" stroke-width="2" fill="none" stroke="rgb(0, 0, 0)" stroke-opacity="1.0" stroke-linecap="round" stroke-linejoin="round"/>
    <path d="M 81.34314727783203 142.6694793701172 C 220.3144073486328 155.3372039794922 -15.289393424987793 171.5598602294922 50.1829833984375 106.4489517211914" stroke-width="2" fill="none" stroke="rgb(0, 0, 0)" stroke-opacity="1.0" stroke-linecap="round" stroke-linejoin="round"/>
    <path d="M 176.23841857910156 163.42176818847656 C 200.8427734375 177.2053680419922 64.8003158569336 62.34754943847656 135.26007080078125 117.6959457397461" stroke-width="2" fill="none" stroke="rgb(0, 0, 0)" stroke-opacity="1.0" stroke-linecap="round" stroke-linejoin="round"/>
    <path d="M 105.72006225585938 131.11318969726562 C 190.3014373779297 123.64835357666016 131.44569396972656 109.42230987548828 148.3000030517578 118.23006439208984" stroke-width="2" fill="none" stroke="rgb(0, 0, 0)" stroke-opacity="1.0" stroke-linecap="round" stroke-linejoin="round"/>
    <path d="M 162.462890625 95.00566101074219 C 233.7664337158203 17.923233032226562 114.75321197509766 116.41242980957031 174.1928253173828 84.37491607666016" stroke-width="2" fill="none" stroke="rgb(0, 0, 0)" stroke-opacity="1.0" stroke-linecap="round" stroke-linejoin="round"/>
    <path d="M 118.24810028076172 135.458251953125 C 157.1466522216797 146.99911499023438 184.259521484375 139.8505859375 41.54560470581055 140.6140594482422" stroke-width="2" fill="none" stroke="rgb(0, 0, 0)" stroke-opacity="1.0" stroke-linecap="round" stroke-linejoin="round"/>
    <path d="M 113.18224334716797 116.1375503540039 C 191.2099609375 124.54170989990234 67.01168823242188 113.99469757080078 129.93988037109375 116.57756805419922" stroke-width="2" fill="none" stroke="rgb(0, 0, 0)" stroke-opacity="1.0" stroke-linecap="round" stroke-linejoin="round"/>
    <path d="M 131.209228515625 110.55045318603516 C 112.84626007080078 136.2295379638672 91.80552673339844 19.925493240356445 101.77093505859375 100.48173522949219" stroke-width="2" fill="none" stroke="rgb(0, 0, 0)" stroke-opacity="1.0" stroke-linecap="round" stroke-linejoin="round"/>
    <path d="M 166.39830017089844 108.98626708984375 C 147.493896484375 106.51368713378906 162.36700439453125 136.99533081054688 186.0284423828125 67.88578796386719" stroke-width="2" fill="none" stroke="rgb(0, 0, 0)" stroke-opacity="1.0" stroke-linecap="round" stroke-linejoin="round"/>
    <path d="M 93.0578384399414 104.57530975341797 C 92.03490447998047 121.6684341430664 75.01439666748047 90.31010437011719 93.842041015625 117.99217987060547" stroke-width="2" fill="none" stroke="rgb(0, 0, 0)" stroke-opacity="1.0" stroke-linecap="round" stroke-linejoin="round"/>
  </g>
</svg>
