<?xml version="1.0" ?>
<svg xmlns="http://www.w3.org/2000/svg" version="1.1" width="224" height="224">
  <defs/>
  <g>
    <path d="M 38.078678131103516 126.36378479003906 C 66.37821197509766 82.82896423339844 73.995849609375 100.6987533569336 93.64490509033203 97.71548461914062" stroke-width="2" fill="none" stroke="rgb(0, 0, 0)" stroke-opacity="1.0" stroke-linecap="round" stroke-linejoin="round"/>
    <path d="M 46.391605377197266 148.2199249267578 C 233.88986206054688 172.33485412597656 174.33277893066406 130.38580322265625 151.8203125 149.86810302734375" stroke-width="2" fill="none" stroke="rgb(0, 0, 0)" stroke-opacity="1.0" stroke-linecap="round" stroke-linejoin="round"/>
    <path d="M 144.2051544189453 106.2134017944336 C 106.48084259033203 82.59920501708984 170.6290740966797 127.1222152709961 131.06747436523438 115.51471710205078" stroke-width="2" fill="none" stroke="rgb(0, 0, 0)" stroke-opacity="1.0" stroke-linecap="round" stroke-linejoin="round"/>
    <path d="M 159.37608337402344 96.97779846191406 C 150.73269653320312 132.3940887451172 185.20701599121094 73.97657775878906 165.8173828125 120.80857849121094" stroke-width="2" fill="none" stroke="rgb(0, 0, 0)" stroke-opacity="1.0" stroke-linecap="round" stroke-linejoin="round"/>
    <path d="M 108.6947250366211 101.4096450805664 C 142.8015594482422 114.95519256591797 54.39568328857422 59.709381103515625 125.29998779296875 94.22118377685547" stroke-width="2" fill="none" stroke="rgb(0, 0, 0)" stroke-opacity="1.0" stroke-linecap="round" stroke-linejoin="round"/>
    <path d="M 149.6162109375 81.85845947265625 C 32.58477783203125 92.45622253417969 165.2997589111328 110.79029846191406 105.16316223144531 85.9848861694336" stroke-width="2" fill="none" stroke="rgb(0, 0, 0)" stroke-opacity="1.0" stroke-linecap="round" stroke-linejoin="round"/>
    <path d="M 115.00127410888672 145.64718627929688 C 91.83026123046875 122.88726806640625 111.84845733642578 119.70744323730469 100.50955200195312 107.76744842529297" stroke-width="2" fill="none" stroke="rgb(0, 0, 0)" stroke-opacity="1.0" stroke-linecap="round" stroke-linejoin="round"/>
    <path d="M 43.18368148803711 138.4734649658203 C 78.62847900390625 157.26052856445312 28.29030990600586 143.57061767578125 41.00214767456055 121.79133605957031" stroke-width="2" fill="none" stroke="rgb(0, 0, 0)" stroke-opacity="1.0" stroke-linecap="round" stroke-linejoin="round"/>
    <path d="M 120.45125579833984 127.09745025634766 C 236.10548400878906 131.37930297851562 55.84964370727539 119.8037109375 147.2073211669922 121.44263458251953" stroke-width="2" fill="none" stroke="rgb(0, 0, 0)" stroke-opacity="1.0" stroke-linecap="round" stroke-linejoin="round"/>
    <path d="M 167.92213439941406 85.65998840332031 C 201.09329223632812 77.4459228515625 112.07392883300781 125.8140869140625 142.56675720214844 103.4990005493164" stroke-width="2" fill="none" stroke="rgb(0, 0, 0)" stroke-opacity="1.0" stroke-linecap="round" stroke-linejoin="round"/>
    <path d="M 154.94557189941406 82.58361053466797 C 217.41116333007812 27.54432487487793 167.38340759277344 97.72106170654297 155.74545288085938 91.61734771728516" stroke-width="2" fill="none" stroke="rgb(0, 0, 0)" stroke-opacity="1.0" stroke-linecap="round" stroke-linejoin="round"/>
    <path d="M 143.49168395996094 139.0673370361328 C 107.41253662109375 134.2018280029297 212.13824462890625 159.99819946289062 166.2353057861328 146.19882202148438" stroke-width="2" fill="none" stroke="rgb(0, 0, 0)" stroke-opacity="1.0" stroke-linecap="round" stroke-linejoin="round"/>
    <path d="M 84.06658172607422 125.56922149658203 C 121.71208953857422 135.90122985839844 47.52699279785156 105.66126251220703 120.53941345214844 143.10780334472656" stroke-width="2" fill="none" stroke="rgb(0, 0, 0)" stroke-opacity="1.0" stroke-linecap="round" stroke-linejoin="round"/>
    <path d="M 146.7572784423828 108.54441833496094 C 113.54647827148438 152.72146606445312 69.83485412597656 22.554779052734375 117.12167358398438 81.89517974853516" stroke-width="2" fill="none" stroke="rgb(0, 0, 0)" stroke-opacity="1.0" stroke-linecap="round" stroke-linejoin="round"/>
    <path d="M 164.70591735839844 99.94513702392578 C 128.57778930664062 83.01793670654297 173.0129852294922 142.73193359375 185.51161193847656 62.94799041748047" stroke-width="2" fill="none" stroke="rgb(0, 0, 0)" stroke-opacity="1.0" stroke-linecap="round" stroke-linejoin="round"/>
    <path d="M 64.14415740966797 121.88967895507812 C 65.42623138427734 101.69610595703125 -32.67833709716797 130.908935546875 77.76828002929688 108.3282699584961" stroke-width="2" fill="none" stroke="rgb(0, 0, 0)" stroke-opacity="1.0" stroke-linecap="round" stroke-linejoin="round"/>
  </g>
</svg>
