<?xml version="1.0" ?>
<svg xmlns="http://www.w3.org/2000/svg" version="1.1" width="224" height="224">
  <defs/>
  <g>
    <path d="M 40.37226104736328 121.28378295898438 C 82.407958984375 90.05184936523438 76.55311584472656 97.82920837402344 90.60261535644531 96.4820556640625" stroke-width="2" fill="none" stroke="rgb(0, 0, 0)" stroke-opacity="1.0" stroke-linecap="round" stroke-linejoin="round"/>
    <path d="M 37.92010498046875 141.22239685058594 C 124.69705200195312 174.5986328125 160.6331329345703 135.47088623046875 125.41513061523438 136.61875915527344" stroke-width="2" fill="none" stroke="rgb(0, 0, 0)" stroke-opacity="1.0" stroke-linecap="round" stroke-linejoin="round"/>
    <path d="M 154.19775390625 126.84934997558594 C 82.01295471191406 100.54057312011719 147.52874755859375 158.510986328125 101.1943130493164 88.0626220703125" stroke-width="2" fill="none" stroke="rgb(0, 0, 0)" stroke-opacity="1.0" stroke-linecap="round" stroke-linejoin="round"/>
    <path d="M 166.87551879882812 139.57681274414062 C 145.39892578125 109.08116149902344 190.4086151123047 134.54991149902344 144.9969482421875 127.28186798095703" stroke-width="2" fill="none" stroke="rgb(0, 0, 0)" stroke-opacity="1.0" stroke-linecap="round" stroke-linejoin="round"/>
    <path d="M 137.33401489257812 88.37359619140625 C 113.28858184814453 119.56535339355469 159.0401153564453 60.7037239074707 165.72825622558594 101.34123229980469" stroke-width="2" fill="none" stroke="rgb(0, 0, 0)" stroke-opacity="1.0" stroke-linecap="round" stroke-linejoin="round"/>
    <path d="M 169.38050842285156 86.72502899169922 C 90.13609313964844 87.57145690917969 140.94041442871094 94.18141174316406 143.08946228027344 87.7275619506836" stroke-width="2" fill="none" stroke="rgb(0, 0, 0)" stroke-opacity="1.0" stroke-linecap="round" stroke-linejoin="round"/>
    <path d="M 101.14094543457031 77.68565368652344 C 121.0643081665039 130.119140625 151.5032958984375 105.86725616455078 103.45317077636719 83.72434997558594" stroke-width="2" fill="none" stroke="rgb(0, 0, 0)" stroke-opacity="1.0" stroke-linecap="round" stroke-linejoin="round"/>
    <path d="M 103.05029296875 150.10438537597656 C 96.97223663330078 133.0192413330078 27.346935272216797 161.80064392089844 37.821075439453125 127.90380859375" stroke-width="2" fill="none" stroke="rgb(0, 0, 0)" stroke-opacity="1.0" stroke-linecap="round" stroke-linejoin="round"/>
    <path d="M 160.09475708007812 128.6506805419922 C 183.6016845703125 128.97613525390625 120.7200927734375 108.54773712158203 161.76522827148438 132.1549072265625" stroke-width="2" fill="none" stroke="rgb(0, 0, 0)" stroke-opacity="1.0" stroke-linecap="round" stroke-linejoin="round"/>
    <path d="M 147.7103729248047 113.19996643066406 C 174.43557739257812 114.95296478271484 128.89215087890625 109.26866149902344 156.2303009033203 110.40003967285156" stroke-width="2" fill="none" stroke="rgb(0, 0, 0)" stroke-opacity="1.0" stroke-linecap="round" stroke-linejoin="round"/>
    <path d="M 173.8971710205078 99.0872573852539 C 194.9915313720703 51.83859634399414 184.95147705078125 58.308807373046875 157.87429809570312 90.1373291015625" stroke-width="2" fill="none" stroke="rgb(0, 0, 0)" stroke-opacity="1.0" stroke-linecap="round" stroke-linejoin="round"/>
    <path d="M 175.0950164794922 147.50933837890625 C 142.88320922851562 159.92286682128906 185.77333068847656 92.28824615478516 154.4194793701172 134.02732849121094" stroke-width="2" fill="none" stroke="rgb(0, 0, 0)" stroke-opacity="1.0" stroke-linecap="round" stroke-linejoin="round"/>
    <path d="M 69.27667999267578 132.5357666015625 C 82.52717590332031 156.38389587402344 89.64978790283203 135.68629455566406 153.246826171875 152.2455291748047" stroke-width="2" fill="none" stroke="rgb(0, 0, 0)" stroke-opacity="1.0" stroke-linecap="round" stroke-linejoin="round"/>
    <path d="M 148.37310791015625 131.47628784179688 C 88.00515747070312 80.52178955078125 90.76542663574219 47.80104446411133 125.04991912841797 89.80337524414062" stroke-width="2" fill="none" stroke="rgb(0, 0, 0)" stroke-opacity="1.0" stroke-linecap="round" stroke-linejoin="round"/>
    <path d="M 167.3154296875 114.47451782226562 C 155.38211059570312 100.39191436767578 169.1570587158203 142.50682067871094 183.54354858398438 65.10164642333984" stroke-width="2" fill="none" stroke="rgb(0, 0, 0)" stroke-opacity="1.0" stroke-linecap="round" stroke-linejoin="round"/>
    <path d="M 80.85354614257812 112.04151916503906 C 51.717044830322266 97.12568664550781 8.567569732666016 135.7917938232422 72.47955322265625 100.44535064697266" stroke-width="2" fill="none" stroke="rgb(0, 0, 0)" stroke-opacity="1.0" stroke-linecap="round" stroke-linejoin="round"/>
  </g>
</svg>
