<?xml version="1.0" ?>
<svg xmlns="http://www.w3.org/2000/svg" version="1.1" width="224" height="224">
  <defs/>
  <g>
    <path d="M 40.31590270996094 113.665283203125 C 69.81185150146484 108.53607177734375 35.93899154663086 85.51337432861328 117.5174560546875 97.67436981201172" stroke-width="2" fill="none" stroke="rgb(0, 0, 0)" stroke-opacity="1.0" stroke-linecap="round" stroke-linejoin="round"/>
    <path d="M 115.42619323730469 117.40921020507812 C 206.29159545898438 144.7505340576172 168.6603240966797 148.2943572998047 172.8380584716797 140.05186462402344" stroke-width="2" fill="none" stroke="rgb(0, 0, 0)" stroke-opacity="1.0" stroke-linecap="round" stroke-linejoin="round"/>
    <path d="M 143.4932403564453 118.21642303466797 C 48.42749786376953 121.20592498779297 222.12416076660156 170.80740356445312 100.72167205810547 137.11289978027344" stroke-width="2" fill="none" stroke="rgb(0, 0, 0)" stroke-opacity="1.0" stroke-linecap="round" stroke-linejoin="round"/>
    <path d="M 151.74911499023438 100.6049575805664 C 192.68138122558594 118.05929565429688 141.411865234375 109.00886535644531 155.20004272460938 115.98370361328125" stroke-width="2" fill="none" stroke="rgb(0, 0, 0)" stroke-opacity="1.0" stroke-linecap="round" stroke-linejoin="round"/>
    <path d="M 121.62200927734375 91.98384094238281 C 107.48751831054688 105.9559326171875 91.9571304321289 30.3082275390625 99.39993286132812 97.36222839355469" stroke-width="2" fill="none" stroke="rgb(0, 0, 0)" stroke-opacity="1.0" stroke-linecap="round" stroke-linejoin="round"/>
    <path d="M 123.74456024169922 84.29033660888672 C 167.32333374023438 82.09496307373047 137.09852600097656 97.46759033203125 164.00485229492188 93.44576263427734" stroke-width="2" fill="none" stroke="rgb(0, 0, 0)" stroke-opacity="1.0" stroke-linecap="round" stroke-linejoin="round"/>
    <path d="M 137.47654724121094 111.13324737548828 C 101.2345199584961 121.57965850830078 162.2332305908203 95.5299301147461 134.01263427734375 103.0968246459961" stroke-width="2" fill="none" stroke="rgb(0, 0, 0)" stroke-opacity="1.0" stroke-linecap="round" stroke-linejoin="round"/>
    <path d="M 82.38770294189453 135.94558715820312 C 322.1437072753906 137.2366180419922 -17.95884895324707 193.06405639648438 51.450931549072266 111.3868637084961" stroke-width="2" fill="none" stroke="rgb(0, 0, 0)" stroke-opacity="1.0" stroke-linecap="round" stroke-linejoin="round"/>
    <path d="M 167.88282775878906 135.4252166748047 C 216.341552734375 160.89869689941406 33.266082763671875 80.53982543945312 146.54840087890625 115.09092712402344" stroke-width="2" fill="none" stroke="rgb(0, 0, 0)" stroke-opacity="1.0" stroke-linecap="round" stroke-linejoin="round"/>
    <path d="M 124.1410903930664 117.57185363769531 C 178.8146209716797 116.54043579101562 104.17362976074219 114.66184997558594 145.72152709960938 114.28728485107422" stroke-width="2" fill="none" stroke="rgb(0, 0, 0)" stroke-opacity="1.0" stroke-linecap="round" stroke-linejoin="round"/>
    <path d="M 166.94647216796875 90.01154327392578 C 229.71588134765625 18.854398727416992 108.4843521118164 127.32329559326172 171.7023468017578 71.65736389160156" stroke-width="2" fill="none" stroke="rgb(0, 0, 0)" stroke-opacity="1.0" stroke-linecap="round" stroke-linejoin="round"/>
    <path d="M 155.05841064453125 153.2018585205078 C 165.0851287841797 166.5597686767578 207.17576599121094 153.52772521972656 53.52753448486328 143.36846923828125" stroke-width="2" fill="none" stroke="rgb(0, 0, 0)" stroke-opacity="1.0" stroke-linecap="round" stroke-linejoin="round"/>
    <path d="M 127.54389190673828 122.76585388183594 C 189.7019500732422 114.02638244628906 99.61644744873047 139.4103240966797 148.52685546875 126.759765625" stroke-width="2" fill="none" stroke="rgb(0, 0, 0)" stroke-opacity="1.0" stroke-linecap="round" stroke-linejoin="round"/>
    <path d="M 102.70978546142578 115.26731872558594 C 154.65411376953125 160.68260192871094 47.200138092041016 18.759767532348633 126.09974670410156 85.0616683959961" stroke-width="2" fill="none" stroke="rgb(0, 0, 0)" stroke-opacity="1.0" stroke-linecap="round" stroke-linejoin="round"/>
    <path d="M 170.11431884765625 96.50550842285156 C 130.67417907714844 102.21345520019531 161.32537841796875 138.2296905517578 180.86917114257812 71.70979309082031" stroke-width="2" fill="none" stroke="rgb(0, 0, 0)" stroke-opacity="1.0" stroke-linecap="round" stroke-linejoin="round"/>
    <path d="M 53.456783294677734 142.86865234375 C 101.11157989501953 131.97756958007812 31.851381301879883 132.93807983398438 94.41914367675781 148.06298828125" stroke-width="2" fill="none" stroke="rgb(0, 0, 0)" stroke-opacity="1.0" stroke-linecap="round" stroke-linejoin="round"/>
  </g>
</svg>
