<?xml version="1.0" ?>
<svg xmlns="http://www.w3.org/2000/svg" version="1.1" width="224" height="224">
  <defs/>
  <g>
    <path d="M 40.639984130859375 117.49070739746094 C 67.47484588623047 118.41834259033203 35.22799301147461 82.79519653320312 113.2081069946289 100.92376708984375" stroke-width="2" fill="none" stroke="rgb(0, 0, 0)" stroke-opacity="1.0" stroke-linecap="round" stroke-linejoin="round"/>
    <path d="M 78.52488708496094 136.57504272460938 C 207.95884704589844 169.1103973388672 170.96754455566406 144.50015258789062 157.0649871826172 148.7093963623047" stroke-width="2" fill="none" stroke="rgb(0, 0, 0)" stroke-opacity="1.0" stroke-linecap="round" stroke-linejoin="round"/>
    <path d="M 135.68748474121094 104.58287811279297 C 112.27813720703125 101.66535949707031 162.45550537109375 128.5007781982422 122.49444580078125 116.06574249267578" stroke-width="2" fill="none" stroke="rgb(0, 0, 0)" stroke-opacity="1.0" stroke-linecap="round" stroke-linejoin="round"/>
    <path d="M 151.11424255371094 101.6819839477539 C 198.9695281982422 114.73843383789062 134.25466918945312 106.5920639038086 171.05372619628906 98.30952453613281" stroke-width="2" fill="none" stroke="rgb(0, 0, 0)" stroke-opacity="1.0" stroke-linecap="round" stroke-linejoin="round"/>
    <path d="M 127.77582550048828 85.80854034423828 C 129.77049255371094 102.5865707397461 63.40299606323242 30.130842208862305 115.9576644897461 96.08158111572266" stroke-width="2" fill="none" stroke="rgb(0, 0, 0)" stroke-opacity="1.0" stroke-linecap="round" stroke-linejoin="round"/>
    <path d="M 114.42635345458984 96.12161254882812 C 84.27285766601562 75.64385986328125 183.31517028808594 96.71640014648438 174.70330810546875 78.04835510253906" stroke-width="2" fill="none" stroke="rgb(0, 0, 0)" stroke-opacity="1.0" stroke-linecap="round" stroke-linejoin="round"/>
    <path d="M 135.23666381835938 120.17979431152344 C 87.78060913085938 94.10359954833984 175.5759735107422 141.65260314941406 116.06652069091797 106.66748809814453" stroke-width="2" fill="none" stroke="rgb(0, 0, 0)" stroke-opacity="1.0" stroke-linecap="round" stroke-linejoin="round"/>
    <path d="M 102.99121856689453 140.56466674804688 C 253.3042449951172 147.10675048828125 -42.523284912109375 177.53555297851562 54.63526916503906 103.84043884277344" stroke-width="2" fill="none" stroke="rgb(0, 0, 0)" stroke-opacity="1.0" stroke-linecap="round" stroke-linejoin="round"/>
    <path d="M 123.96090698242188 137.69032287597656 C 230.40362548828125 162.02459716796875 75.1336898803711 92.91390991210938 137.6074981689453 114.89703369140625" stroke-width="2" fill="none" stroke="rgb(0, 0, 0)" stroke-opacity="1.0" stroke-linecap="round" stroke-linejoin="round"/>
    <path d="M 155.9319305419922 128.0043182373047 C 176.50399780273438 105.03289794921875 136.89822387695312 159.1149139404297 143.35946655273438 107.6048355102539" stroke-width="2" fill="none" stroke="rgb(0, 0, 0)" stroke-opacity="1.0" stroke-linecap="round" stroke-linejoin="round"/>
    <path d="M 159.75521850585938 96.84998321533203 C 222.08441162109375 22.655445098876953 150.67147827148438 89.83805847167969 149.41380310058594 91.48681640625" stroke-width="2" fill="none" stroke="rgb(0, 0, 0)" stroke-opacity="1.0" stroke-linecap="round" stroke-linejoin="round"/>
    <path d="M 167.986572265625 148.7875518798828 C 118.38470458984375 157.2896270751953 187.8769073486328 160.05322265625 135.11990356445312 150.24803161621094" stroke-width="2" fill="none" stroke="rgb(0, 0, 0)" stroke-opacity="1.0" stroke-linecap="round" stroke-linejoin="round"/>
    <path d="M 94.79174041748047 108.74639892578125 C 139.75088500976562 160.04586791992188 78.49309539794922 108.05217742919922 129.91732788085938 110.084228515625" stroke-width="2" fill="none" stroke="rgb(0, 0, 0)" stroke-opacity="1.0" stroke-linecap="round" stroke-linejoin="round"/>
    <path d="M 143.36318969726562 111.0313491821289 C 101.68192291259766 151.73934936523438 87.23702239990234 28.783493041992188 108.92269897460938 96.40483856201172" stroke-width="2" fill="none" stroke="rgb(0, 0, 0)" stroke-opacity="1.0" stroke-linecap="round" stroke-linejoin="round"/>
    <path d="M 163.2996826171875 111.75182342529297 C 126.7811050415039 104.7654800415039 174.386474609375 137.30929565429688 184.74285888671875 64.27483367919922" stroke-width="2" fill="none" stroke="rgb(0, 0, 0)" stroke-opacity="1.0" stroke-linecap="round" stroke-linejoin="round"/>
    <path d="M 51.58189392089844 126.73844146728516 C 72.0050277709961 131.12173461914062 37.03822326660156 127.1585922241211 64.12928771972656 134.89773559570312" stroke-width="2" fill="none" stroke="rgb(0, 0, 0)" stroke-opacity="1.0" stroke-linecap="round" stroke-linejoin="round"/>
  </g>
</svg>
