<?xml version="1.0" ?>
<svg xmlns="http://www.w3.org/2000/svg" version="1.1" width="224" height="224">
  <defs/>
  <g>
    <path d="M 49.30794906616211 106.5461654663086 C 70.6031265258789 117.23776245117188 76.45230102539062 80.90221405029297 110.00503540039062 120.33721923828125" stroke-width="2" fill="none" stroke="rgb(0, 0, 0)" stroke-opacity="1.0" stroke-linecap="round" stroke-linejoin="round"/>
    <path d="M 133.752685546875 147.12005615234375 C 215.0222625732422 129.30027770996094 171.59384155273438 156.60000610351562 169.85630798339844 147.32872009277344" stroke-width="2" fill="none" stroke="rgb(0, 0, 0)" stroke-opacity="1.0" stroke-linecap="round" stroke-linejoin="round"/>
    <path d="M 139.94161987304688 105.76859283447266 C 32.36676788330078 117.3096694946289 317.5865173339844 159.5900115966797 93.33683776855469 131.78750610351562" stroke-width="2" fill="none" stroke="rgb(0, 0, 0)" stroke-opacity="1.0" stroke-linecap="round" stroke-linejoin="round"/>
    <path d="M 152.25709533691406 119.91352081298828 C 200.08554077148438 91.38430786132812 112.59772491455078 80.13447570800781 173.1586456298828 88.13469696044922" stroke-width="2" fill="none" stroke="rgb(0, 0, 0)" stroke-opacity="1.0" stroke-linecap="round" stroke-linejoin="round"/>
    <path d="M 127.8156509399414 88.58486938476562 C 115.87187957763672 102.42423248291016 85.25196838378906 35.179588317871094 100.74815368652344 99.79362487792969" stroke-width="2" fill="none" stroke="rgb(0, 0, 0)" stroke-opacity="1.0" stroke-linecap="round" stroke-linejoin="round"/>
    <path d="M 126.17475891113281 83.10125732421875 C 185.2764434814453 65.10380554199219 137.2501220703125 129.18080139160156 175.6464080810547 94.3636703491211" stroke-width="2" fill="none" stroke="rgb(0, 0, 0)" stroke-opacity="1.0" stroke-linecap="round" stroke-linejoin="round"/>
    <path d="M 136.02842712402344 93.32430267333984 C 117.05164337158203 101.25858306884766 165.305419921875 87.46060943603516 144.2809600830078 96.79570770263672" stroke-width="2" fill="none" stroke="rgb(0, 0, 0)" stroke-opacity="1.0" stroke-linecap="round" stroke-linejoin="round"/>
    <path d="M 148.4237060546875 144.42898559570312 C 264.9163513183594 119.1178207397461 -24.15834617614746 192.2964324951172 57.23440933227539 104.20994567871094" stroke-width="2" fill="none" stroke="rgb(0, 0, 0)" stroke-opacity="1.0" stroke-linecap="round" stroke-linejoin="round"/>
    <path d="M 124.00025177001953 110.83396911621094 C 199.1852264404297 121.56477355957031 63.743324279785156 97.96497344970703 118.33965301513672 100.78099060058594" stroke-width="2" fill="none" stroke="rgb(0, 0, 0)" stroke-opacity="1.0" stroke-linecap="round" stroke-linejoin="round"/>
    <path d="M 121.32122802734375 120.55426025390625 C 184.40382385253906 108.11455535888672 82.42923736572266 105.43273162841797 135.8129425048828 115.91349029541016" stroke-width="2" fill="none" stroke="rgb(0, 0, 0)" stroke-opacity="1.0" stroke-linecap="round" stroke-linejoin="round"/>
    <path d="M 157.92837524414062 83.14681243896484 C 234.93820190429688 14.888136863708496 118.61308288574219 141.6050567626953 183.5704803466797 66.11026763916016" stroke-width="2" fill="none" stroke="rgb(0, 0, 0)" stroke-opacity="1.0" stroke-linecap="round" stroke-linejoin="round"/>
    <path d="M 171.55136108398438 150.65615844726562 C 192.6539306640625 155.2696075439453 153.46224975585938 142.77700805664062 166.2003173828125 150.67539978027344" stroke-width="2" fill="none" stroke="rgb(0, 0, 0)" stroke-opacity="1.0" stroke-linecap="round" stroke-linejoin="round"/>
    <path d="M 146.6751251220703 134.2191925048828 C 186.647216796875 123.77400207519531 109.00054931640625 107.10737609863281 139.79910278320312 108.32682800292969" stroke-width="2" fill="none" stroke="rgb(0, 0, 0)" stroke-opacity="1.0" stroke-linecap="round" stroke-linejoin="round"/>
    <path d="M 113.75169372558594 102.74342346191406 C 185.5430145263672 174.1172332763672 49.44729232788086 24.00008201599121 117.6575698852539 87.72126007080078" stroke-width="2" fill="none" stroke="rgb(0, 0, 0)" stroke-opacity="1.0" stroke-linecap="round" stroke-linejoin="round"/>
    <path d="M 175.14151000976562 95.97718048095703 C 144.0494384765625 88.4707260131836 180.65408325195312 126.13728332519531 180.8003692626953 65.23641204833984" stroke-width="2" fill="none" stroke="rgb(0, 0, 0)" stroke-opacity="1.0" stroke-linecap="round" stroke-linejoin="round"/>
    <path d="M 141.84762573242188 151.8445587158203 C 177.611328125 164.1881561279297 29.245147705078125 131.61195373535156 75.30916595458984 136.2572479248047" stroke-width="2" fill="none" stroke="rgb(0, 0, 0)" stroke-opacity="1.0" stroke-linecap="round" stroke-linejoin="round"/>
  </g>
</svg>
