<?xml version="1.0" ?>
<svg xmlns="http://www.w3.org/2000/svg" version="1.1" width="224" height="224">
  <defs/>
  <g>
    <path d="M 110.10667419433594 113.8345718383789 C 85.21607971191406 109.98478698730469 124.92495727539062 86.23471069335938 102.67012023925781 116.00731658935547" stroke-width="2" fill="none" stroke="rgb(0, 0, 0)" stroke-opacity="1.0" stroke-linecap="round" stroke-linejoin="round"/>
    <path d="M 108.30219268798828 135.8916473388672 C 138.1384735107422 138.18524169921875 145.4149169921875 148.15167236328125 96.72962188720703 128.3302459716797" stroke-width="2" fill="none" stroke="rgb(0, 0, 0)" stroke-opacity="1.0" stroke-linecap="round" stroke-linejoin="round"/>
    <path d="M 150.3091583251953 136.71145629882812 C 105.97565460205078 139.7392578125 97.3492202758789 130.19766235351562 130.13050842285156 124.18177795410156" stroke-width="2" fill="none" stroke="rgb(0, 0, 0)" stroke-opacity="1.0" stroke-linecap="round" stroke-linejoin="round"/>
    <path d="M 155.84976196289062 113.2313003540039 C 125.85353088378906 112.21172332763672 169.1077880859375 126.71920776367188 161.3423309326172 103.43317413330078" stroke-width="2" fill="none" stroke="rgb(0, 0, 0)" stroke-opacity="1.0" stroke-linecap="round" stroke-linejoin="round"/>
    <path d="M 108.49510955810547 107.50768280029297 C 129.92518615722656 107.59491729736328 109.49714660644531 79.83972930908203 103.6043930053711 70.6966323852539" stroke-width="2" fill="none" stroke="rgb(0, 0, 0)" stroke-opacity="1.0" stroke-linecap="round" stroke-linejoin="round"/>
    <path d="M 101.95854949951172 68.11834716796875 C 97.86882781982422 82.65664672851562 84.95814514160156 109.04393005371094 108.83572387695312 110.39070892333984" stroke-width="2" fill="none" stroke="rgb(0, 0, 0)" stroke-opacity="1.0" stroke-linecap="round" stroke-linejoin="round"/>
    <path d="M 43.54775619506836 132.60897827148438 C 68.0440444946289 151.16943359375 79.26590728759766 158.22377014160156 133.58200073242188 148.85105895996094" stroke-width="2" fill="none" stroke="rgb(0, 0, 0)" stroke-opacity="1.0" stroke-linecap="round" stroke-linejoin="round"/>
    <path d="M 148.9021453857422 116.12362670898438 C 157.89698791503906 137.99862670898438 143.66258239746094 114.47293090820312 111.449462890625 116.07699584960938" stroke-width="2" fill="none" stroke="rgb(0, 0, 0)" stroke-opacity="1.0" stroke-linecap="round" stroke-linejoin="round"/>
    <path d="M 101.78199768066406 115.10234832763672 C 122.5093765258789 154.48321533203125 157.824951171875 108.57099914550781 127.2088623046875 122.96586608886719" stroke-width="2" fill="none" stroke="rgb(0, 0, 0)" stroke-opacity="1.0" stroke-linecap="round" stroke-linejoin="round"/>
    <path d="M 180.33741760253906 66.43585205078125 C 179.33236694335938 84.75611877441406 178.0525665283203 58.7911491394043 167.18246459960938 103.76000213623047" stroke-width="2" fill="none" stroke="rgb(0, 0, 0)" stroke-opacity="1.0" stroke-linecap="round" stroke-linejoin="round"/>
    <path d="M 158.1310272216797 127.56639099121094 C 183.72280883789062 118.53450775146484 185.4994659423828 158.3400115966797 136.37057495117188 148.88917541503906" stroke-width="2" fill="none" stroke="rgb(0, 0, 0)" stroke-opacity="1.0" stroke-linecap="round" stroke-linejoin="round"/>
    <path d="M 101.29322052001953 149.84141540527344 C 30.054683685302734 153.4365234375 22.68417739868164 126.44557189941406 52.831722259521484 152.022216796875" stroke-width="2" fill="none" stroke="rgb(0, 0, 0)" stroke-opacity="1.0" stroke-linecap="round" stroke-linejoin="round"/>
    <path d="M 139.10618591308594 104.03119659423828 C 120.13166809082031 104.09103393554688 107.32105255126953 100.69738006591797 109.23869323730469 84.51950073242188" stroke-width="2" fill="none" stroke="rgb(0, 0, 0)" stroke-opacity="1.0" stroke-linecap="round" stroke-linejoin="round"/>
    <path d="M 165.57115173339844 126.02680969238281 C 177.3723907470703 90.48754119873047 174.07345581054688 127.13858032226562 155.98785400390625 74.1930923461914" stroke-width="2" fill="none" stroke="rgb(0, 0, 0)" stroke-opacity="1.0" stroke-linecap="round" stroke-linejoin="round"/>
    <path d="M 95.36167907714844 104.39212799072266 C 64.80651092529297 103.60914611816406 83.06146240234375 109.77241516113281 51.960350036621094 112.21942138671875" stroke-width="2" fill="none" stroke="rgb(0, 0, 0)" stroke-opacity="1.0" stroke-linecap="round" stroke-linejoin="round"/>
    <path d="M 66.19083404541016 107.27257537841797 C 59.017547607421875 107.58519744873047 39.87238311767578 113.66240692138672 48.44814682006836 134.44297790527344" stroke-width="2" fill="none" stroke="rgb(0, 0, 0)" stroke-opacity="1.0" stroke-linecap="round" stroke-linejoin="round"/>
  </g>
</svg>
