<?xml version="1.0" ?>
<svg xmlns="http://www.w3.org/2000/svg" version="1.1" width="224" height="224">
  <defs/>
  <g>
    <path d="M 89.99986267089844 109.9954833984375 C 89.56182098388672 102.68704986572266 87.04312896728516 101.57817840576172 89.6905746459961 101.55961608886719" stroke-width="2" fill="none" stroke="rgb(0, 0, 0)" stroke-opacity="1.0" stroke-linecap="round" stroke-linejoin="round"/>
    <path d="M 113.00009155273438 148.000244140625 C 119.39222717285156 145.3733367919922 116.52020263671875 140.10707092285156 113.36679077148438 138.16749572753906" stroke-width="2" fill="none" stroke="rgb(0, 0, 0)" stroke-opacity="1.0" stroke-linecap="round" stroke-linejoin="round"/>
    <path d="M 128.9991912841797 130.0006561279297 C 121.69902038574219 128.62332153320312 123.37940216064453 127.13084411621094 120.24496459960938 128.13027954101562" stroke-width="2" fill="none" stroke="rgb(0, 0, 0)" stroke-opacity="1.0" stroke-linecap="round" stroke-linejoin="round"/>
    <path d="M 145.9998016357422 120.00006103515625 C 147.46737670898438 114.4740982055664 152.8898468017578 118.69004821777344 149.10194396972656 112.83464050292969" stroke-width="2" fill="none" stroke="rgb(0, 0, 0)" stroke-opacity="1.0" stroke-linecap="round" stroke-linejoin="round"/>
    <path d="M 119.00017547607422 93.00012969970703 C 126.1203842163086 91.1711654663086 121.55925750732422 88.65164184570312 123.45315551757812 89.81463623046875" stroke-width="2" fill="none" stroke="rgb(0, 0, 0)" stroke-opacity="1.0" stroke-linecap="round" stroke-linejoin="round"/>
    <path d="M 109.00218200683594 83.00260925292969 C 112.4399642944336 87.57244110107422 112.84569549560547 90.87579345703125 111.48526000976562 93.45463562011719" stroke-width="2" fill="none" stroke="rgb(0, 0, 0)" stroke-opacity="1.0" stroke-linecap="round" stroke-linejoin="round"/>
    <path d="M 70.99974822998047 142.00010681152344 C 72.69088745117188 145.32521057128906 76.74181365966797 144.1948699951172 81.03150939941406 139.10726928710938" stroke-width="2" fill="none" stroke="rgb(0, 0, 0)" stroke-opacity="1.0" stroke-linecap="round" stroke-linejoin="round"/>
    <path d="M 147.0001983642578 121.99986267089844 C 143.9525909423828 119.64106750488281 139.24624633789062 116.64833068847656 134.77752685546875 114.14838409423828" stroke-width="2" fill="none" stroke="rgb(0, 0, 0)" stroke-opacity="1.0" stroke-linecap="round" stroke-linejoin="round"/>
    <path d="M 118.99983978271484 128.00010681152344 C 120.51948547363281 126.48886108398438 119.06539154052734 125.23107147216797 114.45638275146484 128.13035583496094" stroke-width="2" fill="none" stroke="rgb(0, 0, 0)" stroke-opacity="1.0" stroke-linecap="round" stroke-linejoin="round"/>
    <path d="M 176.99966430664062 75.99958801269531 C 176.6595916748047 75.22282409667969 172.97572326660156 77.78907012939453 169.20555114746094 78.43563842773438" stroke-width="2" fill="none" stroke="rgb(0, 0, 0)" stroke-opacity="1.0" stroke-linecap="round" stroke-linejoin="round"/>
    <path d="M 170.99993896484375 149.0000762939453 C 174.4830322265625 152.5677032470703 177.11248779296875 154.63473510742188 178.96058654785156 157.72682189941406" stroke-width="2" fill="none" stroke="rgb(0, 0, 0)" stroke-opacity="1.0" stroke-linecap="round" stroke-linejoin="round"/>
    <path d="M 68.00010681152344 140.9994354248047 C 64.96585845947266 133.7602081298828 62.89904022216797 131.15841674804688 61.66136932373047 138.11871337890625" stroke-width="2" fill="none" stroke="rgb(0, 0, 0)" stroke-opacity="1.0" stroke-linecap="round" stroke-linejoin="round"/>
    <path d="M 113.99979400634766 98.99862670898438 C 118.21478271484375 96.92411804199219 119.95331573486328 93.75685119628906 122.59927368164062 93.29487609863281" stroke-width="2" fill="none" stroke="rgb(0, 0, 0)" stroke-opacity="1.0" stroke-linecap="round" stroke-linejoin="round"/>
    <path d="M 174.0002899169922 95.99992370605469 C 171.3679656982422 93.15933990478516 172.05438232421875 90.5037612915039 175.00091552734375 92.9608383178711" stroke-width="2" fill="none" stroke="rgb(0, 0, 0)" stroke-opacity="1.0" stroke-linecap="round" stroke-linejoin="round"/>
    <path d="M 79.00066375732422 95.00008392333984 C 79.87288665771484 93.85591125488281 85.44432067871094 91.97052001953125 80.86376953125 86.89091491699219" stroke-width="2" fill="none" stroke="rgb(0, 0, 0)" stroke-opacity="1.0" stroke-linecap="round" stroke-linejoin="round"/>
    <path d="M 52.00010299682617 104.00016021728516 C 47.63400650024414 105.42756652832031 52.896663665771484 104.55734252929688 46.0110969543457 105.22965240478516" stroke-width="2" fill="none" stroke="rgb(0, 0, 0)" stroke-opacity="1.0" stroke-linecap="round" stroke-linejoin="round"/>
  </g>
</svg>
