<?xml version="1.0" ?>
<svg xmlns="http://www.w3.org/2000/svg" version="1.1" width="224" height="224">
  <defs/>
  <g>
    <path d="M 91.12700653076172 106.06837463378906 C 79.97394561767578 104.01142120361328 87.85240936279297 105.63197326660156 87.0474853515625 104.3001708984375" stroke-width="2" fill="none" stroke="rgb(0, 0, 0)" stroke-opacity="1.0" stroke-linecap="round" stroke-linejoin="round"/>
    <path d="M 101.33287048339844 139.4855499267578 C 119.46505737304688 139.78082275390625 116.9850082397461 134.40284729003906 96.22837829589844 137.0603790283203" stroke-width="2" fill="none" stroke="rgb(0, 0, 0)" stroke-opacity="1.0" stroke-linecap="round" stroke-linejoin="round"/>
    <path d="M 133.4928436279297 127.26203155517578 C 115.69718170166016 136.84483337402344 119.36116790771484 132.42764282226562 112.37028503417969 127.00716400146484" stroke-width="2" fill="none" stroke="rgb(0, 0, 0)" stroke-opacity="1.0" stroke-linecap="round" stroke-linejoin="round"/>
    <path d="M 144.58193969726562 117.07514190673828 C 152.80068969726562 116.22599792480469 155.26275634765625 124.3942642211914 137.76034545898438 113.86996459960938" stroke-width="2" fill="none" stroke="rgb(0, 0, 0)" stroke-opacity="1.0" stroke-linecap="round" stroke-linejoin="round"/>
    <path d="M 117.08929443359375 98.44095611572266 C 122.5365219116211 78.12342834472656 121.63394165039062 80.40148162841797 122.53224182128906 85.9156494140625" stroke-width="2" fill="none" stroke="rgb(0, 0, 0)" stroke-opacity="1.0" stroke-linecap="round" stroke-linejoin="round"/>
    <path d="M 113.63096618652344 71.60525512695312 C 107.88505554199219 89.96430206298828 105.11967468261719 98.76714324951172 106.15694427490234 104.01911926269531" stroke-width="2" fill="none" stroke="rgb(0, 0, 0)" stroke-opacity="1.0" stroke-linecap="round" stroke-linejoin="round"/>
    <path d="M 61.31787109375 139.53904724121094 C 78.07150268554688 139.9159698486328 81.95813751220703 146.11415100097656 98.4319076538086 137.2946014404297" stroke-width="2" fill="none" stroke="rgb(0, 0, 0)" stroke-opacity="1.0" stroke-linecap="round" stroke-linejoin="round"/>
    <path d="M 148.9355010986328 118.2153091430664 C 142.39649963378906 122.72503662109375 139.36026000976562 117.96247863769531 138.4669952392578 112.26170349121094" stroke-width="2" fill="none" stroke="rgb(0, 0, 0)" stroke-opacity="1.0" stroke-linecap="round" stroke-linejoin="round"/>
    <path d="M 113.5283432006836 127.83769989013672 C 131.60528564453125 130.97048950195312 134.3435516357422 128.61627197265625 118.37852478027344 124.25690460205078" stroke-width="2" fill="none" stroke="rgb(0, 0, 0)" stroke-opacity="1.0" stroke-linecap="round" stroke-linejoin="round"/>
    <path d="M 170.0801239013672 63.35220718383789 C 178.1397705078125 73.59602355957031 175.8008270263672 81.4590835571289 177.46823120117188 95.71308898925781" stroke-width="2" fill="none" stroke="rgb(0, 0, 0)" stroke-opacity="1.0" stroke-linecap="round" stroke-linejoin="round"/>
    <path d="M 180.3540496826172 128.4851531982422 C 189.72628784179688 144.64288330078125 191.1781005859375 165.32484436035156 173.614990234375 165.81500244140625" stroke-width="2" fill="none" stroke="rgb(0, 0, 0)" stroke-opacity="1.0" stroke-linecap="round" stroke-linejoin="round"/>
    <path d="M 72.77134704589844 148.27003479003906 C 54.77735137939453 132.2565460205078 39.29473114013672 138.2123260498047 64.13272857666016 148.80494689941406" stroke-width="2" fill="none" stroke="rgb(0, 0, 0)" stroke-opacity="1.0" stroke-linecap="round" stroke-linejoin="round"/>
    <path d="M 112.25518798828125 108.76041412353516 C 116.62252044677734 96.33946228027344 123.40818786621094 94.0787582397461 120.90946960449219 86.70682525634766" stroke-width="2" fill="none" stroke="rgb(0, 0, 0)" stroke-opacity="1.0" stroke-linecap="round" stroke-linejoin="round"/>
    <path d="M 175.0704803466797 107.5181655883789 C 175.68821716308594 98.31783294677734 170.93702697753906 95.3717041015625 165.51795959472656 84.61569213867188" stroke-width="2" fill="none" stroke="rgb(0, 0, 0)" stroke-opacity="1.0" stroke-linecap="round" stroke-linejoin="round"/>
    <path d="M 73.973388671875 87.7959213256836 C 79.3125228881836 99.3351821899414 76.50945281982422 93.46597290039062 75.23785400390625 93.07368469238281" stroke-width="2" fill="none" stroke="rgb(0, 0, 0)" stroke-opacity="1.0" stroke-linecap="round" stroke-linejoin="round"/>
    <path d="M 48.92621994018555 95.50556182861328 C 47.087223052978516 104.42489624023438 34.63104248046875 106.88063049316406 34.32361602783203 125.02387237548828" stroke-width="2" fill="none" stroke="rgb(0, 0, 0)" stroke-opacity="1.0" stroke-linecap="round" stroke-linejoin="round"/>
  </g>
</svg>
