<?xml version="1.0" ?>
<svg xmlns="http://www.w3.org/2000/svg" version="1.1" width="224" height="224">
  <defs/>
  <g>
    <path d="M 130.9797821044922 116.30158233642578 C 87.70647430419922 123.9223403930664 134.5597381591797 102.82450866699219 105.54720306396484 128.8695831298828" stroke-width="2" fill="none" stroke="rgb(0, 0, 0)" stroke-opacity="1.0" stroke-linecap="round" stroke-linejoin="round"/>
    <path d="M 120.08734130859375 140.67095947265625 C 151.3159942626953 156.09210205078125 175.5731964111328 145.85292053222656 88.73986053466797 131.5236053466797" stroke-width="2" fill="none" stroke="rgb(0, 0, 0)" stroke-opacity="1.0" stroke-linecap="round" stroke-linejoin="round"/>
    <path d="M 159.8641357421875 128.36647033691406 C 132.7046356201172 126.78501892089844 129.89378356933594 129.39596557617188 144.19644165039062 121.59527587890625" stroke-width="2" fill="none" stroke="rgb(0, 0, 0)" stroke-opacity="1.0" stroke-linecap="round" stroke-linejoin="round"/>
    <path d="M 142.6316680908203 125.52755737304688 C 109.87379455566406 117.67485809326172 196.85548400878906 132.89971923828125 148.08619689941406 99.91454315185547" stroke-width="2" fill="none" stroke="rgb(0, 0, 0)" stroke-opacity="1.0" stroke-linecap="round" stroke-linejoin="round"/>
    <path d="M 118.27944946289062 100.75669860839844 C 140.63742065429688 108.15608215332031 109.19534301757812 63.68797302246094 98.75009155273438 72.46156311035156" stroke-width="2" fill="none" stroke="rgb(0, 0, 0)" stroke-opacity="1.0" stroke-linecap="round" stroke-linejoin="round"/>
    <path d="M 104.60852813720703 75.5228042602539 C 104.7686767578125 101.99488830566406 78.40634155273438 98.2187271118164 115.21263885498047 122.03853607177734" stroke-width="2" fill="none" stroke="rgb(0, 0, 0)" stroke-opacity="1.0" stroke-linecap="round" stroke-linejoin="round"/>
    <path d="M 48.538021087646484 132.218994140625 C 66.9165267944336 129.23329162597656 92.58281707763672 152.57383728027344 155.82569885253906 142.26605224609375" stroke-width="2" fill="none" stroke="rgb(0, 0, 0)" stroke-opacity="1.0" stroke-linecap="round" stroke-linejoin="round"/>
    <path d="M 150.180419921875 116.9311752319336 C 184.2671356201172 138.445556640625 128.61000061035156 145.62120056152344 114.24352264404297 125.65406799316406" stroke-width="2" fill="none" stroke="rgb(0, 0, 0)" stroke-opacity="1.0" stroke-linecap="round" stroke-linejoin="round"/>
    <path d="M 104.51390075683594 109.53624725341797 C 115.98046112060547 154.4493408203125 146.69766235351562 104.54045867919922 142.0525360107422 123.4437484741211" stroke-width="2" fill="none" stroke="rgb(0, 0, 0)" stroke-opacity="1.0" stroke-linecap="round" stroke-linejoin="round"/>
    <path d="M 182.86947631835938 64.58463287353516 C 175.02159118652344 77.6186294555664 177.2498321533203 65.97483825683594 154.09791564941406 92.4959487915039" stroke-width="2" fill="none" stroke="rgb(0, 0, 0)" stroke-opacity="1.0" stroke-linecap="round" stroke-linejoin="round"/>
    <path d="M 156.7894744873047 148.4578857421875 C 178.6466827392578 130.16807556152344 198.01231384277344 158.44947814941406 128.08831787109375 158.77574157714844" stroke-width="2" fill="none" stroke="rgb(0, 0, 0)" stroke-opacity="1.0" stroke-linecap="round" stroke-linejoin="round"/>
    <path d="M 113.30384826660156 156.98431396484375 C 15.32934856414795 153.6530303955078 35.79459762573242 121.25126647949219 51.40348434448242 148.98350524902344" stroke-width="2" fill="none" stroke="rgb(0, 0, 0)" stroke-opacity="1.0" stroke-linecap="round" stroke-linejoin="round"/>
    <path d="M 156.54534912109375 89.43157958984375 C 119.92996215820312 91.0179214477539 126.74653625488281 87.41988372802734 118.42906188964844 68.50460052490234" stroke-width="2" fill="none" stroke="rgb(0, 0, 0)" stroke-opacity="1.0" stroke-linecap="round" stroke-linejoin="round"/>
    <path d="M 156.98382568359375 126.93708038330078 C 150.837646484375 91.62915802001953 164.69297790527344 140.71034240722656 175.12945556640625 73.1492919921875" stroke-width="2" fill="none" stroke="rgb(0, 0, 0)" stroke-opacity="1.0" stroke-linecap="round" stroke-linejoin="round"/>
    <path d="M 99.65026092529297 105.54317474365234 C 78.89234924316406 105.85938262939453 70.85591888427734 92.84032440185547 48.81997299194336 120.13469696044922" stroke-width="2" fill="none" stroke="rgb(0, 0, 0)" stroke-opacity="1.0" stroke-linecap="round" stroke-linejoin="round"/>
    <path d="M 71.4007339477539 120.978515625 C 64.71875762939453 100.54934692382812 34.80792236328125 120.37272644042969 44.75297546386719 144.96185302734375" stroke-width="2" fill="none" stroke="rgb(0, 0, 0)" stroke-opacity="1.0" stroke-linecap="round" stroke-linejoin="round"/>
  </g>
</svg>
