<?xml version="1.0" ?>
<svg xmlns="http://www.w3.org/2000/svg" version="1.1" width="224" height="224">
  <defs/>
  <g>
    <path d="M 155.48193359375 82.68417358398438 C 123.60233306884766 92.93643188476562 117.72235107421875 85.86787414550781 128.7350616455078 93.19348907470703" stroke-width="3.0" fill="none" stroke="rgb(0, 0, 0)" stroke-opacity="1.0" stroke-linecap="round" stroke-linejoin="round"/>
    <path d="M 116.16108703613281 116.81527709960938 C 199.60325622558594 125.95996856689453 202.71070861816406 134.2107391357422 160.12632751464844 114.88214874267578" stroke-width="3.0" fill="none" stroke="rgb(0, 0, 0)" stroke-opacity="1.0" stroke-linecap="round" stroke-linejoin="round"/>
    <path d="M 139.97621154785156 99.85487365722656 C 146.30030822753906 104.11666870117188 139.70338439941406 107.9229736328125 133.22193908691406 107.03652954101562" stroke-width="3.0" fill="none" stroke="rgb(0, 0, 0)" stroke-opacity="1.0" stroke-linecap="round" stroke-linejoin="round"/>
    <path d="M 137.54071044921875 109.52716827392578 C 134.09701538085938 88.41971588134766 180.16146850585938 106.81880950927734 151.06292724609375 91.62899017333984" stroke-width="3.0" fill="none" stroke="rgb(0, 0, 0)" stroke-opacity="1.0" stroke-linecap="round" stroke-linejoin="round"/>
    <path d="M 107.152099609375 80.90804290771484 C 140.6173553466797 82.53506469726562 125.92874908447266 76.6905288696289 122.96125030517578 83.8644027709961" stroke-width="3.0" fill="none" stroke="rgb(0, 0, 0)" stroke-opacity="1.0" stroke-linecap="round" stroke-linejoin="round"/>
    <path d="M 108.0518569946289 76.99612426757812 C 139.11123657226562 80.9432601928711 123.90457153320312 68.42071533203125 117.92288970947266 74.9487075805664" stroke-width="3.0" fill="none" stroke="rgb(0, 0, 0)" stroke-opacity="1.0" stroke-linecap="round" stroke-linejoin="round"/>
    <path d="M 159.65362548828125 115.16163635253906 C 155.32130432128906 120.49047088623047 201.93441772460938 130.99111938476562 160.5576629638672 111.46885681152344" stroke-width="3.0" fill="none" stroke="rgb(0, 0, 0)" stroke-opacity="1.0" stroke-linecap="round" stroke-linejoin="round"/>
    <path d="M 160.9739227294922 91.56153869628906 C 146.52438354492188 117.34638977050781 135.11927795410156 102.3274917602539 153.83860778808594 83.32649993896484" stroke-width="3.0" fill="none" stroke="rgb(0, 0, 0)" stroke-opacity="1.0" stroke-linecap="round" stroke-linejoin="round"/>
    <path d="M 157.0015411376953 123.30426788330078 C 142.8614501953125 107.22142791748047 152.14154052734375 96.0569076538086 167.0844268798828 100.92530822753906" stroke-width="3.0" fill="none" stroke="rgb(0, 0, 0)" stroke-opacity="1.0" stroke-linecap="round" stroke-linejoin="round"/>
    <path d="M 127.72325134277344 66.29452514648438 C 106.22891235351562 64.81369018554688 136.44302368164062 66.71273803710938 91.81776428222656 77.44271087646484" stroke-width="3.0" fill="none" stroke="rgb(0, 0, 0)" stroke-opacity="1.0" stroke-linecap="round" stroke-linejoin="round"/>
    <path d="M 145.00706481933594 134.93406677246094 C 176.4506378173828 130.76504516601562 139.6935577392578 118.43721771240234 193.3765411376953 132.80824279785156" stroke-width="3.0" fill="none" stroke="rgb(0, 0, 0)" stroke-opacity="1.0" stroke-linecap="round" stroke-linejoin="round"/>
    <path d="M 191.39390563964844 125.3861312866211 C 173.67066955566406 91.60028839111328 186.880615234375 89.09294891357422 180.97927856445312 124.7425765991211" stroke-width="3.0" fill="none" stroke="rgb(0, 0, 0)" stroke-opacity="1.0" stroke-linecap="round" stroke-linejoin="round"/>
    <path d="M 132.01666259765625 82.2474136352539 C 126.21212768554688 92.12353515625 146.7822723388672 70.88399505615234 163.0850372314453 81.1131591796875" stroke-width="3.0" fill="none" stroke="rgb(0, 0, 0)" stroke-opacity="1.0" stroke-linecap="round" stroke-linejoin="round"/>
    <path d="M 124.99168395996094 87.50867462158203 C 114.16880798339844 81.04878234863281 121.95186614990234 63.031551361083984 114.98519897460938 77.04513549804688" stroke-width="3.0" fill="none" stroke="rgb(0, 0, 0)" stroke-opacity="1.0" stroke-linecap="round" stroke-linejoin="round"/>
    <path d="M 111.48377227783203 73.88021087646484 C 134.72747802734375 87.2396240234375 146.033935546875 101.41291046142578 129.86929321289062 68.72223663330078" stroke-width="3.0" fill="none" stroke="rgb(0, 0, 0)" stroke-opacity="1.0" stroke-linecap="round" stroke-linejoin="round"/>
    <path d="M 183.06979370117188 106.02432250976562 C 170.7022247314453 62.13579559326172 122.40140533447266 88.77422332763672 151.39881896972656 89.64434814453125" stroke-width="3.0" fill="none" stroke="rgb(0, 0, 0)" stroke-opacity="1.0" stroke-linecap="round" stroke-linejoin="round"/>
    <path d="M 87.10587310791016 97.76153564453125 C 89.94985961914062 84.93830871582031 116.7923355102539 101.24984741210938 98.75382232666016 89.26203155517578" stroke-width="3.0" fill="none" stroke="rgb(0, 0, 0)" stroke-opacity="1.0" stroke-linecap="round" stroke-linejoin="round"/>
    <path d="M 70.63047790527344 84.6800765991211 C 92.62606811523438 89.1634521484375 88.48152923583984 86.47016143798828 68.91812896728516 94.75340270996094" stroke-width="3.0" fill="none" stroke="rgb(0, 0, 0)" stroke-opacity="1.0" stroke-linecap="round" stroke-linejoin="round"/>
    <path d="M 85.28734588623047 90.10026550292969 C 118.32186889648438 75.04249572753906 123.81478118896484 80.44864654541016 98.7109375 80.6909408569336" stroke-width="3.0" fill="none" stroke="rgb(0, 0, 0)" stroke-opacity="1.0" stroke-linecap="round" stroke-linejoin="round"/>
    <path d="M 99.7505874633789 87.78353118896484 C 146.54678344726562 126.69220733642578 93.80066680908203 120.8481674194336 114.33504486083984 112.70693969726562" stroke-width="3.0" fill="none" stroke="rgb(0, 0, 0)" stroke-opacity="1.0" stroke-linecap="round" stroke-linejoin="round"/>
    <path d="M 77.01534271240234 83.09523010253906 C 76.87129211425781 91.56303405761719 79.08454895019531 80.01815795898438 64.65890502929688 79.84854125976562" stroke-width="3.0" fill="none" stroke="rgb(0, 0, 0)" stroke-opacity="1.0" stroke-linecap="round" stroke-linejoin="round"/>
    <path d="M 111.41525268554688 86.74666595458984 C 86.25995635986328 83.95046997070312 108.6880111694336 94.21574401855469 100.78339385986328 95.55104064941406" stroke-width="3.0" fill="none" stroke="rgb(0, 0, 0)" stroke-opacity="1.0" stroke-linecap="round" stroke-linejoin="round"/>
    <path d="M 89.26714324951172 92.13136291503906 C 94.14543151855469 80.78865051269531 94.31645965576172 83.43016815185547 73.8942642211914 103.1240234375" stroke-width="3.0" fill="none" stroke="rgb(0, 0, 0)" stroke-opacity="1.0" stroke-linecap="round" stroke-linejoin="round"/>
    <path d="M 82.8625259399414 86.79159545898438 C 80.5600814819336 76.73927307128906 100.86015319824219 95.06861877441406 101.76982879638672 97.06153869628906" stroke-width="3.0" fill="none" stroke="rgb(0, 0, 0)" stroke-opacity="1.0" stroke-linecap="round" stroke-linejoin="round"/>
    <path d="M 147.10067749023438 104.90386962890625 C 156.7176055908203 86.30349731445312 152.39437866210938 94.62132263183594 144.63931274414062 103.04925537109375" stroke-width="3.0" fill="none" stroke="rgb(0, 0, 0)" stroke-opacity="1.0" stroke-linecap="round" stroke-linejoin="round"/>
    <path d="M 87.13814544677734 81.87731170654297 C 87.48523712158203 82.79908752441406 93.37118530273438 77.65510559082031 88.20880126953125 81.75454711914062" stroke-width="3.0" fill="none" stroke="rgb(0, 0, 0)" stroke-opacity="1.0" stroke-linecap="round" stroke-linejoin="round"/>
    <path d="M 151.10658264160156 108.79878234863281 C 161.25704956054688 101.87122344970703 147.77821350097656 97.4214096069336 136.37205505371094 81.66952514648438" stroke-width="3.0" fill="none" stroke="rgb(0, 0, 0)" stroke-opacity="1.0" stroke-linecap="round" stroke-linejoin="round"/>
    <path d="M 120.61869812011719 112.603759765625 C 102.73511505126953 98.0987777709961 105.6341781616211 98.87953186035156 92.35616302490234 93.49203491210938" stroke-width="3.0" fill="none" stroke="rgb(0, 0, 0)" stroke-opacity="1.0" stroke-linecap="round" stroke-linejoin="round"/>
    <path d="M 126.13050842285156 78.31585693359375 C 114.90550231933594 62.21072769165039 121.61961364746094 72.70584869384766 128.85581970214844 68.33914184570312" stroke-width="3.0" fill="none" stroke="rgb(0, 0, 0)" stroke-opacity="1.0" stroke-linecap="round" stroke-linejoin="round"/>
    <path d="M 91.17198944091797 80.45230102539062 C 114.79212951660156 83.04650115966797 99.492431640625 83.65010070800781 92.72400665283203 91.51414489746094" stroke-width="3.0" fill="none" stroke="rgb(0, 0, 0)" stroke-opacity="1.0" stroke-linecap="round" stroke-linejoin="round"/>
    <path d="M 68.6474380493164 66.10233306884766 C 98.4776382446289 85.2851333618164 88.66468048095703 85.9850082397461 74.38894653320312 75.45574188232422" stroke-width="3.0" fill="none" stroke="rgb(0, 0, 0)" stroke-opacity="1.0" stroke-linecap="round" stroke-linejoin="round"/>
    <path d="M 102.81241607666016 79.04015350341797 C 124.87035369873047 73.43536376953125 125.34601593017578 73.4921875 112.65229034423828 78.6507568359375" stroke-width="3.0" fill="none" stroke="rgb(0, 0, 0)" stroke-opacity="1.0" stroke-linecap="round" stroke-linejoin="round"/>
  </g>
</svg>
