<?xml version="1.0" ?>
<svg xmlns="http://www.w3.org/2000/svg" version="1.1" width="224" height="224">
  <defs/>
  <g>
    <path d="M 121.99984741210938 86.00025177001953 C 121.56365966796875 82.67562866210938 119.04368591308594 79.56138610839844 123.69025421142578 81.55895233154297" stroke-width="3.0" fill="none" stroke="rgb(0, 0, 0)" stroke-opacity="1.0" stroke-linecap="round" stroke-linejoin="round"/>
    <path d="M 170.002685546875 123.00249481201172 C 176.39218139648438 120.37310028076172 175.5173797607422 115.1032943725586 170.3668975830078 113.16764831542969" stroke-width="3.0" fill="none" stroke="rgb(0, 0, 0)" stroke-opacity="1.0" stroke-linecap="round" stroke-linejoin="round"/>
    <path d="M 135.00401306152344 105.0406494140625 C 129.69810485839844 103.62621307373047 131.37814331054688 104.11070251464844 130.24452209472656 103.1303939819336" stroke-width="3.0" fill="none" stroke="rgb(0, 0, 0)" stroke-opacity="1.0" stroke-linecap="round" stroke-linejoin="round"/>
    <path d="M 144.99948120117188 97.99978637695312 C 148.46466064453125 92.47217559814453 151.88839721679688 94.6907958984375 148.10205078125 88.83411407470703" stroke-width="3.0" fill="none" stroke="rgb(0, 0, 0)" stroke-opacity="1.0" stroke-linecap="round" stroke-linejoin="round"/>
    <path d="M 114.0005874633789 79.99742126464844 C 121.06964111328125 78.14718627929688 115.91157531738281 73.20832824707031 120.45098876953125 74.8138427734375" stroke-width="3.0" fill="none" stroke="rgb(0, 0, 0)" stroke-opacity="1.0" stroke-linecap="round" stroke-linejoin="round"/>
    <path d="M 115.00301361083984 74.99815368652344 C 120.43919372558594 75.57588958740234 120.8448486328125 80.87451171875 119.48497009277344 83.45405578613281" stroke-width="3.0" fill="none" stroke="rgb(0, 0, 0)" stroke-opacity="1.0" stroke-linecap="round" stroke-linejoin="round"/>
    <path d="M 165.00469970703125 116.99948120117188 C 170.67800903320312 118.32687377929688 172.74319458007812 119.19295501708984 175.0318145751953 112.10711669921875" stroke-width="3.0" fill="none" stroke="rgb(0, 0, 0)" stroke-opacity="1.0" stroke-linecap="round" stroke-linejoin="round"/>
    <path d="M 154.99984741210938 96.00028991699219 C 149.95327758789062 95.64061737060547 145.2473907470703 92.64756774902344 140.77757263183594 88.16197967529297" stroke-width="3.0" fill="none" stroke="rgb(0, 0, 0)" stroke-opacity="1.0" stroke-linecap="round" stroke-linejoin="round"/>
    <path d="M 166.00418090820312 103.00025939941406 C 167.5205078125 103.48343658447266 166.0691375732422 100.23082733154297 165.4553680419922 103.12355041503906" stroke-width="3.0" fill="none" stroke="rgb(0, 0, 0)" stroke-opacity="1.0" stroke-linecap="round" stroke-linejoin="round"/>
    <path d="M 117.99874114990234 69.00144958496094 C 117.65983581542969 70.22283935546875 113.9756851196289 72.78894805908203 110.20543670654297 73.43826293945312" stroke-width="3.0" fill="none" stroke="rgb(0, 0, 0)" stroke-opacity="1.0" stroke-linecap="round" stroke-linejoin="round"/>
    <path d="M 165.00039672851562 127.99983978271484 C 172.48204040527344 127.56853485107422 173.1201629638672 129.635986328125 176.9603271484375 132.72698974609375" stroke-width="3.0" fill="none" stroke="rgb(0, 0, 0)" stroke-opacity="1.0" stroke-linecap="round" stroke-linejoin="round"/>
    <path d="M 182.99966430664062 113.99986267089844 C 179.96450805664062 106.76032257080078 177.89776611328125 104.16415405273438 174.6613311767578 111.11803436279297" stroke-width="3.0" fill="none" stroke="rgb(0, 0, 0)" stroke-opacity="1.0" stroke-linecap="round" stroke-linejoin="round"/>
    <path d="M 133.00030517578125 81.99974060058594 C 139.21481323242188 79.9241714477539 140.95545959472656 78.7552490234375 145.59901428222656 78.2944107055664" stroke-width="3.0" fill="none" stroke="rgb(0, 0, 0)" stroke-opacity="1.0" stroke-linecap="round" stroke-linejoin="round"/>
    <path d="M 117.00040435791016 80.99925231933594 C 114.36942291259766 78.15702056884766 115.06077575683594 73.69232940673828 116.00311279296875 79.95933532714844" stroke-width="3.0" fill="none" stroke="rgb(0, 0, 0)" stroke-opacity="1.0" stroke-linecap="round" stroke-linejoin="round"/>
    <path d="M 121.00021362304688 79.0005111694336 C 119.8735580444336 75.85694885253906 125.44632720947266 75.97086334228516 122.86223602294922 72.88955688476562" stroke-width="3.0" fill="none" stroke="rgb(0, 0, 0)" stroke-opacity="1.0" stroke-linecap="round" stroke-linejoin="round"/>
    <path d="M 152.00074768066406 83.00009155273438 C 149.62217712402344 84.42875671386719 152.89859008789062 83.5560073852539 148.01072692871094 82.22991943359375" stroke-width="3.0" fill="none" stroke="rgb(0, 0, 0)" stroke-opacity="1.0" stroke-linecap="round" stroke-linejoin="round"/>
    <path d="M 95.0007095336914 94.99976348876953 C 100.55755615234375 95.32504272460938 105.83386993408203 99.3659896850586 100.36158752441406 99.83900451660156" stroke-width="3.0" fill="none" stroke="rgb(0, 0, 0)" stroke-opacity="1.0" stroke-linecap="round" stroke-linejoin="round"/>
    <path d="M 86.0008773803711 89.0001220703125 C 90.02996826171875 89.41758728027344 87.41656494140625 90.99378967285156 81.07328796386719 92.2615966796875" stroke-width="3.0" fill="none" stroke="rgb(0, 0, 0)" stroke-opacity="1.0" stroke-linecap="round" stroke-linejoin="round"/>
    <path d="M 100.00018310546875 83.00016784667969 C 101.48060607910156 90.07587432861328 105.69091033935547 87.4317855834961 105.6973648071289 83.83330535888672" stroke-width="3.0" fill="none" stroke="rgb(0, 0, 0)" stroke-opacity="1.0" stroke-linecap="round" stroke-linejoin="round"/>
    <path d="M 111.99742889404297 97.0002212524414 C 116.61991882324219 101.15087890625 112.36448669433594 102.7075424194336 113.58482360839844 100.81720733642578" stroke-width="3.0" fill="none" stroke="rgb(0, 0, 0)" stroke-opacity="1.0" stroke-linecap="round" stroke-linejoin="round"/>
    <path d="M 62.99974822998047 78.00020599365234 C 65.93821716308594 78.45512390136719 69.05726623535156 80.7802734375 61.470497131347656 78.81147003173828" stroke-width="3.0" fill="none" stroke="rgb(0, 0, 0)" stroke-opacity="1.0" stroke-linecap="round" stroke-linejoin="round"/>
    <path d="M 101.00047302246094 83.00037384033203 C 95.61846160888672 87.80719757080078 99.86028289794922 91.52661895751953 99.70310974121094 86.57026672363281" stroke-width="3.0" fill="none" stroke="rgb(0, 0, 0)" stroke-opacity="1.0" stroke-linecap="round" stroke-linejoin="round"/>
    <path d="M 90.00009155273438 87.99979400634766 C 94.23419952392578 93.00373840332031 89.59390258789062 90.84945678710938 86.75615692138672 95.76749420166016" stroke-width="3.0" fill="none" stroke="rgb(0, 0, 0)" stroke-opacity="1.0" stroke-linecap="round" stroke-linejoin="round"/>
    <path d="M 91.00044250488281 90.00067901611328 C 95.9755630493164 87.83505249023438 95.69976043701172 88.39453887939453 91.18263244628906 90.57051086425781" stroke-width="3.0" fill="none" stroke="rgb(0, 0, 0)" stroke-opacity="1.0" stroke-linecap="round" stroke-linejoin="round"/>
    <path d="M 158.00015258789062 110.99967193603516 C 157.139892578125 107.77107238769531 157.5812225341797 110.34654998779297 154.23243713378906 106.23895263671875" stroke-width="3.0" fill="none" stroke="rgb(0, 0, 0)" stroke-opacity="1.0" stroke-linecap="round" stroke-linejoin="round"/>
    <path d="M 92.99928283691406 80.00027465820312 C 98.54386138916016 81.67914581298828 95.85829162597656 81.88504791259766 91.60987091064453 80.79046630859375" stroke-width="3.0" fill="none" stroke="rgb(0, 0, 0)" stroke-opacity="1.0" stroke-linecap="round" stroke-linejoin="round"/>
    <path d="M 150.99412536621094 92.0018081665039 C 149.16355895996094 94.98544311523438 146.1577606201172 91.85496520996094 141.35821533203125 93.32363891601562" stroke-width="3.0" fill="none" stroke="rgb(0, 0, 0)" stroke-opacity="1.0" stroke-linecap="round" stroke-linejoin="round"/>
    <path d="M 105.999755859375 97.99988555908203 C 102.9566879272461 102.53025817871094 106.98310089111328 97.72098541259766 104.05662536621094 97.63013458251953" stroke-width="3.0" fill="none" stroke="rgb(0, 0, 0)" stroke-opacity="1.0" stroke-linecap="round" stroke-linejoin="round"/>
    <path d="M 119.99137878417969 73.9803466796875 C 116.797607421875 67.88567352294922 121.67610931396484 68.67868041992188 121.36994934082031 73.8519515991211" stroke-width="3.0" fill="none" stroke="rgb(0, 0, 0)" stroke-opacity="1.0" stroke-linecap="round" stroke-linejoin="round"/>
    <path d="M 96.00047302246094 97.00018310546875 C 99.44461059570312 95.53096771240234 94.9307632446289 94.75826263427734 94.07430267333984 92.3936996459961" stroke-width="3.0" fill="none" stroke="rgb(0, 0, 0)" stroke-opacity="1.0" stroke-linecap="round" stroke-linejoin="round"/>
    <path d="M 87.00022888183594 80.99971771240234 C 89.56652069091797 82.94137573242188 94.98905181884766 76.44641876220703 93.89815521240234 76.64390563964844" stroke-width="3.0" fill="none" stroke="rgb(0, 0, 0)" stroke-opacity="1.0" stroke-linecap="round" stroke-linejoin="round"/>
    <path d="M 97.99964904785156 75.78137969970703 C 102.05038452148438 73.18303680419922 98.5798568725586 72.60575103759766 97.70044708251953 70.12894439697266" stroke-width="3.0" fill="none" stroke="rgb(0, 0, 0)" stroke-opacity="1.0" stroke-linecap="round" stroke-linejoin="round"/>
  </g>
</svg>
