<?xml version="1.0" ?>
<svg xmlns="http://www.w3.org/2000/svg" version="1.1" width="224" height="224">
  <defs/>
  <g>
    <path d="M 80.0257797241211 91.89816284179688 C 89.37092590332031 85.84910583496094 74.86195373535156 97.40574645996094 74.42874145507812 79.89276123046875" stroke-width="3.0" fill="none" stroke="rgb(0, 0, 0)" stroke-opacity="1.0" stroke-linecap="round" stroke-linejoin="round"/>
    <path d="M 172.6212615966797 200.4437255859375 C 159.0371551513672 206.2127685546875 157.7504119873047 190.96270751953125 151.7335968017578 181.9701385498047" stroke-width="3.0" fill="none" stroke="rgb(0, 0, 0)" stroke-opacity="1.0" stroke-linecap="round" stroke-linejoin="round"/>
    <path d="M 126.85646057128906 141.64813232421875 C 132.91098022460938 133.56716918945312 104.2084732055664 131.29296875 104.55353546142578 144.29393005371094" stroke-width="3.0" fill="none" stroke="rgb(0, 0, 0)" stroke-opacity="1.0" stroke-linecap="round" stroke-linejoin="round"/>
    <path d="M 146.19320678710938 106.01871490478516 C 138.78494262695312 100.23421478271484 143.4447784423828 107.10306549072266 142.6356201171875 103.96646118164062" stroke-width="3.0" fill="none" stroke="rgb(0, 0, 0)" stroke-opacity="1.0" stroke-linecap="round" stroke-linejoin="round"/>
    <path d="M 99.58788299560547 77.00203704833984 C 103.87418365478516 58.17588806152344 85.49036407470703 69.24288177490234 96.22843170166016 42.998477935791016" stroke-width="3.0" fill="none" stroke="rgb(0, 0, 0)" stroke-opacity="1.0" stroke-linecap="round" stroke-linejoin="round"/>
    <path d="M 91.06709289550781 40.20170974731445 C 91.88988494873047 36.46058654785156 85.55109405517578 67.0822982788086 86.97478485107422 50.57156753540039" stroke-width="3.0" fill="none" stroke="rgb(0, 0, 0)" stroke-opacity="1.0" stroke-linecap="round" stroke-linejoin="round"/>
    <path d="M 179.10293579101562 164.9558868408203 C 172.82815551757812 194.26470947265625 197.8395233154297 152.03077697753906 153.22914123535156 110.55392456054688" stroke-width="3.0" fill="none" stroke="rgb(0, 0, 0)" stroke-opacity="1.0" stroke-linecap="round" stroke-linejoin="round"/>
    <path d="M 75.58590698242188 126.29916381835938 C 71.13709259033203 112.91973114013672 61.18644714355469 98.32530212402344 72.01182556152344 77.91020965576172" stroke-width="3.0" fill="none" stroke="rgb(0, 0, 0)" stroke-opacity="1.0" stroke-linecap="round" stroke-linejoin="round"/>
    <path d="M 127.89405822753906 130.41555786132812 C 127.93553924560547 137.52676391601562 134.47317504882812 154.1805877685547 126.5322036743164 174.5792694091797" stroke-width="3.0" fill="none" stroke="rgb(0, 0, 0)" stroke-opacity="1.0" stroke-linecap="round" stroke-linejoin="round"/>
    <path d="M 77.01773834228516 26.401811599731445 C 98.62225341796875 46.34404373168945 83.28330993652344 42.57365798950195 76.29032897949219 49.26444625854492" stroke-width="3.0" fill="none" stroke="rgb(0, 0, 0)" stroke-opacity="1.0" stroke-linecap="round" stroke-linejoin="round"/>
    <path d="M 100.69795989990234 209.56903076171875 C 168.3904571533203 178.24224853515625 119.43416595458984 214.27072143554688 175.1861572265625 196.68765258789062" stroke-width="3.0" fill="none" stroke="rgb(0, 0, 0)" stroke-opacity="1.0" stroke-linecap="round" stroke-linejoin="round"/>
    <path d="M 178.00204467773438 167.31776428222656 C 170.25633239746094 151.53546142578125 193.53416442871094 162.74635314941406 154.8114471435547 157.6178436279297" stroke-width="3.0" fill="none" stroke="rgb(0, 0, 0)" stroke-opacity="1.0" stroke-linecap="round" stroke-linejoin="round"/>
    <path d="M 98.04619598388672 70.33131408691406 C 101.52204132080078 56.380943298339844 133.3483428955078 60.147544860839844 113.96905517578125 80.55170440673828" stroke-width="3.0" fill="none" stroke="rgb(0, 0, 0)" stroke-opacity="1.0" stroke-linecap="round" stroke-linejoin="round"/>
    <path d="M 90.82575988769531 73.28197479248047 C 89.79137420654297 53.20857620239258 76.8722152709961 53.52394485473633 71.5081787109375 81.10073852539062" stroke-width="3.0" fill="none" stroke="rgb(0, 0, 0)" stroke-opacity="1.0" stroke-linecap="round" stroke-linejoin="round"/>
    <path d="M 98.27059173583984 63.08046340942383 C 95.6593246459961 39.956092834472656 107.46216583251953 41.042694091796875 97.12615203857422 40.38950729370117" stroke-width="3.0" fill="none" stroke="rgb(0, 0, 0)" stroke-opacity="1.0" stroke-linecap="round" stroke-linejoin="round"/>
    <path d="M 83.65894317626953 71.79869079589844 C 63.56863784790039 68.88526153564453 86.90158081054688 61.2680549621582 76.30719757080078 65.03611755371094" stroke-width="3.0" fill="none" stroke="rgb(0, 0, 0)" stroke-opacity="1.0" stroke-linecap="round" stroke-linejoin="round"/>
    <path d="M 121.11152648925781 96.52688598632812 C 147.2110595703125 101.38614654541016 154.22305297851562 114.89620971679688 150.0120391845703 108.82431030273438" stroke-width="3.0" fill="none" stroke="rgb(0, 0, 0)" stroke-opacity="1.0" stroke-linecap="round" stroke-linejoin="round"/>
    <path d="M 114.2149429321289 71.48538208007812 C 129.6373748779297 118.93350982666016 137.2150115966797 106.0103759765625 122.62035369873047 91.55714416503906" stroke-width="3.0" fill="none" stroke="rgb(0, 0, 0)" stroke-opacity="1.0" stroke-linecap="round" stroke-linejoin="round"/>
    <path d="M 85.82936096191406 67.05583953857422 C 99.962646484375 88.84616088867188 102.02991485595703 85.14210510253906 106.99956512451172 51.272735595703125" stroke-width="3.0" fill="none" stroke="rgb(0, 0, 0)" stroke-opacity="1.0" stroke-linecap="round" stroke-linejoin="round"/>
    <path d="M 86.54159545898438 133.1956329345703 C 104.2522964477539 131.37933349609375 81.29559326171875 145.5309600830078 76.72576141357422 128.3365936279297" stroke-width="3.0" fill="none" stroke="rgb(0, 0, 0)" stroke-opacity="1.0" stroke-linecap="round" stroke-linejoin="round"/>
    <path d="M 112.88449096679688 59.596824645996094 C 120.73970031738281 64.17160034179688 115.98355865478516 45.14527130126953 94.40544891357422 41.55727005004883" stroke-width="3.0" fill="none" stroke="rgb(0, 0, 0)" stroke-opacity="1.0" stroke-linecap="round" stroke-linejoin="round"/>
    <path d="M 115.11945343017578 71.53949737548828 C 86.00335693359375 73.97472381591797 94.62013244628906 77.22557830810547 112.68997955322266 66.95796966552734" stroke-width="3.0" fill="none" stroke="rgb(0, 0, 0)" stroke-opacity="1.0" stroke-linecap="round" stroke-linejoin="round"/>
    <path d="M 67.79319763183594 90.13885498046875 C 67.84687805175781 109.96952056884766 99.37650299072266 107.66058349609375 69.2699203491211 99.18299102783203" stroke-width="3.0" fill="none" stroke="rgb(0, 0, 0)" stroke-opacity="1.0" stroke-linecap="round" stroke-linejoin="round"/>
    <path d="M 92.69416809082031 93.09457397460938 C 133.57275390625 85.24601745605469 129.98179626464844 90.930908203125 94.31395721435547 103.48664855957031" stroke-width="3.0" fill="none" stroke="rgb(0, 0, 0)" stroke-opacity="1.0" stroke-linecap="round" stroke-linejoin="round"/>
    <path d="M 158.845947265625 148.42604064941406 C 163.9456329345703 149.04782104492188 147.85218811035156 140.6487274169922 138.9110107421875 155.83673095703125" stroke-width="3.0" fill="none" stroke="rgb(0, 0, 0)" stroke-opacity="1.0" stroke-linecap="round" stroke-linejoin="round"/>
    <path d="M 116.04981994628906 51.56576919555664 C 127.01239013671875 78.12850189208984 120.77214813232422 68.1879653930664 122.56195831298828 30.723793029785156" stroke-width="3.0" fill="none" stroke="rgb(0, 0, 0)" stroke-opacity="1.0" stroke-linecap="round" stroke-linejoin="round"/>
    <path d="M 120.3093032836914 116.58393859863281 C 100.7846450805664 119.58936309814453 114.59709930419922 111.9302978515625 99.3675537109375 117.29702758789062" stroke-width="3.0" fill="none" stroke="rgb(0, 0, 0)" stroke-opacity="1.0" stroke-linecap="round" stroke-linejoin="round"/>
    <path d="M 91.90812683105469 112.55320739746094 C 86.16962432861328 123.26227569580078 96.22406005859375 132.61160278320312 91.77198028564453 125.86660766601562" stroke-width="3.0" fill="none" stroke="rgb(0, 0, 0)" stroke-opacity="1.0" stroke-linecap="round" stroke-linejoin="round"/>
    <path d="M 104.364990234375 48.350799560546875 C 101.80533599853516 45.48377990722656 95.91767120361328 59.35655975341797 120.34222412109375 26.617767333984375" stroke-width="3.0" fill="none" stroke="rgb(0, 0, 0)" stroke-opacity="1.0" stroke-linecap="round" stroke-linejoin="round"/>
    <path d="M 120.60842895507812 97.86833190917969 C 138.18527221679688 97.44483947753906 135.58233642578125 115.84550476074219 123.14057922363281 99.7427749633789" stroke-width="3.0" fill="none" stroke="rgb(0, 0, 0)" stroke-opacity="1.0" stroke-linecap="round" stroke-linejoin="round"/>
    <path d="M 120.76024627685547 48.20854568481445 C 97.43304443359375 38.47652053833008 105.36091613769531 38.90974426269531 101.74368286132812 57.88732147216797" stroke-width="3.0" fill="none" stroke="rgb(0, 0, 0)" stroke-opacity="1.0" stroke-linecap="round" stroke-linejoin="round"/>
    <path d="M 74.08343505859375 70.3362808227539 C 73.58119201660156 34.27141571044922 77.4123764038086 74.9869155883789 74.47877502441406 27.880666732788086" stroke-width="3.0" fill="none" stroke="rgb(0, 0, 0)" stroke-opacity="1.0" stroke-linecap="round" stroke-linejoin="round"/>
  </g>
</svg>
