<?xml version="1.0" ?>
<svg xmlns="http://www.w3.org/2000/svg" version="1.1" width="224" height="224">
  <defs/>
  <g>
    <path d="M 112.97879791259766 86.13387298583984 C 50.36928939819336 77.80032348632812 106.9549560546875 82.92540740966797 113.2591781616211 111.89730072021484" stroke-width="2" fill="none" stroke="rgb(0, 0, 0)" stroke-opacity="1.0" stroke-linecap="round" stroke-linejoin="round"/>
    <path d="M 103.74705505371094 152.30743408203125 C 181.49716186523438 140.22105407714844 143.45016479492188 151.41441345214844 109.268798828125 149.6403045654297" stroke-width="2" fill="none" stroke="rgb(0, 0, 0)" stroke-opacity="1.0" stroke-linecap="round" stroke-linejoin="round"/>
    <path d="M 137.30943298339844 135.04283142089844 C 80.34609985351562 107.41136932373047 116.03520965576172 142.17849731445312 141.61683654785156 128.12286376953125" stroke-width="2" fill="none" stroke="rgb(0, 0, 0)" stroke-opacity="1.0" stroke-linecap="round" stroke-linejoin="round"/>
    <path d="M 159.78817749023438 100.72710418701172 C 160.4694366455078 133.83908081054688 205.04306030273438 54.056880950927734 162.62353515625 95.81259155273438" stroke-width="2" fill="none" stroke="rgb(0, 0, 0)" stroke-opacity="1.0" stroke-linecap="round" stroke-linejoin="round"/>
    <path d="M 137.0225067138672 114.76577758789062 C 128.23178100585938 122.70045471191406 127.06512451171875 108.81851196289062 140.23048400878906 118.19014739990234" stroke-width="2" fill="none" stroke="rgb(0, 0, 0)" stroke-opacity="1.0" stroke-linecap="round" stroke-linejoin="round"/>
    <path d="M 143.65988159179688 86.1832275390625 C 113.63020324707031 72.15960693359375 125.84909057617188 98.24146270751953 97.38462829589844 85.22394561767578" stroke-width="2" fill="none" stroke="rgb(0, 0, 0)" stroke-opacity="1.0" stroke-linecap="round" stroke-linejoin="round"/>
    <path d="M 44.84256362915039 145.19711303710938 C 117.82816314697266 154.08807373046875 164.90151977539062 156.536376953125 108.142333984375 147.8176727294922" stroke-width="2" fill="none" stroke="rgb(0, 0, 0)" stroke-opacity="1.0" stroke-linecap="round" stroke-linejoin="round"/>
    <path d="M 159.79103088378906 147.07716369628906 C 184.85520935058594 116.29092407226562 150.22024536132812 112.76347351074219 129.6773681640625 123.70679473876953" stroke-width="2" fill="none" stroke="rgb(0, 0, 0)" stroke-opacity="1.0" stroke-linecap="round" stroke-linejoin="round"/>
    <path d="M 119.36480712890625 134.67247009277344 C 178.81008911132812 93.47276306152344 160.02139282226562 117.1974105834961 119.6020736694336 135.38226318359375" stroke-width="2" fill="none" stroke="rgb(0, 0, 0)" stroke-opacity="1.0" stroke-linecap="round" stroke-linejoin="round"/>
    <path d="M 184.91273498535156 81.14285278320312 C 197.4410400390625 36.132476806640625 178.02383422851562 92.60893249511719 150.0214385986328 89.94213104248047" stroke-width="2" fill="none" stroke="rgb(0, 0, 0)" stroke-opacity="1.0" stroke-linecap="round" stroke-linejoin="round"/>
    <path d="M 165.85540771484375 134.22940063476562 C 166.81039428710938 166.9671173095703 189.39488220214844 151.86500549316406 171.43118286132812 155.87351989746094" stroke-width="2" fill="none" stroke="rgb(0, 0, 0)" stroke-opacity="1.0" stroke-linecap="round" stroke-linejoin="round"/>
    <path d="M 69.83385467529297 135.27012634277344 C 102.41381072998047 161.63009643554688 59.121315002441406 125.22167205810547 78.53650665283203 139.62718200683594" stroke-width="2" fill="none" stroke="rgb(0, 0, 0)" stroke-opacity="1.0" stroke-linecap="round" stroke-linejoin="round"/>
    <path d="M 112.90631866455078 97.3440170288086 C 108.84222412109375 85.73149871826172 114.12127685546875 83.9783706665039 136.43276977539062 83.46813201904297" stroke-width="2" fill="none" stroke="rgb(0, 0, 0)" stroke-opacity="1.0" stroke-linecap="round" stroke-linejoin="round"/>
    <path d="M 165.83587646484375 121.57376098632812 C 177.33880615234375 71.0078353881836 181.948486328125 105.00366973876953 186.44497680664062 65.65786743164062" stroke-width="2" fill="none" stroke="rgb(0, 0, 0)" stroke-opacity="1.0" stroke-linecap="round" stroke-linejoin="round"/>
    <path d="M 106.63687133789062 115.78423309326172 C 68.0291976928711 79.20549774169922 88.52467346191406 84.97989654541016 76.11754608154297 72.46460723876953" stroke-width="2" fill="none" stroke="rgb(0, 0, 0)" stroke-opacity="1.0" stroke-linecap="round" stroke-linejoin="round"/>
    <path d="M 88.12693786621094 110.95671081542969 C 51.714595794677734 106.0052719116211 32.9031867980957 127.42329406738281 50.00614547729492 142.37135314941406" stroke-width="2" fill="none" stroke="rgb(0, 0, 0)" stroke-opacity="1.0" stroke-linecap="round" stroke-linejoin="round"/>
  </g>
</svg>
