<?xml version="1.0" ?>
<svg xmlns="http://www.w3.org/2000/svg" version="1.1" width="224" height="224">
  <defs/>
  <g>
    <path d="M 120.47110748291016 84.0987319946289 C 69.90203094482422 51.59037399291992 114.12123107910156 73.338623046875 129.79139709472656 93.10608673095703" stroke-width="2" fill="none" stroke="rgb(0, 0, 0)" stroke-opacity="1.0" stroke-linecap="round" stroke-linejoin="round"/>
    <path d="M 95.79426574707031 138.19483947753906 C 174.1542205810547 138.5316925048828 157.66552734375 161.8772735595703 114.92450714111328 152.8774871826172" stroke-width="2" fill="none" stroke="rgb(0, 0, 0)" stroke-opacity="1.0" stroke-linecap="round" stroke-linejoin="round"/>
    <path d="M 138.78770446777344 128.15077209472656 C 73.1134033203125 82.26508331298828 118.87155151367188 110.93233489990234 139.5509796142578 126.09161376953125" stroke-width="2" fill="none" stroke="rgb(0, 0, 0)" stroke-opacity="1.0" stroke-linecap="round" stroke-linejoin="round"/>
    <path d="M 160.22903442382812 92.51709747314453 C 127.00202941894531 130.4791259765625 216.67709350585938 75.59574890136719 152.80068969726562 96.3909912109375" stroke-width="2" fill="none" stroke="rgb(0, 0, 0)" stroke-opacity="1.0" stroke-linecap="round" stroke-linejoin="round"/>
    <path d="M 134.9821319580078 106.75489044189453 C 159.9419708251953 116.3333969116211 113.4616928100586 106.15776062011719 141.32371520996094 107.08412170410156" stroke-width="2" fill="none" stroke="rgb(0, 0, 0)" stroke-opacity="1.0" stroke-linecap="round" stroke-linejoin="round"/>
    <path d="M 168.858154296875 103.63792419433594 C 116.23714447021484 56.01039505004883 130.66656494140625 131.62619018554688 105.78913879394531 73.14148712158203" stroke-width="2" fill="none" stroke="rgb(0, 0, 0)" stroke-opacity="1.0" stroke-linecap="round" stroke-linejoin="round"/>
    <path d="M 39.89054489135742 139.81460571289062 C 106.86387634277344 158.26901245117188 156.83172607421875 153.70294189453125 85.55156707763672 137.9528350830078" stroke-width="2" fill="none" stroke="rgb(0, 0, 0)" stroke-opacity="1.0" stroke-linecap="round" stroke-linejoin="round"/>
    <path d="M 147.43356323242188 125.52449798583984 C 171.82980346679688 111.82333374023438 101.69571685791016 108.53553009033203 141.818359375 118.04629516601562" stroke-width="2" fill="none" stroke="rgb(0, 0, 0)" stroke-opacity="1.0" stroke-linecap="round" stroke-linejoin="round"/>
    <path d="M 118.69982147216797 122.71956634521484 C 185.21859741210938 100.9540023803711 162.35809326171875 110.70088195800781 117.30885314941406 120.65827178955078" stroke-width="2" fill="none" stroke="rgb(0, 0, 0)" stroke-opacity="1.0" stroke-linecap="round" stroke-linejoin="round"/>
    <path d="M 179.68093872070312 90.41941833496094 C 199.66769409179688 24.896160125732422 161.12953186035156 102.6126480102539 141.035888671875 87.96227264404297" stroke-width="2" fill="none" stroke="rgb(0, 0, 0)" stroke-opacity="1.0" stroke-linecap="round" stroke-linejoin="round"/>
    <path d="M 153.02027893066406 129.56346130371094 C 144.42373657226562 162.65892028808594 200.56985473632812 163.79429626464844 168.54273986816406 151.43264770507812" stroke-width="2" fill="none" stroke="rgb(0, 0, 0)" stroke-opacity="1.0" stroke-linecap="round" stroke-linejoin="round"/>
    <path d="M 72.7533187866211 126.95403289794922 C 85.79322814941406 139.84754943847656 58.96074295043945 118.59890747070312 73.34918212890625 128.392333984375" stroke-width="2" fill="none" stroke="rgb(0, 0, 0)" stroke-opacity="1.0" stroke-linecap="round" stroke-linejoin="round"/>
    <path d="M 125.50846862792969 103.51675415039062 C 126.92818450927734 84.77554321289062 116.29409790039062 89.11384582519531 123.82382202148438 92.70624542236328" stroke-width="2" fill="none" stroke="rgb(0, 0, 0)" stroke-opacity="1.0" stroke-linecap="round" stroke-linejoin="round"/>
    <path d="M 166.5464324951172 111.369873046875 C 188.80149841308594 75.01409912109375 165.76602172851562 94.6766357421875 180.9962158203125 78.02313232421875" stroke-width="2" fill="none" stroke="rgb(0, 0, 0)" stroke-opacity="1.0" stroke-linecap="round" stroke-linejoin="round"/>
    <path d="M 113.42935943603516 114.0969467163086 C 85.98409271240234 74.1030044555664 107.8062973022461 88.24209594726562 94.46016693115234 69.72079467773438" stroke-width="2" fill="none" stroke="rgb(0, 0, 0)" stroke-opacity="1.0" stroke-linecap="round" stroke-linejoin="round"/>
    <path d="M 101.84666442871094 96.0636978149414 C 43.66429901123047 87.01713562011719 16.41524314880371 148.1381072998047 69.52527618408203 143.95008850097656" stroke-width="2" fill="none" stroke="rgb(0, 0, 0)" stroke-opacity="1.0" stroke-linecap="round" stroke-linejoin="round"/>
  </g>
</svg>
