<?xml version="1.0" ?>
<svg xmlns="http://www.w3.org/2000/svg" version="1.1" width="224" height="224">
  <defs/>
  <g>
    <path d="M 133.9040985107422 86.66024780273438 C 62.84076690673828 72.20258331298828 127.57484436035156 69.82262420654297 127.53759765625 92.71736145019531" stroke-width="2" fill="none" stroke="rgb(0, 0, 0)" stroke-opacity="1.0" stroke-linecap="round" stroke-linejoin="round"/>
    <path d="M 97.09276580810547 144.9855499267578 C 162.155517578125 139.55784606933594 141.997802734375 170.63987731933594 115.90960693359375 147.91050720214844" stroke-width="2" fill="none" stroke="rgb(0, 0, 0)" stroke-opacity="1.0" stroke-linecap="round" stroke-linejoin="round"/>
    <path d="M 145.1449432373047 132.8666534423828 C 87.07972717285156 83.41504669189453 121.78719329833984 126.6026611328125 145.32867431640625 125.22746276855469" stroke-width="2" fill="none" stroke="rgb(0, 0, 0)" stroke-opacity="1.0" stroke-linecap="round" stroke-linejoin="round"/>
    <path d="M 162.37901306152344 95.32349395751953 C 149.74131774902344 139.2189483642578 215.41976928710938 41.45004653930664 154.18460083007812 102.48941802978516" stroke-width="2" fill="none" stroke="rgb(0, 0, 0)" stroke-opacity="1.0" stroke-linecap="round" stroke-linejoin="round"/>
    <path d="M 150.13075256347656 108.36388397216797 C 135.68865966796875 116.42223358154297 123.92086029052734 105.23876953125 151.0670623779297 107.15982055664062" stroke-width="2" fill="none" stroke="rgb(0, 0, 0)" stroke-opacity="1.0" stroke-linecap="round" stroke-linejoin="round"/>
    <path d="M 159.18263244628906 91.7520980834961 C 128.86851501464844 59.552101135253906 135.99229431152344 120.44632720947266 110.11683654785156 80.77027130126953" stroke-width="2" fill="none" stroke="rgb(0, 0, 0)" stroke-opacity="1.0" stroke-linecap="round" stroke-linejoin="round"/>
    <path d="M 41.96394729614258 142.5443572998047 C 100.4474105834961 157.14373779296875 149.38453674316406 158.49899291992188 99.48419189453125 141.81358337402344" stroke-width="2" fill="none" stroke="rgb(0, 0, 0)" stroke-opacity="1.0" stroke-linecap="round" stroke-linejoin="round"/>
    <path d="M 155.0767364501953 125.96101379394531 C 181.10610961914062 117.96236419677734 120.18425750732422 107.9078140258789 147.55397033691406 115.75506591796875" stroke-width="2" fill="none" stroke="rgb(0, 0, 0)" stroke-opacity="1.0" stroke-linecap="round" stroke-linejoin="round"/>
    <path d="M 121.33123779296875 125.2989273071289 C 194.50148010253906 107.62619018554688 164.0347137451172 110.83424377441406 119.63044738769531 124.05579376220703" stroke-width="2" fill="none" stroke="rgb(0, 0, 0)" stroke-opacity="1.0" stroke-linecap="round" stroke-linejoin="round"/>
    <path d="M 185.24896240234375 87.27798461914062 C 192.59573364257812 30.67670440673828 175.58322143554688 89.57890319824219 152.70303344726562 79.11420440673828" stroke-width="2" fill="none" stroke="rgb(0, 0, 0)" stroke-opacity="1.0" stroke-linecap="round" stroke-linejoin="round"/>
    <path d="M 159.6563262939453 135.45547485351562 C 174.7196807861328 164.0245361328125 203.3819580078125 144.59832763671875 171.47732543945312 150.7420196533203" stroke-width="2" fill="none" stroke="rgb(0, 0, 0)" stroke-opacity="1.0" stroke-linecap="round" stroke-linejoin="round"/>
    <path d="M 66.66651153564453 132.29779052734375 C 87.84452056884766 151.13563537597656 53.17920684814453 122.69312286376953 73.50300598144531 137.9225616455078" stroke-width="2" fill="none" stroke="rgb(0, 0, 0)" stroke-opacity="1.0" stroke-linecap="round" stroke-linejoin="round"/>
    <path d="M 123.13015747070312 99.21886444091797 C 124.6693344116211 85.69679260253906 118.43437194824219 88.02841186523438 132.4236297607422 88.64454650878906" stroke-width="2" fill="none" stroke="rgb(0, 0, 0)" stroke-opacity="1.0" stroke-linecap="round" stroke-linejoin="round"/>
    <path d="M 159.48507690429688 117.46424102783203 C 185.7167205810547 67.71183013916016 183.61212158203125 92.1285171508789 186.04681396484375 69.8681411743164" stroke-width="2" fill="none" stroke="rgb(0, 0, 0)" stroke-opacity="1.0" stroke-linecap="round" stroke-linejoin="round"/>
    <path d="M 121.73869323730469 108.69839477539062 C 82.0705795288086 79.09017181396484 108.60076904296875 75.073486328125 90.15641021728516 75.4101333618164" stroke-width="2" fill="none" stroke="rgb(0, 0, 0)" stroke-opacity="1.0" stroke-linecap="round" stroke-linejoin="round"/>
    <path d="M 93.46501922607422 97.71883392333984 C 48.803462982177734 96.98700714111328 28.28795623779297 137.5381317138672 54.44522476196289 150.51754760742188" stroke-width="2" fill="none" stroke="rgb(0, 0, 0)" stroke-opacity="1.0" stroke-linecap="round" stroke-linejoin="round"/>
  </g>
</svg>
