<?xml version="1.0" ?>
<svg xmlns="http://www.w3.org/2000/svg" version="1.1" width="224" height="224">
  <defs/>
  <g>
    <path d="M 111.21256256103516 87.01885986328125 C 47.164649963378906 73.5738296508789 101.93222045898438 90.58226013183594 97.60181427001953 114.39810943603516" stroke-width="2" fill="none" stroke="rgb(0, 0, 0)" stroke-opacity="1.0" stroke-linecap="round" stroke-linejoin="round"/>
    <path d="M 100.17537689208984 150.6380157470703 C 160.26239013671875 138.3396759033203 132.65231323242188 149.26206970214844 107.8973388671875 150.3036346435547" stroke-width="2" fill="none" stroke="rgb(0, 0, 0)" stroke-opacity="1.0" stroke-linecap="round" stroke-linejoin="round"/>
    <path d="M 133.9971923828125 133.5987091064453 C 86.46256256103516 103.74901580810547 112.1395263671875 139.09779357910156 139.3346710205078 124.8771743774414" stroke-width="2" fill="none" stroke="rgb(0, 0, 0)" stroke-opacity="1.0" stroke-linecap="round" stroke-linejoin="round"/>
    <path d="M 157.65020751953125 98.72657012939453 C 160.5925750732422 129.04559326171875 202.3577880859375 57.36880874633789 175.41407775878906 92.96717071533203" stroke-width="2" fill="none" stroke="rgb(0, 0, 0)" stroke-opacity="1.0" stroke-linecap="round" stroke-linejoin="round"/>
    <path d="M 129.4243927001953 113.2165298461914 C 119.02434539794922 138.49734497070312 120.93460083007812 106.42937469482422 131.2925567626953 116.4417495727539" stroke-width="2" fill="none" stroke="rgb(0, 0, 0)" stroke-opacity="1.0" stroke-linecap="round" stroke-linejoin="round"/>
    <path d="M 152.02029418945312 89.92281341552734 C 117.33403778076172 69.76792907714844 111.46174621582031 95.893310546875 105.00843811035156 85.7216796875" stroke-width="2" fill="none" stroke="rgb(0, 0, 0)" stroke-opacity="1.0" stroke-linecap="round" stroke-linejoin="round"/>
    <path d="M 48.70105743408203 146.26458740234375 C 114.65995788574219 153.9529266357422 158.13014221191406 153.30313110351562 110.17626190185547 145.2217559814453" stroke-width="2" fill="none" stroke="rgb(0, 0, 0)" stroke-opacity="1.0" stroke-linecap="round" stroke-linejoin="round"/>
    <path d="M 155.2484130859375 139.80035400390625 C 190.34796142578125 115.69110870361328 145.42208862304688 102.83309173583984 126.87752532958984 122.55754089355469" stroke-width="2" fill="none" stroke="rgb(0, 0, 0)" stroke-opacity="1.0" stroke-linecap="round" stroke-linejoin="round"/>
    <path d="M 114.85112762451172 131.12454223632812 C 174.5570831298828 88.11174011230469 150.69863891601562 107.78953552246094 117.777587890625 135.91114807128906" stroke-width="2" fill="none" stroke="rgb(0, 0, 0)" stroke-opacity="1.0" stroke-linecap="round" stroke-linejoin="round"/>
    <path d="M 189.6531219482422 75.05282592773438 C 202.66807556152344 36.51224899291992 175.70663452148438 74.53608703613281 154.54576110839844 90.10700988769531" stroke-width="2" fill="none" stroke="rgb(0, 0, 0)" stroke-opacity="1.0" stroke-linecap="round" stroke-linejoin="round"/>
    <path d="M 172.50497436523438 137.57444763183594 C 167.22271728515625 155.8773651123047 177.86956787109375 129.5078582763672 163.9813995361328 148.07821655273438" stroke-width="2" fill="none" stroke="rgb(0, 0, 0)" stroke-opacity="1.0" stroke-linecap="round" stroke-linejoin="round"/>
    <path d="M 71.84296417236328 136.86029052734375 C 108.5496826171875 162.8799591064453 56.85884475708008 132.48573303222656 84.11759948730469 144.27963256835938" stroke-width="2" fill="none" stroke="rgb(0, 0, 0)" stroke-opacity="1.0" stroke-linecap="round" stroke-linejoin="round"/>
    <path d="M 107.15929412841797 107.14824676513672 C 103.40178680419922 85.27003479003906 113.10891723632812 79.4218521118164 132.5115203857422 85.85810852050781" stroke-width="2" fill="none" stroke="rgb(0, 0, 0)" stroke-opacity="1.0" stroke-linecap="round" stroke-linejoin="round"/>
    <path d="M 173.26637268066406 117.068115234375 C 185.26956176757812 77.46791076660156 178.67332458496094 113.0912857055664 190.32498168945312 74.76144409179688" stroke-width="2" fill="none" stroke="rgb(0, 0, 0)" stroke-opacity="1.0" stroke-linecap="round" stroke-linejoin="round"/>
    <path d="M 90.84326171875 101.902099609375 C 81.44109344482422 69.03834533691406 81.48258209228516 89.4269790649414 70.08164978027344 69.78227233886719" stroke-width="2" fill="none" stroke="rgb(0, 0, 0)" stroke-opacity="1.0" stroke-linecap="round" stroke-linejoin="round"/>
    <path d="M 85.69815063476562 116.55443572998047 C 52.8165283203125 111.76520538330078 44.85566329956055 120.79300689697266 45.08287811279297 135.67420959472656" stroke-width="2" fill="none" stroke="rgb(0, 0, 0)" stroke-opacity="1.0" stroke-linecap="round" stroke-linejoin="round"/>
  </g>
</svg>
