<?xml version="1.0" ?>
<svg xmlns="http://www.w3.org/2000/svg" version="1.1" width="224" height="224">
  <defs/>
  <g>
    <path d="M 108.46511840820312 88.00617218017578 C 49.611167907714844 70.40398406982422 108.18640899658203 83.28309631347656 109.21949768066406 116.28457641601562" stroke-width="2" fill="none" stroke="rgb(0, 0, 0)" stroke-opacity="1.0" stroke-linecap="round" stroke-linejoin="round"/>
    <path d="M 101.99016571044922 150.97792053222656 C 174.84434509277344 139.30047607421875 140.03317260742188 149.4513397216797 106.93629455566406 150.2318115234375" stroke-width="2" fill="none" stroke="rgb(0, 0, 0)" stroke-opacity="1.0" stroke-linecap="round" stroke-linejoin="round"/>
    <path d="M 136.83193969726562 136.58468627929688 C 86.14370727539062 106.31813049316406 116.31755065917969 140.67092895507812 140.53311157226562 129.2532196044922" stroke-width="2" fill="none" stroke="rgb(0, 0, 0)" stroke-opacity="1.0" stroke-linecap="round" stroke-linejoin="round"/>
    <path d="M 158.9027557373047 99.40259552001953 C 162.43838500976562 138.7020721435547 205.5758056640625 54.97772979736328 163.4041748046875 95.61048126220703" stroke-width="2" fill="none" stroke="rgb(0, 0, 0)" stroke-opacity="1.0" stroke-linecap="round" stroke-linejoin="round"/>
    <path d="M 134.40565490722656 118.12887573242188 C 122.16548919677734 126.30928802490234 123.8361587524414 112.28885650634766 139.6422576904297 119.2894515991211" stroke-width="2" fill="none" stroke="rgb(0, 0, 0)" stroke-opacity="1.0" stroke-linecap="round" stroke-linejoin="round"/>
    <path d="M 146.27066040039062 90.7341079711914 C 115.2884292602539 70.37635803222656 118.7807388305664 93.60263061523438 98.63917541503906 85.17705535888672" stroke-width="2" fill="none" stroke="rgb(0, 0, 0)" stroke-opacity="1.0" stroke-linecap="round" stroke-linejoin="round"/>
    <path d="M 40.965938568115234 145.5626220703125 C 115.0761947631836 155.0180206298828 161.19451904296875 154.65380859375 112.7839584350586 146.79229736328125" stroke-width="2" fill="none" stroke="rgb(0, 0, 0)" stroke-opacity="1.0" stroke-linecap="round" stroke-linejoin="round"/>
    <path d="M 159.53738403320312 143.611572265625 C 187.5720672607422 120.85887145996094 149.2149200439453 112.86359405517578 129.95156860351562 123.51863861083984" stroke-width="2" fill="none" stroke="rgb(0, 0, 0)" stroke-opacity="1.0" stroke-linecap="round" stroke-linejoin="round"/>
    <path d="M 119.58222198486328 134.66761779785156 C 180.35748291015625 94.4285888671875 160.1591339111328 116.69625854492188 119.38001251220703 135.79605102539062" stroke-width="2" fill="none" stroke="rgb(0, 0, 0)" stroke-opacity="1.0" stroke-linecap="round" stroke-linejoin="round"/>
    <path d="M 184.90052795410156 77.27997589111328 C 199.75624084472656 33.09879684448242 176.95127868652344 89.16210174560547 150.27980041503906 87.20417022705078" stroke-width="2" fill="none" stroke="rgb(0, 0, 0)" stroke-opacity="1.0" stroke-linecap="round" stroke-linejoin="round"/>
    <path d="M 162.37252807617188 137.5296630859375 C 165.7436065673828 166.0938720703125 188.34466552734375 143.86109924316406 167.5443115234375 152.7134246826172" stroke-width="2" fill="none" stroke="rgb(0, 0, 0)" stroke-opacity="1.0" stroke-linecap="round" stroke-linejoin="round"/>
    <path d="M 67.85478973388672 138.2918701171875 C 101.33154296875 162.93106079101562 54.28944778442383 128.74977111816406 75.00568389892578 141.7482452392578" stroke-width="2" fill="none" stroke="rgb(0, 0, 0)" stroke-opacity="1.0" stroke-linecap="round" stroke-linejoin="round"/>
    <path d="M 108.58589935302734 94.47429656982422 C 104.3033218383789 85.5716781616211 114.10619354248047 86.91500091552734 133.56248474121094 82.4418716430664" stroke-width="2" fill="none" stroke="rgb(0, 0, 0)" stroke-opacity="1.0" stroke-linecap="round" stroke-linejoin="round"/>
    <path d="M 169.168212890625 122.12020111083984 C 182.55516052246094 73.42567443847656 181.281005859375 102.71383666992188 188.14663696289062 69.94847106933594" stroke-width="2" fill="none" stroke="rgb(0, 0, 0)" stroke-opacity="1.0" stroke-linecap="round" stroke-linejoin="round"/>
    <path d="M 99.75787353515625 110.54654693603516 C 71.71542358398438 78.7029800415039 82.93492126464844 85.96099090576172 78.64449310302734 78.42591094970703" stroke-width="2" fill="none" stroke="rgb(0, 0, 0)" stroke-opacity="1.0" stroke-linecap="round" stroke-linejoin="round"/>
    <path d="M 88.8591537475586 113.27562713623047 C 51.54681396484375 110.5782241821289 33.70588302612305 122.85514831542969 45.80638885498047 144.1218719482422" stroke-width="2" fill="none" stroke="rgb(0, 0, 0)" stroke-opacity="1.0" stroke-linecap="round" stroke-linejoin="round"/>
  </g>
</svg>
