<?xml version="1.0" ?>
<svg xmlns="http://www.w3.org/2000/svg" version="1.1" width="224" height="224">
  <defs/>
  <g>
    <path d="M 127.11270141601562 75.81424713134766 C 64.03643798828125 65.88478088378906 118.90482330322266 74.03529357910156 133.5950469970703 93.69680786132812" stroke-width="2" fill="none" stroke="rgb(0, 0, 0)" stroke-opacity="1.0" stroke-linecap="round" stroke-linejoin="round"/>
    <path d="M 95.5438461303711 137.9268798828125 C 159.01104736328125 134.81036376953125 139.2141876220703 157.73231506347656 109.0511245727539 147.64614868164062" stroke-width="2" fill="none" stroke="rgb(0, 0, 0)" stroke-opacity="1.0" stroke-linecap="round" stroke-linejoin="round"/>
    <path d="M 138.98236083984375 129.86175537109375 C 88.6149673461914 77.52885437011719 113.5904541015625 122.96232604980469 144.26974487304688 124.2558364868164" stroke-width="2" fill="none" stroke="rgb(0, 0, 0)" stroke-opacity="1.0" stroke-linecap="round" stroke-linejoin="round"/>
    <path d="M 159.57113647460938 94.83502960205078 C 144.3224334716797 136.63352966308594 218.4093017578125 43.6707763671875 152.65835571289062 98.25999450683594" stroke-width="2" fill="none" stroke="rgb(0, 0, 0)" stroke-opacity="1.0" stroke-linecap="round" stroke-linejoin="round"/>
    <path d="M 143.79168701171875 112.53302764892578 C 136.097900390625 113.50154876708984 124.92364501953125 105.43441772460938 145.0525665283203 111.03897857666016" stroke-width="2" fill="none" stroke="rgb(0, 0, 0)" stroke-opacity="1.0" stroke-linecap="round" stroke-linejoin="round"/>
    <path d="M 160.28038024902344 90.9391098022461 C 124.89738464355469 60.29787063598633 134.5057830810547 123.30193328857422 105.93621063232422 81.5639877319336" stroke-width="2" fill="none" stroke="rgb(0, 0, 0)" stroke-opacity="1.0" stroke-linecap="round" stroke-linejoin="round"/>
    <path d="M 51.96120834350586 145.27391052246094 C 109.72566223144531 153.24732971191406 158.99844360351562 152.1247100830078 82.77870178222656 138.02517700195312" stroke-width="2" fill="none" stroke="rgb(0, 0, 0)" stroke-opacity="1.0" stroke-linecap="round" stroke-linejoin="round"/>
    <path d="M 148.79327392578125 127.58834838867188 C 172.1110382080078 115.26944732666016 108.45291900634766 108.89906311035156 144.9681854248047 119.57674407958984" stroke-width="2" fill="none" stroke="rgb(0, 0, 0)" stroke-opacity="1.0" stroke-linecap="round" stroke-linejoin="round"/>
    <path d="M 118.52519989013672 123.95989990234375 C 189.46156311035156 106.67086791992188 163.04322814941406 115.44424438476562 116.79236602783203 121.84982299804688" stroke-width="2" fill="none" stroke="rgb(0, 0, 0)" stroke-opacity="1.0" stroke-linecap="round" stroke-linejoin="round"/>
    <path d="M 187.92202758789062 82.50472259521484 C 195.84701538085938 26.797094345092773 176.7534637451172 90.58863830566406 149.37583923339844 81.52845764160156" stroke-width="2" fill="none" stroke="rgb(0, 0, 0)" stroke-opacity="1.0" stroke-linecap="round" stroke-linejoin="round"/>
    <path d="M 155.30477905273438 134.58724975585938 C 152.92318725585938 157.375 193.9371337890625 144.8595733642578 163.1516571044922 149.7197265625" stroke-width="2" fill="none" stroke="rgb(0, 0, 0)" stroke-opacity="1.0" stroke-linecap="round" stroke-linejoin="round"/>
    <path d="M 67.56245422363281 127.2945785522461 C 87.05796813964844 145.31655883789062 54.11052703857422 119.52830505371094 70.52609252929688 133.99313354492188" stroke-width="2" fill="none" stroke="rgb(0, 0, 0)" stroke-opacity="1.0" stroke-linecap="round" stroke-linejoin="round"/>
    <path d="M 123.10777282714844 101.59477996826172 C 125.90811157226562 92.96617126464844 113.5570068359375 95.10347747802734 131.40367126464844 92.5490493774414" stroke-width="2" fill="none" stroke="rgb(0, 0, 0)" stroke-opacity="1.0" stroke-linecap="round" stroke-linejoin="round"/>
    <path d="M 161.95787048339844 118.90489959716797 C 188.01736450195312 73.72920227050781 178.98023986816406 97.2188720703125 185.24337768554688 68.66594696044922" stroke-width="2" fill="none" stroke="rgb(0, 0, 0)" stroke-opacity="1.0" stroke-linecap="round" stroke-linejoin="round"/>
    <path d="M 123.16192626953125 111.35811614990234 C 81.5219497680664 82.93475341796875 104.66336059570312 80.85973358154297 92.74668884277344 71.91202545166016" stroke-width="2" fill="none" stroke="rgb(0, 0, 0)" stroke-opacity="1.0" stroke-linecap="round" stroke-linejoin="round"/>
    <path d="M 100.69409942626953 92.60214233398438 C 46.24695587158203 96.91008758544922 19.555429458618164 141.07106018066406 58.54412841796875 148.63751220703125" stroke-width="2" fill="none" stroke="rgb(0, 0, 0)" stroke-opacity="1.0" stroke-linecap="round" stroke-linejoin="round"/>
  </g>
</svg>
