<?xml version="1.0" ?>
<svg xmlns="http://www.w3.org/2000/svg" version="1.1" width="224" height="224">
  <defs/>
  <g>
    <path d="M 141.10523986816406 94.88382720947266 C 140.86668395996094 94.98809051513672 141.05722045898438 94.14134216308594 141.30426025390625 95.06672668457031" stroke-width="3.0" fill="none" stroke="rgb(0, 0, 0)" stroke-opacity="1.0" stroke-linecap="round" stroke-linejoin="round"/>
    <path d="M 171.35537719726562 135.46792602539062 C 168.771484375 139.00892639160156 168.58963012695312 136.1468963623047 164.81179809570312 138.1348419189453" stroke-width="3.0" fill="none" stroke="rgb(0, 0, 0)" stroke-opacity="1.0" stroke-linecap="round" stroke-linejoin="round"/>
    <path d="M 84.6272964477539 135.61061096191406 C 86.84062957763672 139.52284240722656 80.43666076660156 124.57734680175781 88.21297454833984 111.28266906738281" stroke-width="3.0" fill="none" stroke="rgb(0, 0, 0)" stroke-opacity="1.0" stroke-linecap="round" stroke-linejoin="round"/>
    <path d="M 96.3442611694336 129.5629119873047 C 101.44261169433594 124.75947570800781 103.84809875488281 122.21619415283203 97.59199523925781 128.09603881835938" stroke-width="3.0" fill="none" stroke="rgb(0, 0, 0)" stroke-opacity="1.0" stroke-linecap="round" stroke-linejoin="round"/>
    <path d="M 166.70138549804688 82.15071868896484 C 167.25843811035156 81.9837646484375 166.9981689453125 82.32218170166016 167.7232208251953 81.93312072753906" stroke-width="3.0" fill="none" stroke="rgb(0, 0, 0)" stroke-opacity="1.0" stroke-linecap="round" stroke-linejoin="round"/>
    <path d="M 128.4550018310547 60.80178451538086 C 126.1654281616211 64.02803039550781 127.18733978271484 61.371002197265625 127.37242126464844 61.88237762451172" stroke-width="3.0" fill="none" stroke="rgb(0, 0, 0)" stroke-opacity="1.0" stroke-linecap="round" stroke-linejoin="round"/>
    <path d="M 106.47163391113281 146.0645294189453 C 153.88650512695312 139.5777587890625 146.64755249023438 145.13616943359375 143.6212158203125 143.3299560546875" stroke-width="3.0" fill="none" stroke="rgb(0, 0, 0)" stroke-opacity="1.0" stroke-linecap="round" stroke-linejoin="round"/>
    <path d="M 127.41695404052734 97.68604278564453 C 124.7004165649414 104.38823699951172 123.09378814697266 96.51937103271484 127.7579116821289 103.19970703125" stroke-width="3.0" fill="none" stroke="rgb(0, 0, 0)" stroke-opacity="1.0" stroke-linecap="round" stroke-linejoin="round"/>
    <path d="M 86.13890075683594 131.22393798828125 C 87.23129272460938 111.28314208984375 75.97576141357422 111.75228881835938 85.52684783935547 148.61167907714844" stroke-width="3.0" fill="none" stroke="rgb(0, 0, 0)" stroke-opacity="1.0" stroke-linecap="round" stroke-linejoin="round"/>
    <path d="M 134.94667053222656 54.752052307128906 C 136.78170776367188 52.10007095336914 134.6071014404297 54.117164611816406 135.43814086914062 53.399208068847656" stroke-width="3.0" fill="none" stroke="rgb(0, 0, 0)" stroke-opacity="1.0" stroke-linecap="round" stroke-linejoin="round"/>
    <path d="M 82.09029388427734 147.43406677246094 C 96.21553039550781 150.6907196044922 112.27766418457031 143.7585906982422 81.87274932861328 145.41993713378906" stroke-width="3.0" fill="none" stroke="rgb(0, 0, 0)" stroke-opacity="1.0" stroke-linecap="round" stroke-linejoin="round"/>
    <path d="M 145.0174560546875 154.08975219726562 C 143.3251495361328 145.43814086914062 149.23056030273438 143.2868194580078 144.86911010742188 145.65945434570312" stroke-width="3.0" fill="none" stroke="rgb(0, 0, 0)" stroke-opacity="1.0" stroke-linecap="round" stroke-linejoin="round"/>
    <path d="M 166.6179656982422 82.44185638427734 C 165.641845703125 81.84710693359375 167.54696655273438 83.24755859375 166.49911499023438 82.60199737548828" stroke-width="3.0" fill="none" stroke="rgb(0, 0, 0)" stroke-opacity="1.0" stroke-linecap="round" stroke-linejoin="round"/>
    <path d="M 166.4640350341797 82.27476501464844 C 165.63148498535156 82.2879638671875 168.09591674804688 81.68353271484375 167.34988403320312 82.36222076416016" stroke-width="3.0" fill="none" stroke="rgb(0, 0, 0)" stroke-opacity="1.0" stroke-linecap="round" stroke-linejoin="round"/>
    <path d="M 187.13082885742188 74.05635070800781 C 186.58297729492188 72.69514465332031 187.0713348388672 78.78634643554688 186.9141082763672 76.4579086303711" stroke-width="3.0" fill="none" stroke="rgb(0, 0, 0)" stroke-opacity="1.0" stroke-linecap="round" stroke-linejoin="round"/>
    <path d="M 186.30104064941406 87.19207763671875 C 186.58787536621094 88.04256439208984 186.2963104248047 87.078857421875 186.32208251953125 87.12262725830078" stroke-width="3.0" fill="none" stroke="rgb(0, 0, 0)" stroke-opacity="1.0" stroke-linecap="round" stroke-linejoin="round"/>
  </g>
</svg>
