<?xml version="1.0" ?>
<svg xmlns="http://www.w3.org/2000/svg" version="1.1" width="224" height="224">
  <defs/>
  <g>
    <path d="M 134.00009155273438 95.00017547607422 C 137.5613555908203 89.68267822265625 135.04156494140625 88.57880401611328 135.69052124023438 90.55863952636719" stroke-width="3.0" fill="none" stroke="rgb(0, 0, 0)" stroke-opacity="1.0" stroke-linecap="round" stroke-linejoin="round"/>
    <path d="M 159.99969482421875 144.99862670898438 C 162.39263916015625 138.3740692138672 163.51548767089844 133.1078643798828 160.36660766601562 133.16778564453125" stroke-width="3.0" fill="none" stroke="rgb(0, 0, 0)" stroke-opacity="1.0" stroke-linecap="round" stroke-linejoin="round"/>
    <path d="M 90.00035858154297 126.99980163574219 C 84.6975326538086 123.62676239013672 86.37670135498047 124.129638671875 83.24539184570312 123.13028717041016" stroke-width="3.0" fill="none" stroke="rgb(0, 0, 0)" stroke-opacity="1.0" stroke-linecap="round" stroke-linejoin="round"/>
    <path d="M 102.00067901611328 113.00138854980469 C 107.46422576904297 109.47193908691406 108.98208618164062 111.69085693359375 107.10179138183594 107.83319854736328" stroke-width="3.0" fill="none" stroke="rgb(0, 0, 0)" stroke-opacity="1.0" stroke-linecap="round" stroke-linejoin="round"/>
    <path d="M 161.99989318847656 75.9998779296875 C 167.1205596923828 74.16912078857422 162.559326171875 69.65254211425781 166.4486083984375 70.8147201538086" stroke-width="3.0" fill="none" stroke="rgb(0, 0, 0)" stroke-opacity="1.0" stroke-linecap="round" stroke-linejoin="round"/>
    <path d="M 125.99976348876953 63.999813079833984 C 127.44029998779297 66.5710678100586 127.84598541259766 71.8614273071289 126.48546600341797 70.45481872558594" stroke-width="3.0" fill="none" stroke="rgb(0, 0, 0)" stroke-opacity="1.0" stroke-linecap="round" stroke-linejoin="round"/>
    <path d="M 137.99789428710938 138.00106811523438 C 139.6906280517578 139.32794189453125 143.7409210205078 140.19406127929688 146.03170776367188 135.10720825195312" stroke-width="3.0" fill="none" stroke="rgb(0, 0, 0)" stroke-opacity="1.0" stroke-linecap="round" stroke-linejoin="round"/>
    <path d="M 125.00043487548828 114.99986267089844 C 121.96644592285156 112.62201690673828 119.24383544921875 107.6497573852539 114.775390625 107.16160583496094" stroke-width="3.0" fill="none" stroke="rgb(0, 0, 0)" stroke-opacity="1.0" stroke-linecap="round" stroke-linejoin="round"/>
    <path d="M 83.00086212158203 124.99938201904297 C 84.52323150634766 121.62081909179688 85.0623779296875 120.22691345214844 82.45575714111328 125.12300109863281" stroke-width="3.0" fill="none" stroke="rgb(0, 0, 0)" stroke-opacity="1.0" stroke-linecap="round" stroke-linejoin="round"/>
    <path d="M 138.00025939941406 56.99980545043945 C 139.65841674804688 56.2226676940918 135.9755859375 58.78877639770508 134.20443725585938 59.437950134277344" stroke-width="3.0" fill="none" stroke="rgb(0, 0, 0)" stroke-opacity="1.0" stroke-linecap="round" stroke-linejoin="round"/>
    <path d="M 91.00106048583984 146.0015869140625 C 98.48197174072266 147.56851196289062 99.11983489990234 149.63623046875 100.96077728271484 152.72695922851562" stroke-width="3.0" fill="none" stroke="rgb(0, 0, 0)" stroke-opacity="1.0" stroke-linecap="round" stroke-linejoin="round"/>
    <path d="M 138.9995574951172 136.00088500976562 C 133.9690704345703 132.75914001464844 133.89801025390625 130.15805053710938 130.66136169433594 135.1186065673828" stroke-width="3.0" fill="none" stroke="rgb(0, 0, 0)" stroke-opacity="1.0" stroke-linecap="round" stroke-linejoin="round"/>
    <path d="M 155.0008544921875 79.0006332397461 C 161.20982360839844 78.92272186279297 162.9536590576172 77.75498962402344 167.5976104736328 77.29432678222656" stroke-width="3.0" fill="none" stroke="rgb(0, 0, 0)" stroke-opacity="1.0" stroke-linecap="round" stroke-linejoin="round"/>
    <path d="M 167.0001983642578 76.00019836425781 C 164.36697387695312 75.16141510009766 165.05441284179688 72.50360870361328 166.0019989013672 76.95856475830078" stroke-width="3.0" fill="none" stroke="rgb(0, 0, 0)" stroke-opacity="1.0" stroke-linecap="round" stroke-linejoin="round"/>
    <path d="M 175.99978637695312 76.00011444091797 C 174.8701629638672 72.8573226928711 180.44528198242188 73.15914154052734 175.86358642578125 69.890625" stroke-width="3.0" fill="none" stroke="rgb(0, 0, 0)" stroke-opacity="1.0" stroke-linecap="round" stroke-linejoin="round"/>
    <path d="M 179.00018310546875 90.99932861328125 C 176.62677001953125 90.42776489257812 179.8987274169922 89.55599975585938 175.01063537597656 90.229248046875" stroke-width="3.0" fill="none" stroke="rgb(0, 0, 0)" stroke-opacity="1.0" stroke-linecap="round" stroke-linejoin="round"/>
  </g>
</svg>
