<?xml version="1.0" ?>
<svg xmlns="http://www.w3.org/2000/svg" version="1.1" width="224" height="224">
  <defs/>
  <g>
    <path d="M 86.06829071044922 71.36166381835938 C 102.0779037475586 91.4450454711914 85.88395690917969 44.72310256958008 123.98455810546875 64.4357681274414" stroke-width="3.0" fill="none" stroke="rgb(0, 0, 0)" stroke-opacity="1.0" stroke-linecap="round" stroke-linejoin="round"/>
    <path d="M 52.54050064086914 204.1717987060547 C 57.50148391723633 178.5854034423828 62.77431106567383 179.26400756835938 56.62419509887695 185.05357360839844" stroke-width="3.0" fill="none" stroke="rgb(0, 0, 0)" stroke-opacity="1.0" stroke-linecap="round" stroke-linejoin="round"/>
    <path d="M 57.58751678466797 124.94979095458984 C 11.476675033569336 155.9158477783203 8.61477279663086 153.58721923828125 -2.056854724884033 168.28871154785156" stroke-width="3.0" fill="none" stroke="rgb(0, 0, 0)" stroke-opacity="1.0" stroke-linecap="round" stroke-linejoin="round"/>
    <path d="M 152.0104522705078 104.7701644897461 C 150.6560516357422 104.62400817871094 152.61306762695312 104.8144302368164 149.4352264404297 102.3402099609375" stroke-width="3.0" fill="none" stroke="rgb(0, 0, 0)" stroke-opacity="1.0" stroke-linecap="round" stroke-linejoin="round"/>
    <path d="M 96.48521423339844 59.71342086791992 C 103.8165283203125 29.24320411682129 91.74681854248047 37.590415954589844 124.63227844238281 47.48600769042969" stroke-width="3.0" fill="none" stroke="rgb(0, 0, 0)" stroke-opacity="1.0" stroke-linecap="round" stroke-linejoin="round"/>
    <path d="M 192.5006561279297 29.982290267944336 C 192.92079162597656 28.2130126953125 190.76173400878906 30.57073211669922 193.3846435546875 30.57431411743164" stroke-width="3.0" fill="none" stroke="rgb(0, 0, 0)" stroke-opacity="1.0" stroke-linecap="round" stroke-linejoin="round"/>
    <path d="M 54.51375198364258 185.029296875 C 58.48823928833008 192.69186401367188 50.20907211303711 195.2649688720703 56.954322814941406 184.3190460205078" stroke-width="3.0" fill="none" stroke="rgb(0, 0, 0)" stroke-opacity="1.0" stroke-linecap="round" stroke-linejoin="round"/>
    <path d="M 70.04740905761719 119.72834777832031 C 81.13858032226562 120.10519409179688 72.467041015625 120.48570251464844 73.78173828125 119.16693115234375" stroke-width="3.0" fill="none" stroke="rgb(0, 0, 0)" stroke-opacity="1.0" stroke-linecap="round" stroke-linejoin="round"/>
    <path d="M 118.51339721679688 133.01841735839844 C 105.40416717529297 137.41293334960938 116.20779418945312 133.2486572265625 109.43869018554688 136.18438720703125" stroke-width="3.0" fill="none" stroke="rgb(0, 0, 0)" stroke-opacity="1.0" stroke-linecap="round" stroke-linejoin="round"/>
    <path d="M 142.9381561279297 -3.836667060852051 C 143.67434692382812 -2.842794895172119 143.50575256347656 -2.9158852100372314 143.74832153320312 -5.1691131591796875" stroke-width="3.0" fill="none" stroke="rgb(0, 0, 0)" stroke-opacity="1.0" stroke-linecap="round" stroke-linejoin="round"/>
    <path d="M 198.10858154296875 188.07899475097656 C 196.1841583251953 204.9623260498047 189.355224609375 213.79669189453125 207.9346160888672 173.39398193359375" stroke-width="3.0" fill="none" stroke="rgb(0, 0, 0)" stroke-opacity="1.0" stroke-linecap="round" stroke-linejoin="round"/>
    <path d="M 189.88272094726562 176.50228881835938 C 192.58645629882812 177.40740966796875 191.55014038085938 178.81192016601562 192.75106811523438 177.31582641601562" stroke-width="3.0" fill="none" stroke="rgb(0, 0, 0)" stroke-opacity="1.0" stroke-linecap="round" stroke-linejoin="round"/>
    <path d="M 63.379310607910156 48.3776741027832 C 85.00692749023438 28.081125259399414 98.08312225341797 66.9647445678711 91.57804107666016 40.44834518432617" stroke-width="3.0" fill="none" stroke="rgb(0, 0, 0)" stroke-opacity="1.0" stroke-linecap="round" stroke-linejoin="round"/>
    <path d="M 83.2421875 39.69231033325195 C 73.28590393066406 44.9583740234375 90.22377014160156 38.8234748840332 63.18495559692383 27.267629623413086" stroke-width="3.0" fill="none" stroke="rgb(0, 0, 0)" stroke-opacity="1.0" stroke-linecap="round" stroke-linejoin="round"/>
    <path d="M 83.04462432861328 54.8969612121582 C 79.57450866699219 55.927852630615234 97.43944549560547 23.601638793945312 102.19184112548828 54.152740478515625" stroke-width="3.0" fill="none" stroke="rgb(0, 0, 0)" stroke-opacity="1.0" stroke-linecap="round" stroke-linejoin="round"/>
    <path d="M 72.2903823852539 66.9935531616211 C 98.66520690917969 71.62400817871094 75.34437561035156 44.75630187988281 62.72520065307617 65.8991928100586" stroke-width="3.0" fill="none" stroke="rgb(0, 0, 0)" stroke-opacity="1.0" stroke-linecap="round" stroke-linejoin="round"/>
  </g>
</svg>
