<?xml version="1.0" ?>
<svg xmlns="http://www.w3.org/2000/svg" version="1.1" width="224" height="224">
  <defs/>
  <g>
    <path d="M 80.42288208007812 53.26050567626953 C 97.26200103759766 113.7305679321289 91.05854034423828 42.16852569580078 122.0291748046875 66.78854370117188" stroke-width="3.0" fill="none" stroke="rgb(0, 0, 0)" stroke-opacity="1.0" stroke-linecap="round" stroke-linejoin="round"/>
    <path d="M 52.94688034057617 201.7696533203125 C 59.26829147338867 174.82728576660156 61.274600982666016 183.43565368652344 67.24740600585938 180.26983642578125" stroke-width="3.0" fill="none" stroke="rgb(0, 0, 0)" stroke-opacity="1.0" stroke-linecap="round" stroke-linejoin="round"/>
    <path d="M 57.682037353515625 125.68012237548828 C 11.051192283630371 155.97286987304688 2.2813680171966553 157.77655029296875 -4.699038505554199 175.2156982421875" stroke-width="3.0" fill="none" stroke="rgb(0, 0, 0)" stroke-opacity="1.0" stroke-linecap="round" stroke-linejoin="round"/>
    <path d="M 122.59449768066406 78.80780029296875 C 129.74749755859375 107.01399993896484 132.3704376220703 88.50289154052734 170.05398559570312 112.98416900634766" stroke-width="3.0" fill="none" stroke="rgb(0, 0, 0)" stroke-opacity="1.0" stroke-linecap="round" stroke-linejoin="round"/>
    <path d="M 102.34147644042969 74.70907592773438 C 92.10994720458984 55.141422271728516 104.52860260009766 29.199499130249023 123.26608276367188 50.79604721069336" stroke-width="3.0" fill="none" stroke="rgb(0, 0, 0)" stroke-opacity="1.0" stroke-linecap="round" stroke-linejoin="round"/>
    <path d="M 193.7913055419922 29.776588439941406 C 193.28379821777344 30.37102508544922 195.37229919433594 29.054059982299805 194.29104614257812 29.756351470947266" stroke-width="3.0" fill="none" stroke="rgb(0, 0, 0)" stroke-opacity="1.0" stroke-linecap="round" stroke-linejoin="round"/>
    <path d="M 54.95774459838867 189.65597534179688 C 55.675960540771484 192.17210388183594 54.578224182128906 182.79612731933594 56.04182815551758 189.3927764892578" stroke-width="3.0" fill="none" stroke="rgb(0, 0, 0)" stroke-opacity="1.0" stroke-linecap="round" stroke-linejoin="round"/>
    <path d="M 66.44284057617188 122.0802230834961 C 95.62660217285156 129.2860565185547 69.94894409179688 99.15888977050781 91.41283416748047 143.28077697753906" stroke-width="3.0" fill="none" stroke="rgb(0, 0, 0)" stroke-opacity="1.0" stroke-linecap="round" stroke-linejoin="round"/>
    <path d="M 115.18013763427734 119.8542251586914 C 84.00117492675781 124.86508178710938 123.63716888427734 118.52577209472656 94.26567077636719 120.09883880615234" stroke-width="3.0" fill="none" stroke="rgb(0, 0, 0)" stroke-opacity="1.0" stroke-linecap="round" stroke-linejoin="round"/>
    <path d="M 142.862060546875 -4.034373760223389 C 143.66184997558594 -3.0015695095062256 143.48623657226562 -3.072448968887329 143.7015380859375 -5.437075138092041" stroke-width="3.0" fill="none" stroke="rgb(0, 0, 0)" stroke-opacity="1.0" stroke-linecap="round" stroke-linejoin="round"/>
    <path d="M 205.9075164794922 174.33120727539062 C 201.9002685546875 201.19403076171875 216.28500366210938 143.5436248779297 169.926513671875 112.2612075805664" stroke-width="3.0" fill="none" stroke="rgb(0, 0, 0)" stroke-opacity="1.0" stroke-linecap="round" stroke-linejoin="round"/>
    <path d="M 183.18896484375 177.93043518066406 C 184.3176727294922 178.38702392578125 183.88157653808594 177.74378967285156 183.45242309570312 178.04473876953125" stroke-width="3.0" fill="none" stroke="rgb(0, 0, 0)" stroke-opacity="1.0" stroke-linecap="round" stroke-linejoin="round"/>
    <path d="M 63.817626953125 48.85260772705078 C 106.14376831054688 18.8107967376709 84.99223327636719 86.52823638916016 100.17230987548828 41.0340576171875" stroke-width="3.0" fill="none" stroke="rgb(0, 0, 0)" stroke-opacity="1.0" stroke-linecap="round" stroke-linejoin="round"/>
    <path d="M 108.02810668945312 46.824188232421875 C 58.913330078125 30.733055114746094 90.94261169433594 37.97644805908203 63.256229400634766 27.46817398071289" stroke-width="3.0" fill="none" stroke="rgb(0, 0, 0)" stroke-opacity="1.0" stroke-linecap="round" stroke-linejoin="round"/>
    <path d="M 86.22887420654297 37.05580520629883 C 79.59294128417969 86.48489379882812 91.29366302490234 14.881061553955078 106.1945571899414 52.70549392700195" stroke-width="3.0" fill="none" stroke="rgb(0, 0, 0)" stroke-opacity="1.0" stroke-linecap="round" stroke-linejoin="round"/>
    <path d="M 63.03789520263672 65.22308349609375 C 109.02815246582031 76.35758972167969 66.25922393798828 40.458839416503906 60.47929763793945 67.66609954833984" stroke-width="3.0" fill="none" stroke="rgb(0, 0, 0)" stroke-opacity="1.0" stroke-linecap="round" stroke-linejoin="round"/>
  </g>
</svg>
