<?xml version="1.0" ?>
<svg xmlns="http://www.w3.org/2000/svg" version="1.1" width="224" height="224">
  <defs/>
  <g>
    <path d="M 71.61514282226562 87.92249298095703 C 75.69475555419922 94.64453125 70.50467681884766 88.65925598144531 71.82373809814453 80.02632141113281" stroke-width="3.0" fill="none" stroke="rgb(0, 0, 0)" stroke-opacity="1.0" stroke-linecap="round" stroke-linejoin="round"/>
    <path d="M 178.61663818359375 180.8386993408203 C 166.70071411132812 205.58778381347656 185.17750549316406 210.91961669921875 136.89352416992188 193.10427856445312" stroke-width="3.0" fill="none" stroke="rgb(0, 0, 0)" stroke-opacity="1.0" stroke-linecap="round" stroke-linejoin="round"/>
    <path d="M 115.99895477294922 134.1715850830078 C 121.1243896484375 134.50404357910156 110.66780090332031 133.9477996826172 114.18992614746094 134.1905517578125" stroke-width="3.0" fill="none" stroke="rgb(0, 0, 0)" stroke-opacity="1.0" stroke-linecap="round" stroke-linejoin="round"/>
    <path d="M 144.48582458496094 107.14038848876953 C 145.37831115722656 108.6567153930664 144.14315795898438 104.30728912353516 144.7647705078125 107.23055267333984" stroke-width="3.0" fill="none" stroke="rgb(0, 0, 0)" stroke-opacity="1.0" stroke-linecap="round" stroke-linejoin="round"/>
    <path d="M 96.69673156738281 53.83110046386719 C 104.20729064941406 45.83283615112305 82.8172836303711 25.89994239807129 91.62797546386719 57.58898162841797" stroke-width="3.0" fill="none" stroke="rgb(0, 0, 0)" stroke-opacity="1.0" stroke-linecap="round" stroke-linejoin="round"/>
    <path d="M 84.54383850097656 35.94844055175781 C 111.22686004638672 61.55816650390625 76.70790100097656 52.64242172241211 88.77135467529297 61.04312515258789" stroke-width="3.0" fill="none" stroke="rgb(0, 0, 0)" stroke-opacity="1.0" stroke-linecap="round" stroke-linejoin="round"/>
    <path d="M 178.96559143066406 172.85421752929688 C 178.24078369140625 191.41131591796875 181.26158142089844 168.63893127441406 176.55770874023438 152.7693328857422" stroke-width="3.0" fill="none" stroke="rgb(0, 0, 0)" stroke-opacity="1.0" stroke-linecap="round" stroke-linejoin="round"/>
    <path d="M 69.72712707519531 97.22378540039062 C 74.35619354248047 111.16876983642578 69.86698150634766 105.61603546142578 75.99962615966797 124.05790710449219" stroke-width="3.0" fill="none" stroke="rgb(0, 0, 0)" stroke-opacity="1.0" stroke-linecap="round" stroke-linejoin="round"/>
    <path d="M 110.47869873046875 135.14251708984375 C 114.51914978027344 134.52572631835938 106.96558380126953 134.56246948242188 106.89099884033203 138.40548706054688" stroke-width="3.0" fill="none" stroke="rgb(0, 0, 0)" stroke-opacity="1.0" stroke-linecap="round" stroke-linejoin="round"/>
    <path d="M 78.1946029663086 28.897356033325195 C 90.83851623535156 35.81231689453125 87.96308135986328 67.62995147705078 77.68683624267578 31.68791961669922" stroke-width="3.0" fill="none" stroke="rgb(0, 0, 0)" stroke-opacity="1.0" stroke-linecap="round" stroke-linejoin="round"/>
    <path d="M 103.03707122802734 207.47312927246094 C 162.32669067382812 184.5963897705078 121.70341491699219 202.71827697753906 172.77297973632812 202.83448791503906" stroke-width="3.0" fill="none" stroke="rgb(0, 0, 0)" stroke-opacity="1.0" stroke-linecap="round" stroke-linejoin="round"/>
    <path d="M 177.1697540283203 154.47824096679688 C 177.06875610351562 167.2439422607422 185.84107971191406 147.30250549316406 155.5723876953125 113.27082061767578" stroke-width="3.0" fill="none" stroke="rgb(0, 0, 0)" stroke-opacity="1.0" stroke-linecap="round" stroke-linejoin="round"/>
    <path d="M 110.54153442382812 66.89082336425781 C 109.17146301269531 55.23808288574219 131.2874298095703 99.2961196899414 116.97271728515625 39.863868713378906" stroke-width="3.0" fill="none" stroke="rgb(0, 0, 0)" stroke-opacity="1.0" stroke-linecap="round" stroke-linejoin="round"/>
    <path d="M 89.86161804199219 67.44155883789062 C 87.3162841796875 57.274169921875 89.69100952148438 69.56451416015625 77.12735748291016 64.5152587890625" stroke-width="3.0" fill="none" stroke="rgb(0, 0, 0)" stroke-opacity="1.0" stroke-linecap="round" stroke-linejoin="round"/>
    <path d="M 107.97327423095703 49.34951400756836 C 95.54986572265625 41.24625015258789 87.07382202148438 37.60112762451172 119.2059326171875 46.19586181640625" stroke-width="3.0" fill="none" stroke="rgb(0, 0, 0)" stroke-opacity="1.0" stroke-linecap="round" stroke-linejoin="round"/>
    <path d="M 74.30516052246094 72.44830322265625 C 77.4498519897461 44.25054931640625 73.44322967529297 68.67926788330078 79.28826141357422 60.96923828125" stroke-width="3.0" fill="none" stroke="rgb(0, 0, 0)" stroke-opacity="1.0" stroke-linecap="round" stroke-linejoin="round"/>
    <path d="M 136.81350708007812 100.07113647460938 C 146.47779846191406 105.5291976928711 140.0052490234375 103.62596893310547 147.70068359375 107.93667602539062" stroke-width="3.0" fill="none" stroke="rgb(0, 0, 0)" stroke-opacity="1.0" stroke-linecap="round" stroke-linejoin="round"/>
    <path d="M 118.27876281738281 74.40809631347656 C 120.84076690673828 100.25534057617188 139.01988220214844 104.05169677734375 120.52760314941406 89.2120132446289" stroke-width="3.0" fill="none" stroke="rgb(0, 0, 0)" stroke-opacity="1.0" stroke-linecap="round" stroke-linejoin="round"/>
    <path d="M 88.46543884277344 77.7234878540039 C 99.15199279785156 85.39679718017578 100.30318450927734 80.33343505859375 105.6440658569336 45.162689208984375" stroke-width="3.0" fill="none" stroke="rgb(0, 0, 0)" stroke-opacity="1.0" stroke-linecap="round" stroke-linejoin="round"/>
    <path d="M 91.26889038085938 137.58795166015625 C 88.88729858398438 137.518310546875 85.55806732177734 130.57301330566406 93.90689086914062 154.97691345214844" stroke-width="3.0" fill="none" stroke="rgb(0, 0, 0)" stroke-opacity="1.0" stroke-linecap="round" stroke-linejoin="round"/>
    <path d="M 96.4527587890625 57.167259216308594 C 79.66182708740234 35.034759521484375 116.61874389648438 35.22683334350586 101.92247009277344 51.03815841674805" stroke-width="3.0" fill="none" stroke="rgb(0, 0, 0)" stroke-opacity="1.0" stroke-linecap="round" stroke-linejoin="round"/>
    <path d="M 111.07566833496094 64.5409927368164 C 73.53475189208984 80.12332916259766 117.5129165649414 81.36106872558594 98.16876220703125 72.03011322021484" stroke-width="3.0" fill="none" stroke="rgb(0, 0, 0)" stroke-opacity="1.0" stroke-linecap="round" stroke-linejoin="round"/>
    <path d="M 69.67943572998047 97.67941284179688 C 79.67289733886719 104.0699691772461 64.92164611816406 99.18601989746094 71.54212951660156 84.21894073486328" stroke-width="3.0" fill="none" stroke="rgb(0, 0, 0)" stroke-opacity="1.0" stroke-linecap="round" stroke-linejoin="round"/>
    <path d="M 93.4107666015625 97.2322006225586 C 102.15469360351562 98.87806701660156 118.3226547241211 93.02974700927734 98.24197387695312 96.17529296875" stroke-width="3.0" fill="none" stroke="rgb(0, 0, 0)" stroke-opacity="1.0" stroke-linecap="round" stroke-linejoin="round"/>
    <path d="M 157.8451385498047 151.45957946777344 C 160.47903442382812 151.51162719726562 149.2805633544922 145.7322998046875 140.15777587890625 155.2218780517578" stroke-width="3.0" fill="none" stroke="rgb(0, 0, 0)" stroke-opacity="1.0" stroke-linecap="round" stroke-linejoin="round"/>
    <path d="M 102.01708984375 67.02320861816406 C 117.54998016357422 47.48515701293945 120.9532241821289 84.80290985107422 117.59806823730469 56.39039993286133" stroke-width="3.0" fill="none" stroke="rgb(0, 0, 0)" stroke-opacity="1.0" stroke-linecap="round" stroke-linejoin="round"/>
    <path d="M 107.77445220947266 121.17134857177734 C 107.01038360595703 121.7648696899414 108.64807891845703 118.90963745117188 114.13848114013672 120.02937316894531" stroke-width="3.0" fill="none" stroke="rgb(0, 0, 0)" stroke-opacity="1.0" stroke-linecap="round" stroke-linejoin="round"/>
    <path d="M 88.61416625976562 127.90182495117188 C 97.01773834228516 131.04684448242188 84.2579574584961 139.89389038085938 80.52635192871094 133.81204223632812" stroke-width="3.0" fill="none" stroke="rgb(0, 0, 0)" stroke-opacity="1.0" stroke-linecap="round" stroke-linejoin="round"/>
    <path d="M 119.6672134399414 30.760841369628906 C 114.41618347167969 31.991451263427734 125.0374755859375 63.046661376953125 121.2475814819336 30.238426208496094" stroke-width="3.0" fill="none" stroke="rgb(0, 0, 0)" stroke-opacity="1.0" stroke-linecap="round" stroke-linejoin="round"/>
    <path d="M 126.31710815429688 110.71268463134766 C 126.30077362060547 110.66311645507812 126.0762939453125 110.95796966552734 125.94035339355469 110.79582977294922" stroke-width="3.0" fill="none" stroke="rgb(0, 0, 0)" stroke-opacity="1.0" stroke-linecap="round" stroke-linejoin="round"/>
    <path d="M 106.36345672607422 40.44857406616211 C 86.50105285644531 45.78329086303711 105.12301635742188 32.13203430175781 100.30206298828125 57.42851638793945" stroke-width="3.0" fill="none" stroke="rgb(0, 0, 0)" stroke-opacity="1.0" stroke-linecap="round" stroke-linejoin="round"/>
    <path d="M 74.77050018310547 58.31330871582031 C 95.10990142822266 -7.50577449798584 79.52755737304688 92.47162628173828 76.1360855102539 28.320018768310547" stroke-width="3.0" fill="none" stroke="rgb(0, 0, 0)" stroke-opacity="1.0" stroke-linecap="round" stroke-linejoin="round"/>
  </g>
</svg>
