<?xml version="1.0" ?>
<svg xmlns="http://www.w3.org/2000/svg" version="1.1" width="224" height="224">
  <defs/>
  <g>
    <path d="M 80.44258117675781 51.77431869506836 C 100.44922637939453 115.17068481445312 88.6216049194336 39.428466796875 123.62754821777344 67.11219787597656" stroke-width="3.0" fill="none" stroke="rgb(0, 0, 0)" stroke-opacity="1.0" stroke-linecap="round" stroke-linejoin="round"/>
    <path d="M 53.01677703857422 202.33001708984375 C 58.414459228515625 175.84408569335938 56.04326629638672 185.6265411376953 65.74589538574219 180.14492797851562" stroke-width="3.0" fill="none" stroke="rgb(0, 0, 0)" stroke-opacity="1.0" stroke-linecap="round" stroke-linejoin="round"/>
    <path d="M 58.60261917114258 124.18761444091797 C 10.707612991333008 155.1948699951172 2.9602174758911133 157.3275909423828 -3.8938639163970947 174.23265075683594" stroke-width="3.0" fill="none" stroke="rgb(0, 0, 0)" stroke-opacity="1.0" stroke-linecap="round" stroke-linejoin="round"/>
    <path d="M 123.49221801757812 78.32909393310547 C 131.67796325683594 107.71441650390625 136.66925048828125 89.60884094238281 172.0983123779297 114.67276000976562" stroke-width="3.0" fill="none" stroke="rgb(0, 0, 0)" stroke-opacity="1.0" stroke-linecap="round" stroke-linejoin="round"/>
    <path d="M 101.04595947265625 73.34638977050781 C 89.87939453125 53.130558013916016 104.56572723388672 28.178897857666016 123.87126922607422 50.870689392089844" stroke-width="3.0" fill="none" stroke="rgb(0, 0, 0)" stroke-opacity="1.0" stroke-linecap="round" stroke-linejoin="round"/>
    <path d="M 193.9739227294922 32.264339447021484 C 193.80142211914062 33.58195495605469 194.47915649414062 27.406160354614258 193.7766571044922 29.00497055053711" stroke-width="3.0" fill="none" stroke="rgb(0, 0, 0)" stroke-opacity="1.0" stroke-linecap="round" stroke-linejoin="round"/>
    <path d="M 55.3548469543457 190.97520446777344 C 54.21770095825195 194.09429931640625 56.32231521606445 185.44996643066406 52.83034133911133 186.9548797607422" stroke-width="3.0" fill="none" stroke="rgb(0, 0, 0)" stroke-opacity="1.0" stroke-linecap="round" stroke-linejoin="round"/>
    <path d="M 66.73169708251953 119.50508880615234 C 101.69169616699219 126.87483215332031 67.72245025634766 102.02154541015625 89.80904388427734 141.9952850341797" stroke-width="3.0" fill="none" stroke="rgb(0, 0, 0)" stroke-opacity="1.0" stroke-linecap="round" stroke-linejoin="round"/>
    <path d="M 118.85507202148438 119.44041442871094 C 86.77195739746094 118.81916046142578 124.79969787597656 119.66172790527344 94.48814392089844 122.23907470703125" stroke-width="3.0" fill="none" stroke="rgb(0, 0, 0)" stroke-opacity="1.0" stroke-linecap="round" stroke-linejoin="round"/>
    <path d="M 142.862060546875 -4.034373760223389 C 143.66184997558594 -3.0015695095062256 143.48623657226562 -3.072448968887329 143.7015380859375 -5.437075138092041" stroke-width="3.0" fill="none" stroke="rgb(0, 0, 0)" stroke-opacity="1.0" stroke-linecap="round" stroke-linejoin="round"/>
    <path d="M 205.48016357421875 171.17788696289062 C 200.52871704101562 200.26821899414062 217.6363983154297 142.5137939453125 169.16641235351562 112.82373809814453" stroke-width="3.0" fill="none" stroke="rgb(0, 0, 0)" stroke-opacity="1.0" stroke-linecap="round" stroke-linejoin="round"/>
    <path d="M 189.56309509277344 173.823486328125 C 189.64779663085938 173.2471160888672 187.8720703125 172.47030639648438 189.02342224121094 173.25306701660156" stroke-width="3.0" fill="none" stroke="rgb(0, 0, 0)" stroke-opacity="1.0" stroke-linecap="round" stroke-linejoin="round"/>
    <path d="M 64.20549774169922 48.22727584838867 C 106.79341888427734 18.30893325805664 88.02001953125 83.08491516113281 98.3534927368164 39.08030700683594" stroke-width="3.0" fill="none" stroke="rgb(0, 0, 0)" stroke-opacity="1.0" stroke-linecap="round" stroke-linejoin="round"/>
    <path d="M 108.67131805419922 45.28550338745117 C 58.37950897216797 34.013362884521484 93.93219757080078 42.28049087524414 64.37157440185547 27.500822067260742" stroke-width="3.0" fill="none" stroke="rgb(0, 0, 0)" stroke-opacity="1.0" stroke-linecap="round" stroke-linejoin="round"/>
    <path d="M 90.8865966796875 46.32133483886719 C 76.31657409667969 74.91862487792969 86.2305679321289 15.232341766357422 107.05435943603516 50.37285232543945" stroke-width="3.0" fill="none" stroke="rgb(0, 0, 0)" stroke-opacity="1.0" stroke-linecap="round" stroke-linejoin="round"/>
    <path d="M 64.0853042602539 65.58232116699219 C 109.62297058105469 78.18877410888672 65.07554626464844 41.056114196777344 61.54542922973633 70.69625854492188" stroke-width="3.0" fill="none" stroke="rgb(0, 0, 0)" stroke-opacity="1.0" stroke-linecap="round" stroke-linejoin="round"/>
  </g>
</svg>
