<?xml version="1.0" ?>
<svg xmlns="http://www.w3.org/2000/svg" version="1.1" width="224" height="224">
  <defs/>
  <g>
    <path d="M 78.9990005493164 54.41708755493164 C 99.84270477294922 115.87290954589844 87.12023162841797 38.88777160644531 123.90971374511719 67.34429931640625" stroke-width="3.0" fill="none" stroke="rgb(0, 0, 0)" stroke-opacity="1.0" stroke-linecap="round" stroke-linejoin="round"/>
    <path d="M 52.12832260131836 204.2608184814453 C 59.09886932373047 172.6796417236328 57.27091979980469 185.02127075195312 71.39154815673828 181.28839111328125" stroke-width="3.0" fill="none" stroke="rgb(0, 0, 0)" stroke-opacity="1.0" stroke-linecap="round" stroke-linejoin="round"/>
    <path d="M 57.932403564453125 125.56543731689453 C 11.01025390625 155.60552978515625 2.6923108100891113 157.00289916992188 -4.584496021270752 173.49171447753906" stroke-width="3.0" fill="none" stroke="rgb(0, 0, 0)" stroke-opacity="1.0" stroke-linecap="round" stroke-linejoin="round"/>
    <path d="M 123.6842269897461 77.37740325927734 C 128.48741149902344 107.2730712890625 134.49571228027344 88.5119857788086 171.2901153564453 114.12702941894531" stroke-width="3.0" fill="none" stroke="rgb(0, 0, 0)" stroke-opacity="1.0" stroke-linecap="round" stroke-linejoin="round"/>
    <path d="M 100.2384262084961 74.97305297851562 C 90.25749969482422 47.758583068847656 101.26056671142578 27.195919036865234 125.27271270751953 51.68585968017578" stroke-width="3.0" fill="none" stroke="rgb(0, 0, 0)" stroke-opacity="1.0" stroke-linecap="round" stroke-linejoin="round"/>
    <path d="M 193.87557983398438 30.012311935424805 C 190.50682067871094 31.192699432373047 194.9591522216797 30.020666122436523 193.14210510253906 30.91800880432129" stroke-width="3.0" fill="none" stroke="rgb(0, 0, 0)" stroke-opacity="1.0" stroke-linecap="round" stroke-linejoin="round"/>
    <path d="M 54.852699279785156 190.87123107910156 C 52.706809997558594 193.81463623046875 57.031593322753906 185.0264129638672 52.95263671875 186.3615264892578" stroke-width="3.0" fill="none" stroke="rgb(0, 0, 0)" stroke-opacity="1.0" stroke-linecap="round" stroke-linejoin="round"/>
    <path d="M 66.0981216430664 120.602294921875 C 97.17155456542969 131.48912048339844 65.67159271240234 105.69757080078125 90.99474334716797 140.96710205078125" stroke-width="3.0" fill="none" stroke="rgb(0, 0, 0)" stroke-opacity="1.0" stroke-linecap="round" stroke-linejoin="round"/>
    <path d="M 119.22084045410156 118.91688537597656 C 89.54965209960938 120.18974304199219 126.49887084960938 117.91110229492188 95.52079010009766 121.58843231201172" stroke-width="3.0" fill="none" stroke="rgb(0, 0, 0)" stroke-opacity="1.0" stroke-linecap="round" stroke-linejoin="round"/>
    <path d="M 142.862060546875 -4.034373760223389 C 143.66184997558594 -3.0015695095062256 143.48623657226562 -3.072448968887329 143.7015380859375 -5.437075138092041" stroke-width="3.0" fill="none" stroke="rgb(0, 0, 0)" stroke-opacity="1.0" stroke-linecap="round" stroke-linejoin="round"/>
    <path d="M 205.17910766601562 169.40989685058594 C 200.3615264892578 202.49610900878906 217.85040283203125 139.5880889892578 169.3280029296875 112.7884521484375" stroke-width="3.0" fill="none" stroke="rgb(0, 0, 0)" stroke-opacity="1.0" stroke-linecap="round" stroke-linejoin="round"/>
    <path d="M 189.61314392089844 174.52137756347656 C 190.4688720703125 175.28343200683594 189.91017150878906 174.0586700439453 190.29910278320312 174.0594024658203" stroke-width="3.0" fill="none" stroke="rgb(0, 0, 0)" stroke-opacity="1.0" stroke-linecap="round" stroke-linejoin="round"/>
    <path d="M 64.18605041503906 47.01838302612305 C 105.20098876953125 21.792299270629883 88.18389892578125 84.04768371582031 93.73883056640625 40.08422088623047" stroke-width="3.0" fill="none" stroke="rgb(0, 0, 0)" stroke-opacity="1.0" stroke-linecap="round" stroke-linejoin="round"/>
    <path d="M 105.95921325683594 44.65923309326172 C 59.8814811706543 33.637306213378906 92.07412719726562 41.02784729003906 63.4769401550293 27.192106246948242" stroke-width="3.0" fill="none" stroke="rgb(0, 0, 0)" stroke-opacity="1.0" stroke-linecap="round" stroke-linejoin="round"/>
    <path d="M 87.5821533203125 48.92763900756836 C 76.43224334716797 71.7511978149414 90.66968536376953 12.861857414245605 105.56401824951172 52.76884460449219" stroke-width="3.0" fill="none" stroke="rgb(0, 0, 0)" stroke-opacity="1.0" stroke-linecap="round" stroke-linejoin="round"/>
    <path d="M 62.58692932128906 65.09446716308594 C 108.24666595458984 73.16888427734375 64.33021545410156 37.78959274291992 62.06254196166992 68.7525405883789" stroke-width="3.0" fill="none" stroke="rgb(0, 0, 0)" stroke-opacity="1.0" stroke-linecap="round" stroke-linejoin="round"/>
  </g>
</svg>
