<?xml version="1.0" ?>
<svg xmlns="http://www.w3.org/2000/svg" version="1.1" width="224" height="224">
  <defs/>
  <g>
    <path d="M 70.01547241210938 85.98595428466797 C 73.61019134521484 93.81952667236328 69.19670867919922 84.91727447509766 70.96436309814453 80.98542022705078" stroke-width="3.0" fill="none" stroke="rgb(0, 0, 0)" stroke-opacity="1.0" stroke-linecap="round" stroke-linejoin="round"/>
    <path d="M 178.79502868652344 180.3418426513672 C 167.91441345214844 206.52142333984375 185.36341857910156 207.57960510253906 137.8447723388672 193.78292846679688" stroke-width="3.0" fill="none" stroke="rgb(0, 0, 0)" stroke-opacity="1.0" stroke-linecap="round" stroke-linejoin="round"/>
    <path d="M 115.02576446533203 133.71315002441406 C 119.1387939453125 135.5962371826172 112.72142028808594 131.74134826660156 115.25728607177734 133.9125518798828" stroke-width="3.0" fill="none" stroke="rgb(0, 0, 0)" stroke-opacity="1.0" stroke-linecap="round" stroke-linejoin="round"/>
    <path d="M 143.16404724121094 106.53272247314453 C 144.78382873535156 107.25125885009766 143.9456787109375 104.97998809814453 145.0834197998047 106.65526580810547" stroke-width="3.0" fill="none" stroke="rgb(0, 0, 0)" stroke-opacity="1.0" stroke-linecap="round" stroke-linejoin="round"/>
    <path d="M 97.39533996582031 55.87396240234375 C 105.50615692138672 41.702388763427734 84.1412353515625 31.8895320892334 92.37308502197266 56.56085205078125" stroke-width="3.0" fill="none" stroke="rgb(0, 0, 0)" stroke-opacity="1.0" stroke-linecap="round" stroke-linejoin="round"/>
    <path d="M 85.7658462524414 36.628387451171875 C 114.68363189697266 60.25179672241211 77.46773529052734 49.12086486816406 88.58087921142578 58.47441101074219" stroke-width="3.0" fill="none" stroke="rgb(0, 0, 0)" stroke-opacity="1.0" stroke-linecap="round" stroke-linejoin="round"/>
    <path d="M 178.43460083007812 173.80604553222656 C 177.9446563720703 191.4394989013672 181.31858825683594 170.6338348388672 176.78594970703125 154.7185821533203" stroke-width="3.0" fill="none" stroke="rgb(0, 0, 0)" stroke-opacity="1.0" stroke-linecap="round" stroke-linejoin="round"/>
    <path d="M 70.656005859375 100.11315155029297 C 73.90074157714844 115.1263427734375 70.11333465576172 111.1639633178711 75.35189819335938 123.89727020263672" stroke-width="3.0" fill="none" stroke="rgb(0, 0, 0)" stroke-opacity="1.0" stroke-linecap="round" stroke-linejoin="round"/>
    <path d="M 123.0687484741211 134.99879455566406 C 119.37628936767578 135.31784057617188 105.51073455810547 135.53369140625 106.70301818847656 138.33135986328125" stroke-width="3.0" fill="none" stroke="rgb(0, 0, 0)" stroke-opacity="1.0" stroke-linecap="round" stroke-linejoin="round"/>
    <path d="M 77.70471954345703 28.664461135864258 C 91.12112426757812 39.02379608154297 89.51445007324219 63.28346633911133 78.94319152832031 31.709667205810547" stroke-width="3.0" fill="none" stroke="rgb(0, 0, 0)" stroke-opacity="1.0" stroke-linecap="round" stroke-linejoin="round"/>
    <path d="M 102.91997528076172 208.54884338378906 C 163.64566040039062 184.9499969482422 120.93375396728516 202.78515625 173.41725158691406 201.88613891601562" stroke-width="3.0" fill="none" stroke="rgb(0, 0, 0)" stroke-opacity="1.0" stroke-linecap="round" stroke-linejoin="round"/>
    <path d="M 178.00912475585938 152.069091796875 C 175.69639587402344 163.76498413085938 185.08360290527344 148.93783569335938 156.68666076660156 113.96221160888672" stroke-width="3.0" fill="none" stroke="rgb(0, 0, 0)" stroke-opacity="1.0" stroke-linecap="round" stroke-linejoin="round"/>
    <path d="M 109.68341827392578 66.96553039550781 C 110.13276672363281 55.35896301269531 131.70289611816406 93.91587829589844 117.59491729736328 37.451358795166016" stroke-width="3.0" fill="none" stroke="rgb(0, 0, 0)" stroke-opacity="1.0" stroke-linecap="round" stroke-linejoin="round"/>
    <path d="M 88.79360961914062 67.74778747558594 C 84.83946990966797 55.851417541503906 85.208251953125 67.91154479980469 76.44817352294922 65.914306640625" stroke-width="3.0" fill="none" stroke="rgb(0, 0, 0)" stroke-opacity="1.0" stroke-linecap="round" stroke-linejoin="round"/>
    <path d="M 106.23912811279297 47.3309211730957 C 92.38072204589844 39.85268020629883 84.69458770751953 36.011268615722656 121.27590942382812 47.64716339111328" stroke-width="3.0" fill="none" stroke="rgb(0, 0, 0)" stroke-opacity="1.0" stroke-linecap="round" stroke-linejoin="round"/>
    <path d="M 75.0707015991211 71.91639709472656 C 74.77025604248047 44.66251754760742 73.61553955078125 70.0412826538086 76.84559631347656 63.89812088012695" stroke-width="3.0" fill="none" stroke="rgb(0, 0, 0)" stroke-opacity="1.0" stroke-linecap="round" stroke-linejoin="round"/>
    <path d="M 138.9407958984375 100.86287689208984 C 145.8367919921875 105.42749786376953 140.67144775390625 102.84088134765625 148.33480834960938 109.03873443603516" stroke-width="3.0" fill="none" stroke="rgb(0, 0, 0)" stroke-opacity="1.0" stroke-linecap="round" stroke-linejoin="round"/>
    <path d="M 118.84615325927734 73.26416778564453 C 123.51561737060547 103.1985092163086 139.5792999267578 102.9037857055664 122.7613525390625 91.50679016113281" stroke-width="3.0" fill="none" stroke="rgb(0, 0, 0)" stroke-opacity="1.0" stroke-linecap="round" stroke-linejoin="round"/>
    <path d="M 86.68436431884766 77.38218688964844 C 97.83717346191406 85.87617492675781 97.04708099365234 79.57250213623047 105.55402374267578 52.41891860961914" stroke-width="3.0" fill="none" stroke="rgb(0, 0, 0)" stroke-opacity="1.0" stroke-linecap="round" stroke-linejoin="round"/>
    <path d="M 90.65476989746094 132.72080993652344 C 79.27731323242188 136.31491088867188 75.7967758178711 147.87428283691406 86.74150085449219 138.8702392578125" stroke-width="3.0" fill="none" stroke="rgb(0, 0, 0)" stroke-opacity="1.0" stroke-linecap="round" stroke-linejoin="round"/>
    <path d="M 96.9892807006836 53.60600280761719 C 84.87152099609375 37.56920623779297 112.12859344482422 40.837310791015625 104.48330688476562 49.33985137939453" stroke-width="3.0" fill="none" stroke="rgb(0, 0, 0)" stroke-opacity="1.0" stroke-linecap="round" stroke-linejoin="round"/>
    <path d="M 110.82257080078125 64.97000885009766 C 77.3953628540039 77.87283325195312 121.86431884765625 82.91560363769531 96.41060638427734 73.07231903076172" stroke-width="3.0" fill="none" stroke="rgb(0, 0, 0)" stroke-opacity="1.0" stroke-linecap="round" stroke-linejoin="round"/>
    <path d="M 70.93234252929688 98.40959930419922 C 77.72064971923828 98.04669952392578 67.0084228515625 103.62651062011719 70.57062530517578 84.09391021728516" stroke-width="3.0" fill="none" stroke="rgb(0, 0, 0)" stroke-opacity="1.0" stroke-linecap="round" stroke-linejoin="round"/>
    <path d="M 94.0518569946289 96.42635345458984 C 106.04063415527344 99.18315887451172 119.6754379272461 91.4881362915039 100.45264434814453 94.52471160888672" stroke-width="3.0" fill="none" stroke="rgb(0, 0, 0)" stroke-opacity="1.0" stroke-linecap="round" stroke-linejoin="round"/>
    <path d="M 158.46249389648438 150.22946166992188 C 158.53074645996094 151.51670837402344 151.2187042236328 146.3147430419922 141.4000701904297 154.38009643554688" stroke-width="3.0" fill="none" stroke="rgb(0, 0, 0)" stroke-opacity="1.0" stroke-linecap="round" stroke-linejoin="round"/>
    <path d="M 100.76356506347656 66.21735382080078 C 114.91588592529297 48.299869537353516 123.79779815673828 81.15245819091797 118.0030746459961 57.39728927612305" stroke-width="3.0" fill="none" stroke="rgb(0, 0, 0)" stroke-opacity="1.0" stroke-linecap="round" stroke-linejoin="round"/>
    <path d="M 103.74955749511719 123.57357788085938 C 106.59503173828125 122.53026580810547 103.94013977050781 120.92294311523438 112.82587432861328 122.40643310546875" stroke-width="3.0" fill="none" stroke="rgb(0, 0, 0)" stroke-opacity="1.0" stroke-linecap="round" stroke-linejoin="round"/>
    <path d="M 84.9065933227539 132.6845703125 C 89.84941864013672 127.59738159179688 85.36076354980469 140.06922912597656 85.34577178955078 137.4259490966797" stroke-width="3.0" fill="none" stroke="rgb(0, 0, 0)" stroke-opacity="1.0" stroke-linecap="round" stroke-linejoin="round"/>
    <path d="M 118.9606704711914 31.558046340942383 C 115.75028991699219 36.67055892944336 125.5802993774414 57.51168441772461 121.3450927734375 29.68752098083496" stroke-width="3.0" fill="none" stroke="rgb(0, 0, 0)" stroke-opacity="1.0" stroke-linecap="round" stroke-linejoin="round"/>
    <path d="M 127.1773681640625 109.86416625976562 C 127.21589660644531 111.29761505126953 126.12812042236328 111.51456451416016 126.84396362304688 110.76634216308594" stroke-width="3.0" fill="none" stroke="rgb(0, 0, 0)" stroke-opacity="1.0" stroke-linecap="round" stroke-linejoin="round"/>
    <path d="M 107.35523986816406 40.3279914855957 C 88.55158996582031 46.99797821044922 108.78982543945312 35.07100296020508 100.50360870361328 59.13955307006836" stroke-width="3.0" fill="none" stroke="rgb(0, 0, 0)" stroke-opacity="1.0" stroke-linecap="round" stroke-linejoin="round"/>
    <path d="M 74.83515930175781 55.67671585083008 C 96.48788452148438 -3.6495156288146973 76.82398223876953 89.82827758789062 75.78553009033203 28.110097885131836" stroke-width="3.0" fill="none" stroke="rgb(0, 0, 0)" stroke-opacity="1.0" stroke-linecap="round" stroke-linejoin="round"/>
  </g>
</svg>
