<?xml version="1.0" ?>
<svg xmlns="http://www.w3.org/2000/svg" version="1.1" width="224" height="224">
  <defs/>
  <g>
    <path d="M 141.0533905029297 95.13719177246094 C 141.13552856445312 95.53539276123047 140.68055725097656 94.77198791503906 140.91822814941406 95.27973937988281" stroke-width="3.0" fill="none" stroke="rgb(0, 0, 0)" stroke-opacity="1.0" stroke-linecap="round" stroke-linejoin="round"/>
    <path d="M 177.45465087890625 133.8241729736328 C 179.3104248046875 135.83407592773438 165.26019287109375 136.66896057128906 164.2035369873047 138.06336975097656" stroke-width="3.0" fill="none" stroke="rgb(0, 0, 0)" stroke-opacity="1.0" stroke-linecap="round" stroke-linejoin="round"/>
    <path d="M 84.09150695800781 139.3913116455078 C 87.46038055419922 141.20555114746094 80.521240234375 124.4761962890625 88.2563247680664 109.62239837646484" stroke-width="3.0" fill="none" stroke="rgb(0, 0, 0)" stroke-opacity="1.0" stroke-linecap="round" stroke-linejoin="round"/>
    <path d="M 95.3571548461914 130.04627990722656 C 100.97039794921875 123.90220642089844 101.8675765991211 120.86862182617188 98.78349304199219 126.84268951416016" stroke-width="3.0" fill="none" stroke="rgb(0, 0, 0)" stroke-opacity="1.0" stroke-linecap="round" stroke-linejoin="round"/>
    <path d="M 166.6089324951172 83.242431640625 C 166.09320068359375 83.1026840209961 166.47161865234375 82.51921081542969 166.17547607421875 82.46151733398438" stroke-width="3.0" fill="none" stroke="rgb(0, 0, 0)" stroke-opacity="1.0" stroke-linecap="round" stroke-linejoin="round"/>
    <path d="M 128.36900329589844 58.285579681396484 C 125.24829864501953 59.930885314941406 126.22615051269531 60.282127380371094 126.51637268066406 59.608089447021484" stroke-width="3.0" fill="none" stroke="rgb(0, 0, 0)" stroke-opacity="1.0" stroke-linecap="round" stroke-linejoin="round"/>
    <path d="M 107.78948974609375 145.8103485107422 C 154.31805419921875 140.3592071533203 139.05482482910156 145.17779541015625 143.1586456298828 141.18650817871094" stroke-width="3.0" fill="none" stroke="rgb(0, 0, 0)" stroke-opacity="1.0" stroke-linecap="round" stroke-linejoin="round"/>
    <path d="M 128.67578125 98.46189880371094 C 127.0911636352539 104.7922134399414 128.20445251464844 96.38561248779297 128.6241912841797 99.48677825927734" stroke-width="3.0" fill="none" stroke="rgb(0, 0, 0)" stroke-opacity="1.0" stroke-linecap="round" stroke-linejoin="round"/>
    <path d="M 86.03677368164062 131.7403564453125 C 89.45600128173828 107.16700744628906 74.80170440673828 112.63839721679688 85.6471939086914 149.29541015625" stroke-width="3.0" fill="none" stroke="rgb(0, 0, 0)" stroke-opacity="1.0" stroke-linecap="round" stroke-linejoin="round"/>
    <path d="M 135.38441467285156 51.207305908203125 C 136.08706665039062 51.15435791015625 135.5061798095703 50.72126770019531 135.17527770996094 51.27982711791992" stroke-width="3.0" fill="none" stroke="rgb(0, 0, 0)" stroke-opacity="1.0" stroke-linecap="round" stroke-linejoin="round"/>
    <path d="M 82.6242446899414 146.92723083496094 C 96.56674194335938 150.66339111328125 112.0131607055664 143.10842895507812 82.1772232055664 145.6241455078125" stroke-width="3.0" fill="none" stroke="rgb(0, 0, 0)" stroke-opacity="1.0" stroke-linecap="round" stroke-linejoin="round"/>
    <path d="M 146.9337921142578 155.2005615234375 C 142.1534881591797 158.81687927246094 145.69619750976562 137.01467895507812 143.3697052001953 144.2041778564453" stroke-width="3.0" fill="none" stroke="rgb(0, 0, 0)" stroke-opacity="1.0" stroke-linecap="round" stroke-linejoin="round"/>
    <path d="M 166.4510040283203 82.37041473388672 C 165.74972534179688 81.98793029785156 167.0248260498047 83.20121002197266 166.8604278564453 83.00212860107422" stroke-width="3.0" fill="none" stroke="rgb(0, 0, 0)" stroke-opacity="1.0" stroke-linecap="round" stroke-linejoin="round"/>
    <path d="M 165.99044799804688 83.0765151977539 C 166.4084014892578 82.55581665039062 166.70314025878906 83.26100158691406 166.47860717773438 82.85277557373047" stroke-width="3.0" fill="none" stroke="rgb(0, 0, 0)" stroke-opacity="1.0" stroke-linecap="round" stroke-linejoin="round"/>
    <path d="M 179.4691162109375 68.90033721923828 C 188.1622772216797 73.36988830566406 184.0812225341797 75.86754608154297 186.4589080810547 77.97535705566406" stroke-width="3.0" fill="none" stroke="rgb(0, 0, 0)" stroke-opacity="1.0" stroke-linecap="round" stroke-linejoin="round"/>
    <path d="M 185.9876708984375 87.87533569335938 C 185.99867248535156 87.86121368408203 186.3741455078125 87.93344116210938 186.22975158691406 87.85446166992188" stroke-width="3.0" fill="none" stroke="rgb(0, 0, 0)" stroke-opacity="1.0" stroke-linecap="round" stroke-linejoin="round"/>
  </g>
</svg>
