<?xml version="1.0" ?>
<svg xmlns="http://www.w3.org/2000/svg" version="1.1" width="224" height="224">
  <defs/>
  <g>
    <path d="M 81.79564666748047 71.35881042480469 C 106.41020965576172 98.17726135253906 85.5962142944336 41.36805725097656 124.21945190429688 64.52183532714844" stroke-width="3.0" fill="none" stroke="rgb(0, 0, 0)" stroke-opacity="1.0" stroke-linecap="round" stroke-linejoin="round"/>
    <path d="M 50.83055114746094 200.81349182128906 C 55.60817337036133 180.4666290283203 62.13301086425781 178.72715759277344 56.384944915771484 183.50936889648438" stroke-width="3.0" fill="none" stroke="rgb(0, 0, 0)" stroke-opacity="1.0" stroke-linecap="round" stroke-linejoin="round"/>
    <path d="M 58.19869613647461 124.85633850097656 C 11.080198287963867 155.21881103515625 7.740488529205322 153.92770385742188 -2.2439932823181152 168.63653564453125" stroke-width="3.0" fill="none" stroke="rgb(0, 0, 0)" stroke-opacity="1.0" stroke-linecap="round" stroke-linejoin="round"/>
    <path d="M 152.82391357421875 103.32118225097656 C 150.475830078125 102.1915283203125 152.35733032226562 101.43878173828125 148.854736328125 100.64258575439453" stroke-width="3.0" fill="none" stroke="rgb(0, 0, 0)" stroke-opacity="1.0" stroke-linecap="round" stroke-linejoin="round"/>
    <path d="M 96.78227233886719 60.39335250854492 C 100.37303924560547 36.112342834472656 95.75399780273438 34.45657730102539 123.843994140625 48.6427116394043" stroke-width="3.0" fill="none" stroke="rgb(0, 0, 0)" stroke-opacity="1.0" stroke-linecap="round" stroke-linejoin="round"/>
    <path d="M 193.3846435546875 29.57719612121582 C 192.75616455078125 30.745689392089844 193.8306121826172 33.042781829833984 189.91201782226562 31.624317169189453" stroke-width="3.0" fill="none" stroke="rgb(0, 0, 0)" stroke-opacity="1.0" stroke-linecap="round" stroke-linejoin="round"/>
    <path d="M 55.55636978149414 184.9120330810547 C 57.23154067993164 190.62306213378906 46.30854034423828 195.14564514160156 54.35104751586914 189.95166015625" stroke-width="3.0" fill="none" stroke="rgb(0, 0, 0)" stroke-opacity="1.0" stroke-linecap="round" stroke-linejoin="round"/>
    <path d="M 67.16807556152344 120.06282043457031 C 77.99244689941406 122.05272674560547 63.513980865478516 119.27106475830078 68.09515380859375 120.50352478027344" stroke-width="3.0" fill="none" stroke="rgb(0, 0, 0)" stroke-opacity="1.0" stroke-linecap="round" stroke-linejoin="round"/>
    <path d="M 120.8808822631836 134.283935546875 C 106.05904388427734 133.300048828125 123.59976959228516 131.831787109375 109.12189483642578 135.53399658203125" stroke-width="3.0" fill="none" stroke="rgb(0, 0, 0)" stroke-opacity="1.0" stroke-linecap="round" stroke-linejoin="round"/>
    <path d="M 142.8624725341797 -4.033193111419678 C 143.66184997558594 -3.0006208419799805 143.48629760742188 -3.071514368057251 143.70176696777344 -5.435474872589111" stroke-width="3.0" fill="none" stroke="rgb(0, 0, 0)" stroke-opacity="1.0" stroke-linecap="round" stroke-linejoin="round"/>
    <path d="M 199.05882263183594 183.4727325439453 C 190.83978271484375 205.88299560546875 188.94142150878906 221.59791564941406 205.30076599121094 173.9307861328125" stroke-width="3.0" fill="none" stroke="rgb(0, 0, 0)" stroke-opacity="1.0" stroke-linecap="round" stroke-linejoin="round"/>
    <path d="M 188.7482147216797 179.16775512695312 C 195.35450744628906 181.20819091796875 190.5657196044922 179.74014282226562 190.2306671142578 179.896240234375" stroke-width="3.0" fill="none" stroke="rgb(0, 0, 0)" stroke-opacity="1.0" stroke-linecap="round" stroke-linejoin="round"/>
    <path d="M 64.19613647460938 51.41112518310547 C 93.51103973388672 21.086946487426758 94.81448364257812 70.22451782226562 93.91099548339844 41.656105041503906" stroke-width="3.0" fill="none" stroke="rgb(0, 0, 0)" stroke-opacity="1.0" stroke-linecap="round" stroke-linejoin="round"/>
    <path d="M 87.958251953125 41.42194366455078 C 69.83065032958984 37.06013870239258 89.7068099975586 37.6519775390625 65.14029693603516 27.56439208984375" stroke-width="3.0" fill="none" stroke="rgb(0, 0, 0)" stroke-opacity="1.0" stroke-linecap="round" stroke-linejoin="round"/>
    <path d="M 84.05626678466797 53.5344123840332 C 80.00977325439453 54.391868591308594 95.68389129638672 18.442977905273438 102.64530181884766 53.87930679321289" stroke-width="3.0" fill="none" stroke="rgb(0, 0, 0)" stroke-opacity="1.0" stroke-linecap="round" stroke-linejoin="round"/>
    <path d="M 68.82200622558594 65.3868637084961 C 103.5112533569336 76.34172821044922 72.09918975830078 39.91416549682617 61.79846954345703 68.3617935180664" stroke-width="3.0" fill="none" stroke="rgb(0, 0, 0)" stroke-opacity="1.0" stroke-linecap="round" stroke-linejoin="round"/>
  </g>
</svg>
