<?xml version="1.0" ?>
<svg xmlns="http://www.w3.org/2000/svg" version="1.1" width="224" height="224">
  <defs/>
  <g>
    <path d="M 72.3507308959961 87.06806182861328 C 77.69539642333984 92.4458236694336 69.6762466430664 84.9626693725586 71.2723159790039 81.0782470703125" stroke-width="3.0" fill="none" stroke="rgb(0, 0, 0)" stroke-opacity="1.0" stroke-linecap="round" stroke-linejoin="round"/>
    <path d="M 179.26805114746094 179.7942352294922 C 166.628173828125 208.14422607421875 186.1149444580078 206.94871520996094 137.86355590820312 193.99411010742188" stroke-width="3.0" fill="none" stroke="rgb(0, 0, 0)" stroke-opacity="1.0" stroke-linecap="round" stroke-linejoin="round"/>
    <path d="M 122.57372283935547 135.8878936767578 C 121.5688247680664 136.78958129882812 116.48648071289062 131.85299682617188 114.57897186279297 134.59584045410156" stroke-width="3.0" fill="none" stroke="rgb(0, 0, 0)" stroke-opacity="1.0" stroke-linecap="round" stroke-linejoin="round"/>
    <path d="M 144.45172119140625 106.24105072021484 C 145.24244689941406 107.56602478027344 145.4785614013672 105.64830017089844 143.3722686767578 106.86506652832031" stroke-width="3.0" fill="none" stroke="rgb(0, 0, 0)" stroke-opacity="1.0" stroke-linecap="round" stroke-linejoin="round"/>
    <path d="M 97.83930206298828 56.44441223144531 C 102.57867431640625 40.63985824584961 82.29666900634766 34.711421966552734 93.27083587646484 56.28107833862305" stroke-width="3.0" fill="none" stroke="rgb(0, 0, 0)" stroke-opacity="1.0" stroke-linecap="round" stroke-linejoin="round"/>
    <path d="M 84.6058578491211 36.6572265625 C 112.22430419921875 56.42715835571289 79.95650482177734 53.405094146728516 89.88495635986328 59.51982116699219" stroke-width="3.0" fill="none" stroke="rgb(0, 0, 0)" stroke-opacity="1.0" stroke-linecap="round" stroke-linejoin="round"/>
    <path d="M 178.39390563964844 173.61386108398438 C 176.68280029296875 194.03553771972656 182.63790893554688 171.28465270996094 176.53933715820312 155.7494354248047" stroke-width="3.0" fill="none" stroke="rgb(0, 0, 0)" stroke-opacity="1.0" stroke-linecap="round" stroke-linejoin="round"/>
    <path d="M 71.85197448730469 106.47108459472656 C 73.02915954589844 113.91094207763672 69.01921844482422 109.54894256591797 74.70619201660156 122.65447235107422" stroke-width="3.0" fill="none" stroke="rgb(0, 0, 0)" stroke-opacity="1.0" stroke-linecap="round" stroke-linejoin="round"/>
    <path d="M 121.56248474121094 135.74374389648438 C 122.9151382446289 137.5916290283203 122.07183837890625 132.01730346679688 109.18959045410156 136.98806762695312" stroke-width="3.0" fill="none" stroke="rgb(0, 0, 0)" stroke-opacity="1.0" stroke-linecap="round" stroke-linejoin="round"/>
    <path d="M 78.62659454345703 28.950956344604492 C 91.05142211914062 36.35090637207031 87.62862396240234 58.34272766113281 78.84553527832031 29.933855056762695" stroke-width="3.0" fill="none" stroke="rgb(0, 0, 0)" stroke-opacity="1.0" stroke-linecap="round" stroke-linejoin="round"/>
    <path d="M 103.66389465332031 208.75244140625 C 160.69140625 185.75830078125 121.23499298095703 202.6702117919922 173.8272247314453 202.6720733642578" stroke-width="3.0" fill="none" stroke="rgb(0, 0, 0)" stroke-opacity="1.0" stroke-linecap="round" stroke-linejoin="round"/>
    <path d="M 176.9010772705078 153.86546325683594 C 177.38760375976562 164.5512237548828 185.50631713867188 148.3917236328125 157.6672821044922 114.46646881103516" stroke-width="3.0" fill="none" stroke="rgb(0, 0, 0)" stroke-opacity="1.0" stroke-linecap="round" stroke-linejoin="round"/>
    <path d="M 113.68830871582031 65.82999420166016 C 112.59098815917969 55.00878143310547 131.42852783203125 91.49181365966797 116.92145538330078 39.21742630004883" stroke-width="3.0" fill="none" stroke="rgb(0, 0, 0)" stroke-opacity="1.0" stroke-linecap="round" stroke-linejoin="round"/>
    <path d="M 90.56896209716797 66.84488677978516 C 86.03034973144531 56.01909255981445 86.84288787841797 68.40328979492188 80.5691146850586 65.48810577392578" stroke-width="3.0" fill="none" stroke="rgb(0, 0, 0)" stroke-opacity="1.0" stroke-linecap="round" stroke-linejoin="round"/>
    <path d="M 106.30416107177734 48.444541931152344 C 94.83322143554688 43.37013244628906 89.88433074951172 37.169639587402344 122.09699249267578 47.218597412109375" stroke-width="3.0" fill="none" stroke="rgb(0, 0, 0)" stroke-opacity="1.0" stroke-linecap="round" stroke-linejoin="round"/>
    <path d="M 74.25634765625 72.60041809082031 C 75.50726318359375 45.367183685302734 80.27339935302734 69.26787567138672 75.80300903320312 57.320011138916016" stroke-width="3.0" fill="none" stroke="rgb(0, 0, 0)" stroke-opacity="1.0" stroke-linecap="round" stroke-linejoin="round"/>
    <path d="M 138.54617309570312 101.42108917236328 C 144.7689666748047 105.85457611083984 141.02249145507812 102.96827697753906 148.041748046875 108.87191772460938" stroke-width="3.0" fill="none" stroke="rgb(0, 0, 0)" stroke-opacity="1.0" stroke-linecap="round" stroke-linejoin="round"/>
    <path d="M 118.29493713378906 75.81716918945312 C 125.30730438232422 106.73909759521484 140.31753540039062 105.19131469726562 120.91767120361328 90.26526641845703" stroke-width="3.0" fill="none" stroke="rgb(0, 0, 0)" stroke-opacity="1.0" stroke-linecap="round" stroke-linejoin="round"/>
    <path d="M 85.74774169921875 77.51996612548828 C 99.18086242675781 83.46502685546875 99.27742004394531 79.96698760986328 105.13938903808594 58.388206481933594" stroke-width="3.0" fill="none" stroke="rgb(0, 0, 0)" stroke-opacity="1.0" stroke-linecap="round" stroke-linejoin="round"/>
    <path d="M 79.9288558959961 131.44361877441406 C 80.20550537109375 129.04217529296875 75.70935821533203 131.9829559326172 78.90367126464844 134.75762939453125" stroke-width="3.0" fill="none" stroke="rgb(0, 0, 0)" stroke-opacity="1.0" stroke-linecap="round" stroke-linejoin="round"/>
    <path d="M 97.78540802001953 55.04218673706055 C 81.14443969726562 32.574317932128906 107.12946319580078 40.4573974609375 108.38703155517578 48.171016693115234" stroke-width="3.0" fill="none" stroke="rgb(0, 0, 0)" stroke-opacity="1.0" stroke-linecap="round" stroke-linejoin="round"/>
    <path d="M 110.19934844970703 64.59658813476562 C 74.41802215576172 81.28140258789062 117.72080993652344 77.90576171875 98.26826477050781 68.8162612915039" stroke-width="3.0" fill="none" stroke="rgb(0, 0, 0)" stroke-opacity="1.0" stroke-linecap="round" stroke-linejoin="round"/>
    <path d="M 72.56306457519531 98.94851684570312 C 80.2685546875 101.03609466552734 67.20257568359375 101.82200622558594 70.46257781982422 83.72380065917969" stroke-width="3.0" fill="none" stroke="rgb(0, 0, 0)" stroke-opacity="1.0" stroke-linecap="round" stroke-linejoin="round"/>
    <path d="M 96.26066589355469 98.08425903320312 C 97.0888442993164 98.75999450683594 112.35086822509766 97.3162612915039 99.7774658203125 95.53329467773438" stroke-width="3.0" fill="none" stroke="rgb(0, 0, 0)" stroke-opacity="1.0" stroke-linecap="round" stroke-linejoin="round"/>
    <path d="M 157.93447875976562 150.4017333984375 C 157.0776824951172 151.59576416015625 148.87144470214844 144.22190856933594 139.09922790527344 154.20262145996094" stroke-width="3.0" fill="none" stroke="rgb(0, 0, 0)" stroke-opacity="1.0" stroke-linecap="round" stroke-linejoin="round"/>
    <path d="M 101.5906753540039 66.07903289794922 C 116.06649780273438 48.652870178222656 130.7811279296875 77.15911865234375 116.13365936279297 55.31718826293945" stroke-width="3.0" fill="none" stroke="rgb(0, 0, 0)" stroke-opacity="1.0" stroke-linecap="round" stroke-linejoin="round"/>
    <path d="M 106.9783706665039 120.7822494506836 C 107.49856567382812 121.89537048339844 104.61614227294922 120.46562194824219 115.17759704589844 118.67469024658203" stroke-width="3.0" fill="none" stroke="rgb(0, 0, 0)" stroke-opacity="1.0" stroke-linecap="round" stroke-linejoin="round"/>
    <path d="M 76.87389373779297 129.70591735839844 C 79.75907897949219 139.0984344482422 83.99561309814453 142.4053955078125 84.58636474609375 141.13272094726562" stroke-width="3.0" fill="none" stroke="rgb(0, 0, 0)" stroke-opacity="1.0" stroke-linecap="round" stroke-linejoin="round"/>
    <path d="M 118.64302062988281 31.34781837463379 C 115.30120086669922 40.90286636352539 125.4744644165039 56.15330123901367 121.30128479003906 29.595760345458984" stroke-width="3.0" fill="none" stroke="rgb(0, 0, 0)" stroke-opacity="1.0" stroke-linecap="round" stroke-linejoin="round"/>
    <path d="M 128.00430297851562 112.9326171875 C 127.7413101196289 112.86919403076172 128.03671264648438 113.240234375 128.4810028076172 112.38712310791016" stroke-width="3.0" fill="none" stroke="rgb(0, 0, 0)" stroke-opacity="1.0" stroke-linecap="round" stroke-linejoin="round"/>
    <path d="M 107.8824691772461 39.86368179321289 C 88.30714416503906 47.43902587890625 105.68388366699219 38.65934371948242 100.94637298583984 59.78520584106445" stroke-width="3.0" fill="none" stroke="rgb(0, 0, 0)" stroke-opacity="1.0" stroke-linecap="round" stroke-linejoin="round"/>
    <path d="M 75.16314697265625 55.790531158447266 C 97.63121795654297 -2.0930490493774414 76.3154525756836 88.57098388671875 76.93116760253906 28.652172088623047" stroke-width="3.0" fill="none" stroke="rgb(0, 0, 0)" stroke-opacity="1.0" stroke-linecap="round" stroke-linejoin="round"/>
  </g>
</svg>
