<?xml version="1.0" ?>
<svg xmlns="http://www.w3.org/2000/svg" version="1.1" width="224" height="224">
  <defs/>
  <g>
    <path d="M 79.99983215332031 91.0001220703125 C 81.56138610839844 87.65392303466797 79.04122161865234 84.57869720458984 79.6905517578125 86.55876922607422" stroke-width="3.0" fill="none" stroke="rgb(0, 0, 0)" stroke-opacity="1.0" stroke-linecap="round" stroke-linejoin="round"/>
    <path d="M 164.9999237060547 193.99977111816406 C 169.39199829101562 189.37326049804688 166.51852416992188 184.10704040527344 163.36753845214844 182.16763305664062" stroke-width="3.0" fill="none" stroke="rgb(0, 0, 0)" stroke-opacity="1.0" stroke-linecap="round" stroke-linejoin="round"/>
    <path d="M 127.0006332397461 137.00033569335938 C 121.69792938232422 135.62648010253906 123.37899017333984 136.12750244140625 120.2449951171875 135.13023376464844" stroke-width="3.0" fill="none" stroke="rgb(0, 0, 0)" stroke-opacity="1.0" stroke-linecap="round" stroke-linejoin="round"/>
    <path d="M 143.9995880126953 118.00018310546875 C 145.46592712402344 112.47299194335938 148.89584350585938 114.69227600097656 147.10166931152344 112.83309936523438" stroke-width="3.0" fill="none" stroke="rgb(0, 0, 0)" stroke-opacity="1.0" stroke-linecap="round" stroke-linejoin="round"/>
    <path d="M 90.00045013427734 54.0003547668457 C 95.12139892578125 52.171287536621094 90.5608139038086 49.64451217651367 94.45214080810547 48.81504440307617" stroke-width="3.0" fill="none" stroke="rgb(0, 0, 0)" stroke-opacity="1.0" stroke-linecap="round" stroke-linejoin="round"/>
    <path d="M 88.9998550415039 43.00031661987305 C 92.43920135498047 45.573516845703125 90.84666442871094 50.8758430480957 91.48382568359375 53.454280853271484" stroke-width="3.0" fill="none" stroke="rgb(0, 0, 0)" stroke-opacity="1.0" stroke-linecap="round" stroke-linejoin="round"/>
    <path d="M 174.99957275390625 174.9994659423828 C 178.68605041503906 176.32730102539062 182.73876953125 177.19361877441406 183.03170776367188 170.1072235107422" stroke-width="3.0" fill="none" stroke="rgb(0, 0, 0)" stroke-opacity="1.0" stroke-linecap="round" stroke-linejoin="round"/>
    <path d="M 73.99882507324219 119.00021362304688 C 68.95941162109375 118.63539123535156 66.2449722290039 113.6490707397461 61.777286529541016 111.16241455078125" stroke-width="3.0" fill="none" stroke="rgb(0, 0, 0)" stroke-opacity="1.0" stroke-linecap="round" stroke-linejoin="round"/>
    <path d="M 128.0005340576172 134.99981689453125 C 129.52061462402344 133.4840087890625 128.06680297851562 130.2301788330078 127.45525360107422 135.12237548828125" stroke-width="3.0" fill="none" stroke="rgb(0, 0, 0)" stroke-opacity="1.0" stroke-linecap="round" stroke-linejoin="round"/>
    <path d="M 74.99979400634766 38.0001220703125 C 76.656494140625 41.221458435058594 72.97283172607422 43.78795623779297 69.2047348022461 40.439727783203125" stroke-width="3.0" fill="none" stroke="rgb(0, 0, 0)" stroke-opacity="1.0" stroke-linecap="round" stroke-linejoin="round"/>
    <path d="M 141.00010681152344 197.99981689453125 C 146.4832305908203 199.56765747070312 147.12095642089844 201.6352996826172 152.9603271484375 202.72694396972656" stroke-width="3.0" fill="none" stroke="rgb(0, 0, 0)" stroke-opacity="1.0" stroke-linecap="round" stroke-linejoin="round"/>
    <path d="M 174.99990844726562 163.00010681152344 C 171.96475219726562 159.75335693359375 169.89779663085938 157.15786743164062 166.66128540039062 160.119140625" stroke-width="3.0" fill="none" stroke="rgb(0, 0, 0)" stroke-opacity="1.0" stroke-linecap="round" stroke-linejoin="round"/>
    <path d="M 104.9998550415039 63.99986267089844 C 109.2143325805664 61.923946380615234 110.95469665527344 60.75493621826172 115.59904479980469 58.29604721069336" stroke-width="3.0" fill="none" stroke="rgb(0, 0, 0)" stroke-opacity="1.0" stroke-linecap="round" stroke-linejoin="round"/>
    <path d="M 88.99964141845703 59.99989318847656 C 84.36844635009766 57.15863800048828 85.05854797363281 54.41702651977539 86.00164794921875 58.95994567871094" stroke-width="3.0" fill="none" stroke="rgb(0, 0, 0)" stroke-opacity="1.0" stroke-linecap="round" stroke-linejoin="round"/>
    <path d="M 106.99984741210938 58.000205993652344 C 105.86707305908203 54.858978271484375 109.44737243652344 54.968841552734375 104.86431121826172 51.87267303466797" stroke-width="3.0" fill="none" stroke="rgb(0, 0, 0)" stroke-opacity="1.0" stroke-linecap="round" stroke-linejoin="round"/>
    <path d="M 82.00048065185547 78.99956512451172 C 79.6258544921875 78.42864990234375 82.89783477783203 77.556884765625 78.01063537597656 76.23008728027344" stroke-width="3.0" fill="none" stroke="rgb(0, 0, 0)" stroke-opacity="1.0" stroke-linecap="round" stroke-linejoin="round"/>
    <path d="M 138.99972534179688 110.0000991821289 C 144.5560760498047 110.3265151977539 149.83226013183594 114.36761474609375 144.3609619140625 118.83827209472656" stroke-width="3.0" fill="none" stroke="rgb(0, 0, 0)" stroke-opacity="1.0" stroke-linecap="round" stroke-linejoin="round"/>
    <path d="M 130.00030517578125 98.0003662109375 C 134.02987670898438 98.41704559326172 131.42074584960938 99.99303436279297 125.0732192993164 99.26223754882812" stroke-width="3.0" fill="none" stroke="rgb(0, 0, 0)" stroke-opacity="1.0" stroke-linecap="round" stroke-linejoin="round"/>
    <path d="M 96.00025939941406 75.99925231933594 C 95.48274230957031 81.07948303222656 99.6941146850586 78.42620849609375 101.69766235351562 72.83385467529297" stroke-width="3.0" fill="none" stroke="rgb(0, 0, 0)" stroke-opacity="1.0" stroke-linecap="round" stroke-linejoin="round"/>
    <path d="M 82.98583984375 121.99935913085938 C 87.61746215820312 124.1519775390625 83.3648681640625 125.71092224121094 84.58494567871094 121.81954956054688" stroke-width="3.0" fill="none" stroke="rgb(0, 0, 0)" stroke-opacity="1.0" stroke-linecap="round" stroke-linejoin="round"/>
    <path d="M 102.99984741210938 53.99971008300781 C 103.96058654785156 54.43849182128906 107.07073211669922 54.77806091308594 101.46739959716797 50.81303787231445" stroke-width="3.0" fill="none" stroke="rgb(0, 0, 0)" stroke-opacity="1.0" stroke-linecap="round" stroke-linejoin="round"/>
    <path d="M 100.00033569335938 74.00054931640625 C 94.61853790283203 78.80745697021484 98.86033630371094 82.68230438232422 98.7021255493164 79.56619262695312" stroke-width="3.0" fill="none" stroke="rgb(0, 0, 0)" stroke-opacity="1.0" stroke-linecap="round" stroke-linejoin="round"/>
    <path d="M 83.00016784667969 91.99983978271484 C 89.23339080810547 97.00481414794922 84.59258270263672 96.8485107421875 79.76791381835938 99.76741027832031" stroke-width="3.0" fill="none" stroke="rgb(0, 0, 0)" stroke-opacity="1.0" stroke-linecap="round" stroke-linejoin="round"/>
    <path d="M 117.00057983398438 101.00109100341797 C 119.98047637939453 96.84382629394531 119.70137786865234 97.3972396850586 119.06845092773438 101.56710052490234" stroke-width="3.0" fill="none" stroke="rgb(0, 0, 0)" stroke-opacity="1.0" stroke-linecap="round" stroke-linejoin="round"/>
    <path d="M 161.98757934570312 151.00015258789062 C 159.1405029296875 149.77134704589844 159.58108520507812 152.34678649902344 156.23236083984375 150.2384033203125" stroke-width="3.0" fill="none" stroke="rgb(0, 0, 0)" stroke-opacity="1.0" stroke-linecap="round" stroke-linejoin="round"/>
    <path d="M 109.01394653320312 61.9893798828125 C 116.54114532470703 61.68031311035156 115.8252944946289 61.888240814208984 109.6086654663086 60.790000915527344" stroke-width="3.0" fill="none" stroke="rgb(0, 0, 0)" stroke-opacity="1.0" stroke-linecap="round" stroke-linejoin="round"/>
    <path d="M 120.00025177001953 110.99954223632812 C 118.19039916992188 111.98782348632812 115.17424774169922 108.8552474975586 112.35873413085938 110.32369995117188" stroke-width="3.0" fill="none" stroke="rgb(0, 0, 0)" stroke-opacity="1.0" stroke-linecap="round" stroke-linejoin="round"/>
    <path d="M 86.00017547607422 118.00200653076172 C 82.96656799316406 122.5447006225586 87.00118255615234 119.72480773925781 86.0531234741211 121.62646484375" stroke-width="3.0" fill="none" stroke="rgb(0, 0, 0)" stroke-opacity="1.0" stroke-linecap="round" stroke-linejoin="round"/>
    <path d="M 110.99836730957031 41.00022888183594 C 107.79745483398438 38.8737678527832 112.59027862548828 37.679561614990234 110.37128448486328 42.86394119262695" stroke-width="3.0" fill="none" stroke="rgb(0, 0, 0)" stroke-opacity="1.0" stroke-linecap="round" stroke-linejoin="round"/>
    <path d="M 130.00018310546875 119.00019836425781 C 133.44419860839844 117.53164672851562 128.92994689941406 116.7601318359375 128.0742645263672 116.39027404785156" stroke-width="3.0" fill="none" stroke="rgb(0, 0, 0)" stroke-opacity="1.0" stroke-linecap="round" stroke-linejoin="round"/>
    <path d="M 100.99989318847656 56.00006103515625 C 101.56598663330078 57.941768646240234 106.98878479003906 53.44416046142578 105.8997802734375 51.645198822021484" stroke-width="3.0" fill="none" stroke="rgb(0, 0, 0)" stroke-opacity="1.0" stroke-linecap="round" stroke-linejoin="round"/>
    <path d="M 75.00028228759766 45.999847412109375 C 81.04798889160156 43.180538177490234 75.5818862915039 42.608848571777344 76.70558166503906 38.12932586669922" stroke-width="3.0" fill="none" stroke="rgb(0, 0, 0)" stroke-opacity="1.0" stroke-linecap="round" stroke-linejoin="round"/>
  </g>
</svg>
