<?xml version="1.0" ?>
<svg xmlns="http://www.w3.org/2000/svg" version="1.1" width="224" height="224">
  <defs/>
  <g>
    <path d="M 72.32759857177734 90.70181274414062 C 74.53398132324219 93.65563201904297 68.0947036743164 90.40550994873047 72.99172973632812 80.1837387084961" stroke-width="3.0" fill="none" stroke="rgb(0, 0, 0)" stroke-opacity="1.0" stroke-linecap="round" stroke-linejoin="round"/>
    <path d="M 177.17495727539062 178.96815490722656 C 167.16571044921875 220.82577514648438 171.06253051757812 191.45343017578125 166.4674072265625 199.666259765625" stroke-width="3.0" fill="none" stroke="rgb(0, 0, 0)" stroke-opacity="1.0" stroke-linecap="round" stroke-linejoin="round"/>
    <path d="M 127.40372467041016 135.2128143310547 C 127.72222900390625 138.46775817871094 130.79824829101562 131.3863983154297 108.75074768066406 135.93618774414062" stroke-width="3.0" fill="none" stroke="rgb(0, 0, 0)" stroke-opacity="1.0" stroke-linecap="round" stroke-linejoin="round"/>
    <path d="M 143.2930908203125 104.14973449707031 C 140.69642639160156 106.83333587646484 143.18820190429688 102.63819885253906 148.15928649902344 107.89007568359375" stroke-width="3.0" fill="none" stroke="rgb(0, 0, 0)" stroke-opacity="1.0" stroke-linecap="round" stroke-linejoin="round"/>
    <path d="M 95.40458679199219 44.222293853759766 C 96.96590423583984 45.111454010009766 90.78675079345703 74.11737060546875 93.41645050048828 41.19225311279297" stroke-width="3.0" fill="none" stroke="rgb(0, 0, 0)" stroke-opacity="1.0" stroke-linecap="round" stroke-linejoin="round"/>
    <path d="M 87.86155700683594 39.97844696044922 C 99.31514739990234 47.27033615112305 84.68062591552734 48.703033447265625 94.56837463378906 56.988319396972656" stroke-width="3.0" fill="none" stroke="rgb(0, 0, 0)" stroke-opacity="1.0" stroke-linecap="round" stroke-linejoin="round"/>
    <path d="M 177.38478088378906 178.1211395263672 C 176.1692352294922 186.8000946044922 181.40383911132812 181.8105010986328 177.4298095703125 157.00830078125" stroke-width="3.0" fill="none" stroke="rgb(0, 0, 0)" stroke-opacity="1.0" stroke-linecap="round" stroke-linejoin="round"/>
    <path d="M 70.16192626953125 105.09961700439453 C 72.89559173583984 117.64511108398438 68.03971099853516 109.40609741210938 72.02715301513672 116.73188018798828" stroke-width="3.0" fill="none" stroke="rgb(0, 0, 0)" stroke-opacity="1.0" stroke-linecap="round" stroke-linejoin="round"/>
    <path d="M 128.0680389404297 134.8052215576172 C 127.1882095336914 135.5708465576172 128.78684997558594 135.8975830078125 122.94966125488281 132.96702575683594" stroke-width="3.0" fill="none" stroke="rgb(0, 0, 0)" stroke-opacity="1.0" stroke-linecap="round" stroke-linejoin="round"/>
    <path d="M 76.46770477294922 28.196678161621094 C 74.2193832397461 50.889678955078125 78.69210815429688 53.490177154541016 83.95660400390625 45.976318359375" stroke-width="3.0" fill="none" stroke="rgb(0, 0, 0)" stroke-opacity="1.0" stroke-linecap="round" stroke-linejoin="round"/>
    <path d="M 100.29712677001953 208.3380889892578 C 156.13485717773438 185.9763641357422 121.36393737792969 200.83946228027344 172.84365844726562 201.82876586914062" stroke-width="3.0" fill="none" stroke="rgb(0, 0, 0)" stroke-opacity="1.0" stroke-linecap="round" stroke-linejoin="round"/>
    <path d="M 177.8787841796875 160.95291137695312 C 172.24761962890625 163.73544311523438 187.7485809326172 150.1072998046875 156.5253143310547 114.02288055419922" stroke-width="3.0" fill="none" stroke="rgb(0, 0, 0)" stroke-opacity="1.0" stroke-linecap="round" stroke-linejoin="round"/>
    <path d="M 102.34046936035156 70.2710189819336 C 127.966552734375 57.46758270263672 124.6817626953125 82.88375854492188 118.2352523803711 33.46379089355469" stroke-width="3.0" fill="none" stroke="rgb(0, 0, 0)" stroke-opacity="1.0" stroke-linecap="round" stroke-linejoin="round"/>
    <path d="M 92.06476593017578 69.26276397705078 C 85.36898803710938 49.076900482177734 97.4617919921875 71.38692474365234 84.00214385986328 62.85600662231445" stroke-width="3.0" fill="none" stroke="rgb(0, 0, 0)" stroke-opacity="1.0" stroke-linecap="round" stroke-linejoin="round"/>
    <path d="M 107.96383666992188 56.265071868896484 C 104.56965637207031 32.78989028930664 91.45956420898438 41.022850036621094 109.19554138183594 52.10945129394531" stroke-width="3.0" fill="none" stroke="rgb(0, 0, 0)" stroke-opacity="1.0" stroke-linecap="round" stroke-linejoin="round"/>
    <path d="M 78.76518249511719 64.05946350097656 C 75.404296875 57.9782829284668 74.07486724853516 78.6005859375 75.30447387695312 57.51253890991211" stroke-width="3.0" fill="none" stroke="rgb(0, 0, 0)" stroke-opacity="1.0" stroke-linecap="round" stroke-linejoin="round"/>
    <path d="M 136.7900848388672 100.69839477539062 C 143.8175811767578 104.04318237304688 145.52330017089844 106.40177917480469 146.91708374023438 106.15092468261719" stroke-width="3.0" fill="none" stroke="rgb(0, 0, 0)" stroke-opacity="1.0" stroke-linecap="round" stroke-linejoin="round"/>
    <path d="M 119.47472381591797 76.82763671875 C 122.71732330322266 100.30992126464844 137.24887084960938 99.75064849853516 120.71014404296875 93.20050811767578" stroke-width="3.0" fill="none" stroke="rgb(0, 0, 0)" stroke-opacity="1.0" stroke-linecap="round" stroke-linejoin="round"/>
    <path d="M 87.0467529296875 77.09342956542969 C 94.81957244873047 84.93047332763672 99.3090591430664 81.6423110961914 104.59474182128906 58.7310791015625" stroke-width="3.0" fill="none" stroke="rgb(0, 0, 0)" stroke-opacity="1.0" stroke-linecap="round" stroke-linejoin="round"/>
    <path d="M 83.72176361083984 130.0860137939453 C 80.46846008300781 124.78378295898438 73.3857192993164 127.75614929199219 83.20221710205078 125.08777618408203" stroke-width="3.0" fill="none" stroke="rgb(0, 0, 0)" stroke-opacity="1.0" stroke-linecap="round" stroke-linejoin="round"/>
    <path d="M 99.68372344970703 43.57163619995117 C 106.06900024414062 70.22274780273438 103.2783203125 60.095523834228516 105.4046630859375 41.33196258544922" stroke-width="3.0" fill="none" stroke="rgb(0, 0, 0)" stroke-opacity="1.0" stroke-linecap="round" stroke-linejoin="round"/>
    <path d="M 100.3161392211914 65.7291488647461 C 93.50788879394531 88.47364807128906 92.14566040039062 76.97937774658203 104.80658721923828 78.13676452636719" stroke-width="3.0" fill="none" stroke="rgb(0, 0, 0)" stroke-opacity="1.0" stroke-linecap="round" stroke-linejoin="round"/>
    <path d="M 80.25885009765625 101.5162353515625 C 81.06793975830078 100.48567199707031 68.17524719238281 104.40723419189453 71.0501480102539 87.00172424316406" stroke-width="3.0" fill="none" stroke="rgb(0, 0, 0)" stroke-opacity="1.0" stroke-linecap="round" stroke-linejoin="round"/>
    <path d="M 94.15367126464844 96.73411560058594 C 105.69059753417969 98.50777435302734 115.45318603515625 96.21781921386719 102.01445007324219 94.82100677490234" stroke-width="3.0" fill="none" stroke="rgb(0, 0, 0)" stroke-opacity="1.0" stroke-linecap="round" stroke-linejoin="round"/>
    <path d="M 154.61672973632812 150.72164916992188 C 163.6510467529297 150.57688903808594 140.11825561523438 146.91903686523438 137.30239868164062 157.10501098632812" stroke-width="3.0" fill="none" stroke="rgb(0, 0, 0)" stroke-opacity="1.0" stroke-linecap="round" stroke-linejoin="round"/>
    <path d="M 105.57861328125 64.89351654052734 C 127.86851501464844 55.82439422607422 123.27909088134766 83.95452880859375 118.92529296875 60.1613883972168" stroke-width="3.0" fill="none" stroke="rgb(0, 0, 0)" stroke-opacity="1.0" stroke-linecap="round" stroke-linejoin="round"/>
    <path d="M 100.85501098632812 119.97347259521484 C 125.76288604736328 119.81781768798828 104.1585922241211 118.99580383300781 113.42601013183594 120.224609375" stroke-width="3.0" fill="none" stroke="rgb(0, 0, 0)" stroke-opacity="1.0" stroke-linecap="round" stroke-linejoin="round"/>
    <path d="M 82.05455017089844 119.15624237060547 C 83.08354949951172 137.7654266357422 87.11231994628906 122.4177474975586 95.64056396484375 133.40330505371094" stroke-width="3.0" fill="none" stroke="rgb(0, 0, 0)" stroke-opacity="1.0" stroke-linecap="round" stroke-linejoin="round"/>
    <path d="M 119.9306869506836 43.61624526977539 C 106.10482025146484 36.945884704589844 129.23341369628906 62.6999626159668 121.26329803466797 30.750185012817383" stroke-width="3.0" fill="none" stroke="rgb(0, 0, 0)" stroke-opacity="1.0" stroke-linecap="round" stroke-linejoin="round"/>
    <path d="M 127.74044799804688 110.76973724365234 C 126.50019073486328 111.8851547241211 125.94493103027344 109.8475341796875 126.24637603759766 110.84404754638672" stroke-width="3.0" fill="none" stroke="rgb(0, 0, 0)" stroke-opacity="1.0" stroke-linecap="round" stroke-linejoin="round"/>
    <path d="M 106.78750610351562 41.66402053833008 C 90.46623992919922 39.639217376708984 99.15650177001953 39.23991012573242 98.13477325439453 55.63637924194336" stroke-width="3.0" fill="none" stroke="rgb(0, 0, 0)" stroke-opacity="1.0" stroke-linecap="round" stroke-linejoin="round"/>
    <path d="M 76.94961547851562 57.39999008178711 C 76.74149322509766 32.98374938964844 100.5771713256836 51.3210334777832 78.58651733398438 28.817184448242188" stroke-width="3.0" fill="none" stroke="rgb(0, 0, 0)" stroke-opacity="1.0" stroke-linecap="round" stroke-linejoin="round"/>
  </g>
</svg>
