<?xml version="1.0" ?>
<svg xmlns="http://www.w3.org/2000/svg" version="1.1" width="224" height="224">
  <defs/>
  <g>
    <path d="M 73.67827606201172 88.04553985595703 C 79.12242889404297 91.01596069335938 70.92583465576172 89.00394439697266 71.87342071533203 82.765380859375" stroke-width="3.0" fill="none" stroke="rgb(0, 0, 0)" stroke-opacity="1.0" stroke-linecap="round" stroke-linejoin="round"/>
    <path d="M 178.584228515625 178.08079528808594 C 171.1519775390625 220.64532470703125 164.00982666015625 194.18212890625 165.1949005126953 200.89779663085938" stroke-width="3.0" fill="none" stroke="rgb(0, 0, 0)" stroke-opacity="1.0" stroke-linecap="round" stroke-linejoin="round"/>
    <path d="M 123.5418472290039 134.49708557128906 C 124.68806457519531 137.0997314453125 129.7875213623047 130.7061767578125 108.56964111328125 137.1236572265625" stroke-width="3.0" fill="none" stroke="rgb(0, 0, 0)" stroke-opacity="1.0" stroke-linecap="round" stroke-linejoin="round"/>
    <path d="M 143.47537231445312 106.38198852539062 C 142.24517822265625 105.97699737548828 145.19520568847656 105.53132629394531 148.00942993164062 108.7683334350586" stroke-width="3.0" fill="none" stroke="rgb(0, 0, 0)" stroke-opacity="1.0" stroke-linecap="round" stroke-linejoin="round"/>
    <path d="M 96.2412338256836 49.04338455200195 C 91.73344421386719 43.18292999267578 92.23322296142578 71.80354309082031 97.27242279052734 42.89518356323242" stroke-width="3.0" fill="none" stroke="rgb(0, 0, 0)" stroke-opacity="1.0" stroke-linecap="round" stroke-linejoin="round"/>
    <path d="M 94.04488372802734 41.567745208740234 C 96.24585723876953 51.33727264404297 85.99671173095703 46.981903076171875 92.91116333007812 59.21549987792969" stroke-width="3.0" fill="none" stroke="rgb(0, 0, 0)" stroke-opacity="1.0" stroke-linecap="round" stroke-linejoin="round"/>
    <path d="M 178.7202606201172 180.3356170654297 C 177.5170440673828 185.17514038085938 182.1275177001953 181.67218017578125 177.34046936035156 153.6708221435547" stroke-width="3.0" fill="none" stroke="rgb(0, 0, 0)" stroke-opacity="1.0" stroke-linecap="round" stroke-linejoin="round"/>
    <path d="M 71.41646575927734 109.8336181640625 C 72.74494934082031 115.41252136230469 70.83504486083984 109.52737426757812 74.0486068725586 115.19021606445312" stroke-width="3.0" fill="none" stroke="rgb(0, 0, 0)" stroke-opacity="1.0" stroke-linecap="round" stroke-linejoin="round"/>
    <path d="M 122.45152282714844 134.85572814941406 C 125.1974868774414 136.22711181640625 122.40475463867188 136.5413055419922 116.01001739501953 132.77833557128906" stroke-width="3.0" fill="none" stroke="rgb(0, 0, 0)" stroke-opacity="1.0" stroke-linecap="round" stroke-linejoin="round"/>
    <path d="M 76.70488739013672 27.942337036132812 C 73.7587890625 50.033935546875 81.0615005493164 52.489097595214844 78.97541046142578 46.36417770385742" stroke-width="3.0" fill="none" stroke="rgb(0, 0, 0)" stroke-opacity="1.0" stroke-linecap="round" stroke-linejoin="round"/>
    <path d="M 138.30972290039062 196.817626953125 C 149.91281127929688 195.6991424560547 130.7716827392578 201.4197235107422 173.61178588867188 202.39697265625" stroke-width="3.0" fill="none" stroke="rgb(0, 0, 0)" stroke-opacity="1.0" stroke-linecap="round" stroke-linejoin="round"/>
    <path d="M 178.84083557128906 162.86428833007812 C 173.87843322753906 154.46058654785156 190.4011993408203 155.601318359375 154.68624877929688 111.51318359375" stroke-width="3.0" fill="none" stroke="rgb(0, 0, 0)" stroke-opacity="1.0" stroke-linecap="round" stroke-linejoin="round"/>
    <path d="M 101.2865982055664 66.31922912597656 C 125.622314453125 59.17710494995117 126.97282409667969 84.65697479248047 118.3553237915039 37.43110656738281" stroke-width="3.0" fill="none" stroke="rgb(0, 0, 0)" stroke-opacity="1.0" stroke-linecap="round" stroke-linejoin="round"/>
    <path d="M 91.59495544433594 66.426025390625 C 87.28353881835938 49.25971603393555 83.32598114013672 68.57726287841797 79.02469635009766 63.94065856933594" stroke-width="3.0" fill="none" stroke="rgb(0, 0, 0)" stroke-opacity="1.0" stroke-linecap="round" stroke-linejoin="round"/>
    <path d="M 100.88504028320312 56.887393951416016 C 107.07003784179688 33.89599609375 99.21566772460938 31.2485294342041 109.20184326171875 49.29136657714844" stroke-width="3.0" fill="none" stroke="rgb(0, 0, 0)" stroke-opacity="1.0" stroke-linecap="round" stroke-linejoin="round"/>
    <path d="M 80.41988372802734 74.30963897705078 C 71.99525451660156 71.20733642578125 75.41002655029297 77.50801849365234 75.24948120117188 56.82259750366211" stroke-width="3.0" fill="none" stroke="rgb(0, 0, 0)" stroke-opacity="1.0" stroke-linecap="round" stroke-linejoin="round"/>
    <path d="M 137.614990234375 101.92595672607422 C 144.34857177734375 104.16865539550781 145.56898498535156 107.39495086669922 144.5387725830078 107.15432739257812" stroke-width="3.0" fill="none" stroke="rgb(0, 0, 0)" stroke-opacity="1.0" stroke-linecap="round" stroke-linejoin="round"/>
    <path d="M 120.05233001708984 74.50078582763672 C 120.74483489990234 102.86852264404297 138.27151489257812 96.24225616455078 121.83662414550781 94.5908432006836" stroke-width="3.0" fill="none" stroke="rgb(0, 0, 0)" stroke-opacity="1.0" stroke-linecap="round" stroke-linejoin="round"/>
    <path d="M 93.40453338623047 78.21308135986328 C 96.093017578125 82.01677703857422 103.32156372070312 80.16950988769531 104.92576599121094 60.5507926940918" stroke-width="3.0" fill="none" stroke="rgb(0, 0, 0)" stroke-opacity="1.0" stroke-linecap="round" stroke-linejoin="round"/>
    <path d="M 83.64301300048828 127.07011413574219 C 81.4102783203125 128.07728576660156 80.6639175415039 130.3192138671875 83.12283325195312 122.56913757324219" stroke-width="3.0" fill="none" stroke="rgb(0, 0, 0)" stroke-opacity="1.0" stroke-linecap="round" stroke-linejoin="round"/>
    <path d="M 100.84796905517578 38.995689392089844 C 106.45923614501953 59.45762634277344 104.49323272705078 59.645084381103516 104.78256225585938 45.535247802734375" stroke-width="3.0" fill="none" stroke="rgb(0, 0, 0)" stroke-opacity="1.0" stroke-linecap="round" stroke-linejoin="round"/>
    <path d="M 100.21977996826172 68.30941772460938 C 95.5611343383789 85.78569030761719 99.50121307373047 72.38162994384766 105.21642303466797 76.01264190673828" stroke-width="3.0" fill="none" stroke="rgb(0, 0, 0)" stroke-opacity="1.0" stroke-linecap="round" stroke-linejoin="round"/>
    <path d="M 82.40357971191406 102.88764190673828 C 86.29349517822266 99.97491455078125 71.4921646118164 105.55912780761719 69.38128662109375 92.6583023071289" stroke-width="3.0" fill="none" stroke="rgb(0, 0, 0)" stroke-opacity="1.0" stroke-linecap="round" stroke-linejoin="round"/>
    <path d="M 93.38221740722656 97.13258361816406 C 107.89305877685547 98.95654296875 111.49925994873047 89.33101654052734 100.86933135986328 94.50100708007812" stroke-width="3.0" fill="none" stroke="rgb(0, 0, 0)" stroke-opacity="1.0" stroke-linecap="round" stroke-linejoin="round"/>
    <path d="M 157.845458984375 150.5743408203125 C 162.96273803710938 152.47242736816406 149.03921508789062 145.60263061523438 137.4371337890625 153.8001708984375" stroke-width="3.0" fill="none" stroke="rgb(0, 0, 0)" stroke-opacity="1.0" stroke-linecap="round" stroke-linejoin="round"/>
    <path d="M 113.20417785644531 63.941165924072266 C 117.52474212646484 59.9200439453125 123.70134735107422 74.68054962158203 119.33283996582031 58.451534271240234" stroke-width="3.0" fill="none" stroke="rgb(0, 0, 0)" stroke-opacity="1.0" stroke-linecap="round" stroke-linejoin="round"/>
    <path d="M 105.68573760986328 123.4107437133789 C 106.60579681396484 122.4490737915039 111.29359436035156 123.51324462890625 110.52733612060547 122.59651184082031" stroke-width="3.0" fill="none" stroke="rgb(0, 0, 0)" stroke-opacity="1.0" stroke-linecap="round" stroke-linejoin="round"/>
    <path d="M 82.05316162109375 118.70465850830078 C 81.37899017333984 129.3212432861328 83.95675659179688 125.80508422851562 84.55274200439453 128.11886596679688" stroke-width="3.0" fill="none" stroke="rgb(0, 0, 0)" stroke-opacity="1.0" stroke-linecap="round" stroke-linejoin="round"/>
    <path d="M 119.47195434570312 45.23982620239258 C 107.60588073730469 34.875099182128906 126.81639862060547 61.51473617553711 120.58942413330078 29.47186851501465" stroke-width="3.0" fill="none" stroke="rgb(0, 0, 0)" stroke-opacity="1.0" stroke-linecap="round" stroke-linejoin="round"/>
    <path d="M 125.71510314941406 116.58293914794922 C 125.9791030883789 115.23638916015625 125.78025817871094 117.53223419189453 125.79276275634766 116.4352035522461" stroke-width="3.0" fill="none" stroke="rgb(0, 0, 0)" stroke-opacity="1.0" stroke-linecap="round" stroke-linejoin="round"/>
    <path d="M 105.02845001220703 46.588478088378906 C 95.97774505615234 48.41694259643555 98.44456481933594 46.70433807373047 98.33826446533203 53.340179443359375" stroke-width="3.0" fill="none" stroke="rgb(0, 0, 0)" stroke-opacity="1.0" stroke-linecap="round" stroke-linejoin="round"/>
    <path d="M 76.53268432617188 54.40748596191406 C 77.26116180419922 32.4254035949707 95.40583801269531 51.28156280517578 79.35528564453125 29.098491668701172" stroke-width="3.0" fill="none" stroke="rgb(0, 0, 0)" stroke-opacity="1.0" stroke-linecap="round" stroke-linejoin="round"/>
  </g>
</svg>
