<?xml version="1.0" ?>
<svg xmlns="http://www.w3.org/2000/svg" version="1.1" width="224" height="224">
  <defs/>
  <g>
    <path d="M 138.17396545410156 95.69756317138672 C 137.8854217529297 95.67731475830078 137.78640747070312 96.80658721923828 137.90980529785156 96.41841125488281" stroke-width="3.0" fill="none" stroke="rgb(0, 0, 0)" stroke-opacity="1.0" stroke-linecap="round" stroke-linejoin="round"/>
    <path d="M 171.26478576660156 131.34950256347656 C 169.05763244628906 138.2938232421875 174.1678466796875 131.87522888183594 163.9436492919922 136.82101440429688" stroke-width="3.0" fill="none" stroke="rgb(0, 0, 0)" stroke-opacity="1.0" stroke-linecap="round" stroke-linejoin="round"/>
    <path d="M 84.36873626708984 123.80484008789062 C 85.81639862060547 138.3507537841797 78.90487670898438 134.21836853027344 87.27401733398438 111.45596313476562" stroke-width="3.0" fill="none" stroke="rgb(0, 0, 0)" stroke-opacity="1.0" stroke-linecap="round" stroke-linejoin="round"/>
    <path d="M 96.94335174560547 125.2862319946289 C 95.4850845336914 126.60493469238281 101.80369567871094 120.3638687133789 95.58861541748047 128.30035400390625" stroke-width="3.0" fill="none" stroke="rgb(0, 0, 0)" stroke-opacity="1.0" stroke-linecap="round" stroke-linejoin="round"/>
    <path d="M 158.71803283691406 83.1396713256836 C 161.2239227294922 81.26049041748047 158.0402069091797 83.85179138183594 159.7954559326172 82.08795928955078" stroke-width="3.0" fill="none" stroke="rgb(0, 0, 0)" stroke-opacity="1.0" stroke-linecap="round" stroke-linejoin="round"/>
    <path d="M 128.18087768554688 58.55534362792969 C 126.97102355957031 60.56654739379883 127.71576690673828 60.142112731933594 127.43160247802734 59.72645950317383" stroke-width="3.0" fill="none" stroke="rgb(0, 0, 0)" stroke-opacity="1.0" stroke-linecap="round" stroke-linejoin="round"/>
    <path d="M 107.89556121826172 146.32977294921875 C 149.62313842773438 140.64559936523438 144.53314208984375 143.88333129882812 144.0467071533203 143.99465942382812" stroke-width="3.0" fill="none" stroke="rgb(0, 0, 0)" stroke-opacity="1.0" stroke-linecap="round" stroke-linejoin="round"/>
    <path d="M 125.44297790527344 103.57250213623047 C 122.15157318115234 103.10160064697266 125.74687194824219 100.82398223876953 125.25807189941406 99.98861694335938" stroke-width="3.0" fill="none" stroke="rgb(0, 0, 0)" stroke-opacity="1.0" stroke-linecap="round" stroke-linejoin="round"/>
    <path d="M 83.88941192626953 139.28504943847656 C 89.2523193359375 117.12798309326172 77.68232727050781 104.37934112548828 83.42559051513672 146.75228881835938" stroke-width="3.0" fill="none" stroke="rgb(0, 0, 0)" stroke-opacity="1.0" stroke-linecap="round" stroke-linejoin="round"/>
    <path d="M 137.0586700439453 51.936485290527344 C 136.95321655273438 51.86058807373047 137.06895446777344 52.56557846069336 137.0107879638672 52.24930191040039" stroke-width="3.0" fill="none" stroke="rgb(0, 0, 0)" stroke-opacity="1.0" stroke-linecap="round" stroke-linejoin="round"/>
    <path d="M 82.90862274169922 148.404296875 C 92.74259185791016 151.44898986816406 114.1470718383789 144.93695068359375 81.82283020019531 146.10910034179688" stroke-width="3.0" fill="none" stroke="rgb(0, 0, 0)" stroke-opacity="1.0" stroke-linecap="round" stroke-linejoin="round"/>
    <path d="M 155.1136474609375 153.8475799560547 C 138.37498474121094 165.1217803955078 146.21038818359375 141.155029296875 143.45448303222656 143.188720703125" stroke-width="3.0" fill="none" stroke="rgb(0, 0, 0)" stroke-opacity="1.0" stroke-linecap="round" stroke-linejoin="round"/>
    <path d="M 158.3777618408203 82.99714660644531 C 159.12783813476562 82.67022705078125 158.32106018066406 83.06709289550781 159.27540588378906 82.77631378173828" stroke-width="3.0" fill="none" stroke="rgb(0, 0, 0)" stroke-opacity="1.0" stroke-linecap="round" stroke-linejoin="round"/>
    <path d="M 156.80210876464844 82.96043395996094 C 154.4927215576172 83.87635040283203 159.40878295898438 84.3727035522461 156.7702178955078 84.16516876220703" stroke-width="3.0" fill="none" stroke="rgb(0, 0, 0)" stroke-opacity="1.0" stroke-linecap="round" stroke-linejoin="round"/>
    <path d="M 183.44131469726562 71.28661346435547 C 181.28224182128906 69.18524932861328 181.63436889648438 70.7139663696289 180.6602783203125 69.02446746826172" stroke-width="3.0" fill="none" stroke="rgb(0, 0, 0)" stroke-opacity="1.0" stroke-linecap="round" stroke-linejoin="round"/>
    <path d="M 188.85862731933594 80.02926635742188 C 192.16879272460938 90.15239715576172 187.90353393554688 79.19876098632812 189.0575408935547 82.66239929199219" stroke-width="3.0" fill="none" stroke="rgb(0, 0, 0)" stroke-opacity="1.0" stroke-linecap="round" stroke-linejoin="round"/>
  </g>
</svg>
