<?xml version="1.0" ?>
<svg xmlns="http://www.w3.org/2000/svg" version="1.1" width="224" height="224">
  <defs/>
  <g>
    <path d="M 95.97297668457031 140.72740173339844 C 94.07140350341797 121.0379409790039 89.27910614013672 143.00059509277344 79.46652221679688 93.63077545166016" stroke-width="2" fill="none" stroke="rgb(0, 0, 0)" stroke-opacity="1.0" stroke-linecap="round" stroke-linejoin="round"/>
    <path d="M 149.0736541748047 149.63116455078125 C 123.37422180175781 143.42320251464844 86.83112335205078 135.39671325683594 137.24281311035156 123.68021392822266" stroke-width="2" fill="none" stroke="rgb(0, 0, 0)" stroke-opacity="1.0" stroke-linecap="round" stroke-linejoin="round"/>
    <path d="M 120.45182037353516 119.82811737060547 C 140.73800659179688 125.76045989990234 125.52568817138672 109.10147857666016 119.61421966552734 127.05750274658203" stroke-width="2" fill="none" stroke="rgb(0, 0, 0)" stroke-opacity="1.0" stroke-linecap="round" stroke-linejoin="round"/>
    <path d="M 143.54588317871094 125.68904113769531 C 135.38101196289062 133.88656616210938 149.71080017089844 126.61153411865234 155.48202514648438 132.84402465820312" stroke-width="2" fill="none" stroke="rgb(0, 0, 0)" stroke-opacity="1.0" stroke-linecap="round" stroke-linejoin="round"/>
    <path d="M 116.15499114990234 101.97600555419922 C 130.80340576171875 112.1973876953125 135.31483459472656 80.7127914428711 160.9088134765625 111.04034423828125" stroke-width="2" fill="none" stroke="rgb(0, 0, 0)" stroke-opacity="1.0" stroke-linecap="round" stroke-linejoin="round"/>
    <path d="M 115.31903839111328 111.23294830322266 C 130.5381317138672 95.7192153930664 123.98013305664062 108.41242980957031 116.38024139404297 116.28746795654297" stroke-width="2" fill="none" stroke="rgb(0, 0, 0)" stroke-opacity="1.0" stroke-linecap="round" stroke-linejoin="round"/>
    <path d="M 99.60256958007812 70.42430877685547 C 131.73214721679688 84.8169174194336 108.95706939697266 99.35802459716797 156.59117126464844 88.22122192382812" stroke-width="2" fill="none" stroke="rgb(0, 0, 0)" stroke-opacity="1.0" stroke-linecap="round" stroke-linejoin="round"/>
    <path d="M 71.29698944091797 134.58053588867188 C 83.04584503173828 154.3905487060547 22.249805450439453 154.73634338378906 50.53775405883789 103.42681121826172" stroke-width="2" fill="none" stroke="rgb(0, 0, 0)" stroke-opacity="1.0" stroke-linecap="round" stroke-linejoin="round"/>
    <path d="M 154.343017578125 120.23776245117188 C 136.18728637695312 117.7508544921875 139.0809326171875 117.32324981689453 156.05201721191406 126.05884552001953" stroke-width="2" fill="none" stroke="rgb(0, 0, 0)" stroke-opacity="1.0" stroke-linecap="round" stroke-linejoin="round"/>
    <path d="M 139.10342407226562 142.31907653808594 C 125.50738525390625 143.446044921875 112.05133819580078 149.10989379882812 110.36567687988281 125.50553894042969" stroke-width="2" fill="none" stroke="rgb(0, 0, 0)" stroke-opacity="1.0" stroke-linecap="round" stroke-linejoin="round"/>
    <path d="M 172.52151489257812 68.67552947998047 C 188.87159729003906 48.020687103271484 188.7159423828125 82.02970123291016 163.85260009765625 126.5343246459961" stroke-width="2" fill="none" stroke="rgb(0, 0, 0)" stroke-opacity="1.0" stroke-linecap="round" stroke-linejoin="round"/>
    <path d="M 165.75160217285156 117.87228393554688 C 169.65879821777344 172.19908142089844 171.66485595703125 150.98980712890625 95.85188293457031 145.50054931640625" stroke-width="2" fill="none" stroke="rgb(0, 0, 0)" stroke-opacity="1.0" stroke-linecap="round" stroke-linejoin="round"/>
    <path d="M 49.95766830444336 143.3730926513672 C 83.9132080078125 146.8253173828125 117.55183410644531 162.36073303222656 114.03961181640625 146.6885223388672" stroke-width="2" fill="none" stroke="rgb(0, 0, 0)" stroke-opacity="1.0" stroke-linecap="round" stroke-linejoin="round"/>
    <path d="M 106.49979400634766 104.10453796386719 C 96.31791687011719 66.10318756103516 95.24989318847656 55.63512420654297 99.69822692871094 99.0184555053711" stroke-width="2" fill="none" stroke="rgb(0, 0, 0)" stroke-opacity="1.0" stroke-linecap="round" stroke-linejoin="round"/>
    <path d="M 158.49642944335938 99.11392974853516 C 144.55615234375 96.1769027709961 156.1569061279297 86.6721420288086 180.22714233398438 62.97360610961914" stroke-width="2" fill="none" stroke="rgb(0, 0, 0)" stroke-opacity="1.0" stroke-linecap="round" stroke-linejoin="round"/>
    <path d="M 84.9416275024414 74.0842514038086 C 75.80020141601562 121.60713195800781 86.06968688964844 95.31082916259766 59.37611770629883 99.20665740966797" stroke-width="2" fill="none" stroke="rgb(0, 0, 0)" stroke-opacity="1.0" stroke-linecap="round" stroke-linejoin="round"/>
  </g>
</svg>
