<?xml version="1.0" ?>
<svg xmlns="http://www.w3.org/2000/svg" version="1.1" width="224" height="224">
  <defs/>
  <g>
    <path d="M 98.13587951660156 138.36459350585938 C 98.35240173339844 107.86807250976562 89.41738891601562 133.7323760986328 77.9658432006836 101.71248626708984" stroke-width="2" fill="none" stroke="rgb(0, 0, 0)" stroke-opacity="1.0" stroke-linecap="round" stroke-linejoin="round"/>
    <path d="M 152.36524963378906 149.83175659179688 C 124.88943481445312 141.91995239257812 86.46891021728516 133.35467529296875 134.52146911621094 120.19586944580078" stroke-width="2" fill="none" stroke="rgb(0, 0, 0)" stroke-opacity="1.0" stroke-linecap="round" stroke-linejoin="round"/>
    <path d="M 117.42830657958984 119.97392272949219 C 146.08872985839844 117.66780090332031 126.06082916259766 107.98860168457031 122.13441467285156 126.72193145751953" stroke-width="2" fill="none" stroke="rgb(0, 0, 0)" stroke-opacity="1.0" stroke-linecap="round" stroke-linejoin="round"/>
    <path d="M 145.63693237304688 125.18582153320312 C 128.985107421875 133.19351196289062 157.02371215820312 122.29997253417969 156.22384643554688 133.69180297851562" stroke-width="2" fill="none" stroke="rgb(0, 0, 0)" stroke-opacity="1.0" stroke-linecap="round" stroke-linejoin="round"/>
    <path d="M 116.76936340332031 104.2120361328125 C 129.95751953125 111.26696014404297 135.00318908691406 80.33031463623047 157.85105895996094 114.02154541015625" stroke-width="2" fill="none" stroke="rgb(0, 0, 0)" stroke-opacity="1.0" stroke-linecap="round" stroke-linejoin="round"/>
    <path d="M 117.6815414428711 102.0293197631836 C 135.2715301513672 107.75350189208984 120.61073303222656 103.96500396728516 119.83153533935547 119.97393035888672" stroke-width="2" fill="none" stroke="rgb(0, 0, 0)" stroke-opacity="1.0" stroke-linecap="round" stroke-linejoin="round"/>
    <path d="M 97.44093322753906 71.6200942993164 C 128.46914672851562 87.5982894897461 114.3755874633789 101.20884704589844 151.93658447265625 93.08682250976562" stroke-width="2" fill="none" stroke="rgb(0, 0, 0)" stroke-opacity="1.0" stroke-linecap="round" stroke-linejoin="round"/>
    <path d="M 74.18514251708984 136.2686309814453 C 79.74564361572266 150.61093139648438 18.73786735534668 150.15945434570312 51.1856803894043 108.46056365966797" stroke-width="2" fill="none" stroke="rgb(0, 0, 0)" stroke-opacity="1.0" stroke-linecap="round" stroke-linejoin="round"/>
    <path d="M 151.7076873779297 117.82789611816406 C 133.49781799316406 116.57661437988281 138.92010498046875 117.36223602294922 150.98699951171875 123.1275634765625" stroke-width="2" fill="none" stroke="rgb(0, 0, 0)" stroke-opacity="1.0" stroke-linecap="round" stroke-linejoin="round"/>
    <path d="M 129.2710418701172 147.27557373046875 C 132.0301971435547 142.29934692382812 116.31790924072266 145.63150024414062 109.40108489990234 122.35896301269531" stroke-width="2" fill="none" stroke="rgb(0, 0, 0)" stroke-opacity="1.0" stroke-linecap="round" stroke-linejoin="round"/>
    <path d="M 173.40768432617188 67.41263580322266 C 186.2164764404297 47.381629943847656 186.32958984375 83.0725326538086 165.60462951660156 119.32585144042969" stroke-width="2" fill="none" stroke="rgb(0, 0, 0)" stroke-opacity="1.0" stroke-linecap="round" stroke-linejoin="round"/>
    <path d="M 168.5908203125 118.09517669677734 C 172.61839294433594 167.2735595703125 165.81471252441406 150.03114318847656 102.7684097290039 144.37242126464844" stroke-width="2" fill="none" stroke="rgb(0, 0, 0)" stroke-opacity="1.0" stroke-linecap="round" stroke-linejoin="round"/>
    <path d="M 46.68999481201172 143.6248016357422 C 83.8280258178711 147.706298828125 115.0954360961914 164.54058837890625 115.3084716796875 155.67298889160156" stroke-width="2" fill="none" stroke="rgb(0, 0, 0)" stroke-opacity="1.0" stroke-linecap="round" stroke-linejoin="round"/>
    <path d="M 106.71832275390625 104.084716796875 C 90.48171997070312 68.12528228759766 96.6805419921875 57.02910232543945 100.9649887084961 97.75311279296875" stroke-width="2" fill="none" stroke="rgb(0, 0, 0)" stroke-opacity="1.0" stroke-linecap="round" stroke-linejoin="round"/>
    <path d="M 160.18104553222656 96.70751190185547 C 142.77337646484375 96.70614624023438 157.75218200683594 90.40120697021484 180.2704620361328 63.09641647338867" stroke-width="2" fill="none" stroke="rgb(0, 0, 0)" stroke-opacity="1.0" stroke-linecap="round" stroke-linejoin="round"/>
    <path d="M 79.58483123779297 76.51050567626953 C 75.90898895263672 124.34986114501953 84.20671844482422 91.93123626708984 53.24667739868164 108.87228393554688" stroke-width="2" fill="none" stroke="rgb(0, 0, 0)" stroke-opacity="1.0" stroke-linecap="round" stroke-linejoin="round"/>
  </g>
</svg>
