<?xml version="1.0" ?>
<svg xmlns="http://www.w3.org/2000/svg" version="1.1" width="224" height="224">
  <defs/>
  <g>
    <path d="M 136.92430114746094 95.51722717285156 C 137.4463348388672 95.22747802734375 134.78656005859375 94.45369720458984 136.80628967285156 95.11357116699219" stroke-width="3.0" fill="none" stroke="rgb(0, 0, 0)" stroke-opacity="1.0" stroke-linecap="round" stroke-linejoin="round"/>
    <path d="M 169.32882690429688 126.67892456054688 C 164.60928344726562 142.16529846191406 175.20449829101562 129.599609375 162.94151306152344 138.02195739746094" stroke-width="3.0" fill="none" stroke="rgb(0, 0, 0)" stroke-opacity="1.0" stroke-linecap="round" stroke-linejoin="round"/>
    <path d="M 85.14324951171875 123.78701782226562 C 90.01544189453125 165.28097534179688 76.1364517211914 134.165283203125 88.32658386230469 111.73365783691406" stroke-width="3.0" fill="none" stroke="rgb(0, 0, 0)" stroke-opacity="1.0" stroke-linecap="round" stroke-linejoin="round"/>
    <path d="M 97.07123565673828 126.3927993774414 C 94.46195220947266 129.03970336914062 100.9971694946289 120.25743103027344 95.40509033203125 128.93487548828125" stroke-width="3.0" fill="none" stroke="rgb(0, 0, 0)" stroke-opacity="1.0" stroke-linecap="round" stroke-linejoin="round"/>
    <path d="M 159.87567138671875 86.25270080566406 C 159.52513122558594 86.69987487792969 159.56114196777344 85.69661712646484 159.38497924804688 86.4065170288086" stroke-width="3.0" fill="none" stroke="rgb(0, 0, 0)" stroke-opacity="1.0" stroke-linecap="round" stroke-linejoin="round"/>
    <path d="M 131.6810760498047 59.16082763671875 C 133.3416290283203 59.747161865234375 129.2301483154297 55.16348648071289 139.06312561035156 53.46479797363281" stroke-width="3.0" fill="none" stroke="rgb(0, 0, 0)" stroke-opacity="1.0" stroke-linecap="round" stroke-linejoin="round"/>
    <path d="M 107.1349868774414 146.11215209960938 C 151.158935546875 141.16473388671875 143.6370391845703 142.96141052246094 145.41046142578125 146.06866455078125" stroke-width="3.0" fill="none" stroke="rgb(0, 0, 0)" stroke-opacity="1.0" stroke-linecap="round" stroke-linejoin="round"/>
    <path d="M 122.22628021240234 105.51210021972656 C 122.12872314453125 105.21820831298828 122.94673919677734 103.71268463134766 122.3961181640625 104.52804565429688" stroke-width="3.0" fill="none" stroke="rgb(0, 0, 0)" stroke-opacity="1.0" stroke-linecap="round" stroke-linejoin="round"/>
    <path d="M 86.98782348632812 147.21044921875 C 89.4462661743164 101.74244689941406 76.31106567382812 112.42630767822266 83.29546356201172 149.0418243408203" stroke-width="3.0" fill="none" stroke="rgb(0, 0, 0)" stroke-opacity="1.0" stroke-linecap="round" stroke-linejoin="round"/>
    <path d="M 132.26824951171875 57.9255485534668 C 131.5839080810547 58.00729751586914 131.68807983398438 54.863399505615234 127.8224105834961 59.058998107910156" stroke-width="3.0" fill="none" stroke="rgb(0, 0, 0)" stroke-opacity="1.0" stroke-linecap="round" stroke-linejoin="round"/>
    <path d="M 81.68485260009766 146.42974853515625 C 80.96495819091797 156.38137817382812 120.45349884033203 143.4114227294922 83.44544219970703 147.75131225585938" stroke-width="3.0" fill="none" stroke="rgb(0, 0, 0)" stroke-opacity="1.0" stroke-linecap="round" stroke-linejoin="round"/>
    <path d="M 154.65200805664062 153.98912048339844 C 140.28005981445312 163.6510009765625 145.27236938476562 145.6449432373047 144.06884765625 145.12692260742188" stroke-width="3.0" fill="none" stroke="rgb(0, 0, 0)" stroke-opacity="1.0" stroke-linecap="round" stroke-linejoin="round"/>
    <path d="M 159.61386108398438 86.51087951660156 C 162.31149291992188 87.21138763427734 158.36912536621094 86.17230987548828 159.34368896484375 86.05070495605469" stroke-width="3.0" fill="none" stroke="rgb(0, 0, 0)" stroke-opacity="1.0" stroke-linecap="round" stroke-linejoin="round"/>
    <path d="M 159.33303833007812 86.11338806152344 C 160.9669647216797 86.52535247802734 160.342529296875 86.18209838867188 158.9875030517578 86.1485595703125" stroke-width="3.0" fill="none" stroke="rgb(0, 0, 0)" stroke-opacity="1.0" stroke-linecap="round" stroke-linejoin="round"/>
    <path d="M 172.99595642089844 58.25461959838867 C 174.0440673828125 61.46171569824219 171.0538787841797 54.42353820800781 172.82498168945312 58.36903762817383" stroke-width="3.0" fill="none" stroke="rgb(0, 0, 0)" stroke-opacity="1.0" stroke-linecap="round" stroke-linejoin="round"/>
    <path d="M 182.55587768554688 69.9074478149414 C 186.04434204101562 74.12871551513672 182.83802795410156 69.9791488647461 183.45285034179688 71.14382934570312" stroke-width="3.0" fill="none" stroke="rgb(0, 0, 0)" stroke-opacity="1.0" stroke-linecap="round" stroke-linejoin="round"/>
  </g>
</svg>
