<?xml version="1.0" ?>
<svg xmlns="http://www.w3.org/2000/svg" version="1.1" width="224" height="224">
  <defs/>
  <g>
    <path d="M 70.9776382446289 85.29174041748047 C 79.29280853271484 93.7223129272461 68.2987060546875 86.5591049194336 72.81132507324219 77.58707427978516" stroke-width="3.0" fill="none" stroke="rgb(0, 0, 0)" stroke-opacity="1.0" stroke-linecap="round" stroke-linejoin="round"/>
    <path d="M 177.6094970703125 178.33399963378906 C 169.77865600585938 223.431396484375 169.1711883544922 188.6543426513672 169.36441040039062 201.85272216796875" stroke-width="3.0" fill="none" stroke="rgb(0, 0, 0)" stroke-opacity="1.0" stroke-linecap="round" stroke-linejoin="round"/>
    <path d="M 116.49884796142578 135.06161499023438 C 117.74417114257812 131.70458984375 115.56401062011719 131.66635131835938 108.80459594726562 136.23704528808594" stroke-width="3.0" fill="none" stroke="rgb(0, 0, 0)" stroke-opacity="1.0" stroke-linecap="round" stroke-linejoin="round"/>
    <path d="M 135.5857391357422 99.9010009765625 C 137.45428466796875 100.56256866455078 137.7572479248047 101.05018615722656 148.87677001953125 108.96142578125" stroke-width="3.0" fill="none" stroke="rgb(0, 0, 0)" stroke-opacity="1.0" stroke-linecap="round" stroke-linejoin="round"/>
    <path d="M 90.34149169921875 50.06837463378906 C 101.76419067382812 30.156415939331055 93.28932189941406 78.16552734375 93.76432800292969 40.91492462158203" stroke-width="3.0" fill="none" stroke="rgb(0, 0, 0)" stroke-opacity="1.0" stroke-linecap="round" stroke-linejoin="round"/>
    <path d="M 85.64777374267578 40.11521530151367 C 101.48514556884766 57.374366760253906 88.39202117919922 41.233612060546875 90.3635482788086 58.29235076904297" stroke-width="3.0" fill="none" stroke="rgb(0, 0, 0)" stroke-opacity="1.0" stroke-linecap="round" stroke-linejoin="round"/>
    <path d="M 177.7870330810547 177.52459716796875 C 176.38368225097656 182.15753173828125 184.15736389160156 180.08558654785156 176.7520294189453 153.4055633544922" stroke-width="3.0" fill="none" stroke="rgb(0, 0, 0)" stroke-opacity="1.0" stroke-linecap="round" stroke-linejoin="round"/>
    <path d="M 79.27523803710938 127.23725891113281 C 69.87925720214844 126.30130767822266 75.9798583984375 111.83563995361328 73.08573913574219 119.97920989990234" stroke-width="3.0" fill="none" stroke="rgb(0, 0, 0)" stroke-opacity="1.0" stroke-linecap="round" stroke-linejoin="round"/>
    <path d="M 112.0077896118164 135.38832092285156 C 121.5292739868164 134.70021057128906 109.42122650146484 135.16221618652344 119.32707977294922 133.73316955566406" stroke-width="3.0" fill="none" stroke="rgb(0, 0, 0)" stroke-opacity="1.0" stroke-linecap="round" stroke-linejoin="round"/>
    <path d="M 76.4124526977539 27.897218704223633 C 74.61123657226562 52.027591705322266 77.34539794921875 49.93380355834961 79.99098205566406 44.1754150390625" stroke-width="3.0" fill="none" stroke="rgb(0, 0, 0)" stroke-opacity="1.0" stroke-linecap="round" stroke-linejoin="round"/>
    <path d="M 103.5828628540039 208.40133666992188 C 166.5864715576172 186.66134643554688 117.30256652832031 201.72659301757812 173.81942749023438 202.35289001464844" stroke-width="3.0" fill="none" stroke="rgb(0, 0, 0)" stroke-opacity="1.0" stroke-linecap="round" stroke-linejoin="round"/>
    <path d="M 177.7998504638672 183.535888671875 C 178.3437957763672 156.8549041748047 183.36485290527344 147.9839324951172 156.63687133789062 113.51236724853516" stroke-width="3.0" fill="none" stroke="rgb(0, 0, 0)" stroke-opacity="1.0" stroke-linecap="round" stroke-linejoin="round"/>
    <path d="M 96.09428405761719 72.30326080322266 C 133.47799682617188 49.50813674926758 120.71147155761719 81.42603302001953 118.8917007446289 33.36432647705078" stroke-width="3.0" fill="none" stroke="rgb(0, 0, 0)" stroke-opacity="1.0" stroke-linecap="round" stroke-linejoin="round"/>
    <path d="M 91.85120391845703 68.169677734375 C 84.66331481933594 43.3459587097168 67.98561096191406 87.89399719238281 77.68547821044922 57.16664505004883" stroke-width="3.0" fill="none" stroke="rgb(0, 0, 0)" stroke-opacity="1.0" stroke-linecap="round" stroke-linejoin="round"/>
    <path d="M 107.83055114746094 55.21087646484375 C 109.32260131835938 34.0903434753418 93.14958190917969 45.903900146484375 121.82115936279297 43.49871826171875" stroke-width="3.0" fill="none" stroke="rgb(0, 0, 0)" stroke-opacity="1.0" stroke-linecap="round" stroke-linejoin="round"/>
    <path d="M 87.11837768554688 66.19732666015625 C 68.0306625366211 55.91047286987305 80.52034759521484 78.12202453613281 75.97147369384766 54.274288177490234" stroke-width="3.0" fill="none" stroke="rgb(0, 0, 0)" stroke-opacity="1.0" stroke-linecap="round" stroke-linejoin="round"/>
    <path d="M 139.31520080566406 103.8194808959961 C 144.0526580810547 102.82290649414062 141.05032348632812 105.59858703613281 142.21051025390625 103.47384643554688" stroke-width="3.0" fill="none" stroke="rgb(0, 0, 0)" stroke-opacity="1.0" stroke-linecap="round" stroke-linejoin="round"/>
    <path d="M 118.72000122070312 74.95594787597656 C 118.72734832763672 106.4931640625 156.21328735351562 111.99252319335938 120.86714935302734 91.27281951904297" stroke-width="3.0" fill="none" stroke="rgb(0, 0, 0)" stroke-opacity="1.0" stroke-linecap="round" stroke-linejoin="round"/>
    <path d="M 87.5763168334961 78.26423645019531 C 95.5139389038086 85.51118469238281 108.77609252929688 77.71443176269531 105.05582427978516 43.070350646972656" stroke-width="3.0" fill="none" stroke="rgb(0, 0, 0)" stroke-opacity="1.0" stroke-linecap="round" stroke-linejoin="round"/>
    <path d="M 84.10181427001953 137.7752227783203 C 76.36396026611328 125.2759780883789 86.39119720458984 146.53208923339844 90.11363220214844 131.03054809570312" stroke-width="3.0" fill="none" stroke="rgb(0, 0, 0)" stroke-opacity="1.0" stroke-linecap="round" stroke-linejoin="round"/>
    <path d="M 100.38655853271484 40.97262191772461 C 95.41747283935547 103.9154052734375 104.72373962402344 73.30864715576172 101.15833282470703 43.79105758666992" stroke-width="3.0" fill="none" stroke="rgb(0, 0, 0)" stroke-opacity="1.0" stroke-linecap="round" stroke-linejoin="round"/>
    <path d="M 101.37843322753906 59.668304443359375 C 94.92945098876953 92.74934387207031 85.39196014404297 79.0596694946289 103.55476379394531 79.7772216796875" stroke-width="3.0" fill="none" stroke="rgb(0, 0, 0)" stroke-opacity="1.0" stroke-linecap="round" stroke-linejoin="round"/>
    <path d="M 74.8722915649414 101.61477661132812 C 79.66459655761719 101.69950103759766 65.33953094482422 105.36998748779297 71.46954345703125 84.09357452392578" stroke-width="3.0" fill="none" stroke="rgb(0, 0, 0)" stroke-opacity="1.0" stroke-linecap="round" stroke-linejoin="round"/>
    <path d="M 93.92423248291016 99.20496368408203 C 103.05154418945312 99.88972473144531 116.07644653320312 93.53241729736328 98.93889617919922 95.51129150390625" stroke-width="3.0" fill="none" stroke="rgb(0, 0, 0)" stroke-opacity="1.0" stroke-linecap="round" stroke-linejoin="round"/>
    <path d="M 146.09844970703125 152.23081970214844 C 146.10585021972656 151.4838104248047 133.3712615966797 149.69259643554688 133.37353515625 159.5336456298828" stroke-width="3.0" fill="none" stroke="rgb(0, 0, 0)" stroke-opacity="1.0" stroke-linecap="round" stroke-linejoin="round"/>
    <path d="M 106.16375732421875 63.50163650512695 C 115.23848724365234 48.35152053833008 127.8747329711914 95.63130950927734 117.85787200927734 54.078060150146484" stroke-width="3.0" fill="none" stroke="rgb(0, 0, 0)" stroke-opacity="1.0" stroke-linecap="round" stroke-linejoin="round"/>
    <path d="M 105.010986328125 121.73717498779297 C 123.33045196533203 115.53822326660156 104.85171508789062 121.90608978271484 109.59386444091797 119.56219482421875" stroke-width="3.0" fill="none" stroke="rgb(0, 0, 0)" stroke-opacity="1.0" stroke-linecap="round" stroke-linejoin="round"/>
    <path d="M 71.08602905273438 114.46905517578125 C 79.71187591552734 142.6165008544922 81.07164764404297 127.57464599609375 94.7631607055664 136.4783477783203" stroke-width="3.0" fill="none" stroke="rgb(0, 0, 0)" stroke-opacity="1.0" stroke-linecap="round" stroke-linejoin="round"/>
    <path d="M 119.49412536621094 29.59546661376953 C 108.00782775878906 46.14257049560547 128.10646057128906 54.96701431274414 120.82266235351562 29.22266960144043" stroke-width="3.0" fill="none" stroke="rgb(0, 0, 0)" stroke-opacity="1.0" stroke-linecap="round" stroke-linejoin="round"/>
    <path d="M 141.51885986328125 104.83451843261719 C 121.5335922241211 107.31800842285156 117.69001770019531 84.37942504882812 140.9897003173828 104.17681121826172" stroke-width="3.0" fill="none" stroke="rgb(0, 0, 0)" stroke-opacity="1.0" stroke-linecap="round" stroke-linejoin="round"/>
    <path d="M 107.7040023803711 42.08798599243164 C 83.33991241455078 40.6995964050293 104.66471099853516 37.21381378173828 95.68730163574219 58.3338508605957" stroke-width="3.0" fill="none" stroke="rgb(0, 0, 0)" stroke-opacity="1.0" stroke-linecap="round" stroke-linejoin="round"/>
    <path d="M 76.0821533203125 54.67300033569336 C 82.97140502929688 33.55974578857422 107.50373077392578 57.66129684448242 78.9291000366211 28.940296173095703" stroke-width="3.0" fill="none" stroke="rgb(0, 0, 0)" stroke-opacity="1.0" stroke-linecap="round" stroke-linejoin="round"/>
  </g>
</svg>
