<?xml version="1.0" ?>
<svg xmlns="http://www.w3.org/2000/svg" version="1.1" width="224" height="224">
  <defs/>
  <g>
    <path d="M 72.3095474243164 85.7708969116211 C 75.60005187988281 89.52969360351562 68.45862579345703 85.9404067993164 73.51013946533203 78.13667297363281" stroke-width="3.0" fill="none" stroke="rgb(0, 0, 0)" stroke-opacity="1.0" stroke-linecap="round" stroke-linejoin="round"/>
    <path d="M 178.18405151367188 177.3570556640625 C 168.4739990234375 225.8700408935547 172.89468383789062 185.67262268066406 169.04653930664062 200.4869842529297" stroke-width="3.0" fill="none" stroke="rgb(0, 0, 0)" stroke-opacity="1.0" stroke-linecap="round" stroke-linejoin="round"/>
    <path d="M 117.69392395019531 134.5751953125 C 123.41236114501953 135.5537109375 108.27100372314453 132.31956481933594 107.76365661621094 137.557861328125" stroke-width="3.0" fill="none" stroke="rgb(0, 0, 0)" stroke-opacity="1.0" stroke-linecap="round" stroke-linejoin="round"/>
    <path d="M 131.0268096923828 99.31011962890625 C 133.7361602783203 98.99230194091797 137.2736053466797 100.14115142822266 148.44384765625 108.73666381835938" stroke-width="3.0" fill="none" stroke="rgb(0, 0, 0)" stroke-opacity="1.0" stroke-linecap="round" stroke-linejoin="round"/>
    <path d="M 95.00763702392578 49.22511291503906 C 105.79613494873047 24.99936294555664 89.68406677246094 86.11430358886719 94.98809814453125 41.12151336669922" stroke-width="3.0" fill="none" stroke="rgb(0, 0, 0)" stroke-opacity="1.0" stroke-linecap="round" stroke-linejoin="round"/>
    <path d="M 85.8584976196289 39.94376754760742 C 101.01472473144531 58.502376556396484 86.26514434814453 34.29238510131836 90.53437805175781 57.549747467041016" stroke-width="3.0" fill="none" stroke="rgb(0, 0, 0)" stroke-opacity="1.0" stroke-linecap="round" stroke-linejoin="round"/>
    <path d="M 179.43453979492188 178.89657592773438 C 175.16293334960938 188.43264770507812 184.0937042236328 179.55130004882812 176.60076904296875 153.75502014160156" stroke-width="3.0" fill="none" stroke="rgb(0, 0, 0)" stroke-opacity="1.0" stroke-linecap="round" stroke-linejoin="round"/>
    <path d="M 80.11396789550781 127.43447875976562 C 68.63028717041016 124.8576431274414 77.72631072998047 108.61512756347656 73.92899322509766 119.66626739501953" stroke-width="3.0" fill="none" stroke="rgb(0, 0, 0)" stroke-opacity="1.0" stroke-linecap="round" stroke-linejoin="round"/>
    <path d="M 114.67184448242188 133.653076171875 C 120.65625762939453 135.0314178466797 100.34493255615234 129.88360595703125 119.95082092285156 134.1710205078125" stroke-width="3.0" fill="none" stroke="rgb(0, 0, 0)" stroke-opacity="1.0" stroke-linecap="round" stroke-linejoin="round"/>
    <path d="M 76.42108917236328 27.05194091796875 C 75.46270751953125 56.68696594238281 80.54077911376953 49.08431625366211 78.97492218017578 41.53974914550781" stroke-width="3.0" fill="none" stroke="rgb(0, 0, 0)" stroke-opacity="1.0" stroke-linecap="round" stroke-linejoin="round"/>
    <path d="M 102.61591339111328 207.63343811035156 C 163.35963439941406 186.0384979248047 119.72096252441406 201.60447692871094 174.15777587890625 202.3673095703125" stroke-width="3.0" fill="none" stroke="rgb(0, 0, 0)" stroke-opacity="1.0" stroke-linecap="round" stroke-linejoin="round"/>
    <path d="M 177.51564025878906 180.9978485107422 C 177.08274841308594 151.74758911132812 184.5734100341797 148.21514892578125 157.30279541015625 113.51253509521484" stroke-width="3.0" fill="none" stroke="rgb(0, 0, 0)" stroke-opacity="1.0" stroke-linecap="round" stroke-linejoin="round"/>
    <path d="M 95.09182739257812 73.27177429199219 C 131.2693634033203 51.79650115966797 123.42827606201172 81.91229248046875 118.48625183105469 33.641231536865234" stroke-width="3.0" fill="none" stroke="rgb(0, 0, 0)" stroke-opacity="1.0" stroke-linecap="round" stroke-linejoin="round"/>
    <path d="M 90.38370513916016 67.7576904296875 C 84.58271789550781 42.66093444824219 68.35902404785156 80.92753601074219 77.29862213134766 57.313289642333984" stroke-width="3.0" fill="none" stroke="rgb(0, 0, 0)" stroke-opacity="1.0" stroke-linecap="round" stroke-linejoin="round"/>
    <path d="M 108.2413101196289 53.74958038330078 C 110.77273559570312 36.69383239746094 91.18431091308594 44.10869598388672 120.66207885742188 42.80940628051758" stroke-width="3.0" fill="none" stroke="rgb(0, 0, 0)" stroke-opacity="1.0" stroke-linecap="round" stroke-linejoin="round"/>
    <path d="M 85.04524993896484 65.6893081665039 C 65.49127960205078 60.365352630615234 80.04722595214844 81.84608459472656 76.02128601074219 54.744754791259766" stroke-width="3.0" fill="none" stroke="rgb(0, 0, 0)" stroke-opacity="1.0" stroke-linecap="round" stroke-linejoin="round"/>
    <path d="M 138.5572967529297 103.92903900146484 C 143.7403564453125 103.30353546142578 141.04989624023438 104.05009460449219 139.59063720703125 104.08663940429688" stroke-width="3.0" fill="none" stroke="rgb(0, 0, 0)" stroke-opacity="1.0" stroke-linecap="round" stroke-linejoin="round"/>
    <path d="M 119.72900390625 72.47200012207031 C 110.74739074707031 87.66756439208984 157.88992309570312 124.03780364990234 120.43201446533203 88.97261810302734" stroke-width="3.0" fill="none" stroke="rgb(0, 0, 0)" stroke-opacity="1.0" stroke-linecap="round" stroke-linejoin="round"/>
    <path d="M 87.80033874511719 78.18682098388672 C 91.82614135742188 85.44466400146484 112.14458465576172 73.19619750976562 104.47859191894531 42.92076873779297" stroke-width="3.0" fill="none" stroke="rgb(0, 0, 0)" stroke-opacity="1.0" stroke-linecap="round" stroke-linejoin="round"/>
    <path d="M 84.9770278930664 138.79795837402344 C 71.11564636230469 130.40777587890625 94.4925308227539 144.08236694335938 89.26793670654297 127.82543182373047" stroke-width="3.0" fill="none" stroke="rgb(0, 0, 0)" stroke-opacity="1.0" stroke-linecap="round" stroke-linejoin="round"/>
    <path d="M 102.86154174804688 42.048301696777344 C 95.4449234008789 105.2878189086914 111.79473876953125 73.2191390991211 103.53697967529297 42.795372009277344" stroke-width="3.0" fill="none" stroke="rgb(0, 0, 0)" stroke-opacity="1.0" stroke-linecap="round" stroke-linejoin="round"/>
    <path d="M 104.27253723144531 58.60969924926758 C 92.92082977294922 90.26663970947266 87.60802459716797 73.71875762939453 105.5515365600586 76.77800750732422" stroke-width="3.0" fill="none" stroke="rgb(0, 0, 0)" stroke-opacity="1.0" stroke-linecap="round" stroke-linejoin="round"/>
    <path d="M 71.99200439453125 97.97601318359375 C 83.7623062133789 102.78543853759766 65.08538055419922 100.80322265625 71.5682373046875 83.70475006103516" stroke-width="3.0" fill="none" stroke="rgb(0, 0, 0)" stroke-opacity="1.0" stroke-linecap="round" stroke-linejoin="round"/>
    <path d="M 92.79351806640625 98.15579986572266 C 103.79194641113281 99.35588073730469 120.08135986328125 94.06294250488281 97.21792602539062 94.99806213378906" stroke-width="3.0" fill="none" stroke="rgb(0, 0, 0)" stroke-opacity="1.0" stroke-linecap="round" stroke-linejoin="round"/>
    <path d="M 159.33775329589844 147.1563262939453 C 151.61875915527344 141.77410888671875 134.8699951171875 151.39077758789062 133.9838409423828 159.43878173828125" stroke-width="3.0" fill="none" stroke="rgb(0, 0, 0)" stroke-opacity="1.0" stroke-linecap="round" stroke-linejoin="round"/>
    <path d="M 108.48088836669922 63.718780517578125 C 112.68122863769531 48.92018508911133 126.37709045410156 97.2761459350586 118.2511215209961 52.28947830200195" stroke-width="3.0" fill="none" stroke="rgb(0, 0, 0)" stroke-opacity="1.0" stroke-linecap="round" stroke-linejoin="round"/>
    <path d="M 104.79273986816406 120.26590728759766 C 117.76376342773438 114.92610168457031 102.13455963134766 121.59829711914062 101.35662078857422 121.29883575439453" stroke-width="3.0" fill="none" stroke="rgb(0, 0, 0)" stroke-opacity="1.0" stroke-linecap="round" stroke-linejoin="round"/>
    <path d="M 69.71512603759766 102.4180679321289 C 78.13520050048828 148.0736541748047 84.1263198852539 128.9244384765625 96.59475708007812 135.4241485595703" stroke-width="3.0" fill="none" stroke="rgb(0, 0, 0)" stroke-opacity="1.0" stroke-linecap="round" stroke-linejoin="round"/>
    <path d="M 119.501708984375 31.62865447998047 C 107.99081420898438 44.39434051513672 126.97957611083984 59.38252639770508 121.02457427978516 30.297210693359375" stroke-width="3.0" fill="none" stroke="rgb(0, 0, 0)" stroke-opacity="1.0" stroke-linecap="round" stroke-linejoin="round"/>
    <path d="M 141.5015869140625 104.9570541381836 C 123.91905975341797 108.17300415039062 119.06920623779297 84.02732849121094 137.4939727783203 104.91033172607422" stroke-width="3.0" fill="none" stroke="rgb(0, 0, 0)" stroke-opacity="1.0" stroke-linecap="round" stroke-linejoin="round"/>
    <path d="M 106.07159423828125 40.71615219116211 C 89.59004974365234 41.16290283203125 106.04513549804688 30.29364585876465 97.25839233398438 57.83844757080078" stroke-width="3.0" fill="none" stroke="rgb(0, 0, 0)" stroke-opacity="1.0" stroke-linecap="round" stroke-linejoin="round"/>
    <path d="M 75.40739440917969 54.96529006958008 C 84.16028594970703 31.509647369384766 108.16307830810547 58.453914642333984 78.31216430664062 28.25264549255371" stroke-width="3.0" fill="none" stroke="rgb(0, 0, 0)" stroke-opacity="1.0" stroke-linecap="round" stroke-linejoin="round"/>
  </g>
</svg>
