<?xml version="1.0" ?>
<svg xmlns="http://www.w3.org/2000/svg" version="1.1" width="224" height="224">
  <defs/>
  <g>
    <path d="M 114.71160125732422 68.02140045166016 C 123.14446258544922 123.28067779541016 58.1521110534668 61.29456329345703 41.12015151977539 126.39746856689453" stroke-width="2" fill="none" stroke="rgb(0, 0, 0)" stroke-opacity="1.0" stroke-linecap="round" stroke-linejoin="round"/>
    <path d="M 167.78848266601562 114.2535629272461 C 162.232177734375 96.73467254638672 191.98834228515625 175.2386016845703 59.46074676513672 147.35885620117188" stroke-width="2" fill="none" stroke="rgb(0, 0, 0)" stroke-opacity="1.0" stroke-linecap="round" stroke-linejoin="round"/>
    <path d="M 68.99828338623047 102.1746826171875 C 131.65362548828125 103.39335632324219 92.92153930664062 133.46731567382812 141.34976196289062 145.70326232910156" stroke-width="2" fill="none" stroke="rgb(0, 0, 0)" stroke-opacity="1.0" stroke-linecap="round" stroke-linejoin="round"/>
    <path d="M 103.58377075195312 92.8785629272461 C 127.33578491210938 44.66318130493164 81.86463165283203 132.02455139160156 133.6691436767578 105.99799346923828" stroke-width="2" fill="none" stroke="rgb(0, 0, 0)" stroke-opacity="1.0" stroke-linecap="round" stroke-linejoin="round"/>
    <path d="M 122.74418640136719 114.64260864257812 C 165.9586944580078 135.63165283203125 107.81706237792969 121.72637176513672 137.3833770751953 124.0430908203125" stroke-width="2" fill="none" stroke="rgb(0, 0, 0)" stroke-opacity="1.0" stroke-linecap="round" stroke-linejoin="round"/>
    <path d="M 122.60967254638672 103.56211853027344 C 202.66468811035156 108.84611511230469 135.0257568359375 106.17324829101562 162.29283142089844 124.97372436523438" stroke-width="2" fill="none" stroke="rgb(0, 0, 0)" stroke-opacity="1.0" stroke-linecap="round" stroke-linejoin="round"/>
    <path d="M 46.13079071044922 124.92984008789062 C 29.898754119873047 164.26634216308594 201.3256072998047 167.20045471191406 171.6028594970703 135.17291259765625" stroke-width="2" fill="none" stroke="rgb(0, 0, 0)" stroke-opacity="1.0" stroke-linecap="round" stroke-linejoin="round"/>
    <path d="M 129.11416625976562 100.82322692871094 C 108.51768493652344 118.89466094970703 168.4938507080078 106.83002471923828 131.64576721191406 118.32201385498047" stroke-width="2" fill="none" stroke="rgb(0, 0, 0)" stroke-opacity="1.0" stroke-linecap="round" stroke-linejoin="round"/>
    <path d="M 113.19580078125 133.30775451660156 C 243.4970703125 125.06815338134766 122.61039733886719 163.56724548339844 85.03706359863281 117.8787841796875" stroke-width="2" fill="none" stroke="rgb(0, 0, 0)" stroke-opacity="1.0" stroke-linecap="round" stroke-linejoin="round"/>
    <path d="M 179.82127380371094 91.38227844238281 C 187.79676818847656 33.32477951049805 170.728759765625 84.075927734375 158.6275634765625 68.60276794433594" stroke-width="2" fill="none" stroke="rgb(0, 0, 0)" stroke-opacity="1.0" stroke-linecap="round" stroke-linejoin="round"/>
    <path d="M 129.3253631591797 127.08595275878906 C 188.1884002685547 159.3731231689453 167.4395294189453 56.263221740722656 138.88864135742188 82.23534393310547" stroke-width="2" fill="none" stroke="rgb(0, 0, 0)" stroke-opacity="1.0" stroke-linecap="round" stroke-linejoin="round"/>
    <path d="M 114.71426391601562 113.54502868652344 C 103.92105865478516 152.46694946289062 46.27241516113281 80.07546997070312 42.91056823730469 127.54994201660156" stroke-width="2" fill="none" stroke="rgb(0, 0, 0)" stroke-opacity="1.0" stroke-linecap="round" stroke-linejoin="round"/>
    <path d="M 158.48159790039062 100.51883697509766 C 190.05960083007812 100.73674774169922 138.29148864746094 129.30368041992188 141.09791564941406 102.95699310302734" stroke-width="2" fill="none" stroke="rgb(0, 0, 0)" stroke-opacity="1.0" stroke-linecap="round" stroke-linejoin="round"/>
    <path d="M 182.2354736328125 70.79640197753906 C 190.1339111328125 57.194366455078125 158.507568359375 105.78054809570312 174.6538543701172 95.68021392822266" stroke-width="2" fill="none" stroke="rgb(0, 0, 0)" stroke-opacity="1.0" stroke-linecap="round" stroke-linejoin="round"/>
    <path d="M 97.73262786865234 71.42982482910156 C 114.82296752929688 57.59428405761719 117.14110565185547 84.73270416259766 133.63499450683594 77.30717468261719" stroke-width="2" fill="none" stroke="rgb(0, 0, 0)" stroke-opacity="1.0" stroke-linecap="round" stroke-linejoin="round"/>
    <path d="M 78.71652221679688 145.17662048339844 C 26.753293991088867 103.58306121826172 47.62097930908203 130.6837615966797 112.36888122558594 147.2897491455078" stroke-width="2" fill="none" stroke="rgb(0, 0, 0)" stroke-opacity="1.0" stroke-linecap="round" stroke-linejoin="round"/>
  </g>
</svg>
