<?xml version="1.0" ?>
<svg xmlns="http://www.w3.org/2000/svg" version="1.1" width="224" height="224">
  <defs/>
  <g>
    <path d="M 104.8831558227539 74.81486511230469 C 124.42011260986328 117.32017517089844 63.627830505371094 75.52285766601562 51.21675491333008 114.220458984375" stroke-width="2" fill="none" stroke="rgb(0, 0, 0)" stroke-opacity="1.0" stroke-linecap="round" stroke-linejoin="round"/>
    <path d="M 156.26019287109375 145.9095001220703 C 205.42918395996094 134.49151611328125 172.75637817382812 192.60806274414062 57.37229537963867 144.209716796875" stroke-width="2" fill="none" stroke="rgb(0, 0, 0)" stroke-opacity="1.0" stroke-linecap="round" stroke-linejoin="round"/>
    <path d="M 127.17391967773438 116.01436614990234 C 213.11935424804688 105.5777359008789 115.2842025756836 138.7297821044922 165.7288055419922 126.24636840820312" stroke-width="2" fill="none" stroke="rgb(0, 0, 0)" stroke-opacity="1.0" stroke-linecap="round" stroke-linejoin="round"/>
    <path d="M 154.99420166015625 145.38856506347656 C 216.84532165527344 150.27816772460938 144.65756225585938 100.586669921875 164.9932403564453 125.8121566772461" stroke-width="2" fill="none" stroke="rgb(0, 0, 0)" stroke-opacity="1.0" stroke-linecap="round" stroke-linejoin="round"/>
    <path d="M 46.597450256347656 123.32169342041016 C 287.2195739746094 140.00296020507812 135.3961944580078 157.9442138671875 116.21611022949219 139.47047424316406" stroke-width="2" fill="none" stroke="rgb(0, 0, 0)" stroke-opacity="1.0" stroke-linecap="round" stroke-linejoin="round"/>
    <path d="M 161.5712890625 91.09300994873047 C 186.66470336914062 81.06646728515625 162.74078369140625 109.78206634521484 160.35653686523438 125.51290130615234" stroke-width="2" fill="none" stroke="rgb(0, 0, 0)" stroke-opacity="1.0" stroke-linecap="round" stroke-linejoin="round"/>
    <path d="M 57.44727325439453 102.93045806884766 C -7.747694492340088 173.5554962158203 168.57571411132812 145.49798583984375 152.49110412597656 155.16253662109375" stroke-width="2" fill="none" stroke="rgb(0, 0, 0)" stroke-opacity="1.0" stroke-linecap="round" stroke-linejoin="round"/>
    <path d="M 133.09463500976562 147.6360321044922 C 73.98591613769531 110.53907012939453 145.44432067871094 85.57389068603516 105.60775756835938 109.13981628417969" stroke-width="2" fill="none" stroke="rgb(0, 0, 0)" stroke-opacity="1.0" stroke-linecap="round" stroke-linejoin="round"/>
    <path d="M 148.6922607421875 124.53598022460938 C 204.73548889160156 114.44285583496094 117.2744140625 128.67263793945312 168.18772888183594 109.20611572265625" stroke-width="2" fill="none" stroke="rgb(0, 0, 0)" stroke-opacity="1.0" stroke-linecap="round" stroke-linejoin="round"/>
    <path d="M 162.04464721679688 79.72434997558594 C 210.2701416015625 30.79155158996582 171.12884521484375 124.15390014648438 163.21707153320312 92.41571807861328" stroke-width="2" fill="none" stroke="rgb(0, 0, 0)" stroke-opacity="1.0" stroke-linecap="round" stroke-linejoin="round"/>
    <path d="M 97.20581817626953 130.93972778320312 C 201.8147735595703 185.12965393066406 189.82862854003906 76.47449493408203 132.50332641601562 87.21563720703125" stroke-width="2" fill="none" stroke="rgb(0, 0, 0)" stroke-opacity="1.0" stroke-linecap="round" stroke-linejoin="round"/>
    <path d="M 54.49024200439453 110.18992614746094 C 117.99919891357422 119.45217895507812 87.397216796875 128.47796630859375 96.19645690917969 111.8116683959961" stroke-width="2" fill="none" stroke="rgb(0, 0, 0)" stroke-opacity="1.0" stroke-linecap="round" stroke-linejoin="round"/>
    <path d="M 90.59064483642578 117.00385284423828 C 179.55746459960938 158.74864196777344 49.29643249511719 116.89836120605469 154.43780517578125 144.70703125" stroke-width="2" fill="none" stroke="rgb(0, 0, 0)" stroke-opacity="1.0" stroke-linecap="round" stroke-linejoin="round"/>
    <path d="M 143.24392700195312 117.65291595458984 C 113.47647094726562 81.45361328125 153.20530700683594 115.1055679321289 121.46244812011719 114.29837036132812" stroke-width="2" fill="none" stroke="rgb(0, 0, 0)" stroke-opacity="1.0" stroke-linecap="round" stroke-linejoin="round"/>
    <path d="M 104.8617172241211 119.2938232421875 C 101.89028930664062 37.17707824707031 146.49342346191406 96.86649322509766 133.26356506347656 87.33380889892578" stroke-width="2" fill="none" stroke="rgb(0, 0, 0)" stroke-opacity="1.0" stroke-linecap="round" stroke-linejoin="round"/>
    <path d="M 58.22316360473633 124.64763641357422 C 32.826026916503906 96.22026062011719 105.91746520996094 107.77778625488281 57.95521926879883 109.8677749633789" stroke-width="2" fill="none" stroke="rgb(0, 0, 0)" stroke-opacity="1.0" stroke-linecap="round" stroke-linejoin="round"/>
  </g>
</svg>
