<?xml version="1.0" ?>
<svg xmlns="http://www.w3.org/2000/svg" version="1.1" width="224" height="224">
  <defs/>
  <g>
    <path d="M 100.92814636230469 74.44453430175781 C 152.52642822265625 132.59329223632812 63.79608154296875 65.6412582397461 46.54607009887695 115.83003234863281" stroke-width="2" fill="none" stroke="rgb(0, 0, 0)" stroke-opacity="1.0" stroke-linecap="round" stroke-linejoin="round"/>
    <path d="M 132.65675354003906 146.54835510253906 C 221.35250854492188 115.81950378417969 189.42247009277344 183.3868408203125 58.497501373291016 140.33099365234375" stroke-width="2" fill="none" stroke="rgb(0, 0, 0)" stroke-opacity="1.0" stroke-linecap="round" stroke-linejoin="round"/>
    <path d="M 66.58699035644531 140.33523559570312 C 30.624420166015625 116.81654357910156 63.32895278930664 153.44386291503906 172.377685546875 143.47218322753906" stroke-width="2" fill="none" stroke="rgb(0, 0, 0)" stroke-opacity="1.0" stroke-linecap="round" stroke-linejoin="round"/>
    <path d="M 162.58750915527344 86.6010513305664 C 106.31610107421875 89.57528686523438 209.01858520507812 139.1417999267578 126.27326202392578 104.78939056396484" stroke-width="2" fill="none" stroke="rgb(0, 0, 0)" stroke-opacity="1.0" stroke-linecap="round" stroke-linejoin="round"/>
    <path d="M 118.41305541992188 130.66709899902344 C 121.58770751953125 95.0138931274414 88.232666015625 121.36791229248047 94.71714782714844 68.80118560791016" stroke-width="2" fill="none" stroke="rgb(0, 0, 0)" stroke-opacity="1.0" stroke-linecap="round" stroke-linejoin="round"/>
    <path d="M 131.06346130371094 131.03167724609375 C 187.80845642089844 134.57025146484375 121.19454956054688 125.61701965332031 163.0316162109375 128.62905883789062" stroke-width="2" fill="none" stroke="rgb(0, 0, 0)" stroke-opacity="1.0" stroke-linecap="round" stroke-linejoin="round"/>
    <path d="M 46.101810455322266 112.91902160644531 C -8.25613021850586 172.4773406982422 196.5154571533203 161.45071411132812 163.60182189941406 150.3286895751953" stroke-width="2" fill="none" stroke="rgb(0, 0, 0)" stroke-opacity="1.0" stroke-linecap="round" stroke-linejoin="round"/>
    <path d="M 78.79340362548828 107.99895477294922 C 128.16351318359375 143.86985778808594 174.52268981933594 70.5188217163086 141.06094360351562 120.48086547851562" stroke-width="2" fill="none" stroke="rgb(0, 0, 0)" stroke-opacity="1.0" stroke-linecap="round" stroke-linejoin="round"/>
    <path d="M 129.5227813720703 115.610595703125 C 146.14276123046875 116.90799713134766 156.80303955078125 139.41995239257812 113.98011016845703 128.61151123046875" stroke-width="2" fill="none" stroke="rgb(0, 0, 0)" stroke-opacity="1.0" stroke-linecap="round" stroke-linejoin="round"/>
    <path d="M 175.9431610107422 94.76529693603516 C 192.02224731445312 27.28013038635254 158.9440460205078 94.300537109375 161.1543731689453 88.61009979248047" stroke-width="2" fill="none" stroke="rgb(0, 0, 0)" stroke-opacity="1.0" stroke-linecap="round" stroke-linejoin="round"/>
    <path d="M 133.04409790039062 109.26719665527344 C 161.33082580566406 143.15847778320312 171.33045959472656 78.8960952758789 110.17308807373047 92.98652648925781" stroke-width="2" fill="none" stroke="rgb(0, 0, 0)" stroke-opacity="1.0" stroke-linecap="round" stroke-linejoin="round"/>
    <path d="M 150.6680145263672 148.99563598632812 C 32.31031036376953 168.35092163085938 25.87477684020996 143.8583984375 79.32206726074219 152.96273803710938" stroke-width="2" fill="none" stroke="rgb(0, 0, 0)" stroke-opacity="1.0" stroke-linecap="round" stroke-linejoin="round"/>
    <path d="M 169.60662841796875 128.30657958984375 C 160.16383361816406 98.56134033203125 183.85643005371094 124.17359161376953 173.28607177734375 85.04569244384766" stroke-width="2" fill="none" stroke="rgb(0, 0, 0)" stroke-opacity="1.0" stroke-linecap="round" stroke-linejoin="round"/>
    <path d="M 137.27479553222656 114.92121124267578 C 157.98582458496094 151.33718872070312 117.5670166015625 94.18688201904297 167.6101837158203 108.03480529785156" stroke-width="2" fill="none" stroke="rgb(0, 0, 0)" stroke-opacity="1.0" stroke-linecap="round" stroke-linejoin="round"/>
    <path d="M 119.41300201416016 113.85557556152344 C 129.3224639892578 128.86322021484375 101.63494873046875 103.79457092285156 130.494873046875 101.88067626953125" stroke-width="2" fill="none" stroke="rgb(0, 0, 0)" stroke-opacity="1.0" stroke-linecap="round" stroke-linejoin="round"/>
    <path d="M 102.12580108642578 136.65420532226562 C 50.58761215209961 122.07625579833984 29.941410064697266 139.8496551513672 91.2278823852539 148.51312255859375" stroke-width="2" fill="none" stroke="rgb(0, 0, 0)" stroke-opacity="1.0" stroke-linecap="round" stroke-linejoin="round"/>
  </g>
</svg>
