<?xml version="1.0" ?>
<svg xmlns="http://www.w3.org/2000/svg" version="1.1" width="224" height="224">
  <defs/>
  <g>
    <path d="M 100.01827239990234 71.73570251464844 C 138.19683837890625 119.88916015625 41.973140716552734 75.6553726196289 58.74345779418945 117.16205596923828" stroke-width="2" fill="none" stroke="rgb(0, 0, 0)" stroke-opacity="1.0" stroke-linecap="round" stroke-linejoin="round"/>
    <path d="M 142.0120849609375 123.9033432006836 C 190.51885986328125 132.6245880126953 187.23342895507812 185.35992431640625 65.4504623413086 149.2275390625" stroke-width="2" fill="none" stroke="rgb(0, 0, 0)" stroke-opacity="1.0" stroke-linecap="round" stroke-linejoin="round"/>
    <path d="M 115.74295806884766 126.2611083984375 C 128.5399627685547 101.64634704589844 75.78611755371094 151.77696228027344 155.05413818359375 146.0298309326172" stroke-width="2" fill="none" stroke="rgb(0, 0, 0)" stroke-opacity="1.0" stroke-linecap="round" stroke-linejoin="round"/>
    <path d="M 166.87844848632812 79.54703521728516 C 127.80586242675781 102.13690948486328 165.24472045898438 82.62017059326172 110.4792709350586 88.8908920288086" stroke-width="2" fill="none" stroke="rgb(0, 0, 0)" stroke-opacity="1.0" stroke-linecap="round" stroke-linejoin="round"/>
    <path d="M 112.23568725585938 108.6727066040039 C 94.25247955322266 86.87430572509766 117.12738800048828 137.19151306152344 100.26114654541016 71.3065414428711" stroke-width="2" fill="none" stroke="rgb(0, 0, 0)" stroke-opacity="1.0" stroke-linecap="round" stroke-linejoin="round"/>
    <path d="M 81.59767150878906 106.77843475341797 C 122.5764389038086 119.99822235107422 81.85452270507812 126.36599731445312 108.26998901367188 102.71400451660156" stroke-width="2" fill="none" stroke="rgb(0, 0, 0)" stroke-opacity="1.0" stroke-linecap="round" stroke-linejoin="round"/>
    <path d="M 61.11229705810547 101.0246810913086 C -0.18305130302906036 171.65977478027344 118.51007080078125 161.26731872558594 133.4681396484375 158.28106689453125" stroke-width="2" fill="none" stroke="rgb(0, 0, 0)" stroke-opacity="1.0" stroke-linecap="round" stroke-linejoin="round"/>
    <path d="M 75.62413024902344 128.11412048339844 C 131.16172790527344 174.3638153076172 170.56198120117188 100.70426940917969 120.45035552978516 119.95649719238281" stroke-width="2" fill="none" stroke="rgb(0, 0, 0)" stroke-opacity="1.0" stroke-linecap="round" stroke-linejoin="round"/>
    <path d="M 141.44004821777344 121.88642883300781 C 163.1136016845703 132.28602600097656 91.70396423339844 123.06010437011719 149.62939453125 133.6847381591797" stroke-width="2" fill="none" stroke="rgb(0, 0, 0)" stroke-opacity="1.0" stroke-linecap="round" stroke-linejoin="round"/>
    <path d="M 171.54042053222656 98.86088562011719 C 205.58718872070312 18.835708618164062 160.592041015625 101.54837799072266 144.0357666015625 84.44093322753906" stroke-width="2" fill="none" stroke="rgb(0, 0, 0)" stroke-opacity="1.0" stroke-linecap="round" stroke-linejoin="round"/>
    <path d="M 136.16741943359375 129.2034454345703 C 183.8194122314453 134.05865478515625 130.79478454589844 60.78461456298828 123.28230285644531 91.39521789550781" stroke-width="2" fill="none" stroke="rgb(0, 0, 0)" stroke-opacity="1.0" stroke-linecap="round" stroke-linejoin="round"/>
    <path d="M 172.05516052246094 150.17623901367188 C 39.19949722290039 155.10739135742188 38.29878234863281 128.13662719726562 75.07536315917969 101.84131622314453" stroke-width="2" fill="none" stroke="rgb(0, 0, 0)" stroke-opacity="1.0" stroke-linecap="round" stroke-linejoin="round"/>
    <path d="M 161.79742431640625 109.40412902832031 C 131.4862518310547 118.18971252441406 209.9161834716797 133.08639526367188 99.1433334350586 125.2601089477539" stroke-width="2" fill="none" stroke="rgb(0, 0, 0)" stroke-opacity="1.0" stroke-linecap="round" stroke-linejoin="round"/>
    <path d="M 140.94410705566406 98.95282745361328 C 154.9335479736328 138.88702392578125 89.50810241699219 105.4347915649414 154.45120239257812 121.05152130126953" stroke-width="2" fill="none" stroke="rgb(0, 0, 0)" stroke-opacity="1.0" stroke-linecap="round" stroke-linejoin="round"/>
    <path d="M 151.36859130859375 133.71484375 C 186.96327209472656 142.6155548095703 89.56793212890625 132.5915985107422 135.49737548828125 133.79876708984375" stroke-width="2" fill="none" stroke="rgb(0, 0, 0)" stroke-opacity="1.0" stroke-linecap="round" stroke-linejoin="round"/>
    <path d="M 98.63439178466797 146.98350524902344 C 49.44187927246094 154.1954345703125 10.364911079406738 119.5580825805664 96.95836639404297 140.02342224121094" stroke-width="2" fill="none" stroke="rgb(0, 0, 0)" stroke-opacity="1.0" stroke-linecap="round" stroke-linejoin="round"/>
  </g>
</svg>
