<?xml version="1.0" ?>
<svg xmlns="http://www.w3.org/2000/svg" version="1.1" width="224" height="224">
  <defs/>
  <g>
    <path d="M 114.36719512939453 85.36556243896484 C 74.8756332397461 127.11735534667969 83.88153839111328 89.73674011230469 58.729942321777344 108.8925552368164" stroke-width="2" fill="none" stroke="rgb(0, 0, 0)" stroke-opacity="1.0" stroke-linecap="round" stroke-linejoin="round"/>
    <path d="M 139.2560577392578 135.80319213867188 C 211.69383239746094 123.61587524414062 189.2002410888672 191.63531494140625 67.22960662841797 139.46951293945312" stroke-width="2" fill="none" stroke="rgb(0, 0, 0)" stroke-opacity="1.0" stroke-linecap="round" stroke-linejoin="round"/>
    <path d="M 130.19252014160156 122.91079711914062 C 194.89718627929688 110.91221618652344 121.91130828857422 126.91441345214844 166.8914031982422 119.11228942871094" stroke-width="2" fill="none" stroke="rgb(0, 0, 0)" stroke-opacity="1.0" stroke-linecap="round" stroke-linejoin="round"/>
    <path d="M 145.58840942382812 129.6459503173828 C 214.7121124267578 144.28097534179688 147.50457763671875 103.09741973876953 168.54666137695312 108.88311767578125" stroke-width="2" fill="none" stroke="rgb(0, 0, 0)" stroke-opacity="1.0" stroke-linecap="round" stroke-linejoin="round"/>
    <path d="M 60.57925033569336 128.47042846679688 C 231.68035888671875 168.89637756347656 119.35501098632812 146.7907257080078 85.65496826171875 145.74136352539062" stroke-width="2" fill="none" stroke="rgb(0, 0, 0)" stroke-opacity="1.0" stroke-linecap="round" stroke-linejoin="round"/>
    <path d="M 152.06478881835938 120.61237335205078 C 195.9927978515625 121.58305358886719 162.39305114746094 108.40825653076172 179.2180938720703 107.87934875488281" stroke-width="2" fill="none" stroke="rgb(0, 0, 0)" stroke-opacity="1.0" stroke-linecap="round" stroke-linejoin="round"/>
    <path d="M 59.278160095214844 107.855712890625 C -5.4443488121032715 168.17892456054688 174.96266174316406 161.85116577148438 169.9716339111328 129.35414123535156" stroke-width="2" fill="none" stroke="rgb(0, 0, 0)" stroke-opacity="1.0" stroke-linecap="round" stroke-linejoin="round"/>
    <path d="M 130.46624755859375 130.52825927734375 C 84.20010375976562 136.51962280273438 134.82928466796875 61.429317474365234 115.5237045288086 99.53621673583984" stroke-width="2" fill="none" stroke="rgb(0, 0, 0)" stroke-opacity="1.0" stroke-linecap="round" stroke-linejoin="round"/>
    <path d="M 159.4589385986328 145.9058074951172 C 219.51031494140625 130.86459350585938 118.75835418701172 140.7415771484375 160.43167114257812 115.90430450439453" stroke-width="2" fill="none" stroke="rgb(0, 0, 0)" stroke-opacity="1.0" stroke-linecap="round" stroke-linejoin="round"/>
    <path d="M 169.97930908203125 80.60281372070312 C 207.50343322753906 32.71868133544922 169.1898651123047 139.4429473876953 175.21678161621094 77.4839859008789" stroke-width="2" fill="none" stroke="rgb(0, 0, 0)" stroke-opacity="1.0" stroke-linecap="round" stroke-linejoin="round"/>
    <path d="M 117.34313201904297 135.12469482421875 C 183.32005310058594 170.73072814941406 203.4698486328125 59.373085021972656 140.80499267578125 85.90445709228516" stroke-width="2" fill="none" stroke="rgb(0, 0, 0)" stroke-opacity="1.0" stroke-linecap="round" stroke-linejoin="round"/>
    <path d="M 54.778343200683594 101.56199645996094 C 144.2533721923828 77.01876831054688 94.71499633789062 122.48029327392578 101.49432373046875 97.86821746826172" stroke-width="2" fill="none" stroke="rgb(0, 0, 0)" stroke-opacity="1.0" stroke-linecap="round" stroke-linejoin="round"/>
    <path d="M 79.66699981689453 104.65795135498047 C 155.65045166015625 126.28985595703125 27.296314239501953 108.1357421875 141.234619140625 125.97174835205078" stroke-width="2" fill="none" stroke="rgb(0, 0, 0)" stroke-opacity="1.0" stroke-linecap="round" stroke-linejoin="round"/>
    <path d="M 143.32118225097656 123.04724884033203 C 117.23866271972656 96.91517639160156 180.98025512695312 142.42245483398438 152.0300750732422 117.11096954345703" stroke-width="2" fill="none" stroke="rgb(0, 0, 0)" stroke-opacity="1.0" stroke-linecap="round" stroke-linejoin="round"/>
    <path d="M 122.5740737915039 115.746337890625 C 100.2795181274414 29.117033004760742 156.0980987548828 94.35433959960938 137.99502563476562 81.13082122802734" stroke-width="2" fill="none" stroke="rgb(0, 0, 0)" stroke-opacity="1.0" stroke-linecap="round" stroke-linejoin="round"/>
    <path d="M 50.24187088012695 117.6403579711914 C 42.13783645629883 119.18196868896484 88.6939926147461 126.07671356201172 52.017616271972656 118.29351043701172" stroke-width="2" fill="none" stroke="rgb(0, 0, 0)" stroke-opacity="1.0" stroke-linecap="round" stroke-linejoin="round"/>
  </g>
</svg>
