<?xml version="1.0" ?>
<svg xmlns="http://www.w3.org/2000/svg" version="1.1" width="224" height="224">
  <defs/>
  <g>
    <path d="M 114.93031311035156 74.3978042602539 C 159.1999053955078 121.38346099853516 59.26917266845703 70.59258270263672 66.79264831542969 109.45744323730469" stroke-width="2" fill="none" stroke="rgb(0, 0, 0)" stroke-opacity="1.0" stroke-linecap="round" stroke-linejoin="round"/>
    <path d="M 120.24064636230469 124.1026382446289 C 191.47525024414062 123.64552307128906 192.5713653564453 183.4139862060547 75.68531799316406 134.9352569580078" stroke-width="2" fill="none" stroke="rgb(0, 0, 0)" stroke-opacity="1.0" stroke-linecap="round" stroke-linejoin="round"/>
    <path d="M 112.0044174194336 128.4471893310547 C 119.59458923339844 118.96875762939453 81.84737396240234 137.70669555664062 161.96913146972656 128.3773193359375" stroke-width="2" fill="none" stroke="rgb(0, 0, 0)" stroke-opacity="1.0" stroke-linecap="round" stroke-linejoin="round"/>
    <path d="M 167.97897338867188 84.37735748291016 C 127.55937194824219 95.17679595947266 157.61573791503906 78.14508819580078 119.29389190673828 83.65336608886719" stroke-width="2" fill="none" stroke="rgb(0, 0, 0)" stroke-opacity="1.0" stroke-linecap="round" stroke-linejoin="round"/>
    <path d="M 93.86514282226562 117.29961395263672 C 93.79354095458984 79.2173843383789 113.3379898071289 116.87284851074219 114.49475860595703 69.58193969726562" stroke-width="2" fill="none" stroke="rgb(0, 0, 0)" stroke-opacity="1.0" stroke-linecap="round" stroke-linejoin="round"/>
    <path d="M 104.02642822265625 126.7652816772461 C 138.2534942626953 132.74513244628906 107.85372924804688 111.49817657470703 136.36050415039062 136.83056640625" stroke-width="2" fill="none" stroke="rgb(0, 0, 0)" stroke-opacity="1.0" stroke-linecap="round" stroke-linejoin="round"/>
    <path d="M 64.4286117553711 104.84603881835938 C 4.0336384773254395 169.60499572753906 129.56198120117188 153.24658203125 111.81112670898438 156.6837615966797" stroke-width="2" fill="none" stroke="rgb(0, 0, 0)" stroke-opacity="1.0" stroke-linecap="round" stroke-linejoin="round"/>
    <path d="M 56.350929260253906 139.62574768066406 C 166.7404022216797 172.953125 188.2962188720703 121.72933197021484 164.9980010986328 145.39321899414062" stroke-width="2" fill="none" stroke="rgb(0, 0, 0)" stroke-opacity="1.0" stroke-linecap="round" stroke-linejoin="round"/>
    <path d="M 130.3660888671875 129.75924682617188 C 163.873779296875 115.59890747070312 135.22714233398438 102.45068359375 132.99337768554688 106.3841781616211" stroke-width="2" fill="none" stroke="rgb(0, 0, 0)" stroke-opacity="1.0" stroke-linecap="round" stroke-linejoin="round"/>
    <path d="M 174.49403381347656 101.8480453491211 C 197.46885681152344 23.007122039794922 151.99746704101562 96.18087768554688 165.1048583984375 90.76615142822266" stroke-width="2" fill="none" stroke="rgb(0, 0, 0)" stroke-opacity="1.0" stroke-linecap="round" stroke-linejoin="round"/>
    <path d="M 147.27037048339844 116.95944213867188 C 188.92083740234375 123.50495147705078 164.63975524902344 50.69974899291992 118.78678131103516 100.02811431884766" stroke-width="2" fill="none" stroke="rgb(0, 0, 0)" stroke-opacity="1.0" stroke-linecap="round" stroke-linejoin="round"/>
    <path d="M 155.3980255126953 156.24313354492188 C 67.82405853271484 138.49807739257812 62.484283447265625 115.11730194091797 83.48054504394531 128.43402099609375" stroke-width="2" fill="none" stroke="rgb(0, 0, 0)" stroke-opacity="1.0" stroke-linecap="round" stroke-linejoin="round"/>
    <path d="M 160.62594604492188 110.02449035644531 C 127.05017852783203 115.3175048828125 215.3514404296875 104.21944427490234 124.8558349609375 112.26884460449219" stroke-width="2" fill="none" stroke="rgb(0, 0, 0)" stroke-opacity="1.0" stroke-linecap="round" stroke-linejoin="round"/>
    <path d="M 117.05742645263672 143.91714477539062 C 197.43594360351562 158.62567138671875 162.66549682617188 115.17536926269531 170.01344299316406 135.88792419433594" stroke-width="2" fill="none" stroke="rgb(0, 0, 0)" stroke-opacity="1.0" stroke-linecap="round" stroke-linejoin="round"/>
    <path d="M 161.439453125 105.8854751586914 C 181.43389892578125 169.9066619873047 73.84298706054688 114.55260467529297 111.7389907836914 113.14894104003906" stroke-width="2" fill="none" stroke="rgb(0, 0, 0)" stroke-opacity="1.0" stroke-linecap="round" stroke-linejoin="round"/>
    <path d="M 105.10247039794922 155.37290954589844 C 53.94200897216797 153.8036346435547 43.16581344604492 138.63134765625 76.85052490234375 152.2293243408203" stroke-width="2" fill="none" stroke="rgb(0, 0, 0)" stroke-opacity="1.0" stroke-linecap="round" stroke-linejoin="round"/>
  </g>
</svg>
