<?xml version="1.0" ?>
<svg xmlns="http://www.w3.org/2000/svg" version="1.1" width="224" height="224">
  <defs/>
  <g>
    <path d="M 102.86559295654297 72.90928649902344 C 118.7112808227539 131.72308349609375 70.66771697998047 75.49557495117188 50.35731506347656 122.05235290527344" stroke-width="2" fill="none" stroke="rgb(0, 0, 0)" stroke-opacity="1.0" stroke-linecap="round" stroke-linejoin="round"/>
    <path d="M 172.94984436035156 118.3476791381836 C 158.50392150878906 107.6606216430664 199.459228515625 156.22561645507812 103.99250030517578 120.50143432617188" stroke-width="2" fill="none" stroke="rgb(0, 0, 0)" stroke-opacity="1.0" stroke-linecap="round" stroke-linejoin="round"/>
    <path d="M 125.40135955810547 88.51384735107422 C 142.57290649414062 85.49251556396484 63.84360122680664 148.1859588623047 176.2001190185547 138.75624084472656" stroke-width="2" fill="none" stroke="rgb(0, 0, 0)" stroke-opacity="1.0" stroke-linecap="round" stroke-linejoin="round"/>
    <path d="M 124.67420196533203 129.2147216796875 C 157.6484832763672 134.0122528076172 93.5636215209961 130.38694763183594 169.7790069580078 147.12454223632812" stroke-width="2" fill="none" stroke="rgb(0, 0, 0)" stroke-opacity="1.0" stroke-linecap="round" stroke-linejoin="round"/>
    <path d="M 120.24925994873047 110.14388275146484 C 159.06419372558594 127.5903549194336 84.79426574707031 133.67698669433594 131.9149169921875 111.83528137207031" stroke-width="2" fill="none" stroke="rgb(0, 0, 0)" stroke-opacity="1.0" stroke-linecap="round" stroke-linejoin="round"/>
    <path d="M 147.9730682373047 142.0967254638672 C 172.50437927246094 125.05328369140625 156.871826171875 112.1515884399414 172.98594665527344 130.27566528320312" stroke-width="2" fill="none" stroke="rgb(0, 0, 0)" stroke-opacity="1.0" stroke-linecap="round" stroke-linejoin="round"/>
    <path d="M 48.04594421386719 117.2056655883789 C 32.618892669677734 169.21112060546875 216.3296661376953 158.4327850341797 170.84275817871094 130.47586059570312" stroke-width="2" fill="none" stroke="rgb(0, 0, 0)" stroke-opacity="1.0" stroke-linecap="round" stroke-linejoin="round"/>
    <path d="M 157.5455780029297 113.99242401123047 C 102.76058959960938 127.26276397705078 170.03994750976562 118.83393859863281 110.41983795166016 117.09305572509766" stroke-width="2" fill="none" stroke="rgb(0, 0, 0)" stroke-opacity="1.0" stroke-linecap="round" stroke-linejoin="round"/>
    <path d="M 123.71306610107422 119.65554809570312 C 221.73031616210938 127.49405670166016 125.59941101074219 141.57530212402344 110.99799346923828 99.72390747070312" stroke-width="2" fill="none" stroke="rgb(0, 0, 0)" stroke-opacity="1.0" stroke-linecap="round" stroke-linejoin="round"/>
    <path d="M 183.7570343017578 89.5431900024414 C 190.275390625 41.50037384033203 167.38665771484375 94.02250671386719 163.1913299560547 84.31170654296875" stroke-width="2" fill="none" stroke="rgb(0, 0, 0)" stroke-opacity="1.0" stroke-linecap="round" stroke-linejoin="round"/>
    <path d="M 150.32455444335938 109.71389770507812 C 184.42909240722656 135.33151245117188 176.61572265625 65.97754669189453 143.64208984375 85.75139617919922" stroke-width="2" fill="none" stroke="rgb(0, 0, 0)" stroke-opacity="1.0" stroke-linecap="round" stroke-linejoin="round"/>
    <path d="M 74.97498321533203 117.28009033203125 C 105.79399871826172 135.9641571044922 54.49391174316406 83.79241943359375 53.19119644165039 120.57178497314453" stroke-width="2" fill="none" stroke="rgb(0, 0, 0)" stroke-opacity="1.0" stroke-linecap="round" stroke-linejoin="round"/>
    <path d="M 124.60468292236328 116.98765563964844 C 155.43763732910156 109.73311614990234 98.79613494873047 113.70117950439453 134.79051208496094 107.8770751953125" stroke-width="2" fill="none" stroke="rgb(0, 0, 0)" stroke-opacity="1.0" stroke-linecap="round" stroke-linejoin="round"/>
    <path d="M 185.2661895751953 71.05396270751953 C 182.732666015625 112.38150787353516 156.53329467773438 112.72308349609375 173.09451293945312 91.87837982177734" stroke-width="2" fill="none" stroke="rgb(0, 0, 0)" stroke-opacity="1.0" stroke-linecap="round" stroke-linejoin="round"/>
    <path d="M 102.1211929321289 85.8378677368164 C 117.12300109863281 59.30577850341797 113.09251403808594 95.81112670898438 142.5536346435547 90.32525634765625" stroke-width="2" fill="none" stroke="rgb(0, 0, 0)" stroke-opacity="1.0" stroke-linecap="round" stroke-linejoin="round"/>
    <path d="M 110.7952880859375 148.59339904785156 C 29.903881072998047 114.9284439086914 80.03419494628906 134.07504272460938 157.12501525878906 149.88345336914062" stroke-width="2" fill="none" stroke="rgb(0, 0, 0)" stroke-opacity="1.0" stroke-linecap="round" stroke-linejoin="round"/>
  </g>
</svg>
