<?xml version="1.0" ?>
<svg xmlns="http://www.w3.org/2000/svg" version="1.1" width="224" height="224">
  <defs/>
  <g>
    <path d="M 116.12089538574219 87.88971710205078 C 81.74063873291016 131.9971466064453 106.76764678955078 77.60215759277344 67.767578125 104.1284408569336" stroke-width="2" fill="none" stroke="rgb(0, 0, 0)" stroke-opacity="1.0" stroke-linecap="round" stroke-linejoin="round"/>
    <path d="M 141.52447509765625 140.53347778320312 C 209.455810546875 133.58251953125 186.8170623779297 191.7967987060547 64.55738067626953 134.0101318359375" stroke-width="2" fill="none" stroke="rgb(0, 0, 0)" stroke-opacity="1.0" stroke-linecap="round" stroke-linejoin="round"/>
    <path d="M 124.5823745727539 118.95523834228516 C 190.16188049316406 108.09567260742188 125.92977905273438 128.641357421875 153.72434997558594 109.18519592285156" stroke-width="2" fill="none" stroke="rgb(0, 0, 0)" stroke-opacity="1.0" stroke-linecap="round" stroke-linejoin="round"/>
    <path d="M 145.379638671875 129.58567810058594 C 217.189208984375 136.78201293945312 145.6079559326172 99.78865814208984 165.06723022460938 106.38735961914062" stroke-width="2" fill="none" stroke="rgb(0, 0, 0)" stroke-opacity="1.0" stroke-linecap="round" stroke-linejoin="round"/>
    <path d="M 76.88651275634766 136.0470733642578 C 216.85760498046875 169.47003173828125 119.09307098388672 136.1477813720703 115.44688415527344 151.1825408935547" stroke-width="2" fill="none" stroke="rgb(0, 0, 0)" stroke-opacity="1.0" stroke-linecap="round" stroke-linejoin="round"/>
    <path d="M 173.2836456298828 116.42533874511719 C 185.80987548828125 105.49613952636719 149.43714904785156 112.59956359863281 171.1816864013672 119.27124786376953" stroke-width="2" fill="none" stroke="rgb(0, 0, 0)" stroke-opacity="1.0" stroke-linecap="round" stroke-linejoin="round"/>
    <path d="M 55.24568176269531 107.08821105957031 C -9.622662544250488 171.5297088623047 182.33963012695312 160.8589324951172 177.37387084960938 140.36602783203125" stroke-width="2" fill="none" stroke="rgb(0, 0, 0)" stroke-opacity="1.0" stroke-linecap="round" stroke-linejoin="round"/>
    <path d="M 131.5495147705078 128.8904571533203 C 87.0785903930664 135.5218963623047 145.1349639892578 70.79622650146484 112.39568328857422 100.74528503417969" stroke-width="2" fill="none" stroke="rgb(0, 0, 0)" stroke-opacity="1.0" stroke-linecap="round" stroke-linejoin="round"/>
    <path d="M 141.76962280273438 135.2652587890625 C 230.94520568847656 134.96194458007812 122.14086151123047 124.22370147705078 152.025146484375 109.3360366821289" stroke-width="2" fill="none" stroke="rgb(0, 0, 0)" stroke-opacity="1.0" stroke-linecap="round" stroke-linejoin="round"/>
    <path d="M 165.38462829589844 82.7742919921875 C 200.95001220703125 43.88410186767578 167.0038299560547 138.75473022460938 179.9217529296875 64.78314971923828" stroke-width="2" fill="none" stroke="rgb(0, 0, 0)" stroke-opacity="1.0" stroke-linecap="round" stroke-linejoin="round"/>
    <path d="M 116.29647827148438 131.82533264160156 C 185.57862854003906 163.25567626953125 203.85726928710938 71.74103546142578 135.86073303222656 84.87794494628906" stroke-width="2" fill="none" stroke="rgb(0, 0, 0)" stroke-opacity="1.0" stroke-linecap="round" stroke-linejoin="round"/>
    <path d="M 54.255794525146484 103.56292724609375 C 148.63726806640625 81.51815795898438 92.94544982910156 127.76634979248047 109.46491241455078 106.5674057006836" stroke-width="2" fill="none" stroke="rgb(0, 0, 0)" stroke-opacity="1.0" stroke-linecap="round" stroke-linejoin="round"/>
    <path d="M 76.32833099365234 109.11906433105469 C 168.3834686279297 129.27003479003906 35.322227478027344 118.88752746582031 135.6729736328125 138.76942443847656" stroke-width="2" fill="none" stroke="rgb(0, 0, 0)" stroke-opacity="1.0" stroke-linecap="round" stroke-linejoin="round"/>
    <path d="M 136.9292755126953 120.36436462402344 C 145.3585205078125 98.70308685302734 174.9782257080078 146.6950225830078 135.93655395507812 107.15837097167969" stroke-width="2" fill="none" stroke="rgb(0, 0, 0)" stroke-opacity="1.0" stroke-linecap="round" stroke-linejoin="round"/>
    <path d="M 123.318115234375 117.53043365478516 C 99.50081634521484 30.55000877380371 152.02182006835938 91.73788452148438 133.84176635742188 89.51283264160156" stroke-width="2" fill="none" stroke="rgb(0, 0, 0)" stroke-opacity="1.0" stroke-linecap="round" stroke-linejoin="round"/>
    <path d="M 49.762882232666016 118.04241180419922 C 49.14051055908203 100.65074157714844 87.2771987915039 115.81437683105469 51.510005950927734 113.02967071533203" stroke-width="2" fill="none" stroke="rgb(0, 0, 0)" stroke-opacity="1.0" stroke-linecap="round" stroke-linejoin="round"/>
  </g>
</svg>
