<?xml version="1.0" ?>
<svg xmlns="http://www.w3.org/2000/svg" version="1.1" width="224" height="224">
  <defs/>
  <g>
    <path d="M 100.76769256591797 81.11397552490234 C 155.4493408203125 112.7763442993164 57.574642181396484 69.20635986328125 48.64747619628906 119.56803894042969" stroke-width="2" fill="none" stroke="rgb(0, 0, 0)" stroke-opacity="1.0" stroke-linecap="round" stroke-linejoin="round"/>
    <path d="M 124.75110626220703 132.0983123779297 C 238.228515625 137.47854614257812 152.26962280273438 175.31297302246094 69.03826904296875 137.30503845214844" stroke-width="2" fill="none" stroke="rgb(0, 0, 0)" stroke-opacity="1.0" stroke-linecap="round" stroke-linejoin="round"/>
    <path d="M 165.339111328125 95.5940170288086 C 105.82378387451172 62.088802337646484 99.11921691894531 152.88255310058594 168.45762634277344 131.64927673339844" stroke-width="2" fill="none" stroke="rgb(0, 0, 0)" stroke-opacity="1.0" stroke-linecap="round" stroke-linejoin="round"/>
    <path d="M 167.2314910888672 96.48571014404297 C 189.935302734375 73.15937805175781 177.51248168945312 104.4188232421875 164.9976806640625 126.46018981933594" stroke-width="2" fill="none" stroke="rgb(0, 0, 0)" stroke-opacity="1.0" stroke-linecap="round" stroke-linejoin="round"/>
    <path d="M 99.39945983886719 73.56755828857422 C 104.19486999511719 115.85189819335938 110.30294036865234 83.80999755859375 143.27273559570312 97.50675964355469" stroke-width="2" fill="none" stroke="rgb(0, 0, 0)" stroke-opacity="1.0" stroke-linecap="round" stroke-linejoin="round"/>
    <path d="M 102.48834991455078 87.7996826171875 C 122.35259246826172 123.34990692138672 98.07330322265625 112.14530944824219 111.78632354736328 124.8906478881836" stroke-width="2" fill="none" stroke="rgb(0, 0, 0)" stroke-opacity="1.0" stroke-linecap="round" stroke-linejoin="round"/>
    <path d="M 43.4864387512207 125.76164245605469 C 29.736635208129883 155.1629180908203 98.48269653320312 163.53341674804688 103.12397766113281 162.32260131835938" stroke-width="2" fill="none" stroke="rgb(0, 0, 0)" stroke-opacity="1.0" stroke-linecap="round" stroke-linejoin="round"/>
    <path d="M 73.3783950805664 127.90846252441406 C 207.93344116210938 171.5244903564453 191.33984375 144.39956665039062 98.95149230957031 147.942626953125" stroke-width="2" fill="none" stroke="rgb(0, 0, 0)" stroke-opacity="1.0" stroke-linecap="round" stroke-linejoin="round"/>
    <path d="M 108.05133056640625 86.60721588134766 C 154.1020965576172 93.35797882080078 136.25106811523438 114.58954620361328 112.6399154663086 123.40667724609375" stroke-width="2" fill="none" stroke="rgb(0, 0, 0)" stroke-opacity="1.0" stroke-linecap="round" stroke-linejoin="round"/>
    <path d="M 175.62608337402344 83.54779052734375 C 178.26893615722656 25.858505249023438 156.96316528320312 100.71943664550781 163.09169006347656 87.28787231445312" stroke-width="2" fill="none" stroke="rgb(0, 0, 0)" stroke-opacity="1.0" stroke-linecap="round" stroke-linejoin="round"/>
    <path d="M 136.9892578125 105.59869384765625 C 191.33106994628906 100.94583892822266 167.61570739746094 148.4081268310547 139.93698120117188 137.67803955078125" stroke-width="2" fill="none" stroke="rgb(0, 0, 0)" stroke-opacity="1.0" stroke-linecap="round" stroke-linejoin="round"/>
    <path d="M 133.28445434570312 165.35055541992188 C 38.21934509277344 165.61856079101562 44.593196868896484 142.029296875 73.47052764892578 159.19480895996094" stroke-width="2" fill="none" stroke="rgb(0, 0, 0)" stroke-opacity="1.0" stroke-linecap="round" stroke-linejoin="round"/>
    <path d="M 176.90708923339844 106.51696014404297 C 152.61428833007812 109.76889038085938 225.31617736816406 125.83051300048828 113.49405670166016 111.766845703125" stroke-width="2" fill="none" stroke="rgb(0, 0, 0)" stroke-opacity="1.0" stroke-linecap="round" stroke-linejoin="round"/>
    <path d="M 162.07867431640625 80.05297088623047 C 144.0996856689453 101.3982162475586 109.62969207763672 71.06890869140625 142.51797485351562 119.19876861572266" stroke-width="2" fill="none" stroke="rgb(0, 0, 0)" stroke-opacity="1.0" stroke-linecap="round" stroke-linejoin="round"/>
    <path d="M 91.56981658935547 108.07513427734375 C 116.71910858154297 116.5461196899414 117.08448791503906 93.00030517578125 110.57843017578125 98.78706359863281" stroke-width="2" fill="none" stroke="rgb(0, 0, 0)" stroke-opacity="1.0" stroke-linecap="round" stroke-linejoin="round"/>
    <path d="M 75.4953384399414 111.46893310546875 C 51.76432418823242 88.85650634765625 12.336030960083008 151.0558319091797 93.94536590576172 130.19554138183594" stroke-width="2" fill="none" stroke="rgb(0, 0, 0)" stroke-opacity="1.0" stroke-linecap="round" stroke-linejoin="round"/>
  </g>
</svg>
