<?xml version="1.0" ?>
<svg xmlns="http://www.w3.org/2000/svg" version="1.1" width="224" height="224">
  <defs/>
  <g>
    <path d="M 121.85567474365234 72.20357513427734 C 134.3509063720703 100.3406753540039 47.861671447753906 74.0896224975586 54.65034866333008 113.14175415039062" stroke-width="2" fill="none" stroke="rgb(0, 0, 0)" stroke-opacity="1.0" stroke-linecap="round" stroke-linejoin="round"/>
    <path d="M 152.2571563720703 135.29580688476562 C 210.14007568359375 126.32843017578125 169.87364196777344 152.3678436279297 79.4841537475586 112.73953247070312" stroke-width="2" fill="none" stroke="rgb(0, 0, 0)" stroke-opacity="1.0" stroke-linecap="round" stroke-linejoin="round"/>
    <path d="M 127.50881958007812 93.13074493408203 C 111.38031005859375 116.03656005859375 90.45156860351562 91.78446197509766 129.77957153320312 107.40955352783203" stroke-width="2" fill="none" stroke="rgb(0, 0, 0)" stroke-opacity="1.0" stroke-linecap="round" stroke-linejoin="round"/>
    <path d="M 153.65570068359375 84.81938934326172 C 178.6409454345703 80.597412109375 180.33956909179688 94.34159851074219 162.42845153808594 121.58599853515625" stroke-width="2" fill="none" stroke="rgb(0, 0, 0)" stroke-opacity="1.0" stroke-linecap="round" stroke-linejoin="round"/>
    <path d="M 118.21784973144531 66.18897247314453 C 126.79087829589844 92.51619720458984 140.17384338378906 64.361083984375 154.5888671875 84.82836151123047" stroke-width="2" fill="none" stroke="rgb(0, 0, 0)" stroke-opacity="1.0" stroke-linecap="round" stroke-linejoin="round"/>
    <path d="M 95.90238952636719 87.70121002197266 C 94.11173248291016 117.50723266601562 89.88822174072266 83.93705749511719 97.24176025390625 102.80728912353516" stroke-width="2" fill="none" stroke="rgb(0, 0, 0)" stroke-opacity="1.0" stroke-linecap="round" stroke-linejoin="round"/>
    <path d="M 50.83327102661133 135.31036376953125 C 38.99037551879883 152.5537109375 99.20394897460938 155.49221801757812 69.60354614257812 140.2186737060547" stroke-width="2" fill="none" stroke="rgb(0, 0, 0)" stroke-opacity="1.0" stroke-linecap="round" stroke-linejoin="round"/>
    <path d="M 71.97138214111328 145.43624877929688 C 227.6841278076172 159.2532958984375 202.03746032714844 116.27957916259766 123.26325225830078 116.76871490478516" stroke-width="2" fill="none" stroke="rgb(0, 0, 0)" stroke-opacity="1.0" stroke-linecap="round" stroke-linejoin="round"/>
    <path d="M 139.762451171875 112.96571350097656 C 134.35731506347656 110.77719116210938 151.79132080078125 134.93907165527344 109.23330688476562 109.57498931884766" stroke-width="2" fill="none" stroke="rgb(0, 0, 0)" stroke-opacity="1.0" stroke-linecap="round" stroke-linejoin="round"/>
    <path d="M 180.5965576171875 92.6866683959961 C 198.09986877441406 32.80110168457031 154.27972412109375 81.21580505371094 171.4446258544922 109.59717559814453" stroke-width="2" fill="none" stroke="rgb(0, 0, 0)" stroke-opacity="1.0" stroke-linecap="round" stroke-linejoin="round"/>
    <path d="M 193.1139373779297 141.7053680419922 C 185.22421264648438 113.23548889160156 179.93043518066406 156.8361053466797 162.19898986816406 148.26588439941406" stroke-width="2" fill="none" stroke="rgb(0, 0, 0)" stroke-opacity="1.0" stroke-linecap="round" stroke-linejoin="round"/>
    <path d="M 99.1429672241211 161.60000610351562 C 29.313030242919922 154.78033447265625 -19.47345542907715 125.17070770263672 13.549803733825684 143.8724822998047" stroke-width="2" fill="none" stroke="rgb(0, 0, 0)" stroke-opacity="1.0" stroke-linecap="round" stroke-linejoin="round"/>
    <path d="M 119.06926727294922 89.79042053222656 C 138.7779998779297 106.72399139404297 148.43333435058594 81.68287658691406 136.75050354003906 92.4311752319336" stroke-width="2" fill="none" stroke="rgb(0, 0, 0)" stroke-opacity="1.0" stroke-linecap="round" stroke-linejoin="round"/>
    <path d="M 172.0502471923828 81.48975372314453 C 172.89109802246094 82.36139678955078 119.0245590209961 101.85255432128906 159.2124481201172 107.60242462158203" stroke-width="2" fill="none" stroke="rgb(0, 0, 0)" stroke-opacity="1.0" stroke-linecap="round" stroke-linejoin="round"/>
    <path d="M 115.96148681640625 71.74347686767578 C 105.70182800292969 115.96463775634766 107.48426818847656 91.03111267089844 100.45345306396484 120.43280792236328" stroke-width="2" fill="none" stroke="rgb(0, 0, 0)" stroke-opacity="1.0" stroke-linecap="round" stroke-linejoin="round"/>
    <path d="M 68.87845611572266 108.45697021484375 C 59.06730270385742 83.69178771972656 9.82314682006836 143.36167907714844 58.68699645996094 143.15638732910156" stroke-width="2" fill="none" stroke="rgb(0, 0, 0)" stroke-opacity="1.0" stroke-linecap="round" stroke-linejoin="round"/>
  </g>
</svg>
