<?xml version="1.0" ?>
<svg xmlns="http://www.w3.org/2000/svg" version="1.1" width="224" height="224">
  <defs/>
  <g>
    <path d="M 114.15859985351562 87.10289001464844 C 82.82921600341797 120.01321411132812 85.89256286621094 87.3823471069336 57.97827911376953 114.15476989746094" stroke-width="2" fill="none" stroke="rgb(0, 0, 0)" stroke-opacity="1.0" stroke-linecap="round" stroke-linejoin="round"/>
    <path d="M 141.2388458251953 129.9084930419922 C 211.1171417236328 120.69235229492188 185.56443786621094 180.40087890625 60.21094512939453 136.72348022460938" stroke-width="2" fill="none" stroke="rgb(0, 0, 0)" stroke-opacity="1.0" stroke-linecap="round" stroke-linejoin="round"/>
    <path d="M 123.98490142822266 112.57717895507812 C 203.6461181640625 114.24402618408203 122.3487319946289 122.53514099121094 170.4375762939453 119.10892486572266" stroke-width="2" fill="none" stroke="rgb(0, 0, 0)" stroke-opacity="1.0" stroke-linecap="round" stroke-linejoin="round"/>
    <path d="M 145.99461364746094 133.61740112304688 C 202.8808135986328 146.33677673339844 145.12791442871094 93.03642272949219 173.69363403320312 108.47171020507812" stroke-width="2" fill="none" stroke="rgb(0, 0, 0)" stroke-opacity="1.0" stroke-linecap="round" stroke-linejoin="round"/>
    <path d="M 40.83782196044922 132.09872436523438 C 239.3285675048828 160.0858154296875 121.57386016845703 140.1996612548828 103.2409439086914 128.05604553222656" stroke-width="2" fill="none" stroke="rgb(0, 0, 0)" stroke-opacity="1.0" stroke-linecap="round" stroke-linejoin="round"/>
    <path d="M 146.64920043945312 97.29938507080078 C 192.4237060546875 102.81781768798828 160.5067138671875 105.95799255371094 173.5111846923828 115.25823211669922" stroke-width="2" fill="none" stroke="rgb(0, 0, 0)" stroke-opacity="1.0" stroke-linecap="round" stroke-linejoin="round"/>
    <path d="M 56.31485366821289 106.55426025390625 C -13.973520278930664 173.16397094726562 167.58602905273438 157.14866638183594 164.3963165283203 127.56462097167969" stroke-width="2" fill="none" stroke="rgb(0, 0, 0)" stroke-opacity="1.0" stroke-linecap="round" stroke-linejoin="round"/>
    <path d="M 132.50341796875 129.20140075683594 C 86.24304962158203 129.11216735839844 142.81163024902344 72.38130187988281 107.83458709716797 94.0865707397461" stroke-width="2" fill="none" stroke="rgb(0, 0, 0)" stroke-opacity="1.0" stroke-linecap="round" stroke-linejoin="round"/>
    <path d="M 161.68096923828125 133.8862762451172 C 209.13584899902344 128.85140991210938 97.07950592041016 141.8917999267578 152.20211791992188 108.3330307006836" stroke-width="2" fill="none" stroke="rgb(0, 0, 0)" stroke-opacity="1.0" stroke-linecap="round" stroke-linejoin="round"/>
    <path d="M 167.27670288085938 91.60458374023438 C 207.45993041992188 40.46953201293945 171.43316650390625 129.6393280029297 183.99232482910156 88.48664093017578" stroke-width="2" fill="none" stroke="rgb(0, 0, 0)" stroke-opacity="1.0" stroke-linecap="round" stroke-linejoin="round"/>
    <path d="M 111.7826919555664 137.73167419433594 C 170.20953369140625 175.11386108398438 185.4990997314453 68.56619262695312 137.9751739501953 87.25381469726562" stroke-width="2" fill="none" stroke="rgb(0, 0, 0)" stroke-opacity="1.0" stroke-linecap="round" stroke-linejoin="round"/>
    <path d="M 53.388790130615234 100.34477996826172 C 128.00711059570312 85.00987243652344 83.42464447021484 136.23886108398438 90.60554504394531 99.12176513671875" stroke-width="2" fill="none" stroke="rgb(0, 0, 0)" stroke-opacity="1.0" stroke-linecap="round" stroke-linejoin="round"/>
    <path d="M 79.04280090332031 102.73246002197266 C 144.15481567382812 132.7107696533203 21.14440155029297 120.68144226074219 137.48455810546875 131.4325408935547" stroke-width="2" fill="none" stroke="rgb(0, 0, 0)" stroke-opacity="1.0" stroke-linecap="round" stroke-linejoin="round"/>
    <path d="M 138.46499633789062 118.6009521484375 C 127.38701629638672 92.90621185302734 184.7827606201172 138.86627197265625 149.88296508789062 114.20923614501953" stroke-width="2" fill="none" stroke="rgb(0, 0, 0)" stroke-opacity="1.0" stroke-linecap="round" stroke-linejoin="round"/>
    <path d="M 113.99486541748047 106.69242858886719 C 96.79043579101562 27.531579971313477 151.02540588378906 95.86262512207031 136.0600128173828 88.31221008300781" stroke-width="2" fill="none" stroke="rgb(0, 0, 0)" stroke-opacity="1.0" stroke-linecap="round" stroke-linejoin="round"/>
    <path d="M 51.57066345214844 126.64960479736328 C 29.498489379882812 105.88630676269531 82.78253936767578 103.365234375 52.49098205566406 113.33854675292969" stroke-width="2" fill="none" stroke="rgb(0, 0, 0)" stroke-opacity="1.0" stroke-linecap="round" stroke-linejoin="round"/>
  </g>
</svg>
