<?xml version="1.0" ?>
<svg xmlns="http://www.w3.org/2000/svg" version="1.1" width="224" height="224">
  <defs/>
  <g>
    <path d="M 116.52262115478516 85.45050048828125 C 96.4974136352539 136.5980987548828 69.60365295410156 77.53170776367188 56.58396911621094 123.05362701416016" stroke-width="2" fill="none" stroke="rgb(0, 0, 0)" stroke-opacity="1.0" stroke-linecap="round" stroke-linejoin="round"/>
    <path d="M 129.78623962402344 102.98440551757812 C 187.50184631347656 124.37552642822266 209.96762084960938 184.86407470703125 46.106910705566406 149.77598571777344" stroke-width="2" fill="none" stroke="rgb(0, 0, 0)" stroke-opacity="1.0" stroke-linecap="round" stroke-linejoin="round"/>
    <path d="M 115.21511840820312 116.09353637695312 C 188.94142150878906 126.11798858642578 96.0653076171875 116.82823181152344 168.42279052734375 109.08184051513672" stroke-width="2" fill="none" stroke="rgb(0, 0, 0)" stroke-opacity="1.0" stroke-linecap="round" stroke-linejoin="round"/>
    <path d="M 148.31809997558594 127.097900390625 C 207.2834014892578 149.38174438476562 144.25726318359375 79.90225219726562 177.5962371826172 100.75719451904297" stroke-width="2" fill="none" stroke="rgb(0, 0, 0)" stroke-opacity="1.0" stroke-linecap="round" stroke-linejoin="round"/>
    <path d="M 112.05734252929688 138.19338989257812 C 149.43148803710938 155.84390258789062 72.90371704101562 147.8088836669922 169.67657470703125 152.35096740722656" stroke-width="2" fill="none" stroke="rgb(0, 0, 0)" stroke-opacity="1.0" stroke-linecap="round" stroke-linejoin="round"/>
    <path d="M 159.79795837402344 125.29249572753906 C 199.16415405273438 115.18850708007812 129.7169647216797 98.39669036865234 153.23619079589844 114.99446868896484" stroke-width="2" fill="none" stroke="rgb(0, 0, 0)" stroke-opacity="1.0" stroke-linecap="round" stroke-linejoin="round"/>
    <path d="M 55.9930305480957 114.58562469482422 C -10.061671257019043 180.69065856933594 182.23782348632812 163.9094696044922 135.20370483398438 147.148681640625" stroke-width="2" fill="none" stroke="rgb(0, 0, 0)" stroke-opacity="1.0" stroke-linecap="round" stroke-linejoin="round"/>
    <path d="M 136.174072265625 131.68711853027344 C 88.25666809082031 129.7313232421875 156.05946350097656 112.26969909667969 118.22846984863281 128.47567749023438" stroke-width="2" fill="none" stroke="rgb(0, 0, 0)" stroke-opacity="1.0" stroke-linecap="round" stroke-linejoin="round"/>
    <path d="M 141.13778686523438 132.58502197265625 C 205.560791015625 134.9538116455078 78.24260711669922 153.35020446777344 120.39857482910156 108.1575927734375" stroke-width="2" fill="none" stroke="rgb(0, 0, 0)" stroke-opacity="1.0" stroke-linecap="round" stroke-linejoin="round"/>
    <path d="M 173.3040313720703 104.23536682128906 C 204.763427734375 12.456779479980469 158.15481567382812 88.67704772949219 176.0509490966797 62.58388900756836" stroke-width="2" fill="none" stroke="rgb(0, 0, 0)" stroke-opacity="1.0" stroke-linecap="round" stroke-linejoin="round"/>
    <path d="M 140.4904327392578 120.6487808227539 C 187.4417266845703 154.46270751953125 187.26568603515625 47.69784164428711 129.95748901367188 82.99251556396484" stroke-width="2" fill="none" stroke="rgb(0, 0, 0)" stroke-opacity="1.0" stroke-linecap="round" stroke-linejoin="round"/>
    <path d="M 64.82568359375 100.14399719238281 C 165.03536987304688 122.46821594238281 102.06998443603516 111.9573974609375 123.8927230834961 123.59555053710938" stroke-width="2" fill="none" stroke="rgb(0, 0, 0)" stroke-opacity="1.0" stroke-linecap="round" stroke-linejoin="round"/>
    <path d="M 99.33345031738281 121.05655670166016 C 128.3197021484375 132.9300079345703 50.1395378112793 104.09027862548828 126.47989654541016 146.32237243652344" stroke-width="2" fill="none" stroke="rgb(0, 0, 0)" stroke-opacity="1.0" stroke-linecap="round" stroke-linejoin="round"/>
    <path d="M 130.8556671142578 104.35497283935547 C 160.7647247314453 94.87596893310547 188.9528350830078 131.80972290039062 147.8057098388672 110.4784164428711" stroke-width="2" fill="none" stroke="rgb(0, 0, 0)" stroke-opacity="1.0" stroke-linecap="round" stroke-linejoin="round"/>
    <path d="M 111.80908203125 100.0809555053711 C 100.7380599975586 38.40303421020508 136.12701416015625 102.9346694946289 131.48179626464844 81.02957916259766" stroke-width="2" fill="none" stroke="rgb(0, 0, 0)" stroke-opacity="1.0" stroke-linecap="round" stroke-linejoin="round"/>
    <path d="M 47.24208450317383 116.6225814819336 C 43.82441329956055 85.92475891113281 113.00887298583984 121.86965942382812 136.69386291503906 135.8671112060547" stroke-width="2" fill="none" stroke="rgb(0, 0, 0)" stroke-opacity="1.0" stroke-linecap="round" stroke-linejoin="round"/>
  </g>
</svg>
