<?xml version="1.0" ?>
<svg xmlns="http://www.w3.org/2000/svg" version="1.1" width="224" height="224">
  <defs/>
  <g>
    <path d="M 96.70286560058594 73.05464172363281 C 140.8099365234375 136.17115783691406 65.74283599853516 74.97303009033203 49.9720458984375 116.5447769165039" stroke-width="2" fill="none" stroke="rgb(0, 0, 0)" stroke-opacity="1.0" stroke-linecap="round" stroke-linejoin="round"/>
    <path d="M 142.0165252685547 137.17474365234375 C 198.60272216796875 124.58820343017578 189.57383728027344 189.0433349609375 62.74543762207031 128.43472290039062" stroke-width="2" fill="none" stroke="rgb(0, 0, 0)" stroke-opacity="1.0" stroke-linecap="round" stroke-linejoin="round"/>
    <path d="M 98.93196105957031 143.52688598632812 C 87.09800720214844 128.9712371826172 76.42212677001953 145.9931640625 173.15621948242188 149.3478546142578" stroke-width="2" fill="none" stroke="rgb(0, 0, 0)" stroke-opacity="1.0" stroke-linecap="round" stroke-linejoin="round"/>
    <path d="M 150.8861541748047 92.4744873046875 C 93.95331573486328 90.34303283691406 199.07907104492188 105.31297302246094 129.61326599121094 102.63202667236328" stroke-width="2" fill="none" stroke="rgb(0, 0, 0)" stroke-opacity="1.0" stroke-linecap="round" stroke-linejoin="round"/>
    <path d="M 107.44888305664062 103.80347442626953 C 103.7132568359375 115.63861846923828 83.2901611328125 114.66206359863281 101.00245666503906 71.88634490966797" stroke-width="2" fill="none" stroke="rgb(0, 0, 0)" stroke-opacity="1.0" stroke-linecap="round" stroke-linejoin="round"/>
    <path d="M 114.96094512939453 132.78500366210938 C 123.41136169433594 146.4360809326172 92.11201477050781 123.0901870727539 115.68464660644531 112.00559997558594" stroke-width="2" fill="none" stroke="rgb(0, 0, 0)" stroke-opacity="1.0" stroke-linecap="round" stroke-linejoin="round"/>
    <path d="M 63.0963134765625 101.43297576904297 C -15.237194061279297 157.48104858398438 153.38107299804688 149.73928833007812 130.63641357421875 151.16432189941406" stroke-width="2" fill="none" stroke="rgb(0, 0, 0)" stroke-opacity="1.0" stroke-linecap="round" stroke-linejoin="round"/>
    <path d="M 87.4464111328125 116.24491119384766 C 162.56915283203125 173.13169860839844 183.28347778320312 113.43439483642578 143.3639373779297 118.13740539550781" stroke-width="2" fill="none" stroke="rgb(0, 0, 0)" stroke-opacity="1.0" stroke-linecap="round" stroke-linejoin="round"/>
    <path d="M 130.72804260253906 111.74285125732422 C 162.16278076171875 137.90098571777344 173.3649444580078 116.3875732421875 161.9944305419922 91.82876586914062" stroke-width="2" fill="none" stroke="rgb(0, 0, 0)" stroke-opacity="1.0" stroke-linecap="round" stroke-linejoin="round"/>
    <path d="M 180.00704956054688 91.62297821044922 C 192.72274780273438 20.856597900390625 156.35659790039062 118.38543701171875 155.0429229736328 91.40048217773438" stroke-width="2" fill="none" stroke="rgb(0, 0, 0)" stroke-opacity="1.0" stroke-linecap="round" stroke-linejoin="round"/>
    <path d="M 124.8359603881836 119.10511779785156 C 166.65281677246094 136.55328369140625 138.1439208984375 75.73468017578125 113.7039794921875 92.76327514648438" stroke-width="2" fill="none" stroke="rgb(0, 0, 0)" stroke-opacity="1.0" stroke-linecap="round" stroke-linejoin="round"/>
    <path d="M 160.714599609375 156.292724609375 C 14.526769638061523 173.47311401367188 46.886451721191406 127.11339569091797 40.881019592285156 139.2134246826172" stroke-width="2" fill="none" stroke="rgb(0, 0, 0)" stroke-opacity="1.0" stroke-linecap="round" stroke-linejoin="round"/>
    <path d="M 172.11032104492188 121.04285430908203 C 145.3146514892578 91.7109603881836 201.32321166992188 100.34037017822266 134.6848907470703 106.72246551513672" stroke-width="2" fill="none" stroke="rgb(0, 0, 0)" stroke-opacity="1.0" stroke-linecap="round" stroke-linejoin="round"/>
    <path d="M 121.66717529296875 114.79949951171875 C 183.45413208007812 151.31387329101562 133.08604431152344 96.69581604003906 134.97198486328125 130.35801696777344" stroke-width="2" fill="none" stroke="rgb(0, 0, 0)" stroke-opacity="1.0" stroke-linecap="round" stroke-linejoin="round"/>
    <path d="M 162.91827392578125 83.89517974853516 C 116.90386962890625 130.23513793945312 92.34262084960938 119.69744873046875 116.05342864990234 95.1456069946289" stroke-width="2" fill="none" stroke="rgb(0, 0, 0)" stroke-opacity="1.0" stroke-linecap="round" stroke-linejoin="round"/>
    <path d="M 96.34989929199219 157.9560546875 C 24.971994400024414 157.3163299560547 20.21820831298828 111.61389923095703 73.3906478881836 133.32615661621094" stroke-width="2" fill="none" stroke="rgb(0, 0, 0)" stroke-opacity="1.0" stroke-linecap="round" stroke-linejoin="round"/>
  </g>
</svg>
