<?xml version="1.0" ?>
<svg xmlns="http://www.w3.org/2000/svg" version="1.1" width="224" height="224">
  <defs/>
  <g>
    <path d="M 102.94900512695312 88.56190490722656 C 102.0781478881836 96.84688568115234 64.84105682373047 77.29582214355469 57.957725524902344 113.65399932861328" stroke-width="2" fill="none" stroke="rgb(0, 0, 0)" stroke-opacity="1.0" stroke-linecap="round" stroke-linejoin="round"/>
    <path d="M 138.7246551513672 127.9835433959961 C 159.91481018066406 139.9872589111328 142.60061645507812 159.4098358154297 80.50971221923828 151.24124145507812" stroke-width="2" fill="none" stroke="rgb(0, 0, 0)" stroke-opacity="1.0" stroke-linecap="round" stroke-linejoin="round"/>
    <path d="M 179.7917022705078 137.2303009033203 C 125.2948989868164 153.08981323242188 119.68763732910156 128.17030334472656 130.65235900878906 120.58080291748047" stroke-width="2" fill="none" stroke="rgb(0, 0, 0)" stroke-opacity="1.0" stroke-linecap="round" stroke-linejoin="round"/>
    <path d="M 144.07728576660156 80.1197280883789 C 192.01966857910156 86.00676727294922 179.99424743652344 77.56092834472656 161.0852508544922 126.49021911621094" stroke-width="2" fill="none" stroke="rgb(0, 0, 0)" stroke-opacity="1.0" stroke-linecap="round" stroke-linejoin="round"/>
    <path d="M 109.11189270019531 77.74207305908203 C 147.48074340820312 97.45396423339844 149.92369079589844 85.74969482421875 136.78138732910156 87.41313934326172" stroke-width="2" fill="none" stroke="rgb(0, 0, 0)" stroke-opacity="1.0" stroke-linecap="round" stroke-linejoin="round"/>
    <path d="M 110.42138671875 73.00687408447266 C 117.47586822509766 91.58800506591797 92.11463928222656 78.88299560546875 103.53385925292969 109.61634826660156" stroke-width="2" fill="none" stroke="rgb(0, 0, 0)" stroke-opacity="1.0" stroke-linecap="round" stroke-linejoin="round"/>
    <path d="M 68.18464660644531 133.74671936035156 C 52.208431243896484 155.49960327148438 107.88056182861328 154.89361572265625 101.1820068359375 154.66224670410156" stroke-width="2" fill="none" stroke="rgb(0, 0, 0)" stroke-opacity="1.0" stroke-linecap="round" stroke-linejoin="round"/>
    <path d="M 148.19833374023438 138.67445373535156 C 184.48133850097656 115.86064910888672 150.30810546875 136.73468017578125 105.96646118164062 125.46343994140625" stroke-width="2" fill="none" stroke="rgb(0, 0, 0)" stroke-opacity="1.0" stroke-linecap="round" stroke-linejoin="round"/>
    <path d="M 103.04287719726562 116.52874755859375 C 153.9778594970703 126.68499755859375 159.45436096191406 112.67122650146484 113.0948486328125 120.67210388183594" stroke-width="2" fill="none" stroke="rgb(0, 0, 0)" stroke-opacity="1.0" stroke-linecap="round" stroke-linejoin="round"/>
    <path d="M 182.7805938720703 81.48829650878906 C 175.9451141357422 56.083614349365234 167.20611572265625 66.89059448242188 172.07337951660156 65.77782440185547" stroke-width="2" fill="none" stroke="rgb(0, 0, 0)" stroke-opacity="1.0" stroke-linecap="round" stroke-linejoin="round"/>
    <path d="M 168.74786376953125 124.13408660888672 C 190.95396423339844 122.18692779541016 185.9748077392578 146.70892333984375 150.8372344970703 147.0566864013672" stroke-width="2" fill="none" stroke="rgb(0, 0, 0)" stroke-opacity="1.0" stroke-linecap="round" stroke-linejoin="round"/>
    <path d="M 77.93556213378906 153.04737854003906 C 45.18668746948242 147.5635528564453 25.824134826660156 131.77682495117188 58.12344741821289 152.76576232910156" stroke-width="2" fill="none" stroke="rgb(0, 0, 0)" stroke-opacity="1.0" stroke-linecap="round" stroke-linejoin="round"/>
    <path d="M 122.00906372070312 86.96570587158203 C 139.41693115234375 80.79207611083984 135.85223388671875 83.39338684082031 136.7795867919922 76.59845733642578" stroke-width="2" fill="none" stroke="rgb(0, 0, 0)" stroke-opacity="1.0" stroke-linecap="round" stroke-linejoin="round"/>
    <path d="M 175.3714599609375 72.06588745117188 C 151.99990844726562 92.32321166992188 122.93557739257812 94.24171447753906 166.11233520507812 112.19715881347656" stroke-width="2" fill="none" stroke="rgb(0, 0, 0)" stroke-opacity="1.0" stroke-linecap="round" stroke-linejoin="round"/>
    <path d="M 67.6629409790039 111.78062438964844 C 66.6834945678711 87.20774841308594 86.60163116455078 95.72921752929688 97.81588745117188 102.10916900634766" stroke-width="2" fill="none" stroke="rgb(0, 0, 0)" stroke-opacity="1.0" stroke-linecap="round" stroke-linejoin="round"/>
    <path d="M 64.28709411621094 100.5746078491211 C 60.855857849121094 110.66502380371094 31.57475471496582 116.27168273925781 47.88246536254883 145.37347412109375" stroke-width="2" fill="none" stroke="rgb(0, 0, 0)" stroke-opacity="1.0" stroke-linecap="round" stroke-linejoin="round"/>
  </g>
</svg>
