<?xml version="1.0" ?>
<svg xmlns="http://www.w3.org/2000/svg" version="1.1" width="224" height="224">
  <defs/>
  <g>
    <path d="M 101.52169799804688 74.54940795898438 C 150.60813903808594 130.44532775878906 57.17691421508789 58.08592224121094 50.794307708740234 128.50218200683594" stroke-width="2" fill="none" stroke="rgb(0, 0, 0)" stroke-opacity="1.0" stroke-linecap="round" stroke-linejoin="round"/>
    <path d="M 129.9674072265625 137.7887725830078 C 200.98251342773438 126.00191497802734 189.81150817871094 186.2375946044922 73.48286437988281 135.48153686523438" stroke-width="2" fill="none" stroke="rgb(0, 0, 0)" stroke-opacity="1.0" stroke-linecap="round" stroke-linejoin="round"/>
    <path d="M 75.41143035888672 144.68954467773438 C 41.81614685058594 127.04808044433594 61.90922927856445 172.6915740966797 153.03994750976562 150.0030059814453" stroke-width="2" fill="none" stroke="rgb(0, 0, 0)" stroke-opacity="1.0" stroke-linecap="round" stroke-linejoin="round"/>
    <path d="M 174.0778350830078 90.07577514648438 C 119.33433532714844 85.36630249023438 214.07907104492188 122.26553344726562 132.5739288330078 118.81077575683594" stroke-width="2" fill="none" stroke="rgb(0, 0, 0)" stroke-opacity="1.0" stroke-linecap="round" stroke-linejoin="round"/>
    <path d="M 103.3987045288086 122.63360595703125 C 129.0294647216797 75.92668151855469 93.40870666503906 115.66011047363281 102.31444549560547 74.55683898925781" stroke-width="2" fill="none" stroke="rgb(0, 0, 0)" stroke-opacity="1.0" stroke-linecap="round" stroke-linejoin="round"/>
    <path d="M 122.78926849365234 115.37535858154297 C 148.68777465820312 116.72472381591797 113.64964294433594 135.96768188476562 155.04440307617188 133.61004638671875" stroke-width="2" fill="none" stroke="rgb(0, 0, 0)" stroke-opacity="1.0" stroke-linecap="round" stroke-linejoin="round"/>
    <path d="M 63.739891052246094 112.46772003173828 C -14.315288543701172 167.53146362304688 173.4537353515625 160.61862182617188 164.53262329101562 140.9752960205078" stroke-width="2" fill="none" stroke="rgb(0, 0, 0)" stroke-opacity="1.0" stroke-linecap="round" stroke-linejoin="round"/>
    <path d="M 79.0778579711914 109.91263580322266 C 155.86807250976562 162.22975158691406 185.4422607421875 78.5087661743164 135.97947692871094 134.98764038085938" stroke-width="2" fill="none" stroke="rgb(0, 0, 0)" stroke-opacity="1.0" stroke-linecap="round" stroke-linejoin="round"/>
    <path d="M 132.03982543945312 122.53286743164062 C 149.08966064453125 101.82955169677734 155.41168212890625 117.41697692871094 129.45492553710938 120.87129211425781" stroke-width="2" fill="none" stroke="rgb(0, 0, 0)" stroke-opacity="1.0" stroke-linecap="round" stroke-linejoin="round"/>
    <path d="M 178.07635498046875 97.7680435180664 C 189.85641479492188 29.681644439697266 159.84556579589844 97.89093017578125 165.0212860107422 85.69717407226562" stroke-width="2" fill="none" stroke="rgb(0, 0, 0)" stroke-opacity="1.0" stroke-linecap="round" stroke-linejoin="round"/>
    <path d="M 122.595458984375 120.3252182006836 C 154.0648651123047 126.51644134521484 173.34814453125 72.38555908203125 113.45450592041016 87.60550689697266" stroke-width="2" fill="none" stroke="rgb(0, 0, 0)" stroke-opacity="1.0" stroke-linecap="round" stroke-linejoin="round"/>
    <path d="M 152.8633575439453 153.71835327148438 C 30.351293563842773 151.03236389160156 26.076602935791016 119.19515228271484 86.23921966552734 149.26942443847656" stroke-width="2" fill="none" stroke="rgb(0, 0, 0)" stroke-opacity="1.0" stroke-linecap="round" stroke-linejoin="round"/>
    <path d="M 171.85292053222656 130.69332885742188 C 172.65098571777344 95.82659149169922 174.83607482910156 120.0488052368164 182.7608642578125 100.76789855957031" stroke-width="2" fill="none" stroke="rgb(0, 0, 0)" stroke-opacity="1.0" stroke-linecap="round" stroke-linejoin="round"/>
    <path d="M 136.6775665283203 117.25537109375 C 187.93411254882812 140.57418823242188 144.36947631835938 104.45435333251953 148.8540496826172 130.97894287109375" stroke-width="2" fill="none" stroke="rgb(0, 0, 0)" stroke-opacity="1.0" stroke-linecap="round" stroke-linejoin="round"/>
    <path d="M 113.90496826171875 130.89822387695312 C 127.62176513671875 142.9016876220703 90.77362823486328 111.77506256103516 120.51744079589844 101.01184844970703" stroke-width="2" fill="none" stroke="rgb(0, 0, 0)" stroke-opacity="1.0" stroke-linecap="round" stroke-linejoin="round"/>
    <path d="M 89.92415618896484 133.99249267578125 C 36.59309387207031 120.43977355957031 31.723264694213867 114.61005401611328 87.9406967163086 155.8748016357422" stroke-width="2" fill="none" stroke="rgb(0, 0, 0)" stroke-opacity="1.0" stroke-linecap="round" stroke-linejoin="round"/>
  </g>
</svg>
