<?xml version="1.0" ?>
<svg xmlns="http://www.w3.org/2000/svg" version="1.1" width="224" height="224">
  <defs/>
  <g>
    <path d="M 104.3807373046875 74.03166961669922 C 115.73570251464844 108.55012512207031 70.03607940673828 56.39570236206055 42.821144104003906 127.29485321044922" stroke-width="2" fill="none" stroke="rgb(0, 0, 0)" stroke-opacity="1.0" stroke-linecap="round" stroke-linejoin="round"/>
    <path d="M 140.77947998046875 114.4098129272461 C 189.58926391601562 105.75733947753906 186.61892700195312 177.53672790527344 52.130855560302734 138.4746551513672" stroke-width="2" fill="none" stroke="rgb(0, 0, 0)" stroke-opacity="1.0" stroke-linecap="round" stroke-linejoin="round"/>
    <path d="M 70.83441925048828 122.18338012695312 C 78.0015869140625 102.81083679199219 74.89152526855469 127.61599731445312 171.6147003173828 145.50001525878906" stroke-width="2" fill="none" stroke="rgb(0, 0, 0)" stroke-opacity="1.0" stroke-linecap="round" stroke-linejoin="round"/>
    <path d="M 110.7847671508789 100.70166778564453 C 134.3938446044922 111.59049224853516 118.02912139892578 127.28547668457031 97.562744140625 96.46603393554688" stroke-width="2" fill="none" stroke="rgb(0, 0, 0)" stroke-opacity="1.0" stroke-linecap="round" stroke-linejoin="round"/>
    <path d="M 106.87120819091797 119.75354766845703 C 142.46273803710938 129.9327392578125 74.0447006225586 106.54056549072266 133.47958374023438 118.63337707519531" stroke-width="2" fill="none" stroke="rgb(0, 0, 0)" stroke-opacity="1.0" stroke-linecap="round" stroke-linejoin="round"/>
    <path d="M 109.10403442382812 136.70980834960938 C 211.4005126953125 133.11961364746094 154.86029052734375 108.09204864501953 170.9779815673828 115.23027038574219" stroke-width="2" fill="none" stroke="rgb(0, 0, 0)" stroke-opacity="1.0" stroke-linecap="round" stroke-linejoin="round"/>
    <path d="M 45.007957458496094 132.3961181640625 C 14.635664939880371 165.08102416992188 186.90524291992188 162.720458984375 174.3519287109375 144.0546112060547" stroke-width="2" fill="none" stroke="rgb(0, 0, 0)" stroke-opacity="1.0" stroke-linecap="round" stroke-linejoin="round"/>
    <path d="M 125.47777557373047 99.68501281738281 C 96.51862335205078 111.26634979248047 104.27748107910156 142.76051330566406 99.83480834960938 88.75548553466797" stroke-width="2" fill="none" stroke="rgb(0, 0, 0)" stroke-opacity="1.0" stroke-linecap="round" stroke-linejoin="round"/>
    <path d="M 88.02629089355469 119.14151763916016 C 255.3363800048828 117.39730072021484 133.30300903320312 141.75872802734375 95.11238098144531 108.21929168701172" stroke-width="2" fill="none" stroke="rgb(0, 0, 0)" stroke-opacity="1.0" stroke-linecap="round" stroke-linejoin="round"/>
    <path d="M 180.24481201171875 90.80049133300781 C 197.1204071044922 21.89155387878418 155.60092163085938 91.39398956298828 170.2283477783203 77.06375122070312" stroke-width="2" fill="none" stroke="rgb(0, 0, 0)" stroke-opacity="1.0" stroke-linecap="round" stroke-linejoin="round"/>
    <path d="M 142.28321838378906 108.75115966796875 C 193.546142578125 140.04417419433594 159.0356903076172 68.15707397460938 135.0254364013672 92.17440795898438" stroke-width="2" fill="none" stroke="rgb(0, 0, 0)" stroke-opacity="1.0" stroke-linecap="round" stroke-linejoin="round"/>
    <path d="M 123.84147644042969 106.4647445678711 C 145.5504913330078 122.20079040527344 47.061798095703125 76.23371887207031 43.67234420776367 127.0884017944336" stroke-width="2" fill="none" stroke="rgb(0, 0, 0)" stroke-opacity="1.0" stroke-linecap="round" stroke-linejoin="round"/>
    <path d="M 143.75613403320312 118.06180572509766 C 184.23406982421875 108.94774627685547 129.10244750976562 119.34711456298828 169.8301239013672 127.53975677490234" stroke-width="2" fill="none" stroke="rgb(0, 0, 0)" stroke-opacity="1.0" stroke-linecap="round" stroke-linejoin="round"/>
    <path d="M 166.01588439941406 92.55134582519531 C 188.6307830810547 82.17374420166016 157.74838256835938 114.23516845703125 164.09298706054688 101.6808090209961" stroke-width="2" fill="none" stroke="rgb(0, 0, 0)" stroke-opacity="1.0" stroke-linecap="round" stroke-linejoin="round"/>
    <path d="M 101.33832550048828 86.48417663574219 C 128.6904754638672 62.485050201416016 98.8173599243164 100.40764617919922 169.4799346923828 83.85043334960938" stroke-width="2" fill="none" stroke="rgb(0, 0, 0)" stroke-opacity="1.0" stroke-linecap="round" stroke-linejoin="round"/>
    <path d="M 75.3997573852539 144.21453857421875 C 23.892168045043945 119.53350830078125 41.29347229003906 134.39254760742188 106.32656860351562 156.8082733154297" stroke-width="2" fill="none" stroke="rgb(0, 0, 0)" stroke-opacity="1.0" stroke-linecap="round" stroke-linejoin="round"/>
  </g>
</svg>
