<?xml version="1.0" ?>
<svg xmlns="http://www.w3.org/2000/svg" version="1.1" width="224" height="224">
  <defs/>
  <g>
    <path d="M 99.23920440673828 78.23433685302734 C 110.13131713867188 117.16061401367188 64.60967254638672 64.9734878540039 44.08855056762695 124.9293212890625" stroke-width="2" fill="none" stroke="rgb(0, 0, 0)" stroke-opacity="1.0" stroke-linecap="round" stroke-linejoin="round"/>
    <path d="M 156.0488739013672 132.98475646972656 C 197.62562561035156 117.42147827148438 194.9407958984375 192.4201202392578 66.67365264892578 127.08406829833984" stroke-width="2" fill="none" stroke="rgb(0, 0, 0)" stroke-opacity="1.0" stroke-linecap="round" stroke-linejoin="round"/>
    <path d="M 57.8456916809082 104.50627899169922 C 84.8227310180664 86.2331771850586 107.57917022705078 139.16513061523438 132.2515411376953 130.1179656982422" stroke-width="2" fill="none" stroke="rgb(0, 0, 0)" stroke-opacity="1.0" stroke-linecap="round" stroke-linejoin="round"/>
    <path d="M 105.64347839355469 109.7657241821289 C 98.68392181396484 110.62115478515625 102.80062866210938 131.02511596679688 98.25608825683594 95.2569351196289" stroke-width="2" fill="none" stroke="rgb(0, 0, 0)" stroke-opacity="1.0" stroke-linecap="round" stroke-linejoin="round"/>
    <path d="M 115.8536376953125 113.65898132324219 C 152.8915557861328 91.53606414794922 91.86862182617188 119.59468841552734 131.22377014160156 122.23446655273438" stroke-width="2" fill="none" stroke="rgb(0, 0, 0)" stroke-opacity="1.0" stroke-linecap="round" stroke-linejoin="round"/>
    <path d="M 108.32076263427734 124.72919464111328 C 182.5186767578125 125.52442169189453 119.57044982910156 106.13970184326172 153.00498962402344 110.32670593261719" stroke-width="2" fill="none" stroke="rgb(0, 0, 0)" stroke-opacity="1.0" stroke-linecap="round" stroke-linejoin="round"/>
    <path d="M 44.8482780456543 128.41195678710938 C 33.79645538330078 158.32598876953125 187.30479431152344 159.72862243652344 170.95973205566406 149.70423889160156" stroke-width="2" fill="none" stroke="rgb(0, 0, 0)" stroke-opacity="1.0" stroke-linecap="round" stroke-linejoin="round"/>
    <path d="M 133.29013061523438 98.44633483886719 C 75.28623962402344 89.3570785522461 136.65744018554688 138.63014221191406 134.61581420898438 117.68299865722656" stroke-width="2" fill="none" stroke="rgb(0, 0, 0)" stroke-opacity="1.0" stroke-linecap="round" stroke-linejoin="round"/>
    <path d="M 89.13121795654297 148.36868286132812 C 225.38523864746094 144.70599365234375 135.7890625 150.61231994628906 93.4289321899414 125.65033721923828" stroke-width="2" fill="none" stroke="rgb(0, 0, 0)" stroke-opacity="1.0" stroke-linecap="round" stroke-linejoin="round"/>
    <path d="M 176.50303649902344 92.3431625366211 C 200.00148010253906 27.57530403137207 154.60902404785156 100.89498901367188 161.20840454101562 80.50022888183594" stroke-width="2" fill="none" stroke="rgb(0, 0, 0)" stroke-opacity="1.0" stroke-linecap="round" stroke-linejoin="round"/>
    <path d="M 124.65182495117188 120.6539306640625 C 191.9071044921875 144.14254760742188 157.40528869628906 62.86140060424805 127.16085815429688 98.77345275878906" stroke-width="2" fill="none" stroke="rgb(0, 0, 0)" stroke-opacity="1.0" stroke-linecap="round" stroke-linejoin="round"/>
    <path d="M 150.31993103027344 131.76043701171875 C 130.64602661132812 128.1844940185547 43.51253890991211 77.09288024902344 56.03763198852539 119.57568359375" stroke-width="2" fill="none" stroke="rgb(0, 0, 0)" stroke-opacity="1.0" stroke-linecap="round" stroke-linejoin="round"/>
    <path d="M 159.53692626953125 130.8232421875 C 169.41287231445312 95.49919891357422 132.564208984375 113.29814147949219 171.69554138183594 100.15625" stroke-width="2" fill="none" stroke="rgb(0, 0, 0)" stroke-opacity="1.0" stroke-linecap="round" stroke-linejoin="round"/>
    <path d="M 161.1829071044922 131.22384643554688 C 161.43638610839844 97.33956909179688 116.5595703125 121.24951171875 162.2135467529297 112.29964447021484" stroke-width="2" fill="none" stroke="rgb(0, 0, 0)" stroke-opacity="1.0" stroke-linecap="round" stroke-linejoin="round"/>
    <path d="M 100.89867401123047 82.33392333984375 C 130.51577758789062 67.07695770263672 88.27200317382812 96.49484252929688 161.0862579345703 82.70384979248047" stroke-width="2" fill="none" stroke="rgb(0, 0, 0)" stroke-opacity="1.0" stroke-linecap="round" stroke-linejoin="round"/>
    <path d="M 79.47686004638672 121.7195816040039 C 27.080345153808594 92.81177520751953 59.57767868041992 110.72206115722656 154.83987426757812 126.87796020507812" stroke-width="2" fill="none" stroke="rgb(0, 0, 0)" stroke-opacity="1.0" stroke-linecap="round" stroke-linejoin="round"/>
  </g>
</svg>
