<?xml version="1.0" ?>
<svg xmlns="http://www.w3.org/2000/svg" version="1.1" width="224" height="224">
  <defs/>
  <g>
    <path d="M 102.41828918457031 78.70825958251953 C 151.20005798339844 124.75823974609375 47.232696533203125 83.34992980957031 50.0875129699707 111.01602935791016" stroke-width="2" fill="none" stroke="rgb(0, 0, 0)" stroke-opacity="1.0" stroke-linecap="round" stroke-linejoin="round"/>
    <path d="M 140.86936950683594 146.2301788330078 C 199.09654235839844 129.69517517089844 153.330322265625 161.3286590576172 74.98712158203125 132.75802612304688" stroke-width="2" fill="none" stroke="rgb(0, 0, 0)" stroke-opacity="1.0" stroke-linecap="round" stroke-linejoin="round"/>
    <path d="M 119.98631286621094 88.7547836303711 C 118.11287689208984 94.95301818847656 87.27641296386719 111.20677185058594 136.1397705078125 124.16311645507812" stroke-width="2" fill="none" stroke="rgb(0, 0, 0)" stroke-opacity="1.0" stroke-linecap="round" stroke-linejoin="round"/>
    <path d="M 141.56814575195312 93.18391418457031 C 180.22781372070312 80.1582260131836 176.02871704101562 94.22625732421875 156.7057342529297 120.34856414794922" stroke-width="2" fill="none" stroke="rgb(0, 0, 0)" stroke-opacity="1.0" stroke-linecap="round" stroke-linejoin="round"/>
    <path d="M 94.27677917480469 71.25569915771484 C 99.82089233398438 113.5811767578125 134.36964416503906 73.14117431640625 142.1028594970703 96.33419036865234" stroke-width="2" fill="none" stroke="rgb(0, 0, 0)" stroke-opacity="1.0" stroke-linecap="round" stroke-linejoin="round"/>
    <path d="M 103.95664978027344 110.31227111816406 C 98.0188980102539 146.5895538330078 100.88865661621094 118.52869415283203 96.32769775390625 127.489013671875" stroke-width="2" fill="none" stroke="rgb(0, 0, 0)" stroke-opacity="1.0" stroke-linecap="round" stroke-linejoin="round"/>
    <path d="M 58.04257583618164 133.2128448486328 C 52.141109466552734 152.5334930419922 90.23387908935547 151.0398712158203 81.06365966796875 151.98585510253906" stroke-width="2" fill="none" stroke="rgb(0, 0, 0)" stroke-opacity="1.0" stroke-linecap="round" stroke-linejoin="round"/>
    <path d="M 85.43153381347656 148.00949096679688 C 208.05047607421875 171.1493377685547 194.5322265625 117.41908264160156 85.95642852783203 117.17420959472656" stroke-width="2" fill="none" stroke="rgb(0, 0, 0)" stroke-opacity="1.0" stroke-linecap="round" stroke-linejoin="round"/>
    <path d="M 116.26060485839844 117.82510375976562 C 137.54913330078125 104.28598022460938 127.21088409423828 123.6729965209961 102.35135650634766 119.74398040771484" stroke-width="2" fill="none" stroke="rgb(0, 0, 0)" stroke-opacity="1.0" stroke-linecap="round" stroke-linejoin="round"/>
    <path d="M 180.25975036621094 81.69584655761719 C 189.58560180664062 28.775850296020508 139.15321350097656 102.08525848388672 164.04014587402344 124.50762176513672" stroke-width="2" fill="none" stroke="rgb(0, 0, 0)" stroke-opacity="1.0" stroke-linecap="round" stroke-linejoin="round"/>
    <path d="M 172.43637084960938 150.3331298828125 C 184.1783905029297 121.43141174316406 178.40750122070312 154.3040008544922 140.923095703125 140.57754516601562" stroke-width="2" fill="none" stroke="rgb(0, 0, 0)" stroke-opacity="1.0" stroke-linecap="round" stroke-linejoin="round"/>
    <path d="M 120.07740020751953 156.90899658203125 C 34.4840202331543 158.1395721435547 17.41655731201172 119.45941925048828 33.96881103515625 136.4371337890625" stroke-width="2" fill="none" stroke="rgb(0, 0, 0)" stroke-opacity="1.0" stroke-linecap="round" stroke-linejoin="round"/>
    <path d="M 161.0061492919922 117.21664428710938 C 136.26817321777344 117.26240539550781 179.87791442871094 137.25486755371094 122.11176300048828 129.2707061767578" stroke-width="2" fill="none" stroke="rgb(0, 0, 0)" stroke-opacity="1.0" stroke-linecap="round" stroke-linejoin="round"/>
    <path d="M 172.96209716796875 81.6989974975586 C 168.44415283203125 109.2809066772461 133.94346618652344 78.65032196044922 162.425048828125 106.65918731689453" stroke-width="2" fill="none" stroke="rgb(0, 0, 0)" stroke-opacity="1.0" stroke-linecap="round" stroke-linejoin="round"/>
    <path d="M 102.88848876953125 85.49397277832031 C 84.5246353149414 121.87023162841797 102.93942260742188 88.45021057128906 115.70714569091797 130.28350830078125" stroke-width="2" fill="none" stroke="rgb(0, 0, 0)" stroke-opacity="1.0" stroke-linecap="round" stroke-linejoin="round"/>
    <path d="M 82.9466781616211 106.59801483154297 C 62.8069953918457 84.18252563476562 9.798680305480957 150.96783447265625 71.53791809082031 151.0740203857422" stroke-width="2" fill="none" stroke="rgb(0, 0, 0)" stroke-opacity="1.0" stroke-linecap="round" stroke-linejoin="round"/>
  </g>
</svg>
