<?xml version="1.0" ?>
<svg xmlns="http://www.w3.org/2000/svg" version="1.1" width="224" height="224">
  <defs/>
  <g>
    <path d="M 100.06067657470703 70.21815490722656 C 110.98795318603516 116.49138641357422 60.18265914916992 66.475341796875 44.064456939697266 128.48089599609375" stroke-width="2" fill="none" stroke="rgb(0, 0, 0)" stroke-opacity="1.0" stroke-linecap="round" stroke-linejoin="round"/>
    <path d="M 169.28367614746094 125.01436614990234 C 161.40951538085938 115.64547729492188 201.01910400390625 178.2757568359375 76.59927368164062 130.65084838867188" stroke-width="2" fill="none" stroke="rgb(0, 0, 0)" stroke-opacity="1.0" stroke-linecap="round" stroke-linejoin="round"/>
    <path d="M 75.6856918334961 104.25667572021484 C 164.11865234375 89.73125457763672 80.75994873046875 135.53863525390625 159.25222778320312 126.82377624511719" stroke-width="2" fill="none" stroke="rgb(0, 0, 0)" stroke-opacity="1.0" stroke-linecap="round" stroke-linejoin="round"/>
    <path d="M 97.28121948242188 96.41348266601562 C 107.1383285522461 63.33115005493164 55.02670669555664 147.0829620361328 158.64767456054688 123.84418487548828" stroke-width="2" fill="none" stroke="rgb(0, 0, 0)" stroke-opacity="1.0" stroke-linecap="round" stroke-linejoin="round"/>
    <path d="M 134.4879913330078 105.03502655029297 C 162.89198303222656 110.49138641357422 104.14775848388672 125.99903106689453 140.96023559570312 109.74324798583984" stroke-width="2" fill="none" stroke="rgb(0, 0, 0)" stroke-opacity="1.0" stroke-linecap="round" stroke-linejoin="round"/>
    <path d="M 156.12832641601562 101.02648162841797 C 196.5712890625 105.25440216064453 158.68618774414062 91.03751373291016 169.31500244140625 135.4595184326172" stroke-width="2" fill="none" stroke="rgb(0, 0, 0)" stroke-opacity="1.0" stroke-linecap="round" stroke-linejoin="round"/>
    <path d="M 45.23262405395508 125.39620208740234 C 37.022132873535156 164.14337158203125 206.93359375 161.57534790039062 167.22169494628906 133.4103240966797" stroke-width="2" fill="none" stroke="rgb(0, 0, 0)" stroke-opacity="1.0" stroke-linecap="round" stroke-linejoin="round"/>
    <path d="M 146.580322265625 115.03550720214844 C 102.68356323242188 112.73881530761719 173.99551391601562 106.4111557006836 118.11173248291016 114.1282730102539" stroke-width="2" fill="none" stroke="rgb(0, 0, 0)" stroke-opacity="1.0" stroke-linecap="round" stroke-linejoin="round"/>
    <path d="M 112.86833190917969 149.7981414794922 C 245.67437744140625 144.1800079345703 127.67092895507812 157.30941772460938 79.74913787841797 109.69915008544922" stroke-width="2" fill="none" stroke="rgb(0, 0, 0)" stroke-opacity="1.0" stroke-linecap="round" stroke-linejoin="round"/>
    <path d="M 183.2890625 85.21459197998047 C 193.12493896484375 31.01783561706543 171.12640380859375 94.9592056274414 154.61651611328125 84.56031036376953" stroke-width="2" fill="none" stroke="rgb(0, 0, 0)" stroke-opacity="1.0" stroke-linecap="round" stroke-linejoin="round"/>
    <path d="M 108.48306274414062 127.46646881103516 C 187.99163818359375 169.2296905517578 175.00979614257812 60.48561477661133 137.50042724609375 84.37825012207031" stroke-width="2" fill="none" stroke="rgb(0, 0, 0)" stroke-opacity="1.0" stroke-linecap="round" stroke-linejoin="round"/>
    <path d="M 96.212890625 96.51553344726562 C 79.0678482055664 140.1650390625 54.62154006958008 72.20294189453125 43.76348114013672 129.95712280273438" stroke-width="2" fill="none" stroke="rgb(0, 0, 0)" stroke-opacity="1.0" stroke-linecap="round" stroke-linejoin="round"/>
    <path d="M 152.45697021484375 112.81307983398438 C 182.76632690429688 123.26122283935547 128.6570587158203 110.5500717163086 158.9000244140625 135.57142639160156" stroke-width="2" fill="none" stroke="rgb(0, 0, 0)" stroke-opacity="1.0" stroke-linecap="round" stroke-linejoin="round"/>
    <path d="M 185.80105590820312 71.98187255859375 C 181.08734130859375 63.5344123840332 171.2352752685547 115.88555145263672 174.47096252441406 85.88423156738281" stroke-width="2" fill="none" stroke="rgb(0, 0, 0)" stroke-opacity="1.0" stroke-linecap="round" stroke-linejoin="round"/>
    <path d="M 98.30215454101562 78.43110656738281 C 121.93202209472656 60.36507034301758 109.34691619873047 81.25293731689453 134.70069885253906 80.89912414550781" stroke-width="2" fill="none" stroke="rgb(0, 0, 0)" stroke-opacity="1.0" stroke-linecap="round" stroke-linejoin="round"/>
    <path d="M 77.8322982788086 150.09030151367188 C 21.87879753112793 109.85525512695312 46.78367614746094 130.38653564453125 99.1482162475586 150.192138671875" stroke-width="2" fill="none" stroke="rgb(0, 0, 0)" stroke-opacity="1.0" stroke-linecap="round" stroke-linejoin="round"/>
  </g>
</svg>
