<?xml version="1.0" ?>
<svg xmlns="http://www.w3.org/2000/svg" version="1.1" width="224" height="224">
  <defs/>
  <g>
    <path d="M 101.8084945678711 74.52069091796875 C 115.7588882446289 108.3288803100586 67.39698028564453 73.08295440673828 50.639923095703125 107.99681091308594" stroke-width="2" fill="none" stroke="rgb(0, 0, 0)" stroke-opacity="1.0" stroke-linecap="round" stroke-linejoin="round"/>
    <path d="M 120.51506805419922 130.94313049316406 C 197.24952697753906 144.35787963867188 189.82887268066406 171.8916015625 77.37451171875 130.66200256347656" stroke-width="2" fill="none" stroke="rgb(0, 0, 0)" stroke-opacity="1.0" stroke-linecap="round" stroke-linejoin="round"/>
    <path d="M 154.64239501953125 98.03060150146484 C 117.36565399169922 73.28057098388672 81.07782745361328 139.45068359375 164.5781707763672 127.8975830078125" stroke-width="2" fill="none" stroke="rgb(0, 0, 0)" stroke-opacity="1.0" stroke-linecap="round" stroke-linejoin="round"/>
    <path d="M 176.7100372314453 101.33224487304688 C 162.36325073242188 127.38908386230469 191.9490203857422 117.50692749023438 121.05408477783203 107.56444549560547" stroke-width="2" fill="none" stroke="rgb(0, 0, 0)" stroke-opacity="1.0" stroke-linecap="round" stroke-linejoin="round"/>
    <path d="M 105.94830322265625 82.04676818847656 C 81.65193939208984 122.46945190429688 166.4524383544922 93.71741485595703 108.66047668457031 77.34210205078125" stroke-width="2" fill="none" stroke="rgb(0, 0, 0)" stroke-opacity="1.0" stroke-linecap="round" stroke-linejoin="round"/>
    <path d="M 87.10990905761719 108.30326080322266 C 125.86944580078125 115.5737533569336 70.12594604492188 137.2716064453125 137.1223602294922 151.30413818359375" stroke-width="2" fill="none" stroke="rgb(0, 0, 0)" stroke-opacity="1.0" stroke-linecap="round" stroke-linejoin="round"/>
    <path d="M 68.26885223388672 95.01505279541016 C -4.856444835662842 158.51931762695312 104.2556381225586 168.22340393066406 117.78380584716797 163.06944274902344" stroke-width="2" fill="none" stroke="rgb(0, 0, 0)" stroke-opacity="1.0" stroke-linecap="round" stroke-linejoin="round"/>
    <path d="M 64.71060943603516 146.1758575439453 C 158.3396453857422 181.844482421875 228.52197265625 140.17965698242188 133.79656982421875 137.17059326171875" stroke-width="2" fill="none" stroke="rgb(0, 0, 0)" stroke-opacity="1.0" stroke-linecap="round" stroke-linejoin="round"/>
    <path d="M 112.7477798461914 122.6667709350586 C 150.87158203125 106.72957611083984 115.10635375976562 129.86312866210938 164.27767944335938 119.5788345336914" stroke-width="2" fill="none" stroke="rgb(0, 0, 0)" stroke-opacity="1.0" stroke-linecap="round" stroke-linejoin="round"/>
    <path d="M 180.8520965576172 98.65686798095703 C 201.38839721679688 33.0930290222168 143.141357421875 115.78536224365234 163.81842041015625 93.60882568359375" stroke-width="2" fill="none" stroke="rgb(0, 0, 0)" stroke-opacity="1.0" stroke-linecap="round" stroke-linejoin="round"/>
    <path d="M 144.80194091796875 118.78339385986328 C 156.9928436279297 111.06997680664062 143.94979858398438 116.88078308105469 166.36045837402344 113.29833984375" stroke-width="2" fill="none" stroke="rgb(0, 0, 0)" stroke-opacity="1.0" stroke-linecap="round" stroke-linejoin="round"/>
    <path d="M 148.74046325683594 151.77330017089844 C 63.016475677490234 156.8759765625 47.49989700317383 114.25757598876953 69.46116638183594 135.3399658203125" stroke-width="2" fill="none" stroke="rgb(0, 0, 0)" stroke-opacity="1.0" stroke-linecap="round" stroke-linejoin="round"/>
    <path d="M 158.5334014892578 127.53668975830078 C 111.85285949707031 108.67115020751953 194.2472686767578 125.9993896484375 126.38636779785156 131.74461364746094" stroke-width="2" fill="none" stroke="rgb(0, 0, 0)" stroke-opacity="1.0" stroke-linecap="round" stroke-linejoin="round"/>
    <path d="M 167.39700317382812 104.0556640625 C 183.84646606445312 128.15589904785156 137.35049438476562 145.23692321777344 155.01800537109375 140.800537109375" stroke-width="2" fill="none" stroke="rgb(0, 0, 0)" stroke-opacity="1.0" stroke-linecap="round" stroke-linejoin="round"/>
    <path d="M 111.76485443115234 110.51184844970703 C 92.71829223632812 135.69107055664062 101.28916931152344 114.56462097167969 87.3845443725586 116.19727325439453" stroke-width="2" fill="none" stroke="rgb(0, 0, 0)" stroke-opacity="1.0" stroke-linecap="round" stroke-linejoin="round"/>
    <path d="M 95.13446044921875 163.65652465820312 C 54.07341384887695 152.18057250976562 13.55309009552002 128.24649047851562 77.34712219238281 150.5597686767578" stroke-width="2" fill="none" stroke="rgb(0, 0, 0)" stroke-opacity="1.0" stroke-linecap="round" stroke-linejoin="round"/>
  </g>
</svg>
