<?xml version="1.0" ?>
<svg xmlns="http://www.w3.org/2000/svg" version="1.1" width="224" height="224">
  <defs/>
  <g>
    <path d="M 110.14917755126953 73.26434326171875 C 105.6246566772461 117.74785614013672 75.22628021240234 73.97906494140625 49.972164154052734 111.20512390136719" stroke-width="2" fill="none" stroke="rgb(0, 0, 0)" stroke-opacity="1.0" stroke-linecap="round" stroke-linejoin="round"/>
    <path d="M 155.26611328125 140.73629760742188 C 199.3632049560547 127.9388656616211 176.21234130859375 192.282470703125 70.635009765625 134.61265563964844" stroke-width="2" fill="none" stroke="rgb(0, 0, 0)" stroke-opacity="1.0" stroke-linecap="round" stroke-linejoin="round"/>
    <path d="M 124.21952056884766 116.27484130859375 C 220.94859313964844 111.05626678466797 133.32958984375 143.45416259765625 169.9796142578125 121.94770050048828" stroke-width="2" fill="none" stroke="rgb(0, 0, 0)" stroke-opacity="1.0" stroke-linecap="round" stroke-linejoin="round"/>
    <path d="M 147.95985412597656 152.88687133789062 C 216.5460205078125 148.72213745117188 141.2007293701172 101.59264373779297 167.27639770507812 114.4916000366211" stroke-width="2" fill="none" stroke="rgb(0, 0, 0)" stroke-opacity="1.0" stroke-linecap="round" stroke-linejoin="round"/>
    <path d="M 47.934913635253906 119.85226440429688 C 273.6954345703125 145.60916137695312 137.82736206054688 148.1117401123047 108.39188385009766 135.52581787109375" stroke-width="2" fill="none" stroke="rgb(0, 0, 0)" stroke-opacity="1.0" stroke-linecap="round" stroke-linejoin="round"/>
    <path d="M 155.85325622558594 84.77830505371094 C 202.58071899414062 100.0293960571289 164.0552978515625 98.29412078857422 167.17306518554688 123.2684097290039" stroke-width="2" fill="none" stroke="rgb(0, 0, 0)" stroke-opacity="1.0" stroke-linecap="round" stroke-linejoin="round"/>
    <path d="M 57.395633697509766 104.87443542480469 C -7.350868225097656 167.43380737304688 178.2672576904297 156.95843505859375 156.63954162597656 146.84042358398438" stroke-width="2" fill="none" stroke="rgb(0, 0, 0)" stroke-opacity="1.0" stroke-linecap="round" stroke-linejoin="round"/>
    <path d="M 133.6148223876953 133.58863830566406 C 75.05473327636719 121.30860900878906 143.26597595214844 81.43501281738281 98.04071044921875 104.23943328857422" stroke-width="2" fill="none" stroke="rgb(0, 0, 0)" stroke-opacity="1.0" stroke-linecap="round" stroke-linejoin="round"/>
    <path d="M 170.252197265625 139.91441345214844 C 199.8981475830078 114.95450592041016 111.546630859375 149.07395935058594 149.39572143554688 112.32933044433594" stroke-width="2" fill="none" stroke="rgb(0, 0, 0)" stroke-opacity="1.0" stroke-linecap="round" stroke-linejoin="round"/>
    <path d="M 157.627685546875 89.03954315185547 C 199.8897247314453 21.699552536010742 176.2467498779297 115.59191131591797 173.19566345214844 79.21673583984375" stroke-width="2" fill="none" stroke="rgb(0, 0, 0)" stroke-opacity="1.0" stroke-linecap="round" stroke-linejoin="round"/>
    <path d="M 111.1573486328125 135.4308624267578 C 185.9619598388672 170.14645385742188 193.88975524902344 67.98271942138672 131.34426879882812 85.21154022216797" stroke-width="2" fill="none" stroke="rgb(0, 0, 0)" stroke-opacity="1.0" stroke-linecap="round" stroke-linejoin="round"/>
    <path d="M 53.51696014404297 113.48421478271484 C 130.83091735839844 100.3385009765625 79.04740905761719 127.02912139892578 86.0985336303711 104.2532730102539" stroke-width="2" fill="none" stroke="rgb(0, 0, 0)" stroke-opacity="1.0" stroke-linecap="round" stroke-linejoin="round"/>
    <path d="M 83.96099853515625 117.27165222167969 C 170.5901641845703 153.62071228027344 44.51123809814453 108.82333374023438 146.86463928222656 148.27960205078125" stroke-width="2" fill="none" stroke="rgb(0, 0, 0)" stroke-opacity="1.0" stroke-linecap="round" stroke-linejoin="round"/>
    <path d="M 149.19508361816406 117.47413635253906 C 129.46435546875 90.58918762207031 185.09933471679688 134.67796325683594 132.64242553710938 115.69465637207031" stroke-width="2" fill="none" stroke="rgb(0, 0, 0)" stroke-opacity="1.0" stroke-linecap="round" stroke-linejoin="round"/>
    <path d="M 108.13052368164062 116.80667877197266 C 95.59272003173828 33.640743255615234 143.1192626953125 97.63700103759766 131.4728546142578 83.27001190185547" stroke-width="2" fill="none" stroke="rgb(0, 0, 0)" stroke-opacity="1.0" stroke-linecap="round" stroke-linejoin="round"/>
    <path d="M 50.49272918701172 141.92579650878906 C 31.185373306274414 100.1716537475586 83.30150604248047 105.5076904296875 58.09687042236328 108.60303497314453" stroke-width="2" fill="none" stroke="rgb(0, 0, 0)" stroke-opacity="1.0" stroke-linecap="round" stroke-linejoin="round"/>
  </g>
</svg>
