<?xml version="1.0" ?>
<svg xmlns="http://www.w3.org/2000/svg" version="1.1" width="224" height="224">
  <defs/>
  <g>
    <path d="M 113.61680603027344 70.89982604980469 C 110.00594329833984 114.7633285522461 56.91321563720703 71.64102935791016 50.872554779052734 118.45591735839844" stroke-width="2" fill="none" stroke="rgb(0, 0, 0)" stroke-opacity="1.0" stroke-linecap="round" stroke-linejoin="round"/>
    <path d="M 143.15016174316406 145.47811889648438 C 209.15066528320312 117.10413360595703 170.1407012939453 159.6842041015625 68.3819580078125 121.99404907226562" stroke-width="2" fill="none" stroke="rgb(0, 0, 0)" stroke-opacity="1.0" stroke-linecap="round" stroke-linejoin="round"/>
    <path d="M 150.4532470703125 107.46367645263672 C 126.81456756591797 139.06411743164062 101.63516998291016 107.36760711669922 138.45089721679688 105.65743255615234" stroke-width="2" fill="none" stroke="rgb(0, 0, 0)" stroke-opacity="1.0" stroke-linecap="round" stroke-linejoin="round"/>
    <path d="M 151.49107360839844 84.51680755615234 C 185.79974365234375 83.78480529785156 185.62168884277344 87.0010757446289 163.0602569580078 125.3711929321289" stroke-width="2" fill="none" stroke="rgb(0, 0, 0)" stroke-opacity="1.0" stroke-linecap="round" stroke-linejoin="round"/>
    <path d="M 108.02043151855469 71.53285217285156 C 123.25988006591797 102.55743408203125 132.35589599609375 72.40250396728516 147.60362243652344 94.495361328125" stroke-width="2" fill="none" stroke="rgb(0, 0, 0)" stroke-opacity="1.0" stroke-linecap="round" stroke-linejoin="round"/>
    <path d="M 105.64507293701172 88.4733657836914 C 115.50376892089844 112.37897491455078 96.79663848876953 80.43875885009766 96.48162078857422 107.25990295410156" stroke-width="2" fill="none" stroke="rgb(0, 0, 0)" stroke-opacity="1.0" stroke-linecap="round" stroke-linejoin="round"/>
    <path d="M 49.14534378051758 133.14019775390625 C 40.95621871948242 150.8047332763672 111.13340759277344 154.56005859375 79.30224609375 149.32073974609375" stroke-width="2" fill="none" stroke="rgb(0, 0, 0)" stroke-opacity="1.0" stroke-linecap="round" stroke-linejoin="round"/>
    <path d="M 87.84185791015625 153.8118438720703 C 214.80612182617188 163.7046661376953 178.83070373535156 134.8640594482422 114.00495147705078 126.36932373046875" stroke-width="2" fill="none" stroke="rgb(0, 0, 0)" stroke-opacity="1.0" stroke-linecap="round" stroke-linejoin="round"/>
    <path d="M 132.24246215820312 117.85664367675781 C 178.82769775390625 109.95538330078125 181.61724853515625 134.360595703125 113.11117553710938 102.06108856201172" stroke-width="2" fill="none" stroke="rgb(0, 0, 0)" stroke-opacity="1.0" stroke-linecap="round" stroke-linejoin="round"/>
    <path d="M 177.2319793701172 96.21826934814453 C 191.3287353515625 32.73124313354492 159.3970947265625 73.84365844726562 174.65289306640625 89.86225128173828" stroke-width="2" fill="none" stroke="rgb(0, 0, 0)" stroke-opacity="1.0" stroke-linecap="round" stroke-linejoin="round"/>
    <path d="M 167.3354034423828 139.29266357421875 C 195.10264587402344 116.39891815185547 188.57289123535156 141.4091796875 154.32521057128906 150.649169921875" stroke-width="2" fill="none" stroke="rgb(0, 0, 0)" stroke-opacity="1.0" stroke-linecap="round" stroke-linejoin="round"/>
    <path d="M 105.90901184082031 154.4144287109375 C 45.545379638671875 151.57269287109375 -6.392454624176025 104.09651947021484 18.113937377929688 126.6409912109375" stroke-width="2" fill="none" stroke="rgb(0, 0, 0)" stroke-opacity="1.0" stroke-linecap="round" stroke-linejoin="round"/>
    <path d="M 140.14418029785156 94.10926055908203 C 135.1267547607422 90.63034057617188 155.66351318359375 90.98981475830078 150.3502197265625 95.11371612548828" stroke-width="2" fill="none" stroke="rgb(0, 0, 0)" stroke-opacity="1.0" stroke-linecap="round" stroke-linejoin="round"/>
    <path d="M 174.80172729492188 77.6468276977539 C 170.18028259277344 82.6384048461914 118.4300537109375 105.41389465332031 166.0204620361328 109.4112319946289" stroke-width="2" fill="none" stroke="rgb(0, 0, 0)" stroke-opacity="1.0" stroke-linecap="round" stroke-linejoin="round"/>
    <path d="M 105.65740966796875 99.64083862304688 C 90.03546142578125 108.2933349609375 98.78202056884766 96.21315002441406 93.16242980957031 107.3878173828125" stroke-width="2" fill="none" stroke="rgb(0, 0, 0)" stroke-opacity="1.0" stroke-linecap="round" stroke-linejoin="round"/>
    <path d="M 80.44557189941406 112.97994995117188 C 53.132728576660156 93.7294692993164 13.174718856811523 139.9403533935547 60.7755241394043 147.20474243164062" stroke-width="2" fill="none" stroke="rgb(0, 0, 0)" stroke-opacity="1.0" stroke-linecap="round" stroke-linejoin="round"/>
  </g>
</svg>
