<?xml version="1.0" ?>
<svg xmlns="http://www.w3.org/2000/svg" version="1.1" width="224" height="224">
  <defs/>
  <g>
    <path d="M 100.92514038085938 73.01595306396484 C 114.68059539794922 115.91340637207031 56.566795349121094 76.5061264038086 46.134918212890625 120.91053009033203" stroke-width="2" fill="none" stroke="rgb(0, 0, 0)" stroke-opacity="1.0" stroke-linecap="round" stroke-linejoin="round"/>
    <path d="M 151.4659881591797 109.32213592529297 C 193.62054443359375 121.06410217285156 146.80804443359375 173.97824096679688 75.70040893554688 127.8831558227539" stroke-width="2" fill="none" stroke="rgb(0, 0, 0)" stroke-opacity="1.0" stroke-linecap="round" stroke-linejoin="round"/>
    <path d="M 164.8703155517578 99.43685150146484 C 121.86227416992188 62.64977264404297 92.81790924072266 138.12832641601562 132.3081512451172 128.64706420898438" stroke-width="2" fill="none" stroke="rgb(0, 0, 0)" stroke-opacity="1.0" stroke-linecap="round" stroke-linejoin="round"/>
    <path d="M 173.6034393310547 105.50454711914062 C 164.74879455566406 80.50979614257812 179.38331604003906 152.8137969970703 154.06512451171875 150.42208862304688" stroke-width="2" fill="none" stroke="rgb(0, 0, 0)" stroke-opacity="1.0" stroke-linecap="round" stroke-linejoin="round"/>
    <path d="M 98.42973327636719 69.42281341552734 C 90.15245819091797 98.10295104980469 161.05259704589844 89.7605209350586 128.1715545654297 110.19268035888672" stroke-width="2" fill="none" stroke="rgb(0, 0, 0)" stroke-opacity="1.0" stroke-linecap="round" stroke-linejoin="round"/>
    <path d="M 113.06920623779297 87.10668182373047 C 130.0584716796875 128.88772583007812 120.11628723144531 104.57540893554688 119.94808959960938 138.1661834716797" stroke-width="2" fill="none" stroke="rgb(0, 0, 0)" stroke-opacity="1.0" stroke-linecap="round" stroke-linejoin="round"/>
    <path d="M 60.153404235839844 103.62277221679688 C 5.642945766448975 165.15304565429688 96.5484390258789 151.5536346435547 151.7443389892578 154.96934509277344" stroke-width="2" fill="none" stroke="rgb(0, 0, 0)" stroke-opacity="1.0" stroke-linecap="round" stroke-linejoin="round"/>
    <path d="M 95.73755645751953 124.80838012695312 C 174.83975219726562 162.0328369140625 214.3812713623047 126.2116470336914 125.7215805053711 133.80935668945312" stroke-width="2" fill="none" stroke="rgb(0, 0, 0)" stroke-opacity="1.0" stroke-linecap="round" stroke-linejoin="round"/>
    <path d="M 113.36917114257812 88.2770004272461 C 168.63209533691406 94.6212158203125 114.45740509033203 127.1944580078125 143.2415313720703 111.8560791015625" stroke-width="2" fill="none" stroke="rgb(0, 0, 0)" stroke-opacity="1.0" stroke-linecap="round" stroke-linejoin="round"/>
    <path d="M 173.5076446533203 84.67120361328125 C 191.47332763671875 25.64963150024414 148.98707580566406 97.56981658935547 155.7421112060547 91.81486511230469" stroke-width="2" fill="none" stroke="rgb(0, 0, 0)" stroke-opacity="1.0" stroke-linecap="round" stroke-linejoin="round"/>
    <path d="M 147.7423095703125 120.26255798339844 C 168.71099853515625 98.68319702148438 171.26931762695312 122.88592529296875 160.7086944580078 110.10935974121094" stroke-width="2" fill="none" stroke="rgb(0, 0, 0)" stroke-opacity="1.0" stroke-linecap="round" stroke-linejoin="round"/>
    <path d="M 166.7191925048828 150.26661682128906 C 46.50259780883789 174.0321502685547 19.409276962280273 98.03081512451172 76.4430923461914 134.4293975830078" stroke-width="2" fill="none" stroke="rgb(0, 0, 0)" stroke-opacity="1.0" stroke-linecap="round" stroke-linejoin="round"/>
    <path d="M 171.6339111328125 117.14295196533203 C 149.04832458496094 120.05287170410156 196.938232421875 125.88063049316406 127.21930694580078 115.36640167236328" stroke-width="2" fill="none" stroke="rgb(0, 0, 0)" stroke-opacity="1.0" stroke-linecap="round" stroke-linejoin="round"/>
    <path d="M 153.87088012695312 89.82927703857422 C 169.1661834716797 100.33110046386719 109.78304290771484 89.20616149902344 147.9898681640625 128.63563537597656" stroke-width="2" fill="none" stroke="rgb(0, 0, 0)" stroke-opacity="1.0" stroke-linecap="round" stroke-linejoin="round"/>
    <path d="M 72.02227783203125 105.89283752441406 C 113.20047760009766 117.61952209472656 96.91487884521484 87.90284729003906 100.03164672851562 101.80128479003906" stroke-width="2" fill="none" stroke="rgb(0, 0, 0)" stroke-opacity="1.0" stroke-linecap="round" stroke-linejoin="round"/>
    <path d="M 91.3239517211914 115.60079956054688 C 66.68376922607422 105.95530700683594 22.808456420898438 124.50176239013672 88.15524291992188 111.50284576416016" stroke-width="2" fill="none" stroke="rgb(0, 0, 0)" stroke-opacity="1.0" stroke-linecap="round" stroke-linejoin="round"/>
  </g>
</svg>
