<?xml version="1.0" ?>
<svg xmlns="http://www.w3.org/2000/svg" version="1.1" width="224" height="224">
  <defs/>
  <g>
    <path d="M 103.37646484375 74.14678955078125 C 110.44554901123047 129.89659118652344 55.308406829833984 83.32160186767578 47.89915466308594 119.04964447021484" stroke-width="2" fill="none" stroke="rgb(0, 0, 0)" stroke-opacity="1.0" stroke-linecap="round" stroke-linejoin="round"/>
    <path d="M 171.9339599609375 148.94845581054688 C 204.44625854492188 123.29667663574219 169.9291229248047 165.22235107421875 49.66054916381836 140.73495483398438" stroke-width="2" fill="none" stroke="rgb(0, 0, 0)" stroke-opacity="1.0" stroke-linecap="round" stroke-linejoin="round"/>
    <path d="M 140.647705078125 119.475830078125 C 217.47366333007812 116.14923858642578 135.72555541992188 111.65470123291016 174.2024688720703 98.35144805908203" stroke-width="2" fill="none" stroke="rgb(0, 0, 0)" stroke-opacity="1.0" stroke-linecap="round" stroke-linejoin="round"/>
    <path d="M 166.01976013183594 131.31903076171875 C 204.1885986328125 157.3206329345703 172.69131469726562 66.16646575927734 172.509765625 89.5952377319336" stroke-width="2" fill="none" stroke="rgb(0, 0, 0)" stroke-opacity="1.0" stroke-linecap="round" stroke-linejoin="round"/>
    <path d="M 122.60128021240234 133.2157440185547 C 249.55636596679688 152.90638732910156 106.55961608886719 162.24000549316406 94.22330474853516 151.3184356689453" stroke-width="2" fill="none" stroke="rgb(0, 0, 0)" stroke-opacity="1.0" stroke-linecap="round" stroke-linejoin="round"/>
    <path d="M 145.87657165527344 94.32926177978516 C 188.92489624023438 73.83068084716797 168.66653442382812 143.8934783935547 160.84896850585938 111.37403869628906" stroke-width="2" fill="none" stroke="rgb(0, 0, 0)" stroke-opacity="1.0" stroke-linecap="round" stroke-linejoin="round"/>
    <path d="M 58.134765625 101.06477355957031 C -1.3940436840057373 167.1392364501953 182.71371459960938 159.56509399414062 140.66419982910156 147.80152893066406" stroke-width="2" fill="none" stroke="rgb(0, 0, 0)" stroke-opacity="1.0" stroke-linecap="round" stroke-linejoin="round"/>
    <path d="M 150.5348358154297 135.19151306152344 C 88.47323608398438 131.89266967773438 154.56326293945312 108.68496704101562 123.90755462646484 120.3169174194336" stroke-width="2" fill="none" stroke="rgb(0, 0, 0)" stroke-opacity="1.0" stroke-linecap="round" stroke-linejoin="round"/>
    <path d="M 122.36421203613281 102.0873794555664 C 153.3633575439453 110.80216217041016 126.27168273925781 86.25565338134766 165.98834228515625 102.85064697265625" stroke-width="2" fill="none" stroke="rgb(0, 0, 0)" stroke-opacity="1.0" stroke-linecap="round" stroke-linejoin="round"/>
    <path d="M 164.9149627685547 87.17666625976562 C 200.15676879882812 30.675386428833008 173.12979125976562 121.92387390136719 174.1964874267578 86.08576202392578" stroke-width="2" fill="none" stroke="rgb(0, 0, 0)" stroke-opacity="1.0" stroke-linecap="round" stroke-linejoin="round"/>
    <path d="M 73.56586456298828 132.34605407714844 C 200.031005859375 182.16656494140625 186.14988708496094 69.62557983398438 112.5506591796875 83.2726058959961" stroke-width="2" fill="none" stroke="rgb(0, 0, 0)" stroke-opacity="1.0" stroke-linecap="round" stroke-linejoin="round"/>
    <path d="M 68.14307403564453 116.9203872680664 C 105.50060272216797 136.9322509765625 92.7759780883789 128.36428833007812 84.5317611694336 124.39019012451172" stroke-width="2" fill="none" stroke="rgb(0, 0, 0)" stroke-opacity="1.0" stroke-linecap="round" stroke-linejoin="round"/>
    <path d="M 91.09661865234375 120.88919067382812 C 205.5982666015625 163.47779846191406 54.95844650268555 107.60405731201172 164.822998046875 117.39019012451172" stroke-width="2" fill="none" stroke="rgb(0, 0, 0)" stroke-opacity="1.0" stroke-linecap="round" stroke-linejoin="round"/>
    <path d="M 152.9258270263672 117.860107421875 C 116.70430755615234 116.30197143554688 147.1546630859375 119.12399291992188 132.78623962402344 100.16053771972656" stroke-width="2" fill="none" stroke="rgb(0, 0, 0)" stroke-opacity="1.0" stroke-linecap="round" stroke-linejoin="round"/>
    <path d="M 105.01813507080078 108.20661926269531 C 86.62572479248047 46.381072998046875 139.0423126220703 109.11482238769531 104.26136779785156 69.13983917236328" stroke-width="2" fill="none" stroke="rgb(0, 0, 0)" stroke-opacity="1.0" stroke-linecap="round" stroke-linejoin="round"/>
    <path d="M 82.53280639648438 120.46015167236328 C 17.503110885620117 117.13585662841797 105.84100341796875 125.8531494140625 80.70751953125 115.8147201538086" stroke-width="2" fill="none" stroke="rgb(0, 0, 0)" stroke-opacity="1.0" stroke-linecap="round" stroke-linejoin="round"/>
  </g>
</svg>
