<?xml version="1.0" ?>
<svg xmlns="http://www.w3.org/2000/svg" version="1.1" width="224" height="224">
  <defs/>
  <g>
    <path d="M 93.35767364501953 80.5694808959961 C 103.63592529296875 128.88119506835938 41.617679595947266 70.60261535644531 52.61386489868164 113.57039642333984" stroke-width="2" fill="none" stroke="rgb(0, 0, 0)" stroke-opacity="1.0" stroke-linecap="round" stroke-linejoin="round"/>
    <path d="M 147.3271484375 128.4413604736328 C 178.0956573486328 114.62910461425781 208.60183715820312 186.36428833007812 64.78453063964844 132.49635314941406" stroke-width="2" fill="none" stroke="rgb(0, 0, 0)" stroke-opacity="1.0" stroke-linecap="round" stroke-linejoin="round"/>
    <path d="M 106.13288879394531 110.48295593261719 C 150.55421447753906 91.42156219482422 72.55013275146484 132.62249755859375 165.55335998535156 132.21237182617188" stroke-width="2" fill="none" stroke="rgb(0, 0, 0)" stroke-opacity="1.0" stroke-linecap="round" stroke-linejoin="round"/>
    <path d="M 123.45125579833984 118.65128326416016 C 205.589111328125 141.86256408691406 133.9114990234375 118.3123779296875 161.23239135742188 127.650390625" stroke-width="2" fill="none" stroke="rgb(0, 0, 0)" stroke-opacity="1.0" stroke-linecap="round" stroke-linejoin="round"/>
    <path d="M 127.48270416259766 143.700927734375 C 197.61083984375 137.1033172607422 119.90055847167969 141.44821166992188 171.90576171875 126.27506256103516" stroke-width="2" fill="none" stroke="rgb(0, 0, 0)" stroke-opacity="1.0" stroke-linecap="round" stroke-linejoin="round"/>
    <path d="M 153.8120880126953 131.7605438232422 C 184.99835205078125 109.17053985595703 130.237060546875 93.803466796875 161.22169494628906 104.52347564697266" stroke-width="2" fill="none" stroke="rgb(0, 0, 0)" stroke-opacity="1.0" stroke-linecap="round" stroke-linejoin="round"/>
    <path d="M 54.334991455078125 111.73308563232422 C 4.541913032531738 167.92056274414062 182.44493103027344 153.70010375976562 157.80226135253906 150.375" stroke-width="2" fill="none" stroke="rgb(0, 0, 0)" stroke-opacity="1.0" stroke-linecap="round" stroke-linejoin="round"/>
    <path d="M 162.80055236816406 107.8709945678711 C 90.06954956054688 120.75440216064453 178.8474578857422 99.11956787109375 141.97479248046875 111.69247436523438" stroke-width="2" fill="none" stroke="rgb(0, 0, 0)" stroke-opacity="1.0" stroke-linecap="round" stroke-linejoin="round"/>
    <path d="M 132.7449493408203 107.52937316894531 C 230.85018920898438 144.8204803466797 115.68580627441406 167.3480224609375 92.25172424316406 116.20646667480469" stroke-width="2" fill="none" stroke="rgb(0, 0, 0)" stroke-opacity="1.0" stroke-linecap="round" stroke-linejoin="round"/>
    <path d="M 175.51092529296875 87.54264068603516 C 194.99305725097656 23.126615524291992 167.066162109375 98.92070007324219 148.74435424804688 78.29722595214844" stroke-width="2" fill="none" stroke="rgb(0, 0, 0)" stroke-opacity="1.0" stroke-linecap="round" stroke-linejoin="round"/>
    <path d="M 123.16424560546875 121.92146301269531 C 170.72994995117188 133.9108123779297 170.45147705078125 64.2610092163086 130.29718017578125 82.0655517578125" stroke-width="2" fill="none" stroke="rgb(0, 0, 0)" stroke-opacity="1.0" stroke-linecap="round" stroke-linejoin="round"/>
    <path d="M 57.85722351074219 96.29335021972656 C 170.96319580078125 109.99703216552734 63.92500305175781 116.18901824951172 112.37715148925781 113.86408996582031" stroke-width="2" fill="none" stroke="rgb(0, 0, 0)" stroke-opacity="1.0" stroke-linecap="round" stroke-linejoin="round"/>
    <path d="M 124.26788330078125 125.17107391357422 C 150.74911499023438 126.11592102050781 66.2237319946289 113.45819854736328 148.48826599121094 139.27923583984375" stroke-width="2" fill="none" stroke="rgb(0, 0, 0)" stroke-opacity="1.0" stroke-linecap="round" stroke-linejoin="round"/>
    <path d="M 169.9349365234375 101.86139678955078 C 166.6348876953125 112.85042572021484 162.60958862304688 148.77444458007812 160.8068389892578 118.2928466796875" stroke-width="2" fill="none" stroke="rgb(0, 0, 0)" stroke-opacity="1.0" stroke-linecap="round" stroke-linejoin="round"/>
    <path d="M 95.36256408691406 83.33997344970703 C 102.50911712646484 44.31311798095703 139.9786834716797 105.59371185302734 115.70518493652344 76.58302307128906" stroke-width="2" fill="none" stroke="rgb(0, 0, 0)" stroke-opacity="1.0" stroke-linecap="round" stroke-linejoin="round"/>
    <path d="M 104.79866790771484 126.08840942382812 C 74.3372802734375 77.2859115600586 103.6379165649414 127.21180725097656 118.74540710449219 139.89334106445312" stroke-width="2" fill="none" stroke="rgb(0, 0, 0)" stroke-opacity="1.0" stroke-linecap="round" stroke-linejoin="round"/>
  </g>
</svg>
