<?xml version="1.0" ?>
<svg xmlns="http://www.w3.org/2000/svg" version="1.1" width="224" height="224">
  <defs/>
  <g>
    <path d="M 98.25375366210938 72.0892562866211 C 104.5875473022461 115.3671646118164 63.941585540771484 59.12142562866211 42.09925842285156 132.20053100585938" stroke-width="2" fill="none" stroke="rgb(0, 0, 0)" stroke-opacity="1.0" stroke-linecap="round" stroke-linejoin="round"/>
    <path d="M 153.56683349609375 146.7552490234375 C 198.97030639648438 125.52177429199219 187.993408203125 180.7216339111328 67.38417053222656 134.84259033203125" stroke-width="2" fill="none" stroke="rgb(0, 0, 0)" stroke-opacity="1.0" stroke-linecap="round" stroke-linejoin="round"/>
    <path d="M 49.15437316894531 117.72459411621094 C 76.9964828491211 89.1464614868164 107.16130065917969 133.6394805908203 147.16033935546875 147.02996826171875" stroke-width="2" fill="none" stroke="rgb(0, 0, 0)" stroke-opacity="1.0" stroke-linecap="round" stroke-linejoin="round"/>
    <path d="M 121.95655822753906 106.61795806884766 C 90.60160827636719 113.0865249633789 127.97904205322266 120.13077545166016 90.87471008300781 97.7367172241211" stroke-width="2" fill="none" stroke="rgb(0, 0, 0)" stroke-opacity="1.0" stroke-linecap="round" stroke-linejoin="round"/>
    <path d="M 137.2205810546875 109.87688446044922 C 173.2024383544922 104.83828735351562 104.56636047363281 137.928466796875 135.67791748046875 93.28943634033203" stroke-width="2" fill="none" stroke="rgb(0, 0, 0)" stroke-opacity="1.0" stroke-linecap="round" stroke-linejoin="round"/>
    <path d="M 138.85086059570312 116.81285858154297 C 196.46937561035156 129.06150817871094 128.0104522705078 92.70403289794922 154.0052032470703 119.05937194824219" stroke-width="2" fill="none" stroke="rgb(0, 0, 0)" stroke-opacity="1.0" stroke-linecap="round" stroke-linejoin="round"/>
    <path d="M 43.39009094238281 131.20603942871094 C 36.78031539916992 162.1260223388672 174.1767578125 161.8419952392578 183.01622009277344 152.8054962158203" stroke-width="2" fill="none" stroke="rgb(0, 0, 0)" stroke-opacity="1.0" stroke-linecap="round" stroke-linejoin="round"/>
    <path d="M 97.84673309326172 132.47128295898438 C 79.9457778930664 117.36672973632812 133.43539428710938 147.56466674804688 105.14865112304688 121.0892562866211" stroke-width="2" fill="none" stroke="rgb(0, 0, 0)" stroke-opacity="1.0" stroke-linecap="round" stroke-linejoin="round"/>
    <path d="M 115.03997802734375 152.821044921875 C 222.6201934814453 144.6581573486328 125.35246276855469 165.9110870361328 94.28691101074219 128.95257568359375" stroke-width="2" fill="none" stroke="rgb(0, 0, 0)" stroke-opacity="1.0" stroke-linecap="round" stroke-linejoin="round"/>
    <path d="M 182.35150146484375 97.28955841064453 C 200.32479858398438 27.0714054107666 159.72344970703125 104.09614562988281 168.7482147216797 87.27313232421875" stroke-width="2" fill="none" stroke="rgb(0, 0, 0)" stroke-opacity="1.0" stroke-linecap="round" stroke-linejoin="round"/>
    <path d="M 133.68966674804688 108.24579620361328 C 183.264404296875 131.5367431640625 167.53587341308594 63.0555534362793 124.92491912841797 83.64087677001953" stroke-width="2" fill="none" stroke="rgb(0, 0, 0)" stroke-opacity="1.0" stroke-linecap="round" stroke-linejoin="round"/>
    <path d="M 155.48043823242188 120.71611022949219 C 133.44461059570312 126.9056396484375 34.700992584228516 87.16017150878906 50.37285232543945 122.02536010742188" stroke-width="2" fill="none" stroke="rgb(0, 0, 0)" stroke-opacity="1.0" stroke-linecap="round" stroke-linejoin="round"/>
    <path d="M 160.17987060546875 130.45401000976562 C 171.41746520996094 67.2989501953125 174.8846435546875 116.34140014648438 173.6747589111328 100.16239929199219" stroke-width="2" fill="none" stroke="rgb(0, 0, 0)" stroke-opacity="1.0" stroke-linecap="round" stroke-linejoin="round"/>
    <path d="M 146.4551544189453 120.69971466064453 C 180.66580200195312 105.44242858886719 106.59019470214844 116.57549285888672 146.00506591796875 105.76517486572266" stroke-width="2" fill="none" stroke="rgb(0, 0, 0)" stroke-opacity="1.0" stroke-linecap="round" stroke-linejoin="round"/>
    <path d="M 104.26122283935547 73.21742248535156 C 129.42185974121094 50.509464263916016 108.53902435302734 88.5999526977539 170.5644073486328 83.09248352050781" stroke-width="2" fill="none" stroke="rgb(0, 0, 0)" stroke-opacity="1.0" stroke-linecap="round" stroke-linejoin="round"/>
    <path d="M 79.24211883544922 121.72644805908203 C 23.912527084350586 104.01296997070312 55.4010124206543 127.69091796875 174.4951934814453 139.9508514404297" stroke-width="2" fill="none" stroke="rgb(0, 0, 0)" stroke-opacity="1.0" stroke-linecap="round" stroke-linejoin="round"/>
  </g>
</svg>
