<?xml version="1.0" ?>
<svg xmlns="http://www.w3.org/2000/svg" version="1.1" width="224" height="224">
  <defs/>
  <g>
    <path d="M 106.66670227050781 65.92518615722656 C 127.60541534423828 114.99996948242188 60.39142990112305 64.96544647216797 49.91278076171875 120.3936996459961" stroke-width="2" fill="none" stroke="rgb(0, 0, 0)" stroke-opacity="1.0" stroke-linecap="round" stroke-linejoin="round"/>
    <path d="M 135.66656494140625 105.24073028564453 C 172.57435607910156 103.39005279541016 191.8916015625 166.0168914794922 70.82771301269531 144.267333984375" stroke-width="2" fill="none" stroke="rgb(0, 0, 0)" stroke-opacity="1.0" stroke-linecap="round" stroke-linejoin="round"/>
    <path d="M 93.64486694335938 95.22096252441406 C 111.76383209228516 74.4205551147461 50.49702453613281 128.8339385986328 179.30291748046875 133.2097625732422" stroke-width="2" fill="none" stroke="rgb(0, 0, 0)" stroke-opacity="1.0" stroke-linecap="round" stroke-linejoin="round"/>
    <path d="M 124.07955932617188 125.50601959228516 C 188.52206420898438 82.9530258178711 103.25587463378906 116.71318817138672 156.69610595703125 124.23612976074219" stroke-width="2" fill="none" stroke="rgb(0, 0, 0)" stroke-opacity="1.0" stroke-linecap="round" stroke-linejoin="round"/>
    <path d="M 112.13783264160156 107.69918823242188 C 187.18341064453125 121.79985046386719 59.16512680053711 104.89456176757812 150.47409057617188 105.56708526611328" stroke-width="2" fill="none" stroke="rgb(0, 0, 0)" stroke-opacity="1.0" stroke-linecap="round" stroke-linejoin="round"/>
    <path d="M 131.73110961914062 107.5249252319336 C 185.6038818359375 118.49795532226562 141.85690307617188 88.11170196533203 163.16748046875 97.71741485595703" stroke-width="2" fill="none" stroke="rgb(0, 0, 0)" stroke-opacity="1.0" stroke-linecap="round" stroke-linejoin="round"/>
    <path d="M 43.44660568237305 120.92481231689453 C -2.1756911277770996 163.90447998046875 193.31399536132812 160.09458923339844 182.12649536132812 134.859375" stroke-width="2" fill="none" stroke="rgb(0, 0, 0)" stroke-opacity="1.0" stroke-linecap="round" stroke-linejoin="round"/>
    <path d="M 159.77554321289062 100.46826934814453 C 84.1596450805664 98.70356750488281 166.79408264160156 113.52745056152344 120.90925598144531 118.94710540771484" stroke-width="2" fill="none" stroke="rgb(0, 0, 0)" stroke-opacity="1.0" stroke-linecap="round" stroke-linejoin="round"/>
    <path d="M 116.66950225830078 119.72223663330078 C 234.59742736816406 113.5578384399414 115.17101287841797 137.48887634277344 88.22008514404297 116.76376342773438" stroke-width="2" fill="none" stroke="rgb(0, 0, 0)" stroke-opacity="1.0" stroke-linecap="round" stroke-linejoin="round"/>
    <path d="M 174.9821319580078 85.70057678222656 C 181.551513671875 25.00790786743164 163.41053771972656 89.73403930664062 158.84986877441406 84.48627471923828" stroke-width="2" fill="none" stroke="rgb(0, 0, 0)" stroke-opacity="1.0" stroke-linecap="round" stroke-linejoin="round"/>
    <path d="M 171.5421600341797 101.9571533203125 C 181.18527221679688 139.25631713867188 173.06065368652344 66.8270492553711 135.46214294433594 86.28191375732422" stroke-width="2" fill="none" stroke="rgb(0, 0, 0)" stroke-opacity="1.0" stroke-linecap="round" stroke-linejoin="round"/>
    <path d="M 71.67595672607422 121.34414672851562 C 144.253662109375 133.9136199951172 47.92837142944336 82.26827239990234 46.92543411254883 127.69942474365234" stroke-width="2" fill="none" stroke="rgb(0, 0, 0)" stroke-opacity="1.0" stroke-linecap="round" stroke-linejoin="round"/>
    <path d="M 129.19256591796875 96.2205810546875 C 168.7217254638672 98.41423034667969 103.04431915283203 104.26311492919922 136.63504028320312 111.9346923828125" stroke-width="2" fill="none" stroke="rgb(0, 0, 0)" stroke-opacity="1.0" stroke-linecap="round" stroke-linejoin="round"/>
    <path d="M 177.77015686035156 69.80949401855469 C 190.5477752685547 114.18788146972656 156.33338928222656 112.03251647949219 165.39974975585938 123.31199645996094" stroke-width="2" fill="none" stroke="rgb(0, 0, 0)" stroke-opacity="1.0" stroke-linecap="round" stroke-linejoin="round"/>
    <path d="M 98.6897964477539 96.33743286132812 C 116.94232177734375 58.88215255737305 129.16539001464844 93.78519439697266 146.6895751953125 83.67012786865234" stroke-width="2" fill="none" stroke="rgb(0, 0, 0)" stroke-opacity="1.0" stroke-linecap="round" stroke-linejoin="round"/>
    <path d="M 115.59384155273438 139.34507751464844 C 59.967681884765625 102.89122009277344 84.08202362060547 141.4199676513672 157.36367797851562 138.84463500976562" stroke-width="2" fill="none" stroke="rgb(0, 0, 0)" stroke-opacity="1.0" stroke-linecap="round" stroke-linejoin="round"/>
  </g>
</svg>
