<?xml version="1.0" ?>
<svg xmlns="http://www.w3.org/2000/svg" version="1.1" width="224" height="224">
  <defs/>
  <g>
    <path d="M 111.36547088623047 70.1019058227539 C 135.1616668701172 135.9410858154297 59.764137268066406 79.64720916748047 48.6491813659668 114.01700592041016" stroke-width="2" fill="none" stroke="rgb(0, 0, 0)" stroke-opacity="1.0" stroke-linecap="round" stroke-linejoin="round"/>
    <path d="M 164.43032836914062 142.58578491210938 C 205.45176696777344 129.98854064941406 174.1924591064453 173.96266174316406 59.56085968017578 148.89637756347656" stroke-width="2" fill="none" stroke="rgb(0, 0, 0)" stroke-opacity="1.0" stroke-linecap="round" stroke-linejoin="round"/>
    <path d="M 138.4127960205078 126.82571411132812 C 217.6276397705078 120.13016510009766 152.88876342773438 119.84217834472656 178.94769287109375 87.6982421875" stroke-width="2" fill="none" stroke="rgb(0, 0, 0)" stroke-opacity="1.0" stroke-linecap="round" stroke-linejoin="round"/>
    <path d="M 165.6426239013672 135.20748901367188 C 190.63943481445312 165.80677795410156 185.3326416015625 67.03531646728516 164.4982452392578 90.6954574584961" stroke-width="2" fill="none" stroke="rgb(0, 0, 0)" stroke-opacity="1.0" stroke-linecap="round" stroke-linejoin="round"/>
    <path d="M 132.22930908203125 148.99050903320312 C 247.5177459716797 139.27647399902344 84.58675384521484 158.2898712158203 77.1891098022461 147.08413696289062" stroke-width="2" fill="none" stroke="rgb(0, 0, 0)" stroke-opacity="1.0" stroke-linecap="round" stroke-linejoin="round"/>
    <path d="M 149.9937744140625 106.15363311767578 C 193.1822052001953 88.82899475097656 162.2818603515625 127.68230438232422 170.7189178466797 99.02179718017578" stroke-width="2" fill="none" stroke="rgb(0, 0, 0)" stroke-opacity="1.0" stroke-linecap="round" stroke-linejoin="round"/>
    <path d="M 60.607486724853516 102.3883285522461 C -12.034871101379395 167.87628173828125 178.9632568359375 157.4946746826172 138.47390747070312 155.14105224609375" stroke-width="2" fill="none" stroke="rgb(0, 0, 0)" stroke-opacity="1.0" stroke-linecap="round" stroke-linejoin="round"/>
    <path d="M 154.68421936035156 111.8698959350586 C 87.52669525146484 123.73991394042969 164.91453552246094 107.4693603515625 127.15841674804688 112.82032775878906" stroke-width="2" fill="none" stroke="rgb(0, 0, 0)" stroke-opacity="1.0" stroke-linecap="round" stroke-linejoin="round"/>
    <path d="M 120.35806274414062 104.24629211425781 C 148.35543823242188 110.90115356445312 122.1313705444336 88.59203338623047 168.41354370117188 111.4532699584961" stroke-width="2" fill="none" stroke="rgb(0, 0, 0)" stroke-opacity="1.0" stroke-linecap="round" stroke-linejoin="round"/>
    <path d="M 166.55593872070312 82.28978729248047 C 209.9537811279297 25.23115348815918 181.92543029785156 117.4307861328125 158.2483367919922 101.5030517578125" stroke-width="2" fill="none" stroke="rgb(0, 0, 0)" stroke-opacity="1.0" stroke-linecap="round" stroke-linejoin="round"/>
    <path d="M 87.40831756591797 117.922607421875 C 195.8426055908203 182.6389923095703 183.46755981445312 61.71952819824219 133.1198272705078 88.83932495117188" stroke-width="2" fill="none" stroke="rgb(0, 0, 0)" stroke-opacity="1.0" stroke-linecap="round" stroke-linejoin="round"/>
    <path d="M 47.12577438354492 134.9629669189453 C 140.69615173339844 158.47279357910156 142.24896240234375 150.87562561035156 86.80744171142578 131.51272583007812" stroke-width="2" fill="none" stroke="rgb(0, 0, 0)" stroke-opacity="1.0" stroke-linecap="round" stroke-linejoin="round"/>
    <path d="M 84.1026611328125 137.0751953125 C 238.4561767578125 150.5419921875 85.70755004882812 117.20230102539062 158.56895446777344 123.75434875488281" stroke-width="2" fill="none" stroke="rgb(0, 0, 0)" stroke-opacity="1.0" stroke-linecap="round" stroke-linejoin="round"/>
    <path d="M 165.72386169433594 113.91093444824219 C 129.76271057128906 112.05899047851562 160.4427947998047 110.14447784423828 147.0061492919922 98.4398193359375" stroke-width="2" fill="none" stroke="rgb(0, 0, 0)" stroke-opacity="1.0" stroke-linecap="round" stroke-linejoin="round"/>
    <path d="M 108.70149993896484 125.66259765625 C 104.09140014648438 50.634132385253906 162.92335510253906 106.44483184814453 115.09941101074219 78.04808807373047" stroke-width="2" fill="none" stroke="rgb(0, 0, 0)" stroke-opacity="1.0" stroke-linecap="round" stroke-linejoin="round"/>
    <path d="M 77.29151153564453 100.48200988769531 C 8.217966079711914 109.11133575439453 98.38208770751953 121.40467071533203 58.952857971191406 121.02433776855469" stroke-width="2" fill="none" stroke="rgb(0, 0, 0)" stroke-opacity="1.0" stroke-linecap="round" stroke-linejoin="round"/>
  </g>
</svg>
