<?xml version="1.0" ?>
<svg xmlns="http://www.w3.org/2000/svg" version="1.1" width="224" height="224">
  <defs/>
  <g>
    <path d="M 120.29376220703125 83.49632263183594 C 99.71267700195312 147.20994567871094 78.28244018554688 79.63990020751953 51.11078643798828 119.5063247680664" stroke-width="2" fill="none" stroke="rgb(0, 0, 0)" stroke-opacity="1.0" stroke-linecap="round" stroke-linejoin="round"/>
    <path d="M 141.95773315429688 111.8544692993164 C 193.36080932617188 125.2533950805664 214.63409423828125 184.6982879638672 53.47737503051758 140.80429077148438" stroke-width="2" fill="none" stroke="rgb(0, 0, 0)" stroke-opacity="1.0" stroke-linecap="round" stroke-linejoin="round"/>
    <path d="M 120.63508605957031 107.73236846923828 C 188.4156036376953 122.1810302734375 99.16876983642578 115.53579711914062 167.06668090820312 115.33721923828125" stroke-width="2" fill="none" stroke="rgb(0, 0, 0)" stroke-opacity="1.0" stroke-linecap="round" stroke-linejoin="round"/>
    <path d="M 147.2294464111328 128.51914978027344 C 210.22509765625 152.58087158203125 154.05455017089844 71.92774200439453 183.6907501220703 102.05204772949219" stroke-width="2" fill="none" stroke="rgb(0, 0, 0)" stroke-opacity="1.0" stroke-linecap="round" stroke-linejoin="round"/>
    <path d="M 110.26148986816406 137.45986938476562 C 120.54584503173828 143.75318908691406 57.76970291137695 137.5349884033203 123.80506896972656 147.82040405273438" stroke-width="2" fill="none" stroke="rgb(0, 0, 0)" stroke-opacity="1.0" stroke-linecap="round" stroke-linejoin="round"/>
    <path d="M 155.77377319335938 111.2860336303711 C 195.97413635253906 117.22205352783203 117.4574966430664 115.93189239501953 144.81004333496094 107.19590759277344" stroke-width="2" fill="none" stroke="rgb(0, 0, 0)" stroke-opacity="1.0" stroke-linecap="round" stroke-linejoin="round"/>
    <path d="M 57.493865966796875 115.44989776611328 C -9.005752563476562 167.34890747070312 186.86514282226562 145.37445068359375 156.97604370117188 154.85211181640625" stroke-width="2" fill="none" stroke="rgb(0, 0, 0)" stroke-opacity="1.0" stroke-linecap="round" stroke-linejoin="round"/>
    <path d="M 164.4088134765625 134.1741180419922 C 81.6799545288086 128.3352813720703 143.41323852539062 114.102294921875 125.66004943847656 123.71287536621094" stroke-width="2" fill="none" stroke="rgb(0, 0, 0)" stroke-opacity="1.0" stroke-linecap="round" stroke-linejoin="round"/>
    <path d="M 140.5313262939453 135.08334350585938 C 206.40518188476562 138.20262145996094 89.8788833618164 157.9104461669922 124.04637145996094 109.82235717773438" stroke-width="2" fill="none" stroke="rgb(0, 0, 0)" stroke-opacity="1.0" stroke-linecap="round" stroke-linejoin="round"/>
    <path d="M 176.6439208984375 115.18636322021484 C 203.84461975097656 26.184289932250977 159.7001953125 95.38908386230469 175.75247192382812 76.67005157470703" stroke-width="2" fill="none" stroke="rgb(0, 0, 0)" stroke-opacity="1.0" stroke-linecap="round" stroke-linejoin="round"/>
    <path d="M 135.42295837402344 121.7636947631836 C 184.61392211914062 147.4178009033203 181.8894500732422 52.00678634643555 143.65704345703125 86.82415008544922" stroke-width="2" fill="none" stroke="rgb(0, 0, 0)" stroke-opacity="1.0" stroke-linecap="round" stroke-linejoin="round"/>
    <path d="M 56.3292121887207 107.47769165039062 C 161.7864227294922 92.17320251464844 90.73639678955078 99.17632293701172 118.64472198486328 125.1061782836914" stroke-width="2" fill="none" stroke="rgb(0, 0, 0)" stroke-opacity="1.0" stroke-linecap="round" stroke-linejoin="round"/>
    <path d="M 97.08991241455078 132.5288848876953 C 118.68697357177734 142.24359130859375 36.434349060058594 118.66566467285156 124.60526275634766 144.76930236816406" stroke-width="2" fill="none" stroke="rgb(0, 0, 0)" stroke-opacity="1.0" stroke-linecap="round" stroke-linejoin="round"/>
    <path d="M 138.48532104492188 121.89185333251953 C 167.7235107421875 100.57520294189453 168.53237915039062 124.82462310791016 147.5983428955078 110.41654205322266" stroke-width="2" fill="none" stroke="rgb(0, 0, 0)" stroke-opacity="1.0" stroke-linecap="round" stroke-linejoin="round"/>
    <path d="M 119.34036254882812 86.15933990478516 C 100.4791030883789 40.9440803527832 146.08934020996094 90.69160461425781 124.79399108886719 78.06804656982422" stroke-width="2" fill="none" stroke="rgb(0, 0, 0)" stroke-opacity="1.0" stroke-linecap="round" stroke-linejoin="round"/>
    <path d="M 51.4688835144043 113.2585678100586 C 70.0196762084961 74.37590026855469 115.15794372558594 114.29138946533203 134.37173461914062 130.77154541015625" stroke-width="2" fill="none" stroke="rgb(0, 0, 0)" stroke-opacity="1.0" stroke-linecap="round" stroke-linejoin="round"/>
  </g>
</svg>
