<?xml version="1.0" ?>
<svg xmlns="http://www.w3.org/2000/svg" version="1.1" width="224" height="224">
  <defs/>
  <g>
    <path d="M 90.54817199707031 73.36807250976562 C 99.19363403320312 130.73934936523438 49.52558898925781 71.11454772949219 39.87171936035156 119.64190673828125" stroke-width="2" fill="none" stroke="rgb(0, 0, 0)" stroke-opacity="1.0" stroke-linecap="round" stroke-linejoin="round"/>
    <path d="M 156.60894775390625 121.36711883544922 C 175.62745666503906 107.52791595458984 202.70672607421875 193.9469757080078 60.259613037109375 133.46759033203125" stroke-width="2" fill="none" stroke="rgb(0, 0, 0)" stroke-opacity="1.0" stroke-linecap="round" stroke-linejoin="round"/>
    <path d="M 111.80146026611328 113.19046020507812 C 143.23739624023438 93.27629852294922 64.67911529541016 144.39674377441406 148.57479858398438 145.11228942871094" stroke-width="2" fill="none" stroke="rgb(0, 0, 0)" stroke-opacity="1.0" stroke-linecap="round" stroke-linejoin="round"/>
    <path d="M 112.6614761352539 123.49030303955078 C 197.29541015625 139.28025817871094 136.5804901123047 127.6942138671875 162.92422485351562 113.26103210449219" stroke-width="2" fill="none" stroke="rgb(0, 0, 0)" stroke-opacity="1.0" stroke-linecap="round" stroke-linejoin="round"/>
    <path d="M 131.03187561035156 129.98292541503906 C 188.64146423339844 124.23957824707031 93.59284210205078 124.9655990600586 168.07032775878906 127.91212463378906" stroke-width="2" fill="none" stroke="rgb(0, 0, 0)" stroke-opacity="1.0" stroke-linecap="round" stroke-linejoin="round"/>
    <path d="M 160.76856994628906 121.38274383544922 C 189.02943420410156 123.51628112792969 135.4376678466797 101.79339599609375 168.80738830566406 97.2392349243164" stroke-width="2" fill="none" stroke="rgb(0, 0, 0)" stroke-opacity="1.0" stroke-linecap="round" stroke-linejoin="round"/>
    <path d="M 52.779022216796875 114.26676177978516 C 1.4533671140670776 169.70755004882812 184.2481689453125 157.20664978027344 166.79779052734375 150.80641174316406" stroke-width="2" fill="none" stroke="rgb(0, 0, 0)" stroke-opacity="1.0" stroke-linecap="round" stroke-linejoin="round"/>
    <path d="M 161.79928588867188 114.0616683959961 C 93.93143463134766 123.8050765991211 171.41424560546875 103.51448822021484 130.59619140625 111.89124298095703" stroke-width="2" fill="none" stroke="rgb(0, 0, 0)" stroke-opacity="1.0" stroke-linecap="round" stroke-linejoin="round"/>
    <path d="M 136.78480529785156 107.43128204345703 C 226.67906188964844 133.82440185546875 116.02031707763672 157.89605712890625 72.88751983642578 133.17620849609375" stroke-width="2" fill="none" stroke="rgb(0, 0, 0)" stroke-opacity="1.0" stroke-linecap="round" stroke-linejoin="round"/>
    <path d="M 178.97955322265625 89.3278579711914 C 185.241455078125 33.38177490234375 172.39601135253906 97.96493530273438 156.3999786376953 83.36924743652344" stroke-width="2" fill="none" stroke="rgb(0, 0, 0)" stroke-opacity="1.0" stroke-linecap="round" stroke-linejoin="round"/>
    <path d="M 127.05964660644531 131.6683349609375 C 168.8050537109375 141.026123046875 168.0237579345703 69.11979675292969 124.70799255371094 84.49622344970703" stroke-width="2" fill="none" stroke="rgb(0, 0, 0)" stroke-opacity="1.0" stroke-linecap="round" stroke-linejoin="round"/>
    <path d="M 52.70307922363281 104.72534942626953 C 167.8214874267578 137.21693420410156 49.142974853515625 96.77445983886719 96.73818969726562 93.00888061523438" stroke-width="2" fill="none" stroke="rgb(0, 0, 0)" stroke-opacity="1.0" stroke-linecap="round" stroke-linejoin="round"/>
    <path d="M 135.79803466796875 112.31295776367188 C 171.39796447753906 119.83830261230469 103.54095458984375 119.01019287109375 162.3231964111328 127.638916015625" stroke-width="2" fill="none" stroke="rgb(0, 0, 0)" stroke-opacity="1.0" stroke-linecap="round" stroke-linejoin="round"/>
    <path d="M 175.80294799804688 87.62894439697266 C 174.01036071777344 114.44842529296875 154.5143280029297 154.1537628173828 136.3411102294922 136.1750030517578" stroke-width="2" fill="none" stroke="rgb(0, 0, 0)" stroke-opacity="1.0" stroke-linecap="round" stroke-linejoin="round"/>
    <path d="M 99.40702819824219 82.80091857910156 C 103.72687530517578 47.95323944091797 134.24818420410156 103.98466491699219 120.94105529785156 79.90388488769531" stroke-width="2" fill="none" stroke="rgb(0, 0, 0)" stroke-opacity="1.0" stroke-linecap="round" stroke-linejoin="round"/>
    <path d="M 117.48494720458984 130.92564392089844 C 77.02201843261719 75.5386962890625 98.53678131103516 124.16121673583984 114.4599838256836 128.75262451171875" stroke-width="2" fill="none" stroke="rgb(0, 0, 0)" stroke-opacity="1.0" stroke-linecap="round" stroke-linejoin="round"/>
  </g>
</svg>
