<?xml version="1.0" ?>
<svg xmlns="http://www.w3.org/2000/svg" version="1.1" width="224" height="224">
  <defs/>
  <g>
    <path d="M 107.03783416748047 76.36503601074219 C 125.46783447265625 129.5653839111328 66.91360473632812 78.18083190917969 56.25536346435547 122.08560180664062" stroke-width="2" fill="none" stroke="rgb(0, 0, 0)" stroke-opacity="1.0" stroke-linecap="round" stroke-linejoin="round"/>
    <path d="M 150.67027282714844 114.66378784179688 C 175.70338439941406 106.26338958740234 205.0213623046875 163.8905029296875 54.80133819580078 136.00750732421875" stroke-width="2" fill="none" stroke="rgb(0, 0, 0)" stroke-opacity="1.0" stroke-linecap="round" stroke-linejoin="round"/>
    <path d="M 113.18286895751953 88.04497528076172 C 116.99097442626953 72.03468322753906 58.5648078918457 151.54774475097656 159.2494659423828 138.70947265625" stroke-width="2" fill="none" stroke="rgb(0, 0, 0)" stroke-opacity="1.0" stroke-linecap="round" stroke-linejoin="round"/>
    <path d="M 108.91357421875 122.14253234863281 C 169.5583038330078 85.12174987792969 101.42680358886719 114.94100189208984 156.946533203125 133.1411895751953" stroke-width="2" fill="none" stroke="rgb(0, 0, 0)" stroke-opacity="1.0" stroke-linecap="round" stroke-linejoin="round"/>
    <path d="M 111.47991943359375 104.60222625732422 C 176.3548583984375 110.01192474365234 61.884185791015625 107.8773422241211 140.8782958984375 114.40995788574219" stroke-width="2" fill="none" stroke="rgb(0, 0, 0)" stroke-opacity="1.0" stroke-linecap="round" stroke-linejoin="round"/>
    <path d="M 132.6651611328125 110.81291198730469 C 198.1319580078125 109.12387084960938 151.90293884277344 88.13396453857422 167.31155395507812 107.44380187988281" stroke-width="2" fill="none" stroke="rgb(0, 0, 0)" stroke-opacity="1.0" stroke-linecap="round" stroke-linejoin="round"/>
    <path d="M 52.28437805175781 114.86725616455078 C 13.173221588134766 161.31698608398438 200.554931640625 157.86892700195312 167.33023071289062 140.3785400390625" stroke-width="2" fill="none" stroke="rgb(0, 0, 0)" stroke-opacity="1.0" stroke-linecap="round" stroke-linejoin="round"/>
    <path d="M 158.84014892578125 106.27803039550781 C 91.01268005371094 111.219482421875 166.7926483154297 107.29717254638672 124.83731079101562 124.11730194091797" stroke-width="2" fill="none" stroke="rgb(0, 0, 0)" stroke-opacity="1.0" stroke-linecap="round" stroke-linejoin="round"/>
    <path d="M 111.57794189453125 113.5615234375 C 222.3296661376953 123.34568786621094 121.44872283935547 143.65670776367188 96.7388916015625 107.64482116699219" stroke-width="2" fill="none" stroke="rgb(0, 0, 0)" stroke-opacity="1.0" stroke-linecap="round" stroke-linejoin="round"/>
    <path d="M 176.21339416503906 90.33956146240234 C 191.7187957763672 27.591129302978516 167.70242309570312 86.05181884765625 159.43222045898438 78.69710540771484" stroke-width="2" fill="none" stroke="rgb(0, 0, 0)" stroke-opacity="1.0" stroke-linecap="round" stroke-linejoin="round"/>
    <path d="M 153.57716369628906 104.04194641113281 C 172.95523071289062 147.3321075439453 172.0028533935547 59.61350631713867 146.67340087890625 83.1194076538086" stroke-width="2" fill="none" stroke="rgb(0, 0, 0)" stroke-opacity="1.0" stroke-linecap="round" stroke-linejoin="round"/>
    <path d="M 78.3468246459961 112.09614562988281 C 124.97932434082031 142.8203582763672 40.29170608520508 82.68854522705078 45.73450469970703 123.04298400878906" stroke-width="2" fill="none" stroke="rgb(0, 0, 0)" stroke-opacity="1.0" stroke-linecap="round" stroke-linejoin="round"/>
    <path d="M 124.47492980957031 110.54216766357422 C 169.9770965576172 93.40232849121094 114.21405029296875 101.01025390625 133.09547424316406 101.10186767578125" stroke-width="2" fill="none" stroke="rgb(0, 0, 0)" stroke-opacity="1.0" stroke-linecap="round" stroke-linejoin="round"/>
    <path d="M 177.033447265625 82.0698471069336 C 188.22274780273438 110.14326477050781 158.45416259765625 97.62702941894531 171.76609802246094 100.79586029052734" stroke-width="2" fill="none" stroke="rgb(0, 0, 0)" stroke-opacity="1.0" stroke-linecap="round" stroke-linejoin="round"/>
    <path d="M 98.92850494384766 72.31201934814453 C 110.21564483642578 48.233638763427734 116.55908203125 92.4104232788086 142.07337951660156 84.6313705444336" stroke-width="2" fill="none" stroke="rgb(0, 0, 0)" stroke-opacity="1.0" stroke-linecap="round" stroke-linejoin="round"/>
    <path d="M 112.32503509521484 140.29095458984375 C 53.59724426269531 109.15512084960938 95.68559265136719 140.65243530273438 154.05677795410156 143.6324462890625" stroke-width="2" fill="none" stroke="rgb(0, 0, 0)" stroke-opacity="1.0" stroke-linecap="round" stroke-linejoin="round"/>
  </g>
</svg>
