<?xml version="1.0" ?>
<svg xmlns="http://www.w3.org/2000/svg" version="1.1" width="224" height="224">
  <defs/>
  <g>
    <path d="M 107.69129180908203 66.30549621582031 C 150.8108673095703 130.01434326171875 73.40306091308594 65.30683135986328 53.68350601196289 113.33609008789062" stroke-width="2" fill="none" stroke="rgb(0, 0, 0)" stroke-opacity="1.0" stroke-linecap="round" stroke-linejoin="round"/>
    <path d="M 136.7204132080078 135.6279296875 C 215.53451538085938 114.82743835449219 192.74496459960938 185.48846435546875 56.34397506713867 146.26731872558594" stroke-width="2" fill="none" stroke="rgb(0, 0, 0)" stroke-opacity="1.0" stroke-linecap="round" stroke-linejoin="round"/>
    <path d="M 72.37065887451172 131.82081604003906 C 46.85236740112305 99.90151977539062 75.60218048095703 148.1748046875 141.06419372558594 153.2969512939453" stroke-width="2" fill="none" stroke="rgb(0, 0, 0)" stroke-opacity="1.0" stroke-linecap="round" stroke-linejoin="round"/>
    <path d="M 171.0401153564453 83.35035705566406 C 115.5188980102539 85.09893798828125 180.85740661621094 127.88247680664062 123.01740264892578 110.6164779663086" stroke-width="2" fill="none" stroke="rgb(0, 0, 0)" stroke-opacity="1.0" stroke-linecap="round" stroke-linejoin="round"/>
    <path d="M 120.49127960205078 126.1016845703125 C 129.3449249267578 103.1915512084961 96.15509033203125 139.92666625976562 106.85456848144531 72.6405029296875" stroke-width="2" fill="none" stroke="rgb(0, 0, 0)" stroke-opacity="1.0" stroke-linecap="round" stroke-linejoin="round"/>
    <path d="M 124.67085266113281 128.55308532714844 C 194.57313537597656 135.6349639892578 127.4720230102539 138.78750610351562 173.7242431640625 136.2079315185547" stroke-width="2" fill="none" stroke="rgb(0, 0, 0)" stroke-opacity="1.0" stroke-linecap="round" stroke-linejoin="round"/>
    <path d="M 60.705223083496094 108.2445297241211 C -3.539447069168091 176.13873291015625 178.6439208984375 128.5165557861328 180.51608276367188 150.39752197265625" stroke-width="2" fill="none" stroke="rgb(0, 0, 0)" stroke-opacity="1.0" stroke-linecap="round" stroke-linejoin="round"/>
    <path d="M 82.18955993652344 112.09027862548828 C 115.91397857666016 137.6827392578125 176.26254272460938 75.92195892333984 146.13510131835938 124.58251190185547" stroke-width="2" fill="none" stroke="rgb(0, 0, 0)" stroke-opacity="1.0" stroke-linecap="round" stroke-linejoin="round"/>
    <path d="M 141.90061950683594 128.42242431640625 C 168.45103454589844 119.47703552246094 145.80137634277344 154.3067626953125 115.53271484375 133.09608459472656" stroke-width="2" fill="none" stroke="rgb(0, 0, 0)" stroke-opacity="1.0" stroke-linecap="round" stroke-linejoin="round"/>
    <path d="M 184.45713806152344 91.49967956542969 C 194.52227783203125 21.32337188720703 166.37286376953125 95.69853973388672 157.31724548339844 92.38359069824219" stroke-width="2" fill="none" stroke="rgb(0, 0, 0)" stroke-opacity="1.0" stroke-linecap="round" stroke-linejoin="round"/>
    <path d="M 133.07962036132812 104.64817810058594 C 173.8124237060547 145.778076171875 172.37734985351562 77.76482391357422 116.16822052001953 86.79814910888672" stroke-width="2" fill="none" stroke="rgb(0, 0, 0)" stroke-opacity="1.0" stroke-linecap="round" stroke-linejoin="round"/>
    <path d="M 156.0809326171875 155.55746459960938 C 49.42430877685547 162.12896728515625 41.33347702026367 121.5664291381836 82.06195831298828 138.50033569335938" stroke-width="2" fill="none" stroke="rgb(0, 0, 0)" stroke-opacity="1.0" stroke-linecap="round" stroke-linejoin="round"/>
    <path d="M 183.6201629638672 132.92526245117188 C 164.49484252929688 99.65116119384766 184.35166931152344 127.19551086425781 181.90179443359375 91.76846313476562" stroke-width="2" fill="none" stroke="rgb(0, 0, 0)" stroke-opacity="1.0" stroke-linecap="round" stroke-linejoin="round"/>
    <path d="M 137.8459930419922 108.28084564208984 C 166.9488525390625 147.48587036132812 124.73896789550781 95.81414031982422 169.270751953125 114.54452514648438" stroke-width="2" fill="none" stroke="rgb(0, 0, 0)" stroke-opacity="1.0" stroke-linecap="round" stroke-linejoin="round"/>
    <path d="M 115.32958221435547 110.21907806396484 C 114.53715515136719 123.87468719482422 90.64579772949219 103.07772064208984 127.57963562011719 90.01006317138672" stroke-width="2" fill="none" stroke="rgb(0, 0, 0)" stroke-opacity="1.0" stroke-linecap="round" stroke-linejoin="round"/>
    <path d="M 93.48685455322266 120.9876480102539 C 47.81637954711914 91.34706115722656 19.09392738342285 139.28756713867188 102.70002746582031 148.0099334716797" stroke-width="2" fill="none" stroke="rgb(0, 0, 0)" stroke-opacity="1.0" stroke-linecap="round" stroke-linejoin="round"/>
  </g>
</svg>
