<?xml version="1.0" ?>
<svg xmlns="http://www.w3.org/2000/svg" version="1.1" width="224" height="224">
  <defs/>
  <g>
    <path d="M 110.5218734741211 81.49502563476562 C 73.82654571533203 135.92031860351562 97.91651153564453 84.67640686035156 59.35247802734375 104.81343841552734" stroke-width="2" fill="none" stroke="rgb(0, 0, 0)" stroke-opacity="1.0" stroke-linecap="round" stroke-linejoin="round"/>
    <path d="M 141.87860107421875 138.67636108398438 C 205.82041931152344 133.24990844726562 185.08523559570312 195.72608947753906 75.02974700927734 132.42677307128906" stroke-width="2" fill="none" stroke="rgb(0, 0, 0)" stroke-opacity="1.0" stroke-linecap="round" stroke-linejoin="round"/>
    <path d="M 127.61392974853516 115.1148452758789 C 193.39077758789062 107.94903564453125 125.40426635742188 125.24839782714844 162.6375732421875 114.56492614746094" stroke-width="2" fill="none" stroke="rgb(0, 0, 0)" stroke-opacity="1.0" stroke-linecap="round" stroke-linejoin="round"/>
    <path d="M 148.8811492919922 124.51609802246094 C 217.37625122070312 138.76702880859375 141.38771057128906 99.23866271972656 165.87966918945312 97.9397964477539" stroke-width="2" fill="none" stroke="rgb(0, 0, 0)" stroke-opacity="1.0" stroke-linecap="round" stroke-linejoin="round"/>
    <path d="M 68.21404266357422 143.37234497070312 C 214.95701599121094 179.05577087402344 113.76756286621094 136.0047607421875 96.98128509521484 138.58529663085938" stroke-width="2" fill="none" stroke="rgb(0, 0, 0)" stroke-opacity="1.0" stroke-linecap="round" stroke-linejoin="round"/>
    <path d="M 171.71092224121094 118.97948455810547 C 186.83871459960938 107.92787170410156 152.69676208496094 112.24713134765625 173.39584350585938 120.12762451171875" stroke-width="2" fill="none" stroke="rgb(0, 0, 0)" stroke-opacity="1.0" stroke-linecap="round" stroke-linejoin="round"/>
    <path d="M 56.041847229003906 108.01847076416016 C -5.485513210296631 166.17901611328125 181.42599487304688 156.93125915527344 172.1953125 133.03952026367188" stroke-width="2" fill="none" stroke="rgb(0, 0, 0)" stroke-opacity="1.0" stroke-linecap="round" stroke-linejoin="round"/>
    <path d="M 131.14515686035156 135.6161346435547 C 84.25143432617188 137.02407836914062 141.8630828857422 69.19227600097656 108.10841369628906 99.53370666503906" stroke-width="2" fill="none" stroke="rgb(0, 0, 0)" stroke-opacity="1.0" stroke-linecap="round" stroke-linejoin="round"/>
    <path d="M 140.00143432617188 137.4407196044922 C 228.735595703125 134.8417510986328 126.13911437988281 127.38426208496094 159.5623321533203 111.43070220947266" stroke-width="2" fill="none" stroke="rgb(0, 0, 0)" stroke-opacity="1.0" stroke-linecap="round" stroke-linejoin="round"/>
    <path d="M 164.1613006591797 83.98180389404297 C 203.2579345703125 37.267913818359375 163.947021484375 127.26626586914062 180.08444213867188 62.522029876708984" stroke-width="2" fill="none" stroke="rgb(0, 0, 0)" stroke-opacity="1.0" stroke-linecap="round" stroke-linejoin="round"/>
    <path d="M 117.08682250976562 124.46601104736328 C 181.22622680664062 155.8620147705078 200.6215362548828 65.11754608154297 140.88040161132812 82.0477523803711" stroke-width="2" fill="none" stroke="rgb(0, 0, 0)" stroke-opacity="1.0" stroke-linecap="round" stroke-linejoin="round"/>
    <path d="M 52.47654724121094 109.04920196533203 C 144.26341247558594 82.41246032714844 93.240966796875 134.14974975585938 109.29072570800781 107.3707504272461" stroke-width="2" fill="none" stroke="rgb(0, 0, 0)" stroke-opacity="1.0" stroke-linecap="round" stroke-linejoin="round"/>
    <path d="M 80.1111831665039 112.06920623779297 C 150.8165740966797 137.92262268066406 30.087160110473633 115.43644714355469 139.84872436523438 137.2135009765625" stroke-width="2" fill="none" stroke="rgb(0, 0, 0)" stroke-opacity="1.0" stroke-linecap="round" stroke-linejoin="round"/>
    <path d="M 137.60289001464844 124.6417465209961 C 137.3308563232422 98.42666625976562 173.89349365234375 148.7700653076172 146.79457092285156 108.82360076904297" stroke-width="2" fill="none" stroke="rgb(0, 0, 0)" stroke-opacity="1.0" stroke-linecap="round" stroke-linejoin="round"/>
    <path d="M 123.31372833251953 109.7165298461914 C 99.3509521484375 19.98529052734375 154.85372924804688 85.19412231445312 139.4382781982422 85.3143081665039" stroke-width="2" fill="none" stroke="rgb(0, 0, 0)" stroke-opacity="1.0" stroke-linecap="round" stroke-linejoin="round"/>
    <path d="M 53.69667053222656 122.37138366699219 C 54.310359954833984 103.72852325439453 88.93343353271484 116.90206146240234 53.3884391784668 111.62042236328125" stroke-width="2" fill="none" stroke="rgb(0, 0, 0)" stroke-opacity="1.0" stroke-linecap="round" stroke-linejoin="round"/>
  </g>
</svg>
