<?xml version="1.0" ?>
<svg xmlns="http://www.w3.org/2000/svg" version="1.1" width="224" height="224">
  <defs/>
  <g>
    <path d="M 114.94327545166016 85.47335052490234 C 82.54993438720703 115.81727600097656 85.14051055908203 79.81970977783203 51.10943603515625 103.6829833984375" stroke-width="2" fill="none" stroke="rgb(0, 0, 0)" stroke-opacity="1.0" stroke-linecap="round" stroke-linejoin="round"/>
    <path d="M 140.0443572998047 133.69989013671875 C 212.64959716796875 126.84033966064453 186.12625122070312 187.41152954101562 58.03636932373047 140.83448791503906" stroke-width="2" fill="none" stroke="rgb(0, 0, 0)" stroke-opacity="1.0" stroke-linecap="round" stroke-linejoin="round"/>
    <path d="M 128.4598388671875 117.07613372802734 C 205.20394897460938 108.32469177246094 125.38945007324219 126.74654388427734 168.6212615966797 117.46710205078125" stroke-width="2" fill="none" stroke="rgb(0, 0, 0)" stroke-opacity="1.0" stroke-linecap="round" stroke-linejoin="round"/>
    <path d="M 148.99549865722656 125.27320098876953 C 212.8614044189453 140.41343688964844 149.2691650390625 93.74626159667969 170.29624938964844 109.37782287597656" stroke-width="2" fill="none" stroke="rgb(0, 0, 0)" stroke-opacity="1.0" stroke-linecap="round" stroke-linejoin="round"/>
    <path d="M 56.45072937011719 127.04754638671875 C 239.6501922607422 162.2169647216797 126.64556884765625 137.33282470703125 103.3770751953125 128.9911651611328" stroke-width="2" fill="none" stroke="rgb(0, 0, 0)" stroke-opacity="1.0" stroke-linecap="round" stroke-linejoin="round"/>
    <path d="M 154.5062255859375 117.22425842285156 C 193.82371520996094 119.93367004394531 161.8407745361328 111.93384552001953 173.2567138671875 115.39876556396484" stroke-width="2" fill="none" stroke="rgb(0, 0, 0)" stroke-opacity="1.0" stroke-linecap="round" stroke-linejoin="round"/>
    <path d="M 58.19636154174805 102.77659606933594 C -8.503250122070312 169.8868865966797 174.02146911621094 157.5146484375 178.86788940429688 134.3313446044922" stroke-width="2" fill="none" stroke="rgb(0, 0, 0)" stroke-opacity="1.0" stroke-linecap="round" stroke-linejoin="round"/>
    <path d="M 125.96246337890625 133.32485961914062 C 84.03606414794922 130.0988311767578 138.49899291992188 67.80209350585938 111.51543426513672 99.15681457519531" stroke-width="2" fill="none" stroke="rgb(0, 0, 0)" stroke-opacity="1.0" stroke-linecap="round" stroke-linejoin="round"/>
    <path d="M 162.01902770996094 137.86050415039062 C 207.3052215576172 134.312744140625 95.25768280029297 145.66102600097656 150.02000427246094 111.14702606201172" stroke-width="2" fill="none" stroke="rgb(0, 0, 0)" stroke-opacity="1.0" stroke-linecap="round" stroke-linejoin="round"/>
    <path d="M 162.10260009765625 86.76213073730469 C 202.88990783691406 33.68247985839844 164.10621643066406 123.8797378540039 182.26817321777344 82.06197357177734" stroke-width="2" fill="none" stroke="rgb(0, 0, 0)" stroke-opacity="1.0" stroke-linecap="round" stroke-linejoin="round"/>
    <path d="M 110.88819885253906 130.16380310058594 C 176.6915740966797 171.8426971435547 192.6884307861328 69.3996810913086 136.79100036621094 87.67589569091797" stroke-width="2" fill="none" stroke="rgb(0, 0, 0)" stroke-opacity="1.0" stroke-linecap="round" stroke-linejoin="round"/>
    <path d="M 62.037872314453125 105.80352020263672 C 137.18479919433594 77.51275634765625 90.97331237792969 129.34735107421875 94.290771484375 103.56488037109375" stroke-width="2" fill="none" stroke="rgb(0, 0, 0)" stroke-opacity="1.0" stroke-linecap="round" stroke-linejoin="round"/>
    <path d="M 80.16963195800781 100.81037139892578 C 142.20327758789062 126.65147399902344 22.74930191040039 107.65653228759766 141.3539276123047 124.48944854736328" stroke-width="2" fill="none" stroke="rgb(0, 0, 0)" stroke-opacity="1.0" stroke-linecap="round" stroke-linejoin="round"/>
    <path d="M 144.6151580810547 122.7726058959961 C 119.41767883300781 92.1464614868164 176.8968048095703 142.90158081054688 148.40756225585938 113.40888214111328" stroke-width="2" fill="none" stroke="rgb(0, 0, 0)" stroke-opacity="1.0" stroke-linecap="round" stroke-linejoin="round"/>
    <path d="M 115.18470764160156 122.41834259033203 C 104.72784423828125 37.8756217956543 149.88150024414062 102.28690338134766 136.20733642578125 86.71891021728516" stroke-width="2" fill="none" stroke="rgb(0, 0, 0)" stroke-opacity="1.0" stroke-linecap="round" stroke-linejoin="round"/>
    <path d="M 47.511573791503906 127.06025695800781 C 29.39620018005371 112.67436981201172 82.87801361083984 104.894775390625 53.520790100097656 114.60711669921875" stroke-width="2" fill="none" stroke="rgb(0, 0, 0)" stroke-opacity="1.0" stroke-linecap="round" stroke-linejoin="round"/>
  </g>
</svg>
