<?xml version="1.0" ?>
<svg xmlns="http://www.w3.org/2000/svg" version="1.1" width="224" height="224">
  <defs/>
  <g>
    <path d="M 106.33026123046875 72.73793029785156 C 120.99415588378906 121.08464813232422 62.05819320678711 65.40367126464844 41.36116027832031 129.4356231689453" stroke-width="2" fill="none" stroke="rgb(0, 0, 0)" stroke-opacity="1.0" stroke-linecap="round" stroke-linejoin="round"/>
    <path d="M 183.27947998046875 115.3473892211914 C 182.99993896484375 96.23358154296875 192.79559326171875 184.82740783691406 78.32929229736328 137.54815673828125" stroke-width="2" fill="none" stroke="rgb(0, 0, 0)" stroke-opacity="1.0" stroke-linecap="round" stroke-linejoin="round"/>
    <path d="M 56.52676773071289 107.6498794555664 C 108.46153259277344 99.20369720458984 81.68607330322266 129.2306365966797 155.21170043945312 142.9980010986328" stroke-width="2" fill="none" stroke="rgb(0, 0, 0)" stroke-opacity="1.0" stroke-linecap="round" stroke-linejoin="round"/>
    <path d="M 102.27072143554688 94.62705993652344 C 135.59579467773438 54.540958404541016 70.46342468261719 124.27629852294922 122.21282196044922 108.4627456665039" stroke-width="2" fill="none" stroke="rgb(0, 0, 0)" stroke-opacity="1.0" stroke-linecap="round" stroke-linejoin="round"/>
    <path d="M 111.28987121582031 104.50714111328125 C 155.56585693359375 119.38115692138672 101.85989379882812 115.95143127441406 142.88182067871094 122.6392593383789" stroke-width="2" fill="none" stroke="rgb(0, 0, 0)" stroke-opacity="1.0" stroke-linecap="round" stroke-linejoin="round"/>
    <path d="M 113.1441421508789 127.57522583007812 C 204.17208862304688 142.01123046875 147.7073516845703 119.39720153808594 165.65789794921875 109.46656036376953" stroke-width="2" fill="none" stroke="rgb(0, 0, 0)" stroke-opacity="1.0" stroke-linecap="round" stroke-linejoin="round"/>
    <path d="M 41.59680938720703 129.7756805419922 C 20.066600799560547 174.48353576660156 193.7518768310547 164.82965087890625 181.6395263671875 132.0115203857422" stroke-width="2" fill="none" stroke="rgb(0, 0, 0)" stroke-opacity="1.0" stroke-linecap="round" stroke-linejoin="round"/>
    <path d="M 140.15428161621094 107.9891586303711 C 108.89212036132812 109.48453521728516 158.30343627929688 114.32534790039062 130.2559356689453 113.30024719238281" stroke-width="2" fill="none" stroke="rgb(0, 0, 0)" stroke-opacity="1.0" stroke-linecap="round" stroke-linejoin="round"/>
    <path d="M 113.21714782714844 123.84093475341797 C 242.34007263183594 129.52084350585938 124.88615417480469 176.83094787597656 96.76548767089844 114.47999572753906" stroke-width="2" fill="none" stroke="rgb(0, 0, 0)" stroke-opacity="1.0" stroke-linecap="round" stroke-linejoin="round"/>
    <path d="M 182.25253295898438 95.70317840576172 C 187.99002075195312 47.313255310058594 160.04151916503906 100.61570739746094 166.9654998779297 81.60291290283203" stroke-width="2" fill="none" stroke="rgb(0, 0, 0)" stroke-opacity="1.0" stroke-linecap="round" stroke-linejoin="round"/>
    <path d="M 118.92855834960938 128.89462280273438 C 190.57456970214844 141.62054443359375 173.73306274414062 60.76106643676758 143.979736328125 86.47994995117188" stroke-width="2" fill="none" stroke="rgb(0, 0, 0)" stroke-opacity="1.0" stroke-linecap="round" stroke-linejoin="round"/>
    <path d="M 102.80149841308594 106.27125549316406 C 106.78962707519531 148.64215087890625 37.764259338378906 80.14563751220703 47.9133415222168 123.5818862915039" stroke-width="2" fill="none" stroke="rgb(0, 0, 0)" stroke-opacity="1.0" stroke-linecap="round" stroke-linejoin="round"/>
    <path d="M 148.01766967773438 109.55062866210938 C 191.83438110351562 110.99781036376953 155.5144500732422 124.6923599243164 161.49485778808594 109.79012298583984" stroke-width="2" fill="none" stroke="rgb(0, 0, 0)" stroke-opacity="1.0" stroke-linecap="round" stroke-linejoin="round"/>
    <path d="M 185.2649383544922 65.69303131103516 C 193.0494384765625 54.77510452270508 165.8133544921875 104.87496948242188 175.3335723876953 96.12757873535156" stroke-width="2" fill="none" stroke="rgb(0, 0, 0)" stroke-opacity="1.0" stroke-linecap="round" stroke-linejoin="round"/>
    <path d="M 98.73782348632812 75.8577651977539 C 123.42063903808594 56.405540466308594 112.26419067382812 91.21282196044922 137.8490447998047 83.55825805664062" stroke-width="2" fill="none" stroke="rgb(0, 0, 0)" stroke-opacity="1.0" stroke-linecap="round" stroke-linejoin="round"/>
    <path d="M 76.9551010131836 152.9082794189453 C 31.088340759277344 125.61643981933594 42.46644592285156 142.09156799316406 98.02665710449219 154.7030487060547" stroke-width="2" fill="none" stroke="rgb(0, 0, 0)" stroke-opacity="1.0" stroke-linecap="round" stroke-linejoin="round"/>
  </g>
</svg>
