<?xml version="1.0" ?>
<svg xmlns="http://www.w3.org/2000/svg" version="1.1" width="224" height="224">
  <defs/>
  <g>
    <path d="M 112.07111358642578 76.30498504638672 C 164.2324676513672 120.77947998046875 66.06653594970703 74.252685546875 60.200252532958984 116.07566833496094" stroke-width="2" fill="none" stroke="rgb(0, 0, 0)" stroke-opacity="1.0" stroke-linecap="round" stroke-linejoin="round"/>
    <path d="M 138.99583435058594 122.16114044189453 C 193.7667694091797 100.74945068359375 182.43072509765625 177.3973846435547 57.72409439086914 145.1602783203125" stroke-width="2" fill="none" stroke="rgb(0, 0, 0)" stroke-opacity="1.0" stroke-linecap="round" stroke-linejoin="round"/>
    <path d="M 105.23089599609375 135.2042999267578 C 109.02861785888672 122.85063171386719 74.88313293457031 140.03701782226562 163.01744079589844 130.9468536376953" stroke-width="2" fill="none" stroke="rgb(0, 0, 0)" stroke-opacity="1.0" stroke-linecap="round" stroke-linejoin="round"/>
    <path d="M 166.33213806152344 78.901611328125 C 120.79149627685547 84.08507537841797 161.48678588867188 81.62720489501953 132.85360717773438 83.06165313720703" stroke-width="2" fill="none" stroke="rgb(0, 0, 0)" stroke-opacity="1.0" stroke-linecap="round" stroke-linejoin="round"/>
    <path d="M 106.48384094238281 116.2178726196289 C 97.70311737060547 89.85222625732422 128.5357666015625 113.10948181152344 106.25379943847656 71.63243865966797" stroke-width="2" fill="none" stroke="rgb(0, 0, 0)" stroke-opacity="1.0" stroke-linecap="round" stroke-linejoin="round"/>
    <path d="M 112.51862335205078 131.02230834960938 C 141.6973876953125 140.44424438476562 115.12333679199219 126.41988372802734 142.45484924316406 133.68563842773438" stroke-width="2" fill="none" stroke="rgb(0, 0, 0)" stroke-opacity="1.0" stroke-linecap="round" stroke-linejoin="round"/>
    <path d="M 63.0211296081543 101.19462585449219 C 2.0326619148254395 162.3708953857422 133.6637420654297 152.59112548828125 119.28154754638672 161.69615173339844" stroke-width="2" fill="none" stroke="rgb(0, 0, 0)" stroke-opacity="1.0" stroke-linecap="round" stroke-linejoin="round"/>
    <path d="M 61.21937561035156 145.661376953125 C 174.44976806640625 180.34486389160156 197.67214965820312 135.8365478515625 161.8607635498047 145.13043212890625" stroke-width="2" fill="none" stroke="rgb(0, 0, 0)" stroke-opacity="1.0" stroke-linecap="round" stroke-linejoin="round"/>
    <path d="M 126.78057098388672 132.52186584472656 C 154.32913208007812 116.54065704345703 137.5005645751953 101.47109985351562 138.39923095703125 105.58032989501953" stroke-width="2" fill="none" stroke="rgb(0, 0, 0)" stroke-opacity="1.0" stroke-linecap="round" stroke-linejoin="round"/>
    <path d="M 169.60145568847656 102.1950912475586 C 204.205810546875 33.924137115478516 149.82176208496094 100.18712615966797 171.9409942626953 90.76242065429688" stroke-width="2" fill="none" stroke="rgb(0, 0, 0)" stroke-opacity="1.0" stroke-linecap="round" stroke-linejoin="round"/>
    <path d="M 145.12620544433594 118.75853729248047 C 191.70750427246094 135.5873565673828 165.4871368408203 49.90016174316406 121.08956146240234 97.25010681152344" stroke-width="2" fill="none" stroke="rgb(0, 0, 0)" stroke-opacity="1.0" stroke-linecap="round" stroke-linejoin="round"/>
    <path d="M 155.82769775390625 150.7951202392578 C 66.7103042602539 148.05726623535156 78.08445739746094 110.97362518310547 82.91098022460938 129.71554565429688" stroke-width="2" fill="none" stroke="rgb(0, 0, 0)" stroke-opacity="1.0" stroke-linecap="round" stroke-linejoin="round"/>
    <path d="M 158.58433532714844 117.08023834228516 C 123.14749908447266 115.07870483398438 199.3711700439453 109.17623138427734 123.3235092163086 113.38174438476562" stroke-width="2" fill="none" stroke="rgb(0, 0, 0)" stroke-opacity="1.0" stroke-linecap="round" stroke-linejoin="round"/>
    <path d="M 112.18633270263672 134.94419860839844 C 203.6973419189453 155.22535705566406 157.2267303466797 133.75926208496094 177.2748565673828 145.27561950683594" stroke-width="2" fill="none" stroke="rgb(0, 0, 0)" stroke-opacity="1.0" stroke-linecap="round" stroke-linejoin="round"/>
    <path d="M 167.0597381591797 112.68009948730469 C 169.5918731689453 161.26254272460938 113.19779968261719 111.82740783691406 143.92337036132812 87.31623840332031" stroke-width="2" fill="none" stroke="rgb(0, 0, 0)" stroke-opacity="1.0" stroke-linecap="round" stroke-linejoin="round"/>
    <path d="M 100.14154815673828 151.71817016601562 C 56.06293487548828 149.1856231689453 46.697269439697266 120.99132537841797 79.20159149169922 151.22659301757812" stroke-width="2" fill="none" stroke="rgb(0, 0, 0)" stroke-opacity="1.0" stroke-linecap="round" stroke-linejoin="round"/>
  </g>
</svg>
