<?xml version="1.0" ?>
<svg xmlns="http://www.w3.org/2000/svg" version="1.1" width="224" height="224">
  <defs/>
  <g>
    <path d="M 111.26164245605469 81.28533172607422 C 133.0976104736328 126.0436019897461 48.57462692260742 77.99369049072266 49.85843276977539 120.42616271972656" stroke-width="2" fill="none" stroke="rgb(0, 0, 0)" stroke-opacity="1.0" stroke-linecap="round" stroke-linejoin="round"/>
    <path d="M 116.33523559570312 126.66858673095703 C 218.26112365722656 119.4353256225586 160.5092010498047 155.5847625732422 79.11114501953125 128.13511657714844" stroke-width="2" fill="none" stroke="rgb(0, 0, 0)" stroke-opacity="1.0" stroke-linecap="round" stroke-linejoin="round"/>
    <path d="M 120.09835815429688 89.78706359863281 C 120.20524597167969 79.40385437011719 90.78868103027344 135.5145721435547 125.948486328125 143.9276580810547" stroke-width="2" fill="none" stroke="rgb(0, 0, 0)" stroke-opacity="1.0" stroke-linecap="round" stroke-linejoin="round"/>
    <path d="M 149.59706115722656 88.6285171508789 C 189.34783935546875 74.75249481201172 191.8006591796875 104.1983871459961 155.81085205078125 132.33111572265625" stroke-width="2" fill="none" stroke="rgb(0, 0, 0)" stroke-opacity="1.0" stroke-linecap="round" stroke-linejoin="round"/>
    <path d="M 104.7390365600586 68.06006622314453 C 115.1158447265625 102.08287048339844 148.11529541015625 64.73123168945312 152.63429260253906 91.21483612060547" stroke-width="2" fill="none" stroke="rgb(0, 0, 0)" stroke-opacity="1.0" stroke-linecap="round" stroke-linejoin="round"/>
    <path d="M 113.03533172607422 99.17762756347656 C 89.19015502929688 120.27021026611328 55.98758316040039 106.8076400756836 87.97493743896484 122.2230453491211" stroke-width="2" fill="none" stroke="rgb(0, 0, 0)" stroke-opacity="1.0" stroke-linecap="round" stroke-linejoin="round"/>
    <path d="M 44.55276107788086 137.90675354003906 C 45.49541091918945 142.642822265625 81.86016082763672 149.78561401367188 98.74696350097656 150.07655334472656" stroke-width="2" fill="none" stroke="rgb(0, 0, 0)" stroke-opacity="1.0" stroke-linecap="round" stroke-linejoin="round"/>
    <path d="M 71.915283203125 138.64710998535156 C 207.3404541015625 175.22549438476562 189.61862182617188 117.8206558227539 104.30597686767578 105.53266143798828" stroke-width="2" fill="none" stroke="rgb(0, 0, 0)" stroke-opacity="1.0" stroke-linecap="round" stroke-linejoin="round"/>
    <path d="M 121.00577545166016 108.82593536376953 C 136.7551727294922 88.98767852783203 128.13194274902344 116.28720092773438 117.425048828125 100.58341979980469" stroke-width="2" fill="none" stroke="rgb(0, 0, 0)" stroke-opacity="1.0" stroke-linecap="round" stroke-linejoin="round"/>
    <path d="M 180.98448181152344 85.15603637695312 C 192.6396026611328 33.26015090942383 155.27369689941406 97.61063385009766 175.1842803955078 121.84503173828125" stroke-width="2" fill="none" stroke="rgb(0, 0, 0)" stroke-opacity="1.0" stroke-linecap="round" stroke-linejoin="round"/>
    <path d="M 172.375732421875 118.9979476928711 C 184.09164428710938 132.6094207763672 183.06288146972656 158.80368041992188 147.87075805664062 143.8952178955078" stroke-width="2" fill="none" stroke="rgb(0, 0, 0)" stroke-opacity="1.0" stroke-linecap="round" stroke-linejoin="round"/>
    <path d="M 106.83480072021484 150.39871215820312 C 26.918119430541992 156.07066345214844 27.797515869140625 129.9471435546875 42.215576171875 146.6909942626953" stroke-width="2" fill="none" stroke="rgb(0, 0, 0)" stroke-opacity="1.0" stroke-linecap="round" stroke-linejoin="round"/>
    <path d="M 161.88775634765625 111.78241729736328 C 107.7713851928711 99.78841400146484 165.43850708007812 130.34237670898438 122.39107513427734 118.9953384399414" stroke-width="2" fill="none" stroke="rgb(0, 0, 0)" stroke-opacity="1.0" stroke-linecap="round" stroke-linejoin="round"/>
    <path d="M 173.70413208007812 87.04313659667969 C 160.08738708496094 106.96270751953125 152.9485321044922 77.12638092041016 168.00621032714844 97.2890625" stroke-width="2" fill="none" stroke="rgb(0, 0, 0)" stroke-opacity="1.0" stroke-linecap="round" stroke-linejoin="round"/>
    <path d="M 113.19194030761719 98.80338287353516 C 101.2608642578125 126.9248275756836 124.49407958984375 96.94871520996094 109.59381103515625 116.82498931884766" stroke-width="2" fill="none" stroke="rgb(0, 0, 0)" stroke-opacity="1.0" stroke-linecap="round" stroke-linejoin="round"/>
    <path d="M 64.23863983154297 124.320556640625 C 54.30715560913086 97.5333023071289 13.144759178161621 150.55165100097656 92.73800659179688 151.2647705078125" stroke-width="2" fill="none" stroke="rgb(0, 0, 0)" stroke-opacity="1.0" stroke-linecap="round" stroke-linejoin="round"/>
  </g>
</svg>
