<?xml version="1.0" ?>
<svg xmlns="http://www.w3.org/2000/svg" version="1.1" width="224" height="224">
  <defs/>
  <g>
    <path d="M 97.61470031738281 77.03768157958984 C 113.70777893066406 118.18230438232422 66.501220703125 72.61090087890625 40.533538818359375 128.16134643554688" stroke-width="2" fill="none" stroke="rgb(0, 0, 0)" stroke-opacity="1.0" stroke-linecap="round" stroke-linejoin="round"/>
    <path d="M 155.11355590820312 114.6408920288086 C 200.66836547851562 105.14534759521484 190.7235565185547 190.93478393554688 72.21998596191406 122.74559020996094" stroke-width="2" fill="none" stroke="rgb(0, 0, 0)" stroke-opacity="1.0" stroke-linecap="round" stroke-linejoin="round"/>
    <path d="M 83.58255004882812 114.8202133178711 C 94.15587615966797 93.20845794677734 64.5815200805664 142.66815185546875 171.52059936523438 147.9633331298828" stroke-width="2" fill="none" stroke="rgb(0, 0, 0)" stroke-opacity="1.0" stroke-linecap="round" stroke-linejoin="round"/>
    <path d="M 132.5999298095703 130.79957580566406 C 131.80650329589844 113.73426055908203 102.80363464355469 137.92918395996094 106.5777816772461 95.72926330566406" stroke-width="2" fill="none" stroke="rgb(0, 0, 0)" stroke-opacity="1.0" stroke-linecap="round" stroke-linejoin="round"/>
    <path d="M 119.73287200927734 124.7044906616211 C 164.706298828125 115.97420501708984 92.64157104492188 103.45091247558594 126.35163879394531 108.56988525390625" stroke-width="2" fill="none" stroke="rgb(0, 0, 0)" stroke-opacity="1.0" stroke-linecap="round" stroke-linejoin="round"/>
    <path d="M 115.37845611572266 122.12614440917969 C 220.0820770263672 134.0429229736328 159.36769104003906 113.96684265136719 172.00685119628906 129.10768127441406" stroke-width="2" fill="none" stroke="rgb(0, 0, 0)" stroke-opacity="1.0" stroke-linecap="round" stroke-linejoin="round"/>
    <path d="M 40.981773376464844 130.90121459960938 C 26.498361587524414 162.18226623535156 197.28195190429688 174.0271453857422 181.14724731445312 148.84481811523438" stroke-width="2" fill="none" stroke="rgb(0, 0, 0)" stroke-opacity="1.0" stroke-linecap="round" stroke-linejoin="round"/>
    <path d="M 130.32142639160156 105.07622528076172 C 89.24412536621094 110.82752990722656 102.65380859375 147.25538635253906 112.72089385986328 87.0284652709961" stroke-width="2" fill="none" stroke="rgb(0, 0, 0)" stroke-opacity="1.0" stroke-linecap="round" stroke-linejoin="round"/>
    <path d="M 91.82595825195312 149.87399291992188 C 252.70883178710938 151.58692932128906 158.83380126953125 136.65638732910156 99.81260681152344 98.38079071044922" stroke-width="2" fill="none" stroke="rgb(0, 0, 0)" stroke-opacity="1.0" stroke-linecap="round" stroke-linejoin="round"/>
    <path d="M 177.6425018310547 87.06373596191406 C 197.6645965576172 26.505144119262695 163.76446533203125 97.01093292236328 162.84967041015625 79.5689468383789" stroke-width="2" fill="none" stroke="rgb(0, 0, 0)" stroke-opacity="1.0" stroke-linecap="round" stroke-linejoin="round"/>
    <path d="M 143.45501708984375 137.45127868652344 C 195.55406188964844 142.66905212402344 175.195068359375 58.158447265625 143.29156494140625 90.20993041992188" stroke-width="2" fill="none" stroke="rgb(0, 0, 0)" stroke-opacity="1.0" stroke-linecap="round" stroke-linejoin="round"/>
    <path d="M 140.18862915039062 114.47374725341797 C 125.40078735351562 125.23324584960938 53.10378646850586 72.18821716308594 43.674537658691406 126.82745361328125" stroke-width="2" fill="none" stroke="rgb(0, 0, 0)" stroke-opacity="1.0" stroke-linecap="round" stroke-linejoin="round"/>
    <path d="M 146.7992401123047 109.53108978271484 C 180.44732666015625 111.6683120727539 139.1942596435547 117.63867950439453 159.09153747558594 106.0410385131836" stroke-width="2" fill="none" stroke="rgb(0, 0, 0)" stroke-opacity="1.0" stroke-linecap="round" stroke-linejoin="round"/>
    <path d="M 173.34039306640625 94.13934326171875 C 191.75257873535156 88.98002624511719 160.054931640625 125.10907745361328 172.05657958984375 110.3961181640625" stroke-width="2" fill="none" stroke="rgb(0, 0, 0)" stroke-opacity="1.0" stroke-linecap="round" stroke-linejoin="round"/>
    <path d="M 99.17269134521484 72.64225006103516 C 121.81873321533203 62.63770294189453 98.65254211425781 90.58749389648438 137.97645568847656 87.01265716552734" stroke-width="2" fill="none" stroke="rgb(0, 0, 0)" stroke-opacity="1.0" stroke-linecap="round" stroke-linejoin="round"/>
    <path d="M 62.74326705932617 149.90350341796875 C 12.071534156799316 118.39087677001953 50.60822296142578 122.40027618408203 119.4684066772461 153.4447479248047" stroke-width="2" fill="none" stroke="rgb(0, 0, 0)" stroke-opacity="1.0" stroke-linecap="round" stroke-linejoin="round"/>
  </g>
</svg>
