<?xml version="1.0" ?>
<svg xmlns="http://www.w3.org/2000/svg" version="1.1" width="224" height="224">
  <defs/>
  <g>
    <path d="M 97.79306030273438 72.7322006225586 C 106.85511016845703 115.13069152832031 73.2742691040039 90.65570831298828 67.00053405761719 115.63702392578125" stroke-width="2" fill="none" stroke="rgb(0, 0, 0)" stroke-opacity="1.0" stroke-linecap="round" stroke-linejoin="round"/>
    <path d="M 118.78645324707031 142.5781707763672 C 206.60223388671875 141.1082305908203 192.947509765625 169.1354217529297 74.69823455810547 132.84434509277344" stroke-width="2" fill="none" stroke="rgb(0, 0, 0)" stroke-opacity="1.0" stroke-linecap="round" stroke-linejoin="round"/>
    <path d="M 142.6087188720703 98.18263244628906 C 121.65218353271484 77.1391830444336 83.80284118652344 138.68687438964844 161.26963806152344 113.74382019042969" stroke-width="2" fill="none" stroke="rgb(0, 0, 0)" stroke-opacity="1.0" stroke-linecap="round" stroke-linejoin="round"/>
    <path d="M 173.54241943359375 87.28947448730469 C 151.07638549804688 119.44391632080078 187.09750366210938 76.68380737304688 119.04950714111328 82.21631622314453" stroke-width="2" fill="none" stroke="rgb(0, 0, 0)" stroke-opacity="1.0" stroke-linecap="round" stroke-linejoin="round"/>
    <path d="M 104.07976531982422 86.21908569335938 C 74.32661437988281 120.78713989257812 160.69659423828125 100.99879455566406 97.42825317382812 83.70127868652344" stroke-width="2" fill="none" stroke="rgb(0, 0, 0)" stroke-opacity="1.0" stroke-linecap="round" stroke-linejoin="round"/>
    <path d="M 84.17333984375 67.53939819335938 C 146.37371826171875 76.98835754394531 72.67369079589844 140.04632568359375 132.3649139404297 141.1880645751953" stroke-width="2" fill="none" stroke="rgb(0, 0, 0)" stroke-opacity="1.0" stroke-linecap="round" stroke-linejoin="round"/>
    <path d="M 68.98827362060547 104.27379608154297 C -5.089272975921631 165.702392578125 98.32571411132812 181.2067108154297 126.42335510253906 173.4115447998047" stroke-width="2" fill="none" stroke="rgb(0, 0, 0)" stroke-opacity="1.0" stroke-linecap="round" stroke-linejoin="round"/>
    <path d="M 61.269901275634766 150.06080627441406 C 164.7034149169922 183.3457794189453 230.61009216308594 128.95193481445312 133.1149444580078 129.77769470214844" stroke-width="2" fill="none" stroke="rgb(0, 0, 0)" stroke-opacity="1.0" stroke-linecap="round" stroke-linejoin="round"/>
    <path d="M 132.09835815429688 124.63572692871094 C 170.80999755859375 109.5542221069336 113.68267059326172 139.33612060546875 146.16603088378906 120.77226257324219" stroke-width="2" fill="none" stroke="rgb(0, 0, 0)" stroke-opacity="1.0" stroke-linecap="round" stroke-linejoin="round"/>
    <path d="M 178.87550354003906 93.85804748535156 C 201.74220275878906 25.072431564331055 132.62725830078125 104.88027954101562 143.9247589111328 87.89035034179688" stroke-width="2" fill="none" stroke="rgb(0, 0, 0)" stroke-opacity="1.0" stroke-linecap="round" stroke-linejoin="round"/>
    <path d="M 155.30247497558594 135.75782775878906 C 182.833984375 131.92677307128906 165.1127166748047 111.38018798828125 173.37890625 101.81892395019531" stroke-width="2" fill="none" stroke="rgb(0, 0, 0)" stroke-opacity="1.0" stroke-linecap="round" stroke-linejoin="round"/>
    <path d="M 130.22808837890625 139.00469970703125 C 61.97351837158203 157.73403930664062 27.868898391723633 116.61570739746094 65.24762725830078 147.72010803222656" stroke-width="2" fill="none" stroke="rgb(0, 0, 0)" stroke-opacity="1.0" stroke-linecap="round" stroke-linejoin="round"/>
    <path d="M 158.2760009765625 123.27823638916016 C 99.71450805664062 98.34200286865234 197.35289001464844 139.2265625 142.7330322265625 129.95135498046875" stroke-width="2" fill="none" stroke="rgb(0, 0, 0)" stroke-opacity="1.0" stroke-linecap="round" stroke-linejoin="round"/>
    <path d="M 145.5452117919922 106.57595825195312 C 166.91845703125 134.7720947265625 132.51052856445312 151.12261962890625 139.5410919189453 145.0693817138672" stroke-width="2" fill="none" stroke="rgb(0, 0, 0)" stroke-opacity="1.0" stroke-linecap="round" stroke-linejoin="round"/>
    <path d="M 116.42530822753906 111.47447204589844 C 100.27583312988281 156.37979125976562 112.52719116210938 121.1948471069336 88.33045196533203 119.47657012939453" stroke-width="2" fill="none" stroke="rgb(0, 0, 0)" stroke-opacity="1.0" stroke-linecap="round" stroke-linejoin="round"/>
    <path d="M 80.25489044189453 164.30870056152344 C 48.0577392578125 159.14732360839844 10.291807174682617 123.78527069091797 77.30387115478516 146.67266845703125" stroke-width="2" fill="none" stroke="rgb(0, 0, 0)" stroke-opacity="1.0" stroke-linecap="round" stroke-linejoin="round"/>
  </g>
</svg>
