<?xml version="1.0" ?>
<svg xmlns="http://www.w3.org/2000/svg" version="1.1" width="224" height="224">
  <defs/>
  <g>
    <path d="M 98.97056579589844 68.32431030273438 C 96.97566223144531 122.5905990600586 89.39473724365234 81.58489990234375 72.81889343261719 129.0640411376953" stroke-width="2" fill="none" stroke="rgb(0, 0, 0)" stroke-opacity="1.0" stroke-linecap="round" stroke-linejoin="round"/>
    <path d="M 132.0620574951172 125.24433898925781 C 187.17835998535156 119.93618774414062 210.94534301757812 191.00631713867188 61.32490921020508 131.64859008789062" stroke-width="2" fill="none" stroke="rgb(0, 0, 0)" stroke-opacity="1.0" stroke-linecap="round" stroke-linejoin="round"/>
    <path d="M 103.42515563964844 118.98448181152344 C 170.4309539794922 89.13628387451172 96.45989227294922 122.64447784423828 163.02679443359375 128.3587188720703" stroke-width="2" fill="none" stroke="rgb(0, 0, 0)" stroke-opacity="1.0" stroke-linecap="round" stroke-linejoin="round"/>
    <path d="M 117.01517486572266 132.3435821533203 C 210.66336059570312 136.36419677734375 137.5559539794922 114.86190032958984 167.4180145263672 104.32850646972656" stroke-width="2" fill="none" stroke="rgb(0, 0, 0)" stroke-opacity="1.0" stroke-linecap="round" stroke-linejoin="round"/>
    <path d="M 117.1446762084961 135.03077697753906 C 179.5064697265625 145.027099609375 120.49644470214844 153.4774169921875 169.9552459716797 139.64114379882812" stroke-width="2" fill="none" stroke="rgb(0, 0, 0)" stroke-opacity="1.0" stroke-linecap="round" stroke-linejoin="round"/>
    <path d="M 144.57205200195312 116.24166870117188 C 185.63040161132812 111.19255828857422 110.8342514038086 103.62203216552734 162.67662048339844 117.12943267822266" stroke-width="2" fill="none" stroke="rgb(0, 0, 0)" stroke-opacity="1.0" stroke-linecap="round" stroke-linejoin="round"/>
    <path d="M 57.63269805908203 108.49665069580078 C -7.343889236450195 171.8930206298828 179.70904541015625 148.8322296142578 174.33663940429688 147.52145385742188" stroke-width="2" fill="none" stroke="rgb(0, 0, 0)" stroke-opacity="1.0" stroke-linecap="round" stroke-linejoin="round"/>
    <path d="M 165.78672790527344 116.1645278930664 C 76.75009155273438 125.21178436279297 159.0511016845703 100.74446105957031 124.01091003417969 117.19252014160156" stroke-width="2" fill="none" stroke="rgb(0, 0, 0)" stroke-opacity="1.0" stroke-linecap="round" stroke-linejoin="round"/>
    <path d="M 136.3597412109375 126.39271545410156 C 228.4581298828125 149.56637573242188 121.70418548583984 162.8709716796875 108.60406494140625 106.68739318847656" stroke-width="2" fill="none" stroke="rgb(0, 0, 0)" stroke-opacity="1.0" stroke-linecap="round" stroke-linejoin="round"/>
    <path d="M 171.385986328125 85.0756607055664 C 196.0813446044922 14.4873685836792 158.83294677734375 85.06941223144531 163.02467346191406 71.45913696289062" stroke-width="2" fill="none" stroke="rgb(0, 0, 0)" stroke-opacity="1.0" stroke-linecap="round" stroke-linejoin="round"/>
    <path d="M 141.97836303710938 124.61705017089844 C 184.4591827392578 150.00929260253906 177.07595825195312 39.90067672729492 132.87039184570312 85.71417236328125" stroke-width="2" fill="none" stroke="rgb(0, 0, 0)" stroke-opacity="1.0" stroke-linecap="round" stroke-linejoin="round"/>
    <path d="M 64.03585052490234 113.19529724121094 C 163.46861267089844 99.13813781738281 68.33203887939453 129.4813995361328 115.83312225341797 115.3146743774414" stroke-width="2" fill="none" stroke="rgb(0, 0, 0)" stroke-opacity="1.0" stroke-linecap="round" stroke-linejoin="round"/>
    <path d="M 89.17300415039062 129.299072265625 C 124.27590942382812 136.06373596191406 42.85463333129883 117.1749038696289 142.31179809570312 127.06449127197266" stroke-width="2" fill="none" stroke="rgb(0, 0, 0)" stroke-opacity="1.0" stroke-linecap="round" stroke-linejoin="round"/>
    <path d="M 156.99168395996094 127.90461730957031 C 170.70703125 128.94891357421875 168.99459838867188 143.1827392578125 134.07179260253906 130.40966796875" stroke-width="2" fill="none" stroke="rgb(0, 0, 0)" stroke-opacity="1.0" stroke-linecap="round" stroke-linejoin="round"/>
    <path d="M 110.49369049072266 110.89347839355469 C 99.01181030273438 52.93122482299805 131.29595947265625 110.04257202148438 103.30023193359375 71.57746887207031" stroke-width="2" fill="none" stroke="rgb(0, 0, 0)" stroke-opacity="1.0" stroke-linecap="round" stroke-linejoin="round"/>
    <path d="M 75.04943084716797 123.16949462890625 C 76.78102111816406 80.35318756103516 135.39283752441406 115.69954681396484 141.2870635986328 126.11788940429688" stroke-width="2" fill="none" stroke="rgb(0, 0, 0)" stroke-opacity="1.0" stroke-linecap="round" stroke-linejoin="round"/>
  </g>
</svg>
