<?xml version="1.0" ?>
<svg xmlns="http://www.w3.org/2000/svg" version="1.1" width="224" height="224">
  <defs/>
  <g>
    <path d="M 105.56050872802734 74.30668640136719 C 123.21894073486328 124.68074798583984 63.73493957519531 59.378692626953125 49.836517333984375 125.33545684814453" stroke-width="2" fill="none" stroke="rgb(0, 0, 0)" stroke-opacity="1.0" stroke-linecap="round" stroke-linejoin="round"/>
    <path d="M 121.26451873779297 133.42428588867188 C 218.0372314453125 128.06689453125 197.1881561279297 176.04449462890625 57.66699981689453 156.70355224609375" stroke-width="2" fill="none" stroke="rgb(0, 0, 0)" stroke-opacity="1.0" stroke-linecap="round" stroke-linejoin="round"/>
    <path d="M 40.74944305419922 137.65408325195312 C 28.35733985900879 102.7958755493164 72.56769561767578 148.6049041748047 109.08641815185547 150.34568786621094" stroke-width="2" fill="none" stroke="rgb(0, 0, 0)" stroke-opacity="1.0" stroke-linecap="round" stroke-linejoin="round"/>
    <path d="M 160.6127166748047 96.25147247314453 C 100.55170440673828 92.06658172607422 164.8873748779297 125.81981658935547 139.39451599121094 106.90292358398438" stroke-width="2" fill="none" stroke="rgb(0, 0, 0)" stroke-opacity="1.0" stroke-linecap="round" stroke-linejoin="round"/>
    <path d="M 101.81983184814453 97.54722595214844 C 122.9898910522461 109.08963012695312 92.91366577148438 125.51029968261719 129.0418243408203 101.03655242919922" stroke-width="2" fill="none" stroke="rgb(0, 0, 0)" stroke-opacity="1.0" stroke-linecap="round" stroke-linejoin="round"/>
    <path d="M 124.61628723144531 151.3549346923828 C 209.52154541015625 145.371826171875 133.42767333984375 142.814697265625 173.0222625732422 139.98910522460938" stroke-width="2" fill="none" stroke="rgb(0, 0, 0)" stroke-opacity="1.0" stroke-linecap="round" stroke-linejoin="round"/>
    <path d="M 48.84558868408203 104.71656036376953 C 1.3944952487945557 171.0406036376953 197.22235107421875 158.14402770996094 157.22132873535156 154.90992736816406" stroke-width="2" fill="none" stroke="rgb(0, 0, 0)" stroke-opacity="1.0" stroke-linecap="round" stroke-linejoin="round"/>
    <path d="M 86.04844665527344 114.76778411865234 C 100.43070220947266 137.0157928466797 121.93511962890625 103.34512329101562 102.64922332763672 124.90826416015625" stroke-width="2" fill="none" stroke="rgb(0, 0, 0)" stroke-opacity="1.0" stroke-linecap="round" stroke-linejoin="round"/>
    <path d="M 125.57145690917969 122.62696838378906 C 153.70266723632812 110.6540756225586 135.03775024414062 131.69369506835938 111.24716186523438 110.54729461669922" stroke-width="2" fill="none" stroke="rgb(0, 0, 0)" stroke-opacity="1.0" stroke-linecap="round" stroke-linejoin="round"/>
    <path d="M 182.32081604003906 96.78473663330078 C 200.45498657226562 40.774452209472656 168.4196319580078 103.1650390625 160.71022033691406 91.3381118774414" stroke-width="2" fill="none" stroke="rgb(0, 0, 0)" stroke-opacity="1.0" stroke-linecap="round" stroke-linejoin="round"/>
    <path d="M 140.235595703125 111.24596405029297 C 192.28640747070312 124.9331283569336 180.20361328125 87.60660552978516 110.14682006835938 85.52056884765625" stroke-width="2" fill="none" stroke="rgb(0, 0, 0)" stroke-opacity="1.0" stroke-linecap="round" stroke-linejoin="round"/>
    <path d="M 173.27667236328125 157.1963348388672 C 42.172569274902344 160.44029235839844 21.70703125 146.8701171875 88.35368347167969 158.15541076660156" stroke-width="2" fill="none" stroke="rgb(0, 0, 0)" stroke-opacity="1.0" stroke-linecap="round" stroke-linejoin="round"/>
    <path d="M 168.27476501464844 128.76625061035156 C 170.1566925048828 93.38318634033203 173.28863525390625 110.23171997070312 173.79173278808594 98.60559844970703" stroke-width="2" fill="none" stroke="rgb(0, 0, 0)" stroke-opacity="1.0" stroke-linecap="round" stroke-linejoin="round"/>
    <path d="M 161.8140106201172 98.93582916259766 C 179.32754516601562 147.2559356689453 125.85238647460938 120.49908447265625 159.029052734375 118.3043441772461" stroke-width="2" fill="none" stroke="rgb(0, 0, 0)" stroke-opacity="1.0" stroke-linecap="round" stroke-linejoin="round"/>
    <path d="M 105.55195617675781 86.47955322265625 C 141.40859985351562 111.41090393066406 107.6565933227539 81.87077331542969 143.80374145507812 87.99553680419922" stroke-width="2" fill="none" stroke="rgb(0, 0, 0)" stroke-opacity="1.0" stroke-linecap="round" stroke-linejoin="round"/>
    <path d="M 49.84761428833008 138.44541931152344 C 44.17135238647461 96.5644302368164 21.65503692626953 151.85838317871094 94.55149841308594 156.98448181152344" stroke-width="2" fill="none" stroke="rgb(0, 0, 0)" stroke-opacity="1.0" stroke-linecap="round" stroke-linejoin="round"/>
  </g>
</svg>
