<?xml version="1.0" ?>
<svg xmlns="http://www.w3.org/2000/svg" version="1.1" width="224" height="224">
  <defs/>
  <g>
    <path d="M 123.69145965576172 100.27730560302734 C 94.68746185302734 136.60777282714844 72.59615325927734 83.46697235107422 49.83394241333008 107.26869201660156" stroke-width="2" fill="none" stroke="rgb(0, 0, 0)" stroke-opacity="1.0" stroke-linecap="round" stroke-linejoin="round"/>
    <path d="M 140.8614959716797 134.5958709716797 C 200.4687042236328 116.5390853881836 203.60595703125 183.3338165283203 44.277706146240234 138.2781982421875" stroke-width="2" fill="none" stroke="rgb(0, 0, 0)" stroke-opacity="1.0" stroke-linecap="round" stroke-linejoin="round"/>
    <path d="M 137.57162475585938 104.35330200195312 C 212.85366821289062 108.06202697753906 132.37925720214844 130.06224060058594 166.95010375976562 121.40267181396484" stroke-width="2" fill="none" stroke="rgb(0, 0, 0)" stroke-opacity="1.0" stroke-linecap="round" stroke-linejoin="round"/>
    <path d="M 142.03768920898438 115.55086517333984 C 214.79812622070312 131.14894104003906 143.90586853027344 77.97050476074219 184.19412231445312 82.22025299072266" stroke-width="2" fill="none" stroke="rgb(0, 0, 0)" stroke-opacity="1.0" stroke-linecap="round" stroke-linejoin="round"/>
    <path d="M 97.84934997558594 134.71441650390625 C 229.32394409179688 153.92117309570312 115.69950866699219 156.2924346923828 160.58778381347656 151.70518493652344" stroke-width="2" fill="none" stroke="rgb(0, 0, 0)" stroke-opacity="1.0" stroke-linecap="round" stroke-linejoin="round"/>
    <path d="M 178.4328155517578 129.0482940673828 C 182.33815002441406 98.18586730957031 136.70826721191406 98.27854919433594 160.54769897460938 135.19174194335938" stroke-width="2" fill="none" stroke="rgb(0, 0, 0)" stroke-opacity="1.0" stroke-linecap="round" stroke-linejoin="round"/>
    <path d="M 54.99140930175781 102.22261810302734 C -11.363719940185547 172.98321533203125 180.0769805908203 154.8363800048828 141.26223754882812 150.8121337890625" stroke-width="2" fill="none" stroke="rgb(0, 0, 0)" stroke-opacity="1.0" stroke-linecap="round" stroke-linejoin="round"/>
    <path d="M 122.14300537109375 140.66380310058594 C 77.10423278808594 122.44126892089844 147.18751525878906 84.76477813720703 113.72997283935547 102.34635925292969" stroke-width="2" fill="none" stroke="rgb(0, 0, 0)" stroke-opacity="1.0" stroke-linecap="round" stroke-linejoin="round"/>
    <path d="M 162.460205078125 149.7556610107422 C 223.57424926757812 132.07015991210938 98.3637924194336 127.83203125 138.7006378173828 123.52727508544922" stroke-width="2" fill="none" stroke="rgb(0, 0, 0)" stroke-opacity="1.0" stroke-linecap="round" stroke-linejoin="round"/>
    <path d="M 157.04867553710938 79.56664276123047 C 205.8585662841797 28.60363006591797 170.27529907226562 102.04161834716797 187.28627014160156 71.05376434326172" stroke-width="2" fill="none" stroke="rgb(0, 0, 0)" stroke-opacity="1.0" stroke-linecap="round" stroke-linejoin="round"/>
    <path d="M 132.470947265625 124.67034912109375 C 176.19674682617188 153.64051818847656 194.20291137695312 60.25864791870117 132.3030242919922 86.2152328491211" stroke-width="2" fill="none" stroke="rgb(0, 0, 0)" stroke-opacity="1.0" stroke-linecap="round" stroke-linejoin="round"/>
    <path d="M 63.90650939941406 101.86705017089844 C 157.4081573486328 85.81272888183594 99.01703643798828 136.3539581298828 132.732666015625 133.5076904296875" stroke-width="2" fill="none" stroke="rgb(0, 0, 0)" stroke-opacity="1.0" stroke-linecap="round" stroke-linejoin="round"/>
    <path d="M 69.96663665771484 135.76426696777344 C 140.56268310546875 161.886962890625 45.72451400756836 123.12285614013672 120.583740234375 149.72926330566406" stroke-width="2" fill="none" stroke="rgb(0, 0, 0)" stroke-opacity="1.0" stroke-linecap="round" stroke-linejoin="round"/>
    <path d="M 146.3365478515625 120.94406127929688 C 164.95362854003906 103.86962127685547 170.09048461914062 150.22096252441406 142.79388427734375 105.28960418701172" stroke-width="2" fill="none" stroke="rgb(0, 0, 0)" stroke-opacity="1.0" stroke-linecap="round" stroke-linejoin="round"/>
    <path d="M 109.00769805908203 101.08812713623047 C 94.48596954345703 32.86835861206055 114.24923706054688 100.1852035522461 135.19305419921875 79.06195831298828" stroke-width="2" fill="none" stroke="rgb(0, 0, 0)" stroke-opacity="1.0" stroke-linecap="round" stroke-linejoin="round"/>
    <path d="M 46.3994255065918 123.4617919921875 C 32.66386795043945 89.66666412353516 93.5232162475586 114.2568130493164 83.14817810058594 120.6517105102539" stroke-width="2" fill="none" stroke="rgb(0, 0, 0)" stroke-opacity="1.0" stroke-linecap="round" stroke-linejoin="round"/>
  </g>
</svg>
