<?xml version="1.0" ?>
<svg xmlns="http://www.w3.org/2000/svg" version="1.1" width="224" height="224">
  <defs/>
  <g>
    <path d="M 104.29297637939453 71.60650634765625 C 161.99700927734375 127.46321105957031 76.54276275634766 73.86991119384766 71.38226318359375 121.82405090332031" stroke-width="2" fill="none" stroke="rgb(0, 0, 0)" stroke-opacity="1.0" stroke-linecap="round" stroke-linejoin="round"/>
    <path d="M 140.771484375 122.3272476196289 C 196.40185546875 105.25836944580078 192.96876525878906 184.65164184570312 55.4273796081543 139.2324676513672" stroke-width="2" fill="none" stroke="rgb(0, 0, 0)" stroke-opacity="1.0" stroke-linecap="round" stroke-linejoin="round"/>
    <path d="M 100.86246490478516 133.88368225097656 C 111.71009826660156 124.82752227783203 68.93708801269531 140.40234375 161.54147338867188 126.69233703613281" stroke-width="2" fill="none" stroke="rgb(0, 0, 0)" stroke-opacity="1.0" stroke-linecap="round" stroke-linejoin="round"/>
    <path d="M 162.184814453125 83.71376037597656 C 121.56351470947266 93.34191131591797 160.57765197753906 92.82976531982422 116.48828887939453 87.08036804199219" stroke-width="2" fill="none" stroke="rgb(0, 0, 0)" stroke-opacity="1.0" stroke-linecap="round" stroke-linejoin="round"/>
    <path d="M 96.95808410644531 114.74352264404297 C 92.00431060791016 91.88617706298828 114.30999755859375 110.98390197753906 102.41764068603516 74.58647155761719" stroke-width="2" fill="none" stroke="rgb(0, 0, 0)" stroke-opacity="1.0" stroke-linecap="round" stroke-linejoin="round"/>
    <path d="M 116.97183227539062 127.77485656738281 C 125.7354965209961 148.97705078125 107.59150695800781 133.36050415039062 141.9024658203125 138.4346923828125" stroke-width="2" fill="none" stroke="rgb(0, 0, 0)" stroke-opacity="1.0" stroke-linecap="round" stroke-linejoin="round"/>
    <path d="M 64.02410125732422 107.4453353881836 C 0.20746421813964844 178.38311767578125 129.9566192626953 164.5399932861328 132.75164794921875 157.70506286621094" stroke-width="2" fill="none" stroke="rgb(0, 0, 0)" stroke-opacity="1.0" stroke-linecap="round" stroke-linejoin="round"/>
    <path d="M 55.09309387207031 146.51608276367188 C 175.29254150390625 179.26373291015625 193.69036865234375 137.0936279296875 164.58958435058594 137.48614501953125" stroke-width="2" fill="none" stroke="rgb(0, 0, 0)" stroke-opacity="1.0" stroke-linecap="round" stroke-linejoin="round"/>
    <path d="M 135.91973876953125 136.0305633544922 C 160.02700805664062 113.31649017333984 141.55906677246094 99.68476867675781 122.41691589355469 105.52934265136719" stroke-width="2" fill="none" stroke="rgb(0, 0, 0)" stroke-opacity="1.0" stroke-linecap="round" stroke-linejoin="round"/>
    <path d="M 165.93807983398438 92.72765350341797 C 204.85305786132812 26.74820899963379 132.71424865722656 98.83433532714844 164.15594482421875 94.93961334228516" stroke-width="2" fill="none" stroke="rgb(0, 0, 0)" stroke-opacity="1.0" stroke-linecap="round" stroke-linejoin="round"/>
    <path d="M 137.27609252929688 126.0953369140625 C 189.8336944580078 143.8892364501953 162.73216247558594 57.004207611083984 121.9145278930664 99.93462371826172" stroke-width="2" fill="none" stroke="rgb(0, 0, 0)" stroke-opacity="1.0" stroke-linecap="round" stroke-linejoin="round"/>
    <path d="M 160.0741729736328 152.7562255859375 C 70.3642578125 143.54855346679688 91.39530944824219 100.65939331054688 105.57347869873047 121.85616302490234" stroke-width="2" fill="none" stroke="rgb(0, 0, 0)" stroke-opacity="1.0" stroke-linecap="round" stroke-linejoin="round"/>
    <path d="M 167.2550811767578 117.02696990966797 C 123.32234191894531 111.8886489868164 205.63587951660156 104.04234313964844 130.0988006591797 116.59532928466797" stroke-width="2" fill="none" stroke="rgb(0, 0, 0)" stroke-opacity="1.0" stroke-linecap="round" stroke-linejoin="round"/>
    <path d="M 109.72399139404297 131.6375732421875 C 210.91502380371094 137.5594024658203 171.5628204345703 134.25439453125 177.36370849609375 145.20944213867188" stroke-width="2" fill="none" stroke="rgb(0, 0, 0)" stroke-opacity="1.0" stroke-linecap="round" stroke-linejoin="round"/>
    <path d="M 164.8085479736328 111.28165435791016 C 169.25302124023438 158.1038055419922 116.3754653930664 111.39631652832031 145.9723358154297 88.46841430664062" stroke-width="2" fill="none" stroke="rgb(0, 0, 0)" stroke-opacity="1.0" stroke-linecap="round" stroke-linejoin="round"/>
    <path d="M 103.26497650146484 147.2799072265625 C 51.16117858886719 151.00323486328125 47.97170639038086 124.71297454833984 87.0903091430664 150.4347686767578" stroke-width="2" fill="none" stroke="rgb(0, 0, 0)" stroke-opacity="1.0" stroke-linecap="round" stroke-linejoin="round"/>
  </g>
</svg>
