<?xml version="1.0" ?>
<svg xmlns="http://www.w3.org/2000/svg" version="1.1" width="224" height="224">
  <defs/>
  <g>
    <path d="M 102.08976745605469 94.55432891845703 C 150.80767822265625 115.55132293701172 59.20344924926758 79.4073486328125 49.41864776611328 121.44515991210938" stroke-width="2" fill="none" stroke="rgb(0, 0, 0)" stroke-opacity="1.0" stroke-linecap="round" stroke-linejoin="round"/>
    <path d="M 91.74212646484375 131.34457397460938 C 217.34329223632812 127.55084991455078 139.44229125976562 154.9512481689453 88.74885559082031 128.87750244140625" stroke-width="2" fill="none" stroke="rgb(0, 0, 0)" stroke-opacity="1.0" stroke-linecap="round" stroke-linejoin="round"/>
    <path d="M 144.54881286621094 94.4229507446289 C 117.82511138916016 85.70755004882812 100.05094909667969 143.24412536621094 154.92654418945312 125.78987884521484" stroke-width="2" fill="none" stroke="rgb(0, 0, 0)" stroke-opacity="1.0" stroke-linecap="round" stroke-linejoin="round"/>
    <path d="M 153.17721557617188 94.16493225097656 C 194.88844299316406 46.701045989990234 188.6068878173828 92.5705795288086 162.52072143554688 126.48240661621094" stroke-width="2" fill="none" stroke="rgb(0, 0, 0)" stroke-opacity="1.0" stroke-linecap="round" stroke-linejoin="round"/>
    <path d="M 104.55522918701172 75.12318420410156 C 119.66788482666016 115.16728210449219 134.1400146484375 85.08818054199219 149.6644287109375 100.90687561035156" stroke-width="2" fill="none" stroke="rgb(0, 0, 0)" stroke-opacity="1.0" stroke-linecap="round" stroke-linejoin="round"/>
    <path d="M 99.40213012695312 83.29580688476562 C 106.78480529785156 120.7345962524414 79.4290542602539 94.48893737792969 85.26776885986328 116.29265594482422" stroke-width="2" fill="none" stroke="rgb(0, 0, 0)" stroke-opacity="1.0" stroke-linecap="round" stroke-linejoin="round"/>
    <path d="M 54.63124465942383 140.96351623535156 C 47.217750549316406 152.80149841308594 95.52030181884766 149.78994750976562 119.61397552490234 157.27926635742188" stroke-width="2" fill="none" stroke="rgb(0, 0, 0)" stroke-opacity="1.0" stroke-linecap="round" stroke-linejoin="round"/>
    <path d="M 53.72295379638672 147.59815979003906 C 214.08560180664062 163.73342895507812 193.1824188232422 147.26266479492188 89.19647216796875 142.170654296875" stroke-width="2" fill="none" stroke="rgb(0, 0, 0)" stroke-opacity="1.0" stroke-linecap="round" stroke-linejoin="round"/>
    <path d="M 99.92247009277344 113.36504364013672 C 146.9198760986328 113.2017593383789 136.1488494873047 123.67498779296875 110.17585754394531 121.3019027709961" stroke-width="2" fill="none" stroke="rgb(0, 0, 0)" stroke-opacity="1.0" stroke-linecap="round" stroke-linejoin="round"/>
    <path d="M 174.3953094482422 85.03067016601562 C 192.81077575683594 26.79555892944336 154.80450439453125 96.30136108398438 174.30874633789062 101.59501647949219" stroke-width="2" fill="none" stroke="rgb(0, 0, 0)" stroke-opacity="1.0" stroke-linecap="round" stroke-linejoin="round"/>
    <path d="M 157.75816345214844 134.44529724121094 C 188.62252807617188 125.75172424316406 170.28897094726562 157.34048461914062 123.45608520507812 151.99305725097656" stroke-width="2" fill="none" stroke="rgb(0, 0, 0)" stroke-opacity="1.0" stroke-linecap="round" stroke-linejoin="round"/>
    <path d="M 145.29820251464844 141.11859130859375 C 53.11907196044922 136.49993896484375 52.28327560424805 129.22427368164062 70.57601928710938 147.08441162109375" stroke-width="2" fill="none" stroke="rgb(0, 0, 0)" stroke-opacity="1.0" stroke-linecap="round" stroke-linejoin="round"/>
    <path d="M 154.39675903320312 118.62561798095703 C 116.94686126708984 113.11905670166016 201.77200317382812 145.47915649414062 115.07032775878906 133.18467712402344" stroke-width="2" fill="none" stroke="rgb(0, 0, 0)" stroke-opacity="1.0" stroke-linecap="round" stroke-linejoin="round"/>
    <path d="M 176.20074462890625 77.43449401855469 C 167.56954956054688 117.3843002319336 139.94131469726562 73.69197845458984 159.50482177734375 108.47946166992188" stroke-width="2" fill="none" stroke="rgb(0, 0, 0)" stroke-opacity="1.0" stroke-linecap="round" stroke-linejoin="round"/>
    <path d="M 109.97517395019531 89.03646087646484 C 120.42198181152344 117.41513061523438 112.86565399169922 107.72496032714844 97.33899688720703 104.10237884521484" stroke-width="2" fill="none" stroke="rgb(0, 0, 0)" stroke-opacity="1.0" stroke-linecap="round" stroke-linejoin="round"/>
    <path d="M 88.86207580566406 104.94429016113281 C 61.39630126953125 85.60314178466797 7.381542205810547 153.79481506347656 76.58950805664062 149.99322509765625" stroke-width="2" fill="none" stroke="rgb(0, 0, 0)" stroke-opacity="1.0" stroke-linecap="round" stroke-linejoin="round"/>
  </g>
</svg>
