<?xml version="1.0" ?>
<svg xmlns="http://www.w3.org/2000/svg" version="1.1" width="224" height="224">
  <defs/>
  <g>
    <path d="M 98.44657135009766 69.5597915649414 C 114.10879516601562 122.3657455444336 53.259254455566406 57.109954833984375 43.58824920654297 128.1151580810547" stroke-width="2" fill="none" stroke="rgb(0, 0, 0)" stroke-opacity="1.0" stroke-linecap="round" stroke-linejoin="round"/>
    <path d="M 155.67593383789062 113.01110076904297 C 189.05592346191406 110.13796997070312 216.08050537109375 188.46566772460938 70.5628890991211 138.2958526611328" stroke-width="2" fill="none" stroke="rgb(0, 0, 0)" stroke-opacity="1.0" stroke-linecap="round" stroke-linejoin="round"/>
    <path d="M 110.04763793945312 105.90154266357422 C 136.08229064941406 79.27165222167969 77.74554443359375 144.2029571533203 145.93165588378906 141.1640167236328" stroke-width="2" fill="none" stroke="rgb(0, 0, 0)" stroke-opacity="1.0" stroke-linecap="round" stroke-linejoin="round"/>
    <path d="M 122.34571838378906 128.89344787597656 C 211.95321655273438 127.4111557006836 136.0809326171875 123.71954345703125 163.4715118408203 109.7684097290039" stroke-width="2" fill="none" stroke="rgb(0, 0, 0)" stroke-opacity="1.0" stroke-linecap="round" stroke-linejoin="round"/>
    <path d="M 121.05575561523438 115.30951690673828 C 203.77023315429688 131.97059631347656 84.75454711914062 121.30677032470703 166.01666259765625 118.27400207519531" stroke-width="2" fill="none" stroke="rgb(0, 0, 0)" stroke-opacity="1.0" stroke-linecap="round" stroke-linejoin="round"/>
    <path d="M 163.9884796142578 127.45459747314453 C 198.29437255859375 124.20133972167969 125.97465515136719 95.34871673583984 169.88101196289062 88.49100494384766" stroke-width="2" fill="none" stroke="rgb(0, 0, 0)" stroke-opacity="1.0" stroke-linecap="round" stroke-linejoin="round"/>
    <path d="M 48.29829406738281 113.44741821289062 C 9.044474601745605 162.97804260253906 180.77073669433594 160.3401641845703 157.22640991210938 148.2087860107422" stroke-width="2" fill="none" stroke="rgb(0, 0, 0)" stroke-opacity="1.0" stroke-linecap="round" stroke-linejoin="round"/>
    <path d="M 163.8386688232422 103.42754364013672 C 78.84893798828125 107.6503677368164 171.0298614501953 110.64896392822266 123.27497100830078 116.916748046875" stroke-width="2" fill="none" stroke="rgb(0, 0, 0)" stroke-opacity="1.0" stroke-linecap="round" stroke-linejoin="round"/>
    <path d="M 120.171875 114.36736297607422 C 258.6789245605469 133.11517333984375 128.93930053710938 161.6015167236328 90.22321319580078 133.1580810546875" stroke-width="2" fill="none" stroke="rgb(0, 0, 0)" stroke-opacity="1.0" stroke-linecap="round" stroke-linejoin="round"/>
    <path d="M 185.7423095703125 85.01612091064453 C 201.34178161621094 22.282453536987305 174.2676544189453 94.03079223632812 156.24530029296875 77.93458557128906" stroke-width="2" fill="none" stroke="rgb(0, 0, 0)" stroke-opacity="1.0" stroke-linecap="round" stroke-linejoin="round"/>
    <path d="M 138.8878631591797 130.2938690185547 C 171.72964477539062 141.22897338867188 178.7152557373047 57.53779220581055 125.66661071777344 78.7459716796875" stroke-width="2" fill="none" stroke="rgb(0, 0, 0)" stroke-opacity="1.0" stroke-linecap="round" stroke-linejoin="round"/>
    <path d="M 62.33392333984375 103.61026000976562 C 157.72122192382812 123.71581268310547 49.924835205078125 96.83616638183594 83.29263305664062 112.87281036376953" stroke-width="2" fill="none" stroke="rgb(0, 0, 0)" stroke-opacity="1.0" stroke-linecap="round" stroke-linejoin="round"/>
    <path d="M 135.450439453125 108.66915893554688 C 178.88375854492188 105.22122955322266 116.02371215820312 91.96028900146484 163.2561798095703 106.84725189208984" stroke-width="2" fill="none" stroke="rgb(0, 0, 0)" stroke-opacity="1.0" stroke-linecap="round" stroke-linejoin="round"/>
    <path d="M 179.9407501220703 88.66128540039062 C 196.06997680664062 107.07779693603516 158.59649658203125 136.6043243408203 161.9420928955078 118.8899917602539" stroke-width="2" fill="none" stroke="rgb(0, 0, 0)" stroke-opacity="1.0" stroke-linecap="round" stroke-linejoin="round"/>
    <path d="M 100.37133026123047 76.15538787841797 C 109.67587280273438 54.54485321044922 132.6092987060547 102.05455017089844 114.54647827148438 76.82240295410156" stroke-width="2" fill="none" stroke="rgb(0, 0, 0)" stroke-opacity="1.0" stroke-linecap="round" stroke-linejoin="round"/>
    <path d="M 113.6958999633789 137.42459106445312 C 69.92424774169922 65.43304443359375 88.14437103271484 114.9959945678711 149.31350708007812 135.5599365234375" stroke-width="2" fill="none" stroke="rgb(0, 0, 0)" stroke-opacity="1.0" stroke-linecap="round" stroke-linejoin="round"/>
  </g>
</svg>
