<?xml version="1.0" ?>
<svg xmlns="http://www.w3.org/2000/svg" version="1.1" width="224" height="224">
  <defs/>
  <g>
    <path d="M 100.70646667480469 70.31195831298828 C 159.41920471191406 130.15281677246094 51.037288665771484 76.16484069824219 54.0472526550293 116.7642593383789" stroke-width="2" fill="none" stroke="rgb(0, 0, 0)" stroke-opacity="1.0" stroke-linecap="round" stroke-linejoin="round"/>
    <path d="M 132.10231018066406 113.11360168457031 C 233.123779296875 126.74610900878906 152.50930786132812 169.33282470703125 59.70636749267578 134.16387939453125" stroke-width="2" fill="none" stroke="rgb(0, 0, 0)" stroke-opacity="1.0" stroke-linecap="round" stroke-linejoin="round"/>
    <path d="M 166.55337524414062 97.83873748779297 C 103.18714141845703 64.08753967285156 85.49590301513672 150.41665649414062 144.13558959960938 135.7081756591797" stroke-width="2" fill="none" stroke="rgb(0, 0, 0)" stroke-opacity="1.0" stroke-linecap="round" stroke-linejoin="round"/>
    <path d="M 173.439453125 97.13377380371094 C 181.2381134033203 83.19579315185547 180.95606994628906 127.0184555053711 162.1822052001953 133.50140380859375" stroke-width="2" fill="none" stroke="rgb(0, 0, 0)" stroke-opacity="1.0" stroke-linecap="round" stroke-linejoin="round"/>
    <path d="M 105.14160919189453 74.19654846191406 C 97.0898666381836 114.38819122314453 122.19731903076172 81.80357360839844 138.53570556640625 93.57904052734375" stroke-width="2" fill="none" stroke="rgb(0, 0, 0)" stroke-opacity="1.0" stroke-linecap="round" stroke-linejoin="round"/>
    <path d="M 110.10792541503906 93.36114501953125 C 130.884521484375 119.99020385742188 93.10490417480469 126.3582534790039 115.65489959716797 129.08615112304688" stroke-width="2" fill="none" stroke="rgb(0, 0, 0)" stroke-opacity="1.0" stroke-linecap="round" stroke-linejoin="round"/>
    <path d="M 45.064483642578125 118.53595733642578 C 20.550968170166016 156.52647399902344 107.86698150634766 152.3514404296875 108.94282531738281 154.50514221191406" stroke-width="2" fill="none" stroke="rgb(0, 0, 0)" stroke-opacity="1.0" stroke-linecap="round" stroke-linejoin="round"/>
    <path d="M 69.31582641601562 130.99569702148438 C 198.96405029296875 173.9829559326172 208.06861877441406 129.5321502685547 105.03903198242188 144.3431854248047" stroke-width="2" fill="none" stroke="rgb(0, 0, 0)" stroke-opacity="1.0" stroke-linecap="round" stroke-linejoin="round"/>
    <path d="M 117.21858215332031 85.58402252197266 C 164.99412536621094 91.91445922851562 143.7895965576172 123.43057250976562 123.37863159179688 114.99413299560547" stroke-width="2" fill="none" stroke="rgb(0, 0, 0)" stroke-opacity="1.0" stroke-linecap="round" stroke-linejoin="round"/>
    <path d="M 185.8284912109375 88.76504516601562 C 201.69058227539062 33.31272506713867 155.90164184570312 109.86116027832031 154.25445556640625 95.99247741699219" stroke-width="2" fill="none" stroke="rgb(0, 0, 0)" stroke-opacity="1.0" stroke-linecap="round" stroke-linejoin="round"/>
    <path d="M 135.91046142578125 128.81430053710938 C 196.38706970214844 95.57102966308594 181.46682739257812 146.2269744873047 135.41000366210938 126.17323303222656" stroke-width="2" fill="none" stroke="rgb(0, 0, 0)" stroke-opacity="1.0" stroke-linecap="round" stroke-linejoin="round"/>
    <path d="M 130.14027404785156 157.69033813476562 C 50.733909606933594 154.35104370117188 34.41682815551758 120.7564468383789 85.8509292602539 143.05419921875" stroke-width="2" fill="none" stroke="rgb(0, 0, 0)" stroke-opacity="1.0" stroke-linecap="round" stroke-linejoin="round"/>
    <path d="M 173.67605590820312 109.71709442138672 C 155.34869384765625 105.52741241455078 206.66433715820312 129.1552276611328 132.0413055419922 110.5945816040039" stroke-width="2" fill="none" stroke="rgb(0, 0, 0)" stroke-opacity="1.0" stroke-linecap="round" stroke-linejoin="round"/>
    <path d="M 163.81190490722656 93.57768249511719 C 179.7529754638672 100.5558090209961 121.19703674316406 82.6750717163086 155.21041870117188 126.46332550048828" stroke-width="2" fill="none" stroke="rgb(0, 0, 0)" stroke-opacity="1.0" stroke-linecap="round" stroke-linejoin="round"/>
    <path d="M 85.61283111572266 114.25700378417969 C 119.28233337402344 124.38414001464844 127.84851837158203 94.27842712402344 113.23313903808594 85.78153991699219" stroke-width="2" fill="none" stroke="rgb(0, 0, 0)" stroke-opacity="1.0" stroke-linecap="round" stroke-linejoin="round"/>
    <path d="M 71.99354553222656 113.30476379394531 C 57.9897346496582 100.30366516113281 17.100948333740234 131.54812622070312 92.98064422607422 121.18595886230469" stroke-width="2" fill="none" stroke="rgb(0, 0, 0)" stroke-opacity="1.0" stroke-linecap="round" stroke-linejoin="round"/>
  </g>
</svg>
