<?xml version="1.0" ?>
<svg xmlns="http://www.w3.org/2000/svg" version="1.1" width="224" height="224">
  <defs/>
  <g>
    <path d="M 101.2904281616211 94.2837905883789 C 121.16062927246094 115.66219329833984 41.35154724121094 74.37364196777344 48.27633285522461 113.11723327636719" stroke-width="2" fill="none" stroke="rgb(0, 0, 0)" stroke-opacity="1.0" stroke-linecap="round" stroke-linejoin="round"/>
    <path d="M 113.4395980834961 115.42709350585938 C 219.06837463378906 132.55654907226562 154.82269287109375 155.9627685546875 77.07785034179688 130.75942993164062" stroke-width="2" fill="none" stroke="rgb(0, 0, 0)" stroke-opacity="1.0" stroke-linecap="round" stroke-linejoin="round"/>
    <path d="M 123.2802505493164 88.53797149658203 C 105.45698547363281 65.25198364257812 86.09607696533203 146.55117797851562 142.3233184814453 130.11090087890625" stroke-width="2" fill="none" stroke="rgb(0, 0, 0)" stroke-opacity="1.0" stroke-linecap="round" stroke-linejoin="round"/>
    <path d="M 154.02198791503906 85.62498474121094 C 187.8208770751953 64.62434387207031 180.71560668945312 100.43556213378906 155.26339721679688 131.52647399902344" stroke-width="2" fill="none" stroke="rgb(0, 0, 0)" stroke-opacity="1.0" stroke-linecap="round" stroke-linejoin="round"/>
    <path d="M 104.85724639892578 70.46737670898438 C 107.80496978759766 106.35297393798828 151.79547119140625 67.87642669677734 153.56068420410156 89.13178253173828" stroke-width="2" fill="none" stroke="rgb(0, 0, 0)" stroke-opacity="1.0" stroke-linecap="round" stroke-linejoin="round"/>
    <path d="M 115.123046875 83.48157501220703 C 96.64044189453125 110.61006927490234 67.39004516601562 76.9101791381836 100.66178131103516 112.30422973632812" stroke-width="2" fill="none" stroke="rgb(0, 0, 0)" stroke-opacity="1.0" stroke-linecap="round" stroke-linejoin="round"/>
    <path d="M 44.86355209350586 149.23974609375 C 41.08991622924805 148.78741455078125 86.67683410644531 155.10598754882812 98.89456176757812 158.77854919433594" stroke-width="2" fill="none" stroke="rgb(0, 0, 0)" stroke-opacity="1.0" stroke-linecap="round" stroke-linejoin="round"/>
    <path d="M 62.555809020996094 143.55039978027344 C 212.6117401123047 186.56741333007812 198.1341094970703 122.12798309326172 94.81138610839844 109.73284149169922" stroke-width="2" fill="none" stroke="rgb(0, 0, 0)" stroke-opacity="1.0" stroke-linecap="round" stroke-linejoin="round"/>
    <path d="M 114.47767639160156 111.50851440429688 C 124.42851257324219 98.6585922241211 116.97776794433594 121.00386047363281 109.75741577148438 117.86447143554688" stroke-width="2" fill="none" stroke="rgb(0, 0, 0)" stroke-opacity="1.0" stroke-linecap="round" stroke-linejoin="round"/>
    <path d="M 184.1380157470703 84.47553253173828 C 193.55458068847656 29.64116668701172 155.10391235351562 94.71144104003906 173.71348571777344 109.84346771240234" stroke-width="2" fill="none" stroke="rgb(0, 0, 0)" stroke-opacity="1.0" stroke-linecap="round" stroke-linejoin="round"/>
    <path d="M 163.53990173339844 132.3409423828125 C 179.05055236816406 140.20066833496094 177.8683624267578 160.59420776367188 147.62176513671875 149.61289978027344" stroke-width="2" fill="none" stroke="rgb(0, 0, 0)" stroke-opacity="1.0" stroke-linecap="round" stroke-linejoin="round"/>
    <path d="M 117.51134490966797 161.51956176757812 C 34.52758026123047 151.3444366455078 24.480831146240234 118.76705932617188 45.4066276550293 151.95326232910156" stroke-width="2" fill="none" stroke="rgb(0, 0, 0)" stroke-opacity="1.0" stroke-linecap="round" stroke-linejoin="round"/>
    <path d="M 157.23046875 113.80167388916016 C 124.65409088134766 110.26181030273438 171.25790405273438 127.79389190673828 118.63860321044922 115.64537811279297" stroke-width="2" fill="none" stroke="rgb(0, 0, 0)" stroke-opacity="1.0" stroke-linecap="round" stroke-linejoin="round"/>
    <path d="M 173.10096740722656 79.82223510742188 C 148.70814514160156 104.38956451416016 150.38246154785156 85.67959594726562 160.94602966308594 96.43241119384766" stroke-width="2" fill="none" stroke="rgb(0, 0, 0)" stroke-opacity="1.0" stroke-linecap="round" stroke-linejoin="round"/>
    <path d="M 113.35247039794922 127.68891143798828 C 103.37432861328125 132.0084228515625 123.31114196777344 92.27195739746094 93.51620483398438 118.33555603027344" stroke-width="2" fill="none" stroke="rgb(0, 0, 0)" stroke-opacity="1.0" stroke-linecap="round" stroke-linejoin="round"/>
    <path d="M 63.64036178588867 115.72476959228516 C 54.061805725097656 86.58322143554688 5.983487606048584 139.6916961669922 83.0626220703125 156.8412628173828" stroke-width="2" fill="none" stroke="rgb(0, 0, 0)" stroke-opacity="1.0" stroke-linecap="round" stroke-linejoin="round"/>
  </g>
</svg>
