<?xml version="1.0" ?>
<svg xmlns="http://www.w3.org/2000/svg" version="1.1" width="224" height="224">
  <defs/>
  <g>
    <path d="M 103.75372314453125 71.50325012207031 C 115.75515747070312 111.39208221435547 71.25492858886719 72.23687744140625 50.88939666748047 112.25077819824219" stroke-width="2" fill="none" stroke="rgb(0, 0, 0)" stroke-opacity="1.0" stroke-linecap="round" stroke-linejoin="round"/>
    <path d="M 137.68270874023438 137.5744171142578 C 196.30087280273438 139.2349395751953 181.88510131835938 159.54017639160156 67.7044448852539 129.42379760742188" stroke-width="2" fill="none" stroke="rgb(0, 0, 0)" stroke-opacity="1.0" stroke-linecap="round" stroke-linejoin="round"/>
    <path d="M 159.25155639648438 115.9233169555664 C 118.57245635986328 139.04962158203125 107.04353332519531 104.32903289794922 135.81275939941406 105.14360046386719" stroke-width="2" fill="none" stroke="rgb(0, 0, 0)" stroke-opacity="1.0" stroke-linecap="round" stroke-linejoin="round"/>
    <path d="M 145.6968994140625 84.21674346923828 C 170.93458557128906 89.77911376953125 177.57701110839844 95.27376556396484 156.9861602783203 129.9392852783203" stroke-width="2" fill="none" stroke="rgb(0, 0, 0)" stroke-opacity="1.0" stroke-linecap="round" stroke-linejoin="round"/>
    <path d="M 109.16268157958984 80.9380874633789 C 126.51728057861328 112.95069885253906 147.2000732421875 87.09198760986328 160.7974090576172 94.06729888916016" stroke-width="2" fill="none" stroke="rgb(0, 0, 0)" stroke-opacity="1.0" stroke-linecap="round" stroke-linejoin="round"/>
    <path d="M 100.29531860351562 89.76221466064453 C 97.00148010253906 106.62525939941406 97.64765930175781 78.80934143066406 90.26256561279297 111.5513916015625" stroke-width="2" fill="none" stroke="rgb(0, 0, 0)" stroke-opacity="1.0" stroke-linecap="round" stroke-linejoin="round"/>
    <path d="M 44.498416900634766 130.50975036621094 C 51.507408142089844 140.70884704589844 119.23818969726562 148.32017517089844 92.26164245605469 147.58905029296875" stroke-width="2" fill="none" stroke="rgb(0, 0, 0)" stroke-opacity="1.0" stroke-linecap="round" stroke-linejoin="round"/>
    <path d="M 116.30810546875 151.1512451171875 C 212.92666625976562 150.3114013671875 183.11598205566406 127.32841491699219 110.94182586669922 106.41743469238281" stroke-width="2" fill="none" stroke="rgb(0, 0, 0)" stroke-opacity="1.0" stroke-linecap="round" stroke-linejoin="round"/>
    <path d="M 141.2325897216797 120.76370239257812 C 178.9417266845703 100.18650817871094 180.21990966796875 145.77049255371094 97.95641326904297 124.61467742919922" stroke-width="2" fill="none" stroke="rgb(0, 0, 0)" stroke-opacity="1.0" stroke-linecap="round" stroke-linejoin="round"/>
    <path d="M 173.84181213378906 95.59761047363281 C 197.98497009277344 38.09794616699219 160.18585205078125 66.37318420410156 176.04098510742188 91.02242279052734" stroke-width="2" fill="none" stroke="rgb(0, 0, 0)" stroke-opacity="1.0" stroke-linecap="round" stroke-linejoin="round"/>
    <path d="M 165.80084228515625 143.71449279785156 C 182.13832092285156 129.5494842529297 174.9610595703125 139.95584106445312 154.05020141601562 148.42112731933594" stroke-width="2" fill="none" stroke="rgb(0, 0, 0)" stroke-opacity="1.0" stroke-linecap="round" stroke-linejoin="round"/>
    <path d="M 84.27351379394531 156.03280639648438 C 42.84619140625 157.72808837890625 7.625017166137695 133.97691345214844 45.41339874267578 150.51083374023438" stroke-width="2" fill="none" stroke="rgb(0, 0, 0)" stroke-opacity="1.0" stroke-linecap="round" stroke-linejoin="round"/>
    <path d="M 121.57080841064453 102.78527069091797 C 114.62220001220703 84.67852783203125 147.6038055419922 93.8083724975586 145.12579345703125 100.12457275390625" stroke-width="2" fill="none" stroke="rgb(0, 0, 0)" stroke-opacity="1.0" stroke-linecap="round" stroke-linejoin="round"/>
    <path d="M 170.93472290039062 80.41004180908203 C 171.7326202392578 85.98469543457031 129.210693359375 100.74049377441406 167.01026916503906 108.71691131591797" stroke-width="2" fill="none" stroke="rgb(0, 0, 0)" stroke-opacity="1.0" stroke-linecap="round" stroke-linejoin="round"/>
    <path d="M 80.97879028320312 105.51734924316406 C 70.353759765625 105.40921783447266 86.12786865234375 101.27578735351562 84.81735229492188 122.25047302246094" stroke-width="2" fill="none" stroke="rgb(0, 0, 0)" stroke-opacity="1.0" stroke-linecap="round" stroke-linejoin="round"/>
    <path d="M 65.11042022705078 110.05379486083984 C 55.891700744628906 96.76714324951172 13.851705551147461 118.0483169555664 48.78005599975586 149.60838317871094" stroke-width="2" fill="none" stroke="rgb(0, 0, 0)" stroke-opacity="1.0" stroke-linecap="round" stroke-linejoin="round"/>
  </g>
</svg>
