<?xml version="1.0" ?>
<svg xmlns="http://www.w3.org/2000/svg" version="1.1" width="224" height="224">
  <defs/>
  <g>
    <path d="M 96.72592163085938 73.19963836669922 C 137.13299560546875 115.53775787353516 51.36827087402344 76.7436294555664 53.436588287353516 112.15339660644531" stroke-width="2" fill="none" stroke="rgb(0, 0, 0)" stroke-opacity="1.0" stroke-linecap="round" stroke-linejoin="round"/>
    <path d="M 131.47857666015625 137.2691650390625 C 201.40316772460938 133.72994995117188 208.3173370361328 165.19961547851562 80.8333969116211 139.20278930664062" stroke-width="2" fill="none" stroke="rgb(0, 0, 0)" stroke-opacity="1.0" stroke-linecap="round" stroke-linejoin="round"/>
    <path d="M 95.99166870117188 114.44898986816406 C 124.76265716552734 100.91357421875 67.96214294433594 164.90333557128906 172.2340087890625 135.20875549316406" stroke-width="2" fill="none" stroke="rgb(0, 0, 0)" stroke-opacity="1.0" stroke-linecap="round" stroke-linejoin="round"/>
    <path d="M 170.52635192871094 73.73258972167969 C 127.1108169555664 71.35099792480469 175.10333251953125 87.68710327148438 101.43023681640625 85.70378112792969" stroke-width="2" fill="none" stroke="rgb(0, 0, 0)" stroke-opacity="1.0" stroke-linecap="round" stroke-linejoin="round"/>
    <path d="M 78.05316162109375 114.94600677490234 C 80.21788787841797 86.8837661743164 112.3357925415039 130.81927490234375 97.91130828857422 70.8097915649414" stroke-width="2" fill="none" stroke="rgb(0, 0, 0)" stroke-opacity="1.0" stroke-linecap="round" stroke-linejoin="round"/>
    <path d="M 85.06668090820312 131.43968200683594 C 120.73009490966797 137.18362426757812 89.50040435791016 123.99002838134766 118.5472640991211 116.69422149658203" stroke-width="2" fill="none" stroke="rgb(0, 0, 0)" stroke-opacity="1.0" stroke-linecap="round" stroke-linejoin="round"/>
    <path d="M 60.07338333129883 97.2342758178711 C -6.657102584838867 170.0321807861328 126.98541259765625 161.67788696289062 114.30697631835938 160.18411254882812" stroke-width="2" fill="none" stroke="rgb(0, 0, 0)" stroke-opacity="1.0" stroke-linecap="round" stroke-linejoin="round"/>
    <path d="M 56.51726150512695 142.5835418701172 C 156.62281799316406 157.20458984375 178.6742401123047 108.20250701904297 167.684326171875 143.06698608398438" stroke-width="2" fill="none" stroke="rgb(0, 0, 0)" stroke-opacity="1.0" stroke-linecap="round" stroke-linejoin="round"/>
    <path d="M 118.35575866699219 128.9868621826172 C 166.72732543945312 126.63581848144531 91.62616729736328 135.03746032714844 138.71115112304688 131.59689331054688" stroke-width="2" fill="none" stroke="rgb(0, 0, 0)" stroke-opacity="1.0" stroke-linecap="round" stroke-linejoin="round"/>
    <path d="M 180.23333740234375 105.57284545898438 C 193.78289794921875 14.227376937866211 157.22146606445312 106.7798080444336 163.3328857421875 86.09062194824219" stroke-width="2" fill="none" stroke="rgb(0, 0, 0)" stroke-opacity="1.0" stroke-linecap="round" stroke-linejoin="round"/>
    <path d="M 125.6594009399414 115.81558990478516 C 177.35028076171875 132.97132873535156 135.2061767578125 62.960968017578125 119.31120300292969 87.70259094238281" stroke-width="2" fill="none" stroke="rgb(0, 0, 0)" stroke-opacity="1.0" stroke-linecap="round" stroke-linejoin="round"/>
    <path d="M 161.52610778808594 150.6488800048828 C 46.17756271362305 154.6402587890625 33.653717041015625 111.94298553466797 66.07643127441406 97.87713623046875" stroke-width="2" fill="none" stroke="rgb(0, 0, 0)" stroke-opacity="1.0" stroke-linecap="round" stroke-linejoin="round"/>
    <path d="M 161.37135314941406 109.44816589355469 C 129.550537109375 106.77613830566406 216.53993225097656 136.92709350585938 132.90074157714844 110.71358489990234" stroke-width="2" fill="none" stroke="rgb(0, 0, 0)" stroke-opacity="1.0" stroke-linecap="round" stroke-linejoin="round"/>
    <path d="M 124.08453369140625 127.48995971679688 C 172.087646484375 125.5653076171875 113.40648651123047 135.06756591796875 160.41416931152344 138.54627990722656" stroke-width="2" fill="none" stroke="rgb(0, 0, 0)" stroke-opacity="1.0" stroke-linecap="round" stroke-linejoin="round"/>
    <path d="M 177.26068115234375 106.5667953491211 C 198.13796997070312 191.8579559326172 66.3154067993164 142.29574584960938 99.2435531616211 137.24879455566406" stroke-width="2" fill="none" stroke="rgb(0, 0, 0)" stroke-opacity="1.0" stroke-linecap="round" stroke-linejoin="round"/>
    <path d="M 81.78434753417969 151.30967712402344 C 50.56380844116211 152.3211669921875 22.35826873779297 132.36097717285156 60.82124328613281 152.31063842773438" stroke-width="2" fill="none" stroke="rgb(0, 0, 0)" stroke-opacity="1.0" stroke-linecap="round" stroke-linejoin="round"/>
  </g>
</svg>
