<?xml version="1.0" ?>
<svg xmlns="http://www.w3.org/2000/svg" version="1.1" width="224" height="224">
  <defs/>
  <g>
    <path d="M 108.15816497802734 74.85587310791016 C 117.37938690185547 124.9761734008789 78.5542984008789 70.83293151855469 74.35243225097656 118.03890228271484" stroke-width="2" fill="none" stroke="rgb(0, 0, 0)" stroke-opacity="1.0" stroke-linecap="round" stroke-linejoin="round"/>
    <path d="M 138.070068359375 137.7165985107422 C 202.81063842773438 132.8748779296875 174.94212341308594 162.02557373046875 85.14469909667969 136.65374755859375" stroke-width="2" fill="none" stroke="rgb(0, 0, 0)" stroke-opacity="1.0" stroke-linecap="round" stroke-linejoin="round"/>
    <path d="M 112.7750244140625 99.08123779296875 C 113.04218292236328 72.58663940429688 68.84757995605469 140.21591186523438 164.15553283691406 129.2659912109375" stroke-width="2" fill="none" stroke="rgb(0, 0, 0)" stroke-opacity="1.0" stroke-linecap="round" stroke-linejoin="round"/>
    <path d="M 167.40480041503906 95.67110443115234 C 127.13314819335938 99.50503540039062 173.02801513671875 83.12189483642578 113.58891296386719 87.40238189697266" stroke-width="2" fill="none" stroke="rgb(0, 0, 0)" stroke-opacity="1.0" stroke-linecap="round" stroke-linejoin="round"/>
    <path d="M 105.32585906982422 84.90203857421875 C 81.7391128540039 109.79983520507812 130.04238891601562 89.26353454589844 104.5569839477539 92.3917236328125" stroke-width="2" fill="none" stroke="rgb(0, 0, 0)" stroke-opacity="1.0" stroke-linecap="round" stroke-linejoin="round"/>
    <path d="M 103.77481842041016 77.06169891357422 C 145.52249145507812 98.16097259521484 79.71051788330078 131.40872192382812 137.4003448486328 137.98297119140625" stroke-width="2" fill="none" stroke="rgb(0, 0, 0)" stroke-opacity="1.0" stroke-linecap="round" stroke-linejoin="round"/>
    <path d="M 66.21654510498047 98.30891418457031 C 1.24968421459198 158.95620727539062 109.4588851928711 159.15350341796875 140.32228088378906 156.15989685058594" stroke-width="2" fill="none" stroke="rgb(0, 0, 0)" stroke-opacity="1.0" stroke-linecap="round" stroke-linejoin="round"/>
    <path d="M 68.42394256591797 139.51246643066406 C 172.36166381835938 179.64700317382812 207.278564453125 145.51744079589844 128.58251953125 127.80840301513672" stroke-width="2" fill="none" stroke="rgb(0, 0, 0)" stroke-opacity="1.0" stroke-linecap="round" stroke-linejoin="round"/>
    <path d="M 123.96895599365234 107.75038146972656 C 153.34381103515625 115.61454010009766 116.59019470214844 124.29353332519531 168.0930633544922 126.18740844726562" stroke-width="2" fill="none" stroke="rgb(0, 0, 0)" stroke-opacity="1.0" stroke-linecap="round" stroke-linejoin="round"/>
    <path d="M 180.53265380859375 91.392333984375 C 196.13182067871094 22.910076141357422 150.524658203125 83.4813232421875 149.12188720703125 82.16594696044922" stroke-width="2" fill="none" stroke="rgb(0, 0, 0)" stroke-opacity="1.0" stroke-linecap="round" stroke-linejoin="round"/>
    <path d="M 151.45372009277344 108.1272964477539 C 179.14682006835938 121.34577178955078 155.68624877929688 124.5426025390625 175.91162109375 89.66883850097656" stroke-width="2" fill="none" stroke="rgb(0, 0, 0)" stroke-opacity="1.0" stroke-linecap="round" stroke-linejoin="round"/>
    <path d="M 139.85601806640625 147.88658142089844 C 59.16706085205078 147.2834014892578 22.7048397064209 117.15998077392578 56.12028884887695 148.5833740234375" stroke-width="2" fill="none" stroke="rgb(0, 0, 0)" stroke-opacity="1.0" stroke-linecap="round" stroke-linejoin="round"/>
    <path d="M 150.0277862548828 147.91925048828125 C 128.56243896484375 112.89128875732422 205.293701171875 126.23793029785156 129.6432342529297 129.89797973632812" stroke-width="2" fill="none" stroke="rgb(0, 0, 0)" stroke-opacity="1.0" stroke-linecap="round" stroke-linejoin="round"/>
    <path d="M 165.81515502929688 96.22587585449219 C 192.30014038085938 146.37730407714844 153.12083435058594 138.7407989501953 154.3672637939453 110.05811309814453" stroke-width="2" fill="none" stroke="rgb(0, 0, 0)" stroke-opacity="1.0" stroke-linecap="round" stroke-linejoin="round"/>
    <path d="M 142.09310913085938 104.52015686035156 C 127.36565399169922 134.56210327148438 116.26256561279297 98.7528076171875 107.4749755859375 128.46670532226562" stroke-width="2" fill="none" stroke="rgb(0, 0, 0)" stroke-opacity="1.0" stroke-linecap="round" stroke-linejoin="round"/>
    <path d="M 79.88932800292969 148.8805389404297 C 56.747154235839844 142.8389434814453 23.128538131713867 93.15867614746094 85.29486083984375 136.56903076171875" stroke-width="2" fill="none" stroke="rgb(0, 0, 0)" stroke-opacity="1.0" stroke-linecap="round" stroke-linejoin="round"/>
  </g>
</svg>
