<?xml version="1.0" ?>
<svg xmlns="http://www.w3.org/2000/svg" version="1.1" width="224" height="224">
  <defs/>
  <g>
    <path d="M 102.75428771972656 71.29938507080078 C 154.80081176757812 128.40240478515625 52.85266876220703 83.3643569946289 59.165565490722656 113.2984848022461" stroke-width="2" fill="none" stroke="rgb(0, 0, 0)" stroke-opacity="1.0" stroke-linecap="round" stroke-linejoin="round"/>
    <path d="M 121.0758285522461 117.61493682861328 C 200.0126953125 152.6875 215.62867736816406 170.1344757080078 53.33831787109375 141.19175720214844" stroke-width="2" fill="none" stroke="rgb(0, 0, 0)" stroke-opacity="1.0" stroke-linecap="round" stroke-linejoin="round"/>
    <path d="M 100.92303466796875 110.14545440673828 C 124.04113006591797 95.12947082519531 70.9170913696289 152.1905975341797 158.7671356201172 132.92254638671875" stroke-width="2" fill="none" stroke="rgb(0, 0, 0)" stroke-opacity="1.0" stroke-linecap="round" stroke-linejoin="round"/>
    <path d="M 165.86639404296875 94.45828247070312 C 138.76002502441406 98.14639282226562 181.4540252685547 84.2556381225586 116.34807586669922 92.62033081054688" stroke-width="2" fill="none" stroke="rgb(0, 0, 0)" stroke-opacity="1.0" stroke-linecap="round" stroke-linejoin="round"/>
    <path d="M 99.69454193115234 112.7320556640625 C 72.8473129272461 78.18257904052734 111.90939331054688 134.1361541748047 99.06706237792969 64.95833587646484" stroke-width="2" fill="none" stroke="rgb(0, 0, 0)" stroke-opacity="1.0" stroke-linecap="round" stroke-linejoin="round"/>
    <path d="M 83.09312438964844 110.33329010009766 C 111.91197204589844 117.35307312011719 78.56134033203125 126.17598724365234 106.79638671875 95.3551254272461" stroke-width="2" fill="none" stroke="rgb(0, 0, 0)" stroke-opacity="1.0" stroke-linecap="round" stroke-linejoin="round"/>
    <path d="M 57.12831115722656 104.5771713256836 C -6.1380839347839355 170.7489776611328 122.46023559570312 152.74073791503906 113.30070495605469 153.0926971435547" stroke-width="2" fill="none" stroke="rgb(0, 0, 0)" stroke-opacity="1.0" stroke-linecap="round" stroke-linejoin="round"/>
    <path d="M 72.42530059814453 151.38101196289062 C 155.23922729492188 177.60983276367188 180.1873779296875 114.32605743408203 143.44639587402344 130.6761474609375" stroke-width="2" fill="none" stroke="rgb(0, 0, 0)" stroke-opacity="1.0" stroke-linecap="round" stroke-linejoin="round"/>
    <path d="M 126.325927734375 123.34326934814453 C 161.6547088623047 127.74126434326172 82.2280044555664 129.04751586914062 132.4251251220703 144.64703369140625" stroke-width="2" fill="none" stroke="rgb(0, 0, 0)" stroke-opacity="1.0" stroke-linecap="round" stroke-linejoin="round"/>
    <path d="M 171.54867553710938 109.11972045898438 C 198.8275909423828 13.473855972290039 161.13986206054688 98.79756927490234 152.7560272216797 87.38853454589844" stroke-width="2" fill="none" stroke="rgb(0, 0, 0)" stroke-opacity="1.0" stroke-linecap="round" stroke-linejoin="round"/>
    <path d="M 117.98626708984375 111.93274688720703 C 189.78538513183594 126.08601379394531 134.39903259277344 62.53837585449219 119.53305053710938 99.47602081298828" stroke-width="2" fill="none" stroke="rgb(0, 0, 0)" stroke-opacity="1.0" stroke-linecap="round" stroke-linejoin="round"/>
    <path d="M 172.5393829345703 142.89151000976562 C 52.39459991455078 150.00125122070312 34.4269905090332 113.35860443115234 62.49653244018555 104.73758697509766" stroke-width="2" fill="none" stroke="rgb(0, 0, 0)" stroke-opacity="1.0" stroke-linecap="round" stroke-linejoin="round"/>
    <path d="M 158.91726684570312 123.51890563964844 C 123.82276916503906 99.91963195800781 197.3389129638672 128.1878662109375 114.75267791748047 122.05126190185547" stroke-width="2" fill="none" stroke="rgb(0, 0, 0)" stroke-opacity="1.0" stroke-linecap="round" stroke-linejoin="round"/>
    <path d="M 128.426513671875 110.06342315673828 C 151.66639709472656 126.66621398925781 90.88577270507812 131.03289794921875 160.1890411376953 133.8948211669922" stroke-width="2" fill="none" stroke="rgb(0, 0, 0)" stroke-opacity="1.0" stroke-linecap="round" stroke-linejoin="round"/>
    <path d="M 182.3366241455078 115.88287353515625 C 200.5529022216797 180.1201629638672 75.52521514892578 126.79365539550781 92.7002182006836 138.01499938964844" stroke-width="2" fill="none" stroke="rgb(0, 0, 0)" stroke-opacity="1.0" stroke-linecap="round" stroke-linejoin="round"/>
    <path d="M 72.80610656738281 153.60629272460938 C 50.65904998779297 156.00413513183594 17.203134536743164 116.01710510253906 72.50003051757812 149.5904541015625" stroke-width="2" fill="none" stroke="rgb(0, 0, 0)" stroke-opacity="1.0" stroke-linecap="round" stroke-linejoin="round"/>
  </g>
</svg>
