<?xml version="1.0" ?>
<svg xmlns="http://www.w3.org/2000/svg" version="1.1" width="224" height="224">
  <defs/>
  <g>
    <path d="M 104.0568618774414 74.58281707763672 C 141.13548278808594 118.46674346923828 69.96439361572266 63.64545440673828 60.73016357421875 100.73678588867188" stroke-width="2" fill="none" stroke="rgb(0, 0, 0)" stroke-opacity="1.0" stroke-linecap="round" stroke-linejoin="round"/>
    <path d="M 169.8328857421875 150.58497619628906 C 195.39341735839844 135.90155029296875 154.4134063720703 174.6505889892578 73.02306365966797 147.2631378173828" stroke-width="2" fill="none" stroke="rgb(0, 0, 0)" stroke-opacity="1.0" stroke-linecap="round" stroke-linejoin="round"/>
    <path d="M 94.14556121826172 99.57776641845703 C 108.24183654785156 73.73490142822266 69.050048828125 121.2957763671875 162.20518493652344 124.58653259277344" stroke-width="2" fill="none" stroke="rgb(0, 0, 0)" stroke-opacity="1.0" stroke-linecap="round" stroke-linejoin="round"/>
    <path d="M 165.62966918945312 104.3128433227539 C 137.54539489746094 108.81222534179688 181.1871795654297 90.1776351928711 98.94686126708984 95.44454956054688" stroke-width="2" fill="none" stroke="rgb(0, 0, 0)" stroke-opacity="1.0" stroke-linecap="round" stroke-linejoin="round"/>
    <path d="M 104.84490966796875 106.41974639892578 C 64.34375 125.63475799560547 103.09475708007812 93.41961669921875 100.06629180908203 74.82011413574219" stroke-width="2" fill="none" stroke="rgb(0, 0, 0)" stroke-opacity="1.0" stroke-linecap="round" stroke-linejoin="round"/>
    <path d="M 81.916015625 108.64659118652344 C 129.0949249267578 86.49407196044922 95.17350769042969 132.3952178955078 134.91207885742188 108.25652313232422" stroke-width="2" fill="none" stroke="rgb(0, 0, 0)" stroke-opacity="1.0" stroke-linecap="round" stroke-linejoin="round"/>
    <path d="M 59.259376525878906 96.87080383300781 C -14.005966186523438 158.20645141601562 109.20851135253906 164.4728240966797 102.86268615722656 161.19688415527344" stroke-width="2" fill="none" stroke="rgb(0, 0, 0)" stroke-opacity="1.0" stroke-linecap="round" stroke-linejoin="round"/>
    <path d="M 55.65222930908203 132.40260314941406 C 160.08306884765625 171.50653076171875 212.0613555908203 121.03499603271484 108.1853256225586 128.9676513671875" stroke-width="2" fill="none" stroke="rgb(0, 0, 0)" stroke-opacity="1.0" stroke-linecap="round" stroke-linejoin="round"/>
    <path d="M 137.24916076660156 119.1859130859375 C 153.28359985351562 109.96345520019531 94.15042877197266 102.8332290649414 133.74169921875 128.9231719970703" stroke-width="2" fill="none" stroke="rgb(0, 0, 0)" stroke-opacity="1.0" stroke-linecap="round" stroke-linejoin="round"/>
    <path d="M 186.0491485595703 90.55298614501953 C 200.54002380371094 37.52743148803711 163.83595275878906 107.08027648925781 152.19651794433594 99.5316390991211" stroke-width="2" fill="none" stroke="rgb(0, 0, 0)" stroke-opacity="1.0" stroke-linecap="round" stroke-linejoin="round"/>
    <path d="M 152.3946075439453 125.87224578857422 C 189.69296264648438 114.82708740234375 155.41940307617188 106.6207275390625 181.40867614746094 99.88729095458984" stroke-width="2" fill="none" stroke="rgb(0, 0, 0)" stroke-opacity="1.0" stroke-linecap="round" stroke-linejoin="round"/>
    <path d="M 163.16172790527344 148.95428466796875 C 51.743709564208984 167.72311401367188 37.414432525634766 130.24691772460938 58.56086730957031 146.76051330566406" stroke-width="2" fill="none" stroke="rgb(0, 0, 0)" stroke-opacity="1.0" stroke-linecap="round" stroke-linejoin="round"/>
    <path d="M 142.1584014892578 148.38987731933594 C 120.29425048828125 127.21092987060547 203.46755981445312 151.80775451660156 130.99374389648438 136.6700897216797" stroke-width="2" fill="none" stroke="rgb(0, 0, 0)" stroke-opacity="1.0" stroke-linecap="round" stroke-linejoin="round"/>
    <path d="M 154.1231689453125 114.7507553100586 C 191.54470825195312 120.36767578125 120.7410659790039 135.8894500732422 159.79486083984375 122.94284057617188" stroke-width="2" fill="none" stroke="rgb(0, 0, 0)" stroke-opacity="1.0" stroke-linecap="round" stroke-linejoin="round"/>
    <path d="M 116.22237396240234 130.1098175048828 C 143.5723419189453 130.716064453125 106.65486907958984 97.79156494140625 117.77754974365234 134.73243713378906" stroke-width="2" fill="none" stroke="rgb(0, 0, 0)" stroke-opacity="1.0" stroke-linecap="round" stroke-linejoin="round"/>
    <path d="M 107.214111328125 150.94134521484375 C 45.29311752319336 154.3967742919922 6.152207374572754 138.50540161132812 94.19987487792969 160.61984252929688" stroke-width="2" fill="none" stroke="rgb(0, 0, 0)" stroke-opacity="1.0" stroke-linecap="round" stroke-linejoin="round"/>
  </g>
</svg>
