<?xml version="1.0" ?>
<svg xmlns="http://www.w3.org/2000/svg" version="1.1" width="224" height="224">
  <defs/>
  <g>
    <path d="M 104.154541015625 82.4000473022461 C 121.95867156982422 125.69406127929688 62.58597946166992 64.27713775634766 41.33042907714844 131.74905395507812" stroke-width="2" fill="none" stroke="rgb(0, 0, 0)" stroke-opacity="1.0" stroke-linecap="round" stroke-linejoin="round"/>
    <path d="M 151.76361083984375 136.12962341308594 C 195.73556518554688 114.21037292480469 190.92056274414062 178.55516052246094 52.97168731689453 126.48704528808594" stroke-width="2" fill="none" stroke="rgb(0, 0, 0)" stroke-opacity="1.0" stroke-linecap="round" stroke-linejoin="round"/>
    <path d="M 58.85135269165039 102.89505767822266 C 121.42491912841797 76.38829040527344 104.82198333740234 142.89956665039062 153.12693786621094 131.73590087890625" stroke-width="2" fill="none" stroke="rgb(0, 0, 0)" stroke-opacity="1.0" stroke-linecap="round" stroke-linejoin="round"/>
    <path d="M 108.39109802246094 118.0640640258789 C 114.66534423828125 98.7535629272461 106.52320861816406 138.11863708496094 108.00871276855469 102.2685317993164" stroke-width="2" fill="none" stroke="rgb(0, 0, 0)" stroke-opacity="1.0" stroke-linecap="round" stroke-linejoin="round"/>
    <path d="M 120.96455383300781 102.91407012939453 C 162.07638549804688 91.81570434570312 108.69278717041016 96.57312774658203 138.6893768310547 100.46508026123047" stroke-width="2" fill="none" stroke="rgb(0, 0, 0)" stroke-opacity="1.0" stroke-linecap="round" stroke-linejoin="round"/>
    <path d="M 119.76448822021484 117.92945098876953 C 221.46902465820312 140.0104217529297 119.68962097167969 106.77002716064453 166.39390563964844 117.18795013427734" stroke-width="2" fill="none" stroke="rgb(0, 0, 0)" stroke-opacity="1.0" stroke-linecap="round" stroke-linejoin="round"/>
    <path d="M 49.481788635253906 136.53988647460938 C 30.235055923461914 157.78948974609375 185.62478637695312 156.43585205078125 166.76385498046875 147.7113494873047" stroke-width="2" fill="none" stroke="rgb(0, 0, 0)" stroke-opacity="1.0" stroke-linecap="round" stroke-linejoin="round"/>
    <path d="M 134.5900115966797 107.67585754394531 C 45.813289642333984 109.58218383789062 99.5578842163086 123.79230499267578 114.37774658203125 78.6904296875" stroke-width="2" fill="none" stroke="rgb(0, 0, 0)" stroke-opacity="1.0" stroke-linecap="round" stroke-linejoin="round"/>
    <path d="M 89.77140045166016 140.51072692871094 C 239.429931640625 146.4364471435547 137.7919158935547 163.7715606689453 76.0206298828125 132.75491333007812" stroke-width="2" fill="none" stroke="rgb(0, 0, 0)" stroke-opacity="1.0" stroke-linecap="round" stroke-linejoin="round"/>
    <path d="M 182.95654296875 99.85234832763672 C 207.28085327148438 28.649402618408203 168.00758361816406 107.6193618774414 151.70999145507812 82.96887969970703" stroke-width="2" fill="none" stroke="rgb(0, 0, 0)" stroke-opacity="1.0" stroke-linecap="round" stroke-linejoin="round"/>
    <path d="M 119.44711303710938 100.23088836669922 C 195.6428985595703 132.9866943359375 171.17190551757812 67.5757064819336 136.91378784179688 88.2914047241211" stroke-width="2" fill="none" stroke="rgb(0, 0, 0)" stroke-opacity="1.0" stroke-linecap="round" stroke-linejoin="round"/>
    <path d="M 147.4395751953125 122.83633422851562 C 124.67513275146484 128.06790161132812 60.194786071777344 77.06430053710938 48.10195541381836 122.40673828125" stroke-width="2" fill="none" stroke="rgb(0, 0, 0)" stroke-opacity="1.0" stroke-linecap="round" stroke-linejoin="round"/>
    <path d="M 165.57464599609375 114.12663269042969 C 171.21524047851562 92.89517211914062 122.38682556152344 101.47773742675781 163.41468811035156 109.35272979736328" stroke-width="2" fill="none" stroke="rgb(0, 0, 0)" stroke-opacity="1.0" stroke-linecap="round" stroke-linejoin="round"/>
    <path d="M 171.0668182373047 103.33981323242188 C 200.6056671142578 73.63339233398438 141.9284210205078 123.94438171386719 161.80799865722656 125.4475326538086" stroke-width="2" fill="none" stroke="rgb(0, 0, 0)" stroke-opacity="1.0" stroke-linecap="round" stroke-linejoin="round"/>
    <path d="M 105.9346923828125 81.30913543701172 C 135.05856323242188 65.96829223632812 111.7079849243164 90.38029479980469 151.7034454345703 82.97291564941406" stroke-width="2" fill="none" stroke="rgb(0, 0, 0)" stroke-opacity="1.0" stroke-linecap="round" stroke-linejoin="round"/>
    <path d="M 62.16486740112305 147.6015625 C 20.49925994873047 109.92838287353516 56.00348663330078 118.6831283569336 136.0491180419922 126.4977798461914" stroke-width="2" fill="none" stroke="rgb(0, 0, 0)" stroke-opacity="1.0" stroke-linecap="round" stroke-linejoin="round"/>
  </g>
</svg>
