<?xml version="1.0" ?>
<svg xmlns="http://www.w3.org/2000/svg" version="1.1" width="224" height="224">
  <defs/>
  <g>
    <path d="M 110.12797546386719 84.21935272216797 C 154.2417755126953 109.51551055908203 55.9957389831543 79.4246597290039 58.53193664550781 124.31686401367188" stroke-width="2" fill="none" stroke="rgb(0, 0, 0)" stroke-opacity="1.0" stroke-linecap="round" stroke-linejoin="round"/>
    <path d="M 101.4172134399414 132.2174530029297 C 208.9862060546875 137.54397583007812 132.26046752929688 164.3291015625 82.30457305908203 128.63499450683594" stroke-width="2" fill="none" stroke="rgb(0, 0, 0)" stroke-opacity="1.0" stroke-linecap="round" stroke-linejoin="round"/>
    <path d="M 151.18231201171875 95.18547058105469 C 116.35609436035156 83.76210021972656 102.38763427734375 144.46653747558594 160.09310913085938 130.67030334472656" stroke-width="2" fill="none" stroke="rgb(0, 0, 0)" stroke-opacity="1.0" stroke-linecap="round" stroke-linejoin="round"/>
    <path d="M 153.33731079101562 95.94931030273438 C 194.45237731933594 48.98771286010742 193.50503540039062 96.03374481201172 167.90101623535156 125.06537628173828" stroke-width="2" fill="none" stroke="rgb(0, 0, 0)" stroke-opacity="1.0" stroke-linecap="round" stroke-linejoin="round"/>
    <path d="M 105.68524169921875 74.80779266357422 C 111.14912414550781 109.00361633300781 121.99311065673828 72.93660736083984 155.44769287109375 88.89099884033203" stroke-width="2" fill="none" stroke="rgb(0, 0, 0)" stroke-opacity="1.0" stroke-linecap="round" stroke-linejoin="round"/>
    <path d="M 103.17796325683594 83.85803985595703 C 102.56460571289062 113.90391540527344 90.85981750488281 94.24424743652344 92.50013732910156 113.01041412353516" stroke-width="2" fill="none" stroke="rgb(0, 0, 0)" stroke-opacity="1.0" stroke-linecap="round" stroke-linejoin="round"/>
    <path d="M 37.14248275756836 143.33094787597656 C 40.35000991821289 155.85731506347656 95.53881072998047 156.42547607421875 120.79620361328125 155.04782104492188" stroke-width="2" fill="none" stroke="rgb(0, 0, 0)" stroke-opacity="1.0" stroke-linecap="round" stroke-linejoin="round"/>
    <path d="M 57.37241744995117 143.9818878173828 C 208.72308349609375 163.39614868164062 189.5823974609375 145.72813415527344 84.60149383544922 143.67628479003906" stroke-width="2" fill="none" stroke="rgb(0, 0, 0)" stroke-opacity="1.0" stroke-linecap="round" stroke-linejoin="round"/>
    <path d="M 100.14732360839844 117.0539779663086 C 150.58531188964844 118.43412780761719 138.6570281982422 120.08389282226562 119.3525390625 136.1094512939453" stroke-width="2" fill="none" stroke="rgb(0, 0, 0)" stroke-opacity="1.0" stroke-linecap="round" stroke-linejoin="round"/>
    <path d="M 183.41746520996094 76.2293930053711 C 197.2169952392578 31.145172119140625 155.62635803222656 95.68155670166016 180.02847290039062 104.48047637939453" stroke-width="2" fill="none" stroke="rgb(0, 0, 0)" stroke-opacity="1.0" stroke-linecap="round" stroke-linejoin="round"/>
    <path d="M 153.5861053466797 126.27080535888672 C 188.63352966308594 116.58397674560547 175.0181121826172 159.17613220214844 136.69479370117188 152.24978637695312" stroke-width="2" fill="none" stroke="rgb(0, 0, 0)" stroke-opacity="1.0" stroke-linecap="round" stroke-linejoin="round"/>
    <path d="M 148.65440368652344 155.04391479492188 C 46.99651336669922 151.79371643066406 48.98180389404297 134.1556854248047 74.20074462890625 144.8656005859375" stroke-width="2" fill="none" stroke="rgb(0, 0, 0)" stroke-opacity="1.0" stroke-linecap="round" stroke-linejoin="round"/>
    <path d="M 156.84783935546875 117.89852905273438 C 115.44334411621094 117.04375457763672 215.76699829101562 132.79974365234375 114.7791976928711 130.01422119140625" stroke-width="2" fill="none" stroke="rgb(0, 0, 0)" stroke-opacity="1.0" stroke-linecap="round" stroke-linejoin="round"/>
    <path d="M 175.79151916503906 78.45972442626953 C 172.37759399414062 106.6717300415039 139.59425354003906 65.44316864013672 165.41253662109375 105.81571197509766" stroke-width="2" fill="none" stroke="rgb(0, 0, 0)" stroke-opacity="1.0" stroke-linecap="round" stroke-linejoin="round"/>
    <path d="M 106.87090301513672 100.71223449707031 C 127.26095581054688 113.91045379638672 115.14739227294922 105.4505844116211 95.42023468017578 108.21906280517578" stroke-width="2" fill="none" stroke="rgb(0, 0, 0)" stroke-opacity="1.0" stroke-linecap="round" stroke-linejoin="round"/>
    <path d="M 90.56180572509766 109.79248809814453 C 57.098716735839844 81.17597961425781 9.714513778686523 148.57623291015625 79.11375427246094 156.3440399169922" stroke-width="2" fill="none" stroke="rgb(0, 0, 0)" stroke-opacity="1.0" stroke-linecap="round" stroke-linejoin="round"/>
  </g>
</svg>
