<?xml version="1.0" ?>
<svg xmlns="http://www.w3.org/2000/svg" version="1.1" width="224" height="224">
  <defs/>
  <g>
    <path d="M 121.33038330078125 95.9799575805664 C 95.41229248046875 133.6215057373047 72.1232681274414 82.90499114990234 50.280765533447266 108.49415588378906" stroke-width="2" fill="none" stroke="rgb(0, 0, 0)" stroke-opacity="1.0" stroke-linecap="round" stroke-linejoin="round"/>
    <path d="M 140.88723754882812 132.25375366210938 C 201.45053100585938 119.693115234375 205.75390625 185.70526123046875 46.24527359008789 133.03172302246094" stroke-width="2" fill="none" stroke="rgb(0, 0, 0)" stroke-opacity="1.0" stroke-linecap="round" stroke-linejoin="round"/>
    <path d="M 134.43020629882812 105.81291961669922 C 213.26614379882812 106.43415069580078 129.9196014404297 127.87371063232422 165.04318237304688 123.70204162597656" stroke-width="2" fill="none" stroke="rgb(0, 0, 0)" stroke-opacity="1.0" stroke-linecap="round" stroke-linejoin="round"/>
    <path d="M 145.56248474121094 113.48709869384766 C 210.8919219970703 127.2555160522461 135.82266235351562 69.65157318115234 178.22225952148438 70.3553237915039" stroke-width="2" fill="none" stroke="rgb(0, 0, 0)" stroke-opacity="1.0" stroke-linecap="round" stroke-linejoin="round"/>
    <path d="M 94.2463607788086 133.77268981933594 C 222.22222900390625 153.4977569580078 110.63081359863281 155.58203125 163.10708618164062 150.9950408935547" stroke-width="2" fill="none" stroke="rgb(0, 0, 0)" stroke-opacity="1.0" stroke-linecap="round" stroke-linejoin="round"/>
    <path d="M 173.00067138671875 130.12049865722656 C 184.13995361328125 99.98202514648438 134.4053497314453 99.87641143798828 162.7050323486328 135.5799560546875" stroke-width="2" fill="none" stroke="rgb(0, 0, 0)" stroke-opacity="1.0" stroke-linecap="round" stroke-linejoin="round"/>
    <path d="M 60.636199951171875 104.55157470703125 C -8.17866039276123 172.29263305664062 186.76846313476562 157.17813110351562 145.7754669189453 157.90492248535156" stroke-width="2" fill="none" stroke="rgb(0, 0, 0)" stroke-opacity="1.0" stroke-linecap="round" stroke-linejoin="round"/>
    <path d="M 130.90052795410156 138.01950073242188 C 79.50807189941406 120.90692138671875 154.2041473388672 87.90343475341797 121.22554016113281 113.02384185791016" stroke-width="2" fill="none" stroke="rgb(0, 0, 0)" stroke-opacity="1.0" stroke-linecap="round" stroke-linejoin="round"/>
    <path d="M 157.09835815429688 145.88238525390625 C 220.87550354003906 124.56468200683594 92.90575408935547 132.73406982421875 133.96160888671875 117.756591796875" stroke-width="2" fill="none" stroke="rgb(0, 0, 0)" stroke-opacity="1.0" stroke-linecap="round" stroke-linejoin="round"/>
    <path d="M 164.47984313964844 83.7356185913086 C 212.8332977294922 29.566207885742188 169.59829711914062 97.40254974365234 186.02008056640625 71.22317504882812" stroke-width="2" fill="none" stroke="rgb(0, 0, 0)" stroke-opacity="1.0" stroke-linecap="round" stroke-linejoin="round"/>
    <path d="M 131.99514770507812 126.30597686767578 C 174.580322265625 149.11578369140625 187.967529296875 57.647701263427734 133.6829833984375 85.85267639160156" stroke-width="2" fill="none" stroke="rgb(0, 0, 0)" stroke-opacity="1.0" stroke-linecap="round" stroke-linejoin="round"/>
    <path d="M 64.43717193603516 108.8324203491211 C 160.84324645996094 88.0661849975586 101.69404602050781 136.86280822753906 131.57623291015625 133.6393280029297" stroke-width="2" fill="none" stroke="rgb(0, 0, 0)" stroke-opacity="1.0" stroke-linecap="round" stroke-linejoin="round"/>
    <path d="M 75.59507751464844 142.19338989257812 C 143.53445434570312 159.44491577148438 43.28672409057617 125.8876953125 115.59052276611328 153.2146453857422" stroke-width="2" fill="none" stroke="rgb(0, 0, 0)" stroke-opacity="1.0" stroke-linecap="round" stroke-linejoin="round"/>
    <path d="M 148.37806701660156 122.71830749511719 C 167.40467834472656 102.70247650146484 170.0449676513672 144.1587677001953 144.02072143554688 105.01567840576172" stroke-width="2" fill="none" stroke="rgb(0, 0, 0)" stroke-opacity="1.0" stroke-linecap="round" stroke-linejoin="round"/>
    <path d="M 107.2292709350586 103.337890625 C 104.25592041015625 32.69245910644531 128.5826873779297 98.51146697998047 141.10406494140625 84.85701751708984" stroke-width="2" fill="none" stroke="rgb(0, 0, 0)" stroke-opacity="1.0" stroke-linecap="round" stroke-linejoin="round"/>
    <path d="M 54.54831314086914 123.5814437866211 C 36.22220230102539 91.36415100097656 101.74945068359375 117.15701293945312 87.75747680664062 124.99263763427734" stroke-width="2" fill="none" stroke="rgb(0, 0, 0)" stroke-opacity="1.0" stroke-linecap="round" stroke-linejoin="round"/>
  </g>
</svg>
