<?xml version="1.0" ?>
<svg xmlns="http://www.w3.org/2000/svg" version="1.1" width="224" height="224">
  <defs/>
  <g>
    <path d="M 100.14225769042969 75.8331298828125 C 108.66200256347656 127.41197204589844 62.82986831665039 74.78620910644531 39.61391067504883 128.94158935546875" stroke-width="2" fill="none" stroke="rgb(0, 0, 0)" stroke-opacity="1.0" stroke-linecap="round" stroke-linejoin="round"/>
    <path d="M 169.548095703125 128.34213256835938 C 168.09365844726562 116.58267211914062 203.0496826171875 185.26681518554688 75.1811752319336 135.86868286132812" stroke-width="2" fill="none" stroke="rgb(0, 0, 0)" stroke-opacity="1.0" stroke-linecap="round" stroke-linejoin="round"/>
    <path d="M 69.19773864746094 100.5831298828125 C 149.43890380859375 81.2068099975586 80.2064208984375 138.9059295654297 147.46482849121094 136.86184692382812" stroke-width="2" fill="none" stroke="rgb(0, 0, 0)" stroke-opacity="1.0" stroke-linecap="round" stroke-linejoin="round"/>
    <path d="M 103.80352783203125 93.24980926513672 C 111.079833984375 59.63088607788086 61.58934020996094 144.12432861328125 152.63638305664062 116.51504516601562" stroke-width="2" fill="none" stroke="rgb(0, 0, 0)" stroke-opacity="1.0" stroke-linecap="round" stroke-linejoin="round"/>
    <path d="M 119.57054138183594 108.60990905761719 C 170.98501586914062 107.82927703857422 105.11442565917969 109.073974609375 137.43670654296875 116.16903686523438" stroke-width="2" fill="none" stroke="rgb(0, 0, 0)" stroke-opacity="1.0" stroke-linecap="round" stroke-linejoin="round"/>
    <path d="M 147.11866760253906 103.67447662353516 C 211.51339721679688 109.26771545410156 151.08937072753906 100.22981262207031 170.2632293701172 124.48326110839844" stroke-width="2" fill="none" stroke="rgb(0, 0, 0)" stroke-opacity="1.0" stroke-linecap="round" stroke-linejoin="round"/>
    <path d="M 40.04795455932617 127.76705169677734 C 32.026588439941406 171.7421112060547 197.01185607910156 167.97079467773438 160.38543701171875 140.58401489257812" stroke-width="2" fill="none" stroke="rgb(0, 0, 0)" stroke-opacity="1.0" stroke-linecap="round" stroke-linejoin="round"/>
    <path d="M 140.18707275390625 118.9811019897461 C 100.90257263183594 109.07154846191406 169.71441650390625 103.15033721923828 114.08447265625 108.23578643798828" stroke-width="2" fill="none" stroke="rgb(0, 0, 0)" stroke-opacity="1.0" stroke-linecap="round" stroke-linejoin="round"/>
    <path d="M 115.96646118164062 140.6337127685547 C 247.6252899169922 147.91322326660156 126.71468353271484 165.0839385986328 88.42583465576172 110.68862915039062" stroke-width="2" fill="none" stroke="rgb(0, 0, 0)" stroke-opacity="1.0" stroke-linecap="round" stroke-linejoin="round"/>
    <path d="M 184.8114776611328 89.5888442993164 C 191.75624084472656 27.274982452392578 168.47784423828125 89.78712463378906 154.5089874267578 80.917724609375" stroke-width="2" fill="none" stroke="rgb(0, 0, 0)" stroke-opacity="1.0" stroke-linecap="round" stroke-linejoin="round"/>
    <path d="M 120.83970642089844 121.8267822265625 C 183.27197265625 167.3119659423828 168.7156524658203 64.9438705444336 134.0798797607422 83.40998077392578" stroke-width="2" fill="none" stroke="rgb(0, 0, 0)" stroke-opacity="1.0" stroke-linecap="round" stroke-linejoin="round"/>
    <path d="M 99.13057708740234 105.26892852783203 C 85.78308868408203 152.57440185546875 40.34782028198242 79.74121856689453 42.85198211669922 134.16326904296875" stroke-width="2" fill="none" stroke="rgb(0, 0, 0)" stroke-opacity="1.0" stroke-linecap="round" stroke-linejoin="round"/>
    <path d="M 140.05197143554688 120.26844024658203 C 181.5335235595703 126.07382202148438 117.18997192382812 120.08452606201172 149.27267456054688 134.9447784423828" stroke-width="2" fill="none" stroke="rgb(0, 0, 0)" stroke-opacity="1.0" stroke-linecap="round" stroke-linejoin="round"/>
    <path d="M 182.70822143554688 69.334228515625 C 185.2206268310547 67.75408935546875 163.8234405517578 124.83447265625 167.55642700195312 98.09561157226562" stroke-width="2" fill="none" stroke="rgb(0, 0, 0)" stroke-opacity="1.0" stroke-linecap="round" stroke-linejoin="round"/>
    <path d="M 99.22016906738281 64.95669555664062 C 124.63609313964844 57.435665130615234 113.08406066894531 80.96934509277344 135.1871337890625 80.41446685791016" stroke-width="2" fill="none" stroke="rgb(0, 0, 0)" stroke-opacity="1.0" stroke-linecap="round" stroke-linejoin="round"/>
    <path d="M 77.00823211669922 153.45541381835938 C 16.09066390991211 112.32764434814453 39.15324020385742 136.063720703125 111.01957702636719 151.42422485351562" stroke-width="2" fill="none" stroke="rgb(0, 0, 0)" stroke-opacity="1.0" stroke-linecap="round" stroke-linejoin="round"/>
  </g>
</svg>
