<?xml version="1.0" ?>
<svg xmlns="http://www.w3.org/2000/svg" version="1.1" width="224" height="224">
  <defs/>
  <g>
    <path d="M 107.3228530883789 90.40569305419922 C 151.0679473876953 107.28263092041016 56.305747985839844 74.00727844238281 48.78370666503906 119.2073974609375" stroke-width="2" fill="none" stroke="rgb(0, 0, 0)" stroke-opacity="1.0" stroke-linecap="round" stroke-linejoin="round"/>
    <path d="M 93.29991912841797 128.13902282714844 C 214.3070831298828 129.57862854003906 134.03074645996094 162.01766967773438 94.52510070800781 127.54476928710938" stroke-width="2" fill="none" stroke="rgb(0, 0, 0)" stroke-opacity="1.0" stroke-linecap="round" stroke-linejoin="round"/>
    <path d="M 146.2081756591797 98.35298919677734 C 120.59993743896484 84.16323852539062 103.62468719482422 148.30636596679688 159.76492309570312 126.62175750732422" stroke-width="2" fill="none" stroke="rgb(0, 0, 0)" stroke-opacity="1.0" stroke-linecap="round" stroke-linejoin="round"/>
    <path d="M 156.6231231689453 95.43085479736328 C 186.47325134277344 47.546260833740234 179.02044677734375 90.5048828125 167.15277099609375 131.69798278808594" stroke-width="2" fill="none" stroke="rgb(0, 0, 0)" stroke-opacity="1.0" stroke-linecap="round" stroke-linejoin="round"/>
    <path d="M 106.58039093017578 78.99571990966797 C 112.67555236816406 119.24028778076172 129.74673461914062 84.7093505859375 154.6227569580078 96.31341552734375" stroke-width="2" fill="none" stroke="rgb(0, 0, 0)" stroke-opacity="1.0" stroke-linecap="round" stroke-linejoin="round"/>
    <path d="M 99.80992126464844 79.55250549316406 C 91.01416015625 115.09608459472656 77.48713684082031 94.46931457519531 86.25230407714844 117.66129302978516" stroke-width="2" fill="none" stroke="rgb(0, 0, 0)" stroke-opacity="1.0" stroke-linecap="round" stroke-linejoin="round"/>
    <path d="M 41.04741287231445 145.5333709716797 C 45.61429977416992 157.66285705566406 93.91755676269531 157.79808044433594 118.88153076171875 155.25172424316406" stroke-width="2" fill="none" stroke="rgb(0, 0, 0)" stroke-opacity="1.0" stroke-linecap="round" stroke-linejoin="round"/>
    <path d="M 49.50731658935547 151.8279266357422 C 208.18971252441406 166.77854919433594 189.12599182128906 145.63233947753906 86.00078582763672 142.8953399658203" stroke-width="2" fill="none" stroke="rgb(0, 0, 0)" stroke-opacity="1.0" stroke-linecap="round" stroke-linejoin="round"/>
    <path d="M 100.91172790527344 118.78370666503906 C 156.10134887695312 115.53911590576172 146.39730834960938 123.48980712890625 117.80052947998047 123.46194458007812" stroke-width="2" fill="none" stroke="rgb(0, 0, 0)" stroke-opacity="1.0" stroke-linecap="round" stroke-linejoin="round"/>
    <path d="M 185.312255859375 81.31748962402344 C 194.7706298828125 18.443431854248047 156.06129455566406 88.6540756225586 178.8648681640625 106.30587768554688" stroke-width="2" fill="none" stroke="rgb(0, 0, 0)" stroke-opacity="1.0" stroke-linecap="round" stroke-linejoin="round"/>
    <path d="M 162.75022888183594 132.2822723388672 C 192.97845458984375 122.63774108886719 177.6100311279297 159.73165893554688 128.22683715820312 154.8340301513672" stroke-width="2" fill="none" stroke="rgb(0, 0, 0)" stroke-opacity="1.0" stroke-linecap="round" stroke-linejoin="round"/>
    <path d="M 147.5009307861328 150.5715789794922 C 53.5824089050293 143.53079223632812 51.27906036376953 129.1533966064453 77.92118072509766 140.29296875" stroke-width="2" fill="none" stroke="rgb(0, 0, 0)" stroke-opacity="1.0" stroke-linecap="round" stroke-linejoin="round"/>
    <path d="M 156.79457092285156 119.79105377197266 C 116.45014953613281 114.97688293457031 213.9657745361328 139.44979858398438 119.47476959228516 138.83602905273438" stroke-width="2" fill="none" stroke="rgb(0, 0, 0)" stroke-opacity="1.0" stroke-linecap="round" stroke-linejoin="round"/>
    <path d="M 170.58847045898438 73.02719116210938 C 173.83004760742188 118.18688201904297 136.6651153564453 69.49958801269531 163.17745971679688 107.4426040649414" stroke-width="2" fill="none" stroke="rgb(0, 0, 0)" stroke-opacity="1.0" stroke-linecap="round" stroke-linejoin="round"/>
    <path d="M 106.8671646118164 93.13736724853516 C 116.05650329589844 110.04366302490234 108.55278015136719 103.99493408203125 97.81002807617188 104.60955047607422" stroke-width="2" fill="none" stroke="rgb(0, 0, 0)" stroke-opacity="1.0" stroke-linecap="round" stroke-linejoin="round"/>
    <path d="M 85.86577606201172 110.18281555175781 C 50.08648681640625 80.34564208984375 -2.0999350547790527 149.36695861816406 74.11466217041016 154.09320068359375" stroke-width="2" fill="none" stroke="rgb(0, 0, 0)" stroke-opacity="1.0" stroke-linecap="round" stroke-linejoin="round"/>
  </g>
</svg>
