<?xml version="1.0" ?>
<svg xmlns="http://www.w3.org/2000/svg" version="1.1" width="224" height="224">
  <defs/>
  <g>
    <path d="M 108.38520812988281 72.10157012939453 C 151.79969787597656 143.1217498779297 66.5108871459961 79.23887634277344 62.53605270385742 126.38866424560547" stroke-width="2" fill="none" stroke="rgb(0, 0, 0)" stroke-opacity="1.0" stroke-linecap="round" stroke-linejoin="round"/>
    <path d="M 125.74150848388672 133.2070770263672 C 201.6913604736328 126.29725646972656 200.50877380371094 191.53651428222656 71.13906860351562 140.6990509033203" stroke-width="2" fill="none" stroke="rgb(0, 0, 0)" stroke-opacity="1.0" stroke-linecap="round" stroke-linejoin="round"/>
    <path d="M 74.13716125488281 135.034912109375 C 87.9228515625 115.89635467529297 64.59188842773438 148.5643768310547 143.92906188964844 130.51173400878906" stroke-width="2" fill="none" stroke="rgb(0, 0, 0)" stroke-opacity="1.0" stroke-linecap="round" stroke-linejoin="round"/>
    <path d="M 156.37493896484375 88.5026626586914 C 129.10337829589844 88.26078796386719 180.34239196777344 114.59590911865234 120.19397735595703 106.18892669677734" stroke-width="2" fill="none" stroke="rgb(0, 0, 0)" stroke-opacity="1.0" stroke-linecap="round" stroke-linejoin="round"/>
    <path d="M 110.05943298339844 113.28043365478516 C 88.48677062988281 94.16941833496094 107.47366333007812 107.08601379394531 109.01106262207031 69.96514892578125" stroke-width="2" fill="none" stroke="rgb(0, 0, 0)" stroke-opacity="1.0" stroke-linecap="round" stroke-linejoin="round"/>
    <path d="M 112.41304779052734 127.47315979003906 C 146.2870330810547 119.71605682373047 86.4754867553711 116.6281967163086 115.57124328613281 134.26829528808594" stroke-width="2" fill="none" stroke="rgb(0, 0, 0)" stroke-opacity="1.0" stroke-linecap="round" stroke-linejoin="round"/>
    <path d="M 68.35396575927734 106.7404556274414 C -4.5258283615112305 163.09620666503906 150.47254943847656 142.42686462402344 129.99696350097656 152.06161499023438" stroke-width="2" fill="none" stroke="rgb(0, 0, 0)" stroke-opacity="1.0" stroke-linecap="round" stroke-linejoin="round"/>
    <path d="M 85.38373565673828 139.6356964111328 C 180.43722534179688 184.70619201660156 194.2489471435547 136.2353057861328 164.14181518554688 134.90293884277344" stroke-width="2" fill="none" stroke="rgb(0, 0, 0)" stroke-opacity="1.0" stroke-linecap="round" stroke-linejoin="round"/>
    <path d="M 114.59632110595703 119.29385375976562 C 136.67794799804688 123.84550476074219 123.89405822753906 114.32830810546875 136.2207489013672 107.14636993408203" stroke-width="2" fill="none" stroke="rgb(0, 0, 0)" stroke-opacity="1.0" stroke-linecap="round" stroke-linejoin="round"/>
    <path d="M 175.4876251220703 99.20011901855469 C 204.62306213378906 25.26256561279297 141.1774444580078 117.9195785522461 164.00558471679688 82.80953216552734" stroke-width="2" fill="none" stroke="rgb(0, 0, 0)" stroke-opacity="1.0" stroke-linecap="round" stroke-linejoin="round"/>
    <path d="M 123.01026153564453 112.92780303955078 C 190.64535522460938 136.13897705078125 159.64671325683594 73.54122924804688 120.11798858642578 92.02969360351562" stroke-width="2" fill="none" stroke="rgb(0, 0, 0)" stroke-opacity="1.0" stroke-linecap="round" stroke-linejoin="round"/>
    <path d="M 150.39212036132812 156.75326538085938 C 34.787689208984375 158.6173553466797 79.73233795166016 124.80475616455078 77.34822845458984 136.65866088867188" stroke-width="2" fill="none" stroke="rgb(0, 0, 0)" stroke-opacity="1.0" stroke-linecap="round" stroke-linejoin="round"/>
    <path d="M 157.0335693359375 99.61336517333984 C 113.8685073852539 103.31981658935547 192.61691284179688 111.69071960449219 131.60577392578125 111.69978332519531" stroke-width="2" fill="none" stroke="rgb(0, 0, 0)" stroke-opacity="1.0" stroke-linecap="round" stroke-linejoin="round"/>
    <path d="M 119.17110443115234 133.35220336914062 C 193.1488800048828 165.08311462402344 167.87469482421875 97.32532501220703 147.6732635498047 109.14111328125" stroke-width="2" fill="none" stroke="rgb(0, 0, 0)" stroke-opacity="1.0" stroke-linecap="round" stroke-linejoin="round"/>
    <path d="M 166.14596557617188 102.45450592041016 C 165.0211944580078 155.97512817382812 119.52652740478516 113.5483627319336 136.16664123535156 105.24545288085938" stroke-width="2" fill="none" stroke="rgb(0, 0, 0)" stroke-opacity="1.0" stroke-linecap="round" stroke-linejoin="round"/>
    <path d="M 99.5452651977539 163.99281311035156 C 44.21158218383789 151.56130981445312 33.807342529296875 131.4583282470703 80.83568572998047 143.5430450439453" stroke-width="2" fill="none" stroke="rgb(0, 0, 0)" stroke-opacity="1.0" stroke-linecap="round" stroke-linejoin="round"/>
  </g>
</svg>
