<?xml version="1.0" ?>
<svg xmlns="http://www.w3.org/2000/svg" version="1.1" width="224" height="224">
  <defs/>
  <g>
    <path d="M 118.2715072631836 74.64217376708984 C 139.6103973388672 111.15882873535156 49.82680130004883 84.7952880859375 52.96762466430664 118.59696960449219" stroke-width="2" fill="none" stroke="rgb(0, 0, 0)" stroke-opacity="1.0" stroke-linecap="round" stroke-linejoin="round"/>
    <path d="M 152.80580139160156 145.6763458251953 C 210.0567169189453 127.96217346191406 165.4651641845703 154.78536987304688 84.25576782226562 116.69355773925781" stroke-width="2" fill="none" stroke="rgb(0, 0, 0)" stroke-opacity="1.0" stroke-linecap="round" stroke-linejoin="round"/>
    <path d="M 114.99347686767578 98.4981918334961 C 117.80332946777344 119.37823486328125 94.0938949584961 87.3285140991211 131.57662963867188 117.26734161376953" stroke-width="2" fill="none" stroke="rgb(0, 0, 0)" stroke-opacity="1.0" stroke-linecap="round" stroke-linejoin="round"/>
    <path d="M 147.13470458984375 85.90457153320312 C 184.67257690429688 82.40187072753906 185.33172607421875 92.81023406982422 162.57162475585938 120.05474090576172" stroke-width="2" fill="none" stroke="rgb(0, 0, 0)" stroke-opacity="1.0" stroke-linecap="round" stroke-linejoin="round"/>
    <path d="M 120.63766479492188 71.1038589477539 C 121.82300567626953 99.38682556152344 137.33917236328125 70.13533020019531 152.42831420898438 88.4580078125" stroke-width="2" fill="none" stroke="rgb(0, 0, 0)" stroke-opacity="1.0" stroke-linecap="round" stroke-linejoin="round"/>
    <path d="M 97.41791534423828 92.60951232910156 C 97.06163024902344 119.5100326538086 92.01929473876953 82.98200225830078 102.04667663574219 105.58290100097656" stroke-width="2" fill="none" stroke="rgb(0, 0, 0)" stroke-opacity="1.0" stroke-linecap="round" stroke-linejoin="round"/>
    <path d="M 43.438106536865234 138.53738403320312 C 39.8850212097168 147.5120391845703 110.11387634277344 150.97645568847656 68.32626342773438 144.78271484375" stroke-width="2" fill="none" stroke="rgb(0, 0, 0)" stroke-opacity="1.0" stroke-linecap="round" stroke-linejoin="round"/>
    <path d="M 76.87039947509766 150.93478393554688 C 221.43978881835938 168.9698486328125 195.02589416503906 117.88150787353516 124.48139190673828 113.34451293945312" stroke-width="2" fill="none" stroke="rgb(0, 0, 0)" stroke-opacity="1.0" stroke-linecap="round" stroke-linejoin="round"/>
    <path d="M 144.59695434570312 115.32128143310547 C 147.86874389648438 113.42994689941406 166.80517578125 137.94471740722656 102.87861633300781 114.36309814453125" stroke-width="2" fill="none" stroke="rgb(0, 0, 0)" stroke-opacity="1.0" stroke-linecap="round" stroke-linejoin="round"/>
    <path d="M 183.80633544921875 93.30167388916016 C 201.2533721923828 40.41489028930664 155.05628967285156 87.37759399414062 173.62051391601562 109.46109771728516" stroke-width="2" fill="none" stroke="rgb(0, 0, 0)" stroke-opacity="1.0" stroke-linecap="round" stroke-linejoin="round"/>
    <path d="M 181.27049255371094 138.8941650390625 C 185.35121154785156 111.6402816772461 181.98423767089844 159.0933074951172 167.42251586914062 152.49349975585938" stroke-width="2" fill="none" stroke="rgb(0, 0, 0)" stroke-opacity="1.0" stroke-linecap="round" stroke-linejoin="round"/>
    <path d="M 90.66964721679688 152.5400848388672 C 25.9095458984375 158.01495361328125 -18.72472381591797 127.09358215332031 17.839494705200195 146.7293243408203" stroke-width="2" fill="none" stroke="rgb(0, 0, 0)" stroke-opacity="1.0" stroke-linecap="round" stroke-linejoin="round"/>
    <path d="M 119.54621124267578 92.72056579589844 C 136.48684692382812 110.3328628540039 151.0060577392578 86.93559265136719 138.46690368652344 97.49906158447266" stroke-width="2" fill="none" stroke="rgb(0, 0, 0)" stroke-opacity="1.0" stroke-linecap="round" stroke-linejoin="round"/>
    <path d="M 172.18699645996094 87.82169342041016 C 181.9564208984375 89.96185302734375 132.3724822998047 105.88516235351562 172.33734130859375 107.25910186767578" stroke-width="2" fill="none" stroke="rgb(0, 0, 0)" stroke-opacity="1.0" stroke-linecap="round" stroke-linejoin="round"/>
    <path d="M 118.00394439697266 78.34416198730469 C 117.53046417236328 122.76708984375 101.01374053955078 95.99995422363281 99.69657897949219 118.69589233398438" stroke-width="2" fill="none" stroke="rgb(0, 0, 0)" stroke-opacity="1.0" stroke-linecap="round" stroke-linejoin="round"/>
    <path d="M 80.94493865966797 105.46281433105469 C 63.99861526489258 85.18922424316406 14.636381149291992 142.5452880859375 60.250064849853516 150.53797912597656" stroke-width="2" fill="none" stroke="rgb(0, 0, 0)" stroke-opacity="1.0" stroke-linecap="round" stroke-linejoin="round"/>
  </g>
</svg>
