<?xml version="1.0" ?>
<svg xmlns="http://www.w3.org/2000/svg" version="1.1" width="224" height="224">
  <defs/>
  <g>
    <path d="M 98.93284606933594 70.09686279296875 C 134.4812469482422 118.7584228515625 55.22016906738281 77.105224609375 57.986854553222656 106.26856231689453" stroke-width="2" fill="none" stroke="rgb(0, 0, 0)" stroke-opacity="1.0" stroke-linecap="round" stroke-linejoin="round"/>
    <path d="M 122.18882751464844 135.0903778076172 C 195.44561767578125 140.419921875 206.43910217285156 165.15036010742188 54.22929763793945 147.46102905273438" stroke-width="2" fill="none" stroke="rgb(0, 0, 0)" stroke-opacity="1.0" stroke-linecap="round" stroke-linejoin="round"/>
    <path d="M 87.19352722167969 116.16571807861328 C 139.7093963623047 107.33853912353516 73.51276397705078 158.34442138671875 165.35983276367188 135.28309631347656" stroke-width="2" fill="none" stroke="rgb(0, 0, 0)" stroke-opacity="1.0" stroke-linecap="round" stroke-linejoin="round"/>
    <path d="M 162.21641540527344 85.35353088378906 C 134.38365173339844 84.93236541748047 184.51275634765625 88.35443115234375 109.57730102539062 88.04169464111328" stroke-width="2" fill="none" stroke="rgb(0, 0, 0)" stroke-opacity="1.0" stroke-linecap="round" stroke-linejoin="round"/>
    <path d="M 95.8505630493164 111.56242370605469 C 83.07189178466797 86.33353424072266 102.08638763427734 138.3675537109375 96.45948791503906 71.2311019897461" stroke-width="2" fill="none" stroke="rgb(0, 0, 0)" stroke-opacity="1.0" stroke-linecap="round" stroke-linejoin="round"/>
    <path d="M 88.21592712402344 125.6837387084961 C 117.38815307617188 127.30003356933594 97.35545349121094 129.7395782470703 111.7557144165039 110.98401641845703" stroke-width="2" fill="none" stroke="rgb(0, 0, 0)" stroke-opacity="1.0" stroke-linecap="round" stroke-linejoin="round"/>
    <path d="M 58.45173645019531 102.07166290283203 C -2.743189811706543 166.47927856445312 129.98553466796875 163.77609252929688 112.06452941894531 162.5186309814453" stroke-width="2" fill="none" stroke="rgb(0, 0, 0)" stroke-opacity="1.0" stroke-linecap="round" stroke-linejoin="round"/>
    <path d="M 73.21560668945312 143.52108764648438 C 161.03273010253906 182.46287536621094 170.55201721191406 126.00308990478516 135.28317260742188 137.85662841796875" stroke-width="2" fill="none" stroke="rgb(0, 0, 0)" stroke-opacity="1.0" stroke-linecap="round" stroke-linejoin="round"/>
    <path d="M 121.98029327392578 119.07189178466797 C 164.847900390625 124.73773956298828 88.73809051513672 130.78233337402344 138.70217895507812 129.40206909179688" stroke-width="2" fill="none" stroke="rgb(0, 0, 0)" stroke-opacity="1.0" stroke-linecap="round" stroke-linejoin="round"/>
    <path d="M 171.16571044921875 102.07320404052734 C 194.95648193359375 12.159420013427734 156.19918823242188 109.99217987060547 147.13629150390625 97.15702819824219" stroke-width="2" fill="none" stroke="rgb(0, 0, 0)" stroke-opacity="1.0" stroke-linecap="round" stroke-linejoin="round"/>
    <path d="M 122.7298812866211 116.98761749267578 C 185.37452697753906 134.8156280517578 141.7530059814453 61.79685592651367 117.7095718383789 92.37596893310547" stroke-width="2" fill="none" stroke="rgb(0, 0, 0)" stroke-opacity="1.0" stroke-linecap="round" stroke-linejoin="round"/>
    <path d="M 167.09133911132812 148.9906463623047 C 53.877647399902344 152.525390625 37.95952224731445 108.46882629394531 66.09029388427734 95.81070709228516" stroke-width="2" fill="none" stroke="rgb(0, 0, 0)" stroke-opacity="1.0" stroke-linecap="round" stroke-linejoin="round"/>
    <path d="M 169.0070037841797 114.02091979980469 C 119.05674743652344 109.04515075683594 202.22476196289062 131.3172149658203 131.6961669921875 122.22886657714844" stroke-width="2" fill="none" stroke="rgb(0, 0, 0)" stroke-opacity="1.0" stroke-linecap="round" stroke-linejoin="round"/>
    <path d="M 119.75068664550781 120.94410705566406 C 157.83984375 134.98519897460938 102.02564239501953 134.74334716796875 147.61602783203125 135.8761444091797" stroke-width="2" fill="none" stroke="rgb(0, 0, 0)" stroke-opacity="1.0" stroke-linecap="round" stroke-linejoin="round"/>
    <path d="M 177.83277893066406 107.7486343383789 C 195.01156616210938 186.4657440185547 70.5778579711914 136.2159881591797 90.30650329589844 145.34678649902344" stroke-width="2" fill="none" stroke="rgb(0, 0, 0)" stroke-opacity="1.0" stroke-linecap="round" stroke-linejoin="round"/>
    <path d="M 80.63139343261719 155.21775817871094 C 51.863155364990234 160.12860107421875 27.833337783813477 118.79450225830078 64.29801940917969 146.6929473876953" stroke-width="2" fill="none" stroke="rgb(0, 0, 0)" stroke-opacity="1.0" stroke-linecap="round" stroke-linejoin="round"/>
  </g>
</svg>
