<?xml version="1.0" ?>
<svg xmlns="http://www.w3.org/2000/svg" version="1.1" width="224" height="224">
  <defs/>
  <g>
    <path d="M 106.83477783203125 81.66681671142578 C 154.71961975097656 122.70105743408203 61.35646438598633 74.10143280029297 47.533470153808594 119.57461547851562" stroke-width="2" fill="none" stroke="rgb(0, 0, 0)" stroke-opacity="1.0" stroke-linecap="round" stroke-linejoin="round"/>
    <path d="M 124.90666198730469 129.17135620117188 C 242.57676696777344 133.84107971191406 154.94204711914062 175.32501220703125 63.41481399536133 138.1564178466797" stroke-width="2" fill="none" stroke="rgb(0, 0, 0)" stroke-opacity="1.0" stroke-linecap="round" stroke-linejoin="round"/>
    <path d="M 165.42604064941406 103.36573028564453 C 102.67880249023438 59.60609817504883 95.33863067626953 146.13961791992188 164.646484375 130.32029724121094" stroke-width="2" fill="none" stroke="rgb(0, 0, 0)" stroke-opacity="1.0" stroke-linecap="round" stroke-linejoin="round"/>
    <path d="M 171.4321746826172 97.218017578125 C 186.31248474121094 77.23353576660156 181.40565490722656 118.3679428100586 164.72604370117188 125.8248291015625" stroke-width="2" fill="none" stroke="rgb(0, 0, 0)" stroke-opacity="1.0" stroke-linecap="round" stroke-linejoin="round"/>
    <path d="M 109.20887756347656 78.72955322265625 C 105.37852478027344 119.11619567871094 109.0007095336914 81.57889556884766 135.47396850585938 100.55834197998047" stroke-width="2" fill="none" stroke="rgb(0, 0, 0)" stroke-opacity="1.0" stroke-linecap="round" stroke-linejoin="round"/>
    <path d="M 106.31075286865234 94.5550537109375 C 126.18775939941406 110.9942626953125 103.33445739746094 112.3016128540039 116.18140411376953 134.04856872558594" stroke-width="2" fill="none" stroke="rgb(0, 0, 0)" stroke-opacity="1.0" stroke-linecap="round" stroke-linejoin="round"/>
    <path d="M 48.12107467651367 122.26185607910156 C 26.72088623046875 157.6755828857422 98.68343353271484 154.88671875 106.42239379882812 161.76611328125" stroke-width="2" fill="none" stroke="rgb(0, 0, 0)" stroke-opacity="1.0" stroke-linecap="round" stroke-linejoin="round"/>
    <path d="M 74.24057006835938 128.32008361816406 C 205.5336456298828 164.33447265625 196.87158203125 129.42152404785156 98.76676177978516 138.25143432617188" stroke-width="2" fill="none" stroke="rgb(0, 0, 0)" stroke-opacity="1.0" stroke-linecap="round" stroke-linejoin="round"/>
    <path d="M 111.89204406738281 85.92391204833984 C 151.94093322753906 87.94759368896484 134.53126525878906 117.26734161376953 121.53792572021484 118.44685363769531" stroke-width="2" fill="none" stroke="rgb(0, 0, 0)" stroke-opacity="1.0" stroke-linecap="round" stroke-linejoin="round"/>
    <path d="M 176.44705200195312 88.61489868164062 C 189.58062744140625 30.198955535888672 157.88040161132812 103.41312408447266 164.00424194335938 87.99500274658203" stroke-width="2" fill="none" stroke="rgb(0, 0, 0)" stroke-opacity="1.0" stroke-linecap="round" stroke-linejoin="round"/>
    <path d="M 132.32504272460938 119.34967803955078 C 182.05429077148438 107.31047058105469 160.57781982421875 150.17343139648438 140.64610290527344 132.3578338623047" stroke-width="2" fill="none" stroke="rgb(0, 0, 0)" stroke-opacity="1.0" stroke-linecap="round" stroke-linejoin="round"/>
    <path d="M 125.62772369384766 158.09164428710938 C 42.396507263183594 162.77171325683594 45.42561340332031 144.94117736816406 73.2769546508789 156.68856811523438" stroke-width="2" fill="none" stroke="rgb(0, 0, 0)" stroke-opacity="1.0" stroke-linecap="round" stroke-linejoin="round"/>
    <path d="M 185.54721069335938 105.63491821289062 C 156.86929321289062 105.46360778808594 212.7248992919922 121.67891693115234 115.75304412841797 115.45299530029297" stroke-width="2" fill="none" stroke="rgb(0, 0, 0)" stroke-opacity="1.0" stroke-linecap="round" stroke-linejoin="round"/>
    <path d="M 168.15118408203125 79.84213256835938 C 159.78529357910156 99.37287902832031 118.96196746826172 83.69815063476562 142.7208251953125 120.66158294677734" stroke-width="2" fill="none" stroke="rgb(0, 0, 0)" stroke-opacity="1.0" stroke-linecap="round" stroke-linejoin="round"/>
    <path d="M 84.03783416748047 110.35948181152344 C 114.46945190429688 118.8471908569336 118.39935302734375 88.5071792602539 104.86068725585938 97.82936096191406" stroke-width="2" fill="none" stroke="rgb(0, 0, 0)" stroke-opacity="1.0" stroke-linecap="round" stroke-linejoin="round"/>
    <path d="M 66.74918365478516 114.47986602783203 C 61.02717971801758 97.66033935546875 13.616150856018066 143.54795837402344 90.95095825195312 126.43013763427734" stroke-width="2" fill="none" stroke="rgb(0, 0, 0)" stroke-opacity="1.0" stroke-linecap="round" stroke-linejoin="round"/>
  </g>
</svg>
