<?xml version="1.0" ?>
<svg xmlns="http://www.w3.org/2000/svg" version="1.1" width="224" height="224">
  <defs/>
  <g>
    <path d="M 99.54190826416016 74.39251708984375 C 104.19100952148438 124.17761993408203 78.65228271484375 78.45996856689453 69.64474487304688 122.63221740722656" stroke-width="2" fill="none" stroke="rgb(0, 0, 0)" stroke-opacity="1.0" stroke-linecap="round" stroke-linejoin="round"/>
    <path d="M 133.54827880859375 140.22731018066406 C 203.6979217529297 132.27525329589844 182.41128540039062 162.77760314941406 84.05878448486328 126.98622131347656" stroke-width="2" fill="none" stroke="rgb(0, 0, 0)" stroke-opacity="1.0" stroke-linecap="round" stroke-linejoin="round"/>
    <path d="M 142.53579711914062 98.14015197753906 C 115.44023132324219 69.89196014404297 64.66869354248047 143.0590362548828 155.54335021972656 118.34293365478516" stroke-width="2" fill="none" stroke="rgb(0, 0, 0)" stroke-opacity="1.0" stroke-linecap="round" stroke-linejoin="round"/>
    <path d="M 169.29017639160156 99.3841781616211 C 142.937255859375 113.71089172363281 186.27357482910156 79.91541290283203 118.5516586303711 94.04219055175781" stroke-width="2" fill="none" stroke="rgb(0, 0, 0)" stroke-opacity="1.0" stroke-linecap="round" stroke-linejoin="round"/>
    <path d="M 99.73532104492188 78.46044921875 C 67.88372039794922 121.38993835449219 145.021728515625 98.25096130371094 105.93447875976562 81.47669219970703" stroke-width="2" fill="none" stroke="rgb(0, 0, 0)" stroke-opacity="1.0" stroke-linecap="round" stroke-linejoin="round"/>
    <path d="M 95.85401916503906 73.78840637207031 C 134.497802734375 79.91875457763672 71.83535766601562 140.40478515625 145.59136962890625 132.97801208496094" stroke-width="2" fill="none" stroke="rgb(0, 0, 0)" stroke-opacity="1.0" stroke-linecap="round" stroke-linejoin="round"/>
    <path d="M 63.198486328125 93.48990631103516 C -1.5974431037902832 154.40936279296875 106.82764434814453 162.6444091796875 123.72370910644531 148.6509246826172" stroke-width="2" fill="none" stroke="rgb(0, 0, 0)" stroke-opacity="1.0" stroke-linecap="round" stroke-linejoin="round"/>
    <path d="M 77.2110366821289 135.1199188232422 C 172.73301696777344 177.15045166015625 224.27586364746094 133.96749877929688 134.6232147216797 121.73397827148438" stroke-width="2" fill="none" stroke="rgb(0, 0, 0)" stroke-opacity="1.0" stroke-linecap="round" stroke-linejoin="round"/>
    <path d="M 124.40878295898438 116.81031799316406 C 154.2849578857422 115.50358581542969 112.02182006835938 135.7466278076172 156.90109252929688 123.73751068115234" stroke-width="2" fill="none" stroke="rgb(0, 0, 0)" stroke-opacity="1.0" stroke-linecap="round" stroke-linejoin="round"/>
    <path d="M 180.01290893554688 98.18700408935547 C 194.05502319335938 26.327857971191406 160.3369903564453 105.11529541015625 163.25344848632812 89.82598876953125" stroke-width="2" fill="none" stroke="rgb(0, 0, 0)" stroke-opacity="1.0" stroke-linecap="round" stroke-linejoin="round"/>
    <path d="M 179.24810791015625 98.36512756347656 C 182.8807373046875 123.87920379638672 152.66775512695312 118.8437728881836 174.38882446289062 97.86643981933594" stroke-width="2" fill="none" stroke="rgb(0, 0, 0)" stroke-opacity="1.0" stroke-linecap="round" stroke-linejoin="round"/>
    <path d="M 109.42560577392578 143.74783325195312 C 59.33128356933594 148.73028564453125 18.906461715698242 122.02674102783203 54.76863479614258 150.2440948486328" stroke-width="2" fill="none" stroke="rgb(0, 0, 0)" stroke-opacity="1.0" stroke-linecap="round" stroke-linejoin="round"/>
    <path d="M 144.71192932128906 138.95375061035156 C 105.92671203613281 103.05552673339844 204.5988311767578 121.63304901123047 136.9145965576172 124.92999267578125" stroke-width="2" fill="none" stroke="rgb(0, 0, 0)" stroke-opacity="1.0" stroke-linecap="round" stroke-linejoin="round"/>
    <path d="M 161.9728240966797 103.34859466552734 C 179.8854522705078 143.41928100585938 142.18649291992188 145.4405059814453 143.4525146484375 132.29676818847656" stroke-width="2" fill="none" stroke="rgb(0, 0, 0)" stroke-opacity="1.0" stroke-linecap="round" stroke-linejoin="round"/>
    <path d="M 145.14125061035156 112.86114501953125 C 120.71138763427734 159.09149169921875 123.12971496582031 103.78014373779297 90.46943664550781 115.99404907226562" stroke-width="2" fill="none" stroke="rgb(0, 0, 0)" stroke-opacity="1.0" stroke-linecap="round" stroke-linejoin="round"/>
    <path d="M 85.16239929199219 152.03793334960938 C 35.8958625793457 159.3577117919922 19.556297302246094 103.16264343261719 75.45095825195312 138.11033630371094" stroke-width="2" fill="none" stroke="rgb(0, 0, 0)" stroke-opacity="1.0" stroke-linecap="round" stroke-linejoin="round"/>
  </g>
</svg>
