<?xml version="1.0" ?>
<svg xmlns="http://www.w3.org/2000/svg" version="1.1" width="224" height="224">
  <defs/>
  <g>
    <path d="M 98.34336853027344 73.97257995605469 C 113.191650390625 117.89281463623047 59.51707458496094 63.9296989440918 37.997161865234375 129.67323303222656" stroke-width="2" fill="none" stroke="rgb(0, 0, 0)" stroke-opacity="1.0" stroke-linecap="round" stroke-linejoin="round"/>
    <path d="M 178.5892791748047 111.1297836303711 C 166.38531494140625 104.78308868408203 209.01773071289062 149.3407440185547 90.25434875488281 110.9759750366211" stroke-width="2" fill="none" stroke="rgb(0, 0, 0)" stroke-opacity="1.0" stroke-linecap="round" stroke-linejoin="round"/>
    <path d="M 98.17769622802734 97.13090515136719 C 129.53240966796875 83.4646987915039 42.74647521972656 146.1005401611328 168.72279357910156 138.54881286621094" stroke-width="2" fill="none" stroke="rgb(0, 0, 0)" stroke-opacity="1.0" stroke-linecap="round" stroke-linejoin="round"/>
    <path d="M 112.2967529296875 106.94646453857422 C 153.14170837402344 106.97681427001953 95.45143127441406 141.49391174316406 163.1941375732422 132.72056579589844" stroke-width="2" fill="none" stroke="rgb(0, 0, 0)" stroke-opacity="1.0" stroke-linecap="round" stroke-linejoin="round"/>
    <path d="M 113.7960205078125 111.76924896240234 C 155.53421020507812 113.48725128173828 80.89383697509766 124.84117126464844 128.04873657226562 95.1805419921875" stroke-width="2" fill="none" stroke="rgb(0, 0, 0)" stroke-opacity="1.0" stroke-linecap="round" stroke-linejoin="round"/>
    <path d="M 154.56838989257812 132.40122985839844 C 177.66893005371094 125.31259155273438 166.26278686523438 106.21001434326172 165.565185546875 126.03253173828125" stroke-width="2" fill="none" stroke="rgb(0, 0, 0)" stroke-opacity="1.0" stroke-linecap="round" stroke-linejoin="round"/>
    <path d="M 38.55511474609375 123.5990982055664 C 27.561527252197266 163.3978271484375 218.1409149169922 159.0498809814453 167.4381103515625 138.30880737304688" stroke-width="2" fill="none" stroke="rgb(0, 0, 0)" stroke-opacity="1.0" stroke-linecap="round" stroke-linejoin="round"/>
    <path d="M 145.0743408203125 120.15875244140625 C 109.6446533203125 118.84764099121094 188.49530029296875 110.26103210449219 125.48452758789062 105.2728271484375" stroke-width="2" fill="none" stroke="rgb(0, 0, 0)" stroke-opacity="1.0" stroke-linecap="round" stroke-linejoin="round"/>
    <path d="M 123.42486572265625 112.84001159667969 C 239.9169921875 132.05950927734375 129.81158447265625 148.25296020507812 103.32935333251953 100.56233978271484" stroke-width="2" fill="none" stroke="rgb(0, 0, 0)" stroke-opacity="1.0" stroke-linecap="round" stroke-linejoin="round"/>
    <path d="M 179.4334716796875 97.1185302734375 C 196.64398193359375 41.740570068359375 172.2109375 85.85244750976562 162.53857421875 88.46605682373047" stroke-width="2" fill="none" stroke="rgb(0, 0, 0)" stroke-opacity="1.0" stroke-linecap="round" stroke-linejoin="round"/>
    <path d="M 141.2662811279297 113.00546264648438 C 190.951171875 145.815185546875 172.3439178466797 72.83319091796875 144.16090393066406 92.0042953491211" stroke-width="2" fill="none" stroke="rgb(0, 0, 0)" stroke-opacity="1.0" stroke-linecap="round" stroke-linejoin="round"/>
    <path d="M 97.75137329101562 109.51374053955078 C 113.94784545898438 130.49656677246094 40.8637580871582 76.9366226196289 41.94624710083008 123.30297088623047" stroke-width="2" fill="none" stroke="rgb(0, 0, 0)" stroke-opacity="1.0" stroke-linecap="round" stroke-linejoin="round"/>
    <path d="M 128.834228515625 106.61277770996094 C 192.55178833007812 98.39669036865234 116.14092254638672 98.82262420654297 154.4912567138672 108.30699157714844" stroke-width="2" fill="none" stroke="rgb(0, 0, 0)" stroke-opacity="1.0" stroke-linecap="round" stroke-linejoin="round"/>
    <path d="M 184.89321899414062 76.69244384765625 C 191.1717071533203 100.85150146484375 163.54200744628906 88.1535415649414 172.0953369140625 104.86590576171875" stroke-width="2" fill="none" stroke="rgb(0, 0, 0)" stroke-opacity="1.0" stroke-linecap="round" stroke-linejoin="round"/>
    <path d="M 104.72795867919922 84.32535552978516 C 115.18413543701172 64.3092269897461 112.05970764160156 98.3634262084961 138.3367156982422 89.37489318847656" stroke-width="2" fill="none" stroke="rgb(0, 0, 0)" stroke-opacity="1.0" stroke-linecap="round" stroke-linejoin="round"/>
    <path d="M 108.49665069580078 154.03347778320312 C 35.827552795410156 125.21650695800781 68.26097869873047 137.7277069091797 131.41796875 150.78843688964844" stroke-width="2" fill="none" stroke="rgb(0, 0, 0)" stroke-opacity="1.0" stroke-linecap="round" stroke-linejoin="round"/>
  </g>
</svg>
