<?xml version="1.0" ?>
<svg xmlns="http://www.w3.org/2000/svg" version="1.1" width="224" height="224">
  <defs/>
  <g>
    <path d="M 99.14212799072266 74.92388153076172 C 107.32449340820312 127.7274169921875 60.080448150634766 59.05653381347656 43.402652740478516 139.37387084960938" stroke-width="2" fill="none" stroke="rgb(0, 0, 0)" stroke-opacity="1.0" stroke-linecap="round" stroke-linejoin="round"/>
    <path d="M 147.53546142578125 120.72108459472656 C 202.2669677734375 129.3242645263672 200.43446350097656 184.4066925048828 64.7583236694336 140.28860473632812" stroke-width="2" fill="none" stroke="rgb(0, 0, 0)" stroke-opacity="1.0" stroke-linecap="round" stroke-linejoin="round"/>
    <path d="M 48.48746109008789 126.05542755126953 C 77.59722137451172 73.73816680908203 102.41542053222656 131.4485321044922 154.67628479003906 135.97906494140625" stroke-width="2" fill="none" stroke="rgb(0, 0, 0)" stroke-opacity="1.0" stroke-linecap="round" stroke-linejoin="round"/>
    <path d="M 123.90250396728516 98.92340850830078 C 93.6218490600586 123.73789978027344 129.1432647705078 121.36207580566406 96.64690399169922 98.01396942138672" stroke-width="2" fill="none" stroke="rgb(0, 0, 0)" stroke-opacity="1.0" stroke-linecap="round" stroke-linejoin="round"/>
    <path d="M 128.68984985351562 111.63438415527344 C 130.9051971435547 97.11012268066406 106.47798156738281 112.32196044921875 108.68516540527344 88.7288589477539" stroke-width="2" fill="none" stroke="rgb(0, 0, 0)" stroke-opacity="1.0" stroke-linecap="round" stroke-linejoin="round"/>
    <path d="M 136.5400848388672 126.16416931152344 C 187.92660522460938 134.341552734375 122.54969787597656 104.9109115600586 152.69227600097656 112.51667022705078" stroke-width="2" fill="none" stroke="rgb(0, 0, 0)" stroke-opacity="1.0" stroke-linecap="round" stroke-linejoin="round"/>
    <path d="M 40.1610221862793 131.11154174804688 C 38.11608123779297 156.02915954589844 174.47007751464844 153.66485595703125 151.4134521484375 149.30682373046875" stroke-width="2" fill="none" stroke="rgb(0, 0, 0)" stroke-opacity="1.0" stroke-linecap="round" stroke-linejoin="round"/>
    <path d="M 113.99446105957031 135.35377502441406 C 91.1427001953125 110.8753433227539 147.47181701660156 130.3333282470703 118.06034851074219 127.87665557861328" stroke-width="2" fill="none" stroke="rgb(0, 0, 0)" stroke-opacity="1.0" stroke-linecap="round" stroke-linejoin="round"/>
    <path d="M 139.80392456054688 131.86599731445312 C 231.33853149414062 130.05690002441406 129.68336486816406 162.1178436279297 103.53121948242188 123.63494110107422" stroke-width="2" fill="none" stroke="rgb(0, 0, 0)" stroke-opacity="1.0" stroke-linecap="round" stroke-linejoin="round"/>
    <path d="M 176.96153259277344 95.77729797363281 C 192.92771911621094 24.96846580505371 163.10081481933594 103.74516296386719 152.82205200195312 95.75247192382812" stroke-width="2" fill="none" stroke="rgb(0, 0, 0)" stroke-opacity="1.0" stroke-linecap="round" stroke-linejoin="round"/>
    <path d="M 136.80010986328125 110.91773986816406 C 179.66342163085938 158.57199096679688 170.8006591796875 72.34162139892578 116.9676742553711 92.16234588623047" stroke-width="2" fill="none" stroke="rgb(0, 0, 0)" stroke-opacity="1.0" stroke-linecap="round" stroke-linejoin="round"/>
    <path d="M 179.0015869140625 132.76612854003906 C 129.3483428955078 135.0798797607422 42.642520904541016 89.30899810791016 42.50800704956055 132.1252899169922" stroke-width="2" fill="none" stroke="rgb(0, 0, 0)" stroke-opacity="1.0" stroke-linecap="round" stroke-linejoin="round"/>
    <path d="M 155.17071533203125 113.17804718017578 C 165.2290496826172 72.11136627197266 173.13368225097656 127.04275512695312 166.70138549804688 92.3697280883789" stroke-width="2" fill="none" stroke="rgb(0, 0, 0)" stroke-opacity="1.0" stroke-linecap="round" stroke-linejoin="round"/>
    <path d="M 148.09027099609375 113.70860290527344 C 186.48350524902344 114.70541381835938 100.14314270019531 122.86233520507812 139.7013702392578 111.17340087890625" stroke-width="2" fill="none" stroke="rgb(0, 0, 0)" stroke-opacity="1.0" stroke-linecap="round" stroke-linejoin="round"/>
    <path d="M 101.08292388916016 74.66116333007812 C 121.04962158203125 69.31365966796875 94.8515396118164 96.64192199707031 163.4706573486328 90.6268539428711" stroke-width="2" fill="none" stroke="rgb(0, 0, 0)" stroke-opacity="1.0" stroke-linecap="round" stroke-linejoin="round"/>
    <path d="M 70.32437133789062 143.70578002929688 C 30.664457321166992 101.5832290649414 57.146541595458984 129.528076171875 160.29904174804688 151.43643188476562" stroke-width="2" fill="none" stroke="rgb(0, 0, 0)" stroke-opacity="1.0" stroke-linecap="round" stroke-linejoin="round"/>
  </g>
</svg>
