<?xml version="1.0" ?>
<svg xmlns="http://www.w3.org/2000/svg" version="1.1" width="224" height="224">
  <defs/>
  <g>
    <path d="M 113.33578491210938 73.56727600097656 C 143.6992950439453 138.61802673339844 62.326602935791016 82.41197204589844 51.75939178466797 116.13906860351562" stroke-width="2" fill="none" stroke="rgb(0, 0, 0)" stroke-opacity="1.0" stroke-linecap="round" stroke-linejoin="round"/>
    <path d="M 164.5679931640625 143.21585083007812 C 209.87277221679688 138.41285705566406 179.0750274658203 174.02464294433594 57.06327438354492 148.4137420654297" stroke-width="2" fill="none" stroke="rgb(0, 0, 0)" stroke-opacity="1.0" stroke-linecap="round" stroke-linejoin="round"/>
    <path d="M 139.93511962890625 126.70420837402344 C 212.2804412841797 115.28353881835938 146.09857177734375 118.72327423095703 175.94447326660156 92.09183502197266" stroke-width="2" fill="none" stroke="rgb(0, 0, 0)" stroke-opacity="1.0" stroke-linecap="round" stroke-linejoin="round"/>
    <path d="M 169.52117919921875 138.9186248779297 C 203.2404022216797 171.57215881347656 183.52989196777344 65.71997833251953 163.54037475585938 92.63861846923828" stroke-width="2" fill="none" stroke="rgb(0, 0, 0)" stroke-opacity="1.0" stroke-linecap="round" stroke-linejoin="round"/>
    <path d="M 132.63848876953125 141.69174194335938 C 251.47662353515625 138.06773376464844 89.07748413085938 160.60472106933594 84.87922668457031 147.22195434570312" stroke-width="2" fill="none" stroke="rgb(0, 0, 0)" stroke-opacity="1.0" stroke-linecap="round" stroke-linejoin="round"/>
    <path d="M 149.57948303222656 106.40740203857422 C 193.17037963867188 88.773681640625 162.6430206298828 127.48815155029297 157.11277770996094 100.26435852050781" stroke-width="2" fill="none" stroke="rgb(0, 0, 0)" stroke-opacity="1.0" stroke-linecap="round" stroke-linejoin="round"/>
    <path d="M 63.254188537597656 105.79544067382812 C -9.514320373535156 168.04446411132812 178.02392578125 157.0706787109375 134.6686248779297 151.32046508789062" stroke-width="2" fill="none" stroke="rgb(0, 0, 0)" stroke-opacity="1.0" stroke-linecap="round" stroke-linejoin="round"/>
    <path d="M 156.4031219482422 113.69239044189453 C 89.05628967285156 122.2818374633789 162.56866455078125 108.26516723632812 129.02789306640625 110.95083618164062" stroke-width="2" fill="none" stroke="rgb(0, 0, 0)" stroke-opacity="1.0" stroke-linecap="round" stroke-linejoin="round"/>
    <path d="M 120.52723693847656 101.8467788696289 C 156.59617614746094 110.25422668457031 128.21224975585938 85.74126434326172 168.6825408935547 109.79391479492188" stroke-width="2" fill="none" stroke="rgb(0, 0, 0)" stroke-opacity="1.0" stroke-linecap="round" stroke-linejoin="round"/>
    <path d="M 165.73114013671875 84.31637573242188 C 197.9411163330078 27.28872299194336 177.86892700195312 125.14212799072266 164.59266662597656 101.83946990966797" stroke-width="2" fill="none" stroke="rgb(0, 0, 0)" stroke-opacity="1.0" stroke-linecap="round" stroke-linejoin="round"/>
    <path d="M 88.9142837524414 117.52523803710938 C 204.31089782714844 177.10809326171875 190.57321166992188 63.01032257080078 133.8324737548828 87.95661926269531" stroke-width="2" fill="none" stroke="rgb(0, 0, 0)" stroke-opacity="1.0" stroke-linecap="round" stroke-linejoin="round"/>
    <path d="M 50.35824203491211 132.5989532470703 C 137.7502899169922 162.39373779296875 138.99327087402344 156.13121032714844 93.43048095703125 128.35586547851562" stroke-width="2" fill="none" stroke="rgb(0, 0, 0)" stroke-opacity="1.0" stroke-linecap="round" stroke-linejoin="round"/>
    <path d="M 90.71907043457031 135.63230895996094 C 235.959716796875 146.00201416015625 89.29019165039062 110.54129028320312 162.89915466308594 125.88887786865234" stroke-width="2" fill="none" stroke="rgb(0, 0, 0)" stroke-opacity="1.0" stroke-linecap="round" stroke-linejoin="round"/>
    <path d="M 162.95394897460938 115.71515655517578 C 130.51956176757812 115.44842529296875 160.2521209716797 116.38066864013672 142.19842529296875 97.02569580078125" stroke-width="2" fill="none" stroke="rgb(0, 0, 0)" stroke-opacity="1.0" stroke-linecap="round" stroke-linejoin="round"/>
    <path d="M 112.88235473632812 125.419677734375 C 104.08635711669922 53.93170928955078 163.81631469726562 107.48187255859375 117.0726547241211 80.69038391113281" stroke-width="2" fill="none" stroke="rgb(0, 0, 0)" stroke-opacity="1.0" stroke-linecap="round" stroke-linejoin="round"/>
    <path d="M 82.19654083251953 110.94679260253906 C 13.810708045959473 109.22605895996094 105.58547973632812 119.40156555175781 63.1707763671875 122.60633087158203" stroke-width="2" fill="none" stroke="rgb(0, 0, 0)" stroke-opacity="1.0" stroke-linecap="round" stroke-linejoin="round"/>
  </g>
</svg>
