<?xml version="1.0" ?>
<svg xmlns="http://www.w3.org/2000/svg" version="1.1" width="224" height="224">
  <defs/>
  <g>
    <path d="M 103.65397644042969 70.99954986572266 C 125.28736877441406 123.37443542480469 69.58150482177734 69.53093719482422 48.49270248413086 121.49284362792969" stroke-width="2" fill="none" stroke="rgb(0, 0, 0)" stroke-opacity="1.0" stroke-linecap="round" stroke-linejoin="round"/>
    <path d="M 164.85609436035156 122.19719696044922 C 164.24464416503906 102.97412872314453 186.89305114746094 164.80410766601562 63.25422668457031 132.5657501220703" stroke-width="2" fill="none" stroke="rgb(0, 0, 0)" stroke-opacity="1.0" stroke-linecap="round" stroke-linejoin="round"/>
    <path d="M 124.56558990478516 85.64735412597656 C 125.79405975341797 69.0109634399414 62.05128860473633 141.04376220703125 175.88397216796875 136.98023986816406" stroke-width="2" fill="none" stroke="rgb(0, 0, 0)" stroke-opacity="1.0" stroke-linecap="round" stroke-linejoin="round"/>
    <path d="M 117.85367584228516 130.8278350830078 C 171.24575805664062 117.8068618774414 104.10746002197266 114.57862091064453 166.3525390625 129.8201446533203" stroke-width="2" fill="none" stroke="rgb(0, 0, 0)" stroke-opacity="1.0" stroke-linecap="round" stroke-linejoin="round"/>
    <path d="M 117.36088562011719 107.18444061279297 C 177.62428283691406 124.35126495361328 62.600440979003906 116.55624389648438 136.68275451660156 114.77400970458984" stroke-width="2" fill="none" stroke="rgb(0, 0, 0)" stroke-opacity="1.0" stroke-linecap="round" stroke-linejoin="round"/>
    <path d="M 138.26417541503906 133.5054168701172 C 175.7474822998047 123.53498840332031 138.59524536132812 122.97096252441406 161.73410034179688 113.55171203613281" stroke-width="2" fill="none" stroke="rgb(0, 0, 0)" stroke-opacity="1.0" stroke-linecap="round" stroke-linejoin="round"/>
    <path d="M 44.339599609375 121.82848358154297 C 13.023805618286133 176.92068481445312 205.29913330078125 165.7617950439453 176.0884552001953 136.85409545898438" stroke-width="2" fill="none" stroke="rgb(0, 0, 0)" stroke-opacity="1.0" stroke-linecap="round" stroke-linejoin="round"/>
    <path d="M 162.02999877929688 102.80665588378906 C 96.4070053100586 109.96561431884766 162.96905517578125 104.53646850585938 124.86416625976562 120.81171417236328" stroke-width="2" fill="none" stroke="rgb(0, 0, 0)" stroke-opacity="1.0" stroke-linecap="round" stroke-linejoin="round"/>
    <path d="M 111.58084869384766 116.55990600585938 C 221.14877319335938 119.0682144165039 122.76620483398438 142.6315460205078 102.89501953125 101.29269409179688" stroke-width="2" fill="none" stroke="rgb(0, 0, 0)" stroke-opacity="1.0" stroke-linecap="round" stroke-linejoin="round"/>
    <path d="M 181.8420867919922 88.2984390258789 C 190.49293518066406 34.47661590576172 167.92771911621094 91.02658081054688 157.1634521484375 75.80044555664062" stroke-width="2" fill="none" stroke="rgb(0, 0, 0)" stroke-opacity="1.0" stroke-linecap="round" stroke-linejoin="round"/>
    <path d="M 147.15594482421875 117.35101318359375 C 180.51194763183594 143.11593627929688 173.60821533203125 73.62120819091797 146.1957550048828 92.7591781616211" stroke-width="2" fill="none" stroke="rgb(0, 0, 0)" stroke-opacity="1.0" stroke-linecap="round" stroke-linejoin="round"/>
    <path d="M 79.69761657714844 104.2540512084961 C 119.19731140136719 142.61463928222656 48.10810089111328 90.68034362792969 48.82046890258789 122.00596618652344" stroke-width="2" fill="none" stroke="rgb(0, 0, 0)" stroke-opacity="1.0" stroke-linecap="round" stroke-linejoin="round"/>
    <path d="M 113.77803039550781 107.34233856201172 C 167.36502075195312 101.06019592285156 117.36104583740234 100.31510925292969 137.5066680908203 101.74578094482422" stroke-width="2" fill="none" stroke="rgb(0, 0, 0)" stroke-opacity="1.0" stroke-linecap="round" stroke-linejoin="round"/>
    <path d="M 174.7913360595703 85.7908935546875 C 179.48252868652344 109.2547378540039 153.42518615722656 101.30931854248047 165.9546661376953 75.47926330566406" stroke-width="2" fill="none" stroke="rgb(0, 0, 0)" stroke-opacity="1.0" stroke-linecap="round" stroke-linejoin="round"/>
    <path d="M 106.74932861328125 81.12322235107422 C 117.22637939453125 67.775634765625 107.19550323486328 89.85689544677734 141.07791137695312 88.21878051757812" stroke-width="2" fill="none" stroke="rgb(0, 0, 0)" stroke-opacity="1.0" stroke-linecap="round" stroke-linejoin="round"/>
    <path d="M 114.18458557128906 152.5886688232422 C 39.297760009765625 121.5670166015625 83.97679901123047 145.90870666503906 153.2758331298828 151.07626342773438" stroke-width="2" fill="none" stroke="rgb(0, 0, 0)" stroke-opacity="1.0" stroke-linecap="round" stroke-linejoin="round"/>
  </g>
</svg>
