<?xml version="1.0" ?>
<svg xmlns="http://www.w3.org/2000/svg" version="1.1" width="224" height="224">
  <defs/>
  <g>
    <path d="M 95.77525329589844 68.70855712890625 C 133.4406280517578 123.6457290649414 49.489253997802734 69.38734436035156 58.60722732543945 116.81267547607422" stroke-width="2" fill="none" stroke="rgb(0, 0, 0)" stroke-opacity="1.0" stroke-linecap="round" stroke-linejoin="round"/>
    <path d="M 168.72486877441406 123.01663208007812 C 193.47482299804688 132.14886474609375 187.84652709960938 177.69769287109375 58.743770599365234 147.7314453125" stroke-width="2" fill="none" stroke="rgb(0, 0, 0)" stroke-opacity="1.0" stroke-linecap="round" stroke-linejoin="round"/>
    <path d="M 110.84481048583984 119.45269012451172 C 130.74862670898438 95.52971649169922 76.56637573242188 150.77488708496094 156.12716674804688 145.91043090820312" stroke-width="2" fill="none" stroke="rgb(0, 0, 0)" stroke-opacity="1.0" stroke-linecap="round" stroke-linejoin="round"/>
    <path d="M 165.05921936035156 85.98860168457031 C 124.00455474853516 99.68083190917969 164.281005859375 79.00708770751953 105.01971435546875 85.17973327636719" stroke-width="2" fill="none" stroke="rgb(0, 0, 0)" stroke-opacity="1.0" stroke-linecap="round" stroke-linejoin="round"/>
    <path d="M 97.82962799072266 123.06719970703125 C 86.97083282470703 101.25904083251953 107.50208282470703 146.3151092529297 92.18185424804688 69.04242706298828" stroke-width="2" fill="none" stroke="rgb(0, 0, 0)" stroke-opacity="1.0" stroke-linecap="round" stroke-linejoin="round"/>
    <path d="M 84.0345230102539 123.39601135253906 C 108.73503875732422 119.67161560058594 83.62850952148438 137.1365203857422 103.41261291503906 108.72329711914062" stroke-width="2" fill="none" stroke="rgb(0, 0, 0)" stroke-opacity="1.0" stroke-linecap="round" stroke-linejoin="round"/>
    <path d="M 60.69753646850586 99.84679412841797 C -2.199307680130005 167.61009216308594 114.88228607177734 156.49497985839844 135.62017822265625 149.2510986328125" stroke-width="2" fill="none" stroke="rgb(0, 0, 0)" stroke-opacity="1.0" stroke-linecap="round" stroke-linejoin="round"/>
    <path d="M 59.196048736572266 133.64947509765625 C 127.04022216796875 170.14817810058594 178.71177673339844 102.45621490478516 121.3048095703125 126.74807739257812" stroke-width="2" fill="none" stroke="rgb(0, 0, 0)" stroke-opacity="1.0" stroke-linecap="round" stroke-linejoin="round"/>
    <path d="M 132.95639038085938 112.83916473388672 C 150.1056365966797 115.08900451660156 80.02495574951172 122.19335174560547 140.8705291748047 129.0392608642578" stroke-width="2" fill="none" stroke="rgb(0, 0, 0)" stroke-opacity="1.0" stroke-linecap="round" stroke-linejoin="round"/>
    <path d="M 170.51724243164062 107.7427978515625 C 204.88230895996094 18.517518997192383 156.5891571044922 99.47526550292969 154.07464599609375 91.08075714111328" stroke-width="2" fill="none" stroke="rgb(0, 0, 0)" stroke-opacity="1.0" stroke-linecap="round" stroke-linejoin="round"/>
    <path d="M 143.22164916992188 130.44601440429688 C 184.38319396972656 119.1213607788086 133.4755859375 57.284366607666016 124.20613861083984 85.90496826171875" stroke-width="2" fill="none" stroke="rgb(0, 0, 0)" stroke-opacity="1.0" stroke-linecap="round" stroke-linejoin="round"/>
    <path d="M 168.69601440429688 151.5818634033203 C 35.862945556640625 161.39207458496094 25.931795120239258 123.42418670654297 63.21913146972656 96.44404602050781" stroke-width="2" fill="none" stroke="rgb(0, 0, 0)" stroke-opacity="1.0" stroke-linecap="round" stroke-linejoin="round"/>
    <path d="M 159.02780151367188 125.21263885498047 C 125.08834075927734 124.25385284423828 199.38697814941406 128.52267456054688 100.44995880126953 128.07272338867188" stroke-width="2" fill="none" stroke="rgb(0, 0, 0)" stroke-opacity="1.0" stroke-linecap="round" stroke-linejoin="round"/>
    <path d="M 152.55357360839844 93.98580169677734 C 168.5238800048828 143.9038848876953 97.64359283447266 102.32164764404297 155.78939819335938 112.95362854003906" stroke-width="2" fill="none" stroke="rgb(0, 0, 0)" stroke-opacity="1.0" stroke-linecap="round" stroke-linejoin="round"/>
    <path d="M 142.42457580566406 136.61605834960938 C 174.5817108154297 133.66259765625 84.41450500488281 127.88123321533203 134.74835205078125 121.22465515136719" stroke-width="2" fill="none" stroke="rgb(0, 0, 0)" stroke-opacity="1.0" stroke-linecap="round" stroke-linejoin="round"/>
    <path d="M 118.22833251953125 155.52658081054688 C 69.89006805419922 138.08236694335938 23.153425216674805 109.4783935546875 107.32460021972656 140.8679962158203" stroke-width="2" fill="none" stroke="rgb(0, 0, 0)" stroke-opacity="1.0" stroke-linecap="round" stroke-linejoin="round"/>
  </g>
</svg>
