<?xml version="1.0" ?>
<svg xmlns="http://www.w3.org/2000/svg" version="1.1" width="224" height="224">
  <defs/>
  <g>
    <path d="M 123.67581939697266 75.21331024169922 C 128.8126220703125 103.2485580444336 39.38887023925781 64.05388641357422 60.78669357299805 110.66024017333984" stroke-width="2" fill="none" stroke="rgb(0, 0, 0)" stroke-opacity="1.0" stroke-linecap="round" stroke-linejoin="round"/>
    <path d="M 151.59519958496094 143.0067138671875 C 207.56935119628906 123.6548080444336 168.853515625 154.9174346923828 77.49038696289062 115.71360778808594" stroke-width="2" fill="none" stroke="rgb(0, 0, 0)" stroke-opacity="1.0" stroke-linecap="round" stroke-linejoin="round"/>
    <path d="M 123.57495880126953 105.03778839111328 C 121.69689178466797 118.53532409667969 91.29144287109375 92.20867156982422 136.4794464111328 114.42739868164062" stroke-width="2" fill="none" stroke="rgb(0, 0, 0)" stroke-opacity="1.0" stroke-linecap="round" stroke-linejoin="round"/>
    <path d="M 150.0020751953125 83.19746398925781 C 176.08287048339844 76.70339965820312 175.78472900390625 91.73748779296875 163.31607055664062 121.14726257324219" stroke-width="2" fill="none" stroke="rgb(0, 0, 0)" stroke-opacity="1.0" stroke-linecap="round" stroke-linejoin="round"/>
    <path d="M 117.7701416015625 64.66413116455078 C 119.09545135498047 83.82136535644531 127.84346771240234 60.747642517089844 154.1094970703125 83.77983093261719" stroke-width="2" fill="none" stroke="rgb(0, 0, 0)" stroke-opacity="1.0" stroke-linecap="round" stroke-linejoin="round"/>
    <path d="M 91.91272735595703 89.843994140625 C 95.54682159423828 116.73702239990234 89.2274169921875 86.87236785888672 97.6662368774414 100.68404388427734" stroke-width="2" fill="none" stroke="rgb(0, 0, 0)" stroke-opacity="1.0" stroke-linecap="round" stroke-linejoin="round"/>
    <path d="M 34.97980499267578 128.1561737060547 C 36.46053695678711 150.06015014648438 103.66363525390625 154.73336791992188 65.87687683105469 146.4733123779297" stroke-width="2" fill="none" stroke="rgb(0, 0, 0)" stroke-opacity="1.0" stroke-linecap="round" stroke-linejoin="round"/>
    <path d="M 81.18424987792969 150.9810028076172 C 234.78271484375 162.67364501953125 205.2086944580078 121.82157135009766 120.78191375732422 113.11119842529297" stroke-width="2" fill="none" stroke="rgb(0, 0, 0)" stroke-opacity="1.0" stroke-linecap="round" stroke-linejoin="round"/>
    <path d="M 144.44139099121094 113.04480743408203 C 161.74020385742188 113.03221893310547 164.94590759277344 141.3768768310547 109.6512451171875 117.44462585449219" stroke-width="2" fill="none" stroke="rgb(0, 0, 0)" stroke-opacity="1.0" stroke-linecap="round" stroke-linejoin="round"/>
    <path d="M 175.33755493164062 89.67747497558594 C 191.06515502929688 36.33456802368164 149.7444610595703 78.9800033569336 167.6896514892578 101.0128173828125" stroke-width="2" fill="none" stroke="rgb(0, 0, 0)" stroke-opacity="1.0" stroke-linecap="round" stroke-linejoin="round"/>
    <path d="M 177.98834228515625 138.1011199951172 C 200.09658813476562 123.49454498291016 190.35134887695312 156.09002685546875 155.54266357421875 151.42977905273438" stroke-width="2" fill="none" stroke="rgb(0, 0, 0)" stroke-opacity="1.0" stroke-linecap="round" stroke-linejoin="round"/>
    <path d="M 109.89167785644531 150.24957275390625 C 32.88969802856445 147.72308349609375 -20.008676528930664 117.9179458618164 13.30561637878418 135.5972137451172" stroke-width="2" fill="none" stroke="rgb(0, 0, 0)" stroke-opacity="1.0" stroke-linecap="round" stroke-linejoin="round"/>
    <path d="M 122.623779296875 87.69962310791016 C 128.3016357421875 105.00135040283203 150.55368041992188 92.24447631835938 148.25169372558594 93.09495544433594" stroke-width="2" fill="none" stroke="rgb(0, 0, 0)" stroke-opacity="1.0" stroke-linecap="round" stroke-linejoin="round"/>
    <path d="M 167.60108947753906 84.9310073852539 C 167.0159454345703 74.75999450683594 119.84424591064453 100.07573699951172 163.58514404296875 108.10844421386719" stroke-width="2" fill="none" stroke="rgb(0, 0, 0)" stroke-opacity="1.0" stroke-linecap="round" stroke-linejoin="round"/>
    <path d="M 113.57569885253906 77.93346405029297 C 93.1024169921875 115.45130920410156 97.03936004638672 87.88851928710938 96.10782623291016 119.54523468017578" stroke-width="2" fill="none" stroke="rgb(0, 0, 0)" stroke-opacity="1.0" stroke-linecap="round" stroke-linejoin="round"/>
    <path d="M 58.73137664794922 110.6861801147461 C 50.117794036865234 83.25650024414062 5.459213733673096 142.59817504882812 57.495277404785156 153.43679809570312" stroke-width="2" fill="none" stroke="rgb(0, 0, 0)" stroke-opacity="1.0" stroke-linecap="round" stroke-linejoin="round"/>
  </g>
</svg>
