<?xml version="1.0" ?>
<svg xmlns="http://www.w3.org/2000/svg" version="1.1" width="224" height="224">
  <defs/>
  <g>
    <path d="M 104.78654479980469 71.29850769042969 C 115.2113265991211 133.1620635986328 67.83794403076172 59.11734390258789 38.60500717163086 143.2538299560547" stroke-width="2" fill="none" stroke="rgb(0, 0, 0)" stroke-opacity="1.0" stroke-linecap="round" stroke-linejoin="round"/>
    <path d="M 135.47962951660156 131.03843688964844 C 196.9759979248047 123.4305191040039 196.2525177001953 178.56736755371094 78.03150177001953 145.98963928222656" stroke-width="2" fill="none" stroke="rgb(0, 0, 0)" stroke-opacity="1.0" stroke-linecap="round" stroke-linejoin="round"/>
    <path d="M 45.63774871826172 130.27999877929688 C 47.627201080322266 103.0960693359375 81.62962341308594 132.27328491210938 126.5550308227539 140.015625" stroke-width="2" fill="none" stroke="rgb(0, 0, 0)" stroke-opacity="1.0" stroke-linecap="round" stroke-linejoin="round"/>
    <path d="M 126.95923614501953 93.1148681640625 C 67.38893127441406 132.5189971923828 192.3458709716797 122.35749816894531 138.22576904296875 114.69338989257812" stroke-width="2" fill="none" stroke="rgb(0, 0, 0)" stroke-opacity="1.0" stroke-linecap="round" stroke-linejoin="round"/>
    <path d="M 105.46062469482422 83.7972640991211 C 116.96749877929688 53.82270431518555 103.9738540649414 121.26000213623047 134.9576873779297 100.24715423583984" stroke-width="2" fill="none" stroke="rgb(0, 0, 0)" stroke-opacity="1.0" stroke-linecap="round" stroke-linejoin="round"/>
    <path d="M 110.72978973388672 140.42449951171875 C 195.65354919433594 151.54066467285156 114.1198501586914 134.60507202148438 159.40310668945312 123.7021484375" stroke-width="2" fill="none" stroke="rgb(0, 0, 0)" stroke-opacity="1.0" stroke-linecap="round" stroke-linejoin="round"/>
    <path d="M 46.440269470214844 127.69322967529297 C 32.7808837890625 169.9099884033203 158.55877685546875 161.22422790527344 151.08544921875 157.59576416015625" stroke-width="2" fill="none" stroke="rgb(0, 0, 0)" stroke-opacity="1.0" stroke-linecap="round" stroke-linejoin="round"/>
    <path d="M 109.1693344116211 130.88084411621094 C 90.74734497070312 107.67721557617188 127.67272186279297 116.92642974853516 102.35527801513672 128.82566833496094" stroke-width="2" fill="none" stroke="rgb(0, 0, 0)" stroke-opacity="1.0" stroke-linecap="round" stroke-linejoin="round"/>
    <path d="M 116.07390594482422 145.58392333984375 C 224.2098388671875 146.2950439453125 155.96627807617188 165.0520477294922 97.42626190185547 155.80946350097656" stroke-width="2" fill="none" stroke="rgb(0, 0, 0)" stroke-opacity="1.0" stroke-linecap="round" stroke-linejoin="round"/>
    <path d="M 178.81893920898438 88.93822479248047 C 190.25967407226562 22.928279876708984 154.29637145996094 116.1403579711914 145.20372009277344 91.3684310913086" stroke-width="2" fill="none" stroke="rgb(0, 0, 0)" stroke-opacity="1.0" stroke-linecap="round" stroke-linejoin="round"/>
    <path d="M 133.96054077148438 117.23468780517578 C 172.81927490234375 140.7443389892578 181.41615295410156 93.25113677978516 118.85340118408203 91.7165298461914" stroke-width="2" fill="none" stroke="rgb(0, 0, 0)" stroke-opacity="1.0" stroke-linecap="round" stroke-linejoin="round"/>
    <path d="M 162.61917114257812 143.83921813964844 C 47.18759536743164 175.73329162597656 21.49725914001465 130.35818481445312 50.02687072753906 150.36463928222656" stroke-width="2" fill="none" stroke="rgb(0, 0, 0)" stroke-opacity="1.0" stroke-linecap="round" stroke-linejoin="round"/>
    <path d="M 168.52606201171875 135.71762084960938 C 173.1231689453125 74.49435424804688 162.52513122558594 129.22544860839844 176.87351989746094 93.72616577148438" stroke-width="2" fill="none" stroke="rgb(0, 0, 0)" stroke-opacity="1.0" stroke-linecap="round" stroke-linejoin="round"/>
    <path d="M 134.50360107421875 106.5478515625 C 153.14035034179688 117.94132232666016 111.38675689697266 117.14659118652344 162.0494384765625 125.0479507446289" stroke-width="2" fill="none" stroke="rgb(0, 0, 0)" stroke-opacity="1.0" stroke-linecap="round" stroke-linejoin="round"/>
    <path d="M 101.1153793334961 73.49006652832031 C 131.67025756835938 98.39418029785156 86.84759521484375 99.43611145019531 160.51600646972656 90.7038345336914" stroke-width="2" fill="none" stroke="rgb(0, 0, 0)" stroke-opacity="1.0" stroke-linecap="round" stroke-linejoin="round"/>
    <path d="M 65.7990493774414 122.96659851074219 C 70.29112243652344 111.46660614013672 46.82027053833008 143.54013061523438 148.0225067138672 154.11219787597656" stroke-width="2" fill="none" stroke="rgb(0, 0, 0)" stroke-opacity="1.0" stroke-linecap="round" stroke-linejoin="round"/>
  </g>
</svg>
