<?xml version="1.0" ?>
<svg xmlns="http://www.w3.org/2000/svg" version="1.1" width="224" height="224">
  <defs/>
  <g>
    <path d="M 104.32860565185547 74.34198760986328 C 111.19361114501953 124.83570861816406 70.74883270263672 62.72423553466797 40.15821075439453 135.2987060546875" stroke-width="2" fill="none" stroke="rgb(0, 0, 0)" stroke-opacity="1.0" stroke-linecap="round" stroke-linejoin="round"/>
    <path d="M 147.21591186523438 124.0537338256836 C 197.1558074951172 120.85374450683594 192.9022979736328 177.4875030517578 60.40544128417969 145.92724609375" stroke-width="2" fill="none" stroke="rgb(0, 0, 0)" stroke-opacity="1.0" stroke-linecap="round" stroke-linejoin="round"/>
    <path d="M 54.59642791748047 135.9680633544922 C 69.01337432861328 82.69956970214844 95.47261810302734 130.6215362548828 146.86196899414062 132.26390075683594" stroke-width="2" fill="none" stroke="rgb(0, 0, 0)" stroke-opacity="1.0" stroke-linecap="round" stroke-linejoin="round"/>
    <path d="M 118.83453369140625 89.03800964355469 C 78.89411163330078 145.347412109375 135.8744659423828 122.42396545410156 102.7475814819336 126.02576446533203" stroke-width="2" fill="none" stroke="rgb(0, 0, 0)" stroke-opacity="1.0" stroke-linecap="round" stroke-linejoin="round"/>
    <path d="M 110.82067108154297 114.24920654296875 C 107.41864776611328 95.02436828613281 102.12805938720703 119.84689331054688 101.30989074707031 94.67121887207031" stroke-width="2" fill="none" stroke="rgb(0, 0, 0)" stroke-opacity="1.0" stroke-linecap="round" stroke-linejoin="round"/>
    <path d="M 135.42208862304688 140.9303741455078 C 212.80966186523438 127.6537094116211 139.12100219726562 96.00325775146484 150.49835205078125 124.04322052001953" stroke-width="2" fill="none" stroke="rgb(0, 0, 0)" stroke-opacity="1.0" stroke-linecap="round" stroke-linejoin="round"/>
    <path d="M 44.931373596191406 128.39718627929688 C 38.55790328979492 167.58274841308594 144.98809814453125 156.61814880371094 129.1488800048828 153.8130340576172" stroke-width="2" fill="none" stroke="rgb(0, 0, 0)" stroke-opacity="1.0" stroke-linecap="round" stroke-linejoin="round"/>
    <path d="M 93.84744262695312 131.8406524658203 C 79.75983428955078 113.96135711669922 127.61659240722656 117.91433715820312 107.40269470214844 120.5757827758789" stroke-width="2" fill="none" stroke="rgb(0, 0, 0)" stroke-opacity="1.0" stroke-linecap="round" stroke-linejoin="round"/>
    <path d="M 114.85125732421875 148.42938232421875 C 207.25904846191406 147.99020385742188 141.72769165039062 157.58474731445312 95.60969543457031 119.69070434570312" stroke-width="2" fill="none" stroke="rgb(0, 0, 0)" stroke-opacity="1.0" stroke-linecap="round" stroke-linejoin="round"/>
    <path d="M 180.73995971679688 92.2270736694336 C 189.11180114746094 28.336748123168945 173.81263732910156 107.46916961669922 152.12576293945312 94.27139282226562" stroke-width="2" fill="none" stroke="rgb(0, 0, 0)" stroke-opacity="1.0" stroke-linecap="round" stroke-linejoin="round"/>
    <path d="M 129.8096160888672 109.59347534179688 C 167.73971557617188 138.6615753173828 171.00633239746094 70.61363220214844 119.90907287597656 92.55326080322266" stroke-width="2" fill="none" stroke="rgb(0, 0, 0)" stroke-opacity="1.0" stroke-linecap="round" stroke-linejoin="round"/>
    <path d="M 171.38217163085938 143.91981506347656 C 113.6296157836914 152.47412109375 51.09539794921875 89.11802673339844 50.348060607910156 126.11519622802734" stroke-width="2" fill="none" stroke="rgb(0, 0, 0)" stroke-opacity="1.0" stroke-linecap="round" stroke-linejoin="round"/>
    <path d="M 173.1846466064453 130.52642822265625 C 173.1583709716797 77.75646209716797 174.03262329101562 130.13909912109375 187.95143127441406 93.4217300415039" stroke-width="2" fill="none" stroke="rgb(0, 0, 0)" stroke-opacity="1.0" stroke-linecap="round" stroke-linejoin="round"/>
    <path d="M 130.2939910888672 118.36644744873047 C 164.83457946777344 102.14994049072266 100.3170394897461 121.66364288330078 140.0738983154297 116.55845642089844" stroke-width="2" fill="none" stroke="rgb(0, 0, 0)" stroke-opacity="1.0" stroke-linecap="round" stroke-linejoin="round"/>
    <path d="M 99.55817413330078 70.89463806152344 C 127.38162231445312 65.01107788085938 99.126708984375 97.97473907470703 167.05780029296875 93.84259033203125" stroke-width="2" fill="none" stroke="rgb(0, 0, 0)" stroke-opacity="1.0" stroke-linecap="round" stroke-linejoin="round"/>
    <path d="M 61.33692169189453 139.88697814941406 C 43.20607376098633 112.46720886230469 50.92413330078125 139.357421875 132.54010009765625 147.78379821777344" stroke-width="2" fill="none" stroke="rgb(0, 0, 0)" stroke-opacity="1.0" stroke-linecap="round" stroke-linejoin="round"/>
  </g>
</svg>
