<?xml version="1.0" ?>
<svg xmlns="http://www.w3.org/2000/svg" version="1.1" width="224" height="224">
  <defs/>
  <g>
    <path d="M 118.31361389160156 83.17207336425781 C 99.29618072509766 152.6947479248047 77.9649887084961 84.36046600341797 51.42053985595703 119.27348327636719" stroke-width="2" fill="none" stroke="rgb(0, 0, 0)" stroke-opacity="1.0" stroke-linecap="round" stroke-linejoin="round"/>
    <path d="M 144.33514404296875 112.77142333984375 C 189.70147705078125 122.73173522949219 209.79075622558594 184.3522491455078 53.250980377197266 143.71299743652344" stroke-width="2" fill="none" stroke="rgb(0, 0, 0)" stroke-opacity="1.0" stroke-linecap="round" stroke-linejoin="round"/>
    <path d="M 120.33671569824219 117.11163330078125 C 188.62417602539062 116.61852264404297 100.68582916259766 114.22959899902344 168.15997314453125 113.95714569091797" stroke-width="2" fill="none" stroke="rgb(0, 0, 0)" stroke-opacity="1.0" stroke-linecap="round" stroke-linejoin="round"/>
    <path d="M 139.20904541015625 132.9617919921875 C 215.35848999023438 153.36241149902344 153.51528930664062 71.41474914550781 177.00997924804688 98.73365020751953" stroke-width="2" fill="none" stroke="rgb(0, 0, 0)" stroke-opacity="1.0" stroke-linecap="round" stroke-linejoin="round"/>
    <path d="M 109.17694091796875 140.00245666503906 C 121.4985580444336 144.52110290527344 60.87939453125 130.09310913085938 143.38229370117188 137.05213928222656" stroke-width="2" fill="none" stroke="rgb(0, 0, 0)" stroke-opacity="1.0" stroke-linecap="round" stroke-linejoin="round"/>
    <path d="M 152.06289672851562 116.90291595458984 C 197.04473876953125 117.12601470947266 120.04180908203125 110.16188049316406 142.7679901123047 109.89140319824219" stroke-width="2" fill="none" stroke="rgb(0, 0, 0)" stroke-opacity="1.0" stroke-linecap="round" stroke-linejoin="round"/>
    <path d="M 59.65764236450195 113.59766387939453 C -2.0680744647979736 163.5038299560547 189.80746459960938 144.11978149414062 153.91943359375 151.24708557128906" stroke-width="2" fill="none" stroke="rgb(0, 0, 0)" stroke-opacity="1.0" stroke-linecap="round" stroke-linejoin="round"/>
    <path d="M 169.0481414794922 132.1005859375 C 85.38892364501953 129.52447509765625 145.76162719726562 115.6102523803711 126.72230529785156 128.34194946289062" stroke-width="2" fill="none" stroke="rgb(0, 0, 0)" stroke-opacity="1.0" stroke-linecap="round" stroke-linejoin="round"/>
    <path d="M 146.4551544189453 136.57943725585938 C 210.76954650878906 141.4534454345703 84.19152069091797 162.1794891357422 115.91197967529297 109.70965576171875" stroke-width="2" fill="none" stroke="rgb(0, 0, 0)" stroke-opacity="1.0" stroke-linecap="round" stroke-linejoin="round"/>
    <path d="M 171.8517608642578 111.95669555664062 C 201.8584442138672 29.96161460876465 161.35890197753906 98.6187744140625 174.1770782470703 75.33647155761719" stroke-width="2" fill="none" stroke="rgb(0, 0, 0)" stroke-opacity="1.0" stroke-linecap="round" stroke-linejoin="round"/>
    <path d="M 140.548828125 114.02967071533203 C 189.35108947753906 148.41055297851562 183.78036499023438 51.6693115234375 135.4270477294922 84.59426879882812" stroke-width="2" fill="none" stroke="rgb(0, 0, 0)" stroke-opacity="1.0" stroke-linecap="round" stroke-linejoin="round"/>
    <path d="M 58.74442672729492 112.47018432617188 C 155.63632202148438 87.40184020996094 86.86831665039062 93.15699768066406 116.70028686523438 129.0790557861328" stroke-width="2" fill="none" stroke="rgb(0, 0, 0)" stroke-opacity="1.0" stroke-linecap="round" stroke-linejoin="round"/>
    <path d="M 102.13433837890625 135.6117706298828 C 121.83149719238281 139.3852996826172 39.77495193481445 114.94348907470703 125.37327575683594 142.0087127685547" stroke-width="2" fill="none" stroke="rgb(0, 0, 0)" stroke-opacity="1.0" stroke-linecap="round" stroke-linejoin="round"/>
    <path d="M 139.4261016845703 122.67171478271484 C 165.4263153076172 95.71955871582031 163.8303680419922 122.14725494384766 143.44674682617188 110.2004165649414" stroke-width="2" fill="none" stroke="rgb(0, 0, 0)" stroke-opacity="1.0" stroke-linecap="round" stroke-linejoin="round"/>
    <path d="M 116.94039154052734 92.92093658447266 C 105.49344635009766 47.38618087768555 148.52610778808594 90.79212951660156 131.59690856933594 67.85261535644531" stroke-width="2" fill="none" stroke="rgb(0, 0, 0)" stroke-opacity="1.0" stroke-linecap="round" stroke-linejoin="round"/>
    <path d="M 53.89933395385742 114.87639617919922 C 71.51277160644531 80.93054962158203 119.82254791259766 113.49089813232422 142.823486328125 123.3147964477539" stroke-width="2" fill="none" stroke="rgb(0, 0, 0)" stroke-opacity="1.0" stroke-linecap="round" stroke-linejoin="round"/>
  </g>
</svg>
