<?xml version="1.0" ?>
<svg xmlns="http://www.w3.org/2000/svg" version="1.1" width="224" height="224">
  <defs/>
  <g>
    <path d="M 108.1220703125 72.83453369140625 C 111.81523132324219 117.52764892578125 58.85227966308594 78.05415344238281 44.10357666015625 131.80484008789062" stroke-width="2" fill="none" stroke="rgb(0, 0, 0)" stroke-opacity="1.0" stroke-linecap="round" stroke-linejoin="round"/>
    <path d="M 174.5378875732422 105.6605453491211 C 159.32546997070312 102.08350372314453 193.02438354492188 163.17242431640625 63.48895263671875 132.8486328125" stroke-width="2" fill="none" stroke="rgb(0, 0, 0)" stroke-opacity="1.0" stroke-linecap="round" stroke-linejoin="round"/>
    <path d="M 87.53540802001953 100.39205932617188 C 154.92108154296875 97.57127380371094 50.466033935546875 148.9180908203125 165.4391632080078 142.6257781982422" stroke-width="2" fill="none" stroke="rgb(0, 0, 0)" stroke-opacity="1.0" stroke-linecap="round" stroke-linejoin="round"/>
    <path d="M 107.0792465209961 111.75933074951172 C 124.39256286621094 82.75988006591797 69.14696502685547 139.0332794189453 162.313720703125 131.39968872070312" stroke-width="2" fill="none" stroke="rgb(0, 0, 0)" stroke-opacity="1.0" stroke-linecap="round" stroke-linejoin="round"/>
    <path d="M 108.94915008544922 115.29167175292969 C 150.52349853515625 130.3550262451172 93.8770751953125 123.92790222167969 138.77239990234375 104.65621948242188" stroke-width="2" fill="none" stroke="rgb(0, 0, 0)" stroke-opacity="1.0" stroke-linecap="round" stroke-linejoin="round"/>
    <path d="M 168.83509826660156 132.39373779296875 C 183.59707641601562 126.84512329101562 154.98439025878906 96.39414978027344 167.15467834472656 125.35260009765625" stroke-width="2" fill="none" stroke="rgb(0, 0, 0)" stroke-opacity="1.0" stroke-linecap="round" stroke-linejoin="round"/>
    <path d="M 45.71621322631836 129.90191650390625 C 23.62519645690918 167.23797607421875 206.4938201904297 166.0483856201172 160.63021850585938 140.59278869628906" stroke-width="2" fill="none" stroke="rgb(0, 0, 0)" stroke-opacity="1.0" stroke-linecap="round" stroke-linejoin="round"/>
    <path d="M 157.44557189941406 130.3822021484375 C 124.2210922241211 125.84042358398438 179.98001098632812 108.30216979980469 110.64820861816406 105.44816589355469" stroke-width="2" fill="none" stroke="rgb(0, 0, 0)" stroke-opacity="1.0" stroke-linecap="round" stroke-linejoin="round"/>
    <path d="M 106.20330047607422 141.5912322998047 C 246.96128845214844 138.0673370361328 133.70944213867188 146.94351196289062 87.22542572021484 111.3491439819336" stroke-width="2" fill="none" stroke="rgb(0, 0, 0)" stroke-opacity="1.0" stroke-linecap="round" stroke-linejoin="round"/>
    <path d="M 182.26353454589844 85.96281433105469 C 198.8680419921875 31.538375854492188 163.62875366210938 91.67875671386719 168.02235412597656 81.31636047363281" stroke-width="2" fill="none" stroke="rgb(0, 0, 0)" stroke-opacity="1.0" stroke-linecap="round" stroke-linejoin="round"/>
    <path d="M 125.8267593383789 114.1847915649414 C 193.7765655517578 170.0570526123047 179.7473602294922 45.787818908691406 137.7352294921875 87.5489501953125" stroke-width="2" fill="none" stroke="rgb(0, 0, 0)" stroke-opacity="1.0" stroke-linecap="round" stroke-linejoin="round"/>
    <path d="M 109.76214599609375 105.01210021972656 C 117.9150619506836 131.66709899902344 52.00261688232422 75.88770294189453 50.57041549682617 118.32455444335938" stroke-width="2" fill="none" stroke="rgb(0, 0, 0)" stroke-opacity="1.0" stroke-linecap="round" stroke-linejoin="round"/>
    <path d="M 140.53993225097656 119.02086639404297 C 198.31561279296875 113.54772186279297 122.04186248779297 102.31192016601562 164.1802215576172 113.42190551757812" stroke-width="2" fill="none" stroke="rgb(0, 0, 0)" stroke-opacity="1.0" stroke-linecap="round" stroke-linejoin="round"/>
    <path d="M 182.258056640625 71.61486053466797 C 194.78213500976562 86.981689453125 174.49664306640625 97.94886016845703 185.89794921875 105.32866668701172" stroke-width="2" fill="none" stroke="rgb(0, 0, 0)" stroke-opacity="1.0" stroke-linecap="round" stroke-linejoin="round"/>
    <path d="M 98.71796417236328 79.46409606933594 C 109.79570007324219 50.472469329833984 124.26592254638672 66.5045394897461 138.015625 78.67874908447266" stroke-width="2" fill="none" stroke="rgb(0, 0, 0)" stroke-opacity="1.0" stroke-linecap="round" stroke-linejoin="round"/>
    <path d="M 84.19940185546875 140.4130859375 C 29.473596572875977 119.10067749023438 53.56428527832031 135.09422302246094 111.4430923461914 153.49288940429688" stroke-width="2" fill="none" stroke="rgb(0, 0, 0)" stroke-opacity="1.0" stroke-linecap="round" stroke-linejoin="round"/>
  </g>
</svg>
