<?xml version="1.0" ?>
<svg xmlns="http://www.w3.org/2000/svg" version="1.1" width="224" height="224">
  <defs/>
  <g>
    <path d="M 103.19702911376953 70.52606201171875 C 100.69364166259766 128.4055938720703 56.49809265136719 55.625667572021484 38.431861877441406 133.44224548339844" stroke-width="2" fill="none" stroke="rgb(0, 0, 0)" stroke-opacity="1.0" stroke-linecap="round" stroke-linejoin="round"/>
    <path d="M 155.91690063476562 135.2510223388672 C 199.48313903808594 128.74749755859375 182.85421752929688 178.526611328125 70.4623031616211 154.9833984375" stroke-width="2" fill="none" stroke="rgb(0, 0, 0)" stroke-opacity="1.0" stroke-linecap="round" stroke-linejoin="round"/>
    <path d="M 50.44707107543945 140.9983367919922 C 36.82272720336914 94.86756134033203 80.15929412841797 127.15776824951172 100.13639831542969 131.9119873046875" stroke-width="2" fill="none" stroke="rgb(0, 0, 0)" stroke-opacity="1.0" stroke-linecap="round" stroke-linejoin="round"/>
    <path d="M 149.03489685058594 100.73893737792969 C 78.17562866210938 136.01046752929688 178.16256713867188 123.79573059082031 136.64781188964844 117.8538818359375" stroke-width="2" fill="none" stroke="rgb(0, 0, 0)" stroke-opacity="1.0" stroke-linecap="round" stroke-linejoin="round"/>
    <path d="M 99.28672790527344 78.12932586669922 C 131.18006896972656 62.778892517089844 95.89285278320312 114.73011016845703 134.61326599121094 99.19221496582031" stroke-width="2" fill="none" stroke="rgb(0, 0, 0)" stroke-opacity="1.0" stroke-linecap="round" stroke-linejoin="round"/>
    <path d="M 99.76461029052734 144.84112548828125 C 197.35296630859375 148.87489318847656 105.86493682861328 150.9560546875 142.9556121826172 159.156494140625" stroke-width="2" fill="none" stroke="rgb(0, 0, 0)" stroke-opacity="1.0" stroke-linecap="round" stroke-linejoin="round"/>
    <path d="M 44.77418899536133 125.37327575683594 C 11.027800559997559 163.37977600097656 172.1214141845703 157.33506774902344 155.0015411376953 157.63772583007812" stroke-width="2" fill="none" stroke="rgb(0, 0, 0)" stroke-opacity="1.0" stroke-linecap="round" stroke-linejoin="round"/>
    <path d="M 87.86463928222656 97.6596908569336 C 97.77394104003906 99.6180419921875 142.23095703125 106.1836166381836 126.77678680419922 134.72171020507812" stroke-width="2" fill="none" stroke="rgb(0, 0, 0)" stroke-opacity="1.0" stroke-linecap="round" stroke-linejoin="round"/>
    <path d="M 130.18289184570312 141.18138122558594 C 182.70370483398438 136.59803771972656 144.82110595703125 153.16294860839844 110.38260650634766 128.05801391601562" stroke-width="2" fill="none" stroke="rgb(0, 0, 0)" stroke-opacity="1.0" stroke-linecap="round" stroke-linejoin="round"/>
    <path d="M 178.6089630126953 90.41331481933594 C 186.25042724609375 31.581995010375977 150.7490234375 114.04701232910156 161.85572814941406 96.31753540039062" stroke-width="2" fill="none" stroke="rgb(0, 0, 0)" stroke-opacity="1.0" stroke-linecap="round" stroke-linejoin="round"/>
    <path d="M 133.21498107910156 121.61547088623047 C 171.28228759765625 145.7247314453125 171.53652954101562 87.3456802368164 117.8227767944336 104.75509643554688" stroke-width="2" fill="none" stroke="rgb(0, 0, 0)" stroke-opacity="1.0" stroke-linecap="round" stroke-linejoin="round"/>
    <path d="M 165.60704040527344 145.81224060058594 C 54.53413772583008 157.96820068359375 22.712692260742188 113.82794952392578 73.3678970336914 147.12149047851562" stroke-width="2" fill="none" stroke="rgb(0, 0, 0)" stroke-opacity="1.0" stroke-linecap="round" stroke-linejoin="round"/>
    <path d="M 169.72271728515625 119.8035888671875 C 172.99790954589844 92.63160705566406 159.18626403808594 126.16716766357422 177.54551696777344 96.8207778930664" stroke-width="2" fill="none" stroke="rgb(0, 0, 0)" stroke-opacity="1.0" stroke-linecap="round" stroke-linejoin="round"/>
    <path d="M 154.22402954101562 118.24021911621094 C 193.81224060058594 131.1291961669922 138.21360778808594 128.8170928955078 167.81541442871094 134.5767364501953" stroke-width="2" fill="none" stroke="rgb(0, 0, 0)" stroke-opacity="1.0" stroke-linecap="round" stroke-linejoin="round"/>
    <path d="M 101.58802032470703 75.20286560058594 C 130.5049285888672 83.30741882324219 103.0409164428711 98.63553619384766 169.30604553222656 89.43834686279297" stroke-width="2" fill="none" stroke="rgb(0, 0, 0)" stroke-opacity="1.0" stroke-linecap="round" stroke-linejoin="round"/>
    <path d="M 81.61510467529297 123.93063354492188 C 61.5412483215332 106.5169448852539 36.61949157714844 144.8750457763672 145.342529296875 147.372802734375" stroke-width="2" fill="none" stroke="rgb(0, 0, 0)" stroke-opacity="1.0" stroke-linecap="round" stroke-linejoin="round"/>
  </g>
</svg>
