<?xml version="1.0" ?>
<svg xmlns="http://www.w3.org/2000/svg" version="1.1" width="224" height="224">
  <defs/>
  <g>
    <path d="M 99.98281860351562 69.39010620117188 C 113.52493286132812 125.14897155761719 58.64803695678711 61.64854049682617 41.572105407714844 128.73382568359375" stroke-width="2" fill="none" stroke="rgb(0, 0, 0)" stroke-opacity="1.0" stroke-linecap="round" stroke-linejoin="round"/>
    <path d="M 149.03126525878906 107.95599365234375 C 192.6829376220703 101.02378845214844 178.94032287597656 174.6248016357422 65.93171691894531 123.7094497680664" stroke-width="2" fill="none" stroke="rgb(0, 0, 0)" stroke-opacity="1.0" stroke-linecap="round" stroke-linejoin="round"/>
    <path d="M 82.46980285644531 111.46467590332031 C 124.01818084716797 73.35086822509766 85.8843994140625 139.65805053710938 168.4744110107422 129.8191375732422" stroke-width="2" fill="none" stroke="rgb(0, 0, 0)" stroke-opacity="1.0" stroke-linecap="round" stroke-linejoin="round"/>
    <path d="M 139.79708862304688 132.6737060546875 C 114.51177215576172 112.19326782226562 106.89244842529297 138.3801727294922 105.17850494384766 104.12242126464844" stroke-width="2" fill="none" stroke="rgb(0, 0, 0)" stroke-opacity="1.0" stroke-linecap="round" stroke-linejoin="round"/>
    <path d="M 119.29183197021484 124.12666320800781 C 180.43081665039062 107.59318542480469 108.92898559570312 102.9631118774414 139.84579467773438 109.4395980834961" stroke-width="2" fill="none" stroke="rgb(0, 0, 0)" stroke-opacity="1.0" stroke-linecap="round" stroke-linejoin="round"/>
    <path d="M 115.29029083251953 115.76300048828125 C 225.73699951171875 127.8197250366211 134.18734741210938 103.42589569091797 174.91952514648438 104.59812927246094" stroke-width="2" fill="none" stroke="rgb(0, 0, 0)" stroke-opacity="1.0" stroke-linecap="round" stroke-linejoin="round"/>
    <path d="M 47.5191650390625 120.70068359375 C 39.90277099609375 149.10667419433594 197.07240295410156 158.85296630859375 169.5994110107422 138.43467712402344" stroke-width="2" fill="none" stroke="rgb(0, 0, 0)" stroke-opacity="1.0" stroke-linecap="round" stroke-linejoin="round"/>
    <path d="M 137.75096130371094 96.32133483886719 C 75.78691101074219 99.64629364013672 113.52667999267578 137.43399047851562 117.84954071044922 90.08769226074219" stroke-width="2" fill="none" stroke="rgb(0, 0, 0)" stroke-opacity="1.0" stroke-linecap="round" stroke-linejoin="round"/>
    <path d="M 93.4786376953125 132.41844177246094 C 233.76522827148438 141.04119873046875 160.6627197265625 132.7920379638672 85.7374496459961 102.27305603027344" stroke-width="2" fill="none" stroke="rgb(0, 0, 0)" stroke-opacity="1.0" stroke-linecap="round" stroke-linejoin="round"/>
    <path d="M 182.79116821289062 83.37202453613281 C 197.45953369140625 31.028961181640625 162.7105255126953 96.29112243652344 170.97250366210938 76.78186798095703" stroke-width="2" fill="none" stroke="rgb(0, 0, 0)" stroke-opacity="1.0" stroke-linecap="round" stroke-linejoin="round"/>
    <path d="M 148.20645141601562 132.6404571533203 C 189.5535125732422 140.967041015625 172.05148315429688 52.0703125 142.97682189941406 81.3249740600586" stroke-width="2" fill="none" stroke="rgb(0, 0, 0)" stroke-opacity="1.0" stroke-linecap="round" stroke-linejoin="round"/>
    <path d="M 133.63648986816406 137.1739959716797 C 111.80250549316406 140.6573486328125 52.583656311035156 75.74004364013672 41.87419128417969 122.79417419433594" stroke-width="2" fill="none" stroke="rgb(0, 0, 0)" stroke-opacity="1.0" stroke-linecap="round" stroke-linejoin="round"/>
    <path d="M 158.42515563964844 104.07402801513672 C 161.953369140625 122.66020202636719 148.00125122070312 92.7723159790039 167.18576049804688 108.2032241821289" stroke-width="2" fill="none" stroke="rgb(0, 0, 0)" stroke-opacity="1.0" stroke-linecap="round" stroke-linejoin="round"/>
    <path d="M 166.2491455078125 84.41385650634766 C 195.58836364746094 72.70690155029297 162.28834533691406 127.3592300415039 163.98741149902344 120.74624633789062" stroke-width="2" fill="none" stroke="rgb(0, 0, 0)" stroke-opacity="1.0" stroke-linecap="round" stroke-linejoin="round"/>
    <path d="M 99.39041137695312 73.36832427978516 C 119.94705200195312 60.489864349365234 106.44780731201172 78.86260986328125 134.08998107910156 80.53746795654297" stroke-width="2" fill="none" stroke="rgb(0, 0, 0)" stroke-opacity="1.0" stroke-linecap="round" stroke-linejoin="round"/>
    <path d="M 73.52379608154297 142.03396606445312 C 14.896309852600098 108.85657501220703 51.594303131103516 128.18272399902344 130.07862854003906 139.882568359375" stroke-width="2" fill="none" stroke="rgb(0, 0, 0)" stroke-opacity="1.0" stroke-linecap="round" stroke-linejoin="round"/>
  </g>
</svg>
