<?xml version="1.0" ?>
<svg xmlns="http://www.w3.org/2000/svg" version="1.1" width="224" height="224">
  <defs/>
  <g>
    <path d="M 92.9988021850586 102.37676239013672 C 96.3462905883789 104.1329345703125 80.3238754272461 95.67929077148438 85.76127624511719 102.45655822753906" stroke-width="2" fill="none" stroke="rgb(0, 0, 0)" stroke-opacity="1.0" stroke-linecap="round" stroke-linejoin="round"/>
    <path d="M 126.8714828491211 151.60386657714844 C 126.34494018554688 143.86419677734375 122.00596618652344 139.81753540039062 109.83348083496094 141.0394287109375" stroke-width="2" fill="none" stroke="rgb(0, 0, 0)" stroke-opacity="1.0" stroke-linecap="round" stroke-linejoin="round"/>
    <path d="M 165.3843231201172 133.286376953125 C 115.39710235595703 134.01751708984375 108.91004943847656 120.84224700927734 98.66339874267578 120.69660186767578" stroke-width="2" fill="none" stroke="rgb(0, 0, 0)" stroke-opacity="1.0" stroke-linecap="round" stroke-linejoin="round"/>
    <path d="M 141.53790283203125 118.8194808959961 C 152.9110565185547 122.08495330810547 163.9855499267578 112.30712890625 143.3828582763672 114.26423645019531" stroke-width="2" fill="none" stroke="rgb(0, 0, 0)" stroke-opacity="1.0" stroke-linecap="round" stroke-linejoin="round"/>
    <path d="M 124.90642547607422 98.8185806274414 C 135.52359008789062 83.99173736572266 126.82967376708984 89.06722259521484 120.28832244873047 98.14369201660156" stroke-width="2" fill="none" stroke="rgb(0, 0, 0)" stroke-opacity="1.0" stroke-linecap="round" stroke-linejoin="round"/>
    <path d="M 114.43620300292969 75.10302734375 C 108.64479064941406 86.02308654785156 106.34602355957031 87.70448303222656 114.13849639892578 101.90859985351562" stroke-width="2" fill="none" stroke="rgb(0, 0, 0)" stroke-opacity="1.0" stroke-linecap="round" stroke-linejoin="round"/>
    <path d="M 60.59554672241211 138.3622589111328 C 61.30141067504883 150.2476806640625 100.79362487792969 154.07569885253906 102.54195404052734 145.00416564941406" stroke-width="2" fill="none" stroke="rgb(0, 0, 0)" stroke-opacity="1.0" stroke-linecap="round" stroke-linejoin="round"/>
    <path d="M 150.9747772216797 136.5141143798828 C 135.91400146484375 125.00936126708984 133.36898803710938 120.16350555419922 108.4292984008789 124.49127197265625" stroke-width="2" fill="none" stroke="rgb(0, 0, 0)" stroke-opacity="1.0" stroke-linecap="round" stroke-linejoin="round"/>
    <path d="M 117.72767639160156 134.5619659423828 C 149.47390747070312 136.28248596191406 152.1874237060547 127.28897857666016 115.41706848144531 133.7471160888672" stroke-width="2" fill="none" stroke="rgb(0, 0, 0)" stroke-opacity="1.0" stroke-linecap="round" stroke-linejoin="round"/>
    <path d="M 171.666015625 69.40080261230469 C 173.08241271972656 76.52230072021484 166.8729705810547 85.62345123291016 175.05892944335938 58.160762786865234" stroke-width="2" fill="none" stroke="rgb(0, 0, 0)" stroke-opacity="1.0" stroke-linecap="round" stroke-linejoin="round"/>
    <path d="M 159.7470245361328 135.23489379882812 C 177.50413513183594 147.6912841796875 183.9959259033203 157.0174102783203 163.20025634765625 158.11073303222656" stroke-width="2" fill="none" stroke="rgb(0, 0, 0)" stroke-opacity="1.0" stroke-linecap="round" stroke-linejoin="round"/>
    <path d="M 66.44808959960938 146.31295776367188 C 48.8800048828125 141.7081298828125 36.15515899658203 135.69471740722656 62.02101135253906 142.17816162109375" stroke-width="2" fill="none" stroke="rgb(0, 0, 0)" stroke-opacity="1.0" stroke-linecap="round" stroke-linejoin="round"/>
    <path d="M 117.80524444580078 77.3781967163086 C 109.83177185058594 98.91133117675781 118.63655853271484 91.614013671875 117.59381103515625 71.06000518798828" stroke-width="2" fill="none" stroke="rgb(0, 0, 0)" stroke-opacity="1.0" stroke-linecap="round" stroke-linejoin="round"/>
    <path d="M 174.4287567138672 94.26460266113281 C 165.9696807861328 87.34613037109375 152.45681762695312 84.97651672363281 156.4649200439453 94.66032409667969" stroke-width="2" fill="none" stroke="rgb(0, 0, 0)" stroke-opacity="1.0" stroke-linecap="round" stroke-linejoin="round"/>
    <path d="M 78.10098266601562 81.90973663330078 C 67.36986541748047 101.5774917602539 74.90544891357422 91.76542663574219 83.2740249633789 85.38802337646484" stroke-width="2" fill="none" stroke="rgb(0, 0, 0)" stroke-opacity="1.0" stroke-linecap="round" stroke-linejoin="round"/>
    <path d="M 58.95306396484375 101.88892364501953 C 54.36219787597656 109.8461685180664 47.422340393066406 108.96672821044922 48.62461853027344 131.04090881347656" stroke-width="2" fill="none" stroke="rgb(0, 0, 0)" stroke-opacity="1.0" stroke-linecap="round" stroke-linejoin="round"/>
  </g>
</svg>
