<?xml version="1.0" ?>
<svg xmlns="http://www.w3.org/2000/svg" version="1.1" width="224" height="224">
  <defs/>
  <g>
    <path d="M 97.92910766601562 104.07561492919922 C 147.7728271484375 111.8123779296875 63.95952606201172 74.9915542602539 48.61738967895508 117.49437713623047" stroke-width="2" fill="none" stroke="rgb(0, 0, 0)" stroke-opacity="1.0" stroke-linecap="round" stroke-linejoin="round"/>
    <path d="M 94.73152923583984 121.93069458007812 C 213.5373992919922 120.3497314453125 139.9365692138672 157.1092071533203 94.51329040527344 130.33274841308594" stroke-width="2" fill="none" stroke="rgb(0, 0, 0)" stroke-opacity="1.0" stroke-linecap="round" stroke-linejoin="round"/>
    <path d="M 136.3227996826172 93.23882293701172 C 107.39193725585938 79.98653411865234 87.3502426147461 140.92652893066406 153.46255493164062 128.1875" stroke-width="2" fill="none" stroke="rgb(0, 0, 0)" stroke-opacity="1.0" stroke-linecap="round" stroke-linejoin="round"/>
    <path d="M 158.0327911376953 92.97357940673828 C 196.0284423828125 47.388275146484375 182.2133331298828 85.39307403564453 161.42066955566406 123.66896057128906" stroke-width="2" fill="none" stroke="rgb(0, 0, 0)" stroke-opacity="1.0" stroke-linecap="round" stroke-linejoin="round"/>
    <path d="M 102.25619506835938 71.42720031738281 C 116.8570785522461 111.99906921386719 136.44137573242188 84.07997131347656 147.58468627929688 104.99085235595703" stroke-width="2" fill="none" stroke="rgb(0, 0, 0)" stroke-opacity="1.0" stroke-linecap="round" stroke-linejoin="round"/>
    <path d="M 96.39949798583984 70.3924331665039 C 102.6392822265625 115.59919738769531 74.73177337646484 99.54756927490234 77.10987854003906 123.14085388183594" stroke-width="2" fill="none" stroke="rgb(0, 0, 0)" stroke-opacity="1.0" stroke-linecap="round" stroke-linejoin="round"/>
    <path d="M 45.83967590332031 136.64303588867188 C 45.288612365722656 146.08950805664062 94.05169677734375 144.970703125 121.02146911621094 157.1191864013672" stroke-width="2" fill="none" stroke="rgb(0, 0, 0)" stroke-opacity="1.0" stroke-linecap="round" stroke-linejoin="round"/>
    <path d="M 58.60747146606445 150.60049438476562 C 217.9508819580078 167.0166473388672 197.91871643066406 141.5480194091797 92.29449462890625 131.48829650878906" stroke-width="2" fill="none" stroke="rgb(0, 0, 0)" stroke-opacity="1.0" stroke-linecap="round" stroke-linejoin="round"/>
    <path d="M 110.50309753417969 116.87454986572266 C 137.07162475585938 105.89103698730469 128.36827087402344 124.41924285888672 110.4529800415039 120.510009765625" stroke-width="2" fill="none" stroke="rgb(0, 0, 0)" stroke-opacity="1.0" stroke-linecap="round" stroke-linejoin="round"/>
    <path d="M 170.07659912109375 88.07508087158203 C 195.84681701660156 29.05221176147461 158.23243713378906 102.90856170654297 177.0498809814453 99.90886688232422" stroke-width="2" fill="none" stroke="rgb(0, 0, 0)" stroke-opacity="1.0" stroke-linecap="round" stroke-linejoin="round"/>
    <path d="M 160.81533813476562 136.88040161132812 C 197.32232666015625 134.07559204101562 178.17434692382812 162.38006591796875 122.13084411621094 150.7299041748047" stroke-width="2" fill="none" stroke="rgb(0, 0, 0)" stroke-opacity="1.0" stroke-linecap="round" stroke-linejoin="round"/>
    <path d="M 146.88204956054688 151.4104461669922 C 48.44588088989258 141.21522521972656 50.556297302246094 117.04991912841797 73.11708068847656 131.1519317626953" stroke-width="2" fill="none" stroke="rgb(0, 0, 0)" stroke-opacity="1.0" stroke-linecap="round" stroke-linejoin="round"/>
    <path d="M 155.5906524658203 120.76930236816406 C 101.00588989257812 117.41859436035156 185.3829345703125 145.13894653320312 114.39332580566406 132.71630859375" stroke-width="2" fill="none" stroke="rgb(0, 0, 0)" stroke-opacity="1.0" stroke-linecap="round" stroke-linejoin="round"/>
    <path d="M 180.30567932128906 73.79933166503906 C 166.58853149414062 118.84646606445312 137.7545928955078 80.27190399169922 153.56280517578125 106.58411407470703" stroke-width="2" fill="none" stroke="rgb(0, 0, 0)" stroke-opacity="1.0" stroke-linecap="round" stroke-linejoin="round"/>
    <path d="M 108.30598449707031 87.4896469116211 C 114.04434967041016 118.55593872070312 112.35967254638672 106.3388671875 99.62547302246094 107.75725555419922" stroke-width="2" fill="none" stroke="rgb(0, 0, 0)" stroke-opacity="1.0" stroke-linecap="round" stroke-linejoin="round"/>
    <path d="M 83.45853424072266 105.98072814941406 C 51.290794372558594 81.74092102050781 -1.1900224685668945 152.2040557861328 70.3923568725586 151.06265258789062" stroke-width="2" fill="none" stroke="rgb(0, 0, 0)" stroke-opacity="1.0" stroke-linecap="round" stroke-linejoin="round"/>
  </g>
</svg>
