<?xml version="1.0" ?>
<svg xmlns="http://www.w3.org/2000/svg" version="1.1" width="224" height="224">
  <defs/>
  <g>
    <path d="M 114.71255493164062 67.1295166015625 C 135.4078369140625 121.65523529052734 54.81697463989258 72.33992004394531 50.55554962158203 115.52633666992188" stroke-width="2" fill="none" stroke="rgb(0, 0, 0)" stroke-opacity="1.0" stroke-linecap="round" stroke-linejoin="round"/>
    <path d="M 153.5248260498047 137.8549041748047 C 205.7101287841797 125.3648910522461 187.62127685546875 183.2534942626953 62.21797180175781 137.94569396972656" stroke-width="2" fill="none" stroke="rgb(0, 0, 0)" stroke-opacity="1.0" stroke-linecap="round" stroke-linejoin="round"/>
    <path d="M 140.07217407226562 114.84452819824219 C 204.5688934326172 123.08221435546875 150.22152709960938 121.64026641845703 168.8056640625 103.66569519042969" stroke-width="2" fill="none" stroke="rgb(0, 0, 0)" stroke-opacity="1.0" stroke-linecap="round" stroke-linejoin="round"/>
    <path d="M 166.8335723876953 145.85488891601562 C 194.13543701171875 164.02615356445312 198.45977783203125 78.92686462402344 190.45123291015625 97.6490707397461" stroke-width="2" fill="none" stroke="rgb(0, 0, 0)" stroke-opacity="1.0" stroke-linecap="round" stroke-linejoin="round"/>
    <path d="M 140.0463409423828 154.5464324951172 C 250.18484497070312 137.45851135253906 93.77618408203125 150.12277221679688 70.15174865722656 133.30722045898438" stroke-width="2" fill="none" stroke="rgb(0, 0, 0)" stroke-opacity="1.0" stroke-linecap="round" stroke-linejoin="round"/>
    <path d="M 150.02188110351562 87.3052978515625 C 195.2384033203125 83.7159194946289 166.76712036132812 114.57378387451172 173.85084533691406 95.65764617919922" stroke-width="2" fill="none" stroke="rgb(0, 0, 0)" stroke-opacity="1.0" stroke-linecap="round" stroke-linejoin="round"/>
    <path d="M 58.63226318359375 102.92381286621094 C -14.072294235229492 170.0887908935547 172.58287048339844 146.75454711914062 155.19166564941406 147.79315185546875" stroke-width="2" fill="none" stroke="rgb(0, 0, 0)" stroke-opacity="1.0" stroke-linecap="round" stroke-linejoin="round"/>
    <path d="M 152.6141357421875 100.78103637695312 C 93.10321044921875 99.57545471191406 170.9075164794922 80.06877899169922 118.97732543945312 96.95610809326172" stroke-width="2" fill="none" stroke="rgb(0, 0, 0)" stroke-opacity="1.0" stroke-linecap="round" stroke-linejoin="round"/>
    <path d="M 122.28813934326172 112.63416290283203 C 164.2929229736328 122.26512908935547 133.29966735839844 85.58859252929688 152.89895629882812 111.25900268554688" stroke-width="2" fill="none" stroke="rgb(0, 0, 0)" stroke-opacity="1.0" stroke-linecap="round" stroke-linejoin="round"/>
    <path d="M 159.88717651367188 81.60193634033203 C 203.44178771972656 23.271207809448242 176.65077209472656 121.11528778076172 164.1426544189453 88.99933624267578" stroke-width="2" fill="none" stroke="rgb(0, 0, 0)" stroke-opacity="1.0" stroke-linecap="round" stroke-linejoin="round"/>
    <path d="M 95.47884368896484 104.10047149658203 C 197.73313903808594 174.3250274658203 179.37889099121094 61.782875061035156 129.751708984375 86.38838958740234" stroke-width="2" fill="none" stroke="rgb(0, 0, 0)" stroke-opacity="1.0" stroke-linecap="round" stroke-linejoin="round"/>
    <path d="M 54.16460418701172 127.57559204101562 C 152.7063446044922 151.9329833984375 142.0540771484375 161.3417510986328 92.78599548339844 129.124755859375" stroke-width="2" fill="none" stroke="rgb(0, 0, 0)" stroke-opacity="1.0" stroke-linecap="round" stroke-linejoin="round"/>
    <path d="M 89.29157257080078 126.52867126464844 C 236.85191345214844 153.11343383789062 74.9424819946289 121.6784896850586 177.1814727783203 120.67485809326172" stroke-width="2" fill="none" stroke="rgb(0, 0, 0)" stroke-opacity="1.0" stroke-linecap="round" stroke-linejoin="round"/>
    <path d="M 164.1846923828125 108.93951416015625 C 129.04833984375 109.62336730957031 171.07009887695312 91.07599639892578 131.62142944335938 106.60001373291016" stroke-width="2" fill="none" stroke="rgb(0, 0, 0)" stroke-opacity="1.0" stroke-linecap="round" stroke-linejoin="round"/>
    <path d="M 108.70475006103516 120.0787353515625 C 95.82606506347656 49.056243896484375 161.09768676757812 103.84127044677734 115.77433013916016 76.14021301269531" stroke-width="2" fill="none" stroke="rgb(0, 0, 0)" stroke-opacity="1.0" stroke-linecap="round" stroke-linejoin="round"/>
    <path d="M 72.11174011230469 116.25680541992188 C 13.641901016235352 110.85597229003906 65.38919067382812 122.83489990234375 58.30681228637695 124.29655456542969" stroke-width="2" fill="none" stroke="rgb(0, 0, 0)" stroke-opacity="1.0" stroke-linecap="round" stroke-linejoin="round"/>
  </g>
</svg>
