<?xml version="1.0" ?>
<svg xmlns="http://www.w3.org/2000/svg" version="1.1" width="224" height="224">
  <defs/>
  <g>
    <path d="M 103.65234375 70.88712310791016 C 129.9591522216797 119.79026794433594 67.27737426757812 69.94851684570312 48.76719665527344 118.96613311767578" stroke-width="2" fill="none" stroke="rgb(0, 0, 0)" stroke-opacity="1.0" stroke-linecap="round" stroke-linejoin="round"/>
    <path d="M 143.62339782714844 108.37446594238281 C 178.24642944335938 90.9898910522461 198.29971313476562 153.35728454589844 63.17198944091797 130.39764404296875" stroke-width="2" fill="none" stroke="rgb(0, 0, 0)" stroke-opacity="1.0" stroke-linecap="round" stroke-linejoin="round"/>
    <path d="M 102.8212661743164 97.0972900390625 C 120.47370910644531 78.69342803955078 56.147911071777344 135.64805603027344 173.689697265625 127.29212951660156" stroke-width="2" fill="none" stroke="rgb(0, 0, 0)" stroke-opacity="1.0" stroke-linecap="round" stroke-linejoin="round"/>
    <path d="M 118.2255859375 125.82699584960938 C 189.78897094726562 81.01557159423828 107.83132934570312 118.23575592041016 160.136962890625 129.15536499023438" stroke-width="2" fill="none" stroke="rgb(0, 0, 0)" stroke-opacity="1.0" stroke-linecap="round" stroke-linejoin="round"/>
    <path d="M 113.445556640625 106.4155044555664 C 184.03895568847656 116.05765533447266 61.76444625854492 104.55455780029297 142.86940002441406 109.15011596679688" stroke-width="2" fill="none" stroke="rgb(0, 0, 0)" stroke-opacity="1.0" stroke-linecap="round" stroke-linejoin="round"/>
    <path d="M 134.52090454101562 114.95124816894531 C 191.78932189941406 131.64329528808594 151.31881713867188 95.58311462402344 176.85177612304688 93.26664733886719" stroke-width="2" fill="none" stroke="rgb(0, 0, 0)" stroke-opacity="1.0" stroke-linecap="round" stroke-linejoin="round"/>
    <path d="M 48.603721618652344 117.60615539550781 C 4.318685054779053 162.08734130859375 192.8665008544922 159.6517791748047 176.123779296875 132.97434997558594" stroke-width="2" fill="none" stroke="rgb(0, 0, 0)" stroke-opacity="1.0" stroke-linecap="round" stroke-linejoin="round"/>
    <path d="M 152.8496856689453 108.11843872070312 C 87.493408203125 100.10983276367188 170.43275451660156 109.373779296875 121.30296325683594 122.2153549194336" stroke-width="2" fill="none" stroke="rgb(0, 0, 0)" stroke-opacity="1.0" stroke-linecap="round" stroke-linejoin="round"/>
    <path d="M 114.29808807373047 121.26728820800781 C 240.1719207763672 112.96897888183594 118.00099182128906 137.0286102294922 87.5552749633789 120.29068756103516" stroke-width="2" fill="none" stroke="rgb(0, 0, 0)" stroke-opacity="1.0" stroke-linecap="round" stroke-linejoin="round"/>
    <path d="M 178.94947814941406 83.91130828857422 C 192.74339294433594 23.75951385498047 166.82159423828125 87.69615936279297 163.8195343017578 83.83373260498047" stroke-width="2" fill="none" stroke="rgb(0, 0, 0)" stroke-opacity="1.0" stroke-linecap="round" stroke-linejoin="round"/>
    <path d="M 168.93003845214844 103.0625 C 181.9073944091797 136.44036865234375 177.20864868164062 65.27549743652344 142.8096160888672 89.02501678466797" stroke-width="2" fill="none" stroke="rgb(0, 0, 0)" stroke-opacity="1.0" stroke-linecap="round" stroke-linejoin="round"/>
    <path d="M 82.6592025756836 115.98667907714844 C 145.23095703125 130.2120361328125 49.613075256347656 71.92036437988281 54.448036193847656 122.66886901855469" stroke-width="2" fill="none" stroke="rgb(0, 0, 0)" stroke-opacity="1.0" stroke-linecap="round" stroke-linejoin="round"/>
    <path d="M 128.6956329345703 97.49575805664062 C 165.0296630859375 94.94738006591797 89.2369613647461 103.09358215332031 132.71157836914062 108.97090911865234" stroke-width="2" fill="none" stroke="rgb(0, 0, 0)" stroke-opacity="1.0" stroke-linecap="round" stroke-linejoin="round"/>
    <path d="M 181.08912658691406 70.58133697509766 C 191.47836303710938 111.54535675048828 153.874755859375 99.94147491455078 164.37460327148438 110.53211975097656" stroke-width="2" fill="none" stroke="rgb(0, 0, 0)" stroke-opacity="1.0" stroke-linecap="round" stroke-linejoin="round"/>
    <path d="M 99.13423919677734 92.66792297363281 C 118.9183349609375 55.079586029052734 132.48829650878906 93.57401275634766 143.5179901123047 86.98347473144531" stroke-width="2" fill="none" stroke="rgb(0, 0, 0)" stroke-opacity="1.0" stroke-linecap="round" stroke-linejoin="round"/>
    <path d="M 113.38008117675781 136.91110229492188 C 63.6132698059082 100.08702087402344 91.04854583740234 139.15560913085938 153.4095001220703 140.16864013671875" stroke-width="2" fill="none" stroke="rgb(0, 0, 0)" stroke-opacity="1.0" stroke-linecap="round" stroke-linejoin="round"/>
  </g>
</svg>
