<?xml version="1.0" ?>
<svg xmlns="http://www.w3.org/2000/svg" version="1.1" width="224" height="224">
  <defs/>
  <g>
    <path d="M 107.65222930908203 70.33917999267578 C 161.10247802734375 124.0115966796875 60.771732330322266 77.2685546875 60.31667709350586 118.06645202636719" stroke-width="2" fill="none" stroke="rgb(0, 0, 0)" stroke-opacity="1.0" stroke-linecap="round" stroke-linejoin="round"/>
    <path d="M 121.51693725585938 123.1562271118164 C 192.74424743652344 123.80939483642578 194.0179443359375 179.89488220214844 72.60637664794922 138.2607879638672" stroke-width="2" fill="none" stroke="rgb(0, 0, 0)" stroke-opacity="1.0" stroke-linecap="round" stroke-linejoin="round"/>
    <path d="M 106.68266296386719 124.79798126220703 C 116.9004898071289 115.98395538330078 79.089111328125 137.84625244140625 166.7333984375 132.8341064453125" stroke-width="2" fill="none" stroke="rgb(0, 0, 0)" stroke-opacity="1.0" stroke-linecap="round" stroke-linejoin="round"/>
    <path d="M 166.32818603515625 85.23104858398438 C 130.51820373535156 96.2753677368164 160.60873413085938 76.71022033691406 119.21758270263672 78.15048217773438" stroke-width="2" fill="none" stroke="rgb(0, 0, 0)" stroke-opacity="1.0" stroke-linecap="round" stroke-linejoin="round"/>
    <path d="M 93.75132751464844 118.69950866699219 C 90.9630126953125 83.81289672851562 111.653076171875 118.54022216796875 118.76982116699219 79.26171112060547" stroke-width="2" fill="none" stroke="rgb(0, 0, 0)" stroke-opacity="1.0" stroke-linecap="round" stroke-linejoin="round"/>
    <path d="M 112.80189514160156 115.5767822265625 C 135.525146484375 137.13333129882812 104.82494354248047 119.74583435058594 136.97589111328125 127.80825805664062" stroke-width="2" fill="none" stroke="rgb(0, 0, 0)" stroke-opacity="1.0" stroke-linecap="round" stroke-linejoin="round"/>
    <path d="M 63.18672561645508 106.9064712524414 C 3.5209391117095947 162.72848510742188 131.881591796875 147.97303771972656 110.387451171875 148.8105926513672" stroke-width="2" fill="none" stroke="rgb(0, 0, 0)" stroke-opacity="1.0" stroke-linecap="round" stroke-linejoin="round"/>
    <path d="M 58.042144775390625 137.0547332763672 C 170.52273559570312 174.734375 189.61460876464844 126.06055450439453 163.70916748046875 142.95999145507812" stroke-width="2" fill="none" stroke="rgb(0, 0, 0)" stroke-opacity="1.0" stroke-linecap="round" stroke-linejoin="round"/>
    <path d="M 127.01922607421875 133.58152770996094 C 160.66966247558594 112.93699645996094 133.54441833496094 108.33219909667969 138.3957977294922 106.04690551757812" stroke-width="2" fill="none" stroke="rgb(0, 0, 0)" stroke-opacity="1.0" stroke-linecap="round" stroke-linejoin="round"/>
    <path d="M 176.83132934570312 98.9770278930664 C 201.09703063964844 28.01873779296875 156.94357299804688 101.48750305175781 161.8062744140625 85.83491516113281" stroke-width="2" fill="none" stroke="rgb(0, 0, 0)" stroke-opacity="1.0" stroke-linecap="round" stroke-linejoin="round"/>
    <path d="M 152.6258087158203 120.87498474121094 C 188.84950256347656 129.64622497558594 160.88267517089844 47.891204833984375 116.75629425048828 93.30938720703125" stroke-width="2" fill="none" stroke="rgb(0, 0, 0)" stroke-opacity="1.0" stroke-linecap="round" stroke-linejoin="round"/>
    <path d="M 162.4825439453125 150.25131225585938 C 72.36978149414062 133.3844451904297 65.17717742919922 112.5264892578125 83.6972427368164 128.52500915527344" stroke-width="2" fill="none" stroke="rgb(0, 0, 0)" stroke-opacity="1.0" stroke-linecap="round" stroke-linejoin="round"/>
    <path d="M 158.32815551757812 113.79528045654297 C 122.7955093383789 110.20378875732422 213.74832153320312 101.4337387084961 126.34111022949219 110.74523162841797" stroke-width="2" fill="none" stroke="rgb(0, 0, 0)" stroke-opacity="1.0" stroke-linecap="round" stroke-linejoin="round"/>
    <path d="M 117.49146270751953 145.22909545898438 C 195.80397033691406 154.54745483398438 166.72540283203125 111.92130279541016 169.54747009277344 137.16387939453125" stroke-width="2" fill="none" stroke="rgb(0, 0, 0)" stroke-opacity="1.0" stroke-linecap="round" stroke-linejoin="round"/>
    <path d="M 161.16131591796875 102.25151062011719 C 180.6255340576172 172.9113006591797 73.99430084228516 115.05096435546875 115.6871566772461 121.14371490478516" stroke-width="2" fill="none" stroke="rgb(0, 0, 0)" stroke-opacity="1.0" stroke-linecap="round" stroke-linejoin="round"/>
    <path d="M 105.35858154296875 155.28683471679688 C 64.72652435302734 139.70425415039062 46.67658233642578 136.8131866455078 80.19155883789062 147.48971557617188" stroke-width="2" fill="none" stroke="rgb(0, 0, 0)" stroke-opacity="1.0" stroke-linecap="round" stroke-linejoin="round"/>
  </g>
</svg>
