<?xml version="1.0" ?>
<svg xmlns="http://www.w3.org/2000/svg" version="1.1" width="224" height="224">
  <defs/>
  <g>
    <path d="M 114.64903259277344 72.28050994873047 C 104.03404235839844 116.53681182861328 77.19026947021484 76.62442779541016 50.99862289428711 111.09957885742188" stroke-width="2" fill="none" stroke="rgb(0, 0, 0)" stroke-opacity="1.0" stroke-linecap="round" stroke-linejoin="round"/>
    <path d="M 152.27781677246094 137.60284423828125 C 201.9466552734375 121.49900817871094 172.46939086914062 186.87014770507812 66.88648986816406 133.9962158203125" stroke-width="2" fill="none" stroke="rgb(0, 0, 0)" stroke-opacity="1.0" stroke-linecap="round" stroke-linejoin="round"/>
    <path d="M 128.0387420654297 114.66220092773438 C 226.95022583007812 104.57197570800781 137.4748077392578 146.0665283203125 171.75540161132812 124.58690643310547" stroke-width="2" fill="none" stroke="rgb(0, 0, 0)" stroke-opacity="1.0" stroke-linecap="round" stroke-linejoin="round"/>
    <path d="M 145.783935546875 153.08358764648438 C 219.175537109375 148.84478759765625 141.031982421875 100.72249603271484 169.96038818359375 107.61647033691406" stroke-width="2" fill="none" stroke="rgb(0, 0, 0)" stroke-opacity="1.0" stroke-linecap="round" stroke-linejoin="round"/>
    <path d="M 50.519474029541016 116.94434356689453 C 280.1999206542969 147.06698608398438 139.99990844726562 154.07798767089844 101.19866180419922 139.80967712402344" stroke-width="2" fill="none" stroke="rgb(0, 0, 0)" stroke-opacity="1.0" stroke-linecap="round" stroke-linejoin="round"/>
    <path d="M 158.72308349609375 84.38328552246094 C 205.426513671875 93.9742431640625 165.96701049804688 98.5139389038086 169.2036590576172 126.20989227294922" stroke-width="2" fill="none" stroke="rgb(0, 0, 0)" stroke-opacity="1.0" stroke-linecap="round" stroke-linejoin="round"/>
    <path d="M 59.134315490722656 103.53609466552734 C -6.462942600250244 169.82748413085938 177.73155212402344 157.5205535888672 152.27610778808594 151.1479034423828" stroke-width="2" fill="none" stroke="rgb(0, 0, 0)" stroke-opacity="1.0" stroke-linecap="round" stroke-linejoin="round"/>
    <path d="M 131.3126678466797 141.9389190673828 C 68.99681091308594 117.76292419433594 142.74888610839844 79.0560302734375 95.27394104003906 102.20160675048828" stroke-width="2" fill="none" stroke="rgb(0, 0, 0)" stroke-opacity="1.0" stroke-linecap="round" stroke-linejoin="round"/>
    <path d="M 168.34423828125 136.5714874267578 C 204.47837829589844 110.4745101928711 112.94527435302734 140.27520751953125 155.35992431640625 111.32182312011719" stroke-width="2" fill="none" stroke="rgb(0, 0, 0)" stroke-opacity="1.0" stroke-linecap="round" stroke-linejoin="round"/>
    <path d="M 159.4679412841797 84.51359558105469 C 202.6116485595703 20.580602645874023 170.9617919921875 114.28068542480469 174.36546325683594 78.94819641113281" stroke-width="2" fill="none" stroke="rgb(0, 0, 0)" stroke-opacity="1.0" stroke-linecap="round" stroke-linejoin="round"/>
    <path d="M 111.63945770263672 130.0516815185547 C 185.0378875732422 165.63455200195312 191.00047302246094 64.51519012451172 138.78604125976562 86.48626708984375" stroke-width="2" fill="none" stroke="rgb(0, 0, 0)" stroke-opacity="1.0" stroke-linecap="round" stroke-linejoin="round"/>
    <path d="M 52.858909606933594 118.27812194824219 C 127.64800262451172 99.78536987304688 79.81163787841797 128.7916717529297 82.88922882080078 102.80381774902344" stroke-width="2" fill="none" stroke="rgb(0, 0, 0)" stroke-opacity="1.0" stroke-linecap="round" stroke-linejoin="round"/>
    <path d="M 89.45586395263672 110.64019012451172 C 176.10658264160156 151.75927734375 54.357845306396484 105.10262298583984 152.90933227539062 147.0741729736328" stroke-width="2" fill="none" stroke="rgb(0, 0, 0)" stroke-opacity="1.0" stroke-linecap="round" stroke-linejoin="round"/>
    <path d="M 152.03897094726562 119.43052673339844 C 130.0450439453125 93.8027114868164 174.38986206054688 139.8895263671875 136.68008422851562 110.72606658935547" stroke-width="2" fill="none" stroke="rgb(0, 0, 0)" stroke-opacity="1.0" stroke-linecap="round" stroke-linejoin="round"/>
    <path d="M 105.61650848388672 121.55781555175781 C 96.525146484375 39.56959915161133 143.2333526611328 100.54988098144531 125.81011962890625 81.81097412109375" stroke-width="2" fill="none" stroke="rgb(0, 0, 0)" stroke-opacity="1.0" stroke-linecap="round" stroke-linejoin="round"/>
    <path d="M 58.132423400878906 138.28750610351562 C 23.067169189453125 97.16155242919922 92.66361999511719 103.60374450683594 59.08921813964844 105.02104949951172" stroke-width="2" fill="none" stroke="rgb(0, 0, 0)" stroke-opacity="1.0" stroke-linecap="round" stroke-linejoin="round"/>
  </g>
</svg>
