<?xml version="1.0" ?>
<svg xmlns="http://www.w3.org/2000/svg" version="1.1" width="224" height="224">
  <defs/>
  <g>
    <path d="M 96.53355407714844 71.13316345214844 C 111.7746810913086 130.653564453125 50.54393768310547 63.59778594970703 38.062957763671875 129.58599853515625" stroke-width="2" fill="none" stroke="rgb(0, 0, 0)" stroke-opacity="1.0" stroke-linecap="round" stroke-linejoin="round"/>
    <path d="M 141.85836791992188 110.09420776367188 C 188.51560974121094 118.02548217773438 222.17762756347656 191.38023376464844 69.71031188964844 133.44178771972656" stroke-width="2" fill="none" stroke="rgb(0, 0, 0)" stroke-opacity="1.0" stroke-linecap="round" stroke-linejoin="round"/>
    <path d="M 108.9282455444336 112.00563049316406 C 132.04849243164062 81.64024353027344 76.56393432617188 146.5023651123047 155.21829223632812 130.5926513671875" stroke-width="2" fill="none" stroke="rgb(0, 0, 0)" stroke-opacity="1.0" stroke-linecap="round" stroke-linejoin="round"/>
    <path d="M 120.63452911376953 119.64618682861328 C 205.5229949951172 105.41240692138672 134.08009338378906 118.04460144042969 169.1866455078125 112.84659576416016" stroke-width="2" fill="none" stroke="rgb(0, 0, 0)" stroke-opacity="1.0" stroke-linecap="round" stroke-linejoin="round"/>
    <path d="M 125.65943145751953 123.41722106933594 C 206.61375427246094 143.02101135253906 89.9889144897461 132.52334594726562 170.61961364746094 120.63288116455078" stroke-width="2" fill="none" stroke="rgb(0, 0, 0)" stroke-opacity="1.0" stroke-linecap="round" stroke-linejoin="round"/>
    <path d="M 164.0117645263672 130.46897888183594 C 202.84210205078125 113.6880111694336 136.47149658203125 89.70782470703125 175.5670166015625 111.18517303466797" stroke-width="2" fill="none" stroke="rgb(0, 0, 0)" stroke-opacity="1.0" stroke-linecap="round" stroke-linejoin="round"/>
    <path d="M 43.762550354003906 111.33163452148438 C 5.228906154632568 164.39939880371094 175.40147399902344 164.2569580078125 147.41165161132812 150.14418029785156" stroke-width="2" fill="none" stroke="rgb(0, 0, 0)" stroke-opacity="1.0" stroke-linecap="round" stroke-linejoin="round"/>
    <path d="M 160.256103515625 96.65485382080078 C 86.60894775390625 98.88824462890625 170.16024780273438 102.30097961425781 133.66746520996094 120.38687133789062" stroke-width="2" fill="none" stroke="rgb(0, 0, 0)" stroke-opacity="1.0" stroke-linecap="round" stroke-linejoin="round"/>
    <path d="M 115.39508819580078 124.6755599975586 C 258.0997619628906 130.35226440429688 124.16622161865234 160.5827178955078 86.47116088867188 145.12350463867188" stroke-width="2" fill="none" stroke="rgb(0, 0, 0)" stroke-opacity="1.0" stroke-linecap="round" stroke-linejoin="round"/>
    <path d="M 177.07752990722656 92.17656707763672 C 186.9916534423828 18.64891815185547 168.1306915283203 92.71420288085938 150.1814727783203 84.70928955078125" stroke-width="2" fill="none" stroke="rgb(0, 0, 0)" stroke-opacity="1.0" stroke-linecap="round" stroke-linejoin="round"/>
    <path d="M 148.47674560546875 126.73468017578125 C 167.08802795410156 147.0229034423828 174.63250732421875 61.55509948730469 123.59648132324219 84.15241241455078" stroke-width="2" fill="none" stroke="rgb(0, 0, 0)" stroke-opacity="1.0" stroke-linecap="round" stroke-linejoin="round"/>
    <path d="M 54.741329193115234 107.81722259521484 C 148.9651336669922 140.0061492919922 47.87992858886719 99.40843963623047 77.91317749023438 107.3602066040039" stroke-width="2" fill="none" stroke="rgb(0, 0, 0)" stroke-opacity="1.0" stroke-linecap="round" stroke-linejoin="round"/>
    <path d="M 127.60002899169922 107.3791275024414 C 165.31851196289062 98.97307586669922 111.24837493896484 93.16819763183594 153.92881774902344 105.45103454589844" stroke-width="2" fill="none" stroke="rgb(0, 0, 0)" stroke-opacity="1.0" stroke-linecap="round" stroke-linejoin="round"/>
    <path d="M 177.39794921875 76.61354064941406 C 200.15574645996094 106.20960235595703 159.63528442382812 121.69831848144531 162.6285858154297 109.75382232666016" stroke-width="2" fill="none" stroke="rgb(0, 0, 0)" stroke-opacity="1.0" stroke-linecap="round" stroke-linejoin="round"/>
    <path d="M 95.87966918945312 81.63208770751953 C 111.7148666381836 54.41939926147461 137.6180419921875 102.66699981689453 117.46275329589844 79.59209442138672" stroke-width="2" fill="none" stroke="rgb(0, 0, 0)" stroke-opacity="1.0" stroke-linecap="round" stroke-linejoin="round"/>
    <path d="M 112.31922912597656 136.01002502441406 C 65.29911804199219 67.73612213134766 91.64385223388672 111.15789031982422 155.96298217773438 129.51356506347656" stroke-width="2" fill="none" stroke="rgb(0, 0, 0)" stroke-opacity="1.0" stroke-linecap="round" stroke-linejoin="round"/>
  </g>
</svg>
