<?xml version="1.0" ?>
<svg xmlns="http://www.w3.org/2000/svg" version="1.1" width="224" height="224">
  <defs/>
  <g>
    <path d="M 109.21276092529297 69.65846252441406 C 143.1559600830078 118.05146789550781 61.39201736450195 71.44005584716797 51.68143081665039 115.14599609375" stroke-width="2" fill="none" stroke="rgb(0, 0, 0)" stroke-opacity="1.0" stroke-linecap="round" stroke-linejoin="round"/>
    <path d="M 165.7391815185547 139.99557495117188 C 203.61453247070312 135.3888702392578 170.87841796875 165.85848999023438 68.2303466796875 147.54104614257812" stroke-width="2" fill="none" stroke="rgb(0, 0, 0)" stroke-opacity="1.0" stroke-linecap="round" stroke-linejoin="round"/>
    <path d="M 111.94778442382812 115.00313568115234 C 109.56072998046875 83.90544128417969 71.46260833740234 120.73989868164062 162.9178924560547 132.39015197753906" stroke-width="2" fill="none" stroke="rgb(0, 0, 0)" stroke-opacity="1.0" stroke-linecap="round" stroke-linejoin="round"/>
    <path d="M 171.14039611816406 101.4122314453125 C 134.7197265625 109.28538513183594 176.0701904296875 75.41728210449219 115.32929229736328 85.20555877685547" stroke-width="2" fill="none" stroke="rgb(0, 0, 0)" stroke-opacity="1.0" stroke-linecap="round" stroke-linejoin="round"/>
    <path d="M 97.42146301269531 106.3204345703125 C 74.87442779541016 105.2119369506836 115.46021270751953 117.77372741699219 111.26117706298828 75.17288208007812" stroke-width="2" fill="none" stroke="rgb(0, 0, 0)" stroke-opacity="1.0" stroke-linecap="round" stroke-linejoin="round"/>
    <path d="M 75.74334716796875 116.68470764160156 C 112.41915893554688 129.40533447265625 88.44363403320312 139.6361541748047 98.36042022705078 111.72402954101562" stroke-width="2" fill="none" stroke="rgb(0, 0, 0)" stroke-opacity="1.0" stroke-linecap="round" stroke-linejoin="round"/>
    <path d="M 62.111324310302734 97.9111328125 C -0.5525301694869995 158.35885620117188 119.36978149414062 151.2852020263672 127.90779876708984 152.4218292236328" stroke-width="2" fill="none" stroke="rgb(0, 0, 0)" stroke-opacity="1.0" stroke-linecap="round" stroke-linejoin="round"/>
    <path d="M 82.97801208496094 130.67239379882812 C 141.73207092285156 177.56558227539062 211.3897247314453 96.98712158203125 133.2207489013672 125.5594253540039" stroke-width="2" fill="none" stroke="rgb(0, 0, 0)" stroke-opacity="1.0" stroke-linecap="round" stroke-linejoin="round"/>
    <path d="M 118.17623901367188 115.878173828125 C 157.21566772460938 117.35272216796875 76.40865325927734 122.95750427246094 127.50831604003906 117.00440216064453" stroke-width="2" fill="none" stroke="rgb(0, 0, 0)" stroke-opacity="1.0" stroke-linecap="round" stroke-linejoin="round"/>
    <path d="M 180.05990600585938 98.54666137695312 C 201.1820068359375 18.70626449584961 170.87481689453125 96.78069305419922 148.576171875 85.43833923339844" stroke-width="2" fill="none" stroke="rgb(0, 0, 0)" stroke-opacity="1.0" stroke-linecap="round" stroke-linejoin="round"/>
    <path d="M 147.21658325195312 121.69608306884766 C 190.33282470703125 110.8942642211914 145.30819702148438 96.94959259033203 167.7884979248047 86.37397766113281" stroke-width="2" fill="none" stroke="rgb(0, 0, 0)" stroke-opacity="1.0" stroke-linecap="round" stroke-linejoin="round"/>
    <path d="M 162.33587646484375 141.95330810546875 C 63.9466552734375 139.3890838623047 39.531436920166016 110.88134765625 66.38668060302734 123.97573852539062" stroke-width="2" fill="none" stroke="rgb(0, 0, 0)" stroke-opacity="1.0" stroke-linecap="round" stroke-linejoin="round"/>
    <path d="M 156.23851013183594 140.67605590820312 C 133.40664672851562 132.21499633789062 220.27493286132812 122.23052215576172 113.92723846435547 122.5000228881836" stroke-width="2" fill="none" stroke="rgb(0, 0, 0)" stroke-opacity="1.0" stroke-linecap="round" stroke-linejoin="round"/>
    <path d="M 146.04635620117188 112.93431854248047 C 177.16651916503906 139.15359497070312 122.41262817382812 98.9147720336914 155.7292938232422 132.75421142578125" stroke-width="2" fill="none" stroke="rgb(0, 0, 0)" stroke-opacity="1.0" stroke-linecap="round" stroke-linejoin="round"/>
    <path d="M 119.92616271972656 130.19325256347656 C 152.1861572265625 145.36009216308594 106.63288879394531 119.97037506103516 130.77059936523438 124.01537322998047" stroke-width="2" fill="none" stroke="rgb(0, 0, 0)" stroke-opacity="1.0" stroke-linecap="round" stroke-linejoin="round"/>
    <path d="M 150.04554748535156 147.45541381835938 C 78.65170288085938 136.99412536621094 33.04325866699219 120.23910522460938 111.81531524658203 152.708740234375" stroke-width="2" fill="none" stroke="rgb(0, 0, 0)" stroke-opacity="1.0" stroke-linecap="round" stroke-linejoin="round"/>
  </g>
</svg>
