<?xml version="1.0" ?>
<svg xmlns="http://www.w3.org/2000/svg" version="1.1" width="224" height="224">
  <defs/>
  <g>
    <path d="M 124.07553100585938 89.55402374267578 C 82.07084655761719 130.85321044921875 86.53477478027344 88.69649505615234 52.74980163574219 107.57978057861328" stroke-width="2" fill="none" stroke="rgb(0, 0, 0)" stroke-opacity="1.0" stroke-linecap="round" stroke-linejoin="round"/>
    <path d="M 137.36212158203125 134.6572265625 C 204.94972229003906 119.5019760131836 179.9312286376953 191.85757446289062 70.7553482055664 132.03335571289062" stroke-width="2" fill="none" stroke="rgb(0, 0, 0)" stroke-opacity="1.0" stroke-linecap="round" stroke-linejoin="round"/>
    <path d="M 135.16323852539062 112.22919464111328 C 194.15333557128906 106.03829956054688 121.78215789794922 119.25404357910156 162.82736206054688 117.92523956298828" stroke-width="2" fill="none" stroke="rgb(0, 0, 0)" stroke-opacity="1.0" stroke-linecap="round" stroke-linejoin="round"/>
    <path d="M 145.07647705078125 133.24241638183594 C 211.96595764160156 145.8529052734375 148.7808074951172 95.30018615722656 168.03073120117188 108.9157943725586" stroke-width="2" fill="none" stroke="rgb(0, 0, 0)" stroke-opacity="1.0" stroke-linecap="round" stroke-linejoin="round"/>
    <path d="M 59.89546203613281 135.5686492919922 C 228.9633026123047 171.61709594726562 125.28919982910156 132.0909423828125 95.73088836669922 134.39663696289062" stroke-width="2" fill="none" stroke="rgb(0, 0, 0)" stroke-opacity="1.0" stroke-linecap="round" stroke-linejoin="round"/>
    <path d="M 154.563720703125 116.22791290283203 C 191.8418426513672 111.25635528564453 160.14471435546875 108.72492218017578 180.22593688964844 111.9212875366211" stroke-width="2" fill="none" stroke="rgb(0, 0, 0)" stroke-opacity="1.0" stroke-linecap="round" stroke-linejoin="round"/>
    <path d="M 59.40235137939453 110.08356475830078 C -5.516409873962402 163.26910400390625 187.75799560546875 160.4881591796875 178.08949279785156 132.2482452392578" stroke-width="2" fill="none" stroke="rgb(0, 0, 0)" stroke-opacity="1.0" stroke-linecap="round" stroke-linejoin="round"/>
    <path d="M 127.73410034179688 133.80584716796875 C 81.2624740600586 138.23265075683594 137.1400909423828 64.85677337646484 108.89517974853516 100.18203735351562" stroke-width="2" fill="none" stroke="rgb(0, 0, 0)" stroke-opacity="1.0" stroke-linecap="round" stroke-linejoin="round"/>
    <path d="M 151.93356323242188 138.81509399414062 C 220.85316467285156 140.37057495117188 110.94877624511719 135.92555236816406 150.46926879882812 106.19607543945312" stroke-width="2" fill="none" stroke="rgb(0, 0, 0)" stroke-opacity="1.0" stroke-linecap="round" stroke-linejoin="round"/>
    <path d="M 165.8986053466797 80.30855560302734 C 202.6465301513672 36.29750061035156 165.81776428222656 130.6487579345703 177.39053344726562 63.91029357910156" stroke-width="2" fill="none" stroke="rgb(0, 0, 0)" stroke-opacity="1.0" stroke-linecap="round" stroke-linejoin="round"/>
    <path d="M 122.78067779541016 124.13603973388672 C 187.5406494140625 160.88499450683594 208.8822021484375 62.21738815307617 141.6297607421875 78.60848999023438" stroke-width="2" fill="none" stroke="rgb(0, 0, 0)" stroke-opacity="1.0" stroke-linecap="round" stroke-linejoin="round"/>
    <path d="M 59.801761627197266 109.746337890625 C 144.6529541015625 77.75846862792969 91.21192169189453 125.67121887207031 100.61398315429688 102.35869598388672" stroke-width="2" fill="none" stroke="rgb(0, 0, 0)" stroke-opacity="1.0" stroke-linecap="round" stroke-linejoin="round"/>
    <path d="M 85.037109375 103.94294738769531 C 155.04718017578125 123.97691345214844 28.31464195251465 111.53133392333984 143.68161010742188 119.8650894165039" stroke-width="2" fill="none" stroke="rgb(0, 0, 0)" stroke-opacity="1.0" stroke-linecap="round" stroke-linejoin="round"/>
    <path d="M 130.96087646484375 121.06922149658203 C 118.12527465820312 93.21102905273438 180.4047393798828 140.36654663085938 149.2122802734375 111.2671127319336" stroke-width="2" fill="none" stroke="rgb(0, 0, 0)" stroke-opacity="1.0" stroke-linecap="round" stroke-linejoin="round"/>
    <path d="M 119.59159851074219 116.03156280517578 C 98.51702117919922 23.01405143737793 152.68797302246094 90.41024017333984 137.2012176513672 86.29752349853516" stroke-width="2" fill="none" stroke="rgb(0, 0, 0)" stroke-opacity="1.0" stroke-linecap="round" stroke-linejoin="round"/>
    <path d="M 46.33616638183594 121.12940216064453 C 42.53618621826172 105.20059204101562 87.62852478027344 122.43294525146484 52.56966781616211 111.99739074707031" stroke-width="2" fill="none" stroke="rgb(0, 0, 0)" stroke-opacity="1.0" stroke-linecap="round" stroke-linejoin="round"/>
  </g>
</svg>
