<?xml version="1.0" ?>
<svg xmlns="http://www.w3.org/2000/svg" version="1.1" width="224" height="224">
  <defs/>
  <g>
    <path d="M 107.10930633544922 82.89533996582031 C 159.15025329589844 106.00848388671875 48.565101623535156 60.09355545043945 48.6538200378418 112.26509094238281" stroke-width="2" fill="none" stroke="rgb(0, 0, 0)" stroke-opacity="1.0" stroke-linecap="round" stroke-linejoin="round"/>
    <path d="M 122.50138092041016 120.83375549316406 C 241.72817993164062 134.7695770263672 152.35020446777344 169.986083984375 70.48851013183594 140.5957489013672" stroke-width="2" fill="none" stroke="rgb(0, 0, 0)" stroke-opacity="1.0" stroke-linecap="round" stroke-linejoin="round"/>
    <path d="M 160.99935913085938 85.25601196289062 C 108.1734619140625 66.4140396118164 99.76447296142578 157.76991271972656 161.76260375976562 133.99880981445312" stroke-width="2" fill="none" stroke="rgb(0, 0, 0)" stroke-opacity="1.0" stroke-linecap="round" stroke-linejoin="round"/>
    <path d="M 157.88705444335938 103.38225555419922 C 190.38198852539062 58.16404724121094 185.3473663330078 100.41059112548828 167.04116821289062 126.54310607910156" stroke-width="2" fill="none" stroke="rgb(0, 0, 0)" stroke-opacity="1.0" stroke-linecap="round" stroke-linejoin="round"/>
    <path d="M 100.91668701171875 70.73634338378906 C 116.93001556396484 110.00393676757812 126.76618194580078 87.06074523925781 139.4194793701172 92.48358154296875" stroke-width="2" fill="none" stroke="rgb(0, 0, 0)" stroke-opacity="1.0" stroke-linecap="round" stroke-linejoin="round"/>
    <path d="M 89.97969818115234 85.48152160644531 C 97.44940948486328 118.74845123291016 87.19393920898438 95.73410034179688 92.69009399414062 112.6923599243164" stroke-width="2" fill="none" stroke="rgb(0, 0, 0)" stroke-opacity="1.0" stroke-linecap="round" stroke-linejoin="round"/>
    <path d="M 44.65962219238281 133.03306579589844 C 44.27333450317383 149.5902099609375 99.36400604248047 162.72805786132812 128.6876678466797 166.27305603027344" stroke-width="2" fill="none" stroke="rgb(0, 0, 0)" stroke-opacity="1.0" stroke-linecap="round" stroke-linejoin="round"/>
    <path d="M 73.46707916259766 132.5215301513672 C 213.784912109375 152.9754638671875 192.1566162109375 145.80650329589844 97.20127868652344 146.46270751953125" stroke-width="2" fill="none" stroke="rgb(0, 0, 0)" stroke-opacity="1.0" stroke-linecap="round" stroke-linejoin="round"/>
    <path d="M 102.73944091796875 94.29203033447266 C 147.0333709716797 102.61729431152344 132.85934448242188 111.42499542236328 112.62262725830078 131.94964599609375" stroke-width="2" fill="none" stroke="rgb(0, 0, 0)" stroke-opacity="1.0" stroke-linecap="round" stroke-linejoin="round"/>
    <path d="M 185.8411102294922 78.48745727539062 C 192.79547119140625 22.701950073242188 167.98619079589844 105.80937194824219 175.63038635253906 97.43209075927734" stroke-width="2" fill="none" stroke="rgb(0, 0, 0)" stroke-opacity="1.0" stroke-linecap="round" stroke-linejoin="round"/>
    <path d="M 141.79627990722656 104.69452667236328 C 176.69410705566406 94.00220489501953 155.1725616455078 160.1437225341797 132.7490997314453 147.45401000976562" stroke-width="2" fill="none" stroke="rgb(0, 0, 0)" stroke-opacity="1.0" stroke-linecap="round" stroke-linejoin="round"/>
    <path d="M 145.596923828125 148.78396606445312 C 40.40774917602539 163.67173767089844 47.87581253051758 152.62881469726562 74.72362518310547 157.81097412109375" stroke-width="2" fill="none" stroke="rgb(0, 0, 0)" stroke-opacity="1.0" stroke-linecap="round" stroke-linejoin="round"/>
    <path d="M 168.41128540039062 124.4858169555664 C 128.82696533203125 129.02035522460938 219.92578125 138.0126953125 118.70149993896484 116.09757995605469" stroke-width="2" fill="none" stroke="rgb(0, 0, 0)" stroke-opacity="1.0" stroke-linecap="round" stroke-linejoin="round"/>
    <path d="M 168.67697143554688 82.25804901123047 C 150.55038452148438 107.43682861328125 135.53765869140625 73.15560913085938 163.9784393310547 109.03777313232422" stroke-width="2" fill="none" stroke="rgb(0, 0, 0)" stroke-opacity="1.0" stroke-linecap="round" stroke-linejoin="round"/>
    <path d="M 96.18389129638672 108.30988311767578 C 118.52725219726562 111.96819305419922 115.4634017944336 100.8736801147461 104.07524108886719 104.3699722290039" stroke-width="2" fill="none" stroke="rgb(0, 0, 0)" stroke-opacity="1.0" stroke-linecap="round" stroke-linejoin="round"/>
    <path d="M 84.24825286865234 109.49346160888672 C 53.923118591308594 73.04607391357422 4.713522434234619 150.91001892089844 81.25972747802734 144.27195739746094" stroke-width="2" fill="none" stroke="rgb(0, 0, 0)" stroke-opacity="1.0" stroke-linecap="round" stroke-linejoin="round"/>
  </g>
</svg>
