<?xml version="1.0" ?>
<svg xmlns="http://www.w3.org/2000/svg" version="1.1" width="224" height="224">
  <defs/>
  <g>
    <path d="M 100.43900299072266 67.58708190917969 C 108.10652160644531 122.70648956298828 65.14407348632812 58.068477630615234 40.7424430847168 131.62045288085938" stroke-width="2" fill="none" stroke="rgb(0, 0, 0)" stroke-opacity="1.0" stroke-linecap="round" stroke-linejoin="round"/>
    <path d="M 147.7352752685547 124.46461486816406 C 202.2113037109375 123.29940032958984 200.48646545410156 180.5734405517578 57.393611907958984 142.864501953125" stroke-width="2" fill="none" stroke="rgb(0, 0, 0)" stroke-opacity="1.0" stroke-linecap="round" stroke-linejoin="round"/>
    <path d="M 57.741119384765625 130.91171264648438 C 78.53070831298828 77.31949615478516 89.58538055419922 139.1390838623047 139.74232482910156 140.3002166748047" stroke-width="2" fill="none" stroke="rgb(0, 0, 0)" stroke-opacity="1.0" stroke-linecap="round" stroke-linejoin="round"/>
    <path d="M 121.40800476074219 89.01948547363281 C 86.8744125366211 142.53927612304688 144.85568237304688 117.9432601928711 108.8806381225586 122.34113311767578" stroke-width="2" fill="none" stroke="rgb(0, 0, 0)" stroke-opacity="1.0" stroke-linecap="round" stroke-linejoin="round"/>
    <path d="M 116.88106536865234 98.0994644165039 C 114.20259857177734 94.0899887084961 115.99280548095703 113.58130645751953 100.09486389160156 93.62214660644531" stroke-width="2" fill="none" stroke="rgb(0, 0, 0)" stroke-opacity="1.0" stroke-linecap="round" stroke-linejoin="round"/>
    <path d="M 130.02296447753906 131.6856231689453 C 197.90550231933594 125.28633117675781 128.94873046875 97.16732025146484 153.74986267089844 131.8404083251953" stroke-width="2" fill="none" stroke="rgb(0, 0, 0)" stroke-opacity="1.0" stroke-linecap="round" stroke-linejoin="round"/>
    <path d="M 41.4217529296875 130.90582275390625 C 33.7664680480957 170.5290069580078 154.91278076171875 160.12014770507812 151.56838989257812 159.53517150878906" stroke-width="2" fill="none" stroke="rgb(0, 0, 0)" stroke-opacity="1.0" stroke-linecap="round" stroke-linejoin="round"/>
    <path d="M 95.49459075927734 130.8173065185547 C 87.16326141357422 116.68724822998047 136.0099639892578 127.5090103149414 109.92308044433594 123.74729919433594" stroke-width="2" fill="none" stroke="rgb(0, 0, 0)" stroke-opacity="1.0" stroke-linecap="round" stroke-linejoin="round"/>
    <path d="M 123.45481872558594 143.1327667236328 C 210.4589385986328 142.90927124023438 149.33033752441406 148.7535400390625 97.0031509399414 107.85810852050781" stroke-width="2" fill="none" stroke="rgb(0, 0, 0)" stroke-opacity="1.0" stroke-linecap="round" stroke-linejoin="round"/>
    <path d="M 183.11988830566406 91.9240951538086 C 192.05284118652344 27.428194046020508 166.79550170898438 106.04644775390625 155.7268829345703 93.75115203857422" stroke-width="2" fill="none" stroke="rgb(0, 0, 0)" stroke-opacity="1.0" stroke-linecap="round" stroke-linejoin="round"/>
    <path d="M 121.76121520996094 108.28434753417969 C 166.17596435546875 137.09356689453125 162.5252227783203 75.15166473388672 114.59940338134766 90.61353302001953" stroke-width="2" fill="none" stroke="rgb(0, 0, 0)" stroke-opacity="1.0" stroke-linecap="round" stroke-linejoin="round"/>
    <path d="M 166.51695251464844 142.8175048828125 C 112.81254577636719 148.86724853515625 44.443603515625 86.55438995361328 46.176002502441406 124.06935119628906" stroke-width="2" fill="none" stroke="rgb(0, 0, 0)" stroke-opacity="1.0" stroke-linecap="round" stroke-linejoin="round"/>
    <path d="M 177.877197265625 125.36736297607422 C 181.18930053710938 80.84013366699219 165.07693481445312 122.8481216430664 183.00082397460938 92.90752410888672" stroke-width="2" fill="none" stroke="rgb(0, 0, 0)" stroke-opacity="1.0" stroke-linecap="round" stroke-linejoin="round"/>
    <path d="M 125.35187530517578 119.79908752441406 C 174.63638305664062 112.59420776367188 100.99220275878906 125.04923248291016 138.66835021972656 110.41629791259766" stroke-width="2" fill="none" stroke="rgb(0, 0, 0)" stroke-opacity="1.0" stroke-linecap="round" stroke-linejoin="round"/>
    <path d="M 101.80524444580078 65.6632080078125 C 133.54087829589844 65.35423278808594 92.3621597290039 99.124755859375 173.56280517578125 91.27506256103516" stroke-width="2" fill="none" stroke="rgb(0, 0, 0)" stroke-opacity="1.0" stroke-linecap="round" stroke-linejoin="round"/>
    <path d="M 69.6100082397461 133.47068786621094 C 39.48261642456055 111.04236602783203 50.08344268798828 142.1961669921875 133.3939971923828 154.84458923339844" stroke-width="2" fill="none" stroke="rgb(0, 0, 0)" stroke-opacity="1.0" stroke-linecap="round" stroke-linejoin="round"/>
  </g>
</svg>
