<?xml version="1.0" ?>
<svg xmlns="http://www.w3.org/2000/svg" version="1.1" width="224" height="224">
  <defs/>
  <g>
    <path d="M 110.25435638427734 86.34730529785156 C 99.44889831542969 105.82925415039062 56.30388259887695 88.59895324707031 55.11275100708008 110.85356903076172" stroke-width="2" fill="none" stroke="rgb(0, 0, 0)" stroke-opacity="1.0" stroke-linecap="round" stroke-linejoin="round"/>
    <path d="M 137.4827880859375 119.88671875 C 172.03016662597656 124.64929962158203 150.724365234375 151.42869567871094 72.90431213378906 138.36480712890625" stroke-width="2" fill="none" stroke="rgb(0, 0, 0)" stroke-opacity="1.0" stroke-linecap="round" stroke-linejoin="round"/>
    <path d="M 178.5936279296875 124.83993530273438 C 103.06968688964844 143.3419952392578 91.91293334960938 118.77735137939453 121.03819274902344 109.89136505126953" stroke-width="2" fill="none" stroke="rgb(0, 0, 0)" stroke-opacity="1.0" stroke-linecap="round" stroke-linejoin="round"/>
    <path d="M 160.14895629882812 93.064697265625 C 173.84263610839844 86.4035415649414 173.7430877685547 89.46446990966797 154.2014617919922 127.24779510498047" stroke-width="2" fill="none" stroke="rgb(0, 0, 0)" stroke-opacity="1.0" stroke-linecap="round" stroke-linejoin="round"/>
    <path d="M 110.47079467773438 83.40367126464844 C 125.06167602539062 107.57022094726562 142.92523193359375 79.50789642333984 156.7772216796875 96.35493469238281" stroke-width="2" fill="none" stroke="rgb(0, 0, 0)" stroke-opacity="1.0" stroke-linecap="round" stroke-linejoin="round"/>
    <path d="M 109.31829833984375 72.18619537353516 C 111.28938293457031 98.49779510498047 101.61336517333984 85.90542602539062 97.74630737304688 108.06497955322266" stroke-width="2" fill="none" stroke="rgb(0, 0, 0)" stroke-opacity="1.0" stroke-linecap="round" stroke-linejoin="round"/>
    <path d="M 58.62350082397461 132.5055694580078 C 42.82545471191406 159.65252685546875 110.7275619506836 156.10662841796875 102.63192749023438 158.47596740722656" stroke-width="2" fill="none" stroke="rgb(0, 0, 0)" stroke-opacity="1.0" stroke-linecap="round" stroke-linejoin="round"/>
    <path d="M 149.4773712158203 153.89077758789062 C 214.41343688964844 128.61273193359375 188.00233459472656 134.37973022460938 106.83268737792969 121.39701843261719" stroke-width="2" fill="none" stroke="rgb(0, 0, 0)" stroke-opacity="1.0" stroke-linecap="round" stroke-linejoin="round"/>
    <path d="M 131.2872772216797 123.22176361083984 C 181.60459899902344 111.38475799560547 180.1484375 127.0333251953125 104.17768859863281 115.24330139160156" stroke-width="2" fill="none" stroke="rgb(0, 0, 0)" stroke-opacity="1.0" stroke-linecap="round" stroke-linejoin="round"/>
    <path d="M 182.94166564941406 90.71602630615234 C 185.5126190185547 50.007076263427734 166.7649688720703 62.98261642456055 180.4677276611328 82.93233489990234" stroke-width="2" fill="none" stroke="rgb(0, 0, 0)" stroke-opacity="1.0" stroke-linecap="round" stroke-linejoin="round"/>
    <path d="M 163.96595764160156 127.97269439697266 C 192.20567321777344 123.63397216796875 188.8193817138672 155.5716094970703 155.52334594726562 145.23284912109375" stroke-width="2" fill="none" stroke="rgb(0, 0, 0)" stroke-opacity="1.0" stroke-linecap="round" stroke-linejoin="round"/>
    <path d="M 76.78782653808594 153.20120239257812 C 41.81191635131836 157.4125213623047 11.649834632873535 130.40879821777344 51.69482421875 151.0975341796875" stroke-width="2" fill="none" stroke="rgb(0, 0, 0)" stroke-opacity="1.0" stroke-linecap="round" stroke-linejoin="round"/>
    <path d="M 120.84654235839844 91.63396453857422 C 135.7117156982422 82.50228881835938 138.00196838378906 101.39005279541016 137.8726348876953 97.20509338378906" stroke-width="2" fill="none" stroke="rgb(0, 0, 0)" stroke-opacity="1.0" stroke-linecap="round" stroke-linejoin="round"/>
    <path d="M 174.10350036621094 70.559326171875 C 155.9737091064453 95.52954864501953 111.34981536865234 104.40608215332031 160.33042907714844 114.6426773071289" stroke-width="2" fill="none" stroke="rgb(0, 0, 0)" stroke-opacity="1.0" stroke-linecap="round" stroke-linejoin="round"/>
    <path d="M 68.22368621826172 113.97348022460938 C 71.0372314453125 105.17684936523438 98.12568664550781 103.54617309570312 95.4647216796875 116.0702133178711" stroke-width="2" fill="none" stroke="rgb(0, 0, 0)" stroke-opacity="1.0" stroke-linecap="round" stroke-linejoin="round"/>
    <path d="M 60.32451629638672 103.33161163330078 C 59.651187896728516 107.95712280273438 21.26034927368164 121.71040344238281 46.220699310302734 150.01174926757812" stroke-width="2" fill="none" stroke="rgb(0, 0, 0)" stroke-opacity="1.0" stroke-linecap="round" stroke-linejoin="round"/>
  </g>
</svg>
