<?xml version="1.0" ?>
<svg xmlns="http://www.w3.org/2000/svg" version="1.1" width="224" height="224">
  <defs/>
  <g>
    <path d="M 103.2204360961914 79.49688720703125 C 130.6713409423828 118.52137756347656 59.184810638427734 74.29470825195312 49.66093826293945 119.1186752319336" stroke-width="2" fill="none" stroke="rgb(0, 0, 0)" stroke-opacity="1.0" stroke-linecap="round" stroke-linejoin="round"/>
    <path d="M 148.5294647216797 109.9698257446289 C 207.4149627685547 114.6290054321289 146.16033935546875 169.82374572753906 74.85409545898438 125.04022216796875" stroke-width="2" fill="none" stroke="rgb(0, 0, 0)" stroke-opacity="1.0" stroke-linecap="round" stroke-linejoin="round"/>
    <path d="M 168.13214111328125 101.3097152709961 C 118.93067932128906 65.59850311279297 91.05620574951172 137.34654235839844 132.40769958496094 124.12718963623047" stroke-width="2" fill="none" stroke="rgb(0, 0, 0)" stroke-opacity="1.0" stroke-linecap="round" stroke-linejoin="round"/>
    <path d="M 175.1736602783203 111.44637298583984 C 172.21005249023438 78.68508911132812 179.03195190429688 147.41574096679688 150.87472534179688 148.33401489257812" stroke-width="2" fill="none" stroke="rgb(0, 0, 0)" stroke-opacity="1.0" stroke-linecap="round" stroke-linejoin="round"/>
    <path d="M 101.68865966796875 70.75910949707031 C 94.63030242919922 97.66090393066406 152.3279571533203 86.63243865966797 131.25137329101562 108.28276062011719" stroke-width="2" fill="none" stroke="rgb(0, 0, 0)" stroke-opacity="1.0" stroke-linecap="round" stroke-linejoin="round"/>
    <path d="M 106.14564514160156 95.57784271240234 C 129.4205780029297 121.00133514404297 114.63260650634766 93.36731719970703 119.2080307006836 132.05836486816406" stroke-width="2" fill="none" stroke="rgb(0, 0, 0)" stroke-opacity="1.0" stroke-linecap="round" stroke-linejoin="round"/>
    <path d="M 59.06859588623047 103.28862762451172 C 14.836913108825684 156.77365112304688 106.2741928100586 149.81407165527344 149.79139709472656 156.68106079101562" stroke-width="2" fill="none" stroke="rgb(0, 0, 0)" stroke-opacity="1.0" stroke-linecap="round" stroke-linejoin="round"/>
    <path d="M 103.98414611816406 124.55237579345703 C 177.777099609375 166.71083068847656 216.95013427734375 129.3430633544922 126.05877685546875 126.6004867553711" stroke-width="2" fill="none" stroke="rgb(0, 0, 0)" stroke-opacity="1.0" stroke-linecap="round" stroke-linejoin="round"/>
    <path d="M 113.95713806152344 88.14923858642578 C 171.90655517578125 98.15255737304688 116.67603302001953 125.6068115234375 140.37692260742188 112.62699127197266" stroke-width="2" fill="none" stroke="rgb(0, 0, 0)" stroke-opacity="1.0" stroke-linecap="round" stroke-linejoin="round"/>
    <path d="M 179.73345947265625 88.62767791748047 C 185.35910034179688 21.195491790771484 150.23788452148438 96.02517700195312 152.8945770263672 92.17655944824219" stroke-width="2" fill="none" stroke="rgb(0, 0, 0)" stroke-opacity="1.0" stroke-linecap="round" stroke-linejoin="round"/>
    <path d="M 148.50123596191406 117.53681945800781 C 158.60289001464844 93.62718963623047 162.58680725097656 126.1514892578125 150.06858825683594 113.49219512939453" stroke-width="2" fill="none" stroke="rgb(0, 0, 0)" stroke-opacity="1.0" stroke-linecap="round" stroke-linejoin="round"/>
    <path d="M 169.27723693847656 155.98117065429688 C 44.690677642822266 177.33016967773438 15.171431541442871 106.0927734375 66.83290100097656 141.80508422851562" stroke-width="2" fill="none" stroke="rgb(0, 0, 0)" stroke-opacity="1.0" stroke-linecap="round" stroke-linejoin="round"/>
    <path d="M 170.11672973632812 116.69437408447266 C 154.07127380371094 114.05941009521484 199.885009765625 131.8790283203125 128.20590209960938 121.16854858398438" stroke-width="2" fill="none" stroke="rgb(0, 0, 0)" stroke-opacity="1.0" stroke-linecap="round" stroke-linejoin="round"/>
    <path d="M 153.85081481933594 86.36316680908203 C 168.2019805908203 97.1609115600586 110.15013885498047 87.81949615478516 155.28262329101562 125.6693115234375" stroke-width="2" fill="none" stroke="rgb(0, 0, 0)" stroke-opacity="1.0" stroke-linecap="round" stroke-linejoin="round"/>
    <path d="M 78.79119110107422 104.68399810791016 C 112.95303344726562 121.23587799072266 97.7416000366211 86.29312133789062 99.22593688964844 97.57010650634766" stroke-width="2" fill="none" stroke="rgb(0, 0, 0)" stroke-opacity="1.0" stroke-linecap="round" stroke-linejoin="round"/>
    <path d="M 88.42769622802734 122.43383026123047 C 63.59880447387695 114.42829132080078 19.028350830078125 122.03878784179688 83.01791381835938 105.22721099853516" stroke-width="2" fill="none" stroke="rgb(0, 0, 0)" stroke-opacity="1.0" stroke-linecap="round" stroke-linejoin="round"/>
  </g>
</svg>
