<?xml version="1.0" ?>
<svg xmlns="http://www.w3.org/2000/svg" version="1.1" width="224" height="224">
  <defs/>
  <g>
    <path d="M 116.71153259277344 92.17369079589844 C 82.05770874023438 136.7030792236328 81.47421264648438 87.77440643310547 59.32855224609375 106.25371551513672" stroke-width="2" fill="none" stroke="rgb(0, 0, 0)" stroke-opacity="1.0" stroke-linecap="round" stroke-linejoin="round"/>
    <path d="M 139.9547119140625 136.28089904785156 C 216.37628173828125 126.28510284423828 209.73831176757812 199.56300354003906 58.026329040527344 142.7501678466797" stroke-width="2" fill="none" stroke="rgb(0, 0, 0)" stroke-opacity="1.0" stroke-linecap="round" stroke-linejoin="round"/>
    <path d="M 133.5237579345703 120.30339813232422 C 204.73892211914062 109.83394622802734 122.03441619873047 127.21771240234375 163.63290405273438 125.27228546142578" stroke-width="2" fill="none" stroke="rgb(0, 0, 0)" stroke-opacity="1.0" stroke-linecap="round" stroke-linejoin="round"/>
    <path d="M 150.77293395996094 119.44283294677734 C 210.93951416015625 123.37638092041016 150.1863250732422 75.43193817138672 181.4886016845703 81.21855163574219" stroke-width="2" fill="none" stroke="rgb(0, 0, 0)" stroke-opacity="1.0" stroke-linecap="round" stroke-linejoin="round"/>
    <path d="M 78.80679321289062 137.1905517578125 C 231.69154357910156 170.60325622558594 124.44296264648438 143.4187469482422 155.42822265625 151.9067840576172" stroke-width="2" fill="none" stroke="rgb(0, 0, 0)" stroke-opacity="1.0" stroke-linecap="round" stroke-linejoin="round"/>
    <path d="M 181.16873168945312 137.43820190429688 C 191.64251708984375 97.8353042602539 142.914306640625 103.23107147216797 177.2449951171875 120.26335144042969" stroke-width="2" fill="none" stroke="rgb(0, 0, 0)" stroke-opacity="1.0" stroke-linecap="round" stroke-linejoin="round"/>
    <path d="M 51.24686813354492 104.27424621582031 C -12.201825141906738 168.74685668945312 189.3140411376953 158.1900634765625 182.2082061767578 148.91668701171875" stroke-width="2" fill="none" stroke="rgb(0, 0, 0)" stroke-opacity="1.0" stroke-linecap="round" stroke-linejoin="round"/>
    <path d="M 135.6797637939453 135.77532958984375 C 84.90157318115234 132.40882873535156 147.1353759765625 78.06562805175781 109.7172622680664 102.11334991455078" stroke-width="2" fill="none" stroke="rgb(0, 0, 0)" stroke-opacity="1.0" stroke-linecap="round" stroke-linejoin="round"/>
    <path d="M 145.41268920898438 143.8310089111328 C 216.76516723632812 141.9417266845703 110.44435119628906 138.1000518798828 140.91299438476562 114.90380859375" stroke-width="2" fill="none" stroke="rgb(0, 0, 0)" stroke-opacity="1.0" stroke-linecap="round" stroke-linejoin="round"/>
    <path d="M 155.9351348876953 94.0202407836914 C 200.96080017089844 60.02817153930664 160.38682556152344 121.73577880859375 185.8605499267578 77.04762268066406" stroke-width="2" fill="none" stroke="rgb(0, 0, 0)" stroke-opacity="1.0" stroke-linecap="round" stroke-linejoin="round"/>
    <path d="M 121.31139373779297 127.72059631347656 C 174.2991485595703 148.3092498779297 190.32557678222656 77.12413787841797 128.96926879882812 93.12700653076172" stroke-width="2" fill="none" stroke="rgb(0, 0, 0)" stroke-opacity="1.0" stroke-linecap="round" stroke-linejoin="round"/>
    <path d="M 49.48365783691406 105.02925872802734 C 151.1574249267578 82.75393676757812 92.15637969970703 129.05894470214844 113.53533935546875 119.75270080566406" stroke-width="2" fill="none" stroke="rgb(0, 0, 0)" stroke-opacity="1.0" stroke-linecap="round" stroke-linejoin="round"/>
    <path d="M 87.17460632324219 118.05789947509766 C 161.4130096435547 135.24755859375 45.2984504699707 114.783935546875 133.97564697265625 142.5248260498047" stroke-width="2" fill="none" stroke="rgb(0, 0, 0)" stroke-opacity="1.0" stroke-linecap="round" stroke-linejoin="round"/>
    <path d="M 150.37940979003906 122.48387908935547 C 145.51589965820312 103.44999694824219 170.25840759277344 137.64920043945312 129.03890991210938 110.99911499023438" stroke-width="2" fill="none" stroke="rgb(0, 0, 0)" stroke-opacity="1.0" stroke-linecap="round" stroke-linejoin="round"/>
    <path d="M 111.27391052246094 103.16313934326172 C 101.73834991455078 33.75072479248047 139.3305206298828 100.55194854736328 134.46937561035156 103.05318450927734" stroke-width="2" fill="none" stroke="rgb(0, 0, 0)" stroke-opacity="1.0" stroke-linecap="round" stroke-linejoin="round"/>
    <path d="M 42.68513870239258 125.4196548461914 C 47.418006896972656 91.01333618164062 90.78585815429688 110.16461944580078 69.41986083984375 111.2728042602539" stroke-width="2" fill="none" stroke="rgb(0, 0, 0)" stroke-opacity="1.0" stroke-linecap="round" stroke-linejoin="round"/>
  </g>
</svg>
