<?xml version="1.0" ?>
<svg xmlns="http://www.w3.org/2000/svg" version="1.1" width="224" height="224">
  <defs/>
  <g>
    <path d="M 102.81737518310547 73.98968505859375 C 158.52027893066406 123.15644836425781 53.363895416259766 70.1954574584961 49.51426696777344 115.99020385742188" stroke-width="2" fill="none" stroke="rgb(0, 0, 0)" stroke-opacity="1.0" stroke-linecap="round" stroke-linejoin="round"/>
    <path d="M 128.0677032470703 112.09451293945312 C 234.5290985107422 131.22894287109375 152.32814025878906 174.04612731933594 61.45558166503906 142.086181640625" stroke-width="2" fill="none" stroke="rgb(0, 0, 0)" stroke-opacity="1.0" stroke-linecap="round" stroke-linejoin="round"/>
    <path d="M 173.86483764648438 92.36814880371094 C 99.6513442993164 57.37281036376953 83.91364288330078 152.8946075439453 142.83367919921875 139.0614013671875" stroke-width="2" fill="none" stroke="rgb(0, 0, 0)" stroke-opacity="1.0" stroke-linecap="round" stroke-linejoin="round"/>
    <path d="M 176.38333129882812 97.0080795288086 C 182.26101684570312 82.04556274414062 178.2337646484375 122.78047943115234 162.53883361816406 121.43368530273438" stroke-width="2" fill="none" stroke="rgb(0, 0, 0)" stroke-opacity="1.0" stroke-linecap="round" stroke-linejoin="round"/>
    <path d="M 102.37957000732422 74.44044494628906 C 95.61882019042969 117.83353424072266 121.44085693359375 85.64561462402344 145.8319549560547 92.09049224853516" stroke-width="2" fill="none" stroke="rgb(0, 0, 0)" stroke-opacity="1.0" stroke-linecap="round" stroke-linejoin="round"/>
    <path d="M 106.68450164794922 100.12422943115234 C 126.46818542480469 119.51612854003906 95.44275665283203 131.84622192382812 116.46971893310547 137.1533660888672" stroke-width="2" fill="none" stroke="rgb(0, 0, 0)" stroke-opacity="1.0" stroke-linecap="round" stroke-linejoin="round"/>
    <path d="M 46.64347839355469 116.81554412841797 C 27.842491149902344 156.287353515625 105.96971893310547 151.7589111328125 107.77053833007812 154.40103149414062" stroke-width="2" fill="none" stroke="rgb(0, 0, 0)" stroke-opacity="1.0" stroke-linecap="round" stroke-linejoin="round"/>
    <path d="M 70.89098358154297 129.63706970214844 C 206.65509033203125 178.78533935546875 211.48680114746094 132.81069946289062 103.66182708740234 143.01495361328125" stroke-width="2" fill="none" stroke="rgb(0, 0, 0)" stroke-opacity="1.0" stroke-linecap="round" stroke-linejoin="round"/>
    <path d="M 116.48075866699219 86.4471206665039 C 166.85287475585938 91.80783081054688 145.98146057128906 124.4917221069336 127.32414245605469 115.12506103515625" stroke-width="2" fill="none" stroke="rgb(0, 0, 0)" stroke-opacity="1.0" stroke-linecap="round" stroke-linejoin="round"/>
    <path d="M 191.4756317138672 87.92204284667969 C 196.36827087402344 35.338626861572266 156.5745849609375 108.9900894165039 163.11878967285156 99.0513687133789" stroke-width="2" fill="none" stroke="rgb(0, 0, 0)" stroke-opacity="1.0" stroke-linecap="round" stroke-linejoin="round"/>
    <path d="M 139.81703186035156 127.83634185791016 C 196.97166442871094 101.5130615234375 183.59042358398438 146.72010803222656 135.608154296875 124.41210174560547" stroke-width="2" fill="none" stroke="rgb(0, 0, 0)" stroke-opacity="1.0" stroke-linecap="round" stroke-linejoin="round"/>
    <path d="M 127.29370880126953 159.79959106445312 C 52.79505920410156 154.9427032470703 39.85287094116211 119.9349136352539 90.16387176513672 145.50071716308594" stroke-width="2" fill="none" stroke="rgb(0, 0, 0)" stroke-opacity="1.0" stroke-linecap="round" stroke-linejoin="round"/>
    <path d="M 170.4492950439453 109.4901123046875 C 156.9173126220703 101.40135192871094 204.37478637695312 124.9080581665039 124.18037414550781 116.84945678710938" stroke-width="2" fill="none" stroke="rgb(0, 0, 0)" stroke-opacity="1.0" stroke-linecap="round" stroke-linejoin="round"/>
    <path d="M 168.06732177734375 91.77938842773438 C 177.4232177734375 99.6521987915039 117.48600006103516 79.19940948486328 149.446533203125 128.4195098876953" stroke-width="2" fill="none" stroke="rgb(0, 0, 0)" stroke-opacity="1.0" stroke-linecap="round" stroke-linejoin="round"/>
    <path d="M 88.38611602783203 108.45146942138672 C 119.71149444580078 118.70503997802734 127.09823608398438 94.5244140625 113.16780853271484 83.4332504272461" stroke-width="2" fill="none" stroke="rgb(0, 0, 0)" stroke-opacity="1.0" stroke-linecap="round" stroke-linejoin="round"/>
    <path d="M 71.88814544677734 116.28186798095703 C 57.320762634277344 94.34119415283203 13.780365943908691 138.05764770507812 94.04219055175781 125.13832092285156" stroke-width="2" fill="none" stroke="rgb(0, 0, 0)" stroke-opacity="1.0" stroke-linecap="round" stroke-linejoin="round"/>
  </g>
</svg>
