<?xml version="1.0" ?>
<svg xmlns="http://www.w3.org/2000/svg" version="1.1" width="224" height="224">
  <defs/>
  <g>
    <path d="M 106.46378326416016 72.95600891113281 C 119.12794494628906 128.9610137939453 54.197540283203125 70.39486694335938 39.00137710571289 130.86181640625" stroke-width="2" fill="none" stroke="rgb(0, 0, 0)" stroke-opacity="1.0" stroke-linecap="round" stroke-linejoin="round"/>
    <path d="M 180.89732360839844 114.2008056640625 C 179.74929809570312 91.05728149414062 188.20616149902344 176.9257354736328 74.06536865234375 135.6607666015625" stroke-width="2" fill="none" stroke="rgb(0, 0, 0)" stroke-opacity="1.0" stroke-linecap="round" stroke-linejoin="round"/>
    <path d="M 59.343505859375 105.25838470458984 C 114.44341278076172 95.06843566894531 82.37873840332031 133.785400390625 144.7470245361328 151.1175537109375" stroke-width="2" fill="none" stroke="rgb(0, 0, 0)" stroke-opacity="1.0" stroke-linecap="round" stroke-linejoin="round"/>
    <path d="M 112.29663848876953 103.0969009399414 C 132.47105407714844 55.748355865478516 68.46774291992188 124.52215576171875 122.17510223388672 100.89169311523438" stroke-width="2" fill="none" stroke="rgb(0, 0, 0)" stroke-opacity="1.0" stroke-linecap="round" stroke-linejoin="round"/>
    <path d="M 116.20780944824219 103.68283081054688 C 165.07077026367188 119.00932312011719 107.3058090209961 120.859130859375 136.9718780517578 122.59840393066406" stroke-width="2" fill="none" stroke="rgb(0, 0, 0)" stroke-opacity="1.0" stroke-linecap="round" stroke-linejoin="round"/>
    <path d="M 125.1058120727539 112.03177642822266 C 207.04368591308594 130.21612548828125 148.5698699951172 116.79293060302734 171.47598266601562 113.95711517333984" stroke-width="2" fill="none" stroke="rgb(0, 0, 0)" stroke-opacity="1.0" stroke-linecap="round" stroke-linejoin="round"/>
    <path d="M 46.29835510253906 124.6583480834961 C 28.837139129638672 169.5460205078125 199.13290405273438 163.3839874267578 171.30291748046875 138.10659790039062" stroke-width="2" fill="none" stroke="rgb(0, 0, 0)" stroke-opacity="1.0" stroke-linecap="round" stroke-linejoin="round"/>
    <path d="M 143.078125 110.65074157714844 C 108.24787902832031 122.48812103271484 161.7969207763672 121.3487319946289 128.36851501464844 115.81327056884766" stroke-width="2" fill="none" stroke="rgb(0, 0, 0)" stroke-opacity="1.0" stroke-linecap="round" stroke-linejoin="round"/>
    <path d="M 118.44560241699219 127.02105712890625 C 240.94110107421875 127.82833862304688 125.59496307373047 173.6969757080078 96.03630065917969 112.06807708740234" stroke-width="2" fill="none" stroke="rgb(0, 0, 0)" stroke-opacity="1.0" stroke-linecap="round" stroke-linejoin="round"/>
    <path d="M 182.46070861816406 93.66812896728516 C 189.50772094726562 40.047210693359375 163.97511291503906 98.29947662353516 163.472900390625 83.25489807128906" stroke-width="2" fill="none" stroke="rgb(0, 0, 0)" stroke-opacity="1.0" stroke-linecap="round" stroke-linejoin="round"/>
    <path d="M 118.49285888671875 125.9770278930664 C 191.92611694335938 141.3853302001953 174.06785583496094 64.68653869628906 144.14891052246094 89.41543579101562" stroke-width="2" fill="none" stroke="rgb(0, 0, 0)" stroke-opacity="1.0" stroke-linecap="round" stroke-linejoin="round"/>
    <path d="M 103.72735595703125 108.47136688232422 C 110.15536499023438 150.68234252929688 41.83439254760742 83.84585571289062 45.56053924560547 123.39632415771484" stroke-width="2" fill="none" stroke="rgb(0, 0, 0)" stroke-opacity="1.0" stroke-linecap="round" stroke-linejoin="round"/>
    <path d="M 152.44520568847656 112.82569122314453 C 192.23626708984375 107.0702133178711 154.99818420410156 124.60000610351562 153.0159912109375 109.43704223632812" stroke-width="2" fill="none" stroke="rgb(0, 0, 0)" stroke-opacity="1.0" stroke-linecap="round" stroke-linejoin="round"/>
    <path d="M 187.76861572265625 69.29439544677734 C 185.19174194335938 52.25415802001953 156.5718994140625 103.40599822998047 173.1458282470703 97.17306518554688" stroke-width="2" fill="none" stroke="rgb(0, 0, 0)" stroke-opacity="1.0" stroke-linecap="round" stroke-linejoin="round"/>
    <path d="M 99.88636016845703 76.77368927001953 C 126.64920043945312 58.20521545410156 116.46128845214844 88.3699951171875 145.45394897460938 85.93389129638672" stroke-width="2" fill="none" stroke="rgb(0, 0, 0)" stroke-opacity="1.0" stroke-linecap="round" stroke-linejoin="round"/>
    <path d="M 85.1279296875 147.74684143066406 C 29.630706787109375 125.06356811523438 39.18503189086914 144.5039825439453 99.29825592041016 156.38442993164062" stroke-width="2" fill="none" stroke="rgb(0, 0, 0)" stroke-opacity="1.0" stroke-linecap="round" stroke-linejoin="round"/>
  </g>
</svg>
