<?xml version="1.0" ?>
<svg xmlns="http://www.w3.org/2000/svg" version="1.1" width="224" height="224">
  <defs/>
  <g>
    <path d="M 110.63108825683594 71.70427703857422 C 145.25662231445312 129.14639282226562 63.8354606628418 67.76677703857422 48.071044921875 116.72545623779297" stroke-width="2" fill="none" stroke="rgb(0, 0, 0)" stroke-opacity="1.0" stroke-linecap="round" stroke-linejoin="round"/>
    <path d="M 141.82525634765625 129.4733428955078 C 216.25164794921875 122.94386291503906 194.6376953125 183.0341033935547 80.9432601928711 133.78945922851562" stroke-width="2" fill="none" stroke="rgb(0, 0, 0)" stroke-opacity="1.0" stroke-linecap="round" stroke-linejoin="round"/>
    <path d="M 44.820648193359375 130.10142517089844 C 47.32801055908203 90.65166473388672 90.5691909790039 135.27279663085938 144.41448974609375 141.02525329589844" stroke-width="2" fill="none" stroke="rgb(0, 0, 0)" stroke-opacity="1.0" stroke-linecap="round" stroke-linejoin="round"/>
    <path d="M 162.98892211914062 91.4168930053711 C 97.10456848144531 79.97643280029297 145.6539764404297 117.80429077148438 117.1031494140625 108.29389190673828" stroke-width="2" fill="none" stroke="rgb(0, 0, 0)" stroke-opacity="1.0" stroke-linecap="round" stroke-linejoin="round"/>
    <path d="M 111.46150970458984 121.08740997314453 C 133.74000549316406 122.26280975341797 87.92010498046875 149.06777954101562 127.0409164428711 86.47596740722656" stroke-width="2" fill="none" stroke="rgb(0, 0, 0)" stroke-opacity="1.0" stroke-linecap="round" stroke-linejoin="round"/>
    <path d="M 111.79408264160156 131.0386962890625 C 200.51177978515625 137.05638122558594 131.03857421875 154.28451538085938 169.2601776123047 130.22308349609375" stroke-width="2" fill="none" stroke="rgb(0, 0, 0)" stroke-opacity="1.0" stroke-linecap="round" stroke-linejoin="round"/>
    <path d="M 52.55955123901367 109.28145599365234 C -5.656577110290527 178.71168518066406 187.21578979492188 135.7276153564453 180.98202514648438 147.77737426757812" stroke-width="2" fill="none" stroke="rgb(0, 0, 0)" stroke-opacity="1.0" stroke-linecap="round" stroke-linejoin="round"/>
    <path d="M 81.04288482666016 108.39801788330078 C 104.8346939086914 134.7216339111328 155.04872131347656 83.80120849609375 129.27349853515625 115.23568725585938" stroke-width="2" fill="none" stroke="rgb(0, 0, 0)" stroke-opacity="1.0" stroke-linecap="round" stroke-linejoin="round"/>
    <path d="M 135.50833129882812 138.1400146484375 C 158.41993713378906 128.3836212158203 142.88320922851562 150.48353576660156 114.09239196777344 127.47610473632812" stroke-width="2" fill="none" stroke="rgb(0, 0, 0)" stroke-opacity="1.0" stroke-linecap="round" stroke-linejoin="round"/>
    <path d="M 172.3667449951172 92.47942352294922 C 183.4739532470703 29.805374145507812 161.33099365234375 96.448974609375 151.91754150390625 90.90103149414062" stroke-width="2" fill="none" stroke="rgb(0, 0, 0)" stroke-opacity="1.0" stroke-linecap="round" stroke-linejoin="round"/>
    <path d="M 132.1549835205078 110.42898559570312 C 187.20492553710938 142.16299438476562 175.9873809814453 91.1123046875 118.71316528320312 84.10078430175781" stroke-width="2" fill="none" stroke="rgb(0, 0, 0)" stroke-opacity="1.0" stroke-linecap="round" stroke-linejoin="round"/>
    <path d="M 152.8497772216797 156.8468475341797 C 42.4317512512207 160.56979370117188 32.12005615234375 118.64093780517578 86.2568130493164 147.73568725585938" stroke-width="2" fill="none" stroke="rgb(0, 0, 0)" stroke-opacity="1.0" stroke-linecap="round" stroke-linejoin="round"/>
    <path d="M 167.7289581298828 131.23690795898438 C 159.6747283935547 95.90644836425781 188.8509979248047 124.9818344116211 181.61607360839844 91.23975372314453" stroke-width="2" fill="none" stroke="rgb(0, 0, 0)" stroke-opacity="1.0" stroke-linecap="round" stroke-linejoin="round"/>
    <path d="M 154.53973388671875 103.5762939453125 C 170.70082092285156 147.5219268798828 139.96202087402344 103.50463104248047 163.08265686035156 115.95530700683594" stroke-width="2" fill="none" stroke="rgb(0, 0, 0)" stroke-opacity="1.0" stroke-linecap="round" stroke-linejoin="round"/>
    <path d="M 105.0421371459961 97.93761444091797 C 129.1694793701172 120.75643157958984 99.66645050048828 96.35630798339844 128.1024627685547 88.90983581542969" stroke-width="2" fill="none" stroke="rgb(0, 0, 0)" stroke-opacity="1.0" stroke-linecap="round" stroke-linejoin="round"/>
    <path d="M 73.80498504638672 129.3328857421875 C 39.72672653198242 91.04397583007812 23.390169143676758 134.08531188964844 99.9452133178711 149.76150512695312" stroke-width="2" fill="none" stroke="rgb(0, 0, 0)" stroke-opacity="1.0" stroke-linecap="round" stroke-linejoin="round"/>
  </g>
</svg>
