<?xml version="1.0" ?>
<svg xmlns="http://www.w3.org/2000/svg" version="1.1" width="224" height="224">
  <defs/>
  <g>
    <path d="M 97.71760559082031 91.86139678955078 C 133.55958557128906 108.09017944335938 53.003639221191406 65.5419921875 46.288490295410156 115.80155181884766" stroke-width="2" fill="none" stroke="rgb(0, 0, 0)" stroke-opacity="1.0" stroke-linecap="round" stroke-linejoin="round"/>
    <path d="M 95.18294525146484 120.1156234741211 C 224.0174102783203 118.79193878173828 154.6941680908203 153.71485900878906 83.5710678100586 126.8026123046875" stroke-width="2" fill="none" stroke="rgb(0, 0, 0)" stroke-opacity="1.0" stroke-linecap="round" stroke-linejoin="round"/>
    <path d="M 123.37133026123047 89.00518035888672 C 103.95393371582031 60.41386413574219 90.89566802978516 135.5863800048828 150.28494262695312 124.94807434082031" stroke-width="2" fill="none" stroke="rgb(0, 0, 0)" stroke-opacity="1.0" stroke-linecap="round" stroke-linejoin="round"/>
    <path d="M 148.4058837890625 84.1982192993164 C 187.85743713378906 58.00203323364258 183.45713806152344 100.76192474365234 164.2165985107422 135.04229736328125" stroke-width="2" fill="none" stroke="rgb(0, 0, 0)" stroke-opacity="1.0" stroke-linecap="round" stroke-linejoin="round"/>
    <path d="M 99.6683349609375 71.4046401977539 C 108.58549499511719 101.5426025390625 143.50628662109375 65.86567687988281 159.19606018066406 94.44632720947266" stroke-width="2" fill="none" stroke="rgb(0, 0, 0)" stroke-opacity="1.0" stroke-linecap="round" stroke-linejoin="round"/>
    <path d="M 97.79438018798828 77.24656677246094 C 107.2048568725586 95.35186767578125 68.91168212890625 78.91429138183594 86.74962615966797 121.40589141845703" stroke-width="2" fill="none" stroke="rgb(0, 0, 0)" stroke-opacity="1.0" stroke-linecap="round" stroke-linejoin="round"/>
    <path d="M 46.05843734741211 146.60894775390625 C 36.91640853881836 149.31968688964844 79.69835662841797 159.9991455078125 102.51431274414062 159.96212768554688" stroke-width="2" fill="none" stroke="rgb(0, 0, 0)" stroke-opacity="1.0" stroke-linecap="round" stroke-linejoin="round"/>
    <path d="M 72.34334564208984 141.51385498046875 C 216.9977264404297 187.61053466796875 200.3082733154297 124.71231842041016 88.82604217529297 116.83284759521484" stroke-width="2" fill="none" stroke="rgb(0, 0, 0)" stroke-opacity="1.0" stroke-linecap="round" stroke-linejoin="round"/>
    <path d="M 110.02041625976562 122.40636444091797 C 124.52783203125 98.32051849365234 107.21934509277344 111.24205780029297 97.55868530273438 117.62761688232422" stroke-width="2" fill="none" stroke="rgb(0, 0, 0)" stroke-opacity="1.0" stroke-linecap="round" stroke-linejoin="round"/>
    <path d="M 180.20750427246094 70.92735290527344 C 188.3072967529297 20.710342407226562 142.7610321044922 85.56121826171875 164.6868438720703 109.24319458007812" stroke-width="2" fill="none" stroke="rgb(0, 0, 0)" stroke-opacity="1.0" stroke-linecap="round" stroke-linejoin="round"/>
    <path d="M 176.8190460205078 137.12022399902344 C 192.0301055908203 134.43756103515625 174.27597045898438 172.2943572998047 132.8729248046875 159.5942840576172" stroke-width="2" fill="none" stroke="rgb(0, 0, 0)" stroke-opacity="1.0" stroke-linecap="round" stroke-linejoin="round"/>
    <path d="M 140.55035400390625 158.7572021484375 C 40.704795837402344 152.5701446533203 33.35590362548828 117.56031799316406 57.1301383972168 137.6778564453125" stroke-width="2" fill="none" stroke="rgb(0, 0, 0)" stroke-opacity="1.0" stroke-linecap="round" stroke-linejoin="round"/>
    <path d="M 155.68698120117188 114.81504821777344 C 120.86209106445312 101.70024871826172 172.15992736816406 122.01055908203125 110.36079406738281 110.04708099365234" stroke-width="2" fill="none" stroke="rgb(0, 0, 0)" stroke-opacity="1.0" stroke-linecap="round" stroke-linejoin="round"/>
    <path d="M 175.7556915283203 77.60633850097656 C 154.14451599121094 108.83246612548828 145.4430694580078 91.5328598022461 157.52406311035156 100.08219146728516" stroke-width="2" fill="none" stroke="rgb(0, 0, 0)" stroke-opacity="1.0" stroke-linecap="round" stroke-linejoin="round"/>
    <path d="M 98.35234069824219 132.2864227294922 C 105.37193298339844 137.91586303710938 127.57572174072266 113.17700958251953 94.96719360351562 123.62828063964844" stroke-width="2" fill="none" stroke="rgb(0, 0, 0)" stroke-opacity="1.0" stroke-linecap="round" stroke-linejoin="round"/>
    <path d="M 65.39739227294922 122.64237213134766 C 46.12387466430664 94.1786117553711 2.9788389205932617 155.3625946044922 74.22196960449219 156.68289184570312" stroke-width="2" fill="none" stroke="rgb(0, 0, 0)" stroke-opacity="1.0" stroke-linecap="round" stroke-linejoin="round"/>
  </g>
</svg>
