<?xml version="1.0" ?>
<svg xmlns="http://www.w3.org/2000/svg" version="1.1" width="224" height="224">
  <defs/>
  <g>
    <path d="M 107.24474334716797 73.32416534423828 C 120.67475128173828 128.60586547851562 64.89044952392578 63.58759689331055 45.53287124633789 126.13274383544922" stroke-width="2" fill="none" stroke="rgb(0, 0, 0)" stroke-opacity="1.0" stroke-linecap="round" stroke-linejoin="round"/>
    <path d="M 126.05747985839844 131.62152099609375 C 215.77642822265625 128.64596557617188 196.20059204101562 183.82305908203125 56.32091522216797 159.61550903320312" stroke-width="2" fill="none" stroke="rgb(0, 0, 0)" stroke-opacity="1.0" stroke-linecap="round" stroke-linejoin="round"/>
    <path d="M 41.67043685913086 142.8377685546875 C 45.61011505126953 96.07662963867188 81.0482406616211 144.7479248046875 109.62101745605469 149.01512145996094" stroke-width="2" fill="none" stroke="rgb(0, 0, 0)" stroke-opacity="1.0" stroke-linecap="round" stroke-linejoin="round"/>
    <path d="M 169.12832641601562 91.15901184082031 C 105.1287841796875 90.4688491821289 164.3809814453125 127.29434204101562 136.6438446044922 112.35794830322266" stroke-width="2" fill="none" stroke="rgb(0, 0, 0)" stroke-opacity="1.0" stroke-linecap="round" stroke-linejoin="round"/>
    <path d="M 104.47869110107422 93.38177490234375 C 131.13282775878906 103.80342864990234 95.82516479492188 129.7171173095703 124.78660583496094 89.69648742675781" stroke-width="2" fill="none" stroke="rgb(0, 0, 0)" stroke-opacity="1.0" stroke-linecap="round" stroke-linejoin="round"/>
    <path d="M 113.9753646850586 140.28036499023438 C 206.34524536132812 134.29481506347656 135.57199096679688 147.48033142089844 176.43084716796875 146.2564239501953" stroke-width="2" fill="none" stroke="rgb(0, 0, 0)" stroke-opacity="1.0" stroke-linecap="round" stroke-linejoin="round"/>
    <path d="M 58.48617172241211 102.72969818115234 C 4.660200595855713 166.97996520996094 200.6334991455078 148.48863220214844 160.54298400878906 153.0764923095703" stroke-width="2" fill="none" stroke="rgb(0, 0, 0)" stroke-opacity="1.0" stroke-linecap="round" stroke-linejoin="round"/>
    <path d="M 88.9206314086914 112.32552337646484 C 97.94477844238281 135.53575134277344 124.46202087402344 102.24512481689453 109.3453140258789 120.61136627197266" stroke-width="2" fill="none" stroke="rgb(0, 0, 0)" stroke-opacity="1.0" stroke-linecap="round" stroke-linejoin="round"/>
    <path d="M 131.15513610839844 109.74748992919922 C 165.6275177001953 108.64361572265625 143.52391052246094 133.92123413085938 106.9582748413086 117.727783203125" stroke-width="2" fill="none" stroke="rgb(0, 0, 0)" stroke-opacity="1.0" stroke-linecap="round" stroke-linejoin="round"/>
    <path d="M 180.3594512939453 93.83374786376953 C 190.55567932128906 36.29001235961914 162.89215087890625 99.595703125 157.64361572265625 92.09100341796875" stroke-width="2" fill="none" stroke="rgb(0, 0, 0)" stroke-opacity="1.0" stroke-linecap="round" stroke-linejoin="round"/>
    <path d="M 141.88807678222656 109.48820495605469 C 191.02450561523438 121.77799224853516 179.32591247558594 88.34896850585938 113.20939636230469 88.31231689453125" stroke-width="2" fill="none" stroke="rgb(0, 0, 0)" stroke-opacity="1.0" stroke-linecap="round" stroke-linejoin="round"/>
    <path d="M 171.35012817382812 158.70492553710938 C 41.38234329223633 159.9286346435547 19.67776107788086 143.82313537597656 85.90628814697266 155.86846923828125" stroke-width="2" fill="none" stroke="rgb(0, 0, 0)" stroke-opacity="1.0" stroke-linecap="round" stroke-linejoin="round"/>
    <path d="M 168.4851837158203 129.53163146972656 C 165.56089782714844 98.24214172363281 175.8972930908203 114.03643798828125 176.16590881347656 94.76632690429688" stroke-width="2" fill="none" stroke="rgb(0, 0, 0)" stroke-opacity="1.0" stroke-linecap="round" stroke-linejoin="round"/>
    <path d="M 164.5261688232422 96.76220703125 C 183.44886779785156 138.51661682128906 127.55426788330078 109.89524841308594 162.72019958496094 124.44590759277344" stroke-width="2" fill="none" stroke="rgb(0, 0, 0)" stroke-opacity="1.0" stroke-linecap="round" stroke-linejoin="round"/>
    <path d="M 113.28829193115234 76.59062957763672 C 138.21810913085938 115.14441680908203 107.69152069091797 84.15642547607422 142.73410034179688 93.87713623046875" stroke-width="2" fill="none" stroke="rgb(0, 0, 0)" stroke-opacity="1.0" stroke-linecap="round" stroke-linejoin="round"/>
    <path d="M 52.49920654296875 135.9868927001953 C 39.66790008544922 102.53914642333984 13.341525077819824 162.3762969970703 86.19706726074219 162.99644470214844" stroke-width="2" fill="none" stroke="rgb(0, 0, 0)" stroke-opacity="1.0" stroke-linecap="round" stroke-linejoin="round"/>
  </g>
</svg>
