<?xml version="1.0" ?>
<svg xmlns="http://www.w3.org/2000/svg" version="1.1" width="224" height="224">
  <defs/>
  <g>
    <path d="M 100.39554595947266 75.07859802246094 C 136.83941650390625 130.89239501953125 61.02749252319336 67.05918884277344 70.42871856689453 122.09075927734375" stroke-width="2" fill="none" stroke="rgb(0, 0, 0)" stroke-opacity="1.0" stroke-linecap="round" stroke-linejoin="round"/>
    <path d="M 118.92439270019531 134.9012908935547 C 193.32237243652344 124.84464263916016 204.15333557128906 181.37557983398438 74.1409912109375 133.12559509277344" stroke-width="2" fill="none" stroke="rgb(0, 0, 0)" stroke-opacity="1.0" stroke-linecap="round" stroke-linejoin="round"/>
    <path d="M 90.37584686279297 122.04386138916016 C 104.20235443115234 108.03409576416016 71.14047241210938 149.22207641601562 160.30528259277344 135.14450073242188" stroke-width="2" fill="none" stroke="rgb(0, 0, 0)" stroke-opacity="1.0" stroke-linecap="round" stroke-linejoin="round"/>
    <path d="M 161.5021209716797 87.70059204101562 C 113.5749740600586 94.54973602294922 154.32029724121094 105.512451171875 120.31006622314453 105.21953582763672" stroke-width="2" fill="none" stroke="rgb(0, 0, 0)" stroke-opacity="1.0" stroke-linecap="round" stroke-linejoin="round"/>
    <path d="M 88.99687194824219 107.2299575805664 C 78.0339584350586 95.02593231201172 98.02064514160156 118.69829559326172 100.63993835449219 68.14708709716797" stroke-width="2" fill="none" stroke="rgb(0, 0, 0)" stroke-opacity="1.0" stroke-linecap="round" stroke-linejoin="round"/>
    <path d="M 119.0876693725586 126.39155578613281 C 137.63624572753906 133.0747833251953 104.8091049194336 123.99156951904297 120.43742370605469 130.71646118164062" stroke-width="2" fill="none" stroke="rgb(0, 0, 0)" stroke-opacity="1.0" stroke-linecap="round" stroke-linejoin="round"/>
    <path d="M 64.58930206298828 102.59017944335938 C -15.188492774963379 166.7233123779297 134.2960968017578 157.19554138183594 133.8279571533203 152.543701171875" stroke-width="2" fill="none" stroke="rgb(0, 0, 0)" stroke-opacity="1.0" stroke-linecap="round" stroke-linejoin="round"/>
    <path d="M 61.97300720214844 130.4320526123047 C 174.689453125 163.9712371826172 193.01206970214844 127.64039611816406 151.65362548828125 143.82015991210938" stroke-width="2" fill="none" stroke="rgb(0, 0, 0)" stroke-opacity="1.0" stroke-linecap="round" stroke-linejoin="round"/>
    <path d="M 130.03839111328125 138.44186401367188 C 147.17529296875 120.87554931640625 130.1744842529297 115.98062133789062 127.08712005615234 118.4997787475586" stroke-width="2" fill="none" stroke="rgb(0, 0, 0)" stroke-opacity="1.0" stroke-linecap="round" stroke-linejoin="round"/>
    <path d="M 178.10418701171875 104.12008666992188 C 211.84886169433594 16.815134048461914 135.7449188232422 109.34493255615234 163.75274658203125 87.76447296142578" stroke-width="2" fill="none" stroke="rgb(0, 0, 0)" stroke-opacity="1.0" stroke-linecap="round" stroke-linejoin="round"/>
    <path d="M 133.3583984375 115.14830780029297 C 187.36611938476562 134.97486877441406 156.830078125 75.05338287353516 107.44286346435547 89.43266296386719" stroke-width="2" fill="none" stroke="rgb(0, 0, 0)" stroke-opacity="1.0" stroke-linecap="round" stroke-linejoin="round"/>
    <path d="M 150.3192901611328 149.7019805908203 C 61.59225845336914 145.63067626953125 106.12945556640625 121.60620880126953 93.13595581054688 135.01283264160156" stroke-width="2" fill="none" stroke="rgb(0, 0, 0)" stroke-opacity="1.0" stroke-linecap="round" stroke-linejoin="round"/>
    <path d="M 161.1477813720703 119.43195343017578 C 115.90211486816406 112.36537170410156 199.125732421875 104.75690460205078 131.08836364746094 120.4200439453125" stroke-width="2" fill="none" stroke="rgb(0, 0, 0)" stroke-opacity="1.0" stroke-linecap="round" stroke-linejoin="round"/>
    <path d="M 124.53192901611328 135.5359649658203 C 201.7410125732422 161.83535766601562 169.27984619140625 106.21126556396484 154.96014404296875 119.95188903808594" stroke-width="2" fill="none" stroke="rgb(0, 0, 0)" stroke-opacity="1.0" stroke-linecap="round" stroke-linejoin="round"/>
    <path d="M 165.66317749023438 98.35938262939453 C 168.88771057128906 158.08721923828125 131.78900146484375 108.13050079345703 133.458740234375 94.44815826416016" stroke-width="2" fill="none" stroke="rgb(0, 0, 0)" stroke-opacity="1.0" stroke-linecap="round" stroke-linejoin="round"/>
    <path d="M 107.10364532470703 155.00277709960938 C 31.517274856567383 147.9167022705078 27.858665466308594 134.1105194091797 92.03458404541016 153.71240234375" stroke-width="2" fill="none" stroke="rgb(0, 0, 0)" stroke-opacity="1.0" stroke-linecap="round" stroke-linejoin="round"/>
  </g>
</svg>
