<?xml version="1.0" ?>
<svg xmlns="http://www.w3.org/2000/svg" version="1.1" width="224" height="224">
  <defs/>
  <g>
    <path d="M 99.12411499023438 74.71665954589844 C 109.63094329833984 115.50806427001953 59.803504943847656 64.45459747314453 42.432376861572266 130.87364196777344" stroke-width="2" fill="none" stroke="rgb(0, 0, 0)" stroke-opacity="1.0" stroke-linecap="round" stroke-linejoin="round"/>
    <path d="M 150.17147827148438 104.31965637207031 C 199.75563049316406 102.47618865966797 206.21429443359375 183.40423583984375 63.475467681884766 139.7474365234375" stroke-width="2" fill="none" stroke="rgb(0, 0, 0)" stroke-opacity="1.0" stroke-linecap="round" stroke-linejoin="round"/>
    <path d="M 75.8313217163086 119.65909576416016 C 97.08590698242188 94.75125885009766 84.93634796142578 122.90869903564453 172.55967712402344 149.87696838378906" stroke-width="2" fill="none" stroke="rgb(0, 0, 0)" stroke-opacity="1.0" stroke-linecap="round" stroke-linejoin="round"/>
    <path d="M 121.21227264404297 129.65293884277344 C 165.73912048339844 102.13250732421875 136.6221160888672 119.2799072265625 112.01145935058594 83.93707275390625" stroke-width="2" fill="none" stroke="rgb(0, 0, 0)" stroke-opacity="1.0" stroke-linecap="round" stroke-linejoin="round"/>
    <path d="M 111.26289367675781 122.2865219116211 C 140.89791870117188 137.1872100830078 75.36212921142578 118.44902801513672 138.191650390625 120.60424041748047" stroke-width="2" fill="none" stroke="rgb(0, 0, 0)" stroke-opacity="1.0" stroke-linecap="round" stroke-linejoin="round"/>
    <path d="M 111.2945327758789 128.80902099609375 C 204.67210388183594 137.9032745361328 155.54783630371094 101.85012817382812 167.4055633544922 107.93001556396484" stroke-width="2" fill="none" stroke="rgb(0, 0, 0)" stroke-opacity="1.0" stroke-linecap="round" stroke-linejoin="round"/>
    <path d="M 43.208953857421875 131.37158203125 C 19.464914321899414 165.760498046875 184.52215576171875 161.0892333984375 164.68112182617188 155.11032104492188" stroke-width="2" fill="none" stroke="rgb(0, 0, 0)" stroke-opacity="1.0" stroke-linecap="round" stroke-linejoin="round"/>
    <path d="M 137.68081665039062 97.04248046875 C 106.08319854736328 110.67051696777344 131.51089477539062 144.95492553710938 113.25489807128906 93.60621643066406" stroke-width="2" fill="none" stroke="rgb(0, 0, 0)" stroke-opacity="1.0" stroke-linecap="round" stroke-linejoin="round"/>
    <path d="M 106.18379974365234 111.75088500976562 C 250.9684600830078 118.74696350097656 132.58413696289062 157.9929962158203 88.03270721435547 121.85823059082031" stroke-width="2" fill="none" stroke="rgb(0, 0, 0)" stroke-opacity="1.0" stroke-linecap="round" stroke-linejoin="round"/>
    <path d="M 194.02024841308594 94.21903228759766 C 212.06344604492188 36.79425048828125 171.67160034179688 110.9849853515625 178.7513427734375 84.64071655273438" stroke-width="2" fill="none" stroke="rgb(0, 0, 0)" stroke-opacity="1.0" stroke-linecap="round" stroke-linejoin="round"/>
    <path d="M 148.28231811523438 118.0815658569336 C 200.47454833984375 138.025146484375 170.9313507080078 50.13982391357422 135.8544158935547 84.25592803955078" stroke-width="2" fill="none" stroke="rgb(0, 0, 0)" stroke-opacity="1.0" stroke-linecap="round" stroke-linejoin="round"/>
    <path d="M 116.56340026855469 102.1074447631836 C 142.4935760498047 130.67752075195312 42.11433029174805 87.06832122802734 37.655765533447266 132.9910888671875" stroke-width="2" fill="none" stroke="rgb(0, 0, 0)" stroke-opacity="1.0" stroke-linecap="round" stroke-linejoin="round"/>
    <path d="M 150.25746154785156 122.60877990722656 C 195.38255310058594 107.97801971435547 143.781494140625 121.9637680053711 166.40957641601562 113.43681335449219" stroke-width="2" fill="none" stroke="rgb(0, 0, 0)" stroke-opacity="1.0" stroke-linecap="round" stroke-linejoin="round"/>
    <path d="M 167.52037048339844 86.60272216796875 C 209.9915008544922 80.52297973632812 170.83935546875 121.28368377685547 174.94070434570312 97.06224060058594" stroke-width="2" fill="none" stroke="rgb(0, 0, 0)" stroke-opacity="1.0" stroke-linecap="round" stroke-linejoin="round"/>
    <path d="M 101.61328125 79.12007141113281 C 124.68348693847656 58.41519546508789 90.59519958496094 95.31978607177734 163.37208557128906 73.6237564086914" stroke-width="2" fill="none" stroke="rgb(0, 0, 0)" stroke-opacity="1.0" stroke-linecap="round" stroke-linejoin="round"/>
    <path d="M 76.74618530273438 151.9983673095703 C 15.698918342590332 138.10025024414062 42.790042877197266 136.19393920898438 102.36295318603516 156.1226806640625" stroke-width="2" fill="none" stroke="rgb(0, 0, 0)" stroke-opacity="1.0" stroke-linecap="round" stroke-linejoin="round"/>
  </g>
</svg>
