<?xml version="1.0" ?>
<svg xmlns="http://www.w3.org/2000/svg" version="1.1" width="224" height="224">
  <defs/>
  <g>
    <path d="M 103.11433410644531 85.95259094238281 C 133.87432861328125 121.42680358886719 49.214263916015625 76.4250717163086 52.26810073852539 110.60808563232422" stroke-width="2" fill="none" stroke="rgb(0, 0, 0)" stroke-opacity="1.0" stroke-linecap="round" stroke-linejoin="round"/>
    <path d="M 136.68678283691406 134.16598510742188 C 186.37094116210938 125.65474700927734 137.3855743408203 164.24171447753906 69.36088562011719 140.778564453125" stroke-width="2" fill="none" stroke="rgb(0, 0, 0)" stroke-opacity="1.0" stroke-linecap="round" stroke-linejoin="round"/>
    <path d="M 119.97289276123047 92.861328125 C 120.82418060302734 86.44314575195312 91.85418701171875 125.84568786621094 125.10244750976562 140.8839569091797" stroke-width="2" fill="none" stroke="rgb(0, 0, 0)" stroke-opacity="1.0" stroke-linecap="round" stroke-linejoin="round"/>
    <path d="M 142.3788604736328 91.16769409179688 C 185.43597412109375 75.81761169433594 187.40647888183594 95.53157806396484 166.7528533935547 114.88760375976562" stroke-width="2" fill="none" stroke="rgb(0, 0, 0)" stroke-opacity="1.0" stroke-linecap="round" stroke-linejoin="round"/>
    <path d="M 108.5108871459961 70.40983581542969 C 117.88093566894531 105.01639556884766 137.4290771484375 77.47061157226562 146.67758178710938 92.172119140625" stroke-width="2" fill="none" stroke="rgb(0, 0, 0)" stroke-opacity="1.0" stroke-linecap="round" stroke-linejoin="round"/>
    <path d="M 107.54679107666016 106.76488494873047 C 97.86058807373047 139.73699951171875 83.2646484375 109.26738739013672 96.5074462890625 124.86956787109375" stroke-width="2" fill="none" stroke="rgb(0, 0, 0)" stroke-opacity="1.0" stroke-linecap="round" stroke-linejoin="round"/>
    <path d="M 55.63044738769531 143.64735412597656 C 39.353904724121094 148.59930419921875 86.77400207519531 152.81326293945312 83.06686401367188 154.23291015625" stroke-width="2" fill="none" stroke="rgb(0, 0, 0)" stroke-opacity="1.0" stroke-linecap="round" stroke-linejoin="round"/>
    <path d="M 79.60147094726562 152.55596923828125 C 217.22189331054688 176.30319213867188 207.11476135253906 107.8408432006836 98.14659118652344 115.07372283935547" stroke-width="2" fill="none" stroke="rgb(0, 0, 0)" stroke-opacity="1.0" stroke-linecap="round" stroke-linejoin="round"/>
    <path d="M 128.005859375 118.5075912475586 C 151.58880615234375 105.95112609863281 129.3114776611328 132.35980224609375 110.24335479736328 115.27293395996094" stroke-width="2" fill="none" stroke="rgb(0, 0, 0)" stroke-opacity="1.0" stroke-linecap="round" stroke-linejoin="round"/>
    <path d="M 181.23094177246094 82.00418090820312 C 198.00634765625 26.464176177978516 151.66693115234375 98.52659606933594 174.57528686523438 125.24422454833984" stroke-width="2" fill="none" stroke="rgb(0, 0, 0)" stroke-opacity="1.0" stroke-linecap="round" stroke-linejoin="round"/>
    <path d="M 167.24478149414062 140.91075134277344 C 170.94357299804688 123.06129455566406 172.63941955566406 161.35610961914062 132.60595703125 150.02735900878906" stroke-width="2" fill="none" stroke="rgb(0, 0, 0)" stroke-opacity="1.0" stroke-linecap="round" stroke-linejoin="round"/>
    <path d="M 100.9853286743164 165.27061462402344 C 31.253084182739258 162.36521911621094 20.005014419555664 123.11495208740234 36.091514587402344 140.14724731445312" stroke-width="2" fill="none" stroke="rgb(0, 0, 0)" stroke-opacity="1.0" stroke-linecap="round" stroke-linejoin="round"/>
    <path d="M 155.4532012939453 104.96229553222656 C 130.00177001953125 110.66570281982422 175.16073608398438 137.7848663330078 117.7581558227539 125.79097747802734" stroke-width="2" fill="none" stroke="rgb(0, 0, 0)" stroke-opacity="1.0" stroke-linecap="round" stroke-linejoin="round"/>
    <path d="M 180.09689331054688 82.75432586669922 C 172.48585510253906 110.04119873046875 136.51947021484375 74.47364807128906 163.44984436035156 106.82250213623047" stroke-width="2" fill="none" stroke="rgb(0, 0, 0)" stroke-opacity="1.0" stroke-linecap="round" stroke-linejoin="round"/>
    <path d="M 101.10584259033203 86.91568756103516 C 100.20509338378906 112.98049926757812 107.56398010253906 88.09944915771484 109.05762481689453 123.77993774414062" stroke-width="2" fill="none" stroke="rgb(0, 0, 0)" stroke-opacity="1.0" stroke-linecap="round" stroke-linejoin="round"/>
    <path d="M 74.91253662109375 120.59102630615234 C 52.958465576171875 91.21987915039062 3.4128522872924805 147.04769897460938 75.22140502929688 156.42445373535156" stroke-width="2" fill="none" stroke="rgb(0, 0, 0)" stroke-opacity="1.0" stroke-linecap="round" stroke-linejoin="round"/>
  </g>
</svg>
