<?xml version="1.0" ?>
<svg xmlns="http://www.w3.org/2000/svg" version="1.1" width="224" height="224">
  <defs/>
  <g>
    <path d="M 100.16605377197266 70.12963104248047 C 107.1783447265625 112.98506927490234 61.74965286254883 60.42805480957031 44.87305450439453 127.09632110595703" stroke-width="2" fill="none" stroke="rgb(0, 0, 0)" stroke-opacity="1.0" stroke-linecap="round" stroke-linejoin="round"/>
    <path d="M 148.55508422851562 143.058837890625 C 196.7527618408203 126.13248443603516 198.66268920898438 193.48513793945312 57.97554397583008 131.59974670410156" stroke-width="2" fill="none" stroke="rgb(0, 0, 0)" stroke-opacity="1.0" stroke-linecap="round" stroke-linejoin="round"/>
    <path d="M 59.072357177734375 97.86254119873047 C 92.06648254394531 77.44051361083984 110.05326080322266 136.60304260253906 140.60382080078125 134.6709442138672" stroke-width="2" fill="none" stroke="rgb(0, 0, 0)" stroke-opacity="1.0" stroke-linecap="round" stroke-linejoin="round"/>
    <path d="M 106.2878646850586 104.15753173828125 C 101.89371490478516 112.50975799560547 95.8492431640625 130.00067138671875 99.20458984375 91.9451904296875" stroke-width="2" fill="none" stroke="rgb(0, 0, 0)" stroke-opacity="1.0" stroke-linecap="round" stroke-linejoin="round"/>
    <path d="M 113.60855102539062 115.1983642578125 C 161.9609832763672 98.9113540649414 94.9813003540039 124.10382843017578 140.43109130859375 119.72120666503906" stroke-width="2" fill="none" stroke="rgb(0, 0, 0)" stroke-opacity="1.0" stroke-linecap="round" stroke-linejoin="round"/>
    <path d="M 111.96817016601562 129.36990356445312 C 200.6850128173828 131.77471923828125 127.25181579589844 109.32994842529297 152.0964813232422 111.8729476928711" stroke-width="2" fill="none" stroke="rgb(0, 0, 0)" stroke-opacity="1.0" stroke-linecap="round" stroke-linejoin="round"/>
    <path d="M 44.645843505859375 124.54106140136719 C 31.26632308959961 155.8576202392578 183.5583038330078 151.88482666015625 175.73680114746094 141.3659210205078" stroke-width="2" fill="none" stroke="rgb(0, 0, 0)" stroke-opacity="1.0" stroke-linecap="round" stroke-linejoin="round"/>
    <path d="M 132.04351806640625 98.90209197998047 C 72.66588592529297 87.11100769042969 128.27684020996094 142.32891845703125 116.27713012695312 105.40574645996094" stroke-width="2" fill="none" stroke="rgb(0, 0, 0)" stroke-opacity="1.0" stroke-linecap="round" stroke-linejoin="round"/>
    <path d="M 89.54800415039062 141.83004760742188 C 220.35853576660156 142.34938049316406 130.79893493652344 153.20677185058594 80.23512268066406 132.27609252929688" stroke-width="2" fill="none" stroke="rgb(0, 0, 0)" stroke-opacity="1.0" stroke-linecap="round" stroke-linejoin="round"/>
    <path d="M 176.04443359375 98.39983367919922 C 197.3608856201172 32.047027587890625 153.64495849609375 102.7122573852539 169.4207000732422 81.42488861083984" stroke-width="2" fill="none" stroke="rgb(0, 0, 0)" stroke-opacity="1.0" stroke-linecap="round" stroke-linejoin="round"/>
    <path d="M 118.1131362915039 124.13404083251953 C 188.5406036376953 148.18820190429688 157.73045349121094 64.73661804199219 129.11032104492188 97.65093994140625" stroke-width="2" fill="none" stroke="rgb(0, 0, 0)" stroke-opacity="1.0" stroke-linecap="round" stroke-linejoin="round"/>
    <path d="M 147.9734649658203 130.67025756835938 C 144.148193359375 119.31287384033203 49.495452880859375 74.9024887084961 47.63746643066406 118.84613037109375" stroke-width="2" fill="none" stroke="rgb(0, 0, 0)" stroke-opacity="1.0" stroke-linecap="round" stroke-linejoin="round"/>
    <path d="M 162.839111328125 132.0713348388672 C 169.9285888671875 97.24972534179688 136.22500610351562 112.05635833740234 165.56153869628906 99.87151336669922" stroke-width="2" fill="none" stroke="rgb(0, 0, 0)" stroke-opacity="1.0" stroke-linecap="round" stroke-linejoin="round"/>
    <path d="M 157.33969116210938 121.98220825195312 C 183.23268127441406 93.8308334350586 120.61762237548828 123.57742309570312 161.6957244873047 118.39254760742188" stroke-width="2" fill="none" stroke="rgb(0, 0, 0)" stroke-opacity="1.0" stroke-linecap="round" stroke-linejoin="round"/>
    <path d="M 96.9395751953125 77.04486846923828 C 120.21263122558594 58.29894256591797 87.02008819580078 98.74620819091797 166.96083068847656 91.15144348144531" stroke-width="2" fill="none" stroke="rgb(0, 0, 0)" stroke-opacity="1.0" stroke-linecap="round" stroke-linejoin="round"/>
    <path d="M 84.48895263671875 119.85826873779297 C 20.460586547851562 99.23882293701172 55.8212890625 113.86576843261719 153.06195068359375 117.35162353515625" stroke-width="2" fill="none" stroke="rgb(0, 0, 0)" stroke-opacity="1.0" stroke-linecap="round" stroke-linejoin="round"/>
  </g>
</svg>
