<?xml version="1.0" ?>
<svg xmlns="http://www.w3.org/2000/svg" version="1.1" width="224" height="224">
  <defs/>
  <g>
    <path d="M 108.8892593383789 69.64045715332031 C 128.15145874023438 121.57943725585938 57.70857238769531 64.1129379272461 47.025474548339844 121.20027160644531" stroke-width="2" fill="none" stroke="rgb(0, 0, 0)" stroke-opacity="1.0" stroke-linecap="round" stroke-linejoin="round"/>
    <path d="M 129.50479125976562 136.87709045410156 C 207.6500701904297 142.75816345214844 193.53732299804688 194.9031524658203 59.46980285644531 149.2655029296875" stroke-width="2" fill="none" stroke="rgb(0, 0, 0)" stroke-opacity="1.0" stroke-linecap="round" stroke-linejoin="round"/>
    <path d="M 40.256717681884766 136.7840118408203 C 50.487815856933594 91.0138168334961 80.26960754394531 143.6943359375 122.08292388916016 151.2378692626953" stroke-width="2" fill="none" stroke="rgb(0, 0, 0)" stroke-opacity="1.0" stroke-linecap="round" stroke-linejoin="round"/>
    <path d="M 166.30772399902344 86.56637573242188 C 93.61200714111328 88.5978775024414 147.32386779785156 117.26995849609375 129.91732788085938 113.99784088134766" stroke-width="2" fill="none" stroke="rgb(0, 0, 0)" stroke-opacity="1.0" stroke-linecap="round" stroke-linejoin="round"/>
    <path d="M 102.67107391357422 110.9853286743164 C 128.6464080810547 121.63711547851562 81.42098999023438 124.55006408691406 131.2349853515625 80.77578735351562" stroke-width="2" fill="none" stroke="rgb(0, 0, 0)" stroke-opacity="1.0" stroke-linecap="round" stroke-linejoin="round"/>
    <path d="M 111.85834503173828 143.16253662109375 C 196.806640625 148.82403564453125 127.42182922363281 152.173583984375 168.71302795410156 133.82254028320312" stroke-width="2" fill="none" stroke="rgb(0, 0, 0)" stroke-opacity="1.0" stroke-linecap="round" stroke-linejoin="round"/>
    <path d="M 55.92350769042969 102.5301742553711 C 1.2667325735092163 174.5810089111328 193.4555206298828 141.5191192626953 177.4639892578125 153.8643035888672" stroke-width="2" fill="none" stroke="rgb(0, 0, 0)" stroke-opacity="1.0" stroke-linecap="round" stroke-linejoin="round"/>
    <path d="M 77.12461853027344 110.99337005615234 C 91.3581314086914 140.7446746826172 134.5154571533203 118.19957733154297 118.00599670410156 131.51756286621094" stroke-width="2" fill="none" stroke="rgb(0, 0, 0)" stroke-opacity="1.0" stroke-linecap="round" stroke-linejoin="round"/>
    <path d="M 131.83453369140625 140.4417266845703 C 159.44195556640625 124.390380859375 143.2932586669922 136.53225708007812 104.74642944335938 126.06346893310547" stroke-width="2" fill="none" stroke="rgb(0, 0, 0)" stroke-opacity="1.0" stroke-linecap="round" stroke-linejoin="round"/>
    <path d="M 183.26695251464844 87.502197265625 C 194.9302215576172 30.123565673828125 164.05679321289062 95.63262939453125 164.8042755126953 87.91993713378906" stroke-width="2" fill="none" stroke="rgb(0, 0, 0)" stroke-opacity="1.0" stroke-linecap="round" stroke-linejoin="round"/>
    <path d="M 127.7928695678711 111.57505798339844 C 198.3509063720703 119.07928466796875 181.87132263183594 90.38822174072266 111.0325698852539 83.77413177490234" stroke-width="2" fill="none" stroke="rgb(0, 0, 0)" stroke-opacity="1.0" stroke-linecap="round" stroke-linejoin="round"/>
    <path d="M 148.19085693359375 163.69659423828125 C 31.654800415039062 160.2427215576172 9.098057746887207 124.75159454345703 69.79669189453125 157.82650756835938" stroke-width="2" fill="none" stroke="rgb(0, 0, 0)" stroke-opacity="1.0" stroke-linecap="round" stroke-linejoin="round"/>
    <path d="M 171.01055908203125 131.35867309570312 C 170.58189392089844 96.47967529296875 179.91810607910156 109.7455062866211 181.6204071044922 94.40040588378906" stroke-width="2" fill="none" stroke="rgb(0, 0, 0)" stroke-opacity="1.0" stroke-linecap="round" stroke-linejoin="round"/>
    <path d="M 166.03765869140625 100.14820098876953 C 183.5552520751953 149.02664184570312 140.80245971679688 116.16492462158203 162.4550018310547 126.75360870361328" stroke-width="2" fill="none" stroke="rgb(0, 0, 0)" stroke-opacity="1.0" stroke-linecap="round" stroke-linejoin="round"/>
    <path d="M 105.3072509765625 100.46931457519531 C 129.41302490234375 105.63834381103516 98.40379333496094 72.00506591796875 125.40135955810547 90.87789916992188" stroke-width="2" fill="none" stroke="rgb(0, 0, 0)" stroke-opacity="1.0" stroke-linecap="round" stroke-linejoin="round"/>
    <path d="M 56.58729934692383 137.13624572753906 C 45.84147262573242 101.54845428466797 22.78883934020996 148.69044494628906 97.64688873291016 151.3235626220703" stroke-width="2" fill="none" stroke="rgb(0, 0, 0)" stroke-opacity="1.0" stroke-linecap="round" stroke-linejoin="round"/>
  </g>
</svg>
