<?xml version="1.0" ?>
<svg xmlns="http://www.w3.org/2000/svg" version="1.1" width="224" height="224">
  <defs/>
  <g>
    <path d="M 101.57579040527344 71.55281066894531 C 111.31494903564453 103.90126037597656 79.92868041992188 68.63861083984375 64.45435333251953 119.94902801513672" stroke-width="2" fill="none" stroke="rgb(0, 0, 0)" stroke-opacity="1.0" stroke-linecap="round" stroke-linejoin="round"/>
    <path d="M 151.32318115234375 132.87574768066406 C 208.6282196044922 114.58489227294922 174.5151824951172 159.0336151123047 75.79112243652344 137.93690490722656" stroke-width="2" fill="none" stroke="rgb(0, 0, 0)" stroke-opacity="1.0" stroke-linecap="round" stroke-linejoin="round"/>
    <path d="M 169.1993865966797 97.47615814208984 C 131.25196838378906 63.717018127441406 79.41893005371094 133.989501953125 175.71774291992188 127.45067596435547" stroke-width="2" fill="none" stroke="rgb(0, 0, 0)" stroke-opacity="1.0" stroke-linecap="round" stroke-linejoin="round"/>
    <path d="M 181.68333435058594 104.07628631591797 C 172.0524444580078 116.01961517333984 195.80712890625 132.39906311035156 161.41494750976562 145.7939910888672" stroke-width="2" fill="none" stroke="rgb(0, 0, 0)" stroke-opacity="1.0" stroke-linecap="round" stroke-linejoin="round"/>
    <path d="M 106.40745544433594 80.74549865722656 C 83.47264099121094 121.45291137695312 161.10012817382812 117.5087890625 108.54191589355469 86.3890380859375" stroke-width="2" fill="none" stroke="rgb(0, 0, 0)" stroke-opacity="1.0" stroke-linecap="round" stroke-linejoin="round"/>
    <path d="M 104.63597869873047 83.78543853759766 C 102.17383575439453 112.0781021118164 80.31839752197266 117.92073822021484 115.33639526367188 134.0942840576172" stroke-width="2" fill="none" stroke="rgb(0, 0, 0)" stroke-opacity="1.0" stroke-linecap="round" stroke-linejoin="round"/>
    <path d="M 51.421043395996094 101.85674285888672 C -3.405292272567749 161.3459014892578 99.13673400878906 150.681640625 146.96641540527344 150.51153564453125" stroke-width="2" fill="none" stroke="rgb(0, 0, 0)" stroke-opacity="1.0" stroke-linecap="round" stroke-linejoin="round"/>
    <path d="M 65.4045639038086 147.7802276611328 C 153.4877166748047 168.31906127929688 225.34368896484375 143.86618041992188 94.13256072998047 142.8263702392578" stroke-width="2" fill="none" stroke="rgb(0, 0, 0)" stroke-opacity="1.0" stroke-linecap="round" stroke-linejoin="round"/>
    <path d="M 116.76058197021484 118.06722259521484 C 156.1482391357422 115.88922119140625 103.82781219482422 139.259033203125 147.36599731445312 138.7084197998047" stroke-width="2" fill="none" stroke="rgb(0, 0, 0)" stroke-opacity="1.0" stroke-linecap="round" stroke-linejoin="round"/>
    <path d="M 174.38169860839844 100.01589965820312 C 194.77333068847656 25.838470458984375 144.5411376953125 108.19535064697266 170.06805419921875 98.52397155761719" stroke-width="2" fill="none" stroke="rgb(0, 0, 0)" stroke-opacity="1.0" stroke-linecap="round" stroke-linejoin="round"/>
    <path d="M 165.70211791992188 127.51722717285156 C 185.34494018554688 104.14305114746094 142.29177856445312 127.05620574951172 167.37222290039062 113.36067962646484" stroke-width="2" fill="none" stroke="rgb(0, 0, 0)" stroke-opacity="1.0" stroke-linecap="round" stroke-linejoin="round"/>
    <path d="M 158.1396942138672 144.76882934570312 C 55.661659240722656 162.0439453125 35.749996185302734 122.84895324707031 67.05709838867188 137.7895965576172" stroke-width="2" fill="none" stroke="rgb(0, 0, 0)" stroke-opacity="1.0" stroke-linecap="round" stroke-linejoin="round"/>
    <path d="M 170.50204467773438 113.27047729492188 C 115.8281021118164 99.41460418701172 182.75885009765625 109.64636993408203 105.33442687988281 107.44825744628906" stroke-width="2" fill="none" stroke="rgb(0, 0, 0)" stroke-opacity="1.0" stroke-linecap="round" stroke-linejoin="round"/>
    <path d="M 168.5425567626953 115.90039825439453 C 195.90139770507812 89.13253784179688 118.7453384399414 103.75647735595703 157.53445434570312 127.48838806152344" stroke-width="2" fill="none" stroke="rgb(0, 0, 0)" stroke-opacity="1.0" stroke-linecap="round" stroke-linejoin="round"/>
    <path d="M 98.28521728515625 118.49738311767578 C 102.64590454101562 132.51406860351562 87.36972045898438 130.04971313476562 82.8224105834961 113.97054290771484" stroke-width="2" fill="none" stroke="rgb(0, 0, 0)" stroke-opacity="1.0" stroke-linecap="round" stroke-linejoin="round"/>
    <path d="M 105.7981185913086 149.3460235595703 C 64.76984405517578 152.11233520507812 20.053735733032227 143.05599975585938 75.7300796508789 152.33349609375" stroke-width="2" fill="none" stroke="rgb(0, 0, 0)" stroke-opacity="1.0" stroke-linecap="round" stroke-linejoin="round"/>
  </g>
</svg>
