<?xml version="1.0" ?>
<svg xmlns="http://www.w3.org/2000/svg" version="1.1" width="224" height="224">
  <defs/>
  <g>
    <path d="M 99.3399429321289 70.86223602294922 C 127.88371276855469 114.6989517211914 54.67628479003906 73.8016357421875 53.124061584472656 113.0921401977539" stroke-width="2" fill="none" stroke="rgb(0, 0, 0)" stroke-opacity="1.0" stroke-linecap="round" stroke-linejoin="round"/>
    <path d="M 153.65829467773438 141.47653198242188 C 200.41883850097656 132.8455047607422 171.29946899414062 184.10848999023438 67.54458618164062 139.322265625" stroke-width="2" fill="none" stroke="rgb(0, 0, 0)" stroke-opacity="1.0" stroke-linecap="round" stroke-linejoin="round"/>
    <path d="M 124.09979248046875 108.933349609375 C 227.8831024169922 118.93191528320312 117.1230697631836 138.51866149902344 172.1474151611328 139.08935546875" stroke-width="2" fill="none" stroke="rgb(0, 0, 0)" stroke-opacity="1.0" stroke-linecap="round" stroke-linejoin="round"/>
    <path d="M 153.1826629638672 152.0464630126953 C 204.50433349609375 158.0743865966797 149.9309844970703 95.83746337890625 164.86387634277344 132.19012451171875" stroke-width="2" fill="none" stroke="rgb(0, 0, 0)" stroke-opacity="1.0" stroke-linecap="round" stroke-linejoin="round"/>
    <path d="M 67.58500671386719 125.93043518066406 C 272.6089172363281 141.92584228515625 127.62612915039062 164.1083526611328 131.1219024658203 152.3604278564453" stroke-width="2" fill="none" stroke="rgb(0, 0, 0)" stroke-opacity="1.0" stroke-linecap="round" stroke-linejoin="round"/>
    <path d="M 159.83164978027344 79.5967025756836 C 178.80015563964844 86.9398422241211 171.7499237060547 127.99933624267578 152.4019775390625 123.525146484375" stroke-width="2" fill="none" stroke="rgb(0, 0, 0)" stroke-opacity="1.0" stroke-linecap="round" stroke-linejoin="round"/>
    <path d="M 51.95060729980469 103.73405456542969 C -11.464690208435059 168.652099609375 171.96490478515625 158.0472869873047 153.29898071289062 153.60113525390625" stroke-width="2" fill="none" stroke="rgb(0, 0, 0)" stroke-opacity="1.0" stroke-linecap="round" stroke-linejoin="round"/>
    <path d="M 143.88717651367188 139.89468383789062 C 72.88334655761719 117.29711151123047 144.751953125 90.24040222167969 100.81974029541016 117.09375" stroke-width="2" fill="none" stroke="rgb(0, 0, 0)" stroke-opacity="1.0" stroke-linecap="round" stroke-linejoin="round"/>
    <path d="M 150.34140014648438 117.76041412353516 C 214.52874755859375 118.67401885986328 123.77903747558594 118.80162811279297 158.953125 107.60093688964844" stroke-width="2" fill="none" stroke="rgb(0, 0, 0)" stroke-opacity="1.0" stroke-linecap="round" stroke-linejoin="round"/>
    <path d="M 164.1138458251953 87.53760528564453 C 205.15750122070312 29.597700119018555 171.7185821533203 122.5897445678711 169.25244140625 87.30442810058594" stroke-width="2" fill="none" stroke="rgb(0, 0, 0)" stroke-opacity="1.0" stroke-linecap="round" stroke-linejoin="round"/>
    <path d="M 94.46356201171875 131.3101043701172 C 204.77793884277344 187.39381408691406 187.45516967773438 65.31559753417969 133.73997497558594 88.52440643310547" stroke-width="2" fill="none" stroke="rgb(0, 0, 0)" stroke-opacity="1.0" stroke-linecap="round" stroke-linejoin="round"/>
    <path d="M 53.59493637084961 114.38520812988281 C 108.84656524658203 133.64138793945312 106.57815551757812 141.6690216064453 113.2453384399414 110.61599731445312" stroke-width="2" fill="none" stroke="rgb(0, 0, 0)" stroke-opacity="1.0" stroke-linecap="round" stroke-linejoin="round"/>
    <path d="M 90.59201049804688 115.9344482421875 C 175.88906860351562 161.6223602294922 52.06406784057617 120.7913818359375 154.70364379882812 153.2072296142578" stroke-width="2" fill="none" stroke="rgb(0, 0, 0)" stroke-opacity="1.0" stroke-linecap="round" stroke-linejoin="round"/>
    <path d="M 155.1844482421875 122.43733978271484 C 124.80557250976562 100.3992919921875 161.89288330078125 108.50877380371094 129.578125 114.62700653076172" stroke-width="2" fill="none" stroke="rgb(0, 0, 0)" stroke-opacity="1.0" stroke-linecap="round" stroke-linejoin="round"/>
    <path d="M 98.88681030273438 109.31315612792969 C 100.32917785644531 33.20173645019531 139.8351593017578 97.02703857421875 125.70747375488281 75.00057220458984" stroke-width="2" fill="none" stroke="rgb(0, 0, 0)" stroke-opacity="1.0" stroke-linecap="round" stroke-linejoin="round"/>
    <path d="M 61.382667541503906 103.9283676147461 C 18.803617477416992 111.61748504638672 103.38172149658203 116.598876953125 64.96599578857422 104.50825500488281" stroke-width="2" fill="none" stroke="rgb(0, 0, 0)" stroke-opacity="1.0" stroke-linecap="round" stroke-linejoin="round"/>
  </g>
</svg>
