<?xml version="1.0" ?>
<svg xmlns="http://www.w3.org/2000/svg" version="1.1" width="224" height="224">
  <defs/>
  <g>
    <path d="M 108.14571380615234 73.24344635009766 C 116.41703796386719 123.20124816894531 51.87379837036133 61.975181579589844 48.419776916503906 129.20391845703125" stroke-width="2" fill="none" stroke="rgb(0, 0, 0)" stroke-opacity="1.0" stroke-linecap="round" stroke-linejoin="round"/>
    <path d="M 121.8055648803711 135.3506622314453 C 223.49569702148438 127.60700988769531 202.21560668945312 173.26890563964844 53.36058044433594 153.61431884765625" stroke-width="2" fill="none" stroke="rgb(0, 0, 0)" stroke-opacity="1.0" stroke-linecap="round" stroke-linejoin="round"/>
    <path d="M 51.617431640625 138.9354705810547 C 30.104129791259766 104.13710021972656 71.71109008789062 146.27731323242188 116.42274475097656 152.13621520996094" stroke-width="2" fill="none" stroke="rgb(0, 0, 0)" stroke-opacity="1.0" stroke-linecap="round" stroke-linejoin="round"/>
    <path d="M 162.1560516357422 97.96102905273438 C 96.43922424316406 98.46632385253906 163.49014282226562 130.2044219970703 138.50198364257812 111.15573120117188" stroke-width="2" fill="none" stroke="rgb(0, 0, 0)" stroke-opacity="1.0" stroke-linecap="round" stroke-linejoin="round"/>
    <path d="M 103.5959243774414 95.57669830322266 C 127.67701721191406 109.7220230102539 87.25305938720703 118.70784759521484 134.30857849121094 110.27022552490234" stroke-width="2" fill="none" stroke="rgb(0, 0, 0)" stroke-opacity="1.0" stroke-linecap="round" stroke-linejoin="round"/>
    <path d="M 120.97034454345703 147.37811279296875 C 211.63719177246094 149.99928283691406 136.20811462402344 143.84437561035156 179.17669677734375 146.8925018310547" stroke-width="2" fill="none" stroke="rgb(0, 0, 0)" stroke-opacity="1.0" stroke-linecap="round" stroke-linejoin="round"/>
    <path d="M 52.25761795043945 114.99989318847656 C 0.5786974430084229 164.10960388183594 199.032958984375 150.68051147460938 156.51646423339844 158.10330200195312" stroke-width="2" fill="none" stroke="rgb(0, 0, 0)" stroke-opacity="1.0" stroke-linecap="round" stroke-linejoin="round"/>
    <path d="M 89.54529571533203 115.28852081298828 C 95.14756774902344 136.3043975830078 115.42219543457031 100.29607391357422 102.13758087158203 128.3988494873047" stroke-width="2" fill="none" stroke="rgb(0, 0, 0)" stroke-opacity="1.0" stroke-linecap="round" stroke-linejoin="round"/>
    <path d="M 113.08219909667969 124.07357788085938 C 158.25918579101562 122.34603118896484 137.99989318847656 137.68048095703125 110.45226287841797 114.02628326416016" stroke-width="2" fill="none" stroke="rgb(0, 0, 0)" stroke-opacity="1.0" stroke-linecap="round" stroke-linejoin="round"/>
    <path d="M 179.939208984375 101.85385131835938 C 197.6944122314453 39.9930419921875 162.51089477539062 97.51048278808594 164.3739471435547 91.65631103515625" stroke-width="2" fill="none" stroke="rgb(0, 0, 0)" stroke-opacity="1.0" stroke-linecap="round" stroke-linejoin="round"/>
    <path d="M 134.08334350585938 118.54529571533203 C 188.9852294921875 131.66400146484375 175.6959228515625 97.1811294555664 105.22156524658203 89.03608703613281" stroke-width="2" fill="none" stroke="rgb(0, 0, 0)" stroke-opacity="1.0" stroke-linecap="round" stroke-linejoin="round"/>
    <path d="M 175.13124084472656 156.1735076904297 C 46.00990676879883 164.73048400878906 24.11444854736328 146.4376983642578 86.40773010253906 158.5675506591797" stroke-width="2" fill="none" stroke="rgb(0, 0, 0)" stroke-opacity="1.0" stroke-linecap="round" stroke-linejoin="round"/>
    <path d="M 165.39219665527344 133.05992126464844 C 164.16140747070312 91.48625946044922 175.06805419921875 112.66974639892578 179.0994873046875 101.95751190185547" stroke-width="2" fill="none" stroke="rgb(0, 0, 0)" stroke-opacity="1.0" stroke-linecap="round" stroke-linejoin="round"/>
    <path d="M 164.0692596435547 96.34371185302734 C 171.81494140625 148.59034729003906 121.46908569335938 118.00753021240234 164.74838256835938 116.61041259765625" stroke-width="2" fill="none" stroke="rgb(0, 0, 0)" stroke-opacity="1.0" stroke-linecap="round" stroke-linejoin="round"/>
    <path d="M 108.46939086914062 82.68637084960938 C 143.17581176757812 105.20364379882812 109.06082153320312 87.05577087402344 141.21087646484375 89.17610931396484" stroke-width="2" fill="none" stroke="rgb(0, 0, 0)" stroke-opacity="1.0" stroke-linecap="round" stroke-linejoin="round"/>
    <path d="M 53.2193603515625 138.05548095703125 C 49.27423858642578 93.8666763305664 23.842498779296875 149.5615997314453 95.29612731933594 158.35626220703125" stroke-width="2" fill="none" stroke="rgb(0, 0, 0)" stroke-opacity="1.0" stroke-linecap="round" stroke-linejoin="round"/>
  </g>
</svg>
