<?xml version="1.0" ?>
<svg xmlns="http://www.w3.org/2000/svg" version="1.1" width="224" height="224">
  <defs/>
  <g>
    <path d="M 109.11711883544922 75.26822662353516 C 132.97052001953125 133.87570190429688 53.2590217590332 66.78473663330078 41.04713439941406 135.2701416015625" stroke-width="2" fill="none" stroke="rgb(0, 0, 0)" stroke-opacity="1.0" stroke-linecap="round" stroke-linejoin="round"/>
    <path d="M 126.21378326416016 138.70362854003906 C 211.989501953125 125.46358489990234 187.20431518554688 177.00218200683594 55.826297760009766 152.6888885498047" stroke-width="2" fill="none" stroke="rgb(0, 0, 0)" stroke-opacity="1.0" stroke-linecap="round" stroke-linejoin="round"/>
    <path d="M 60.930877685546875 134.1557159423828 C 34.70823287963867 104.71385955810547 68.69249725341797 143.30308532714844 124.30510711669922 147.47018432617188" stroke-width="2" fill="none" stroke="rgb(0, 0, 0)" stroke-opacity="1.0" stroke-linecap="round" stroke-linejoin="round"/>
    <path d="M 164.38658142089844 95.49099731445312 C 107.01412200927734 95.51714324951172 173.9910430908203 131.26016235351562 134.62100219726562 116.89186096191406" stroke-width="2" fill="none" stroke="rgb(0, 0, 0)" stroke-opacity="1.0" stroke-linecap="round" stroke-linejoin="round"/>
    <path d="M 102.33476257324219 102.77509307861328 C 128.2645263671875 114.52507781982422 79.73255157470703 122.73211669921875 140.26663208007812 107.74687194824219" stroke-width="2" fill="none" stroke="rgb(0, 0, 0)" stroke-opacity="1.0" stroke-linecap="round" stroke-linejoin="round"/>
    <path d="M 124.86963653564453 132.59573364257812 C 199.30050659179688 143.83770751953125 128.44969177246094 132.90940856933594 161.4238739013672 137.92510986328125" stroke-width="2" fill="none" stroke="rgb(0, 0, 0)" stroke-opacity="1.0" stroke-linecap="round" stroke-linejoin="round"/>
    <path d="M 49.99516296386719 123.52713775634766 C 4.183053970336914 162.91407775878906 190.98716735839844 151.09423828125 156.89659118652344 146.4373321533203" stroke-width="2" fill="none" stroke="rgb(0, 0, 0)" stroke-opacity="1.0" stroke-linecap="round" stroke-linejoin="round"/>
    <path d="M 85.93412780761719 114.71246337890625 C 108.50253295898438 141.01527404785156 118.2846908569336 99.73367309570312 104.81298065185547 125.43128204345703" stroke-width="2" fill="none" stroke="rgb(0, 0, 0)" stroke-opacity="1.0" stroke-linecap="round" stroke-linejoin="round"/>
    <path d="M 114.56648254394531 129.513916015625 C 163.5620880126953 124.39717102050781 137.54745483398438 146.9388427734375 106.6092529296875 118.33753204345703" stroke-width="2" fill="none" stroke="rgb(0, 0, 0)" stroke-opacity="1.0" stroke-linecap="round" stroke-linejoin="round"/>
    <path d="M 180.33572387695312 97.8512191772461 C 191.811767578125 38.38414764404297 164.88160705566406 99.93988800048828 156.5742950439453 90.05191802978516" stroke-width="2" fill="none" stroke="rgb(0, 0, 0)" stroke-opacity="1.0" stroke-linecap="round" stroke-linejoin="round"/>
    <path d="M 134.6912841796875 114.96129608154297 C 192.47018432617188 122.54298400878906 179.9420623779297 95.46800231933594 114.52163696289062 90.84367370605469" stroke-width="2" fill="none" stroke="rgb(0, 0, 0)" stroke-opacity="1.0" stroke-linecap="round" stroke-linejoin="round"/>
    <path d="M 173.6545867919922 147.54257202148438 C 49.78173065185547 159.8355255126953 25.569887161254883 130.7437286376953 78.14881134033203 150.21827697753906" stroke-width="2" fill="none" stroke="rgb(0, 0, 0)" stroke-opacity="1.0" stroke-linecap="round" stroke-linejoin="round"/>
    <path d="M 169.24436950683594 128.6691131591797 C 169.6027069091797 88.8008041381836 176.63946533203125 111.68097686767578 179.0748748779297 103.0687026977539" stroke-width="2" fill="none" stroke="rgb(0, 0, 0)" stroke-opacity="1.0" stroke-linecap="round" stroke-linejoin="round"/>
    <path d="M 165.76986694335938 100.59967803955078 C 183.78656005859375 139.6181182861328 129.5972442626953 102.09927368164062 159.87728881835938 122.78718566894531" stroke-width="2" fill="none" stroke="rgb(0, 0, 0)" stroke-opacity="1.0" stroke-linecap="round" stroke-linejoin="round"/>
    <path d="M 108.36083984375 76.10499572753906 C 141.9845428466797 108.73939514160156 114.62673950195312 83.14289093017578 157.30136108398438 88.94026184082031" stroke-width="2" fill="none" stroke="rgb(0, 0, 0)" stroke-opacity="1.0" stroke-linecap="round" stroke-linejoin="round"/>
    <path d="M 48.711090087890625 143.54583740234375 C 57.76844024658203 104.75780487060547 28.456581115722656 157.82435607910156 95.73942565917969 160.83253479003906" stroke-width="2" fill="none" stroke="rgb(0, 0, 0)" stroke-opacity="1.0" stroke-linecap="round" stroke-linejoin="round"/>
  </g>
</svg>
