<?xml version="1.0" ?>
<svg xmlns="http://www.w3.org/2000/svg" version="1.1" width="224" height="224">
  <defs/>
  <g>
    <path d="M 103.91365051269531 74.33488464355469 C 127.069580078125 126.6886978149414 86.03498840332031 78.87342834472656 79.82247924804688 116.39463806152344" stroke-width="2" fill="none" stroke="rgb(0, 0, 0)" stroke-opacity="1.0" stroke-linecap="round" stroke-linejoin="round"/>
    <path d="M 150.57424926757812 142.30184936523438 C 202.80674743652344 138.63575744628906 161.5221710205078 177.46914672851562 85.5559310913086 141.14356994628906" stroke-width="2" fill="none" stroke="rgb(0, 0, 0)" stroke-opacity="1.0" stroke-linecap="round" stroke-linejoin="round"/>
    <path d="M 111.2232894897461 101.86578369140625 C 117.99424743652344 71.11666107177734 73.78966522216797 132.43475341796875 168.4475860595703 133.2235107421875" stroke-width="2" fill="none" stroke="rgb(0, 0, 0)" stroke-opacity="1.0" stroke-linecap="round" stroke-linejoin="round"/>
    <path d="M 169.4812774658203 102.16136169433594 C 112.5877685546875 95.00971984863281 166.9193115234375 80.91240692138672 108.13408660888672 82.2022476196289" stroke-width="2" fill="none" stroke="rgb(0, 0, 0)" stroke-opacity="1.0" stroke-linecap="round" stroke-linejoin="round"/>
    <path d="M 107.58079528808594 98.2169189453125 C 76.30876922607422 124.18734741210938 116.86162567138672 94.18360900878906 111.1675796508789 85.17461395263672" stroke-width="2" fill="none" stroke="rgb(0, 0, 0)" stroke-opacity="1.0" stroke-linecap="round" stroke-linejoin="round"/>
    <path d="M 91.73560333251953 99.90553283691406 C 136.40211486816406 91.08773803710938 81.75669860839844 135.28207397460938 140.1074981689453 115.23448181152344" stroke-width="2" fill="none" stroke="rgb(0, 0, 0)" stroke-opacity="1.0" stroke-linecap="round" stroke-linejoin="round"/>
    <path d="M 67.60417175292969 97.13224792480469 C -12.549676895141602 165.06129455566406 102.39210510253906 172.69862365722656 104.46133422851562 171.44456481933594" stroke-width="2" fill="none" stroke="rgb(0, 0, 0)" stroke-opacity="1.0" stroke-linecap="round" stroke-linejoin="round"/>
    <path d="M 74.4370346069336 130.08724975585938 C 176.29428100585938 167.8007049560547 220.21397399902344 126.93280792236328 123.90115356445312 130.54127502441406" stroke-width="2" fill="none" stroke="rgb(0, 0, 0)" stroke-opacity="1.0" stroke-linecap="round" stroke-linejoin="round"/>
    <path d="M 137.8511505126953 99.3759765625 C 156.9950714111328 94.50435638427734 98.92428588867188 103.87440490722656 144.07232666015625 132.71005249023438" stroke-width="2" fill="none" stroke="rgb(0, 0, 0)" stroke-opacity="1.0" stroke-linecap="round" stroke-linejoin="round"/>
    <path d="M 178.35614013671875 84.75731658935547 C 184.4136962890625 17.066993713378906 162.5343475341797 87.15254974365234 143.28079223632812 86.72664642333984" stroke-width="2" fill="none" stroke="rgb(0, 0, 0)" stroke-opacity="1.0" stroke-linecap="round" stroke-linejoin="round"/>
    <path d="M 159.0232696533203 118.17896270751953 C 191.30709838867188 124.63390350341797 159.02268981933594 115.76824951171875 173.11395263671875 94.25621032714844" stroke-width="2" fill="none" stroke="rgb(0, 0, 0)" stroke-opacity="1.0" stroke-linecap="round" stroke-linejoin="round"/>
    <path d="M 159.5794219970703 159.826416015625 C 62.3676643371582 160.5440673828125 33.82162857055664 117.61775207519531 66.9692153930664 139.85760498046875" stroke-width="2" fill="none" stroke="rgb(0, 0, 0)" stroke-opacity="1.0" stroke-linecap="round" stroke-linejoin="round"/>
    <path d="M 140.79721069335938 148.34576416015625 C 125.6591796875 126.12120056152344 210.85325622558594 133.439697265625 118.80132293701172 139.02468872070312" stroke-width="2" fill="none" stroke="rgb(0, 0, 0)" stroke-opacity="1.0" stroke-linecap="round" stroke-linejoin="round"/>
    <path d="M 156.98680114746094 114.6950454711914 C 200.82815551757812 134.19290161132812 141.44525146484375 137.1955108642578 171.65618896484375 110.81936645507812" stroke-width="2" fill="none" stroke="rgb(0, 0, 0)" stroke-opacity="1.0" stroke-linecap="round" stroke-linejoin="round"/>
    <path d="M 133.1310577392578 103.7890625 C 131.76377868652344 111.76834106445312 119.81596374511719 67.61914825439453 99.01937103271484 128.5755615234375" stroke-width="2" fill="none" stroke="rgb(0, 0, 0)" stroke-opacity="1.0" stroke-linecap="round" stroke-linejoin="round"/>
    <path d="M 90.76009368896484 159.29989624023438 C 46.85575866699219 156.86581420898438 12.791119575500488 117.30973815917969 94.814697265625 144.10784912109375" stroke-width="2" fill="none" stroke="rgb(0, 0, 0)" stroke-opacity="1.0" stroke-linecap="round" stroke-linejoin="round"/>
  </g>
</svg>
