<?xml version="1.0" ?>
<svg xmlns="http://www.w3.org/2000/svg" version="1.1" width="224" height="224">
  <defs/>
  <g>
    <path d="M 90.92926025390625 66.44701385498047 C 107.3758316040039 125.77054595947266 55.701210021972656 68.65840148925781 40.38608169555664 123.69087219238281" stroke-width="2" fill="none" stroke="rgb(0, 0, 0)" stroke-opacity="1.0" stroke-linecap="round" stroke-linejoin="round"/>
    <path d="M 149.4173126220703 123.76895904541016 C 171.31625366210938 110.75161743164062 201.59304809570312 195.44606018066406 61.42881774902344 130.70599365234375" stroke-width="2" fill="none" stroke="rgb(0, 0, 0)" stroke-opacity="1.0" stroke-linecap="round" stroke-linejoin="round"/>
    <path d="M 107.59050750732422 112.05363464355469 C 142.608154296875 90.09869384765625 65.00596618652344 149.7481689453125 144.19993591308594 144.49598693847656" stroke-width="2" fill="none" stroke="rgb(0, 0, 0)" stroke-opacity="1.0" stroke-linecap="round" stroke-linejoin="round"/>
    <path d="M 114.09095001220703 124.48943328857422 C 198.2109375 135.44532775878906 134.60153198242188 129.4269256591797 159.146240234375 115.45248413085938" stroke-width="2" fill="none" stroke="rgb(0, 0, 0)" stroke-opacity="1.0" stroke-linecap="round" stroke-linejoin="round"/>
    <path d="M 126.28022766113281 125.50070190429688 C 188.26976013183594 124.50713348388672 89.02908325195312 126.26986694335938 169.7935028076172 122.18495178222656" stroke-width="2" fill="none" stroke="rgb(0, 0, 0)" stroke-opacity="1.0" stroke-linecap="round" stroke-linejoin="round"/>
    <path d="M 163.711181640625 122.2378158569336 C 190.7761993408203 124.9444580078125 138.9216766357422 97.89093780517578 165.16043090820312 89.31819915771484" stroke-width="2" fill="none" stroke="rgb(0, 0, 0)" stroke-opacity="1.0" stroke-linecap="round" stroke-linejoin="round"/>
    <path d="M 51.4697380065918 108.38147735595703 C 0.8045832514762878 167.74270629882812 184.6366729736328 158.65016174316406 164.13455200195312 150.02911376953125" stroke-width="2" fill="none" stroke="rgb(0, 0, 0)" stroke-opacity="1.0" stroke-linecap="round" stroke-linejoin="round"/>
    <path d="M 158.07896423339844 110.32119750976562 C 98.28887939453125 118.90238189697266 172.98825073242188 104.7753677368164 125.15313720703125 111.55857849121094" stroke-width="2" fill="none" stroke="rgb(0, 0, 0)" stroke-opacity="1.0" stroke-linecap="round" stroke-linejoin="round"/>
    <path d="M 133.09365844726562 107.50660705566406 C 233.89578247070312 136.14434814453125 121.31623840332031 158.94781494140625 72.98463439941406 134.65252685546875" stroke-width="2" fill="none" stroke="rgb(0, 0, 0)" stroke-opacity="1.0" stroke-linecap="round" stroke-linejoin="round"/>
    <path d="M 187.80462646484375 82.33489990234375 C 187.55413818359375 31.713348388671875 169.3764190673828 98.45732116699219 151.08363342285156 84.94915771484375" stroke-width="2" fill="none" stroke="rgb(0, 0, 0)" stroke-opacity="1.0" stroke-linecap="round" stroke-linejoin="round"/>
    <path d="M 128.49472045898438 131.9035186767578 C 169.1509246826172 138.40628051757812 170.17877197265625 61.88378143310547 127.42024230957031 88.39754486083984" stroke-width="2" fill="none" stroke="rgb(0, 0, 0)" stroke-opacity="1.0" stroke-linecap="round" stroke-linejoin="round"/>
    <path d="M 53.310245513916016 102.40565490722656 C 169.10887145996094 132.73187255859375 41.613922119140625 95.3095474243164 88.31208038330078 101.93817138671875" stroke-width="2" fill="none" stroke="rgb(0, 0, 0)" stroke-opacity="1.0" stroke-linecap="round" stroke-linejoin="round"/>
    <path d="M 126.03880310058594 112.93205261230469 C 177.71397399902344 117.12725830078125 108.1455078125 119.78197479248047 166.4070281982422 123.97666931152344" stroke-width="2" fill="none" stroke="rgb(0, 0, 0)" stroke-opacity="1.0" stroke-linecap="round" stroke-linejoin="round"/>
    <path d="M 176.25489807128906 91.28338623046875 C 177.4487762451172 115.07076263427734 156.95770263671875 147.180419921875 139.83453369140625 133.1703643798828" stroke-width="2" fill="none" stroke="rgb(0, 0, 0)" stroke-opacity="1.0" stroke-linecap="round" stroke-linejoin="round"/>
    <path d="M 93.1657485961914 84.5885238647461 C 106.88694763183594 45.67379379272461 135.51266479492188 104.8420639038086 123.76359558105469 75.44076538085938" stroke-width="2" fill="none" stroke="rgb(0, 0, 0)" stroke-opacity="1.0" stroke-linecap="round" stroke-linejoin="round"/>
    <path d="M 118.43168640136719 132.14051818847656 C 68.74140167236328 71.59650421142578 106.44969177246094 115.46534729003906 127.1550521850586 126.8720703125" stroke-width="2" fill="none" stroke="rgb(0, 0, 0)" stroke-opacity="1.0" stroke-linecap="round" stroke-linejoin="round"/>
  </g>
</svg>
