<?xml version="1.0" ?>
<svg xmlns="http://www.w3.org/2000/svg" version="1.1" width="224" height="224">
  <defs/>
  <g>
    <path d="M 105.63360595703125 70.46556091308594 C 152.9794921875 109.86573028564453 50.00230407714844 82.05745697021484 61.178287506103516 116.56446838378906" stroke-width="2" fill="none" stroke="rgb(0, 0, 0)" stroke-opacity="1.0" stroke-linecap="round" stroke-linejoin="round"/>
    <path d="M 143.63221740722656 138.0711669921875 C 209.41648864746094 129.3324737548828 160.8744354248047 155.3402557373047 84.42021179199219 138.24278259277344" stroke-width="2" fill="none" stroke="rgb(0, 0, 0)" stroke-opacity="1.0" stroke-linecap="round" stroke-linejoin="round"/>
    <path d="M 112.5772476196289 94.39250183105469 C 121.2331771850586 98.26954650878906 91.71469116210938 101.83055877685547 135.0712432861328 131.31411743164062" stroke-width="2" fill="none" stroke="rgb(0, 0, 0)" stroke-opacity="1.0" stroke-linecap="round" stroke-linejoin="round"/>
    <path d="M 143.72901916503906 84.06083679199219 C 180.1132049560547 75.08253479003906 180.28106689453125 97.35907745361328 164.29776000976562 119.68038940429688" stroke-width="2" fill="none" stroke="rgb(0, 0, 0)" stroke-opacity="1.0" stroke-linecap="round" stroke-linejoin="round"/>
    <path d="M 100.29676055908203 65.63178253173828 C 106.41423797607422 111.15262603759766 128.4457550048828 60.144187927246094 139.1797637939453 89.30624389648438" stroke-width="2" fill="none" stroke="rgb(0, 0, 0)" stroke-opacity="1.0" stroke-linecap="round" stroke-linejoin="round"/>
    <path d="M 109.78295135498047 104.9454574584961 C 100.23796081542969 135.44906616210938 93.83589935302734 108.64285278320312 97.84732818603516 129.6726531982422" stroke-width="2" fill="none" stroke="rgb(0, 0, 0)" stroke-opacity="1.0" stroke-linecap="round" stroke-linejoin="round"/>
    <path d="M 59.797637939453125 130.74517822265625 C 54.496768951416016 153.72283935546875 95.2585678100586 154.71202087402344 70.18187713623047 151.89524841308594" stroke-width="2" fill="none" stroke="rgb(0, 0, 0)" stroke-opacity="1.0" stroke-linecap="round" stroke-linejoin="round"/>
    <path d="M 90.74064636230469 147.86337280273438 C 210.48922729492188 178.96786499023438 196.78245544433594 109.53001403808594 90.71061706542969 123.55508422851562" stroke-width="2" fill="none" stroke="rgb(0, 0, 0)" stroke-opacity="1.0" stroke-linecap="round" stroke-linejoin="round"/>
    <path d="M 115.76741790771484 109.55876159667969 C 127.9240951538086 109.18868255615234 126.98021697998047 123.93052673339844 105.11074829101562 116.33364868164062" stroke-width="2" fill="none" stroke="rgb(0, 0, 0)" stroke-opacity="1.0" stroke-linecap="round" stroke-linejoin="round"/>
    <path d="M 176.93406677246094 89.04998016357422 C 197.93292236328125 29.17002296447754 145.60523986816406 102.61813354492188 166.06361389160156 122.08956146240234" stroke-width="2" fill="none" stroke="rgb(0, 0, 0)" stroke-opacity="1.0" stroke-linecap="round" stroke-linejoin="round"/>
    <path d="M 163.31044006347656 142.9083251953125 C 176.12911987304688 113.37711334228516 175.11807250976562 144.86907958984375 147.2014923095703 145.0048370361328" stroke-width="2" fill="none" stroke="rgb(0, 0, 0)" stroke-opacity="1.0" stroke-linecap="round" stroke-linejoin="round"/>
    <path d="M 120.05561828613281 157.26490783691406 C 36.110191345214844 156.29237365722656 18.22239112854004 115.58212280273438 38.87842559814453 133.76512145996094" stroke-width="2" fill="none" stroke="rgb(0, 0, 0)" stroke-opacity="1.0" stroke-linecap="round" stroke-linejoin="round"/>
    <path d="M 159.68917846679688 118.50969696044922 C 106.1961669921875 132.88775634765625 165.42733764648438 135.94403076171875 120.89635467529297 131.98069763183594" stroke-width="2" fill="none" stroke="rgb(0, 0, 0)" stroke-opacity="1.0" stroke-linecap="round" stroke-linejoin="round"/>
    <path d="M 163.58448791503906 84.36811065673828 C 168.55502319335938 115.35963439941406 136.363525390625 86.60363006591797 165.77740478515625 107.70169830322266" stroke-width="2" fill="none" stroke="rgb(0, 0, 0)" stroke-opacity="1.0" stroke-linecap="round" stroke-linejoin="round"/>
    <path d="M 106.75508880615234 83.54608154296875 C 96.61140441894531 110.13819122314453 114.7112045288086 85.42715454101562 118.90465545654297 129.88792419433594" stroke-width="2" fill="none" stroke="rgb(0, 0, 0)" stroke-opacity="1.0" stroke-linecap="round" stroke-linejoin="round"/>
    <path d="M 83.40898895263672 108.96971130371094 C 57.021270751953125 79.0959701538086 17.369901657104492 142.9877471923828 71.84418487548828 150.2423095703125" stroke-width="2" fill="none" stroke="rgb(0, 0, 0)" stroke-opacity="1.0" stroke-linecap="round" stroke-linejoin="round"/>
  </g>
</svg>
