<?xml version="1.0" ?>
<svg xmlns="http://www.w3.org/2000/svg" version="1.1" width="224" height="224">
  <defs/>
  <g>
    <path d="M 110.70929718017578 72.29740142822266 C 117.04769134521484 124.90888214111328 54.60300827026367 75.72452545166016 45.42063522338867 120.14904022216797" stroke-width="2" fill="none" stroke="rgb(0, 0, 0)" stroke-opacity="1.0" stroke-linecap="round" stroke-linejoin="round"/>
    <path d="M 149.1194305419922 121.78506469726562 C 206.68753051757812 124.83924865722656 160.3540802001953 178.11392211914062 65.22111511230469 138.497314453125" stroke-width="2" fill="none" stroke="rgb(0, 0, 0)" stroke-opacity="1.0" stroke-linecap="round" stroke-linejoin="round"/>
    <path d="M 172.67759704589844 104.921142578125 C 126.181640625 73.24055480957031 92.69145965576172 141.17874145507812 127.54559326171875 142.97125244140625" stroke-width="2" fill="none" stroke="rgb(0, 0, 0)" stroke-opacity="1.0" stroke-linecap="round" stroke-linejoin="round"/>
    <path d="M 170.36056518554688 103.01306915283203 C 149.2294158935547 104.15089416503906 193.20423889160156 153.89781188964844 170.40493774414062 150.88397216796875" stroke-width="2" fill="none" stroke="rgb(0, 0, 0)" stroke-opacity="1.0" stroke-linecap="round" stroke-linejoin="round"/>
    <path d="M 114.00082397460938 71.36627960205078 C 100.68973541259766 90.17550659179688 168.5760498046875 103.17748260498047 121.53112030029297 120.9384765625" stroke-width="2" fill="none" stroke="rgb(0, 0, 0)" stroke-opacity="1.0" stroke-linecap="round" stroke-linejoin="round"/>
    <path d="M 114.19794464111328 99.77295684814453 C 129.44268798828125 131.91064453125 106.51557922363281 114.29340362548828 112.3750991821289 138.1709442138672" stroke-width="2" fill="none" stroke="rgb(0, 0, 0)" stroke-opacity="1.0" stroke-linecap="round" stroke-linejoin="round"/>
    <path d="M 54.257389068603516 106.99652862548828 C -2.905754327774048 158.44276428222656 98.94564056396484 158.84780883789062 157.95506286621094 153.01158142089844" stroke-width="2" fill="none" stroke="rgb(0, 0, 0)" stroke-opacity="1.0" stroke-linecap="round" stroke-linejoin="round"/>
    <path d="M 91.82887268066406 130.06163024902344 C 167.84962463378906 174.73602294921875 206.96121215820312 142.05958557128906 122.95555114746094 143.1814727783203" stroke-width="2" fill="none" stroke="rgb(0, 0, 0)" stroke-opacity="1.0" stroke-linecap="round" stroke-linejoin="round"/>
    <path d="M 118.15353393554688 92.83724212646484 C 165.86968994140625 86.84468841552734 112.38823699951172 130.64768981933594 142.8805389404297 120.63494110107422" stroke-width="2" fill="none" stroke="rgb(0, 0, 0)" stroke-opacity="1.0" stroke-linecap="round" stroke-linejoin="round"/>
    <path d="M 172.81581115722656 104.22673797607422 C 198.3941192626953 26.87278938293457 151.44436645507812 99.77445983886719 167.5513458251953 80.90773010253906" stroke-width="2" fill="none" stroke="rgb(0, 0, 0)" stroke-opacity="1.0" stroke-linecap="round" stroke-linejoin="round"/>
    <path d="M 149.92478942871094 134.4574432373047 C 162.12869262695312 109.22003173828125 185.2720489501953 132.9175567626953 158.2229461669922 102.57488250732422" stroke-width="2" fill="none" stroke="rgb(0, 0, 0)" stroke-opacity="1.0" stroke-linecap="round" stroke-linejoin="round"/>
    <path d="M 161.5679473876953 151.44117736816406 C 50.88563537597656 174.70803833007812 18.782867431640625 105.66412353515625 66.61143493652344 142.32281494140625" stroke-width="2" fill="none" stroke="rgb(0, 0, 0)" stroke-opacity="1.0" stroke-linecap="round" stroke-linejoin="round"/>
    <path d="M 172.6953582763672 113.28257751464844 C 150.25283813476562 131.62208557128906 184.5592803955078 131.01206970214844 122.9715347290039 130.3399658203125" stroke-width="2" fill="none" stroke="rgb(0, 0, 0)" stroke-opacity="1.0" stroke-linecap="round" stroke-linejoin="round"/>
    <path d="M 156.99842834472656 98.57936096191406 C 164.53152465820312 96.412841796875 94.93065643310547 82.0984878540039 154.26583862304688 132.6329803466797" stroke-width="2" fill="none" stroke="rgb(0, 0, 0)" stroke-opacity="1.0" stroke-linecap="round" stroke-linejoin="round"/>
    <path d="M 72.57899475097656 107.5976333618164 C 111.42030334472656 119.22664642333984 92.0442886352539 100.12246704101562 75.23458099365234 103.06087493896484" stroke-width="2" fill="none" stroke="rgb(0, 0, 0)" stroke-opacity="1.0" stroke-linecap="round" stroke-linejoin="round"/>
    <path d="M 91.164794921875 117.75343322753906 C 75.52405548095703 107.97885131835938 30.823991775512695 124.89437866210938 92.27379608154297 126.4617919921875" stroke-width="2" fill="none" stroke="rgb(0, 0, 0)" stroke-opacity="1.0" stroke-linecap="round" stroke-linejoin="round"/>
  </g>
</svg>
