<?xml version="1.0" ?>
<svg xmlns="http://www.w3.org/2000/svg" version="1.1" width="224" height="224">
  <defs/>
  <g>
    <path d="M 114.38925170898438 90.84403991699219 C 84.97142028808594 133.30154418945312 89.01744079589844 87.44034576416016 62.42500305175781 108.4828109741211" stroke-width="2" fill="none" stroke="rgb(0, 0, 0)" stroke-opacity="1.0" stroke-linecap="round" stroke-linejoin="round"/>
    <path d="M 147.8263397216797 139.73777770996094 C 199.3746337890625 120.82628631591797 186.0358428955078 189.11643981933594 59.416378021240234 135.88540649414062" stroke-width="2" fill="none" stroke="rgb(0, 0, 0)" stroke-opacity="1.0" stroke-linecap="round" stroke-linejoin="round"/>
    <path d="M 125.51055908203125 118.22341918945312 C 192.171142578125 109.32595825195312 110.75850677490234 119.5516357421875 149.29995727539062 122.93314361572266" stroke-width="2" fill="none" stroke="rgb(0, 0, 0)" stroke-opacity="1.0" stroke-linecap="round" stroke-linejoin="round"/>
    <path d="M 152.6153564453125 130.0570068359375 C 221.33558654785156 133.0609893798828 152.45599365234375 90.99259948730469 180.4306182861328 92.14022827148438" stroke-width="2" fill="none" stroke="rgb(0, 0, 0)" stroke-opacity="1.0" stroke-linecap="round" stroke-linejoin="round"/>
    <path d="M 81.36183166503906 139.9982147216797 C 222.09324645996094 173.21888732910156 119.4410400390625 142.43685913085938 128.54721069335938 156.6353302001953" stroke-width="2" fill="none" stroke="rgb(0, 0, 0)" stroke-opacity="1.0" stroke-linecap="round" stroke-linejoin="round"/>
    <path d="M 172.34658813476562 131.49508666992188 C 178.4887237548828 109.80030822753906 152.17112731933594 113.382080078125 176.7545166015625 123.44124603271484" stroke-width="2" fill="none" stroke="rgb(0, 0, 0)" stroke-opacity="1.0" stroke-linecap="round" stroke-linejoin="round"/>
    <path d="M 49.125579833984375 105.72486114501953 C -15.292842864990234 164.56988525390625 184.1234588623047 152.42953491210938 165.5729522705078 146.76820373535156" stroke-width="2" fill="none" stroke="rgb(0, 0, 0)" stroke-opacity="1.0" stroke-linecap="round" stroke-linejoin="round"/>
    <path d="M 136.69418334960938 132.3889923095703 C 85.18238067626953 133.43373107910156 140.3092041015625 78.47523498535156 113.5556869506836 103.72161865234375" stroke-width="2" fill="none" stroke="rgb(0, 0, 0)" stroke-opacity="1.0" stroke-linecap="round" stroke-linejoin="round"/>
    <path d="M 146.366943359375 137.0053253173828 C 221.31072998046875 141.34254455566406 124.7024917602539 137.76429748535156 149.33578491210938 111.15668487548828" stroke-width="2" fill="none" stroke="rgb(0, 0, 0)" stroke-opacity="1.0" stroke-linecap="round" stroke-linejoin="round"/>
    <path d="M 164.6484832763672 84.16398620605469 C 213.84959411621094 49.0339469909668 173.84515380859375 135.22315979003906 183.57078552246094 68.5145492553711" stroke-width="2" fill="none" stroke="rgb(0, 0, 0)" stroke-opacity="1.0" stroke-linecap="round" stroke-linejoin="round"/>
    <path d="M 116.97129821777344 140.73622131347656 C 178.3451690673828 154.75343322753906 203.10528564453125 65.20762634277344 131.63389587402344 89.27543640136719" stroke-width="2" fill="none" stroke="rgb(0, 0, 0)" stroke-opacity="1.0" stroke-linecap="round" stroke-linejoin="round"/>
    <path d="M 52.11879348754883 107.8360595703125 C 138.3997802734375 76.41275024414062 82.2015151977539 118.2073974609375 111.10586547851562 112.72905731201172" stroke-width="2" fill="none" stroke="rgb(0, 0, 0)" stroke-opacity="1.0" stroke-linecap="round" stroke-linejoin="round"/>
    <path d="M 78.78323364257812 120.58059692382812 C 161.3304901123047 142.2178192138672 42.44266128540039 118.16596984863281 142.49977111816406 143.53614807128906" stroke-width="2" fill="none" stroke="rgb(0, 0, 0)" stroke-opacity="1.0" stroke-linecap="round" stroke-linejoin="round"/>
    <path d="M 148.46002197265625 127.0523910522461 C 144.60548400878906 105.74649047851562 170.67059326171875 130.9920654296875 128.5142364501953 106.57524108886719" stroke-width="2" fill="none" stroke="rgb(0, 0, 0)" stroke-opacity="1.0" stroke-linecap="round" stroke-linejoin="round"/>
    <path d="M 118.44738006591797 100.25504302978516 C 96.3868408203125 42.36629104614258 147.53099060058594 104.65794372558594 126.57296752929688 96.49227142333984" stroke-width="2" fill="none" stroke="rgb(0, 0, 0)" stroke-opacity="1.0" stroke-linecap="round" stroke-linejoin="round"/>
    <path d="M 43.78013610839844 124.53377532958984 C 46.32276153564453 96.94660186767578 85.41732788085938 116.472900390625 57.09658432006836 110.04307556152344" stroke-width="2" fill="none" stroke="rgb(0, 0, 0)" stroke-opacity="1.0" stroke-linecap="round" stroke-linejoin="round"/>
  </g>
</svg>
