<?xml version="1.0" ?>
<svg xmlns="http://www.w3.org/2000/svg" version="1.1" width="224" height="224">
  <defs/>
  <g>
    <path d="M 110.1216812133789 85.544189453125 C 104.60453796386719 100.81449890136719 65.14959716796875 81.991943359375 53.4090461730957 109.26778411865234" stroke-width="2" fill="none" stroke="rgb(0, 0, 0)" stroke-opacity="1.0" stroke-linecap="round" stroke-linejoin="round"/>
    <path d="M 137.39459228515625 135.33999633789062 C 169.84564208984375 150.08697509765625 152.2863006591797 165.74159240722656 81.70586395263672 151.54933166503906" stroke-width="2" fill="none" stroke="rgb(0, 0, 0)" stroke-opacity="1.0" stroke-linecap="round" stroke-linejoin="round"/>
    <path d="M 184.93736267089844 133.14697265625 C 119.64130401611328 147.37509155273438 108.89398956298828 122.24464416503906 121.18205261230469 115.96710205078125" stroke-width="2" fill="none" stroke="rgb(0, 0, 0)" stroke-opacity="1.0" stroke-linecap="round" stroke-linejoin="round"/>
    <path d="M 151.62326049804688 84.0240249633789 C 191.07994079589844 84.8953628540039 179.99380493164062 79.6449203491211 172.2374267578125 130.27517700195312" stroke-width="2" fill="none" stroke="rgb(0, 0, 0)" stroke-opacity="1.0" stroke-linecap="round" stroke-linejoin="round"/>
    <path d="M 108.06173706054688 81.98674011230469 C 146.05491638183594 99.82213592529297 149.80007934570312 89.93756866455078 145.3926544189453 87.25165557861328" stroke-width="2" fill="none" stroke="rgb(0, 0, 0)" stroke-opacity="1.0" stroke-linecap="round" stroke-linejoin="round"/>
    <path d="M 108.78946685791016 68.49775695800781 C 117.07998657226562 102.79224395751953 86.75602722167969 79.48307037353516 94.1203842163086 112.7698974609375" stroke-width="2" fill="none" stroke="rgb(0, 0, 0)" stroke-opacity="1.0" stroke-linecap="round" stroke-linejoin="round"/>
    <path d="M 64.20565795898438 130.14190673828125 C 56.22771072387695 154.55014038085938 107.43269348144531 151.92445373535156 100.35992431640625 154.75146484375" stroke-width="2" fill="none" stroke="rgb(0, 0, 0)" stroke-opacity="1.0" stroke-linecap="round" stroke-linejoin="round"/>
    <path d="M 154.002197265625 142.27928161621094 C 183.18580627441406 124.1541519165039 154.11862182617188 137.2952117919922 105.5835189819336 121.12186431884766" stroke-width="2" fill="none" stroke="rgb(0, 0, 0)" stroke-opacity="1.0" stroke-linecap="round" stroke-linejoin="round"/>
    <path d="M 110.44982147216797 110.27488708496094 C 162.68655395507812 122.32842254638672 167.41624450683594 118.71630096435547 108.61084747314453 115.35746765136719" stroke-width="2" fill="none" stroke="rgb(0, 0, 0)" stroke-opacity="1.0" stroke-linecap="round" stroke-linejoin="round"/>
    <path d="M 186.8759765625 81.63960266113281 C 191.1885986328125 40.89225769042969 173.2606658935547 59.92285919189453 174.5250701904297 64.83773803710938" stroke-width="2" fill="none" stroke="rgb(0, 0, 0)" stroke-opacity="1.0" stroke-linecap="round" stroke-linejoin="round"/>
    <path d="M 170.0241241455078 126.21216583251953 C 196.0985565185547 122.4952163696289 186.3352508544922 143.87203979492188 149.9674530029297 150.9030303955078" stroke-width="2" fill="none" stroke="rgb(0, 0, 0)" stroke-opacity="1.0" stroke-linecap="round" stroke-linejoin="round"/>
    <path d="M 81.67500305175781 149.9972381591797 C 47.370521545410156 152.6485137939453 28.20024299621582 125.11731719970703 58.561065673828125 146.71730041503906" stroke-width="2" fill="none" stroke="rgb(0, 0, 0)" stroke-opacity="1.0" stroke-linecap="round" stroke-linejoin="round"/>
    <path d="M 119.1312484741211 92.76641082763672 C 144.54493713378906 85.84136199951172 141.19390869140625 92.01995849609375 134.63645935058594 84.38521575927734" stroke-width="2" fill="none" stroke="rgb(0, 0, 0)" stroke-opacity="1.0" stroke-linecap="round" stroke-linejoin="round"/>
    <path d="M 173.65518188476562 63.89423370361328 C 153.89370727539062 94.2430419921875 121.0388412475586 97.36554718017578 160.97303771972656 111.56085968017578" stroke-width="2" fill="none" stroke="rgb(0, 0, 0)" stroke-opacity="1.0" stroke-linecap="round" stroke-linejoin="round"/>
    <path d="M 69.4083480834961 116.92298126220703 C 72.58636474609375 102.62821960449219 91.42272186279297 100.38765716552734 98.21477508544922 115.5181884765625" stroke-width="2" fill="none" stroke="rgb(0, 0, 0)" stroke-opacity="1.0" stroke-linecap="round" stroke-linejoin="round"/>
    <path d="M 60.3818473815918 97.09361267089844 C 58.77997589111328 107.53758239746094 25.291723251342773 116.81519317626953 50.3726921081543 147.86756896972656" stroke-width="2" fill="none" stroke="rgb(0, 0, 0)" stroke-opacity="1.0" stroke-linecap="round" stroke-linejoin="round"/>
  </g>
</svg>
