<?xml version="1.0" ?>
<svg xmlns="http://www.w3.org/2000/svg" version="1.1" width="224" height="224">
  <defs/>
  <g>
    <path d="M 101.98384857177734 69.37616729736328 C 146.2956085205078 110.64603424072266 37.12290573120117 75.88224029541016 49.18498992919922 116.2916030883789" stroke-width="2" fill="none" stroke="rgb(0, 0, 0)" stroke-opacity="1.0" stroke-linecap="round" stroke-linejoin="round"/>
    <path d="M 130.18653869628906 115.7099838256836 C 195.0795440673828 131.90740966796875 195.8289337158203 167.9341583251953 57.164268493652344 141.8780975341797" stroke-width="2" fill="none" stroke="rgb(0, 0, 0)" stroke-opacity="1.0" stroke-linecap="round" stroke-linejoin="round"/>
    <path d="M 112.74324798583984 125.89197540283203 C 131.39317321777344 100.73635864257812 79.08341979980469 148.26268005371094 171.48291015625 139.1314697265625" stroke-width="2" fill="none" stroke="rgb(0, 0, 0)" stroke-opacity="1.0" stroke-linecap="round" stroke-linejoin="round"/>
    <path d="M 170.12991333007812 93.5086669921875 C 123.36675262451172 108.19126892089844 164.6593475341797 80.5402603149414 113.00080108642578 82.72093200683594" stroke-width="2" fill="none" stroke="rgb(0, 0, 0)" stroke-opacity="1.0" stroke-linecap="round" stroke-linejoin="round"/>
    <path d="M 93.76953125 112.13069915771484 C 89.11653137207031 84.02595520019531 109.51576232910156 126.78610229492188 101.71392059326172 70.12226867675781" stroke-width="2" fill="none" stroke="rgb(0, 0, 0)" stroke-opacity="1.0" stroke-linecap="round" stroke-linejoin="round"/>
    <path d="M 89.65675354003906 107.49748992919922 C 118.83775329589844 123.60201263427734 92.81163787841797 125.27023315429688 110.61841583251953 103.52914428710938" stroke-width="2" fill="none" stroke="rgb(0, 0, 0)" stroke-opacity="1.0" stroke-linecap="round" stroke-linejoin="round"/>
    <path d="M 53.30464172363281 104.36468505859375 C -6.715343952178955 163.67672729492188 126.74427795410156 166.0648193359375 124.82010650634766 159.90721130371094" stroke-width="2" fill="none" stroke="rgb(0, 0, 0)" stroke-opacity="1.0" stroke-linecap="round" stroke-linejoin="round"/>
    <path d="M 73.24333190917969 128.77655029296875 C 129.51492309570312 168.24295043945312 165.5823974609375 97.66405487060547 124.10673522949219 116.6821517944336" stroke-width="2" fill="none" stroke="rgb(0, 0, 0)" stroke-opacity="1.0" stroke-linecap="round" stroke-linejoin="round"/>
    <path d="M 128.13626098632812 120.9751205444336 C 157.90988159179688 137.8965606689453 93.67670440673828 136.15899658203125 145.44573974609375 133.576904296875" stroke-width="2" fill="none" stroke="rgb(0, 0, 0)" stroke-opacity="1.0" stroke-linecap="round" stroke-linejoin="round"/>
    <path d="M 178.41159057617188 101.44957733154297 C 203.5630340576172 10.33275032043457 168.98069763183594 93.38720703125 145.4860382080078 87.03661346435547" stroke-width="2" fill="none" stroke="rgb(0, 0, 0)" stroke-opacity="1.0" stroke-linecap="round" stroke-linejoin="round"/>
    <path d="M 138.83197021484375 131.4257049560547 C 203.37510681152344 126.99195098876953 142.38450622558594 75.1667251586914 120.299072265625 99.05070495605469" stroke-width="2" fill="none" stroke="rgb(0, 0, 0)" stroke-opacity="1.0" stroke-linecap="round" stroke-linejoin="round"/>
    <path d="M 174.14578247070312 156.17286682128906 C 30.88673973083496 161.4897918701172 23.515283584594727 122.27345275878906 60.2996826171875 97.09638214111328" stroke-width="2" fill="none" stroke="rgb(0, 0, 0)" stroke-opacity="1.0" stroke-linecap="round" stroke-linejoin="round"/>
    <path d="M 172.1610107421875 103.74971008300781 C 132.27005004882812 118.27420806884766 208.46966552734375 119.15342712402344 114.01451110839844 113.06114959716797" stroke-width="2" fill="none" stroke="rgb(0, 0, 0)" stroke-opacity="1.0" stroke-linecap="round" stroke-linejoin="round"/>
    <path d="M 138.52940368652344 104.47966003417969 C 144.49073791503906 135.38734436035156 93.1448974609375 120.297607421875 164.79930114746094 120.27055358886719" stroke-width="2" fill="none" stroke="rgb(0, 0, 0)" stroke-opacity="1.0" stroke-linecap="round" stroke-linejoin="round"/>
    <path d="M 167.6412353515625 123.041259765625 C 191.9870147705078 156.70355224609375 89.50074768066406 126.0504150390625 128.42279052734375 139.88185119628906" stroke-width="2" fill="none" stroke="rgb(0, 0, 0)" stroke-opacity="1.0" stroke-linecap="round" stroke-linejoin="round"/>
    <path d="M 95.64075469970703 153.0033416748047 C 52.96310806274414 154.80116271972656 17.092714309692383 112.49408721923828 100.13080596923828 136.42706298828125" stroke-width="2" fill="none" stroke="rgb(0, 0, 0)" stroke-opacity="1.0" stroke-linecap="round" stroke-linejoin="round"/>
  </g>
</svg>
