<?xml version="1.0" ?>
<svg xmlns="http://www.w3.org/2000/svg" version="1.1" width="224" height="224">
  <defs/>
  <g>
    <path d="M 105.91610717773438 67.71795654296875 C 106.71549987792969 113.56784057617188 68.7520980834961 81.80266571044922 54.32258224487305 112.1776123046875" stroke-width="2" fill="none" stroke="rgb(0, 0, 0)" stroke-opacity="1.0" stroke-linecap="round" stroke-linejoin="round"/>
    <path d="M 137.02671813964844 117.02879333496094 C 188.02716064453125 137.8660888671875 171.16151428222656 161.7057342529297 62.20502471923828 131.1811981201172" stroke-width="2" fill="none" stroke="rgb(0, 0, 0)" stroke-opacity="1.0" stroke-linecap="round" stroke-linejoin="round"/>
    <path d="M 161.05360412597656 122.57730865478516 C 127.98255157470703 140.33209228515625 110.25762939453125 109.72445678710938 132.4246063232422 108.71337127685547" stroke-width="2" fill="none" stroke="rgb(0, 0, 0)" stroke-opacity="1.0" stroke-linecap="round" stroke-linejoin="round"/>
    <path d="M 151.4846954345703 92.04512786865234 C 176.99685668945312 89.11139678955078 180.72312927246094 92.73043060302734 152.5257568359375 128.29945373535156" stroke-width="2" fill="none" stroke="rgb(0, 0, 0)" stroke-opacity="1.0" stroke-linecap="round" stroke-linejoin="round"/>
    <path d="M 106.82803344726562 79.1706314086914 C 125.28593444824219 112.2524185180664 147.21270751953125 90.78999328613281 156.7981414794922 98.42598724365234" stroke-width="2" fill="none" stroke="rgb(0, 0, 0)" stroke-opacity="1.0" stroke-linecap="round" stroke-linejoin="round"/>
    <path d="M 94.9517822265625 89.91409301757812 C 95.59507751464844 106.63381958007812 96.54183197021484 78.82025146484375 99.14032745361328 109.04352569580078" stroke-width="2" fill="none" stroke="rgb(0, 0, 0)" stroke-opacity="1.0" stroke-linecap="round" stroke-linejoin="round"/>
    <path d="M 42.948272705078125 139.46151733398438 C 49.24537658691406 146.97837829589844 118.70948028564453 149.2013397216797 97.91057586669922 147.0279083251953" stroke-width="2" fill="none" stroke="rgb(0, 0, 0)" stroke-opacity="1.0" stroke-linecap="round" stroke-linejoin="round"/>
    <path d="M 128.36195373535156 156.44512939453125 C 213.85963439941406 149.4400177001953 181.66378784179688 130.36146545410156 108.28299713134766 115.98440551757812" stroke-width="2" fill="none" stroke="rgb(0, 0, 0)" stroke-opacity="1.0" stroke-linecap="round" stroke-linejoin="round"/>
    <path d="M 141.53871154785156 122.09037780761719 C 175.96768188476562 104.74561309814453 182.94277954101562 153.69554138183594 94.30967712402344 133.67135620117188" stroke-width="2" fill="none" stroke="rgb(0, 0, 0)" stroke-opacity="1.0" stroke-linecap="round" stroke-linejoin="round"/>
    <path d="M 177.02020263671875 94.27276611328125 C 204.5620880126953 39.467063903808594 167.86343383789062 70.62418365478516 179.4574432373047 94.56088256835938" stroke-width="2" fill="none" stroke="rgb(0, 0, 0)" stroke-opacity="1.0" stroke-linecap="round" stroke-linejoin="round"/>
    <path d="M 176.43414306640625 149.60987854003906 C 188.01611328125 127.57079315185547 174.2398223876953 135.77053833007812 162.75885009765625 150.64305114746094" stroke-width="2" fill="none" stroke="rgb(0, 0, 0)" stroke-opacity="1.0" stroke-linecap="round" stroke-linejoin="round"/>
    <path d="M 76.05950927734375 159.01937866210938 C 43.38327407836914 157.0120849609375 5.635050296783447 134.05027770996094 41.50743103027344 157.24012756347656" stroke-width="2" fill="none" stroke="rgb(0, 0, 0)" stroke-opacity="1.0" stroke-linecap="round" stroke-linejoin="round"/>
    <path d="M 123.04975891113281 101.17720031738281 C 115.35497283935547 79.20808410644531 145.79913330078125 88.67506408691406 143.52499389648438 90.81290435791016" stroke-width="2" fill="none" stroke="rgb(0, 0, 0)" stroke-opacity="1.0" stroke-linecap="round" stroke-linejoin="round"/>
    <path d="M 173.65777587890625 85.24156188964844 C 169.65406799316406 89.9696273803711 123.4991683959961 99.90375518798828 161.09310913085938 109.09242248535156" stroke-width="2" fill="none" stroke="rgb(0, 0, 0)" stroke-opacity="1.0" stroke-linecap="round" stroke-linejoin="round"/>
    <path d="M 80.88953399658203 103.10084533691406 C 71.66117858886719 104.6900863647461 95.21680450439453 105.81536102294922 94.58419799804688 115.75267791748047" stroke-width="2" fill="none" stroke="rgb(0, 0, 0)" stroke-opacity="1.0" stroke-linecap="round" stroke-linejoin="round"/>
    <path d="M 63.517333984375 109.63587951660156 C 64.39585876464844 101.17840576171875 22.688875198364258 122.53524780273438 50.75262451171875 152.08590698242188" stroke-width="2" fill="none" stroke="rgb(0, 0, 0)" stroke-opacity="1.0" stroke-linecap="round" stroke-linejoin="round"/>
  </g>
</svg>
