<?xml version="1.0" ?>
<svg xmlns="http://www.w3.org/2000/svg" version="1.1" width="224" height="224">
  <defs/>
  <g>
    <path d="M 102.41429901123047 75.59557342529297 C 112.653076171875 119.4557876586914 69.89842224121094 69.21239471435547 41.76980972290039 128.94544982910156" stroke-width="2" fill="none" stroke="rgb(0, 0, 0)" stroke-opacity="1.0" stroke-linecap="round" stroke-linejoin="round"/>
    <path d="M 148.52955627441406 137.45277404785156 C 196.76734924316406 123.94562530517578 195.7066650390625 191.69912719726562 55.69003677368164 133.2660369873047" stroke-width="2" fill="none" stroke="rgb(0, 0, 0)" stroke-opacity="1.0" stroke-linecap="round" stroke-linejoin="round"/>
    <path d="M 62.15690231323242 101.97860717773438 C 98.64612579345703 73.9201889038086 114.29951477050781 132.25965881347656 143.45254516601562 133.1390838623047" stroke-width="2" fill="none" stroke="rgb(0, 0, 0)" stroke-opacity="1.0" stroke-linecap="round" stroke-linejoin="round"/>
    <path d="M 98.31177520751953 108.57621002197266 C 103.99649047851562 113.27151489257812 102.61116027832031 131.3628387451172 107.38327026367188 93.66832733154297" stroke-width="2" fill="none" stroke="rgb(0, 0, 0)" stroke-opacity="1.0" stroke-linecap="round" stroke-linejoin="round"/>
    <path d="M 114.68704986572266 114.15831756591797 C 165.28993225097656 92.55733489990234 99.41891479492188 123.0560073852539 136.66738891601562 111.8160629272461" stroke-width="2" fill="none" stroke="rgb(0, 0, 0)" stroke-opacity="1.0" stroke-linecap="round" stroke-linejoin="round"/>
    <path d="M 105.42683410644531 119.65703582763672 C 203.88551330566406 136.23358154296875 127.39130401611328 112.08802795410156 149.6092987060547 111.24476623535156" stroke-width="2" fill="none" stroke="rgb(0, 0, 0)" stroke-opacity="1.0" stroke-linecap="round" stroke-linejoin="round"/>
    <path d="M 44.82661437988281 130.32421875 C 33.42046356201172 165.84103393554688 174.2121124267578 155.24276733398438 175.14935302734375 144.06863403320312" stroke-width="2" fill="none" stroke="rgb(0, 0, 0)" stroke-opacity="1.0" stroke-linecap="round" stroke-linejoin="round"/>
    <path d="M 126.66109466552734 116.91390228271484 C 60.663089752197266 99.98871612548828 107.25566864013672 144.4571533203125 107.55301666259766 105.3504409790039" stroke-width="2" fill="none" stroke="rgb(0, 0, 0)" stroke-opacity="1.0" stroke-linecap="round" stroke-linejoin="round"/>
    <path d="M 75.23970794677734 141.07174682617188 C 221.02525329589844 145.35972595214844 135.1544189453125 157.5062255859375 76.2618179321289 129.52500915527344" stroke-width="2" fill="none" stroke="rgb(0, 0, 0)" stroke-opacity="1.0" stroke-linecap="round" stroke-linejoin="round"/>
    <path d="M 178.9293670654297 98.38709259033203 C 199.78396606445312 28.21283531188965 153.35665893554688 98.9993667602539 164.3584747314453 84.81742858886719" stroke-width="2" fill="none" stroke="rgb(0, 0, 0)" stroke-opacity="1.0" stroke-linecap="round" stroke-linejoin="round"/>
    <path d="M 115.75761413574219 123.62055969238281 C 190.93280029296875 140.19256591796875 161.091796875 55.50347137451172 130.312255859375 95.9269027709961" stroke-width="2" fill="none" stroke="rgb(0, 0, 0)" stroke-opacity="1.0" stroke-linecap="round" stroke-linejoin="round"/>
    <path d="M 146.99168395996094 134.14822387695312 C 148.1998291015625 120.29383087158203 59.544071197509766 80.67462158203125 49.00595474243164 125.56758880615234" stroke-width="2" fill="none" stroke="rgb(0, 0, 0)" stroke-opacity="1.0" stroke-linecap="round" stroke-linejoin="round"/>
    <path d="M 161.38304138183594 138.8968505859375 C 166.0777587890625 100.19281768798828 139.19100952148438 113.12627410888672 166.56178283691406 96.66632843017578" stroke-width="2" fill="none" stroke="rgb(0, 0, 0)" stroke-opacity="1.0" stroke-linecap="round" stroke-linejoin="round"/>
    <path d="M 156.27357482910156 120.28328704833984 C 184.8976287841797 95.38587188720703 117.28602600097656 122.02723693847656 156.33865356445312 116.57675170898438" stroke-width="2" fill="none" stroke="rgb(0, 0, 0)" stroke-opacity="1.0" stroke-linecap="round" stroke-linejoin="round"/>
    <path d="M 104.93694305419922 78.27332305908203 C 127.62874603271484 52.01125717163086 94.79885864257812 95.59019470214844 158.72021484375 86.78466033935547" stroke-width="2" fill="none" stroke="rgb(0, 0, 0)" stroke-opacity="1.0" stroke-linecap="round" stroke-linejoin="round"/>
    <path d="M 78.51297760009766 131.28677368164062 C 21.484161376953125 109.35833740234375 57.428958892822266 109.57673645019531 145.9414520263672 117.12771606445312" stroke-width="2" fill="none" stroke="rgb(0, 0, 0)" stroke-opacity="1.0" stroke-linecap="round" stroke-linejoin="round"/>
  </g>
</svg>
