<?xml version="1.0" ?>
<svg xmlns="http://www.w3.org/2000/svg" version="1.1" width="224" height="224">
  <defs/>
  <g>
    <path d="M 103.54800415039062 69.33184051513672 C 132.86807250976562 121.33068084716797 54.535762786865234 81.45647430419922 49.39922332763672 115.53822326660156" stroke-width="2" fill="none" stroke="rgb(0, 0, 0)" stroke-opacity="1.0" stroke-linecap="round" stroke-linejoin="round"/>
    <path d="M 159.53091430664062 145.13661193847656 C 197.17633056640625 128.63096618652344 166.68997192382812 185.0302734375 71.41918182373047 135.8196563720703" stroke-width="2" fill="none" stroke="rgb(0, 0, 0)" stroke-opacity="1.0" stroke-linecap="round" stroke-linejoin="round"/>
    <path d="M 129.330322265625 107.9390640258789 C 229.903564453125 120.17535400390625 117.61737823486328 137.29827880859375 169.52285766601562 137.1534881591797" stroke-width="2" fill="none" stroke="rgb(0, 0, 0)" stroke-opacity="1.0" stroke-linecap="round" stroke-linejoin="round"/>
    <path d="M 157.2299346923828 149.75830078125 C 212.3406524658203 149.07958984375 152.3991241455078 80.20268249511719 166.3926239013672 116.99761962890625" stroke-width="2" fill="none" stroke="rgb(0, 0, 0)" stroke-opacity="1.0" stroke-linecap="round" stroke-linejoin="round"/>
    <path d="M 69.64126586914062 124.34317016601562 C 277.9789123535156 140.72329711914062 128.03048706054688 154.11805725097656 119.65707397460938 150.92918395996094" stroke-width="2" fill="none" stroke="rgb(0, 0, 0)" stroke-opacity="1.0" stroke-linecap="round" stroke-linejoin="round"/>
    <path d="M 163.07516479492188 84.66980743408203 C 194.92913818359375 80.83909606933594 173.7427978515625 116.68390655517578 155.41647338867188 113.7437973022461" stroke-width="2" fill="none" stroke="rgb(0, 0, 0)" stroke-opacity="1.0" stroke-linecap="round" stroke-linejoin="round"/>
    <path d="M 61.08024978637695 107.62438201904297 C -4.620145320892334 169.2623291015625 176.41310119628906 158.7793731689453 160.884765625 160.11355590820312" stroke-width="2" fill="none" stroke="rgb(0, 0, 0)" stroke-opacity="1.0" stroke-linecap="round" stroke-linejoin="round"/>
    <path d="M 142.8611297607422 143.6364288330078 C 74.83891296386719 113.08113861083984 141.17567443847656 83.68405151367188 100.26141357421875 117.1343994140625" stroke-width="2" fill="none" stroke="rgb(0, 0, 0)" stroke-opacity="1.0" stroke-linecap="round" stroke-linejoin="round"/>
    <path d="M 153.64810180664062 126.52986907958984 C 219.9239044189453 117.37418365478516 123.69263458251953 115.9000244140625 156.99000549316406 108.91197967529297" stroke-width="2" fill="none" stroke="rgb(0, 0, 0)" stroke-opacity="1.0" stroke-linecap="round" stroke-linejoin="round"/>
    <path d="M 156.5191192626953 71.33393859863281 C 200.07366943359375 17.69951629638672 170.52528381347656 114.43049621582031 168.04202270507812 80.29120635986328" stroke-width="2" fill="none" stroke="rgb(0, 0, 0)" stroke-opacity="1.0" stroke-linecap="round" stroke-linejoin="round"/>
    <path d="M 93.43680572509766 127.70093536376953 C 198.43988037109375 182.74606323242188 186.21917724609375 55.33250045776367 142.6833953857422 79.8873291015625" stroke-width="2" fill="none" stroke="rgb(0, 0, 0)" stroke-opacity="1.0" stroke-linecap="round" stroke-linejoin="round"/>
    <path d="M 57.56135177612305 112.5213851928711 C 110.98357391357422 130.3199920654297 102.57322692871094 140.91162109375 111.98280334472656 112.91104888916016" stroke-width="2" fill="none" stroke="rgb(0, 0, 0)" stroke-opacity="1.0" stroke-linecap="round" stroke-linejoin="round"/>
    <path d="M 86.14399719238281 123.98967742919922 C 176.99859619140625 161.31124877929688 50.46976852416992 123.2084732055664 156.21572875976562 151.15878295898438" stroke-width="2" fill="none" stroke="rgb(0, 0, 0)" stroke-opacity="1.0" stroke-linecap="round" stroke-linejoin="round"/>
    <path d="M 153.02877807617188 121.28533935546875 C 125.22449493408203 97.66248321533203 169.18443298339844 108.41893005371094 130.6873016357422 120.73109436035156" stroke-width="2" fill="none" stroke="rgb(0, 0, 0)" stroke-opacity="1.0" stroke-linecap="round" stroke-linejoin="round"/>
    <path d="M 98.33496856689453 117.6878662109375 C 103.11200714111328 33.29865646362305 145.74449157714844 93.91563415527344 126.03538513183594 75.46452331542969" stroke-width="2" fill="none" stroke="rgb(0, 0, 0)" stroke-opacity="1.0" stroke-linecap="round" stroke-linejoin="round"/>
    <path d="M 66.86152648925781 102.9136962890625 C 28.198617935180664 113.19998168945312 107.43988800048828 126.8099365234375 63.461936950683594 105.75074005126953" stroke-width="2" fill="none" stroke="rgb(0, 0, 0)" stroke-opacity="1.0" stroke-linecap="round" stroke-linejoin="round"/>
  </g>
</svg>
