<?xml version="1.0" ?>
<svg xmlns="http://www.w3.org/2000/svg" version="1.1" width="224" height="224">
  <defs/>
  <g>
    <path d="M 106.50042724609375 68.75579071044922 C 113.25213623046875 130.47628784179688 62.5047492980957 58.87986755371094 39.76173782348633 137.22161865234375" stroke-width="2" fill="none" stroke="rgb(0, 0, 0)" stroke-opacity="1.0" stroke-linecap="round" stroke-linejoin="round"/>
    <path d="M 146.85546875 128.98532104492188 C 208.38632202148438 128.41831970214844 189.259765625 185.51388549804688 79.7387924194336 130.40565490722656" stroke-width="2" fill="none" stroke="rgb(0, 0, 0)" stroke-opacity="1.0" stroke-linecap="round" stroke-linejoin="round"/>
    <path d="M 42.7554817199707 138.473388671875 C 31.100116729736328 101.57740783691406 76.93959045410156 132.4385986328125 98.19227600097656 133.67803955078125" stroke-width="2" fill="none" stroke="rgb(0, 0, 0)" stroke-opacity="1.0" stroke-linecap="round" stroke-linejoin="round"/>
    <path d="M 143.89871215820312 89.21703338623047 C 77.3152084350586 117.2640609741211 175.6726837158203 120.62055206298828 134.39646911621094 113.2789077758789" stroke-width="2" fill="none" stroke="rgb(0, 0, 0)" stroke-opacity="1.0" stroke-linecap="round" stroke-linejoin="round"/>
    <path d="M 92.14730834960938 100.60734558105469 C 128.161865234375 101.31190490722656 92.64794158935547 110.39339447021484 124.47476959228516 100.35826110839844" stroke-width="2" fill="none" stroke="rgb(0, 0, 0)" stroke-opacity="1.0" stroke-linecap="round" stroke-linejoin="round"/>
    <path d="M 93.24543762207031 140.0823974609375 C 195.6776123046875 143.59957885742188 116.31106567382812 148.2273712158203 166.53228759765625 131.5223846435547" stroke-width="2" fill="none" stroke="rgb(0, 0, 0)" stroke-opacity="1.0" stroke-linecap="round" stroke-linejoin="round"/>
    <path d="M 41.2082405090332 118.16806030273438 C 11.44636344909668 170.70196533203125 174.3291778564453 162.3125457763672 141.49737548828125 160.45684814453125" stroke-width="2" fill="none" stroke="rgb(0, 0, 0)" stroke-opacity="1.0" stroke-linecap="round" stroke-linejoin="round"/>
    <path d="M 92.12738037109375 108.66798400878906 C 99.04270935058594 134.32919311523438 118.73180389404297 103.11279296875 101.23531341552734 126.4006576538086" stroke-width="2" fill="none" stroke="rgb(0, 0, 0)" stroke-opacity="1.0" stroke-linecap="round" stroke-linejoin="round"/>
    <path d="M 114.92820739746094 137.0995330810547 C 174.87454223632812 132.83827209472656 145.75411987304688 134.8843994140625 114.83516693115234 131.08201599121094" stroke-width="2" fill="none" stroke="rgb(0, 0, 0)" stroke-opacity="1.0" stroke-linecap="round" stroke-linejoin="round"/>
    <path d="M 184.73779296875 90.6650390625 C 195.2543182373047 21.494874954223633 167.02438354492188 114.26773834228516 153.5589141845703 100.79835510253906" stroke-width="2" fill="none" stroke="rgb(0, 0, 0)" stroke-opacity="1.0" stroke-linecap="round" stroke-linejoin="round"/>
    <path d="M 131.54074096679688 121.32587432861328 C 179.84613037109375 134.07789611816406 176.9921875 88.39331817626953 116.4368896484375 89.10696411132812" stroke-width="2" fill="none" stroke="rgb(0, 0, 0)" stroke-opacity="1.0" stroke-linecap="round" stroke-linejoin="round"/>
    <path d="M 168.3615264892578 147.2974395751953 C 56.893184661865234 160.0975341796875 25.75639533996582 132.44993591308594 72.61703491210938 148.20849609375" stroke-width="2" fill="none" stroke="rgb(0, 0, 0)" stroke-opacity="1.0" stroke-linecap="round" stroke-linejoin="round"/>
    <path d="M 170.1941680908203 133.7848663330078 C 169.2363739013672 88.02727508544922 175.38427734375 126.20873260498047 183.47926330566406 97.77677917480469" stroke-width="2" fill="none" stroke="rgb(0, 0, 0)" stroke-opacity="1.0" stroke-linecap="round" stroke-linejoin="round"/>
    <path d="M 149.97007751464844 118.1301498413086 C 180.21160888671875 126.73592376708984 124.54137420654297 122.16414642333984 145.67605590820312 136.43504333496094" stroke-width="2" fill="none" stroke="rgb(0, 0, 0)" stroke-opacity="1.0" stroke-linecap="round" stroke-linejoin="round"/>
    <path d="M 104.64020538330078 77.591552734375 C 135.74008178710938 104.49913024902344 103.57960510253906 92.17112731933594 163.183837890625 97.12866973876953" stroke-width="2" fill="none" stroke="rgb(0, 0, 0)" stroke-opacity="1.0" stroke-linecap="round" stroke-linejoin="round"/>
    <path d="M 62.61757278442383 142.80441284179688 C 38.073875427246094 108.84097290039062 20.36168670654297 155.33448791503906 126.3343505859375 151.30450439453125" stroke-width="2" fill="none" stroke="rgb(0, 0, 0)" stroke-opacity="1.0" stroke-linecap="round" stroke-linejoin="round"/>
  </g>
</svg>
