<?xml version="1.0" ?>
<svg xmlns="http://www.w3.org/2000/svg" version="1.1" width="224" height="224">
  <defs/>
  <g>
    <path d="M 96.93550872802734 68.58837127685547 C 112.84259033203125 124.06905364990234 49.47206115722656 65.88168334960938 41.32426071166992 132.24290466308594" stroke-width="2" fill="none" stroke="rgb(0, 0, 0)" stroke-opacity="1.0" stroke-linecap="round" stroke-linejoin="round"/>
    <path d="M 171.15106201171875 113.4469223022461 C 161.3063201904297 101.81283569335938 198.38856506347656 151.79249572753906 62.313262939453125 118.12677764892578" stroke-width="2" fill="none" stroke="rgb(0, 0, 0)" stroke-opacity="1.0" stroke-linecap="round" stroke-linejoin="round"/>
    <path d="M 76.2225341796875 96.70777130126953 C 128.98959350585938 91.14404296875 44.75328063964844 147.4256134033203 172.0931854248047 139.4325408935547" stroke-width="2" fill="none" stroke="rgb(0, 0, 0)" stroke-opacity="1.0" stroke-linecap="round" stroke-linejoin="round"/>
    <path d="M 117.43810272216797 104.9273910522461 C 150.738525390625 90.34208679199219 82.66217041015625 138.9028778076172 161.212646484375 124.33326721191406" stroke-width="2" fill="none" stroke="rgb(0, 0, 0)" stroke-opacity="1.0" stroke-linecap="round" stroke-linejoin="round"/>
    <path d="M 102.80084228515625 109.61936950683594 C 146.8852081298828 113.82914733886719 87.88148498535156 123.73352813720703 134.56491088867188 104.8778305053711" stroke-width="2" fill="none" stroke="rgb(0, 0, 0)" stroke-opacity="1.0" stroke-linecap="round" stroke-linejoin="round"/>
    <path d="M 159.69862365722656 131.81301879882812 C 174.92572021484375 127.71495056152344 157.11642456054688 112.70565032958984 158.18544006347656 124.07897186279297" stroke-width="2" fill="none" stroke="rgb(0, 0, 0)" stroke-opacity="1.0" stroke-linecap="round" stroke-linejoin="round"/>
    <path d="M 41.360252380371094 125.8936538696289 C 25.412803649902344 168.9228973388672 215.51806640625 164.2256622314453 168.46531677246094 132.78384399414062" stroke-width="2" fill="none" stroke="rgb(0, 0, 0)" stroke-opacity="1.0" stroke-linecap="round" stroke-linejoin="round"/>
    <path d="M 153.09080505371094 123.5091781616211 C 122.3075180053711 123.47042846679688 195.31536865234375 112.26469421386719 124.82937622070312 103.04950714111328" stroke-width="2" fill="none" stroke="rgb(0, 0, 0)" stroke-opacity="1.0" stroke-linecap="round" stroke-linejoin="round"/>
    <path d="M 114.77764129638672 129.05174255371094 C 229.54339599609375 145.3341522216797 126.1004867553711 151.5062255859375 93.69349670410156 108.54153442382812" stroke-width="2" fill="none" stroke="rgb(0, 0, 0)" stroke-opacity="1.0" stroke-linecap="round" stroke-linejoin="round"/>
    <path d="M 171.78453063964844 98.82970428466797 C 188.52224731445312 33.575050354003906 169.15887451171875 80.54573059082031 158.077392578125 78.38674926757812" stroke-width="2" fill="none" stroke="rgb(0, 0, 0)" stroke-opacity="1.0" stroke-linecap="round" stroke-linejoin="round"/>
    <path d="M 140.86956787109375 112.20565032958984 C 195.2310333251953 140.9324951171875 172.4517822265625 66.59786224365234 138.21353149414062 93.91482543945312" stroke-width="2" fill="none" stroke="rgb(0, 0, 0)" stroke-opacity="1.0" stroke-linecap="round" stroke-linejoin="round"/>
    <path d="M 103.64825439453125 106.2795639038086 C 105.30635833740234 137.2779083251953 41.96174621582031 80.7862548828125 43.1862907409668 127.48880004882812" stroke-width="2" fill="none" stroke="rgb(0, 0, 0)" stroke-opacity="1.0" stroke-linecap="round" stroke-linejoin="round"/>
    <path d="M 143.34092712402344 111.30438995361328 C 189.54859924316406 102.5102310180664 114.5289077758789 104.64672088623047 147.4473876953125 107.66358947753906" stroke-width="2" fill="none" stroke="rgb(0, 0, 0)" stroke-opacity="1.0" stroke-linecap="round" stroke-linejoin="round"/>
    <path d="M 176.9032745361328 61.476837158203125 C 191.48611450195312 93.44676208496094 154.7633514404297 81.3698501586914 164.8195037841797 104.51084899902344" stroke-width="2" fill="none" stroke="rgb(0, 0, 0)" stroke-opacity="1.0" stroke-linecap="round" stroke-linejoin="round"/>
    <path d="M 98.90283966064453 77.5901870727539 C 122.00409698486328 57.523223876953125 118.03560638427734 86.74678039550781 134.49974060058594 85.61393737792969" stroke-width="2" fill="none" stroke="rgb(0, 0, 0)" stroke-opacity="1.0" stroke-linecap="round" stroke-linejoin="round"/>
    <path d="M 99.88407897949219 141.53939819335938 C 20.41994857788086 123.1312255859375 44.00697326660156 148.971923828125 118.15699005126953 157.66812133789062" stroke-width="2" fill="none" stroke="rgb(0, 0, 0)" stroke-opacity="1.0" stroke-linecap="round" stroke-linejoin="round"/>
  </g>
</svg>
