<?xml version="1.0" ?>
<svg xmlns="http://www.w3.org/2000/svg" version="1.1" width="224" height="224">
  <defs/>
  <g>
    <path d="M 104.03130340576172 82.17717742919922 C 153.47647094726562 116.6644515991211 58.643310546875 70.01253509521484 50.701934814453125 118.42973327636719" stroke-width="2" fill="none" stroke="rgb(0, 0, 0)" stroke-opacity="1.0" stroke-linecap="round" stroke-linejoin="round"/>
    <path d="M 119.3654556274414 130.73220825195312 C 234.4718475341797 133.18862915039062 147.98269653320312 173.3734893798828 65.48674774169922 140.2877655029297" stroke-width="2" fill="none" stroke="rgb(0, 0, 0)" stroke-opacity="1.0" stroke-linecap="round" stroke-linejoin="round"/>
    <path d="M 166.72203063964844 97.62564849853516 C 102.60188293457031 58.0928840637207 96.50464630126953 150.84661865234375 164.51011657714844 131.04156494140625" stroke-width="2" fill="none" stroke="rgb(0, 0, 0)" stroke-opacity="1.0" stroke-linecap="round" stroke-linejoin="round"/>
    <path d="M 166.0027313232422 96.20806884765625 C 191.29449462890625 81.04957580566406 180.3057403564453 111.34794616699219 162.03628540039062 121.85845947265625" stroke-width="2" fill="none" stroke="rgb(0, 0, 0)" stroke-opacity="1.0" stroke-linecap="round" stroke-linejoin="round"/>
    <path d="M 104.16625213623047 75.1677474975586 C 107.7282485961914 114.13643646240234 109.2724838256836 78.3102035522461 139.11953735351562 102.91117858886719" stroke-width="2" fill="none" stroke="rgb(0, 0, 0)" stroke-opacity="1.0" stroke-linecap="round" stroke-linejoin="round"/>
    <path d="M 106.5792007446289 87.93132019042969 C 131.1666259765625 117.75078582763672 101.4886703491211 117.49493408203125 111.41182708740234 132.9728546142578" stroke-width="2" fill="none" stroke="rgb(0, 0, 0)" stroke-opacity="1.0" stroke-linecap="round" stroke-linejoin="round"/>
    <path d="M 42.5408821105957 126.28085327148438 C 19.785131454467773 159.44651794433594 94.43975830078125 160.30421447753906 99.32418823242188 162.80715942382812" stroke-width="2" fill="none" stroke="rgb(0, 0, 0)" stroke-opacity="1.0" stroke-linecap="round" stroke-linejoin="round"/>
    <path d="M 74.54579162597656 127.03887176513672 C 207.7498016357422 169.98965454101562 195.7708740234375 136.33876037597656 98.73067474365234 140.22711181640625" stroke-width="2" fill="none" stroke="rgb(0, 0, 0)" stroke-opacity="1.0" stroke-linecap="round" stroke-linejoin="round"/>
    <path d="M 107.60697937011719 87.32392883300781 C 159.43362426757812 88.63768005371094 139.12413024902344 113.57259368896484 118.07534790039062 123.11944580078125" stroke-width="2" fill="none" stroke="rgb(0, 0, 0)" stroke-opacity="1.0" stroke-linecap="round" stroke-linejoin="round"/>
    <path d="M 173.55679321289062 87.088623046875 C 179.51504516601562 29.134075164794922 154.27413940429688 101.467041015625 162.8645782470703 89.55531311035156" stroke-width="2" fill="none" stroke="rgb(0, 0, 0)" stroke-opacity="1.0" stroke-linecap="round" stroke-linejoin="round"/>
    <path d="M 136.864990234375 113.75121307373047 C 191.63156127929688 105.32536315917969 166.63180541992188 145.06100463867188 139.85948181152344 139.5369415283203" stroke-width="2" fill="none" stroke="rgb(0, 0, 0)" stroke-opacity="1.0" stroke-linecap="round" stroke-linejoin="round"/>
    <path d="M 113.11609649658203 164.31092834472656 C 39.20766067504883 162.3312530517578 43.341094970703125 147.13201904296875 68.11444854736328 161.8016815185547" stroke-width="2" fill="none" stroke="rgb(0, 0, 0)" stroke-opacity="1.0" stroke-linecap="round" stroke-linejoin="round"/>
    <path d="M 179.01927185058594 103.15930938720703 C 158.16085815429688 108.3483657836914 221.54261779785156 119.90376281738281 117.13627624511719 111.25942993164062" stroke-width="2" fill="none" stroke="rgb(0, 0, 0)" stroke-opacity="1.0" stroke-linecap="round" stroke-linejoin="round"/>
    <path d="M 163.4337921142578 78.98857116699219 C 149.73194885253906 99.95890045166016 107.68367004394531 75.65664672851562 147.13897705078125 113.53207397460938" stroke-width="2" fill="none" stroke="rgb(0, 0, 0)" stroke-opacity="1.0" stroke-linecap="round" stroke-linejoin="round"/>
    <path d="M 85.87095642089844 103.65660095214844 C 112.11050415039062 111.45394897460938 117.84999084472656 85.90731048583984 108.73723602294922 98.3342056274414" stroke-width="2" fill="none" stroke="rgb(0, 0, 0)" stroke-opacity="1.0" stroke-linecap="round" stroke-linejoin="round"/>
    <path d="M 74.23774719238281 114.37920379638672 C 54.263736724853516 93.84766387939453 9.32926082611084 150.05126953125 90.10791015625 126.08463287353516" stroke-width="2" fill="none" stroke="rgb(0, 0, 0)" stroke-opacity="1.0" stroke-linecap="round" stroke-linejoin="round"/>
  </g>
</svg>
