<?xml version="1.0" ?>
<svg xmlns="http://www.w3.org/2000/svg" version="1.1" width="224" height="224">
  <defs/>
  <g>
    <path d="M 108.38643646240234 72.44432067871094 C 116.28959655761719 120.83500671386719 69.59325408935547 70.94786834716797 50.40720748901367 127.97028350830078" stroke-width="2" fill="none" stroke="rgb(0, 0, 0)" stroke-opacity="1.0" stroke-linecap="round" stroke-linejoin="round"/>
    <path d="M 169.0048065185547 120.1792984008789 C 161.06602478027344 110.22134399414062 193.20895385742188 168.31472778320312 76.85935974121094 129.39447021484375" stroke-width="2" fill="none" stroke="rgb(0, 0, 0)" stroke-opacity="1.0" stroke-linecap="round" stroke-linejoin="round"/>
    <path d="M 117.5942611694336 88.18830108642578 C 132.7440948486328 79.37672424316406 60.76978302001953 148.72767639160156 179.42230224609375 130.63424682617188" stroke-width="2" fill="none" stroke="rgb(0, 0, 0)" stroke-opacity="1.0" stroke-linecap="round" stroke-linejoin="round"/>
    <path d="M 116.89958953857422 116.206787109375 C 169.04086303710938 120.90974426269531 104.62525177001953 122.38312530517578 168.9803009033203 134.016357421875" stroke-width="2" fill="none" stroke="rgb(0, 0, 0)" stroke-opacity="1.0" stroke-linecap="round" stroke-linejoin="round"/>
    <path d="M 124.32401275634766 112.54740905761719 C 173.92697143554688 127.98088836669922 77.34993743896484 118.93428802490234 139.50985717773438 105.97623443603516" stroke-width="2" fill="none" stroke="rgb(0, 0, 0)" stroke-opacity="1.0" stroke-linecap="round" stroke-linejoin="round"/>
    <path d="M 125.28755950927734 128.42568969726562 C 168.06350708007812 106.7812271118164 147.57762145996094 106.56980895996094 176.9373779296875 117.76589965820312" stroke-width="2" fill="none" stroke="rgb(0, 0, 0)" stroke-opacity="1.0" stroke-linecap="round" stroke-linejoin="round"/>
    <path d="M 47.46919631958008 120.751220703125 C 13.719869613647461 169.4567413330078 221.3775634765625 163.81321716308594 184.54330444335938 135.99307250976562" stroke-width="2" fill="none" stroke="rgb(0, 0, 0)" stroke-opacity="1.0" stroke-linecap="round" stroke-linejoin="round"/>
    <path d="M 153.38299560546875 104.59180450439453 C 100.56971740722656 104.52743530273438 172.23609924316406 115.47537231445312 116.10848236083984 111.95465087890625" stroke-width="2" fill="none" stroke="rgb(0, 0, 0)" stroke-opacity="1.0" stroke-linecap="round" stroke-linejoin="round"/>
    <path d="M 126.95640563964844 117.38301849365234 C 225.14205932617188 114.78523254394531 130.390380859375 139.83224487304688 105.90579986572266 90.95340728759766" stroke-width="2" fill="none" stroke="rgb(0, 0, 0)" stroke-opacity="1.0" stroke-linecap="round" stroke-linejoin="round"/>
    <path d="M 183.23606872558594 82.98577880859375 C 185.45877075195312 28.931358337402344 171.66448974609375 90.64871978759766 155.9697723388672 81.57357788085938" stroke-width="2" fill="none" stroke="rgb(0, 0, 0)" stroke-opacity="1.0" stroke-linecap="round" stroke-linejoin="round"/>
    <path d="M 150.0784454345703 114.43666076660156 C 182.63253784179688 150.43775939941406 173.14337158203125 66.42610168457031 143.08859252929688 79.72501373291016" stroke-width="2" fill="none" stroke="rgb(0, 0, 0)" stroke-opacity="1.0" stroke-linecap="round" stroke-linejoin="round"/>
    <path d="M 79.48680114746094 113.363037109375 C 122.23799133300781 130.2379913330078 53.439876556396484 83.42588806152344 53.91947937011719 121.33341217041016" stroke-width="2" fill="none" stroke="rgb(0, 0, 0)" stroke-opacity="1.0" stroke-linecap="round" stroke-linejoin="round"/>
    <path d="M 122.71562957763672 105.66981506347656 C 159.0482177734375 95.81266784667969 108.81294250488281 97.8989486694336 137.3165283203125 100.37393951416016" stroke-width="2" fill="none" stroke="rgb(0, 0, 0)" stroke-opacity="1.0" stroke-linecap="round" stroke-linejoin="round"/>
    <path d="M 175.79644775390625 73.46037292480469 C 183.52891540527344 116.09207153320312 149.7279510498047 106.26688385009766 168.20428466796875 89.12395477294922" stroke-width="2" fill="none" stroke="rgb(0, 0, 0)" stroke-opacity="1.0" stroke-linecap="round" stroke-linejoin="round"/>
    <path d="M 100.63582611083984 80.81340026855469 C 114.9201889038086 67.2561264038086 113.9779052734375 99.28536224365234 138.7465362548828 86.83367919921875" stroke-width="2" fill="none" stroke="rgb(0, 0, 0)" stroke-opacity="1.0" stroke-linecap="round" stroke-linejoin="round"/>
    <path d="M 109.86161041259766 140.3272247314453 C 22.02342414855957 125.19756317138672 67.72945404052734 150.3088836669922 148.71949768066406 154.2507781982422" stroke-width="2" fill="none" stroke="rgb(0, 0, 0)" stroke-opacity="1.0" stroke-linecap="round" stroke-linejoin="round"/>
  </g>
</svg>
