<?xml version="1.0" ?>
<svg xmlns="http://www.w3.org/2000/svg" version="1.1" width="224" height="224">
  <defs/>
  <g>
    <path d="M 102.1013412475586 68.45088958740234 C 109.13673400878906 125.72834777832031 60.9764518737793 60.74124526977539 43.0149040222168 134.58004760742188" stroke-width="2" fill="none" stroke="rgb(0, 0, 0)" stroke-opacity="1.0" stroke-linecap="round" stroke-linejoin="round"/>
    <path d="M 145.11383056640625 119.95195770263672 C 197.76332092285156 129.8780975341797 198.89675903320312 182.02737426757812 73.95282745361328 133.21929931640625" stroke-width="2" fill="none" stroke="rgb(0, 0, 0)" stroke-opacity="1.0" stroke-linecap="round" stroke-linejoin="round"/>
    <path d="M 48.55837631225586 121.26658630371094 C 69.32896423339844 76.3070068359375 92.13543701171875 137.15347290039062 140.0842742919922 137.27044677734375" stroke-width="2" fill="none" stroke="rgb(0, 0, 0)" stroke-opacity="1.0" stroke-linecap="round" stroke-linejoin="round"/>
    <path d="M 118.7010726928711 96.59149932861328 C 85.87919616699219 121.28767395019531 126.81021881103516 121.11360168457031 95.42913818359375 94.15998840332031" stroke-width="2" fill="none" stroke="rgb(0, 0, 0)" stroke-opacity="1.0" stroke-linecap="round" stroke-linejoin="round"/>
    <path d="M 125.20650482177734 103.97441101074219 C 130.63922119140625 87.8117446899414 107.02687072753906 108.51143646240234 111.88276672363281 87.46642303466797" stroke-width="2" fill="none" stroke="rgb(0, 0, 0)" stroke-opacity="1.0" stroke-linecap="round" stroke-linejoin="round"/>
    <path d="M 130.56216430664062 124.49320220947266 C 187.21458435058594 132.1504364013672 121.0804443359375 105.87809753417969 151.12916564941406 125.2034683227539" stroke-width="2" fill="none" stroke="rgb(0, 0, 0)" stroke-opacity="1.0" stroke-linecap="round" stroke-linejoin="round"/>
    <path d="M 44.36239242553711 136.37562561035156 C 34.266014099121094 161.34857177734375 175.62049865722656 158.1041259765625 166.88111877441406 152.9806365966797" stroke-width="2" fill="none" stroke="rgb(0, 0, 0)" stroke-opacity="1.0" stroke-linecap="round" stroke-linejoin="round"/>
    <path d="M 115.04816436767578 132.48805236816406 C 83.6617202758789 118.02195739746094 145.35101318359375 137.5747833251953 121.96284484863281 132.72482299804688" stroke-width="2" fill="none" stroke="rgb(0, 0, 0)" stroke-opacity="1.0" stroke-linecap="round" stroke-linejoin="round"/>
    <path d="M 131.42245483398438 128.9124298095703 C 231.14605712890625 119.94577026367188 129.6931915283203 159.904052734375 99.6639175415039 124.48273468017578" stroke-width="2" fill="none" stroke="rgb(0, 0, 0)" stroke-opacity="1.0" stroke-linecap="round" stroke-linejoin="round"/>
    <path d="M 182.00958251953125 97.02738952636719 C 191.1893768310547 20.692907333374023 157.97705078125 97.86328125 150.0726318359375 88.3963851928711" stroke-width="2" fill="none" stroke="rgb(0, 0, 0)" stroke-opacity="1.0" stroke-linecap="round" stroke-linejoin="round"/>
    <path d="M 142.26622009277344 109.67008209228516 C 179.25576782226562 149.5569610595703 173.999267578125 65.78099822998047 123.24610137939453 93.3509292602539" stroke-width="2" fill="none" stroke="rgb(0, 0, 0)" stroke-opacity="1.0" stroke-linecap="round" stroke-linejoin="round"/>
    <path d="M 171.86038208007812 139.54661560058594 C 133.47999572753906 131.5579833984375 41.67501449584961 84.29996490478516 46.43927764892578 130.90032958984375" stroke-width="2" fill="none" stroke="rgb(0, 0, 0)" stroke-opacity="1.0" stroke-linecap="round" stroke-linejoin="round"/>
    <path d="M 165.11602783203125 127.61919403076172 C 166.9735565185547 78.52702331542969 169.1007537841797 132.67347717285156 174.28114318847656 96.51026916503906" stroke-width="2" fill="none" stroke="rgb(0, 0, 0)" stroke-opacity="1.0" stroke-linecap="round" stroke-linejoin="round"/>
    <path d="M 149.5825958251953 107.49996948242188 C 181.66400146484375 111.7856674194336 101.33360290527344 118.11324310302734 142.62176513671875 109.13916015625" stroke-width="2" fill="none" stroke="rgb(0, 0, 0)" stroke-opacity="1.0" stroke-linecap="round" stroke-linejoin="round"/>
    <path d="M 99.83553314208984 70.50072479248047 C 125.26074981689453 63.54402542114258 96.188232421875 92.98690032958984 166.58338928222656 92.85586547851562" stroke-width="2" fill="none" stroke="rgb(0, 0, 0)" stroke-opacity="1.0" stroke-linecap="round" stroke-linejoin="round"/>
    <path d="M 71.73627471923828 135.2451629638672 C 29.86598014831543 101.30561065673828 55.577613830566406 129.12757873535156 155.3957061767578 148.12161254882812" stroke-width="2" fill="none" stroke="rgb(0, 0, 0)" stroke-opacity="1.0" stroke-linecap="round" stroke-linejoin="round"/>
  </g>
</svg>
