<?xml version="1.0" ?>
<svg xmlns="http://www.w3.org/2000/svg" version="1.1" width="224" height="224">
  <defs/>
  <g>
    <path d="M 112.56375122070312 88.04344940185547 C 106.17384338378906 104.0866470336914 59.38359832763672 89.20044708251953 57.16912078857422 112.71930694580078" stroke-width="2" fill="none" stroke="rgb(0, 0, 0)" stroke-opacity="1.0" stroke-linecap="round" stroke-linejoin="round"/>
    <path d="M 135.5220184326172 127.00972747802734 C 174.70654296875 135.77761840820312 153.19049072265625 165.29095458984375 77.01266479492188 149.78082275390625" stroke-width="2" fill="none" stroke="rgb(0, 0, 0)" stroke-opacity="1.0" stroke-linecap="round" stroke-linejoin="round"/>
    <path d="M 180.35585021972656 130.25442504882812 C 111.40048217773438 149.33560180664062 101.05778503417969 121.06573486328125 117.66253662109375 110.43316650390625" stroke-width="2" fill="none" stroke="rgb(0, 0, 0)" stroke-opacity="1.0" stroke-linecap="round" stroke-linejoin="round"/>
    <path d="M 160.1354217529297 84.11679077148438 C 188.8592071533203 84.87763977050781 182.00257873535156 86.11756896972656 156.80642700195312 123.92547607421875" stroke-width="2" fill="none" stroke="rgb(0, 0, 0)" stroke-opacity="1.0" stroke-linecap="round" stroke-linejoin="round"/>
    <path d="M 114.06011962890625 82.17611694335938 C 134.10720825195312 109.40900421142578 140.3495330810547 85.5542221069336 148.8592987060547 97.05533599853516" stroke-width="2" fill="none" stroke="rgb(0, 0, 0)" stroke-opacity="1.0" stroke-linecap="round" stroke-linejoin="round"/>
    <path d="M 106.59706115722656 74.13289642333984 C 117.04205322265625 98.19291687011719 103.65103912353516 85.31612396240234 100.2401351928711 109.6865234375" stroke-width="2" fill="none" stroke="rgb(0, 0, 0)" stroke-opacity="1.0" stroke-linecap="round" stroke-linejoin="round"/>
    <path d="M 66.6095199584961 129.26158142089844 C 51.994781494140625 157.6686553955078 112.88127136230469 155.21986389160156 103.45576477050781 150.30557250976562" stroke-width="2" fill="none" stroke="rgb(0, 0, 0)" stroke-opacity="1.0" stroke-linecap="round" stroke-linejoin="round"/>
    <path d="M 151.54969787597656 149.45751953125 C 207.82119750976562 130.4851837158203 184.69041442871094 133.24325561523438 111.56546783447266 116.24788665771484" stroke-width="2" fill="none" stroke="rgb(0, 0, 0)" stroke-opacity="1.0" stroke-linecap="round" stroke-linejoin="round"/>
    <path d="M 123.6556167602539 122.49260711669922 C 181.2044219970703 111.7051010131836 179.75416564941406 125.99369812011719 101.6265640258789 114.2613296508789" stroke-width="2" fill="none" stroke="rgb(0, 0, 0)" stroke-opacity="1.0" stroke-linecap="round" stroke-linejoin="round"/>
    <path d="M 180.8876190185547 90.53843688964844 C 193.86749267578125 53.85056686401367 170.661376953125 66.6032485961914 177.5302734375 82.62071228027344" stroke-width="2" fill="none" stroke="rgb(0, 0, 0)" stroke-opacity="1.0" stroke-linecap="round" stroke-linejoin="round"/>
    <path d="M 171.0861053466797 128.84344482421875 C 188.68951416015625 117.74796295166016 183.07803344726562 149.38616943359375 153.9062042236328 148.03526306152344" stroke-width="2" fill="none" stroke="rgb(0, 0, 0)" stroke-opacity="1.0" stroke-linecap="round" stroke-linejoin="round"/>
    <path d="M 86.00910949707031 148.6991729736328 C 43.80663299560547 152.94692993164062 15.470701217651367 129.91770935058594 53.845123291015625 146.4306182861328" stroke-width="2" fill="none" stroke="rgb(0, 0, 0)" stroke-opacity="1.0" stroke-linecap="round" stroke-linejoin="round"/>
    <path d="M 120.53759002685547 94.59234619140625 C 136.07681274414062 86.88350677490234 137.28775024414062 104.37276458740234 136.9103546142578 88.84735107421875" stroke-width="2" fill="none" stroke="rgb(0, 0, 0)" stroke-opacity="1.0" stroke-linecap="round" stroke-linejoin="round"/>
    <path d="M 172.74095153808594 72.78949737548828 C 157.36146545410156 102.1025161743164 112.0408706665039 105.83975219726562 163.051513671875 111.19175720214844" stroke-width="2" fill="none" stroke="rgb(0, 0, 0)" stroke-opacity="1.0" stroke-linecap="round" stroke-linejoin="round"/>
    <path d="M 69.17971801757812 113.58770751953125 C 63.65677261352539 90.99472045898438 91.081787109375 95.6019515991211 95.72112274169922 118.92242431640625" stroke-width="2" fill="none" stroke="rgb(0, 0, 0)" stroke-opacity="1.0" stroke-linecap="round" stroke-linejoin="round"/>
    <path d="M 61.79609680175781 104.90807342529297 C 63.260414123535156 111.04138946533203 27.54841423034668 121.0110855102539 53.440406799316406 147.7683868408203" stroke-width="2" fill="none" stroke="rgb(0, 0, 0)" stroke-opacity="1.0" stroke-linecap="round" stroke-linejoin="round"/>
  </g>
</svg>
