<?xml version="1.0" ?>
<svg xmlns="http://www.w3.org/2000/svg" version="1.1" width="224" height="224">
  <defs/>
  <g>
    <path d="M 104.00813293457031 74.94480895996094 C 108.31205749511719 120.55525970458984 60.70528793334961 61.21826934814453 39.35650634765625 129.89866638183594" stroke-width="2" fill="none" stroke="rgb(0, 0, 0)" stroke-opacity="1.0" stroke-linecap="round" stroke-linejoin="round"/>
    <path d="M 145.0285186767578 140.06655883789062 C 196.2554931640625 122.38771057128906 188.5148162841797 179.37342834472656 66.54448699951172 132.98843383789062" stroke-width="2" fill="none" stroke="rgb(0, 0, 0)" stroke-opacity="1.0" stroke-linecap="round" stroke-linejoin="round"/>
    <path d="M 54.11610794067383 115.03684997558594 C 81.06484985351562 89.58467864990234 106.1583023071289 135.49557495117188 142.45147705078125 145.3713836669922" stroke-width="2" fill="none" stroke="rgb(0, 0, 0)" stroke-opacity="1.0" stroke-linecap="round" stroke-linejoin="round"/>
    <path d="M 123.89649963378906 105.26956176757812 C 89.53704071044922 106.57706451416016 136.1235809326172 116.52986907958984 97.77037048339844 93.98217010498047" stroke-width="2" fill="none" stroke="rgb(0, 0, 0)" stroke-opacity="1.0" stroke-linecap="round" stroke-linejoin="round"/>
    <path d="M 133.77316284179688 101.97795867919922 C 161.3590087890625 95.30518341064453 104.83761596679688 127.37421417236328 129.74620056152344 92.1410140991211" stroke-width="2" fill="none" stroke="rgb(0, 0, 0)" stroke-opacity="1.0" stroke-linecap="round" stroke-linejoin="round"/>
    <path d="M 136.2921142578125 121.78255462646484 C 200.9803009033203 136.2899169921875 131.0706024169922 98.02491760253906 149.9519500732422 119.87218475341797" stroke-width="2" fill="none" stroke="rgb(0, 0, 0)" stroke-opacity="1.0" stroke-linecap="round" stroke-linejoin="round"/>
    <path d="M 44.40542984008789 131.3319854736328 C 35.860191345214844 165.9489288330078 173.915771484375 168.03587341308594 173.24679565429688 149.49607849121094" stroke-width="2" fill="none" stroke="rgb(0, 0, 0)" stroke-opacity="1.0" stroke-linecap="round" stroke-linejoin="round"/>
    <path d="M 101.62004089355469 132.83718872070312 C 78.12911224365234 118.89756774902344 121.51001739501953 151.10061645507812 110.3120346069336 106.60111236572266" stroke-width="2" fill="none" stroke="rgb(0, 0, 0)" stroke-opacity="1.0" stroke-linecap="round" stroke-linejoin="round"/>
    <path d="M 110.67113494873047 157.0055389404297 C 221.01251220703125 146.99459838867188 122.44458770751953 165.28407287597656 94.95508575439453 127.86811065673828" stroke-width="2" fill="none" stroke="rgb(0, 0, 0)" stroke-opacity="1.0" stroke-linecap="round" stroke-linejoin="round"/>
    <path d="M 178.7180633544922 90.45182037353516 C 196.6114501953125 22.753000259399414 151.1131134033203 96.4506607055664 163.0270538330078 84.69944763183594" stroke-width="2" fill="none" stroke="rgb(0, 0, 0)" stroke-opacity="1.0" stroke-linecap="round" stroke-linejoin="round"/>
    <path d="M 128.12632751464844 113.81529235839844 C 187.36651611328125 131.3161163330078 166.71688842773438 68.44493103027344 126.30770111083984 91.00245666503906" stroke-width="2" fill="none" stroke="rgb(0, 0, 0)" stroke-opacity="1.0" stroke-linecap="round" stroke-linejoin="round"/>
    <path d="M 157.00291442871094 122.85813903808594 C 132.3118133544922 132.65274047851562 37.83696746826172 91.99835968017578 51.649208068847656 129.91481018066406" stroke-width="2" fill="none" stroke="rgb(0, 0, 0)" stroke-opacity="1.0" stroke-linecap="round" stroke-linejoin="round"/>
    <path d="M 161.9862823486328 128.70346069335938 C 168.5636749267578 59.16599655151367 170.46554565429688 107.83592224121094 174.76516723632812 92.69265747070312" stroke-width="2" fill="none" stroke="rgb(0, 0, 0)" stroke-opacity="1.0" stroke-linecap="round" stroke-linejoin="round"/>
    <path d="M 147.62049865722656 119.799072265625 C 180.32968139648438 100.72460174560547 107.22053527832031 113.66175079345703 155.71600341796875 104.88884735107422" stroke-width="2" fill="none" stroke="rgb(0, 0, 0)" stroke-opacity="1.0" stroke-linecap="round" stroke-linejoin="round"/>
    <path d="M 107.92823028564453 77.52799987792969 C 130.24533081054688 57.57868957519531 100.47212982177734 92.26485443115234 164.0720672607422 86.55735778808594" stroke-width="2" fill="none" stroke="rgb(0, 0, 0)" stroke-opacity="1.0" stroke-linecap="round" stroke-linejoin="round"/>
    <path d="M 77.79834747314453 128.97959899902344 C 22.252286911010742 100.75151062011719 56.74028015136719 121.08684539794922 170.7409210205078 139.68020629882812" stroke-width="2" fill="none" stroke="rgb(0, 0, 0)" stroke-opacity="1.0" stroke-linecap="round" stroke-linejoin="round"/>
  </g>
</svg>
