<?xml version="1.0" ?>
<svg xmlns="http://www.w3.org/2000/svg" version="1.1" width="224" height="224">
  <defs/>
  <g>
    <path d="M 110.76478576660156 73.369384765625 C 116.42884826660156 121.88214874267578 71.89878845214844 78.66357421875 48.09929656982422 107.74894714355469" stroke-width="2" fill="none" stroke="rgb(0, 0, 0)" stroke-opacity="1.0" stroke-linecap="round" stroke-linejoin="round"/>
    <path d="M 156.32632446289062 142.9808807373047 C 205.490966796875 121.85427856445312 169.15269470214844 189.74974060058594 71.31959533691406 139.20346069335938" stroke-width="2" fill="none" stroke="rgb(0, 0, 0)" stroke-opacity="1.0" stroke-linecap="round" stroke-linejoin="round"/>
    <path d="M 132.10281372070312 109.80252838134766 C 218.1878662109375 106.20662689208984 133.32960510253906 155.3328399658203 169.7047576904297 125.49855041503906" stroke-width="2" fill="none" stroke="rgb(0, 0, 0)" stroke-opacity="1.0" stroke-linecap="round" stroke-linejoin="round"/>
    <path d="M 147.09329223632812 148.29690551757812 C 217.53599548339844 150.65916442871094 140.66030883789062 102.44747161865234 169.1532745361328 115.22517395019531" stroke-width="2" fill="none" stroke="rgb(0, 0, 0)" stroke-opacity="1.0" stroke-linecap="round" stroke-linejoin="round"/>
    <path d="M 52.733280181884766 117.2703857421875 C 272.5435485839844 154.50306701660156 131.91989135742188 157.50808715820312 109.94114685058594 134.60792541503906" stroke-width="2" fill="none" stroke="rgb(0, 0, 0)" stroke-opacity="1.0" stroke-linecap="round" stroke-linejoin="round"/>
    <path d="M 160.4873046875 79.50150299072266 C 209.46791076660156 90.4455795288086 170.64791870117188 100.22991943359375 170.76206970214844 126.82196044921875" stroke-width="2" fill="none" stroke="rgb(0, 0, 0)" stroke-opacity="1.0" stroke-linecap="round" stroke-linejoin="round"/>
    <path d="M 56.09615707397461 102.23467254638672 C -9.001214027404785 173.18075561523438 174.40374755859375 159.7823486328125 155.9342498779297 157.66587829589844" stroke-width="2" fill="none" stroke="rgb(0, 0, 0)" stroke-opacity="1.0" stroke-linecap="round" stroke-linejoin="round"/>
    <path d="M 138.2390594482422 140.61370849609375 C 74.4154052734375 117.6602554321289 149.46292114257812 92.10269927978516 107.28414916992188 113.73306274414062" stroke-width="2" fill="none" stroke="rgb(0, 0, 0)" stroke-opacity="1.0" stroke-linecap="round" stroke-linejoin="round"/>
    <path d="M 162.1707000732422 125.95531463623047 C 199.39190673828125 111.31922149658203 111.35089874267578 141.30975341796875 161.99266052246094 107.74823760986328" stroke-width="2" fill="none" stroke="rgb(0, 0, 0)" stroke-opacity="1.0" stroke-linecap="round" stroke-linejoin="round"/>
    <path d="M 166.35411071777344 82.57881164550781 C 205.35137939453125 21.03546714782715 173.05751037597656 121.8940658569336 172.3611602783203 86.15315246582031" stroke-width="2" fill="none" stroke="rgb(0, 0, 0)" stroke-opacity="1.0" stroke-linecap="round" stroke-linejoin="round"/>
    <path d="M 108.96009826660156 121.51052856445312 C 190.4762420654297 167.37838745117188 187.5919647216797 67.8381118774414 140.0666046142578 81.33220672607422" stroke-width="2" fill="none" stroke="rgb(0, 0, 0)" stroke-opacity="1.0" stroke-linecap="round" stroke-linejoin="round"/>
    <path d="M 48.589107513427734 114.20658874511719 C 130.49574279785156 109.16212463378906 87.65413665771484 129.8975830078125 92.38059997558594 102.83965301513672" stroke-width="2" fill="none" stroke="rgb(0, 0, 0)" stroke-opacity="1.0" stroke-linecap="round" stroke-linejoin="round"/>
    <path d="M 105.24055480957031 105.55513763427734 C 181.07957458496094 143.69178771972656 52.30923843383789 102.30406188964844 161.75286865234375 134.52305603027344" stroke-width="2" fill="none" stroke="rgb(0, 0, 0)" stroke-opacity="1.0" stroke-linecap="round" stroke-linejoin="round"/>
    <path d="M 147.5685272216797 118.38796997070312 C 131.71791076660156 86.05122375488281 175.2086639404297 137.01602172851562 142.32325744628906 109.76119995117188" stroke-width="2" fill="none" stroke="rgb(0, 0, 0)" stroke-opacity="1.0" stroke-linecap="round" stroke-linejoin="round"/>
    <path d="M 103.74542236328125 118.40772247314453 C 98.60442352294922 32.51289749145508 146.22540283203125 91.22026824951172 131.41355895996094 77.66588592529297" stroke-width="2" fill="none" stroke="rgb(0, 0, 0)" stroke-opacity="1.0" stroke-linecap="round" stroke-linejoin="round"/>
    <path d="M 60.1273078918457 122.05560302734375 C 19.361705780029297 102.3487777709961 92.73320007324219 115.33126068115234 57.974090576171875 110.56678009033203" stroke-width="2" fill="none" stroke="rgb(0, 0, 0)" stroke-opacity="1.0" stroke-linecap="round" stroke-linejoin="round"/>
  </g>
</svg>
