<?xml version="1.0" ?>
<svg xmlns="http://www.w3.org/2000/svg" version="1.1" width="224" height="224">
  <defs/>
  <g>
    <path d="M 100.53581237792969 75.65792846679688 C 114.02857971191406 121.38639068603516 65.6076889038086 53.15864181518555 35.814273834228516 136.74124145507812" stroke-width="2" fill="none" stroke="rgb(0, 0, 0)" stroke-opacity="1.0" stroke-linecap="round" stroke-linejoin="round"/>
    <path d="M 140.8328094482422 131.49481201171875 C 192.79510498046875 130.0279541015625 188.40550231933594 172.20838928222656 57.743309020996094 150.00135803222656" stroke-width="2" fill="none" stroke="rgb(0, 0, 0)" stroke-opacity="1.0" stroke-linecap="round" stroke-linejoin="round"/>
    <path d="M 45.944881439208984 134.81214904785156 C 33.34834289550781 98.46200561523438 77.52953338623047 132.97994995117188 108.83918762207031 141.35130310058594" stroke-width="2" fill="none" stroke="rgb(0, 0, 0)" stroke-opacity="1.0" stroke-linecap="round" stroke-linejoin="round"/>
    <path d="M 141.9586944580078 96.60655212402344 C 71.02435302734375 129.2548370361328 187.18597412109375 129.05467224121094 131.3743896484375 122.12422943115234" stroke-width="2" fill="none" stroke="rgb(0, 0, 0)" stroke-opacity="1.0" stroke-linecap="round" stroke-linejoin="round"/>
    <path d="M 109.89617919921875 80.0649642944336 C 114.78155517578125 55.37747573852539 92.59501647949219 124.56783294677734 132.50827026367188 99.29597473144531" stroke-width="2" fill="none" stroke="rgb(0, 0, 0)" stroke-opacity="1.0" stroke-linecap="round" stroke-linejoin="round"/>
    <path d="M 109.16374206542969 129.1924591064453 C 201.2254638671875 146.53656005859375 122.11701965332031 136.17013549804688 155.822021484375 130.4911651611328" stroke-width="2" fill="none" stroke="rgb(0, 0, 0)" stroke-opacity="1.0" stroke-linecap="round" stroke-linejoin="round"/>
    <path d="M 44.103172302246094 124.09484100341797 C 25.866525650024414 164.0261688232422 159.52410888671875 157.0464324951172 148.47293090820312 156.45924377441406" stroke-width="2" fill="none" stroke="rgb(0, 0, 0)" stroke-opacity="1.0" stroke-linecap="round" stroke-linejoin="round"/>
    <path d="M 100.0348892211914 120.13340759277344 C 96.2326431274414 103.36006164550781 129.79905700683594 113.29175567626953 114.27596282958984 127.80307006835938" stroke-width="2" fill="none" stroke="rgb(0, 0, 0)" stroke-opacity="1.0" stroke-linecap="round" stroke-linejoin="round"/>
    <path d="M 126.64881896972656 143.25881958007812 C 216.6371307373047 143.32662963867188 152.61761474609375 159.39273071289062 99.97537231445312 147.0897216796875" stroke-width="2" fill="none" stroke="rgb(0, 0, 0)" stroke-opacity="1.0" stroke-linecap="round" stroke-linejoin="round"/>
    <path d="M 182.43154907226562 90.4509506225586 C 197.837890625 21.949220657348633 162.24171447753906 119.32862854003906 143.26376342773438 85.43806457519531" stroke-width="2" fill="none" stroke="rgb(0, 0, 0)" stroke-opacity="1.0" stroke-linecap="round" stroke-linejoin="round"/>
    <path d="M 136.53143310546875 120.18882751464844 C 176.5867156982422 139.76162719726562 190.37872314453125 82.76146697998047 119.91950225830078 90.63142395019531" stroke-width="2" fill="none" stroke="rgb(0, 0, 0)" stroke-opacity="1.0" stroke-linecap="round" stroke-linejoin="round"/>
    <path d="M 163.06561279296875 149.1285858154297 C 55.43606185913086 157.90411376953125 15.520057678222656 122.13351440429688 49.02669143676758 151.31671142578125" stroke-width="2" fill="none" stroke="rgb(0, 0, 0)" stroke-opacity="1.0" stroke-linecap="round" stroke-linejoin="round"/>
    <path d="M 165.85623168945312 127.95614624023438 C 172.1311798095703 82.33958435058594 152.51364135742188 130.6329803466797 177.74533081054688 94.6772232055664" stroke-width="2" fill="none" stroke="rgb(0, 0, 0)" stroke-opacity="1.0" stroke-linecap="round" stroke-linejoin="round"/>
    <path d="M 137.67803955078125 119.12759399414062 C 167.99424743652344 132.4879150390625 115.34400939941406 131.99581909179688 164.25894165039062 130.7270965576172" stroke-width="2" fill="none" stroke="rgb(0, 0, 0)" stroke-opacity="1.0" stroke-linecap="round" stroke-linejoin="round"/>
    <path d="M 100.12255859375 72.63931274414062 C 145.82550048828125 73.68130493164062 91.619384765625 96.25358581542969 165.3724822998047 89.46815490722656" stroke-width="2" fill="none" stroke="rgb(0, 0, 0)" stroke-opacity="1.0" stroke-linecap="round" stroke-linejoin="round"/>
    <path d="M 60.11549758911133 127.20270538330078 C 66.9842529296875 113.04901123046875 42.093318939208984 146.1762237548828 139.28335571289062 151.68466186523438" stroke-width="2" fill="none" stroke="rgb(0, 0, 0)" stroke-opacity="1.0" stroke-linecap="round" stroke-linejoin="round"/>
  </g>
</svg>
