<?xml version="1.0" ?>
<svg xmlns="http://www.w3.org/2000/svg" version="1.1" width="224" height="224">
  <defs/>
  <g>
    <path d="M 106.2364730834961 74.78550720214844 C 152.22100830078125 126.02293395996094 54.721256256103516 83.13554382324219 52.15631866455078 117.65422058105469" stroke-width="2" fill="none" stroke="rgb(0, 0, 0)" stroke-opacity="1.0" stroke-linecap="round" stroke-linejoin="round"/>
    <path d="M 142.8485870361328 144.25912475585938 C 195.97119140625 115.89012908935547 189.79039001464844 173.54510498046875 69.8705062866211 149.65574645996094" stroke-width="2" fill="none" stroke="rgb(0, 0, 0)" stroke-opacity="1.0" stroke-linecap="round" stroke-linejoin="round"/>
    <path d="M 101.0290756225586 105.07786560058594 C 133.92483520507812 110.17513275146484 89.86676788330078 138.43405151367188 170.2996368408203 137.63966369628906" stroke-width="2" fill="none" stroke="rgb(0, 0, 0)" stroke-opacity="1.0" stroke-linecap="round" stroke-linejoin="round"/>
    <path d="M 156.19664001464844 91.44307708740234 C 118.677001953125 86.19876098632812 161.60951232910156 86.6802978515625 117.16858673095703 87.5610122680664" stroke-width="2" fill="none" stroke="rgb(0, 0, 0)" stroke-opacity="1.0" stroke-linecap="round" stroke-linejoin="round"/>
    <path d="M 104.78662109375 97.16039276123047 C 88.18252563476562 89.87264251708984 103.52268981933594 117.5920181274414 102.26305389404297 70.06758880615234" stroke-width="2" fill="none" stroke="rgb(0, 0, 0)" stroke-opacity="1.0" stroke-linecap="round" stroke-linejoin="round"/>
    <path d="M 103.71356964111328 136.28909301757812 C 127.64493560791016 142.11170959472656 106.23139953613281 116.5132827758789 126.78809356689453 108.23492431640625" stroke-width="2" fill="none" stroke="rgb(0, 0, 0)" stroke-opacity="1.0" stroke-linecap="round" stroke-linejoin="round"/>
    <path d="M 63.67544174194336 103.07099151611328 C -2.2488853931427 155.680419921875 140.5686798095703 156.14166259765625 111.21110534667969 151.6996307373047" stroke-width="2" fill="none" stroke="rgb(0, 0, 0)" stroke-opacity="1.0" stroke-linecap="round" stroke-linejoin="round"/>
    <path d="M 57.3396110534668 147.3690948486328 C 167.32275390625 193.69471740722656 191.2706756591797 129.79676818847656 170.93768310546875 140.16702270507812" stroke-width="2" fill="none" stroke="rgb(0, 0, 0)" stroke-opacity="1.0" stroke-linecap="round" stroke-linejoin="round"/>
    <path d="M 129.9099884033203 130.3243408203125 C 178.5084228515625 130.34030151367188 128.69459533691406 129.92745971679688 150.03868103027344 113.34607696533203" stroke-width="2" fill="none" stroke="rgb(0, 0, 0)" stroke-opacity="1.0" stroke-linecap="round" stroke-linejoin="round"/>
    <path d="M 174.40814208984375 105.8040771484375 C 208.22488403320312 9.394922256469727 159.35336303710938 101.65888977050781 151.1456298828125 87.8895263671875" stroke-width="2" fill="none" stroke="rgb(0, 0, 0)" stroke-opacity="1.0" stroke-linecap="round" stroke-linejoin="round"/>
    <path d="M 133.1748046875 118.1956558227539 C 177.99916076660156 125.9655990600586 151.16603088378906 62.91481399536133 120.99480438232422 95.67452239990234" stroke-width="2" fill="none" stroke="rgb(0, 0, 0)" stroke-opacity="1.0" stroke-linecap="round" stroke-linejoin="round"/>
    <path d="M 147.09814453125 159.9574737548828 C 50.391380310058594 149.7786102294922 39.816654205322266 123.64325714111328 62.44418716430664 109.15972137451172" stroke-width="2" fill="none" stroke="rgb(0, 0, 0)" stroke-opacity="1.0" stroke-linecap="round" stroke-linejoin="round"/>
    <path d="M 167.32052612304688 110.441650390625 C 130.62533569335938 93.08538055419922 211.6002960205078 122.83013916015625 133.00314331054688 113.32147979736328" stroke-width="2" fill="none" stroke="rgb(0, 0, 0)" stroke-opacity="1.0" stroke-linecap="round" stroke-linejoin="round"/>
    <path d="M 130.96258544921875 137.3241729736328 C 185.92308044433594 143.30772399902344 144.8428192138672 113.68295288085938 175.17434692382812 136.04505920410156" stroke-width="2" fill="none" stroke="rgb(0, 0, 0)" stroke-opacity="1.0" stroke-linecap="round" stroke-linejoin="round"/>
    <path d="M 165.2672119140625 109.02892303466797 C 202.656494140625 184.3820037841797 88.74772644042969 123.38853454589844 108.5473861694336 137.7733154296875" stroke-width="2" fill="none" stroke="rgb(0, 0, 0)" stroke-opacity="1.0" stroke-linecap="round" stroke-linejoin="round"/>
    <path d="M 104.22195434570312 145.61868286132812 C 69.84908294677734 130.09800720214844 34.1226692199707 139.37457275390625 66.89384460449219 155.3031463623047" stroke-width="2" fill="none" stroke="rgb(0, 0, 0)" stroke-opacity="1.0" stroke-linecap="round" stroke-linejoin="round"/>
  </g>
</svg>
