<?xml version="1.0" ?>
<svg xmlns="http://www.w3.org/2000/svg" version="1.1" width="224" height="224">
  <defs/>
  <g>
    <path d="M 102.00006866455078 72.00016021728516 C 103.56278991699219 66.68350219726562 101.04273986816406 65.57862854003906 105.6896743774414 67.55857849121094" stroke-width="3.0" fill="none" stroke="rgb(0, 0, 0)" stroke-opacity="1.0" stroke-linecap="round" stroke-linejoin="round"/>
    <path d="M 51.99993133544922 204.99984741210938 C 56.39221954345703 200.37294006347656 55.51776123046875 193.10757446289062 52.36662673950195 193.16744995117188" stroke-width="3.0" fill="none" stroke="rgb(0, 0, 0)" stroke-opacity="1.0" stroke-linecap="round" stroke-linejoin="round"/>
    <path d="M 16.000598907470703 150.0001678466797 C 10.698409080505371 148.6267547607422 14.374822616577148 149.1301727294922 11.244317054748535 150.12986755371094" stroke-width="3.0" fill="none" stroke="rgb(0, 0, 0)" stroke-opacity="1.0" stroke-linecap="round" stroke-linejoin="round"/>
    <path d="M 150.99949645996094 115.00006866455078 C 152.46604919433594 109.47315979003906 155.89157104492188 111.69274139404297 154.1016387939453 109.83289337158203" stroke-width="3.0" fill="none" stroke="rgb(0, 0, 0)" stroke-opacity="1.0" stroke-linecap="round" stroke-linejoin="round"/>
    <path d="M 89.00035858154297 46.00177764892578 C 96.1187515258789 44.170745849609375 91.55911254882812 41.65205383300781 95.45048522949219 42.81468200683594" stroke-width="3.0" fill="none" stroke="rgb(0, 0, 0)" stroke-opacity="1.0" stroke-linecap="round" stroke-linejoin="round"/>
    <path d="M 193.0005645751953 30.99988555908203 C 196.43997192382812 33.57247543334961 196.84571838378906 38.871131896972656 197.48507690429688 37.45482635498047" stroke-width="3.0" fill="none" stroke="rgb(0, 0, 0)" stroke-opacity="1.0" stroke-linecap="round" stroke-linejoin="round"/>
    <path d="M 48.999786376953125 190.99984741210938 C 50.691402435302734 192.32737731933594 56.739418029785156 193.19369506835938 57.031742095947266 188.10675048828125" stroke-width="3.0" fill="none" stroke="rgb(0, 0, 0)" stroke-opacity="1.0" stroke-linecap="round" stroke-linejoin="round"/>
    <path d="M 76.00030517578125 116.00012969970703 C 74.94245147705078 113.65199279785156 68.24799346923828 112.6473159790039 65.77725982666016 110.1615219116211" stroke-width="3.0" fill="none" stroke="rgb(0, 0, 0)" stroke-opacity="1.0" stroke-linecap="round" stroke-linejoin="round"/>
    <path d="M 126.99974822998047 140.000732421875 C 126.52044677734375 140.48541259765625 125.06622314453125 137.23179626464844 124.45578002929688 140.12330627441406" stroke-width="3.0" fill="none" stroke="rgb(0, 0, 0)" stroke-opacity="1.0" stroke-linecap="round" stroke-linejoin="round"/>
    <path d="M 148.00013732910156 6.999841690063477 C 149.65834045410156 6.225350856781006 145.97621154785156 10.786442756652832 144.2046356201172 9.438222885131836" stroke-width="3.0" fill="none" stroke="rgb(0, 0, 0)" stroke-opacity="1.0" stroke-linecap="round" stroke-linejoin="round"/>
    <path d="M 191.99974060058594 206.9998016357422 C 195.48397827148438 208.56643676757812 196.12086486816406 210.63531494140625 199.96328735351562 211.72991943359375" stroke-width="3.0" fill="none" stroke="rgb(0, 0, 0)" stroke-opacity="1.0" stroke-linecap="round" stroke-linejoin="round"/>
    <path d="M 188.99989318847656 181.0000762939453 C 185.96487426757812 177.75889587402344 183.89736938476562 175.15802001953125 180.66134643554688 178.11891174316406" stroke-width="3.0" fill="none" stroke="rgb(0, 0, 0)" stroke-opacity="1.0" stroke-linecap="round" stroke-linejoin="round"/>
    <path d="M 78.00012969970703 52.000343322753906 C 84.20814514160156 51.92106628417969 85.94061279296875 48.75871658325195 90.59773254394531 48.29524612426758" stroke-width="3.0" fill="none" stroke="rgb(0, 0, 0)" stroke-opacity="1.0" stroke-linecap="round" stroke-linejoin="round"/>
    <path d="M 80.99959564208984 49.00022506713867 C 78.3662109375 46.16290283203125 77.05499267578125 45.50082778930664 79.99795532226562 47.96673583984375" stroke-width="3.0" fill="none" stroke="rgb(0, 0, 0)" stroke-opacity="1.0" stroke-linecap="round" stroke-linejoin="round"/>
    <path d="M 86.9995346069336 50.999786376953125 C 85.8723373413086 47.853553771972656 91.445068359375 45.96491622924805 86.8636703491211 42.89066696166992" stroke-width="3.0" fill="none" stroke="rgb(0, 0, 0)" stroke-opacity="1.0" stroke-linecap="round" stroke-linejoin="round"/>
    <path d="M 83.00017547607422 64.00071716308594 C 80.62609100341797 65.42964935302734 83.89848327636719 64.55608367919922 77.0109634399414 63.23029327392578" stroke-width="3.0" fill="none" stroke="rgb(0, 0, 0)" stroke-opacity="1.0" stroke-linecap="round" stroke-linejoin="round"/>
  </g>
</svg>
