<?xml version="1.0" ?>
<svg xmlns="http://www.w3.org/2000/svg" version="1.1" width="224" height="224">
  <defs/>
  <g>
    <path d="M 98.71575927734375 68.9142837524414 C 99.77137756347656 72.4153060913086 98.91216278076172 70.0732192993164 99.27074432373047 67.48470306396484" stroke-width="3.0" fill="none" stroke="rgb(0, 0, 0)" stroke-opacity="1.0" stroke-linecap="round" stroke-linejoin="round"/>
    <path d="M 53.80195236206055 206.92222595214844 C 54.528175354003906 208.83885192871094 53.400001525878906 196.5074920654297 56.178993225097656 186.2749481201172" stroke-width="3.0" fill="none" stroke="rgb(0, 0, 0)" stroke-opacity="1.0" stroke-linecap="round" stroke-linejoin="round"/>
    <path d="M 3.0710692405700684 159.89599609375 C 3.4734604358673096 157.82810974121094 3.7851970195770264 158.42877197265625 3.3112101554870605 158.8392791748047" stroke-width="3.0" fill="none" stroke="rgb(0, 0, 0)" stroke-opacity="1.0" stroke-linecap="round" stroke-linejoin="round"/>
    <path d="M 167.86874389648438 113.85580444335938 C 168.2355194091797 114.4532470703125 170.26119995117188 117.65074920654297 167.81512451171875 113.73353576660156" stroke-width="3.0" fill="none" stroke="rgb(0, 0, 0)" stroke-opacity="1.0" stroke-linecap="round" stroke-linejoin="round"/>
    <path d="M 86.75519561767578 41.27029800415039 C 94.00605773925781 41.70802307128906 87.00311279296875 52.57600021362305 88.56712341308594 49.184173583984375" stroke-width="3.0" fill="none" stroke="rgb(0, 0, 0)" stroke-opacity="1.0" stroke-linecap="round" stroke-linejoin="round"/>
    <path d="M 192.7036590576172 27.615432739257812 C 194.11097717285156 28.29469108581543 195.46157836914062 29.90044593811035 193.79867553710938 27.81088638305664" stroke-width="3.0" fill="none" stroke="rgb(0, 0, 0)" stroke-opacity="1.0" stroke-linecap="round" stroke-linejoin="round"/>
    <path d="M 54.090492248535156 195.5219268798828 C 52.625946044921875 195.8597869873047 55.77041244506836 198.28802490234375 54.832191467285156 190.04483032226562" stroke-width="3.0" fill="none" stroke="rgb(0, 0, 0)" stroke-opacity="1.0" stroke-linecap="round" stroke-linejoin="round"/>
    <path d="M 80.7358169555664 112.99213409423828 C 80.70018005371094 113.38842010498047 79.0075454711914 112.9224853515625 80.65330505371094 113.20866394042969" stroke-width="3.0" fill="none" stroke="rgb(0, 0, 0)" stroke-opacity="1.0" stroke-linecap="round" stroke-linejoin="round"/>
    <path d="M 137.96533203125 137.45449829101562 C 136.77587890625 136.84121704101562 137.9355010986328 136.7356719970703 137.9164581298828 137.3898162841797" stroke-width="3.0" fill="none" stroke="rgb(0, 0, 0)" stroke-opacity="1.0" stroke-linecap="round" stroke-linejoin="round"/>
    <path d="M 151.30531311035156 -6.738381385803223 C 141.87294006347656 -2.2886710166931152 141.4392547607422 -5.932052135467529 146.5271759033203 -2.8204543590545654" stroke-width="3.0" fill="none" stroke="rgb(0, 0, 0)" stroke-opacity="1.0" stroke-linecap="round" stroke-linejoin="round"/>
    <path d="M 198.44410705566406 206.769775390625 C 199.31680297851562 206.81105041503906 197.11788940429688 207.2237548828125 198.35610961914062 206.6992950439453" stroke-width="3.0" fill="none" stroke="rgb(0, 0, 0)" stroke-opacity="1.0" stroke-linecap="round" stroke-linejoin="round"/>
    <path d="M 187.76194763183594 175.96971130371094 C 187.88552856445312 176.04550170898438 187.20054626464844 176.42921447753906 187.25828552246094 175.9356689453125" stroke-width="3.0" fill="none" stroke="rgb(0, 0, 0)" stroke-opacity="1.0" stroke-linecap="round" stroke-linejoin="round"/>
    <path d="M 88.88294982910156 42.614688873291016 C 96.79070281982422 41.63633346557617 86.3531494140625 44.54375457763672 97.83650207519531 41.69041061401367" stroke-width="3.0" fill="none" stroke="rgb(0, 0, 0)" stroke-opacity="1.0" stroke-linecap="round" stroke-linejoin="round"/>
    <path d="M 97.4183120727539 42.35786819458008 C 89.22957611083984 41.57057571411133 96.81089782714844 49.376197814941406 94.88280487060547 42.77564239501953" stroke-width="3.0" fill="none" stroke="rgb(0, 0, 0)" stroke-opacity="1.0" stroke-linecap="round" stroke-linejoin="round"/>
    <path d="M 87.78984069824219 52.135231018066406 C 88.80804443359375 46.8875846862793 97.44064331054688 26.517229080200195 99.36270904541016 57.1445198059082" stroke-width="3.0" fill="none" stroke="rgb(0, 0, 0)" stroke-opacity="1.0" stroke-linecap="round" stroke-linejoin="round"/>
    <path d="M 77.91436767578125 58.728118896484375 C 98.5335693359375 70.14846801757812 67.15982818603516 54.77643966674805 63.991939544677734 64.48722839355469" stroke-width="3.0" fill="none" stroke="rgb(0, 0, 0)" stroke-opacity="1.0" stroke-linecap="round" stroke-linejoin="round"/>
  </g>
</svg>
