<?xml version="1.0" ?>
<svg xmlns="http://www.w3.org/2000/svg" version="1.1" width="224" height="224">
  <defs/>
  <g>
    <path d="M 134.13851928710938 95.82569885253906 C 134.44546508789062 95.92921447753906 133.1525421142578 95.96231842041016 134.03538513183594 95.8783187866211" stroke-width="3.0" fill="none" stroke="rgb(0, 0, 0)" stroke-opacity="1.0" stroke-linecap="round" stroke-linejoin="round"/>
    <path d="M 166.36160278320312 137.8422088623047 C 165.12550354003906 136.48605346679688 174.00079345703125 138.09173583984375 169.5120086669922 136.3707733154297" stroke-width="3.0" fill="none" stroke="rgb(0, 0, 0)" stroke-opacity="1.0" stroke-linecap="round" stroke-linejoin="round"/>
    <path d="M 83.27957153320312 148.052001953125 C 80.28827667236328 140.67787170410156 83.53021240234375 148.07127380371094 82.93800354003906 118.09268951416016" stroke-width="3.0" fill="none" stroke="rgb(0, 0, 0)" stroke-opacity="1.0" stroke-linecap="round" stroke-linejoin="round"/>
    <path d="M 103.23358154296875 114.72402954101562 C 103.1462631225586 115.27935791015625 103.26239013671875 114.97684478759766 103.04862213134766 114.86029815673828" stroke-width="3.0" fill="none" stroke="rgb(0, 0, 0)" stroke-opacity="1.0" stroke-linecap="round" stroke-linejoin="round"/>
    <path d="M 164.3722686767578 83.53651428222656 C 165.1475372314453 82.85095977783203 164.7594451904297 84.10334014892578 164.56846618652344 83.33475494384766" stroke-width="3.0" fill="none" stroke="rgb(0, 0, 0)" stroke-opacity="1.0" stroke-linecap="round" stroke-linejoin="round"/>
    <path d="M 128.68272399902344 64.6889877319336 C 129.38919067382812 63.854888916015625 129.190185546875 64.882568359375 129.162353515625 64.0567855834961" stroke-width="3.0" fill="none" stroke="rgb(0, 0, 0)" stroke-opacity="1.0" stroke-linecap="round" stroke-linejoin="round"/>
    <path d="M 141.77456665039062 142.9781951904297 C 142.20167541503906 144.1088409423828 142.51438903808594 143.16775512695312 141.5829315185547 143.1007843017578" stroke-width="3.0" fill="none" stroke="rgb(0, 0, 0)" stroke-opacity="1.0" stroke-linecap="round" stroke-linejoin="round"/>
    <path d="M 120.39083862304688 110.26945495605469 C 120.69708251953125 110.2010498046875 120.68963623046875 110.07553100585938 120.94759368896484 110.36601257324219" stroke-width="3.0" fill="none" stroke="rgb(0, 0, 0)" stroke-opacity="1.0" stroke-linecap="round" stroke-linejoin="round"/>
    <path d="M 82.76991271972656 125.44799041748047 C 84.56281280517578 125.02888488769531 77.62064361572266 117.85785675048828 82.94339752197266 139.0103302001953" stroke-width="3.0" fill="none" stroke="rgb(0, 0, 0)" stroke-opacity="1.0" stroke-linecap="round" stroke-linejoin="round"/>
    <path d="M 136.1329345703125 55.63148880004883 C 135.8998565673828 55.570491790771484 135.84230041503906 55.92539596557617 136.06887817382812 56.02545928955078" stroke-width="3.0" fill="none" stroke="rgb(0, 0, 0)" stroke-opacity="1.0" stroke-linecap="round" stroke-linejoin="round"/>
    <path d="M 94.1219253540039 150.1308135986328 C 101.21935272216797 145.35153198242188 96.31322479248047 152.11575317382812 95.22699737548828 146.7909393310547" stroke-width="3.0" fill="none" stroke="rgb(0, 0, 0)" stroke-opacity="1.0" stroke-linecap="round" stroke-linejoin="round"/>
    <path d="M 109.08531188964844 146.07713317871094 C 147.0128936767578 140.63307189941406 138.7773895263672 143.822021484375 140.73648071289062 143.1385955810547" stroke-width="3.0" fill="none" stroke="rgb(0, 0, 0)" stroke-opacity="1.0" stroke-linecap="round" stroke-linejoin="round"/>
    <path d="M 164.10948181152344 83.22840118408203 C 165.13819885253906 84.33161163330078 164.4864044189453 83.88823699951172 164.4363250732422 83.7778549194336" stroke-width="3.0" fill="none" stroke="rgb(0, 0, 0)" stroke-opacity="1.0" stroke-linecap="round" stroke-linejoin="round"/>
    <path d="M 164.557861328125 83.66959381103516 C 163.82833862304688 82.08496856689453 165.6287384033203 84.268798828125 164.7727508544922 83.37237548828125" stroke-width="3.0" fill="none" stroke="rgb(0, 0, 0)" stroke-opacity="1.0" stroke-linecap="round" stroke-linejoin="round"/>
    <path d="M 182.65615844726562 71.42219543457031 C 181.55909729003906 71.24696350097656 181.70965576171875 70.6490478515625 182.15077209472656 70.99305725097656" stroke-width="3.0" fill="none" stroke="rgb(0, 0, 0)" stroke-opacity="1.0" stroke-linecap="round" stroke-linejoin="round"/>
    <path d="M 175.0736083984375 78.65547943115234 C 175.3245391845703 79.64440155029297 174.9586639404297 78.0624008178711 175.1064910888672 79.036376953125" stroke-width="3.0" fill="none" stroke="rgb(0, 0, 0)" stroke-opacity="1.0" stroke-linecap="round" stroke-linejoin="round"/>
  </g>
</svg>
