<?xml version="1.0" ?>
<svg xmlns="http://www.w3.org/2000/svg" version="1.1" width="224" height="224">
  <defs/>
  <g>
    <path d="M 98.85379028320312 63.392051696777344 C 99.09098815917969 65.73711395263672 99.87005615234375 60.1501579284668 98.04161834716797 65.8266830444336" stroke-width="3.0" fill="none" stroke="rgb(0, 0, 0)" stroke-opacity="1.0" stroke-linecap="round" stroke-linejoin="round"/>
    <path d="M 54.77638244628906 203.4597625732422 C 52.65921401977539 208.7559356689453 55.59333419799805 192.29478454589844 54.91394805908203 188.04403686523438" stroke-width="3.0" fill="none" stroke="rgb(0, 0, 0)" stroke-opacity="1.0" stroke-linecap="round" stroke-linejoin="round"/>
    <path d="M 3.6660749912261963 157.21913146972656 C 4.280717849731445 157.62005615234375 2.8748557567596436 158.59103393554688 2.9444167613983154 160.1020050048828" stroke-width="3.0" fill="none" stroke="rgb(0, 0, 0)" stroke-opacity="1.0" stroke-linecap="round" stroke-linejoin="round"/>
    <path d="M 166.92860412597656 112.97532653808594 C 166.8728790283203 112.81745147705078 167.4241180419922 113.75552368164062 167.32200622558594 113.31857299804688" stroke-width="3.0" fill="none" stroke="rgb(0, 0, 0)" stroke-opacity="1.0" stroke-linecap="round" stroke-linejoin="round"/>
    <path d="M 89.44783020019531 41.2071533203125 C 91.14680480957031 44.08285903930664 86.51939392089844 54.24281692504883 87.03242492675781 51.11795425415039" stroke-width="3.0" fill="none" stroke="rgb(0, 0, 0)" stroke-opacity="1.0" stroke-linecap="round" stroke-linejoin="round"/>
    <path d="M 198.77926635742188 28.79768180847168 C 199.414306640625 28.932857513427734 199.05706787109375 28.53624725341797 198.61843872070312 29.116241455078125" stroke-width="3.0" fill="none" stroke="rgb(0, 0, 0)" stroke-opacity="1.0" stroke-linecap="round" stroke-linejoin="round"/>
    <path d="M 53.76947784423828 200.05039978027344 C 54.903480529785156 193.60414123535156 53.758155822753906 196.9864501953125 54.09991455078125 196.70086669921875" stroke-width="3.0" fill="none" stroke="rgb(0, 0, 0)" stroke-opacity="1.0" stroke-linecap="round" stroke-linejoin="round"/>
    <path d="M 77.34925079345703 111.371826171875 C 77.22630310058594 111.21366119384766 77.72543334960938 112.0721664428711 77.72247314453125 111.94774627685547" stroke-width="3.0" fill="none" stroke="rgb(0, 0, 0)" stroke-opacity="1.0" stroke-linecap="round" stroke-linejoin="round"/>
    <path d="M 144.98532104492188 136.79183959960938 C 145.43670654296875 137.0420379638672 145.9562530517578 136.34803771972656 145.26785278320312 136.6929168701172" stroke-width="3.0" fill="none" stroke="rgb(0, 0, 0)" stroke-opacity="1.0" stroke-linecap="round" stroke-linejoin="round"/>
    <path d="M 151.30531311035156 -6.738381385803223 C 141.87294006347656 -2.2886710166931152 141.4392547607422 -5.932052135467529 146.5271759033203 -2.8204543590545654" stroke-width="3.0" fill="none" stroke="rgb(0, 0, 0)" stroke-opacity="1.0" stroke-linecap="round" stroke-linejoin="round"/>
    <path d="M 198.13430786132812 201.8404541015625 C 198.69032287597656 202.3419189453125 197.3373565673828 203.1121063232422 198.2375946044922 202.646484375" stroke-width="3.0" fill="none" stroke="rgb(0, 0, 0)" stroke-opacity="1.0" stroke-linecap="round" stroke-linejoin="round"/>
    <path d="M 187.32254028320312 176.09193420410156 C 188.9002227783203 176.05198669433594 185.77186584472656 175.76670837402344 186.32064819335938 175.6275634765625" stroke-width="3.0" fill="none" stroke="rgb(0, 0, 0)" stroke-opacity="1.0" stroke-linecap="round" stroke-linejoin="round"/>
    <path d="M 88.48571014404297 48.9072380065918 C 92.258544921875 38.75858688354492 84.33512878417969 40.077484130859375 93.39417266845703 45.132450103759766" stroke-width="3.0" fill="none" stroke="rgb(0, 0, 0)" stroke-opacity="1.0" stroke-linecap="round" stroke-linejoin="round"/>
    <path d="M 98.4098129272461 43.35721969604492 C 87.43990325927734 43.48942184448242 90.05480194091797 49.03564453125 90.23686218261719 44.788387298583984" stroke-width="3.0" fill="none" stroke="rgb(0, 0, 0)" stroke-opacity="1.0" stroke-linecap="round" stroke-linejoin="round"/>
    <path d="M 87.41472625732422 53.25897979736328 C 86.54911041259766 49.644535064697266 97.3189697265625 29.576976776123047 99.0819091796875 52.20625686645508" stroke-width="3.0" fill="none" stroke="rgb(0, 0, 0)" stroke-opacity="1.0" stroke-linecap="round" stroke-linejoin="round"/>
    <path d="M 77.28375244140625 59.729095458984375 C 92.3677978515625 68.33199310302734 67.67878723144531 55.37117385864258 63.55231475830078 64.08267974853516" stroke-width="3.0" fill="none" stroke="rgb(0, 0, 0)" stroke-opacity="1.0" stroke-linecap="round" stroke-linejoin="round"/>
  </g>
</svg>
