<?xml version="1.0" ?>
<svg xmlns="http://www.w3.org/2000/svg" version="1.1" width="224" height="224">
  <defs/>
  <g>
    <path d="M 92.95841979980469 72.64783477783203 C 97.32301330566406 70.92658233642578 92.38888549804688 72.0550765991211 99.9759750366211 62.589508056640625" stroke-width="3.0" fill="none" stroke="rgb(0, 0, 0)" stroke-opacity="1.0" stroke-linecap="round" stroke-linejoin="round"/>
    <path d="M 55.41119384765625 201.1525421142578 C 52.62261199951172 208.93865966796875 51.244014739990234 214.4514923095703 55.897865295410156 188.8568572998047" stroke-width="3.0" fill="none" stroke="rgb(0, 0, 0)" stroke-opacity="1.0" stroke-linecap="round" stroke-linejoin="round"/>
    <path d="M 4.839252471923828 159.92147827148438 C 6.379651069641113 158.2444610595703 5.932839870452881 158.2925567626953 5.907568454742432 159.0222625732422" stroke-width="3.0" fill="none" stroke="rgb(0, 0, 0)" stroke-opacity="1.0" stroke-linecap="round" stroke-linejoin="round"/>
    <path d="M 166.6551055908203 113.41006469726562 C 167.92149353027344 114.19249725341797 167.39625549316406 113.45341491699219 165.9057159423828 112.88532257080078" stroke-width="3.0" fill="none" stroke="rgb(0, 0, 0)" stroke-opacity="1.0" stroke-linecap="round" stroke-linejoin="round"/>
    <path d="M 89.9390869140625 39.1612663269043 C 94.04615020751953 37.91189956665039 87.30376434326172 52.92973327636719 85.00724029541016 52.9085693359375" stroke-width="3.0" fill="none" stroke="rgb(0, 0, 0)" stroke-opacity="1.0" stroke-linecap="round" stroke-linejoin="round"/>
    <path d="M 193.04202270507812 30.06025505065918 C 192.92864990234375 30.316452026367188 192.69644165039062 30.73563575744629 192.85353088378906 29.87738037109375" stroke-width="3.0" fill="none" stroke="rgb(0, 0, 0)" stroke-opacity="1.0" stroke-linecap="round" stroke-linejoin="round"/>
    <path d="M 54.365516662597656 198.6943359375 C 54.62901306152344 200.39663696289062 55.34461212158203 195.87278747558594 54.34581756591797 199.7557373046875" stroke-width="3.0" fill="none" stroke="rgb(0, 0, 0)" stroke-opacity="1.0" stroke-linecap="round" stroke-linejoin="round"/>
    <path d="M 71.96552276611328 111.5347671508789 C 72.11181640625 111.87635803222656 71.95463562011719 111.50397491455078 71.95960235595703 111.45673370361328" stroke-width="3.0" fill="none" stroke="rgb(0, 0, 0)" stroke-opacity="1.0" stroke-linecap="round" stroke-linejoin="round"/>
    <path d="M 146.67202758789062 136.22750854492188 C 146.25311279296875 136.0003662109375 147.50146484375 136.07809448242188 147.0466766357422 136.12010192871094" stroke-width="3.0" fill="none" stroke="rgb(0, 0, 0)" stroke-opacity="1.0" stroke-linecap="round" stroke-linejoin="round"/>
    <path d="M 151.30531311035156 -6.738381385803223 C 141.87294006347656 -2.2886710166931152 141.4392547607422 -5.932052135467529 146.5271759033203 -2.8204543590545654" stroke-width="3.0" fill="none" stroke="rgb(0, 0, 0)" stroke-opacity="1.0" stroke-linecap="round" stroke-linejoin="round"/>
    <path d="M 194.77023315429688 205.7240753173828 C 200.28854370117188 208.3232421875 194.90975952148438 204.18154907226562 192.10667419433594 205.29913330078125" stroke-width="3.0" fill="none" stroke="rgb(0, 0, 0)" stroke-opacity="1.0" stroke-linecap="round" stroke-linejoin="round"/>
    <path d="M 170.17433166503906 174.9037628173828 C 169.85928344726562 174.8763427734375 170.6185302734375 174.7748565673828 170.26060485839844 174.86932373046875" stroke-width="3.0" fill="none" stroke="rgb(0, 0, 0)" stroke-opacity="1.0" stroke-linecap="round" stroke-linejoin="round"/>
    <path d="M 90.96246337890625 45.94364547729492 C 91.08072662353516 47.970394134521484 80.94281005859375 51.543418884277344 95.57343292236328 43.51138687133789" stroke-width="3.0" fill="none" stroke="rgb(0, 0, 0)" stroke-opacity="1.0" stroke-linecap="round" stroke-linejoin="round"/>
    <path d="M 97.2593994140625 40.620216369628906 C 85.99542236328125 48.86787796020508 89.31945037841797 47.715606689453125 91.14733123779297 45.3750114440918" stroke-width="3.0" fill="none" stroke="rgb(0, 0, 0)" stroke-opacity="1.0" stroke-linecap="round" stroke-linejoin="round"/>
    <path d="M 88.6951675415039 56.7448844909668 C 88.22146606445312 48.3743896484375 95.74264526367188 28.58563232421875 98.97356414794922 51.96730422973633" stroke-width="3.0" fill="none" stroke="rgb(0, 0, 0)" stroke-opacity="1.0" stroke-linecap="round" stroke-linejoin="round"/>
    <path d="M 75.8160629272461 60.25271987915039 C 95.82594299316406 69.30096435546875 67.34626007080078 55.08419418334961 63.7920036315918 64.21012115478516" stroke-width="3.0" fill="none" stroke="rgb(0, 0, 0)" stroke-opacity="1.0" stroke-linecap="round" stroke-linejoin="round"/>
  </g>
</svg>
