<?xml version="1.0" ?>
<svg xmlns="http://www.w3.org/2000/svg" version="1.1" width="224" height="224">
  <defs/>
  <g>
    <path d="M 133.86524963378906 95.57779693603516 C 133.541748046875 95.6030044555664 132.46539306640625 95.95880126953125 133.176513671875 95.86205291748047" stroke-width="3.0" fill="none" stroke="rgb(0, 0, 0)" stroke-opacity="1.0" stroke-linecap="round" stroke-linejoin="round"/>
    <path d="M 167.24203491210938 134.90725708007812 C 166.31570434570312 136.26605224609375 171.6684112548828 132.4146728515625 171.31199645996094 134.1793975830078" stroke-width="3.0" fill="none" stroke="rgb(0, 0, 0)" stroke-opacity="1.0" stroke-linecap="round" stroke-linejoin="round"/>
    <path d="M 85.09162902832031 149.42507934570312 C 78.6427001953125 149.40493774414062 84.23016357421875 146.7357635498047 82.87290954589844 118.75743865966797" stroke-width="3.0" fill="none" stroke="rgb(0, 0, 0)" stroke-opacity="1.0" stroke-linecap="round" stroke-linejoin="round"/>
    <path d="M 98.22187042236328 124.68294525146484 C 98.27850341796875 123.01066589355469 98.29985809326172 123.58181762695312 94.66989135742188 130.64524841308594" stroke-width="3.0" fill="none" stroke="rgb(0, 0, 0)" stroke-opacity="1.0" stroke-linecap="round" stroke-linejoin="round"/>
    <path d="M 160.14776611328125 91.0662612915039 C 160.18605041503906 91.32599639892578 159.3110809326172 91.88365173339844 159.20570373535156 91.47638702392578" stroke-width="3.0" fill="none" stroke="rgb(0, 0, 0)" stroke-opacity="1.0" stroke-linecap="round" stroke-linejoin="round"/>
    <path d="M 126.5859375 67.02864074707031 C 126.72549438476562 66.68297576904297 126.72811889648438 67.83087158203125 127.14212799072266 67.13691711425781" stroke-width="3.0" fill="none" stroke="rgb(0, 0, 0)" stroke-opacity="1.0" stroke-linecap="round" stroke-linejoin="round"/>
    <path d="M 138.5907745361328 143.515625 C 139.7417755126953 142.9855499267578 140.35939025878906 142.3954620361328 139.49937438964844 142.89364624023438" stroke-width="3.0" fill="none" stroke="rgb(0, 0, 0)" stroke-opacity="1.0" stroke-linecap="round" stroke-linejoin="round"/>
    <path d="M 124.32157897949219 110.15727233886719 C 124.43144226074219 109.5943603515625 124.07660675048828 109.99152374267578 124.2419662475586 110.21105194091797" stroke-width="3.0" fill="none" stroke="rgb(0, 0, 0)" stroke-opacity="1.0" stroke-linecap="round" stroke-linejoin="round"/>
    <path d="M 82.30669403076172 127.8947525024414 C 82.33226776123047 126.30387115478516 81.70275115966797 106.33210754394531 81.91040802001953 142.1631622314453" stroke-width="3.0" fill="none" stroke="rgb(0, 0, 0)" stroke-opacity="1.0" stroke-linecap="round" stroke-linejoin="round"/>
    <path d="M 134.69638061523438 54.34054946899414 C 134.51220703125 53.531341552734375 133.98709106445312 54.22073745727539 135.0348663330078 54.012149810791016" stroke-width="3.0" fill="none" stroke="rgb(0, 0, 0)" stroke-opacity="1.0" stroke-linecap="round" stroke-linejoin="round"/>
    <path d="M 95.15845489501953 147.3891143798828 C 101.3473129272461 143.73023986816406 91.16230773925781 145.477294921875 95.95416259765625 146.22386169433594" stroke-width="3.0" fill="none" stroke="rgb(0, 0, 0)" stroke-opacity="1.0" stroke-linecap="round" stroke-linejoin="round"/>
    <path d="M 109.96650695800781 145.76036071777344 C 146.98886108398438 140.5469207763672 137.20147705078125 144.3401336669922 138.1842498779297 143.3058319091797" stroke-width="3.0" fill="none" stroke="rgb(0, 0, 0)" stroke-opacity="1.0" stroke-linecap="round" stroke-linejoin="round"/>
    <path d="M 159.49853515625 92.08554077148438 C 159.49168395996094 91.63053894042969 160.30435180664062 92.69500732421875 159.61834716796875 91.94598388671875" stroke-width="3.0" fill="none" stroke="rgb(0, 0, 0)" stroke-opacity="1.0" stroke-linecap="round" stroke-linejoin="round"/>
    <path d="M 159.03341674804688 92.06668853759766 C 159.43243408203125 91.14289093017578 159.5745391845703 91.1573486328125 159.42849731445312 91.48536682128906" stroke-width="3.0" fill="none" stroke="rgb(0, 0, 0)" stroke-opacity="1.0" stroke-linecap="round" stroke-linejoin="round"/>
    <path d="M 183.13156127929688 72.47232818603516 C 182.12741088867188 71.71971893310547 184.28224182128906 73.55043029785156 182.8782196044922 71.9761734008789" stroke-width="3.0" fill="none" stroke="rgb(0, 0, 0)" stroke-opacity="1.0" stroke-linecap="round" stroke-linejoin="round"/>
    <path d="M 174.3602752685547 78.91150665283203 C 175.3643798828125 78.92745971679688 173.47776794433594 76.86478424072266 174.52001953125 78.84334564208984" stroke-width="3.0" fill="none" stroke="rgb(0, 0, 0)" stroke-opacity="1.0" stroke-linecap="round" stroke-linejoin="round"/>
  </g>
</svg>
