<?xml version="1.0" ?>
<svg xmlns="http://www.w3.org/2000/svg" version="1.1" width="224" height="224">
  <defs/>
  <g>
    <path d="M 101.81608581542969 61.87471389770508 C 99.4303207397461 64.67586517333984 102.52014923095703 58.80624771118164 100.0519790649414 63.90425109863281" stroke-width="3.0" fill="none" stroke="rgb(0, 0, 0)" stroke-opacity="1.0" stroke-linecap="round" stroke-linejoin="round"/>
    <path d="M 53.81349563598633 204.72125244140625 C 53.65110778808594 210.97732543945312 54.74256134033203 192.6543731689453 54.9837760925293 188.05491638183594" stroke-width="3.0" fill="none" stroke="rgb(0, 0, 0)" stroke-opacity="1.0" stroke-linecap="round" stroke-linejoin="round"/>
    <path d="M 5.641717910766602 160.8251495361328 C 8.277691841125488 153.5644073486328 6.736809253692627 158.02708435058594 6.217649936676025 159.3121337890625" stroke-width="3.0" fill="none" stroke="rgb(0, 0, 0)" stroke-opacity="1.0" stroke-linecap="round" stroke-linejoin="round"/>
    <path d="M 160.54913330078125 109.52216339111328 C 161.17835998535156 110.54761505126953 162.30677795410156 110.80661010742188 161.6810302734375 110.2088623046875" stroke-width="3.0" fill="none" stroke="rgb(0, 0, 0)" stroke-opacity="1.0" stroke-linecap="round" stroke-linejoin="round"/>
    <path d="M 91.98062896728516 40.99456787109375 C 94.79730987548828 50.3129997253418 84.37188720703125 46.62588119506836 87.44477081298828 50.40146255493164" stroke-width="3.0" fill="none" stroke="rgb(0, 0, 0)" stroke-opacity="1.0" stroke-linecap="round" stroke-linejoin="round"/>
    <path d="M 198.92904663085938 29.110280990600586 C 198.94154357910156 29.182180404663086 199.2447967529297 29.161457061767578 198.97256469726562 28.94173240661621" stroke-width="3.0" fill="none" stroke="rgb(0, 0, 0)" stroke-opacity="1.0" stroke-linecap="round" stroke-linejoin="round"/>
    <path d="M 54.81814956665039 193.72569274902344 C 54.25920104980469 195.69696044921875 53.779178619384766 197.74935913085938 54.753868103027344 195.73519897460938" stroke-width="3.0" fill="none" stroke="rgb(0, 0, 0)" stroke-opacity="1.0" stroke-linecap="round" stroke-linejoin="round"/>
    <path d="M 72.16192626953125 112.92247772216797 C 72.49036407470703 112.76087951660156 72.11080169677734 113.08696746826172 72.25285339355469 112.92239379882812" stroke-width="3.0" fill="none" stroke="rgb(0, 0, 0)" stroke-opacity="1.0" stroke-linecap="round" stroke-linejoin="round"/>
    <path d="M 128.40757751464844 139.03701782226562 C 127.98001861572266 138.7080078125 128.38558959960938 138.9105987548828 128.22259521484375 138.8751678466797" stroke-width="3.0" fill="none" stroke="rgb(0, 0, 0)" stroke-opacity="1.0" stroke-linecap="round" stroke-linejoin="round"/>
    <path d="M 152.13792419433594 0.2845457196235657 C 147.8621368408203 -1.2604122161865234 147.98863220214844 0.9256585240364075 148.1252899169922 0.30362746119499207" stroke-width="3.0" fill="none" stroke="rgb(0, 0, 0)" stroke-opacity="1.0" stroke-linecap="round" stroke-linejoin="round"/>
    <path d="M 198.16542053222656 206.45501708984375 C 198.218994140625 206.5791473388672 197.7736053466797 206.49957275390625 198.1678924560547 206.61399841308594" stroke-width="3.0" fill="none" stroke="rgb(0, 0, 0)" stroke-opacity="1.0" stroke-linecap="round" stroke-linejoin="round"/>
    <path d="M 190.9183807373047 181.83497619628906 C 190.964599609375 181.60919189453125 191.06614685058594 182.07821655273438 191.2991485595703 182.02377319335938" stroke-width="3.0" fill="none" stroke="rgb(0, 0, 0)" stroke-opacity="1.0" stroke-linecap="round" stroke-linejoin="round"/>
    <path d="M 86.07408142089844 52.92544937133789 C 93.53482055664062 44.7921028137207 87.48382568359375 47.77248001098633 91.92330932617188 41.873512268066406" stroke-width="3.0" fill="none" stroke="rgb(0, 0, 0)" stroke-opacity="1.0" stroke-linecap="round" stroke-linejoin="round"/>
    <path d="M 94.66717529296875 46.40406799316406 C 95.01091766357422 40.933475494384766 91.0670166015625 46.50353240966797 89.01126861572266 50.20960235595703" stroke-width="3.0" fill="none" stroke="rgb(0, 0, 0)" stroke-opacity="1.0" stroke-linecap="round" stroke-linejoin="round"/>
    <path d="M 88.91287231445312 55.199684143066406 C 88.68803405761719 42.66746520996094 98.3971939086914 32.830543518066406 98.76911926269531 51.7200813293457" stroke-width="3.0" fill="none" stroke="rgb(0, 0, 0)" stroke-opacity="1.0" stroke-linecap="round" stroke-linejoin="round"/>
    <path d="M 80.86489868164062 61.43695068359375 C 87.75405883789062 68.7083740234375 76.82754516601562 55.72708511352539 65.64215850830078 63.368621826171875" stroke-width="3.0" fill="none" stroke="rgb(0, 0, 0)" stroke-opacity="1.0" stroke-linecap="round" stroke-linejoin="round"/>
  </g>
</svg>
