<?xml version="1.0" ?>
<svg xmlns="http://www.w3.org/2000/svg" version="1.1" width="224" height="224">
  <defs/>
  <g>
    <path d="M 90.09899139404297 109.46453857421875 C 51.89300537109375 114.1172103881836 107.67902374267578 98.89483642578125 100.2210464477539 130.8734588623047" stroke-width="2" fill="none" stroke="rgb(0, 0, 0)" stroke-opacity="1.0" stroke-linecap="round" stroke-linejoin="round"/>
    <path d="M 144.308349609375 156.92320251464844 C 188.8690185546875 141.72396850585938 110.6624984741211 158.47738647460938 103.54602813720703 138.12013244628906" stroke-width="2" fill="none" stroke="rgb(0, 0, 0)" stroke-opacity="1.0" stroke-linecap="round" stroke-linejoin="round"/>
    <path d="M 143.66397094726562 135.4722442626953 C 118.82262420654297 116.30914306640625 141.96658325195312 166.49771118164062 150.2510528564453 114.56099700927734" stroke-width="2" fill="none" stroke="rgb(0, 0, 0)" stroke-opacity="1.0" stroke-linecap="round" stroke-linejoin="round"/>
    <path d="M 152.1661376953125 134.1966552734375 C 182.71763610839844 113.71003723144531 181.6209259033203 120.89569091796875 133.83456420898438 108.44945526123047" stroke-width="2" fill="none" stroke="rgb(0, 0, 0)" stroke-opacity="1.0" stroke-linecap="round" stroke-linejoin="round"/>
    <path d="M 132.405517578125 142.87069702148438 C 165.61279296875 147.3203125 132.98646545410156 88.6157455444336 107.94518280029297 69.33003997802734" stroke-width="2" fill="none" stroke="rgb(0, 0, 0)" stroke-opacity="1.0" stroke-linecap="round" stroke-linejoin="round"/>
    <path d="M 107.02759552001953 68.5016860961914 C 93.68031311035156 84.9561538696289 98.16426849365234 126.35667419433594 116.29647827148438 113.28250885009766" stroke-width="2" fill="none" stroke="rgb(0, 0, 0)" stroke-opacity="1.0" stroke-linecap="round" stroke-linejoin="round"/>
    <path d="M 75.65848541259766 141.48703002929688 C 90.45730590820312 151.943359375 57.618682861328125 157.21107482910156 145.0923614501953 153.59291076660156" stroke-width="2" fill="none" stroke="rgb(0, 0, 0)" stroke-opacity="1.0" stroke-linecap="round" stroke-linejoin="round"/>
    <path d="M 163.10919189453125 139.2078094482422 C 128.7940673828125 144.18276977539062 222.43101501464844 80.79949188232422 143.72137451171875 123.27130126953125" stroke-width="2" fill="none" stroke="rgb(0, 0, 0)" stroke-opacity="1.0" stroke-linecap="round" stroke-linejoin="round"/>
    <path d="M 117.6313247680664 134.52993774414062 C 148.0297088623047 130.23974609375 156.19212341308594 145.28964233398438 121.38045501708984 130.99559020996094" stroke-width="2" fill="none" stroke="rgb(0, 0, 0)" stroke-opacity="1.0" stroke-linecap="round" stroke-linejoin="round"/>
    <path d="M 185.21107482910156 62.86372375488281 C 162.4321746826172 77.34135437011719 196.19064331054688 87.38582611083984 171.66497802734375 113.78408813476562" stroke-width="2" fill="none" stroke="rgb(0, 0, 0)" stroke-opacity="1.0" stroke-linecap="round" stroke-linejoin="round"/>
    <path d="M 164.81715393066406 158.15121459960938 C 139.26797485351562 146.13665771484375 207.5888214111328 160.03244018554688 163.1112823486328 148.37767028808594" stroke-width="2" fill="none" stroke="rgb(0, 0, 0)" stroke-opacity="1.0" stroke-linecap="round" stroke-linejoin="round"/>
    <path d="M 39.38534927368164 119.94149780273438 C 54.104801177978516 147.17608642578125 -1.3961924314498901 146.93836975097656 43.00523376464844 136.0851287841797" stroke-width="2" fill="none" stroke="rgb(0, 0, 0)" stroke-opacity="1.0" stroke-linecap="round" stroke-linejoin="round"/>
    <path d="M 111.04508972167969 121.43487548828125 C 109.53845977783203 91.95175170898438 144.18740844726562 128.3436737060547 111.35509490966797 70.55786895751953" stroke-width="2" fill="none" stroke="rgb(0, 0, 0)" stroke-opacity="1.0" stroke-linecap="round" stroke-linejoin="round"/>
    <path d="M 179.47698974609375 69.27932739257812 C 181.3066864013672 87.37454223632812 177.58692932128906 78.76441955566406 186.54644775390625 66.40409851074219" stroke-width="2" fill="none" stroke="rgb(0, 0, 0)" stroke-opacity="1.0" stroke-linecap="round" stroke-linejoin="round"/>
    <path d="M 104.56383514404297 104.839111328125 C 57.24560546875 98.97636413574219 76.67059326171875 100.42340087890625 42.77262496948242 100.06542205810547" stroke-width="2" fill="none" stroke="rgb(0, 0, 0)" stroke-opacity="1.0" stroke-linecap="round" stroke-linejoin="round"/>
    <path d="M 83.85923767089844 115.82843017578125 C 40.249366760253906 100.89405822753906 18.16519546508789 89.55604553222656 80.175048828125 143.59918212890625" stroke-width="2" fill="none" stroke="rgb(0, 0, 0)" stroke-opacity="1.0" stroke-linecap="round" stroke-linejoin="round"/>
  </g>
</svg>
