<?xml version="1.0" ?>
<svg xmlns="http://www.w3.org/2000/svg" version="1.1" width="224" height="224">
  <defs/>
  <g>
    <path d="M 121.96047973632812 87.68230438232422 C 120.28460693359375 88.70582580566406 120.49568939208984 51.74236297607422 131.55198669433594 71.01010131835938" stroke-width="3.0" fill="none" stroke="rgb(0, 0, 0)" stroke-opacity="1.0" stroke-linecap="round" stroke-linejoin="round"/>
    <path d="M 157.8398895263672 125.71173095703125 C 184.3445587158203 134.92092895507812 166.9980926513672 117.39617919921875 112.1768798828125 118.9434585571289" stroke-width="3.0" fill="none" stroke="rgb(0, 0, 0)" stroke-opacity="1.0" stroke-linecap="round" stroke-linejoin="round"/>
    <path d="M 131.48312377929688 87.11224365234375 C 126.86302185058594 92.06504821777344 109.02310180664062 82.64440155029297 129.13372802734375 85.10157012939453" stroke-width="3.0" fill="none" stroke="rgb(0, 0, 0)" stroke-opacity="1.0" stroke-linecap="round" stroke-linejoin="round"/>
    <path d="M 151.4999237060547 94.15472412109375 C 158.32254028320312 85.38362121582031 171.35092163085938 84.58680725097656 153.64871215820312 89.4439697265625" stroke-width="3.0" fill="none" stroke="rgb(0, 0, 0)" stroke-opacity="1.0" stroke-linecap="round" stroke-linejoin="round"/>
    <path d="M 115.2756118774414 76.70036315917969 C 127.88703155517578 98.12460327148438 121.22232818603516 47.572296142578125 130.94810485839844 75.45305633544922" stroke-width="3.0" fill="none" stroke="rgb(0, 0, 0)" stroke-opacity="1.0" stroke-linecap="round" stroke-linejoin="round"/>
    <path d="M 114.16195678710938 75.12966918945312 C 129.84341430664062 62.353858947753906 142.1529541015625 80.57723236083984 123.64474487304688 89.87982177734375" stroke-width="3.0" fill="none" stroke="rgb(0, 0, 0)" stroke-opacity="1.0" stroke-linecap="round" stroke-linejoin="round"/>
    <path d="M 149.1691131591797 117.94027709960938 C 169.1791534423828 147.14312744140625 163.26515197753906 99.36962127685547 157.5830535888672 133.27413940429688" stroke-width="3.0" fill="none" stroke="rgb(0, 0, 0)" stroke-opacity="1.0" stroke-linecap="round" stroke-linejoin="round"/>
    <path d="M 154.60716247558594 97.72087097167969 C 157.3892364501953 87.47374725341797 158.56576538085938 100.8123550415039 155.49644470214844 95.55480194091797" stroke-width="3.0" fill="none" stroke="rgb(0, 0, 0)" stroke-opacity="1.0" stroke-linecap="round" stroke-linejoin="round"/>
    <path d="M 165.38230895996094 103.67573547363281 C 165.19175720214844 104.30763244628906 167.50341796875 101.19878387451172 165.04287719726562 103.6600570678711" stroke-width="3.0" fill="none" stroke="rgb(0, 0, 0)" stroke-opacity="1.0" stroke-linecap="round" stroke-linejoin="round"/>
    <path d="M 119.09701538085938 66.40890502929688 C 105.81904602050781 79.60484313964844 128.7875213623047 63.12632369995117 91.2466812133789 79.94432067871094" stroke-width="3.0" fill="none" stroke="rgb(0, 0, 0)" stroke-opacity="1.0" stroke-linecap="round" stroke-linejoin="round"/>
    <path d="M 145.36932373046875 135.53610229492188 C 181.2074737548828 129.76023864746094 146.76498413085938 117.1196517944336 192.17471313476562 131.71673583984375" stroke-width="3.0" fill="none" stroke="rgb(0, 0, 0)" stroke-opacity="1.0" stroke-linecap="round" stroke-linejoin="round"/>
    <path d="M 179.93197631835938 130.9261474609375 C 197.63772583007812 101.9336929321289 169.6874542236328 114.67321014404297 191.3751983642578 127.27111053466797" stroke-width="3.0" fill="none" stroke="rgb(0, 0, 0)" stroke-opacity="1.0" stroke-linecap="round" stroke-linejoin="round"/>
    <path d="M 133.70851135253906 80.67710876464844 C 149.51210021972656 83.4312515258789 119.01123046875 80.80995178222656 147.8042449951172 81.29045867919922" stroke-width="3.0" fill="none" stroke="rgb(0, 0, 0)" stroke-opacity="1.0" stroke-linecap="round" stroke-linejoin="round"/>
    <path d="M 128.1875762939453 71.9304428100586 C 108.8741226196289 82.65426635742188 105.53296661376953 68.68607330322266 125.79061126708984 74.52812957763672" stroke-width="3.0" fill="none" stroke="rgb(0, 0, 0)" stroke-opacity="1.0" stroke-linecap="round" stroke-linejoin="round"/>
    <path d="M 101.4159164428711 81.16685485839844 C 132.2715606689453 74.3791732788086 134.11026000976562 88.08724212646484 120.7483901977539 68.92562866210938" stroke-width="3.0" fill="none" stroke="rgb(0, 0, 0)" stroke-opacity="1.0" stroke-linecap="round" stroke-linejoin="round"/>
    <path d="M 183.13746643066406 114.03485107421875 C 185.6511993408203 75.85828399658203 138.8753204345703 72.56012725830078 142.167724609375 84.32352447509766" stroke-width="3.0" fill="none" stroke="rgb(0, 0, 0)" stroke-opacity="1.0" stroke-linecap="round" stroke-linejoin="round"/>
    <path d="M 92.18729400634766 97.12650299072266 C 86.25235748291016 83.90267181396484 116.8807144165039 109.55496978759766 92.44397735595703 89.16046142578125" stroke-width="3.0" fill="none" stroke="rgb(0, 0, 0)" stroke-opacity="1.0" stroke-linecap="round" stroke-linejoin="round"/>
    <path d="M 74.28520202636719 75.780517578125 C 92.32099151611328 87.58590698242188 107.3755111694336 83.20558166503906 70.9582748413086 94.48951721191406" stroke-width="3.0" fill="none" stroke="rgb(0, 0, 0)" stroke-opacity="1.0" stroke-linecap="round" stroke-linejoin="round"/>
    <path d="M 87.09249877929688 82.78581237792969 C 114.31289672851562 87.00182342529297 109.7094497680664 83.68782806396484 110.41038513183594 79.40430450439453" stroke-width="3.0" fill="none" stroke="rgb(0, 0, 0)" stroke-opacity="1.0" stroke-linecap="round" stroke-linejoin="round"/>
    <path d="M 99.6292953491211 85.78357696533203 C 124.97940063476562 121.10877227783203 117.91292572021484 113.36143493652344 109.5241928100586 116.68924713134766" stroke-width="3.0" fill="none" stroke="rgb(0, 0, 0)" stroke-opacity="1.0" stroke-linecap="round" stroke-linejoin="round"/>
    <path d="M 68.46662902832031 80.60773468017578 C 66.8287353515625 79.77782440185547 82.44959259033203 82.96564483642578 63.704063415527344 79.3155746459961" stroke-width="3.0" fill="none" stroke="rgb(0, 0, 0)" stroke-opacity="1.0" stroke-linecap="round" stroke-linejoin="round"/>
    <path d="M 130.6904296875 84.15118408203125 C 94.23291015625 81.83492279052734 96.25528717041016 77.90300750732422 124.35102081298828 76.1059341430664" stroke-width="3.0" fill="none" stroke="rgb(0, 0, 0)" stroke-opacity="1.0" stroke-linecap="round" stroke-linejoin="round"/>
    <path d="M 91.62431335449219 87.66535186767578 C 101.03292846679688 90.42747497558594 97.1721420288086 78.37144470214844 75.9223861694336 102.37905883789062" stroke-width="3.0" fill="none" stroke="rgb(0, 0, 0)" stroke-opacity="1.0" stroke-linecap="round" stroke-linejoin="round"/>
    <path d="M 89.98411560058594 95.37146759033203 C 105.098876953125 85.4407958984375 104.26729583740234 88.38352966308594 88.4295654296875 91.93258666992188" stroke-width="3.0" fill="none" stroke="rgb(0, 0, 0)" stroke-opacity="1.0" stroke-linecap="round" stroke-linejoin="round"/>
    <path d="M 154.48443603515625 104.9534683227539 C 145.03256225585938 104.21400451660156 154.43141174316406 105.30855560302734 154.5561981201172 106.13228607177734" stroke-width="3.0" fill="none" stroke="rgb(0, 0, 0)" stroke-opacity="1.0" stroke-linecap="round" stroke-linejoin="round"/>
    <path d="M 93.20504760742188 78.48020935058594 C 91.13656616210938 74.42613983154297 86.86093139648438 86.8382797241211 69.30514526367188 90.93182373046875" stroke-width="3.0" fill="none" stroke="rgb(0, 0, 0)" stroke-opacity="1.0" stroke-linecap="round" stroke-linejoin="round"/>
    <path d="M 166.43699645996094 83.56644439697266 C 142.5802001953125 82.1932601928711 173.14425659179688 82.28596496582031 156.26263427734375 85.45101165771484" stroke-width="3.0" fill="none" stroke="rgb(0, 0, 0)" stroke-opacity="1.0" stroke-linecap="round" stroke-linejoin="round"/>
    <path d="M 111.37315368652344 104.12109375 C 96.1801986694336 96.98356628417969 105.87799835205078 82.31497192382812 87.78710174560547 86.35554504394531" stroke-width="3.0" fill="none" stroke="rgb(0, 0, 0)" stroke-opacity="1.0" stroke-linecap="round" stroke-linejoin="round"/>
    <path d="M 126.73982238769531 78.46842956542969 C 108.69273376464844 63.716983795166016 132.51766967773438 60.79182434082031 124.8819808959961 77.94230651855469" stroke-width="3.0" fill="none" stroke="rgb(0, 0, 0)" stroke-opacity="1.0" stroke-linecap="round" stroke-linejoin="round"/>
    <path d="M 97.60491943359375 87.11964416503906 C 108.95763397216797 111.33891296386719 82.04583740234375 83.7881851196289 74.00798797607422 84.12885284423828" stroke-width="3.0" fill="none" stroke="rgb(0, 0, 0)" stroke-opacity="1.0" stroke-linecap="round" stroke-linejoin="round"/>
    <path d="M 68.30416870117188 66.94686126708984 C 104.6092529296875 88.13453674316406 89.24986267089844 101.86522674560547 93.0924072265625 89.24480438232422" stroke-width="3.0" fill="none" stroke="rgb(0, 0, 0)" stroke-opacity="1.0" stroke-linecap="round" stroke-linejoin="round"/>
    <path d="M 101.6475830078125 83.27743530273438 C 121.59888458251953 79.7456283569336 121.92022705078125 73.59722900390625 99.98136138916016 80.62187957763672" stroke-width="3.0" fill="none" stroke="rgb(0, 0, 0)" stroke-opacity="1.0" stroke-linecap="round" stroke-linejoin="round"/>
  </g>
</svg>
