<?xml version="1.0" ?>
<svg xmlns="http://www.w3.org/2000/svg" version="1.1" width="224" height="224">
  <defs/>
  <g>
    <path d="M 126.66761016845703 89.4712905883789 C 116.7900619506836 85.58086395263672 124.68030548095703 53.62051010131836 130.4807891845703 73.9030990600586" stroke-width="3.0" fill="none" stroke="rgb(0, 0, 0)" stroke-opacity="1.0" stroke-linecap="round" stroke-linejoin="round"/>
    <path d="M 163.67453002929688 128.75888061523438 C 163.367919921875 127.82048797607422 164.04714965820312 125.29286193847656 137.66416931152344 119.88898468017578" stroke-width="3.0" fill="none" stroke="rgb(0, 0, 0)" stroke-opacity="1.0" stroke-linecap="round" stroke-linejoin="round"/>
    <path d="M 133.55140686035156 92.4240951538086 C 133.73126220703125 92.95050811767578 133.93875122070312 91.95116424560547 133.20904541015625 92.7029800415039" stroke-width="3.0" fill="none" stroke="rgb(0, 0, 0)" stroke-opacity="1.0" stroke-linecap="round" stroke-linejoin="round"/>
    <path d="M 150.422607421875 98.15756225585938 C 154.3229522705078 95.44271850585938 156.13967895507812 95.84527587890625 150.17112731933594 97.84291076660156" stroke-width="3.0" fill="none" stroke="rgb(0, 0, 0)" stroke-opacity="1.0" stroke-linecap="round" stroke-linejoin="round"/>
    <path d="M 116.54247283935547 75.76678466796875 C 121.75980377197266 84.44901275634766 115.94900512695312 54.242618560791016 124.47877502441406 74.10472869873047" stroke-width="3.0" fill="none" stroke="rgb(0, 0, 0)" stroke-opacity="1.0" stroke-linecap="round" stroke-linejoin="round"/>
    <path d="M 114.7963638305664 73.05181884765625 C 120.5589370727539 81.7714614868164 128.9481964111328 85.12245178222656 123.31666564941406 89.94445037841797" stroke-width="3.0" fill="none" stroke="rgb(0, 0, 0)" stroke-opacity="1.0" stroke-linecap="round" stroke-linejoin="round"/>
    <path d="M 155.8539276123047 126.33929443359375 C 161.83111572265625 138.04486083984375 161.60104370117188 128.6432647705078 157.10113525390625 123.69218444824219" stroke-width="3.0" fill="none" stroke="rgb(0, 0, 0)" stroke-opacity="1.0" stroke-linecap="round" stroke-linejoin="round"/>
    <path d="M 154.0218505859375 95.97088623046875 C 151.30641174316406 101.53440856933594 147.5541534423828 94.51271057128906 149.200927734375 97.08109283447266" stroke-width="3.0" fill="none" stroke="rgb(0, 0, 0)" stroke-opacity="1.0" stroke-linecap="round" stroke-linejoin="round"/>
    <path d="M 166.3141632080078 102.53495788574219 C 165.8290557861328 103.09033203125 167.09336853027344 102.85484313964844 166.5585174560547 102.86390686035156" stroke-width="3.0" fill="none" stroke="rgb(0, 0, 0)" stroke-opacity="1.0" stroke-linecap="round" stroke-linejoin="round"/>
    <path d="M 119.40272521972656 66.71405029296875 C 111.60311126708984 77.3113784790039 121.7652587890625 68.22602081298828 92.08527374267578 78.96831512451172" stroke-width="3.0" fill="none" stroke="rgb(0, 0, 0)" stroke-opacity="1.0" stroke-linecap="round" stroke-linejoin="round"/>
    <path d="M 145.1735076904297 135.66976928710938 C 175.45167541503906 128.27430725097656 161.76060485839844 122.0152816772461 192.30149841308594 133.39041137695312" stroke-width="3.0" fill="none" stroke="rgb(0, 0, 0)" stroke-opacity="1.0" stroke-linecap="round" stroke-linejoin="round"/>
    <path d="M 182.36268615722656 131.87576293945312 C 190.20591735839844 95.75053405761719 173.9393768310547 108.5615463256836 190.1963348388672 124.60508728027344" stroke-width="3.0" fill="none" stroke="rgb(0, 0, 0)" stroke-opacity="1.0" stroke-linecap="round" stroke-linejoin="round"/>
    <path d="M 131.1762237548828 82.02477264404297 C 128.6326141357422 78.57978057861328 136.1177215576172 83.79068756103516 150.6708221435547 78.65963745117188" stroke-width="3.0" fill="none" stroke="rgb(0, 0, 0)" stroke-opacity="1.0" stroke-linecap="round" stroke-linejoin="round"/>
    <path d="M 126.92805480957031 79.1356430053711 C 98.29011535644531 84.27143096923828 101.79940795898438 70.79785919189453 120.73021697998047 82.01261901855469" stroke-width="3.0" fill="none" stroke="rgb(0, 0, 0)" stroke-opacity="1.0" stroke-linecap="round" stroke-linejoin="round"/>
    <path d="M 110.80998229980469 73.18732452392578 C 126.88475036621094 86.61251831054688 141.98976135253906 97.03569030761719 124.49514770507812 66.19304656982422" stroke-width="3.0" fill="none" stroke="rgb(0, 0, 0)" stroke-opacity="1.0" stroke-linecap="round" stroke-linejoin="round"/>
    <path d="M 183.83815002441406 107.19746398925781 C 176.77877807617188 71.07780456542969 141.71731567382812 78.72956085205078 146.71585083007812 81.83084106445312" stroke-width="3.0" fill="none" stroke="rgb(0, 0, 0)" stroke-opacity="1.0" stroke-linecap="round" stroke-linejoin="round"/>
    <path d="M 86.45305633544922 97.56108093261719 C 87.56140899658203 89.07421112060547 115.09780883789062 104.51780700683594 92.69491577148438 89.82044219970703" stroke-width="3.0" fill="none" stroke="rgb(0, 0, 0)" stroke-opacity="1.0" stroke-linecap="round" stroke-linejoin="round"/>
    <path d="M 74.20243072509766 78.1513900756836 C 88.13058471679688 81.46537017822266 93.05545806884766 84.29244995117188 69.43470764160156 94.33269500732422" stroke-width="3.0" fill="none" stroke="rgb(0, 0, 0)" stroke-opacity="1.0" stroke-linecap="round" stroke-linejoin="round"/>
    <path d="M 84.7157974243164 80.43498229980469 C 111.4620361328125 89.03640747070312 122.1126708984375 84.86088562011719 100.03311157226562 84.60297393798828" stroke-width="3.0" fill="none" stroke="rgb(0, 0, 0)" stroke-opacity="1.0" stroke-linecap="round" stroke-linejoin="round"/>
    <path d="M 100.34245300292969 90.23110961914062 C 118.96598052978516 114.24009704589844 123.39498901367188 112.1633529663086 111.0546646118164 117.81791687011719" stroke-width="3.0" fill="none" stroke="rgb(0, 0, 0)" stroke-opacity="1.0" stroke-linecap="round" stroke-linejoin="round"/>
    <path d="M 70.06657409667969 81.16288757324219 C 65.76363372802734 81.37772369384766 73.55936431884766 81.4691390991211 64.15369415283203 80.67051696777344" stroke-width="3.0" fill="none" stroke="rgb(0, 0, 0)" stroke-opacity="1.0" stroke-linecap="round" stroke-linejoin="round"/>
    <path d="M 111.20064544677734 78.34696960449219 C 93.96788024902344 78.3172378540039 102.04556274414062 82.78841400146484 107.11460876464844 82.12296295166016" stroke-width="3.0" fill="none" stroke="rgb(0, 0, 0)" stroke-opacity="1.0" stroke-linecap="round" stroke-linejoin="round"/>
    <path d="M 85.64632415771484 80.02449035644531 C 99.59004211425781 85.99513244628906 94.51949310302734 83.18299865722656 74.13748168945312 102.24771881103516" stroke-width="3.0" fill="none" stroke="rgb(0, 0, 0)" stroke-opacity="1.0" stroke-linecap="round" stroke-linejoin="round"/>
    <path d="M 81.69093322753906 91.30818939208984 C 105.51115417480469 86.33964538574219 105.41447448730469 89.69538116455078 88.7121353149414 92.54431915283203" stroke-width="3.0" fill="none" stroke="rgb(0, 0, 0)" stroke-opacity="1.0" stroke-linecap="round" stroke-linejoin="round"/>
    <path d="M 154.460205078125 107.49829864501953 C 148.20327758789062 105.80050659179688 151.53900146484375 108.6575698852539 152.50299072265625 108.06707763671875" stroke-width="3.0" fill="none" stroke="rgb(0, 0, 0)" stroke-opacity="1.0" stroke-linecap="round" stroke-linejoin="round"/>
    <path d="M 92.80084228515625 77.58181762695312 C 89.83875274658203 81.03925323486328 79.74742126464844 87.9933090209961 85.29622650146484 78.42279052734375" stroke-width="3.0" fill="none" stroke="rgb(0, 0, 0)" stroke-opacity="1.0" stroke-linecap="round" stroke-linejoin="round"/>
    <path d="M 150.57211303710938 97.4729995727539 C 148.25933837890625 98.30003356933594 150.24391174316406 95.80440521240234 150.27658081054688 97.74922180175781" stroke-width="3.0" fill="none" stroke="rgb(0, 0, 0)" stroke-opacity="1.0" stroke-linecap="round" stroke-linejoin="round"/>
    <path d="M 109.95973205566406 105.6535873413086 C 98.89592742919922 93.56922912597656 97.22891998291016 99.80866241455078 100.30147552490234 88.06208801269531" stroke-width="3.0" fill="none" stroke="rgb(0, 0, 0)" stroke-opacity="1.0" stroke-linecap="round" stroke-linejoin="round"/>
    <path d="M 125.545654296875 77.66911315917969 C 115.75542449951172 63.991798400878906 124.3531265258789 60.703773498535156 127.14137268066406 83.5273208618164" stroke-width="3.0" fill="none" stroke="rgb(0, 0, 0)" stroke-opacity="1.0" stroke-linecap="round" stroke-linejoin="round"/>
    <path d="M 96.26896667480469 89.65741729736328 C 102.85968780517578 96.11788940429688 88.66946411132812 85.96622467041016 71.95054626464844 82.39092254638672" stroke-width="3.0" fill="none" stroke="rgb(0, 0, 0)" stroke-opacity="1.0" stroke-linecap="round" stroke-linejoin="round"/>
    <path d="M 68.82815551757812 67.37126159667969 C 104.53499603271484 89.12667083740234 87.97178649902344 93.01573944091797 97.68678283691406 82.82286071777344" stroke-width="3.0" fill="none" stroke="rgb(0, 0, 0)" stroke-opacity="1.0" stroke-linecap="round" stroke-linejoin="round"/>
    <path d="M 88.88967895507812 86.6363525390625 C 118.10954284667969 85.06004333496094 114.21028137207031 76.38612365722656 102.93981170654297 81.061767578125" stroke-width="3.0" fill="none" stroke="rgb(0, 0, 0)" stroke-opacity="1.0" stroke-linecap="round" stroke-linejoin="round"/>
  </g>
</svg>
