<?xml version="1.0" ?>
<svg xmlns="http://www.w3.org/2000/svg" version="1.1" width="224" height="224">
  <defs/>
  <g>
    <path d="M 68.61923217773438 91.90619659423828 C 86.20307922363281 106.0042724609375 63.869998931884766 86.96749877929688 74.90817260742188 75.3692398071289" stroke-width="3.0" fill="none" stroke="rgb(0, 0, 0)" stroke-opacity="1.0" stroke-linecap="round" stroke-linejoin="round"/>
    <path d="M 173.6678466796875 202.70394897460938 C 150.910888671875 201.0787811279297 153.46237182617188 195.10516357421875 151.37635803222656 191.14773559570312" stroke-width="3.0" fill="none" stroke="rgb(0, 0, 0)" stroke-opacity="1.0" stroke-linecap="round" stroke-linejoin="round"/>
    <path d="M 116.66075134277344 134.97177124023438 C 121.76087951660156 134.44325256347656 113.21346282958984 124.78731536865234 104.5239028930664 143.15420532226562" stroke-width="3.0" fill="none" stroke="rgb(0, 0, 0)" stroke-opacity="1.0" stroke-linecap="round" stroke-linejoin="round"/>
    <path d="M 143.73789978027344 104.68238830566406 C 142.96604919433594 105.18863677978516 143.73924255371094 105.07322692871094 139.69505310058594 104.09733581542969" stroke-width="3.0" fill="none" stroke="rgb(0, 0, 0)" stroke-opacity="1.0" stroke-linecap="round" stroke-linejoin="round"/>
    <path d="M 94.04637145996094 67.05804443359375 C 92.1519546508789 69.38038635253906 92.25841522216797 55.91815948486328 96.56531524658203 40.610477447509766" stroke-width="3.0" fill="none" stroke="rgb(0, 0, 0)" stroke-opacity="1.0" stroke-linecap="round" stroke-linejoin="round"/>
    <path d="M 85.14082336425781 40.4328498840332 C 101.337646484375 40.93451690673828 86.80801391601562 44.98084259033203 91.01004791259766 55.80503463745117" stroke-width="3.0" fill="none" stroke="rgb(0, 0, 0)" stroke-opacity="1.0" stroke-linecap="round" stroke-linejoin="round"/>
    <path d="M 179.08895874023438 170.06993103027344 C 176.72552490234375 193.0530548095703 190.3482666015625 150.59906005859375 160.62411499023438 119.03762817382812" stroke-width="3.0" fill="none" stroke="rgb(0, 0, 0)" stroke-opacity="1.0" stroke-linecap="round" stroke-linejoin="round"/>
    <path d="M 77.250732421875 127.86528015136719 C 71.18347930908203 118.10944366455078 67.48220825195312 93.44029235839844 69.0567398071289 88.57814025878906" stroke-width="3.0" fill="none" stroke="rgb(0, 0, 0)" stroke-opacity="1.0" stroke-linecap="round" stroke-linejoin="round"/>
    <path d="M 110.58038330078125 134.26681518554688 C 130.00640869140625 135.39402770996094 117.21957397460938 136.87339782714844 106.64434814453125 136.44561767578125" stroke-width="3.0" fill="none" stroke="rgb(0, 0, 0)" stroke-opacity="1.0" stroke-linecap="round" stroke-linejoin="round"/>
    <path d="M 77.51207733154297 27.90851402282715 C 106.00363159179688 50.540740966796875 61.371612548828125 49.370418548583984 88.61202239990234 42.28752136230469" stroke-width="3.0" fill="none" stroke="rgb(0, 0, 0)" stroke-opacity="1.0" stroke-linecap="round" stroke-linejoin="round"/>
    <path d="M 102.14374542236328 208.6194305419922 C 164.57696533203125 181.5931396484375 122.22074127197266 211.1739501953125 173.83441162109375 198.2804412841797" stroke-width="3.0" fill="none" stroke="rgb(0, 0, 0)" stroke-opacity="1.0" stroke-linecap="round" stroke-linejoin="round"/>
    <path d="M 180.00482177734375 175.3447723388672 C 176.24119567871094 150.7965087890625 177.52322387695312 167.50552368164062 176.6148223876953 154.02175903320312" stroke-width="3.0" fill="none" stroke="rgb(0, 0, 0)" stroke-opacity="1.0" stroke-linecap="round" stroke-linejoin="round"/>
    <path d="M 103.3018569946289 77.33033752441406 C 86.597412109375 53.489681243896484 131.794189453125 51.35034942626953 117.31635284423828 64.90018463134766" stroke-width="3.0" fill="none" stroke="rgb(0, 0, 0)" stroke-opacity="1.0" stroke-linecap="round" stroke-linejoin="round"/>
    <path d="M 88.79309844970703 73.29399871826172 C 97.15762329101562 54.98001480102539 76.12710571289062 51.32575607299805 74.2190933227539 72.28331756591797" stroke-width="3.0" fill="none" stroke="rgb(0, 0, 0)" stroke-opacity="1.0" stroke-linecap="round" stroke-linejoin="round"/>
    <path d="M 98.37678527832031 55.57308578491211 C 96.11064147949219 33.7077522277832 106.93223571777344 39.979713439941406 98.44342041015625 51.59828567504883" stroke-width="3.0" fill="none" stroke="rgb(0, 0, 0)" stroke-opacity="1.0" stroke-linecap="round" stroke-linejoin="round"/>
    <path d="M 82.32543182373047 64.04043579101562 C 101.05368041992188 72.8768310546875 99.43596649169922 66.15303039550781 79.00362396240234 69.01834869384766" stroke-width="3.0" fill="none" stroke="rgb(0, 0, 0)" stroke-opacity="1.0" stroke-linecap="round" stroke-linejoin="round"/>
    <path d="M 120.4728775024414 91.7747802734375 C 136.248779296875 103.64075469970703 148.39779663085938 102.73857879638672 165.1790771484375 124.20750427246094" stroke-width="3.0" fill="none" stroke="rgb(0, 0, 0)" stroke-opacity="1.0" stroke-linecap="round" stroke-linejoin="round"/>
    <path d="M 114.98626708984375 71.91515350341797 C 133.541748046875 125.25479888916016 145.82363891601562 100.14701080322266 119.9971694946289 95.98458862304688" stroke-width="3.0" fill="none" stroke="rgb(0, 0, 0)" stroke-opacity="1.0" stroke-linecap="round" stroke-linejoin="round"/>
    <path d="M 87.66787719726562 77.15593719482422 C 103.4700927734375 86.8493881225586 90.93949890136719 82.99835205078125 109.16548919677734 60.67621994018555" stroke-width="3.0" fill="none" stroke="rgb(0, 0, 0)" stroke-opacity="1.0" stroke-linecap="round" stroke-linejoin="round"/>
    <path d="M 94.19806671142578 137.74986267089844 C 77.95768737792969 124.712646484375 96.77210998535156 144.51861572265625 88.73017883300781 125.57003021240234" stroke-width="3.0" fill="none" stroke="rgb(0, 0, 0)" stroke-opacity="1.0" stroke-linecap="round" stroke-linejoin="round"/>
    <path d="M 110.28034210205078 57.882530212402344 C 99.88721466064453 43.784793853759766 98.12216186523438 41.67225646972656 103.79967498779297 63.00717544555664" stroke-width="3.0" fill="none" stroke="rgb(0, 0, 0)" stroke-opacity="1.0" stroke-linecap="round" stroke-linejoin="round"/>
    <path d="M 121.06163787841797 67.94757080078125 C 116.92391204833984 104.99575805664062 69.84439849853516 94.7745361328125 117.01368713378906 86.01292419433594" stroke-width="3.0" fill="none" stroke="rgb(0, 0, 0)" stroke-opacity="1.0" stroke-linecap="round" stroke-linejoin="round"/>
    <path d="M 79.48934936523438 102.04688262939453 C 85.45289611816406 100.87130737304688 61.35938262939453 107.7954330444336 70.95539093017578 82.34725189208984" stroke-width="3.0" fill="none" stroke="rgb(0, 0, 0)" stroke-opacity="1.0" stroke-linecap="round" stroke-linejoin="round"/>
    <path d="M 93.75946044921875 102.63410949707031 C 105.10272216796875 99.0185775756836 112.12128448486328 101.99815368652344 103.50679016113281 103.19923400878906" stroke-width="3.0" fill="none" stroke="rgb(0, 0, 0)" stroke-opacity="1.0" stroke-linecap="round" stroke-linejoin="round"/>
    <path d="M 143.14297485351562 153.71957397460938 C 172.1237030029297 144.2179412841797 133.61318969726562 145.14939880371094 133.37033081054688 159.2671356201172" stroke-width="3.0" fill="none" stroke="rgb(0, 0, 0)" stroke-opacity="1.0" stroke-linecap="round" stroke-linejoin="round"/>
    <path d="M 100.46057891845703 65.25756072998047 C 118.19564056396484 70.80318450927734 130.56211853027344 67.25164794921875 116.82988739013672 60.60771179199219" stroke-width="3.0" fill="none" stroke="rgb(0, 0, 0)" stroke-opacity="1.0" stroke-linecap="round" stroke-linejoin="round"/>
    <path d="M 103.5496826171875 119.48480987548828 C 83.04144287109375 119.929931640625 111.13070678710938 114.48748779296875 96.8335952758789 117.30181121826172" stroke-width="3.0" fill="none" stroke="rgb(0, 0, 0)" stroke-opacity="1.0" stroke-linecap="round" stroke-linejoin="round"/>
    <path d="M 90.67012023925781 127.30658721923828 C 92.5682144165039 121.01275634765625 85.5585708618164 129.0819549560547 94.98222351074219 132.7515411376953" stroke-width="3.0" fill="none" stroke="rgb(0, 0, 0)" stroke-opacity="1.0" stroke-linecap="round" stroke-linejoin="round"/>
    <path d="M 117.19024658203125 45.45701217651367 C 131.4217529296875 42.3740234375 109.39105224609375 4.456306457519531 123.08098602294922 61.571407318115234" stroke-width="3.0" fill="none" stroke="rgb(0, 0, 0)" stroke-opacity="1.0" stroke-linecap="round" stroke-linejoin="round"/>
    <path d="M 129.9253692626953 98.11183166503906 C 122.20198059082031 90.75171661376953 124.91182708740234 102.18211364746094 131.35060119628906 105.22378540039062" stroke-width="3.0" fill="none" stroke="rgb(0, 0, 0)" stroke-opacity="1.0" stroke-linecap="round" stroke-linejoin="round"/>
    <path d="M 107.22610473632812 62.0887451171875 C 92.27259826660156 69.17926025390625 121.91027069091797 32.51790237426758 97.86368560791016 46.2131233215332" stroke-width="3.0" fill="none" stroke="rgb(0, 0, 0)" stroke-opacity="1.0" stroke-linecap="round" stroke-linejoin="round"/>
    <path d="M 73.56890869140625 67.04217529296875 C 81.20147705078125 24.918752670288086 74.87232208251953 74.88368225097656 75.9251708984375 27.35589599609375" stroke-width="3.0" fill="none" stroke="rgb(0, 0, 0)" stroke-opacity="1.0" stroke-linecap="round" stroke-linejoin="round"/>
  </g>
</svg>
